 <svg enable-background="new 0 0 100 100" fill='#1f8ac0' version="1.1" viewBox="0 0 100 100" xml:space="preserve" xmlns="http://www.w3.org/2000/svg">
              <path class="st0" d="m50.6 29c-3.7 0-6.9 1.3-9.4 3.4s-4 3.9-4.4 9.1h7.6c0.2-2.6 0.8-3.2 1.9-4.2s2.4-1.6 4-1.6 2.9 0.5 3.9 1.5 1.5 2.3 1.5 3.9-0.5 2.8-1.5 3.9l-4.6 4.6c-1.3 1.3-1.6 2.4-2 3.3-0.4 0.8 0 2.1 0 3.8v3.2h5.2v-2.2c0-1.7 0.8-3 1.5-3.9 0.3-0.3 0.9-0.7 1.4-1.2s1.2-1.1 1.9-1.7c0.7-0.7 1.3-1.2 1.7-1.6s1.1-1.1 1.9-2.1c1.4-1.7 2.1-3.8 2.1-6.3 0-3.7-1.2-6.5-3.5-8.6-2.4-2.3-5.4-3.3-9.2-3.3z"></path>
              <path class="st0" d="m51 63.6c-1.3 0-2.5 0.5-3.4 1.4s-1.4 2-1.4 3.3 0.5 2.4 1.5 3.3 2.1 1.4 3.4 1.4 2.5-0.5 3.4-1.4 1.4-2 1.4-3.3-0.5-2.4-1.5-3.3c-0.9-1-2.1-1.4-3.4-1.4z"></path>
              <path class="st0" d="m49.2 98.5h1 0.6c3.9 0 5.2-2.3 6-5.7 0.3-1.1 1.1-2.3 2.4-3.4 2.9-2.6 7.8-4.9 11.4-4.9 1 0.3 2.8 0.6 4 1.5 4.2 3.5 6.8 0.9 9.8-1.9 3-2.9 2.7-5.4 0.6-8.7-3.3-5.4 1.3-16.3 7.9-17.7 3.4-0.6 4.5-2.2 4.9-4.3 0.1-0.3 0.1-0.7 0.1-1v-4c-0.2-2.7-1.1-4.6-5-5.4-5-1-8.9-7.5-9-12.9 0-1.7 0.3-3.3 1.1-4.6 2-3.3 2.5-5.8-0.6-8.8-2.9-2.8-5.6-5.4-9.8-1.9-1.2 1-3 1.2-4 1.6-5.1 0-12.8-4.8-13.7-8.4s-2.2-5.9-6.5-5.7h-1c-4.3-0.2-5.7 2.1-6.6 5.7s-8.6 8.3-13.7 8.4c-1-0.4-2.8-0.6-4-1.6-4.2-3.4-6.8-0.9-9.8 1.9-3 3-2.7 5.4-0.6 8.8 3.3 5.3-1.3 16.2-7.9 17.6-3.9 0.8-4.8 2.8-5 5.4v4c0.2 2.6 1.1 4.6 5 5.4 6.6 1.4 11.3 12.3 8 17.7-2.1 3.3-2.5 5.8 0.6 8.7 3 2.9 5.6 5.5 9.8 1.9 1.2-0.9 3-1.2 4-1.5 5.2 0 12.9 4.7 13.7 8.3 0.6 3.3 2 5.7 6.3 5.5zm-27-46.2v-4c1.3-14.4 13.4-25.8 28-25.9 11.4 0.1 21.2 6.9 25.6 16.7 1.3 2.8 2.1 5.9 2.4 9.2v4c-1.1 12-9.7 21.9-21 24.9-2.2 0.6-4.6 0.9-7 0.9-4.6 0-9-1.2-12.9-3.2-8.3-4.4-14.2-12.7-15.1-22.6z"></path>
            </svg>