<?xml version="1.0" encoding="utf-8"?>
<!-- Generator: Adobe Illustrator 25.3.1, SVG Export Plug-In . SVG Version: 6.00 Build 0)  -->
<svg version="1.1" id="Layer_1" xmlns="http://www.w3.org/2000/svg" xmlns:xlink="http://www.w3.org/1999/xlink" x="0px" y="0px"
	 viewBox="0 0 150 150" enable-background="new 0 0 150 150" xml:space="preserve">
<ellipse opacity="0.12" fill="#606060" cx="76.1" cy="130.2" rx="52.2" ry="12.3"/>
<g>
	<path fill="#FC4D6D" d="M84.5,31.6c0,0-5.5-10,13.1-15.3l2.3-1.7c0,0,0.2-2.5,1.6-3.9s1.1-3.3-2.1-3.6c-3.2-0.3-9.8-4.4-9.8-4.4
		s-25-6.3-30.3,18.2s-10.6,38-10.6,38s-10.6,40.8,0.1,53.8c0,0-7.3-24.7,1.4-52.4c0,0,9.1-31.5,10.4-38.8c0,0,3.1-4.2-0.1-1.7
		c0,0,1.8-10,11.9-15c0,0,6-2.7,10.2-1c0,0,0.8,0.3-0.6-0.9c0,0,11.2-0.4,5.9,2s-6.3,4.2-6.3,4.2s-4.9-4.2-5.8,0.8
		c0,0,0.2,1.5,2.7,3.3c0,0-4.2-1.6-5.7,1.9c0,0-11.3,16.8-4.1,32.4c0,0,10.2,16.7-0.8,48.7c0,0-0.6-3.6-1.5-4.9l-2.2,4.3l0.4,6.6
		l-1.3,1.7l-1.4-1.2l0.3,4.2c0,0-5.1,11.5-7.4,13.1c0,0-2.1,14.4,28.2,12.6l19.3-0.2c0,0-1.2-2.3-6.3-2.2c0,0-0.1-1.7,6,0.6
		c0,0,5.3,2.2-1-2.3l-3.5-1c0,0,0.7-0.8,3.2,0.1c0,0,2-0.3-9.1-4.7c0,0,4.6-11.3-3.9-19.9c0,0,3-24.8,2.6-41.6c0,0,17,2.1,25.3-30
		c0,0-1.1-6.1-5.1-2.7s-5.2,5.1-5.2,5.1s-4.5,10.7-11.2,5.1c0,0,10.7-12.6,10.5-18.1c0,0-2.1-6.5-7.5-0.2S91.6,29.3,84.5,31.6z"/>
	<path fill="#FC4D6D" d="M57.8,132.7c0,0-21.5,14-38.1-1.5c0,0-2.5-6.3,8.2-9.8c0,0,15.9-3.8,22.8,1.4c0,0-23.7-2.6-24.6,6.1
		c0,0,10.3-6.9,20.2-3.8C46.2,125,46.4,133.4,57.8,132.7z"/>
	<circle fill="#FFFFFF" cx="91.1" cy="8.9" r="1.6"/>
	<path fill="#FC4D6D" d="M101.5,11.7c0,0,4.2-0.6,4.2,2.6s-2.8,1.1-2.8,1.1s-1.2-0.8-2.4-0.6c0,0-0.4-1,0.8-0.7s2.3,0.8,2.4,0.9
		c0.1,0.1,2.2-0.2,0.6-1.7c-1.6-1.5-3.2-0.6-3.2-0.6S100.8,11.9,101.5,11.7z"/>
	<path fill="#FC4D6D" d="M100.9,13.4c0,0,2-0.7,2.8,0.6c0,0-1.4-1-2.8-0.4L100.9,13.4z"/>
</g>
<g>
</g>
<g>
</g>
<g>
</g>
<g>
</g>
<g>
</g>
<g>
</g>
<g>
</g>
<g>
</g>
<g>
</g>
<g>
</g>
<g>
</g>
<g>
</g>
<g>
</g>
<g>
</g>
<g>
</g>
</svg>
