<?xml version="1.0" encoding="utf-8"?>
<!-- Generator: Adobe Illustrator 25.3.1, SVG Export Plug-In . SVG Version: 6.00 Build 0)  -->
<svg version="1.1" id="Layer_1" xmlns="http://www.w3.org/2000/svg" xmlns:xlink="http://www.w3.org/1999/xlink" x="0px" y="0px"
	 viewBox="0 0 150 150" enable-background="new 0 0 150 150" xml:space="preserve">
<g>
	
		<ellipse transform="matrix(7.283437e-02 -0.9973 0.9973 7.283437e-02 -49.3156 187.5723)" opacity="0.15" fill="#606060" cx="76.2" cy="120.3" rx="26.8" ry="72.5"/>
	<path fill="#FC4D6D" d="M131.6,81.8c0,0-0.2-41.6-63.9-43.2C4,37,22.4,17,22.4,17S-5.7,44.1,42.1,57.4c0,0,71.8-0.2,54.7,33.6
		l2.6,2l1.4,3.1c0,0,10.3-2.2,14.3,6h11.4l2.2-2.1l4.5-1l2.2-2.6l1.6-0.7c0,0-0.7,12.2-5,22.6v11.4c0,0,5,1.4,5.3,5.2h-16.6v-13.5
		c0,0-12.4-1.2-24-20h-7.6c0,0,1.6,13.5-10.5,17.4H70c0,0,7.2-10.9,4.3-18.3c0,0-4.7-5.3-1.7-12.4c0,0,2.2-7.4-2.6-12.1
		c0,0-2.4,18.6-25.2,18.5c0,0-2.1,3.8,5.5,5.7s6.7,6.6,6.7,6.6H33.2c0,0-1.4-9-5.5-14.3C23.6,87.2,31.8,81,31.8,81v-7.2
		c0,0-33.4-6.2-30.2-42.9c0,0,1.4-27.8,39.1-28.3c0,0-36.8,20.5,22.8,26.7l-10.1,2.1C53.4,31.2,133.7,29.8,131.6,81.8z"/>
</g>
<g>
</g>
<g>
</g>
<g>
</g>
<g>
</g>
<g>
</g>
<g>
</g>
<g>
</g>
<g>
</g>
<g>
</g>
<g>
</g>
<g>
</g>
<g>
</g>
<g>
</g>
<g>
</g>
<g>
</g>
</svg>
