<?xml version="1.0" encoding="utf-8"?>
<!-- Generator: Adobe Illustrator 25.3.1, SVG Export Plug-In . SVG Version: 6.00 Build 0)  -->
<svg version="1.1" id="Layer_1" xmlns="http://www.w3.org/2000/svg" xmlns:xlink="http://www.w3.org/1999/xlink" x="0px"
	y="0px" viewBox="0 0 150 150" enable-background="new 0 0 150 150" xml:space="preserve">
	<g>
		<ellipse opacity="0.15" fill="#606060" cx="75" cy="99.5" rx="75" ry="12" />
		<g>
			<path fill="#FC4D6D" d="M24.1,89.9c0,0-18.5-18,2.4-40.3c7.6-8.1,17.5-13.6,28.3-16c10.5-2.4,24.2-3.1,32.7,5.6l1.5,1.7l-2.6,5.4
			c0,0-7-5.6-4.2,5.9l-11.9,7.7c0,0-1.1,1.2,2.2,1.1c3.3-0.1,17.8-0.5,11.7,6.7c-6,7.2,21.9,0.8,21.9,0.8s13.6-9.9,19.9,2
			c0,0,5.7,10.7-11.7,30H99.5c0,0,6.1-13.6-5.9-14.8s-6.3,15.5-6.3,15.5H73.4c0,0-12.4-8-9.4-25.6c0,0-4.6,1.5-3.9,11
			c0,0-10,2.5-9,14.6H27.2c0,0,10.4-17-1.1-27.6C26.1,73.6,21.5,79.1,24.1,89.9z" />
			<path fill="#FC4D6D" d="M91,61.5c0,0,26.3-44.1,38.6-20.7c0,0-6-5-7.5-2.7l-1.6,1.9c0,0,14.7,7.4,10.7,18c0,0-10.7-12.4-21.2-2.1
			c0,0,0.4-9.2-5.1-5s-1.2,7-1.2,7L91,61.5z" />
		</g>
	</g>
	<g>
	</g>
	<g>
	</g>
	<g>
	</g>
	<g>
	</g>
	<g>
	</g>
	<g>
	</g>
	<g>
	</g>
	<g>
	</g>
	<g>
	</g>
	<g>
	</g>
	<g>
	</g>
	<g>
	</g>
	<g>
	</g>
	<g>
	</g>
	<g>
	</g>
</svg>