<?xml version="1.0" encoding="utf-8"?>
<!-- Generator: Adobe Illustrator 25.3.1, SVG Export Plug-In . SVG Version: 6.00 Build 0)  -->
<svg version="1.1" id="Layer_1" xmlns="http://www.w3.org/2000/svg" xmlns:xlink="http://www.w3.org/1999/xlink" x="0px" y="0px"
	 viewBox="0 0 150 150" enable-background="new 0 0 150 150" xml:space="preserve">
<ellipse opacity="0.15" fill="#606060" cx="74.8" cy="117.3" rx="74" ry="17.4"/>
<g>
	<path fill="#FC4D6D" d="M35.1,118.9H17.6c0,0,0.5-4.7,7.2-5.6c1.2-0.2,2.4-1.2,2.6-2.4l2.3-12.3c0.6-2.9,0-5.9-1.5-8.5
		c-1.2-2-3.1-4.6-6.1-7.5c-1.2-1.2-1.9-2.7-2.2-4.3c-0.8-4.1-1.3-11.2,4.3-10.6c1.3,0.1,2.5,0.7,3.6,1.6l1.4,1.1
		c0.8,0.6,1.7,1,2.7,1l6.5,0.3c0.8,0,1.6-0.2,2.3-0.6c3.4-2.2,14.4-8.6,14.1,0.2c0,1,0.5,2,1.5,2.4c4.3,2,16.8,6.6,33.6,2.5
		c20.5-5,38.4-22,9.3-30.9c-0.4-0.1-0.3-0.7,0.1-0.8l13.1-0.7c3.3-0.2,6.5-1.5,9.1-3.6c6-5.1,15.8-15.2,13.2-26.1
		c0,0,15.7,8.7,10.8,30.1c-0.9,3.9-3,7.3-5.7,10.2c-3.4,3.6-7.7,10.6-3.9,21.2c3.4,9.8,6.5,14.6,8.3,16.8c1.1,1.4,1.5,3.2,0.9,4.9
		l-6.2,18.1h-18.1c0,0-2.7-4.2,10.7-8.5v-4.1c0,0-17.7-3.6-19.6-16.3l-33.1,7.1l-0.5,6.4l-18.8,20.5H37.2c0,0,2.3-6.9,10.3-7.1H52
		l4.2-10.6c0,0-5.6-1.9-8.4-4.4C47,97.7,45.6,98,45.2,99C42.7,105,37.2,118,35.1,118.9z"/>
	<path fill="#FC4D6D" d="M22.2,64.5c1.3-2.7,3.5-4.9,6.1-6.4c2.6-1.5,5.6-2.3,8.7-2.5c1.5-0.1,3,0,4.5,0.1c0.8,0.1,1.5,0.2,2.2,0.4
		c0.7,0.1,1.5,0.3,2.2,0.5l2.2,0.6l0.5,0.2c0.2,0,0.3,0.1,0.4,0.1c0.3,0.1,0.5,0.1,0.8,0.1c0.5,0,1.1-0.1,1.5-0.4l1.9-1
		c5.2-2.6,10.6-5,16.2-6.9c5.5-1.9,11.3-3.5,17.1-4.1c-5.6,1.7-11,3.7-16.3,6c-5.3,2.3-10.6,4.7-15.7,7.3l-2,1
		c-0.8,0.4-1.7,0.6-2.7,0.6c-0.5,0-0.9-0.1-1.4-0.2c-0.2-0.1-0.5-0.1-0.6-0.2l-0.5-0.2l-2-0.6c-0.7-0.2-1.4-0.4-2-0.5
		c-0.7-0.1-1.4-0.3-2.1-0.4c-1.4-0.2-2.8-0.4-4.2-0.3c-2.8,0-5.6,0.4-8.2,1.6C26.2,60.4,23.9,62.2,22.2,64.5z"/>
	<path fill="#FC4D6D" d="M90.6,93.4l16.7-3.1c1-0.2,1.8,0.6,1.8,1.5c-0.1,1.9-0.1,4.8,0.5,6.2c0.2,0.5,0.1,1.2-0.3,1.6l-10.4,12.8
		c-0.3,0.4-0.7,0.6-1.2,0.6H82.5c-1.3,0-2-1.6-1.1-2.5c1.8-2,5-4.5,9.9-4.6c0.5,0,1-0.3,1.3-0.8l0.6-1c0.3-0.5,0.3-1.2-0.1-1.6
		c-1.1-1.4-3.3-4.6-3.8-7.2C89.2,94.3,89.8,93.5,90.6,93.4z"/>
	<path fill="#FFFFFF" d="M120.6,46.1c5.7-2.1,19.4-11.4,16.9-23.7l1.5,6.1l1-2.3c0.8,1.1,6.7,18.5-11.2,20.3L121,47
		C120.5,47.1,120.1,46.3,120.6,46.1z"/>
	<path fill="#FFFFFF" d="M36.6,82.5l-1.7,3c-0.3,0.5,0.1,1.1,0.6,1.1H39c0.6,0,0.9-0.6,0.6-1.1l-1.7-3C37.6,82,36.9,82,36.6,82.5z"
		/>
</g>
<g>
</g>
<g>
</g>
<g>
</g>
<g>
</g>
<g>
</g>
<g>
</g>
<g>
</g>
<g>
</g>
<g>
</g>
<g>
</g>
<g>
</g>
<g>
</g>
<g>
</g>
<g>
</g>
<g>
</g>
</svg>
