<?xml version="1.0" encoding="utf-8"?>
<!-- Generator: Adobe Illustrator 25.3.1, SVG Export Plug-In . SVG Version: 6.00 Build 0)  -->
<svg version="1.1" id="Layer_1" xmlns="http://www.w3.org/2000/svg" xmlns:xlink="http://www.w3.org/1999/xlink" x="0px" y="0px"
	 viewBox="0 0 150 150" enable-background="new 0 0 150 150" xml:space="preserve">
<g>
	
		<ellipse transform="matrix(4.691968e-02 -0.9989 0.9989 4.691968e-02 -59.1091 196.5928)" opacity="0.15" fill="#606060" cx="73.5" cy="129.3" rx="16.1" ry="68.6"/>
	<g>
		<path fill="#FC4D6D" d="M89.9,121.2c0,0-2.1,7.9,2.3,10.3c4.4,2.3,14.7-0.6,15,7.6h-17l-16.3-16c-0.8-0.8-1.3-2-1.4-3.1l-0.2-7.8
			c0-2.1-1.6-3.8-3.7-4.1c-5.8-0.7-17.5-3.5-26.1-14.6c-0.5-0.7-1.3-1.1-2.2-1l-3.4,0.2c-1.2,0.1-1.8,1.4-1.1,2.4
			c1.1,1.4,3,3.2,6.7,4c0,0,3.5,1.6,2.3,5.7H33.8c0,0-5.3-3.6-6.4-11.9c-0.2-1.4-1.3-2.4-2.7-2.4H12.9c-2,0-2.9,2.4-1.4,3.7
			c0.7,0.7,2,1.3,4,1.8c7.4,1.8,6.8,9.2,6.8,9.2H9.6c0,0-19.5-24.6-0.2-29.5c0,0,15.5-5.4,2.2-32c-0.4-0.8-0.7-1.6-1-2.5
			C9,35.6,5.9,17.1,30.1,4.6c0,0-31.1,25.5,9.9,35.9c0.8,0.2,1.6,0.2,2.5,0.1c4.2-0.8,18.9-1.5,26.9,24.7c0.9,2.9,2.5,5.6,4.5,7.9
			c4.2,4.9,12.2,9.8,21,8.6c0,0-15.3,4.4-25.3-10.3c-1-1.5-1.8-3.2-2.4-4.9c-2.4-6.4-10.3-24.8-21.8-22.7c-4.1,0.8-7.2,4.1-8.2,8.1
			c-1.9,7.6-1.7,22.7,22.1,38.5c0.7,0.5,1.5,1,2.1,1.5c4.2,3.4,24.4,17.7,43.4-3c0,0-1.4-9,6.1-2.9c0,0,10.9,2.6,14.4-0.7
			c1.6-1.5,3.2-1.3,4.6-0.7c1.8,0.8,3,2.5,3.4,4.4c0.3,1.4,0.6,3.3,0.6,5.4c0,0.8,0.4,1.6,1,2.1c2,1.5,5.7,4.8,2.9,6.7
			c0,0-3.1,7.2-12.4,2s-13.7-8.8-22.5,0.5C102.8,105.8,91.5,115.5,89.9,121.2z"/>
		<path fill="#FC4D6D" d="M98.3,113.2l5.4-4.3c2.4-1.9,5.9-1,7.2,1.8c2,4.5,5.7,11.8,11.8,11c0,0,2.9,0.5,9.6-5.3
			c0,0,6.4,2.9,3.2,7.1c-2,2.7-7.1,3.6-7.1,3.6l-5.4-0.1C123,126.9,103,126.1,98.3,113.2z"/>
		<path fill="#FFFFFF" d="M120.8,93.2c0.2,0.6,0.4,1.2,0.5,1.7c0.2,0.6,0.7,0.9,1.3,0.9h2.3c1.2,0,1.8-1.5,0.9-2.3l-0.8-0.8
			c-0.1-0.1-0.2-0.2-0.3-0.2l-2-1C121.6,91.2,120.5,92.1,120.8,93.2z"/>
	</g>
</g>
<g>
</g>
<g>
</g>
<g>
</g>
<g>
</g>
<g>
</g>
<g>
</g>
<g>
</g>
<g>
</g>
<g>
</g>
<g>
</g>
<g>
</g>
<g>
</g>
<g>
</g>
<g>
</g>
<g>
</g>
</svg>
