<?xml version="1.0" encoding="utf-8"?>
<!-- Generator: Adobe Illustrator 25.3.1, SVG Export Plug-In . SVG Version: 6.00 Build 0)  -->
<svg version="1.1" id="Layer_1" xmlns="http://www.w3.org/2000/svg" xmlns:xlink="http://www.w3.org/1999/xlink" x="0px" y="0px"
	 viewBox="0 0 150 150" enable-background="new 0 0 150 150" xml:space="preserve">
<g>
	<ellipse opacity="0.15" fill="#606060" cx="75" cy="121.5" rx="74.7" ry="17.5"/>
	<g>
		<path fill="#FC4D6D" d="M87.5,16.3c0,1.2-32.7-21.1-60.7,17.2c-29.1,39.8,5,76.1,5,76.1s15.5,24.7,38.6,16.6c0,0,3.9-3.4-3.7-5.6
			c0,0-11.9-13.6-10.2-22.5c0,0,4.9,12.8,12.3,13.8c0.1,0,0.3,0,0.4,0.1c4.4,0.5,8.7-0.7,12.3-3.2c2.7-1.8,8.1-4.3,17.2-3.7
			c14,0.9,23.4-37.1,17.9-45.2c0,0-2.2,19.2-10.1,22.3c0,0,13.6-31.7,2.8-46.1c0,0,0.2,8.6-4.9,14c-0.9,1-1.7,2-2.4,3.1
			C99.7,57,96,64.6,95.7,74.7c-0.1,3.8-1.6,7.6-4.6,10.1c-2.8,2.4-7.1,4.2-13,2.1c-3.8-1.4-7.2-3.9-9.7-7.1
			c-6.5-7.9-24.4-28.6-26.4-17c0,0-6.5,1.4-8.9-17s7.5-16.5,7.5-16.5s24,20.3,26,44.1c0,0,8.6-9.1,4.3-24.5c0,0-4.8-9-3.6-24.6
			c0,0,0.1-7.7-4.2-10.1l9.3-0.3c0,0,16.7,9.7,14.8,36.6c0,0-1.3,15.5,6.6,19.6c0,0-1-19.8,4.2-32.3C98,37.8,101.5,22.5,87.5,16.3z"
			/>
		<ellipse fill="#FC4D6D" cx="84" cy="78.1" rx="8.4" ry="5.6"/>
		<path fill="#FFFFFF" d="M42.1,26.3c0,0,6.5-14.9,17.2,0.5l-4.6-0.5c0,0-4.2-9.5-10,0H42.1z"/>
		<path fill="#FC4D6D" d="M84.8,16.3c0,0,20.2-11.8,16.4,9.3c0,0-6.3-9.9-8.4-2.4l-8.9-5.6L84.8,16.3z"/>
		<path fill="#FFFFFF" d="M85.3,19.4c0,0,14.8-14.9,15.9,6.3c0,0-3.2-13-12.1-2.8C89.1,22.9,84.3,24.7,85.3,19.4z"/>
		<path fill="#FC4D6D" d="M95.9,122.8C94.5,123.2,97.3,122.2,95.9,122.8c-2.8,1.2-10.4,1.6-13.4-6.9c-2.8-7.9,7.7-8.8,14.7-8.5
			c4,0.1,8.4-0.9,11.3-4c2.8-2.9,5.3-7.2,6.4-8C114.9,95.3,110.2,118.9,95.9,122.8z"/>
		<circle fill="#FFFDFF" cx="62.4" cy="55.4" r="4.4"/>
		<circle fill="#FFFDFF" cx="94.2" cy="54.5" r="4.4"/>
	</g>
</g>
<g>
</g>
<g>
</g>
<g>
</g>
<g>
</g>
<g>
</g>
<g>
</g>
<g>
</g>
<g>
</g>
<g>
</g>
<g>
</g>
<g>
</g>
<g>
</g>
<g>
</g>
<g>
</g>
<g>
</g>
</svg>
