<?xml version="1.0" encoding="utf-8"?>
<!-- Generator: Adobe Illustrator 25.3.1, SVG Export Plug-In . SVG Version: 6.00 Build 0)  -->
<svg version="1.1" id="Layer_1" xmlns="http://www.w3.org/2000/svg" xmlns:xlink="http://www.w3.org/1999/xlink" x="0px" y="0px"
	 viewBox="0 0 150 150" enable-background="new 0 0 150 150" xml:space="preserve">
<g>
	<ellipse opacity="0.15" fill="#606060" cx="75" cy="106.8" rx="74.7" ry="17.5"/>
	<path fill="#FC4D6D" d="M45.9,108H32.4c0,0-15.3,0.6-14.3-20.2s27.7-14.8,27.7-14.8s10.9,2.8,18.7,10.6s23.9,4.7,23.9,4.7
		s-3.3-3.9-0.9-7.9c0,0,4.2,4.5,9.5,2.2c0,0,3.4-0.6-7.9-10.4l-7.9-12.1c0,0-10.6-13.2-16-15.7c-5.4-2.5-0.9-11.2,4.3-4.6
		c0,0-2.2-9.3-9.4-3.2c0,0-1.7,1.1-1.3,4.1c0,0-18.7-9.2-22.3,8.6c0,0,7.4-10,12.9-0.4c0,0,0.5-2.9-1.4-5c0,0,21.8,3.6,34.5,33.6
		c0,0-5.1,2.4-6.9,6.8c0,0-1.1-8.6-5.3-10.3c0,0,4.6-1.9,3.3-4.8c-1.3-2.9-7.9,0.3-7.9,0.3s-27.2-24.1-51.1-2.5
		c0,0,2.5-49.7,58.6-40.3c0,0,35.8,3.9,43.3,46c0,0,3.2,18.1,12.6,19.6c0,0-7.7,4.3-14,1.5c0,0-4.5,13.5-13.1,14.4H87.3
		c0,0-0.6-6.6,3.5-8.8c4.2-2.2-7.2-5.4-10.5-2.3c-3.3,3.1-4,3.8-5.4,7s-5.9,4-5.9,4H52c0,0-1.3-7.2,4.6-7.9c0,0-1-5.4-9.7-3.5
		c-8.8,1.9-1.4,6.1-1.4,6.1S46.1,107.8,45.9,108z"/>
</g>
<g>
</g>
<g>
</g>
<g>
</g>
<g>
</g>
<g>
</g>
<g>
</g>
<g>
</g>
<g>
</g>
<g>
</g>
<g>
</g>
<g>
</g>
<g>
</g>
<g>
</g>
<g>
</g>
<g>
</g>
</svg>
