<?xml version="1.0" encoding="utf-8"?>
<!-- Generator: Adobe Illustrator 25.3.1, SVG Export Plug-In . SVG Version: 6.00 Build 0)  -->
<svg version="1.1" id="Layer_1" xmlns="http://www.w3.org/2000/svg" xmlns:xlink="http://www.w3.org/1999/xlink" x="0px" y="0px"
	 viewBox="0 0 150 150" enable-background="new 0 0 150 150" xml:space="preserve">
<g>
	<ellipse opacity="0.15" fill="#606060" cx="75" cy="111.6" rx="74.5" ry="17.5"/>
	<g>
		<path fill="#FC4D6D" d="M26.5,50.5c1.3-2.3,3.3-4.2,5.7-5.4c2.3-1.2,4.9-1.8,7.5-1.9c1.3-0.1,2.6,0,3.9,0.1
			c1.3,0.1,2.5,0.4,3.8,0.7c2.5,0.6,4.9,1.5,7.2,2.7c2.3,1.2,4.4,2.6,6.4,4.2c2,1.6,4,3,6.2,4.3c2.2,1.2,4.5,2.2,6.9,3
			c2.4,0.7,4.9,1.2,7.4,1.1l0,0.1c-2.5,0.2-5.1-0.3-7.5-0.9c-2.4-0.7-4.8-1.7-7-2.9c-2.2-1.2-4.4-2.6-6.4-4.2c-2-1.5-4.1-2.9-6.3-4
			c-2.2-1.1-4.6-2-7-2.5c-1.2-0.3-2.4-0.5-3.7-0.6c-1.2-0.1-2.5-0.1-3.7-0.1c-2.5,0.2-4.9,0.8-7,1.9c-2.1,1.2-3.9,2.9-5.1,5
			L26.5,50.5z"/>
		<path fill="#FC4D6D" d="M75.9,55.9c1.8-0.4,3.9-0.4,5.7-0.5c3.7-0.1,7.6,0.2,11.2,1.6c1.6,0.6,3.1,1.4,4.4,2.6
			c2,1.9,3.4,4.5,4.6,6.9c1,2,1.8,4.3,1.7,6.5c-0.2,2.9-2.2,4.5-4.5,5.8c0,0-4.2,2.3-8.6-3.8c0,0-2.6-3.8-8-3.8
			c-5.5,0-8.3-3.1-8.3-3.1S55.6,49.5,41.6,50.5s-14.9-0.3-14.9-0.3s-4.3,4.2-8.4,6.2c-0.7,0.3-1.1,1.2-0.8,1.9
			c0.6,1.7,2.4,4.6,7.3,5.5c0.7,0.1,1.4,0.2,2.2,0.1c3.8-0.2,19.6,0,21.9,17.1c0,0,2.6,13.2,9.8,21.9c0,0,2.1,2.1,2.4,5.7
			c0,0-5.5,5.9-0.9,6.2s11.1-0.3,11.1-0.3s-0.7-4,0.4-5.3c0,0-2.7-8.6-1.4-13.5c0,0-5.1,1.9-7.3-2.2c0,0,9.9,1.3,11.1-1
			c0,0-0.8-8-1.5-8.5c0,0,3.2-1,2.9,8.7c-0.3,9.7-2.8,16.2-2.8,16.2s-2.4,6,1.3,6.4c3.8,0.4,11.7,0,11.7,0s2.6-2.6-1.5-6.8
			c0,0,9.1-14.1,7.3-25.6c0,0,0.9,4,0.8,9.3c0,0,5.1-1.5,6.5-8.2c0,0,0.7,6.4-6.8,9.6c0,0-4.2,12.9-6.6,15c0,0,1.8,1.7,1.8,3.2h11
			c0,0,2.2-6.4-6-5.5c0,0-0.3-0.8,1.8-1c0,0-0.9-4.2,0.8-5.4c0,0-2.9-0.9-2.9-1.7c0,0,3.8,0.6,4.7-0.2c1.2-1,2.2-2.2,3.2-3.5
			c2-2.7,3.5-5.7,4.4-8.9c1.3-4.6,1.3-9.5,0.4-14.2c-1-4.9-2.9-9.9-6.9-13c-1.8-1.4-3.8-2.3-6-2.9c-4.6-1.3-9.6-1-14.3-0.1
			C77,55.6,76.5,55.7,75.9,55.9z"/>
		<path fill="#FC4D6D" d="M85.3,52.9c0,0-17-3-12.3-24.9c0,0-2.5,2-2.9,5c0,0-2.2-5.5,3.5-12.1c0,0-10.7,3.6-11.5,18.7
			c0,0-0.3,2.7,0,5.6c0.4,3.5,2.4,6.7,5.7,8.1c0.1,0.1,0.3,0.1,0.4,0.2c0,0-4-2.4-0.6-12.3C67.5,41.2,71,56.3,85.3,52.9z"/>
		<circle fill="#FFFFFF" cx="36.5" cy="54.1" r="1.5"/>
	</g>
</g>
</svg>
