<?xml version="1.0" encoding="utf-8"?>
<!-- Generator: Adobe Illustrator 25.3.1, SVG Export Plug-In . SVG Version: 6.00 Build 0)  -->
<svg version="1.1" id="Layer_1" xmlns="http://www.w3.org/2000/svg" xmlns:xlink="http://www.w3.org/1999/xlink" x="0px" y="0px"
	 viewBox="0 0 150 150" enable-background="new 0 0 150 150" xml:space="preserve">
<g>
	<path fill="#0253B4" d="M58.8,146.8c-6.6-1.7-13.2-3.7-19-7.4c0-17.5,0-35,0.1-52.5c0-2.1-0.9-2.3-2.6-2.3c-11.8,0-23.5,0-35.3,0
		c-0.9-6.4-0.9-12.8,0-19.2c11.8,0,23.5-0.1,35.3,0c1.7,0,2.6-0.1,2.6-2.3c-0.1-17.5-0.1-35-0.1-52.5c5.8-3.7,12.4-5.7,19-7.4
		C58.9,4.4,59,5.5,59,6.7c0,18.5,0.1,36.9-0.1,55.4c0,2.9,0.8,3.4,3.5,3.4c28.5-0.1,57,0,85.5,0c0.9,6.4,0.9,12.8,0,19.2
		c-28.6,0-57.2,0.1-85.8,0c-2.4,0-3.2,0.4-3.2,3.1c0.1,17.5,0.1,35,0.1,52.5C59,142.4,58.9,144.6,58.8,146.8z"/>
	<path fill="#EFEFEF" d="M58.8,146.8c0.1-2.2,0.2-4.4,0.2-6.6c0-17.5,0.1-35-0.1-52.5c0-2.6,0.8-3.1,3.2-3.1c28.6,0.1,57.2,0,85.8,0
		c-1.6,12.4-6.1,23.8-13.6,33.8c-11.1,14.7-25.5,24.6-43.8,28.5c-6.2,1.3-12.4,1.8-18.7,1.7C67.4,148.4,63.1,147.4,58.8,146.8z"/>
	<path fill="#EFEFEF" d="M147.9,65.4c-28.5,0-57-0.1-85.5,0c-2.7,0-3.5-0.5-3.5-3.4C59.1,43.6,59,25.1,59,6.7c0-1.1-0.1-2.3-0.2-3.4
		c6.1-1.1,12.2-2,18.4-1.8c13,0.5,25.1,4,36.2,10.9c14.2,8.8,24.4,21.2,30.4,36.8C145.9,54.4,147.2,59.8,147.9,65.4z"/>
	<path fill="#EEEEEF" d="M2.1,84.6c11.8,0,23.5,0.1,35.3,0c1.7,0,2.6,0.1,2.6,2.3c-0.1,17.5-0.1,35-0.1,52.5
		c-4.9-2.1-8.9-5.4-12.9-8.8c-9.9-8.5-16.9-19-21.3-31.3C3.9,94.5,2.7,89.6,2.1,84.6z"/>
	<path fill="#EEEEEF" d="M39.8,10.7c0,17.5,0,35,0.1,52.5c0,2.1-0.9,2.3-2.6,2.3c-11.8,0-23.5,0-35.3,0c1.8-13,6.5-24.8,14.6-35.2
		c5.9-7.6,13-13.8,21.3-18.8C38.5,11.1,39.2,10.9,39.8,10.7z"/>
</g>
<g>
</g>
<g>
</g>
<g>
</g>
<g>
</g>
<g>
</g>
<g>
</g>
<g>
</g>
<g>
</g>
<g>
</g>
<g>
</g>
<g>
</g>
<g>
</g>
<g>
</g>
<g>
</g>
<g>
</g>
</svg>
