<?xml version="1.0" encoding="utf-8"?>
<!-- Generator: Adobe Illustrator 25.3.1, SVG Export Plug-In . SVG Version: 6.00 Build 0)  -->
<svg version="1.1" id="Layer_1" xmlns="http://www.w3.org/2000/svg" xmlns:xlink="http://www.w3.org/1999/xlink" x="0px" y="0px"
	 viewBox="0 0 150 150" enable-background="new 0 0 150 150" xml:space="preserve">
<g>
	<path fill="#D60127" d="M6,101C1.8,90.6,0.5,79.8,1.4,68.7C2,62,3.3,55.5,5.9,49.2c2.8,0,5.6,0,8.3,0c43.3,0,86.5,0,129.8,0
		c6.3,17.3,6.5,34.5-0.1,51.8c-1-0.1-2.1-0.2-3.1-0.2c-43.9,0-87.7,0-131.6,0C8.1,100.8,7.1,100.9,6,101z"/>
	<path fill="#010101" d="M144.1,49.2c-43.3,0-86.5,0-129.8,0c-2.8,0-5.6,0-8.3,0C16,23.8,34.4,8,61.1,2.6
		c34.9-7.1,70.5,13,82.8,46.1C144,48.8,144,49,144.1,49.2z"/>
	<path fill="#FED944" d="M6,101c1-0.1,2.1-0.2,3.1-0.2c43.9,0,87.7,0,131.6,0c1,0,2.1,0.1,3.1,0.2c-5,14.2-14,25.5-26.2,34.2
		C79.6,162,27.3,147.9,7.8,105.5C7.1,104.1,6.6,102.5,6,101z"/>
</g>
<g>
</g>
<g>
</g>
<g>
</g>
<g>
</g>
<g>
</g>
<g>
</g>
<g>
</g>
<g>
</g>
<g>
</g>
<g>
</g>
<g>
</g>
<g>
</g>
<g>
</g>
<g>
</g>
<g>
</g>
</svg>
