<?xml version="1.0" encoding="utf-8"?>
<!-- Generator: Adobe Illustrator 25.3.1, SVG Export Plug-In . SVG Version: 6.00 Build 0)  -->
<svg version="1.1" id="Layer_1" xmlns="http://www.w3.org/2000/svg" xmlns:xlink="http://www.w3.org/1999/xlink" x="0px" y="0px"
	 viewBox="0 0 150 150" enable-background="new 0 0 150 150" xml:space="preserve">
<g>
	<path fill="#FFFFFF" d="M148.4,75c0,8.4-1.4,16.5-4,24c-10,28.8-37.3,49.4-69.4,49.4c-32.1,0-59.5-20.6-69.4-49.4
		c-2.6-7.5-4-15.6-4-24c0-8.4,1.4-16.5,4-24C15.5,22.2,42.9,1.6,75,1.6c32.1,0,59.5,20.6,69.4,49.4C147,58.5,148.4,66.6,148.4,75z"
		/>
	<path fill="#F7931E" d="M144.4,51H5.6C15.5,22.2,42.9,1.6,75,1.6C107.1,1.6,134.5,22.2,144.4,51z"/>
	<path fill="#009245" d="M144.4,99c-10,28.8-37.3,49.4-69.4,49.4c-32.1,0-59.5-20.6-69.4-49.4H144.4z"/>
</g>
<g>
	<circle fill="#0071BC" cx="72.2" cy="75.5" r="9.5"/>
	<g>
		<path fill="#0071BC" d="M72.2,95.2c-10.8,0-19.6-8.8-19.6-19.6c0-10.8,8.8-19.6,19.6-19.6c10.8,0,19.6,8.8,19.6,19.6
			C91.9,86.3,83.1,95.2,72.2,95.2z M72.2,60.9c-8.1,0-14.6,6.6-14.6,14.6s6.6,14.6,14.6,14.6c8.1,0,14.6-6.6,14.6-14.6
			S80.3,60.9,72.2,60.9z"/>
	</g>
</g>
<g>
</g>
<g>
</g>
<g>
</g>
<g>
</g>
<g>
</g>
<g>
</g>
<g>
</g>
<g>
</g>
<g>
</g>
<g>
</g>
<g>
</g>
<g>
</g>
<g>
</g>
<g>
</g>
<g>
</g>
</svg>
