<?xml version="1.0" encoding="utf-8"?>
<!-- Generator: Adobe Illustrator 25.3.1, SVG Export Plug-In . SVG Version: 6.00 Build 0)  -->
<svg version="1.1" id="Layer_1" xmlns="http://www.w3.org/2000/svg" xmlns:xlink="http://www.w3.org/1999/xlink" x="0px" y="0px"
	 viewBox="0 0 150 150" enable-background="new 0 0 150 150" xml:space="preserve">
<g>
	<path fill="#D70128" d="M75.1,149.3C34,149.4,0.7,116.1,0.7,75C0.6,34,33.9,0.7,75,0.7c41.1,0,74.4,33.3,74.3,74.4
		C149.3,116,116,149.3,75.1,149.3z M49.1,87.9c3,0,6,0,9,0c4.7,0.1,4-0.6,4.1,3.9c0,6.5,0.1,13,0,19.4c0,1.9,0.4,2.7,2.5,2.6
		c7-0.1,13.9-0.1,20.9,0c1.9,0,2.5-0.5,2.4-2.4c-0.1-7.1,0-14.1-0.1-21.2c0-1.9,0.5-2.5,2.4-2.4c7.1,0.1,14.1,0,21.2,0.1
		c1.9,0,2.4-0.6,2.4-2.4c-0.1-7-0.1-13.9,0-20.9c0-2.1-0.7-2.5-2.6-2.5c-6.6,0.1-13.2-0.1-19.7,0.1c-2.8,0.1-3.9-0.4-3.7-3.6
		c0.3-6.6,0-13.2,0.1-19.7c0-2.1-0.4-2.9-2.7-2.8c-6.9,0.2-13.7,0.1-20.6,0c-2,0-2.6,0.5-2.6,2.6c0.1,7,0,13.9,0.1,20.9
		c0,2-0.6,2.6-2.6,2.6c-7.1-0.1-14.1,0-21.2-0.1c-1.8,0-2.3,0.5-2.3,2.3c0.1,7.1,0.1,14.1,0,21.2c0,2,0.7,2.4,2.5,2.4
		C42.1,87.8,45.6,87.9,49.1,87.9z"/>
	<path fill="#EFEEEE" d="M49.1,87.9c-3.5,0-7-0.1-10.4,0c-1.8,0.1-2.5-0.3-2.5-2.4c0.1-7.1,0.1-14.1,0-21.2c0-1.8,0.5-2.3,2.3-2.3
		c7.1,0.1,14.1,0,21.2,0.1c2,0,2.6-0.6,2.6-2.6c-0.1-7,0-13.9-0.1-20.9c0-2,0.6-2.6,2.6-2.6c6.9,0.1,13.7,0.2,20.6,0
		c2.3-0.1,2.7,0.7,2.7,2.8c-0.1,6.6,0.2,13.2-0.1,19.7c-0.1,3.1,0.9,3.6,3.7,3.6c6.6-0.2,13.2,0,19.7-0.1c1.9,0,2.7,0.4,2.6,2.5
		c-0.1,7-0.1,13.9,0,20.9c0,1.9-0.5,2.5-2.4,2.4c-7.1-0.1-14.1,0-21.2-0.1c-1.9,0-2.5,0.5-2.4,2.4c0.1,7.1,0,14.1,0.1,21.2
		c0,1.9-0.6,2.4-2.4,2.4c-7-0.1-13.9-0.1-20.9,0c-2.1,0-2.5-0.7-2.5-2.6c0.1-6.5,0.1-13,0-19.4c0-4.5,0.6-3.9-4.1-3.9
		C55.1,87.9,52.1,87.9,49.1,87.9z"/>
</g>
<g>
</g>
<g>
</g>
<g>
</g>
<g>
</g>
<g>
</g>
<g>
</g>
<g>
</g>
<g>
</g>
<g>
</g>
<g>
</g>
<g>
</g>
<g>
</g>
<g>
</g>
<g>
</g>
<g>
</g>
</svg>
