<?xml version="1.0" encoding="utf-8"?>
<!-- Generator: Adobe Illustrator 25.3.1, SVG Export Plug-In . SVG Version: 6.00 Build 0)  -->
<svg version="1.1" id="Layer_1" xmlns="http://www.w3.org/2000/svg" xmlns:xlink="http://www.w3.org/1999/xlink" x="0px" y="0px"
	 viewBox="0 0 150 150" enable-background="new 0 0 150 150" xml:space="preserve">
<g>
	<path fill="#F7F9FA" d="M148.7,75c0,6.4-0.8,12.7-2.4,18.7c-1.8,7-4.6,13.5-8.3,19.5c-4.5,7.4-10.2,13.9-16.9,19.3
		c-12.6,10.1-28.7,16.2-46.1,16.2c-17.5,0-33.5-6.1-46.1-16.2c-6.7-5.4-12.5-11.9-16.9-19.3c-3.6-6-6.5-12.6-8.3-19.5
		c-1.6-6-2.4-12.2-2.4-18.7c0-0.2,0-0.3,0-0.5c0-0.1,0-0.1,0-0.2c0-2.5,0.2-4.9,0.4-7.4c0.4-4.2,1.2-8.2,2.4-12.2
		c0.5-1.9,1.2-3.8,1.8-5.6c0.6-1.5,1.2-3,1.9-4.5c1.4-3.2,3.1-6.3,5-9.2c0.2-0.3,0.4-0.6,0.6-0.9c3.7-5.7,8.2-10.8,13.3-15.2
		c1.3-1.2,2.7-2.3,4.2-3.4c1.6-1.2,3.3-2.4,5-3.4c10.9-6.9,23.8-11,37.5-11.3c0.6,0,1.1,0,1.7,0c16.6,0,31.9,5.5,44.2,14.7
		c7.1,5.4,13.3,12,18.1,19.5c3.8,5.9,6.7,12.4,8.7,19.3c1.8,6.2,2.7,12.8,2.8,19.5C148.7,74.6,148.7,74.8,148.7,75z"/>
	<path fill="#D80027" d="M137.3,35.5H12.7C17.5,28,23.7,21.4,30.8,16h88.4C126.3,21.4,132.5,28,137.3,35.5z"/>
	<path fill="#D80027" d="M148.7,74.4H1.3c0.1-6.8,1-13.3,2.8-19.5h141.8C147.7,61,148.7,67.6,148.7,74.4z"/>
	<path fill="#D80027" d="M146.3,93.7c-1.8,7-4.6,13.5-8.3,19.5H11.9c-3.6-6-6.5-12.6-8.3-19.5H146.3z"/>
	<path fill="#D80027" d="M121.1,132.5c-12.6,10.1-28.7,16.2-46.1,16.2c-17.5,0-33.5-6.1-46.1-16.2H121.1z"/>
	<path fill="#0052B4" d="M73.3,1.3v73.2H1.3c0-0.1,0-0.1,0-0.2c0.1-6.8,1-13.3,2.8-19.5c2-6.9,4.9-13.4,8.7-19.3
		C17.5,28,23.7,21.4,30.8,16C42.7,7.1,57.4,1.7,73.3,1.3z"/>
	<g>
		<polygon fill="#FFFFFF" points="58.3,6.1 61.5,12.4 68.5,13.5 63.4,18.4 64.6,25.4 58.3,22.1 52.1,25.4 53.3,18.4 48.2,13.5 
			55.2,12.4 		"/>
		<path fill="#FFFFFF" d="M36.9,18.4l1.2,7l-6.3-3.3l-6.3,3.3l1-6c1.3-1.2,2.7-2.3,4.2-3.4c1.6-1.2,3.3-2.4,5-3.4l6.2,0.9L36.9,18.4
			z"/>
		<polygon fill="#FFFFFF" points="31.8,27.5 34.9,33.8 41.9,34.9 36.8,39.8 38,46.8 31.8,43.5 25.5,46.8 26.7,39.8 21.6,34.9 
			28.6,33.8 		"/>
		<polygon fill="#FFFFFF" points="58.1,27.5 61.2,33.8 68.3,34.9 63.2,39.8 64.4,46.8 58.1,43.5 51.8,46.8 53,39.8 48,34.9 55,33.8 
					"/>
		<polygon fill="#FFFFFF" points="58.3,48.9 61.5,55.2 68.5,56.2 63.4,61.2 64.6,68.2 58.3,64.9 52.1,68.2 53.3,61.2 48.2,56.2 
			55.2,55.2 		"/>
		<polygon fill="#FFFFFF" points="31.8,48.8 34.9,55.1 41.9,56.1 36.8,61.1 38,68.1 31.8,64.8 25.5,68.1 26.7,61.1 21.6,56.1 
			28.6,55.1 		"/>
		<path fill="#FFFFFF" d="M10.8,61.2l1.2,7l-6.3-3.3l-4,2.1c0.4-4.2,1.2-8.2,2.4-12.2c0.5-1.9,1.2-3.8,1.8-5.6l3,6l7,1L10.8,61.2z"
			/>
		<path fill="#FFFFFF" d="M10.7,39.9l1.2,7l-4.1-2.2c1.4-3.2,3.1-6.3,5-9.2c0.2-0.3,0.4-0.6,0.6-0.9l2.4,0.4L10.7,39.9z"/>
	</g>
</g>
<g>
</g>
<g>
</g>
<g>
</g>
<g>
</g>
<g>
</g>
<g>
</g>
<g>
</g>
<g>
</g>
<g>
</g>
<g>
</g>
<g>
</g>
<g>
</g>
<g>
</g>
<g>
</g>
<g>
</g>
</svg>
