<?xml version="1.0" encoding="utf-8"?>
<!-- Generator: Adobe Illustrator 22.0.1, SVG Export Plug-In . SVG Version: 6.00 Build 0)  -->
<svg version="1.1" id="Layer_1" xmlns="http://www.w3.org/2000/svg" xmlns:xlink="http://www.w3.org/1999/xlink" x="0px" y="0px"
	 viewBox="0 0 200 200" style="enable-background:new 0 0 200 200;" xml:space="preserve">
<style type="text/css">
	.st0{display:none;}
	.st1{display:inline;}
	.st2{fill:#FFFFFF;}
	.st3{display:inline;fill:#FFFFFF;}
	.st4{fill:none;stroke:#FFFFFF;stroke-width:3;stroke-miterlimit:10;}
	.st5{display:inline;fill:none;stroke:#FFFFFF;stroke-width:3;stroke-miterlimit:10;}
	.st6{display:inline;fill:#1F8AC0;}
	.st7{fill:none;stroke:#ED7E8B;stroke-width:4;stroke-miterlimit:10;}
	.st8{display:inline;fill:none;stroke:#ED7E8B;stroke-width:4;stroke-miterlimit:10;}
	.st9{fill:#1F8AC0;}
	.st10{fill:#D7DDE6;}
	.st11{fill:#3A5C91;}
	.st12{fill:#D4DBE3;}
	.st13{fill:#FFD599;}
	.st14{fill:#DBB784;}
	.st15{fill:#A4E4FF;}
	.st16{display:inline;fill:#CCF0FF;}
	.st17{fill:#B8A09B;}
	.st18{opacity:0.2;fill:#FFFFFF;enable-background:new    ;}
	.st19{opacity:0.4;fill:#FFFFFF;enable-background:new    ;}
	.st20{fill:#FF9797;}
	.st21{fill:#DE7474;}
	.st22{fill:#CFECF4;}
	.st23{fill:#C2DDF3;}
	.st24{opacity:0.1;enable-background:new    ;}
	.st25{opacity:0.15;enable-background:new    ;}
	.st26{opacity:0.16;enable-background:new    ;}
	.st27{opacity:0.25;fill:#FFFFFF;enable-background:new    ;}
	.st28{display:inline;fill:#E0F5FF;}
	.st29{fill:#E0F5FF;}
	.st30{display:inline;fill:#FF7A7B;}
	.st31{display:inline;fill:#3A5C91;}
	.st32{display:inline;fill:#EFC849;}
	.st33{display:inline;fill:#B0DAF0;}
	.st34{display:inline;fill:#417AAA;}
	.st35{display:inline;fill:#EFC84A;}
	.st36{display:inline;opacity:0.1;enable-background:new    ;}
	.st37{fill:#64798A;}
	.st38{fill:#2F4859;}
	.st39{fill:#3A556A;}
	.st40{fill:#FCD462;}
	.st41{fill:#D67838;}
	.st42{fill:#DC8744;}
	.st43{display:inline;fill:#45B39C;}
	.st44{fill:#EBF0F3;}
	.st45{fill:#D5D6DB;}
	.st46{fill:#BFBDBD;}
	.st47{fill:#C9E8EA;}
	.st48{fill:#E1E6E9;}
	.st49{fill:#27A2DB;}
	.st50{fill:#E56353;}
	.st51{fill:#FD8369;}
	.st52{fill:#EA6552;enable-background:new    ;}
	.st53{fill:#44C4A1;}
	.st54{font-family:'Montserrat-Bold';}
	.st55{font-size:35.1026px;}
	.st56{display:inline;fill:#4EBBDD;}
	.st57{fill:#F6C358;}
</style>
<g class="st0">
	<g class="st1">
		<path class="st2" d="M44.6,139.4c-3.4,0-6.1-2.7-6.1-6.1l0,0v-72c0-3.4,2.7-6.1,6.1-6.1l0,0h114.2c3.4,0,6.1,2.7,6.1,6.1l0,0v71.9
			c0,3.4-2.7,6.1-6.1,6.1l0,0L44.6,139.4L44.6,139.4z M43.7,61.5v71.9c0,0.4,0.4,0.8,0.8,0.8l0,0h114.2c0.4,0,0.8-0.4,0.8-0.8l0,0
			V61.5c0-0.4-0.4-0.8-0.8-0.8l0,0H44.5C44.1,60.7,43.7,61.1,43.7,61.5L43.7,61.5z"/>
	</g>
	<path class="st3" d="M29.6,142.9c-0.7-0.7-0.4-1.2,0.5-1.2h144c0.9,0,1.2,0.5,0.5,1.2l-4.9,4.8c-0.7,0.7-2,1.2-2.9,1.2H37.5
		c-0.9,0-2.3-0.5-2.9-1.2L29.6,142.9z"/>
	<g class="st1">
		<path class="st2" d="M82.4,97.4c0-10.8,8.7-19.5,19.5-19.5l0,0c10.8,0,19.5,8.7,19.5,19.5l0,0c0,10.8-8.7,19.5-19.5,19.5l0,0
			C91.1,116.9,82.4,108.1,82.4,97.4L82.4,97.4z M89.1,84.6c-3.3,3.3-5.3,7.8-5.3,12.7l0,0c0,5,2,9.5,5.3,12.7l0,0
			c3.3,3.3,7.8,5.3,12.7,5.3l0,0c5,0,9.5-2,12.7-5.3l0,0c3.3-3.3,5.3-7.8,5.3-12.7l0,0c0-5-2-9.5-5.3-12.7l0,0
			c-3.3-3.3-7.8-5.3-12.7-5.3l0,0C96.9,79.3,92.4,81.4,89.1,84.6L89.1,84.6z"/>
	</g>
	<g class="st1">
		<path class="st2" d="M98.1,104.4l-6.6-6.6c-0.6-0.6-0.6-1.5,0-2.1l0,0c0.6-0.6,1.5-0.6,2.1,0l0,0l5.5,5.5l11.6-11.6
			c0.6-0.6,1.5-0.6,2.1,0l0,0c0.6,0.6,0.6,1.5,0,2.1l0,0l-12.7,12.7c-0.3,0.3-0.7,0.4-1.1,0.4l0,0C98.8,104.8,98.4,104.7,98.1,104.4
			L98.1,104.4z"/>
	</g>
</g>
<g class="st0">
	<g id="XMLID_142_" class="st1">
		<polyline id="XMLID_156_" class="st4" points="117.3,80.2 87.8,80.2 62.6,80.2 49.8,102 100.2,159.3 150.6,102 137.9,80.2 
			130.5,80.2 		"/>
		<line id="XMLID_155_" class="st4" x1="127.9" y1="80.2" x2="119.9" y2="80.2"/>
		<line id="XMLID_153_" class="st4" x1="51" y1="101.5" x2="151.7" y2="101.5"/>
		<line id="XMLID_152_" class="st4" x1="100.2" y1="158.7" x2="75" y2="101.4"/>
		<line id="XMLID_151_" class="st4" x1="100.2" y1="157.3" x2="125.4" y2="100.1"/>
		<line id="XMLID_150_" class="st4" x1="101.4" y1="101.5" x2="101.4" y2="157.1"/>
		<line id="XMLID_149_" class="st4" x1="62.6" y1="79.6" x2="75" y2="101.4"/>
		<line id="XMLID_148_" class="st4" x1="87.8" y1="79.6" x2="100.2" y2="101.4"/>
		<line id="XMLID_147_" class="st4" x1="112.7" y1="79.6" x2="125.4" y2="101.4"/>
		<line id="XMLID_146_" class="st4" x1="137.9" y1="79.6" x2="125.4" y2="101.4"/>
		<line id="XMLID_145_" class="st4" x1="112.7" y1="79.6" x2="100.2" y2="101.4"/>
		<line id="XMLID_143_" class="st4" x1="87.8" y1="79.6" x2="75" y2="101.4"/>
	</g>
	<polygon class="st5" points="105.6,45.4 117.5,46.6 109.3,55.3 111.8,66.9 101.1,61.8 90.8,67.8 92.3,56 83.5,48.1 95.1,45.9 
		99.9,35 	"/>
</g>
<g class="st0">
	<g class="st1">
		<path class="st2" d="M92.1,67.8c0.6,0.7,1.8,1.2,2.7,1c0,0,3.1-0.5,7.7-0.5c4.7,0,7.7,0.5,7.7,0.5c0.9,0.2,2.1-0.3,2.7-1
			c0,0,2.9-3.5,5-12.5s-13.7-9.2-13.7-9.2c-0.9,0-2.4,0-3.3,0c0,0-15.8,0.3-13.7,9.2C89.2,64.2,92.1,67.8,92.1,67.8z"/>
		<path class="st2" d="M111.6,74.9c-0.2-1.3-1.3-2.5-2.6-2.7l0,0c-1.8-0.2-4-0.4-6.2-0.4s-4.4,0.2-6.1,0.4c-1.5,0-2.8,1.2-3,2.7
			l-8.6,72.3c-0.2,1.5,0.6,3.6,1.7,4.6l13.9,13.4c1.1,1,2.9,1,4,0l13.9-13.4c1.1-1,1.8-3.1,1.7-4.6L111.6,74.9z"/>
		<path class="st2" d="M134.2,133c-4.8-12-9.6-24.1-14.4-36.1c-0.9-2.2-1.8-4.5-2.7-6.7l0,0c-0.9-2.2-0.9-1.3-0.8-0.6
			c0,0.2,0.1,0.5,0.1,0.7l0,0l0,0c0.5,3.6,1,7.2,1.5,10.8c1,7.1,2,14.2,3.1,21.3c0.7,4.9,1.4,9.9,2.1,14.8c0.1,0.5,0.4,1.1,0.9,1.3
			c2.3,1,4.7,1.8,7.1,2.7c1-2,2-4,3-5.9C134.5,134.5,134.5,133.9,134.2,133z"/>
	</g>
</g>
<g class="st0">
	<path class="st6" d="M173.2,144.2V70.1c0-5.7-4.6-10.3-10.3-10.3h-28c-0.3,2.9-0.6,5.7-1.1,8.5h28.7c1,0,1.8,0.8,1.8,1.8v28.5
		c-10.4,0-18.9,8.5-18.9,18.9c0,2.8,0.6,5.4,1.7,7.8c-3.5,3.1-6.2,6.9-8.1,11.2c-3.5-2.6-7.9-4.3-12.6-4.3c-3.2,0-6.2,0.7-8.9,2.1
		V98.8V94h1.4l-1.2-2.6c0.6-1,1.1-2.1,1.7-3.2L137,94v-5.8l-11.8-15.8c1.7-6.5,2.5-13.7,2.5-21.1c0-18.5-5.4-35-14-46.2
		c-8.6,11.2-14,27.8-14,46.2c0,7.4,0.8,14.6,2.5,21.1L90.3,88.1V94l17.6-5.8c0.6,1.1,1.1,2.2,1.7,3.2l-1.2,2.6h1.4v4.9v36.4
		c-3.7-3.3-8.7-5.4-14.3-5.4c-1.9,0-3.9,0.3-5.7,0.8c-0.6-8.5-7.6-15.1-16.2-15.1c-3.7,0-7.2,1.2-10,3.5c-5.8-3.7-12.9-5.8-20.3-5.8
		c-1.2,0-2.5,0.1-3.7,0.1V70c0-1,0.8-1.8,1.8-1.8h52.9c0,0-0.8-5.7-1.1-8.5H41.5c-5.7-0.1-10.3,4.6-10.7,10.3v76.2
		c0.3,0,0.4,0.1,0.4,0.1v13.9c0,0-0.1,0.1,0,0.1v0.7c-0.1,0-0.1,0.1,0,0.1v0.1h-0.1c0.1,5,9,8.9,9,8.9h20.8h1.7h23.6
		c0,1.4-0.7,6.1-5.4,9.6l-0.1,0.1c-0.1,0.1-0.3,0.1-0.4,0.3c-0.1,0-0.1,0.1-0.3,0.1c-0.1,0.1-0.3,0.1-0.4,0.3
		c-0.1,0.1-0.3,0.1-0.4,0.3c-0.1,0-0.3,0.1-0.4,0.1c-0.1,0.1-0.4,0.1-0.6,0.3c-0.1,0-0.1,0.1-0.3,0.1c-0.3,0.1-0.4,0.1-0.7,0.3
		c-0.1,0-0.1,0-0.3,0.1c-0.3,0.1-0.6,0.3-0.8,0.3c0,0,0,0-0.1,0c-1.4,0.4-2.9,0.8-4.7,1c-2.2,0.1-4,2.2-3.6,4.6
		c0.3,1.9,2.1,3.3,4,3.3h-0.1h61.2h0.1c1.8,0,3.6-1.2,4-3.1c0.6-2.6-1.4-5-3.9-5l0,0l0,0c-0.8-0.1-1.5-0.3-2.2-0.4h-0.1
		c-0.3,0-0.6-0.1-1-0.3c-0.1,0-0.1,0-0.3,0c-0.3-0.1-0.6-0.1-0.8-0.3h-0.1c-0.3-0.1-0.6-0.1-0.8-0.3h-0.1c-0.3-0.1-0.6-0.1-0.8-0.3
		h-0.1c-0.3-0.1-0.6-0.3-0.7-0.3c0,0,0,0-0.1,0c-0.3-0.1-0.6-0.3-0.7-0.4l0,0c-6.1-3.3-6.7-8.9-6.8-10.4H142h1.7h20.8
		c4.9,0,8.9-3.9,9-8.9h-0.4v-16.9L173.2,144.2z M102.3,154.6c2.6,0.1,4.9,2.4,4.9,5c0,0.8-0.1,1.8-0.6,2.5l0,0
		c-0.7,1.4-2.1,2.4-3.6,2.6c-0.1,0-0.1,0-0.3,0h-0.1c-0.1,0-0.3,0-0.4,0l0,0c-0.1,0-0.3,0-0.4,0h-0.1c-0.1,0-0.3,0-0.4,0
		c0,0,0,0-0.1,0s-0.3,0-0.4-0.1h-0.1c-0.1,0-0.3-0.1-0.3-0.1h-0.1c-0.1,0-0.3-0.1-0.4-0.1h-0.1c-0.1,0-0.1-0.1-0.3-0.1
		c0,0-0.1,0-0.1-0.1c-0.1-0.1-0.3-0.1-0.3-0.3c0,0-0.1,0-0.1-0.1c-0.1,0-0.1-0.1-0.3-0.1l-0.1-0.1c0,0-0.1-0.1-0.1-0.3L98,163
		c0-0.1-0.1-0.1-0.1-0.3l-0.1-0.1c0-0.1-0.1-0.1-0.1-0.3c0,0,0-0.1-0.1-0.1c-0.4-0.7-0.6-1.5-0.6-2.4
		C97,156.9,99.4,154.6,102.3,154.6z"/>
</g>
<g class="st0">
	<g id="XMLID_157_" class="st1">
		<g>
			<polyline id="XMLID_97_" class="st7" points="121.4,77 77.3,77 39.6,77 20.5,109.6 95.9,195.2 171.3,109.6 152.2,77 141.2,77 			
				"/>
			<line id="XMLID_96_" class="st7" x1="137.3" y1="77" x2="125.4" y2="77"/>
			<line id="XMLID_95_" class="st7" x1="22.2" y1="108.8" x2="173" y2="108.8"/>
			<line id="XMLID_94_" class="st7" x1="95.9" y1="194.3" x2="58.2" y2="108.6"/>
			<line id="XMLID_93_" class="st7" x1="95.9" y1="192.3" x2="133.6" y2="106.7"/>
			<line id="XMLID_92_" class="st7" x1="97.6" y1="108.8" x2="97.6" y2="192.1"/>
			<line id="XMLID_91_" class="st7" x1="39.6" y1="76.1" x2="58.2" y2="108.6"/>
			<line id="XMLID_90_" class="st7" x1="77.3" y1="76.1" x2="95.9" y2="108.6"/>
			<line id="XMLID_89_" class="st7" x1="114.5" y1="76.1" x2="133.6" y2="108.6"/>
			<line id="XMLID_88_" class="st7" x1="152.2" y1="76.1" x2="133.6" y2="108.6"/>
			<line id="XMLID_87_" class="st7" x1="114.5" y1="76.1" x2="95.9" y2="108.6"/>
			<line id="XMLID_86_" class="st7" x1="77.3" y1="76.1" x2="58.2" y2="108.6"/>
		</g>
	</g>
	<polygon class="st8" points="104,24.9 121.7,26.7 109.5,39.7 113.3,57 97.2,49.5 81.8,58.4 84.1,40.8 70.8,28.9 88.3,25.6 
		95.4,9.3 	"/>
</g>
<g class="st0">
	<g class="st1">
		<g>
			<path class="st9" d="M80.9,42.2c0.9,1.1,2.8,1.8,4.2,1.6c0,0,4.8-0.8,12.2-0.8s12.2,0.8,12.2,0.8c1.4,0.2,3.3-0.5,4.2-1.6
				c0,0,4.5-5.6,7.8-19.7C124.8,8.4,99.9,8,99.9,8c-1.4,0-3.8,0-5.2,0c0,0-24.8,0.4-21.6,14.5C76.4,36.7,80.9,42.2,80.9,42.2z"/>
			<path class="st9" d="M111.6,53.4c-0.3-2.1-2-3.9-4.1-4.2l0,0c-2.8-0.3-6.3-0.6-9.8-0.6s-6.9,0.3-9.7,0.6c-2.3,0.1-4.5,2-4.7,4.3
				L69.9,167.1c-0.3,2.4,0.9,5.6,2.6,7.3l21.9,21c1.7,1.6,4.5,1.6,6.2,0l21.9-21c1.7-1.6,2.9-4.9,2.6-7.3L111.6,53.4z"/>
			<path class="st9" d="M147.1,144.8c-7.6-18.9-15.1-37.9-22.7-56.8c-1.4-3.5-2.8-7-4.2-10.6l0,0c-1.4-3.4-1.4-2.1-1.2-0.9
				c0.1,0.4,0.1,0.7,0.2,1.1l0,0l0,0c0.8,5.6,1.6,11.3,2.4,16.9c1.6,11.2,3.2,22.4,4.8,33.6c1.1,7.8,2.2,15.6,3.3,23.3
				c0.1,0.8,0.7,1.8,1.3,2.1c3.6,1.5,7.3,2.8,11.1,4.2c1.6-3.2,3.1-6.2,4.8-9.2C147.6,147.2,147.7,146.1,147.1,144.8z"/>
		</g>
	</g>
</g>
<g class="st0">
	<g class="st1">
		<g>
			<path class="st9" d="M23.6,149.7c-4.5,0-8.1-3.7-8.2-8.2l0,0V45.9c0-4.5,3.6-8.2,8.2-8.2l0,0h151.8c4.5,0,8.1,3.6,8.2,8.2l0,0
				v95.6c0,4.5-3.6,8.2-8.2,8.2l0,0H23.6L23.6,149.7z M22.4,46.1v95.5c0,0.5,0.5,1,1,1l0,0h151.7c0.5,0,1-0.5,1-1l0,0V46.1
				c0-0.5-0.5-1-1-1l0,0H23.4C22.9,45.1,22.4,45.6,22.4,46.1L22.4,46.1z"/>
		</g>
		<path class="st9" d="M3.7,154.3c-0.9-0.9-0.6-1.6,0.7-1.6h191.3c1.3,0,1.6,0.7,0.7,1.6l-6.5,6.4c-0.9,0.9-2.6,1.6-3.9,1.6H14.1
			c-1.3,0-3-0.7-3.9-1.6L3.7,154.3z"/>
		<g>
			<path class="st9" d="M73.8,93.8c0-14.3,11.6-25.9,25.9-25.9l0,0c14.3,0,25.9,11.6,25.9,25.9l0,0c0,14.3-11.6,25.9-25.9,25.9l0,0
				C85.4,119.8,73.8,108.2,73.8,93.8L73.8,93.8z M82.8,76.9c-4.3,4.3-7,10.3-7,16.9l0,0c0,6.6,2.7,12.6,7,16.9l0,0
				c4.3,4.3,10.3,7,16.9,7l0,0c6.6,0,12.6-2.7,16.9-7l0,0c4.3-4.3,7-10.3,7-16.9l0,0c0-6.6-2.7-12.6-7-16.9l0,0
				c-4.3-4.3-10.3-7-16.9-7l0,0C93.1,69.9,87.1,72.6,82.8,76.9L82.8,76.9z"/>
		</g>
		<g>
			<path class="st9" d="M94.7,103.2l-8.8-8.8c-0.8-0.8-0.8-2,0-2.8l0,0c0.8-0.8,2-0.8,2.8,0l0,0l7.4,7.3l15.4-15.4
				c0.8-0.8,2-0.8,2.8,0l0,0c0.8,0.8,0.8,2,0,2.8l0,0l-16.8,16.8c-0.4,0.4-0.9,0.6-1.4,0.6l0,0C95.5,103.7,95,103.5,94.7,103.2
				L94.7,103.2z"/>
		</g>
	</g>
</g>
<g class="st0">
	<g class="st1">
		<polygon class="st2" points="90.2,127.3 72.1,147.1 54.3,166.5 46.6,155.1 68.2,118.2 72.5,111 		"/>
		<path class="st10" d="M71.8,108.4l20.5,18.8l-21,23l-0.6-3.2c-2.1-9.6-3.4-19.5-3.9-29.4V117L71.8,108.4z"/>
		<path class="st10" d="M63,154.6c-0.2,1.9-0.4,3.8-0.6,5.6l-8.2,9l-9.4-14L62,125.7c0.3,1.7,0.5,3.5,0.8,5.2
			C63.6,138.7,63.7,146.7,63,154.6z"/>
		<path class="st11" d="M72.1,108.4l-10.2,17.3l-17.3,29.4l9.4,14l8.2-9l30.2-33L72.1,108.4z M54.5,163.8l-6-8.8l14.2-24l10.2-17.4
			L88,127.3l-24.9,27.2L54.5,163.8z"/>
	</g>
	<g class="st1">
		<polygon class="st2" points="160.2,155.1 152.5,166.5 134.3,146.6 116.6,127.3 134.3,111 138.1,117.4 		"/>
		<path class="st10" d="M134.8,108.4l-20.5,18.8l21,23l0.6-3.2c2.1-9.6,3.4-19.5,3.9-29.4V117L134.8,108.4z"/>
		<path class="st10" d="M162.2,155.2l-9.4,14l-8.3-9.1c-0.3-1.9-0.5-3.8-0.6-5.6c-0.7-7.9-0.6-15.9,0.4-23.6
			c0.2-1.7,0.5-3.5,0.8-5.2L162.2,155.2z"/>
		<path class="st11" d="M144.8,125.6l-10.1-17.2l-20.5,18.8l30.1,32.9l8.3,9.1l9.4-14L144.8,125.6z M152.3,163.8l-8.6-9.4
			l-24.8-27.1l15.1-13.8l10.1,17.3l14.2,24.2L152.3,163.8z"/>
	</g>
	<g class="st1">
		<path class="st2" d="M128.7,150.8c-0.6,2.8-1.3,5.6-2,8.4c-1.5,5.6-3.2,11.1-5.2,16.4H84.9c-2-5.3-3.8-10.9-5.2-16.5
			c-0.7-2.8-1.4-5.6-2-8.5c-10-46.5-3.7-101.2,21.7-140c1.2-1.8,2.5-3.1,3.8-3.1s2.6,1.3,3.8,3.1
			C132.4,49.6,138.7,104.3,128.7,150.8z"/>
		<path class="st12" d="M106.9,10.6c-1.2-1.8-2.5-3.1-3.8-3.1H103v168.2h18.3c2-5.3,3.8-10.8,5.2-16.4c0.7-2.8,1.4-5.6,2-8.4
			C138.7,104.2,132.3,49.4,106.9,10.6z"/>
		<path class="st11" d="M122.6,177.6H83.8l-0.4-1.1c-2-5.3-3.8-10.9-5.3-16.7c-0.7-2.8-1.4-5.6-2.1-8.5
			c-10.7-50-2.4-104.1,21.9-141.2c1.3-1.9,3-3.9,5.2-3.9s3.9,1.9,5.2,3.8c24.3,37.2,32.7,91.3,21.9,141.3c-0.6,2.9-1.3,5.8-2.1,8.5
			c-1.5,5.8-3.3,11.3-5.3,16.6L122.6,177.6z M86.1,174.4h34.2c1.8-4.9,3.4-10,4.8-15.2c0.7-2.7,1.4-5.5,2-8.3l0,0
			c10.6-49.2,2.4-102.3-21.4-138.8c-1.4-2.1-2.1-2.4-2.5-2.4s-1.1,0.4-2.5,2.4c-23.8,36.4-32,89.5-21.4,138.7c0.6,2.8,1.3,5.6,2,8.3
			C82.7,164.3,84.3,169.4,86.1,174.4z"/>
	</g>
	<g class="st1">
		<path class="st13" d="M125.7,51.9c-9.2-3.3-16-5.1-22.4-5.4c-7-0.3-13.5,1.5-22.2,5.4c4.3-14.7,10.4-28.7,18.5-41
			c1.2-1.8,2.5-3.1,3.8-3.1s2.6,1.3,3.8,3.1c0.5,0.8,1,1.6,1.5,2.3c0.5,0.8,1,1.6,1.4,2.4c0.4,0.6,0.7,1.2,1.1,1.8
			c0.1,0.1,0.1,0.2,0.1,0.3c0.1,0.3,0.3,0.5,0.5,0.8c0.1,0.1,0.1,0.2,0.1,0.3c0.3,0.6,0.6,1.1,0.9,1.7c0.5,0.8,0.8,1.6,1.3,2.4
			c0,0,0,0.1,0.1,0.1c0.5,0.8,0.8,1.7,1.3,2.5c0,0.1,0.1,0.1,0.1,0.2c0.4,0.8,0.8,1.6,1.2,2.4c0.4,0.8,0.8,1.7,1.2,2.5v0.1
			c0.3,0.7,0.6,1.4,0.9,2.1c0.1,0.1,0.1,0.3,0.2,0.5C121.6,39.1,123.8,45.5,125.7,51.9z"/>
		<path class="st14" d="M125.9,51.7c-9.4-3.3-16.3-5.1-22.9-5.4V7.5h0.1c1.4,0,2.6,1.3,3.9,3.1c0.5,0.8,1,1.6,1.5,2.3
			c0.5,0.8,1,1.6,1.5,2.4c0.4,0.6,0.7,1.2,1.1,1.8c0.1,0.1,0.1,0.2,0.1,0.3c0.1,0.3,0.3,0.5,0.5,0.8c0.1,0.1,0.1,0.2,0.1,0.3
			c0.3,0.6,0.7,1.1,0.9,1.7c0.5,0.8,0.9,1.6,1.3,2.4c0,0,0,0.1,0.1,0.1c0.5,0.8,0.9,1.7,1.3,2.5c0,0.1,0.1,0.1,0.1,0.2
			c0.4,0.8,0.8,1.6,1.2,2.4c0.4,0.8,0.8,1.7,1.2,2.5v0.1c0.3,0.7,0.7,1.4,0.9,2.1c0.1,0.1,0.1,0.3,0.2,0.5
			C121.7,38.9,124,45.2,125.9,51.7z"/>
		<path class="st11" d="M78.3,54.8l1-3.4C83.7,36,90,22,97.9,9.9c1.3-1.9,3-3.9,5.2-3.9s3.9,1.9,5.2,3.8c8,12.2,14.2,26.1,18.7,41.5
			l0.9,3.1l-3-1.1c-18.4-6.6-26.8-7.4-43.5-0.1L78.3,54.8z M101.9,44.9c6.3,0,12.8,1.6,21.1,4.4c-4.3-13.8-10.2-26.5-17.3-37.4
			c-1.4-2.1-2.1-2.4-2.5-2.4s-1.1,0.4-2.5,2.4C93.6,22.8,87.8,35.2,83.4,49C90.4,46.2,96.1,44.9,101.9,44.9z"/>
	</g>
	<g class="st1">
		<path class="st15" d="M40.9,174.4c-6.9-22.5-5.8-52.9,5.2-73.3c0.5-0.8,0.9-1.4,1.4-1.4s1,0.6,1.4,1.4c11,20.4,12.2,50.8,5.3,73.3
			H40.9z"/>
		<path class="st11" d="M55.4,176.3H39.7l-0.4-1.2c-7.4-24.2-5.2-54.8,5.4-74.6c0.4-0.7,1.3-2.3,2.8-2.3c1.6,0,2.5,1.6,2.8,2.3
			c10.7,19.8,12.9,50.5,5.4,74.6L55.4,176.3z M42.1,173.1H53c6.8-23.2,4.6-52.1-5.4-70.8C37.5,120.9,35.3,149.9,42.1,173.1z"/>
	</g>
	<g class="st1">
		<path class="st15" d="M165.3,174.4c6.9-22.5,5.8-52.9-5.2-73.3c-0.5-0.8-0.9-1.4-1.4-1.4s-1,0.6-1.4,1.4
			c-11,20.4-12.2,50.8-5.3,73.3H165.3z"/>
		<path class="st11" d="M166.6,176.3h-15.8l-0.4-1.2c-7.4-24.2-5.2-54.8,5.4-74.6c0.4-0.7,1.3-2.3,2.8-2.3c1.6,0,2.5,1.6,2.8,2.3
			c10.7,19.8,12.9,50.5,5.4,74.6L166.6,176.3z M153.2,173.1h10.9c6.8-23.2,4.6-52.1-5.4-70.8C148.6,120.9,146.4,149.9,153.2,173.1z"
			/>
	</g>
	<g class="st1">
		<polygon class="st15" points="124.5,191.2 81.9,191.2 85.2,175.7 121.1,175.7 		"/>
		<path class="st11" d="M125.6,191.2l-0.3-1.3l-3.4-15.6H83.3L80,189.9l-0.3,1.3v0.1l-0.4,1.9h46.8L125.6,191.2z M83.9,189.9
			l2.6-12.3h33.3l2.7,12.3H83.9z"/>
	</g>
	<g class="st1">
		<g>
			<circle class="st15" cx="103.2" cy="74" r="11.6"/>
			<g>
				<path class="st2" d="M110.7,64.1l-0.5,0.6l-1.1,1.2L95.8,80.6l-1.1,1.2l-1,1.2L93,82.4c-0.6-0.8-1.2-1.7-1.7-2.7l1.2-1.4
					l1.2-1.4l11.5-12.7l1.2-1.4l1.2-1.4c0.1,0,0.1,0.1,0.1,0.1L110.7,64.1z"/>
				<path class="st2" d="M113.5,66.7l-1.9,2.1l-12.7,14l-2.3,2.5c-0.3-0.1-0.6-0.3-0.8-0.5L95,84.3l2.1-2.4l13.3-14.6l1.7-1.8
					L113.5,66.7z"/>
			</g>
			<path class="st11" d="M107.9,61.6C107.8,61.6,107.8,61.5,107.9,61.6c-1.5-0.6-3.1-0.9-4.7-0.9c-7.3,0-13.2,6-13.2,13.2
				c0,2.1,0.5,4,1.3,5.8c0.5,1,1,1.8,1.7,2.7c0.8,1,1.7,1.9,2.8,2.6c0.3,0.2,0.5,0.3,0.8,0.5c1.9,1.1,4.1,1.7,6.5,1.7
				c7.3,0,13.2-6,13.2-13.2C116.4,68.4,112.9,63.5,107.9,61.6z M103.2,83.9c-1.5,0-3-0.3-4.3-1c-0.6-0.3-1.1-0.6-1.6-1
				c-0.6-0.4-1.1-0.9-1.6-1.4c-0.9-1-1.6-2.3-2.1-3.6c-0.3-1-0.5-1.9-0.5-3c0-5.4,4.5-9.9,9.9-9.9c0.7,0,1.4,0.1,2.1,0.3
				c1.4,0.3,2.7,0.9,3.8,1.7c0.6,0.4,1.1,0.9,1.6,1.4c0.4,0.5,0.8,1,1.1,1.5c0.9,1.5,1.4,3.2,1.4,5.1
				C113.1,79.4,108.6,83.9,103.2,83.9z"/>
		</g>
	</g>
	<path class="st16" d="M153.2,173.1h5.4v-70.8C148.6,120.9,146.4,149.9,153.2,173.1z"/>
	<path class="st16" d="M41.9,173.1h5.4v-70.8C37.3,120.9,35.1,149.9,41.9,173.1z"/>
</g>
<g class="st0">
	<g class="st1">
		<g>
			<g>
				<g>
					<path class="st17" d="M139.6,182h-1h-0.5v-17.8c0-1-0.9-1.8-2-1.8h-35.7H64.8c-1.1,0-2,0.8-2,1.8V182H62h-1.3
						c-1.1,0-2,0.8-2,1.8v4.2h83.1v-4.2C141.6,182.7,140.7,182,139.6,182z"/>
					<path class="st11" d="M143.4,188.5h-86v-5.3c0-1.7,1.5-3,3.4-3H61v-16.5c0-1.7,1.5-3.1,3.4-3.1H136c1.8,0,3.4,1.4,3.4,3.1v16.5
						h0.8c1.8,0,3.4,1.3,3.4,3L143.4,188.5L143.4,188.5z M59.8,186.7h80.7v-3c0-0.2-0.3-0.5-0.7-0.5h-3.4V164c0-0.2-0.3-0.5-0.7-0.5
						H64c-0.4,0-0.7,0.2-0.7,0.5v19.1h-2.8c-0.4,0-0.7,0.3-0.7,0.5V186.7z"/>
				</g>
				<path class="st18" d="M114.9,108.3c10.4-14.3,16.9-40.4,18-73.6l0.1-2.9h4.6c5.6,0.2,9.9-8.6,9.9-8.6V20h15.3l0.2-1.8h-17.3v3.1
					c0,0-4.5,8.8-10.1,8.8H131l-0.1,2.8c-1.2,33.2-7.6,59.3-18,73.6l-7.8,10.7l5.4-2.9L114.9,108.3z"/>
				<g>
					<path class="st13" d="M145.8,18.2v2.6c0,4-3.4,7.3-7.8,7.9l1.8-11.8h-39.7l0,0h-39l2,12.9c-1.1-0.2-2.2-0.6-3.1-1.1l0,0
						c-0.7-0.4-1.4-0.8-1.9-1.4c0,0,0,0-0.1-0.1c-0.2-0.2-0.4-0.4-0.5-0.5l0,0c-0.4-0.4-0.7-0.7-0.9-1.1l-0.1-0.1
						c-0.1-0.2-0.2-0.4-0.4-0.6c0-0.1-0.1-0.1-0.1-0.1c-0.1-0.2-0.2-0.4-1-0.6v-0.1c0.6-0.2,0.6-0.7,0.6-0.7v-0.1v-0.7v-0.1L55,22
						v-0.1c0,0,0.1-0.5,0.6-0.7v-3.1H36.1l0.4,3.4c4,31,16.2,72.5,46.8,88.9l1.1,0.6c2.3,2.6,4.7,4.6,7.2,6c0.4,0.2,0.7,0.4,1.1,0.5
						c0.1,0.1,0.3,0.1,0.4,0.2c0.2,0.1,0.4,0.2,0.6,0.3c0.2,0.1,0.4,0.1,0.6,0.2s0.3,0.1,0.5,0.2s0.5,0.2,0.8,0.2
						c0.1,0.1,0.2,0.1,0.3,0.1c1.4,0.4,2.8,0.6,4.2,0.2h0.1l0,0l0,0l0,0l0,0c2.8,0.4,5.7-0.4,8.5-2c2.2-1.2,4.4-3,6.5-5.2l2.6-1.4
						c30.6-16.4,42.8-57.9,46.8-88.9L165,18L145.8,18.2L145.8,18.2z M43.7,24.1h5c1.4,6.1,7.4,10.9,14.6,11.6
						c1.1,25,5.2,46.1,11.9,61.2C55.9,78.6,47.3,48.8,43.7,24.1z M125.7,96.9c6.6-15.1,10.7-36.2,11.9-61.2
						c7.3-0.7,13.2-5.5,14.6-11.6h5C153.7,48.8,145.1,78.6,125.7,96.9z"/>
					<polygon class="st18" points="100.1,17 100.1,17 61.1,17 63.5,29.4 100.1,29.4 100.1,29.4 137.3,29.4 139.2,17 					"/>
					<path class="st19" d="M98.4,115.9c-16.1-9.1-17.6-59.5-18.5-83l-2.4-16H66l2.4,16c2.1,57.2,18.6,80.2,25.7,84.2
						c1.9,1.2,3.2,1.7,5,1.9L98.4,115.9z"/>
					<path class="st11" d="M100.2,120.8L100.2,120.8c-0.1,0-3.1-0.3-4.6-0.7c-0.1,0-0.2-0.1-0.2-0.1l-0.2-0.1
						c-0.2-0.1-0.5-0.1-0.7-0.2c-0.1-0.1-0.2-0.1-0.4-0.1l-0.3-0.1c-0.2-0.1-0.3-0.1-0.5-0.2s-0.4-0.1-0.5-0.2l-0.3-0.1
						c-0.1-0.1-0.2-0.1-0.3-0.1c-0.4-0.2-0.8-0.4-1.1-0.6c-2.6-1.4-5-3.5-7.4-6.1l-0.9-0.5c-14.1-7.5-25.5-20.8-34-39.6
						c-8.1-18-11.9-37.3-13.5-50.3L34.8,17h21.4v4.3c0.3,0.2,0.6,0.6,0.6,0.6V22l-0.6,0.6v0.1l0.6,0.5v0.1l0.6,0.5V24
						c0.1,0.2,0.2,0.4,0.2,0.5l0.1,0.1c0.1,0.2,0.2,0.4,0.3,0.5l0-0.1c0.2,0.4,0.5,0.7,0.8,0.9l0.1,0.1c0.1,0.1,0.3,0.3,0.4,0.4
						c0.5,0.5,1.1,0.9,1.7,1.2h0.1c0.2,0.1,0.5,0.3,0.8,0.4l-1.8-12.3h80.8L139,28.4c3.3-1.1,5.7-3.9,5.7-6.9V17h21.8l-0.6,4.8
						c-1.7,13-5.4,32.3-13.5,50.3c-8.5,18.8-19.9,32.1-34,39.6l-2.4,1.2c-2.1,2.3-4.3,4-6.6,5.3
						C106.4,119.9,103.3,120.8,100.2,120.8z M37.8,19.9l0.2,1.7c3.2,25.2,13.6,70.2,45.8,87.5l1.3,0.7l0.2,0.2
						c2.2,2.5,4.4,4.4,6.8,5.7c0.3,0.2,0.6,0.4,0.9,0.5c0.1,0.1,0.1,0.1,0.2,0.1l0.4,0.2c0.1,0.1,0.3,0.1,0.4,0.2s0.2,0.1,0.4,0.1
						l0.4,0.1C94.9,117,95,117,95,117c0.2,0.1,0.4,0.1,0.6,0.2l0.2,0.1c0.1,0,0.1,0,0.1,0.1c1.2,0.4,2.5,0.5,3.8,0.5h0.3
						c2.6,0,5.2-0.7,7.8-2.2c2.1-1.2,4.2-2.9,6.1-4.9l0.2-0.2l2.7-1.5c32.5-17.5,42.9-62.6,46.2-88l0.2-1.7H147v1.9
						c0.2,5-4.1,9.3-9.6,10l-1.7,0.2l2-13.3h-75l2,13.3l-1.8-0.4c-1.2-0.2-2.4-0.7-3.5-1.2l-0.1-0.1c-0.8-0.4-1.5-0.9-2.1-1.5
						l-0.2,0c-0.2-0.2-0.4-0.4-0.6-0.6c-0.4-0.4-0.8-0.9-1.1-1.4l-0.1-0.1c-0.1-0.2-0.3-0.5-0.4-0.7l-0.1-0.1
						c-0.1-0.2-0.2-0.5-0.9-0.8v-0.1c0.5-0.2,0.6-0.7,0.6-0.7v-0.1l-0.6-0.8v-0.1l0.6-0.8v-0.1l-0.6-0.8v-1.4L37.8,19.9L37.8,19.9z
						 M79.1,102.5L74.4,98c-20.5-19.2-28.7-50.6-32-73.6l-0.2-1.5h7.6l0.2,1c1.3,5.6,6.8,9.9,13.5,10.6l1.1,0.1l0.1,1.1
						c1.1,24.7,5.2,45.7,11.8,60.7L79.1,102.5z M45.3,25.3C48.4,45.8,55.4,72.6,71.6,91c-5.2-14.4-8.4-33-9.4-54.3
						c-6.9-1.1-12.5-5.5-14.4-11.5L45.3,25.3z M121.9,102.4l2.6-5.9c6.6-15.1,10.7-36.1,11.8-60.7l0.1-1.1l1.1-0.1
						c6.6-0.7,12.2-5,13.5-10.6l0.2-1h7.6l-0.2,1.5c-3.3,23-11.5,54.4-31.9,73.6L121.9,102.4z M138.9,36.7
						c-1,21.2-4.3,39.8-9.4,54.3c16.1-18.4,23.2-45.2,26.3-65.7h-2.5C151.3,31.2,145.8,35.7,138.9,36.7z"/>
				</g>
				<g>
					<path class="st13" d="M107.3,137.7c0.2-0.1,2.5-8.2,2.5-8.2c1.3,0,2.3-0.9,2.3-2v-1.1v-1.1c0-0.8-0.8-1.5-1.7-1.6
						c-1.9-2.3-3.1-4.2-1.6-7.1c-2.8,1.6-5.6,2.3-8.5,2.3l0,0c-2.8,0-5.7-0.8-8.5-2.3c0.1,0.2,0.2,0.4,0.2,0.5s0.1,0.1,0.1,0.2
						c0.1,0.1,0.1,0.2,0.1,0.4c0,0.1,0.1,0.1,0.1,0.2s0.1,0.2,0.1,0.3c0,0.1,0,0.1,0.1,0.2c0,0.1,0,0.2,0.1,0.3c0,0.1,0,0.8,0,0.9
						s0,0.2,0,0.2c0,0.1,0,0.2,0,0.2v0.2c0,0,0,0.1-0.1,0.2c0,0.1-0.1,0.2-0.1,0.2s-0.1,0.1-0.1,0.2s-0.1,0.1-0.1,0.2
						s-0.1,0.2-0.1,0.2c0,0.1-0.1,0.1-0.1,0.2c-0.1,0.2-0.2,0.3-0.3,0.5c0,0.1-0.1,0.1-0.1,0.1c-0.1,0.1-0.1,0.2-0.2,0.3
						c-0.1,0.1-0.1,0.1-0.1,0.2c-0.1,0.1-0.1,0.2-0.2,0.3c-0.1,0.1-0.1,0.1-0.1,0.1c-0.1,0.1-0.1,0.2-0.3,0.3
						c-0.1,0.1-0.1,0.1-0.1,0.1c-0.1,0.1-0.2,0.2-0.3,0.3c0,0.1-0.1,0.1-0.1,0.1c-0.1,0.1-0.2,0.2-0.3,0.3H90
						c-0.9,0-1.7,0.6-1.7,1.3v1.1v1c0,1,1.1,1.9,2.4,1.9H91l2.2,8.2c-5.9,11.8-11,19.3-29.3,25h36.3h36.4
						C118.3,157.1,113.2,149.6,107.3,137.7z"/>
					<path class="st11" d="M135.4,163.6H64.3c0,0-1.2-0.2-1.3-0.9s0.3-1.2,0.9-1.5c17.5-5.6,22.3-12.7,27.9-23.7
						c-0.4-1.3-1.4-5-1.8-6.8c-1.5-0.4-2.7-1.7-2.8-3.2v-2.3c0.1-1.3,1.1-2.4,2.5-2.7l0,0c0.1-0.1,0.2-0.2,0.2-0.3l0.1-0.1
						c0.1-0.1,0.1-0.2,0.2-0.2l0.1-0.1c0.1-0.1,0.1-0.2,0.2-0.2l0.1-0.1c0.1-0.1,0.1-0.2,0.1-0.2l0.1-0.1c0.1-0.1,0.1-0.3,0.2-0.4
						l0.1-0.4c0-0.1-0.3-0.1-0.3-0.1v-0.1V120c0.3-0.1,0.6-0.2,0.6-0.2v-0.1v-0.2v-0.2v-0.2V119v-0.2v-0.2c-0.2-0.1-0.3-0.1-0.3-0.2
						l-0.1-0.2c0-0.1-0.1-0.2-0.1-0.3l-0.2-0.1v-0.3c-0.1-0.2-0.1-0.3-0.2-0.5c-0.2-0.5-0.2-1.1,0.2-1.5c0.4-0.4,1.1-0.5,1.5-0.2
						c5,2.8,10.3,2.8,15.3,0c0.5-0.3,1.1-0.2,1.5,0.2c0.4,0.4,0.5,1,0.2,1.5c-1,2-0.5,3.2,1.1,5.2c1.4,0.3,2.3,1.4,2.3,2.8v2.1
						c0,1.5-1.1,2.7-2.5,3.1c-1.1,3.9-1.6,5.9-2,6.9c5.5,11,10.2,18.1,27.5,23.7c0.6,0.2,1,0.8,0.9,1.5
						C136.6,163.1,136,163.6,135.4,163.6z M71.6,161.2h56.6c-13.1-5.6-17.6-12.9-22.5-22.8c-0.2-0.4-0.2-0.9,0.1-1.2
						c0.2-0.6,1.4-4.4,2.2-7.8c0.2-0.6,0.7-0.9,1.3-0.9c0.5,0,0.9-0.4,0.9-0.6v-2.1c0-0.1-0.1-0.2-0.4-0.2c-0.4,0-0.7-0.2-1-0.5
						c-1.4-1.6-2.5-3.3-2.5-5.4c-4.1,1.6-8.5,1.6-12.7,0c0,0.1,0,0,0,0v0.3c0.2,0.1,0.2,0.2,0.1,0.4c0,0.1,0,0.2-0.1,0.3
						c0,0.1,0.6,0.3,0.6,0.3v0.1l-0.7,0.2c0,0.1-0.1,0.1-0.1,0.2l-0.1,0.1c0,0.1-0.1,0.1-0.1,0.2s-0.1,0.1-0.1,0.2
						c-0.1,0.2-0.2,0.5-0.4,0.7c-0.1,0.1-0.1,0.1-0.1,0.2c-0.1,0.1-0.1,0.2-0.2,0.3l-0.1,0.2c-0.1,0.1-0.1,0.2-0.2,0.3l-0.1,0.2
						c-0.1,0.1-0.2,0.2-0.2,0.3l-0.1,0.1c-0.1,0.1-0.2,0.2-0.3,0.4l-0.1,0.1c-0.1,0.1-0.2,0.2-0.3,0.4c-0.2,0.3-0.6,0.5-1,0.7h0
						c-0.2-0.2-0.3-0.1-0.6-0.1v2.2c0.3,0.3,1.2,0.9,1.2,0.9l0,0c0.4,0,0.7,0.1,0.9,0.4c0.2,0.2,0.2,0.2,2.5,8.7
						c0.1,0.3,0.1,0.6-0.1,0.9C89.2,148.3,84.7,155.6,71.6,161.2z M106.4,136.5L106.4,136.5L106.4,136.5z M106.4,136.5L106.4,136.5
						L106.4,136.5z"/>
				</g>
			</g>
			<g>
				<g>
					<polygon class="st20" points="50.3,149.9 11.6,149.9 19.1,131.2 11.6,112.5 50.3,112.5 					"/>
					<path class="st11" d="M51.5,151.1H9.7l8-19.9l-8-19.9h41.7L51.5,151.1L51.5,151.1z M12.9,148.7h35.6v-35H12.9l7,17.5
						L12.9,148.7z"/>
				</g>
				<g>
					<polygon class="st20" points="150,149.9 188.6,149.9 181.2,131.2 188.6,112.5 150,112.5 					"/>
					<path class="st11" d="M191.1,151.1h-42.3v-40.4h42.3l-8.1,20.2L191.1,151.1z M151.2,148.7h35.6l-6.9-17.5l7-17.5h-35.7V148.7z"
						/>
				</g>
				<g>
					<polygon class="st21" points="150,149.6 170,136.3 150,136.3 					"/>
					<path class="st11" d="M150.2,151.1c-0.2,0-0.4-0.1-0.7-0.2c-0.4-0.2-0.7-0.7-0.7-1.2v-13.4c0-0.7,0.6-1.3,1.3-1.3h20
						c0.6,0,1.1,0.4,1.2,0.9c0.2,0.5-0.1,1.2-0.5,1.5l0.6,0.2l-20.5,13.2C150.7,151,150.4,151.1,150.2,151.1z M151.2,137.5v9.6
						l15.3-9.6H151.2z"/>
				</g>
				<g>
					<rect x="30.1" y="98.9" class="st20" width="140.1" height="37.4"/>
					<path class="st11" d="M171.4,138H28.9V97.7h142.5V138z M31.3,135.1h137.1v-35H31.3V135.1z"/>
				</g>
				<g>
					<polygon class="st21" points="50.3,149.6 30.3,136.3 50.3,136.3 					"/>
					<path class="st11" d="M49.4,150.9l-20.6-13.1l0.6-0.2c-0.5-0.3-0.7-0.9-0.5-1.5s0.7-0.9,1.2-0.9h20c0.7,0,1.3,0.6,1.3,1.3v13.4
						c0,0.5-0.3,0.9-0.7,1.2c-0.2,0.1-0.4,0.2-0.7,0.2C49.9,151,49.7,151,49.4,150.9z M33.2,137.5l15.3,9.6v-9.6H33.2z"/>
				</g>
				<g>
					<polygon class="st2" points="100.1,104.9 103.3,114.9 113.8,114.9 105.3,121 108.5,131 100.1,124.8 91.6,131 94.9,121 
						86.4,114.9 96.9,114.9 					"/>
					<path class="st11" d="M110.4,133.5L100,126l-10.4,7.5l4-12.2l-10.4-7.5H96l4-12.2l4,12.2h12.8l-10.4,7.5L110.4,133.5z
						 M89.6,115.5l6.5,4.7l-2.5,7.7l6.5-4.7l6.5,4.7l-2.5-7.7l6.5-4.7h-8.1l-2.5-7.7l-2.5,7.7H89.6z"/>
				</g>
				<g>
					<polygon class="st2" points="139.1,108.7 141.3,115.5 148.4,115.5 142.7,119.7 144.9,126.5 139.1,122.3 133.4,126.5 
						135.6,119.7 129.8,115.5 136.9,115.5 					"/>
					<path class="st11" d="M146.5,128.9l-7.4-5.3l-7.4,5.3l2.8-8.7l-7.4-5.3h9.1l2.8-8.7l2.8,8.7h9.1l-7.4,5.3L146.5,128.9z
						 M132.4,116.7l4.2,3l-1.6,4.9l4.2-3l4.2,3l-1.6-4.9l4.2-3h-5.1l-1.6-4.9l-1.6,4.9H132.4z"/>
				</g>
				<g>
					<polygon class="st2" points="61.1,108.7 63.3,115.5 70.4,115.5 64.6,119.7 66.8,126.5 61.1,122.3 55.3,126.5 57.5,119.7 
						51.7,115.5 58.9,115.5 					"/>
					<path class="st11" d="M68.4,128.9l-7.4-5.3l-7.4,5.3l2.8-8.7l-7.4-5.3h9.1l2.8-8.7l2.8,8.7h9.1l-7.4,5.3L68.4,128.9z
						 M61.1,121.5l4.2,3l-1.6-4.9l4.2-3h-5.1l-1.6-4.9l-1.6,4.9h-5.1l4.2,3l-1.6,4.9L61.1,121.5z"/>
				</g>
			</g>
		</g>
	</g>
</g>
<g class="st0">
	<g class="st1">
		<g>
			<path class="st2" d="M159,144.8H14.7c-2.6,0-4.7-2.1-4.7-4.7V36.9c0-2.6,2.1-4.7,4.7-4.7H159c2.6,0,4.7,2.1,4.7,4.7V140
				C163.8,142.6,161.7,144.8,159,144.8z"/>
			<path class="st11" d="M159.3,146.4H14.4c-3.4,0-6.2-2.8-6.2-6.2v-103c0-3.4,2.8-6.2,6.2-6.2h144.8c3.4,0,6.2,2.8,6.2,6.2v103.1
				C165.5,143.7,162.7,146.4,159.3,146.4z M11.6,37.2v103.1c0,1.8,1.5,3.3,3.3,3.3h144.4c1.8,0,3.3-1.5,3.3-3.3V37.2
				c0-1.8-1.5-3.3-3.3-3.3H14.9C13.1,33.8,11.6,35.3,11.6,37.2z"/>
			<g>
				<path class="st2" d="M118.5,168c-0.4-4-3.9-7.1-8-7.1h-3.1c-3.7,0-6.6-3-6.6-6.6v-9.5H72.9v9.5c0,3.7-3,6.6-6.6,6.6h-3.9
					c-4,0-7.3,2.9-7.9,6.8l-0.8,4.9c-0.1,0.3,0.2,0.6,0.4,0.6h64.5c0.3,0,0.5-0.2,0.4-0.6L118.5,168z"/>
				<path class="st11" d="M119.3,174.9H55c-0.6,0-1-0.2-1.4-0.7c-0.3-0.4-0.5-1-0.4-1.5l0.8-4.9c0.7-4.6,4.6-8,9.3-8h3.4
					c2.9,0,5.2-2.3,5.2-5.2v-10.9h30.7v10.9c0,2.9,2.3,5.2,5.2,5.2h3.6c4.8,0,8.8,3.6,9.4,8.3l0.6,4.6c0.1,0.6-0.1,1-0.4,1.5
					C120.3,174.6,119.8,174.9,119.3,174.9z M55.4,172.1h62.5l-0.4-3.6c-0.4-3.3-3.2-5.9-6.6-5.9h-3.7c-4.5,0-8.1-3.6-8.1-8.1v-8.1
					H74.6v8.1c0,4.5-3.6,8.1-8.1,8.1h-3.9c-3.3,0-6,2.4-6.5,5.6L55.4,172.1z"/>
			</g>
		</g>
		<path class="st11" d="M86.6,161c0.1,0.8-0.6,1.6-1.5,1.6H66.9c-0.7,0-1.3-0.5-1.4-1.2c-0.1-0.8,0.6-1.6,1.5-1.6h18.2
			C85.9,159.8,86.5,160.3,86.6,161z"/>
		<path class="st11" d="M96.5,162.6h-3.6c-0.7,0-1.3-0.5-1.4-1.2c-0.1-0.8,0.6-1.6,1.5-1.6h3.5c0.8,0,1.4,0.6,1.4,1.4
			S97.3,162.6,96.5,162.6z"/>
		<g>
			<path class="st22" d="M142.1,80c-3.5-2-7.2-7.6-11.9-13.2c-1.2-1.4-2.5-2.9-3.7-4.3c-6.1-6.5-12.7-6.7-18.1-1.8
				c-2.8,2.5-4.9,6.2-6.7,10.6c-1.8,4.4-3.3,9.5-4.9,14.6c-2.6,8.4-5.2,15.8-8.6,20.5c-2.7,3.8-5.9,5.5-11.1,3.8
				c-1.4-0.4-2.8-1.3-4-2.5c-3-2.8-5.4-7.6-7.5-12.9c-2.9-7-6.3-9.9-10.5-9.6c-3.7-0.1-6.9,2.7-10.5,7.5c-0.3,0.4-0.7,0.9-1.1,1.4
				c-3.7,5.3-8.4,9.8-17.7,10.3c-3.7,0.2-6.9-0.4-9.8-1.6V123h28.5H73h28.5H130h28.5V85.1C151.9,84.4,146.4,82.6,142.1,80z"/>
			<g>
				<path class="st23" d="M159.3,85.2V123H14.9v-20.6c0.3,0.2,1.1,0.3,1.4,0.4c2.9,1.2,6,1.8,9.7,1.6c9.4-0.4,14-5,17.7-10.3
					c0.3-0.5,0.7-1,1.1-1.4c3.6-4.8,6.7-7.7,10.5-7.5c4.2-0.2,7.7,2.6,10.5,9.6c2.2,5.4,4.6,10,7.5,12.9c1.2,1.2,2.6,2.1,4,2.5
					c5.2,1.6,8.4-0.1,11.1-3.8c3.3-4.7,6-12.1,8.6-20.5c1.6-5.1,3.1-10.1,4.8-14.6c1.8-4.4,3.9-8.1,6.7-10.6
					c5.5-4.9,12.1-4.7,18.1,1.8c1.3,1.4,2.6,2.8,3.7,4.3c4.6,5.6,8.5,11.1,11.9,13.2c4.3,2.6,9.9,4.4,16.6,5.2
					C159,85.1,159.2,85.2,159.3,85.2z"/>
			</g>
			<path class="st24" d="M159.3,87.8v2.9c-6.9-0.8-12.9-2.6-17.6-5.5c-2.8-1.7-5.7-5.4-9.1-9.5c-2.2-2.7-4.3-5.5-6.8-8.1
				c-5.3-5.7-11-6.3-16.1-1.7c-5,4.4-7.7,13.5-10.7,23.1l-0.4,1.3c-3.2,10.4-5.8,16.7-8.8,20.9c-2.4,3.4-5.2,5.1-8.6,5.1
				c-1.3,0-2.6-0.2-4.1-0.7c-5.8-1.8-9.5-9.2-12.4-16.2c-3.3-8.1-6.8-8.9-9.1-8.8h-0.1h-0.1c-3.1-0.1-6,2.3-10.3,8.4
				c-3.8,5.4-8.7,10.4-18.8,10.9c-4.5,0.2-8.1-0.6-11.4-2.1v-3.2c3.6,1.8,6.9,2.6,11.2,2.4c6-0.3,9.9-2.3,13.1-5.4l0,0
				c1.3-1.2,2.4-2.7,3.5-4.2c2.2-3.2,4.4-5.8,6.6-7.5l0,0c1.9-1.4,3.8-2.2,6-2.1c2.1-0.1,4,0.4,5.7,1.7l0,0c2.4,1.7,4.5,4.6,6.2,8.9
				c1.7,4.2,4,9,6.8,12l0,0c1.2,1.2,2.4,2.2,3.8,2.6c3.7,1.1,6.2,0.6,8.5-2l0,0c0.3-0.4,0.7-0.8,1-1.3c3.5-5.1,6.3-13.4,8.4-20.1
				l0.4-1.4c3.1-10,5.9-19.5,11.5-24.4c0.3-0.3,0.7-0.6,1.1-0.9l0,0c5.2-3.9,11.1-3.7,16.4,0.4l0,0c0.9,0.7,1.7,1.5,2.6,2.4
				c2.6,2.7,4.9,5.7,7,8.3c2.1,2.6,4,5,5.7,6.7l0,0c0.9,0.9,1.8,1.6,2.6,2.1C147.5,85.4,152.9,87.1,159.3,87.8z"/>
			<path class="st11" d="M159.3,83.8v2.9c-6.9-0.8-12.9-2.6-17.7-5.5c-0.4-0.2-0.8-0.5-1.1-0.8l0,0c-2.5-1.9-5-5.1-7.9-8.8
				c-2.2-2.7-4.3-5.5-6.8-8.1c-0.2-0.2-0.3-0.3-0.5-0.5l0,0c-5.2-5.2-10.7-5.6-15.6-1.2c-0.3,0.2-0.6,0.5-0.8,0.8l0,0
				c-4.5,4.7-7.1,13.3-9.9,22.4l-0.4,1.4c-3.2,10.4-5.8,16.7-8.8,20.9c-1,1.4-2.1,2.6-3.3,3.5l0,0c-1.6,1.1-3.3,1.6-5.3,1.6
				c-1.3,0-2.6-0.2-4.1-0.7c-1.1-0.3-2.1-0.8-3-1.5l0,0c-4.1-3-7.1-9-9.4-14.7c-1.2-2.8-2.4-4.8-3.5-6.1l0,0
				C59,87,57,86.7,55.5,86.8h-0.1h-0.1c-1.9-0.1-3.8,0.9-6,3.1l0,0C48,91.2,46.6,93,45,95.2c-1.6,2.3-3.5,4.6-5.8,6.4l0,0
				c-3.1,2.5-7.2,4.2-12.9,4.5c-4.5,0.2-8-0.6-11.4-2.1v-3.2c3.3,1.7,6.7,2.6,11.2,2.4c8.4-0.4,12.8-4.2,16.6-9.6
				c4.1-5.9,7.9-9.8,12.7-9.6c5-0.2,8.9,3.2,11.9,10.5c2.5,6,5.9,13.2,10.6,14.6c4.2,1.3,7,0.3,9.5-3.3c3.5-5.1,6.3-13.4,8.4-20.1
				l0.4-1.4c3.1-10,5.9-19.5,11.5-24.4c6.3-5.6,13.8-4.9,20.1,1.9c2.6,2.7,4.9,5.7,7,8.3c3.2,4,5.9,7.5,8.3,8.9
				C147.5,81.4,152.9,83.1,159.3,83.8z"/>
			<path class="st24" d="M54.9,81.7c-3.4,0-6.2,2.8-6.2,6.2s2.8,6.2,6.2,6.2s6.2-2.8,6.2-6.2S58.3,81.7,54.9,81.7z"/>
			<g>
				<circle class="st2" cx="54.9" cy="86" r="4.7"/>
				<path class="st11" d="M54.9,92.2c-3.4,0-6.2-2.8-6.2-6.2s2.8-6.2,6.2-6.2s6.2,2.8,6.2,6.2S58.3,92.2,54.9,92.2z M54.9,82.6
					c-1.8,0-3.3,1.5-3.3,3.3s1.5,3.3,3.3,3.3s3.3-1.5,3.3-3.3S56.8,82.6,54.9,82.6z"/>
			</g>
			<g>
				<circle class="st2" cx="82" cy="110" r="4.7"/>
				<path class="st11" d="M82,116.2c-3.4,0-6.2-2.8-6.2-6.2s2.8-6.2,6.2-6.2c3.4,0,6.2,2.8,6.2,6.2S85.4,116.2,82,116.2z M82,106.7
					c-1.8,0-3.3,1.5-3.3,3.3s1.5,3.3,3.3,3.3s3.3-1.5,3.3-3.3C85.4,108.2,83.9,106.7,82,106.7z"/>
			</g>
			<g>
				<circle class="st2" cx="116.3" cy="57.3" r="4.7"/>
				<path class="st11" d="M116.3,63.5c-3.4,0-6.2-2.8-6.2-6.2s2.8-6.2,6.2-6.2s6.2,2.8,6.2,6.2C122.4,60.7,119.7,63.5,116.3,63.5z
					 M116.3,54c-1.8,0-3.3,1.5-3.3,3.3s1.5,3.3,3.3,3.3s3.3-1.5,3.3-3.3C119.5,55.5,118,54,116.3,54z"/>
			</g>
			<path class="st11" d="M41.4,43.9H18.5c-0.5,0.2-0.9-0.3-0.9-0.8s0.4-0.9,0.9-0.9h22.9c0.5-0.1,0.9,0.4,0.9,0.9
				C42.3,43.6,41.9,44,41.4,43.9z"/>
			<path class="st11" d="M53.3,50.5H18.5c-0.5,0.1-0.9-0.4-0.9-0.9s0.4-0.9,0.9-0.8h34.7c0.5-0.1,0.9,0.3,0.9,0.8
				C54.2,50.2,53.8,50.6,53.3,50.5z"/>
		</g>
		<polygon class="st25" points="99.1,152.6 74.6,151.2 74.6,146.4 99.1,146.4 		"/>
		<g>
			<path class="st22" d="M159,144.8H14.7c-2.6,0-4.7-2.1-4.7-4.7v-11.4h153.9V140C163.7,142.6,161.6,144.8,159,144.8z"/>
			<path class="st11" d="M159.3,146.4H14.4c-3.4,0-6.2-2.8-6.2-6.2v-12.8h157.2v12.8C165.5,143.7,162.7,146.4,159.3,146.4z
				 M11.6,130.3v10c0,1.8,1.5,3.3,3.3,3.3h144.4c1.8,0,3.3-1.5,3.3-3.3v-10H11.6z"/>
		</g>
		<g id="XMLID_125_">
			<g id="XMLID_138_">
				<g id="XMLID_139_">
					<path class="st26" d="M197.7,143.6c0-0.1,0.1-0.3-0.5-0.4v-0.1c0.6-0.3,0.6-0.6,0.6-0.9v-0.1v-0.5c0-2.1-0.9-4-2.4-5.2
						l-4.6-4.1l0,0c-2.6-2.3-5.3-4.5-7.9-6.7c-4.1-3.5-8.4-7.1-12.5-10.7c-1.3-1.2-3.1-1.5-4.5-0.9l-3.1-3.1
						c3.9-5.1,6.2-11.5,6.2-18.3c0-16.7-13.6-30.4-30.4-30.4s-30.4,13.6-30.4,30.4s13.6,30.3,30.3,30.3c6.9,0,13.3-2.3,18.3-6.2
						l3.1,3.1c-0.5,1.3-0.3,2.8,0.6,4.2c0.1,0.1,0.2,0.2,0.3,0.3l0,0c3.6,4.1,7.2,8.3,10.8,12.4c2.2,2.6,4.5,5.2,6.7,7.8l0,0l4,4.5
						c0.1,0.1,0.1,0.1,0.1,0.1c1.1,1.3,2.7,2.1,4.5,2.3c0.3,0.1,0.5,0.1,0.8-0.2h0.3l0,0l0,0c0.2,0.3,0.3,0.3,0.6,0.6h0.4
						c2.2-0.6,4.2-1.6,5.9-3.2c1.3-1.3,2.3-3,2.7-4.7C197.6,143.9,197.6,143.7,197.7,143.6C197.7,143.7,197.7,143.6,197.7,143.6z"/>
					
						<rect id="XMLID_141_" x="158.8" y="108.4" transform="matrix(0.7071 -0.7071 0.7071 0.7071 -32.3472 147.4805)" class="st2" width="6.2" height="8.8"/>
					<path id="XMLID_140_" class="st11" d="M162.7,119.6l-7.6-7.6l5.8-5.8l7.6,7.6L162.7,119.6z M158,111.9l4.8,4.8l3-3l-4.8-4.8
						L158,111.9z"/>
				</g>
			</g>
			<g id="XMLID_135_">
				<path id="XMLID_137_" class="st15" d="M194.4,145.3L194.4,145.3c3.3-3.3,3.4-8.3,0.6-10.6c-8.3-7.2-16.8-14.2-25-21.4
					c-1.3-1.2-3.2-1.2-4.1-0.1c-1.3,1.4-2.3,2.4-3.7,3.7c-1.1,0.9-1.1,2.8,0.1,4.1c7.2,8.3,14.3,16.7,21.5,24.9
					C186.2,148.6,191.1,148.6,194.4,145.3z"/>
				<path id="XMLID_136_" class="st11" d="M188.4,149.2c-0.1,0-0.2,0-0.3,0c-2.1-0.1-4-0.9-5.2-2.5c-3.6-4.1-7.2-8.4-10.8-12.4
					s-7.1-8.3-10.8-12.4c-1.6-1.8-1.6-4.3,0-5.8c1.4-1.3,2.3-2.2,3.6-3.6c1.4-1.6,4-1.6,5.8,0c4.1,3.6,8.4,7.2,12.5,10.7
					s8.4,7.1,12.5,10.7c1.5,1.3,2.3,3.1,2.4,5.2c0.1,2.6-0.9,5.2-3,7.1C193.4,148.2,190.9,149.2,188.4,149.2z M167.7,113.5
					c-0.4,0-0.7,0.1-1,0.4c-1.3,1.5-2.3,2.5-3.8,3.8c-0.6,0.6-0.5,1.6,0.2,2.5c3.6,4.1,7.2,8.4,10.8,12.4c3.5,4.1,7.1,8.3,10.8,12.4
					c0.8,1,2.1,1.6,3.6,1.6c1.9,0.1,3.8-0.7,5.4-2.2l0,0c1.5-1.5,2.3-3.5,2.2-5.4c-0.1-1.4-0.6-2.7-1.6-3.6
					c-4.1-3.6-8.4-7.2-12.5-10.7s-8.4-7.1-12.5-10.7C168.7,113.7,168.2,113.5,167.7,113.5z"/>
			</g>
			<g id="XMLID_132_">
				<path id="XMLID_134_" class="st2" d="M180.4,142.1l10.8-10.8l3.8,3.3c2.8,2.4,2.7,7.4-0.6,10.6c-3.3,3.3-8.3,3.4-10.6,0.6
					L180.4,142.1z"/>
				<path id="XMLID_133_" class="st11" d="M188.4,149.2c-0.1,0-0.2,0-0.3,0c-2.1-0.1-4-0.9-5.2-2.5l-4.1-4.6l12.3-12.3l4.6,4.1
					c1.5,1.3,2.3,3.1,2.4,5.2c0.1,2.6-0.9,5.2-3,7.1C193.4,148.2,190.9,149.2,188.4,149.2z M182,142.1l2.6,3c0.8,1,2.1,1.6,3.6,1.6
					c1.9,0.1,3.8-0.7,5.4-2.2c1.5-1.5,2.3-3.5,2.2-5.4c-0.1-1.4-0.6-2.7-1.6-3.6l-3-2.6L182,142.1z"/>
			</g>
			<g id="XMLID_129_">
				<path id="XMLID_131_" class="st2" d="M164.1,123.2c-0.4-0.5-1.5-1.7-2-2.2c-1.2-1.3-1.1-3.1-0.1-4.1c1.4-1.4,2.2-2.2,3.7-3.7
					c1-1,2.8-1.1,4.1,0.1c0.5,0.4,1.7,1.6,2.1,2L164.1,123.2z"/>
				<path id="XMLID_130_" class="st11" d="M164.1,124.9l-0.8-0.9c-0.2-0.2-0.6-0.7-0.9-1.1c-0.4-0.4-0.8-0.9-1-1.1
					c-1.6-1.8-1.6-4.2-0.1-5.7c1.4-1.4,2.2-2.2,3.7-3.7s4-1.5,5.7,0.1c0.3,0.2,0.7,0.6,1.1,1.1c0.4,0.4,0.8,0.8,1,0.9l0.9,0.8
					L164.1,124.9z M167.7,113.6c-0.4,0-0.8,0.1-1.1,0.4c-1.4,1.4-2.2,2.2-3.7,3.7c-0.6,0.6-0.6,1.7,0.2,2.5c0.2,0.2,0.6,0.7,0.9,1.1
					c0.1,0.1,0.1,0.1,0.1,0.2l6.1-6.1c-0.1-0.1-0.1-0.1-0.2-0.2c-0.4-0.4-0.8-0.8-1-0.9C168.7,113.8,168.2,113.6,167.7,113.6z"/>
			</g>
			<path id="XMLID_128_" class="st2" d="M187.9,132.4c-0.1,0-0.3-0.1-0.4-0.2l-15.9-13.7c-0.2-0.2-0.3-0.6-0.1-0.8s0.6-0.3,0.8-0.1
				l15.9,13.7c0.2,0.2,0.3,0.6,0.1,0.8C188.3,132.3,188.1,132.4,187.9,132.4z"/>
			<g id="XMLID_126_">
				<g id="XMLID_127_">
					<g>
						<path class="st27" d="M161.3,90c0,0.6,0,1.1-0.1,1.7c-0.8,10.9-9.5,19.6-20.5,20.5c-0.6,0.1-1.1,0.1-1.7,0.1
							c-1.6,0-3.2-0.2-4.7-0.5c-1.8-0.4-3.6-1-5.2-1.8c-0.4-0.2-0.8-0.4-1.2-0.7c-1.5-0.9-3-2-4.2-3.2c-0.1-0.1-0.2-0.2-0.3-0.2
							c-2.3-2.3-4.1-5.1-5.2-8.3c-0.3-0.8-0.6-1.7-0.8-2.6c-0.3-1.6-0.6-3.2-0.6-4.9c0-0.2,0-0.3,0-0.4c0.1-1.8,0.3-3.6,0.7-5.3
							c0.6-2.1,1.3-4,2.5-5.7c1.2-2,2.6-3.7,4.3-5.2c3.7-3.3,8.5-5.3,13.7-5.5c0.2,0,0.4,0,0.6,0c0.2,0,0.3,0,0.4,0
							c3.1,0,6,0.6,8.6,1.7c1.7,0.7,3.3,1.7,4.9,2.8c0.9,0.7,1.7,1.4,2.5,2.2c0.8,0.8,1.6,1.8,2.3,2.8c0.6,0.8,1.1,1.7,1.6,2.7
							C160.4,83,161.3,86.4,161.3,90z"/>
						<g>
							<path class="st2" d="M138.9,60.8c-16.1,0-29.2,13-29.2,29.2s13,29.2,29.2,29.2s29.2-13,29.2-29.2S155.1,60.8,138.9,60.8z
								 M140.8,112.1c-0.6,0.1-1.1,0.1-1.7,0.1c-1.6,0-3.2-0.2-4.7-0.5c-1.8-0.4-3.6-1-5.2-1.8c-0.4-0.2-0.8-0.4-1.2-0.7
								c-1.5-0.9-3-2-4.2-3.2c-0.1-0.1-0.2-0.2-0.3-0.2c-2.3-2.3-4.1-5.1-5.2-8.3c-0.3-0.8-0.6-1.7-0.8-2.6
								c-0.3-1.6-0.6-3.2-0.6-4.9c0-0.2,0-0.3,0-0.4c0.1-1.8,0.3-3.6,0.7-5.3c0.6-2.1,1.3-4,2.5-5.7c1.2-2,2.6-3.7,4.3-5.2
								c3.7-3.3,8.5-5.3,13.7-5.5c0.2,0,0.4,0,0.6,0c0.2,0,0.3,0,0.4,0c3.1,0,6,0.6,8.6,1.7c1.7,0.7,3.3,1.7,4.9,2.8
								c0.9,0.7,1.7,1.4,2.5,2.2c0.8,0.8,1.6,1.8,2.3,2.8c0.6,0.8,1.1,1.7,1.6,2.7c1.5,3,2.3,6.4,2.3,10c0,0.6,0,1.1-0.1,1.7
								C160.4,102.6,151.7,111.3,140.8,112.1z"/>
							<path class="st11" d="M138.9,120.6c-16.9,0-30.6-13.7-30.6-30.6s13.7-30.6,30.6-30.6s30.6,13.7,30.6,30.6
								S155.8,120.6,138.9,120.6z M138.9,62.2c-15.3,0-27.8,12.4-27.8,27.8s12.4,27.8,27.8,27.8s27.8-12.4,27.8-27.8
								C166.7,74.7,154.2,62.2,138.9,62.2z M138.9,113.3c-1.7,0-3.4-0.2-5.1-0.6c-1.9-0.4-3.8-1.1-5.5-2c-0.5-0.3-0.9-0.5-1.3-0.7
								c-1.6-0.9-3.1-2.1-4.5-3.3c-0.1-0.1-0.2-0.2-0.3-0.3c-2.5-2.5-4.4-5.5-5.6-8.8c-0.3-0.9-0.6-1.8-0.8-2.8
								c-0.4-1.7-0.6-3.5-0.6-5.2c0-0.2,0-0.3,0-0.5c0.1-1.9,0.3-3.7,0.8-5.6c0.6-2.1,1.4-4.2,2.6-6.1c1.2-2.1,2.8-3.9,4.6-5.5
								c4-3.6,9.2-5.7,14.6-5.9c0.2,0,0.4,0,0.6,0c0.2,0,0.3,0,0.4,0c3.2,0,6.3,0.6,9.2,1.8c1.8,0.8,3.6,1.8,5.2,3
								c0.9,0.7,1.8,1.5,2.7,2.3c0.9,0.9,1.7,1.9,2.4,3c0.6,0.9,1.2,1.8,1.7,2.8c1.7,3.3,2.5,6.9,2.5,10.6c0,0.6,0,1.1-0.1,1.8
								c-0.8,11.5-10.2,20.9-21.7,21.7C140.1,113.3,139.5,113.3,138.9,113.3z M138.7,68.9c-0.1,0-0.2,0-0.3,0c-0.2,0-0.4,0-0.6,0
								c-4.7,0.2-9.3,2.1-12.8,5.2c-1.6,1.4-3,3.1-4,4.9c-1,1.7-1.8,3.5-2.3,5.4c-0.4,1.6-0.7,3.3-0.7,5v0.1c0,0.1,0,0.2,0,0.3
								c0,1.6,0.2,3.1,0.5,4.6c0.2,0.8,0.4,1.6,0.7,2.5c1.1,2.9,2.7,5.6,4.9,7.7c0.1,0.1,0.2,0.2,0.2,0.2c1.2,1.2,2.5,2.2,4,3
								c0.3,0.2,0.7,0.4,1.2,0.6c1.6,0.8,3.2,1.3,4.9,1.7c1.4,0.3,3,0.5,4.5,0.5c0.6,0,1.1,0,1.6-0.1l0,0c10.1-0.7,18.3-9,19.1-19.1
								c0.1-0.6,0.1-1.1,0.1-1.6c0-3.3-0.7-6.4-2.2-9.3c-0.4-0.9-0.9-1.7-1.4-2.5c-0.6-0.9-1.3-1.8-2.1-2.6
								c-0.7-0.8-1.6-1.4-2.3-2.1c-1.4-1.1-3-2-4.5-2.6C144.3,69.5,141.6,68.9,138.7,68.9z"/>
						</g>
					</g>
				</g>
			</g>
		</g>
		<path class="st11" d="M93.9,136.5c0.1,0.8-0.6,1.6-1.5,1.6H81.5c-0.8,0-1.4-0.6-1.4-1.4c0-0.8,0.6-1.4,1.4-1.4h11
			C93.2,135.3,93.8,135.8,93.9,136.5z"/>
	</g>
</g>
<g id="laptop_7_" class="st0">
	<g class="st1">
		<path class="st15" d="M179.3,155.7H23.2V47.4c0-4.6,3.7-8.3,8.3-8.3H171c4.6,0,8.3,3.7,8.3,8.3V155.7L179.3,155.7z"/>
		<path class="st11" d="M179.6,156.8H23.5c-0.8,0-1.5-0.6-1.5-1.5V47.2c0-5.4,4.4-9.7,9.7-9.7h139.6c5.4,0,9.7,4.4,9.7,9.7v108.2
			C181.1,156.1,180.4,156.8,179.6,156.8z M24.9,154h153.4V47.7c0-3.8-3.1-6.8-6.8-6.8H31.7c-3.8,0-6.8,3.1-6.8,6.8
			C24.9,47.7,24.9,154,24.9,154z"/>
	</g>
	<rect x="24.3" y="59.5" class="st28" width="153.9" height="93.4"/>
	<rect x="27.7" y="63.5" class="st3" width="147.1" height="79.2"/>
	<g class="st1">
		<path class="st2" d="M122.2,147.8h72.5c0,3.3-1.3,6.3-3.5,8.4c-2.1,2.1-5.1,3.5-8.4,3.5H20.5c-6.6,0-11.9-5.3-11.9-11.9h72.2
			H122.2L122.2,147.8z"/>
		<path class="st23" d="M9.2,154.6c2.2,3.1,5.8,5.1,9.9,5.1h164.4c3.3,0,6.3-1.3,8.5-3.5c0.5-0.5,1-1,1.4-1.6H9.2z"/>
		<path class="st11" d="M195.5,146.1h-73.1c-0.7,0-1.4,0.6-1.5,1.3c-0.1,0.8,0.6,1.5,1.4,1.5H194c-0.3,2.3-1.4,4.3-3,6
			c-2,2-4.6,3.1-7.5,3.1H19.1c-5.3,0-9.8-3.9-10.5-9.1h71.6c0.7,0,1.4-0.6,1.5-1.3c0.1-0.8-0.6-1.5-1.4-1.5H7
			c-0.8,0-1.4,0.6-1.4,1.4c0,7.3,6,13.3,13.5,13.3h164.4c3.6,0,7-1.4,9.5-3.9s3.9-5.8,4-9.3C197,146.8,196.3,146.1,195.5,146.1z"/>
	</g>
	<g class="st1">
		<path class="st29" d="M80.6,147.8c1.4,2.4,3.9,4,6.9,4h27.7c2.2,0,4.1-0.9,5.6-2.3c0.5-0.5,0.9-1,1.3-1.6L80.6,147.8L80.6,147.8z"
			/>
		<path class="st11" d="M115.3,152.9H87.2c-3.4,0-6.5-1.7-8.2-4.6c-0.5-0.8,0-2.1,1.2-2.1c0.5,0,1,0.3,1.3,0.7
			c1.2,1.9,3.3,3.1,5.6,3.1h28.1c1.8,0,3.4-0.7,4.6-1.9l0.1-0.1c0.3-0.3,0.7-0.7,1-1.3c0.4-0.7,1.3-0.9,2-0.5s0.9,1.3,0.5,1.9
			c-0.5,0.8-1,1.4-1.5,1.9C120.2,151.9,117.8,152.9,115.3,152.9z"/>
	</g>
	<circle class="st30" cx="37.1" cy="49.2" r="4"/>
	<circle class="st31" cx="49.1" cy="49.2" r="4"/>
	<circle class="st32" cx="61.2" cy="49.2" r="4"/>
	<g class="st1">
		<path class="st2" d="M107.5,59.5v-3.1c0-4.8,3.9-8.8,8.8-8.8h28.9c5.8,0,10.4,4.7,10.4,10.4v1.5H107.5z"/>
		<path class="st11" d="M155.2,60.6h-48c-0.8,0-1.5-0.6-1.5-1.4v-3c0-5.7,4.6-10.2,10.2-10.2h28.8c6.6,0,11.9,5.3,11.9,11.9v1.4
			C156.7,60,156,60.6,155.2,60.6z M108.7,57.8h45.2v-0.2c0-4.9-4-8.9-9-8.9H116c-4,0-7.4,3.2-7.4,7.3L108.7,57.8L108.7,57.8z"/>
	</g>
	<g class="st1">
		<path class="st2" d="M71.3,59.4c0-3.3,1.3-6.2,3.5-8.4c2.1-2.1,5.1-3.5,8.4-3.5H103c6.6,0,11.9,5.3,11.9,11.9H71.3L71.3,59.4z"/>
		<path class="st11" d="M115,60.6H71.5c-0.8,0-1.4-0.6-1.4-1.4c0-3.5,1.4-6.9,3.9-9.4s5.9-3.9,9.4-3.9h19.7c7.3,0,13.3,6,13.3,13.3
			C116.4,60,115.8,60.6,115,60.6z M72.9,57.8h40.8c-0.7-5.1-5.1-9.1-10.4-9.1h-20c-2.8,0-5.5,1.1-7.4,3.1
			C74.2,53.5,73.2,55.5,72.9,57.8z"/>
	</g>
	<path class="st31" d="M179,60.6h-23.1c-0.8,0-1.4-0.6-1.4-1.4c0-0.8,0.6-1.4,1.4-1.4H179c0.8,0,1.4,0.6,1.4,1.4
		S179.8,60.6,179,60.6z"/>
	<path class="st31" d="M71.2,60.6H23.1c-0.8,0-1.5-0.6-1.5-1.4c0-0.8,0.6-1.4,1.5-1.4h48.1c0.8,0,1.5,0.6,1.5,1.4S72,60.6,71.2,60.6
		z"/>
	<rect x="36.2" y="78.7" class="st33" width="48.7" height="44.1"/>
	<polygon class="st3" points="56.5,86.9 42.6,111 70.4,111 	"/>
	<polygon class="st3" points="69,96.3 60.5,111 77.5,111 	"/>
	<circle class="st3" cx="72.6" cy="87" r="4"/>
	<path class="st34" d="M163.4,88.9h-60.2c-0.8,0-1.5-0.6-1.5-1.4s0.6-1.4,1.5-1.4h60.2c0.8,0,1.5,0.6,1.5,1.4S164.2,88.9,163.4,88.9
		z"/>
	<path class="st34" d="M163.4,104.8h-60.2c-0.8,0-1.5-0.6-1.5-1.4s0.6-1.4,1.5-1.4h60.2c0.8,0,1.5,0.6,1.5,1.4
		C164.9,104.2,164.2,104.8,163.4,104.8z"/>
	<path class="st34" d="M163.4,120.6h-60.2c-0.8,0-1.5-0.6-1.5-1.4s0.6-1.4,1.5-1.4h60.2c0.8,0,1.5,0.6,1.5,1.4
		S164.2,120.6,163.4,120.6z"/>
</g>
<g class="st0">
	<circle class="st35" cx="99.3" cy="100.8" r="98.8"/>
	<path class="st36" d="M148.1,65.6h-1l-20-19.8l-0.4-0.6c-1.8-1.8-4.1-2.7-6.7-2.7H77.6c-5.1,0-9.2,4.2-9.2,9.2v13.9h-20
		c-1,0-1.9,0.6-2.5,1.3c-0.4,0.6-0.6,1.2-0.6,1.7v33.7l3.9,3.9V146c0,0.8,0.2,1.5,0.8,2.1l0.2,0.2l35.7,44c4.3,5.3,11,8.1,17.9,7.5
		c31.1-2.9,58.4-19.5,70-33.6c9-10.8,19-26.1,22.8-47.2c0.9-5.3,1.3-9.8-2.7-13.5l-43.3-38.9C149.9,66,149.1,65.6,148.1,65.6z"/>
	<g class="st1">
		<path class="st37" d="M151.2,102.2c-35.3,10.8-70.7,10.8-106,0V68.7c0-1.7,1.4-3.1,3.1-3.1h99.8c1.7,0,3.1,1.4,3.1,3.1V102.2z"/>
		<path class="st37" d="M49.1,108v39.3c0,1.7,1.4,3.1,3.1,3.1h92.1c1.7,0,3.1-1.4,3.1-3.1V108c-16.3,4.6-32.9,6.9-49,6.9
			C81.8,115,65.2,112.6,49.1,108z"/>
		<path class="st38" d="M98.2,104.5c-16.4,0-32.8-2.5-49.1-7.1v10c16.4,4.6,32.9,6.9,49.1,6.9c16.4,0,32.9-2.3,49.1-6.9v-10
			C131,102,114.6,104.5,98.2,104.5z"/>
		<path class="st39" d="M45.2,99.3v3.7c35.3,10.8,70.7,10.8,106,0v-3.7C115.9,110.3,80.5,110.3,45.2,99.3z"/>
		<path class="st38" d="M148.1,65.6H48.3c-1.7,0-3.1,1.4-3.1,3.1v30.1c35.3,10.8,70.7,10.8,106,0V68.7
			C151.2,67,149.8,65.6,148.1,65.6z"/>
		<ellipse class="st40" cx="98.4" cy="78.5" rx="10.2" ry="4.4"/>
		<path class="st41" d="M119.2,48.3H77.6c-1.9,0-3.5,1.4-3.5,3.2v14.2h1.9V51.4c0-0.6,0.6-1.2,1.5-1.2h41.2c0.8,0,1.5,0.6,1.5,1.2
			v14.2h1.9V51.4C122.3,49.7,120.9,48.3,119.2,48.3z"/>
		<path class="st42" d="M119.2,42.5H77.6c-5.1,0-9.2,4.2-9.2,9.2v13.9h1.9h3.8V51.4c0-1.8,1.5-3.2,3.5-3.2h41.3
			c1.9,0,3.5,1.4,3.5,3.2v14.2h3.9h1.9V51.4C128.1,46.5,124.1,42.5,119.2,42.5z"/>
	</g>
</g>
<g class="st0">
	<circle class="st43" cx="100" cy="100.5" r="98.2"/>
	<path class="st36" d="M146.8,58.2H132l-31.9-31.9l0,0c0-0.2-0.2-0.2-0.2,0.6h-0.2c-0.2-1.1-0.4-1.3-0.6-1.3l0,0
		c-0.2-0.2-0.4-0.2-0.8-0.2c-0.2,0-0.4,0-0.6,0.2l0,0C97.4,26,97.2,26,97,27h-0.2c-0.2-0.6-0.4-0.4-1.7,0v0.2c0.8,0.2,0.4,0.6,0.2,1
		c-0.2,0.4-0.6,0.8-0.8,1.5l0,0c-0.2,0.4-1.5,1.7-1.5,1.7v0.2l2.1,1.9v-0.2c-0.2,0.6-0.7,1.2-0.9,2.1l0,0c-2.6,6.2-5,14.6-5.9,22.9
		H47.9c-1.5,0-2.7,1.2-2.7,2.7v70.2h-6.2v7.1l46.3,59.2c39.3,6.5,78.5-16.4,93.2-36.9c9.4-11.2,17.2-30.4,19.7-53.1l-49.5-48.7
		C148,58.2,146.8,58.2,146.8,58.2z"/>
	<g class="st1">
		<g>
			<path class="st39" d="M146.3,58.2H47.6c-1.4,0-2.5,1.1-2.5,2.5v70.4h104.1V60.8C149,59.3,147.8,58.2,146.3,58.2z"/>
		</g>
		<g>
			<rect x="51.4" y="64.5" class="st37" width="91.6" height="60.4"/>
		</g>
		<g>
			<rect x="41" y="129" class="st44" width="114.5" height="8.3"/>
		</g>
		<g>
			<polygon class="st45" points="154.2,137.4 40.2,137.4 47.6,139.4 146.8,139.4 			"/>
		</g>
		<g>
			<rect x="91" y="133.2" class="st45" width="14.6" height="2.1"/>
		</g>
		<g>
			<g>
				<ellipse class="st46" cx="97.2" cy="78.2" rx="1.7" ry="1.2"/>
			</g>
			<g>
				<path class="st47" d="M103,62.4h-5.4h-0.2H92c0,0,6,12.1-5.2,60.6l8.5,0.2l3.5,0.2l8.7,0.4C96.4,75.1,103,62.4,103,62.4z"/>
			</g>
			<g>
				<path class="st2" d="M99.3,62l-2.1,0.2V62l-1.7-0.4c0,0,3.1,53.3-4.6,61.4l0.4,1.7l5.6,0.4l1-0.2h5.4l1.2-0.2
					C96.8,116.8,99.3,62,99.3,62z"/>
			</g>
			<g>
				<path class="st47" d="M132.2,105.1c-1.4-0.4-3-0.4-4.6,0c-5,1.2-8.4,5.6-7.4,10c0,0.2,0,0.2,0,0.4l0,0c-2.4,0.6-4.2,2-5.4,3.6
					c-0.8,1.4-1.2,3-1,4.4l9.6-2.2l19.7-4.4V96.4c-0.2,0-0.6,0-0.8,0.2C137.2,97.8,133.6,101,132.2,105.1z"/>
			</g>
			<g>
				<path class="st2" d="M126.6,114.9c-1.5-0.6-2.9-1-4.6-1c-5.4,0-9.6,3.7-9.6,8.5l0,0c1,0.8,2.1,1.7,2.7,2.5H143V109
					c-1.5-0.4-2.9-0.6-4.6-0.6C133.2,108.4,128.8,110.9,126.6,114.9z"/>
			</g>
			<g>
				<path class="st47" d="M112.4,122.4c-1.5-1-2.9-1.7-4.8-2.1c-5-1.5-10,0-13.1,2.9c-1.2-1-2.7-1.9-4.2-2.3
					c-0.8-0.2-1.7-0.4-2.5-0.4c1,1.2,1.9,2.7,2.1,4.4h16.7h8.7C114.5,124,113.4,123,112.4,122.4z"/>
			</g>
			<g>
				<path class="st2" d="M89,120.5c-1.5-1.5-3.9-2.5-6.4-2.5l0,0c0-0.2,0-0.2,0-0.4c0-4.8-4.5-8.5-9.8-8.5c-1.7,0-3.4,0.4-4.7,1
					c-2.4-3.7-7.1-6.2-12.2-6.2c-1.5,0-3,0.2-4.5,0.6v20.4h29.3h10.5C91,123.2,90.1,121.7,89,120.5z"/>
			</g>
			<g>
				<path class="st47" d="M78.9,122.6c-1.9-1.2-4.2-1.7-6.7-1l0,0c0-0.2,0-0.2,0-0.4c-1-4.6-6-7.3-11.2-6.2c-1.7,0.4-3.1,1-4.4,2.1
					c-1.5-1.5-3.1-2.5-5.2-3.1v11H81C80.5,124,79.7,123.2,78.9,122.6z"/>
			</g>
		</g>
		<g>
			<g>
				<path class="st39" d="M115.5,90.1c0.4-1.5,0.8-2.9,0.8-4.6c0.2-7.5-5.2-13.7-12.1-13.9l-0.2,9C109.5,80.7,113.9,84.7,115.5,90.1
					z"/>
			</g>
			<g>
				<path class="st39" d="M78.7,89.5C78.3,88,78,86.6,78,84.9c0.2-7.5,5.8-13.5,12.5-13.5l-0.2,9C85.1,80.3,80.5,84.1,78.7,89.5z"/>
			</g>
			<g>
				<path class="st44" d="M105.3,85.5c2.3-4.6,4-11.7,4-21c0.2-18.3-6.7-38.7-11.2-38.9c-3.7,0-12.3,20.2-12.5,38.5
					c-0.2,9.4,1,16.4,3.3,21.2L105.3,85.5z"/>
			</g>
			<g>
				<ellipse class="st48" cx="97.8" cy="49.8" rx="6" ry="6"/>
			</g>
			<g>
				<ellipse class="st49" cx="97.8" cy="49.8" rx="4.4" ry="4.4"/>
			</g>
			<g>
				<path class="st40" d="M91.6,85.3c-0.6,1-1,2.1-1,3.3c0,3.5,6.2,13.3,6.2,13.3s6.7-9.4,6.7-13.1c0-1.2-0.4-2.5-0.8-3.5H91.6z"/>
			</g>
			<g>
				<path class="st50" d="M93,85.3c-0.4,0.8-0.8,1.7-0.8,2.5c0,2.7,4.8,10,4.8,10s5-7.1,5-9.8c0-1-0.2-1.9-0.6-2.7H93z"/>
			</g>
			<g>
				<path class="st40" d="M94.7,85.3c-0.2,0.4-0.4,1-0.4,1.7c0,1.7,2.9,6,2.9,6s3.1-4.4,3.1-6c0-0.6-0.2-1-0.4-1.7H94.7z"/>
			</g>
			<g>
				<path class="st50" d="M98.2,25.6c-1.7,0-4.2,4-6.7,9.8l13.3,0.2C102.6,29.5,100.1,25.6,98.2,25.6z"/>
			</g>
			<g>
				<path class="st40" d="M104.9,35.3H91.6c-0.2,0-0.4,0.4-0.4,2.1h14.2C105.1,36.2,104.9,35.5,104.9,35.3z"/>
			</g>
		</g>
	</g>
</g>
<g>
	<circle class="st51" cx="100" cy="97.6" r="95.6"/>
	<path class="st52" d="M167.3,165.6c11.6-13,25.3-31.8,27.7-57.2l-48.9-46.2l0,0c-0.4-0.4-1.1-0.8-1.7-0.7h-90
		c-1.3,0-2.5,1.1-2.7,2.5V130H46v6.8l58,56.4C133.5,190.8,155.8,179.3,167.3,165.6z"/>
	<g>
		<path class="st39" d="M147,63.9V130H51.8V63.9c0-1.4,1.1-2.5,2.5-2.5h90.3C145.9,61.4,147,62.5,147,63.9z"/>
		<g>
			<rect x="47.9" y="130" class="st44" width="104.8" height="7.6"/>
		</g>
		<g>
			<polygon class="st45" points="151.6,137.6 47.2,137.6 54.2,139.5 144.6,139.5 			"/>
		</g>
		<g>
			<rect x="91.8" y="131.9" class="st45" width="15.2" height="1.9"/>
		</g>
		<g>
			<rect x="57.5" y="67.1" class="st37" width="83.9" height="9.5"/>
			<rect x="61.3" y="69" class="st44" width="51.5" height="3.8"/>
			<circle class="st40" cx="119.6" cy="71.8" r="2.3"/>
			<circle class="st53" cx="127.8" cy="71.8" r="2.3"/>
			<circle class="st50" cx="136" cy="71.8" r="2.3"/>
			<rect x="57.5" y="76.6" class="st2" width="83.9" height="47.6"/>
		</g>
	</g>
	<text transform="matrix(1 0 0 1 82.4575 110.9834)" class="st39 st54 st55">@</text>
</g>
<g class="st0">
	<circle class="st56" cx="100.6" cy="99.1" r="95.6"/>
	<path class="st36" d="M148.8,83.3l-17.9-17.9l-0.2,0.2l-2.8-2.8c-1-0.8-2.2-1.8-3.4-2.4l-0.6,0.8l-3-3c-1.2-0.6-2.6-1.2-3.8-1.8
		l-0.8,1.8h-0.2l-3.2-3.2c-0.8-0.2-1.6-0.4-2.6-0.6l-9.9-9.9l-4.4,8.9c-16.9,1.8-30.9,13.3-36.3,28.8l-13.7,2l11.3,11.3
		c0,0.2,0,0.6,0,0.8c0,1.2,0,2.4,0.2,3.6l3.6,3.6l-3,0.6c0.2,1.4,0.6,2.8,1,4l3.2,3.2l-1.8,0.8c0.6,1.2,1,2.6,1.8,3.8l3,3l-1,0.6
		c0.8,1.2,1.6,2.4,2.4,3.4l3,3l-0.2,0.6c0.4,0.4,0.8,0.8,1.2,1.2l-3.6,21l44.6,46c27.1-4.5,49.6-19.6,61.7-33.1
		c8.3-10.1,13.7-19.3,19.6-39.1l-37.5-38.1L148.8,83.3z"/>
	<g class="st1">
		<g>
			<path class="st2" d="M61.9,96h-4c0-23.8,19.4-43.2,43.2-43.2v4C79.6,56.7,61.9,74.4,61.9,96z"/>
		</g>
		<g>
			<path class="st2" d="M79.5,133.6c-1.2-0.6-2.4-1.4-3.6-2.2l2.4-3.2c1,0.8,2.2,1.4,3.2,2L79.5,133.6z M72.8,128.7c-1-1-2-1.8-3-3
				l3-2.8c0.8,1,1.8,1.8,2.8,2.6L72.8,128.7z M67,122.7c-0.8-1.2-1.6-2.2-2.4-3.4l3.4-2.2c0.6,1,1.4,2.2,2.2,3.2L67,122.7z
				 M62.7,115.6c-0.6-1.2-1.2-2.6-1.8-3.8l3.8-1.4c0.4,1.2,1,2.4,1.6,3.4L62.7,115.6z M59.7,108c-0.4-1.4-0.8-2.8-1-4l4-0.8
				c0.2,1.2,0.6,2.4,0.8,3.8L59.7,108z M58.1,99.6c-0.2-1.2-0.2-2.4-0.2-3.6h4c0,1.2,0,2.2,0.2,3.4L58.1,99.6z"/>
		</g>
		<g>
			<path class="st2" d="M101.2,139.2c-7.5,0-15.1-2-21.6-5.8l2-3.4c6,3.4,12.7,5.2,19.6,5.2c21.6,0,39.3-17.7,39.3-39.3h4
				C144.4,119.8,125,139.2,101.2,139.2z"/>
		</g>
		<g>
			<path class="st2" d="M144.8,96h-4c0-0.4,0-0.8,0-1.2l4-0.2C144.8,95.2,144.8,95.6,144.8,96z M140.1,91.2
				c-0.2-1.2-0.4-2.6-0.6-3.8l4-0.8c0.4,1.4,0.6,2.8,0.8,4.2L140.1,91.2z M138.5,83.8c-0.4-1.2-0.8-2.4-1.4-3.6l3.6-1.6
				c0.6,1.2,1,2.6,1.6,4L138.5,83.8z M135.3,76.9c-0.6-1-1.2-2.2-2-3.2l3.2-2.2c0.8,1.2,1.6,2.4,2.2,3.6L135.3,76.9z M131.1,70.7
				c-0.8-1-1.8-2-2.6-2.8l2.8-2.8c1,1,2,2,2.8,3L131.1,70.7z M125.6,65.4c-1-0.8-2-1.6-3-2.2l2.2-3.4c1.2,0.8,2.2,1.6,3.4,2.4
				L125.6,65.4z M119.4,61.4c-1.2-0.6-2.2-1.2-3.4-1.6l1.6-3.8c1.2,0.6,2.6,1.2,3.8,1.8L119.4,61.4z M112.3,58.4
				c-1.2-0.4-2.4-0.6-3.6-1l0.8-4c1.4,0.2,2.8,0.6,4,1L112.3,58.4z M104.9,57c-1.2-0.2-2.6-0.2-3.8-0.2v-4c1.4,0,2.8,0,4.2,0.2
				L104.9,57z"/>
		</g>
		<g>
			<polygon class="st40" points="101.2,44.2 118,78.5 155.7,83.8 128.5,110.4 134.9,148.1 101.2,130.3 67.4,148.1 74,110.4 
				46.6,83.8 84.3,78.5 			"/>
		</g>
		<g>
			<polygon class="st57" points="101.2,68.8 110.1,86.8 129.9,89.6 115.7,103.7 119,123.5 101.2,114.2 83.3,123.5 86.7,103.7 
				72.4,89.6 92.2,86.8 			"/>
		</g>
	</g>
</g>
</svg>
