<?xml version="1.0" encoding="utf-8"?>
<!-- Generator: Adobe Illustrator 22.0.1, SVG Export Plug-In . SVG Version: 6.00 Build 0)  -->
<svg version="1.1" id="Layer_1" xmlns="http://www.w3.org/2000/svg" xmlns:xlink="http://www.w3.org/1999/xlink" x="0px" y="0px"
	 viewBox="0 0 128 128" style="enable-background:new 0 0 128 128;" xml:space="preserve">
<style type="text/css">
	.st0{display:none;}
	.st1{display:inline;fill:#DEDEDE;}
	.st2{display:inline;fill:#F2F2F2;}
	.st3{display:inline;fill:#CFCFCF;}
	.st4{display:inline;fill:#ED7161;}
	.st5{display:inline;fill:#F9F9F9;}
	.st6{display:inline;fill:#E36363;}
	.st7{display:inline;fill:#333333;fill-opacity:0.102;}
	.st8{display:inline;fill:#4D4D4D;fill-opacity:0.102;}
	.st9{display:inline;}
	.st10{fill:#E6E6E5;}
	.st11{fill:none;}
	.st12{fill:#FFFFFF;}
	.st13{fill:#CDCCCC;}
	.st14{fill:#56B3E5;}
	.st15{fill:#66D5F2;}
	.st16{fill:#4EBBDD;}
	.st17{opacity:0.11;}
	.st18{stroke:#000000;stroke-miterlimit:10;}
	.st19{opacity:0.8;enable-background:new    ;}
	.st20{opacity:0.2;enable-background:new    ;}
	.st21{fill:url(#SVGID_1_);}
	.st22{fill:url(#SVGID_2_);stroke:#C9C9C9;stroke-miterlimit:10;}
	.st23{fill:url(#SVGID_3_);stroke:#C9C9C9;stroke-miterlimit:10;}
	.st24{fill:url(#SVGID_4_);stroke:#E0E0E0;stroke-miterlimit:10;}
	.st25{fill:url(#SVGID_5_);}
	.st26{fill:url(#SVGID_6_);}
	.st27{fill:url(#SVGID_7_);}
	.st28{fill:url(#SVGID_8_);}
	.st29{opacity:0.8;fill:#FFFFFF;enable-background:new    ;}
	.st30{opacity:0.15;}
	.st31{fill:#FFE36C;}
	.st32{fill:url(#SVGID_9_);}
	.st33{fill:#E5B64E;}
	.st34{opacity:0.2;fill:#FCFCFC;enable-background:new    ;}
</style>
<title></title>
<g class="st0">
	<path class="st1" d="M11.3,37.6l91.3-21.1c1,4.3,5.3,7,9.7,6l0.7,2.9h-0.1c-0.9,0.2-1.5,1.2-1.3,2.1c0.2,0.9,1.2,1.5,2.1,1.3
		c0,0,0,0,0,0c0,0,0.1,0,0.1,0l0.4,1.7c-0.1,0-0.1,0-0.1,0c-1,0.2-1.6,1.2-1.3,2.1c0,0,0,0,0,0c0.2,0.9,1.2,1.5,2.1,1.3
		c0.1,0,0.1,0,0.1,0l0.4,1.7h-0.1c-0.9,0.2-1.5,1.2-1.3,2.1s1.2,1.5,2.1,1.3c0,0,0,0,0,0c0,0,0.1,0,0.1,0l0.4,1.7
		c-0.1,0-0.1,0-0.1,0c-0.9,0.2-1.6,1.1-1.3,2.1c0.2,0.9,1.1,1.6,2.1,1.3c0,0,0,0,0,0c0,0,0.1,0,0.1,0l0.4,1.7c0,0-0.1,0-0.1,0
		c-0.9,0.2-1.5,1.1-1.3,2c0,0,0,0,0,0.1c0.2,0.9,1.1,1.5,2.1,1.3c0,0,0,0,0.1,0c0,0,0.1,0,0.1,0l0.4,1.7c-0.1,0-0.1,0-0.1,0
		c-0.9,0.2-1.6,1.1-1.3,2.1c0.2,0.9,1.1,1.6,2.1,1.3c0,0,0,0,0,0c0,0,0.1,0,0.1,0l0.4,1.7c0,0-0.1,0-0.1,0c-0.9,0.2-1.5,1.1-1.3,2
		c0,0,0,0,0,0.1c0.2,0.9,1.1,1.5,2.1,1.3c0,0,0,0,0.1,0c0,0,0.1,0,0.1,0l0.4,1.7c0,0-0.1,0-0.1,0c-0.9,0.2-1.5,1.2-1.3,2.1
		c0.2,0.9,1.2,1.5,2.1,1.3c0,0,0.1,0,0.1,0l0.7,2.9c-4.3,1-7,5.3-6,9.6c0,0,0,0,0,0L25.4,98.4c-1-4.3-5.3-7-9.7-6l-0.7-2.9
		c0.9-0.2,1.5-1.1,1.3-2.1c0,0,0,0,0-0.1c-0.2-0.9-1.2-1.5-2.1-1.3l-0.4-1.7c0.9-0.2,1.5-1.2,1.3-2.1C15,81.3,14,80.7,13.1,81
		l-0.4-1.7c0.9-0.2,1.5-1.1,1.3-2.1c0,0,0,0,0-0.1c-0.2-0.9-1.2-1.5-2.1-1.3l-0.4-1.7c0.9-0.2,1.5-1.2,1.3-2.1
		c-0.2-0.9-1.2-1.5-2.1-1.3l-0.4-1.7c0.9-0.2,1.5-1.1,1.3-2.1c0,0,0,0,0-0.1c-0.2-0.9-1.2-1.5-2.1-1.3c0,0,0,0,0,0l-0.4-1.7
		c0.9-0.2,1.5-1.2,1.3-2.1c-0.2-0.9-1.2-1.5-2.1-1.3l-0.4-1.7c0.9-0.2,1.5-1.1,1.3-2.1c0,0,0,0,0-0.1C9,55.6,8.1,55,7.1,55.2
		c0,0,0,0,0,0l-0.4-1.7c0.9-0.2,1.5-1.2,1.3-2.1c-0.2-0.9-1.2-1.5-2.1-1.3l-0.7-2.9C9.6,46.2,12.3,41.9,11.3,37.6
		C11.3,37.6,11.3,37.6,11.3,37.6z"/>
	<path class="st2" d="M20.5,44.4l76.9-17.8c0.9,4,4.9,6.4,8.9,5.5l6.8,29.5c-4,0.9-6.4,4.8-5.5,8.8c0,0,0,0,0,0L30.6,88.2
		c-0.9-4-4.9-6.4-8.9-5.5l-6.8-29.5C18.9,52.4,21.4,48.4,20.5,44.4C20.5,44.5,20.5,44.4,20.5,44.4z"/>
	<path class="st3" d="M22.2,45.6l74.1-17.1c0.9,3.7,4.7,6,8.4,5.1l6.4,27.5c-3.8,0.8-6.2,4.5-5.4,8.3L31.7,86.4
		c-0.9-3.7-4.7-6-8.4-5.1l-6.4-27.5C20.6,53,23,49.3,22.2,45.6z"/>
	<path class="st4" d="M33,5.5l90.9,43.3c-2.1,4.3-0.2,9.5,4.1,11.5c0,0,0,0,0,0l-1.4,2.9c0,0-0.1-0.1-0.1-0.1
		c-0.9-0.4-2.1,0-2.5,0.9c-0.4,0.9,0,2.1,0.9,2.5c0,0,0.1,0,0.1,0.1l-0.8,1.7c0,0-0.1,0-0.1-0.1c-0.9-0.4-2.1,0-2.5,0.9
		c-0.5,0.9-0.1,2,0.8,2.5c0,0,0,0,0,0c0.1,0,0.1,0,0.1,0.1l-0.8,1.7c-0.1,0-0.1,0-0.1-0.1c-0.9-0.4-2.1,0-2.5,0.9
		c-0.5,0.9-0.1,2,0.8,2.5c0,0,0,0,0,0c0.1,0,0.1,0,0.1,0.1l-0.8,1.7c0,0-0.1,0-0.1-0.1c-0.9-0.4-2.1,0-2.5,0.9
		c-0.4,0.9,0,2.1,0.9,2.5c0,0,0,0,0,0c0,0,0.1,0,0.1,0l-0.8,1.7c0,0-0.1,0-0.1-0.1c-0.9-0.4-2.1,0-2.5,0.9c-0.4,0.9,0,2.1,0.9,2.5
		c0,0,0.1,0,0.1,0l-0.8,1.7c0,0-0.1-0.1-0.1-0.1c-0.9-0.5-2.1-0.1-2.5,0.9c-0.5,0.9-0.1,2.1,0.9,2.5c0,0,0,0,0,0
		c0,0,0.1,0.1,0.1,0.1L112,94c0,0-0.1-0.1-0.1-0.1c-0.9-0.5-2-0.1-2.5,0.8c0,0,0,0,0,0c-0.4,0.9,0,2.1,0.9,2.5c0,0,0.1,0.1,0.1,0.1
		l-0.8,1.7c0,0-0.1-0.1-0.1-0.1c-0.9-0.5-2.1-0.1-2.5,0.9s-0.1,2.1,0.9,2.5c0,0,0.1,0,0.1,0.1l-1.3,2.9c-4.3-2.1-9.4-0.3-11.5,4
		c0,0,0,0,0,0.1L4.1,66.1c2.1-4.3,0.2-9.5-4.1-11.5c0,0,0,0,0,0l1.4-2.9c0.9,0.5,2,0.1,2.5-0.8c0,0,0,0,0,0c0.4-0.9,0-2.1-0.9-2.5
		l0.8-1.7c0.9,0.5,2,0.1,2.5-0.8c0,0,0,0,0,0c0.4-0.9,0-2.1-0.9-2.5l0.8-1.7c0.9,0.4,2.1,0,2.5-0.9c0.5-0.9,0.1-2-0.8-2.5
		c0,0,0,0,0,0l0.8-1.7c0.9,0.4,2.1,0,2.5-0.9c0.5-0.9,0.1-2-0.8-2.5c0,0,0,0,0,0l0.8-1.7c1,0.4,2.1,0,2.5-0.9c0.4-0.9,0-2-0.9-2.5
		l0.8-1.7c0.9,0.4,2.1,0,2.5-0.9c0.4-0.9,0-2.1-0.9-2.5l0,0l0.8-1.7c0.9,0.5,2.1,0.1,2.5-0.9c0.5-0.9,0.1-2.1-0.9-2.5c0,0,0,0,0,0
		l0.8-1.7c0.9,0.5,2,0.1,2.5-0.8c0,0,0,0,0,0c0.4-0.9,0-2.1-0.9-2.5l1.3-2.9C25.7,11.6,30.9,9.8,33,5.5C33,5.5,33,5.5,33,5.5z"/>
	<path class="st5" d="M36.1,17.4l76.6,36.5c-1.9,4-0.2,8.7,3.8,10.6c0,0,0,0,0,0l-14,29.3c-3.9-1.9-8.7-0.2-10.5,3.7c0,0,0,0,0,0
		L15.3,61c1.9-4,0.2-8.7-3.8-10.6c0,0,0,0,0,0l14-29.3C29.5,23,34.2,21.3,36.1,17.4C36.1,17.4,36.1,17.4,36.1,17.4z"/>
	<path class="st6" d="M36.8,19.5l73.8,35.2c-1.7,3.8-0.1,8.2,3.7,9.9c0,0,0,0,0,0l-13,27.3c-3.7-1.8-8.2-0.3-10,3.4L17.4,60.2
		c1.7-3.8,0.1-8.2-3.7-9.9c0,0,0,0,0,0l13-27.3C30.5,24.7,34.9,23.2,36.8,19.5z"/>
	<path class="st5" d="M39.5,34l58.1,27.7c1.5,0.7,2.4,2.2,1.9,3.2l0,0c-0.5,1-2.1,1.3-3.7,0.5L37.7,37.8c-1.5-0.7-2.4-2.2-1.9-3.2
		l0,0C36.3,33.5,38,33.3,39.5,34z"/>
	<path class="st5" d="M35.4,41.5l50.1,23.9c1.2,0.4,1.9,1.8,1.5,3l0,0c-0.7,1.1-2.2,1.4-3.3,0.7L33.7,45.3c-1.2-0.4-1.9-1.8-1.5-3
		l0,0C32.9,41.2,34.3,40.9,35.4,41.5z"/>
	<path class="st5" d="M31.9,49.3l52.4,25c1.4,0.7,2.1,2,1.6,3.1l0,0c-0.5,1-2,1.3-3.4,0.7L30.1,53c-1.4-0.7-2.1-2-1.6-3.1l0,0
		C29,48.9,30.5,48.6,31.9,49.3z"/>
	<polygon class="st7" points="10.3,69.1 10.7,70.7 54.4,91.7 56.8,91.2 	"/>
	<polygon class="st8" points="71.2,23.7 117.7,45.8 117.3,44.2 73.4,23.2 	"/>
</g>
<g class="st0">
	<g id="Layer_x0020_1_2_" class="st9">
		<g id="_506849648_1_">
			<rect x="26.3" y="17" class="st10" width="89.1" height="103"/>
			<rect x="15.8" y="9.7" class="st10" width="85.8" height="98.4"/>
			<rect id="_506851064_1_" x="7.4" y="7.2" class="st11" width="112.9" height="112.9"/>
			<rect id="_506850368_1_" x="7.4" y="7.2" class="st11" width="112.9" height="112.9"/>
			<polygon id="_506850296_1_" class="st12" points="97,9.7 16.9,9.7 16.9,106.1 97,106.1 97,81.7 101.6,85.3 101.6,108.6 
				101.6,111 99.3,111 14.6,111 12.3,111 12.3,108.6 12.3,7.4 12.3,5.1 14.6,5.1 99.2,5.1 101.6,5.1 101.6,7.4 101.6,73.4 97,69.8 
							"/>
			<line id="_506850536_1_" class="st11" x1="26.3" y1="82.5" x2="85.1" y2="82.5"/>
			<polygon id="_506850224_1_" class="st13" points="26.3,80.4 85.1,80.4 85.1,85 26.3,85 			"/>
			<path id="_506850680_1_" class="st12" d="M30.9,113.1v4.9h80.2V93.3l4.1,3.1c0.2,0.1,0.3,0.2,0.5,0.3v23.6v2.3h-2.4H28.7h-2.4
				v-2.4v-7.1H31H30.9z M111.1,80.6V21.3h-7.6v-4.6h9.9h2.3v2.4v65.1L111.1,80.6L111.1,80.6z"/>
			<line id="_506850584_1_" class="st11" x1="26.3" y1="96.6" x2="85.1" y2="96.6"/>
			<polygon id="_506850032_1_" class="st13" points="26.3,94.4 85.1,94.4 85.1,99 26.3,99 			"/>
			<path id="_506849456_1_" class="st14" d="M63.1,19.1c7.3,0,13.9,2.9,18.6,7.7c4.8,4.8,7.7,11.3,7.7,18.6c0,7.3-2.9,13.9-7.7,18.6
				c-4.8,4.8-11.3,7.7-18.6,7.7c-7.3,0-13.9-2.9-18.6-7.7c-4.8-4.8-7.7-11.3-7.7-18.6c0-7.3,2.9-13.9,7.7-18.6
				C49.2,22.1,55.8,19.1,63.1,19.1L63.1,19.1z M78.4,30.2c-3.9-3.9-9.3-6.3-15.3-6.3c-6,0-11.4,2.4-15.3,6.3
				c-3.9,3.9-6.3,9.3-6.3,15.3c0,6,2.4,11.4,6.3,15.3c3.9,3.9,9.3,6.3,15.3,6.3s11.4-2.4,15.3-6.3c3.9-3.9,6.3-9.3,6.3-15.3
				S82.3,34.1,78.4,30.2L78.4,30.2z"/>
			<path id="_506849912_1_" class="st14" d="M81.2,60.8c-1-0.8-2.5-0.6-3.3,0.4c-0.8,1-2.5,3.1-1.4,3.9l39,31.7c1,0.8,4-1.3,4.6-2.6
				c0.8-1,1-6.5,0-7.3l-37-27.1L81.2,60.8z"/>
			<polygon id="_506849672_1_" class="st13" points="71,33.2 71,56.8 66.4,56.8 66.4,33.2 			"/>
			<polygon id="_506850008_1_" class="st13" points="59.1,40.3 59.1,56.8 54.5,56.8 54.5,40.3 			"/>
		</g>
	</g>
</g>
<g>
	<circle class="st15" cx="64" cy="63.3" r="61.1"/>
</g>
<path class="st16" d="M42.6,103.6l25,20.7c0,0,40.8-1.3,54-40.6c2.4-7.1,4-15.5,3.3-25.3L87,29.9l-8.4-2.5L61,60v6.7v6.7L55.1,81
	l-4.2,6.7L42.6,103.6z"/>
<g>
	<g class="st17">
		<rect x="44.6" y="88.2" width="35.6" height="17"/>
		<path class="st18" d="M72.9,91.7h4.8L76,94.6l1.8,3.3c0,0-0.1,0-0.1,0h-4.8c-0.4,0-0.7-0.3-0.7-0.7v-4.8
			C72.2,92,72.5,91.7,72.9,91.7z"/>
		<path class="st18" d="M52.9,92.4v4.8c0,0.4-0.3,0.7-0.7,0.7h-4.8c0,0-0.1,0-0.1,0l1.8-3.3l-1.7-2.9h4.8
			C52.6,91.7,52.9,92,52.9,92.4z"/>
		<path class="st18" d="M51.3,90.8h22.5c0.4,0,0.7,0.3,0.7,0.7v4.8c0,0.4-0.3,0.7-0.7,0.7H51.3c-0.4,0-0.7-0.3-0.7-0.7v-4.8
			C50.6,91.1,50.9,90.8,51.3,90.8z"/>
		<path d="M91.3,34c-0.4-1.3-1.4-2.1-2.5-2.1H81c0-1.6-0.1-2.5-0.1-2.5H62.5H44c0,0-0.1,0.9-0.1,2.5h-7.9c-1.1,0-2.1,0.8-2.5,2.1
			c-1.1,3.3,1.6,16.2,6.5,21.4c1.8,1.9,3.9,3.1,6.4,3.5c0.7,0.3,1.2,0.9,1.1,1.4c-0.1,0.8-1.3,0.9-0.8,2.5c0.6,1.7,3.8,0.9,4.3-1.9
			c1.7,2.2,3.8,4.1,6.4,5.3c3.4,1.6,1.9,13.1,1.9,13.1s-6.3,0-7.3,1.7c-0.6,1-0.5,2.2-0.5,2.2s-3.5,1.3-3.5,3c0,1.7,0,2.1,0,2.1
			h14.3h14.3c0,0,0-0.4,0-2.1c0-1.7-3.5-3-3.5-3s0.1-1.2-0.5-2.2c-0.9-1.7-7.3-1.7-7.3-1.7s-1.4-11.5,1.9-13.1
			c2.6-1.2,4.7-3.1,6.4-5.3c0.5,2.8,3.7,3.6,4.3,1.9c0.5-1.5-0.7-1.7-0.8-2.5c-0.1-0.5,0.5-1.1,1.1-1.4c2.4-0.4,4.6-1.6,6.4-3.5
			C89.7,50.2,92.4,37.3,91.3,34z M36,34.9c0.8,0,5.5,0,7.9,0c0.1,5.5,1,14.3,4.3,21.4c-2.6,0-4.8-1-6.6-2.9
			C37.1,48.4,34.9,34.9,36,34.9z M83.3,53.3c-1.8,1.9-4,2.9-6.6,2.9c3.3-7.1,4.1-15.8,4.3-21.4c2.4,0,7.1,0,7.9,0
			C90.1,34.9,87.9,48.4,83.3,53.3z"/>
		<path d="M51.7,83.3c0,0-3.5,1.3-3.5,2.9c0,1.6,0,2,0,2h14.3h14.3c0,0,0-0.4,0-2c0-1.6-3.5-2.9-3.5-2.9H51.7z"/>
		<path d="M91.5,34.1c-0.4-1.3-1.4-2.1-2.5-2h-8v2.8h8c1.1,0-1,13.4-5.7,18.4c-1.8,1.9-4,2.9-6.6,2.9l-2.8,4.7
			c0.5,2.8,3.7,3.6,4.3,1.9c0.5-1.5-0.7-1.7-0.8-2.5c-0.1-0.5,0.5-1.1,1.1-1.4c2.4-0.4,4.6-1.6,6.4-3.5
			C89.8,50.2,92.5,37.3,91.5,34.1z"/>
		<path d="M33.5,34.1c0.4-1.3,1.4-2.1,2.5-2h7.9v2.8H36c-1.1,0,1,13.4,5.7,18.4c1.8,1.9,4,2.9,6.6,2.9l2.8,4.7
			c-0.5,2.8-3.7,3.6-4.3,1.9c-0.5-1.5,0.7-1.7,0.8-2.5c0.1-0.5-0.5-1.1-1.1-1.4c-2.4-0.4-4.6-1.6-6.4-3.5
			C35.2,50.2,32.5,37.3,33.5,34.1z"/>
		<path class="st19" d="M79.5,33.7C79,34.2,78.8,39,78.8,39s-0.4-4.9-0.9-5.2c-0.5-0.4-3.7-0.7-3.7-0.7s3.4-0.4,3.8-0.8
			c0.4-0.4,0.8-6.2,0.8-6.2s0.4,5.6,0.8,6.2c0.4,0.6,5.3,0.8,5.3,0.8S80.1,33.3,79.5,33.7z"/>
		<path class="st19" d="M51,59.7c-0.3,0.3-0.5,3.5-0.5,3.5s-0.2-3.2-0.6-3.5c-0.3-0.2-2.4-0.5-2.4-0.5s2.3-0.2,2.5-0.5
			c0.2-0.3,0.5-4.1,0.5-4.1s0.3,3.7,0.5,4.1c0.3,0.4,3.5,0.5,3.5,0.5S51.3,59.4,51,59.7z"/>
		<path class="st19" d="M72.6,82.8c-0.3,0.2-0.4,2.9-0.4,2.9S72,83,71.7,82.8c-0.3-0.2-2.1-0.4-2.1-0.4s1.9-0.2,2.1-0.5
			c0.2-0.2,0.4-3.5,0.4-3.5s0.2,3.1,0.4,3.5c0.2,0.3,3,0.4,3,0.4S72.9,82.6,72.6,82.8z"/>
		<path class="st19" d="M44.4,87.9c-0.2,0.2-0.3,2.1-0.3,2.1s-0.1-2-0.4-2.1c-0.2-0.1-1.5-0.3-1.5-0.3s1.4-0.2,1.6-0.3
			c0.2-0.2,0.3-2.5,0.3-2.5s0.2,2.3,0.3,2.5c0.2,0.2,2.2,0.3,2.2,0.3S44.6,87.7,44.4,87.9z"/>
		<polygon points="62.7,33.6 66.6,41.5 75.3,42.8 69,48.9 70.5,57.6 62.7,53.5 54.9,57.6 56.4,48.9 50.1,42.8 58.8,41.5 		"/>
		<polygon points="62.5,33.4 66.4,41.3 75.1,42.6 68.8,48.7 70.3,57.4 62.5,53.3 54.7,57.4 56.2,48.7 49.9,42.6 58.6,41.3 		"/>
		<path d="M52.9,29.4h-5.4c0,0-1,25.9,9.6,33.8c1,0.7,1.2,0,1.2,0S52.6,58.8,52.9,29.4z"/>
		<path d="M65.6,79.4c0,0-1.5-10.7,1.9-13.1c-5,1.5-5,1.5-10,0c3.4,2.4,1.9,13.1,1.9,13.1H65.6z"/>
		<path class="st20" d="M53.4,83.3c0,0-3.4,1.3-3.4,2.9c0,1.6,0,2,0,2h4.6c0,0,0-0.4,0-2c0-1.6,1.8-2.9,1.8-2.9H53.4z"/>
		<path class="st20" d="M58.3,79.4c0,0-3.4,0.2-3.4,1.8c0,1.7,0,2.1,0,2.1h2.7c0,0,0-0.4,0-2.1c0-1.7,1.8-1.8,1.8-1.8H58.3z"/>
		<path class="st19" d="M77.7,63.6c-0.2,0.2-0.3,2.1-0.3,2.1s-0.1-2-0.4-2.1c-0.2-0.1-1.5-0.3-1.5-0.3s1.4-0.2,1.6-0.3
			c0.2-0.2,0.3-2.5,0.3-2.5s0.2,2.3,0.3,2.5c0.2,0.2,2.2,0.3,2.2,0.3S77.9,63.4,77.7,63.6z"/>
		<path class="st19" d="M35.3,44.5c-0.2,0.2-0.3,2.1-0.3,2.1s-0.1-2-0.4-2.1c-0.2-0.1-1.5-0.3-1.5-0.3s1.4-0.2,1.6-0.3
			c0.2-0.2,0.3-2.5,0.3-2.5s0.2,2.3,0.3,2.5c0.2,0.2,2.2,0.3,2.2,0.3S35.5,44.3,35.3,44.5z"/>
	</g>
	<g>
		<g>
			<g id="Layer_2_9_">
				
					<linearGradient id="SVGID_1_" gradientUnits="userSpaceOnUse" x1="-503.5608" y1="1338.7706" x2="-503.5608" y2="1355.7694" gradientTransform="matrix(1 0 0 -1 564 1442)">
					<stop  offset="0" style="stop-color:#1C1B17"/>
					<stop  offset="1" style="stop-color:#4C4B45"/>
				</linearGradient>
				<rect x="42.6" y="86.2" class="st21" width="35.6" height="17"/>
				<g>
					
						<linearGradient id="SVGID_2_" gradientUnits="userSpaceOnUse" x1="-491.0048" y1="1346.119" x2="-491.0048" y2="1352.3165" gradientTransform="matrix(1 0 0 -1 564 1442)">
						<stop  offset="0" style="stop-color:#ADADAD"/>
						<stop  offset="1" style="stop-color:#D1D3D4"/>
					</linearGradient>
					<path class="st22" d="M70.9,89.7h4.8L74,92.6l1.8,3.3c0,0-0.1,0-0.1,0h-4.8c-0.4,0-0.7-0.3-0.7-0.7v-4.8
						C70.2,90,70.5,89.7,70.9,89.7z"/>
					
						<linearGradient id="SVGID_3_" gradientUnits="userSpaceOnUse" x1="-515.9398" y1="1346.119" x2="-515.9398" y2="1352.3165" gradientTransform="matrix(1 0 0 -1 564 1442)">
						<stop  offset="0" style="stop-color:#ADADAD"/>
						<stop  offset="1" style="stop-color:#D1D3D4"/>
					</linearGradient>
					<path class="st23" d="M50.9,90.4v4.8c0,0.4-0.3,0.7-0.7,0.7h-4.8c0,0-0.1,0-0.1,0l1.8-3.3l-1.7-2.9h4.8
						C50.6,89.7,50.9,90,50.9,90.4z"/>
				</g>
				
					<linearGradient id="SVGID_4_" gradientUnits="userSpaceOnUse" x1="-503.4723" y1="1353.2019" x2="-503.4723" y2="1347.0044" gradientTransform="matrix(1 0 0 -1 564 1442)">
					<stop  offset="0" style="stop-color:#E6E7E8"/>
					<stop  offset="1" style="stop-color:#D1D3D4"/>
				</linearGradient>
				<path class="st24" d="M49.3,88.8h22.5c0.4,0,0.7,0.3,0.7,0.7v4.8c0,0.4-0.3,0.7-0.7,0.7H49.3c-0.4,0-0.7-0.3-0.7-0.7v-4.8
					C48.6,89.1,48.9,88.8,49.3,88.8z"/>
			</g>
			<g id="Layer_5_10_">
				
					<radialGradient id="SVGID_5_" cx="-503.2465" cy="1199.2795" r="19.2593" gradientTransform="matrix(1 0 0 -1.2952 564 1591.7155)" gradientUnits="userSpaceOnUse">
					<stop  offset="0" style="stop-color:#FAD165"/>
					<stop  offset="0.4894" style="stop-color:#F9D063"/>
					<stop  offset="0.7215" style="stop-color:#F7CC5B"/>
					<stop  offset="0.8988" style="stop-color:#F4C64E"/>
					<stop  offset="1" style="stop-color:#F1C143"/>
				</radialGradient>
				<path class="st25" d="M89.3,32c-0.4-1.3-1.4-2.1-2.5-2.1H79c0-1.6-0.1-2.5-0.1-2.5H60.5H42c0,0-0.1,0.9-0.1,2.5h-7.9
					c-1.1,0-2.1,0.8-2.5,2.1c-1.1,3.3,1.6,16.2,6.5,21.4c1.8,1.9,3.9,3.1,6.4,3.5c0.7,0.3,1.2,0.9,1.1,1.4c-0.1,0.8-1.3,0.9-0.8,2.5
					c0.6,1.7,3.8,0.9,4.3-1.9c1.7,2.2,3.8,4.1,6.4,5.3c3.4,1.6,1.9,13.1,1.9,13.1s-6.3,0-7.3,1.7c-0.6,1-0.5,2.2-0.5,2.2
					s-3.5,1.3-3.5,3c0,1.7,0,2.1,0,2.1h14.3h14.3c0,0,0-0.4,0-2.1c0-1.7-3.5-3-3.5-3s0.1-1.2-0.5-2.2c-0.9-1.7-7.3-1.7-7.3-1.7
					s-1.4-11.5,1.9-13.1c2.6-1.2,4.7-3.1,6.4-5.3c0.5,2.8,3.7,3.6,4.3,1.9c0.5-1.5-0.7-1.7-0.8-2.5c-0.1-0.5,0.5-1.1,1.1-1.4
					c2.4-0.4,4.6-1.6,6.4-3.5C87.7,48.2,90.4,35.3,89.3,32z M34,32.9c0.8,0,5.5,0,7.9,0c0.1,5.5,1,14.3,4.3,21.4
					c-2.6,0-4.8-1-6.6-2.9C35.1,46.4,32.9,32.9,34,32.9z M81.3,51.3c-1.8,1.9-4,2.9-6.6,2.9c3.3-7.1,4.1-15.8,4.3-21.4
					c2.4,0,7.1,0,7.9,0C88.1,32.9,85.9,46.4,81.3,51.3z"/>
				
					<linearGradient id="SVGID_6_" gradientUnits="userSpaceOnUse" x1="-517.8151" y1="1358.2484" x2="-489.3065" y2="1358.2484" gradientTransform="matrix(1 0 0 -1 564 1442)">
					<stop  offset="0" style="stop-color:#F4C74F"/>
					<stop  offset="0.1539" style="stop-color:#F6CB58"/>
					<stop  offset="0.4439" style="stop-color:#F9D062"/>
					<stop  offset="0.8049" style="stop-color:#FAD165"/>
					<stop  offset="0.9004" style="stop-color:#F9D063"/>
					<stop  offset="0.9457" style="stop-color:#F7CC5B"/>
					<stop  offset="0.9802" style="stop-color:#F4C64E"/>
					<stop  offset="1" style="stop-color:#F1C143"/>
				</linearGradient>
				<path class="st26" d="M49.7,81.3c0,0-3.5,1.3-3.5,2.9c0,1.6,0,2,0,2h14.3h14.3c0,0,0-0.4,0-2c0-1.6-3.5-2.9-3.5-2.9H49.7z"/>
				
					<linearGradient id="SVGID_7_" gradientUnits="userSpaceOnUse" x1="-468.6376" y1="1396.1104" x2="-483.5319" y2="1396.1104" gradientTransform="matrix(1 0 0 -1 564 1442)">
					<stop  offset="0" style="stop-color:#FAD165"/>
					<stop  offset="1" style="stop-color:#E6B32F"/>
				</linearGradient>
				<path class="st27" d="M89.5,32.1c-0.4-1.3-1.4-2.1-2.5-2h-8v2.8h8c1.1,0-1,13.4-5.7,18.4c-1.8,1.9-4,2.9-6.6,2.9l-2.8,4.7
					c0.5,2.8,3.7,3.6,4.3,1.9c0.5-1.5-0.7-1.7-0.8-2.5c-0.1-0.5,0.5-1.1,1.1-1.4c2.4-0.4,4.6-1.6,6.4-3.5
					C87.8,48.2,90.5,35.3,89.5,32.1z"/>
				
					<linearGradient id="SVGID_8_" gradientUnits="userSpaceOnUse" x1="-569.7855" y1="1396.1104" x2="-584.6796" y2="1396.1104" gradientTransform="matrix(-1 0 0 -1 -544.168 1442)">
					<stop  offset="0" style="stop-color:#FAD165"/>
					<stop  offset="1" style="stop-color:#E6B32F"/>
				</linearGradient>
				<path class="st28" d="M31.5,32.1c0.4-1.3,1.4-2.1,2.5-2h7.9v2.8H34c-1.1,0,1,13.4,5.7,18.4c1.8,1.9,4,2.9,6.6,2.9l2.8,4.7
					c-0.5,2.8-3.7,3.6-4.3,1.9c-0.5-1.5,0.7-1.7,0.8-2.5c0.1-0.5-0.5-1.1-1.1-1.4c-2.4-0.4-4.6-1.6-6.4-3.5
					C33.2,48.2,30.5,35.3,31.5,32.1z"/>
				<path class="st29" d="M77.5,31.7C77,32.2,76.8,37,76.8,37s-0.4-4.9-0.9-5.2c-0.5-0.4-3.7-0.7-3.7-0.7s3.4-0.4,3.8-0.8
					c0.4-0.4,0.8-6.2,0.8-6.2s0.4,5.6,0.8,6.2c0.4,0.6,5.3,0.8,5.3,0.8S78.1,31.3,77.5,31.7z"/>
				<path class="st29" d="M49,57.7c-0.3,0.3-0.5,3.5-0.5,3.5s-0.2-3.2-0.6-3.5c-0.3-0.2-2.4-0.5-2.4-0.5s2.3-0.2,2.5-0.5
					c0.2-0.3,0.5-4.1,0.5-4.1s0.3,3.7,0.5,4.1c0.3,0.4,3.5,0.5,3.5,0.5S49.3,57.4,49,57.7z"/>
				<path class="st29" d="M70.6,80.8c-0.3,0.2-0.4,2.9-0.4,2.9S70,81,69.7,80.8c-0.3-0.2-2.1-0.4-2.1-0.4s1.9-0.2,2.1-0.5
					c0.2-0.2,0.4-3.5,0.4-3.5s0.2,3.1,0.4,3.5c0.2,0.3,3,0.4,3,0.4S70.9,80.6,70.6,80.8z"/>
				<path class="st29" d="M42.4,85.9c-0.2,0.2-0.3,2.1-0.3,2.1s-0.1-2-0.4-2.1c-0.2-0.1-1.5-0.3-1.5-0.3s1.4-0.2,1.6-0.3
					c0.2-0.2,0.3-2.5,0.3-2.5s0.2,2.3,0.3,2.5c0.2,0.2,2.2,0.3,2.2,0.3S42.6,85.7,42.4,85.9z"/>
				<g>
					<g class="st30">
						<polygon points="60.7,31.6 64.6,39.5 73.3,40.8 67,46.9 68.5,55.6 60.7,51.5 52.9,55.6 54.4,46.9 48.1,40.8 56.8,39.5 						
							"/>
					</g>
					<g>
						<polygon class="st31" points="60.5,31.4 64.4,39.3 73.1,40.6 66.8,46.7 68.3,55.4 60.5,51.3 52.7,55.4 54.2,46.7 47.9,40.6 
							56.6,39.3 						"/>
					</g>
				</g>
				
					<linearGradient id="SVGID_9_" gradientUnits="userSpaceOnUse" x1="-513.0588" y1="1380.4683" x2="-513.0588" y2="1414.5573" gradientTransform="matrix(1 0 0 -1 564 1442)">
					<stop  offset="0" style="stop-color:#FFFFFF;stop-opacity:0.1"/>
					<stop  offset="0.8529" style="stop-color:#FFFFFF;stop-opacity:0.2706"/>
					<stop  offset="1" style="stop-color:#FFFFFF;stop-opacity:0.3"/>
				</linearGradient>
				<path class="st32" d="M50.9,27.4h-5.4c0,0-1,25.9,9.6,33.8c1,0.7,1.2,0,1.2,0S50.6,56.8,50.9,27.4z"/>
				<path class="st33" d="M63.6,77.4c0,0-1.5-10.7,1.9-13.1c-5,1.5-5,1.5-10,0c3.4,2.4,1.9,13.1,1.9,13.1H63.6z"/>
				<path class="st34" d="M51.4,81.3c0,0-3.4,1.3-3.4,2.9c0,1.6,0,2,0,2h4.6c0,0,0-0.4,0-2c0-1.6,1.8-2.9,1.8-2.9H51.4z"/>
				<path class="st34" d="M56.3,77.4c0,0-3.4,0.2-3.4,1.8c0,1.7,0,2.1,0,2.1h2.7c0,0,0-0.4,0-2.1c0-1.7,1.8-1.8,1.8-1.8H56.3z"/>
				<path class="st29" d="M75.7,61.6c-0.2,0.2-0.3,2.1-0.3,2.1s-0.1-2-0.4-2.1c-0.2-0.1-1.5-0.3-1.5-0.3s1.4-0.2,1.6-0.3
					c0.2-0.2,0.3-2.5,0.3-2.5s0.2,2.3,0.3,2.5c0.2,0.2,2.2,0.3,2.2,0.3S75.9,61.4,75.7,61.6z"/>
				<path class="st29" d="M33.3,42.5c-0.2,0.2-0.3,2.1-0.3,2.1s-0.1-2-0.4-2.1c-0.2-0.1-1.5-0.3-1.5-0.3s1.4-0.2,1.6-0.3
					c0.2-0.2,0.3-2.5,0.3-2.5s0.2,2.3,0.3,2.5c0.2,0.2,2.2,0.3,2.2,0.3S33.5,42.3,33.3,42.5z"/>
			</g>
		</g>
	</g>
</g>
</svg>
