<svg xmlns="http://www.w3.org/2000/svg" viewBox="0 0 150 150"><defs><style>.a{fill:#8fdef6;}.b{fill:#fff;}.c,.d{fill:none;stroke:#8fdef6;}.c{stroke-miterlimit:10;stroke-width:3.71px;}.d{stroke-linecap:round;stroke-linejoin:round;stroke-width:5.56px;}</style></defs><path class="a" d="M32.4,82.5h82.3a4.7,4.7,0,0,1,4.8,4.8V97.7a4.7,4.7,0,0,1-4.8,4.8H32.4a4.8,4.8,0,0,1-4.8-4.8V87.3A4.8,4.8,0,0,1,32.4,82.5Z"/><path class="a" d="M32.4,110.8h82.3a4.7,4.7,0,0,1,4.8,4.8V126a4.8,4.8,0,0,1-4.8,4.8H32.4a4.9,4.9,0,0,1-4.8-4.8V115.6A4.8,4.8,0,0,1,32.4,110.8Z"/><path class="b" d="M34.1,91.6H64.5a.9.9,0,0,1,.9.9h0a.9.9,0,0,1-.9.9H34.1a.9.9,0,0,1-.9-.9h0A.9.9,0,0,1,34.1,91.6Z"/><path class="b" d="M102,91.1h0a1,1,0,0,1,.9.9h0a.9.9,0,0,1-.9,1h0a1,1,0,0,1-1-1h0A1,1,0,0,1,102,91.1Z"/><path class="b" d="M98.2,91.1h0a1,1,0,0,1,.9.9h0a.9.9,0,0,1-.9,1h0a1,1,0,0,1-.9-1h0A1,1,0,0,1,98.2,91.1Z"/><path class="b" d="M105.6,91.1h0a1,1,0,0,1,1,.9h0a.9.9,0,0,1-.9,1h0a1,1,0,0,1-1-1h0A1,1,0,0,1,105.6,91.1Z"/><path class="b" d="M34.1,119.7H64.5a1,1,0,0,1,.9,1h0a.9.9,0,0,1-.9.9H34.1a.9.9,0,0,1-.9-.9h0A1,1,0,0,1,34.1,119.7Z"/><path class="b" d="M102,119.3h0a.9.9,0,0,1,.9.9h0a.9.9,0,0,1-.9.9h0a.9.9,0,0,1-1-.9h0A.9.9,0,0,1,102,119.3Z"/><path class="b" d="M98.2,119.3h0a.9.9,0,0,1,.9.9h0a.9.9,0,0,1-.9.9h0a.9.9,0,0,1-.9-.9h0A.9.9,0,0,1,98.2,119.3Z"/><path class="b" d="M105.6,119.3h0a.9.9,0,0,1,1,.9h0a.9.9,0,0,1-.9.9h0a.9.9,0,0,1-1-.9h0A.9.9,0,0,1,105.6,119.3Z"/><line class="c" x1="77.3" y1="63.3" x2="77.3" y2="141.5"/><line class="d" x1="23.2" y1="142.6" x2="129.9" y2="142.6"/><path class="a" d="M100.5,8.3a24.7,24.7,0,0,1,7.5,11,24.6,24.6,0,0,1,1,4.7c0,1,.5,1.2,1.2,1.3a23.6,23.6,0,0,1,1.2,46.6,37.3,37.3,0,0,1-4.8.4H45.1a23.1,23.1,0,0,1-13.3-3.7h-.1c0-.2-.1-.2-.3-.2h.1c-.1-.2-.2-.3-.4-.3l-2.2-2.1C23.2,60,21.5,52.9,24.2,45s8.7-12.3,16.9-13.5c.7-.1,1-.2,1-1a17.7,17.7,0,0,1,23-17.8c.8.2,1.2.2,1.7-.5A23.6,23.6,0,0,1,99,7.2l.9.5c0,.2.2.3.4.3h-.1l.3.3Z"/></svg>