<svg xmlns="http://www.w3.org/2000/svg" viewBox="0 0 150 150"><defs><style>.a,.c{fill:#f3fff7;}.a,.d{stroke:#4bd6c0;stroke-miterlimit:10;}.a{stroke-width:0.88px;}.b{fill:#4bd6c0;}.d{fill:none;stroke-width:2.95px;}</style></defs><path class="a" d="M7.7,28.9H141.5a3.3,3.3,0,0,1,3.3,3.3v86.1a3.3,3.3,0,0,1-3.3,3.3H7.7a3.3,3.3,0,0,1-3.3-3.3V32.2A3.3,3.3,0,0,1,7.7,28.9Z"/><path class="b" d="M7.7,29.4H141.5a3,3,0,0,1,3,3v9.3a2.9,2.9,0,0,1-3,3H7.7a2.9,2.9,0,0,1-3-3V32.4A3,3,0,0,1,7.7,29.4Z"/><path class="c" d="M97.5,35.5h39.2a1.8,1.8,0,0,1,1.7,1.7h0a1.8,1.8,0,0,1-1.7,1.8H97.5a1.8,1.8,0,0,1-1.8-1.8h0A1.8,1.8,0,0,1,97.5,35.5Z"/><circle class="c" cx="29.6" cy="38" r="2.2"/><circle class="c" cx="16.9" cy="38" r="2.2"/><circle class="c" cx="43.6" cy="38" r="2.2"/><path class="b" d="M52.5,77H88.4A5.6,5.6,0,0,1,94,82.6v27.6a5.5,5.5,0,0,1-5.6,5.5H52.5a5.5,5.5,0,0,1-5.6-5.5V82.6A5.6,5.6,0,0,1,52.5,77Z"/><path class="d" d="M69.8,57.6h0A13.7,13.7,0,0,1,83.4,71.3V89.6a13.6,13.6,0,0,1-13.6,13.6h0A13.6,13.6,0,0,1,56.2,89.6V71.3A13.7,13.7,0,0,1,69.8,57.6Z"/><path class="c" d="M73.5,92.2a3.6,3.6,0,1,0-7.2,0,3.8,3.8,0,0,0,1.5,3l1.3,7.8a1.1,1.1,0,0,0,.9.8h0a.9.9,0,0,0,.8-.8L72,95.1A3.5,3.5,0,0,0,73.5,92.2Z"/></svg>