<svg version="1.1" id="Layer_1" xmlns="http://www.w3.org/2000/svg" x="0" y="0" viewBox="0 0 500 500" style="enable-background:new 0 0 500 500" xml:space="preserve"><style>.st1,.st2,.st3{fill:#1f8ac0}.st2,.st3{opacity:.5;enable-background:new}.st3{fill:#ef4d4d}.st4{fill:#96d7ff}.st8{opacity:.5}.st9{fill:#fff}.st11{fill:#6d6daa}.st12{fill:#0f4d92}.st13{fill:#104c91}.st14{opacity:.29}.st15{fill:#eef6ff}.st16{opacity:.3;fill:#5cbeff;enable-background:new}.st17{fill:#124b90}</style><g style="opacity:.2"><path class="st1" d="M73.6 172.3c-19.4 33.8-15.7 76.1 9.3 106 8.6 10.4 13.6 23.4 14 36.8 2.2 63.2 55.5 112.7 118.7 110.4 24.5-.9 47.9-9.5 67.2-24.8 14.6-11.7 33.6-16.3 51.9-12.6 48.7 9.7 103.2-23.2 106.1-92 0-8.4-2.1-16.7-6.1-24.1-6.8-14.3-8.1-30.5-3.6-45.7 13.5-46.8-13.7-95.7-60.5-109.2-3.4-1-6.7-1.7-10.2-2.2-24-3.9-45.6-17-62.4-34.5-34.5-35.7-91.3-36.7-127-2.4-7.5 7.2-13.6 15.6-18.2 24.9-7 13.5-18.8 23.8-32.9 29.1-19.6 7.9-35.9 22.1-46.3 40.3z"/><circle class="st1" cx="409.1" cy="392" r="14"/><path class="st2" d="M409.1 386.4c6.2 0 11.6 4 13.4 10 .4-1.3.7-2.8.7-4.3 0-7.7-6.3-14-14-14s-14 6.3-14 14c0 1.5.2 2.9.7 4.3 1.6-5.9 7-10 13.2-10z"/><path class="st1" d="M409.1 409.3c-9.5 0-17.2-7.7-17.2-17.2s7.7-17.2 17.2-17.2c9.4 0 17.2 7.7 17.2 17.2s-7.8 17.2-17.2 17.2zm0-28.2c-6.1 0-11 4.9-11 11s4.9 11 11 11 11-4.9 11-11c-.1-6-4.9-11-11-11z"/><circle class="st1" cx="114.9" cy="82.2" r="11"/><path class="st2" d="M114.9 77.8c4.8 0 9 3.1 10.4 7.7.3-1.1.6-2.2.6-3.4 0-6.1-4.9-11-11-11s-11 4.9-11 11c0 1.1.2 2.2.6 3.4 1.4-4.5 5.6-7.7 10.4-7.7z"/><path class="st1" d="M114.9 96.4c-7.7 0-14-6.3-14-14s6.3-14 14-14 14 6.3 14 14c0 7.6-6.3 14-14 14zm0-21.9c-4.3 0-7.9 3.5-7.9 7.9 0 4.3 3.5 7.9 7.9 7.9 4.3 0 7.9-3.5 7.9-7.9 0-4.5-3.6-7.9-7.9-7.9z"/></g><path class="st3" d="M99.2 381.6c1.7 5.5 6.1 9.9 11.6 11.6 5.7 1.9 5.7 3.8 0 5.7-5.5 1.7-9.9 6.1-11.6 11.6-1.9 5.7-3.8 5.7-5.7 0-1.7-5.5-6.1-9.9-11.6-11.6-5.7-1.9-5.7-3.8 0-5.7 5.5-1.7 9.9-6.1 11.6-11.6 1.7-5.9 3.7-5.9 5.7 0z"/><path class="st4" d="M353.1 269.3c1.1 3.7 4 6.6 7.7 7.7 3.8 1.2 3.8 2.6 0 3.8-3.7 1.1-6.6 4-7.7 7.7-1.2 3.8-2.6 3.8-3.8 0-1.1-3.7-4-6.6-7.7-7.7-3.8-1.2-3.8-2.6 0-3.8 3.7-1.1 6.6-4 7.7-7.7 1.2-3.9 2.5-3.9 3.8 0zM460.7 141.4c1.5 4.6 5.1 8.2 9.7 9.7 4.8 1.6 4.8 3.3 0 4.8-4.6 1.5-8.2 5.1-9.7 9.7-1.6 4.8-3.3 4.8-4.8 0-1.5-4.6-5.1-8.2-9.7-9.7-4.8-1.6-4.8-3.3 0-4.8 4.6-1.5 8.2-5.1 9.7-9.7 1.5-4.8 3.2-4.8 4.8 0z"/><path class="st3" d="M352.9 28.2c1.1 3.7 4 6.6 7.7 7.7 3.8 1.2 3.8 2.6 0 3.8-3.7 1.1-6.6 4-7.7 7.7-1.2 3.8-2.6 3.8-3.8 0-1.1-3.7-4-6.6-7.7-7.7-3.8-1.2-3.8-2.6 0-3.8 3.7-1.1 6.6-4 7.7-7.7 1.2-3.9 2.4-3.9 3.8 0z"/><circle cx="247.9" cy="243.5" r="131.5" style="fill:#c7e9ff"/><path d="M340.8 150.5c-18.9-18.9-43-31.6-69.3-36.4 64.2 18.8 101.1 86 82.3 150.3s-86 101.1-150.3 82.3c-49.4-14.5-84.3-58.5-87-109.9-3.7 72.5 52.1 134.3 124.6 138s134.3-52.1 138-124.6c1.9-37.3-12-73.4-38.3-99.7z" style="opacity:.16;fill:#1f8ac0;enable-background:new"/><circle cx="219.6" cy="215.1" r="78.2" style="opacity:.5;fill:#fff;enable-background:new"/><g class="st8"><path class="st9" d="M432.6 298.4c-.3 0-.8-.1-1.1-.2s-.7-.3-.9-.6c-.6-.6-.8-1.2-.8-2 0-.3.1-.8.2-1.1.1-.3.3-.7.6-.9.2-.2.6-.4.9-.6 1.1-.4 2.4-.2 3.1.6.2.2.4.6.6.9.1.3.2.7.2 1.1 0 1.5-1.2 2.8-2.8 2.8zM422.7 309.8h-29.5c-1.6 0-2.9-1.2-2.9-2.9s1.2-2.9 2.9-2.9h29.5c1.6 0 2.9 1.2 2.9 2.9s-1.3 2.9-2.9 2.9zM412.9 298.4h-34.4c-1.6 0-2.9-1.2-2.9-2.9s1.2-2.9 2.9-2.9h34.4c1.6 0 2.9 1.2 2.9 2.9s-1.3 2.9-2.9 2.9zM373.5 309.8h-9.8c-1.6 0-2.9-1.2-2.9-2.9s1.2-2.9 2.9-2.9h9.9c1.6 0 2.9 1.2 2.9 2.9s-1.4 2.9-3 2.9zM412.9 321.4h-39.3c-1.6 0-2.9-1.2-2.9-2.9s1.2-2.9 2.9-2.9h39.3c1.6 0 2.9 1.2 2.9 2.9s-1.3 2.9-2.9 2.9z"/></g><g style="opacity:.3"><path class="st11" d="M247.9 378c-27.8 0-49.5-59.1-49.5-134.5S220.2 109 247.9 109s49.6 59.1 49.6 134.5S275.7 378 247.9 378zm0-262.9c-23.5 0-43.3 58.7-43.3 128.4s19.9 128.4 43.3 128.4 43.3-58.7 43.3-128.4-19.8-128.4-43.3-128.4z"/><path class="st11" d="M247.9 378c-51.8 0-93.9-60.4-93.9-134.5S196.1 109 247.9 109s93.9 60.4 93.9 134.5S299.7 378 247.9 378zm0-262.9c-48.3 0-87.6 57.6-87.6 128.4s39.3 128.4 87.6 128.4 87.6-57.6 87.6-128.4-39.2-128.4-87.6-128.4z"/><path class="st11" d="M247.9 378c-1.7 0-3.1-1.3-3.1-3.1V112c0-1.7 1.3-3.1 3.1-3.1s3.1 1.3 3.1 3.1v262.9c0 1.7-1.3 3.1-3.1 3.1z"/><path class="st11" d="M331.5 347.7c-.6 0-1.1-.1-1.7-.4-20-12.2-50-19.3-82-19.3s-62 7.1-82 19.3c-1.5.9-3.4.4-4.3-1-.9-1.5-.4-3.4 1-4.3 21-12.9 52.1-20.2 85.2-20.2s64.2 7.4 85.2 20.2c1.5.9 1.9 2.8 1 4.3-.3.8-1.3 1.4-2.4 1.4zM362.8 307c-.4 0-.9-.1-1.2-.2-27.8-12.4-69.2-19.5-113.6-19.5s-85.9 7.1-113.6 19.5c-1.6.7-3.5 0-4.2-1.6-.7-1.6 0-3.4 1.6-4.2 28.5-12.7 71-20.1 116.2-20.1s87.6 7.3 116.2 20.1c1.6.7 2.2 2.6 1.6 4.2-.6 1-1.7 1.8-3 1.8zM247.9 166.2c-33.2 0-64.2-7.4-85.2-20.2-1.5-.9-1.9-2.8-1-4.3s2.8-1.9 4.3-1c20 12.2 50 19.3 82 19.3s62-7.1 82-19.3c1.5-.9 3.4-.4 4.3 1 .9 1.5.4 3.4-1 4.3-21.1 12.8-52.2 20.2-85.4 20.2zM247.9 206.9c-45.3 0-87.6-7.3-116.2-20.1-1.6-.7-2.2-2.6-1.6-4.2.7-1.6 2.6-2.2 4.2-1.6 27.8 12.4 69.2 19.5 113.6 19.5s85.9-7.1 113.6-19.5c1.6-.7 3.5 0 4.2 1.6.7 1.6 0 3.5-1.6 4.2-28.5 12.8-70.9 20.1-116.2 20.1z"/></g><g class="st8"><path class="st9" d="M104.6 215.3c-1.6 0-2.8-1.2-2.9-2.9 0-.2 0-.3.1-.6 0-.2.1-.3.2-.6.1-.2.1-.3.2-.4.1-.1.2-.3.3-.4.7-.7 1.7-1 2.6-.8.2 0 .3.1.6.2s.3.1.4.2c.1.1.3.2.4.3.1.1.2.3.3.4.1.1.2.3.3.4.1.2.1.3.1.6 0 .2.1.3.1.6 0 .8-.3 1.5-.8 2-.1.1-.2.2-.4.3-.1.1-.3.2-.4.2-.2.1-.3.1-.6.2-.1.3-.3.3-.5.3zM107.5 203.8h-5.7c-1.6 0-2.9-1.2-2.9-2.9s1.2-2.9 2.9-2.9h5.7c1.6 0 2.9 1.2 2.9 2.9s-1.3 2.9-2.9 2.9zM116 192.4H87.4c-1.6 0-2.9-1.2-2.9-2.9s1.2-2.9 2.9-2.9H116c1.6 0 2.9 1.2 2.9 2.9s-1.3 2.9-2.9 2.9zM90.2 203.8H78.7c-1.6 0-2.9-1.2-2.9-2.9 0-1.6 1.2-2.9 2.9-2.9h11.5c1.6 0 2.9 1.2 2.9 2.9 0 1.6-1.2 2.9-2.9 2.9zM93.1 215.3H70.2c-1.6 0-2.9-1.2-2.9-2.9 0-1.6 1.2-2.9 2.9-2.9h22.9c1.6 0 2.9 1.2 2.9 2.9-.1 1.6-1.3 2.9-2.9 2.9z"/></g><path class="st12" d="M247.9 378c-74.3 0-134.5-60.3-134.5-134.5S173.7 109 247.9 109s134.5 60.3 134.5 134.5S322.2 377.9 247.9 378zm0-262.9c-70.9 0-128.4 57.5-128.4 128.4S177 371.8 247.9 371.8s128.4-57.5 128.4-128.4c-.2-70.8-57.6-128.2-128.4-128.3z"/><path class="st13" d="M75.8 246.5c-1.7 0-3.1-1.3-3.1-3.1-.1-45.1 17.3-88.5 48.5-121.1 1.2-1.2 3.1-1.3 4.4-.1 1.2 1.2 1.3 3.1.1 4.4-30.1 31.4-47 73.2-46.8 116.7 0 1.8-1.4 3.2-3.1 3.2z"/><g class="st8"><path class="st9" d="M183.5 382.8h-2.9c-1.6 0-2.9-1.2-2.9-2.9s1.2-2.9 2.9-2.9h2.9c1.6 0 2.9 1.2 2.9 2.9s-1.3 2.9-2.9 2.9zM183.5 402.8h-2.9c-1.6 0-2.9-1.2-2.9-2.9s1.2-2.9 2.9-2.9h2.9c1.6 0 2.9 1.2 2.9 2.9s-1.3 2.9-2.9 2.9zM195 402.8h-3c-1.6 0-2.9-1.2-2.9-2.9s1.2-2.9 2.9-2.9h2.9c1.6 0 2.9 1.2 2.9 2.9.1 1.7-1.3 2.9-2.8 2.9zM206.4 402.8h-2.9c-1.6 0-2.9-1.2-2.9-2.9s1.2-2.9 2.9-2.9h2.9c1.6 0 2.9 1.2 2.9 2.9s-1.3 2.9-2.9 2.9zM206.4 382.8H192c-1.6 0-2.9-1.2-2.9-2.9s1.2-2.9 2.9-2.9h14.4c1.6 0 2.9 1.2 2.9 2.9s-1.3 2.9-2.9 2.9zM195 391.4h-14.4c-1.6 0-2.9-1.2-2.9-2.9s1.2-2.9 2.9-2.9H195c1.6 0 2.9 1.2 2.9 2.9s-1.4 2.9-2.9 2.9z"/></g><path class="st13" d="M247.9 418.6c-45.1.1-88.5-17.3-121.1-48.5-1.2-1.2-1.2-3.1-.1-4.4 1.2-1.2 3.1-1.2 4.4-.1 31.4 30.1 73.2 46.9 116.8 46.8 1.7 0 3.1 1.3 3.1 3.1s-1.3 3.1-3.1 3.1zM366.9 122.1c-.8 0-1.6-.3-2.1-.9-31.5-30.1-73.3-47-116.8-46.9-1.7 0-3.1-1.3-3.1-3.1 0-1.7 1.3-3.1 3.1-3.1 45.1-.1 88.5 17.3 121.1 48.5 1.2 1.2 1.3 3.1.1 4.4-.7.7-1.5 1.1-2.3 1.1zM125.8 146.4c-1.7 0-3.1-1.3-3.1-3.1v-18.8h-18.8c-1.7 0-3.1-1.3-3.1-3.1s1.3-3.1 3.1-3.1h21.9c1.7 0 3.1 1.3 3.1 3.1v21.9c0 1.7-1.3 3.1-3.1 3.1zM391.9 368.6H370c-1.7 0-3.1-1.3-3.1-3.1v-21.9c0-1.7 1.3-3.1 3.1-3.1s3.1 1.3 3.1 3.1v18.8h18.8c1.7 0 3.1 1.3 3.1 3.1s-1.4 3.1-3.1 3.1z"/><path class="st13" d="M125.8 390.6c-1.7 0-3.1-1.3-3.1-3.1v-21.9c0-1.7 1.3-3.1 3.1-3.1h21.9c1.7 0 3.1 1.3 3.1 3.1s-1.3 3.1-3.1 3.1h-18.8v18.8c0 1.6-1.3 3.1-3.1 3.1zM369.9 124.4H348c-1.7 0-3.1-1.3-3.1-3.1s1.3-3.1 3.1-3.1h18.8V99.4c0-1.7 1.3-3.1 3.1-3.1s3.1 1.3 3.1 3.1v21.9c.1 1.8-1.3 3.1-3.1 3.1zM115.1 356.1c-.9 0-1.8-.4-2.5-1.1-2-2.5-4-4.9-5.8-7.5-1-1.3-.8-3.4.7-4.4 1.5-1 3.4-.8 4.4.7 1.8 2.5 3.7 4.9 5.7 7.3 1.1 1.3.9 3.3-.4 4.4-.6.4-1.4.6-2.1.6zM99 333c-1.1 0-2.1-.6-2.7-1.6-1.6-2.7-3.1-5.6-4.6-8.4-.8-1.6-.2-3.4 1.3-4.2 1.6-.8 3.4-.2 4.2 1.3 1.3 2.7 2.9 5.5 4.4 8.1.9 1.5.3 3.4-1.1 4.3-.4.3-1 .5-1.5.5zm-12.1-25.4c-1.3 0-2.5-.8-2.9-2-1.1-2.9-2.1-6-3.1-9-.6-1.7.4-3.4 2-3.9 1.7-.6 3.4.3 3.9 2 .9 2.9 1.9 5.8 3 8.8.6 1.6-.2 3.5-1.8 4-.4.1-.7.1-1.1.1zm-7.8-27.1c-1.5 0-2.8-1-3-2.5-.7-3.1-1.1-6.3-1.6-9.4-.2-1.7.9-3.3 2.7-3.6 1.7-.2 3.3.9 3.5 2.7.4 3 1 6.1 1.6 9.1.3 1.7-.8 3.4-2.5 3.7h-.7zm-3.3-27.9c-1.7 0-3-1.3-3.1-3-.1-2-.1-4.2-.1-6.2.1-1.7 1.5-3 3.1-3.1 1.7 0 3.1 1.5 3.1 3.1 0 2 0 3.9.1 6 .1 1.7-1.2 3.1-3 3.3h-.1zM247.9 418.6c-1.7 0-3.1-1.3-3.1-3.1s1.3-3.1 3.1-3.1h3.7c1.7 0 3.1 1.3 3.1 3s-1.3 3.1-3 3.1c-1.3.1-2.5.1-3.8.1zm22.4-1.4c-1.7 0-3.1-1.5-3.1-3.1s1.1-2.9 2.7-3.1c3-.4 6.1-.9 9.1-1.5 1.7-.3 3.4.8 3.7 2.5.3 1.7-.8 3.4-2.5 3.7-3.1.6-6.3 1.1-9.4 1.5h-.5zm27.5-5.9c-1.7 0-3.1-1.3-3.1-3.1 0-1.3.9-2.6 2.2-3 2.9-.9 5.8-1.9 8.8-2.9 1.6-.6 3.4.2 4 1.9.6 1.6-.2 3.4-1.9 4-3 1.1-6.1 2.1-9.1 3-.2 0-.5.1-.9.1zM324 401c-1.7 0-3.1-1.3-3.1-3.1 0-1.2.7-2.2 1.8-2.8 2.7-1.3 5.5-2.8 8.2-4.3 1.5-.9 3.4-.3 4.3 1.2.9 1.6.3 3.4-1.2 4.3-2.8 1.6-5.6 3-8.4 4.5-.6.1-1 .2-1.6.2zm24.1-14.5c-1.7 0-3.1-1.3-3.1-3.1 0-1 .4-1.9 1.3-2.6 2.5-1.8 4.9-3.7 7.3-5.6 1.3-1.1 3.4-.9 4.4.4 1.1 1.3.9 3.3-.4 4.4-2.5 2-5.1 3.9-7.6 5.8-.5.5-1.2.7-1.9.7zM420 246.5c-1.7 0-3.1-1.5-3.1-3.1 0-2 0-3.9-.1-6-.1-1.7 1.2-3.1 3-3.3 1.7-.1 3.1 1.2 3.3 3 .1 2 .1 4.2.1 6.2-.1 1.8-1.4 3.2-3.2 3.2zm-1.7-24.7c-1.6 0-2.9-1.1-3.1-2.7-.4-3-1-6.1-1.6-9.1-.3-1.7.8-3.4 2.5-3.7 1.7-.3 3.4.8 3.7 2.5.7 3.1 1.1 6.3 1.6 9.4.2 1.7-.9 3.3-2.7 3.6h-.4zm-6.3-27.4c-1.3 0-2.6-.9-3-2.1-.9-2.9-1.9-5.8-3-8.8-.6-1.6.2-3.4 1.8-4 1.6-.6 3.4.2 4 1.8 1.1 2.9 2.1 6 3.1 9 .6 1.7-.3 3.4-2 3.9-.3.1-.6.2-.9.2zm-10.6-26.1c-1.1 0-2.2-.7-2.8-1.7-1.3-2.7-2.9-5.5-4.4-8.1-.9-1.5-.3-3.4 1.1-4.3 1.5-.9 3.4-.3 4.3 1.1 1.6 2.7 3.1 5.6 4.6 8.4.8 1.6.2 3.4-1.3 4.2-.6.3-1.1.4-1.5.4zm-14.9-23.9c-1 0-1.9-.4-2.5-1.2-1.8-2.5-3.7-4.9-5.7-7.3-1.1-1.3-.9-3.3.4-4.4 1.3-1.1 3.3-.9 4.4.4 2 2.5 4 4.9 5.8 7.5 1 1.3.8 3.4-.7 4.4-.4.4-1 .6-1.7.6zM140.2 112.3c-1.7 0-3.1-1.3-3.1-3.1 0-.9.4-1.8 1.1-2.5 2.5-2 5.1-3.9 7.6-5.8 1.5-1 3.4-.7 4.4.7 1 1.5.7 3.4-.7 4.4-2.5 1.8-4.9 3.7-7.3 5.6-.6.4-1.4.7-2 .7zm23.3-15.8c-1.7 0-3.1-1.3-3.1-3.1 0-1.1.6-2.1 1.6-2.7 2.8-1.6 5.6-3 8.4-4.5 1.6-.8 3.5-.1 4.2 1.5.8 1.6.1 3.5-1.5 4.2-2.7 1.3-5.5 2.8-8.2 4.3-.4.2-.9.3-1.4.3zM189 84.8c-1.7 0-3.1-1.3-3.1-3.1 0-1.3.8-2.5 2-2.9 3-1.1 6.1-2.1 9.1-3 1.7-.4 3.4.4 3.9 2.1.4 1.7-.4 3.4-2.1 3.9-2.9.9-5.8 1.9-8.8 2.9-.2 0-.5.1-1 .1zm27.2-7.4c-1.7 0-3.1-1.3-3.1-3.1 0-1.5 1.1-2.8 2.6-3 3.1-.6 6.3-1.1 9.4-1.5 1.7-.2 3.3 1 3.5 2.7.2 1.7-1 3.3-2.7 3.5-3 .4-6.1.9-9.1 1.5-.2-.2-.4-.1-.6-.1zm28-2.9c-1.7 0-3.1-1.3-3.1-3.1 0-1.7 1.3-3.1 3-3.1h3.8c1.7 0 3.1 1.3 3.1 3.1 0 1.7-1.3 3.1-3.1 3.1h-3.7z"/><path class="st13" d="M373.1 364.7c-1.7 0-3.1-1.3-3.1-3.1 0-.8.3-1.6.9-2.1 29.6-31.3 46.2-72.9 46-116 0-1.7 1.3-3.1 3.1-3.1s3.1 1.3 3.1 3.1c.1 44.7-17.1 87.8-47.8 120.3-.6.5-1.3.9-2.2.9z"/><g class="st14"><path class="st15" d="M476.9 221.7c1.6-14.3-8.8-27-23-28.5-11.7-1.2-22.8 5.6-27 16.6-6-4.7-14.7-3.7-19.4 2.2-1.9 2.5-2.9 5.4-3 8.5 0 .4 0 .8.1 1.1-10.8 3.7-16.5 15.5-12.8 26.3 2.9 8.3 10.8 13.9 19.7 13.9h58.7c11.3.1 20.7-9.1 20.8-20.5 0-8.8-5.8-16.8-14.1-19.6z"/><path class="st16" d="M470.1 254.9h-58.7c-10.1 0-18.8-7.3-20.4-17.3-1.9 11.2 5.6 21.9 16.8 23.8 1.2.2 2.5.3 3.6.3h58.7c11.3.1 20.7-9.1 20.8-20.5 0-1.2-.1-2.5-.3-3.6-1.8 10-10.3 17.3-20.5 17.3z"/><path class="st9" d="M404.5 228.6c0-.3-.1-.8-.1-1.1 0-7.6 6.3-13.8 13.9-13.8 3.1 0 6.1 1 8.5 3 4.9-13.4 19.9-20.2 33.2-15.3 11.2 4.2 18.1 15.4 16.7 27.2 7.2 2.5 12.4 8.5 13.7 16.1 1.7-10-4-19.8-13.7-22.9 1.6-14.3-8.8-27-23-28.5-11.7-1.2-22.8 5.6-27 16.6-6-4.7-14.7-3.7-19.4 2.2-1.9 2.5-2.9 5.4-3 8.5 0 .4 0 .8.1 1.1-9.5 3.3-15.3 12.9-13.6 22.9 1.5-7.4 6.6-13.5 13.7-16z"/><path class="st11" d="M470.1 264.7h-58.7c-13 .1-23.6-10.4-23.6-23.4 0-9.3 5.4-17.7 13.8-21.6.4-9.2 8.3-16.3 17.5-15.8 2.2.1 4.5.7 6.5 1.7 7.4-14 24.7-19.5 38.9-12.1 9.4 4.9 15.4 14.7 15.5 25.4v1c11.8 5.3 17.1 19.2 11.8 31.1-4 8.3-12.4 13.7-21.7 13.7zm-51.8-55c-6.1 0-10.9 4.8-11 10.9v.9c.1 1.3-.7 2.5-1.9 2.9-9.3 3.3-14.1 13.4-11 22.6 2.5 7.2 9.3 12 16.8 12H470c9.8.1 17.9-7.9 17.9-17.6 0-7.6-4.8-14.5-12-17-1.2-.4-2-1.7-1.9-3 1.3-12.7-7.9-24-20.4-25.4-10.4-1.1-20.3 4.9-24 14.7-.6 1.5-2.2 2.2-3.7 1.7-.2-.1-.6-.2-.8-.4-2-1.6-4.3-2.3-6.8-2.3z"/><path class="st11" d="M476.9 224.5c-.3 0-.7 0-.9-.1-1.9-.7-3.8-1-5.8-1-1.6 0-2.9-1.2-2.9-2.9 0-1.6 1.2-2.9 2.9-2.9 2.6 0 5.3.4 7.7 1.3 1.5.6 2.2 2.1 1.8 3.6-.4 1.3-1.5 2-2.8 2zM404.5 224.6c-1.6 0-2.9-1.2-2.9-2.9 0-1.2.8-2.4 1.9-2.7 2.5-.9 5.2-1.3 7.7-1.3 1.6 0 2.9 1.2 2.9 2.9 0 1.6-1.2 2.9-2.9 2.9-2 0-4 .3-6 1 0 0-.4.1-.7.1zM430.6 217c-1 0-2-.6-2.6-1.6-.8-1.3-1.8-2.6-3-3.6s-1.5-2.8-.4-4 2.8-1.5 4-.6c1.9 1.5 3.5 3.3 4.5 5.4.8 1.3.2 3.1-1.2 3.8-.4.4-.9.6-1.3.6z"/></g><g class="st14"><path class="st15" d="M287.7 57.2c1.3-12.2-7.5-23.1-19.8-24.5-10.1-1.1-19.5 4.8-23.1 14.3-5.2-4-12.6-3.3-16.6 1.9-1.7 2.1-2.6 4.6-2.6 7.3v1c-9.2 3.1-14.1 13.3-10.9 22.5 2.5 7.2 9.2 11.9 16.8 11.9H282c9.8 0 17.7-7.9 17.7-17.6.1-7.5-4.7-14.4-12-16.8z"/><path class="st16" d="M282 85.7h-50.4c-8.6 0-16.1-6.3-17.5-14.8-1.7 9.7 4.8 18.8 14.4 20.4 1 .2 2 .2 3.1.2H282c9.8 0 17.7-7.9 17.7-17.6 0-1-.1-2.1-.2-3.1-1.4 8.7-8.9 14.9-17.5 14.9z"/><path class="st9" d="M225.7 63.1v-1c0-6.5 5.4-11.8 11.9-11.8 2.7 0 5.3.9 7.3 2.6 4.3-11.5 17.1-17.4 28.5-13.1 9.5 3.6 15.5 13.1 14.4 23.4 6.2 2.1 10.7 7.4 11.8 13.7 1.5-8.5-3.5-16.8-11.8-19.7 1.3-12.2-7.5-23.1-19.8-24.5-10.1-1.1-19.5 4.8-23.1 14.3-5.2-4-12.6-3.3-16.6 1.9-1.7 2.1-2.6 4.6-2.6 7.3v1c-8.2 2.8-13.1 11.1-11.7 19.7 1.2-6.4 5.7-11.7 11.7-13.8z"/><path class="st11" d="M282 94.1h-50.4c-11.1 0-20.2-8.9-20.2-20.1 0-8 4.6-15.2 11.9-18.4.3-7.9 7.1-14 15-13.6 1.9.1 3.8.6 5.6 1.5 6.3-12.1 21.2-16.7 33.4-10.4 8.1 4.3 13.3 12.6 13.3 21.8v.8c10.1 4.6 14.7 16.5 10.1 26.6-3.5 7.2-10.7 11.8-18.7 11.8zm-44.5-47.3c-5.2 0-9.3 4.2-9.4 9.3v.8c.1 1.1-.6 2.1-1.7 2.6-8 2.7-12.1 11.5-9.4 19.3 2.1 6.2 8 10.3 14.5 10.2h50.4c8.4 0 15.3-6.7 15.3-15.2 0-6.5-4.2-12.4-10.3-14.5-1.1-.3-1.8-1.5-1.7-2.6 1.1-10.9-6.7-20.5-17.5-21.8-9-1-17.4 4.3-20.5 12.7-.4 1.2-1.9 1.9-3.1 1.5-.2-.1-.4-.2-.7-.3-1.7-1.2-3.7-2-5.9-2z"/><path class="st11" d="M287.8 59.6c-.2 0-.6 0-.8-.1-1.6-.6-3.4-.8-5.1-.8-1.3 0-2.5-1.1-2.5-2.5 0-1.3 1.1-2.5 2.5-2.5 2.2 0 4.5.3 6.6 1.1 1.2.4 2 1.8 1.6 3.1-.2 1.1-1.3 1.7-2.3 1.7zM225.7 59.6c-1.3 0-2.5-1.1-2.5-2.5 0-1 .7-2 1.7-2.4 2.1-.8 4.4-1.1 6.7-1.1 1.3 0 2.5 1.1 2.5 2.5 0 1.3-1.1 2.5-2.5 2.5-1.7 0-3.5.3-5.1.9-.2.1-.5.1-.8.1zM248.1 53.2c-.9 0-1.8-.6-2.1-1.3-.7-1.2-1.5-2.2-2.6-3-1.1-.8-1.2-2.4-.4-3.5.8-1.1 2.4-1.2 3.5-.4 1.6 1.2 2.9 2.8 3.9 4.6.7 1.2.2 2.7-1 3.4-.5.1-1 .2-1.3.2z"/></g><g class="st14"><path class="st15" d="M102.8 246.4c1-9.2-5.7-17.5-14.9-18.5-7.6-.8-14.8 3.6-17.5 10.8-3.9-3-9.5-2.5-12.6 1.5-1.2 1.6-1.9 3.5-1.9 5.5v.8c-7 2.4-10.7 10-8.3 17 1.9 5.4 7 9 12.7 9h38.1c7.4 0 13.4-6 13.5-13.3 0-5.9-3.6-11-9.1-12.8z"/><path class="st16" d="M98.4 267.9H60.3c-6.5 0-12.1-4.7-13.3-11.2-1.2 7.3 3.6 14.1 10.9 15.5.8.1 1.6.2 2.4.2h38.1c7.4 0 13.4-6 13.5-13.3 0-.8-.1-1.6-.2-2.4-1.1 6.5-6.7 11.2-13.3 11.2z"/><path class="st9" d="M55.9 250.9v-.8c0-4.9 4-9 9-8.9 2 0 3.9.7 5.5 1.9 3.3-8.6 12.9-13.1 21.6-9.9 7.3 2.7 11.7 10 10.9 17.6 4.6 1.6 8 5.6 8.9 10.3 1.1-6.5-2.7-12.8-8.9-14.8 1-9.2-5.7-17.5-14.9-18.5-7.6-.8-14.8 3.6-17.5 10.8-3.9-3-9.5-2.5-12.6 1.5-1.2 1.6-1.9 3.5-1.9 5.5v.8c-6.2 2.1-9.9 8.4-8.8 14.8.8-4.8 4.1-8.8 8.7-10.3z"/><path class="st11" d="M98.4 274.2H60.3c-8.4 0-15.3-6.7-15.3-15.2 0-6.1 3.5-11.5 9-13.9.3-6 5.4-10.6 11.3-10.3 1.5.1 2.9.4 4.2 1.1 4.8-9.1 16.1-12.7 25.2-7.9 6.2 3.3 10 9.5 10 16.5v.7c7.6 3.5 11.1 12.5 7.6 20.1-2.3 5.4-7.8 8.9-13.9 8.9zm-33.6-35.7c-3.9 0-7.1 3.1-7.1 7.1v.6c.1.9-.4 1.7-1.2 1.9-6.1 2-9.2 8.6-7.1 14.6 1.6 4.7 6.1 7.7 11 7.7h38.1c6.4 0 11.6-5.1 11.6-11.5 0-4.9-3.1-9.3-7.9-11-.8-.3-1.3-1.1-1.2-1.9.9-8.2-5.1-15.6-13.3-16.4-6.7-.7-13.1 3.3-15.6 9.5-.3 1-1.5 1.5-2.4 1.1-.2-.1-.3-.1-.4-.2-1.3-.9-2.8-1.5-4.5-1.5z"/><path class="st11" d="M102.9 248.2c-.2 0-.4 0-.6-.1-1.2-.4-2.5-.7-3.8-.7-1 0-1.9-.8-1.9-1.9 0-1 .8-1.9 1.9-1.9 1.7 0 3.4.3 5.1.8 1 .3 1.5 1.3 1.1 2.4-.4.9-1 1.4-1.8 1.4zM55.9 248.2c-1 0-1.9-.8-1.9-1.9 0-.8.4-1.5 1.2-1.8 1.6-.6 3.4-.9 5.1-.9 1 0 1.9.8 1.9 1.9 0 1-.8 1.9-1.9 1.9-1.3 0-2.6.2-3.8.7-.1.1-.3.1-.6.1zM72.8 243.3c-.7 0-1.3-.3-1.7-1-.4-.9-1.1-1.7-1.9-2.2-.8-.7-1-1.8-.3-2.6s1.8-.9 2.6-.3c1.2.9 2.2 2.1 2.9 3.5.4.9.1 2-.8 2.5-.3 0-.5.1-.8.1z"/></g><g class="st8"><path class="st17" d="M179.2 263.6h-8.5L158.4 228h7.7l8.9 26.8 8.9-26.8h7.7l8.9 26.8 8.9-26.8h7.7l-12.4 35.6h-8.5l-8.4-24.4-8.6 24.4zM240.2 263.6h-8.5L219.3 228h7.7l8.9 26.8 8.9-26.8h7.7l8.9 26.8 8.9-26.8h7.7l-12.4 35.6H257l-8.4-24.4-8.4 24.4zM301.2 263.6h-8.5L280.3 228h7.7l8.9 26.8 8.9-26.8h7.7l8.9 26.8 8.9-26.8h7.7l-12.4 35.6h-8.5l-8.4-24.4-8.5 24.4z"/></g><path class="st4" d="M68.5 58.4c1 3.4 3.7 6.1 7.1 7.1 3.5 1.1 3.5 2.4 0 3.5-3.4 1-6.1 3.7-7.1 7.1-1.1 3.5-2.4 3.5-3.5 0-1-3.4-3.7-6.1-7-7.1-3.5-1.1-3.5-2.4 0-3.5 3.4-1 6.1-3.7 7.1-7.1 1.1-3.6 2.3-3.6 3.4 0z"/><circle class="st12" cx="22.9" cy="445.5" r="5.5"/><path class="st12" d="M47.7 439.9h-8.3c-3 0-5.5 2.5-5.5 5.5s2.5 5.5 5.5 5.5h8.3c3 0 5.5-2.5 5.5-5.5 0-3.1-2.4-5.5-5.5-5.5zM458.7 439.9h-8.3c-3 0-5.5 2.5-5.5 5.5s2.5 5.5 5.5 5.5h8.3c3 0 5.5-2.5 5.5-5.5 0-3.1-2.4-5.5-5.5-5.5z"/><circle class="st12" cx="475.4" cy="445.5" r="5.5"/><path class="st4" d="M343.3 462h-22.9c-3 .2-5.3 2.9-5.1 6 .2 2.7 2.4 4.8 5.1 5.1h22.9c3-.2 5.3-2.9 5.1-6-.2-2.8-2.4-4.9-5.1-5.1zM177.9 462h-23c-3 .2-5.3 2.9-5.1 6 .2 2.7 2.4 4.8 5.1 5.1h22.9c3-.2 5.3-2.9 5.1-6-.2-2.8-2.3-4.9-5-5.1zM304.3 462H194c-3 0-5.5 2.5-5.5 5.5s2.5 5.5 5.5 5.5h44v5.5h-21.9c-3 0-5.5 2.5-5.5 5.5s2.5 5.5 5.5 5.5H285c3 0 5.5-2.5 5.5-5.5s-2.5-5.5-5.5-5.5h-24.7V473h44c3 0 5.5-2.5 5.5-5.5s-2.4-5.5-5.5-5.5zM186.8 26.6c4.6 0 8.3-3.7 8.3-8.3s-3.7-8.3-8.3-8.3c-4.6 0-8.3 3.7-8.3 8.3s3.7 8.3 8.3 8.3zm0-12.4c2.2 0 4.2 1.8 4.2 4.2s-1.8 4.2-4.2 4.2-4.2-1.8-4.2-4.2c0-2.3 1.9-4.2 4.2-4.2zM484.5 284.7c-3 0-5.5 2.5-5.5 5.5s2.5 5.5 5.5 5.5 5.5-2.5 5.5-5.5c0-3.1-2.5-5.5-5.5-5.5zm0 8.3c-1.6 0-2.8-1.2-2.8-2.8 0-1.6 1.2-2.8 2.8-2.8 1.6 0 2.8 1.2 2.8 2.8-.1 1.5-1.4 2.8-2.8 2.8zM53.6 97.7c-3 0-5.5 2.5-5.5 5.5s2.5 5.5 5.5 5.5 5.5-2.5 5.5-5.5-2.5-5.5-5.5-5.5zm0 8.3c-1.6 0-2.8-1.2-2.8-2.8s1.2-2.8 2.8-2.8 2.8 1.2 2.8 2.8-1.2 2.8-2.8 2.8zM345.3 63.3c-3 0-5.5 2.5-5.5 5.5s2.5 5.5 5.5 5.5 5.5-2.5 5.5-5.5-2.4-5.5-5.5-5.5zm0 8.3c-1.6 0-2.8-1.2-2.8-2.8s1.2-2.8 2.8-2.8 2.8 1.2 2.8 2.8c0 1.6-1.2 2.8-2.8 2.8zM42.7 221.5c0-1.8-1.5-3.4-3.4-3.4s-3.4 1.5-3.4 3.4c0 1.8 1.5 3.4 3.4 3.4 1.9-.2 3.4-1.7 3.4-3.4zm-4.9 0c0-.9.8-1.7 1.7-1.7s1.7.8 1.7 1.7-.8 1.7-1.7 1.7c-1-.2-1.7-.9-1.7-1.7z"/><path class="st12" d="M430.9 451H67.4c-2.6 0-4.6-2-4.6-4.6 0-2.6 2-4.6 4.6-4.6h363.5c2.6 0 4.6 2 4.6 4.6 0 2.6-2 4.6-4.6 4.6z"/><g class="st8"><path class="st1" d="m366.9 65.4-.4 1.8c-1.3-.6-2.8-.6-4.4.1-2.6 1.1-3.7 3.7-2.6 6.5s3.8 3.9 6.4 2.8c1.7-.7 2.8-1.8 3.3-3.3l1.6.7c-.6 1.8-2 3.4-4.2 4.3-3.7 1.6-7.4 0-9-3.8s0-7.5 3.7-9c2-.9 4-.9 5.6-.1zM383.4 63.8c1.6 3.8 0 7.5-3.8 9.1-3.7 1.6-7.5 0-9.1-3.8-1.6-3.8 0-7.5 3.8-9 3.8-1.6 7.5 0 9.1 3.7zm-11 4.6c1.1 2.8 3.8 3.9 6.5 2.8s3.8-3.8 2.6-6.6c-1.1-2.8-3.8-3.9-6.5-2.8-2.6 1.1-3.7 3.8-2.6 6.6zM407.1 52.3l3.3 7.9-1.9.8-3-7.3c-.9-2.2-2.8-3-5.1-2.1-2.6 1.1-3.4 3.7-2.2 6.4l2.6 6.3-1.9.8-3-7.3c-.9-2.2-2.8-3-5.1-2.1-2.6 1.1-3.4 3.7-2.2 6.4l2.6 6.3-1.9.8-5.3-12.7 1.9-.8 1.2 2.9c0-2.4 1.3-3.9 3.6-4.9 2.4-1 4.5-.4 6 1.5-.1-2.6 1.2-4.4 3.7-5.4 2.9-1.6 5.5-.5 6.7 2.5z"/></g><g class="st8"><path class="st1" d="m458.6 301.2-2.1 6.3-1.5-.6 2-5.8c.6-1.8-.1-3.3-1.9-3.8-2-.7-3.7.2-4.5 2.1l-1.9 5.5-1.5-.6 3.5-10.2 1.5.6-.8 2.2c1.2-1.3 2.9-1.6 4.7-.9 2.4.7 3.4 2.7 2.5 5.2zM470.2 307l-8.3-2.8c-.4 2.1.6 3.8 2.6 4.5 1.2.4 2.5.3 3.6-.2l.6 1.1c-1.3.8-3 .9-4.7.3-3-1-4.4-3.8-3.3-6.8 1-3 3.8-4.4 6.9-3.4 3 1.1 3.9 4 2.6 7.3zm-1-1.7c.6-2-.3-3.7-2.4-4.4-1.9-.7-3.7.1-4.6 2l7 2.4zM476.7 313.5c-.9.2-1.8.2-2.6 0-1.5-.6-2.2-1.8-1.6-3.8l2-5.8-1.5-.4.4-1.2 1.5.4.9-2.7 1.5.6-.9 2.7 3.3 1.1-.4 1.2-3.3-1.1-1.9 5.5c-.4 1.2-.1 1.9.8 2.1.6.2 1.1.2 1.8 0v1.4z"/></g><g class="st8"><path class="st1" d="m19.4 114.9 3.4-13.4 1.9.4-3.4 13.4-1.9-.4zM26 98.3c-.2.8-.9 1.2-1.7 1s-1.1-.9-.9-1.7c.2-.8.9-1.2 1.7-1 .6.2 1.1.9.9 1.7zM40.4 111.4l-2 8.2-2-.4 1.9-7.6c.6-2.4-.4-4-2.8-4.7-2.6-.7-4.7.7-5.5 3.1l-1.8 7.2-2-.4 3.4-13.4 2 .4-.8 2.9c1.5-1.8 3.5-2.2 6-1.7 3.1.8 4.4 3.1 3.6 6.4z"/></g><g class="st8"><path class="st1" d="M14.6 216.8c-.8 2.9-3.4 4.5-6.3 3.8-2.9-.8-4.5-3.3-3.8-6.3.8-2.9 3.4-4.5 6.3-3.7 3 .7 4.6 3.3 3.8 6.2zm-8.5-2.1c-.6 2.1.6 4 2.6 4.6s3.9-.6 4.5-2.8c.6-2.1-.6-4-2.6-4.6-2.2-.4-4 .7-4.5 2.8zM19.4 215.2c1-1.2 2.5-1.8 4.2-1.3l-.3 1.5c-2.1-.6-3.7.4-4.4 2.4l-1.3 5.3-1.5-.3 2.5-9.9 1.4.1-.6 2.2zM31.9 225.4c-.7 2.9-3.1 4.3-6.2 3.5-1.6-.4-2.7-1.2-3.7-2.5l1-1c.8 1 1.7 1.8 3 2.1 2.1.6 3.9-.4 4.4-2.5l.3-1.5c-1 1.1-2.5 1.6-4.2 1.1-2.7-.7-4-3.1-3.4-6 .7-2.8 3-4.3 5.6-3.6 1.7.4 2.8 1.5 3.1 3l.4-2 1.5.3-1.8 9.1zm-.4-4.5c.6-2-.6-3.8-2.5-4.4-2-.4-3.7.7-4.3 2.7-.4 2 .6 3.8 2.6 4.4 1.9.4 3.7-.7 4.2-2.7z"/></g></svg>