<svg xmlns="http://www.w3.org/2000/svg" viewBox="0 0 820 811"><defs><style>.a{fill:#4269b1;}</style></defs><path class="a" d="M94,348.8c8.9,0,16.3-.1,23.8,0,21.5.3,42.1,6,63.1,9.9,36.2,6.7,72.6,11.6,109.6,9.4,5.3-.4,9.2-2.4,11.2-7.4a41.7,41.7,0,0,0,2.8-9.1c1.9-11.5,1.9-12.2,13-10.5,19.1,3,38.1,6.8,57.1,10.4,24.6,4.5,49.5,5.7,74.5,4.7,8-.3,11.4-3.4,13.2-12.9a59.1,59.1,0,0,0,1.1-15.7c-.5-6.1,2.4-7.5,7.3-6.6,9.7,1.6,19.4,3.3,29,5.5,16.7,3.8,33.2,9.2,50.1,11.9,30.3,4.8,60.6,9.3,91.1,11.7s58.9,2.1,88.4,2.7c16.4.4,32.8.8,49.2.2,10.2-.4,20.3-2.5,29.7-3.7,1.3-5.3,2.2-9.4,3.2-13.4,1.4-5.7.4-7.5-5.3-8a68.1,68.1,0,0,0-10.1.1c-16.3.8-32.7,2.1-49,2.4-21.2.4-42.3-.1-63.4.1a557.9,557.9,0,0,1-82.7-5.6c-24.7-3.6-49.4-6.6-74-10.4-12.3-1.9-24.4-5.5-36.7-7.3-10.6-1.6-21.5-1.8-32.3-2.3-4.8-.2-6.4,3.3-6.5,7.6-.1,6.4-.2,12.9,0,19.4s-2.1,6.8-6.7,7c-30.2.8-60.2-.5-89.6-7.7a163.9,163.9,0,0,0-48.8-4.7c-8.2.4-11.2,3.3-12.3,11.6-.4,3-.1,6.5-1.6,8.8s-4.8,5.4-7.4,5.4c-29.8,0-59.8,1.3-89.4-3.7-34.6-5.8-69.3-10.3-104.4-8.7-8.2.4-10.9,4.4-7,12,1.6,3.1,4.2,5.7,6.5,8.5a36,36,0,0,1,4.9,6.8c-25.5-.2-50.3-6.4-75.6-6.7l-.5,2.7c4.5,1,8.9,2.2,13.4,3.1,8.7,1.7,17.3,3.5,26.1,4.7,14.2,2,28.5,3.6,42.8,5,1.9.2,5.7-2.2,5.8-3.6.2-3.7-.2-8.1-2.1-11.1S98.7,353.8,94,348.8Z"/></svg>