<svg xmlns="http://www.w3.org/2000/svg" viewBox="0 0 150 150"><defs><style>.a{fill:#fd8369;}.b{fill:#fff;}.c{fill:none;stroke:#fd8369;stroke-linecap:round;stroke-linejoin:round;stroke-width:6.94px;}</style></defs><path class="a" d="M98.3,54.4c-1.1-.3-2.2-.9-3.3-1.3a16.7,16.7,0,0,1-4.6-2.8,15.4,15.4,0,0,1-4.5-10.1,18.3,18.3,0,0,1,.4-4.7c.2-.6,1.2-4.1,1.8-4.1H13.3a5.6,5.6,0,0,0-5.6,5.5h0V49.2a5.6,5.6,0,0,0,5.6,5.6H99.8A4,4,0,0,1,98.3,54.4Z"/><path class="b" d="M14.8,41.5H50.6a1.4,1.4,0,0,1,1.3,1.4v.6a1.3,1.3,0,0,1-1.3,1.4H14.8a1.3,1.3,0,0,1-1.3-1.4v-.6A1.4,1.4,0,0,1,14.8,41.5Z"/><path class="b" d="M96.8,40.9h0A2.1,2.1,0,0,1,98.9,43h0a2,2,0,0,1-2.1,2h0a2.1,2.1,0,0,1-2.1-2h0A2.1,2.1,0,0,1,96.8,40.9Z"/><path class="b" d="M105.1,40.9h0a2.1,2.1,0,0,1,2.1,2.1h0a2,2,0,0,1-2,2h0a2,2,0,0,1-2.1-2h0A2,2,0,0,1,105.1,40.9Z"/><path class="a" d="M13.3,60.3h96.2a5.6,5.6,0,0,1,5.6,5.6V78.1a5.6,5.6,0,0,1-5.6,5.6H13.3a5.6,5.6,0,0,1-5.6-5.6V65.9A5.6,5.6,0,0,1,13.3,60.3Z"/><path class="b" d="M14.8,70.5H50.6a1.3,1.3,0,0,1,1.3,1.3v.7a1.3,1.3,0,0,1-1.3,1.3H14.8a1.3,1.3,0,0,1-1.3-1.3v-.7A1.3,1.3,0,0,1,14.8,70.5Z"/><path class="b" d="M96.8,69.8h0a2.1,2.1,0,0,1,2.1,2.1h0A2.1,2.1,0,0,1,96.8,74h0a2.1,2.1,0,0,1-2.1-2.1h0A2.1,2.1,0,0,1,96.8,69.8Z"/><path class="b" d="M88.4,69.8h.1a2,2,0,0,1,2,2.1h0a2,2,0,0,1-2,2.1h-.1a2,2,0,0,1-2-2.1h0A2,2,0,0,1,88.4,69.8Z"/><path class="b" d="M105.1,69.8h0a2.1,2.1,0,0,1,2.1,2.1h0a2,2,0,0,1-2,2.1h0a2.1,2.1,0,0,1-2.1-2.1h0A2,2,0,0,1,105.1,69.8Z"/><path class="a" d="M13.3,89.2h96.2a5.6,5.6,0,0,1,5.6,5.6V107a5.6,5.6,0,0,1-5.6,5.6H13.3A5.6,5.6,0,0,1,7.7,107V94.8A5.6,5.6,0,0,1,13.3,89.2Z"/><path class="b" d="M14.8,99.4H50.6a1.3,1.3,0,0,1,1.3,1.4v.6a1.4,1.4,0,0,1-1.3,1.4H14.8a1.4,1.4,0,0,1-1.3-1.4v-.6A1.3,1.3,0,0,1,14.8,99.4Z"/><path class="b" d="M96.8,98.8h0a2,2,0,0,1,2.1,2h0a2.1,2.1,0,0,1-2.1,2.1h0a2.1,2.1,0,0,1-2.1-2.1h0A2,2,0,0,1,96.8,98.8Z"/><path class="b" d="M88.4,98.8h.1a2,2,0,0,1,2,2h0a2,2,0,0,1-2,2.1h-.1a2,2,0,0,1-2-2.1h0A2,2,0,0,1,88.4,98.8Z"/><path class="b" d="M105.1,98.8h0a2,2,0,0,1,2.1,2h0a2,2,0,0,1-2,2.1h0a2.1,2.1,0,0,1-2.1-2.1h0A2,2,0,0,1,105.1,98.8Z"/><line class="c" x1="63.2" y1="37.4" x2="63.2" y2="128.8"/><line class="c" x1="117.6" y1="130" x2="6.6" y2="130"/><circle class="a" cx="30.8" cy="130" r="6.9"/><circle class="a" cx="63.2" cy="130" r="6.9"/><circle class="a" cx="91.1" cy="130" r="6.9"/><path class="a" d="M131,16.3a12.8,12.8,0,0,1,4.1,6.1,11.4,11.4,0,0,1,.6,2.5c0,.6.2.7.7.8a12.4,12.4,0,0,1,5.2,1.8,12.8,12.8,0,0,1,5.9,13.3A13.1,13.1,0,0,1,137,51.2a10.9,10.9,0,0,1-2.6.3H100.6a12.5,12.5,0,0,1-7.3-2.1h-.1c0-.1,0-.2-.1-.2h-.2L91.7,48a10.7,10.7,0,0,1-2.6-11.5c1.5-4.3,4.7-6.8,9.3-7.5.3,0,.5,0,.5-.5a9.9,9.9,0,0,1,9.2-10.3,11,11,0,0,1,3.5.5.7.7,0,0,0,.9-.3,12.9,12.9,0,0,1,17.7-2.7l.5.3c0,.1.1.1.2.1h0v.2Z"/><path class="b" d="M110.5,43.2,106.8,32h1.6l1.7,5.5a33.1,33.1,0,0,1,1.2,4.2h0c.3-1.3.8-2.7,1.3-4.2l1.9-5.5H116l-4,11.2Z"/><path class="b" d="M117.3,32.1l2.7-.2a5,5,0,0,1,3.1.9,2.8,2.8,0,0,1,1,2.4,3.6,3.6,0,0,1-.8,2.4,6,6,0,0,1-3.5,1.2h-1.1v4.5h-1.4Zm1.4,5.4a2.5,2.5,0,0,0,1.2.1c1.7,0,2.8-.8,2.8-2.4s-1.1-2.1-2.7-2.1a2.9,2.9,0,0,0-1.3.1v4.3Z"/><path class="b" d="M125.9,41.4a4.3,4.3,0,0,0,2.5.7c1.5,0,2.4-.7,2.4-1.8s-.6-1.7-2.1-2.3-3-1.6-3-3.2,1.5-3,3.6-3a5.1,5.1,0,0,1,2.5.6l-.4,1.1a5,5,0,0,0-2.1-.5c-1.5,0-2.1.9-2.1,1.7s.6,1.5,2.2,2.1,2.8,1.7,2.8,3.3-1.2,3.2-3.9,3.2a5.8,5.8,0,0,1-2.8-.7Z"/></svg>