<svg xmlns="http://www.w3.org/2000/svg" xmlns:xlink="http://www.w3.org/1999/xlink" viewBox="0 0 820 811"><defs><style>.a{fill:#eff5ff;}.b{fill:#fff2eb;}.c{fill:#101111;}.d{fill:#1e4963;}.e{fill:#25577c;}.f{fill:#e5b795;}.g{fill:#f2caa7;}.h{fill:#442704;}.i{fill:#722108;}.j{fill:#8c2900;}.k,.t{fill:#0f1f2c;}.l{fill:url(#a);}.m{fill:#739400;}.n{fill:#fff;}.o{fill:#0e0f0f;}.p{fill:#0d4d8f;}.q{fill:#1e89c0;}.r{fill:#161515;}.s{fill:#f3fff7;}.t{opacity:0.21;}.u{fill:#263238;}.v{fill:#37474f;}.w{fill:#455a64;}.x{fill:#fe7f32;}</style><linearGradient id="a" x1="-881.27" y1="288.14" x2="-859.41" y2="288.14" gradientTransform="matrix(-0.98, 0.17, 0.17, 0.98, -683.54, 59.52)" gradientUnits="userSpaceOnUse"><stop offset="0" stop-color="#0f1f2c"/><stop offset="1"/></linearGradient></defs><path class="a" d="M572.9,253.3c0,152-102.3,172.1-250.8,172.1S31.8,635.1,35.1,253.3c1.3-152.1,107.8-66,251.9-102.6C472.2,103.6,572.9-103.9,572.9,253.3Z"/><path class="b" d="M693.7,519.7c-58.9,140.2,23.7,159.4-123.9,176.2S462.1,884.6,265.1,557.5C147.2,361.6,364.8,479.8,503.8,427,682.4,359.2,839.6,172.2,693.7,519.7Z"/><path class="c" d="M202.7,174.8a43.3,43.3,0,0,0-2.2,5.9,8.6,8.6,0,0,0-.4,2.8,17.6,17.6,0,0,0,.1,3.2,5.6,5.6,0,0,1-1.9-3,7.3,7.3,0,0,1,0-3.6,8.8,8.8,0,0,1,1.6-3.2A7.1,7.1,0,0,1,202.7,174.8Z"/><path class="d" d="M727.7,249.4a145.6,145.6,0,0,1-14.3,9.3c-4.9,2.9-9.9,5.6-15,8A166.3,166.3,0,0,1,666.2,278c-1.3.3-2.7.7-4.1.9l-4.2.8c-1.4.3-2.8.4-4.3.6l-2.1.3-2.1.2a97.7,97.7,0,0,1-17.1.3l-4.3-.3-4.3-.6a30.7,30.7,0,0,1-4.2-.7l-4.2-.9-4.1-1.1-1.1-.3-1-.4-2-.7a70.2,70.2,0,0,1-8-3.2l-1.9-.9-1.9-1-3.8-2.1-7.4-4.2-7.4-4.1c-2.5-1.3-4.9-2.8-7.4-4a276.1,276.1,0,0,0-30.7-14.4,119,119,0,0,0-32.7-7.7c-11.3-1-22.6-.5-33.9,0,11.2-1,22.6-1.8,33.9-1.2a122.5,122.5,0,0,1,33.3,7.3,262.7,262.7,0,0,1,31,14.1l7.5,4,7.5,4.1,7.4,4.2,3.7,2,1.9.9,1.9,1a65.1,65.1,0,0,0,7.7,3.1l2,.7,1,.4,1,.3,4,1.1,4.1.9,4.2.8,4.1.6,4.2.3a117.8,117.8,0,0,0,16.8-.2,134.8,134.8,0,0,0,16.7-2.6,171.5,171.5,0,0,0,32-10.6A187.2,187.2,0,0,0,727.7,249.4Z"/><path class="e" d="M392.7,241.5l13.1,9.2s13.4-2.3,18.5-12.4l-8.6-10,50.8-25.1s39.4-11.5,83.1,1.6,111.3,31.1,171.4,6.7c0,0,63.4-31.8,75.8-66.2,0,0,7.1,93.1-50.3,133,0,0-56,21.4-66.5,66.9s-61.7,54.6-61.7,54.6l-103.7-9.7a95.1,95.1,0,0,1-46.4-17.2c-21.2-14.9-54-39-79.4-61.7-23.7-21.2-20.6-51.6-20.6-51.6Z"/><path class="f" d="M410.4,224.6l13.9,13.7s-6.2,17.1-20.7,12.8l-16.2-13.3Z"/><path class="g" d="M475.6,141.8s13.2,9.2,12.9,20.8c-.2,6.3-3.3,18.4-10.3,20.6-.7.2-13.7,3-13.4,1.9-1.9,6.5-2.9,17.6-8.6,21.7s-11.9,8.5-18,12.6c-9.5,6.3-19,13.9-30.2,17-5.1,1.4-10.3.9-15.4,1.6-11.7,1.6-22.3-7.7-31.8-13.6-6.8-4.1-15.1-8.5-20.7-14.1s-3.8-13.8-4.4-20.7-1.2-14.6-1.6-21.9c-.8-13.7-1.9-28.3.5-41.9a31.7,31.7,0,0,1,1.5-5.5c6.6-15,30.3-37.5,34.7-38.3s18.3-.9,27.2-2.5,15.6-2.7,32.4,1.2,23.9,5,29.9,13.2,6.8,12.6,7.6,17.1S475.6,141.8,475.6,141.8Z"/><path class="h" d="M478.2,143.5l3.5-30.3a79.1,79.1,0,0,0,.6-8.5,34.3,34.3,0,0,0-13-26.1,8.5,8.5,0,0,1-2.5-2.5,6.1,6.1,0,0,1-.8-2.6c-.5-2.5-.8-5.1-1.5-7.6-2.5.5-5.4,3-7.7,4.5a7.2,7.2,0,0,1-2.4,1,5.7,5.7,0,0,1-2.9-.4,161.7,161.7,0,0,0-45.9-6,199.4,199.4,0,0,0-23.2,1.6c-6.3.8-14.3,3.9-20.6,3.2s-21.1-1.9-24.5-8.8c.9,7.6,5.3,12.2,9.5,18.1-11.8,3.1-26.9-6.3-30.2-17.5.3,1-3,6-3.4,7.1-4.7,11.9-4.8,26.5,3.1,37.3s28.2,21.2,37.9,9.6a100.5,100.5,0,0,1,13.4-13.5c2.6-2.2,5.1-4.9,8.2-6.5s6.8-2.1,10.4-2.6a248.4,248.4,0,0,1,27.2-2.9c8.4-.5,16.9-1.4,25.3,0,1.6.2,3.4.6,4.5,1.9a7.8,7.8,0,0,1,1.3,3.7l3.7,21,12.6-6.8c-2,13.9-4,28-3.3,42,.1,3.2.6,6.8,3.1,8.8A71.9,71.9,0,0,1,478.2,143.5Z"/><path class="h" d="M439.9,135.5s-2.1-6.8-20.2-9.5c0,0-11.3-.3-16,6.4,0,0-.1,6.8,9,4.8s20.4.4,20.4.4S439.8,142.3,439.9,135.5Z"/><path class="h" d="M355.5,134.2s-2.1-4.6-13.6-4.6c0,0-7.1.9-9.2,6.1,0,0,.6,4.8,6,2.4s12.8-1.7,12.8-1.7S356.1,139,355.5,134.2Z"/><path class="i" d="M491.4,371.4s27,62,114.6,76.5c0,0,41.1,11.2,50.2,23.4l14.8-7.2-48.5-53.6-82.7-38.4s-11.3-11.8-13.5-11.4-11.4,13.5-11.4,13.5S504.1,378.4,491.4,371.4Z"/><path class="e" d="M446.4,156.2c-3-6.4-10.1-10.8-16.9-13a40.9,40.9,0,0,0-24-.4c-8.2,2.6-16.1,6.5-24.4,8.9a54.1,54.1,0,0,1-5.5,1.2c-2.8.6-4.3-.7-6.8-1.7l-6.7-2.5a113.7,113.7,0,0,0-17.1-4.6c-3.1-.5-7.7-2.2-10.6-.4s-1,4.5-1.1,6.6c-.5,10,.8,20,2.6,29.8,0,.3,2.1.9,2.4,1a34.2,34.2,0,0,0,6.3,1.6c6,1,12.4.4,17.6-3,2.8-1.8,5.1-3.9,8.3-5a29.3,29.3,0,0,1,14.1-1.2,37,37,0,0,1,14.1,5.6l3.7,2.7c2.5,1.5,6.3,1.9,9.2,2.5,7,1.3,14.7,2.1,21.6-.5s14.3-11.7,14.6-20.4A15.7,15.7,0,0,0,446.4,156.2Z"/><path class="j" d="M573.4,248.9l-20.3-24s-5.6-6-7.9-5.6-57.1-10.7-57.1-10.7-18.6-1.3-26.8,4.7L443.2,228l-2.2.4s-7.6,22.1-25.5,25.2a30.8,30.8,0,0,1-27.3-11.3l-20.5,1.3-41.2-25a56,56,0,0,0-16.8-4l-36.6-11.9s-4.3,14.5-10.2,20.2l60.6,30.7,48.3,26.1a14.7,14.7,0,0,0,.2,2c1.8,12.7,21.1,25.7,35.5,34,6.7,3.9,13.1,8.1,19.5,12.5l33.3,23.4,31.5,22s12.3,4.8,23.9,5.1c0,0,49.8,34.9,68.8,38.5,0,0,42.7,20.1,45.3,22s13.1,9.2,32.9,17.2l17.3-33s-25.1-11.7-31.8-10.5c0,0-25-11.7-33-31,0,0-49.3-58.1-72.4-58.6,0,0-37.8-18.7-44.6-31.3s-10.8-34.9-10.8-34.9,36.9.4,51.8-6.8l14.2,15.9Z"/><path class="k" d="M574.9,244l-3.1-4-23.2,24.8,28.2,29.5s-17.5,5.4-17.4,19.2c0,0-3.2,7.4,5.3,3.6,0,0,.3-11.5,9.2-13.1,0,0-8.9,1.6-8.8,15.4,0,0,3.4,6.3,6.7-1.2,0,0,.6-9.3,6.9-12.7,0,0-6.7,1.1-6.1,17.2,0,0-1.5,4.8,4.4-.8,0,0,.3-11.6,9.2-13.1,0,0-6.7,1.1-8.8,15.3a3.1,3.1,0,0,0,4.5-.8s3.3-7.4,5.5-7.8,7-9,7.9-17.8a20.2,20.2,0,0,0-1.1-8.8C590.1,278.2,574.9,244,574.9,244Z"/><path class="k" d="M277.2,199.6s-.9,20.9-13.5,27.7l-31.5-22s-17.9,3.1-24.7-9.5c0,0-11.6-.3-15-6.6s-5.1-29,21.9-19.9c0,0,14.8-7.2,28,15.7Z"/><path class="l" d="M233.1,184.4l-12.3,2.1a49.4,49.4,0,0,0-6.7,1.2c-2.4.8-2.3,3.5-1.5,5.4s3.8,3.3,6.8,3.7l6.4.7,7.4.7"/><path class="c" d="M223.4,181.5a3.3,3.3,0,0,1-1.4.4h-1.4a3.2,3.2,0,0,1-1.4-.3l-1.3-.7,1.7-1.1a4.9,4.9,0,0,1,.1,1.1v1a10.6,10.6,0,0,1-.4,1.9c-.2.6-.5,1.2-.7,1.7a9.1,9.1,0,0,1-1.1,1.6c-.1-.6-.1-1.3-.2-1.9s.1-1.2.1-1.7v-1.8c0-.2.1-.5.1-.8s-.1-.5,0-.7v-2.3l1.7,1.2.9.7,1,.6A12.3,12.3,0,0,0,223.4,181.5Z"/><path class="c" d="M209.7,175.8c-.8,2.2-1.6,4-2.1,5.9a13.5,13.5,0,0,0-.5,2.9c-.1,1,.1,2,.1,3.2a5.8,5.8,0,0,1-1.8-3,7.7,7.7,0,0,1,0-3.7A9.2,9.2,0,0,1,207,178,7.3,7.3,0,0,1,209.7,175.8Z"/><path class="m" d="M542.8,323.3s-20.7-12.7-22.9-12.1c0,0-34,34.6-37.1,56.4,0,0,15.1,13.8,32.9,11.1,0,0-9.3-17.9-.7-36.5S542.8,323.3,542.8,323.3Z"/><path class="k" d="M677,419.4l-16.9,35.1L741.2,484l-.6,18.5a4.3,4.3,0,0,0,7.8.8L761,482a8.5,8.5,0,0,0-2.4-11.3Z"/><path class="k" d="M668.6,458.3l-16.9,13.8,56.2,31.6v17.1a3.4,3.4,0,0,0,6.1,1.9L732,497.1l-57.7-40.4Z"/><path class="n" d="M409.8,194.8s-22.2,17.7-39,13.7c.4.1,1.2,1.4,1.5,1.8l2.1,2.1a46.4,46.4,0,0,0,4,3.6c3.6,2.8,8.4,5.2,13.1,4.9s10-5.2,13.2-9.4a28.8,28.8,0,0,0,4-7.8,31.2,31.2,0,0,0,.9-4.4C409.7,198.7,409.5,195,409.8,194.8Z"/><path class="k" d="M409.8,194.8a104.5,104.5,0,0,1-8.7,6.1,77.9,77.9,0,0,1-9.5,5l-5,1.9a43.9,43.9,0,0,1-5.2,1.3,29.6,29.6,0,0,1-10.7,0l.2-1.1.6.4.4.4a3.5,3.5,0,0,1,.5.8l1.3,1.3a15.9,15.9,0,0,0,1.3,1.3l1.3,1.2,2.8,2.4,3,2a20.6,20.6,0,0,0,6.8,2.5h3.6a13.1,13.1,0,0,0,3.3-1.2,20.7,20.7,0,0,0,5.8-4.4,35.4,35.4,0,0,0,4.4-5.8,24.1,24.1,0,0,0,2.9-6.8,11.6,11.6,0,0,0,.4-1.8,11,11,0,0,0,.2-1.8v-2.8A1.5,1.5,0,0,1,409.8,194.8Zm0,0c-.2.3-.1.6-.2.9a2.8,2.8,0,0,0,.1.9v1.9a6.2,6.2,0,0,1-.1,1.9l-.3,1.8a29.8,29.8,0,0,1-2.7,7,37.6,37.6,0,0,1-4.5,6,20.7,20.7,0,0,1-5.8,4.8,12.3,12.3,0,0,1-3.7,1.2,12.2,12.2,0,0,1-3.8.1,19.9,19.9,0,0,1-7.2-2.5,29.2,29.2,0,0,1-3.2-2.1l-2.8-2.5-1.4-1.2-1.3-1.3-.7-.7-.3-.4-.3-.4-.6-.7-.2-.3h-.1l.2-1.1a26,26,0,0,0,10.4.1,49.8,49.8,0,0,0,10-2.9,76.3,76.3,0,0,0,9.5-4.7A85.1,85.1,0,0,0,409.8,194.8Z"/><path class="k" d="M377.9,150.9c-1.5,5-3,9.9-4.3,14.9q-1.1,3.8-1.8,7.5a66.6,66.6,0,0,0-1.2,7.6,37.7,37.7,0,0,0-.3,7.5,14,14,0,0,0,2.1,6.8,7.1,7.1,0,0,0,2.6,2.3,14,14,0,0,0,3.5,1,28,28,0,0,0,7.6-.7,21.2,21.2,0,0,1-7.6,1.8,11.4,11.4,0,0,1-4.1-.7,9.7,9.7,0,0,1-3.4-2.6,13.3,13.3,0,0,1-2-3.7,17.7,17.7,0,0,1-.8-4,35.7,35.7,0,0,1,.1-8,74,74,0,0,1,3.6-15.3A95.2,95.2,0,0,1,377.9,150.9Z"/><circle class="o" cx="413.6" cy="164.2" r="6.8"/><circle class="n" cx="416.8" cy="162.5" r="3.4"/><path class="o" d="M430.5,155a60.2,60.2,0,0,1-7.4,1.3l-3.7.4a19.7,19.7,0,0,0-3.5.7,22.6,22.6,0,0,0-3.3,1.3l-3.3,1.6a60.7,60.7,0,0,1-7,2.9,67.6,67.6,0,0,1,6.1-4.4l3.2-2a17.3,17.3,0,0,1,3.7-1.6,16.7,16.7,0,0,1,3.9-.6H423A47.3,47.3,0,0,1,430.5,155Z"/><circle class="o" cx="343.5" cy="166.8" r="6.5"/><circle class="n" cx="346.8" cy="165.9" r="3.3"/><path class="o" d="M361.1,161.5q-3.6,0-7.2-.3l-3.6-.3h-3.4a19.1,19.1,0,0,0-3.3.6l-3.5.9c-2.3.5-4.7,1-7.1,1.3a63.1,63.1,0,0,1,6.6-2.9l3.4-1.3a15.9,15.9,0,0,1,3.8-.7,16.3,16.3,0,0,1,3.8.1l3.5.7A55.6,55.6,0,0,1,361.1,161.5Z"/><ellipse class="n" cx="436.8" cy="288.2" rx="25.4" ry="14.4" transform="translate(-78 194.3) rotate(-23.1)"/><path class="p" d="M442.8,278a6.2,6.2,0,0,0-2.2,1,5.7,5.7,0,0,0-1.5,1.6,7.2,7.2,0,0,0-.9,2,1.3,1.3,0,0,0-.1.6,4.4,4.4,0,0,0-2.8,2.2,4.7,4.7,0,0,0-.4,1.6v.2a.3.3,0,0,0,0,.4l.3.3.7.4h.3c.1,0,.1-.1.2-.2s-.1-.6-.1-.8a5.7,5.7,0,0,1,.4-1.4,3.1,3.1,0,0,1,1.7-1.3l1-.2h0a2.8,2.8,0,0,0,.1-.9,4.3,4.3,0,0,1,.6-1.8,3.7,3.7,0,0,1,1.6-1.7,4.8,4.8,0,0,1,2.4-.7,4.4,4.4,0,0,1,3.6,1.5l1.1-.4.3-.2a5.3,5.3,0,0,0-3.1-2.1A5,5,0,0,0,442.8,278Z"/><path class="p" d="M443.5,285.7h-1.1a1.5,1.5,0,0,0-.7.5,1.3,1.3,0,0,0-.1.6,2.9,2.9,0,0,0,.3,1l.4,1-1.8-1.6c-.1-.1-.2-.3-.4-.3h-.5c-.1,0-.2.2-.2.3s0,.3,0,.4l1,2.1-2.2-1.6a.5.5,0,0,0-.4-.2h-.4l-.6.3h-.2c0,.1-.1.1,0,.2s.1.3.2.3h.4l.4-.2,3.1,2.3.6.2.3-.3c.1-.2,0-.4,0-.5a18.6,18.6,0,0,1-1-2h0l2,1.8.5.2c.2-.1.3-.1.4-.3s0-.3,0-.4l-.9-2.1c0-.2-.1-.4-.1-.6s0-.3,0-.3a.6.6,0,0,1,.5-.2.9.9,0,0,1,.6.3.8.8,0,0,1,.2.5l-.3.3-.3.2-.2.2c0,.1.1.3.2.3h.5l.5-.2a1.1,1.1,0,0,0,.4-.9,2.9,2.9,0,0,0-.2-.9A2.4,2.4,0,0,0,443.5,285.7Z"/><path class="p" d="M427.6,292.1l.5.2,1.2,1.2h.3l.8-.3a3.7,3.7,0,0,1,1.8.1,1.5,1.5,0,0,1,.9.6l.2-.2h.3l-2.2-2.2-.3-.3v-.3l.3-.2.5.2,2.4,2.4c.1.1.3.3.3.4s-.1.4-.3.4l-.5.3h-.4a1.2,1.2,0,0,1,.1,1,1.2,1.2,0,0,1-.6.8,2,2,0,0,1-1.1.3,2.1,2.1,0,0,1-1.1-.4l-.8-.8-.8-.8-.9.4.6.6a.8.8,0,0,1,.2.4c.1.2,0,.3-.1.5l-.6.3-.6.2-.4-.2c0-.1-.1-.2,0-.3a.2.2,0,0,1,.2-.2l.6-.3-.7-.6h-.8c-.2,0-.3-.2-.3-.4s.1-.2.2-.3h.3l-1-1-.2-.3c-.1-.1,0-.2,0-.3h.3a.4.4,0,0,1,.5.1l1.2,1.2.9-.3-1-1.1a.2.2,0,0,1-.2-.2c-.1-.1,0-.2,0-.3l.3-.2Zm2.9,1.7-.6.3.9.9.7.5c.2,0,.4.1.6,0a.5.5,0,0,0,.4-.2.8.8,0,0,0,.2-.5l-.3-.6a2,2,0,0,0-.8-.4,2.1,2.1,0,0,0-1.1,0Z"/><path class="p" d="M433.2,289.8h-.4c-.1.1-.2.2-.1.3s.1.2.1.3l2.4,2.3-.4.2c-.1,0-.1.1-.2.2s0,.1.1.2.2.2.3.2h.3l.6-.3a.2.2,0,0,0,.2-.2.3.3,0,0,0,0-.4l-.3-.3-2.3-2.2-.3-.3Z"/><path class="p" d="M420,296.6h-.2a.6.6,0,0,0-.1.4l.4.3-.3.3c-.1,0,0,.1,0,.2s.2.2.3.2h.5l.9.8h-.4c-.1.1-.2.1-.2.2s0,.2,0,.3a.5.5,0,0,0,.6.1l.6-.3.3-.3a.5.5,0,0,0-.2-.4,3,3,0,0,0-.8-.8c.1-.1.2-.1.3-.3v-.3h-.7a.8.8,0,0,1-.4-.4Z"/><path class="p" d="M422.8,296.1c-.1-.1-.2-.2-.4-.1s-.2.2-.2.3.1.2.1.3.1.2.1.4-.1.3-.1.4v.6a1,1,0,0,0,1.3.6l.7-.3.3-.3c0-.1-.1-.2-.1-.3H424l-.6.2h-.3c-.1-.1-.1-.2-.1-.4v-.3l.4.2c.2.1.4-.1.4-.3s-.1-.2-.2-.3a2.7,2.7,0,0,0-.8-.7Z"/><path class="p" d="M437.9,290.3a1.6,1.6,0,0,1,.8,1,.6.6,0,0,1-.2.7c-.1.2-.3.2-.5.3h-.5v.2a.4.4,0,0,1-.4.2l-.3.2h-.4c-.1-.1-.2-.2-.1-.3a.2.2,0,0,1,.2-.2l.4-.2-1-.9a.4.4,0,0,1-.1-.3l.2-.3c.1-.1.3,0,.4.1a.4.4,0,0,0,.1-.3l.5-.3a1.2,1.2,0,0,1,1,.2Zm-.8.5c-.2,0-.3.1-.3.2s0,.2.1.2l.4.4c.1.1.2.2.3.1h.3a.1.1,0,0,0,0-.2.7.7,0,0,0-.4-.5c-.1-.1-.3-.2-.4-.1Z"/><path class="p" d="M426.2,295.6a2.2,2.2,0,0,1,.5.8.9.9,0,0,1-.1.7.5.5,0,0,1-.4.3l-.7.3-.7-.2a2.3,2.3,0,0,1-.7-1,.8.8,0,0,1,.3-.9l.5-.3A1.5,1.5,0,0,1,426.2,295.6Zm-1.3.6a.3.3,0,0,0,0,.4l.4.4h.4a.2.2,0,0,0,.2-.2c.1-.1,0-.2,0-.3a1,1,0,0,0-.5-.4h-.2C425,296,424.9,296.1,424.9,296.2Z"/><path class="p" d="M445.1,289.9l-1.4.6-3.5,1.6-.6.2-1,.4-.8.4-1,.4a.8.8,0,0,0,.6,1.4l.6-.3,1.5-.6,2.8-1.3,1.6-.7,1.9-.8a1.4,1.4,0,0,1-.6-.7,1.3,1.3,0,0,1-.1-.6Z"/><path class="q" d="M450.2,280.2l-2.1.9-2.5,1.1-2.3,1a1,1,0,0,0-.4.5.9.9,0,0,0,.4.8.6.6,0,0,0,.6,0l7.1-3.1a3.8,3.8,0,0,1,1.5-.1,2.4,2.4,0,0,1,1.5.9,3.1,3.1,0,0,1,.6,1.3,1.7,1.7,0,0,1-.1,1.2,2.6,2.6,0,0,1-1.3,1.6h-.3l-5.4,2.3-1.2.6-.4.2-.3.3a.9.9,0,0,0,0,.7.8.8,0,0,0,.9.3l.9-.4,3.1-1.3,1.3-.6,1.8-.8,1.1-.6a5.2,5.2,0,0,0,1.4-2.5,4.5,4.5,0,0,0-.3-2.3h-.1a4,4,0,0,0-1-1.5,5.1,5.1,0,0,0-1.8-.9,4.5,4.5,0,0,0-2.3.1Z"/><path class="q" d="M447.3,284.4l-.4.2-.7.3-1.2.5c-.2,0-.2.2-.1.3a.2.2,0,0,0,.3.1l4-1.7.7-.3,1.1-.4.7-.3.2-.2c0-.1-.1-.4-.3-.3h-.3l-2.3,1-.6.2-.5.2-.6.3Z"/><path class="q" d="M447.8,285.5l-2.3,1h-.2a.6.6,0,0,0,.1.4h.3l1-.5.6-.2,3-1.3.7-.3,1.2-.5c.1-.1.2-.2.2-.3l-.3-.2-1,.4-2.7,1.2-.6.2Z"/><path class="q" d="M448.1,286.7l-2.2.9c-.1.1-.1.2-.1.4h.3l1-.4.8-.3.9-.5.7-.2,3.2-1.4c.1-.1.2-.2.1-.3a.2.2,0,0,0-.2-.2l-.3.2h-.5l-.6.3-3.1,1.3Z"/><path class="r" d="M409.8,194.8a30.9,30.9,0,0,1-4.8,9.6,23.4,23.4,0,0,1-3.8,3.9,12.8,12.8,0,0,1-4.7,2.6,21.5,21.5,0,0,0,4.1-3.2,43.6,43.6,0,0,0,3.5-4l3-4.3Z"/><circle class="s" cx="144.5" cy="134.5" r="10.5"/><ellipse class="t" cx="332.5" cy="726.5" rx="218.5" ry="10.5"/><rect class="u" x="168.8" y="417" width="339.2" height="312.89"/><rect class="v" x="221.5" y="427.4" width="311.1" height="64.09"/><rect class="w" x="160.9" y="427.4" width="60.6" height="64.09"/><rect class="w" x="233.2" y="438" width="191.6" height="5.41"/><rect class="w" x="233.2" y="447.3" width="191.6" height="5.41"/><rect class="w" x="233.2" y="456.7" width="191.6" height="5.41"/><rect class="w" x="233.2" y="466.1" width="191.6" height="5.41"/><rect class="w" x="233.2" y="475.5" width="191.6" height="5.41"/><path class="x" d="M453.6,443.3a5.4,5.4,0,1,1-5.4-5.3A5.4,5.4,0,0,1,453.6,443.3Z"/><path class="x" d="M471.3,443.3a5.4,5.4,0,1,1-5.4-5.3A5.4,5.4,0,0,1,471.3,443.3Z"/><path class="u" d="M488.9,443.3a5.4,5.4,0,1,1-5.3-5.3A5.4,5.4,0,0,1,488.9,443.3Z"/><path class="x" d="M506.6,443.3a5.4,5.4,0,1,1-5.3-5.3A5.4,5.4,0,0,1,506.6,443.3Z"/><path class="n" d="M524.3,443.3a5.4,5.4,0,1,1-5.4-5.3A5.4,5.4,0,0,1,524.3,443.3Z"/><path class="x" d="M453.6,459.4a5.4,5.4,0,1,1-5.4-5.3A5.4,5.4,0,0,1,453.6,459.4Z"/><path class="n" d="M471.3,459.4a5.4,5.4,0,1,1-5.4-5.3A5.4,5.4,0,0,1,471.3,459.4Z"/><path class="x" d="M488.9,459.4a5.4,5.4,0,1,1-5.3-5.3A5.4,5.4,0,0,1,488.9,459.4Z"/><path class="n" d="M506.6,459.4a5.4,5.4,0,1,1-5.3-5.3A5.4,5.4,0,0,1,506.6,459.4Z"/><path class="x" d="M524.3,459.4a5.4,5.4,0,1,1-5.4-5.3A5.4,5.4,0,0,1,524.3,459.4Z"/><path class="n" d="M453.6,475.5a5.4,5.4,0,1,1-5.4-5.4A5.4,5.4,0,0,1,453.6,475.5Z"/><path class="x" d="M471.3,475.5a5.4,5.4,0,1,1-5.4-5.4A5.4,5.4,0,0,1,471.3,475.5Z"/><path class="x" d="M488.9,475.5a5.4,5.4,0,1,1-5.3-5.4A5.4,5.4,0,0,1,488.9,475.5Z"/><path class="x" d="M506.6,475.5a5.4,5.4,0,1,1-5.3-5.4A5.4,5.4,0,0,1,506.6,475.5Z"/><path class="u" d="M524.3,475.5a5.4,5.4,0,1,1-5.4-5.4A5.4,5.4,0,0,1,524.3,475.5Z"/><rect class="u" x="432.7" y="438" width="3.1" height="42.92"/><rect class="v" x="221.5" y="499.6" width="311.1" height="64.09"/><rect class="w" x="160.9" y="499.6" width="60.6" height="64.09"/><rect class="w" x="233.2" y="510.2" width="191.6" height="5.41"/><rect class="w" x="233.2" y="519.5" width="191.6" height="5.41"/><rect class="w" x="233.2" y="528.9" width="191.6" height="5.41"/><rect class="w" x="233.2" y="538.3" width="191.6" height="5.41"/><rect class="w" x="233.2" y="547.7" width="191.6" height="5.41"/><path class="x" d="M453.6,515.5a5.4,5.4,0,1,1-5.4-5.3A5.4,5.4,0,0,1,453.6,515.5Z"/><path class="u" d="M471.3,515.5a5.4,5.4,0,1,1-5.4-5.3A5.4,5.4,0,0,1,471.3,515.5Z"/><path class="x" d="M488.9,515.5a5.4,5.4,0,1,1-5.3-5.3A5.4,5.4,0,0,1,488.9,515.5Z"/><path class="x" d="M506.6,515.5a5.4,5.4,0,1,1-5.3-5.3A5.4,5.4,0,0,1,506.6,515.5Z"/><path class="x" d="M524.3,515.5a5.4,5.4,0,1,1-5.4-5.3A5.4,5.4,0,0,1,524.3,515.5Z"/><circle class="x" cx="448.2" cy="531.6" r="5.4"/><path class="n" d="M471.3,531.6a5.4,5.4,0,1,1-5.4-5.3A5.4,5.4,0,0,1,471.3,531.6Z"/><path class="x" d="M488.9,531.6a5.4,5.4,0,1,1-5.3-5.3A5.4,5.4,0,0,1,488.9,531.6Z"/><path class="n" d="M506.6,531.6a5.4,5.4,0,1,1-5.3-5.3A5.4,5.4,0,0,1,506.6,531.6Z"/><path class="x" d="M524.3,531.6a5.4,5.4,0,1,1-5.4-5.3A5.4,5.4,0,0,1,524.3,531.6Z"/><path class="n" d="M453.6,547.7a5.4,5.4,0,1,1-5.4-5.3A5.4,5.4,0,0,1,453.6,547.7Z"/><path class="x" d="M471.3,547.7a5.4,5.4,0,1,1-5.4-5.3A5.4,5.4,0,0,1,471.3,547.7Z"/><path class="x" d="M488.9,547.7a5.4,5.4,0,1,1-5.3-5.3A5.4,5.4,0,0,1,488.9,547.7Z"/><path class="x" d="M506.6,547.7a5.4,5.4,0,1,1-5.3-5.3A5.4,5.4,0,0,1,506.6,547.7Z"/><path class="u" d="M524.3,547.7a5.4,5.4,0,1,1-5.4-5.3A5.4,5.4,0,0,1,524.3,547.7Z"/><rect class="u" x="432.7" y="510.2" width="3.1" height="42.92"/><rect class="v" x="221.5" y="571.8" width="311.1" height="64.09"/><rect class="w" x="160.9" y="571.8" width="60.6" height="64.09"/><rect class="w" x="233.2" y="582.4" width="191.6" height="5.41"/><rect class="w" x="233.2" y="591.8" width="191.6" height="5.41"/><rect class="w" x="233.2" y="601.1" width="191.6" height="5.41"/><rect class="w" x="233.2" y="610.5" width="191.6" height="5.41"/><rect class="w" x="233.2" y="619.9" width="191.6" height="5.41"/><path class="x" d="M453.6,587.7a5.4,5.4,0,1,1-5.4-5.3A5.4,5.4,0,0,1,453.6,587.7Z"/><path class="n" d="M471.3,587.7a5.4,5.4,0,1,1-5.4-5.3A5.4,5.4,0,0,1,471.3,587.7Z"/><path class="x" d="M488.9,587.7a5.4,5.4,0,1,1-5.3-5.3A5.4,5.4,0,0,1,488.9,587.7Z"/><path class="x" d="M506.6,587.7a5.4,5.4,0,1,1-5.3-5.3A5.4,5.4,0,0,1,506.6,587.7Z"/><path class="x" d="M524.3,587.7a5.4,5.4,0,1,1-5.4-5.3A5.4,5.4,0,0,1,524.3,587.7Z"/><circle class="n" cx="448.2" cy="603.8" r="5.4"/><path class="u" d="M471.3,603.8a5.4,5.4,0,1,1-5.4-5.3A5.4,5.4,0,0,1,471.3,603.8Z"/><path class="x" d="M488.9,603.8a5.4,5.4,0,1,1-5.3-5.3A5.4,5.4,0,0,1,488.9,603.8Z"/><path class="u" d="M506.6,603.8a5.4,5.4,0,1,1-5.3-5.3A5.4,5.4,0,0,1,506.6,603.8Z"/><path class="n" d="M524.3,603.8a5.4,5.4,0,1,1-5.4-5.3A5.4,5.4,0,0,1,524.3,603.8Z"/><path class="x" d="M453.6,619.9a5.4,5.4,0,1,1-5.4-5.3A5.4,5.4,0,0,1,453.6,619.9Z"/><path class="x" d="M471.3,619.9a5.4,5.4,0,1,1-5.4-5.3A5.4,5.4,0,0,1,471.3,619.9Z"/><path class="x" d="M488.9,619.9a5.4,5.4,0,1,1-5.3-5.3A5.4,5.4,0,0,1,488.9,619.9Z"/><path class="x" d="M506.6,619.9a5.4,5.4,0,1,1-5.3-5.3A5.4,5.4,0,0,1,506.6,619.9Z"/><path class="x" d="M524.3,619.9a5.4,5.4,0,1,1-5.4-5.3A5.4,5.4,0,0,1,524.3,619.9Z"/><rect class="u" x="432.7" y="582.4" width="3.1" height="42.92"/><rect class="v" x="221.5" y="644" width="311.1" height="64.09"/><rect class="w" x="160.9" y="644" width="60.6" height="64.09"/><rect class="w" x="233.2" y="654.6" width="191.6" height="5.41"/><rect class="w" x="233.2" y="664" width="191.6" height="5.41"/><rect class="w" x="233.2" y="673.3" width="191.6" height="5.41"/><rect class="w" x="233.2" y="682.7" width="191.6" height="5.41"/><rect class="w" x="233.2" y="692.1" width="191.6" height="5.41"/><path class="n" d="M453.6,660a5.4,5.4,0,1,1-5.4-5.4A5.4,5.4,0,0,1,453.6,660Z"/><path class="x" d="M471.3,660a5.4,5.4,0,1,1-5.4-5.4A5.4,5.4,0,0,1,471.3,660Z"/><path class="x" d="M488.9,660a5.4,5.4,0,1,1-5.3-5.4A5.3,5.3,0,0,1,488.9,660Z"/><path class="x" d="M506.6,660a5.4,5.4,0,1,1-5.3-5.4A5.3,5.3,0,0,1,506.6,660Z"/><path class="x" d="M524.3,660a5.4,5.4,0,1,1-5.4-5.4A5.4,5.4,0,0,1,524.3,660Z"/><path class="u" d="M453.6,676.1a5.4,5.4,0,1,1-5.4-5.4A5.4,5.4,0,0,1,453.6,676.1Z"/><path class="x" d="M471.3,676.1a5.4,5.4,0,1,1-5.4-5.4A5.4,5.4,0,0,1,471.3,676.1Z"/><path class="n" d="M488.9,676.1a5.4,5.4,0,1,1-5.3-5.4A5.3,5.3,0,0,1,488.9,676.1Z"/><path class="u" d="M506.6,676.1a5.4,5.4,0,1,1-5.3-5.4A5.3,5.3,0,0,1,506.6,676.1Z"/><path class="x" d="M524.3,676.1a5.4,5.4,0,1,1-5.4-5.4A5.4,5.4,0,0,1,524.3,676.1Z"/><path class="x" d="M453.6,692.1a5.4,5.4,0,1,1-5.4-5.3A5.4,5.4,0,0,1,453.6,692.1Z"/><path class="u" d="M471.3,692.1a5.4,5.4,0,1,1-5.4-5.3A5.4,5.4,0,0,1,471.3,692.1Z"/><path class="x" d="M488.9,692.1a5.4,5.4,0,1,1-5.3-5.3A5.4,5.4,0,0,1,488.9,692.1Z"/><path class="x" d="M506.6,692.1a5.4,5.4,0,1,1-5.3-5.3A5.4,5.4,0,0,1,506.6,692.1Z"/><path class="n" d="M524.3,692.1a5.4,5.4,0,1,1-5.4-5.3A5.4,5.4,0,0,1,524.3,692.1Z"/><rect class="u" x="432.7" y="654.6" width="3.1" height="42.92"/><polygon class="x" points="572.4 461.2 607.1 493.5 614.9 482.6 644.8 497.5 650.7 487 609 469.5 603.7 477.9 572.4 461.2"/><polygon class="x" points="211.4 250.2 246.1 282.5 253.9 271.6 283.8 286.5 289.7 276 248 258.5 242.7 266.9 211.4 250.2"/><polygon class="x" points="716.1 417.7 779.1 433.7 771.6 450.3 810.5 473.3 802.1 487.4 751.9 453 758 441 716.1 417.7"/><polygon class="x" points="127 82 182.6 128.3 187.2 114.4 211.5 144.5 217.3 134.1 272.9 167.7 281 152.6 213.8 115.6 208.1 126 183.7 95.9 179.1 109.8 127 82"/></svg>