<svg xmlns="http://www.w3.org/2000/svg" viewBox="0 0 1366 1108"><defs><style>.a{fill:#686868;}.b{fill:#fff7eb;opacity:0.54;}.c{fill:#f8f3eb;}.d,.k{fill:#fc0;}.d{fill-opacity:0.46;stroke-width:6.03px;}.d,.o{stroke:#0d4d8f;stroke-miterlimit:10;}.e{fill:#263c7a;}.f{fill:#fff;}.g{fill:#fe6c2c;}.h{fill:#ddd;}.i,.o{fill:red;}.j{fill:#f4f4f4;}.l{fill:#ff8500;}.l,.m{opacity:0.32;}.m{fill:#d1d1d1;}.n{fill:#232220;}.o{stroke-width:4.9px;}</style></defs><rect class="a" x="287.2" y="285.9" width="819.5" height="478.05"/><rect class="b" x="319.4" y="314" width="757.2" height="419.8"/><path class="a" d="M288.4,761.9,209,948.7s-4.1,6-4.1,16.1,973.5,6,973.5,6,6.1-14.1,0-32.2S1105,761.9,1105,761.9Z"/><polygon class="c" points="1111.9 882.4 282.1 882.4 323.4 784 1070.6 784 1111.9 882.4"/><polygon class="c" points="794.1 944.7 569.8 944.7 593.5 895.1 770.4 895.1 794.1 944.7"/><rect class="c" x="349.5" y="435.5" width="684.9" height="178.77" rx="24.8"/><rect class="c" x="395.7" y="338.1" width="186.8" height="76.33" rx="8.5"/><rect class="c" x="361.6" y="631.3" width="148.6" height="82.35" rx="7.8"/><rect class="c" x="532.3" y="631.3" width="148.6" height="82.35" rx="7.8"/><rect class="c" x="703" y="631.3" width="148.6" height="82.35" rx="7.8"/><rect class="c" x="873.8" y="631.3" width="148.6" height="82.35" rx="7.8"/><rect class="c" x="644.4" y="344.1" width="372" height="62.27" rx="10.8"/><circle class="d" cx="1096.7" cy="310" r="210.3"/><path class="e" d="M943.7,325.1a154.6,154.6,0,0,1,15.6-60c25.3-50.8,65-81,118.8-89.8,49.3-8.1,103.1,10.2,138.3,46.1-.2,1.1-1.3,1.2-2,1.5-13.3,5.8-26.6,11.6-39.9,17.6a3.4,3.4,0,0,1-4.3-.8c-27.4-25.5-59.4-36.9-95.8-34.7-63.4,3.7-117.5,56.8-128.7,122.8-.5,2.6-.9,5.2-1.3,7.8-1,0-.9-.8-.9-1.4C943.6,331.2,943.2,328.1,943.7,325.1Z"/><circle class="f" cx="1078.6" cy="312" r="42.2"/><path class="e" d="M1241.3,346.6c-9.1,0-18.2-.1-27.3,0-2,0-2.5-.5-2.4-2.8,1.7-26.3-4.3-50.6-17.2-73.1-1.3-2.4-.9-3.3,1.2-4.6,12-7.8,24-15.7,35.9-23.7,1.7-1.1,2.4-1.1,3.7.6a193.8,193.8,0,0,1,33.5,81.1c1.1,6.4,1.7,12.9,2.2,19.3.3,2.8-.6,3.2-2.9,3.2h-26.7Z"/><path class="g" d="M1272.5,206c-.4,1.4-1.6,1.9-2.6,2.5-61.2,40.3-122.2,81-183.9,120.5-5.5,3.5-11.2,5-17.6,3.4-11.6-3.1-16.6-15.2-10.9-26.3,2.8-5.6,7.3-9.1,12.7-11.5l91.7-40.7c36-15.9,72.1-31.6,108.1-47.4C1270.8,206.1,1271.5,205.5,1272.5,206Z"/><rect class="h" x="200.3" y="532.8" width="153.7" height="30.74" rx="10.1"/><path class="i" d="M186.7,193c0-3.4,29-93.9,90.5-128.1,0,0,47.8,17.1,92.2,128.1Z"/><path class="j" d="M185,198.1s-61.5,196.4-12,314.3c0,0,8.6,34.1,37.6,29l140,1.7s23.9,0,35.9-47.8,22.2-186.2-15.4-297.2Z"/><path class="i" d="M51.8,567S58.6,464.5,91,425.3s61.5-42.7,61.5-42.7-6.8,35.8,10.3,100.7C162.8,483.3,101.3,497,51.8,567Z"/><path class="i" d="M502.6,567s-6.8-102.5-39.2-141.7-61.5-42.7-61.5-42.7-.2,33.8-10.3,100.7C391.6,483.3,453.1,497,502.6,567Z"/><rect class="j" x="200.3" y="565.3" width="153.7" height="15.37"/><path class="k" d="M219.1,582.4s-25.6,35.8,6.9,80.2a75.1,75.1,0,0,1,5.1-13.6s15.4,56.3,49.5,85.4l1.7,3.4s30.8-39.3,44.4-95.7l1.7,24s29.1-51.3,5.2-83.7Z"/><path class="k" d="M219.1,566.3s-25.6,35.9,6.9,80.3a74.6,74.6,0,0,1,5.1-13.7s15.4,56.4,49.5,85.4l1.7,3.4s30.8-39.3,44.4-95.6l1.7,23.9s29.1-51.2,5.2-83.7Z"/><path class="l" d="M328.8,650.3l-1.7-22.6c-13.8,53.3-44.8,90.5-44.8,90.5l-1.7-3.2c-34.5-27.5-50-80.9-50-80.9a69.7,69.7,0,0,0-5.1,13c-15.5-19.9-17.9-37.9-16.1-51.4,1.4,10.8,5.9,23.1,16.1,36.1a70.3,70.3,0,0,1,5.1-12.9s15.5,53.4,50,80.9l1.7,3.2s31-37.2,44.8-90.6l1.7,22.7s11.8-19.5,14.2-41.6C346.5,621,328.8,650.3,328.8,650.3Z"/><path class="i" d="M273.8,377.4l-15.4,34.2s-1.7,112.7,15.4,175.9c0,0,18.8-140,15.4-175.9C289.2,411.6,280.6,387.7,273.8,377.4Z"/><path class="m" d="M188.8,233.6s-44.2,91.8-22.1,176.8V383.8q0-18.2,1.8-36.3c1.8-17.7,4.2-42,4.3-42.3,4-29.1,6.3-30.4,9.3-43.3Z"/><path class="m" d="M379.6,424.4s0,52.3-8,70.3-25.8,37.1-34,38.6c1.2-.2,3-2.6,3.8-3.3a96.6,96.6,0,0,0,9-10.2,74,74,0,0,0,11.9-21c2.5-7,3.8-14.3,5.4-21.5s4-13.8,6-20.7C376.7,446.2,379.6,435.3,379.6,424.4Z"/><path class="n" d="M514,505.4h5.5l6.1,20.2,7.5-18.8h.2l7.5,18.8,6-20.2h5.6L542,538.5h-.5l-8.4-19.8-8.2,19.8h-.5Z"/><path class="n" d="M556,505.4h5.2v32.8H556Z"/><path class="n" d="M593.8,505.4v33.3h-.2l-21-21.8v21.3h-5.1V504.9h.2l20.9,21.8V505.4Z"/><path class="n" d="M626.3,521.8c0,10.1-6.5,16.4-16.9,16.4h-9.3V505.4h9.3C619.8,505.4,626.3,511.7,626.3,521.8Zm-5.2,0c0-6.9-4.5-11.3-11.7-11.3h-4.2v22.6h4.3C616.6,533.1,621.1,528.7,621.1,521.8Z"/><path class="n" d="M629.5,521.8a16.9,16.9,0,1,1,16.9,16.9A16.9,16.9,0,0,1,629.5,521.8Zm28.6,0a11.8,11.8,0,1,0-11.7,11.7A11.8,11.8,0,0,0,658.1,521.8Z"/><path class="n" d="M663.1,505.4h5.6l6.1,20.2,7.4-18.8h.3l7.4,18.8,6.1-20.2h5.5l-10.4,33.1h-.4l-8.4-19.8L674,538.5h-.4Z"/><path class="n" d="M741.8,505.4v32.8h-5.1V524.3H722.5v13.9h-5.1V505.4h5.1v13.8h14.2V505.4Z"/><path class="n" d="M746.5,521.8a17,17,0,1,1,16.9,16.9A17,17,0,0,1,746.5,521.8Zm28.7,0a11.8,11.8,0,1,0-11.8,11.7A11.8,11.8,0,0,0,775.2,521.8Z"/><path class="n" d="M783.2,532.4l4.1-2.9a8.1,8.1,0,0,0,7.3,4c3.7,0,6.5-1.7,6.5-4.2s-4.3-4.9-8.1-6.5-8.1-3.7-8.1-8.9,4.6-9.1,10.5-9.1,8.2,2.3,9.5,5.9l-3.8,2.6a6.1,6.1,0,0,0-5.7-3.4c-3,0-5.4,1.9-5.4,4.2s3.1,3.4,7,5.1,9.2,4.8,9.2,10-5,9.5-11.6,9.5S785.1,536.2,783.2,532.4Z"/><path class="n" d="M831.2,510.5h-8.8v27.7h-5.2V510.5h-8.7v-5.1h22.7Z"/><path class="n" d="M835.3,505.4h5.1v32.8h-5.1Z"/><path class="n" d="M873,505.4v33.3h-.2l-21-21.8v21.3h-5.1V504.9h.3l20.9,21.8V505.4Z"/><path class="n" d="M910.4,522.9c0,9.7-7.1,15.8-15.6,15.8a16.9,16.9,0,1,1-.1-33.8,18.2,18.2,0,0,1,11.9,5l-2.9,4.3a13.6,13.6,0,0,0-9.1-4.1A11.8,11.8,0,0,0,883,521.8c0,6.5,5.1,11.7,12.1,11.7s9.8-3.4,9.8-8.4H894.8v-4.7h15.5A20.9,20.9,0,0,1,910.4,522.9Z"/><circle class="o" cx="278.2" cy="266.8" r="39.2"/></svg>