<svg xmlns="http://www.w3.org/2000/svg" xmlns:xlink="http://www.w3.org/1999/xlink" viewBox="0 0 149.818 75.086"><defs><linearGradient id="linear-gradient" x1="7.05" y1="51.484" x2="24.566" y2="51.484" gradientUnits="userSpaceOnUse"><stop offset="0" stop-color="#92278f"/><stop offset="1" stop-color="#27aae1"/></linearGradient><linearGradient id="linear-gradient-2" x1="29.217" y1="51.503" x2="45.484" y2="51.503" xlink:href="#linear-gradient"/><linearGradient id="linear-gradient-3" x1="50.172" y1="51.408" x2="69.428" y2="51.408" xlink:href="#linear-gradient"/><linearGradient id="linear-gradient-4" x1="70.976" y1="51.503" x2="94.469" y2="51.503" xlink:href="#linear-gradient"/><linearGradient id="linear-gradient-5" x1="97.945" y1="51.503" x2="114.212" y2="51.503" xlink:href="#linear-gradient"/><linearGradient id="linear-gradient-6" x1="118.9" y1="51.408" x2="138.155" y2="51.408" xlink:href="#linear-gradient"/><linearGradient id="linear-gradient-7" x1="29.217" y1="47.082" x2="33.308" y2="47.082" xlink:href="#linear-gradient"/></defs><g id="Layer_2" data-name="Layer 2"><g id="Layer_1-2" data-name="Layer 1"><path d="M149.405,65.283c0,1.385-31.344,2.509-74.685,2.509S0,66.772,0,65.387s31.38-2.613,74.72-2.613S149.405,63.9,149.405,65.283Z" fill="#7748bc"/><path d="M33.347,13.435a1.644,1.644,0,1,1-1.57-1.741A1.651,1.651,0,0,1,33.347,13.435Z" fill="#fff"/><path d="M37.424,12.435a2.285,2.285,0,0,1-.689-1.941c.064-.423,1.233-1.157,1.233-1.157L36.224,7.412s-.817,1.126-1.234,1.156a2.079,2.079,0,0,1-1.753-.83c-.247-.344.073-1.7.073-1.7l-2.574-.114s.2,1.382-.072,1.7a1.769,1.769,0,0,1-1.609.557c-.412-.084-1.077-1.3-1.077-1.3L26.005,8.561s1.067.878,1.078,1.3a2.415,2.415,0,0,1-.946,1.929c-.342.248-1.677-.094-1.677-.094l-.143,2.614s1.359-.19,1.672.093a2.291,2.291,0,0,1,.689,1.942c-.064.421-1.234,1.156-1.234,1.156l1.744,1.925s.816-1.126,1.235-1.155a2.081,2.081,0,0,1,1.753.829c.248.345-.072,1.7-.072,1.7l2.573.112s-.2-1.382.071-1.7a1.777,1.777,0,0,1,1.61-.556c.411.085,1.078,1.306,1.078,1.306l1.972-1.684s-1.067-.879-1.08-1.3a2.424,2.424,0,0,1,.947-1.929c.343-.247,1.678.1,1.678.1L39.1,12.53S37.737,12.718,37.424,12.435Zm-5.9,5.259a4.336,4.336,0,1,1,4.445-4.145A4.307,4.307,0,0,1,31.524,17.694Z" fill="#fc76b2"/><path d="M34.965,13.565a3.26,3.26,0,1,1-3.116-3.454A3.282,3.282,0,0,1,34.965,13.565Z" fill="#e563a4"/><path d="M140.128,15.392a1.355,1.355,0,1,1-1.294-1.435A1.361,1.361,0,0,1,140.128,15.392Z" fill="#fff"/><path d="M143.488,14.568a1.88,1.88,0,0,1-.567-1.6c.053-.348,1.015-.953,1.015-.953L142.5,10.428s-.674.928-1.018.953a1.717,1.717,0,0,1-1.445-.684c-.2-.284.061-1.4.061-1.4L137.976,9.2s.167,1.139-.059,1.4a1.459,1.459,0,0,1-1.326.459c-.34-.068-.888-1.075-.888-1.075l-1.626,1.387s.88.724.889,1.076a2,2,0,0,1-.78,1.59c-.282.2-1.383-.078-1.383-.078l-.118,2.154s1.121-.156,1.379.077a1.889,1.889,0,0,1,.567,1.6c-.052.347-1.017.952-1.017.952l1.438,1.587s.672-.928,1.018-.952a1.717,1.717,0,0,1,1.445.683c.2.285-.059,1.4-.059,1.4l2.12.093s-.167-1.139.058-1.405a1.465,1.465,0,0,1,1.327-.458c.339.07.889,1.076.889,1.076l1.625-1.388s-.879-.724-.89-1.075a2,2,0,0,1,.781-1.59c.282-.2,1.383.078,1.383.078l.117-2.153S143.746,14.8,143.488,14.568ZM138.626,18.9a3.574,3.574,0,1,1,3.663-3.417A3.551,3.551,0,0,1,138.626,18.9Z" fill="#fc76b2"/><path d="M141.461,15.5a2.686,2.686,0,1,1-2.568-2.846A2.7,2.7,0,0,1,141.461,15.5Z" fill="#e563a4"/><path d="M144.07,30.819a1.644,1.644,0,1,1-1.571-1.742A1.653,1.653,0,0,1,144.07,30.819Z" fill="#bfacf7"/><path d="M148.146,29.819a2.287,2.287,0,0,1-.689-1.942c.064-.423,1.233-1.156,1.233-1.156L146.946,24.8s-.817,1.126-1.234,1.155a2.08,2.08,0,0,1-1.753-.829c-.247-.345.073-1.7.073-1.7l-2.574-.113s.2,1.382-.071,1.7a1.772,1.772,0,0,1-1.61.557c-.412-.083-1.077-1.3-1.077-1.3l-1.973,1.684s1.067.878,1.079,1.3a2.419,2.419,0,0,1-.947,1.93c-.341.247-1.677-.094-1.677-.094l-.143,2.613s1.36-.189,1.672.093a2.292,2.292,0,0,1,.689,1.942c-.063.422-1.233,1.156-1.233,1.156l1.743,1.926s.816-1.126,1.235-1.156a2.087,2.087,0,0,1,1.754.829c.247.346-.073,1.7-.073,1.7l2.573.113s-.2-1.382.071-1.7a1.778,1.778,0,0,1,1.61-.557c.411.085,1.079,1.306,1.079,1.306l1.971-1.684s-1.067-.879-1.08-1.3A2.423,2.423,0,0,1,148,32.432c.343-.248,1.678.095,1.678.095l.143-2.613S148.459,30.1,148.146,29.819Zm-5.9,5.258a4.336,4.336,0,1,1,4.445-4.144A4.306,4.306,0,0,1,142.246,35.077Z" fill="#bfacf7"/><path d="M145.687,30.948a3.26,3.26,0,1,1-3.116-3.453A3.282,3.282,0,0,1,145.687,30.948Z" fill="#bfacf7"/><path d="M19.3,7.337a1.136,1.136,0,1,1-1.085-1.2A1.141,1.141,0,0,1,19.3,7.337Z" fill="#bfacf7"/><path d="M22.118,6.646a1.576,1.576,0,0,1-.477-1.341c.045-.292.852-.8.852-.8l-1.2-1.33s-.565.778-.853.8A1.435,1.435,0,0,1,19.225,3.4c-.171-.238.05-1.176.05-1.176L17.5,2.146s.139.955-.05,1.178a1.223,1.223,0,0,1-1.112.384c-.284-.057-.744-.9-.744-.9L14.228,3.97s.738.607.745.9A1.668,1.668,0,0,1,14.319,6.2c-.236.171-1.159-.065-1.159-.065l-.1,1.806s.94-.131,1.156.064a1.586,1.586,0,0,1,.476,1.342c-.044.291-.853.8-.853.8l1.205,1.33s.564-.778.853-.8a1.437,1.437,0,0,1,1.212.573c.171.238-.05,1.176-.05,1.176l1.778.078s-.141-.955.048-1.177A1.229,1.229,0,0,1,20,10.947c.284.059.745.9.745.9l1.363-1.163s-.738-.607-.747-.9a1.675,1.675,0,0,1,.655-1.333c.236-.171,1.159.066,1.159.066l.1-1.806S22.333,6.842,22.118,6.646ZM18.041,10.28a3,3,0,1,1,3.071-2.864A2.976,2.976,0,0,1,18.041,10.28Z" fill="#bfacf7"/><path d="M20.418,7.427a2.252,2.252,0,1,1-2.153-2.386A2.266,2.266,0,0,1,20.418,7.427Z" fill="#bfacf7"/><path d="M135.382,51.19a2.915,2.915,0,0,1-2.889,2.938H71.776a2.916,2.916,0,0,1-2.891-2.938V12.37a2.917,2.917,0,0,1,2.891-2.94h60.717a2.916,2.916,0,0,1,2.889,2.94Z" fill="#fff1d6"/><polygon points="111.713 63.827 92.675 63.827 93.833 47.077 109.978 47.077 111.713 63.827" fill="#252956"/><path d="M135.382,51.19a2.915,2.915,0,0,1-2.889,2.938H71.776a2.916,2.916,0,0,1-2.891-2.938V12.37a2.917,2.917,0,0,1,2.891-2.94h60.717a2.916,2.916,0,0,1,2.889,2.94Z" fill="#252956"/><rect x="71.488" y="12.402" width="60.8" height="31.735" fill="#6265d8"/><path d="M71.776,54.128h60.717a2.915,2.915,0,0,0,2.889-2.938V46.782h-66.5V51.19A2.916,2.916,0,0,0,71.776,54.128Z" fill="#191d3a"/><rect x="83.402" y="61.183" width="36.68" height="2.644" fill="#191d3a"/><path d="M87.35,18.262a3.869,3.869,0,1,1-3.869-3.931A3.9,3.9,0,0,1,87.35,18.262Z" fill="#dbd4f9"/><path d="M84.919,18.262A1.437,1.437,0,1,1,83.481,16.8,1.449,1.449,0,0,1,84.919,18.262Z" fill="#b47bed"/><path d="M87.35,32.193a3.868,3.868,0,1,1-3.869-3.93A3.9,3.9,0,0,1,87.35,32.193Z" fill="#dbd4f9"/><path d="M84.919,32.193a1.437,1.437,0,1,1-1.438-1.461A1.449,1.449,0,0,1,84.919,32.193Z" fill="#b47bed"/><polygon points="124.825 22.799 105.781 22.723 105.781 18.628 83.481 18.628 83.481 17.894 106.503 17.894 106.503 21.993 124.828 22.066 124.825 22.799" fill="#b47bed"/><polygon points="106.503 33.066 83.481 33.066 83.481 32.332 105.781 32.332 105.781 28.236 124.825 28.161 124.828 28.894 106.503 28.967 106.503 33.066" fill="#b47bed"/><rect x="10.5" y="23.632" width="24.72" height="25.126" fill="#fc76b2"/><rect x="10.5" y="23.632" width="24.72" height="2.373" fill="#e85da3"/><path d="M12.5,24.9a.479.479,0,1,1-.474-.549A.516.516,0,0,1,12.5,24.9Z" fill="#f5f9fc"/><path d="M13.92,24.9a.479.479,0,1,1-.474-.549A.516.516,0,0,1,13.92,24.9Z" fill="#f5f9fc"/><path d="M15.342,24.9a.48.48,0,1,1-.475-.549A.515.515,0,0,1,15.342,24.9Z" fill="#f5f9fc"/><rect x="11.55" y="28.086" width="22.407" height="4.199" fill="#fcb6d9"/><rect x="11.55" y="42.599" width="22.407" height="4.198" fill="#fcb6d9"/><rect x="11.55" y="33.002" width="10.715" height="3.718" fill="#fcb6d9"/><rect x="11.55" y="37.372" width="10.715" height="3.719" fill="#fcb6d9"/><rect x="24.033" y="33.002" width="9.924" height="8.089" fill="#fcb6d9"/><rect x="18.805" y="15.381" width="26.77" height="49.686" fill="#50545f"/><rect x="22.109" y="17.648" width="22.013" height="4.138" fill="#2f3543"/><rect x="22.109" y="25.743" width="22.013" height="4.137" fill="#2f3543"/><rect x="22.109" y="30.6" width="22.013" height="4.138" fill="#2f3543"/><rect x="19.778" y="21.786" width="24.344" height="3.957" fill="#50545f"/><rect x="19.778" y="40.134" width="24.344" height="3.957" fill="#50545f"/><rect x="20.642" y="22.641" width="23.48" height="2.248" fill="#130f40"/><rect x="22.109" y="44.091" width="22.013" height="4.138" fill="#2f3543"/><rect x="22.109" y="35.997" width="22.013" height="4.137" fill="#2f3543"/><rect x="22.109" y="48.948" width="22.013" height="4.137" fill="#2f3543"/><rect x="22.109" y="53.805" width="22.013" height="4.138" fill="#2f3543"/><rect x="22.109" y="58.662" width="22.013" height="4.137" fill="#2f3543"/><rect x="20.642" y="40.988" width="23.48" height="2.249" fill="#130f40"/><rect x="27.031" y="18.414" width="16.1" height="2.563" fill="#130f40"/><rect x="22.778" y="18.414" width="0.282" height="2.563" fill="#7beb9d"/><rect x="23.662" y="18.414" width="0.283" height="2.563" fill="#7beb9d"/><rect x="24.546" y="18.414" width="0.282" height="2.563" fill="#7beb9d"/><rect x="25.582" y="18.414" width="0.283" height="2.563" fill="#2dade0"/><rect x="22.778" y="26.75" width="0.282" height="0.686" fill="#7beb9d"/><rect x="23.662" y="26.75" width="0.283" height="0.686" fill="#7beb9d"/><rect x="24.546" y="26.75" width="0.282" height="0.686" fill="#7beb9d"/><rect x="25.582" y="26.75" width="0.283" height="0.686" fill="#2dade0"/><rect x="22.778" y="28.369" width="0.282" height="0.686" fill="#7beb9d"/><rect x="23.662" y="28.369" width="0.283" height="0.686" fill="#7beb9d"/><rect x="24.546" y="28.369" width="0.282" height="0.686" fill="#7beb9d"/><rect x="25.582" y="28.369" width="0.283" height="0.686" fill="#2dade0"/><rect x="22.778" y="31.494" width="0.282" height="0.686" fill="#7beb9d"/><rect x="23.662" y="31.494" width="0.283" height="0.686" fill="#7beb9d"/><rect x="24.546" y="31.494" width="0.282" height="0.686" fill="#7beb9d"/><rect x="25.582" y="31.494" width="0.283" height="0.686" fill="#2dade0"/><rect x="22.778" y="33.113" width="0.282" height="0.686" fill="#7beb9d"/><rect x="23.662" y="33.113" width="0.283" height="0.686" fill="#7beb9d"/><rect x="24.546" y="33.113" width="0.282" height="0.686" fill="#7beb9d"/><rect x="25.582" y="33.113" width="0.283" height="0.686" fill="#2dade0"/><rect x="22.778" y="36.891" width="0.282" height="0.686" fill="#7beb9d"/><rect x="23.662" y="36.891" width="0.283" height="0.686" fill="#7beb9d"/><rect x="24.546" y="36.891" width="0.282" height="0.686" fill="#7beb9d"/><rect x="25.582" y="36.891" width="0.283" height="0.686" fill="#2dade0"/><rect x="22.778" y="38.51" width="0.282" height="0.686" fill="#7beb9d"/><rect x="23.662" y="38.51" width="0.283" height="0.686" fill="#7beb9d"/><rect x="24.546" y="38.51" width="0.282" height="0.686" fill="#7beb9d"/><rect x="25.582" y="38.51" width="0.283" height="0.686" fill="#2dade0"/><rect x="22.778" y="44.985" width="0.282" height="0.686" fill="#7beb9d"/><rect x="23.662" y="44.985" width="0.283" height="0.686" fill="#7beb9d"/><rect x="24.546" y="44.985" width="0.282" height="0.686" fill="#7beb9d"/><rect x="25.582" y="44.985" width="0.283" height="0.686" fill="#2dade0"/><rect x="22.778" y="46.604" width="0.282" height="0.686" fill="#7beb9d"/><rect x="23.662" y="46.604" width="0.283" height="0.686" fill="#7beb9d"/><rect x="24.546" y="46.604" width="0.282" height="0.686" fill="#7beb9d"/><rect x="25.582" y="46.604" width="0.283" height="0.686" fill="#2dade0"/><rect x="22.778" y="49.842" width="0.282" height="0.686" fill="#7beb9d"/><rect x="23.662" y="49.842" width="0.283" height="0.686" fill="#7beb9d"/><rect x="24.546" y="49.842" width="0.282" height="0.686" fill="#7beb9d"/><rect x="25.582" y="49.842" width="0.283" height="0.686" fill="#2dade0"/><rect x="22.778" y="51.462" width="0.282" height="0.686" fill="#7beb9d"/><rect x="23.662" y="51.462" width="0.283" height="0.686" fill="#7beb9d"/><rect x="24.546" y="51.462" width="0.282" height="0.686" fill="#7beb9d"/><rect x="25.582" y="51.462" width="0.283" height="0.686" fill="#2dade0"/><rect x="22.778" y="54.699" width="0.282" height="0.686" fill="#7beb9d"/><rect x="23.662" y="54.699" width="0.283" height="0.686" fill="#7beb9d"/><rect x="24.546" y="54.699" width="0.282" height="0.686" fill="#7beb9d"/><rect x="25.582" y="54.699" width="0.283" height="0.686" fill="#2dade0"/><rect x="22.778" y="56.319" width="0.282" height="0.686" fill="#7beb9d"/><rect x="23.662" y="56.319" width="0.283" height="0.686" fill="#7beb9d"/><rect x="24.546" y="56.319" width="0.282" height="0.686" fill="#7beb9d"/><rect x="25.582" y="56.319" width="0.283" height="0.686" fill="#2dade0"/><rect x="22.778" y="59.556" width="0.282" height="0.686" fill="#7beb9d"/><rect x="23.662" y="59.556" width="0.283" height="0.686" fill="#7beb9d"/><rect x="24.546" y="59.556" width="0.282" height="0.686" fill="#7beb9d"/><rect x="25.582" y="59.556" width="0.283" height="0.686" fill="#2dade0"/><rect x="22.778" y="61.174" width="0.282" height="0.686" fill="#7beb9d"/><rect x="23.662" y="61.174" width="0.283" height="0.686" fill="#7beb9d"/><rect x="24.546" y="61.174" width="0.282" height="0.686" fill="#7beb9d"/><rect x="25.582" y="61.174" width="0.283" height="0.686" fill="#2dade0"/><rect x="27.031" y="26.508" width="16.1" height="2.564" fill="#130f40"/><rect x="27.031" y="31.365" width="16.1" height="2.563" fill="#130f40"/><rect x="27.031" y="36.761" width="16.1" height="2.563" fill="#130f40"/><rect x="27.031" y="44.856" width="16.1" height="2.563" fill="#130f40"/><rect x="27.031" y="49.713" width="16.1" height="2.564" fill="#130f40"/><rect x="27.031" y="54.57" width="16.1" height="2.563" fill="#130f40"/><rect x="27.031" y="59.427" width="16.1" height="2.563" fill="#130f40"/><rect x="27.667" y="19.043" width="14.827" height="0.45" fill="#2dade0"/><rect x="27.667" y="19.808" width="14.827" height="0.45" fill="#2dade0"/><rect x="27.667" y="27.138" width="14.827" height="0.45" fill="#2dade0"/><rect x="27.667" y="27.903" width="14.827" height="0.45" fill="#2dade0"/><rect x="27.667" y="31.995" width="14.827" height="0.45" fill="#2dade0"/><rect x="27.667" y="32.759" width="14.827" height="0.45" fill="#2dade0"/><rect x="27.667" y="37.391" width="14.827" height="0.449" fill="#2dade0"/><rect x="27.667" y="38.155" width="14.827" height="0.45" fill="#2dade0"/><rect x="27.667" y="45.485" width="14.827" height="0.45" fill="#2dade0"/><rect x="27.667" y="46.25" width="14.827" height="0.45" fill="#2dade0"/><rect x="27.667" y="50.342" width="14.827" height="0.45" fill="#2dade0"/><rect x="27.667" y="51.108" width="14.827" height="0.45" fill="#2dade0"/><rect x="27.667" y="55.2" width="14.827" height="0.449" fill="#2dade0"/><rect x="27.667" y="55.964" width="14.827" height="0.45" fill="#2dade0"/><rect x="27.667" y="60.056" width="14.827" height="0.45" fill="#2dade0"/><rect x="27.667" y="60.821" width="14.827" height="0.45" fill="#2dade0"/><rect x="21.213" y="23.282" width="22.434" height="1.113" fill="#2dade0"/><rect x="21.634" y="23.619" width="21.658" height="0.405" fill="#fe839c"/><rect x="21.355" y="41.629" width="22.261" height="1.113" fill="#2dade0"/><rect x="21.773" y="41.967" width="21.489" height="0.404" fill="#fe839c"/><rect x="45.575" y="15.381" width="7.089" height="49.686" fill="#2f3543"/><rect x="48.751" y="30.805" width="15.819" height="33.968" fill="#6265d8"/><rect x="60.879" y="30.805" width="5.417" height="33.942" fill="#4f58c1"/><rect x="49.916" y="32.236" width="9.844" height="1.385" fill="#130f40"/><path d="M50.85,32.933a.286.286,0,1,1-.284-.317A.3.3,0,0,1,50.85,32.933Z" fill="#2dade0"/><path d="M51.759,32.933a.286.286,0,1,1-.284-.317A.3.3,0,0,1,51.759,32.933Z" fill="#2dade0"/><path d="M52.667,32.933a.286.286,0,1,1-.284-.317A.3.3,0,0,1,52.667,32.933Z" fill="#2dade0"/><rect x="53.235" y="32.616" width="6.134" height="0.634" fill="#fe839c"/><rect x="49.916" y="33.925" width="9.844" height="1.386" fill="#130f40"/><path d="M50.85,34.623a.286.286,0,1,1-.284-.317A.3.3,0,0,1,50.85,34.623Z" fill="#2dade0"/><path d="M51.759,34.623a.286.286,0,1,1-.284-.317A.3.3,0,0,1,51.759,34.623Z" fill="#2dade0"/><path d="M52.667,34.623a.286.286,0,1,1-.284-.317A.3.3,0,0,1,52.667,34.623Z" fill="#2dade0"/><rect x="58.801" y="34.306" width="0.568" height="0.634" fill="#fe839c"/><rect x="55.948" y="34.306" width="2.449" height="0.634" fill="#fe839c"/><rect x="53.235" y="34.306" width="2.134" height="0.634" fill="#fe839c"/><rect x="49.916" y="35.954" width="9.844" height="2.581" fill="#130f40"/><rect x="50.282" y="36.485" width="9.087" height="0.298" fill="#2dade0"/><rect x="50.282" y="37.095" width="9.087" height="0.298" fill="#2dade0"/><rect x="50.282" y="37.705" width="9.087" height="0.297" fill="#2dade0"/><rect x="49.916" y="39.382" width="9.844" height="1.386" fill="#130f40"/><path d="M50.85,40.079a.286.286,0,1,1-.284-.316A.3.3,0,0,1,50.85,40.079Z" fill="#2dade0"/><path d="M51.759,40.079a.286.286,0,1,1-.284-.316A.3.3,0,0,1,51.759,40.079Z" fill="#2dade0"/><path d="M52.667,40.079a.286.286,0,1,1-.284-.316A.3.3,0,0,1,52.667,40.079Z" fill="#2dade0"/><rect x="53.235" y="39.763" width="6.134" height="0.633" fill="#fe839c"/><rect x="49.916" y="41.072" width="9.844" height="1.386" fill="#130f40"/><path d="M50.85,41.77a.286.286,0,1,1-.284-.317A.3.3,0,0,1,50.85,41.77Z" fill="#2dade0"/><path d="M51.759,41.77a.286.286,0,1,1-.284-.317A.3.3,0,0,1,51.759,41.77Z" fill="#2dade0"/><path d="M52.667,41.77a.286.286,0,1,1-.284-.317A.3.3,0,0,1,52.667,41.77Z" fill="#2dade0"/><rect x="58.801" y="41.453" width="0.568" height="0.633" fill="#fe839c"/><rect x="55.948" y="41.453" width="2.449" height="0.633" fill="#fe839c"/><rect x="53.235" y="41.453" width="2.134" height="0.633" fill="#fe839c"/><rect x="49.916" y="43.1" width="9.844" height="2.582" fill="#130f40"/><rect x="50.282" y="43.632" width="9.087" height="0.297" fill="#2dade0"/><rect x="50.282" y="44.242" width="9.087" height="0.299" fill="#2dade0"/><rect x="50.282" y="44.852" width="9.087" height="0.297" fill="#2dade0"/><rect x="49.916" y="46.529" width="9.844" height="1.385" fill="#130f40"/><path d="M50.85,47.226a.286.286,0,1,1-.284-.316A.3.3,0,0,1,50.85,47.226Z" fill="#2dade0"/><path d="M51.759,47.226a.286.286,0,1,1-.284-.316A.3.3,0,0,1,51.759,47.226Z" fill="#2dade0"/><path d="M52.667,47.226a.286.286,0,1,1-.284-.316A.3.3,0,0,1,52.667,47.226Z" fill="#2dade0"/><rect x="53.235" y="46.91" width="6.134" height="0.633" fill="#fe839c"/><rect x="49.916" y="48.218" width="9.844" height="1.386" fill="#130f40"/><path d="M50.85,48.916a.286.286,0,1,1-.284-.317A.3.3,0,0,1,50.85,48.916Z" fill="#2dade0"/><path d="M51.759,48.916a.286.286,0,1,1-.284-.317A.3.3,0,0,1,51.759,48.916Z" fill="#2dade0"/><path d="M52.667,48.916a.286.286,0,1,1-.284-.317A.3.3,0,0,1,52.667,48.916Z" fill="#2dade0"/><rect x="58.801" y="48.599" width="0.568" height="0.634" fill="#fe839c"/><rect x="55.948" y="48.599" width="2.449" height="0.634" fill="#fe839c"/><rect x="53.235" y="48.599" width="2.134" height="0.634" fill="#fe839c"/><rect x="49.916" y="50.247" width="9.844" height="2.581" fill="#130f40"/><rect x="50.282" y="50.779" width="9.087" height="0.298" fill="#2dade0"/><rect x="50.282" y="51.389" width="9.087" height="0.297" fill="#2dade0"/><rect x="50.282" y="51.999" width="9.087" height="0.297" fill="#2dade0"/><rect x="49.916" y="53.675" width="9.844" height="1.386" fill="#130f40"/><path d="M50.85,54.373a.286.286,0,1,1-.284-.317A.3.3,0,0,1,50.85,54.373Z" fill="#2dade0"/><path d="M51.759,54.373a.286.286,0,1,1-.284-.317A.3.3,0,0,1,51.759,54.373Z" fill="#2dade0"/><path d="M52.667,54.373a.286.286,0,1,1-.284-.317A.3.3,0,0,1,52.667,54.373Z" fill="#2dade0"/><rect x="53.235" y="54.056" width="6.134" height="0.633" fill="#fe839c"/><rect x="49.916" y="55.365" width="9.844" height="1.386" fill="#130f40"/><path d="M50.85,56.062a.286.286,0,1,1-.284-.316A.3.3,0,0,1,50.85,56.062Z" fill="#2dade0"/><path d="M51.759,56.062a.286.286,0,1,1-.284-.316A.3.3,0,0,1,51.759,56.062Z" fill="#2dade0"/><path d="M52.667,56.062a.286.286,0,1,1-.284-.316A.3.3,0,0,1,52.667,56.062Z" fill="#2dade0"/><rect x="58.801" y="55.746" width="0.568" height="0.633" fill="#fe839c"/><rect x="55.948" y="55.746" width="2.449" height="0.633" fill="#fe839c"/><rect x="53.235" y="55.746" width="2.134" height="0.633" fill="#fe839c"/><rect x="49.916" y="57.394" width="9.844" height="2.581" fill="#130f40"/><rect x="50.282" y="57.926" width="9.087" height="0.297" fill="#2dade0"/><rect x="50.282" y="58.535" width="9.087" height="0.298" fill="#2dade0"/><rect x="50.282" y="59.145" width="9.087" height="0.297" fill="#2dade0"/><rect x="48.751" y="61.059" width="12.128" height="3.687" fill="#7880ea"/><rect x="60.879" y="61.059" width="5.417" height="3.687" fill="#424fad"/><rect x="125.042" y="19.97" width="13.734" height="43.993" fill="#bfacf7"/><rect x="125.541" y="21.181" width="12.49" height="3.479" fill="#b47bed"/><rect x="126.736" y="24.66" width="11.294" height="3.639" fill="#b47bed"/><rect x="126.736" y="28.931" width="11.294" height="3.638" fill="#b47bed"/><rect x="126.736" y="33.202" width="11.294" height="3.636" fill="#b47bed"/><rect x="126.736" y="37.47" width="11.294" height="3.639" fill="#b47bed"/><rect x="125.983" y="21.932" width="12.047" height="1.976" fill="#130f40"/><rect x="127.08" y="25.447" width="0.145" height="0.602" fill="#7beb9d"/><rect x="127.533" y="25.447" width="0.145" height="0.602" fill="#7beb9d"/><rect x="127.987" y="25.447" width="0.145" height="0.602" fill="#7beb9d"/><rect x="128.518" y="25.447" width="0.144" height="0.602" fill="#2dade0"/><rect x="127.08" y="26.87" width="0.145" height="0.602" fill="#7beb9d"/><rect x="127.533" y="26.87" width="0.145" height="0.602" fill="#7beb9d"/><rect x="127.987" y="26.87" width="0.145" height="0.602" fill="#7beb9d"/><rect x="128.518" y="26.87" width="0.144" height="0.602" fill="#2dade0"/><rect x="127.08" y="29.716" width="0.145" height="0.604" fill="#7beb9d"/><rect x="127.533" y="29.716" width="0.145" height="0.604" fill="#7beb9d"/><rect x="127.987" y="29.716" width="0.145" height="0.604" fill="#7beb9d"/><rect x="128.518" y="29.716" width="0.144" height="0.604" fill="#2dade0"/><rect x="127.08" y="31.14" width="0.145" height="0.601" fill="#7beb9d"/><rect x="127.533" y="31.14" width="0.145" height="0.601" fill="#7beb9d"/><rect x="127.987" y="31.14" width="0.145" height="0.601" fill="#7beb9d"/><rect x="128.518" y="31.14" width="0.144" height="0.601" fill="#2dade0"/><rect x="127.08" y="33.988" width="0.145" height="0.602" fill="#7beb9d"/><rect x="127.533" y="33.988" width="0.145" height="0.602" fill="#7beb9d"/><rect x="127.987" y="33.988" width="0.145" height="0.602" fill="#7beb9d"/><rect x="128.518" y="33.988" width="0.144" height="0.602" fill="#2dade0"/><rect x="127.08" y="35.409" width="0.145" height="0.603" fill="#7beb9d"/><rect x="127.533" y="35.409" width="0.145" height="0.603" fill="#7beb9d"/><rect x="127.987" y="35.409" width="0.145" height="0.603" fill="#7beb9d"/><rect x="128.518" y="35.409" width="0.144" height="0.603" fill="#2dade0"/><rect x="127.08" y="38.257" width="0.145" height="0.602" fill="#7beb9d"/><rect x="127.533" y="38.257" width="0.145" height="0.602" fill="#7beb9d"/><rect x="127.987" y="38.257" width="0.145" height="0.602" fill="#7beb9d"/><rect x="128.518" y="38.257" width="0.144" height="0.602" fill="#2dade0"/><rect x="127.08" y="39.681" width="0.145" height="0.603" fill="#7beb9d"/><rect x="127.533" y="39.681" width="0.145" height="0.603" fill="#7beb9d"/><rect x="127.987" y="39.681" width="0.145" height="0.603" fill="#7beb9d"/><rect x="128.518" y="39.681" width="0.144" height="0.603" fill="#2dade0"/><rect x="129.261" y="25.332" width="8.26" height="2.254" fill="#130f40"/><rect x="129.261" y="29.602" width="8.26" height="2.255" fill="#130f40"/><rect x="129.261" y="33.874" width="8.26" height="2.252" fill="#130f40"/><rect x="129.261" y="38.143" width="8.26" height="2.254" fill="#130f40"/><rect x="129.588" y="25.887" width="7.607" height="0.395" fill="#2dade0"/><rect x="129.588" y="26.558" width="7.607" height="0.396" fill="#2dade0"/><rect x="129.588" y="30.156" width="7.607" height="0.396" fill="#2dade0"/><rect x="129.588" y="30.827" width="7.607" height="0.397" fill="#2dade0"/><rect x="129.588" y="34.428" width="7.607" height="0.394" fill="#2dade0"/><rect x="129.588" y="35.099" width="7.607" height="0.394" fill="#2dade0"/><rect x="129.588" y="38.696" width="7.607" height="0.397" fill="#2dade0"/><rect x="129.588" y="39.369" width="7.607" height="0.396" fill="#2dade0"/><rect x="126.35" y="22.495" width="11.421" height="0.978" fill="#2dade0"/><rect x="126.564" y="22.791" width="11.025" height="0.358" fill="#fe839c"/><rect x="125.541" y="42.026" width="12.49" height="3.478" fill="#b47bed"/><rect x="126.736" y="45.504" width="11.294" height="3.639" fill="#b47bed"/><rect x="126.736" y="49.776" width="11.294" height="3.638" fill="#b47bed"/><rect x="126.736" y="54.045" width="11.294" height="3.638" fill="#b47bed"/><rect x="126.736" y="58.315" width="11.294" height="3.639" fill="#b47bed"/><rect x="125.983" y="42.777" width="12.047" height="1.976" fill="#130f40"/><rect x="127.08" y="46.29" width="0.145" height="0.602" fill="#7beb9d"/><rect x="127.533" y="46.29" width="0.145" height="0.602" fill="#7beb9d"/><rect x="127.987" y="46.29" width="0.145" height="0.602" fill="#7beb9d"/><rect x="128.518" y="46.29" width="0.144" height="0.602" fill="#2dade0"/><rect x="127.08" y="47.715" width="0.145" height="0.602" fill="#7beb9d"/><rect x="127.533" y="47.715" width="0.145" height="0.602" fill="#7beb9d"/><rect x="127.987" y="47.715" width="0.145" height="0.602" fill="#7beb9d"/><rect x="128.518" y="47.715" width="0.144" height="0.602" fill="#2dade0"/><rect x="127.08" y="50.561" width="0.145" height="0.602" fill="#7beb9d"/><rect x="127.533" y="50.561" width="0.145" height="0.602" fill="#7beb9d"/><rect x="127.987" y="50.561" width="0.145" height="0.602" fill="#7beb9d"/><rect x="128.518" y="50.561" width="0.144" height="0.602" fill="#2dade0"/><rect x="127.08" y="51.985" width="0.145" height="0.602" fill="#7beb9d"/><rect x="127.533" y="51.985" width="0.145" height="0.602" fill="#7beb9d"/><rect x="127.987" y="51.985" width="0.145" height="0.602" fill="#7beb9d"/><rect x="128.518" y="51.985" width="0.144" height="0.602" fill="#2dade0"/><rect x="127.08" y="54.831" width="0.145" height="0.602" fill="#7beb9d"/><rect x="127.533" y="54.831" width="0.145" height="0.602" fill="#7beb9d"/><rect x="127.987" y="54.831" width="0.145" height="0.602" fill="#7beb9d"/><rect x="128.518" y="54.831" width="0.144" height="0.602" fill="#2dade0"/><rect x="127.08" y="56.255" width="0.145" height="0.603" fill="#7beb9d"/><rect x="127.533" y="56.255" width="0.145" height="0.603" fill="#7beb9d"/><rect x="127.987" y="56.255" width="0.145" height="0.603" fill="#7beb9d"/><rect x="128.518" y="56.255" width="0.144" height="0.603" fill="#2dade0"/><rect x="127.08" y="59.102" width="0.145" height="0.604" fill="#7beb9d"/><rect x="127.533" y="59.102" width="0.145" height="0.604" fill="#7beb9d"/><rect x="127.987" y="59.102" width="0.145" height="0.604" fill="#7beb9d"/><rect x="128.518" y="59.102" width="0.144" height="0.604" fill="#2dade0"/><rect x="127.08" y="60.525" width="0.145" height="0.604" fill="#7beb9d"/><rect x="127.533" y="60.525" width="0.145" height="0.604" fill="#7beb9d"/><rect x="127.987" y="60.525" width="0.145" height="0.604" fill="#7beb9d"/><rect x="128.518" y="60.525" width="0.144" height="0.604" fill="#2dade0"/><rect x="129.261" y="46.176" width="8.26" height="2.255" fill="#130f40"/><rect x="129.261" y="50.447" width="8.26" height="2.255" fill="#130f40"/><rect x="129.261" y="54.719" width="8.26" height="2.252" fill="#130f40"/><rect x="129.261" y="58.988" width="8.26" height="2.254" fill="#130f40"/><rect x="129.588" y="46.73" width="7.607" height="0.394" fill="#2dade0"/><rect x="129.588" y="47.403" width="7.607" height="0.396" fill="#2dade0"/><rect x="129.588" y="51" width="7.607" height="0.397" fill="#2dade0"/><rect x="129.588" y="51.673" width="7.607" height="0.396" fill="#2dade0"/><rect x="129.588" y="55.271" width="7.607" height="0.395" fill="#2dade0"/><rect x="129.588" y="55.944" width="7.607" height="0.395" fill="#2dade0"/><rect x="129.588" y="59.542" width="7.607" height="0.396" fill="#2dade0"/><rect x="129.588" y="60.213" width="7.607" height="0.397" fill="#2dade0"/><rect x="126.35" y="43.341" width="11.421" height="0.978" fill="#2dade0"/><rect x="126.564" y="43.636" width="11.025" height="0.355" fill="#fe839c"/><rect x="138.776" y="19.97" width="2.866" height="43.993" fill="#9e6adb"/><path d="M19.124,19.753a1.972,1.972,0,0,0-1.111.342,2.886,2.886,0,0,0-3.031-1.44A3.688,3.688,0,0,0,11.7,16.632a3.729,3.729,0,0,0-3.7,3.758c0,.048,0,.1,0,.143A2.059,2.059,0,0,0,6.7,22.389H21.05a2.094,2.094,0,0,0,.086-.59A2.029,2.029,0,0,0,19.124,19.753Z" fill="#dbd4f9"/><path d="M123.015,10.005a2.477,2.477,0,0,0-1.4.429,3.629,3.629,0,0,0-3.806-1.808A4.629,4.629,0,0,0,113.7,6.087a4.681,4.681,0,0,0-4.643,4.718c0,.06,0,.12,0,.179a2.586,2.586,0,0,0-1.639,2.33h18.013a2.587,2.587,0,0,0,.109-.74A2.548,2.548,0,0,0,123.015,10.005Z" fill="#dbd4f9"/><path d="M104.024,3.3a2.093,2.093,0,0,0-1.176.361,3.048,3.048,0,0,0-3.2-1.522A3.9,3.9,0,0,0,96.177,0a3.943,3.943,0,0,0-3.91,3.974c0,.05,0,.1,0,.151a2.176,2.176,0,0,0-1.38,1.962h15.168a2.185,2.185,0,0,0,.092-.624A2.145,2.145,0,0,0,104.024,3.3Z" fill="#dbd4f9"/><path d="M8.222,58.424a14.509,14.509,0,0,0,6.394,1.614c2.65,0,4.05-1.112,4.05-2.806,0-1.614-1.213-2.536-4.278-3.652-4.235-1.5-7-3.884-7-7.653,0-4.424,3.634-7.806,9.651-7.806a15.388,15.388,0,0,1,6.505,1.307l-1.286,4.731a11.929,11.929,0,0,0-5.333-1.232c-2.5,0-3.707,1.153-3.707,2.5,0,1.652,1.437,2.382,4.728,3.652,4.5,1.69,6.619,4.076,6.619,7.728,0,4.345-3.291,8.039-10.289,8.039A16.491,16.491,0,0,1,7.05,63.271Z" fill="url(#linear-gradient)"/><path d="M44.386,53.5H35v6.154H45.484v4.806H29.217V38.544H44.953V43.35H35v5.383h9.383Z" fill="url(#linear-gradient-2)"/><path d="M50.172,38.888a50.1,50.1,0,0,1,7.676-.535c3.785,0,6.435.577,8.248,2.038a6.617,6.617,0,0,1,2.347,5.42,6.864,6.864,0,0,1-4.5,6.384v.116c1.78.73,2.761,2.461,3.405,4.846.793,2.922,1.592,6.305,2.083,7.305h-5.9a32.748,32.748,0,0,1-1.777-6.038c-.681-3.229-1.776-4.113-4.123-4.151H55.881V64.462H50.172Zm5.709,11.153h2.27c2.878,0,4.58-1.462,4.58-3.728,0-2.386-1.592-3.577-4.238-3.615a14.127,14.127,0,0,0-2.612.191Z" fill="url(#linear-gradient-3)"/><path d="M79.146,64.462l-8.17-25.918h6.316L80.4,49.5c.87,3.076,1.666,6.036,2.27,9.268h.115c.644-3.117,1.437-6.192,2.306-9.155L88.34,38.544h6.129L85.882,64.462Z" fill="url(#linear-gradient-4)"/><path d="M113.113,53.5h-9.382v6.154h10.481v4.806H97.945V38.544h15.736V43.35h-9.95v5.383h9.382Z" fill="url(#linear-gradient-5)"/><path d="M118.9,38.888a50.11,50.11,0,0,1,7.68-.535c3.784,0,6.43.577,8.247,2.038a6.617,6.617,0,0,1,2.347,5.42,6.866,6.866,0,0,1-4.506,6.384v.116c1.78.73,2.763,2.461,3.405,4.846.8,2.922,1.592,6.305,2.082,7.305h-5.9a32.416,32.416,0,0,1-1.777-6.038c-.684-3.229-1.78-4.113-4.123-4.151h-1.743V64.462H118.9Zm5.712,11.153h2.27c2.878,0,4.577-1.462,4.577-3.728,0-2.386-1.588-3.577-4.238-3.615a14.112,14.112,0,0,0-2.609.191Z" fill="url(#linear-gradient-6)"/><rect x="29.217" y="38.544" width="4.091" height="17.076" fill="url(#linear-gradient-7)"/><path d="M12.8,57.327c0,.368-2,.666-4.471.666s-4.471-.3-4.471-.666,2-.667,4.471-.667S12.8,56.959,12.8,57.327Z" fill="#6d1f48"/><path d="M8.326,56.66c-2.469,0-4.471.3-4.471.667H12.8C12.8,56.959,10.8,56.66,8.326,56.66Z" fill="#6d1f48"/><path d="M6.2,60.212s2.858-5.343,0-8.033A6.365,6.365,0,0,1,5.382,44.1c1.109-1.755.1-6.905-3.05-5.981s-2.655,7.623-1.16,8.956c2.65,2.364-.346,6.54,4.012,8.134C7.29,55.976,6.2,60.212,6.2,60.212Z" fill="#7042b2"/><path d="M10.339,37.084c-.993-.614-2.92-1.591-3.49,2.029-.721,4.563,4.955,6.563,3.116,8.111-4.16,3.5-5.649,6.47-3.116,9.436,1.2,1.4,1.727,3.084-.563,3.135s8.01-.431,5.659-8.015c-.465-1.5,4.118-4.354,1.68-7.905C12.05,41.582,13.785,39.205,10.339,37.084Z" fill="#e38cdf"/><path d="M7.033,59.259s2.1-1.711.5-3.326c-3.323-3.363,1.3-4.876-1.271-7.477s-.044-6.343,2.584-6.262c.8.025,2.17.176.388,2.5-2.915,3.8-.018,6.088.494,7.2C10.806,54.241,10.766,57.89,7.033,59.259Z" fill="#6366dd"/><path d="M9.084,59.378s-1.706-3.188,0-4.8a3.8,3.8,0,0,0,.485-4.822c-.662-1.046-.061-4.12,1.821-3.569s1.584,4.55.691,5.345c-1.581,1.411.208,3.9-2.394,4.854C8.43,56.851,9.084,59.378,9.084,59.378Z" fill="#9e7bf3"/><path d="M8.326,57.993c-2.469,0-4.471-.3-4.471-.666l.953,8.06c0,.368,1.575.667,3.518.667s3.518-.3,3.518-.667l.953-8.06C12.8,57.7,10.8,57.993,8.326,57.993Z" fill="#99305e"/><path d="M59.038,31.874c.161,2.079.933,6.36,1.8,6.068s1.262-.751.715-.723-.584-.023-.614-.181c-.2-1,.1-3.116.036-4.646C60.905,30.618,58.9,30.058,59.038,31.874Z" fill="#f9b5a0"/><path d="M60.343,37.661a1.562,1.562,0,0,0,1.213-.442s.886-.181.426.235S60.552,38.431,60.343,37.661Z" fill="#7585f8"/><path d="M56.006,28.033s3.169-1.227,4.383.049c1.091,1.149.919,7.239.919,7.239a2.375,2.375,0,0,1-1.819.6L58.2,31.539s-2.183.539-3.138-.155c-2.265-1.654-.552-2.53-.552-2.53Z" fill="#f28f19"/><path d="M54.285,21.339a1.21,1.21,0,0,1,1.35.571c.462.869.468,2.881,1.61,3.592a2.373,2.373,0,0,0,2.509.043c.57-.227.693-.588,1.039-.682s.438.328-.388.914c-.4.281-2.192,1.9-3.709,1.314C54.708,26.316,52.854,21.848,54.285,21.339Z" fill="#e28c71"/><path d="M53.8,33.454c-1.175,1.708-3.255,5.513-2.4,5.849s1.443.235,1-.1-.436-.394-.361-.537c.47-.907,2.026-2.341,2.932-3.564C56.022,33.69,54.821,31.959,53.8,33.454Z" fill="#f9b5a0"/><path d="M51.185,38.764s.628.593,1.213.443c0,0,.8.433.182.456S50.865,39.494,51.185,38.764Z" fill="#7585f8"/><path d="M53.856,28.53s3.214,1.1,3.354,2.868c.123,1.592-3.816,6.183-3.816,6.183a2.368,2.368,0,0,1-1.779-.712l1.747-4.213s-2.023-.995-2.327-2.148c-.715-2.739,1.156-2.31,1.156-2.31Z" fill="#f4a517"/><polygon points="55.861 30.301 53.581 28.711 57.711 27.112 55.861 30.301" fill="#191d3a"/><polygon points="57.189 27.037 61.064 25.856 59.874 28.875 55.861 30.301 57.189 27.037" fill="#252956"/><path d="M54.435,21.26s-1.088.224-.807,1.879a9.044,9.044,0,0,0,.627,2.335,4.2,4.2,0,0,0,2.52-.756S55.922,20.725,54.435,21.26Z" fill="#efbebd"/><path d="M55.983,27.476a8.488,8.488,0,0,0-.284-4.7c-.674-1.875-2.473-1.708-3.537-1.4s-2.817.78-1.853,3.067c.67,1.6.423,2.669.145,4.354h0c-.009.045-.019.084-.028.128l-.005,0,.005,0C49.841,30.792,55.53,29.113,55.983,27.476Z" fill="#fcdcda"/><path d="M52.564,19.925s.5.832-.055,1.368c-.573.549,1.995,1.585,1.879,1.08-.151-.654-.526-1.009-.29-1.807Z" fill="#e67052"/><path d="M53.758,18.105c.612.468,1.462,2.736.938,3.317-.232.251-1.3.116-2.075-.835a2,2,0,0,1-.406-1.985A1.022,1.022,0,0,1,53.758,18.105Z" fill="#f3b294"/><path d="M54.354,18.322c.155.28.126.352-.728.583s-1.006.192-.895.391c.326.588-.3.536.091,1.238s-.378.334-.767-.233a1.713,1.713,0,0,1-.181-1.628A1.375,1.375,0,0,1,54.354,18.322Z" fill="#963734"/><path d="M51.874,18.673a1.69,1.69,0,0,0,.181,1.628c.289.422.794.742.866.574.086-.2-.478-.214-.378-.749s-.251-.609-.22-1.069.372-.412,1.332-.675c.391-.106.449-.272.386-.43A1.426,1.426,0,0,0,51.874,18.673Z" fill="#aa3c3c"/><path d="M50.454,28.793c-.009.045-.019.084-.028.128l-.005,0,.005,0c-.453,1.447,2.846.77,4.573-.368.121-.559-1.334-.112-2.024-.332-1.589-.511,2.672-2.314,1.792-2.381-.949-.073-2.078.558-2.015-.841s0-1.947-.717-2.57c-1.468-1.271-2.211.458-1.922,1.417a3.791,3.791,0,0,0,.2.593C50.979,26.035,50.732,27.108,50.454,28.793Z" fill="#efbebd"/><path d="M50.955,22.205a1.239,1.239,0,0,1,.967,1.12c.036.988-.833,2.8-.117,3.947a2.393,2.393,0,0,0,2.232,1.163c.611.052.878-.217,1.231-.146s.25.492-.747.645c-.478.074-2.792.726-3.9-.484C49.177,26.863,49.452,22.021,50.955,22.205Z" fill="#e28c71"/><path d="M51.143,21.985s-1.1-.179-1.406,1.47a9.072,9.072,0,0,0-.222,2.41,4.191,4.191,0,0,0,2.621.194S52.72,22.016,51.143,21.985Z" fill="#fcdcda"/><path d="M52.9,20.77s1.021.588,1.487.3.328-.931.469-.737c.2.267.254,1.366-.433,1.347a3.381,3.381,0,0,1-1.822-.853Z" fill="#aa3c3c"/><path d="M32.148,48.676c-.841-2.3.472-4.5.2-5.989-.32-1.766-3.324-1.346-4.4-.894s-2.864,1.148-1.595,3.433c.884,1.594.748,2.747.65,4.548h0c0,.048-.011.09-.015.137h-.006l.006,0a76.819,76.819,0,0,1-1.268,8.89c-.506,2.217-1.1,6.951-.127,6.975s1.515-.3.954-.479-.582-.245-.564-.421c.24-2.287,3.431-5.85,3.7-8.568.092-.929.155-1.775.2-2.521a24.831,24.831,0,0,1,.127,4.8c.1,2.485.577,7.179,1.64,7.189,1.132.009,1.689-.341.965-.511-.625-.147-.6-.18-.587-.353.152-2.508,1.239-7.145,1.447-10.126A11.6,11.6,0,0,0,32.148,48.676Z" fill="#ee9d7f"/><path d="M31.036,41.911a.834.834,0,0,1,1.179.462c.52.945.876,3.3,2.126,4.075a2.528,2.528,0,0,0,2.694.066c.605-.241.727-.633,1.1-.732s.481.361-.39.988c-.419.3-2.3,2.046-3.941,1.394C31.64,47.308,29.912,42.571,31.036,41.911Z" fill="#ee9d7f"/><path d="M32.438,49.266c-1.936,1.445-4.426,1-5.478.768-.286,2.578-1.951,12.238-2.146,13.566a4.259,4.259,0,0,0,1.379.381c4.539-6.781,3.646-9.447,3.69-10.193.155.859-.368,6.057.519,10.193a1.706,1.706,0,0,0,1.842,0c.032-.265,1.214-8.948,1.231-9.192A11.469,11.469,0,0,0,32.438,49.266Z" fill="#c86cdb"/><path d="M26.1,44.689s-1.028-2.96,2.257-.2c.483.405.274,2.359.274,2.359l-1.363.729Z" fill="#e67052"/><path d="M27.717,41.89a3.337,3.337,0,0,0,2.847,1.759c.559,0,1.438-.323-.345-2.336l.644.146A13.048,13.048,0,0,1,33.132,46.6a8.466,8.466,0,0,1,.006,4.315s-.587.51-3.253.754a7.768,7.768,0,0,1-3.078-.257,26.3,26.3,0,0,0,.159-4.554s1.579,0,1.414-2.148c-.138-1.773-2.075-1.171-2.076-1.883C26.3,42.4,27.717,41.89,27.717,41.89Z" fill="#fcdcda"/><path d="M28.2,40.226s.621.814.1,1.441c-.535.644,2.274,1.428,2.094.911-.232-.668-.665-1-.509-1.86Z" fill="#e67052"/><path d="M29.249,38.176c.7.419,1.845,2.7,1.359,3.369-.212.291-1.351.276-2.269-.631a2.094,2.094,0,0,1-.651-2.033A1.08,1.08,0,0,1,29.249,38.176Z" fill="#f3b294"/><path d="M28.72,50.254c-.141-.438.074-.706.79-.8,1.061-.143,2.705-.889,1.82-.719a8.593,8.593,0,0,1-3.11,0c-1.008-.207-1.254-1.878-1.254-1.878a26.3,26.3,0,0,1-.159,4.554,7.768,7.768,0,0,0,3.078.257c2.666-.244,3.253-.754,3.253-.754C29.612,51.445,28.84,50.618,28.72,50.254Z" fill="#efbebd"/><path d="M29.565,37.7c.309.127.166.951-.7,1.294s-.693.358-.555.555c.409.58-.258.6.237,1.287s-.36.4-.827-.154a1.652,1.652,0,0,1-.54-1.668A1.85,1.85,0,0,1,29.565,37.7Z" fill="#aa3c3c"/><path d="M29.848,41.026s.112-.427.414-.516.326.292.289.433-.452.491-.7.411S29.792,41.174,29.848,41.026Z" fill="#f3b294"/><path d="M31.054,65.213s.846.376,1.367,0c0,0,.951.146.354.4S31.018,66.092,31.054,65.213Z" fill="#7585f8"/><path d="M25.18,65.3s.845.376,1.366,0c0,0,.953.146.353.405S25.144,66.177,25.18,65.3Z" fill="#7585f8"/><polygon points="33.123 49.493 30.5 47.665 35.25 45.825 33.123 49.493" fill="#ea68c3"/><polygon points="34.65 45.739 39.108 44.381 37.739 47.853 33.123 49.493 34.65 45.739" fill="#fe88d4"/><path d="M30.863,41.459s1.291-.241,1.925,2.028c.066.236.268,1.08.268,1.08l-.477.067A14.028,14.028,0,0,0,30.863,41.459Z" fill="#efbebd"/><path d="M29.918,40.43a.36.36,0,0,1,.325-.335c.33-.071.447-.053.631-.214S30.384,40.937,29.918,40.43Z" fill="#aa3c3c"/><path d="M29.992,40.473a.35.35,0,0,0-.46.048c-.261.217-.322.321-.559.366S30.089,41.16,29.992,40.473Z" fill="#aa3c3c"/><path d="M27.831,52.173s2.364-6.247.052-9.291l-1.1-.57a1.649,1.649,0,0,1,.571-.278s3.844,1.615,1.317,10.042Z" fill="#c86cdb"/><path d="M26.312,43.128a.907.907,0,0,1,1.311.071c.838.78,1.362,3.512,2.788,4.2a2.811,2.811,0,0,0,2.938-.261c.641-.335.743-.77,1.136-.921s.552.329-.348,1.11c-.43.373-2.338,2.481-4.182,1.983C27.537,48.654,25.142,43.975,26.312,43.128Z" fill="#ee9d7f"/><path d="M26.639,42.471s-1.13.333-.693,2.055a9.643,9.643,0,0,0,.861,2.411,4.461,4.461,0,0,0,2.6-1.02S28.163,41.776,26.639,42.471Z" fill="#efbebd"/><rect x="132.781" y="31.089" width="1.281" height="33.923" fill="#fe839c"/><rect x="137.25" y="31.089" width="1.28" height="33.923" fill="#fe839c"/><rect x="132.793" y="32.774" width="5.473" height="1.488" fill="#fe839c"/><rect x="132.793" y="36.78" width="5.473" height="1.488" fill="#fe839c"/><rect x="132.793" y="41.186" width="5.473" height="1.49" fill="#fe839c"/><rect x="132.793" y="46.793" width="5.473" height="1.489" fill="#fe839c"/><rect x="132.793" y="51.198" width="5.473" height="1.49" fill="#fe839c"/><rect x="132.793" y="56.407" width="5.473" height="1.489" fill="#fe839c"/><rect x="132.793" y="60.813" width="5.473" height="1.489" fill="#fe839c"/><path d="M134.67,53.792c.179,1.7.851,3.951.8,5.1-.009.181-.04.245-.634.334s-.1.507.889.639,1.122-4.746.958-7.066C136.535,50.769,134.461,51.824,134.67,53.792Z" fill="#f9b5a0"/><path d="M136.211,59.445s-.913.244-1.38-.22c0,0-.984-.006-.42.351S136.11,60.336,136.211,59.445Z" fill="#f28f19"/><path d="M139.406,59.6c.335,1.671,1.213,3.853,1.263,5,.008.182-.017.248-.6.392s-.049.515.944.551.678-4.831.3-7.124C140.984,56.408,139.015,57.656,139.406,59.6Z" fill="#f9b5a0"/><path d="M141.464,65.076s-.888.33-1.4-.089c0,0-.98.089-.386.391S141.445,65.973,141.464,65.076Z" fill="#f28f19"/><path d="M140.418,50.239a9.331,9.331,0,0,0-.632,1.853,18.44,18.44,0,0,0-.607,4.313,16.311,16.311,0,0,0,1.055,6.858c.109.241,1.2.326,1.254,0,.4-2.388.829-2.765.476-5.509,0,0,.633-2.009.9-2.858.759-2.411.637-2.8.251-4.023Z" fill="#892856"/><path d="M139.121,49.979s-3.413-2.723-4.515-1.055c-.99,1.5.185,8.159.185,8.159a2.463,2.463,0,0,0,2.056.261l.482-4.678s3.181,2.06,4.275,1.294c1.71-1.2.231-3.9.231-3.9Z" fill="#99305e"/><path d="M138.528,40.05s-.733-1.525-.855-1,.168.432.418,1.222Z" fill="#ffaa83"/><path d="M143.451,45.205c.181.214.459.982-.151,1.116-.966.216-3.268-1.142-3.778-1.672s-1.5-4.472-1.5-4.472a.429.429,0,0,1,.586-.156l2.21,3.515A10.4,10.4,0,0,1,143.451,45.205Z" fill="#fcdcda"/><path d="M140.313,44.391c-.8.494-1.585,1.822-2.386,6.372-.177,1,5.545,1.9,5.677.887a16.049,16.049,0,0,0-.47-6.347A1.782,1.782,0,0,0,140.313,44.391Z" fill="#fcdcda"/><path d="M134.425,40.049s-.161-1.516-.488-1.111-.252.61.072,1.373Z" fill="#ffaa83"/><path d="M139.814,44.7c.2.2.55.932-.044,1.124-.944.311-3.364-.817-3.919-1.293s-1.914-4.3-1.914-4.3a.431.431,0,0,1,.569-.211l2.533,3.279A10.353,10.353,0,0,1,139.814,44.7Z" fill="#fcdcda"/><path d="M141.339,40.033a1.679,1.679,0,0,0-1.58,1.7c-.13,1.243-.166,1.265-.623,1.676-1.174,1.062,1.272,1.834.27,2.83-4.3,4.278,4.315,4.588,4.1,3.413-.421-2.26,1.024-1.582.906-3.25-.048-.661.956-1.281-.183-2.236-.376-.316.5-1.7-.447-2.091S143.761,39.976,141.339,40.033Z" fill="#aa3c3c"/><path d="M99.562,64.545c.668-.35.918-.781.474-.687s-.484.053-.536-.073c-.655-1.614.38-4.667-.913-6.617l-1.8,1.765a4.915,4.915,0,0,1,.335.823C97.579,61.454,98.892,64.894,99.562,64.545Z" fill="#ee9d7f"/><path d="M89.878,61.265s-.663,2.765,1.238,3.3c0,0,4.212-2.921,5.667-5.637a15.125,15.125,0,0,0,1.133,3.173s.3.372,1.345-.492c0,0,.766-4.541-1.78-5.251s-7.6,4.9-7.6,4.9Z" fill="#f28f19"/><path d="M99.068,64.315s.257,0,.588-.409a2.626,2.626,0,0,0,.38-.048c.189-.041.269-.006.2.147a1.63,1.63,0,0,1-.752.564C99.2,64.651,99.068,64.315,99.068,64.315Z" fill="#7585f8"/><path d="M92.84,74.555c-.492-.127-.515-.184-.507-.338.105-1.954,2.6-4.534,2.219-7.138l-.005,0a9.092,9.092,0,0,0-.812-2.628,14.757,14.757,0,0,0-1.187-2.067c-1.149-2.415-2.714-2.351-3.315-1.638C87.6,62.684,90.594,65.9,91.88,67.8h0a8.409,8.409,0,0,1-.042,1.177c-.34,1.941-.648,6.066.2,6.039S93.333,74.679,92.84,74.555Z" fill="#e28c71"/><path d="M92.086,59.033s.613-.439-.149,1.139a17,17,0,0,1,2.823,7.233c.2,1.8-.908,3.3-2,5.269,0,0-1.082.131-1.442-.172a17.515,17.515,0,0,1,.558-4.7s-4.476-2.775-3.119-5.847a2.441,2.441,0,0,1,2.564-1.341S91.713,58.678,92.086,59.033Z" fill="#f4a517"/><path d="M91.673,74.633s.269.1.768-.211a2.276,2.276,0,0,0,.445.11c.216.028.288.092.158.229a1.8,1.8,0,0,1-1,.324C91.718,75.07,91.673,74.633,91.673,74.633Z" fill="#7585f8"/><path d="M89.231,55.24s-.034-.624.953-.8c1.15-.2,3.666,1.081,5.108.333a2.982,2.982,0,0,0,1.639-2.593c.135-.74-.149-1.1-.024-1.518s.61-.249.67.984c.03.591.518,3.494-1.041,4.7C94.494,57.943,89.172,56.74,89.231,55.24Z" fill="#ee9d7f"/><path d="M91.163,51.021a.674.674,0,0,0-.528-.579c-1.139-.159-3.1,1.1-3.325,3.355-.381,3.8,1.134,2.693-.045,4.745-1.116,1.941,2.412,2.995,4.6,1.377,1.277-.942-2.535-2.7-2.178-3.366s1.024-.833,1.168-1.975a21.04,21.04,0,0,1,.521-2.86A.529.529,0,0,0,91.163,51.021Z" fill="#aa3c3c"/><path d="M90.856,54.578c.069-.55.166-1.166.26-1.694-.23-.049-.434-.4-.78-.419,0,0-3.7,2.82-1.156,6.264,2.568-.8.1-1.016.693-1.7.009-.009-.278-.343-.27-.356a.812.812,0,0,0,.085-.12C90.043,55.891,90.712,55.72,90.856,54.578Z" fill="#963734"/><path d="M93.153,60.55c.3-.344-.82-1.348-.288-2.275s1.039-1.643-.107-2.869-2.069-1.749-2.806-1.174c-1.777,1.394-.885,1.786-.841,2.815.026.579.413,3.153-.884,4.8a1.45,1.45,0,0,1-.161.181C87.038,63.5,93.153,60.55,93.153,60.55Z" fill="#fcdcda"/><path d="M89.85,54.316S91.88,56,92.412,55.922c.45-.067-.58-1.249-.881-1.533A1.132,1.132,0,0,0,89.85,54.316Z" fill="#ee9d7f"/><path d="M89.952,51.989s.678,1.421.431,1.989c-.141.32,1.429,1.046,1.263.689a1.223,1.223,0,0,1,.108-1.473Z" fill="#e67052"/><path d="M91.377,51.045c.524.5,1.052,2.68.579,3.175-.218.229-1.241.341-1.84-.983a2.076,2.076,0,0,1-.2-1.885A.933.933,0,0,1,91.377,51.045Z" fill="#ee9d7f"/><path d="M91.655,51.12c.053.277.062.441-.566.386-.768-.067-.629.48-.549.669.236.545-.737.037-.394.662.843,1.532-.826.652-1.421,1.623a10.978,10.978,0,0,1,.477-3.375C89.624,50.133,91.494,50.263,91.655,51.12Z" fill="#aa3c3c"/><path d="M89.308,54.679s.465-.284,1,.386c.622.779.659,3.2,1.818,3.973a2.623,2.623,0,0,0,2.661.156c.622-.2.781-.565,1.157-.646s.438.354-.486.911c-.444.268-2.476,1.833-4.04,1.164C89.364,59.748,88.131,55.256,89.308,54.679Z" fill="#e28c71"/></g></g></svg>