<svg version="1.0" xmlns="http://www.w3.org/2000/svg" width="800" height="800" viewBox="0 0 600 600"><path d="M235 50.1c-52.7 4.7-95.7 29.2-123.4 70.4-9 13.3-17 32.9-22.6 55.4-3.9 15.4-6.3 18.3-22 26.1-14.2 7.1-22.8 13-32 22-13.1 12.9-23.2 29.2-28.9 46.9-4 12.1-5.5 21.7-5.4 35.6.1 30.1 10.4 56.4 31.9 81 4.9 5.6 9.7 9.6 18.6 15.5 13 8.6 23.2 13.1 37.3 16.3 8.7 2 12.2 2.1 91.8 2.4l82.7.4v34.7l-3.4 2.1c-14 8.7-23.8 32.8-20.2 50.1 3.3 15.7 14.7 30.5 28.7 37.4 29.8 14.5 65-1.4 72.4-32.6 1.8-7.8 1.9-20.7.1-27.3-2.6-9.9-6.4-15.6-17.3-26.2l-10.5-10.2 5.3-14.7 5.4-14.7 100.3.6c109.4.6 105.4.7 120.9-5.2 24.4-9.5 43.6-29.9 52.2-55.7 3-9 3.1-9.7 3.1-28.1 0-21.9-1.2-27.9-8.5-42.8-9.6-19.5-23-31.1-44.8-39-6-2.1-6.5-4.1-4.1-15.4 2.8-12.9 2.4-29.9-.9-41.2-5.1-16.8-11.9-28.7-23.5-41.1-18.4-19.5-41.7-29.8-67.1-29.8-13.3 0-21.6 1.5-33.6 6.1-10 3.8-10 3.8-15.2-6.5-4.9-9.8-10-16-25-30.7-17.8-17.6-30.3-25.2-54.6-33.3-25.3-8.5-55.2-11.4-87.7-8.5zm185.8 117.5c7.2 3 13.2 11 13.2 17.7 0 6.2-6.4 13-14.9 15.9-2.7.9-29 1.4-104.6 1.8-90.4.5-101.6.8-106.5 2.3-19.4 5.9-36.7 21.2-44.3 39.3-3.7 8.8-5 16.9-4.5 29.1.7 17.6 6.4 30.6 18.9 43.2 7.5 7.5 16.4 13.1 25.9 16.4l6.5 2.2h105c104.5 0 105 0 109.5 2.1 5.6 2.6 10.7 7.8 11.9 12 1.1 4-.1 10.9-2.6 14.3-1 1.4-4.1 3.7-6.9 5.1l-4.9 2.5h-219l-7-2.4c-8.8-3-23.2-10.2-31-15.4-8.7-5.9-23.3-21.1-28.2-29.4-12.5-21.3-18.2-45.5-15.3-65.8 6-43.3 31.4-73.3 74-87.8l9.5-3.2 98.5-.5c54.2-.3 101.8-.6 105.8-.8 4.8-.1 8.5.3 11 1.4zm-26.2 67.8c1.9 2.6 1.8 5.5-.3 7.8-1.5 1.7-5.7 1.8-92.2 1.8-81.4 0-90.9-.2-92.9-1.6-3.2-2.2-2.7-7.3.8-9.1 2-1 21.5-1.2 92.8-1 88.1.2 90.4.2 91.8 2.1zm-.2 29.2c2 2 2 5.8 0 7.8-1.4 1.4-11.2 1.6-92.6 1.6-83.4 0-91.3-.1-93-1.7-2-1.8-2.4-6.3-.6-8.1.9-.9 22.9-1.2 92.9-1.2 82.1 0 91.9.2 93.3 1.6zm-.2 29.1c2.2 2 2.3 5.6.2 7.7-1.4 1.4-11.2 1.6-92.9 1.6-99.7 0-94.5.3-94.5-5.5s-5.1-5.5 94.2-5.5c83.4 0 91.3.1 93 1.7z"/><path d="M138 478.1c-7.3 1.3-13.5 4.4-16.5 8.3-6 7.9-8.2 22.3-4.6 30.1 2.3 5.2 10.8 12.8 16.9 15.1 4.2 1.6 9.3 1.9 50.1 2.2 25.3.2 45.8-.1 46.3-.6s0-2.7-1.1-5.3c-3.8-8.5-5.4-20.2-4.8-33.4.4-6.6.9-13.1 1.3-14.5l.5-2.5-41.3-.2c-23.1-.1-43.7.2-46.8.8zM398.1 477.7l-40.3.3.6 3.3c3.3 16.2 2.7 28.5-2 42-1.4 3.9-2.8 8-3.1 9-.5 1.7 1.6 1.8 45.8 1.5 41.6-.3 46.9-.5 51-2.1 10.9-4.2 17.9-14.2 17.9-25.5 0-8.3-1.4-12.9-5.9-18.9-4.4-5.8-10.6-9.1-18.1-9.6-3-.2-23.7-.2-45.9 0z"/></svg>