<svg width="40" height="40" viewBox="0 0 40 40" fill="none" xmlns="http://www.w3.org/2000/svg">
<path fill-rule="evenodd" clip-rule="evenodd" d="M1 10H5.10492L6.2014 12.9492C6.20643 13.0515 6.22721 13.1537 6.2642 13.252L10.5543 24.6598L9.02986 30.7575C8.95517 31.0562 9.02229 31.3727 9.21179 31.6154C9.4013 31.8581 9.69206 32 10 32H29.4V30H11.2808L12.3808 25.6H26.7002C27.1195 25.6 27.4942 25.3385 27.6388 24.945L31.9388 13.245C32.0516 12.9382 32.0073 12.5957 31.8202 12.3277C31.6332 12.0597 31.327 11.9 31.0002 11.9H7.94509L6.73731 8.65151C6.59169 8.25983 6.21787 8 5.8 8H1V10ZM12.2951 23.6L8.68868 13.9H29.5673L26.0023 23.6H12.2951Z" fill="#1B1A19"/>
<path d="M27.1004 39C28.3154 39 29.3004 37.9703 29.3004 36.7C29.3004 35.4298 28.3154 34.4 27.1004 34.4C25.8854 34.4 24.9004 35.4298 24.9004 36.7C24.9004 37.9703 25.8854 39 27.1004 39Z" fill="#1B1A19"/>
<path d="M11.2 39C12.415 39 13.4 37.9703 13.4 36.7C13.4 35.4298 12.415 34.4 11.2 34.4C9.98497 34.4 9 35.4298 9 36.7C9 37.9703 9.98497 39 11.2 39Z" fill="#1B1A19"/>
<circle cx="29" cy="11" r="10" fill="#FF7700"/>
<path fill-rule="evenodd" clip-rule="evenodd" d="M28 12V16H30V12H34V10H30V6H28V10H24V12H28Z" fill="white"/>
</svg>
