<svg xmlns="http://www.w3.org/2000/svg" xmlns:xlink="http://www.w3.org/1999/xlink" width="2043.158" height="555.119" viewBox="0 0 2043.158 555.119">
  <defs>
    <linearGradient id="linear-gradient" x1="1355.99" y1="552.923" x2="1355.99" y2="562.083" gradientTransform="matrix(1, 0, 0, -1, 0, 743.103)" gradientUnits="userSpaceOnUse">
      <stop offset="0" stop-color="#5e7ee5"/>
      <stop offset="0.002" stop-color="#5e7ee5"/>
      <stop offset="0.298" stop-color="#3862ca"/>
      <stop offset="0.572" stop-color="#1d4eb6"/>
      <stop offset="0.815" stop-color="#0d42aa"/>
      <stop offset="1" stop-color="#073ea6"/>
    </linearGradient>
    <linearGradient id="linear-gradient-2" x1="1469.13" y1="428.943" x2="1469.13" y2="629.319" xlink:href="#linear-gradient"/>
    <linearGradient id="linear-gradient-3" x1="1377.5" y1="430.47" x2="1377.5" y2="554.644" xlink:href="#linear-gradient"/>
    <linearGradient id="linear-gradient-4" x1="1521.621" y1="434.971" x2="1521.621" y2="602.753" gradientTransform="matrix(1, 0, 0, -1, 0, 743.103)" gradientUnits="userSpaceOnUse">
      <stop offset="0" stop-color="#fff"/>
      <stop offset="1" stop-color="#4068b8"/>
    </linearGradient>
    <linearGradient id="linear-gradient-5" x1="1478.704" y1="431.234" x2="1478.704" y2="578.297" xlink:href="#linear-gradient-4"/>
    <linearGradient id="linear-gradient-6" x1="1446.446" y1="429.022" x2="1446.446" y2="629.319" xlink:href="#linear-gradient-4"/>
    <linearGradient id="linear-gradient-7" x1="1373.013" y1="431.828" x2="1373.013" y2="554.644" xlink:href="#linear-gradient-4"/>
    <linearGradient id="linear-gradient-8" x1="1413.349" y1="433.96" x2="1413.349" y2="513.15" xlink:href="#linear-gradient-4"/>
    <linearGradient id="linear-gradient-9" x1="1395.678" y1="437.871" x2="1395.678" y2="512.886" xlink:href="#linear-gradient-4"/>
    <linearGradient id="linear-gradient-10" x1="1505.845" y1="464.833" x2="1505.845" y2="586.999" xlink:href="#linear-gradient-4"/>
    <linearGradient id="linear-gradient-11" x1="1419.209" y1="464.467" x2="1419.209" y2="625.705" gradientTransform="matrix(1, 0, 0, -1, 0, 743.103)" gradientUnits="userSpaceOnUse">
      <stop offset="0" stop-color="#fff"/>
      <stop offset="0.173" stop-color="#fcfcfe"/>
      <stop offset="0.319" stop-color="#f1f4fa"/>
      <stop offset="0.456" stop-color="#e0e6f3"/>
      <stop offset="0.587" stop-color="#c7d3ea"/>
      <stop offset="0.714" stop-color="#a7bade"/>
      <stop offset="0.838" stop-color="#809bd0"/>
      <stop offset="0.956" stop-color="#5377bf"/>
      <stop offset="1" stop-color="#4068b8"/>
    </linearGradient>
    <linearGradient id="linear-gradient-12" x1="1438.072" y1="465.631" x2="1438.072" y2="627.179" xlink:href="#linear-gradient-11"/>
    <linearGradient id="linear-gradient-13" x1="1428.291" y1="464.748" x2="1428.291" y2="626.297" xlink:href="#linear-gradient-11"/>
    <linearGradient id="linear-gradient-14" x1="1367.135" y1="432.963" x2="1367.135" y2="525.591" xlink:href="#linear-gradient-4"/>
    <linearGradient id="linear-gradient-15" x1="1339.115" y1="431.828" x2="1339.115" y2="525.591" xlink:href="#linear-gradient-4"/>
    <linearGradient id="linear-gradient-16" x1="558.18" y1="427.055" x2="558.18" y2="588.821" xlink:href="#linear-gradient"/>
    <linearGradient id="linear-gradient-17" x1="570.878" y1="429.054" x2="570.878" y2="588.821" xlink:href="#linear-gradient-4"/>
    <linearGradient id="linear-gradient-18" x1="618.487" y1="427.036" x2="618.487" y2="562.434" xlink:href="#linear-gradient-4"/>
    <linearGradient id="linear-gradient-19" x1="523.406" y1="430.398" x2="523.406" y2="547.611" xlink:href="#linear-gradient-4"/>
    <linearGradient id="linear-gradient-20" x1="504.814" y1="431.113" x2="504.814" y2="510.014" xlink:href="#linear-gradient-4"/>
    <linearGradient id="linear-gradient-21" x1="548.343" y1="551.852" x2="548.343" y2="571.009" gradientTransform="matrix(1, 0, 0, -1, 0, 743.103)" gradientUnits="userSpaceOnUse">
      <stop offset="0" stop-color="#dde5ff"/>
      <stop offset="1" stop-color="#4068b8"/>
    </linearGradient>
    <linearGradient id="linear-gradient-22" x1="489.785" y1="435.024" x2="489.785" y2="505.534" xlink:href="#linear-gradient-4"/>
    <linearGradient id="linear-gradient-23" x1="834.203" y1="446.63" x2="834.203" y2="643.418" gradientTransform="matrix(1, 0, 0, -1, 0, 743.103)" gradientUnits="userSpaceOnUse">
      <stop offset="0" stop-color="#1b40ab"/>
      <stop offset="0.986" stop-color="#1b0054"/>
    </linearGradient>
    <linearGradient id="linear-gradient-24" x1="359.989" y1="458.426" x2="371.188" y2="853.183" gradientTransform="translate(1175.717 743.103) rotate(180)" gradientUnits="userSpaceOnUse">
      <stop offset="0" stop-color="#374dc7"/>
      <stop offset="0.161" stop-color="#2b40ab"/>
      <stop offset="0.409" stop-color="#1c2f85"/>
      <stop offset="0.64" stop-color="#10226a"/>
      <stop offset="0.844" stop-color="#091b5a"/>
      <stop offset="1" stop-color="#071854"/>
    </linearGradient>
    <linearGradient id="linear-gradient-25" x1="79.815" y1="437.428" x2="67.909" y2="629.035" gradientTransform="translate(1175.717 743.103) rotate(180)" xlink:href="#linear-gradient"/>
    <linearGradient id="linear-gradient-26" x1="390.711" y1="443.541" x2="395.059" y2="596.785" xlink:href="#linear-gradient-24"/>
    <linearGradient id="linear-gradient-27" x1="232.942" y1="428.89" x2="240.699" y2="693.396" xlink:href="#linear-gradient-24"/>
    <linearGradient id="linear-gradient-28" x1="-62.764" y1="442.936" x2="-53.359" y2="763.689" gradientTransform="translate(1175.717 743.103) rotate(180)" gradientUnits="userSpaceOnUse">
      <stop offset="0" stop-color="#374dc7"/>
      <stop offset="0.049" stop-color="#334ac0"/>
      <stop offset="0.331" stop-color="#203b9a"/>
      <stop offset="0.592" stop-color="#12307f"/>
      <stop offset="0.823" stop-color="#0a296f"/>
      <stop offset="1" stop-color="#072769"/>
    </linearGradient>
    <linearGradient id="linear-gradient-29" x1="484.373" y1="416.328" x2="492.13" y2="680.834" xlink:href="#linear-gradient-28"/>
    <linearGradient id="linear-gradient-30" x1="708.21" y1="431.877" x2="708.21" y2="583.926" xlink:href="#linear-gradient-23"/>
    <linearGradient id="linear-gradient-31" x1="482.055" y1="434.801" x2="482.055" y2="583.926" gradientTransform="translate(1175.717 743.103) rotate(180)" gradientUnits="userSpaceOnUse">
      <stop offset="0" stop-color="#fff"/>
      <stop offset="1" stop-color="#78b0ff"/>
    </linearGradient>
    <linearGradient id="linear-gradient-32" x1="509.446" y1="434.801" x2="509.446" y2="583.926" xlink:href="#linear-gradient-31"/>
    <linearGradient id="linear-gradient-33" x1="911.553" y1="431.854" x2="911.553" y2="542.427" xlink:href="#linear-gradient-23"/>
    <linearGradient id="linear-gradient-34" x1="993.369" y1="444.691" x2="993.369" y2="583.343" xlink:href="#linear-gradient-23"/>
    <linearGradient id="linear-gradient-35" x1="1066.45" y1="438.899" x2="1066.45" y2="631.343" xlink:href="#linear-gradient-23"/>
    <linearGradient id="linear-gradient-36" x1="1087.781" y1="430.891" x2="1087.781" y2="505.969" xlink:href="#linear-gradient-23"/>
    <linearGradient id="linear-gradient-37" x1="1235.517" y1="433.691" x2="1235.517" y2="484.164" xlink:href="#linear-gradient-23"/>
    <linearGradient id="linear-gradient-38" x1="1000.443" y1="444.691" x2="1000.443" y2="697.949" xlink:href="#linear-gradient-23"/>
    <linearGradient id="linear-gradient-39" x1="214.764" y1="431.601" x2="214.764" y2="505.969" gradientTransform="translate(1175.717 743.103) rotate(180)" xlink:href="#linear-gradient-23"/>
    <linearGradient id="linear-gradient-40" x1="142.607" y1="444.691" x2="142.607" y2="697.354" gradientTransform="translate(1175.717 743.103) rotate(180)" xlink:href="#linear-gradient"/>
    <linearGradient id="linear-gradient-41" x1="239.378" y1="447.778" x2="252.645" y2="900.163" xlink:href="#linear-gradient-24"/>
    <linearGradient id="linear-gradient-42" x1="980.619" y1="580.435" x2="980.619" y2="614.565" xlink:href="#linear-gradient-23"/>
    <linearGradient id="linear-gradient-43" x1="849.716" y1="432.143" x2="849.716" y2="446.63" xlink:href="#linear-gradient-23"/>
    <linearGradient id="linear-gradient-44" x1="812.59" y1="447.041" x2="812.59" y2="512.237" xlink:href="#linear-gradient-23"/>
    <linearGradient id="linear-gradient-45" x1="1031.758" y1="431.601" x2="1031.758" y2="621.236" xlink:href="#linear-gradient-23"/>
    <linearGradient id="linear-gradient-46" x1="378.538" y1="449.049" x2="378.538" y2="502.091" xlink:href="#linear-gradient-31"/>
    <linearGradient id="linear-gradient-47" x1="405.142" y1="450.393" x2="405.142" y2="503.433" xlink:href="#linear-gradient-31"/>
    <linearGradient id="linear-gradient-48" x1="293.014" y1="434.815" x2="293.403" y2="535.264" xlink:href="#linear-gradient-31"/>
    <linearGradient id="linear-gradient-49" x1="292.465" y1="434.818" x2="292.853" y2="535.266" xlink:href="#linear-gradient-31"/>
    <linearGradient id="linear-gradient-50" x1="291.766" y1="434.82" x2="292.153" y2="535.268" xlink:href="#linear-gradient-31"/>
    <linearGradient id="linear-gradient-51" x1="291.098" y1="434.822" x2="291.486" y2="535.273" xlink:href="#linear-gradient-31"/>
    <linearGradient id="linear-gradient-52" x1="971.483" y1="431.601" x2="971.483" y2="576.051" gradientTransform="matrix(1, 0, 0, -1, 0, 743.103)" gradientUnits="userSpaceOnUse">
      <stop offset="0" stop-color="#a900f2"/>
      <stop offset="0.986"/>
    </linearGradient>
    <linearGradient id="linear-gradient-53" x1="816.243" y1="447.041" x2="816.243" y2="620.881" gradientTransform="matrix(1, 0, 0, -1, 0, 743.103)" gradientUnits="userSpaceOnUse">
      <stop offset="0" stop-color="#0036ab"/>
      <stop offset="0.986"/>
    </linearGradient>
    <linearGradient id="linear-gradient-54" x1="1092.027" y1="481.779" x2="1092.027" y2="560.248" xlink:href="#linear-gradient-52"/>
    <linearGradient id="linear-gradient-55" x1="1039.92" y1="431.181" x2="1039.92" y2="618.954" gradientTransform="matrix(1, 0, 0, -1, 0, 743.103)" gradientUnits="userSpaceOnUse">
      <stop offset="0" stop-color="#3800ff"/>
      <stop offset="0.986"/>
    </linearGradient>
    <linearGradient id="linear-gradient-56" x1="1028.226" y1="431.601" x2="1028.226" y2="668.906" xlink:href="#linear-gradient-53"/>
    <radialGradient id="radial-gradient" cx="-547.442" cy="335.422" r="85.515" gradientTransform="translate(1175.717 743.103) rotate(180)" gradientUnits="userSpaceOnUse">
      <stop offset="0" stop-color="#003b72"/>
      <stop offset="1"/>
    </radialGradient>
    <radialGradient id="radial-gradient-2" cx="45.198" cy="344.75" r="85.516" gradientTransform="matrix(1, 0, 0, -1, 0, 743.103)" xlink:href="#radial-gradient"/>
  </defs>
  <g id="Layer_2" data-name="Layer 2">
    <g id="Layer_1-2" data-name="Layer 1">
      <g>
        <g id="Layer_2-2" data-name="Layer 2">
          <g id="layer1">
            <polygon points="1344.801 190.18 1344.801 183.305 1360.433 181.02 1366.885 185.125 1367.179 189.324 1344.801 190.18" fill-rule="evenodd" fill="url(#linear-gradient)"/>
            <polygon points="1520.518 308.501 1526.446 162.396 1522.76 140.35 1491.321 140.35 1487.629 291.859 1483.822 291.113 1486.981 182.764 1476.457 164.806 1454.154 166.942 1452.178 242.015 1449.793 242.015 1452.538 124.645 1445.594 113.784 1415.181 115.473 1411.813 314.16 1520.518 308.501" fill-rule="evenodd" fill="url(#linear-gradient-2)"/>
            <polygon points="1335.002 312.633 1335.156 217.012 1341.286 215.589 1340.871 190.18 1366.574 188.459 1373.6 191.268 1373.6 217.012 1379.453 218.864 1376.519 296.272 1379.453 296.272 1381.83 232.278 1409.594 229.953 1418.692 233.905 1419.999 309.335 1335.002 312.633" fill-rule="evenodd" fill="url(#linear-gradient-3)"/>
            <polygon points="1522.76 140.35 1516.796 308.132 1520.584 306.891 1526.446 162.396 1522.76 140.35" fill-rule="evenodd" opacity="0.3" fill="url(#linear-gradient-4)" style="isolation: isolate"/>
            <polygon points="1486.981 182.764 1476.457 164.806 1470.427 311.869 1483.822 291.113 1486.981 182.764" fill-rule="evenodd" opacity="0.3" fill="url(#linear-gradient-5)" style="isolation: isolate"/>
            <polygon points="1452.538 124.645 1445.594 113.784 1440.354 314.081 1448.807 311.941 1449.793 242.015 1452.538 124.645" fill-rule="evenodd" opacity="0.3" fill="url(#linear-gradient-6)" style="isolation: isolate"/>
            <polygon points="1366.574 188.459 1366.574 216.119 1371.077 216.969 1369.983 311.275 1376.228 310.855 1379.453 218.864 1373.6 217.012 1373.6 191.268 1366.574 188.459" fill-rule="evenodd" opacity="0.3" fill="url(#linear-gradient-7)" style="isolation: isolate"/>
            <polygon points="1409.594 229.953 1408.006 309.143 1416.292 308.281 1418.692 233.905 1409.594 229.953" fill-rule="evenodd" opacity="0.3" fill="url(#linear-gradient-8)" style="isolation: isolate"/>
            <polygon points="1385.585 231.963 1384.919 305.232 1402.687 304.832 1406.437 230.217 1385.585 231.963" fill-rule="evenodd" opacity="0.3" fill="url(#linear-gradient-9)" style="isolation: isolate"/>
            <polygon points="1492.5 276.29 1494.994 156.864 1519.19 156.104 1513.703 278.27 1492.5 276.29" fill-rule="evenodd" opacity="0.3" fill="url(#linear-gradient-10)" style="isolation: isolate"/>
            <polygon points="1415.411 278.62 1417.287 117.564 1423.006 117.398 1419.041 278.636 1415.411 278.62" fill-rule="evenodd" opacity="0.3" fill="url(#linear-gradient-11)" style="isolation: isolate"/>
            <polygon points="1434.118 277.457 1435.758 116.369 1442.026 115.924 1437.75 277.472 1434.118 277.457" fill-rule="evenodd" opacity="0.3" fill="url(#linear-gradient-12)" style="isolation: isolate"/>
            <polygon points="1424.337 278.339 1425.723 117.27 1432.244 116.806 1427.967 278.355 1424.337 278.339" fill-rule="evenodd" opacity="0.3" fill="url(#linear-gradient-13)" style="isolation: isolate"/>
            <polygon points="1369.472 218.223 1366.584 217.512 1364.798 310.14 1367.837 309.999 1369.472 218.223" fill-rule="evenodd" opacity="0.3" fill="url(#linear-gradient-14)" style="isolation: isolate"/>
            <polygon points="1340.83 217.512 1337.4 218.338 1337.51 311.275 1339.814 311.145 1340.83 217.512" fill-rule="evenodd" opacity="0.3" fill="url(#linear-gradient-15)" style="isolation: isolate"/>
            <polygon points="506.23 255.345 504.949 205.088 516.644 196.144 529.751 195.492 531.442 258.752 533.904 258.752 531.442 160.878 566.501 154.282 578.176 157.58 578.176 269.6 581.297 271.112 581.297 183.967 615.115 180.669 626.331 190.84 624.86 221.313 645 221.313 641.572 316.048 472.911 310.749 471.359 261.171 478.295 257.813 477.376 238.176 505.664 233.089 506.23 255.345" fill-rule="evenodd" fill="url(#linear-gradient-16)"/>
            <polygon points="566.501 154.282 563.58 313.687 578.176 314.049 578.176 157.58 566.501 154.282" fill-rule="evenodd" opacity="0.3" fill="url(#linear-gradient-17)" style="isolation: isolate"/>
            <polygon points="615.115 180.669 610.643 316.048 622.431 316.066 626.331 190.84 615.115 180.669" fill-rule="evenodd" opacity="0.3" fill="url(#linear-gradient-18)" style="isolation: isolate"/>
            <polygon points="516.644 196.144 517.854 312.305 530.169 312.704 529.751 195.492 516.644 196.144" fill-rule="evenodd" opacity="0.3" fill="url(#linear-gradient-19)" style="isolation: isolate"/>
            <polygon points="505.664 233.089 502.283 234.626 503.973 311.724 507.344 311.99 505.664 233.089" fill-rule="evenodd" opacity="0.3" fill="url(#linear-gradient-20)" style="isolation: isolate"/>
            <polygon points="533.107 176.202 563.58 172.094 563.58 189.132 533.897 191.251 533.107 176.202" fill-rule="evenodd" opacity="0.3" fill="url(#linear-gradient-21)" style="isolation: isolate"/>
            <polygon points="479.547 240.448 482.432 308.079 500.024 308.079 498.955 237.569 479.547 240.448" fill-rule="evenodd" opacity="0.3" fill="url(#linear-gradient-22)" style="isolation: isolate"/>
            <polygon points="839.923 296.062 839.923 115.586 828.482 99.685 832.166 296.473 839.923 296.062" fill-rule="evenodd" fill="url(#linear-gradient-23)"/>
            <polygon points="828.482 99.685 792.563 102.683 801.139 294.054 832.166 296.473 828.482 99.685" fill-rule="evenodd" fill="url(#linear-gradient-24)"/>
            <polygon points="1120.525 299.575 1133.905 118.066 1081.606 111.76 1073.109 302.128 1120.525 299.575" fill-rule="evenodd" fill="url(#linear-gradient-25)"/>
            <polygon points="808.738 303.648 808.738 230.866 757.314 228.673 759.995 303.648 808.738 303.648" fill-rule="evenodd" fill="url(#linear-gradient-26)"/>
            <polygon points="1160.084 312.556 1165.319 245.666 1093.957 237.134 1093.957 288.327 1087.753 288.327 1087.753 262.148 1060.14 258.439 1058.858 304.204 1051.295 304.204 1064.094 54.461 1010.095 45.154 995.947 71.914 995.947 296.86 990.792 298.412 991.082 159.76 965.291 128.538 965.291 59.114 963.935 128.733 935.804 169.974 937.298 240.096 916.328 241.787 916.328 299.575 910.509 299.187 905.08 200.676 858.152 201.839 862.805 304.204 847.098 304.204 847.098 296.473 725.511 290.074 718.105 310.263 1160.084 312.556" fill-rule="evenodd" fill="url(#linear-gradient-27)"/>
            <polygon points="1181.769 306.955 1293.034 310.429 1294.307 263.145 1250.746 258.939 1251.579 305.49 1181.769 306.955" fill-rule="evenodd" fill="url(#linear-gradient-28)"/>
            <polygon points="718.105 310.947 718.105 176.63 698.315 159.177 655.265 159.177 668.457 311.863 718.105 310.947" fill-rule="evenodd" fill="url(#linear-gradient-29)"/>
            <polygon points="698.315 159.177 702.984 311.226 718.105 310.947 718.105 176.63 698.315 159.177" fill-rule="evenodd" fill="url(#linear-gradient-30)"/>
            <polygon points="698.315 308.302 692.11 159.177 689.008 159.177 696.765 308.302 698.315 308.302" fill-rule="evenodd" opacity="0.49" fill="url(#linear-gradient-31)" style="isolation: isolate"/>
            <polygon points="674.076 308.302 661.084 159.177 658.465 159.177 673.011 308.302 674.076 308.302" fill-rule="evenodd" opacity="0.49" fill="url(#linear-gradient-32)" style="isolation: isolate"/>
            <polygon points="905.08 200.676 915.939 212.312 918.025 311.226 908.233 311.249 905.08 200.676" fill-rule="evenodd" fill="url(#linear-gradient-33)"/>
            <polygon points="991.082 159.76 995.947 162.668 995.947 296.86 990.792 298.412 991.082 159.76" fill-rule="evenodd" fill="url(#linear-gradient-34)"/>
            <polygon points="1081.606 111.76 1060.64 121.867 1051.295 304.204 1058.858 304.204 1060.14 258.439 1074.971 260.432 1081.606 111.76" fill-rule="evenodd" fill="url(#linear-gradient-35)"/>
            <polygon points="1093.957 237.134 1081.606 239.46 1081.606 261.324 1087.753 262.148 1085.909 312.171 1093.957 312.212 1093.957 237.134" fill-rule="evenodd" fill="url(#linear-gradient-36)"/>
            <polygon points="1250.746 258.939 1219.454 264.927 1219.803 308.141 1251.579 309.412 1250.746 258.939" fill-rule="evenodd" fill="url(#linear-gradient-37)"/>
            <polygon points="1010.095 45.154 1003.203 298.412 990.792 298.412 991.082 159.76 995.947 162.668 995.947 71.914 1010.095 45.154" fill-rule="evenodd" fill="url(#linear-gradient-38)"/>
            <polygon points="1128.269 194.517 1078.231 187.376 1078.231 190.946 1128.029 197.762 1128.269 194.517" fill="#205cb8" fill-rule="evenodd"/>
            <polygon points="1125.548 231.43 1076.56 224.819 1076.413 228.124 1125.467 232.527 1125.548 231.43" fill="#205cb8" fill-rule="evenodd"/>
            <polygon points="965.291 128.538 963.935 311.226 963.013 311.226 963.935 128.733 965.291 128.538" fill="#1aa9fd" fill-rule="evenodd"/>
            <polygon points="882.977 201.224 886.882 311.136 886.247 311.136 881.804 201.253 882.977 201.224" fill="#1aa9fd" fill-rule="evenodd"/>
            <polygon points="955.111 237.134 955.111 311.501 963.935 311.226 966.796 240.818 955.111 237.134" fill-rule="evenodd" fill="url(#linear-gradient-39)"/>
            <polygon points="1058.555 53.507 1046.641 298.412 1007.664 295.793 1013.562 45.749 1058.555 53.507" fill-rule="evenodd" fill="url(#linear-gradient-40)"/>
            <polygon points="955.111 237.134 916.328 241.787 916.328 311.249 955.111 311.501 955.111 237.134" fill-rule="evenodd" fill="url(#linear-gradient-41)"/>
            <polygon points="965.291 128.538 995.947 162.668 990.792 162.668 965.291 128.538" fill-rule="evenodd" fill="url(#linear-gradient-42)"/>
            <polygon points="847.098 296.473 852.334 298.412 852.334 310.96 847.098 310.932 847.098 296.473" fill-rule="evenodd" fill="url(#linear-gradient-43)"/>
            <polygon points="808.738 230.866 816.442 239.072 815.211 296.062 808.738 295.431 808.738 230.866" fill-rule="evenodd" fill="url(#linear-gradient-44)"/>
            <polygon points="1125.548 117.059 1120.525 192.569 1128.269 194.517 1133.905 118.066 1125.548 117.059" fill="#8e95d1" fill-rule="evenodd"/>
            <polygon points="1058.174 62.544 1041.718 58.485 1041.718 115.586 1055.592 115.586 1058.174 62.544" fill="#8e95d1" fill-rule="evenodd"/>
            <polygon points="1037.839 89.02 1039.585 63.587 1030.859 60.894 1031.225 87.96 1037.839 89.02" fill="#8e95d1" fill-rule="evenodd"/>
            <polygon points="1118.004 175.854 1122.076 128.538 1109.083 124.465 1109.083 175.854 1118.004 175.854" fill="#8e95d1" fill-rule="evenodd"/>
            <polygon points="1103.507 190.984 1104.936 166.546 1092.018 162.668 1092.018 189.345 1103.507 190.984" fill="#8e95d1" fill-rule="evenodd"/>
            <polygon points="1165.319 245.666 1160.084 310.097 1146.751 307.858 1146.751 243.445 1165.319 245.666" fill="#83abe5" fill-rule="evenodd"/>
            <polygon points="1118.778 272.522 1120.525 246.345 1109.083 244.308 1111.215 272.522 1118.778 272.522" fill="#83abe5" fill-rule="evenodd"/>
            <polygon points="1060.64 121.867 1007.664 150.16 1002.877 311.501 1058.622 311.501 1058.858 304.204 1051.295 304.204 1060.64 121.867" fill-rule="evenodd" fill="url(#linear-gradient-45)"/>
            <polygon points="801.795 241.327 792.563 241.012 793.123 292.293 801.139 294.054 801.795 241.327" fill-rule="evenodd" opacity="0.49" fill="url(#linear-gradient-46)" style="isolation: isolate"/>
            <polygon points="774.863 239.67 766.287 239.67 766.847 292.248 774.863 292.71 774.863 239.67" fill-rule="evenodd" opacity="0.49" fill="url(#linear-gradient-47)" style="isolation: isolate"/>
            <polygon points="905.08 217.41 858.972 219.882 859.196 224.819 905.768 224.819 905.08 217.41" fill-rule="evenodd" opacity="0.49" fill="url(#linear-gradient-48)" style="isolation: isolate"/>
            <polygon points="906.119 237.134 859.701 235.942 859.933 241.012 906.268 242.368 906.119 237.134" fill-rule="evenodd" opacity="0.49" fill="url(#linear-gradient-49)" style="isolation: isolate"/>
            <polygon points="906.755 259.431 860.771 259.431 861.078 266.189 906.755 264.863 906.755 259.431" fill-rule="evenodd" opacity="0.49" fill="url(#linear-gradient-50)" style="isolation: isolate"/>
            <polygon points="907.33 279.614 861.687 279.614 862.002 286.521 907.33 287.747 907.33 279.614" fill-rule="evenodd" opacity="0.49" fill="url(#linear-gradient-51)" style="isolation: isolate"/>
            <polygon points="1079.884 150.313 1112.946 154.069 1113.829 150.313 1080.075 146.057 1071.092 147.885 1071.092 151.733 1079.884 150.313" fill="#1aa9fd" fill-rule="evenodd"/>
            <polygon points="1082.436 139.237 1097.464 140.789 1096.689 144.958 1082.436 143.116 1082.436 139.237" fill="#00fffd" fill-rule="evenodd"/>
            <rect x="799.034" y="127.222" width="2.412" height="4.488" fill="#1aa9fd"/>
            <rect x="821.164" y="108.523" width="2.412" height="4.488" fill="#1aa9fd"/>
            <rect x="1029.049" y="100.394" width="2.412" height="4.488" fill="#1aa9fd"/>
            <rect x="1032.903" y="100.394" width="2.412" height="4.488" fill="#1afffd"/>
            <rect x="1043.223" y="120.757" width="2.412" height="4.488" fill="#1afffd"/>
            <rect x="1036.798" y="55.536" width="2.412" height="4.488" fill="#1aa9fd"/>
            <rect x="1025.232" y="95.129" width="2.412" height="4.488" fill="#1aa9fd"/>
            <rect x="814.606" y="158.238" width="2.412" height="4.488" fill="#1aa9fd"/>
            <rect x="692.649" y="291.054" width="2.412" height="4.488" fill="#1aa9fd"/>
            <rect x="820.281" y="270.906" width="2.412" height="4.488" fill="#1aa9fd"/>
            <rect x="815.488" y="180.837" width="2.412" height="4.488" fill="#1afffd"/>
            <rect x="670.669" y="215.166" width="2.412" height="4.488" fill="#1afffd"/>
            <rect x="804.71" y="198.98" width="2.412" height="4.488" fill="#1afffd"/>
            <rect x="821.164" y="258.631" width="2.412" height="4.488" fill="#1afffd"/>
            <rect x="668.278" y="168.24" width="2.412" height="4.488" fill="#1aa9fd"/>
            <rect x="684.237" y="199.588" width="2.412" height="4.488" fill="#1aa9fd"/>
            <rect x="678.62" y="200.44" width="2.412" height="4.488" fill="#1aa9fd"/>
            <rect x="678.62" y="168" width="2.412" height="4.488" fill="#1afffd"/>
            <rect x="675.443" y="254.272" width="2.412" height="4.488" fill="#1afffd"/>
            <rect x="812.497" y="140.893" width="2.412" height="4.488" fill="#1aa9fd"/>
            <rect x="1019.822" y="59.456" width="2.412" height="4.488" fill="#1aa9fd"/>
            <rect x="1026.109" y="122.222" width="2.412" height="4.488" fill="#1afffd"/>
            <rect x="808.904" y="140.893" width="2.412" height="4.488" fill="#1aa9fd"/>
            <rect x="808.904" y="177.119" width="2.412" height="4.488" fill="#1aa9fd"/>
            <rect x="803.505" y="106.632" width="2.412" height="4.488" fill="#1aa9fd"/>
            <rect x="662.602" y="168" width="2.412" height="4.488" fill="#1aa9fd"/>
            <rect x="677.738" y="228.673" width="12.592" height="4.478" fill="#1aa9fd"/>
            <rect x="766.287" y="239.67" width="8.576" height="6.077" fill="#1aa9fd"/>
            <polygon points="766.287 259.431 774.863 261.164 774.863 272.181 766.634 272.181 766.287 259.431" fill="#1aa9fd" fill-rule="evenodd"/>
            <polygon points="858.972 219.882 905.08 217.41 911.076 221.115 911.076 226.257 905.768 224.819 859.196 224.819 858.972 219.882" fill="#1aa9fd" fill-rule="evenodd"/>
            <polygon points="859.701 235.942 874.99 235.942 874.99 241.452 859.933 241.012 859.701 235.942" fill="#1aa9fd" fill-rule="evenodd"/>
            <polygon points="924.875 255.247 939.885 253.6 939.885 259.431 924.875 259.431 924.875 255.247" fill="#1aa9fd" fill-rule="evenodd"/>
            <polygon points="1103.507 155.989 1130.818 159.939 1130.469 164.663 1103.507 160.326 1103.507 155.989" fill="#1aa9fd" fill-rule="evenodd"/>
            <polygon points="1093.77 247.165 1116.018 249.492 1115.579 255.963 1093.957 253.6 1086.993 253.6 1086.993 248.621 1093.77 247.165" fill="#1aa9fd" fill-rule="evenodd"/>
            <polygon points="867.346 219.433 868.349 224.819 876.104 224.819 876.104 218.724 867.346 219.433" fill="#00fffd" fill-rule="evenodd"/>
            <polygon points="861.514 235.942 861.992 241.073 864.329 241.14 864.329 236.061 861.514 235.942" fill="#00fffd" fill-rule="evenodd"/>
            <polygon points="924.875 255.247 924.875 259.431 931.058 259.431 930.564 254.622 924.875 255.247" fill="#00fffd" fill-rule="evenodd"/>
            <polygon points="1100.011 247.817 1100.011 254.262 1106.603 254.983 1106.603 248.621 1100.011 247.817" fill="#00fffd" fill-rule="evenodd"/>
            <rect x="779.243" y="239.67" width="16.192" height="6.077" fill="#00fffd"/>
            <polygon points="1016.095 176.74 1071.075 159.027 1071.092 163.599 1016.095 179.943 1016.095 176.74" fill="#0075fd" fill-rule="evenodd"/>
            <polygon points="1016.977 184.16 1041.718 177.198 1041.718 181.492 1016.977 187.791 1016.977 184.16" fill="#0075fd" fill-rule="evenodd"/>
            <polygon points="1043.592 226.257 1076.826 218.873 1076.826 222.565 1043.326 228.673 1043.592 226.257" fill="#0075fd" fill-rule="evenodd"/>
            <polygon points="1076.826 218.873 1087.753 219.882 1087.753 223.35 1076.826 222.565 1076.826 218.873" fill="#1aa9fd" fill-rule="evenodd"/>
            <polygon points="1076.826 218.873 1076.826 222.565 1087.753 223.35 1088.496 219.786 1076.826 218.873" fill="#00fffd" fill-rule="evenodd"/>
            <polygon points="1124.147 163.644 1124.741 159.027 1130.818 159.939 1130.469 164.663 1124.147 163.644" fill="#00fffd" fill-rule="evenodd"/>
            <polygon points="1034.027 170.962 1034.027 174.615 1042.551 172.081 1042.551 168.215 1034.027 170.962" fill="#1aa9fd" fill-rule="evenodd"/>
            <polygon points="1033.108 171.258 1032.769 174.988 1031.302 175.424 1031.302 171.841 1033.108 171.258" fill="#1aa9fd" fill-rule="evenodd"/>
            <polygon points="970.835 174.511 981.49 174.522 981.49 170.84 971.708 171.566 970.835 174.511" fill="#1aa9fd" fill-rule="evenodd"/>
            <polygon points="963.675 179.943 936.029 180.451 936.607 185.989 963.266 184.16 963.675 179.943" fill="#1aa9fd" fill-rule="evenodd"/>
            <polygon points="951.172 184.989 951.172 180.173 954.255 179.943 955.111 184.72 951.172 184.989" fill="#00fffd" fill-rule="evenodd"/>
            <polygon points="1004.136 284.468 1019.1 281.279 1019.1 286.521 1003.456 289.138 1004.136 284.468" fill="#0075fd" fill-rule="evenodd"/>
            <polygon points="1114.804 264.433 1132.272 266.049 1132.272 271.04 1114.804 268.872 1114.804 264.433" fill="#1aa9fd" fill-rule="evenodd"/>
            <polygon points="1251.283 273.857 1273.314 275.232 1273.314 280.891 1251.283 280.065 1251.283 273.857" fill="#1aa9fd" fill-rule="evenodd"/>
            <polygon points="1270.626 285.997 1277.944 286.527 1277.497 292.417 1271.908 292.417 1270.626 285.997" fill="#1aa9fd" fill-rule="evenodd"/>
            <polygon points="1002.877 311.501 1007.163 167.052 935.804 169.974 937.298 240.096 955.111 237.134 966.796 240.818 963.935 311.226 1002.877 311.501" fill-rule="evenodd" fill="url(#linear-gradient-52)"/>
            <polygon points="815.211 296.062 816.442 239.072 808.738 230.866 797.179 230.374 792.563 122.222 839.643 122.734 839.923 296.062 815.211 296.062" fill-rule="evenodd" fill="url(#linear-gradient-53)"/>
            <polygon points="1074.971 260.432 1078.432 182.855 1109.083 185.24 1105.73 238.54 1093.957 237.134 1081.606 239.46 1081.606 261.324 1074.971 260.432" fill-rule="evenodd" fill="url(#linear-gradient-54)"/>
            <polygon points="1023.473 311.847 1027.644 139.763 1056.367 124.149 1052.815 311.922 1023.473 311.847" fill-rule="evenodd" opacity="0.5" fill="url(#linear-gradient-55)" style="isolation: isolate"/>
            <polygon points="995.947 162.668 993.369 311.341 1002.877 311.501 1007.664 150.16 1060.64 121.867 1063.082 74.197 996.013 74.197 995.947 162.668" fill-rule="evenodd" fill="url(#linear-gradient-56)"/>
            <polygon points="985.488 247.165 985.488 207.241 1005.692 206.945 1004.77 247.165 985.488 247.165" fill="#fff" fill-rule="evenodd"/>
            <polygon points="832.166 112.171 832.166 144.941 835.575 146.416 835.575 118.109 832.166 112.171" fill="#ff68ff" fill-rule="evenodd"/>
            <polygon points="858.152 201.839 858.663 213.083 905.374 210.975 905.08 200.676 858.152 201.839" fill="#ff68ff" fill-rule="evenodd"/>
            <polygon points="1025.31 46.221 1025.31 28.932 1052.464 33.533 1052.464 50.903 1025.31 46.221" fill="#fff" fill-rule="evenodd"/>
            <polygon points="1097.368 237.771 1097.368 233.53 1161.355 242.936 1161.355 244.814 1097.368 237.771" fill="#fff" fill-rule="evenodd"/>
            <polygon points="921.764 299.56 945.579 297.471 945.579 302.128 921.564 302.256 921.764 299.56" fill="#006aff" fill-rule="evenodd"/>
            <polygon points="706.122 178.052 706.122 221.293 711.727 224.114 712.815 184.037 706.122 178.052" fill="#006aff" fill-rule="evenodd"/>
            <polygon points="810.108 241.452 814.606 241.012 814.606 270.906 810.108 270.906 810.108 241.452" fill="#ff68ff" fill-rule="evenodd"/>
            <polygon points="658.465 196.21 651.087 196.065 655.265 238.54 662.102 238.306 658.465 196.21" fill="#008dff" fill-rule="evenodd"/>
            <polygon points="964.886 79.911 965.291 80.237 966.86 57.91 964.037 57.91 964.886 79.911" fill="#fff" fill-rule="evenodd"/>
            <polygon points="7.991 356.279 418.383 353.878 358.103 351.276 360.007 345.156 368.583 341.822 309.99 284.023 287.6 279.399 283.79 284.023 248.538 279.399 199.473 310.257 213.187 326.579 207.572 334.081 136.238 245.458 54.303 222.869 47.634 222.869 61.448 250.082 49.54 239.364 33.82 245.458 44.181 320.384 26.08 325.149 24.173 341.822 19.885 342.299 7.991 356.279" fill="#1d1056" fill-rule="evenodd"/>
            <polygon points="287.6 279.399 291.292 302.143 348.456 337.296 368.583 341.822 309.99 284.023 287.6 279.399" fill="#1e3398" fill-rule="evenodd"/>
            <polygon points="283.79 284.023 287.6 302.143 300.581 321.933 248.538 279.399 283.79 284.023" fill="#1e3398" fill-rule="evenodd"/>
            <polygon points="207.572 334.081 226.984 354.998 152.671 355.432 67.661 249.577 54.303 222.869 109.711 238.146 144.931 271.915 134.988 254.051 118.321 240.52 136.238 245.458 207.572 334.081" fill="#1e3398" fill-rule="evenodd"/>
            <polygon points="49.54 239.364 108.49 319.909 58.114 269.296 33.82 245.458 49.54 239.364" fill="#1e3398" fill-rule="evenodd"/>
            <polygon points="44.181 320.384 129.092 356.279 54.066 355.432 30.843 334.081 26.08 325.149 44.181 320.384" fill="#1e3398" fill-rule="evenodd"/>
            <polygon points="24.173 341.822 34.058 350.158 24.173 345.989 19.885 342.299 24.173 341.822" fill="#1e3398" fill-rule="evenodd"/>
            <polygon points="271.286 354.291 239.846 334.081 255.566 353.852 271.286 354.291" fill="#1e3398" fill-rule="evenodd"/>
            <polygon points="291.292 302.143 287.6 302.143 283.79 284.023 287.6 279.399 291.292 302.143" fill="#15004b" fill-rule="evenodd"/>
            <polygon points="213.187 326.579 247.141 354.291 226.984 354.998 207.572 334.081 213.187 326.579" fill="#15004b" fill-rule="evenodd"/>
            <polygon points="239.846 334.081 230.676 355.432 255.566 353.852 239.846 334.081" fill="#15004b" fill-rule="evenodd"/>
            <polygon points="58.114 269.296 69.428 331.057 44.181 320.384 33.82 245.458 58.114 269.296" fill="#15004b" fill-rule="evenodd"/>
            <polygon points="47.634 222.869 43.921 241.542 49.54 239.364 69.428 265.723 67.661 249.577 56.523 222.869 47.634 222.869" fill="#15004b" fill-rule="evenodd"/>
            <polygon points="30.843 334.081 27.654 344.756 24.173 341.822 26.08 325.149 30.843 334.081" fill="#15004b" fill-rule="evenodd"/>
            <polygon points="88.31 275.289 82.519 284.424 77.588 277.879 81.335 266.605 88.31 275.289" fill="#15004b" fill-rule="evenodd"/>
            <polygon points="191.497 355.206 173.873 334.081 186.734 355.432 191.497 355.206" fill="#15004b" fill-rule="evenodd"/>
            <polygon points="291.292 334.953 261.998 310.611 276.645 331.057 291.292 334.953" fill="#1e3398" fill-rule="evenodd"/>
            <polygon points="359.653 354.223 339.645 338.332 323.568 332.056 344.528 354.31 359.653 354.223" fill="#1e3398" fill-rule="evenodd"/>
            <polygon points="166.726 332.056 135.286 268.31 97.653 242.677 132.19 287.366 123.853 288.258 94.796 256.81 71.592 254.474 152.671 355.432 166.726 332.056" fill="#2740b3" fill-rule="evenodd"/>
            <polygon points="287.6 279.399 291.292 302.143 334.297 308 309.99 284.023 287.6 279.399" fill="#2740b3" fill-rule="evenodd"/>
            <polygon points="343.648 317.224 330.664 312.288 330.664 316.038 351.792 326.579 343.648 317.224" fill="#2740b3" fill-rule="evenodd"/>
            <polygon points="334.912 319.879 325.354 315.503 321.692 317.111 334.297 324.812 334.912 319.879" fill="#2740b3" fill-rule="evenodd"/>
            <polygon points="218.263 345.601 188.52 343.183 163.511 308 183.025 303.586 218.263 345.601" fill="#2740b3" fill-rule="evenodd"/>
            <polygon points="182.684 337.296 176.995 326.969 166.726 324.812 179.209 338.332 182.684 337.296" fill="#2740b3" fill-rule="evenodd"/>
            <polygon points="66.995 340.789 91.378 351.297 108.49 347.569 69.428 331.057 66.995 340.789" fill="#2740b3" fill-rule="evenodd"/>
            <polygon points="298.488 306.567 290.167 295.206 291.292 302.143 298.488 306.567" fill="#4a60c2" fill-rule="evenodd"/>
            <polygon points="355.88 338.965 339.935 332.056 347.907 338.965 355.88 338.965" fill="#4a60c2" fill-rule="evenodd"/>
            <polygon points="76.212 260.225 62.541 237.301 68.381 256.154 76.212 260.225" fill="#4a60c2" fill-rule="evenodd"/>
            <polygon points="38.56 341.177 29.34 339.108 28.242 329.205 38.56 341.177" fill="#4a60c2" fill-rule="evenodd"/>
            <g opacity="0.5">
              <path d="M7.02,356.152l410.381-3.8-60.235,3.483,2,6.034,8.622,3.171-7.636,7.68a29.567,29.567,0,0,0-3.308.5c-2.67,2.97-6.5-.745-10.238,1.2,1.942,3.743,7.542-.113,9.132,2.746l-1.071,1.08-14.157,14.25c-.378.386-.766.771-1.115,1.157a27.158,27.158,0,0,0,11.293,1.45c-3.8-1.829-9.37,3.913-13.976,2.008a4.136,4.136,0,0,0-1.942,1.164l-20.3,20.436c-.46.462-.888.894.106,1.271,2.546.141,6.287-1.8,8.229,1.942a51.243,51.243,0,0,0-15.068,1.739l-2.5.55-17.5,3.852L285.8,425.8l-1.335-1.554c.66.124-1.226.153-2.023-.488-.566.071-1.16.156-1.829.252l-31.931,4.637-7.026-4.229a12.461,12.461,0,0,1,2.451-.657,24.016,24.016,0,0,1,7.056-.765c-3.827-3.715-9.456-1.744-14.242-1.886a5.305,5.305,0,0,1-1.942-.716l-33.686-20.282-1.154-.694c1.635-.188,5.406-.252,7.263-2.166a7.35,7.35,0,0,0-5.3-1.956c.27-.343.566-.7.862-1.076l9.675-11.755-2.155-2.762a10.453,10.453,0,0,0-1.677-.894c-3.6-2.263-7.312,1.559-9.256-2.184a12.158,12.158,0,0,0,5.483-.926,8.231,8.231,0,0,0,1.886-.578s-.132.167-1.886.512a45.493,45.493,0,0,1-11.134,1.077c1.942,3.743,5.685,1.8,9.754,2.549q-.52.659-1.109,1.407c-2.734,3.47-6.586,8.355-11.066,14.042-.3.377-.6.754-.487,1.141,3.191-.285,7.019,3.43,10.761,1.488-3.771.056-9.369,3.912-13.223,2.074a3.375,3.375,0,0,0-1.726,1.233l-15.524,19.7-1,1.265c3.558.673,7.3-1.269,9.239,2.474-3.771.057-7.57-1.772-11.749,1.3a4.065,4.065,0,0,0-1.463,1.262l-17.932,22.749a23.954,23.954,0,0,1-5.589,1.19c-3.283.413-5.87.809-5.8,1.16a15.388,15.388,0,0,0,4.846.963,5.951,5.951,0,0,1,3.185.954l-8.108,10.29-81.586,23.6-6.67.1,13.409-27.152-11.749,10.8-15.8-5.8s.515-4.133,1.3-10.45c-.907-.176-1.541-.36-2.559-.539a7.028,7.028,0,0,1-6.034-1.728c3.771-.056,5.627-1.97,9.128-2.029l.166-1.32c.832-6.693,1.833-14.752,2.828-22.713,7.2-.287,8.938-.491,11.075-.7-2.878-1.831-6.649-1.772-10.56-3.038.04-.53.093-1.059.145-1.587.855-6.86,1.667-13.388,2.316-18.622a1.538,1.538,0,0,1,.905-1.373c4,2.051,7.716-1.776,11.487-1.833a12.807,12.807,0,0,1-5.636-.773c-1.967-.168-3.221-.343-6.2-.49l.888-7.147L25.584,386.7l-.5-3.822a3.065,3.065,0,0,0-1.578-1.371c-3.027-.3-6.768,1.646-8.71-2.1a30.388,30.388,0,0,0,8.152-.926c1.319-.535,1.338-1.052,1.357-1.561l-.892-6.7-4.293-.408Z" fill="#15004b" fill-rule="evenodd"/>
              <path d="M287.742,428.061s.277-1.864.673-4.525a27.355,27.355,0,0,0,3.916-.411,17.3,17.3,0,0,1,5.966-.837c-1.942-3.743-5.685-1.8-9.371-2.174q.115-.813.241-1.654l1.927-12.975,11.738-7.391a7.817,7.817,0,0,1,2.3-.713c5.992.2,9.707-3.63,15.392-1.829-3.771.056-7.514,2-10.937-1.122-.422-.243-.15-.5.263-.754l24.077-15.162c.882-.557,1.738-1.1.878-1.59-1.374-.419-5.117,1.524-7.059-2.219a48.584,48.584,0,0,0,15.2-1.873l1.637-1.029,3.138-1.976,20.055-4.784-7.627,7.676a29.567,29.567,0,0,0-3.308.5c-2.67,2.97-6.5-.745-10.238,1.2,1.942,3.743,7.542-.113,9.132,2.746l-1.071,1.08-14.157,14.25c-.378.386-.766.771-1.115,1.157a27.158,27.158,0,0,0,11.293,1.45c-3.8-1.829-9.37,3.913-13.976,2.008a4.136,4.136,0,0,0-1.942,1.164l-20.3,20.436c-.46.462-.888.894.106,1.271,2.546.141,6.287-1.8,8.229,1.942a51.243,51.243,0,0,0-15.068,1.739l-2.5.55Z" fill="#1e3398" fill-rule="evenodd"/>
              <path d="M284.28,423.536c.766-4.82,6.535,2.64,6.477-1.131,1.8-5.685-5.627,1.97-6.079-2.75.1-.754.264-1.582.433-2.451l2.293-11.662,4.015-6.262.754-1.183c3.9,1.594,9.468-4.148,13.267-2.319-3.771.057-7.514,2-10-1.378-.554-.4-.377-.8-.121-1.2l4.771-7.444S296.4,388.83,291,393.336l-1.1.92c4.2-.188,6.145,3.549,9.888,1.607-5.685-1.8-9.369,3.913-14.683,2.395l-1.278,1.065-24.234,20.229-.99.828c3.851.565,7.593-1.379,9.536,2.362-3.772.057-9.457-1.742-13.283,1.307a3.693,3.693,0,0,0-1.419.643l-4.745,3.96,31.931-4.637c.669-.1,1.267-.189,1.829-.253C283.571,423.619,284.28,423.536,284.28,423.536Z" fill="#1e3398" fill-rule="evenodd"/>
              <path d="M206.91,375.127l19.1-21-74.311.689-15.735,20.01a6.449,6.449,0,0,1-1.131,1.2,23.917,23.917,0,0,1-10.69,1.746c1.942,3.743,5.685,1.8,7.622,1.974a2.317,2.317,0,0,1-.666,1.277l-11.257,14.317c-.328.415-.656.833-.984,1.25a22.149,22.149,0,0,0,11.253,1.837c-3.771.056-9.4,2.027-12.822,1.929a12.223,12.223,0,0,0-1.906.656c-5.8,7.373-11.736,14.926-17.359,22.075,1.422.188,2.451.39,4.286.577,1.776-.33,7.376-4.186,5.575,1.508-1.857,1.914-7.568-1.772-10.936,1.122a12.808,12.808,0,0,0-1.965.658c-6.993,8.894-13.337,16.97-18.086,23A3.326,3.326,0,0,1,75.678,451c-3.2,2.988-7,1.159-10.768,1.216,1.914,1.857,5.683,1.8,8.234,2.506L71.907,456.3l-3.633,4.62L55.316,487.56,110.488,471.6l18.668-18.257a40.6,40.6,0,0,1-5.863-1.157c3.843-.9,7.614-.962,9.7-2.6l1.235-1.209,10.984-10.747-4.839,8.918-1.431,2.64c-.566.858-5.2,1.741-6.156,2.5s2.837,1.372,3.756,1.925c-.621,1.141-1.007,1.855-1.007,1.855l-16.463,13.65,17.841-5.161,8.108-10.289a5.943,5.943,0,0,0-3.185-.955,15.393,15.393,0,0,1-4.846-.963c-.066-.351,2.521-.754,5.8-1.16a23.954,23.954,0,0,0,5.589-1.19l17.932-22.749a4.065,4.065,0,0,1,1.463-1.262c4.179-3.073,7.978-1.244,11.75-1.3-1.943-3.743-5.686-1.8-9.24-2.474l1-1.265,15.524-19.7a3.368,3.368,0,0,1,1.725-1.233c3.854,1.846,9.453-2.01,13.224-2.074-3.743,1.942-7.571-1.773-10.761-1.488-.115-.377.188-.754.486-1.141,4.48-5.687,8.333-10.572,11.067-14.042q.588-.755,1.108-1.406c-4.069-.755-7.812,1.193-9.754-2.55a45.549,45.549,0,0,0,11.135-1.076C206.778,375.293,206.91,375.127,206.91,375.127Z" fill="#1e3398" fill-rule="evenodd"/>
              <path d="M50.306,471.292l10.936-15.273.854-1.193c-2.815-.649-6.586-.592-8.5-2.452,3.771-.056,7.571,1.771,10.077-1.282a3.8,3.8,0,0,0,2.038-1.32c5.012-7,10.72-14.971,16.288-22.748a13.185,13.185,0,0,1,1.987-.7,44.863,44.863,0,0,1,10.692-.975c-1.914-1.857-5.685-1.8-8.337-1.716-1.485-.419-1.3-.862-.98-1.3l14.464-20.2c.261-.366.519-.724.77-1.075A28.176,28.176,0,0,0,111.25,398.7c-1.885.028-5.657.085-7.885-1.508l1.178-1.645,3.507-4.9-5.159,5.291c-.53.541-1.091,1.118.566,1.7,2.142,1.156,5.911,1.1,9.683,1.043-3.8-1.83-9.37,3.912-13.613,1.885a3.666,3.666,0,0,0-2.189,1.067l-19.787,20.3L76.5,423c3.071.7,6.814-1.246,8.757,2.5-3.8-1.827-9.4,2.029-12.839,1.7l-.977,1-13,13.332-8.642,8.649a12.732,12.732,0,0,1-1.2,1.1C44.2,454.4,38.513,452.6,34.744,452.657c1.942,3.743,5.683,1.8,9.341,1.988.871.354.517.725.147,1.1l-9.726,9.747Z" fill="#1e3398" fill-rule="evenodd"/>
              <path d="M43.746,391.155l22.861-9.994c.5-.217.754-.434.235-.641-2.983,1.918-4.925-1.823-6.81-1.795,5.628-1.971,11.34,1.716,15.984-1.671l1.629-.711,50.462-22.014-75,1.967-22.9,21.5-.091.176c-.7.122-1.382.3-2.794.524a32.751,32.751,0,0,1-8.763.869c1.943,3.743,7.543-.113,9.332,2.889-.377.743-.771,1.486-1.114,2.146l-1.2,2.312Z" fill="#1e3398" fill-rule="evenodd"/>
              <polygon points="23.415 370.223 33.175 361.819 23.353 366.095 19.122 369.815 23.415 370.223" fill="#1e3398" fill-rule="evenodd"/>
              <polygon points="270.315 354.156 239.18 374.641 254.603 354.827 270.315 354.156" fill="#1e3398" fill-rule="evenodd"/>
              <path d="M291.1,405.485l-3.692.057L285.111,417.2c-.169.866-.333,1.7-.433,2.451.452,4.714,5.994-2.907,6.051.864,1.97,5.627-5.683-1.8-6.259,3.732l1.335,1.553,1.939,2.263s.277-1.865.673-4.525a27.371,27.371,0,0,0,3.916-.411,17.324,17.324,0,0,1,5.966-.838c-1.942-3.743-5.685-1.8-9.371-2.174q.115-.812.241-1.653Z" fill="#15004b" fill-rule="evenodd"/>
              <path d="M212.637,382.47l2.483-2.075,1.748-1.457c-2.206-.654-6.006-2.482-7.891-2.451,3.771-.057,7.569,1.772,10.976-1.245.72-.188,1.229-.358,2-.543l24.217-20.176-20.176-.4-19.088,21a8.241,8.241,0,0,1-1.885.579c-1.656,4.64-5.54-2.845-5.454,2.811a63.892,63.892,0,0,1,9.227.3,10.566,10.566,0,0,1,1.676.894Z" fill="#15004b" fill-rule="evenodd"/>
              <polygon points="239.18 374.641 229.692 353.637 254.603 354.827 239.18 374.641" fill="#15004b" fill-rule="evenodd"/>
              <path d="M58.435,441.521l2.125-12.539a8.431,8.431,0,0,1,1.665-1.756c4.114-5.217,9.854.355,13.6-1.588-3.828-3.714-9.428.142-13.609-3.017a5.028,5.028,0,0,1-.333-1.442c1.072-6.337,2.262-13.341,3.345-19.738,2.162-.281,3.33-.547,5.293-.824,1.165.565,3.016-1.345,4.9-1.373-3.743,1.942-5.685-1.8-9.581-1.469.081-.475.161-.943.24-1.414,1.026-6.057,1.885-11.125,2.355-13.9l.209-1.227c.836-.755-1.05-.728-1.684-.221l-2.061.9-21.152,9.244-.888,7.146c2.979.147,4.233.323,6.2.49a12.793,12.793,0,0,0,5.636.773c-3.772.057-7.486,3.885-11.487,1.833a1.54,1.54,0,0,0-.906,1.373c-.648,5.229-1.461,11.762-2.315,18.622-.053.528-.106,1.058-.145,1.588,3.937,3.151,7.68,1.207,10.559,3.037-2.136.21-3.871.413-11.074.7-.99,7.961-1.991,16.028-2.828,22.714l-.166,1.32c-3.5.058-5.357,1.972-9.129,2.029a7.031,7.031,0,0,0,6.034,1.727c1.019.179,1.652.364,2.559.539-.784,6.317-1.3,10.45-1.3,10.45l9.735-9.746c.377-.378.724-.742-.147-1.1-3.658-.189-7.4,1.755-9.341-1.987,3.771-.057,9.454,1.744,13.846-1.388a12.608,12.608,0,0,0,1.2-1.1Z" fill="#15004b" fill-rule="evenodd"/>
              <path d="M48.648,487.646l-3.991-18.428,5.656,2.074L61.1,456.681l1.031-1.4c-.931.754-4.731-1.077-2.874-2.989,1.886-.03,5.657-.087,6.683-2.168l.818-1.109,3.046-4.124s-.215,2.252-.483,5.067c-.1.943-1.614,1.959-1.214,2.953a6.527,6.527,0,0,1,.654,2.926c-.268,2.815-.483,5.067-.483,5.067l-10.746,26.6Z" fill="#15004b" fill-rule="evenodd"/>
              <path d="M30.2,377.786l-3.347-10.522-3.438,2.961.877,6.7c-.019.509-.045,1.026-1.358,1.561a30.376,30.376,0,0,1-8.151.926c1.942,3.743,5.683,1.8,8.71,2.1a3.065,3.065,0,0,1,1.578,1.371l.5,3.822,1.2-2.312c.343-.66.73-1.4,1.114-2.146-1.789-3-7.389.854-9.332-2.888a32.792,32.792,0,0,0,8.763-.87c1.412-.226,2.091-.4,2.794-.524Z" fill="#15004b" fill-rule="evenodd"/>
              <path d="M88.536,435.132l-4.389-6.643c-.44-.663-.8-1.244-.476-1.668a3.722,3.722,0,0,1,1.567-.694s-.792.188-2.986.526l-4.473,6.068,3.914,11.106Z" fill="#15004b" fill-rule="evenodd"/>
              <polygon points="190.521 354.452 173.213 375.632 185.756 354.299 190.521 354.452" fill="#15004b" fill-rule="evenodd"/>
              <path d="M290.608,373a9.2,9.2,0,0,1-2.184,1.069c-4,3.168-7.8,1.339-11.573,1.4,1.885-.029,1.914,1.857,3.139,1.463,2.191.249,3.362.526,5.04.805l-18.61,15.788a10.345,10.345,0,0,0-1.413,1.339c4.586-.428,6.528,3.315,10.269,1.373-1.855,1.913-5.711-3.687-7.512,2a6.927,6.927,0,0,1,5.629-1.97c-1.886.028-5.629,1.97-8.486-1.38-.965-.515-.577-1.115-.124-1.758l9-12.848,1.178-1.682c-1.906-4.957-7.448,2.67-9.428-2.959,5.629-1.97,13.228,1.688,19-1.32,1.131-.13,1.9-.25,2.688-.365Z" fill="#1e3398" fill-rule="evenodd"/>
              <path d="M358.672,352.894,338.9,368.922l-10.925,4.412A41.992,41.992,0,0,1,323.5,374.4a22.845,22.845,0,0,1-5.172.438,12.293,12.293,0,0,0,4.98-.685,4.453,4.453,0,0,0,2.05-1.412l18.19-19.712Z" fill="#1e3398" fill-rule="evenodd"/>
              <path d="M154.242,377.923c3.822-.669,3.878,3.1,6.739.7a30.972,30.972,0,0,0,4.51.377c-1.22,2.544-4.182,8.725-7.793,16.254-.224.469.238.943,1.7,1.389.86,1.32,2.745,1.3,4.631,1.269a8.489,8.489,0,0,0-5.813,1.665c-1,.261-1.775.521-2.97.787-3.394,7.082-7.109,14.828-10.384,21.66a35.824,35.824,0,0,1,3.9.593c2.44,0,4.326-.024,6.24,1.831-1.886.031-5.657.087-6.6.726-1.672.234-2.8.457-5.4.7l-7.413,15.462-12.222,8.515c-2.148.232-3.057.449-4.337.671-1.358.888-5.185-2.828-5.091,2.829,1.886-.029,3.771-.057,3.032.958l-1.4.971-17.227,12,9.581-12.665a7.708,7.708,0,0,0-2.631-1.09c-.786-.034-21.554-1.607-.264-2.323a41.089,41.089,0,0,0,6.453-1.288l17.6-23.27a8.4,8.4,0,0,1,2.2-.839c2.934-2.934,8.617-1.131,12.389-1.19a8.133,8.133,0,0,1-5.572-1.32c-2.759-.241-4.232-.437-6.064-.556l.171-.226-8.349-.755s-.353.389.722,1.056a8.11,8.11,0,0,1,5.894,2,30.917,30.917,0,0,0-8.095.894c-1.016.166-1.7.328-2.549.5l-20.43,22.577-1.381,1.523c-2.922,3.319-8.607,1.52-12.378,1.577,1.885-.029,3.8,1.829,5.685,1.8a13.124,13.124,0,0,0-4.19.577l-1.7.189-13.314,1.531.452-.577c.3-.377.734-.943-1.361-1.616-2.514.23-4.4.258-6.313-1.6a41.368,41.368,0,0,0,10.157-1.063,8.972,8.972,0,0,0,1.52-.811l18.362-23.34c1.233-.234,2.006-.462,3.232-.7,2.125-2.9,5.953.819,7.81-1.1,1.827-3.8-1.916-1.857-3.347-1.6-1.714-.189-2.713-.4-4.555-.6l17.181-21.848a10.141,10.141,0,0,1,1.648-.677c3.787-.011,9.413-1.982,13.184-2.038a21.474,21.474,0,0,1-11.213-1.886l1.025-1.305,10.814-13.751,1.017-1.3c-1.926-.616-5.668,1.32-7.611-2.417,3.743-1.942,7.571,1.772,9.728-1.331a3.694,3.694,0,0,0,1.791-1.222l16.043-20.4,12.162,19.346c.449.716.849,1.354.715,1.885a42.608,42.608,0,0,1-9.2,1.648C154.532,377.848,154.242,377.923,154.242,377.923Z" fill="#2740b3" fill-rule="evenodd"/>
              <path d="M287.742,428.061s.277-1.864.673-4.525a27.355,27.355,0,0,0,3.916-.411,17.3,17.3,0,0,1,5.966-.837c-1.942-3.743-5.685-1.8-9.371-2.174q.115-.813.241-1.654l1.927-12.975,42.913-6.445-18.394,18.515L313.8,419.38c3.322.737,7.092.681,10.891,2.51a64.625,64.625,0,0,0-16.953,1.767l-2.5.55Z" fill="#2740b3" fill-rule="evenodd"/>
              <path d="M343.222,389.767l-8.825,3.475c-.754.3-1.286.566-.524.792,1.68-2.48,3.651,3.149,5.508,1.235-3.743,1.942-5.714-3.686-9.1-2.274l-.029-1.857,20.97-10.748Z" fill="#2740b3" fill-rule="evenodd"/>
              <polygon points="334.446 387.27 324.956 391.749 321.27 390.212 333.758 382.394 334.446 387.27" fill="#2740b3" fill-rule="evenodd"/>
              <path d="M217.428,363.559l-29.7,2.842-5.468,7.853q-.432.622-.888,1.275c-4.422,3.328-8.221,1.508-11.992,1.555,1.885-.028,1.913,1.858,3.56,1.249,1.908.2,3.075.414,6.065.6L168.48,394.068c-.511.733-1,1.433-.149,2.074,1.358,1.7,5.129,1.629,7.012,1.6a15.986,15.986,0,0,0-8.737,1.723,22.833,22.833,0,0,0-2.329.651l-1.043,1.5,19.58,4.077,4.322-5.263a12.288,12.288,0,0,1,1.763-.918c3.471,1.746,7.184-2.075,10.955-2.139-3.771.057-5.713-3.686-8.613-1.942.3-.377.613-.743.924-1.131,3.441-4.188,7.416-9.027,11.179-13.611L204.4,379.4c-1.09-2.829-4.831-.89-6.716-.862,3.713-3.828,7.512-2,10.763-4.064l.943-1.15Z" fill="#2740b3" fill-rule="evenodd"/>
              <path d="M181.977,372.318l-.411.754-1.024,1.908a16.076,16.076,0,0,1-9.273,2.074c1.885-.028,3.8,1.829,6.6,2.9l-1.024,1.91-.411.755L166.2,384.908l2.653-2.932,1.671-1.846a6.478,6.478,0,0,0-4.888-1.113c-.058-3.771,1.856-1.914,4.12-2.828,1.9-.351,3.144-.685,5.265-1.02l3.46-3.824Z" fill="#2740b3" fill-rule="evenodd"/>
              <path d="M66.249,370.6l24.224-10.773,17.159,3.432-30.157,13.16L76.14,377c-4.8,1.558-10.485-.243-14.2,3.583-1.886.028,1.857-1.914,3.771-.057-1.857,1.912-3.828-3.714-5.685-1.8a9.751,9.751,0,0,0,4.544-.962c1.209-.377,1.79-.754,3.285-1.175Z" fill="#2740b3" fill-rule="evenodd"/>
              <polygon points="298.224 400.997 290.074 412.373 291.096 405.487 298.224 400.997" fill="#4a60c2" fill-rule="evenodd"/>
              <path d="M355.127,368.058l-9.4,4.2-1.43.641c-5.232,1.631-12.773,1.745-18.429,1.831,3.771-.056,9.454,1.743,13.387-1.365a21.093,21.093,0,0,0,2.981-.845l4.9-4.337Z" fill="#4a60c2" fill-rule="evenodd"/>
              <path d="M76.666,450.228l-.565.985c-3.374.258-4.814.516-6.943.811-4.148,5.835,1.414.094,1.716,1.84a27.156,27.156,0,0,0,3.394.494c-3.837,6.6-10.923,18.773-10.923,18.773l4.978-16.8a15.7,15.7,0,0,0,.467-1.949c-1.961-.319-5.7,1.623-7.646-2.12a56.77,56.77,0,0,0,11.269-.92,27.655,27.655,0,0,1,3.045-.462Z" fill="#4a60c2" fill-rule="evenodd"/>
              <path d="M37.812,370.643l-9.189,2.187s-.105,1.092-.247,2.548c-.069.728-.149,1.546-.228,2.364-3.911,3.413-7.71,1.584-11.479,1.641,3.8,1.829,7.568,1.772,10.672,2.549a1.145,1.145,0,0,1,.332.721l.436-.515a13.984,13.984,0,0,0-2.5-1.307c-3.254.353-5.168-1.508-8.937-1.448,5.626-1.971,11.34,1.716,15.128-1.614l.943-1.12Z" fill="#4a60c2" fill-rule="evenodd"/>
            </g>
            <path d="M0,356.271l436.529-1.808S103.37,364.066,0,356.271Z" fill="#72ccff" fill-rule="evenodd"/>
            <g opacity="0.5">
              <path d="M2025.925,415.205l-32.243,11.412a11.327,11.327,0,0,0-1.556.619c3.692,3.143,9.21,1.3,12.888,1.3-5.517,0-9.2,3.681-13.919,1.873a3.471,3.471,0,0,0-.064,1.885c.565,4.111,1.466,10.56,2.415,17.389-.024.264-.174.527-.888.791-4.1.13-7.778.13-11.457,1.97,3.679,0,7.354-1.84,11.864,1.21.847.266,1.105.532,1.141.8,1.18,8.5,2.346,16.895,2.992,21.549.081.582.153,1.105.217,1.563,4.02.633,9.539.633,13.218,2.472-5.519,0-9.2-1.839-14.076,1.637-.247.416-.528.893-.842,1.423l-5.28,8.917c-.311.4-.587.809-.86,1.222-1.016,1.518-2.857,1.518-4.7,1.518-1.839,1.838,0,1.838,2.074,2.338a2.433,2.433,0,0,1-.313,1.335l-20.3,34.3-157.07-11.48-29.981-23.015-1.288-.988c-4.661-.651-10.182-.651-15.7-2.489,3.68,0,7.353,1.838,10.385-1.593l-1.367-1.049-12.844-9.862a3.028,3.028,0,0,1-.988-.991c1.131-3.061,4.814-1.222,8.485-1.222a21.686,21.686,0,0,0-10.612-1.776c-1.237-.168-1.978-.336-2.746-.5l-30.989-23.794a19.318,19.318,0,0,0-1.924-.481c-3.394-2.877-8.915-1.037-12.6-1.037,3.681,0,5.52-1.84,9.474-1.818.271-.315-.117-.628-.525-.943l-23.338-17.913-1.1-.845c4.454,1.288,8.133-2.392,11.812-2.392a63.155,63.155,0,0,1-16.907-1.567c-.377-.249-.7-.5-1.022-.738L1671.03,415.2l14.04-8.284-.581-1.058a27.5,27.5,0,0,1-2.741-.7c-4.179-2.382-7.858,1.3-9.7-2.382a37.627,37.627,0,0,0,10.263-.879l-.963-1.753h-66l-39.032-10.9V394.7l-14.87,4.065-15.337-16.44-36.247-3.868,516.146-7.919-.066,30.546v1.548c-4.384,3.847-8.065.168-11.744,2.009,1.84,3.678,9.2,0,11.691,3.592.034.844.034,1.627.032,2.342C2025.931,413.418,2025.925,415.205,2025.925,415.205Z" fill="#1d1056" fill-rule="evenodd"/>
              <polygon points="1509.877 378.457 1501.511 394.898 1473.629 409.886 1449.846 398.765 1449.927 389.248 1440.014 385.709 1429.364 377.974 1509.877 378.457" fill="#1d1056" fill-rule="evenodd"/>
              <path d="M1993.966,427.777a24.328,24.328,0,0,0,7.367.754c-5.517,0-12.874,3.681-18.2,2.321l-1.805.766-43,18.243a12.668,12.668,0,0,1-1.821.645c-5.072-1.739-12.43,1.94-17.949,1.94,3.679,0,7.354-1.84,10.548,1.3-.441.217-.943.432-1.462.649l-53.126,22.555-1.475.626c3.206.641,6.885.641,10.56,2.48-25.754,0-49.667,0-75.588-2-.221-.217.111-.452.565-.707l39.628-22.684c.462-.264.924-.529,1.373-.8-2.761-1.4-8.278-1.4-11.957-1.4,5.518,0,11.037-3.679,16.446-1.808.779-.136,1.3-.27,1.848-.406l32.508-18.607,1.435-.822c4.787,1.409,12.147-2.272,17.664-2.272-3.679,0-7.354,1.84-10.814-1.648l1.3-.745,21.76-12.454,26.527-7.831c.507-.151,1.018-.3,1.4-.455a33.315,33.315,0,0,0-8.9-.78c5.519-3.679,12.876,0,20.127-2.568.812-.164,1.374-.33,1.938-.5l65.16-19.233s-.026,9.428-.049,18.2v1.74c-2.553,4.2-8.072.52-9.91,2.361,0,5.519,7.354-1.841,9.893,4.061v1.381l-.015,5.138L1993.7,426.628a11.392,11.392,0,0,0-1.555.619A7.953,7.953,0,0,0,1993.966,427.777Z" fill="#1e3398" fill-rule="evenodd"/>
              <path d="M1974.831,442.235l-7.029,6.789-1.071,1.035c-4.028.554-9.545.554-13.224,2.395,1.839,0,5.517-1.841,8.078,1.478l-1.621.292-37.729,6.8,18.2-6.5,1.585-.566c-1.39-3.345-5.07-1.508-8.749-1.508,5.519,0,12.877-1.841,18.192-1.993a14.3,14.3,0,0,0,1.976-.581Z" fill="#1e3398" fill-rule="evenodd"/>
              <polygon points="1997.613 370.966 1966.467 384.581 1855.98 384.581 1997.613 370.966" fill="#1e3398" fill-rule="evenodd"/>
              <polygon points="1681.359 400.153 1820.028 377.774 1657.655 376.187 1615.369 400.153 1681.359 400.153" fill="#1e3398" fill-rule="evenodd"/>
              <polygon points="1576.332 394.7 1585.859 384.581 1567.386 384.581 1561.462 398.765 1576.332 394.7" fill="#1e3398" fill-rule="evenodd"/>
              <polygon points="1569.943 378.94 1557.975 382.324 1546.59 380.633 1569.943 378.94" fill="#1e3398" fill-rule="evenodd"/>
              <polygon points="1501.511 394.898 1466.775 396.025 1449.846 398.765 1473.629 409.886 1501.511 394.898" fill="#1e3398" fill-rule="evenodd"/>
              <polygon points="1449.927 389.248 1495.703 380.633 1453.528 378.94 1440.014 385.709 1449.927 389.248" fill="#1e3398" fill-rule="evenodd"/>
              <polygon points="1448.533 378.94 1442.26 382.324 1435.87 380.633 1448.533 378.94" fill="#1e3398" fill-rule="evenodd"/>
              <polygon points="1493.844 384.095 1478.509 385.871 1486.175 387.161 1493.844 384.095" fill="#1e3398" fill-rule="evenodd"/>
              <polygon points="1884.909 409.886 1876.543 415.205 1860.51 413.691 1884.909 409.886" fill="#1e3398" fill-rule="evenodd"/>
              <polygon points="1830.885 377.974 1809.159 398.765 1776.163 400.153 1830.885 377.974" fill="#1e3398" fill-rule="evenodd"/>
              <path d="M1880.165,474.545l.207,1.22c.068.392.149.873.276,1.429,1.116,2.851,6.635-.827,8.485,1.013,0,3.679-5.519,0-7.575,3.151a7.882,7.882,0,0,1,0,1.267c.472,2.757,1.028,6.009,1.607,9.4.083.487.165.974.247,1.464-1.633,3.107-7.15-.566-8.991,3.107a47.47,47.47,0,0,0,4.9-.149c1.508.247,2.451.494,4.714.739,1.812,10.616,3.583,20.962,3.583,20.962l-110.894,36.958-43.358-57.4a2.182,2.182,0,0,0-.942-.7c-1.484-.415-5.163,1.426-7-2.253a5.969,5.969,0,0,0,4.766-1.265q-.528-.705-1.065-1.413l-7.5-9.931c-.332-.437-.662-.877,1.363-1.32a43.374,43.374,0,0,1,9.794-.794c-3.679-1.838-7.354-1.838-11.757-1.831-.874-.109-1.457-.218-2.622-.328l-17.914-23.7c-.15-.2-.465-.4-1.28-.6-3.224-2.972-8.743-1.132-12.422-1.132,3.679,0,5.519-3.678,9.488-1.808,1.25-.387.96-.773.671-1.156l-12.56-16.627-1.487-1.97c3.888,1.319,5.728-2.354,9.407-2.354-3.679,0-9.2,0-11.985-1.3a12.171,12.171,0,0,1-1.443-1.673l-7.828-10.37,14.04-8.284-.581-1.058a27.59,27.59,0,0,1-2.742-.7c-4.178-2.382-7.857,1.3-9.7-2.382a37.666,37.666,0,0,0,10.263-.878l-.964-1.754,62.7-10.118,6.585,10.669c.258.416.52.842.771,1.276-3.931,2.64-7.61-1.033-11.289,2.64a72.433,72.433,0,0,1,12.684.735c.755.232,1,.468,1.145.7,3.845,6.222,8.255,13.376,12.166,19.71.245.394.486.788.726,1.176a43.363,43.363,0,0,0,13.748,1.588c-3.679,0-7.354,3.681-10.248,1.806-.955.726-.519,1.435-.1,2.12l6.47,10.482s-.225,2.232-.545,5.4l-.142,1.409c-.959.86-4.638-.979-5.845,3.07,1.842.267,2.932.533,5.448.8-.732,7.271-1.569,15.581-1.569,15.581l23.7,4.5,34.765-19.233c.518-.286,1.037-.565.727-.86-3.007-3-6.686-1.163-10.37-1.163,5.519-1.84,11.038-1.84,17.311-2.223l1.494-.826,22.485-12.445,12.146,1.586-19.124,10.936c-.473.272-.943.545-1.448.822-5.271-1.542-12.634,2.137-18.147,2.137,3.678,1.838,7.353-1.841,11.613,1.291.045.3-.47.589-.988.885l-39.117,22.391c-.5.283-.956.547-1.32.79,24.294,2.235,50.048,2.235,73.961,2.235-1.838-1.839-5.517-1.839-8.187-1.958-.943-.3-.285-.627.479-.942Z" fill="#15004b" fill-rule="evenodd"/>
              <path d="M1891.892,429.066a122.767,122.767,0,0,1-18.636-2.04l-1.469-.582-9.65-3.824-19.774,4.237c-.481.1-.966.207-1.284.313.216,3.2,3.895-.47,5.734,1.368-7.354,0-14.708,3.681-21.8,2.06-.674.12-1.237.241-1.805.363l-52.618,11.274s-1.071,3.53-2.485,8.2c-2.775.245-3.846.494-5.449.745-2.3,4.955,3.222,1.276,4.275,3.13-.163.536-.327,1.079-.493,1.623-2.475,8.173-5.143,16.971-5.143,16.971l33,2.9,38.533-21.413c.484-.268.961-.536.575-.805-3.138-2.976-6.817-1.132-10.5-1.132,5.52-1.84,11.039-1.84,17.122-2.091.537-.267,1.02-.535,1.508-.8L1874.8,431.08a7.123,7.123,0,0,1,1.671-.7c5.306,1.844,8.986-1.837,14.266-1.224C1891.543,429.1,1891.892,429.066,1891.892,429.066Z" fill="#1e3398" fill-rule="evenodd"/>
              <path d="M1922.235,461.027l-2.412-3.307-6.766,2.87,4.78,15.264a5.1,5.1,0,0,0,.8,1.574c1.757.779,5.438-1.061,7.276,2.617a7.543,7.543,0,0,0-6.067,2.225c.171.543.339,1.085.509,1.626.805,2.568,1.6,5.106,2.338,7.469.145.471.288.942.426,1.393-4.563,3.843-10.082.164-13.765,2,3.679,3.678,9.2,1.838,12.389,1.857,1.114.2,1.819.4,2.775.588l2.114,6.745,17.913-6.253,1.571-.547c-1.813-.552-5.491,1.288-7.332-2.39,5.52,0,12.877,0,18.1-1.369l1.412-.494,10.458-3.649-2.225-6.479c-.145-.426-.3-.864-.451-1.32,3.973-3.249,7.652-1.41,11.331-1.41-3.679-3.679-7.354-1.839-11.879-2.173-.63-.248-.855-.5-.943-.754l-7.369-21.475Z" fill="#15004b" fill-rule="evenodd"/>
              <polygon points="1855.98 384.581 1854.587 373.162 1841.863 373.162 1855.98 384.581" fill="#15004b" fill-rule="evenodd"/>
              <polygon points="1585.859 384.581 1588.416 377.25 1657.655 376.187 1615.369 400.153 1580.725 390.035 1585.859 384.581" fill="#15004b" fill-rule="evenodd"/>
              <polygon points="1567.386 384.581 1567.386 379.664 1557.975 382.324 1546.59 380.633 1545.166 377.914 1540.72 377.984 1540.72 381.749 1546.124 382.324 1561.462 398.765 1567.386 384.581" fill="#15004b" fill-rule="evenodd"/>
              <polygon points="1465.77 396.187 1466.746 386.082 1449.927 389.248 1449.846 398.765 1465.77 396.187" fill="#15004b" fill-rule="evenodd"/>
              <path d="M2010.871,479.729c-5.859,2.157-11.376-1.522-17.776,1.544l-1.169.4-33.341,11.38-1.284.437c-5.634,3.115-12.992-.566-18.511,1.277,1.84,3.678,5.519,1.838,7.731,2.4l-1.4.479L1776.71,555.119l54.167-4.79,135.35-17.594,20.312-34.29a2.433,2.433,0,0,0,.313-1.335c-2.074-.5-3.912-.5-2.074-2.338,1.84,0,3.681,0,4.7-1.518.273-.413.549-.82.86-1.222l5.28-8.917c.315-.53.6-1.007.843-1.423a45.7,45.7,0,0,1,13.691-1.895Z" fill="#1e3398" fill-rule="evenodd"/>
              <polygon points="1884.834 501.89 1812.037 524.679 1851.772 501.89 1884.834 501.89" fill="#1e3398" fill-rule="evenodd"/>
              <polygon points="1867.803 489.251 1855.98 492.143 1851.074 490.697 1867.803 489.251" fill="#1e3398" fill-rule="evenodd"/>
              <path d="M1776.718,391.279l-19.777,9.837-1.6.8c-6.023,2.713-11.54-.965-17.059,2.713,3.678,1.839,7.353-1.84,9.209,1.192l-1.482.737-12.046,5.991h-36.754l19.017-6.637a3.236,3.236,0,0,0,1.156-.542,30.832,30.832,0,0,0-8.533-.741c5.519-3.678,12.877,0,18.13-2.549a17.6,17.6,0,0,0,1.769-.541l19.016-6.637Z" fill="#1e3398" fill-rule="evenodd"/>
              <path d="M1919.763,413.691l34.027,12.634,1.55.565c5.525,1.639,12.883,1.639,18.4,1.639-3.679,0-5.519,3.681-8.474,2.044.409.157.82.307,1.218.456l8.653,3.206-18.82,7.983-27.19,7.558c-.542.151-1.089.3-1.673.454a93.823,93.823,0,0,0-19.938,2.207c1.84,0,5.519-1.841,7.461,1.112a2.814,2.814,0,0,1-1.171.485L1867.8,466.82h-36.914l20.272-12.123,1.188-.711c-3.692-3.394-7.371-1.549-11.05-1.549,5.518-1.841,11.037-1.841,17.263-2.167l1.294-.771,31.042-18.564a4.054,4.054,0,0,1,1.086-.445c6.341,1.712,10.02-1.968,15.537-1.968-3.678,0-7.353,1.84-9.288-1.07-.911-.281-.566-.565-.111-.835Z" fill="#2740b3" fill-rule="evenodd"/>
              <path d="M1942.972,417.67l9.528,2.53,19.286-10.314-2-4.467c-2.561-.211-3.73-.424-5.527-.637a7.3,7.3,0,0,1-5.24-2,49.789,49.789,0,0,0,8.576-.46,1.843,1.843,0,0,0-.034-1.886l-.337-.754-6.668,1.969c-.437.128-.888.262-1.548.4-7.354,2.579-14.708-1.1-20.223,2.579h9.2s-1.84,1.838-1.273,1.109l-1.582.467-12.482,3.685Z" fill="#2740b3" fill-rule="evenodd"/>
              <polygon points="1962.956 426.346 1968.765 426.346 1968.765 420.2 1962.956 426.346" fill="#2740b3" fill-rule="evenodd"/>
              <polygon points="1924.241 538.193 1950.873 517.424 1932.651 514.799 1863.97 540.828 1872.709 534.079 1900.682 522.511 1867.803 524.031 1776.718 555.119 1924.241 538.193" fill="#2740b3" fill-rule="evenodd"/>
              <polygon points="1946.923 503.953 1915.205 517.424 1909.744 517.424 1940.417 503.953 1946.923 503.953" fill="#2740b3" fill-rule="evenodd"/>
              <polygon points="1962.956 506.604 1954.823 510.688 1965.86 513.285 1971.786 503.953 1962.956 506.604" fill="#2740b3" fill-rule="evenodd"/>
              <path d="M1845.51,447.345l-55.037,1.869-.9,1.431c-2.613.127-3.573.262-4.923.4-2.214-.432-5.893-.432-7.731,1.408a19.14,19.14,0,0,1,5.6.566c1.444.189,2.44.377,5.193.566l-8.38,13.25H1810.2l22.03-12.16,1.414-.783c-3.385-3.281-7.064-1.441-10.748-1.441,5.519-1.84,11.038-1.84,16.819-2.064a6.425,6.425,0,0,0,1.335-.585Z" fill="#2740b3" fill-rule="evenodd"/>
              <path d="M1837.83,436.107l-4.526,4.149-18.479-2.075s17.48-8.624,16.06-7.165S1837.83,436.107,1837.83,436.107Z" fill="#2740b3" fill-rule="evenodd"/>
              <path d="M1860.517,413.691l-2.451-6.467a3.717,3.717,0,0,0-.932-1.426c-1.131-3.017-6.639.666-8.485-3.017,1.841,0,5.519,1.841,7.139-1.565q-.294-.78-.588-1.555l-4.13-10.916s1.758,5.557,3.66,11.577q.261.823.522,1.65a27.383,27.383,0,0,1-8.443.809c1.84,1.841,3.68,1.841,5.981,2.469,1.31.267,2.138.533,3.75.8l2.895,9.155h17.11Z" fill="#15004b" fill-rule="evenodd"/>
              <polygon points="1787.196 438.677 1772.475 436.073 1768.968 447.577 1787.196 438.677" fill="#2e1c6d" fill-rule="evenodd"/>
              <polygon points="1755.503 393.93 1734.065 399.679 1744.055 390.035 1755.503 393.93" fill="#2e1c6d" fill-rule="evenodd"/>
              <polygon points="1869.973 425.725 1851.074 424.99 1862.11 420.2 1869.973 425.725" fill="#2e1c6d" fill-rule="evenodd"/>
              <polygon points="2026.016 382.324 2026.006 377.774 1967.229 399.679 2026.016 382.324" fill="#2e1c6d" fill-rule="evenodd"/>
              <polygon points="1475.678 395.737 1466.245 391.279 1453.93 398.103 1475.678 395.737" fill="#2e1c6d" fill-rule="evenodd"/>
            </g>
            <polygon points="2025.925 341.069 1990.401 328.949 1997.613 278.862 1966.235 227.758 1809.159 238.827 1671.037 341.069 1685.078 349.055 1681.359 355.581 1615.369 355.581 1576.332 366.093 1576.332 360.838 1561.462 356.92 1546.124 372.768 1509.877 376.498 2026.023 384.14 2025.925 341.069" fill="#1d1056" fill-rule="evenodd"/>
            <polygon points="1509.877 376.498 1501.511 360.648 1473.629 346.196 1449.846 356.92 1449.927 366.093 1440.014 369.506 1429.364 376.964 1509.877 376.498" fill="#1d1056" fill-rule="evenodd"/>
            <polygon points="1990.401 328.949 1867.946 278.862 1804.394 278.862 1919.763 342.529 2026.016 372.768 2025.925 341.069 1990.401 328.949" fill="#1e3398" fill-rule="evenodd"/>
            <polygon points="1974.831 315.009 1962.982 303.976 1922.235 296.892 1974.831 315.009" fill="#1e3398" fill-rule="evenodd"/>
            <polygon points="1997.613 383.72 1966.467 370.592 1855.98 370.592 1997.613 383.72" fill="#1e3398" fill-rule="evenodd"/>
            <polygon points="1681.359 355.581 1820.028 377.156 1657.655 378.687 1615.369 355.581 1681.359 355.581" fill="#1e3398" fill-rule="evenodd"/>
            <polygon points="1576.332 360.838 1585.859 370.592 1567.386 370.592 1561.462 356.92 1576.332 360.838" fill="#1e3398" fill-rule="evenodd"/>
            <polygon points="1569.943 376.032 1557.975 372.768 1546.59 374.401 1569.943 376.032" fill="#1e3398" fill-rule="evenodd"/>
            <polygon points="1501.511 360.648 1466.775 359.562 1449.846 356.92 1473.629 346.196 1501.511 360.648" fill="#1e3398" fill-rule="evenodd"/>
            <polygon points="1449.927 366.093 1495.703 374.401 1453.528 376.032 1440.014 369.506 1449.927 366.093" fill="#1e3398" fill-rule="evenodd"/>
            <polygon points="1448.533 376.032 1442.26 372.768 1435.87 374.401 1448.533 376.032" fill="#1e3398" fill-rule="evenodd"/>
            <polygon points="1493.844 371.064 1478.509 369.35 1486.175 368.107 1493.844 371.064" fill="#1e3398" fill-rule="evenodd"/>
            <polygon points="1884.909 346.196 1876.543 341.069 1860.51 342.529 1884.909 346.196" fill="#1e3398" fill-rule="evenodd"/>
            <polygon points="1830.885 376.964 1809.159 356.92 1776.163 355.581 1830.885 376.964" fill="#1e3398" fill-rule="evenodd"/>
            <polygon points="1880.165 283.861 1887.611 241.816 1776.718 206.178 1671.037 341.069 1685.078 349.055 1681.359 355.581 1744.055 365.337 1776.718 314.324 1774.072 289.006 1797.772 284.664 1864.19 320.092 1876.335 318.563 1804.394 278.862 1867.946 278.862 1880.165 283.861" fill="#15004b" fill-rule="evenodd"/>
            <polygon points="1878.402 327.706 1862.137 333.921 1770.587 315.009 1761.292 285.441 1794.287 282.642 1878.402 327.706" fill="#1e3398" fill-rule="evenodd"/>
            <polygon points="1922.235 296.892 1919.823 300.08 1913.057 297.314 1926.636 255.507 1968.765 269.681 1957.231 302.081 1922.235 296.892" fill="#15004b" fill-rule="evenodd"/>
            <polygon points="1855.98 370.592 1854.587 381.602 1841.863 381.602 1855.98 370.592" fill="#15004b" fill-rule="evenodd"/>
            <polygon points="1585.859 370.592 1588.416 377.661 1657.655 378.687 1615.369 355.581 1580.725 365.337 1585.859 370.592" fill="#15004b" fill-rule="evenodd"/>
            <polygon points="1567.386 370.592 1567.386 375.335 1557.975 372.768 1546.59 374.401 1545.166 377.02 1540.72 376.954 1540.72 373.324 1546.124 372.768 1561.462 356.92 1567.386 370.592" fill="#15004b" fill-rule="evenodd"/>
            <polygon points="1465.77 359.403 1466.746 369.146 1449.927 366.093 1449.846 356.92 1465.77 359.403" fill="#15004b" fill-rule="evenodd"/>
            <polygon points="1997.613 278.862 1776.718 206.178 1830.885 210.796 1966.235 227.758 1997.613 278.862" fill="#1e3398" fill-rule="evenodd"/>
            <polygon points="1884.834 257.496 1812.037 235.525 1851.772 257.496 1884.834 257.496" fill="#1e3398" fill-rule="evenodd"/>
            <polygon points="1867.803 269.681 1855.98 266.894 1851.074 268.287 1867.803 269.681" fill="#1e3398" fill-rule="evenodd"/>
            <polygon points="1776.718 364.136 1733.963 343.634 1697.209 343.634 1747.764 360.648 1776.718 364.136" fill="#1e3398" fill-rule="evenodd"/>
            <polygon points="1919.763 342.529 1975.139 322.708 1956.319 315.009 1867.803 291.292 1830.885 291.292 1919.763 342.529" fill="#2740b3" fill-rule="evenodd"/>
            <polygon points="1942.972 338.694 1952.5 336.254 1971.786 346.196 1967.229 356.037 1932.651 346.196 1942.972 338.694" fill="#2740b3" fill-rule="evenodd"/>
            <polygon points="1962.956 330.327 1968.765 330.327 1968.765 336.254 1962.956 330.327" fill="#2740b3" fill-rule="evenodd"/>
            <polygon points="1924.241 222.496 1950.873 242.521 1932.651 245.051 1863.97 219.956 1872.709 226.461 1900.682 237.616 1867.803 236.149 1776.718 206.178 1924.241 222.496" fill="#2740b3" fill-rule="evenodd"/>
            <polygon points="1946.923 255.507 1915.205 242.521 1909.744 242.521 1940.417 255.507 1946.923 255.507" fill="#2740b3" fill-rule="evenodd"/>
            <polygon points="1962.956 252.952 1954.823 249.015 1965.86 246.511 1971.786 255.507 1962.956 252.952" fill="#2740b3" fill-rule="evenodd"/>
            <polygon points="1845.51 310.083 1790.473 308.283 1779.325 291.292 1810.198 291.292 1845.51 310.083" fill="#2740b3" fill-rule="evenodd"/>
            <path d="M1837.83,320.918l-4.526-4.009-18.479,2s17.48,8.315,16.06,6.9S1837.83,320.918,1837.83,320.918Z" fill="#2740b3" fill-rule="evenodd"/>
            <polygon points="1860.51 342.529 1851.074 366.576 1859.439 341.069 1876.543 341.069 1860.51 342.529" fill="#15004b" fill-rule="evenodd"/>
            <polygon points="1787.196 318.44 1772.475 320.95 1768.968 309.859 1787.196 318.44" fill="#2e1c6d" fill-rule="evenodd"/>
            <polygon points="1755.503 361.581 1734.065 356.037 1744.055 365.337 1755.503 361.581" fill="#2e1c6d" fill-rule="evenodd"/>
            <polygon points="1869.973 330.927 1851.074 331.636 1862.11 336.254 1869.973 330.927" fill="#2e1c6d" fill-rule="evenodd"/>
            <polygon points="2026.016 372.768 2026.006 377.156 1967.229 356.037 2026.016 372.768" fill="#2e1c6d" fill-rule="evenodd"/>
            <polygon points="1475.678 359.839 1466.245 364.136 1453.93 357.557 1475.678 359.839" fill="#2e1c6d" fill-rule="evenodd"/>
            <path d="M1406.1,376.1l619.914,8.042S1506.947,383.7,1406.1,376.1Z" fill="#346dbd" fill-rule="evenodd"/>
            <path d="M1844.082,405.926s-165.655,6.306-241.846,2.012Z" fill-rule="evenodd" opacity="0.5" fill="url(#radial-gradient)" style="isolation: isolate"/>
            <path d="M2043.158,396.6S1877.5,402.9,1801.311,398.61Z" fill-rule="evenodd" opacity="0.5" fill="url(#radial-gradient-2)" style="isolation: isolate"/>
            <polygon points="1799.017 315.469 1803.523 320.166 1807.044 320.95 1799.017 315.469" fill="#4a60c2" fill-rule="evenodd"/>
            <polygon points="1851.074 289.719 1851.074 294.605 1857.992 300.688 1862.005 295.202 1853.98 289.719 1851.074 289.719" fill="#4a60c2" fill-rule="evenodd"/>
            <polygon points="1843.86 285.757 1848.436 292.859 1843.86 287.973 1843.86 285.757" fill="#4a60c2" fill-rule="evenodd"/>
            <polygon points="1878.402 309.859 1884.909 309.859 1887.611 309.859 1883.007 311.577 1878.402 309.859" fill="#4a60c2" fill-rule="evenodd"/>
            <polygon points="1835.216 242.521 1837.83 245.051 1841.243 245.051 1835.216 242.521" fill="#4a60c2" fill-rule="evenodd"/>
            <polygon points="1948.533 342.833 1961.842 341.069 1955.994 342.833 1948.533 342.833" fill="#4a60c2" fill-rule="evenodd"/>
            <polygon points="1948.533 317.581 1953.784 321.444 1953.784 318.21 1948.533 317.581" fill="#4a60c2" fill-rule="evenodd"/>
            <polygon points="1991.474 346.145 1993.218 343.634 1994.824 344.89 1993.148 347.298 1991.474 346.145" fill="#4a60c2" fill-rule="evenodd"/>
            <polygon points="1938.604 376.098 1946.923 373.162 1955.187 376.964 1940.612 377.156 1938.604 376.098" fill="#4a60c2" fill-rule="evenodd"/>
            <polygon points="1934.94 375.159 1936.946 375.159 1934.94 373.82 1928.483 374.49 1934.94 375.159" fill="#4a60c2" fill-rule="evenodd"/>
            <polygon points="1941.964 249.015 1946.923 252.205 1944.443 249.015 1941.964 249.015" fill="#4a60c2" fill-rule="evenodd"/>
            <polygon points="1875.747 229.042 1880.587 233.753 1884.834 235.525 1887.164 235.525 1875.747 229.042" fill="#4a60c2" fill-rule="evenodd"/>
            <polygon points="1952.04 252.205 1956.051 250.61 1957.667 252.205 1953.741 252.205 1952.04 252.205" fill="#4a60c2" fill-rule="evenodd"/>
            <polygon points="1976.249 268.287 1976.249 264.767 1977.42 263.983 1977.42 268.287 1976.249 268.287" fill="#4a60c2" fill-rule="evenodd"/>
            <polygon points="1916.706 255.507 1912.963 251.008 1916.706 249.015 1944.443 253.644 1946.923 255.507 1939.672 253.644 1920.713 249.908 1918.865 249.931 1918.492 252.827 1916.706 255.507" fill="#1d1056" fill-rule="evenodd"/>
            <polygon points="1826.592 328.27 1814.825 343.634 1828.915 327.058 1844.082 324.61 1837.83 320.918 1826.592 328.27" fill="#15004b" fill-rule="evenodd"/>
          </g>
        </g>
        <g>
          <g>
            <ellipse cx="1623.453" cy="359.89" rx="2.709" ry="3.799" transform="translate(129.574 1090.264) rotate(-38.554)" fill="#f7fffe"/>
            <path d="M1626.511,359.4a9.482,9.482,0,0,1-1.637,1.207c-1.143.614-2.586.8-3.4,1.807a4.833,4.833,0,0,0-.776,1.833,45.166,45.166,0,0,1-2.192,6.375,27.644,27.644,0,0,1-3.193,5.417,2.546,2.546,0,0,0-.57,1.225,1.082,1.082,0,0,0,.591,1.127,1.6,1.6,0,0,0,1.42-.395,32.83,32.83,0,0,0,5.274-4.6,34.4,34.4,0,0,0,2.274-2.713,12.163,12.163,0,0,1,2.117-2.569c.562-.434,1.211-.685,1.75-1.153a8.6,8.6,0,0,0,1.532-1.595,3.273,3.273,0,0,0,.6-2.491,3.826,3.826,0,0,0-1.513-2.07C1628.551,360.623,1626.712,359.23,1626.511,359.4Z" fill="#460ab9"/>
          </g>
          <g>
            <ellipse cx="1572.776" cy="362.94" rx="2.709" ry="3.799" transform="translate(-13.859 66.394) rotate(-2.408)" fill="#f7fffe"/>
            <path d="M1575.533,364.349a9.475,9.475,0,0,1-2.034.01c-1.285-.179-2.559-.882-3.813-.547a4.815,4.815,0,0,0-1.707,1.022,45.082,45.082,0,0,1-5.53,3.855,27.668,27.668,0,0,1-5.774,2.491,2.542,2.542,0,0,0-1.183.652,1.083,1.083,0,0,0-.187,1.26,1.609,1.609,0,0,0,1.379.519,32.8,32.8,0,0,0,6.97-.6,34.067,34.067,0,0,0,3.437-.849,12.186,12.186,0,0,1,3.224-.826c.71-.019,1.382.161,2.094.1a8.607,8.607,0,0,0,2.178-.385,3.275,3.275,0,0,0,1.956-1.656,3.825,3.825,0,0,0,0-2.564C1576.46,366.538,1575.8,364.329,1575.533,364.349Z" fill="#460ab9"/>
          </g>
          <polygon points="1552.043 267.642 1551.843 267.62 1551.946 267.872 1552.017 267.88 1552.043 267.642" fill="none"/>
          <g>
            <g>
              <circle cx="1571.198" cy="175.83" r="3.581" fill="#c69c6d"/>
              <rect x="1567.345" y="176.443" width="3.76" height="7.163" rx="1.88" transform="translate(197.898 -603.773) rotate(23.206)" fill="#c69c6d"/>
            </g>
            <g>
              <circle cx="1599.221" cy="185.167" r="3.581" fill="#c69c6d"/>
              <rect x="1600.446" y="185.026" width="3.76" height="7.163" rx="1.88" transform="translate(319.47 1167.026) rotate(-44.046)" fill="#c69c6d"/>
            </g>
            <g>
              <g>
                <path d="M1584.542,268.748c.008,5.921.572,12.318.966,18.23.57,8.568,1.228,17.112,2.466,25.609.487,3.343,1.1,6.668,1.607,10a15.735,15.735,0,0,0,.863,3.68c.8,1.939,2.318,3.216,3.572,4.821,1.659,2.123,3.069,4.467,4.72,6.63a198.289,198.289,0,0,0,18.349,21.311,5.75,5.75,0,0,0,3.894,1.945c2.147-.022,3.863-2.067,4.176-4.192a10.732,10.732,0,0,0-1.411-6.183c-1.34-2.711-2.478-5.511-4.065-8.072-1.822-2.94-3.857-5.738-5.838-8.57-2.745-3.923-5.641-7.694-8.584-11.479a10.631,10.631,0,0,1-1.965-3.277c-.84-2.732.619-5.577,1.3-8.186q1.163-4.476,2.029-9.022c1.695-9.056,2.046-31.834-.315-33.14-1.862-1.031-16.653-.146-21.76-.11" fill="#18f7ff"/>
                <path d="M1572.16,266.864c-1.5,7.018-4.143,17.65-5.384,24.721a130.9,130.9,0,0,0-1.528,21.355c0,7.094-.022,14.1.373,21.191.407,7.309,1.033,14.6,1.743,21.888a13.371,13.371,0,0,0,.975,3.914,5.188,5.188,0,0,0,3.82,3.033c2.036.239,3.969-1.224,4.918-3.042a14.782,14.782,0,0,0,1.247-5.976c.633-10.118.567-20.255.943-30.378a23.484,23.484,0,0,1,2.124-8.079,87.972,87.972,0,0,0,4.054-10.148c1.4-4.971,1.444-9.747,1.253-14.85l-.441-11.814c-.107-2.835-.126-9.959-.126-9.959C1585.179,268.785,1572.16,266.864,1572.16,266.864Z" fill="#1befef"/>
              </g>
              <path d="M1559.779,198.622c-.317,2.19-1.134,4.334-1.046,6.546a16.674,16.674,0,0,0,1.035,5.228,80.808,80.808,0,0,0,9.664,17.405c.99,1.415,2.6,3.639,3.664,5,.17.218,8.428-9.994,8.005-10.51-2.545-3.1-6.535-6.358-9.258-9.306s-5.1-6.443-5.637-10.42c-.761-5.665,1.865-11.925,4.114-17a6.857,6.857,0,0,0,.888-3.563,3.228,3.228,0,0,0-4.319-2.606c-1.73.639-2.567,2.56-3.165,4.305-.764,2.228-1.443,4.484-2.092,6.748-.626,2.18-1.46,4.29-1.969,6.5l-.559,2.427a11.233,11.233,0,0,0-.38,3.22l-.029,2.815" fill="#370aa5"/>
              <path d="M1602.765,193.406a7.138,7.138,0,0,1-.942-1.161,3.643,3.643,0,0,1-.489-3.1,3.173,3.173,0,0,1,2.5-1.94c3.029-.469,5.21,2.8,7.058,4.7,5.512,5.69,13.074,12.581,11.936,21.307a21.286,21.286,0,0,1-3.9,9.027,59.456,59.456,0,0,1-5.823,6.722c-1.923,2-4.212,4.85-6.36,6.674-.36.305-3.336-5.973-4.523-7.748-.58-.867-3.2-3.86-2.926-4.061,3.207-2.392,8.984-5.8,12.4-7.9a7.208,7.208,0,0,0,2.264-1.87c1.986-2.864-.733-6.41-2.2-8.87a65.691,65.691,0,0,0-4.709-6.817c-.883-1.129-1.847-2.194-2.73-3.321A21.845,21.845,0,0,0,1602.765,193.406Z" fill="#370aa5"/>
              <path d="M1579.955,222.478c6.35-4.8,15.452-1.967,20.942,2.67a17.765,17.765,0,0,1,5.38,7.53,19.539,19.539,0,0,1,.788,8.715,41.472,41.472,0,0,1-1.441,6.718,22.575,22.575,0,0,0-.789,6.389,43.107,43.107,0,0,0,.78,7.875c.237,1.263.507,2.527.846,3.767.258.947.891,1.77.729,2.8a3.7,3.7,0,0,1-1.082,1.988,6.841,6.841,0,0,1-4.081,1.8c-3.046.357-6.3-.213-9.33-.56-2.241-.258-4.478-.558-6.726-.752-2.2-.191-4.373-.062-6.569-.138-2.972-.1-6.624-1.593-7.806-4.548-1.5-3.744-.817-8.919-.448-12.815.216-2.273.62-4.581.757-6.848.137-2.283-.083-4.555.163-6.85.681-6.369,2.494-13.49,7.736-17.622C1579.854,222.555,1579.9,222.516,1579.955,222.478Z" fill="#460ab9"/>
            </g>
            <g>
              <path d="M1588.772,221.164a1.879,1.879,0,0,1-.783.652c-.942.412-2.189,1.357-1.451,2.528a2.334,2.334,0,0,0,1.542.889,6.592,6.592,0,0,0,3.513-.224c1.014-.347,2.428-1.021,2.689-2.174a2.762,2.762,0,0,0-1.108-2.426,9.49,9.49,0,0,0-2.425-1.8,1.541,1.541,0,0,0-1.1-.23,1.132,1.132,0,0,0-.727.958C1588.831,220,1589.234,220.576,1588.772,221.164Z" fill="#c69c6d"/>
              <path d="M1582.772,209.762a10.728,10.728,0,0,1,.477-1.61c1.95-5.056,8.365-6.418,11.847-1.988a9.2,9.2,0,0,1,1.253,8.439,9.417,9.417,0,0,1-4.337,5.369,7.952,7.952,0,0,1-6.288.5c-2.418-.881-3.063-2.882-3.209-5.284A20.054,20.054,0,0,1,1582.772,209.762Z" fill="#c69c6d"/>
              <path d="M1589.805,200.67a10.6,10.6,0,0,0-6.457-1.513,4.688,4.688,0,0,0-3.832,3.122,3.349,3.349,0,0,0,1.667,3.9,5.327,5.327,0,0,0,3.939-.305,7.643,7.643,0,0,1,3.927-.776,3.529,3.529,0,0,1,2.792,3.491c-.02.5-.149.989-.159,1.487a1.62,1.62,0,0,0,.527,1.342,2.312,2.312,0,0,0,2.038,0c.677-.2,1.527-.324,1.988.212a1.407,1.407,0,0,1-.119,1.715,7.684,7.684,0,0,1-1.421,1.194,5.913,5.913,0,0,0-1.915,2.722,1.575,1.575,0,0,0,.065,1.456,1.489,1.489,0,0,0,1.575.309c1.891-.517,3.141-2.367,3.683-4.251a10.525,10.525,0,0,0-.283-6.619,12.872,12.872,0,0,0-5.357-5.993,25.04,25.04,0,0,0-2.658-1.5" fill="#191c3f"/>
            </g>
          </g>
        </g>
        <g>
          <g>
            <ellipse cx="298.521" cy="285.705" rx="3.531" ry="2.008" transform="translate(-9.413 561.239) rotate(-85.565)" fill="#f7fffe"/>
            <path d="M296.072,286.947a8.864,8.864,0,0,0,1.89.076c1.2-.124,2.405-.735,3.559-.383a4.509,4.509,0,0,1,1.552,1,41.843,41.843,0,0,0,5.01,3.763,25.663,25.663,0,0,0,5.281,2.5,2.375,2.375,0,0,1,1.077.646,1.008,1.008,0,0,1,.133,1.176,1.493,1.493,0,0,1-1.3.436,30.5,30.5,0,0,1-6.454-.788,31.588,31.588,0,0,1-3.164-.9,11.3,11.3,0,0,0-2.967-.873c-.66-.042-1.289.1-1.949.025a8.027,8.027,0,0,1-2.01-.429,3.043,3.043,0,0,1-1.762-1.6,3.547,3.547,0,0,1,.085-2.382C295.139,288.95,295.828,286.92,296.072,286.947Z" fill="#191c3f"/>
          </g>
          <g>
            <ellipse cx="269.906" cy="282.529" rx="3.531" ry="2.008" transform="matrix(0.254, -0.967, 0.967, 0.254, -71.998, 471.669)" fill="#f7fffe"/>
            <path d="M267.275,283.313a8.833,8.833,0,0,0,1.845.412c1.2.093,2.5-.293,3.57.26a4.5,4.5,0,0,1,1.348,1.267,41.806,41.806,0,0,0,4.255,4.6,25.744,25.744,0,0,0,4.748,3.408,2.37,2.37,0,0,1,.945.827,1.007,1.007,0,0,1-.08,1.181,1.49,1.49,0,0,1-1.355.2,30.456,30.456,0,0,1-6.209-1.929,31.8,31.8,0,0,1-2.953-1.453,11.282,11.282,0,0,0-2.763-1.39c-.641-.159-1.287-.128-1.921-.324a7.991,7.991,0,0,1-1.9-.782,3.042,3.042,0,0,1-1.448-1.891,3.56,3.56,0,0,1,.51-2.328C266,285.116,267.039,283.242,267.275,283.313Z" fill="#191c3f"/>
          </g>
          <g>
            <circle cx="313.994" cy="103.881" r="3.329" fill="#c69c6d"/>
            <rect x="312.621" y="104.844" width="3.495" height="6.657" rx="1.748" transform="translate(633.994 199.653) rotate(176.984)" fill="#c69c6d"/>
          </g>
          <g>
            <circle cx="237.738" cy="112.151" r="3.329" fill="#c69c6d"/>
            <rect x="238.285" y="112.468" width="3.495" height="6.657" rx="1.748" transform="translate(505.732 95.094) rotate(149.791)" fill="#c69c6d"/>
          </g>
          <g>
            <path d="M306.575,186.724c2.3,11.064,1.011,22.34.563,33.552-.835,20.943-.789,42.163-5.531,62.691-.317,1.371-.921,2.958-2.294,3.269a2.7,2.7,0,0,1-2.784-1.542,7.891,7.891,0,0,1-.656-3.33c0-18.364-1.918-36.756-3.236-55.055q-.692-9.584-1.407-19.165-.345-4.678-.683-9.358c-.157-2.179-1.088-5.436-.061-7.49.762-1.522,2.577-2.149,4.234-2.536A41.924,41.924,0,0,1,306.575,186.724Z" fill="#2336c0"/>
            <path d="M284.913,247.339a179.828,179.828,0,0,1-6.128,17.868c-2.241,5.468-3.832,11.226-6.416,16.548a2.446,2.446,0,0,1-1.888,1.394,2,2,0,0,1-1.9-.958,4.566,4.566,0,0,1-.174-2c.4-7.1,1.09-15.523,2.825-22.424a160.112,160.112,0,0,0,3.881-23.61c.386-3.978.674-7.965.913-11.954.222-3.715.589-7.442-.03-11.139-.865-5.156-.091-11.017.243-16.308a10.014,10.014,0,0,1,.93-4.174c1.194-2.206,3.32-2.24,5.541-2.256q4.75-.036,9.5.219a4.052,4.052,0,0,1,1.247,2.808c.591,5.474-1.986,27.087-2.821,32.484-.876,5.665-2.434,11.417-3.382,17.07-.309,1.839-1.376,3.4-1.94,5.143C285.171,246.476,285.04,246.907,284.913,247.339Z" fill="#1c30a1"/>
            <path d="M280.362,144.891c-7.352-.154-14.579-2.592-19.852-7.846-2.756-2.746-5.977-5.361-8.29-8.447-2.839-3.788-5.652-7.6-8.478-11.4-.929-1.249-2.36-2.652-3.795-2.05a2.366,2.366,0,0,0-1.291,2.069,6.318,6.318,0,0,0,.507,2.5,46.643,46.643,0,0,0,11.779,17.918c1.84,1.751,3.817,3.353,5.791,4.952a109.9,109.9,0,0,1,10.352,9.463c3.232,3.386,3.8,10.094,5.3,14.528,2.511,7.4,4.76,13.763,4.214,21.563-.318,4.54,4.788,4.825,8.927,5.247a46.141,46.141,0,0,0,12.551-.438c2.6-.45,5.978-.884,7.694-2.884,1.8-2.1,1.438-5.5.78-8.184-.873-3.557-3.02-6.608-4.082-10.116a92.738,92.738,0,0,1-2.906-12.317c-.433-2.722-1.193-4.734.351-7.242,1.248-2.028,3.212-3.5,4.8-5.237a50.685,50.685,0,0,0,13.216-33.894c-.006-2.03-.373-4.441-2.2-5.328-1.85-.9-4.156.484-5,2.36-.946,2.109-.525,4.647-.909,6.876-.531,3.086.065,5.426-1.238,8.449a28.93,28.93,0,0,1-5.441,8.116c-4.261,4.6-9.928,9.888-16.3,10.893A36.756,36.756,0,0,1,280.362,144.891Z" fill="#5552a1"/>
            <g>
              <path d="M284.493,143.154a2.292,2.292,0,0,0,1.211.262c1.247-.087,3.124.231,2.987,1.908a2.838,2.838,0,0,1-1.161,1.827,8.027,8.027,0,0,1-3.914,1.736c-1.288.195-3.192.265-4.122-.831-.79-.931-.488-2.185-.171-3.239a11.547,11.547,0,0,1,1.6-3.305,1.88,1.88,0,0,1,1.056-.867,1.376,1.376,0,0,1,1.323.624C283.773,141.93,283.664,142.78,284.493,143.154Z" fill="#c69c6d"/>
              <g>
                <path d="M288.118,124.914a3.048,3.048,0,0,1,5.183-.542c.39.508.489,1.173.888,1.665.543.671,1.434,1.155,1.293,2.151a2.024,2.024,0,0,1-.676,1.174c-.67.615-1.2.712-1.457,1.651s-.07,1.941-.5,2.827a1.287,1.287,0,0,1-1.385.775,1.652,1.652,0,0,1-.948-.985c-.278-.588-.461-1.217-.736-1.806-.784-1.678-2.9-2.651-4.464-1.306-.052.045-1.01-.1-1.186-.108a8.265,8.265,0,0,0-1.484.036,2.529,2.529,0,0,0-2.291,2.931c.111,1.592,1.093,2.986,1.15,4.587.04,1.1,1.469,4.94-1.221,5.592-1.129.273-2.408-1.016-3.075-1.679a11.667,11.667,0,0,1-2.5-3.676c-.962-2.253-1.772-6,.19-7.906a2.674,2.674,0,0,1,1.159-2.108c.757-.62,1.775-.871,2.439-1.6a6.833,6.833,0,0,1,1.728-1.743,3.894,3.894,0,0,1,2.023-.391,13.1,13.1,0,0,1,2.964.563A10.375,10.375,0,0,0,288.118,124.914Z" fill="#191c3f"/>
                <path d="M290.582,133.689a6.589,6.589,0,0,0-1.1-2.767,3.5,3.5,0,0,0-2.737-1.071c-.847.062-1.666.311-2.507.4-1.206.126-2.528-.111-3.329,1.024a3.4,3.4,0,0,0-.553,1.849,5.173,5.173,0,0,0,.234,1.712,5.023,5.023,0,0,0,.345.838,6.994,6.994,0,0,0,.528.708,2.2,2.2,0,0,1,.294.6c.179.563-.164,1.133-.058,1.714a3.8,3.8,0,0,0,1.7,2.034c1,.252,1.758-1.169,2.186-1.432a5.572,5.572,0,0,1,4.124-.914,2.268,2.268,0,0,0,.764.1,1.273,1.273,0,0,0,1-1.144,3.255,3.255,0,0,0-.312-1.585C290.962,135.245,290.733,134.213,290.582,133.689Z" fill="#c69c6d"/>
                <path d="M281.182,130.93c-.627-.146-1.158.657-1.338,1.276a2.818,2.818,0,0,0,.25,1.877c.758,1.744,2.245,3.189,2.551,5.066.093.576.177,1.313.738,1.472.458.129.889-.248,1.214-.595,1.169-1.244,2.608-2.611,4.3-2.387a5.182,5.182,0,0,1,2.18.7c.507.327.457,1.3.357,1.895a23.1,23.1,0,0,1-.929,3.672,1.88,1.88,0,0,1-.989,1.306,1.861,1.861,0,0,1-.89,0,25.73,25.73,0,0,1-3.049-.712,6.449,6.449,0,0,1-2.726-1.386,5.816,5.816,0,0,1-1.18-1.834c-1.044-2.345-1.455-5.012-3-7.062a4.921,4.921,0,0,1-.635-.939,2.394,2.394,0,0,1-.175-1.127,2.264,2.264,0,0,1,1.4-2.059C280.109,129.83,281.29,130.053,281.182,130.93Z" fill="#191c3f"/>
                <path d="M279.409,134.7c-.138-.4-.33-.835-.727-.968a.894.894,0,0,0-.874.238,1.735,1.735,0,0,0-.439.832c-.374,1.447.245,4.151,1.7,3.79.959-.238,1.146-1.513.815-2.445" fill="#c69c6d"/>
                <ellipse cx="288.583" cy="139.388" rx="1.43" ry="0.447" transform="matrix(0.998, -0.068, 0.068, 0.998, -8.764, 19.831)" fill="#c69c6d"/>
              </g>
            </g>
          </g>
        </g>
        <g>
          <path d="M285.774,101.04l.868-.5" fill="none" stroke="#0071bc" stroke-miterlimit="10" stroke-width="0.5"/>
          <path d="M288.381,99.546q3.066-1.749,6.107-3.451" fill="none" stroke="#0071bc" stroke-miterlimit="10" stroke-width="0.5" stroke-dasharray="2.004 2.004 2.004 2.004"/>
          <path d="M295.363,95.607c141.37-78.881,244.672-81.944,315.8-67.056,82.573,17.286,147.3,64.114,240,39,61.354-16.621,53.324-42.641,116-59,83.941-21.908,192.63.155,269,59,44.825,34.54,51.685,61.077,85,63,49.785,2.875,62.919-54.742,133-81,72.252-27.071,169.492-7.492,183,35,10.065,31.664-27.973,70.983-44.35,86.571" fill="none" stroke="#0071bc" stroke-miterlimit="10" stroke-width="0.5" stroke-dasharray="2.004 2.004 2.004 2.004 2.004 2.004"/>
          <path d="M1592.084,171.81l-.725.685" fill="none" stroke="#0071bc" stroke-miterlimit="10" stroke-width="0.5"/>
          <path d="M283.158,102.551a15.141,15.141,0,0,1,4.891,0l-1.907-1.661-.4-2.5A15.091,15.091,0,0,1,283.158,102.551Z" fill="#0071bc"/>
          <path d="M1589.158,174.551a15.12,15.12,0,0,0,1.463-4.666l1.013,2.316,2.26,1.133A15.11,15.11,0,0,0,1589.158,174.551Z" fill="#0071bc"/>
        </g>
      </g>
    </g>
  </g>
</svg>
