<svg id="Layer_1" data-name="Layer 1" xmlns="http://www.w3.org/2000/svg" width="150" height="150" viewBox="0 0 150 150">
  <defs>
    <style>
      .cls-1 {
        fill: #1aa9e1;
      }

      .cls-2 {
        fill: #f57f36;
      }

      .cls-3 {
        fill: #fff;
      }
    </style>
  </defs>
  <path class="cls-1" d="M62.446,6.568c.131-.263.329-.591.461-.92Z"/>
  <path class="cls-2" d="M57.664,102.1A54.981,54.981,0,0,1,37.522,82.317a52.336,52.336,0,0,1-7.451-27.383,53.315,53.315,0,0,1,7.451-27.711A55.233,55.233,0,0,1,57.828,7.278a58.3,58.3,0,0,1,56.413,0,55.233,55.233,0,0,1,20.306,19.945A53.3,53.3,0,0,1,142,54.934a52.406,52.406,0,0,1-7.532,27.383A55.63,55.63,0,0,1,114.077,102.1a57.3,57.3,0,0,1-28.329,7.275A56,56,0,0,1,57.664,102.1ZM99.339,77.658a25.9,25.9,0,0,0,13.1-22.888A26.454,26.454,0,0,0,108.919,41.2a26.827,26.827,0,0,0-9.58-9.564,27.5,27.5,0,0,0-26.61,0A26.832,26.832,0,0,0,63.15,41.2,26.454,26.454,0,0,0,59.629,54.77a26.178,26.178,0,0,0,25.953,26.4c.164,0,.329,0,.493,0A25.573,25.573,0,0,0,99.339,77.658ZM44.154,96.3,9.684,130.709,30.972,150l25.709-43.977A25.054,25.054,0,0,1,44.154,96.3Z"/>
  <ellipse class="cls-2" cx="92.216" cy="64.988" rx="15.475" ry="15.449"/>
  <ellipse class="cls-3" cx="95.655" cy="68.83" rx="8.024" ry="8.011"/>
</svg>
