<svg xmlns="http://www.w3.org/2000/svg" viewBox="0 0 150 150"><defs><style>.a{fill:#fe7f32;}</style></defs><path class="a" d="M100.1,34.4l-4.6,5c-11.3-9-24-12.8-38.2-10.6A46.6,46.6,0,0,0,26.9,46.6a48.2,48.2,0,0,0,68.7,66.9c18.8-15.8,20.5-39.9,13.6-55.2-1,1-2.1,2-3.1,3.1C92.6,75,79.2,88.7,65.7,102.4a18.5,18.5,0,0,0-1.4,1.4c-2,2.3-4.8,2.3-7,.2L34.1,80.7,27.4,74a4,4,0,0,1-.1-5.9l7.5-7.5c2-2,4.2-1.9,6.2.1L61.3,80.9l.9.9,3.3-3.1L94.6,52.1c4.5-4.1,9-8.2,13.7-12.2a27.7,27.7,0,0,1,35.5-.5l.5.4a29.9,29.9,0,0,1-3,0A29.4,29.4,0,0,0,120.2,48l-5.1,4.6a1.1,1.1,0,0,0-.2,1.4,52.2,52.2,0,0,1,4.8,23c-.5,18.7-8.4,33.6-23.5,44.6a52.1,52.1,0,0,1-23.6,9.3,54.8,54.8,0,0,1-54.4-25A54.2,54.2,0,0,1,10,82.2,55,55,0,0,1,99.4,33.8Z"/></svg>