<svg xmlns="http://www.w3.org/2000/svg" xmlns:xlink="http://www.w3.org/1999/xlink" viewBox="0 0 2064.5 378.8"><defs><style>.a{fill:none;}.b{clip-path:url(#a);}.c{fill:#f1faff;}.d{fill:#094e8e;}.e{fill:#f57f36;}.f{fill:#282625;opacity:0.22;}.g{fill:url(#b);}.h{fill:#fff;}.i{fill:url(#c);}.j{fill:url(#d);}.k{fill:url(#e);}.l{fill:url(#f);}.m{fill:url(#g);}.n{fill:url(#h);}.o{fill:url(#i);}.p{fill:url(#j);}.q{fill:url(#k);}.r{fill:url(#l);}.s{fill:url(#m);}.t{fill:url(#n);}.u{fill:url(#o);}.v{fill:url(#p);}.w{fill:#c7d1ea;}.x{fill:#f7931e;}.y{fill:#db7712;}.z{fill:#ffa245;}.aa{fill:#a55a0f;}.ab{fill:#363636;}.ac{fill:#555759;}.ad{fill:#222223;}.ae{fill:#141718;}.af{fill:#0e1928;}.ag{fill:#f2f2f2;}.ah{fill:#f15a24;}.ai{fill:#e5e5e5;}.aj{fill:#ea2a21;}.ak{fill:#e06927;}.al{fill:#fe7f32;}.am{fill:#cc5e27;}</style><clipPath id="a"><rect class="a" x="-1" y="-0.1" width="2066" height="378"/></clipPath><linearGradient id="b" x1="1714.64" y1="280.92" x2="1893.21" y2="280.92" gradientUnits="userSpaceOnUse"><stop offset="0" stop-color="#0060b5"/><stop offset="1" stop-color="#0e507a"/></linearGradient><linearGradient id="c" x1="1733.98" y1="307.35" x2="1760.41" y2="307.35" gradientUnits="userSpaceOnUse"><stop offset="0" stop-color="#022c5a"/><stop offset="1" stop-color="#022c5a"/></linearGradient><linearGradient id="d" x1="1847.43" y1="307.35" x2="1873.86" y2="307.35" xlink:href="#c"/><linearGradient id="e" x1="1714.64" y1="228.07" x2="1893.21" y2="228.07" xlink:href="#b"/><linearGradient id="f" x1="1733.98" y1="254.5" x2="1760.41" y2="254.5" xlink:href="#c"/><linearGradient id="g" x1="1847.43" y1="254.5" x2="1873.86" y2="254.5" xlink:href="#c"/><linearGradient id="h" x1="1714.64" y1="175.78" x2="1893.21" y2="175.78" xlink:href="#b"/><linearGradient id="i" x1="1733.98" y1="202.21" x2="1760.41" y2="202.21" xlink:href="#c"/><linearGradient id="j" x1="1847.43" y1="202.21" x2="1873.86" y2="202.21" xlink:href="#c"/><linearGradient id="k" x1="1714.64" y1="123.5" x2="1893.21" y2="123.5" xlink:href="#b"/><linearGradient id="l" x1="1733.98" y1="149.93" x2="1760.41" y2="149.93" xlink:href="#c"/><linearGradient id="m" x1="1847.43" y1="149.93" x2="1873.86" y2="149.93" xlink:href="#c"/><linearGradient id="n" x1="1714.64" y1="71.22" x2="1893.21" y2="71.22" xlink:href="#b"/><linearGradient id="o" x1="1733.98" y1="97.64" x2="1760.41" y2="97.64" xlink:href="#c"/><linearGradient id="p" x1="1847.43" y1="97.64" x2="1873.86" y2="97.64" xlink:href="#c"/></defs><g class="b"><rect class="c" x="-2" y="-0.1" width="2065" height="377"/><path class="d" d="M753.5,209.8h8c.5,4.3,2.6,6.2,7.5,6.2s7-2.1,7-4.8-1.3-3.7-6.6-4.4l-4.2-.6c-7.6-1.1-10.8-3.7-10.8-9.9s4.8-11.3,14.4-11.3,14.4,4.7,14.4,11.8h-7.7c-.5-3.8-2.7-5.7-6.9-5.7s-6.1,1.9-6.1,4.6,1.1,3.3,5.7,4l4.1.5c7.6,1.2,11.8,4,11.8,10.5s-5,11.3-15.3,11.3S753.5,217.5,753.5,209.8Z"/><path class="d" d="M789.8,213.6V200.9h-4v-5.5h4v-7.8h7.6v7.8h5.4v5.5h-5.4v13c0,1.8.9,2.5,2.7,2.5h2.7v5.1l-4.6.3C791.8,221.8,789.8,219.8,789.8,213.6Z"/><path class="d" d="M805.3,214.1c0-4,2.4-7.3,9-7.8l5.6-.5c2.1-.2,2.8-.9,2.8-2s-1.4-3.5-4-3.5-4,1.2-4.3,3.5h-7.7c0-5.4,3.5-8.9,11.9-8.9s11.8,3.5,11.8,8.9v11c0,3.6.3,5.8.8,6.7h-7a5.3,5.3,0,0,1-1.1-3.6c-1.5,2.7-3.9,4.1-8.3,4.1C808.6,222,805.3,218.9,805.3,214.1Zm17.4-3.1v-1.5a4.9,4.9,0,0,1-2.8.8l-2.9.2c-2.8.3-3.9,1.5-3.9,3.1s1.2,3.3,4,3.3S822.7,214.2,822.7,211Z"/><path class="d" d="M834.8,221.5V195.4h7.4v5.7c1.3-4.6,3.5-6,7-6a8.8,8.8,0,0,1,2.4.3v6.8h-2.7c-3.9,0-6.3,2.7-6.3,7.5v11.9Z"/><path class="d" d="M857.1,213.6V200.9h-4v-5.5h4v-7.8h7.6v7.8h5.4v5.5h-5.4v13c0,1.8.8,2.5,2.7,2.5h2.7v5.1l-4.7.3C859.1,221.8,857.1,219.8,857.1,213.6Z"/><path class="d" d="M873.1,188.3c0-2.2,1.6-3.9,4.4-3.9s4.4,1.7,4.4,3.9-1.6,3.9-4.4,3.9S873.1,190.5,873.1,188.3Zm.5,33.2V195.4h7.7v26.1Z"/><path class="d" d="M902.1,221.5V205.8c0-3-1.1-4.6-3.7-4.6s-4.9,2-4.9,5.8v14.5h-7.7V195.4h7.3v4a8.1,8.1,0,0,1,7.7-4.5c6,0,9,3.1,9,9.4v17.2Z"/><path class="d" d="M913.3,207.7c0-7.7,4.5-12.8,11.5-12.8,4.2,0,6.6,1.9,7.9,4.6v-4.1H940v23.8c0,8.1-4.3,12.7-13.3,12.7s-12-3.7-12-9.5H922c.4,3,2,4.5,5.1,4.5s5.2-1.8,5.2-5.5v-4.8c-1.4,2.4-3.8,3.9-7.5,3.9C917.8,220.5,913.3,215.4,913.3,207.7Zm19,0c0-4.9-2.3-7.4-5.6-7.4s-5.7,2.5-5.7,7.4,2.3,7.4,5.7,7.4S932.3,212.6,932.3,207.7Z"/><path class="d" d="M956.1,214.1c0-4,2.3-7.3,9-7.8l5.6-.5c2.1-.2,2.7-.9,2.7-2s-1.3-3.5-4-3.5-4,1.2-4.2,3.5h-7.7c0-5.4,3.5-8.9,11.8-8.9s11.9,3.5,11.9,8.9v11c0,3.6.3,5.8.8,6.7h-7.1a5.3,5.3,0,0,1-1.1-3.6c-1.4,2.7-3.9,4.1-8.2,4.1C959.4,222,956.1,218.9,956.1,214.1Zm17.3-3.1v-1.5a4.2,4.2,0,0,1-2.7.8l-2.9.2c-2.9.3-4,1.5-4,3.1s1.2,3.3,4.1,3.3S973.4,214.2,973.4,211Z"/><path class="d" d="M987.3,213.6V200.9h-3.9v-5.5h3.9v-7.8H995v7.8h5.4v5.5H995v13c0,1.8.8,2.5,2.6,2.5h2.8v5.1l-4.7.3C989.3,221.8,987.3,219.8,987.3,213.6Z"/><path class="d" d="M1015.5,208.5c0-8.2,4.9-13.6,13.6-13.6s13.7,5.4,13.7,13.6-4.9,13.5-13.7,13.5S1015.5,216.6,1015.5,208.5Zm19.6,0c0-5.3-2.2-7.8-6-7.8s-5.9,2.5-5.9,7.8,2.2,7.7,5.9,7.7S1035.1,213.7,1035.1,208.5Z"/><path class="d" d="M1062.5,221.5V205.8c0-3-1.1-4.6-3.7-4.6s-4.9,2-4.9,5.8v14.5h-7.7V195.4h7.3v4a8.2,8.2,0,0,1,7.8-4.5c5.9,0,9,3.1,9,9.4v17.2Z"/><path class="d" d="M1074.7,221.5v-36h7.7v36Z"/><path class="d" d="M1087.2,226h2.9c2.7,0,4.1-1.2,4.1-3.4a9.3,9.3,0,0,0-.7-3.3l-8.6-23.9h8l6,20.2,6-20.2h8l-8.6,23.9c-3.3,9.3-7.1,12.1-14.2,12.1h-2.9Z"/><path class="e" d="M1178.5,202.5c0-11.4,4.8-18.5,15.2-18.5s15.1,7.1,15.1,18.5-4.7,18.5-15.1,18.5S1178.5,214,1178.5,202.5Zm22.6,0c0-8.5-2.5-12.2-7.4-12.2s-7.5,3.7-7.5,12.2,2.6,12.3,7.5,12.3S1201.1,211.1,1201.1,202.5Z"/><path class="e" d="M1211,216.9c0-2.4,1.7-4.2,4.6-4.2s4.6,1.8,4.6,4.2-1.6,4.1-4.6,4.1S1211,219.1,1211,216.9Z"/><path class="e" d="M1223.4,210.7h7.6c.4,2.2,2.2,4.5,5.9,4.5s6.3-2.4,6.3-6.4-2.5-6.5-6.3-6.5a5.6,5.6,0,0,0-5.8,4.1h-7.5l3-21.9h22.3v6.3h-16l-1.2,8.1a9.3,9.3,0,0,1,6.3-2c8.1,0,12.9,4.3,12.9,11.6s-4.9,12.5-14,12.5S1223.4,216,1223.4,210.7Z"/><path class="e" d="M1282,200.3c0,13.6-5.4,20.7-14.7,20.7-7.2,0-12-3-13-9.9h7.2c.3,2.3,2.1,4.1,5.4,4.1s6.7-3.5,7.4-10.6a9.9,9.9,0,0,1-8.1,3.6c-8.1,0-12.9-4.4-12.9-11.7s4.9-12.5,14-12.5S1282,189.2,1282,200.3Zm-21-4c0,4,2.7,6.4,6.6,6.4s6.6-2.4,6.6-6.4-2.7-6.4-6.6-6.4S1261,192.3,1261,196.3Z"/><path class="e" d="M1283.2,220.5l13.2-36h7l-13.3,36Z"/><path class="e" d="M1335.2,220.5V204.6c0-3.1-1.1-4.4-3.1-4.4s-4.3,1.8-4.3,5.5v14.8h-7.4V204.6c0-3.1-1.1-4.4-3.1-4.4s-4.3,1.8-4.3,5.5v14.8h-7.4V194.4h7.3v4c1.3-2.5,3.3-4.5,6.9-4.5s6.1,1.5,7.3,4.6a7.8,7.8,0,0,1,7.3-4.6c5.4,0,8.2,3.1,8.2,9.4v17.2Z"/><path class="e" d="M1346,207.5c0-8.2,4.9-13.6,13.7-13.6s13.6,5.4,13.6,13.6-4.9,13.5-13.6,13.5S1346,215.6,1346,207.5Zm19.6,0c0-5.3-2.1-7.8-5.9-7.8s-5.9,2.5-5.9,7.8,2.1,7.7,5.9,7.7S1365.6,212.7,1365.6,207.5Z"/><ellipse class="f" cx="1814" cy="310.9" rx="135" ry="8"/><rect class="g" x="1714.6" y="260.3" width="178.6" height="41.26" rx="5.5"/><path class="h" d="M1723,268.7v17.4h161.8V268.7Zm16.5,12.2a3.6,3.6,0,1,1,3.5-3.5A3.6,3.6,0,0,1,1739.5,280.9Zm13.8,0a3.6,3.6,0,0,1,0-7.1,3.6,3.6,0,1,1,0,7.1Zm13.9,0a3.6,3.6,0,1,1,3.5-3.5A3.6,3.6,0,0,1,1767.2,280.9Z"/><rect class="i" x="1734" y="301.6" width="26.4" height="11.6"/><rect class="j" x="1847.4" y="301.6" width="26.4" height="11.6"/><rect class="k" x="1714.6" y="207.4" width="178.6" height="41.26" rx="5.5"/><path class="h" d="M1723,215.8v17.4h161.8V215.8Zm16.5,12.3a3.6,3.6,0,1,1,0-7.1,3.6,3.6,0,0,1,0,7.1Zm13.8,0a3.6,3.6,0,1,1,3.6-3.6A3.6,3.6,0,0,1,1753.3,228.1Zm13.9,0a3.6,3.6,0,1,1,0-7.1,3.6,3.6,0,0,1,0,7.1Z"/><rect class="l" x="1734" y="248.7" width="26.4" height="11.6"/><rect class="m" x="1847.4" y="248.7" width="26.4" height="11.6"/><rect class="n" x="1714.6" y="155.2" width="178.6" height="41.26" rx="5.5"/><path class="h" d="M1723,163.5v17.4h161.8V163.5Zm16.5,12.3a3.6,3.6,0,1,1,0-7.1,3.6,3.6,0,0,1,0,7.1Zm13.8,0a3.6,3.6,0,1,1,3.6-3.6A3.6,3.6,0,0,1,1753.3,175.8Zm13.9,0a3.6,3.6,0,1,1,0-7.1,3.6,3.6,0,0,1,0,7.1Z"/><rect class="o" x="1734" y="196.4" width="26.4" height="11.6"/><rect class="p" x="1847.4" y="196.4" width="26.4" height="11.6"/><rect class="q" x="1714.6" y="102.9" width="178.6" height="41.26" rx="5.5"/><path class="h" d="M1723,111.3v17.4h161.8V111.3Zm16.5,12.2a3.6,3.6,0,1,1,3.5-3.5A3.6,3.6,0,0,1,1739.5,123.5Zm13.8,0a3.6,3.6,0,0,1,0-7.1,3.6,3.6,0,1,1,0,7.1Zm13.9,0a3.6,3.6,0,1,1,3.5-3.5A3.6,3.6,0,0,1,1767.2,123.5Z"/><rect class="r" x="1734" y="144.1" width="26.4" height="11.6"/><rect class="s" x="1847.4" y="144.1" width="26.4" height="11.6"/><rect class="t" x="1714.6" y="50.6" width="178.6" height="41.26" rx="5.5"/><path class="h" d="M1723,59V76.4h161.8V59Zm16.5,12.2a3.6,3.6,0,1,1,3.5-3.5A3.6,3.6,0,0,1,1739.5,71.2Zm13.8,0a3.6,3.6,0,0,1,0-7.1,3.6,3.6,0,1,1,0,7.1Zm13.9,0a3.6,3.6,0,1,1,3.5-3.5A3.6,3.6,0,0,1,1767.2,71.2Z"/><rect class="u" x="1734" y="91.8" width="26.4" height="11.6"/><rect class="v" x="1847.4" y="91.8" width="26.4" height="11.6"/><ellipse class="w" cx="1926" cy="317.5" rx="73.7" ry="10.4"/><path class="x" d="M1981.3,319.7c-6.5,3.6-23.6,2.7-38.6-5.4l5.8-2,14.9-5.1,4.8-1.7s15,2.6,15.9,10.1C1984.2,317.3,1983.2,318.7,1981.3,319.7Z"/><path class="y" d="M1981.3,319.7c-6.5,3.6-23.6,2.7-38.6-5.4l5.8-2,5.5,2.3S1967.3,321.2,1981.3,319.7Z"/><path class="z" d="M1981.3,319.7c-.6-9.2-17.7-10-17.7-10l-.2-2.6,4.8-1.7s15,2.6,15.9,10.1C1984.2,317.3,1983.2,318.7,1981.3,319.7Z"/><path class="aa" d="M1970.7,322.5a61.9,61.9,0,0,1-28.4-7.5c-.3-.1-.4-.4-.4-.8a.7.7,0,0,1,.5-.6l25.5-8.8c.1,0,.3-.1.4,0s15.6,2.7,16.4,10.7c.2,1.8-.6,3.2-2.4,4.4S1975.7,322.5,1970.7,322.5Zm-26.2-8c15.5,7.8,31.9,7.8,37.2,4.2a3.1,3.1,0,0,0,1.7-3c-.6-6.5-13.4-9.2-15.1-9.4Z"/><path class="ab" d="M1968.6,304.9c-14,17.1-31.3,8.3-36.3,5l-1.5-1h0l39-69.5h0C1970,239.9,1986.3,283.3,1968.6,304.9Z"/><path class="x" d="M1909.8,313c-15.6,8.7-33.4,9.5-39.4,5.5a3.6,3.6,0,0,1-2-3.6c.6-7.5,15.6-10.4,15.6-10.4l2.9.9,15.5,5.2Z"/><path class="z" d="M1886.9,305.5v.9s-16,4.2-16.4,12.1a3.6,3.6,0,0,1-2-3.6c.6-7.5,15.6-10.4,15.6-10.4Z"/><path class="y" d="M1902.4,310.7l7.4,2.3c-15.6,8.7-33.4,9.5-39.4,5.5,0,0,15,.5,27.4-6A34,34,0,0,1,1902.4,310.7Z"/><path class="aa" d="M1881.2,321.6c-4.8,0-8.7-.9-11.2-2.4a4.6,4.6,0,0,1-2.4-4.3c.8-8,15.7-10.9,16.3-11h.4l25.7,8.4a.7.7,0,0,1,.5.6.9.9,0,0,1-.4.8C1900.3,319.1,1889.4,321.6,1881.2,321.6Zm3.4-16.4c-1.7.3-15,3.4-15.6,9.8a3.2,3.2,0,0,0,1.7,3c5.4,3.5,21.8,3.2,37.1-4.8Z"/><path class="ab" d="M1919.4,309l-.4.3a23.8,23.8,0,0,1-7,3.3c-6.4,1.6-16.1,1.5-27.5-8.2-21.8-18.5-14.2-52.6-14.2-52.6h0l2.3,2.6Z"/><path class="ab" d="M2010.7,204h0c-2.1,8.3-6.8,16.6-16.3,23.8s-18.7,12-25.6,14.5c-13.5,5-20.6,2.6-20.6,2.6L1938,231.3s1.8-20.9,32.5-32.6a3.2,3.2,0,0,1,.9-.3,65.8,65.8,0,0,0,35.1-31h0C2006.4,167.4,2015.5,185.3,2010.7,204Z"/><path class="ac" d="M2006.4,167.4c-7.6,30.6-44.5,36.6-44.5,36.6l8.5-5.4.9-.3C1996.5,188.9,2006.3,167.8,2006.4,167.4Z"/><path class="ad" d="M2010.7,204c-2.1,8.3-6.8,16.6-16.3,23.8s-18.7,12-25.6,14.5l-6.7-20.8a26,26,0,0,0,24.7,5.6C2001.8,223,2010.6,204.3,2010.7,204Z"/><path class="ae" d="M1961.5,245.3c-8.6,1.8-13.1.4-13.4.3l-.3-.2-10.2-13.6a.5.5,0,0,1-.1-.6c0-.2,2.2-21.8,33.8-33.5a65.6,65.6,0,0,0,34.6-30.6c.2-.2.4-.5.7-.4a.5.5,0,0,1,.6.4,60.7,60.7,0,0,1,5.6,21.7c.8,11.3-1.6,27.4-17.8,39.6C1980.5,239.1,1969.3,243.6,1961.5,245.3Zm-12.8-1c2,.5,17.7,3.6,45.3-17.1,12.5-9.4,18.3-22.3,17.3-38.2a62.6,62.6,0,0,0-4.9-19.9,68,68,0,0,1-34.8,30c-28.8,10.7-32.5,29.6-32.9,32Z"/><path class="ab" d="M1913,201.7s-.6,9.6-17.3,31c-2.3,3-5,6.2-8,9.8-15.2,17.4-33.1,17.5-44.6,15h0a50.7,50.7,0,0,1-12-4.2s18.5-15.3,31.7-33.8c7.6-10.6,13.1-17.2,19.3-21.5l1.4-1.3c.7-.4,2.3-1.5,3-1.8,8.6-5.6,13.8-4.6,13.8-4.6Z"/><path class="ac" d="M1882,198c-10.8,11.2-17.5,25.8-27.4,37.1s-23.6,18.2-23.6,18.2,18.5-15.2,31.7-33.8C1870.3,209,1875.9,202.4,1882,198Z"/><path class="ae" d="M1869.8,256.3a44.5,44.5,0,0,1-19.8,3c-11.1-.9-19.1-5.1-19.4-5.4a.5.5,0,0,1-.3-.5c0-.3.1-.6.3-.6s19.6-14.6,31.5-33.6c18.8-30.1,37.4-29.6,38.2-29.5s.3,0,.4.2l12.8,11.3a.5.5,0,0,1,.2.6c0,.5-1,13.1-25.5,41.2A47.4,47.4,0,0,1,1869.8,256.3Zm-37.5-3.1a51.7,51.7,0,0,0,17.8,4.6c14.4,1.1,26.9-4.2,36.9-15.8,21.9-25.2,24.8-37.9,25.2-40l-12.3-10.9c-2.3.1-19.5,1.4-36.7,28.9C1852.8,236.8,1836.4,250.1,1832.3,253.2Z"/><path class="ad" d="M1895.8,232.8c-2.4,3-5.1,6.2-8.1,9.7-15.1,17.5-33,17.6-44.6,15,32.1.8,48.1-32.2,48.1-32.2Z"/><path class="af" d="M1961.4,264.5c-1.2,24.9-19.7,37.5-41.6,36.4s-39.2-15.7-38.1-40.3c.9-17.4,9-32.5,11.6-43.7,1.3-5.4,5.7-20,7.5-22.2,5.8-7.2,13.6-3.7,20.6-4.7a15.3,15.3,0,0,1,3.7-.2,22.5,22.5,0,0,1,3.6.6c6.9,1.6,15.1-1.2,20.2,6.5,1.5,2.4,4.7,17.3,5.3,22.9C1955.8,231.1,1962.3,246.5,1961.4,264.5Z"/><path class="ab" d="M1973.3,262.2c-1.3,28-18.8,43.9-42.5,46.7h0a62,62,0,0,1-11.5.4h-.4c-20.3-1.1-37-10.8-44.8-27.4h0c-3.3-7.1-4.9-15.6-4.5-25.1a28.7,28.7,0,0,1,.7-5c1.3-6.5,4.3-13,7-19.2a92.3,92.3,0,0,0,3.9-9.6c3-9.6,6.2-18.8,4.8-24.2-1.9-7.1,5.4-24.7,7.8-27.6,7.7-9.3,18.2-4.6,27.4-6a21,21,0,0,1,5-.3,19.3,19.3,0,0,1,4.8.8c9.2,2.2,20.1-1.6,27,8.4,2.1,3.1,9,22.5,8,29.8-.7,5.4-1.9,12.7-.3,21,1,4.5,2.5,9.4,4,14.5h0c.4,1.6.9,3.3,1.4,4.9h0c.8,3.2,1.4,6.4,1.9,9.7h0A54.9,54.9,0,0,1,1973.3,262.2Z"/><path class="ag" d="M1961.4,264.5c-.8,51.2-83.5,46.8-79.6-3.9,1.9-24.2,20.3-50.1,19-65.9,5.8-7.2,13.6-3.7,20.6-4.7a17.9,17.9,0,0,1,7.3.4c6.9,1.6,15.1-1.2,20.2,6.5A214.4,214.4,0,0,1,1961.4,264.5Z"/><path class="ah" d="M1904.8,174.4a68.6,68.6,0,0,0,38.7,2S1924.1,192.9,1904.8,174.4Z"/><path class="ab" d="M1923.8,240.7h-.8c-3.5-.7-4.5-4.6-4.8-7.9-1,2.4-2.5,5-4.5,6.2a4,4,0,0,1-3.5.5,5.9,5.9,0,0,1-3.6-3.1c-2.2-5.2,2.4-14.3,2.6-14.7a1,1,0,0,1,1-.3.8.8,0,0,1,.3,1.1c-.1,0-4.5,8.8-2.6,13.3a3.9,3.9,0,0,0,2.8,2.3,2.9,2.9,0,0,0,2.4-.3c3.4-2.2,5.4-10.1,5.4-10.2s.4-.7.8-.6a.7.7,0,0,1,.5.9c0,.1-1.4,10.4,3.5,11.3a2.1,2.1,0,0,0,1.8-.4c2.1-1.8,2.3-7.6,2.3-9.7a.8.8,0,0,1,.7-.7.8.8,0,0,1,.8.6c.6,2.3,2.8,8.5,5.8,8.6.3,0,1,.1,1.6-1.2,1.4-2.8.5-9.3-2.4-12.7a.6.6,0,0,1,.1-1,.8.8,0,0,1,1,.1c3.3,3.8,4.2,11,2.7,14.2a2.9,2.9,0,0,1-3,1.9c-2.9-.1-4.8-3.3-5.9-6.1-.3,2.5-1,5.6-2.6,7A3.8,3.8,0,0,1,1923.8,240.7Z"/><path class="ag" d="M1989.5,168.6c-.9,17.7-12.4,29.7-28.4,36.1q-4,1.5-8.4,2.7a99.8,99.8,0,0,1-30.3,2.9,98.2,98.2,0,0,1-24.5-4.2l-3.7-1.2-.6-.2h0c-20.3-7.4-34.7-21.7-33.6-42.7.7-12.4,6.5-24.7,15.5-34.9a29.4,29.4,0,0,1,3-3.1c12.9-13.1,31.1-21.8,49.5-20.9s37.8,12.7,49.2,28.3C1985.3,142.6,1990.1,155.9,1989.5,168.6Z"/><path class="ai" d="M1913.4,165.9s3-26.4-16.7-36.5,19.8-10,19.8-10l9.3,48.2Z"/><ellipse class="h" cx="1895.5" cy="157.2" rx="11.1" ry="13.3" transform="translate(-6 202) rotate(-6.1)"/><ellipse class="ae" cx="1896.9" cy="158.3" rx="7.9" ry="9.2" transform="translate(2.2 340.6) rotate(-10.3)"/><path class="ae" d="M1897,171h0a10.6,10.6,0,0,1-8.9-3.2,15.4,15.4,0,0,1-4.4-9.5,15.5,15.5,0,0,1,2.3-10.2,11,11,0,0,1,8-5c6.4-.7,12.4,4.9,13.2,12.7S1903.4,170.3,1897,171Zm-3-26.4a9.6,9.6,0,0,0-6.8,4.4,13.7,13.7,0,0,0-2.1,9.2h0a14.4,14.4,0,0,0,4,8.5,9.2,9.2,0,0,0,7.6,2.9h0c5.7-.6,9.7-6.7,8.9-13.5s-5.8-12-11.6-11.5Zm-9.6,13.7Z"/><path class="h" d="M1896.1,154.6a2.6,2.6,0,0,1-2.7,2.2,2.5,2.5,0,0,1-2.5-2.4,2.5,2.5,0,0,1,2.7-2.2A2.5,2.5,0,0,1,1896.1,154.6Z"/><path class="h" d="M1895.9,205l-1.9-.2-2.2-2h0c-20.3-7.3-33.1-19.9-32-40.9.7-12.3,6.5-24.7,15.5-34.9l19.8,2.3a39.7,39.7,0,0,0-22.1,34.3C1871.7,189.2,1895.9,205,1895.9,205Z"/><path class="h" d="M1934.6,166.3s7-36.5,28.1-32.2c0,0-2-10.8-2.6-10.7s-35.7,6.5-35.7,6.5l-4.9,38.5Z"/><path class="ai" d="M1989.5,168.6c-.9,17.7-12.4,29.7-28.4,36.1h-.3c10.1-11,16.5-24.7,16.1-42.7s-15.4-28.4-15.4-28.4l15.5-2.2C1985.3,142.6,1990.1,155.9,1989.5,168.6Z"/><path class="ab" d="M1943.4,106.2a52.7,52.7,0,0,0-6.8-1.9c-.3-9.6-10.2-14.6-10.2-14.6,2.1,6.9.2,10.9-2.1,13.2h-.1a58.3,58.3,0,0,0-13.2,1.8c-27.1,6.8-50,32.1-51.3,57.2-.7,15,7.9,26.6,21.1,36.3,8.9,6.5,15.1,8,19,8.5-.4-.2-30.3-12.5-31.8-38.3-1.3-22.3,16.9-42.6,31.1-38.6a13,13,0,0,1,5.3,2.8c14.3,11.9,13.1,31.3,13.1,31.3h.3l6.6,3.7,7.1-3h.3s.7-19.5,16.3-29.8a16.4,16.4,0,0,1,3.8-1.8c14.9-4.6,32.5,18.3,28.7,41.2a43.7,43.7,0,0,1-21.6,31.3c8.1-2.1,14.3-5.1,19-9.1a9.6,9.6,0,0,0,1.5-1.4c6.3-6.2,9.4-14.7,10-26.4C1990.7,143.2,1970.1,115.4,1943.4,106.2Z"/><path class="ac" d="M1868.8,141.9c-12.1,27.1-.9,47.2,12,56.3-13.9-8.8-21.8-21.3-21.1-36.3,1.3-25.1,24.2-50.4,51.3-57.2h0S1881.2,114.4,1868.8,141.9Z"/><path class="ad" d="M1989.5,168.6c-.6,11.7-3.7,20.2-10,26.4l-1.5,1.4c.3-.4,14.8-19.5,5.3-48.3-8.6-25.8-39.2-41.7-39.7-42C1970.1,115.4,1990.7,143.2,1989.5,168.6Z"/><path class="ae" d="M1922.2,301.7h-2.5c-11.3-.6-21.3-4.6-28.2-11.6s-11-17.5-10.5-29.4c.6-14.2,11.7-40.4,16.4-51.6l1.2-2.8c.1-.4.4-.5.8-.4s.5.5.4.9-.6,1.7-1.1,2.8c-4.7,11.1-15.7,37.2-16.3,51.2-.6,11.5,2.9,21.3,10.1,28.4s16.3,10.6,27.2,11.1,20.8-2.4,28.1-8.3,12.2-15.9,12.7-27.4c.8-16.7-6-48.5-8.1-56.9a.7.7,0,0,1,.5-.9c.4,0,.7.1.8.6,2.1,8.4,9,40.4,8.2,57.4-.6,12-5.1,21.9-13.3,28.5C1941.9,298.7,1932.5,301.7,1922.2,301.7Z"/><path class="ac" d="M1911.9,312.6c-6.3,1.6-16.1,1.5-27.5-8.2-21.7-18.5-14.1-52.6-14.1-52.6h0c1.3-6.5,4.3-13,7-19.2a125.1,125.1,0,0,0-4.7,21.8c-1,8.8-1,18.5,1.5,27.5h0C1881.5,307.2,1899.3,314,1911.9,312.6Z"/><path class="ad" d="M1968.6,304.9c-14,17.1-31.3,8.3-36.3,5h0s18,8.3,32.3-4.6c11-9.8,11.1-33.2,8.4-51.2h0c-.6-3.4-1.2-6.7-1.9-9.7h0c-.5-1.8-1-3.4-1.4-4.9h0C1970,239.9,1986.3,283.3,1968.6,304.9Z"/><path class="ae" d="M1948.6,315.6a32.5,32.5,0,0,1-18-5.9,28.7,28.7,0,0,1-11.1,0c-2.3,1.8-17.5,12-35.7-4.8-13.5-12.6-18.5-30.9-14.1-52.9a111.6,111.6,0,0,1,10.8-29.6.8.8,0,0,1,1.1-.3.8.8,0,0,1,.2,1,104.6,104.6,0,0,0-10.6,29.3c-3,14.9-3,36.1,13.7,51.5,18.7,17.2,33.5,5.1,34,4.6a1,1,0,0,1,.7-.2,26.9,26.9,0,0,0,11.1-.1h.6c.8.6,20.2,15.3,36.8-4,14.7-17,7.3-42.9,1.4-63.8-2.4-8.4-4.7-16.3-5.2-22.7,0-.4.2-.8.6-.8a.7.7,0,0,1,.7.7c.6,6.2,2.8,14.1,5.2,22.4,6,21.2,13.4,47.6-1.7,65.2C1962.4,313.2,1955.1,315.6,1948.6,315.6Z"/><path class="aa" d="M1868.4,316.4l-.5-.2a.7.7,0,0,1-.1-1,13.8,13.8,0,0,1,7.9-3.9c.4-.1.7.2.8.6a.7.7,0,0,1-.5.8c-4.8.8-7.1,3.4-7.1,3.5Z"/><path class="aa" d="M1872.3,319.8a.9.9,0,0,1-.6-.3.8.8,0,0,1,.1-1,20.8,20.8,0,0,1,6.9-3.8c.4-.1.8,0,.9.4a.8.8,0,0,1-.4.9,20.9,20.9,0,0,0-6.4,3.5A.5.5,0,0,1,1872.3,319.8Z"/><path class="aa" d="M1983.9,317.5l-.6-.2a12.4,12.4,0,0,0-7.6-3.8c-.3,0-.7-.4-.6-.7a.7.7,0,0,1,.7-.7,13.8,13.8,0,0,1,8.5,4.2.6.6,0,0,1-.1,1C1984.2,317.5,1984.1,317.5,1983.9,317.5Z"/><path class="aa" d="M1979.5,321.2l-.5-.2a25.8,25.8,0,0,0-8.4-4.1.8.8,0,0,1-.5-.9.8.8,0,0,1,1-.5c6,1.9,8.8,4.3,8.9,4.4a.7.7,0,0,1,.1,1C1979.8,321.1,1979.7,321.2,1979.5,321.2Z"/><path class="ac" d="M1906.4,126.5c4.7-1.2,8-3.9,7.4-6s-4.8-2.9-9.4-1.6-8,3.9-7.4,6S1901.7,127.6,1906.4,126.5Z"/><path class="ae" d="M1903.9,127.7H1900c-2.1-.4-3.4-1.3-3.7-2.7s.3-2.8,1.9-4.1a16.1,16.1,0,0,1,5.9-2.7c5.2-1.3,9.5-.4,10.2,2.2s-2.7,5.5-7.9,6.8h0Zm2.5-1.2Zm.6-7.5-2.5.5a13.8,13.8,0,0,0-5.3,2.5c-1.2,1-1.8,1.9-1.5,2.7s1.2,1.2,2.6,1.5a14.5,14.5,0,0,0,5.8-.3c4.5-1.2,7.3-3.7,6.8-5.2S1910.3,118.7,1907,119Z"/><path class="ae" d="M1953.1,208.2a.8.8,0,0,1-.8-.6.8.8,0,0,1,.6-.9l1-.3c9.1-2.7,22.8-13.1,26-32.3,2.4-15.1-4.6-29.2-12.2-35.8-5.1-4.5-10.6-6.1-15.6-4.6a19.1,19.1,0,0,0-3.6,1.7c-15,10.1-15.9,29-15.9,29.2a.8.8,0,0,1-.5.7l-.4.2-7,2.9h-.6l-7-3.8a.9.9,0,0,1-.4-.8c0-.2,1-19.1-12.8-30.6a13.5,13.5,0,0,0-5-2.7c-4.9-1.3-10.5.3-15.8,4.6-7.7,6.2-15.1,18.9-14.3,33.3,1.3,23,25.5,35,30.3,37.2h.3a.9.9,0,0,1,.3,1,.8.8,0,0,1-.9.5,50.8,50.8,0,0,1-18.5-8.4c-15-11-22-23.1-21.4-36.9s6.4-25.1,16.2-36a71.7,71.7,0,0,1,35.7-22,53.1,53.1,0,0,1,13.2-1.7c2.7-2.9,3.2-7,1.6-12.3a.9.9,0,0,1,.1-.7.9.9,0,0,1,.7-.3c.5,0,10.2,5.1,11,14.7,2.3.6,4.4,1.1,6.3,1.8a72.4,72.4,0,0,1,33.9,25.4c8.8,12,13.3,25.4,12.7,37.8s-3.9,20.7-10.2,27a10.7,10.7,0,0,1-1.6,1.4c-4.4,3.8-15.8,8.6-24.2,10.9l-1,.3ZM1927.6,91.4c1.4,6.3-.6,10-2.7,12.1l-.5.2h-.2a56.5,56.5,0,0,0-13,1.7c-26.7,6.7-49.4,32.1-50.7,56.5-.6,13.3,6.2,25,20.8,35.6a46.8,46.8,0,0,0,9.7,5.5c-9.1-5.7-22.8-17-23.8-34.5-.8-15,6.9-28.2,14.9-34.7,5.7-4.6,11.9-6.3,17.2-4.8a15.2,15.2,0,0,1,5.6,3c13.2,10.9,13.4,28.2,13.4,31.4l6.2,3.4,6.6-2.8c.2-3.2,2.3-20.4,16.5-29.9a18.4,18.4,0,0,1,4.1-1.9c5.5-1.7,11.5.1,17,4.9,7.9,6.9,15.3,21.5,12.7,37.2a43.6,43.6,0,0,1-17.2,28.6c5.5-2.2,10.7-4.8,13.3-7.1l1.5-1.3c6-6,9.1-14.3,9.7-25.9,1.2-25-19.2-52.6-45.6-61.7h0a56.1,56.1,0,0,0-6.7-1.9c-.3,0-.6-.4-.6-.7C1935.6,97.6,1930.4,93.2,1927.6,91.4Z"/><path class="x" d="M1944.9,174.6h-.1c-.7,1.2-7.7,13.8-21.4,13.1s-18.9-12.8-19.8-15a1,1,0,0,1-.1-.4c7.4-3.5,10.6-9.9,21.2-9.4h1.5C1935.3,164.1,1937.3,169.7,1944.9,174.6Z"/><path class="aj" d="M1903.6,172.4s9.1,6.3,20.4,6.9,20.9-4.7,20.9-4.7-12.3,9.5-21.7,9S1903.6,172.4,1903.6,172.4Z"/><path class="z" d="M1924.7,163s-5.9,1.5-9.6,5.2a42.1,42.1,0,0,1-8.2,6.2l-3.2-1.6a1,1,0,0,1-.1-.4C1911,168.9,1914.1,162.5,1924.7,163Z"/><path class="y" d="M1944.9,174.6h-.1l-3.3,1.4s-3-1.2-6.6-6.2a20,20,0,0,0-8.6-6.7C1935.3,164.1,1937.3,169.7,1944.9,174.6Z"/><path class="aa" d="M1926.9,188.4h-3.4c-15.1-.9-20.5-15.7-20.6-15.9a.8.8,0,0,1,.4-.9,39.8,39.8,0,0,0,6.3-4c4.1-3,7.9-5.9,15.3-5.5s10.4,3.3,14.1,6.6a54.7,54.7,0,0,0,6.5,5,.7.7,0,0,1,.3.8C1945.5,175,1939.2,187,1926.9,188.4Zm-22.5-15.6c1.2,2.7,6.6,13.6,19.1,14.3s19-9.8,20.4-12.3a39.5,39.5,0,0,1-6-4.9c-3.7-3.3-6.6-5.9-13.3-6.2s-10.5,2.4-14.3,5.2A33.5,33.5,0,0,1,1904.4,172.8Z"/><path class="aa" d="M1925.8,184.2h-2.6c-9.5-.5-19-10.1-19.4-10.7s-1-1.4-.7-1.6a.6.6,0,0,1,.9-.1c.1.1,9.1,6.2,20,6.7s20.5-4.5,20.6-4.6.7-.1.9.2a.8.8,0,0,1-.1,1C1944.9,175.5,1934.8,183.2,1925.8,184.2Zm-17-8.1c3.8,3,9.3,6.5,14.5,6.8s10.8-2.4,15.1-4.9a44.2,44.2,0,0,1-14.5,2A42.6,42.6,0,0,1,1908.8,176.1Z"/><path class="ac" d="M1945.3,138.5c-4.5-1.6-7.5-4.7-6.7-6.7s5-2.4,9.5-.7,7.5,4.7,6.7,6.7S1949.8,140.1,1945.3,138.5Z"/><path class="ae" d="M1951.8,140.2a16.3,16.3,0,0,1-6.8-1.1h0a17.2,17.2,0,0,1-5.5-3.4c-1.5-1.5-2-3-1.6-4.2s5.4-3,10.4-1.2a14.8,14.8,0,0,1,5.5,3.4c1.5,1.5,2,3,1.6,4.2S1953.7,139.9,1951.8,140.2Zm-6.3-2.4c4.5,1.6,8.1,1.1,8.6-.3s-.2-1.7-1.2-2.7a16.9,16.9,0,0,0-5.1-3.1c-4.4-1.6-8-1.1-8.5.4s.2,1.7,1.2,2.7a17,17,0,0,0,5,3Z"/><path class="ae" d="M1964.8,168.8a.5.5,0,0,1-.4-.2c-10.6-6.9-20.6-3.9-20.7-3.8a.9.9,0,0,1-1-.5.9.9,0,0,1,.4-1l8.2-4.6a.7.7,0,0,1,1,.3c.3.4.1.8-.3,1.1l-4.3,2.4a28.9,28.9,0,0,1,17.5,4.8.8.8,0,0,1,.3,1.1A1,1,0,0,1,1964.8,168.8Z"/><path class="ae" d="M1931.8,174.9a.8.8,0,0,1-1.2-.3l-1.3-2.5a.9.9,0,1,1,1.6-.9l1.3,2.5C1932.3,174,1932.3,174.7,1931.8,174.9Z"/><path class="ae" d="M1916.5,174.1a1.1,1.1,0,0,1-.3-1.3l1.6-2.3a1,1,0,0,1,1.2-.3.9.9,0,0,1,.3,1.3l-1.5,2.3A1.1,1.1,0,0,1,1916.5,174.1Z"/><path class="e" d="M547.8,329.8V350l-9.7-9.7S547.5,329.8,547.8,329.8Z"/><path class="e" d="M530.8,330.6v20.2l-9.7-9.8S530.5,330.6,530.8,330.6Z"/><path class="e" d="M515.3,329.8V350l-9.7-9.7S515,329.8,515.3,329.8Z"/><path class="e" d="M498.6,329.8V350l-9.7-9.7S498.2,329.8,498.6,329.8Z"/><path class="d" d="M576.9,139,560,112.8V139h-6.5V103h7.4l16.8,26.2V103h6.6v36Z"/><path class="d" d="M588.4,126c0-8.1,4.6-13.6,12.9-13.6s13,5.6,13,13.3a9.2,9.2,0,0,1-.1,1.6H594.9c.2,5.3,2.8,7.8,6.7,7.8s5.4-1.7,6.2-4.3h6c-1.1,5.3-5.1,8.7-12.2,8.7S588.4,134.2,588.4,126Zm6.5-2.9h12.9c-.5-4.2-2.9-6.2-6.5-6.2S595.5,118.9,594.9,123.1Z"/><path class="d" d="M617.1,126c0-8.1,4.5-13.6,12.9-13.6s13,5.6,13,13.3c0,.5-.1,1-.1,1.6H623.6c.2,5.3,2.7,7.8,6.7,7.8a5.9,5.9,0,0,0,6.1-4.3h6c-1.1,5.3-5.1,8.7-12.1,8.7S617.1,134.2,617.1,126Zm6.5-2.9h12.9c-.6-4.2-2.9-6.2-6.5-6.2S624.1,118.9,623.6,123.1Z"/><path class="d" d="M645.7,126c0-8.6,4.4-13.6,11.5-13.6,3.9,0,6.5,1.6,8,4.5V103h6.5v36h-6.2v-4.5c-1.4,3.1-4,5-8.3,5C650.1,139.5,645.7,134.5,645.7,126Zm19.5,0c0-6-2.6-8.6-6.5-8.6s-6.5,2.6-6.5,8.6,2.6,8.5,6.5,8.5S665.2,131.9,665.2,126Z"/><path class="d" d="M707.7,139H689.5V103h17.2c7.7,0,11.9,3.9,11.9,9.6,0,4-1.9,6.9-6,7.9,4.7.9,7,4.2,7,8.5C719.6,134.8,715.4,139,707.7,139ZM706,108.2h-9.6v9.9H706c3.8,0,5.8-1.7,5.8-4.9S709.8,108.2,706,108.2Zm1,15H696.4v10.6H707c3.8,0,5.8-2,5.8-5.3S710.8,123.2,707,123.2Z"/><path class="d" d="M723.4,130.2V112.9h6.5v16c0,3.5,1.3,5.3,4.4,5.3s5.7-2.5,5.7-6.7V112.9h6.5V139h-6.2v-4.3c-1.4,2.8-3.7,4.8-8,4.8C726.3,139.5,723.4,136.5,723.4,130.2Z"/><path class="d" d="M750.3,126c0-8.6,4.4-13.6,11.4-13.6,4,0,6.6,1.6,8,4.5V103h6.6v36h-6.2v-4.5c-1.5,3.1-4,5-8.4,5C754.7,139.5,750.3,134.5,750.3,126Zm19.4,0c0-6-2.6-8.6-6.5-8.6s-6.4,2.6-6.4,8.6,2.6,8.5,6.4,8.5S769.7,131.9,769.7,126Z"/><path class="d" d="M780,125.2c0-7.7,4.4-12.8,11.5-12.8,4.3,0,6.9,1.9,8.3,5v-4.5H806v24c0,8.1-4.3,12.5-12.9,12.5s-11.7-3.7-11.7-9.3h6.1c.4,3.2,2.4,5,5.9,5s6.1-2.1,6.1-6.4v-5.2c-1.5,2.9-4.1,4.5-8,4.5C784.4,138,780,132.9,780,125.2Zm19.5,0c0-5.4-2.6-8.1-6.5-8.1s-6.5,2.7-6.5,8.1,2.6,8.1,6.5,8.1S799.5,130.6,799.5,125.2Z"/><path class="d" d="M809.8,126c0-8.1,4.5-13.6,12.9-13.6s13,5.6,13,13.3c0,.5-.1,1-.1,1.6H816.3c.2,5.3,2.7,7.8,6.7,7.8a5.9,5.9,0,0,0,6.1-4.3h6c-1.1,5.3-5.1,8.7-12.1,8.7S809.8,134.2,809.8,126Zm6.5-2.9h12.8c-.5-4.2-2.8-6.2-6.4-6.2S816.8,118.9,816.3,123.1Z"/><path class="d" d="M841.1,131.7V117.6H837v-4.7h4.1v-7.8h6.5v7.8h5.7v4.7h-5.7v14.3c0,2,.9,2.7,3,2.7h2.7V139l-4.3.2C843.1,139.2,841.1,137.4,841.1,131.7Z"/><path class="d" d="M870,139V103h26.2v5.6H876.9V118h17.7v5.3H876.9V139Z"/><path class="d" d="M899.4,139V112.9h6.2v5.8c1.3-4.6,3.6-6.1,7.2-6.1a15.7,15.7,0,0,1,2.4.3v5.7h-2.7c-3.9,0-6.6,3-6.6,8.3V139Z"/><path class="d" d="M918.1,105.7c0-2,1.4-3.4,3.8-3.4s3.7,1.4,3.7,3.4-1.3,3.3-3.7,3.3S918.1,107.6,918.1,105.7Zm.5,33.3V112.9h6.5V139Z"/><path class="d" d="M928.9,126c0-8.1,4.5-13.6,12.9-13.6s13,5.6,13,13.3c0,.5-.1,1-.1,1.6H935.4c.2,5.3,2.7,7.8,6.7,7.8a5.9,5.9,0,0,0,6.1-4.3h6c-1.1,5.3-5.1,8.7-12.1,8.7S928.9,134.2,928.9,126Zm6.5-2.9h12.9c-.6-4.2-2.9-6.2-6.5-6.2S935.9,118.9,935.4,123.1Z"/><path class="d" d="M975.1,139V123c0-3.5-1.2-5.3-4.4-5.3s-5.7,2.5-5.7,6.7V139h-6.5V112.9h6.2v4.3a8.2,8.2,0,0,1,8-4.8c6,0,8.9,3.1,8.9,9.4V139Z"/><path class="d" d="M985.4,126c0-8.6,4.4-13.6,11.4-13.6,4,0,6.6,1.6,8.1,4.5V103h6.5v36h-6.2v-4.5c-1.4,3.1-4,5-8.4,5C989.8,139.5,985.4,134.5,985.4,126Zm19.5,0c0-6-2.7-8.6-6.5-8.6s-6.5,2.6-6.5,8.6,2.6,8.5,6.5,8.5S1004.9,131.9,1004.9,126Z"/><path class="d" d="M1016.1,139V103h6.6v36Z"/><path class="d" d="M1027.8,144.2h2.6c3,0,4.8-1.4,4.8-3.8a8.5,8.5,0,0,0-.5-2.6l-9.3-24.9h6.8l6.8,21,6.7-21h6.9l-9.3,24.9c-3.2,8.5-6.6,11.1-13,11.1h-2.5Z"/><path class="d" d="M1092.2,139V123.6h-17V139h-6.9V103h6.9v14.7h17V103h6.9v36Z"/><path class="d" d="M1103.2,126c0-8.2,4.8-13.6,13.3-13.6s13.2,5.4,13.2,13.6-4.7,13.5-13.2,13.5S1103.2,134.2,1103.2,126Zm20,0c0-5.8-2.4-8.6-6.7-8.6s-6.8,2.8-6.8,8.6,2.5,8.5,6.8,8.5S1123.2,131.7,1123.2,126Z"/><path class="d" d="M1132.5,130.8h6.3c.3,2.7,1.5,4.4,5.6,4.4s5.2-1.6,5.2-3.5-1.4-2.7-3.6-3.1l-4.5-.6c-6-.9-8.3-2.9-8.3-7.3s3.2-8.3,11.1-8.3,11.1,3.6,11.1,8.4h-6.3c-.2-2.2-1-4.1-4.9-4.1s-4.5,1.4-4.5,3.5,1,2.4,2.9,2.7l4.4.6c5.8.8,9.2,2.8,9.2,7.8s-3.5,8.2-11.9,8.2S1132.5,135.9,1132.5,130.8Z"/><path class="d" d="M1161.6,131.7V117.6h-4.1v-4.7h4.1v-7.8h6.5v7.8h5.7v4.7h-5.7v14.3c0,2,.9,2.7,3,2.7h2.7V139l-4.3.2C1163.6,139.2,1161.6,137.4,1161.6,131.7Z"/><path class="d" d="M1177,105.7c0-2,1.3-3.4,3.8-3.4s3.7,1.4,3.7,3.4-1.3,3.3-3.7,3.3S1177,107.6,1177,105.7Zm.5,33.3V112.9h6.5V139Z"/><path class="d" d="M1205.4,139V123c0-3.5-1.3-5.3-4.5-5.3s-5.6,2.5-5.6,6.7V139h-6.6V112.9h6.3v4.3a8.1,8.1,0,0,1,7.9-4.8c6,0,9,3.1,9,9.4V139Z"/><path class="d" d="M1215.6,125.2c0-7.7,4.5-12.8,11.5-12.8,4.3,0,6.9,1.9,8.3,5v-4.5h6.2v24c0,8.1-4.3,12.5-12.9,12.5s-11.7-3.7-11.7-9.3h6.1c.4,3.2,2.4,5,5.9,5s6.1-2.1,6.1-6.4v-5.2c-1.5,2.9-4.1,4.5-8,4.5C1220.1,138,1215.6,132.9,1215.6,125.2Zm19.5,0c0-5.4-2.6-8.1-6.5-8.1s-6.5,2.7-6.5,8.1,2.7,8.1,6.5,8.1S1235.1,130.6,1235.1,125.2Z"/><path class="d" d="M1288.8,139l-6.7-26.4-6.6,26.4h-8.3L1257,103h7.4l7.1,27.7,7.1-27.7h7.1l7,27.7,7.2-27.7h7.4L1297,139Z"/><path class="d" d="M1309.5,105.7c0-2,1.4-3.4,3.8-3.4s3.7,1.4,3.7,3.4-1.3,3.3-3.7,3.3S1309.5,107.6,1309.5,105.7Zm.5,33.3V112.9h6.5V139Z"/><path class="d" d="M1323.5,131.7V117.6h-4.1v-4.7h4.1v-7.8h6.5v7.8h5.7v4.7H1330v14.3c0,2,.9,2.7,2.9,2.7h2.8V139l-4.3.2C1325.5,139.2,1323.5,137.4,1323.5,131.7Z"/><path class="d" d="M1356,139V123c0-3.5-1.3-5.3-4.5-5.3s-5.6,2.5-5.6,6.7V139h-6.5V103h6.5v13.7c1.4-2.6,3.7-4.3,7.7-4.3,5.9,0,8.9,3.1,8.9,9.4V139Z"/><path class="d" d="M1378.9,126c0-8.2,4.7-13.6,13-13.6s12.3,5.3,12.3,10.4h-6.1c-.4-3.1-2.2-5.4-6.2-5.4s-6.5,2.8-6.5,8.6,2.4,8.5,6.5,8.5,5.7-1.7,6.2-5.6h6.1c0,5.6-4.1,10.6-12.3,10.6S1378.9,134.2,1378.9,126Z"/><path class="d" d="M1423.6,126h-8.9v13h-6.8V103h15.7c7.9,0,12.9,4.1,12.9,11.5S1431.5,126,1423.6,126Zm-1-17.8h-7.9v12.6h7.9c4.5,0,7-2,7-6.3S1427.1,108.2,1422.6,108.2Z"/><path class="d" d="M1437.7,131.6c0-4,2.4-7.2,8.9-7.7l5.4-.4c2.6-.3,3.3-1,3.3-2.3s-1.5-4.1-4.8-4.1-4.7,1.3-4.9,4.1h-6.5c0-5.3,3.4-8.8,11.4-8.8s11.3,3.5,11.3,8.8v11.1c0,3.6.4,5.8.9,6.7h-6a6.3,6.3,0,0,1-1.1-4.1c-1.4,3-4.1,4.6-8.5,4.6C1441,139.5,1437.7,136.4,1437.7,131.6Zm17.6-3.4v-1.8c-.4.5-1.6.8-3.4,1l-3.1.2c-3.3.3-4.6,1.7-4.6,3.6s1.5,3.9,4.8,3.9S1455.3,132,1455.3,128.2Z"/><path class="d" d="M1483.2,139V123c0-3.5-1.2-5.3-4.4-5.3s-5.7,2.5-5.7,6.7V139h-6.5V112.9h6.2v4.3c1.4-2.8,3.7-4.8,8-4.8,6,0,8.9,3.1,8.9,9.4V139Z"/><path class="d" d="M1493.5,126c0-8.1,4.5-13.6,12.9-13.6s13,5.6,13,13.3c0,.5-.1,1-.1,1.6H1500c.2,5.3,2.7,7.8,6.7,7.8s5.4-1.7,6.1-4.3h6c-1.1,5.3-5.1,8.7-12.1,8.7S1493.5,134.2,1493.5,126Zm6.5-2.9h12.9c-.6-4.2-2.9-6.2-6.5-6.2S1500.5,118.9,1500,123.1Z"/><path class="d" d="M1523.1,139V103h6.5v36Z"/><path class="d" d="M1542.5,128.1v-1.6c0-9.4,8.7-7.9,8.7-13.8,0-3.1-2.4-4.9-5.5-4.9s-5.5,2.1-6,6.3h-6.3c0-7.3,4.4-11.6,12.3-11.6s12.4,4.3,12.4,10.3c0,8.2-10.1,7.6-10.1,13.7v1.6Zm-1.2,7.8a3.6,3.6,0,0,1,3.9-3.6c2.6,0,3.9,1.6,3.9,3.6s-1.3,3.5-3.9,3.5S1541.3,137.8,1541.3,135.9Z"/><rect class="e" x="891.4" y="268.6" width="292.6" height="71.49" rx="11.8"/><path class="c" d="M927.3,305.5c0-9.3,5.2-15.7,14.8-15.7s13.4,5.1,13.4,10.6h-4.2c-.7-3.7-3.8-6.7-9.2-6.7S932,297.9,932,305.5s3.5,11.7,10.1,11.7,8.9-3.6,9.1-9.4h-8.3v-3.3h12.9v16.2h-3.6l-.4-5.7c-1.2,3.8-4.4,6.1-10.1,6.1C932.3,321.1,927.3,314.7,927.3,305.5Z"/><path class="c" d="M959.1,309.7c0-6.8,3.6-11.5,10.6-11.5s10.7,4.7,10.7,11.1c0,.4-.1.8-.1,1.2H963.6c.1,5.2,2.6,7.5,6.4,7.5s5.1-1.6,5.7-4.1h4.2c-1,4.4-4.2,7.2-9.9,7.2S959.1,316.7,959.1,309.7Zm4.5-2.2h12.2c-.4-4.1-2.7-6.2-6.1-6.2S964.1,303.4,963.6,307.5Z"/><path class="c" d="M985.2,315V301.9h-3.5v-3.3h3.5V292h4.6v6.6h5.1v3.3h-5.1v13.3c0,1.9.7,2.5,2.7,2.5h2.4v3.1l-3.4.2C986.9,320.9,985.2,319.5,985.2,315Z"/><path class="c" d="M1008,311h4.5c.5,4.4,2.4,6.5,7.7,6.5s7.4-2.2,7.4-5.5-1.3-3.8-6.1-4.5l-4.2-.7c-6.3-.9-8.6-3.1-8.6-7.7s3.7-9.3,11.4-9.3,11.5,3.7,11.5,9.7h-4.5c-.5-4-2.5-6.1-7.1-6.1s-6.5,2.1-6.5,5.4,1,3.5,5.3,4.1l4.2.7c6.1.8,9.3,3.2,9.3,8.1s-3.9,9.4-12.2,9.4S1008,317.5,1008,311Z"/><path class="c" d="M1037.6,315V301.9H1034v-3.3h3.6V292h4.6v6.6h5.1v3.3h-5.1v13.3c0,1.9.7,2.5,2.7,2.5h2.4v3.1l-3.4.2C1039.3,320.9,1037.6,319.5,1037.6,315Z"/><path class="c" d="M1049.7,314.5c0-3.3,2-6,7.4-6.4l4.3-.4c2.6-.2,3.4-.8,3.4-2.2s-1.5-4.1-4.7-4.1-4.6,1.3-4.8,4.1h-4.5c0-4.5,2.8-7.3,9.3-7.3s9.2,2.8,9.2,7.3V315c0,3,.3,5,.7,5.7h-4.1a6,6,0,0,1-.9-3.8c-1.2,2.8-3.6,4.2-7.4,4.2S1049.7,318.6,1049.7,314.5Zm15.1-3.2v-1.9c-.5.6-1.7,1-3.4,1.1l-2.8.3c-3.2.2-4.4,1.6-4.4,3.4s1.4,3.8,4.6,3.8S1064.8,315,1064.8,311.3Z"/><path class="c" d="M1073.6,320.7V298.6h4.3v5.1c1.2-3.9,3.1-5.3,6.3-5.3l2.1.2v4h-2.2c-3.6,0-6,2.8-6,7.7v10.5Z"/><path class="c" d="M1091.1,315V301.9h-3.6v-3.3h3.6V292h4.6v6.6h5.1v3.3h-5.1v13.3c0,1.9.7,2.5,2.7,2.5h2.4v3.1l-3.4.2C1092.8,320.9,1091.1,319.5,1091.1,315Z"/><path class="c" d="M1102,309.7c0-6.8,3.7-11.5,10.7-11.5s10.6,4.7,10.6,11.1v1.2h-16.7c.1,5.2,2.6,7.5,6.3,7.5s5.1-1.6,5.8-4.1h4.2c-1,4.4-4.2,7.2-10,7.2S1102,316.7,1102,309.7Zm4.6-2.2h12.2c-.5-4.1-2.7-6.2-6.1-6.2S1107,303.4,1106.6,307.5Z"/><path class="c" d="M1125.9,309.7c0-7.3,3.7-11.5,9.6-11.5,3.6,0,6,1.5,7.3,4.2V290.2h4.5v30.5H1143v-4.1c-1.3,2.9-3.6,4.5-7.5,4.5C1129.6,321.1,1125.9,316.9,1125.9,309.7Zm16.9,0c0-5.6-2.6-8-6.2-8s-6.2,2.4-6.2,8,2.5,8,6.2,8S1142.8,315.2,1142.8,309.7Z"/><polygon class="e" points="112.4 149.5 450 92.8 438.7 169.9 97.7 231 112.4 149.5"/><polygon class="d" points="79.7 224.5 417.3 167.8 406 244.9 65 306 79.7 224.5"/><path class="c" d="M191.2,154.9c.4,1.4.7,2.8,1,4.3s.6,3,.8,4.3.4,2.8.7,4.6.4,3.2.6,4.4.3,2.6.6,4.5.4,3.2.5,4.2.3,2,.7,4.7.8,5.2,1,7.1a39.3,39.3,0,0,1,.1,4.7l-1.5-.2-.4.6-.3-.7-.9.4-.4-1.1h-.2v-.5l-.4.5c-.6,0-1.3-.8-2-2.3a32.2,32.2,0,0,1-1.6-4.2,37.4,37.4,0,0,1-1.2-4.5c-.3-1.5-.7-3.4-1.1-5.7s-.7-3.9-.8-4.6h-.2c-.3,1.8-1,3-2.4,3.6a5.1,5.1,0,0,1-4.3-.4c-3.8-1.7-7.4-4.8-10.7-9.4h-.3l1.8,15.4,1.9,10.3-.7-.3-.4.5v-.5l-.8.7-.2-1.2c-.7.7-1.1.6-1.3-.5s-.1-.4-.1-.6a1.1,1.1,0,0,1-.1-.5h-.2v1.9h-.3l-.7-.3-2.4-2.1-1.3-6-2.3-17h.3l.2,1.4h.2l-.8-3.1h.2l.2.6h.2l-.5-8.7h.3l1.6,15.9,2.4,14.4h.3l-1.6-9.5-1.7-15-.5-6.5,1.3.4.6-.4,4.3,3.9,9.7,10.1h.2c.5-1.6,1.2-4.1,2-7.5s1.6-5.9,2.2-7.7,2.2-5,3.7-6a1.7,1.7,0,0,1,1.2-.5h1.5a2.7,2.7,0,0,1,1.5,1.2A6.7,6.7,0,0,1,191.2,154.9Zm-9.5,14.8a60,60,0,0,0,2.7-12.8l-1.6,6.8-3,10.8.8-1a8.4,8.4,0,0,0,.4-1.2c.1-.3.2-.8.4-1.4A4.9,4.9,0,0,0,181.7,169.7Zm7.8,11.7-1.8-11a8.8,8.8,0,0,0-.2,1.6c.1.6.2,1.3.4,2.1a11.6,11.6,0,0,1,.3,1.5c1,6.1,1.5,9.4,1.7,10.1a13.6,13.6,0,0,0,.1,1.5,16.5,16.5,0,0,0,.5,2.1,1.8,1.8,0,0,0,.7,1.1Z"/><path class="c" d="M224.6,187.7l.4,1.2.4,1c.1.3.1.7.2,1.2l-2.1.2-1.7-1.5-1.8-1.4-1.5-1.5a8.2,8.2,0,0,1-1.2-2c-.6-1.5-1.5-3.9-2.6-7.3a5.6,5.6,0,0,1-.2-1,5,5,0,0,0-.4-1.3c-.1-.3-.2-.6-.4-.7a.9.9,0,0,0-.9-.2l-1,.3-1.2.6-.8.3-1.5.6-2,.7a3.2,3.2,0,0,0-1.3.8c-.8.8-1.1,2.9-1,6.4l-.8-.3-.3.5-.8-.6-.8-.6-.8-.6-.6-.8a6.1,6.1,0,0,1-.5-1.2,7.8,7.8,0,0,1-.2-1.6,8.2,8.2,0,0,1-.1-1.4v-3c.1-3.8.2-7.1.5-9.9a36.6,36.6,0,0,1,1.8-8.1c1.6-4.9,3.7-7.6,6.2-8.1a6.8,6.8,0,0,1,5.7,1.3,13.2,13.2,0,0,1,4,5.4,34,34,0,0,1,2.6,7.8c.6,2.9,1.2,6.1,1.6,9.7s.9,6.2,1.3,8.1S224,185.7,224.6,187.7Zm-24.1-9.6v.1Zm.1,1.3-.2-.9v1Zm-.1,1.6h.2l-.2-1.3Zm1.3-.2v-4.3l-.2,4.3Zm.4-7.6.4-5.8-.7,5.8Zm.6-6.6v-.8l-.2.8Zm.7,13.5v0Zm0-1.4v0Zm.6-6.5h.2l3-11.8a10.4,10.4,0,0,0-1.8,3.5,25.1,25.1,0,0,0-1,4.4C204.3,169.6,204.2,170.9,204.1,172.2Zm8.5-2.2-1.5-13.3c-1.6,1.5-2.8,3.8-3.9,6.8a29.6,29.6,0,0,0-1.6,8.2l1.7-.6,1.8-.6,1.6-.4Zm-2.1-21.2v-.2h-.6l-.2.2Z"/><path class="c" d="M242.6,162.4v-.2l.3-.8-.6.5v-.6a.3.3,0,0,0-.1-.2l-.2-.2h-.3a18.3,18.3,0,0,1,1.2-5.5,34.7,34.7,0,0,0,1.4-4.8,3.5,3.5,0,0,0,.1-.7,3.1,3.1,0,0,0,.2-.8c0-.3.1-.5.1-.9a1.9,1.9,0,0,0-.1-.8,1.4,1.4,0,0,0-.2-.6,2.1,2.1,0,0,0-1.6-.5,6.5,6.5,0,0,0-2.1.7l-2,1.1-1.4.9a20.4,20.4,0,0,0-5.6,7,14.3,14.3,0,0,0-1.4,8.2,2.3,2.3,0,0,0,1.9,1.7,18.6,18.6,0,0,0,4.2.1h3.3a9.5,9.5,0,0,1,5,2.9,12.2,12.2,0,0,1,2.7,5.3,6.1,6.1,0,0,1-1.1,5.1,14.3,14.3,0,0,1-4.6,4.2,16,16,0,0,1-6.1,1.8A8.4,8.4,0,0,1,230,184a12.8,12.8,0,0,1-2.6-3,3.9,3.9,0,0,1-.8-3.1,3.4,3.4,0,0,1,2.7-2.2A2.3,2.3,0,0,1,232,177l.7-.3-.6,1.9.8-.7-.2,1.5a18.6,18.6,0,0,0,4.1-1.7,14.9,14.9,0,0,0,3.5-2.7,8.9,8.9,0,0,0,2.3-3.4,21.2,21.2,0,0,0-3.7.4,23.9,23.9,0,0,1-4.4.4,6,6,0,0,1-3.5-1,13.3,13.3,0,0,1-4.3-4.2,14.7,14.7,0,0,1-2.1-5.6,15.7,15.7,0,0,1,0-6.1,17.6,17.6,0,0,1,1.9-6,16.6,16.6,0,0,1,3.9-5,16.4,16.4,0,0,1,5.6-3.2,10.8,10.8,0,0,1,7.3.1A7.2,7.2,0,0,1,248,146a16.1,16.1,0,0,1,.1,9,15.6,15.6,0,0,1-4.3,7.9l-.4-.5-.5.5Zm-15.5-9.2.8-1.9-.9,2Zm1.5,1.1,2.7-5.1a10.9,10.9,0,0,0-2.9,5.2Z"/><path class="c" d="M270.8,157h0l.3-.9-.5.5v-.3a.4.4,0,0,1-.1-.3v-.4h-.4a18.9,18.9,0,0,1,1.2-5.5,41.2,41.2,0,0,0,1.5-4.8,1.8,1.8,0,0,1,.1-.6,6.4,6.4,0,0,1,.2-.9v-1.6a1.6,1.6,0,0,0-.3-.6,1.5,1.5,0,0,0-1.5-.5,4.9,4.9,0,0,0-2.2.6l-1.9,1.1-1.4.9a20.2,20.2,0,0,0-5.6,7,13.7,13.7,0,0,0-1.4,8.2c.1.9.7,1.5,1.9,1.7a17.3,17.3,0,0,0,4.1.2h3.3a8.4,8.4,0,0,1,5,3,12,12,0,0,1,2.8,5.2,6.4,6.4,0,0,1-1.2,5.2,12.7,12.7,0,0,1-4.5,4.1,13.5,13.5,0,0,1-6.2,1.8,7.6,7.6,0,0,1-5.5-1.4,15,15,0,0,1-2.7-2.9,4,4,0,0,1-.7-3.2,3.2,3.2,0,0,1,2.6-2.1,2.2,2.2,0,0,1,2.8,1.3l.6-.3-.5,1.8.7-.7v1.6a24.3,24.3,0,0,0,4-1.8,15,15,0,0,0,3.6-2.6,12.4,12.4,0,0,0,2.3-3.5,22.4,22.4,0,0,0-3.7.5,23.8,23.8,0,0,1-4.4.3,6.8,6.8,0,0,1-3.5-.9,12.6,12.6,0,0,1-4.3-4.3,14.3,14.3,0,0,1-2.2-5.6,20.8,20.8,0,0,1,0-6.1,19.4,19.4,0,0,1,1.9-5.9,15.4,15.4,0,0,1,3.9-5,15.9,15.9,0,0,1,5.6-3.3,11.1,11.1,0,0,1,7.4.2,7.2,7.2,0,0,1,4.7,4.6,17.7,17.7,0,0,1,.1,8.9,16.5,16.5,0,0,1-4.4,8l-.3-.5-.5.4Zm-15.4-9.1.7-1.9-.9,1.9Zm1.5,1.1,2.6-5.2a10.5,10.5,0,0,0-2.8,5.2Z"/><path class="c" d="M291.3,137.4a1.4,1.4,0,0,0,.5.9l.7.9a1.3,1.3,0,0,1,.5.9,1.3,1.3,0,0,1-.2,1.2,3,3,0,0,1-1.3,1.1,16,16,0,0,0-1.9,1.1,2.1,2.1,0,0,0-1,1.2,9,9,0,0,0,.4,2.5,17.3,17.3,0,0,1,.6,2.6c.7,3.8,1.3,7.5,1.7,11v.5c0,.3.1.5.1.7a1.4,1.4,0,0,0,.2.6l.3.5,1.1.2h.8a3.3,3.3,0,0,1,2.1,1.1,1.9,1.9,0,0,1,.2,1.9c.4-.1.7,0,.8.2s.1.5-.2.8l-1.3.8-1.2.5-1.7,1.2-2.3,1.5a6,6,0,0,1-1.9.8,3.4,3.4,0,0,1-2.4-.3c-.7-.4-1-.9-.8-1.5l-.9.4-.7-.6.7-1.4h-.9a.5.5,0,0,1-.5-.3c-.2-.1-.2-.4,0-.7a5.8,5.8,0,0,1,1.4-1.4,3.3,3.3,0,0,0,1.3-1.6.6.6,0,0,0,.1-.4.6.6,0,0,1-.1-.4c-.1-.1-.1-.3-.2-.4l-.2-.4v-.4a20,20,0,0,1-.4-3.4,123.4,123.4,0,0,1-.5-13.1,4.3,4.3,0,0,1-2.5.5c-.9,0-1.2-.5-1-1.2s-1.6-.3-1.2-1.3a3.1,3.1,0,0,1,1.3-1.7l1.4-1,1.7-1.2,1.5-1,1.9-1,1.7-.7,1.2-.2Zm-5.4,23.7-.2-10.3c-.7,2-.6,5.5.2,10.3Z"/><path class="c" d="M318.3,137c.3.1.6.2.7.4a.9.9,0,0,1,.3.6c.1.3.1.6.2.9s.2,1.5.4,2.7.4,2.2.5,2.8c1.5,11.1.4,18.8-3.2,23.3a7.6,7.6,0,0,1-3.4,2.4,6.2,6.2,0,0,1-3.8-.2,11.7,11.7,0,0,1-3.4-2,15.8,15.8,0,0,1-3-2.8,28.5,28.5,0,0,1-4.9-8.8,50.7,50.7,0,0,1-2.1-10.7c-.1-.5-.1-1.1-.3-2s-.2-1.5-.3-2-.1-1.2-.1-2a14.8,14.8,0,0,1,.1-2.1l1.5-.2,1.7,2,.3-.5h.2l7.3,22.9a17.7,17.7,0,0,0,3.6-7.7,50.1,50.1,0,0,0,.7-9.9c0-.3-.1-1-.1-2.1v-4.7l.3-2.5a11.7,11.7,0,0,1,.6-2l1.9.6.2-.7a5.7,5.7,0,0,1,3,2.5l.6-.5Zm-4.7,12.1-.9,6h.3Zm.2-14.1-.2.7h.2Zm-.1,25.8h.2a19.6,19.6,0,0,0,2-9.5Zm2.1,5.3a8.9,8.9,0,0,0,2-4,16.6,16.6,0,0,0,.7-4.9Zm.4-5.6a29.3,29.3,0,0,0,1.3-9.1l-1.5,9.2Z"/><path class="c" d="M346.1,128.4l-6.2,2.3-6.4,2.3,1.2,9.4c4.7-1.6,8.6-2.2,11.8-1.7v.3l-.2.9.5.2-1.2.8v.2c.5,0,.4.2-.2.4s-1,1.8-4.2,2.9l-5.9,2.1.9,8,.6-.3c3.3-1.7,7.4-3.5,12.4-5.5.1.3.3.4.5.6l-3.7,1.8v.2l4.2-1.7h1.2l-3.6,1.8v.2l4.4-1.8c.4.2.3.8-.1,1.9l-.6.8-.9.6-1,.5-1.1.4-.9.5a15.9,15.9,0,0,0-2.7,1.7,34.8,34.8,0,0,1-3.6,2.2l-4.5,1.9a4.4,4.4,0,0,1-1.7,1.9,5.1,5.1,0,0,1-2.2.9c-.7.1-1.1-.1-1.3-.5h-.3c-.3.7-1.2.3-2.7-1s-2.2-2.3-2.2-2.8.1-.2.3-.2l-.7-.5.4-.8h1.4a1.7,1.7,0,0,1-.3-1c.1-.3.3-.5.8-.5h.2q.3-2.9.3-3.3c0-1.3,0-2.5-.1-3.8a7.8,7.8,0,0,1-3.4,1l-.5-1.7.8-.5a.8.8,0,0,1,0-.7c0-.1.2-.3.5-.4s.6-2.4,2.2-3.4c0-.4-.2-1.3-.3-2.6s-.4-2.6-.6-4.2-.4-2.9-.5-4.1a2.9,2.9,0,0,1-2.2-.8,1.1,1.1,0,0,1-1.2-.3l-.9.2-.8-1.4a8.7,8.7,0,0,1,3-1.8c-.1-.1-.1-.2.1-.4l.9-.6,1.3-.5,1.4-.6a25.6,25.6,0,0,1,6.7-2.9,41,41,0,0,1,6.2-1.5l2.4-.3,3.9-.7.9.6-.4,2.3A3.3,3.3,0,0,1,346.1,128.4Zm-12.8,11.2-.3-2.8v2.8Zm.2,3.2-.3-2.3.2,2.4c-.1,0,0-.1,0-.1Zm1.5,14.3-.9-8.2h-.2l.9,8.2Zm3.2-30.7-4,1.3h.3Zm7.2,27.4q-2.8.3-9,3.6v.2Zm-4.6-28.5-2.1.7v.2Z"/><path class="c" d="M148.6,248.6v-.2l.3-.8-.5.4c-.1,0-.1-.1-.1-.3V247h-.3a15.8,15.8,0,0,1,1.3-5.4c.9-2.4,1.5-4,1.7-4.7s0-.4.1-.7a6.4,6.4,0,0,1,.2-.9c0-.2.1-.5.1-.8v-.9l-.3-.6a1.7,1.7,0,0,0-1.5-.5l-2.2.6-2,1-1.4.9a18.3,18.3,0,0,0-5.8,6.8,13.6,13.6,0,0,0-1.7,8.1,2.1,2.1,0,0,0,1.8,1.8,17.2,17.2,0,0,0,4.2.3h3.2a9,9,0,0,1,4.9,3.2,12,12,0,0,1,2.6,5.3,6.2,6.2,0,0,1-1.3,5.1,13.1,13.1,0,0,1-4.7,4,14.6,14.6,0,0,1-6.2,1.6,8,8,0,0,1-5.5-1.6,15.8,15.8,0,0,1-2.6-3.1,3.7,3.7,0,0,1-.6-3.1,3.3,3.3,0,0,1,2.7-2.1,2.2,2.2,0,0,1,2.7,1.4l.7-.3-.7,1.8.8-.6-.2,1.5a22.4,22.4,0,0,0,6.3-2.8,10.2,10.2,0,0,0,3.9-4.7,20.3,20.3,0,0,0-3.7.4,22.6,22.6,0,0,1-4.4.2,6.1,6.1,0,0,1-3.5-1.1,12.4,12.4,0,0,1-4.1-4.4,15,15,0,0,1-2-5.7,18,18,0,0,1,.2-6.1,19.8,19.8,0,0,1,2.1-5.9,16.9,16.9,0,0,1,4.1-4.8,15.9,15.9,0,0,1,5.7-3.1,11.1,11.1,0,0,1,7.4.4,7.4,7.4,0,0,1,4.5,4.8,18.1,18.1,0,0,1-4.8,16.8l-.3-.6-.6.5Zm-15.1-9.8.8-1.8-1,1.9Zm1.4,1.2,2.9-5a11,11,0,0,0-3.1,5Z"/><path class="c" d="M183.3,263.4a6.1,6.1,0,0,0,.3,1.1l.4,1.1a4.1,4.1,0,0,1,.1,1.2H182a11.7,11.7,0,0,0-1.6-1.5l-1.7-1.5a10.6,10.6,0,0,1-1.5-1.5,11.3,11.3,0,0,1-1.2-2.1c-.5-1.5-1.3-4-2.3-7.4a8.4,8.4,0,0,0-.2-1,2.4,2.4,0,0,0-.3-1.2c-.1-.4-.2-.7-.4-.8a1,1,0,0,0-.8-.3l-1.1.4-1.2.5-.8.3-1.5.5-2,.6a3.7,3.7,0,0,0-1.4.8q-1.2,1.1-1.2,6.3l-.8-.2-.3.4-.8-.6-.8-.6a4.6,4.6,0,0,1-.7-.7,2.4,2.4,0,0,1-.6-.8,6.1,6.1,0,0,1-.5-1.2c-.1-.5-.1-1-.2-1.6v-1.5a11.8,11.8,0,0,1,.1-1.6v-1.3q.3-5.7.9-9.9a37.5,37.5,0,0,1,2-8c1.9-4.8,4-7.5,6.5-7.9a6.5,6.5,0,0,1,5.7,1.5,13.2,13.2,0,0,1,3.8,5.5,36.5,36.5,0,0,1,2.3,7.9c.5,2.9,1,6.2,1.3,9.7s.7,6.3,1,8.2S182.7,261.3,183.3,263.4ZM159.5,253v0Zm.1,1.3-.2-.9v.9Zm-.2,1.6h.2l-.2-1.3Zm1.3-.2.2-4.3-.3,4.3Zm.6-7.7.7-5.7-.9,5.8Zm.9-6.5v-.8l-.2.8Zm.2,13.5v0Zm.1-1.3v-.1Zm.8-6.6h.2l3.4-11.7a13.3,13.3,0,0,0-1.9,3.4c-.5,1.5-.9,3-1.2,4.3S163.4,245.9,163.3,247.1Zm8.6-1.8-1.1-13.4a18.3,18.3,0,0,0-4,6.7,27.3,27.3,0,0,0-2,8.1l1.7-.5,1.9-.6,1.6-.3A6,6,0,0,1,171.9,245.3ZM170.6,224v-.2H170l-.2.2Z"/><path class="c" d="M205.2,227.3c.3.1.6.2.7.4a.9.9,0,0,1,.3.6c0,.3.1.6.1.9l.4,2.8c.2,1.2.3,2.2.4,2.8,1,11-.3,18.8-4.1,23.1a6.9,6.9,0,0,1-3.5,2.3,5.9,5.9,0,0,1-3.7-.3,14.8,14.8,0,0,1-3.4-2.1,27.6,27.6,0,0,1-2.9-3,28,28,0,0,1-4.6-8.9,53.2,53.2,0,0,1-1.7-10.8c0-.5-.1-1.1-.2-2a18.3,18.3,0,0,1-.2-2.1c0-.5-.1-1.1-.1-1.9a14.9,14.9,0,0,1,.2-2.1h1.5l1.6,2,.4-.5h.2l6.5,23.1a18.8,18.8,0,0,0,3.8-7.6,48.7,48.7,0,0,0,1-9.9V232c0-1.1.1-2,.1-2.5s.1-1.3.1-2.2a15,15,0,0,1,.4-2.4,11.8,11.8,0,0,1,.7-2l1.8.7.2-.7a5.7,5.7,0,0,1,3,2.5l.6-.5ZM200,239.2l-1,6h.2Zm-.2,11.8h.2a19.7,19.7,0,0,0,2.3-9.5Zm.9-25.9v.7h.2Zm1,31.1a8.6,8.6,0,0,0,2.1-3.8,22.1,22.1,0,0,0,.9-4.9Zm.6-5.5a30.1,30.1,0,0,0,1.6-9.1l-1.9,9.2Z"/><path class="c" d="M221.6,220.1a3.1,3.1,0,0,0,.4.9l.8.9a1.9,1.9,0,0,1,.4.9,1.7,1.7,0,0,1-.2,1.2,4.2,4.2,0,0,1-1.4,1.1l-2,1q-.9.6-.9,1.2c-.2.2,0,1.1.3,2.5s.5,2.3.5,2.6c.6,3.9,1,7.6,1.3,11v1.3c.1.1.1.3.2.5a.7.7,0,0,0,.3.6l1,.2h.9a3,3,0,0,1,2,1.1,1.9,1.9,0,0,1,.2,1.9,1,1,0,0,1,.8.3c.1.2,0,.4-.2.7l-1.4.8-1.2.4-1.8,1.2-2.3,1.4a10.4,10.4,0,0,1-2,.8,3.7,3.7,0,0,1-2.3-.5c-.7-.4-1-.9-.8-1.5l-.9.4-.7-.7.8-1.3h-.9l-.6-.3c-.1-.2,0-.4.1-.7a5.2,5.2,0,0,1,1.5-1.4,4.8,4.8,0,0,0,1.4-1.6v-.4a.8.8,0,0,0-.1-.4c0-.1-.1-.2-.1-.4l-.2-.4v-.3a28.9,28.9,0,0,1-.3-3.5c-.2-3.5-.2-7.9,0-13.1a4.3,4.3,0,0,1-2.5.4c-.9,0-1.3-.5-1-1.3s-1.6-.3-1.2-1.3a3.6,3.6,0,0,1,1.4-1.6l1.4-1,1.8-1.1,1.5-.9,1.9-1,1.7-.6h2.5Zm-6.2,23.4V233.3c-.8,2-.8,5.4-.2,10.3Z"/><path class="c" d="M253.8,220.8c5.1,12.5,5.4,21.5.7,27a5.5,5.5,0,0,1-5.7,2,9.9,9.9,0,0,1-3.1-1.2,15.8,15.8,0,0,1-5.5-5.4,19.1,19.1,0,0,1-3-7.5h-.5a43.6,43.6,0,0,1-1.5,16.3l-.6,1.7a8.5,8.5,0,0,1-.8,1.7,1.6,1.6,0,0,1-1.2,1q-.7.2-1.5-.9a1.6,1.6,0,0,1-1.2-.4,3.3,3.3,0,0,1-.5-1.2,6.1,6.1,0,0,1-.2-1.5c.1-.6.1-1.2.2-1.8s.3-1.3.4-1.8a10.5,10.5,0,0,1,.4-1.7,9.6,9.6,0,0,0,.2-1.2,104.3,104.3,0,0,0,.1-12.9c-.3-5.6-.4-9.1-.3-10.4a15.3,15.3,0,0,0-.1-1.8,19.3,19.3,0,0,1-.1-2.3,15,15,0,0,1,.2-2,3.8,3.8,0,0,1,.6-1.7l.6-.4.9-.3.6-.2a7.5,7.5,0,0,0,1.7,1,3.7,3.7,0,0,1,1.6,1.2,8,8,0,0,1,1.5,2.1c.4.8.8,1.6,1.2,2.6s.7,1.8.9,2.5.4,1.6.8,2.8a20.6,20.6,0,0,0,.7,2.6c.4,1.3,1.1,3.4,2.1,6.2s1.7,4.8,2.1,6.3a12.1,12.1,0,0,0,2.3-5,21,21,0,0,0,.3-6.2c-.3-2.3-.6-4.2-.9-5.9s-.9-3.6-1.5-5.6c-.2-.5-.4-1.2-.8-2.2a16.1,16.1,0,0,1-.9-2.6,9.8,9.8,0,0,1-.5-2.2l1,.6v-.5l.7.4.2-.7h.4a7.1,7.1,0,0,0,2,1,4.1,4.1,0,0,1,1.9,1.1A28.1,28.1,0,0,1,253.8,220.8Zm-21,23.4-.5-20.4v5.5l.4,14.8ZM234,230l-.3-10.3V230Zm19.6,15.9.5-.7.4-1.2a1.6,1.6,0,0,1,.3-.8,32.2,32.2,0,0,0,1.7-8.9l-1.3,6.1Zm1.7-8.2a17.7,17.7,0,0,0-1.6,6.1A18.4,18.4,0,0,0,255.3,237.7Z"/><path class="c" d="M289,228.4q1.8.2,2.1,2.7l1.6,21-1.7,2.7-1.1-.5-1.3-.6-1-.7-1-.8a8.5,8.5,0,0,1-1.2-3,16.3,16.3,0,0,1-.7-3.6c0-1.1-.1-2.2,0-3.3l-2.7,1-2.3.7-2.8.6a11.3,11.3,0,0,1-2.6.1,6.6,6.6,0,0,1-2.3-.4l-2-.6-2.1-1c-3.7-1.9-6.1-4.1-7.2-6.4a14.2,14.2,0,0,1-1-8.2,32.9,32.9,0,0,1,2.9-9.4,26.2,26.2,0,0,1,5.4-7.3,10.9,10.9,0,0,1,4.6-2.5,11.1,11.1,0,0,1,5.1-.4,15.3,15.3,0,0,1,4.6,1.4,8.9,8.9,0,0,1,3.4,3,7.3,7.3,0,0,1,1.3,4.3h-1.1l-1.2-1.3-1.7-1.8a3.5,3.5,0,0,0-1.5-.9c-1.3-.5-2.7-.1-4.1,1a14.2,14.2,0,0,0-3.3,3.7c-3.3,5.5-4.7,12.1-4.2,19.6a12.7,12.7,0,0,0,6.9-2.1,7.9,7.9,0,0,0,4.1-5,3.8,3.8,0,0,0-.1-1.8,18,18,0,0,1-.2-2.2,2.3,2.3,0,0,1,.8-1.6l.6.9h.2V225h.3l.7,1.4h.3v-1.8l.5-.2.4,1.2,1-.3.5,1.2v1.6h.2l-.2-1.5h.2v-.7h.2v1h.8l.2,1.1h.2v-1.2h.5Zm-26.7,4.3.5-5.9a9.2,9.2,0,0,0-.7,6Zm2.3.3h.3a16.4,16.4,0,0,1,.5-4.8l1.7-5.5a25.8,25.8,0,0,0,1.4-4.7,18.7,18.7,0,0,0-3.3,7.4A17.5,17.5,0,0,0,264.6,233Zm1.7-.6,1.3-7.5c-1.2,1.8-1.7,4.3-1.5,7.6Zm1.7-2.8h.3a12.9,12.9,0,0,1,.8-3.8,42.1,42.1,0,0,1,1.7-4.3l1.5-3.7a17.2,17.2,0,0,0-3.1,5.7A15.1,15.1,0,0,0,268,229.6Z"/><path class="c" d="M311.5,221.9h0l.3-.9-.5.5a.4.4,0,0,1-.1-.3v-.3c0-.1,0-.1-.1-.2v-.2h-.3a16.7,16.7,0,0,1,1.3-5.5c.9-2.3,1.5-3.9,1.7-4.7s0-.3.1-.6a6.4,6.4,0,0,1,.2-.9c0-.2.1-.5.1-.8V207l-.3-.6a1.5,1.5,0,0,0-1.5-.5,4.9,4.9,0,0,0-2.2.6l-2,1-1.4.9a18.3,18.3,0,0,0-5.8,6.8,12.6,12.6,0,0,0-1.7,8.1A1.9,1.9,0,0,0,301,225a16.2,16.2,0,0,0,4.1.4,14.3,14.3,0,0,1,3.3.1,8.8,8.8,0,0,1,4.9,3.1,12.3,12.3,0,0,1,2.6,5.4,6.6,6.6,0,0,1-1.3,5.1,15.2,15.2,0,0,1-4.7,4,14.6,14.6,0,0,1-6.3,1.5,7.4,7.4,0,0,1-5.4-1.6,12.8,12.8,0,0,1-2.6-3,3.9,3.9,0,0,1-.6-3.2,3.4,3.4,0,0,1,2.7-2,2.2,2.2,0,0,1,2.7,1.4l.7-.3-.7,1.8.8-.6-.2,1.5a16.7,16.7,0,0,0,4.1-1.6,15.1,15.1,0,0,0,3.7-2.5,10.6,10.6,0,0,0,2.4-3.4l-3.7.3a22.9,22.9,0,0,1-4.4.2,6.8,6.8,0,0,1-3.5-1,14.3,14.3,0,0,1-4.1-4.4,15,15,0,0,1-2-5.7,18,18,0,0,1,.2-6.1,19.8,19.8,0,0,1,2.1-5.9,16.9,16.9,0,0,1,4.1-4.8,14.5,14.5,0,0,1,5.7-3.1,11.1,11.1,0,0,1,7.4.4,7.4,7.4,0,0,1,4.5,4.8,16.9,16.9,0,0,1-.2,8.9,15.4,15.4,0,0,1-4.7,7.8l-.3-.5-.5.4Zm-15.1-9.7.8-1.8-1,1.9Zm1.4,1.2,2.9-5.1a10.8,10.8,0,0,0-3.1,5.1Z"/><polygon class="ak" points="722.5 301.2 655.5 266.3 699.2 302.7 722.5 301.2"/><polygon class="al" points="693 304.8 665.2 308.9 655.9 266.2 693 304.8"/><polygon class="am" points="688.7 320.9 680.5 306 693 304.8 688.7 320.9"/><polygon class="am" points="700.3 303.1 655.5 266.3 691.4 305.9 686.5 322.2 700.3 303.1"/><polygon class="ak" points="1451.5 206.3 1524.8 187.9 1473.8 213.1 1451.5 206.3"/><polygon class="al" points="1479.4 216.6 1505.5 227.1 1524.5 187.7 1479.4 216.6"/><polygon class="am" points="1479.8 233.2 1491.2 220.7 1479.4 216.6 1479.8 233.2"/><polygon class="am" points="1472.7 213.2 1524.8 187.9 1480.7 218 1481.7 235 1472.7 213.2"/><path class="d" d="M1652.2,103.8l9.7,9.7h-20.2C1641.7,113.2,1652.2,103.8,1652.2,103.8Z"/><path class="d" d="M1652.9,86.8l9.7,9.7h-20.2C1642.4,96.2,1652.9,86.8,1652.9,86.8Z"/><path class="d" d="M1652.2,71.3l9.7,9.7h-20.2C1641.7,80.6,1652.2,71.3,1652.2,71.3Z"/><path class="d" d="M1652.2,54.6l9.7,9.7h-20.2C1641.7,63.9,1652.2,54.6,1652.2,54.6Z"/><path class="e" d="M1167.4,210.2V219a.9.9,0,0,1-.3.7,29.9,29.9,0,0,1-7.2,4.1,13.8,13.8,0,0,1-4.5.8,29.2,29.2,0,0,1-6.6-.2,22.2,22.2,0,0,1-9.9-4.1,20.7,20.7,0,0,1-4.8-5.8,23.7,23.7,0,0,1-2.5-6.4c-.1-.4-.3-.5-.6-.5h-6.8l.5-.7,1.5-2.4c.1-.2.3-.3.7-.3h3.5c.4,0,.5-.1.5-.5v-2.3c0-.5-.2-.6-.6-.6h-6.1c.1-.2.1-.3.2-.4s1.3-2,2-3a.5.5,0,0,1,.5-.3h4c.4,0,.5-.1.6-.5a35.9,35.9,0,0,1,2.4-5.3,20.7,20.7,0,0,1,12.2-9.7,22.2,22.2,0,0,1,17.8,1.9,17,17,0,0,1,4.5,3.5c.2.2.3.3.1.5l-3.8,6.3c0,.1-.1.1-.2.2l-.9-.8a19.8,19.8,0,0,0-6.4-3.8,13.6,13.6,0,0,0-10.1.3,14.8,14.8,0,0,0-6.3,5.3l-1,1.5a3.3,3.3,0,0,1-.3.6h24.8c-.2.3-.2.5-.3.6l-1.6,2.7a.8.8,0,0,1-.7.4h-22.6c-.3-.1-.4.1-.4.4v2.4c0,.4.1.5.5.5h21.9c0,.1-.1.3-.1.4l-1.7,2.8c-.1.3-.3.3-.5.3h-19.3a15.8,15.8,0,0,0,3.5,5.3,14.5,14.5,0,0,0,10.4,3.7c5-.1,9-2.3,12.7-5.5l1.2-1.2Z"/></g></svg>