<svg xmlns="http://www.w3.org/2000/svg" xmlns:xlink="http://www.w3.org/1999/xlink" viewBox="0 0 2064.5 378.8"><defs><style>.a{fill:none;}.b{clip-path:url(#a);}.c{fill:#f1faff;}.d{fill:#094e8e;}.e{fill:#f57f36;}.f{fill:#282625;opacity:0.22;}.g{fill:url(#b);}.h{fill:#fff;}.i{fill:url(#c);}.j{fill:url(#d);}.k{fill:url(#e);}.l{fill:url(#f);}.m{fill:url(#g);}.n{fill:url(#h);}.o{fill:url(#i);}.p{fill:url(#j);}.q{fill:url(#k);}.r{fill:url(#l);}.s{fill:url(#m);}.t{fill:url(#n);}.u{fill:url(#o);}.v{fill:url(#p);}.w{fill:#c7d1ea;}.x{fill:#f7931e;}.y{fill:#db7712;}.z{fill:#ffa245;}.aa{fill:#a55a0f;}.ab{fill:#363636;}.ac{fill:#555759;}.ad{fill:#222223;}.ae{fill:#141718;}.af{fill:#0e1928;}.ag{fill:#f2f2f2;}.ah{fill:#f15a24;}.ai{fill:#e5e5e5;}.aj{fill:#ea2a21;}.ak{fill:#e06927;}.al{fill:#fe7f32;}.am{fill:#cc5e27;}</style><clipPath id="a"><rect class="a" x="-1" y="2.9" width="2066" height="378"/></clipPath><linearGradient id="b" x1="1714.64" y1="282.92" x2="1893.21" y2="282.92" gradientUnits="userSpaceOnUse"><stop offset="0" stop-color="#0060b5"/><stop offset="1" stop-color="#0e507a"/></linearGradient><linearGradient id="c" x1="1733.98" y1="309.35" x2="1760.41" y2="309.35" gradientUnits="userSpaceOnUse"><stop offset="0" stop-color="#022c5a"/><stop offset="1" stop-color="#022c5a"/></linearGradient><linearGradient id="d" x1="1847.43" y1="309.35" x2="1873.86" y2="309.35" xlink:href="#c"/><linearGradient id="e" x1="1714.64" y1="230.07" x2="1893.21" y2="230.07" xlink:href="#b"/><linearGradient id="f" x1="1733.98" y1="256.5" x2="1760.41" y2="256.5" xlink:href="#c"/><linearGradient id="g" x1="1847.43" y1="256.5" x2="1873.86" y2="256.5" xlink:href="#c"/><linearGradient id="h" x1="1714.64" y1="177.78" x2="1893.21" y2="177.78" xlink:href="#b"/><linearGradient id="i" x1="1733.98" y1="204.21" x2="1760.41" y2="204.21" xlink:href="#c"/><linearGradient id="j" x1="1847.43" y1="204.21" x2="1873.86" y2="204.21" xlink:href="#c"/><linearGradient id="k" x1="1714.64" y1="125.5" x2="1893.21" y2="125.5" xlink:href="#b"/><linearGradient id="l" x1="1733.98" y1="151.93" x2="1760.41" y2="151.93" xlink:href="#c"/><linearGradient id="m" x1="1847.43" y1="151.93" x2="1873.86" y2="151.93" xlink:href="#c"/><linearGradient id="n" x1="1714.64" y1="73.22" x2="1893.21" y2="73.22" xlink:href="#b"/><linearGradient id="o" x1="1733.98" y1="99.64" x2="1760.41" y2="99.64" xlink:href="#c"/><linearGradient id="p" x1="1847.43" y1="99.64" x2="1873.86" y2="99.64" xlink:href="#c"/></defs><g class="b"><rect class="c" x="-2" y="1.9" width="2065" height="377"/><path class="d" d="M753.5,211.8h8c.5,4.3,2.6,6.2,7.5,6.2s7-2.1,7-4.8-1.3-3.7-6.6-4.4l-4.2-.6c-7.6-1.1-10.8-3.7-10.8-9.9s4.8-11.3,14.4-11.3,14.4,4.7,14.4,11.8h-7.7c-.5-3.8-2.7-5.7-6.9-5.7s-6.1,1.9-6.1,4.6,1.1,3.3,5.7,4l4.1.5c7.6,1.2,11.8,4,11.8,10.5s-5,11.3-15.3,11.3S753.5,219.5,753.5,211.8Z"/><path class="d" d="M789.8,215.6V202.9h-4v-5.5h4v-7.8h7.6v7.8h5.4v5.5h-5.4v13c0,1.8.9,2.5,2.7,2.5h2.7v5.1l-4.6.3C791.8,223.8,789.8,221.8,789.8,215.6Z"/><path class="d" d="M805.3,216.1c0-4,2.4-7.3,9-7.8l5.6-.5c2.1-.2,2.8-.9,2.8-2s-1.4-3.5-4-3.5-4,1.2-4.3,3.5h-7.7c0-5.4,3.5-8.9,11.9-8.9s11.8,3.5,11.8,8.9v11c0,3.6.3,5.8.8,6.7h-7a5.3,5.3,0,0,1-1.1-3.6c-1.5,2.7-3.9,4.1-8.3,4.1C808.6,224,805.3,220.9,805.3,216.1Zm17.4-3.1v-1.5a4.9,4.9,0,0,1-2.8.8l-2.9.2c-2.8.3-3.9,1.5-3.9,3.1s1.2,3.3,4,3.3S822.7,216.2,822.7,213Z"/><path class="d" d="M834.8,223.5V197.4h7.4v5.7c1.3-4.6,3.5-6,7-6a8.8,8.8,0,0,1,2.4.3v6.8h-2.7c-3.9,0-6.3,2.7-6.3,7.5v11.9Z"/><path class="d" d="M857.1,215.6V202.9h-4v-5.5h4v-7.8h7.6v7.8h5.4v5.5h-5.4v13c0,1.8.8,2.5,2.7,2.5h2.7v5.1l-4.7.3C859.1,223.8,857.1,221.8,857.1,215.6Z"/><path class="d" d="M873.1,190.3c0-2.2,1.6-3.9,4.4-3.9s4.4,1.7,4.4,3.9-1.6,3.9-4.4,3.9S873.1,192.5,873.1,190.3Zm.5,33.2V197.4h7.7v26.1Z"/><path class="d" d="M902.1,223.5V207.8c0-3-1.1-4.6-3.7-4.6s-4.9,2-4.9,5.8v14.5h-7.7V197.4h7.3v4a8.1,8.1,0,0,1,7.7-4.5c6,0,9,3.1,9,9.4v17.2Z"/><path class="d" d="M913.3,209.7c0-7.7,4.5-12.8,11.5-12.8,4.2,0,6.6,1.9,7.9,4.6v-4.1H940v23.8c0,8.1-4.3,12.7-13.3,12.7s-12-3.7-12-9.5H922c.4,3,2,4.5,5.1,4.5s5.2-1.8,5.2-5.5v-4.8c-1.4,2.4-3.8,3.9-7.5,3.9C917.8,222.5,913.3,217.4,913.3,209.7Zm19,0c0-4.9-2.3-7.4-5.6-7.4s-5.7,2.5-5.7,7.4,2.3,7.4,5.7,7.4S932.3,214.6,932.3,209.7Z"/><path class="d" d="M956.1,216.1c0-4,2.3-7.3,9-7.8l5.6-.5c2.1-.2,2.7-.9,2.7-2s-1.3-3.5-4-3.5-4,1.2-4.2,3.5h-7.7c0-5.4,3.5-8.9,11.8-8.9s11.9,3.5,11.9,8.9v11c0,3.6.3,5.8.8,6.7h-7.1a5.3,5.3,0,0,1-1.1-3.6c-1.4,2.7-3.9,4.1-8.2,4.1C959.4,224,956.1,220.9,956.1,216.1Zm17.3-3.1v-1.5a4.2,4.2,0,0,1-2.7.8l-2.9.2c-2.9.3-4,1.5-4,3.1s1.2,3.3,4.1,3.3S973.4,216.2,973.4,213Z"/><path class="d" d="M987.3,215.6V202.9h-3.9v-5.5h3.9v-7.8H995v7.8h5.4v5.5H995v13c0,1.8.8,2.5,2.6,2.5h2.8v5.1l-4.7.3C989.3,223.8,987.3,221.8,987.3,215.6Z"/><path class="d" d="M1015.5,210.5c0-8.2,4.9-13.6,13.6-13.6s13.7,5.4,13.7,13.6-4.9,13.5-13.7,13.5S1015.5,218.6,1015.5,210.5Zm19.6,0c0-5.3-2.2-7.8-6-7.8s-5.9,2.5-5.9,7.8,2.2,7.7,5.9,7.7S1035.1,215.7,1035.1,210.5Z"/><path class="d" d="M1062.5,223.5V207.8c0-3-1.1-4.6-3.7-4.6s-4.9,2-4.9,5.8v14.5h-7.7V197.4h7.3v4a8.2,8.2,0,0,1,7.8-4.5c5.9,0,9,3.1,9,9.4v17.2Z"/><path class="d" d="M1074.7,223.5v-36h7.7v36Z"/><path class="d" d="M1087.2,228h2.9c2.7,0,4.1-1.2,4.1-3.4a9.3,9.3,0,0,0-.7-3.3l-8.6-23.9h8l6,20.2,6-20.2h8l-8.6,23.9c-3.3,9.3-7.1,12.1-14.2,12.1h-2.9Z"/><path class="e" d="M1149.2,229.4V224c-9.2-.5-13.7-4.9-13.7-12.2h8c.4,3.7,2,5.6,5.7,6.1v-9.4l-2-.3c-7.6-1.1-10.8-3.7-10.8-9.9s4.3-10.7,12.8-11.2v-5.4h3.2v5.4c8.5.5,12.8,5,12.8,11.7h-7.7c-.4-3.2-2-5-5.1-5.5V202l1.9.2c7.6,1.2,11.8,4,11.8,10.5s-4.5,10.8-13.7,11.3v5.4Zm0-27.9v-8.3c-3.2.4-4.7,2.2-4.7,4.5S1145.5,200.9,1149.2,201.5Zm3.2,7.4v9c3.8-.4,5.6-2.2,5.6-4.7S1156.8,209.7,1152.4,208.9Z"/><path class="e" d="M1181.2,205.5c0-11.4,4.7-18.5,15.1-18.5s15.2,7.1,15.2,18.5-4.8,18.5-15.2,18.5S1181.2,217,1181.2,205.5Zm22.5,0c0-8.5-2.5-12.2-7.4-12.2s-7.4,3.7-7.4,12.2,2.5,12.3,7.4,12.3S1203.7,214.1,1203.7,205.5Z"/><path class="e" d="M1213.7,219.9c0-2.4,1.6-4.2,4.5-4.2s4.6,1.8,4.6,4.2-1.6,4.1-4.6,4.1S1213.7,222.1,1213.7,219.9Z"/><path class="e" d="M1225.1,207.7c0-13.6,5.3-20.7,14.7-20.7,7.2,0,12,3.1,12.9,9.9h-7.1c-.4-2.3-2.2-4-5.4-4s-6.8,3.4-7.4,10.5a9.8,9.8,0,0,1,8.1-3.5c8.1,0,12.9,4.3,12.9,11.6s-4.9,12.5-14,12.5S1225.1,218.8,1225.1,207.7Zm20.9,4c0-4-2.6-6.4-6.5-6.4s-6.6,2.4-6.6,6.4,2.6,6.5,6.6,6.5A6.1,6.1,0,0,0,1246,211.7Z"/><path class="e" d="M1284.9,203.3c0,13.6-5.4,20.7-14.8,20.7-7.2,0-12-3-12.9-9.9h7.2c.3,2.3,2.1,4.1,5.4,4.1s6.7-3.5,7.3-10.6a9.7,9.7,0,0,1-8,3.6c-8.1,0-12.9-4.4-12.9-11.7s4.8-12.5,14-12.5S1284.9,192.2,1284.9,203.3Zm-21-4c0,4,2.6,6.4,6.6,6.4s6.5-2.4,6.5-6.4-2.6-6.4-6.5-6.4S1263.9,195.3,1263.9,199.3Z"/><path class="e" d="M1286.1,223.5l13.2-36h6.9l-13.2,36Z"/><path class="e" d="M1338.1,223.5V207.6c0-3.1-1.1-4.4-3.2-4.4s-4.3,1.8-4.3,5.5v14.8h-7.3V207.6c0-3.1-1.2-4.4-3.2-4.4s-4.3,1.8-4.3,5.5v14.8h-7.3V197.4h7.3v4c1.3-2.5,3.3-4.5,6.8-4.5s6.2,1.5,7.4,4.6a7.8,7.8,0,0,1,7.3-4.6c5.4,0,8.2,3.1,8.2,9.4v17.2Z"/><path class="e" d="M1348.9,210.5c0-8.2,4.9-13.6,13.7-13.6s13.6,5.4,13.6,13.6-4.9,13.5-13.6,13.5S1348.9,218.6,1348.9,210.5Zm19.6,0c0-5.3-2.2-7.8-5.9-7.8s-6,2.5-6,7.8,2.2,7.7,6,7.7S1368.5,215.7,1368.5,210.5Z"/><ellipse class="f" cx="1814" cy="312.9" rx="135" ry="8"/><rect class="g" x="1714.6" y="262.3" width="178.6" height="41.26" rx="5.5"/><path class="h" d="M1723,270.7v17.4h161.8V270.7Zm16.5,12.2a3.6,3.6,0,1,1,3.5-3.5A3.6,3.6,0,0,1,1739.5,282.9Zm13.8,0a3.6,3.6,0,0,1,0-7.1,3.6,3.6,0,1,1,0,7.1Zm13.9,0a3.6,3.6,0,1,1,3.5-3.5A3.6,3.6,0,0,1,1767.2,282.9Z"/><rect class="i" x="1734" y="303.6" width="26.4" height="11.6"/><rect class="j" x="1847.4" y="303.6" width="26.4" height="11.6"/><rect class="k" x="1714.6" y="209.4" width="178.6" height="41.26" rx="5.5"/><path class="h" d="M1723,217.8v17.4h161.8V217.8Zm16.5,12.3a3.6,3.6,0,1,1,0-7.1,3.6,3.6,0,0,1,0,7.1Zm13.8,0a3.6,3.6,0,1,1,3.6-3.6A3.6,3.6,0,0,1,1753.3,230.1Zm13.9,0a3.6,3.6,0,1,1,0-7.1,3.6,3.6,0,0,1,0,7.1Z"/><rect class="l" x="1734" y="250.7" width="26.4" height="11.6"/><rect class="m" x="1847.4" y="250.7" width="26.4" height="11.6"/><rect class="n" x="1714.6" y="157.2" width="178.6" height="41.26" rx="5.5"/><path class="h" d="M1723,165.5v17.4h161.8V165.5Zm16.5,12.3a3.6,3.6,0,1,1,0-7.1,3.6,3.6,0,0,1,0,7.1Zm13.8,0a3.6,3.6,0,1,1,3.6-3.6A3.6,3.6,0,0,1,1753.3,177.8Zm13.9,0a3.6,3.6,0,1,1,0-7.1,3.6,3.6,0,0,1,0,7.1Z"/><rect class="o" x="1734" y="198.4" width="26.4" height="11.6"/><rect class="p" x="1847.4" y="198.4" width="26.4" height="11.6"/><rect class="q" x="1714.6" y="104.9" width="178.6" height="41.26" rx="5.5"/><path class="h" d="M1723,113.3v17.4h161.8V113.3Zm16.5,12.2a3.6,3.6,0,1,1,3.5-3.5A3.6,3.6,0,0,1,1739.5,125.5Zm13.8,0a3.6,3.6,0,0,1,0-7.1,3.6,3.6,0,1,1,0,7.1Zm13.9,0a3.6,3.6,0,1,1,3.5-3.5A3.6,3.6,0,0,1,1767.2,125.5Z"/><rect class="r" x="1734" y="146.1" width="26.4" height="11.6"/><rect class="s" x="1847.4" y="146.1" width="26.4" height="11.6"/><rect class="t" x="1714.6" y="52.6" width="178.6" height="41.26" rx="5.5"/><path class="h" d="M1723,61V78.4h161.8V61Zm16.5,12.2a3.6,3.6,0,1,1,3.5-3.5A3.6,3.6,0,0,1,1739.5,73.2Zm13.8,0a3.6,3.6,0,0,1,0-7.1,3.6,3.6,0,1,1,0,7.1Zm13.9,0a3.6,3.6,0,1,1,3.5-3.5A3.6,3.6,0,0,1,1767.2,73.2Z"/><rect class="u" x="1734" y="93.8" width="26.4" height="11.6"/><rect class="v" x="1847.4" y="93.8" width="26.4" height="11.6"/><ellipse class="w" cx="1926" cy="319.5" rx="73.7" ry="10.4"/><path class="x" d="M1981.3,321.7c-6.5,3.6-23.6,2.7-38.6-5.4l5.8-2,14.9-5.1,4.8-1.7s15,2.6,15.9,10.1C1984.2,319.3,1983.2,320.7,1981.3,321.7Z"/><path class="y" d="M1981.3,321.7c-6.5,3.6-23.6,2.7-38.6-5.4l5.8-2,5.5,2.3S1967.3,323.2,1981.3,321.7Z"/><path class="z" d="M1981.3,321.7c-.6-9.2-17.7-10-17.7-10l-.2-2.6,4.8-1.7s15,2.6,15.9,10.1C1984.2,319.3,1983.2,320.7,1981.3,321.7Z"/><path class="aa" d="M1970.7,324.5a61.9,61.9,0,0,1-28.4-7.5c-.3-.1-.4-.4-.4-.8a.7.7,0,0,1,.5-.6l25.5-8.8c.1,0,.3-.1.4,0s15.6,2.7,16.4,10.7c.2,1.8-.6,3.2-2.4,4.4S1975.7,324.5,1970.7,324.5Zm-26.2-8c15.5,7.8,31.9,7.8,37.2,4.2a3.1,3.1,0,0,0,1.7-3c-.6-6.5-13.4-9.2-15.1-9.4Z"/><path class="ab" d="M1968.6,306.9c-14,17.1-31.3,8.3-36.3,5l-1.5-1h0l39-69.5h0C1970,241.9,1986.3,285.3,1968.6,306.9Z"/><path class="x" d="M1909.8,315c-15.6,8.7-33.4,9.5-39.4,5.5a3.6,3.6,0,0,1-2-3.6c.6-7.5,15.6-10.4,15.6-10.4l2.9.9,15.5,5.2Z"/><path class="z" d="M1886.9,307.5v.9s-16,4.2-16.4,12.1a3.6,3.6,0,0,1-2-3.6c.6-7.5,15.6-10.4,15.6-10.4Z"/><path class="y" d="M1902.4,312.7l7.4,2.3c-15.6,8.7-33.4,9.5-39.4,5.5,0,0,15,.5,27.4-6A34,34,0,0,1,1902.4,312.7Z"/><path class="aa" d="M1881.2,323.6c-4.8,0-8.7-.9-11.2-2.4a4.6,4.6,0,0,1-2.4-4.3c.8-8,15.7-10.9,16.3-11h.4l25.7,8.4a.7.7,0,0,1,.5.6.9.9,0,0,1-.4.8C1900.3,321.1,1889.4,323.6,1881.2,323.6Zm3.4-16.4c-1.7.3-15,3.4-15.6,9.8a3.2,3.2,0,0,0,1.7,3c5.4,3.5,21.8,3.2,37.1-4.8Z"/><path class="ab" d="M1919.4,311l-.4.3a23.8,23.8,0,0,1-7,3.3c-6.4,1.6-16.1,1.5-27.5-8.2-21.8-18.5-14.2-52.6-14.2-52.6h0l2.3,2.6Z"/><path class="ab" d="M2010.7,206h0c-2.1,8.3-6.8,16.6-16.3,23.8s-18.7,12-25.6,14.5c-13.5,5-20.6,2.6-20.6,2.6L1938,233.3s1.8-20.9,32.5-32.6a3.2,3.2,0,0,1,.9-.3,65.8,65.8,0,0,0,35.1-31h0C2006.4,169.4,2015.5,187.3,2010.7,206Z"/><path class="ac" d="M2006.4,169.4c-7.6,30.6-44.5,36.6-44.5,36.6l8.5-5.4.9-.3C1996.5,190.9,2006.3,169.8,2006.4,169.4Z"/><path class="ad" d="M2010.7,206c-2.1,8.3-6.8,16.6-16.3,23.8s-18.7,12-25.6,14.5l-6.7-20.8a26,26,0,0,0,24.7,5.6C2001.8,225,2010.6,206.3,2010.7,206Z"/><path class="ae" d="M1961.5,247.3c-8.6,1.8-13.1.4-13.4.3l-.3-.2-10.2-13.6a.5.5,0,0,1-.1-.6c0-.2,2.2-21.8,33.8-33.5a65.6,65.6,0,0,0,34.6-30.6c.2-.2.4-.5.7-.4a.5.5,0,0,1,.6.4,60.7,60.7,0,0,1,5.6,21.7c.8,11.3-1.6,27.4-17.8,39.6C1980.5,241.1,1969.3,245.6,1961.5,247.3Zm-12.8-1c2,.5,17.7,3.6,45.3-17.1,12.5-9.4,18.3-22.3,17.3-38.2a62.6,62.6,0,0,0-4.9-19.9,68,68,0,0,1-34.8,30c-28.8,10.7-32.5,29.6-32.9,32Z"/><path class="ab" d="M1913,203.7s-.6,9.6-17.3,31c-2.3,3-5,6.2-8,9.8-15.2,17.4-33.1,17.5-44.6,15h0a50.7,50.7,0,0,1-12-4.2s18.5-15.3,31.7-33.8c7.6-10.6,13.1-17.2,19.3-21.5l1.4-1.3c.7-.4,2.3-1.5,3-1.8,8.6-5.6,13.8-4.6,13.8-4.6Z"/><path class="ac" d="M1882,200c-10.8,11.2-17.5,25.8-27.4,37.1s-23.6,18.2-23.6,18.2,18.5-15.2,31.7-33.8C1870.3,211,1875.9,204.4,1882,200Z"/><path class="ae" d="M1869.8,258.3a44.5,44.5,0,0,1-19.8,3c-11.1-.9-19.1-5.1-19.4-5.4a.5.5,0,0,1-.3-.5c0-.3.1-.6.3-.6s19.6-14.6,31.5-33.6c18.8-30.1,37.4-29.6,38.2-29.5s.3,0,.4.2l12.8,11.3a.5.5,0,0,1,.2.6c0,.5-1,13.1-25.5,41.2A47.4,47.4,0,0,1,1869.8,258.3Zm-37.5-3.1a51.7,51.7,0,0,0,17.8,4.6c14.4,1.1,26.9-4.2,36.9-15.8,21.9-25.2,24.8-37.9,25.2-40l-12.3-10.9c-2.3.1-19.5,1.4-36.7,28.9C1852.8,238.8,1836.4,252.1,1832.3,255.2Z"/><path class="ad" d="M1895.8,234.8c-2.4,3-5.1,6.2-8.1,9.7-15.1,17.5-33,17.6-44.6,15,32.1.8,48.1-32.2,48.1-32.2Z"/><path class="af" d="M1961.4,266.5c-1.2,24.9-19.7,37.5-41.6,36.4s-39.2-15.7-38.1-40.3c.9-17.4,9-32.5,11.6-43.7,1.3-5.4,5.7-20,7.5-22.2,5.8-7.2,13.6-3.7,20.6-4.7a15.3,15.3,0,0,1,3.7-.2,22.5,22.5,0,0,1,3.6.6c6.9,1.6,15.1-1.2,20.2,6.5,1.5,2.4,4.7,17.3,5.3,22.9C1955.8,233.1,1962.3,248.5,1961.4,266.5Z"/><path class="ab" d="M1973.3,264.2c-1.3,28-18.8,43.9-42.5,46.7h0a62,62,0,0,1-11.5.4h-.4c-20.3-1.1-37-10.8-44.8-27.4h0c-3.3-7.1-4.9-15.6-4.5-25.1a28.7,28.7,0,0,1,.7-5c1.3-6.5,4.3-13,7-19.2a92.3,92.3,0,0,0,3.9-9.6c3-9.6,6.2-18.8,4.8-24.2-1.9-7.1,5.4-24.7,7.8-27.6,7.7-9.3,18.2-4.6,27.4-6a21,21,0,0,1,5-.3,19.3,19.3,0,0,1,4.8.8c9.2,2.2,20.1-1.6,27,8.4,2.1,3.1,9,22.5,8,29.8-.7,5.4-1.9,12.7-.3,21,1,4.5,2.5,9.4,4,14.5h0c.4,1.6.9,3.3,1.4,4.9h0c.8,3.2,1.4,6.4,1.9,9.7h0A54.9,54.9,0,0,1,1973.3,264.2Z"/><path class="ag" d="M1961.4,266.5c-.8,51.2-83.5,46.8-79.6-3.9,1.9-24.2,20.3-50.1,19-65.9,5.8-7.2,13.6-3.7,20.6-4.7a17.9,17.9,0,0,1,7.3.4c6.9,1.6,15.1-1.2,20.2,6.5A214.4,214.4,0,0,1,1961.4,266.5Z"/><path class="ah" d="M1904.8,176.4a68.6,68.6,0,0,0,38.7,2S1924.1,194.9,1904.8,176.4Z"/><path class="ab" d="M1923.8,242.7h-.8c-3.5-.7-4.5-4.6-4.8-7.9-1,2.4-2.5,5-4.5,6.2a4,4,0,0,1-3.5.5,5.9,5.9,0,0,1-3.6-3.1c-2.2-5.2,2.4-14.3,2.6-14.7a1,1,0,0,1,1-.3.8.8,0,0,1,.3,1.1c-.1,0-4.5,8.8-2.6,13.3a3.9,3.9,0,0,0,2.8,2.3,2.9,2.9,0,0,0,2.4-.3c3.4-2.2,5.4-10.1,5.4-10.2s.4-.7.8-.6a.7.7,0,0,1,.5.9c0,.1-1.4,10.4,3.5,11.3a2.1,2.1,0,0,0,1.8-.4c2.1-1.8,2.3-7.6,2.3-9.7a.8.8,0,0,1,.7-.7.8.8,0,0,1,.8.6c.6,2.3,2.8,8.5,5.8,8.6.3,0,1,.1,1.6-1.2,1.4-2.8.5-9.3-2.4-12.7a.6.6,0,0,1,.1-1,.8.8,0,0,1,1,.1c3.3,3.8,4.2,11,2.7,14.2a2.9,2.9,0,0,1-3,1.9c-2.9-.1-4.8-3.3-5.9-6.1-.3,2.5-1,5.6-2.6,7A3.8,3.8,0,0,1,1923.8,242.7Z"/><path class="ag" d="M1989.5,170.6c-.9,17.7-12.4,29.7-28.4,36.1q-4,1.5-8.4,2.7a99.8,99.8,0,0,1-30.3,2.9,98.2,98.2,0,0,1-24.5-4.2l-3.7-1.2-.6-.2h0c-20.3-7.4-34.7-21.7-33.6-42.7.7-12.4,6.5-24.7,15.5-34.9a29.4,29.4,0,0,1,3-3.1c12.9-13.1,31.1-21.8,49.5-20.9s37.8,12.7,49.2,28.3C1985.3,144.6,1990.1,157.9,1989.5,170.6Z"/><path class="ai" d="M1913.4,167.9s3-26.4-16.7-36.5,19.8-10,19.8-10l9.3,48.2Z"/><ellipse class="h" cx="1895.5" cy="159.2" rx="11.1" ry="13.3" transform="translate(-6.2 202) rotate(-6.1)"/><ellipse class="ae" cx="1896.9" cy="160.3" rx="7.9" ry="9.2" transform="translate(1.8 340.6) rotate(-10.3)"/><path class="ae" d="M1897,173h0a10.6,10.6,0,0,1-8.9-3.2,15.4,15.4,0,0,1-4.4-9.5,15.5,15.5,0,0,1,2.3-10.2,11,11,0,0,1,8-5c6.4-.7,12.4,4.9,13.2,12.7S1903.4,172.3,1897,173Zm-3-26.4a9.6,9.6,0,0,0-6.8,4.4,13.7,13.7,0,0,0-2.1,9.2h0a14.4,14.4,0,0,0,4,8.5,9.2,9.2,0,0,0,7.6,2.9h0c5.7-.6,9.7-6.7,8.9-13.5s-5.8-12-11.6-11.5Zm-9.6,13.7Z"/><path class="h" d="M1896.1,156.6a2.6,2.6,0,0,1-2.7,2.2,2.5,2.5,0,0,1-2.5-2.4,2.5,2.5,0,0,1,2.7-2.2A2.5,2.5,0,0,1,1896.1,156.6Z"/><path class="h" d="M1895.9,207l-1.9-.2-2.2-2h0c-20.3-7.3-33.1-19.9-32-40.9.7-12.3,6.5-24.7,15.5-34.9l19.8,2.3a39.7,39.7,0,0,0-22.1,34.3C1871.7,191.2,1895.9,207,1895.9,207Z"/><path class="h" d="M1934.6,168.3s7-36.5,28.1-32.2c0,0-2-10.8-2.6-10.7s-35.7,6.5-35.7,6.5l-4.9,38.5Z"/><path class="ai" d="M1989.5,170.6c-.9,17.7-12.4,29.7-28.4,36.1h-.3c10.1-11,16.5-24.7,16.1-42.7s-15.4-28.4-15.4-28.4l15.5-2.2C1985.3,144.6,1990.1,157.9,1989.5,170.6Z"/><path class="ab" d="M1943.4,108.2a52.7,52.7,0,0,0-6.8-1.9c-.3-9.6-10.2-14.6-10.2-14.6,2.1,6.9.2,10.9-2.1,13.2h-.1a58.3,58.3,0,0,0-13.2,1.8c-27.1,6.8-50,32.1-51.3,57.2-.7,15,7.9,26.6,21.1,36.3,8.9,6.5,15.1,8,19,8.5-.4-.2-30.3-12.5-31.8-38.3-1.3-22.3,16.9-42.6,31.1-38.6a13,13,0,0,1,5.3,2.8c14.3,11.9,13.1,31.3,13.1,31.3h.3l6.6,3.7,7.1-3h.3s.7-19.5,16.3-29.8a16.4,16.4,0,0,1,3.8-1.8c14.9-4.6,32.5,18.3,28.7,41.2a43.7,43.7,0,0,1-21.6,31.3c8.1-2.1,14.3-5.1,19-9.1a9.6,9.6,0,0,0,1.5-1.4c6.3-6.2,9.4-14.7,10-26.4C1990.7,145.2,1970.1,117.4,1943.4,108.2Z"/><path class="ac" d="M1868.8,143.9c-12.1,27.1-.9,47.2,12,56.3-13.9-8.8-21.8-21.3-21.1-36.3,1.3-25.1,24.2-50.4,51.3-57.2h0S1881.2,116.4,1868.8,143.9Z"/><path class="ad" d="M1989.5,170.6c-.6,11.7-3.7,20.2-10,26.4l-1.5,1.4c.3-.4,14.8-19.5,5.3-48.3-8.6-25.8-39.2-41.7-39.7-42C1970.1,117.4,1990.7,145.2,1989.5,170.6Z"/><path class="ae" d="M1922.2,303.7h-2.5c-11.3-.6-21.3-4.6-28.2-11.6s-11-17.5-10.5-29.4c.6-14.2,11.7-40.4,16.4-51.6l1.2-2.8c.1-.4.4-.5.8-.4s.5.5.4.9-.6,1.7-1.1,2.8c-4.7,11.1-15.7,37.2-16.3,51.2-.6,11.5,2.9,21.3,10.1,28.4s16.3,10.6,27.2,11.1,20.8-2.4,28.1-8.3,12.2-15.9,12.7-27.4c.8-16.7-6-48.5-8.1-56.9a.7.7,0,0,1,.5-.9c.4,0,.7.1.8.6,2.1,8.4,9,40.4,8.2,57.4-.6,12-5.1,21.9-13.3,28.5C1941.9,300.7,1932.5,303.7,1922.2,303.7Z"/><path class="ac" d="M1911.9,314.6c-6.3,1.6-16.1,1.5-27.5-8.2-21.7-18.5-14.1-52.6-14.1-52.6h0c1.3-6.5,4.3-13,7-19.2a125.1,125.1,0,0,0-4.7,21.8c-1,8.8-1,18.5,1.5,27.5h0C1881.5,309.2,1899.3,316,1911.9,314.6Z"/><path class="ad" d="M1968.6,306.9c-14,17.1-31.3,8.3-36.3,5h0s18,8.3,32.3-4.6c11-9.8,11.1-33.2,8.4-51.2h0c-.6-3.4-1.2-6.7-1.9-9.7h0c-.5-1.8-1-3.4-1.4-4.9h0C1970,241.9,1986.3,285.3,1968.6,306.9Z"/><path class="ae" d="M1948.6,317.6a32.5,32.5,0,0,1-18-5.9,28.7,28.7,0,0,1-11.1,0c-2.3,1.8-17.5,12-35.7-4.8-13.5-12.6-18.5-30.9-14.1-52.9a111.6,111.6,0,0,1,10.8-29.6.8.8,0,0,1,1.1-.3.8.8,0,0,1,.2,1,104.6,104.6,0,0,0-10.6,29.3c-3,14.9-3,36.1,13.7,51.5,18.7,17.2,33.5,5.1,34,4.6a1,1,0,0,1,.7-.2,26.9,26.9,0,0,0,11.1-.1h.6c.8.6,20.2,15.3,36.8-4,14.7-17,7.3-42.9,1.4-63.8-2.4-8.4-4.7-16.3-5.2-22.7,0-.4.2-.8.6-.8a.7.7,0,0,1,.7.7c.6,6.2,2.8,14.1,5.2,22.4,6,21.2,13.4,47.6-1.7,65.2C1962.4,315.2,1955.1,317.6,1948.6,317.6Z"/><path class="aa" d="M1868.4,318.4l-.5-.2a.7.7,0,0,1-.1-1,13.8,13.8,0,0,1,7.9-3.9c.4-.1.7.2.8.6a.7.7,0,0,1-.5.8c-4.8.8-7.1,3.4-7.1,3.5Z"/><path class="aa" d="M1872.3,321.8a.9.9,0,0,1-.6-.3.8.8,0,0,1,.1-1,20.8,20.8,0,0,1,6.9-3.8c.4-.1.8,0,.9.4a.8.8,0,0,1-.4.9,20.9,20.9,0,0,0-6.4,3.5A.5.5,0,0,1,1872.3,321.8Z"/><path class="aa" d="M1983.9,319.5l-.6-.2a12.4,12.4,0,0,0-7.6-3.8c-.3,0-.7-.4-.6-.7a.7.7,0,0,1,.7-.7,13.8,13.8,0,0,1,8.5,4.2.6.6,0,0,1-.1,1C1984.2,319.5,1984.1,319.5,1983.9,319.5Z"/><path class="aa" d="M1979.5,323.2l-.5-.2a25.8,25.8,0,0,0-8.4-4.1.8.8,0,0,1-.5-.9.8.8,0,0,1,1-.5c6,1.9,8.8,4.3,8.9,4.4a.7.7,0,0,1,.1,1C1979.8,323.1,1979.7,323.2,1979.5,323.2Z"/><path class="ac" d="M1906.4,128.5c4.7-1.2,8-3.9,7.4-6s-4.8-2.9-9.4-1.6-8,3.9-7.4,6S1901.7,129.6,1906.4,128.5Z"/><path class="ae" d="M1903.9,129.7a25.4,25.4,0,0,1-3.9,0c-2.1-.4-3.4-1.3-3.7-2.7s.3-2.8,1.9-4.1a16.1,16.1,0,0,1,5.9-2.7c5.2-1.3,9.5-.4,10.2,2.2s-2.7,5.5-7.9,6.8h0Zm2.5-1.2Zm.6-7.5-2.5.5a13.8,13.8,0,0,0-5.3,2.5c-1.2,1-1.8,1.9-1.5,2.7s1.2,1.2,2.6,1.5a14.5,14.5,0,0,0,5.8-.3c4.5-1.2,7.3-3.7,6.8-5.2S1910.3,120.7,1907,121Z"/><path class="ae" d="M1953.1,210.2a.8.8,0,0,1-.8-.6.8.8,0,0,1,.6-.9l1-.3c9.1-2.7,22.8-13.1,26-32.3,2.4-15.1-4.6-29.2-12.2-35.8-5.1-4.5-10.6-6.1-15.6-4.6a19.1,19.1,0,0,0-3.6,1.7c-15,10.1-15.9,29-15.9,29.2a.8.8,0,0,1-.5.7l-.4.2-7,2.9h-.6l-7-3.8a.9.9,0,0,1-.4-.8c0-.2,1-19.1-12.8-30.6a13.5,13.5,0,0,0-5-2.7c-4.9-1.3-10.5.3-15.8,4.6-7.7,6.2-15.1,18.9-14.3,33.3,1.3,23,25.5,35,30.3,37.2h.3a.9.9,0,0,1,.3,1,.8.8,0,0,1-.9.5,50.8,50.8,0,0,1-18.5-8.4c-15-11-22-23.1-21.4-36.9s6.4-25.1,16.2-36a71.7,71.7,0,0,1,35.7-22,53.1,53.1,0,0,1,13.2-1.7c2.7-2.9,3.2-7,1.6-12.3a.9.9,0,0,1,.1-.7.9.9,0,0,1,.7-.3c.5,0,10.2,5.1,11,14.7,2.3.6,4.4,1.1,6.3,1.8a72.4,72.4,0,0,1,33.9,25.4c8.8,12,13.3,25.4,12.7,37.8s-3.9,20.7-10.2,27a10.7,10.7,0,0,1-1.6,1.4c-4.4,3.8-15.8,8.6-24.2,10.9l-1,.3ZM1927.6,93.4c1.4,6.3-.6,10-2.7,12.1l-.5.2h-.2a56.5,56.5,0,0,0-13,1.7c-26.7,6.7-49.4,32.1-50.7,56.5-.6,13.3,6.2,25,20.8,35.6a46.8,46.8,0,0,0,9.7,5.5c-9.1-5.7-22.8-17-23.8-34.5-.8-15,6.9-28.2,14.9-34.7,5.7-4.6,11.9-6.3,17.2-4.8a15.2,15.2,0,0,1,5.6,3c13.2,10.9,13.4,28.2,13.4,31.4l6.2,3.4,6.6-2.8c.2-3.2,2.3-20.4,16.5-29.9a18.4,18.4,0,0,1,4.1-1.9c5.5-1.7,11.5.1,17,4.9,7.9,6.9,15.3,21.5,12.7,37.2a43.6,43.6,0,0,1-17.2,28.6c5.5-2.2,10.7-4.8,13.3-7.1l1.5-1.3c6-6,9.1-14.3,9.7-25.9,1.2-25-19.2-52.6-45.6-61.7h0a56.1,56.1,0,0,0-6.7-1.9c-.3,0-.6-.4-.6-.7C1935.6,99.6,1930.4,95.2,1927.6,93.4Z"/><path class="x" d="M1944.9,176.6h-.1c-.7,1.2-7.7,13.8-21.4,13.1s-18.9-12.8-19.8-15a1,1,0,0,1-.1-.4c7.4-3.5,10.6-9.9,21.2-9.4h1.5C1935.3,166.1,1937.3,171.7,1944.9,176.6Z"/><path class="aj" d="M1903.6,174.4s9.1,6.3,20.4,6.9,20.9-4.7,20.9-4.7-12.3,9.5-21.7,9S1903.6,174.4,1903.6,174.4Z"/><path class="z" d="M1924.7,165s-5.9,1.5-9.6,5.2a42.1,42.1,0,0,1-8.2,6.2l-3.2-1.6a1,1,0,0,1-.1-.4C1911,170.9,1914.1,164.5,1924.7,165Z"/><path class="y" d="M1944.9,176.6h-.1l-3.3,1.4s-3-1.2-6.6-6.2a20,20,0,0,0-8.6-6.7C1935.3,166.1,1937.3,171.7,1944.9,176.6Z"/><path class="aa" d="M1926.9,190.4h-3.4c-15.1-.9-20.5-15.7-20.6-15.9a.8.8,0,0,1,.4-.9,39.8,39.8,0,0,0,6.3-4c4.1-3,7.9-5.9,15.3-5.5s10.4,3.3,14.1,6.6a54.7,54.7,0,0,0,6.5,5,.7.7,0,0,1,.3.8C1945.5,177,1939.2,189,1926.9,190.4Zm-22.5-15.6c1.2,2.7,6.6,13.6,19.1,14.3s19-9.8,20.4-12.3a39.5,39.5,0,0,1-6-4.9c-3.7-3.3-6.6-5.9-13.3-6.2s-10.5,2.4-14.3,5.2A33.5,33.5,0,0,1,1904.4,174.8Z"/><path class="aa" d="M1925.8,186.2h-2.6c-9.5-.5-19-10.1-19.4-10.7s-1-1.4-.7-1.6a.6.6,0,0,1,.9-.1c.1.1,9.1,6.2,20,6.7s20.5-4.5,20.6-4.6.7-.1.9.2a.8.8,0,0,1-.1,1C1944.9,177.5,1934.8,185.2,1925.8,186.2Zm-17-8.1c3.8,3,9.3,6.5,14.5,6.8s10.8-2.4,15.1-4.9a44.2,44.2,0,0,1-14.5,2A42.6,42.6,0,0,1,1908.8,178.1Z"/><path class="ac" d="M1945.3,140.5c-4.5-1.6-7.5-4.7-6.7-6.7s5-2.4,9.5-.7,7.5,4.7,6.7,6.7S1949.8,142.1,1945.3,140.5Z"/><path class="ae" d="M1951.8,142.2a16.3,16.3,0,0,1-6.8-1.1h0a17.2,17.2,0,0,1-5.5-3.4c-1.5-1.5-2-3-1.6-4.2s5.4-3,10.4-1.2a14.8,14.8,0,0,1,5.5,3.4c1.5,1.5,2,3,1.6,4.2S1953.7,141.9,1951.8,142.2Zm-6.3-2.4c4.5,1.6,8.1,1.1,8.6-.3s-.2-1.7-1.2-2.7a16.9,16.9,0,0,0-5.1-3.1c-4.4-1.6-8-1.1-8.5.4s.2,1.7,1.2,2.7a17,17,0,0,0,5,3Z"/><path class="ae" d="M1964.8,170.8a.5.5,0,0,1-.4-.2c-10.6-6.9-20.6-3.9-20.7-3.8a.9.9,0,0,1-1-.5.9.9,0,0,1,.4-1l8.2-4.6a.7.7,0,0,1,1,.3c.3.4.1.8-.3,1.1l-4.3,2.4a28.9,28.9,0,0,1,17.5,4.8.8.8,0,0,1,.3,1.1A1,1,0,0,1,1964.8,170.8Z"/><path class="ae" d="M1931.8,176.9a.8.8,0,0,1-1.2-.3l-1.3-2.5a.9.9,0,1,1,1.6-.9l1.3,2.5C1932.3,176,1932.3,176.7,1931.8,176.9Z"/><path class="ae" d="M1916.5,176.1a1.1,1.1,0,0,1-.3-1.3l1.6-2.3a1,1,0,0,1,1.2-.3.9.9,0,0,1,.3,1.3l-1.5,2.3A1.1,1.1,0,0,1,1916.5,176.1Z"/><path class="e" d="M547.8,331.8V352l-9.7-9.7S547.5,331.8,547.8,331.8Z"/><path class="e" d="M530.8,332.6v20.2l-9.7-9.8S530.5,332.6,530.8,332.6Z"/><path class="e" d="M515.3,331.8V352l-9.7-9.7S515,331.8,515.3,331.8Z"/><path class="e" d="M498.6,331.8V352l-9.7-9.7S498.2,331.8,498.6,331.8Z"/><path class="d" d="M576.9,141,560,114.8V141h-6.5V105h7.4l16.8,26.2V105h6.6v36Z"/><path class="d" d="M588.4,128c0-8.1,4.6-13.6,12.9-13.6s13,5.6,13,13.3a9.2,9.2,0,0,1-.1,1.6H594.9c.2,5.3,2.8,7.8,6.7,7.8s5.4-1.7,6.2-4.3h6c-1.1,5.3-5.1,8.7-12.2,8.7S588.4,136.2,588.4,128Zm6.5-2.9h12.9c-.5-4.2-2.9-6.2-6.5-6.2S595.5,120.9,594.9,125.1Z"/><path class="d" d="M617.1,128c0-8.1,4.5-13.6,12.9-13.6s13,5.6,13,13.3c0,.5-.1,1-.1,1.6H623.6c.2,5.3,2.7,7.8,6.7,7.8a5.9,5.9,0,0,0,6.1-4.3h6c-1.1,5.3-5.1,8.7-12.1,8.7S617.1,136.2,617.1,128Zm6.5-2.9h12.9c-.6-4.2-2.9-6.2-6.5-6.2S624.1,120.9,623.6,125.1Z"/><path class="d" d="M645.7,128c0-8.6,4.4-13.6,11.5-13.6,3.9,0,6.5,1.6,8,4.5V105h6.5v36h-6.2v-4.5c-1.4,3.1-4,5-8.3,5C650.1,141.5,645.7,136.5,645.7,128Zm19.5,0c0-6-2.6-8.6-6.5-8.6s-6.5,2.6-6.5,8.6,2.6,8.5,6.5,8.5S665.2,133.9,665.2,128Z"/><path class="d" d="M707.7,141H689.5V105h17.2c7.7,0,11.9,3.9,11.9,9.6,0,4-1.9,6.9-6,7.9,4.7.9,7,4.2,7,8.5C719.6,136.8,715.4,141,707.7,141ZM706,110.2h-9.6v9.9H706c3.8,0,5.8-1.7,5.8-4.9S709.8,110.2,706,110.2Zm1,15H696.4v10.6H707c3.8,0,5.8-2,5.8-5.3S710.8,125.2,707,125.2Z"/><path class="d" d="M723.4,132.2V114.9h6.5v16c0,3.5,1.3,5.3,4.4,5.3s5.7-2.5,5.7-6.7V114.9h6.5V141h-6.2v-4.3c-1.4,2.8-3.7,4.8-8,4.8C726.3,141.5,723.4,138.5,723.4,132.2Z"/><path class="d" d="M750.3,128c0-8.6,4.4-13.6,11.4-13.6,4,0,6.6,1.6,8,4.5V105h6.6v36h-6.2v-4.5c-1.5,3.1-4,5-8.4,5C754.7,141.5,750.3,136.5,750.3,128Zm19.4,0c0-6-2.6-8.6-6.5-8.6s-6.4,2.6-6.4,8.6,2.6,8.5,6.4,8.5S769.7,133.9,769.7,128Z"/><path class="d" d="M780,127.2c0-7.7,4.4-12.8,11.5-12.8,4.3,0,6.9,1.9,8.3,5v-4.5H806v24c0,8.1-4.3,12.5-12.9,12.5s-11.7-3.7-11.7-9.3h6.1c.4,3.2,2.4,5,5.9,5s6.1-2.1,6.1-6.4v-5.2c-1.5,2.9-4.1,4.5-8,4.5C784.4,140,780,134.9,780,127.2Zm19.5,0c0-5.4-2.6-8.1-6.5-8.1s-6.5,2.7-6.5,8.1,2.6,8.1,6.5,8.1S799.5,132.6,799.5,127.2Z"/><path class="d" d="M809.8,128c0-8.1,4.5-13.6,12.9-13.6s13,5.6,13,13.3c0,.5-.1,1-.1,1.6H816.3c.2,5.3,2.7,7.8,6.7,7.8a5.9,5.9,0,0,0,6.1-4.3h6c-1.1,5.3-5.1,8.7-12.1,8.7S809.8,136.2,809.8,128Zm6.5-2.9h12.8c-.5-4.2-2.8-6.2-6.4-6.2S816.8,120.9,816.3,125.1Z"/><path class="d" d="M841.1,133.7V119.6H837v-4.7h4.1v-7.8h6.5v7.8h5.7v4.7h-5.7v14.3c0,2,.9,2.7,3,2.7h2.7V141l-4.3.2C843.1,141.2,841.1,139.4,841.1,133.7Z"/><path class="d" d="M870,141V105h26.2v5.6H876.9V120h17.7v5.3H876.9V141Z"/><path class="d" d="M899.4,141V114.9h6.2v5.8c1.3-4.6,3.6-6.1,7.2-6.1a15.7,15.7,0,0,1,2.4.3v5.7h-2.7c-3.9,0-6.6,3-6.6,8.3V141Z"/><path class="d" d="M918.1,107.7c0-2,1.4-3.4,3.8-3.4s3.7,1.4,3.7,3.4-1.3,3.3-3.7,3.3S918.1,109.6,918.1,107.7Zm.5,33.3V114.9h6.5V141Z"/><path class="d" d="M928.9,128c0-8.1,4.5-13.6,12.9-13.6s13,5.6,13,13.3c0,.5-.1,1-.1,1.6H935.4c.2,5.3,2.7,7.8,6.7,7.8a5.9,5.9,0,0,0,6.1-4.3h6c-1.1,5.3-5.1,8.7-12.1,8.7S928.9,136.2,928.9,128Zm6.5-2.9h12.9c-.6-4.2-2.9-6.2-6.5-6.2S935.9,120.9,935.4,125.1Z"/><path class="d" d="M975.1,141V125c0-3.5-1.2-5.3-4.4-5.3s-5.7,2.5-5.7,6.7V141h-6.5V114.9h6.2v4.3a8.2,8.2,0,0,1,8-4.8c6,0,8.9,3.1,8.9,9.4V141Z"/><path class="d" d="M985.4,128c0-8.6,4.4-13.6,11.4-13.6,4,0,6.6,1.6,8.1,4.5V105h6.5v36h-6.2v-4.5c-1.4,3.1-4,5-8.4,5C989.8,141.5,985.4,136.5,985.4,128Zm19.5,0c0-6-2.7-8.6-6.5-8.6s-6.5,2.6-6.5,8.6,2.6,8.5,6.5,8.5S1004.9,133.9,1004.9,128Z"/><path class="d" d="M1016.1,141V105h6.6v36Z"/><path class="d" d="M1027.8,146.2h2.6c3,0,4.8-1.4,4.8-3.8a8.5,8.5,0,0,0-.5-2.6l-9.3-24.9h6.8l6.8,21,6.7-21h6.9l-9.3,24.9c-3.2,8.5-6.6,11.1-13,11.1h-2.5Z"/><path class="d" d="M1092.2,141V125.6h-17V141h-6.9V105h6.9v14.7h17V105h6.9v36Z"/><path class="d" d="M1103.2,128c0-8.2,4.8-13.6,13.3-13.6s13.2,5.4,13.2,13.6-4.7,13.5-13.2,13.5S1103.2,136.2,1103.2,128Zm20,0c0-5.8-2.4-8.6-6.7-8.6s-6.8,2.8-6.8,8.6,2.5,8.5,6.8,8.5S1123.2,133.7,1123.2,128Z"/><path class="d" d="M1132.5,132.8h6.3c.3,2.7,1.5,4.4,5.6,4.4s5.2-1.6,5.2-3.5-1.4-2.7-3.6-3.1l-4.5-.6c-6-.9-8.3-2.9-8.3-7.3s3.2-8.3,11.1-8.3,11.1,3.6,11.1,8.4h-6.3c-.2-2.2-1-4.1-4.9-4.1s-4.5,1.4-4.5,3.5,1,2.4,2.9,2.7l4.4.6c5.8.8,9.2,2.8,9.2,7.8s-3.5,8.2-11.9,8.2S1132.5,137.9,1132.5,132.8Z"/><path class="d" d="M1161.6,133.7V119.6h-4.1v-4.7h4.1v-7.8h6.5v7.8h5.7v4.7h-5.7v14.3c0,2,.9,2.7,3,2.7h2.7V141l-4.3.2C1163.6,141.2,1161.6,139.4,1161.6,133.7Z"/><path class="d" d="M1177,107.7c0-2,1.3-3.4,3.8-3.4s3.7,1.4,3.7,3.4-1.3,3.3-3.7,3.3S1177,109.6,1177,107.7Zm.5,33.3V114.9h6.5V141Z"/><path class="d" d="M1205.4,141V125c0-3.5-1.3-5.3-4.5-5.3s-5.6,2.5-5.6,6.7V141h-6.6V114.9h6.3v4.3a8.1,8.1,0,0,1,7.9-4.8c6,0,9,3.1,9,9.4V141Z"/><path class="d" d="M1215.6,127.2c0-7.7,4.5-12.8,11.5-12.8,4.3,0,6.9,1.9,8.3,5v-4.5h6.2v24c0,8.1-4.3,12.5-12.9,12.5s-11.7-3.7-11.7-9.3h6.1c.4,3.2,2.4,5,5.9,5s6.1-2.1,6.1-6.4v-5.2c-1.5,2.9-4.1,4.5-8,4.5C1220.1,140,1215.6,134.9,1215.6,127.2Zm19.5,0c0-5.4-2.6-8.1-6.5-8.1s-6.5,2.7-6.5,8.1,2.7,8.1,6.5,8.1S1235.1,132.6,1235.1,127.2Z"/><path class="d" d="M1288.8,141l-6.7-26.4-6.6,26.4h-8.3L1257,105h7.4l7.1,27.7,7.1-27.7h7.1l7,27.7,7.2-27.7h7.4L1297,141Z"/><path class="d" d="M1309.5,107.7c0-2,1.4-3.4,3.8-3.4s3.7,1.4,3.7,3.4-1.3,3.3-3.7,3.3S1309.5,109.6,1309.5,107.7Zm.5,33.3V114.9h6.5V141Z"/><path class="d" d="M1323.5,133.7V119.6h-4.1v-4.7h4.1v-7.8h6.5v7.8h5.7v4.7H1330v14.3c0,2,.9,2.7,2.9,2.7h2.8V141l-4.3.2C1325.5,141.2,1323.5,139.4,1323.5,133.7Z"/><path class="d" d="M1356,141V125c0-3.5-1.3-5.3-4.5-5.3s-5.6,2.5-5.6,6.7V141h-6.5V105h6.5v13.7c1.4-2.6,3.7-4.3,7.7-4.3,5.9,0,8.9,3.1,8.9,9.4V141Z"/><path class="d" d="M1378.9,128c0-8.2,4.7-13.6,13-13.6s12.3,5.3,12.3,10.4h-6.1c-.4-3.1-2.2-5.4-6.2-5.4s-6.5,2.8-6.5,8.6,2.4,8.5,6.5,8.5,5.7-1.7,6.2-5.6h6.1c0,5.6-4.1,10.6-12.3,10.6S1378.9,136.2,1378.9,128Z"/><path class="d" d="M1423.6,128h-8.9v13h-6.8V105h15.7c7.9,0,12.9,4.1,12.9,11.5S1431.5,128,1423.6,128Zm-1-17.8h-7.9v12.6h7.9c4.5,0,7-2,7-6.3S1427.1,110.2,1422.6,110.2Z"/><path class="d" d="M1437.7,133.6c0-4,2.4-7.2,8.9-7.7l5.4-.4c2.6-.3,3.3-1,3.3-2.3s-1.5-4.1-4.8-4.1-4.7,1.3-4.9,4.1h-6.5c0-5.3,3.4-8.8,11.4-8.8s11.3,3.5,11.3,8.8v11.1c0,3.6.4,5.8.9,6.7h-6a6.3,6.3,0,0,1-1.1-4.1c-1.4,3-4.1,4.6-8.5,4.6C1441,141.5,1437.7,138.4,1437.7,133.6Zm17.6-3.4v-1.8c-.4.5-1.6.8-3.4,1l-3.1.2c-3.3.3-4.6,1.7-4.6,3.6s1.5,3.9,4.8,3.9S1455.3,134,1455.3,130.2Z"/><path class="d" d="M1483.2,141V125c0-3.5-1.2-5.3-4.4-5.3s-5.7,2.5-5.7,6.7V141h-6.5V114.9h6.2v4.3c1.4-2.8,3.7-4.8,8-4.8,6,0,8.9,3.1,8.9,9.4V141Z"/><path class="d" d="M1493.5,128c0-8.1,4.5-13.6,12.9-13.6s13,5.6,13,13.3c0,.5-.1,1-.1,1.6H1500c.2,5.3,2.7,7.8,6.7,7.8s5.4-1.7,6.1-4.3h6c-1.1,5.3-5.1,8.7-12.1,8.7S1493.5,136.2,1493.5,128Zm6.5-2.9h12.9c-.6-4.2-2.9-6.2-6.5-6.2S1500.5,120.9,1500,125.1Z"/><path class="d" d="M1523.1,141V105h6.5v36Z"/><path class="d" d="M1542.5,130.1v-1.6c0-9.4,8.7-7.9,8.7-13.8,0-3.1-2.4-4.9-5.5-4.9s-5.5,2.1-6,6.3h-6.3c0-7.3,4.4-11.6,12.3-11.6s12.4,4.3,12.4,10.3c0,8.2-10.1,7.6-10.1,13.7v1.6Zm-1.2,7.8a3.6,3.6,0,0,1,3.9-3.6c2.6,0,3.9,1.6,3.9,3.6s-1.3,3.5-3.9,3.5S1541.3,139.8,1541.3,137.9Z"/><rect class="e" x="891.4" y="270.6" width="292.6" height="71.49" rx="11.8"/><path class="c" d="M927.3,307.5c0-9.3,5.2-15.7,14.8-15.7s13.4,5.1,13.4,10.6h-4.2c-.7-3.7-3.8-6.7-9.2-6.7S932,299.9,932,307.5s3.5,11.7,10.1,11.7,8.9-3.6,9.1-9.4h-8.3v-3.3h12.9v16.2h-3.6l-.4-5.7c-1.2,3.8-4.4,6.1-10.1,6.1C932.3,323.1,927.3,316.7,927.3,307.5Z"/><path class="c" d="M959.1,311.7c0-6.8,3.6-11.5,10.6-11.5s10.7,4.7,10.7,11.1c0,.4-.1.8-.1,1.2H963.6c.1,5.2,2.6,7.5,6.4,7.5s5.1-1.6,5.7-4.1h4.2c-1,4.4-4.2,7.2-9.9,7.2S959.1,318.7,959.1,311.7Zm4.5-2.2h12.2c-.4-4.1-2.7-6.2-6.1-6.2S964.1,305.4,963.6,309.5Z"/><path class="c" d="M985.2,317V303.9h-3.5v-3.3h3.5V294h4.6v6.6h5.1v3.3h-5.1v13.3c0,1.9.7,2.5,2.7,2.5h2.4v3.1l-3.4.2C986.9,322.9,985.2,321.5,985.2,317Z"/><path class="c" d="M1008,313h4.5c.5,4.4,2.4,6.5,7.7,6.5s7.4-2.2,7.4-5.5-1.3-3.8-6.1-4.5l-4.2-.7c-6.3-.9-8.6-3.1-8.6-7.7s3.7-9.3,11.4-9.3,11.5,3.7,11.5,9.7h-4.5c-.5-4-2.5-6.1-7.1-6.1s-6.5,2.1-6.5,5.4,1,3.5,5.3,4.1l4.2.7c6.1.8,9.3,3.2,9.3,8.1s-3.9,9.4-12.2,9.4S1008,319.5,1008,313Z"/><path class="c" d="M1037.6,317V303.9H1034v-3.3h3.6V294h4.6v6.6h5.1v3.3h-5.1v13.3c0,1.9.7,2.5,2.7,2.5h2.4v3.1l-3.4.2C1039.3,322.9,1037.6,321.5,1037.6,317Z"/><path class="c" d="M1049.7,316.5c0-3.3,2-6,7.4-6.4l4.3-.4c2.6-.2,3.4-.8,3.4-2.2s-1.5-4.1-4.7-4.1-4.6,1.3-4.8,4.1h-4.5c0-4.5,2.8-7.3,9.3-7.3s9.2,2.8,9.2,7.3V317c0,3,.3,5,.7,5.7h-4.1a6,6,0,0,1-.9-3.8c-1.2,2.8-3.6,4.2-7.4,4.2S1049.7,320.6,1049.7,316.5Zm15.1-3.2v-1.9c-.5.6-1.7,1-3.4,1.1l-2.8.3c-3.2.2-4.4,1.6-4.4,3.4s1.4,3.8,4.6,3.8S1064.8,317,1064.8,313.3Z"/><path class="c" d="M1073.6,322.7V300.6h4.3v5.1c1.2-3.9,3.1-5.3,6.3-5.3l2.1.2v4h-2.2c-3.6,0-6,2.8-6,7.7v10.5Z"/><path class="c" d="M1091.1,317V303.9h-3.6v-3.3h3.6V294h4.6v6.6h5.1v3.3h-5.1v13.3c0,1.9.7,2.5,2.7,2.5h2.4v3.1l-3.4.2C1092.8,322.9,1091.1,321.5,1091.1,317Z"/><path class="c" d="M1102,311.7c0-6.8,3.7-11.5,10.7-11.5s10.6,4.7,10.6,11.1v1.2h-16.7c.1,5.2,2.6,7.5,6.3,7.5s5.1-1.6,5.8-4.1h4.2c-1,4.4-4.2,7.2-10,7.2S1102,318.7,1102,311.7Zm4.6-2.2h12.2c-.5-4.1-2.7-6.2-6.1-6.2S1107,305.4,1106.6,309.5Z"/><path class="c" d="M1125.9,311.7c0-7.3,3.7-11.5,9.6-11.5,3.6,0,6,1.5,7.3,4.2V292.2h4.5v30.5H1143v-4.1c-1.3,2.9-3.6,4.5-7.5,4.5C1129.6,323.1,1125.9,318.9,1125.9,311.7Zm16.9,0c0-5.6-2.6-8-6.2-8s-6.2,2.4-6.2,8,2.5,8,6.2,8S1142.8,317.2,1142.8,311.7Z"/><polygon class="e" points="143.1 143.4 450.5 91.8 440.2 161.9 129.7 217.6 143.1 143.4"/><polygon class="d" points="86.4 218.7 393.7 167.1 383.4 237.2 73 292.9 86.4 218.7"/><polygon class="ak" points="722.5 303.2 655.5 268.3 699.2 304.7 722.5 303.2"/><polygon class="al" points="693 306.8 665.2 310.9 655.9 268.2 693 306.8"/><polygon class="am" points="688.7 322.9 680.5 308 693 306.8 688.7 322.9"/><polygon class="am" points="700.3 305.1 655.5 268.3 691.4 307.9 686.5 324.2 700.3 305.1"/><polygon class="ak" points="1451.5 208.3 1524.8 189.9 1473.8 215.1 1451.5 208.3"/><polygon class="al" points="1479.4 218.6 1505.5 229.1 1524.5 189.7 1479.4 218.6"/><polygon class="am" points="1479.8 235.2 1491.2 222.7 1479.4 218.6 1479.8 235.2"/><polygon class="am" points="1472.7 215.2 1524.8 189.9 1480.7 220 1481.7 237 1472.7 215.2"/><path class="d" d="M1652.2,105.8l9.7,9.7h-20.2C1641.7,115.2,1652.2,105.8,1652.2,105.8Z"/><path class="d" d="M1652.9,88.8l9.7,9.7h-20.2C1642.4,98.2,1652.9,88.8,1652.9,88.8Z"/><path class="d" d="M1652.2,73.3l9.7,9.7h-20.2C1641.7,82.6,1652.2,73.3,1652.2,73.3Z"/><path class="d" d="M1652.2,56.6l9.7,9.7h-20.2C1641.7,65.9,1652.2,56.6,1652.2,56.6Z"/><path class="c" d="M214.5,163.7a10.7,10.7,0,0,1,4.8,1.9,15.2,15.2,0,0,1,3.7,3.9,14.4,14.4,0,0,1,1.9,5,10.5,10.5,0,0,1-.4,5.3,15.4,15.4,0,0,1-6.2,7.7,18.8,18.8,0,0,1-9.6,3.1,13.9,13.9,0,0,1-8.7-3,18.9,18.9,0,0,1-5.7-7.8,12,12,0,0,1-.6-5.9,10.3,10.3,0,0,1,2.4-5.3,8.6,8.6,0,0,1,5.1-2.8l.8.9a28.2,28.2,0,0,1-.1-3.2c0-1.3,0-2.5-.1-3.6v-3.2a3.5,3.5,0,0,1,3.8,1,8.5,8.5,0,0,1,2.1,4.1l1.3-1.9a14.7,14.7,0,0,1,1.3-1.7l1.1-1.7,1.2-2v-.2c.8-1.6,1-2.9.4-3.7s-.9-.5-1.9-.3a13.3,13.3,0,0,0-3,.6l-2.7,1a56.5,56.5,0,0,0-6,3.1c-1.9,1.2-3,2.2-3.2,2.8a3,3,0,0,1-1.9-2.5,5.4,5.4,0,0,1,.6-3,9.2,9.2,0,0,1,1.9-2.5,21.4,21.4,0,0,1,6.7-3.9,18.6,18.6,0,0,1,7.7-1c4.7.6,7.4,2.3,8.2,5a7.1,7.1,0,0,1-.4,4.7C218.4,156.4,216.8,159.4,214.5,163.7Zm-16.1,17.7a7.4,7.4,0,0,0,4,2.1,10.8,10.8,0,0,0,4.7-.4,19.5,19.5,0,0,0,4.4-1.9,26.5,26.5,0,0,0,3.7-2.5,13.1,13.1,0,0,0,2.3-3.1,4.5,4.5,0,0,0,.8-3.3c-.2-.6-1-1.1-2.5-1.5a6.1,6.1,0,0,0-2.2-.3l-2.4-.2a2.5,2.5,0,0,1-1.8-.8,3,3,0,0,1-.9-2.2,1.6,1.6,0,0,0-.4.7,2.5,2.5,0,0,0-.2.7v1.8a28.2,28.2,0,0,0,.4,4.2,26.8,26.8,0,0,1,.3,4.3l-.7-.2h-.2v2.4a3.9,3.9,0,0,1-2.6-2,10,10,0,0,1-1.5-3.5h-.2c-.2.4-.5.4-.9-.1l-.3-.7c-.1-1.3-.1-2.6-.1-3.8v-.8l-.7.6-.8.7-.4.5C196.7,176.2,196.2,179.3,198.4,181.4Zm16,6.5a12.4,12.4,0,0,0,5-2.9,18.6,18.6,0,0,0,3.8-4.9l-3.4,3.6Zm8.1-10.6-5.7,4.7.2.2A19.3,19.3,0,0,0,222.5,177.3Zm.3,1.7-4,3.9h.1Z"/><path class="c" d="M235.7,142.8a1.4,1.4,0,0,0,.5.9l.7.9a2.6,2.6,0,0,1,.5.9,2.1,2.1,0,0,1-.2,1.3,3.3,3.3,0,0,1-1.4,1l-1.9,1.1q-.9.6-.9,1.2a6.5,6.5,0,0,0,.4,2.6,17.5,17.5,0,0,1,.6,2.5c.7,3.9,1.3,7.5,1.7,11v.5c0,.3,0,.6.1.7s.1.4.1.6a1,1,0,0,0,.4.5c.2.2.5.2,1,.2h.9a3,3,0,0,1,2,1,1.7,1.7,0,0,1,.3,1.9c.4,0,.6,0,.8.2a.7.7,0,0,1-.2.8l-1.4.8-1.1.5-1.8,1.2-2.2,1.5-1.9.9a3.8,3.8,0,0,1-2.4-.4,1.3,1.3,0,0,1-.9-1.5l-.8.4-.8-.6.8-1.3a2.7,2.7,0,0,1-.9,0l-.6-.2a.6.6,0,0,1,.1-.7c.1-.4.6-.9,1.4-1.5a3.5,3.5,0,0,0,1.3-1.6v-.8l-.2-.4-.2-.4a.4.4,0,0,1-.1-.3,21.9,21.9,0,0,1-.4-3.5,122.3,122.3,0,0,1-.5-13.1,5.4,5.4,0,0,1-2.5.6c-.9-.1-1.3-.5-1.1-1.3s-1.5-.3-1.2-1.3A3.7,3.7,0,0,1,225,148l1.5-1,1.7-1.2,1.5-.9a11.8,11.8,0,0,1,1.9-1l1.6-.8h1.3Zm-5.4,23.7-.2-10.3c-.7,2.1-.7,5.5.1,10.3Z"/><path class="c" d="M269.6,155.2c1.2.1,1.9,1,2.1,2.6l2.3,20.9-1.5,2.8-1.2-.5-1.3-.5-1-.6-1-.9a7.3,7.3,0,0,1-1.4-2.8,17.5,17.5,0,0,1-.7-3.6c-.1-1.1-.2-2.2-.2-3.3l-2.6,1-2.3.8a16.4,16.4,0,0,1-2.8.7l-2.6.3-2.4-.4-1.9-.6-2.1-.9c-3.8-1.8-6.3-3.8-7.5-6.1a14.8,14.8,0,0,1-1.2-8.1,28.6,28.6,0,0,1,2.6-9.5,21.9,21.9,0,0,1,5-7.5,11.5,11.5,0,0,1,4.5-2.7,11.2,11.2,0,0,1,5.1-.6,15.7,15.7,0,0,1,4.7,1.3,8.7,8.7,0,0,1,3.5,2.8,7.4,7.4,0,0,1,1.4,4.3h-1a14.9,14.9,0,0,1-1.3-1.3l-1.8-1.7a2.8,2.8,0,0,0-1.5-.8,4.2,4.2,0,0,0-4,1.1,14.9,14.9,0,0,0-3.3,3.9c-3.1,5.6-4.2,12.1-3.4,19.7a14.5,14.5,0,0,0,6.8-2.3,8.1,8.1,0,0,0,3.9-5.2,6,6,0,0,0-.1-1.8,8.9,8.9,0,0,1-.3-2.2,1.9,1.9,0,0,1,.7-1.6l.6.8h.3v-.7h.3l.8,1.3h.3l-.3-1.8.6-.2.5,1.2.9-.3.5,1.2v1.5h.3l-.4-1.4h.2v-.8h.2v1h.8l.2,1h.2V153l.4-.2ZM243,160.5l.3-6c-.8,1.4-.9,3.4-.5,6Zm2.3.2h.3a13.8,13.8,0,0,1,.4-4.9c.4-1.7.9-3.6,1.5-5.5a33.3,33.3,0,0,0,1.2-4.8,19.7,19.7,0,0,0-3.1,7.5A17.5,17.5,0,0,0,245.3,160.7Zm1.7-.7,1-7.6c-1.1,1.9-1.5,4.5-1.2,7.7Zm1.6-2.9h.2a18,18,0,0,1,.7-3.8c.4-1.3,1-2.8,1.6-4.4s1.1-2.9,1.4-3.7a21.1,21.1,0,0,0-3,5.8A16,16,0,0,0,248.6,157.1Z"/><path class="c" d="M308.9,147.8a9.2,9.2,0,0,1,4.4,1.7,12.9,12.9,0,0,1,3.4,3.6,13.5,13.5,0,0,1,1.7,4.5,9.7,9.7,0,0,1-.3,4.8,13.8,13.8,0,0,1-5.7,7,15.8,15.8,0,0,1-8.7,2.8,11.4,11.4,0,0,1-7.9-2.7,17.1,17.1,0,0,1-5.2-7.1,10.1,10.1,0,0,1-.6-5.4,8.9,8.9,0,0,1,2.2-4.7,8.1,8.1,0,0,1,4.7-2.6l.6.8v-2.9c0-1.2,0-2.3-.1-3.3v-2.9a3,3,0,0,1,3.4,1,6.5,6.5,0,0,1,2,3.6,13.6,13.6,0,0,1,1.2-1.7l1.1-1.6,1.1-1.5,1-1.8c.1,0,.1-.1.1-.2s.9-2.6.4-3.4-.8-.4-1.8-.3l-2.7.7-2.4.9a31.5,31.5,0,0,0-5.5,2.8c-1.8,1.1-2.7,1.9-2.9,2.5a2.8,2.8,0,0,1-1.7-2.3,5.2,5.2,0,0,1,.5-2.7,7.6,7.6,0,0,1,1.7-2.3,19.9,19.9,0,0,1,6.2-3.5,16.7,16.7,0,0,1,7-.9c4.2.5,6.7,2,7.4,4.5a6,6,0,0,1-.4,4.3A70.5,70.5,0,0,1,308.9,147.8Zm-14.6,16.1a7,7,0,0,0,3.6,1.9,10.3,10.3,0,0,0,4.3-.3,25.4,25.4,0,0,0,4.1-1.8,27.5,27.5,0,0,0,3.3-2.3,13.6,13.6,0,0,0,2.1-2.8,4.1,4.1,0,0,0,.7-3c-.2-.5-.9-1-2.2-1.4l-2-.3H306a2.8,2.8,0,0,1-1.7-.7,3.3,3.3,0,0,1-.8-2.1,1.6,1.6,0,0,0-.4.7,1.8,1.8,0,0,0-.1.6,1.4,1.4,0,0,0,0,.9c0,.4,0,.7-.1.7a23.1,23.1,0,0,0,.4,3.9q.3,2.7.3,3.9l-.6-.2h-.2v2.2a3.6,3.6,0,0,1-2.4-1.8,11.5,11.5,0,0,1-1.4-3.2h-.1c-.2.4-.5.3-.8-.1l-.3-.6c-.1-1.2-.2-2.4-.2-3.5s.1-.3,0-.8l-.6.7-.6.6c-.2.2-.4.3-.5.5Q291.3,160.9,294.3,163.9Zm14.6,5.9a9.8,9.8,0,0,0,4.5-2.7,14.9,14.9,0,0,0,3.4-4.4l-3,3.3Zm7.3-9.6-5.1,4.2v.2A15.8,15.8,0,0,0,316.2,160.2Zm.4,1.5-3.8,3.5h.2Z"/><path class="c" d="M337.7,133.8l.9,18.9.8,5.7.8,2.8h-1.8l-.5-.2a8.5,8.5,0,0,1-2.5-1.7,10,10,0,0,1-1.8-2.6c-.4-1-.8-1.9-1-2.6a19.1,19.1,0,0,1-.8-3.1h-.2a7.9,7.9,0,0,1-.8,2.3c-.9,1.8-2.1,2.8-3.5,2.9a6.9,6.9,0,0,1-4-1.2,10.7,10.7,0,0,1-3.2-3.5,16.6,16.6,0,0,1-1.3-2.7,11.4,11.4,0,0,1-.6-2.9c0-1-.1-1.9-.1-2.7a13.7,13.7,0,0,1,.4-3,16.5,16.5,0,0,1,.5-2.7l.6-3,2.2.7,2.5,15.5a35.5,35.5,0,0,0,5.7-14.1c.1-.4.1-1.3.2-2.6a29.4,29.4,0,0,1,.5-3.5,4.5,4.5,0,0,1,.9-2.2c.1-.2.2-.2.3-.3h.7l.4-.2h.2l2.2,2.4.7-.6Zm-18.3,10.6a10,10,0,0,0,.8,4.2,19.1,19.1,0,0,0,2,3.8l-1.4-3.2Zm.4-1.6a18.8,18.8,0,0,0,1.9,6.3l-1.9-6.4Zm17.1,2.8-.4-9.6a1.1,1.1,0,0,0-.3.8,3.4,3.4,0,0,0-.1,1v.9c0,.3.1.6.1,1s.1.6.1.8c.2,5.3.3,8.3.4,8.9v1.2a5.6,5.6,0,0,0,.1,1.9,1.6,1.6,0,0,0,.7.9Z"/><path class="c" d="M361.6,122.6a18.4,18.4,0,0,1,1.6,4.2,24.3,24.3,0,0,1,.6,4c.1,1,.2,2.5.2,4.5s.1,4,.1,6.5v15.9a12.8,12.8,0,0,0,.1,2.2,14.2,14.2,0,0,0,.1,1.9,10.1,10.1,0,0,0,.4,2c0,.2.1.4.4.9l.5,1.1a1,1,0,0,1-.4.9c-1.3,1-3.1.1-5.6-2.6a10.2,10.2,0,0,1-2.1-4.3,26.8,26.8,0,0,1-.6-6.1,43.4,43.4,0,0,0-.2-4.8,9.8,9.8,0,0,1-5.8,1.3,10.1,10.1,0,0,1-5.1-1.8,11.5,11.5,0,0,1-3.5-4.3c-1.4-2.9-1.8-7.1-1.1-12.5a3.2,3.2,0,0,1,.1-.8c0-.4.1-.7.1-.9s.1-.5.1-.9a4.4,4.4,0,0,0,.2-1,4.1,4.1,0,0,1,.3-.8,4.6,4.6,0,0,1,.3-.9,5.9,5.9,0,0,0,.4-.8l.6-.7v.6h.2v-.6a3.4,3.4,0,0,1,1.5.6,1.4,1.4,0,0,1,.5,1.1,2.4,2.4,0,0,1,0,1.2,10.4,10.4,0,0,1-.2,1.5,13,13,0,0,1-.3,1.3c-.1,1.5-.1,3-.1,4.5a32,32,0,0,0,.6,5.1,9.2,9.2,0,0,0,1.8,4.1,2.9,2.9,0,0,0,2.8.7,9.2,9.2,0,0,0,3.6-1.3,6.3,6.3,0,0,0,2.4-2.1,14.8,14.8,0,0,0,.9-4.1c.3-2.2.5-4.4.6-6.4s.2-3.8.3-5.2a4.1,4.1,0,0,1,.3-1.6,2.4,2.4,0,0,1,.8-1.1l1-.6a2,2,0,0,1,1-.2A.7.7,0,0,1,361.6,122.6Zm-19.1,4.5h.2l.5-1.7Z"/><path class="c" d="M180.4,221.5a13.2,13.2,0,0,1,6.9,2.8,15.6,15.6,0,0,1,4.6,5.6,21.5,21.5,0,0,1,2.1,7.2,24,24,0,0,1-.3,7.6,19.1,19.1,0,0,1-3,6.9,15.2,15.2,0,0,1-5.6,4.8,17.3,17.3,0,0,1-5,1.5,18.9,18.9,0,0,1-5.8-.1,9.5,9.5,0,0,1-4.8-1.9,8.1,8.1,0,0,1-1.9-2.1,10.2,10.2,0,0,1-1.6-3.1,1.8,1.8,0,0,1,.8-2.4h1.8v.5h.4v.8l.5-.3-.3,1.4.8-.8a2.2,2.2,0,0,0,1.3,2,3.6,3.6,0,0,0,2.3.2l2.6-.4v-1.4h-.2l-.4-.4h-.2l-.6.5-.9.2a1.4,1.4,0,0,1-.8-.5l-.3-.4a1.4,1.4,0,0,1-.2-.6c-.4-2.7-.5-4.3-.6-4.8s-.4-4.3-.5-7.6-.4-5.8-.5-7.4l-1.5.6-.7.5-.8.9-1,1c-1.2,1.1-1.6,2-1.4,2.9a2.3,2.3,0,0,1-1.9-3.5,8.8,8.8,0,0,1,1.1-2.4,7,7,0,0,1,1.2-1.8,19,19,0,0,1,6.8-4.6A15.8,15.8,0,0,1,180.4,221.5Zm-12,29.2.4-1.3-.6,1.3Zm5.6-6.6-1.1-12.7.3,8.3a8.8,8.8,0,0,1,.2,1.6Zm3.6,6.9a14.7,14.7,0,0,0,6.8-4.2,16.1,16.1,0,0,0,3.5-7.3,24.3,24.3,0,0,0,.4-3,13.7,13.7,0,0,0-.4-3.4,4.8,4.8,0,0,0-1.2-2.7,12.6,12.6,0,0,0-2-2l-2.5-1.3a9.2,9.2,0,0,0-2.9-.4,11.8,11.8,0,0,0-3.1.5.6.6,0,0,0-.2.5V229c0,.5.1,1,.1,1.5s.1,1.1.2,2,.2,1.5.2,1.9C176.7,236.7,177.1,242.2,177.6,251Zm10,1.8a10.2,10.2,0,0,0,3.3-4.9l-3.4,4.7Zm2.8-9.1-2.5,4.4A8.7,8.7,0,0,0,190.4,243.7Z"/><path class="c" d="M217.5,220.2l-5.8,1.7-5.8,1.8.4,8.5c4.4-1.1,8-1.4,10.9-.8v.3l-.3.8.4.2-1.1.7h0c.4.1.4.2-.2.4s-1,1.5-4,2.4l-5.5,1.6.4,7.2.6-.2c3-1.3,6.9-2.7,11.5-4.2a1.2,1.2,0,0,0,.5.5,26.3,26.3,0,0,0-3.5,1.5h0l3.9-1.3,1,.2-3.3,1.4v.2l4-1.4c.3.2.2.8-.2,1.7a2,2,0,0,1-.6.7l-.8.5-1,.4-1,.3-.9.4-2.5,1.4-3.4,1.8a22.8,22.8,0,0,1-4.2,1.4,3.7,3.7,0,0,1-1.6,1.7,4.4,4.4,0,0,1-2.1.7c-.6,0-1-.1-1.1-.5H202c-.3.6-1.1.3-2.4-1.1s-1.9-2.1-1.8-2.6l.2-.2-.6-.4.4-.8h1.3a1,1,0,0,1-.2-.9c.1-.3.3-.4.8-.4h.2a23.8,23.8,0,0,0,.4-3c.1-1.1.1-2.3.1-3.4a8.8,8.8,0,0,1-3.1.7l-.4-1.6.7-.4c0-.3,0-.5.1-.6a.7.7,0,0,1,.5-.4c-.1-1.1.6-2.1,2.2-3,0-.4-.1-1.1-.2-2.3s-.2-2.4-.3-3.9-.1-2.7-.2-3.7a2.6,2.6,0,0,1-1.9-.9.9.9,0,0,1-1.1-.4l-.8.2-.7-1.3a10,10,0,0,1,2.8-1.5.4.4,0,0,1,.2-.3c.1-.2.4-.3.8-.5l1.2-.4,1.4-.5a32.1,32.1,0,0,1,6.2-2.3,45.6,45.6,0,0,1,5.7-.9l2.2-.2,3.6-.3.8.5-.5,2.1A3.2,3.2,0,0,1,217.5,220.2Zm-12.3,9.4v.1Zm0,3v0h.1Zm.6,13.1-.4-7.5h-.2l.4,7.6C205.6,245.7,205.7,245.7,205.8,245.7Zm4.6-27.8-3.6,1h.2Zm5,25.3c-1.8.1-4.5,1-8.3,2.8v.2Zm-2.5-26.1-2,.5v.2Z"/><path class="c" d="M245.8,249.4a6.2,6.2,0,0,1,.3,1,4.1,4.1,0,0,0,.3,1,3.4,3.4,0,0,1,.1,1.1h-1.9l-1.5-1.4-1.5-1.4a9.2,9.2,0,0,1-1.3-1.4,17.4,17.4,0,0,1-1-1.9c-.5-1.4-1.1-3.7-1.9-6.8a6.4,6.4,0,0,1-.2-.9,5,5,0,0,0-.2-1.2c-.1-.3-.2-.6-.4-.7a.6.6,0,0,0-.7-.2l-1,.2-1.1.5-.7.2-1.5.4-1.8.6-1.3.6c-.7.7-1.1,2.6-1.2,5.8l-.7-.3-.3.4-.7-.6-.7-.6-.7-.6-.5-.7a4.9,4.9,0,0,1-.4-1.1,7.1,7.1,0,0,1-.1-1.5v-1.3a9.9,9.9,0,0,1,.1-1.5,8.4,8.4,0,0,1,.1-1.2c.3-3.5.6-6.4,1-9a29.8,29.8,0,0,1,2.1-7.2c1.8-4.4,3.8-6.7,6.1-7a5.8,5.8,0,0,1,5.1,1.5,11.2,11.2,0,0,1,3.4,5.1,37.9,37.9,0,0,1,1.8,7.2c.4,2.7.8,5.6,1,8.9a74.3,74.3,0,0,0,.7,7.5C245,245.3,245.4,247.5,245.8,249.4Zm-21.5-7.5h.2v0Zm.2-2.6v0Zm0,1.2v0Zm1,1.3.2-3.9-.4,3.9Zm.7-7,.8-5.1-1,5.2Zm.8,6.4v-.5l-.2.5Zm.1-1.2v-1.5l-.2,1.5Zm.1-11.1v-.7l-.2.7Zm.9,5.2h.1l3.4-10.5a12.1,12.1,0,0,0-1.8,3.1,19,19,0,0,0-1.1,3.9A22.5,22.5,0,0,0,228.1,234.1Zm7.8-1.5-.6-12.2a15.6,15.6,0,0,0-3.9,6,28.7,28.7,0,0,0-2,7.3l1.6-.4,1.7-.5,1.5-.2Zm-.6-19.4V213h-.5l-.2.2Z"/><path class="c" d="M271.9,237.2q.5.3-.3,1.8a1.8,1.8,0,0,1-.7.8l-1.1.6-1.3.5a2.3,2.3,0,0,0-1.1.5,13.1,13.1,0,0,0-2.6,1.5l-3.3,1.8a32.6,32.6,0,0,1-4.2,1.5,2.1,2.1,0,0,1-.6,1,2.7,2.7,0,0,1-.8.7l-.8.5-.9.3h-1.4c-.2-.1-.3-.2-.3-.4h-.3c-.3.7-1.1.3-2.4-1.1s-1.9-2.3-1.9-2.9.1-.2.3-.2l-.7-.5.4-.8,1.4.2a2.3,2.3,0,0,1-.3-1.1c.1-.3.4-.4.8-.4h.2c.3-1.9.4-3,.4-3.2.1-3.5.1-7.8-.1-12.8s-.3-8.2-.3-9.4a4.3,4.3,0,0,1,1.8-3.6l2.1-1.5.9.8.9,4.9,1.5,23.8.5-.2c3-1.4,6.9-2.9,11.5-4.5l.5.5-3.5,1.6v.2l3.9-1.5,1.1.4a18.8,18.8,0,0,0-3.4,1.4v.2ZM255.1,221v2.8h.2Zm.8,20-.8-16.4v5.1l.6,11.4Zm.6-1.1v.9h0Zm.1,1.9h0c-.1,0-.1,0-.1.1h.1Zm.6-.2,8.4-3.1c-1.8.1-4.6,1-8.4,2.9Z"/><path class="c" d="M288.6,224.3v-.2l.3-.7-.5.4v-.6c-.1,0-.1-.1-.1-.2h-.5a21.2,21.2,0,0,1,1.4-4.9,22.3,22.3,0,0,0,1.6-4.3l.2-.5a4.5,4.5,0,0,1,.2-.8c0-.2.1-.5.1-.8v-.7a1.4,1.4,0,0,0-.2-.6,1.6,1.6,0,0,0-1.4-.5,3.9,3.9,0,0,0-2,.5l-1.8.8-1.4.8a17.4,17.4,0,0,0-5.4,6,12.9,12.9,0,0,0-1.8,7.4,1.8,1.8,0,0,0,1.6,1.6,14.3,14.3,0,0,0,3.8.4,9.6,9.6,0,0,1,3,.3,7.6,7.6,0,0,1,4.4,2.9,11.4,11.4,0,0,1,2.2,4.9,5.5,5.5,0,0,1-1.4,4.6,11.3,11.3,0,0,1-4.3,3.5,12.5,12.5,0,0,1-5.7,1.3,6.9,6.9,0,0,1-5-1.6,10.5,10.5,0,0,1-2.2-2.8,3.6,3.6,0,0,1-.5-2.9,3,3,0,0,1,2.5-1.8,2,2,0,0,1,2.4,1.3l.6-.2-.6,1.7.8-.6-.3,1.4a21.3,21.3,0,0,0,3.8-1.4,14.1,14.1,0,0,0,3.4-2.2,9.3,9.3,0,0,0,2.3-3,23.8,23.8,0,0,0-3.4.2,27.7,27.7,0,0,1-4,.1,6.1,6.1,0,0,1-3.1-1.1,11.2,11.2,0,0,1-3.7-4.1,14.5,14.5,0,0,1-1.7-5.2,17.9,17.9,0,0,1,.4-5.6,20,20,0,0,1,2-5.3,17.5,17.5,0,0,1,3.9-4.3,14.6,14.6,0,0,1,5.3-2.6,9.9,9.9,0,0,1,6.6.5,6.6,6.6,0,0,1,4,4.5,14.2,14.2,0,0,1-.4,8.1,13.6,13.6,0,0,1-4.4,7l-.3-.5-.5.4ZM275,215.1l.9-1.7-1,1.7Zm1.4,1,2.7-4.5a9.4,9.4,0,0,0-2.9,4.6Z"/></g></svg>