<svg xmlns="http://www.w3.org/2000/svg" xmlns:xlink="http://www.w3.org/1999/xlink" viewBox="0 0 2064.5 378.8"><defs><style>.a{fill:none;}.b{clip-path:url(#a);}.c{fill:#f1faff;}.d{fill:#094e8e;}.e{fill:#f57f36;}.f{fill:#282625;opacity:0.22;}.g{fill:url(#b);}.h{fill:#fff;}.i{fill:url(#c);}.j{fill:url(#d);}.k{fill:url(#e);}.l{fill:url(#f);}.m{fill:url(#g);}.n{fill:url(#h);}.o{fill:url(#i);}.p{fill:url(#j);}.q{fill:url(#k);}.r{fill:url(#l);}.s{fill:url(#m);}.t{fill:url(#n);}.u{fill:url(#o);}.v{fill:url(#p);}.w{fill:#c7d1ea;}.x{fill:#f7931e;}.y{fill:#db7712;}.z{fill:#ffa245;}.aa{fill:#a55a0f;}.ab{fill:#363636;}.ac{fill:#555759;}.ad{fill:#222223;}.ae{fill:#141718;}.af{fill:#0e1928;}.ag{fill:#f2f2f2;}.ah{fill:#f15a24;}.ai{fill:#e5e5e5;}.aj{fill:#ea2a21;}.ak{fill:#e06927;}.al{fill:#fe7f32;}.am{fill:#cc5e27;}</style><clipPath id="a"><rect class="a" x="-2" y="-0.1" width="2064" height="382"/></clipPath><linearGradient id="b" x1="1714.64" y1="278.92" x2="1893.21" y2="278.92" gradientUnits="userSpaceOnUse"><stop offset="0" stop-color="#0060b5"/><stop offset="1" stop-color="#0e507a"/></linearGradient><linearGradient id="c" x1="1733.98" y1="305.35" x2="1760.41" y2="305.35" gradientUnits="userSpaceOnUse"><stop offset="0" stop-color="#022c5a"/><stop offset="1" stop-color="#022c5a"/></linearGradient><linearGradient id="d" x1="1847.43" y1="305.35" x2="1873.86" y2="305.35" xlink:href="#c"/><linearGradient id="e" x1="1714.64" y1="226.07" x2="1893.21" y2="226.07" xlink:href="#b"/><linearGradient id="f" x1="1733.98" y1="252.5" x2="1760.41" y2="252.5" xlink:href="#c"/><linearGradient id="g" x1="1847.43" y1="252.5" x2="1873.86" y2="252.5" xlink:href="#c"/><linearGradient id="h" x1="1714.64" y1="173.78" x2="1893.21" y2="173.78" xlink:href="#b"/><linearGradient id="i" x1="1733.98" y1="200.21" x2="1760.41" y2="200.21" xlink:href="#c"/><linearGradient id="j" x1="1847.43" y1="200.21" x2="1873.86" y2="200.21" xlink:href="#c"/><linearGradient id="k" x1="1714.64" y1="121.5" x2="1893.21" y2="121.5" xlink:href="#b"/><linearGradient id="l" x1="1733.98" y1="147.93" x2="1760.41" y2="147.93" xlink:href="#c"/><linearGradient id="m" x1="1847.43" y1="147.93" x2="1873.86" y2="147.93" xlink:href="#c"/><linearGradient id="n" x1="1714.64" y1="69.22" x2="1893.21" y2="69.22" xlink:href="#b"/><linearGradient id="o" x1="1733.98" y1="95.64" x2="1760.41" y2="95.64" xlink:href="#c"/><linearGradient id="p" x1="1847.43" y1="95.64" x2="1873.86" y2="95.64" xlink:href="#c"/></defs><g class="b"><rect class="c" x="-2" y="1.9" width="2065" height="377"/><path class="d" d="M753.5,207.8h8c.5,4.3,2.6,6.2,7.5,6.2s7-2.1,7-4.8-1.3-3.7-6.6-4.4l-4.2-.6c-7.6-1.1-10.8-3.7-10.8-9.9s4.8-11.3,14.4-11.3,14.4,4.7,14.4,11.8h-7.7c-.5-3.8-2.7-5.7-6.9-5.7s-6.1,1.9-6.1,4.6,1.1,3.3,5.7,4l4.1.5c7.6,1.2,11.8,4,11.8,10.5s-5,11.3-15.3,11.3S753.5,215.5,753.5,207.8Z"/><path class="d" d="M789.8,211.6V198.9h-4v-5.5h4v-7.8h7.6v7.8h5.4v5.5h-5.4v13c0,1.8.9,2.5,2.7,2.5h2.7v5.1l-4.6.3C791.8,219.8,789.8,217.8,789.8,211.6Z"/><path class="d" d="M805.3,212.1c0-4,2.4-7.3,9-7.8l5.6-.5c2.1-.2,2.8-.9,2.8-2s-1.4-3.5-4-3.5-4,1.2-4.3,3.5h-7.7c0-5.4,3.5-8.9,11.9-8.9s11.8,3.5,11.8,8.9v11c0,3.6.3,5.8.8,6.7h-7a5.3,5.3,0,0,1-1.1-3.6c-1.5,2.7-3.9,4.1-8.3,4.1C808.6,220,805.3,216.9,805.3,212.1Zm17.4-3.1v-1.5a4.9,4.9,0,0,1-2.8.8l-2.9.2c-2.8.3-3.9,1.5-3.9,3.1s1.2,3.3,4,3.3S822.7,212.2,822.7,209Z"/><path class="d" d="M834.8,219.5V193.4h7.4v5.7c1.3-4.6,3.5-6,7-6a8.8,8.8,0,0,1,2.4.3v6.8h-2.7c-3.9,0-6.3,2.7-6.3,7.5v11.9Z"/><path class="d" d="M857.1,211.6V198.9h-4v-5.5h4v-7.8h7.6v7.8h5.4v5.5h-5.4v13c0,1.8.8,2.5,2.7,2.5h2.7v5.1l-4.7.3C859.1,219.8,857.1,217.8,857.1,211.6Z"/><path class="d" d="M873.1,186.3c0-2.2,1.6-3.9,4.4-3.9s4.4,1.7,4.4,3.9-1.6,3.9-4.4,3.9S873.1,188.5,873.1,186.3Zm.5,33.2V193.4h7.7v26.1Z"/><path class="d" d="M902.1,219.5V203.8c0-3-1.1-4.6-3.7-4.6s-4.9,2-4.9,5.8v14.5h-7.7V193.4h7.3v4a8.1,8.1,0,0,1,7.7-4.5c6,0,9,3.1,9,9.4v17.2Z"/><path class="d" d="M913.3,205.7c0-7.7,4.5-12.8,11.5-12.8,4.2,0,6.6,1.9,7.9,4.6v-4.1H940v23.8c0,8.1-4.3,12.7-13.3,12.7s-12-3.7-12-9.5H922c.4,3,2,4.5,5.1,4.5s5.2-1.8,5.2-5.5v-4.8c-1.4,2.4-3.8,3.9-7.5,3.9C917.8,218.5,913.3,213.4,913.3,205.7Zm19,0c0-4.9-2.3-7.4-5.6-7.4s-5.7,2.5-5.7,7.4,2.3,7.4,5.7,7.4S932.3,210.6,932.3,205.7Z"/><path class="d" d="M956.1,212.1c0-4,2.3-7.3,9-7.8l5.6-.5c2.1-.2,2.7-.9,2.7-2s-1.3-3.5-4-3.5-4,1.2-4.2,3.5h-7.7c0-5.4,3.5-8.9,11.8-8.9s11.9,3.5,11.9,8.9v11c0,3.6.3,5.8.8,6.7h-7.1a5.3,5.3,0,0,1-1.1-3.6c-1.4,2.7-3.9,4.1-8.2,4.1C959.4,220,956.1,216.9,956.1,212.1Zm17.3-3.1v-1.5a4.2,4.2,0,0,1-2.7.8l-2.9.2c-2.9.3-4,1.5-4,3.1s1.2,3.3,4.1,3.3S973.4,212.2,973.4,209Z"/><path class="d" d="M987.3,211.6V198.9h-3.9v-5.5h3.9v-7.8H995v7.8h5.4v5.5H995v13c0,1.8.8,2.5,2.6,2.5h2.8v5.1l-4.7.3C989.3,219.8,987.3,217.8,987.3,211.6Z"/><path class="d" d="M1015.5,206.5c0-8.2,4.9-13.6,13.6-13.6s13.7,5.4,13.7,13.6-4.9,13.5-13.7,13.5S1015.5,214.6,1015.5,206.5Zm19.6,0c0-5.3-2.2-7.8-6-7.8s-5.9,2.5-5.9,7.8,2.2,7.7,5.9,7.7S1035.1,211.7,1035.1,206.5Z"/><path class="d" d="M1062.5,219.5V203.8c0-3-1.1-4.6-3.7-4.6s-4.9,2-4.9,5.8v14.5h-7.7V193.4h7.3v4a8.2,8.2,0,0,1,7.8-4.5c5.9,0,9,3.1,9,9.4v17.2Z"/><path class="d" d="M1074.7,219.5v-36h7.7v36Z"/><path class="d" d="M1087.2,224h2.9c2.7,0,4.1-1.2,4.1-3.4a9.3,9.3,0,0,0-.7-3.3l-8.6-23.9h8l6,20.2,6-20.2h8l-8.6,23.9c-3.3,9.3-7.1,12.1-14.2,12.1h-2.9Z"/><path class="e" d="M1169.7,184.8h-9.5a8.2,8.2,0,0,1,3.2,5.8h6.3v2.9h-6.2c-.6,5.8-5.2,9.5-12.5,9.7,4.5,4.6,9.3,10.4,14.1,16.3h-5.5c-4.4-5.4-8.6-10.3-13.9-16V200h3.1c6.1,0,9.5-2.6,9.9-6.5h-13v-2.9h12.8c-.8-3.3-3.8-5-8.8-5h-4v-3.7h24Z"/><path class="e" d="M1183.5,207.3h7.1c.5,4.6,3.1,6.5,7.1,6.5s6.5-2.1,6.5-5.3-2.2-4.4-5.9-4.4h-4v-5.9h3.5c3.5,0,5.9-1.1,5.9-4.1s-2.6-4.8-6.1-4.8-6,1.8-6.5,5.5H1184c0-7.1,4.8-11.8,13.7-11.8s13.7,4.4,13.7,10.3-2.4,6.9-6,7.7c4,1,6.5,3.5,6.5,8.7s-5.5,10.3-14.2,10.3S1183.5,216.3,1183.5,207.3Z"/><path class="e" d="M1243.1,199.3c0,13.6-5.4,20.7-14.8,20.7-7.2,0-12-3-12.9-9.9h7.1c.4,2.3,2.2,4.1,5.5,4.1s6.7-3.5,7.3-10.6a9.7,9.7,0,0,1-8.1,3.6c-8,0-12.8-4.4-12.8-11.7s4.8-12.5,14-12.5S1243.1,188.2,1243.1,199.3Zm-21-4c0,4,2.6,6.4,6.6,6.4s6.5-2.4,6.5-6.4-2.6-6.4-6.5-6.4S1222.1,191.3,1222.1,195.3Z"/><path class="e" d="M1244.3,219.5l13.2-36h6.9l-13.2,36Z"/><path class="e" d="M1296.2,219.5V203.6c0-3.1-1-4.4-3.1-4.4s-4.3,1.8-4.3,5.5v14.8h-7.4V203.6c0-3.1-1.1-4.4-3.1-4.4s-4.3,1.8-4.3,5.5v14.8h-7.4V193.4h7.4v4c1.3-2.5,3.3-4.5,6.8-4.5s6.2,1.5,7.4,4.6a7.7,7.7,0,0,1,7.3-4.6c5.4,0,8.2,3.1,8.2,9.4v17.2Z"/><path class="e" d="M1307.1,206.5c0-8.2,4.9-13.6,13.6-13.6s13.7,5.4,13.7,13.6-4.9,13.5-13.7,13.5S1307.1,214.6,1307.1,206.5Zm19.6,0c0-5.3-2.2-7.8-6-7.8s-5.9,2.5-5.9,7.8,2.2,7.7,5.9,7.7S1326.7,211.7,1326.7,206.5Z"/><ellipse class="f" cx="1814" cy="308.9" rx="135" ry="8"/><rect class="g" x="1714.6" y="258.3" width="178.6" height="41.26" rx="5.5"/><path class="h" d="M1723,266.7v17.4h161.8V266.7Zm16.5,12.2a3.6,3.6,0,1,1,3.5-3.5A3.6,3.6,0,0,1,1739.5,278.9Zm13.8,0a3.6,3.6,0,0,1,0-7.1,3.6,3.6,0,1,1,0,7.1Zm13.9,0a3.6,3.6,0,1,1,3.5-3.5A3.6,3.6,0,0,1,1767.2,278.9Z"/><rect class="i" x="1734" y="299.6" width="26.4" height="11.6"/><rect class="j" x="1847.4" y="299.6" width="26.4" height="11.6"/><rect class="k" x="1714.6" y="205.4" width="178.6" height="41.26" rx="5.5"/><path class="h" d="M1723,213.8v17.4h161.8V213.8Zm16.5,12.3a3.6,3.6,0,1,1,0-7.1,3.6,3.6,0,0,1,0,7.1Zm13.8,0a3.6,3.6,0,1,1,3.6-3.6A3.6,3.6,0,0,1,1753.3,226.1Zm13.9,0a3.6,3.6,0,1,1,0-7.1,3.6,3.6,0,0,1,0,7.1Z"/><rect class="l" x="1734" y="246.7" width="26.4" height="11.6"/><rect class="m" x="1847.4" y="246.7" width="26.4" height="11.6"/><rect class="n" x="1714.6" y="153.2" width="178.6" height="41.26" rx="5.5"/><path class="h" d="M1723,161.5v17.4h161.8V161.5Zm16.5,12.3a3.6,3.6,0,1,1,0-7.1,3.6,3.6,0,0,1,0,7.1Zm13.8,0a3.6,3.6,0,1,1,3.6-3.6A3.6,3.6,0,0,1,1753.3,173.8Zm13.9,0a3.6,3.6,0,1,1,0-7.1,3.6,3.6,0,0,1,0,7.1Z"/><rect class="o" x="1734" y="194.4" width="26.4" height="11.6"/><rect class="p" x="1847.4" y="194.4" width="26.4" height="11.6"/><rect class="q" x="1714.6" y="100.9" width="178.6" height="41.26" rx="5.5"/><path class="h" d="M1723,109.3v17.4h161.8V109.3Zm16.5,12.2a3.6,3.6,0,1,1,3.5-3.5A3.6,3.6,0,0,1,1739.5,121.5Zm13.8,0a3.6,3.6,0,0,1,0-7.1,3.6,3.6,0,1,1,0,7.1Zm13.9,0a3.6,3.6,0,1,1,3.5-3.5A3.6,3.6,0,0,1,1767.2,121.5Z"/><rect class="r" x="1734" y="142.1" width="26.4" height="11.6"/><rect class="s" x="1847.4" y="142.1" width="26.4" height="11.6"/><rect class="t" x="1714.6" y="48.6" width="178.6" height="41.26" rx="5.5"/><path class="h" d="M1723,57V74.4h161.8V57Zm16.5,12.2a3.6,3.6,0,1,1,3.5-3.5A3.6,3.6,0,0,1,1739.5,69.2Zm13.8,0a3.6,3.6,0,0,1,0-7.1,3.6,3.6,0,1,1,0,7.1Zm13.9,0a3.6,3.6,0,1,1,3.5-3.5A3.6,3.6,0,0,1,1767.2,69.2Z"/><rect class="u" x="1734" y="89.8" width="26.4" height="11.6"/><rect class="v" x="1847.4" y="89.8" width="26.4" height="11.6"/><ellipse class="w" cx="1926" cy="315.5" rx="73.7" ry="10.4"/><path class="x" d="M1981.3,317.7c-6.5,3.6-23.6,2.7-38.6-5.4l5.8-2,14.9-5.1,4.8-1.7s15,2.6,15.9,10.1C1984.2,315.3,1983.2,316.7,1981.3,317.7Z"/><path class="y" d="M1981.3,317.7c-6.5,3.6-23.6,2.7-38.6-5.4l5.8-2,5.5,2.3S1967.3,319.2,1981.3,317.7Z"/><path class="z" d="M1981.3,317.7c-.6-9.2-17.7-10-17.7-10l-.2-2.6,4.8-1.7s15,2.6,15.9,10.1C1984.2,315.3,1983.2,316.7,1981.3,317.7Z"/><path class="aa" d="M1970.7,320.5a61.9,61.9,0,0,1-28.4-7.5c-.3-.1-.4-.4-.4-.8a.7.7,0,0,1,.5-.6l25.5-8.8c.1,0,.3-.1.4,0s15.6,2.7,16.4,10.7c.2,1.8-.6,3.2-2.4,4.4S1975.7,320.5,1970.7,320.5Zm-26.2-8c15.5,7.8,31.9,7.8,37.2,4.2a3.1,3.1,0,0,0,1.7-3c-.6-6.5-13.4-9.2-15.1-9.4Z"/><path class="ab" d="M1968.6,302.9c-14,17.1-31.3,8.3-36.3,5l-1.5-1h0l39-69.5h0C1970,237.9,1986.3,281.3,1968.6,302.9Z"/><path class="x" d="M1909.8,311c-15.6,8.7-33.4,9.5-39.4,5.5a3.6,3.6,0,0,1-2-3.6c.6-7.5,15.6-10.4,15.6-10.4l2.9.9,15.5,5.2Z"/><path class="z" d="M1886.9,303.5v.9s-16,4.2-16.4,12.1a3.6,3.6,0,0,1-2-3.6c.6-7.5,15.6-10.4,15.6-10.4Z"/><path class="y" d="M1902.4,308.7l7.4,2.3c-15.6,8.7-33.4,9.5-39.4,5.5,0,0,15,.5,27.4-6A34,34,0,0,1,1902.4,308.7Z"/><path class="aa" d="M1881.2,319.6c-4.8,0-8.7-.9-11.2-2.4a4.6,4.6,0,0,1-2.4-4.3c.8-8,15.7-10.9,16.3-11h.4l25.7,8.4a.7.7,0,0,1,.5.6.9.9,0,0,1-.4.8C1900.3,317.1,1889.4,319.6,1881.2,319.6Zm3.4-16.4c-1.7.3-15,3.4-15.6,9.8a3.2,3.2,0,0,0,1.7,3c5.4,3.5,21.8,3.2,37.1-4.8Z"/><path class="ab" d="M1919.4,307l-.4.3a23.8,23.8,0,0,1-7,3.3c-6.4,1.6-16.1,1.5-27.5-8.2-21.8-18.5-14.2-52.6-14.2-52.6h0l2.3,2.6Z"/><path class="ab" d="M2010.7,202h0c-2.1,8.3-6.8,16.6-16.3,23.8s-18.7,12-25.6,14.5c-13.5,5-20.6,2.6-20.6,2.6L1938,229.3s1.8-20.9,32.5-32.6a3.2,3.2,0,0,1,.9-.3,65.8,65.8,0,0,0,35.1-31h0C2006.4,165.4,2015.5,183.3,2010.7,202Z"/><path class="ac" d="M2006.4,165.4c-7.6,30.6-44.5,36.6-44.5,36.6l8.5-5.4.9-.3C1996.5,186.9,2006.3,165.8,2006.4,165.4Z"/><path class="ad" d="M2010.7,202c-2.1,8.3-6.8,16.6-16.3,23.8s-18.7,12-25.6,14.5l-6.7-20.8a26,26,0,0,0,24.7,5.6C2001.8,221,2010.6,202.3,2010.7,202Z"/><path class="ae" d="M1961.5,243.3c-8.6,1.8-13.1.4-13.4.3l-.3-.2-10.2-13.6a.5.5,0,0,1-.1-.6c0-.2,2.2-21.8,33.8-33.5a65.6,65.6,0,0,0,34.6-30.6c.2-.2.4-.5.7-.4a.5.5,0,0,1,.6.4,60.7,60.7,0,0,1,5.6,21.7c.8,11.3-1.6,27.4-17.8,39.6C1980.5,237.1,1969.3,241.6,1961.5,243.3Zm-12.8-1c2,.5,17.7,3.6,45.3-17.1,12.5-9.4,18.3-22.3,17.3-38.2a62.6,62.6,0,0,0-4.9-19.9,68,68,0,0,1-34.8,30c-28.8,10.7-32.5,29.6-32.9,32Z"/><path class="ab" d="M1913,199.7s-.6,9.6-17.3,31c-2.3,3-5,6.2-8,9.8-15.2,17.4-33.1,17.5-44.6,15h0a50.7,50.7,0,0,1-12-4.2s18.5-15.3,31.7-33.8c7.6-10.6,13.1-17.2,19.3-21.5l1.4-1.3c.7-.4,2.3-1.5,3-1.8,8.6-5.6,13.8-4.6,13.8-4.6Z"/><path class="ac" d="M1882,196c-10.8,11.2-17.5,25.8-27.4,37.1s-23.6,18.2-23.6,18.2,18.5-15.2,31.7-33.8C1870.3,207,1875.9,200.4,1882,196Z"/><path class="ae" d="M1869.8,254.3a44.5,44.5,0,0,1-19.8,3c-11.1-.9-19.1-5.1-19.4-5.4a.5.5,0,0,1-.3-.5c0-.3.1-.6.3-.6s19.6-14.6,31.5-33.6c18.8-30.1,37.4-29.6,38.2-29.5s.3,0,.4.2l12.8,11.3a.5.5,0,0,1,.2.6c0,.5-1,13.1-25.5,41.2A47.4,47.4,0,0,1,1869.8,254.3Zm-37.5-3.1a51.7,51.7,0,0,0,17.8,4.6c14.4,1.1,26.9-4.2,36.9-15.8,21.9-25.2,24.8-37.9,25.2-40l-12.3-10.9c-2.3.1-19.5,1.4-36.7,28.9C1852.8,234.8,1836.4,248.1,1832.3,251.2Z"/><path class="ad" d="M1895.8,230.8c-2.4,3-5.1,6.2-8.1,9.7-15.1,17.5-33,17.6-44.6,15,32.1.8,48.1-32.2,48.1-32.2Z"/><path class="af" d="M1961.4,262.5c-1.2,24.9-19.7,37.5-41.6,36.4s-39.2-15.7-38.1-40.3c.9-17.4,9-32.5,11.6-43.7,1.3-5.4,5.7-20,7.5-22.2,5.8-7.2,13.6-3.7,20.6-4.7a15.3,15.3,0,0,1,3.7-.2,22.5,22.5,0,0,1,3.6.6c6.9,1.6,15.1-1.2,20.2,6.5,1.5,2.4,4.7,17.3,5.3,22.9C1955.8,229.1,1962.3,244.5,1961.4,262.5Z"/><path class="ab" d="M1973.3,260.2c-1.3,28-18.8,43.9-42.5,46.7h0a62,62,0,0,1-11.5.4h-.4c-20.3-1.1-37-10.8-44.8-27.4h0c-3.3-7.1-4.9-15.6-4.5-25.1a28.7,28.7,0,0,1,.7-5c1.3-6.5,4.3-13,7-19.2a92.3,92.3,0,0,0,3.9-9.6c3-9.6,6.2-18.8,4.8-24.2-1.9-7.1,5.4-24.7,7.8-27.6,7.7-9.3,18.2-4.6,27.4-6a21,21,0,0,1,5-.3,19.3,19.3,0,0,1,4.8.8c9.2,2.2,20.1-1.6,27,8.4,2.1,3.1,9,22.5,8,29.8-.7,5.4-1.9,12.7-.3,21,1,4.5,2.5,9.4,4,14.5h0c.4,1.6.9,3.3,1.4,4.9h0c.8,3.2,1.4,6.4,1.9,9.7h0A54.9,54.9,0,0,1,1973.3,260.2Z"/><path class="ag" d="M1961.4,262.5c-.8,51.2-83.5,46.8-79.6-3.9,1.9-24.2,20.3-50.1,19-65.9,5.8-7.2,13.6-3.7,20.6-4.7a17.9,17.9,0,0,1,7.3.4c6.9,1.6,15.1-1.2,20.2,6.5A214.4,214.4,0,0,1,1961.4,262.5Z"/><path class="ah" d="M1904.8,172.4a68.6,68.6,0,0,0,38.7,2S1924.1,190.9,1904.8,172.4Z"/><path class="ab" d="M1923.8,238.7h-.8c-3.5-.7-4.5-4.6-4.8-7.9-1,2.4-2.5,5-4.5,6.2a4,4,0,0,1-3.5.5,5.9,5.9,0,0,1-3.6-3.1c-2.2-5.2,2.4-14.3,2.6-14.7a1,1,0,0,1,1-.3.8.8,0,0,1,.3,1.1c-.1,0-4.5,8.8-2.6,13.3a3.9,3.9,0,0,0,2.8,2.3,2.9,2.9,0,0,0,2.4-.3c3.4-2.2,5.4-10.1,5.4-10.2s.4-.7.8-.6a.7.7,0,0,1,.5.9c0,.1-1.4,10.4,3.5,11.3a2.1,2.1,0,0,0,1.8-.4c2.1-1.8,2.3-7.6,2.3-9.7a.8.8,0,0,1,.7-.7.8.8,0,0,1,.8.6c.6,2.3,2.8,8.5,5.8,8.6.3,0,1,.1,1.6-1.2,1.4-2.8.5-9.3-2.4-12.7a.6.6,0,0,1,.1-1,.8.8,0,0,1,1,.1c3.3,3.8,4.2,11,2.7,14.2a2.9,2.9,0,0,1-3,1.9c-2.9-.1-4.8-3.3-5.9-6.1-.3,2.5-1,5.6-2.6,7A3.8,3.8,0,0,1,1923.8,238.7Z"/><path class="ag" d="M1989.5,166.6c-.9,17.7-12.4,29.7-28.4,36.1q-4,1.5-8.4,2.7a99.8,99.8,0,0,1-30.3,2.9,98.2,98.2,0,0,1-24.5-4.2l-3.7-1.2-.6-.2h0c-20.3-7.4-34.7-21.7-33.6-42.7.7-12.4,6.5-24.7,15.5-34.9a29.4,29.4,0,0,1,3-3.1c12.9-13.1,31.1-21.8,49.5-20.9s37.8,12.7,49.2,28.3C1985.3,140.6,1990.1,153.9,1989.5,166.6Z"/><path class="ai" d="M1913.4,163.9s3-26.4-16.7-36.5,19.8-10,19.8-10l9.3,48.2Z"/><ellipse class="h" cx="1895.5" cy="155.2" rx="11.1" ry="13.3" transform="translate(-5.8 202) rotate(-6.1)"/><ellipse class="ae" cx="1896.9" cy="156.3" rx="7.9" ry="9.2" transform="translate(2.5 340.5) rotate(-10.3)"/><path class="ae" d="M1897,169h0a10.6,10.6,0,0,1-8.9-3.2,15.4,15.4,0,0,1-4.4-9.5,15.5,15.5,0,0,1,2.3-10.2,11,11,0,0,1,8-5c6.4-.7,12.4,4.9,13.2,12.7S1903.4,168.3,1897,169Zm-3-26.4a9.6,9.6,0,0,0-6.8,4.4,13.7,13.7,0,0,0-2.1,9.2h0a14.4,14.4,0,0,0,4,8.5,9.2,9.2,0,0,0,7.6,2.9h0c5.7-.6,9.7-6.7,8.9-13.5s-5.8-12-11.6-11.5Zm-9.6,13.7Z"/><path class="h" d="M1896.1,152.6a2.6,2.6,0,0,1-2.7,2.2,2.5,2.5,0,0,1-2.5-2.4,2.5,2.5,0,0,1,2.7-2.2A2.5,2.5,0,0,1,1896.1,152.6Z"/><path class="h" d="M1895.9,203l-1.9-.2-2.2-2h0c-20.3-7.3-33.1-19.9-32-40.9.7-12.3,6.5-24.7,15.5-34.9l19.8,2.3a39.7,39.7,0,0,0-22.1,34.3C1871.7,187.2,1895.9,203,1895.9,203Z"/><path class="h" d="M1934.6,164.3s7-36.5,28.1-32.2c0,0-2-10.8-2.6-10.7s-35.7,6.5-35.7,6.5l-4.9,38.5Z"/><path class="ai" d="M1989.5,166.6c-.9,17.7-12.4,29.7-28.4,36.1h-.3c10.1-11,16.5-24.7,16.1-42.7s-15.4-28.4-15.4-28.4l15.5-2.2C1985.3,140.6,1990.1,153.9,1989.5,166.6Z"/><path class="ab" d="M1943.4,104.2a52.7,52.7,0,0,0-6.8-1.9c-.3-9.6-10.2-14.6-10.2-14.6,2.1,6.9.2,10.9-2.1,13.2h-.1a58.3,58.3,0,0,0-13.2,1.8c-27.1,6.8-50,32.1-51.3,57.2-.7,15,7.9,26.6,21.1,36.3,8.9,6.5,15.1,8,19,8.5-.4-.2-30.3-12.5-31.8-38.3-1.3-22.3,16.9-42.6,31.1-38.6a13,13,0,0,1,5.3,2.8c14.3,11.9,13.1,31.3,13.1,31.3h.3l6.6,3.7,7.1-3h.3s.7-19.5,16.3-29.8a16.4,16.4,0,0,1,3.8-1.8c14.9-4.6,32.5,18.3,28.7,41.2a43.7,43.7,0,0,1-21.6,31.3c8.1-2.1,14.3-5.1,19-9.1a9.6,9.6,0,0,0,1.5-1.4c6.3-6.2,9.4-14.7,10-26.4C1990.7,141.2,1970.1,113.4,1943.4,104.2Z"/><path class="ac" d="M1868.8,139.9c-12.1,27.1-.9,47.2,12,56.3-13.9-8.8-21.8-21.3-21.1-36.3,1.3-25.1,24.2-50.4,51.3-57.2h0S1881.2,112.4,1868.8,139.9Z"/><path class="ad" d="M1989.5,166.6c-.6,11.7-3.7,20.2-10,26.4l-1.5,1.4c.3-.4,14.8-19.5,5.3-48.3-8.6-25.8-39.2-41.7-39.7-42C1970.1,113.4,1990.7,141.2,1989.5,166.6Z"/><path class="ae" d="M1922.2,299.7h-2.5c-11.3-.6-21.3-4.6-28.2-11.6s-11-17.5-10.5-29.4c.6-14.2,11.7-40.4,16.4-51.6l1.2-2.8c.1-.4.4-.5.8-.4s.5.5.4.9-.6,1.7-1.1,2.8c-4.7,11.1-15.7,37.2-16.3,51.2-.6,11.5,2.9,21.3,10.1,28.4s16.3,10.6,27.2,11.1,20.8-2.4,28.1-8.3,12.2-15.9,12.7-27.4c.8-16.7-6-48.5-8.1-56.9a.7.7,0,0,1,.5-.9c.4,0,.7.1.8.6,2.1,8.4,9,40.4,8.2,57.4-.6,12-5.1,21.9-13.3,28.5C1941.9,296.7,1932.5,299.7,1922.2,299.7Z"/><path class="ac" d="M1911.9,310.6c-6.3,1.6-16.1,1.5-27.5-8.2-21.7-18.5-14.1-52.6-14.1-52.6h0c1.3-6.5,4.3-13,7-19.2a125.1,125.1,0,0,0-4.7,21.8c-1,8.8-1,18.5,1.5,27.5h0C1881.5,305.2,1899.3,312,1911.9,310.6Z"/><path class="ad" d="M1968.6,302.9c-14,17.1-31.3,8.3-36.3,5h0s18,8.3,32.3-4.6c11-9.8,11.1-33.2,8.4-51.2h0c-.6-3.4-1.2-6.7-1.9-9.7h0c-.5-1.8-1-3.4-1.4-4.9h0C1970,237.9,1986.3,281.3,1968.6,302.9Z"/><path class="ae" d="M1948.6,313.6a32.5,32.5,0,0,1-18-5.9,28.7,28.7,0,0,1-11.1,0c-2.3,1.8-17.5,12-35.7-4.8-13.5-12.6-18.5-30.9-14.1-52.9a111.6,111.6,0,0,1,10.8-29.6.8.8,0,0,1,1.1-.3.8.8,0,0,1,.2,1,104.6,104.6,0,0,0-10.6,29.3c-3,14.9-3,36.1,13.7,51.5,18.7,17.2,33.5,5.1,34,4.6a1,1,0,0,1,.7-.2,26.9,26.9,0,0,0,11.1-.1h.6c.8.6,20.2,15.3,36.8-4,14.7-17,7.3-42.9,1.4-63.8-2.4-8.4-4.7-16.3-5.2-22.7,0-.4.2-.8.6-.8a.7.7,0,0,1,.7.7c.6,6.2,2.8,14.1,5.2,22.4,6,21.2,13.4,47.6-1.7,65.2C1962.4,311.2,1955.1,313.6,1948.6,313.6Z"/><path class="aa" d="M1868.4,314.4l-.5-.2a.7.7,0,0,1-.1-1,13.8,13.8,0,0,1,7.9-3.9c.4-.1.7.2.8.6a.7.7,0,0,1-.5.8c-4.8.8-7.1,3.4-7.1,3.5Z"/><path class="aa" d="M1872.3,317.8a.9.9,0,0,1-.6-.3.8.8,0,0,1,.1-1,20.8,20.8,0,0,1,6.9-3.8c.4-.1.8,0,.9.4a.8.8,0,0,1-.4.9,20.9,20.9,0,0,0-6.4,3.5A.5.5,0,0,1,1872.3,317.8Z"/><path class="aa" d="M1983.9,315.5l-.6-.2a12.4,12.4,0,0,0-7.6-3.8c-.3,0-.7-.4-.6-.7a.7.7,0,0,1,.7-.7,13.8,13.8,0,0,1,8.5,4.2.6.6,0,0,1-.1,1C1984.2,315.5,1984.1,315.5,1983.9,315.5Z"/><path class="aa" d="M1979.5,319.2l-.5-.2a25.8,25.8,0,0,0-8.4-4.1.8.8,0,0,1-.5-.9.8.8,0,0,1,1-.5c6,1.9,8.8,4.3,8.9,4.4a.7.7,0,0,1,.1,1C1979.8,319.1,1979.7,319.2,1979.5,319.2Z"/><path class="ac" d="M1906.4,124.5c4.7-1.2,8-3.9,7.4-6s-4.8-2.9-9.4-1.6-8,3.9-7.4,6S1901.7,125.6,1906.4,124.5Z"/><path class="ae" d="M1903.9,125.7H1900c-2.1-.4-3.4-1.3-3.7-2.7s.3-2.8,1.9-4.1a16.1,16.1,0,0,1,5.9-2.7c5.2-1.3,9.5-.4,10.2,2.2s-2.7,5.5-7.9,6.8h0Zm2.5-1.2Zm.6-7.5-2.5.5a13.8,13.8,0,0,0-5.3,2.5c-1.2,1-1.8,1.9-1.5,2.7s1.2,1.2,2.6,1.5a14.5,14.5,0,0,0,5.8-.3c4.5-1.2,7.3-3.7,6.8-5.2S1910.3,116.7,1907,117Z"/><path class="ae" d="M1953.1,206.2a.8.8,0,0,1-.8-.6.8.8,0,0,1,.6-.9l1-.3c9.1-2.7,22.8-13.1,26-32.3,2.4-15.1-4.6-29.2-12.2-35.8-5.1-4.5-10.6-6.1-15.6-4.6a19.1,19.1,0,0,0-3.6,1.7c-15,10.1-15.9,29-15.9,29.2a.8.8,0,0,1-.5.7l-.4.2-7,2.9h-.6l-7-3.8a.9.9,0,0,1-.4-.8c0-.2,1-19.1-12.8-30.6a13.5,13.5,0,0,0-5-2.7c-4.9-1.3-10.5.3-15.8,4.6-7.7,6.2-15.1,18.9-14.3,33.3,1.3,23,25.5,35,30.3,37.2h.3a.9.9,0,0,1,.3,1,.8.8,0,0,1-.9.5,50.8,50.8,0,0,1-18.5-8.4c-15-11-22-23.1-21.4-36.9s6.4-25.1,16.2-36a71.7,71.7,0,0,1,35.7-22,53.1,53.1,0,0,1,13.2-1.7c2.7-2.9,3.2-7,1.6-12.3a.9.9,0,0,1,.1-.7.9.9,0,0,1,.7-.3c.5,0,10.2,5.1,11,14.7,2.3.6,4.4,1.1,6.3,1.8a72.4,72.4,0,0,1,33.9,25.4c8.8,12,13.3,25.4,12.7,37.8s-3.9,20.7-10.2,27a10.7,10.7,0,0,1-1.6,1.4c-4.4,3.8-15.8,8.6-24.2,10.9l-1,.3ZM1927.6,89.4c1.4,6.3-.6,10-2.7,12.1l-.5.2h-.2a56.5,56.5,0,0,0-13,1.7c-26.7,6.7-49.4,32.1-50.7,56.5-.6,13.3,6.2,25,20.8,35.6a46.8,46.8,0,0,0,9.7,5.5c-9.1-5.7-22.8-17-23.8-34.5-.8-15,6.9-28.2,14.9-34.7,5.7-4.6,11.9-6.3,17.2-4.8a15.2,15.2,0,0,1,5.6,3c13.2,10.9,13.4,28.2,13.4,31.4l6.2,3.4,6.6-2.8c.2-3.2,2.3-20.4,16.5-29.9a18.4,18.4,0,0,1,4.1-1.9c5.5-1.7,11.5.1,17,4.9,7.9,6.9,15.3,21.5,12.7,37.2a43.6,43.6,0,0,1-17.2,28.6c5.5-2.2,10.7-4.8,13.3-7.1l1.5-1.3c6-6,9.1-14.3,9.7-25.9,1.2-25-19.2-52.6-45.6-61.7h0a56.1,56.1,0,0,0-6.7-1.9c-.3,0-.6-.4-.6-.7C1935.6,95.6,1930.4,91.2,1927.6,89.4Z"/><path class="x" d="M1944.9,172.6h-.1c-.7,1.2-7.7,13.8-21.4,13.1s-18.9-12.8-19.8-15a1,1,0,0,1-.1-.4c7.4-3.5,10.6-9.9,21.2-9.4h1.5C1935.3,162.1,1937.3,167.7,1944.9,172.6Z"/><path class="aj" d="M1903.6,170.4s9.1,6.3,20.4,6.9,20.9-4.7,20.9-4.7-12.3,9.5-21.7,9S1903.6,170.4,1903.6,170.4Z"/><path class="z" d="M1924.7,161s-5.9,1.5-9.6,5.2a42.1,42.1,0,0,1-8.2,6.2l-3.2-1.6a1,1,0,0,1-.1-.4C1911,166.9,1914.1,160.5,1924.7,161Z"/><path class="y" d="M1944.9,172.6h-.1l-3.3,1.4s-3-1.2-6.6-6.2a20,20,0,0,0-8.6-6.7C1935.3,162.1,1937.3,167.7,1944.9,172.6Z"/><path class="aa" d="M1926.9,186.4h-3.4c-15.1-.9-20.5-15.7-20.6-15.9a.8.8,0,0,1,.4-.9,39.8,39.8,0,0,0,6.3-4c4.1-3,7.9-5.9,15.3-5.5s10.4,3.3,14.1,6.6a54.7,54.7,0,0,0,6.5,5,.7.7,0,0,1,.3.8C1945.5,173,1939.2,185,1926.9,186.4Zm-22.5-15.6c1.2,2.7,6.6,13.6,19.1,14.3s19-9.8,20.4-12.3a39.5,39.5,0,0,1-6-4.9c-3.7-3.3-6.6-5.9-13.3-6.2s-10.5,2.4-14.3,5.2A33.5,33.5,0,0,1,1904.4,170.8Z"/><path class="aa" d="M1925.8,182.2h-2.6c-9.5-.5-19-10.1-19.4-10.7s-1-1.4-.7-1.6a.6.6,0,0,1,.9-.1c.1.1,9.1,6.2,20,6.7s20.5-4.5,20.6-4.6.7-.1.9.2a.8.8,0,0,1-.1,1C1944.9,173.5,1934.8,181.2,1925.8,182.2Zm-17-8.1c3.8,3,9.3,6.5,14.5,6.8s10.8-2.4,15.1-4.9a44.2,44.2,0,0,1-14.5,2A42.6,42.6,0,0,1,1908.8,174.1Z"/><path class="ac" d="M1945.3,136.5c-4.5-1.6-7.5-4.7-6.7-6.7s5-2.4,9.5-.7,7.5,4.7,6.7,6.7S1949.8,138.1,1945.3,136.5Z"/><path class="ae" d="M1951.8,138.2a16.3,16.3,0,0,1-6.8-1.1h0a17.2,17.2,0,0,1-5.5-3.4c-1.5-1.5-2-3-1.6-4.2s5.4-3,10.4-1.2a14.8,14.8,0,0,1,5.5,3.4c1.5,1.5,2,3,1.6,4.2S1953.7,137.9,1951.8,138.2Zm-6.3-2.4c4.5,1.6,8.1,1.1,8.6-.3s-.2-1.7-1.2-2.7a16.9,16.9,0,0,0-5.1-3.1c-4.4-1.6-8-1.1-8.5.4s.2,1.7,1.2,2.7a17,17,0,0,0,5,3Z"/><path class="ae" d="M1964.8,166.8a.5.5,0,0,1-.4-.2c-10.6-6.9-20.6-3.9-20.7-3.8a.9.9,0,0,1-1-.5.9.9,0,0,1,.4-1l8.2-4.6a.7.7,0,0,1,1,.3c.3.4.1.8-.3,1.1l-4.3,2.4a28.9,28.9,0,0,1,17.5,4.8.8.8,0,0,1,.3,1.1A1,1,0,0,1,1964.8,166.8Z"/><path class="ae" d="M1931.8,172.9a.8.8,0,0,1-1.2-.3l-1.3-2.5a.9.9,0,1,1,1.6-.9l1.3,2.5C1932.3,172,1932.3,172.7,1931.8,172.9Z"/><path class="ae" d="M1916.5,172.1a1.1,1.1,0,0,1-.3-1.3l1.6-2.3a1,1,0,0,1,1.2-.3.9.9,0,0,1,.3,1.3l-1.5,2.3A1.1,1.1,0,0,1,1916.5,172.1Z"/><path class="e" d="M547.8,327.8V348l-9.7-9.7S547.5,327.8,547.8,327.8Z"/><path class="e" d="M530.8,328.6v20.2l-9.7-9.8S530.5,328.6,530.8,328.6Z"/><path class="e" d="M515.3,327.8V348l-9.7-9.7S515,327.8,515.3,327.8Z"/><path class="e" d="M498.6,327.8V348l-9.7-9.7S498.2,327.8,498.6,327.8Z"/><path class="d" d="M576.9,137,560,110.8V137h-6.5V101h7.4l16.8,26.2V101h6.6v36Z"/><path class="d" d="M588.4,124c0-8.1,4.6-13.6,12.9-13.6s13,5.6,13,13.3a9.2,9.2,0,0,1-.1,1.6H594.9c.2,5.3,2.8,7.8,6.7,7.8s5.4-1.7,6.2-4.3h6c-1.1,5.3-5.1,8.7-12.2,8.7S588.4,132.2,588.4,124Zm6.5-2.9h12.9c-.5-4.2-2.9-6.2-6.5-6.2S595.5,116.9,594.9,121.1Z"/><path class="d" d="M617.1,124c0-8.1,4.5-13.6,12.9-13.6s13,5.6,13,13.3c0,.5-.1,1-.1,1.6H623.6c.2,5.3,2.7,7.8,6.7,7.8a5.9,5.9,0,0,0,6.1-4.3h6c-1.1,5.3-5.1,8.7-12.1,8.7S617.1,132.2,617.1,124Zm6.5-2.9h12.9c-.6-4.2-2.9-6.2-6.5-6.2S624.1,116.9,623.6,121.1Z"/><path class="d" d="M645.7,124c0-8.6,4.4-13.6,11.5-13.6,3.9,0,6.5,1.6,8,4.5V101h6.5v36h-6.2v-4.5c-1.4,3.1-4,5-8.3,5C650.1,137.5,645.7,132.5,645.7,124Zm19.5,0c0-6-2.6-8.6-6.5-8.6s-6.5,2.6-6.5,8.6,2.6,8.5,6.5,8.5S665.2,129.9,665.2,124Z"/><path class="d" d="M707.7,137H689.5V101h17.2c7.7,0,11.9,3.9,11.9,9.6,0,4-1.9,6.9-6,7.9,4.7.9,7,4.2,7,8.5C719.6,132.8,715.4,137,707.7,137ZM706,106.2h-9.6v9.9H706c3.8,0,5.8-1.7,5.8-4.9S709.8,106.2,706,106.2Zm1,15H696.4v10.6H707c3.8,0,5.8-2,5.8-5.3S710.8,121.2,707,121.2Z"/><path class="d" d="M723.4,128.2V110.9h6.5v16c0,3.5,1.3,5.3,4.4,5.3s5.7-2.5,5.7-6.7V110.9h6.5V137h-6.2v-4.3c-1.4,2.8-3.7,4.8-8,4.8C726.3,137.5,723.4,134.5,723.4,128.2Z"/><path class="d" d="M750.3,124c0-8.6,4.4-13.6,11.4-13.6,4,0,6.6,1.6,8,4.5V101h6.6v36h-6.2v-4.5c-1.5,3.1-4,5-8.4,5C754.7,137.5,750.3,132.5,750.3,124Zm19.4,0c0-6-2.6-8.6-6.5-8.6s-6.4,2.6-6.4,8.6,2.6,8.5,6.4,8.5S769.7,129.9,769.7,124Z"/><path class="d" d="M780,123.2c0-7.7,4.4-12.8,11.5-12.8,4.3,0,6.9,1.9,8.3,5v-4.5H806v24c0,8.1-4.3,12.5-12.9,12.5s-11.7-3.7-11.7-9.3h6.1c.4,3.2,2.4,5,5.9,5s6.1-2.1,6.1-6.4v-5.2c-1.5,2.9-4.1,4.5-8,4.5C784.4,136,780,130.9,780,123.2Zm19.5,0c0-5.4-2.6-8.1-6.5-8.1s-6.5,2.7-6.5,8.1,2.6,8.1,6.5,8.1S799.5,128.6,799.5,123.2Z"/><path class="d" d="M809.8,124c0-8.1,4.5-13.6,12.9-13.6s13,5.6,13,13.3c0,.5-.1,1-.1,1.6H816.3c.2,5.3,2.7,7.8,6.7,7.8a5.9,5.9,0,0,0,6.1-4.3h6c-1.1,5.3-5.1,8.7-12.1,8.7S809.8,132.2,809.8,124Zm6.5-2.9h12.8c-.5-4.2-2.8-6.2-6.4-6.2S816.8,116.9,816.3,121.1Z"/><path class="d" d="M841.1,129.7V115.6H837v-4.7h4.1v-7.8h6.5v7.8h5.7v4.7h-5.7v14.3c0,2,.9,2.7,3,2.7h2.7V137l-4.3.2C843.1,137.2,841.1,135.4,841.1,129.7Z"/><path class="d" d="M870,137V101h26.2v5.6H876.9V116h17.7v5.3H876.9V137Z"/><path class="d" d="M899.4,137V110.9h6.2v5.8c1.3-4.6,3.6-6.1,7.2-6.1a15.7,15.7,0,0,1,2.4.3v5.7h-2.7c-3.9,0-6.6,3-6.6,8.3V137Z"/><path class="d" d="M918.1,103.7c0-2,1.4-3.4,3.8-3.4s3.7,1.4,3.7,3.4-1.3,3.3-3.7,3.3S918.1,105.6,918.1,103.7Zm.5,33.3V110.9h6.5V137Z"/><path class="d" d="M928.9,124c0-8.1,4.5-13.6,12.9-13.6s13,5.6,13,13.3c0,.5-.1,1-.1,1.6H935.4c.2,5.3,2.7,7.8,6.7,7.8a5.9,5.9,0,0,0,6.1-4.3h6c-1.1,5.3-5.1,8.7-12.1,8.7S928.9,132.2,928.9,124Zm6.5-2.9h12.9c-.6-4.2-2.9-6.2-6.5-6.2S935.9,116.9,935.4,121.1Z"/><path class="d" d="M975.1,137V121c0-3.5-1.2-5.3-4.4-5.3s-5.7,2.5-5.7,6.7V137h-6.5V110.9h6.2v4.3a8.2,8.2,0,0,1,8-4.8c6,0,8.9,3.1,8.9,9.4V137Z"/><path class="d" d="M985.4,124c0-8.6,4.4-13.6,11.4-13.6,4,0,6.6,1.6,8.1,4.5V101h6.5v36h-6.2v-4.5c-1.4,3.1-4,5-8.4,5C989.8,137.5,985.4,132.5,985.4,124Zm19.5,0c0-6-2.7-8.6-6.5-8.6s-6.5,2.6-6.5,8.6,2.6,8.5,6.5,8.5S1004.9,129.9,1004.9,124Z"/><path class="d" d="M1016.1,137V101h6.6v36Z"/><path class="d" d="M1027.8,142.2h2.6c3,0,4.8-1.4,4.8-3.8a8.5,8.5,0,0,0-.5-2.6l-9.3-24.9h6.8l6.8,21,6.7-21h6.9l-9.3,24.9c-3.2,8.5-6.6,11.1-13,11.1h-2.5Z"/><path class="d" d="M1092.2,137V121.6h-17V137h-6.9V101h6.9v14.7h17V101h6.9v36Z"/><path class="d" d="M1103.2,124c0-8.2,4.8-13.6,13.3-13.6s13.2,5.4,13.2,13.6-4.7,13.5-13.2,13.5S1103.2,132.2,1103.2,124Zm20,0c0-5.8-2.4-8.6-6.7-8.6s-6.8,2.8-6.8,8.6,2.5,8.5,6.8,8.5S1123.2,129.7,1123.2,124Z"/><path class="d" d="M1132.5,128.8h6.3c.3,2.7,1.5,4.4,5.6,4.4s5.2-1.6,5.2-3.5-1.4-2.7-3.6-3.1l-4.5-.6c-6-.9-8.3-2.9-8.3-7.3s3.2-8.3,11.1-8.3,11.1,3.6,11.1,8.4h-6.3c-.2-2.2-1-4.1-4.9-4.1s-4.5,1.4-4.5,3.5,1,2.4,2.9,2.7l4.4.6c5.8.8,9.2,2.8,9.2,7.8s-3.5,8.2-11.9,8.2S1132.5,133.9,1132.5,128.8Z"/><path class="d" d="M1161.6,129.7V115.6h-4.1v-4.7h4.1v-7.8h6.5v7.8h5.7v4.7h-5.7v14.3c0,2,.9,2.7,3,2.7h2.7V137l-4.3.2C1163.6,137.2,1161.6,135.4,1161.6,129.7Z"/><path class="d" d="M1177,103.7c0-2,1.3-3.4,3.8-3.4s3.7,1.4,3.7,3.4-1.3,3.3-3.7,3.3S1177,105.6,1177,103.7Zm.5,33.3V110.9h6.5V137Z"/><path class="d" d="M1205.4,137V121c0-3.5-1.3-5.3-4.5-5.3s-5.6,2.5-5.6,6.7V137h-6.6V110.9h6.3v4.3a8.1,8.1,0,0,1,7.9-4.8c6,0,9,3.1,9,9.4V137Z"/><path class="d" d="M1215.6,123.2c0-7.7,4.5-12.8,11.5-12.8,4.3,0,6.9,1.9,8.3,5v-4.5h6.2v24c0,8.1-4.3,12.5-12.9,12.5s-11.7-3.7-11.7-9.3h6.1c.4,3.2,2.4,5,5.9,5s6.1-2.1,6.1-6.4v-5.2c-1.5,2.9-4.1,4.5-8,4.5C1220.1,136,1215.6,130.9,1215.6,123.2Zm19.5,0c0-5.4-2.6-8.1-6.5-8.1s-6.5,2.7-6.5,8.1,2.7,8.1,6.5,8.1S1235.1,128.6,1235.1,123.2Z"/><path class="d" d="M1288.8,137l-6.7-26.4-6.6,26.4h-8.3L1257,101h7.4l7.1,27.7,7.1-27.7h7.1l7,27.7,7.2-27.7h7.4L1297,137Z"/><path class="d" d="M1309.5,103.7c0-2,1.4-3.4,3.8-3.4s3.7,1.4,3.7,3.4-1.3,3.3-3.7,3.3S1309.5,105.6,1309.5,103.7Zm.5,33.3V110.9h6.5V137Z"/><path class="d" d="M1323.5,129.7V115.6h-4.1v-4.7h4.1v-7.8h6.5v7.8h5.7v4.7H1330v14.3c0,2,.9,2.7,2.9,2.7h2.8V137l-4.3.2C1325.5,137.2,1323.5,135.4,1323.5,129.7Z"/><path class="d" d="M1356,137V121c0-3.5-1.3-5.3-4.5-5.3s-5.6,2.5-5.6,6.7V137h-6.5V101h6.5v13.7c1.4-2.6,3.7-4.3,7.7-4.3,5.9,0,8.9,3.1,8.9,9.4V137Z"/><path class="d" d="M1378.9,124c0-8.2,4.7-13.6,13-13.6s12.3,5.3,12.3,10.4h-6.1c-.4-3.1-2.2-5.4-6.2-5.4s-6.5,2.8-6.5,8.6,2.4,8.5,6.5,8.5,5.7-1.7,6.2-5.6h6.1c0,5.6-4.1,10.6-12.3,10.6S1378.9,132.2,1378.9,124Z"/><path class="d" d="M1423.6,124h-8.9v13h-6.8V101h15.7c7.9,0,12.9,4.1,12.9,11.5S1431.5,124,1423.6,124Zm-1-17.8h-7.9v12.6h7.9c4.5,0,7-2,7-6.3S1427.1,106.2,1422.6,106.2Z"/><path class="d" d="M1437.7,129.6c0-4,2.4-7.2,8.9-7.7l5.4-.4c2.6-.3,3.3-1,3.3-2.3s-1.5-4.1-4.8-4.1-4.7,1.3-4.9,4.1h-6.5c0-5.3,3.4-8.8,11.4-8.8s11.3,3.5,11.3,8.8v11.1c0,3.6.4,5.8.9,6.7h-6a6.3,6.3,0,0,1-1.1-4.1c-1.4,3-4.1,4.6-8.5,4.6C1441,137.5,1437.7,134.4,1437.7,129.6Zm17.6-3.4v-1.8c-.4.5-1.6.8-3.4,1l-3.1.2c-3.3.3-4.6,1.7-4.6,3.6s1.5,3.9,4.8,3.9S1455.3,130,1455.3,126.2Z"/><path class="d" d="M1483.2,137V121c0-3.5-1.2-5.3-4.4-5.3s-5.7,2.5-5.7,6.7V137h-6.5V110.9h6.2v4.3c1.4-2.8,3.7-4.8,8-4.8,6,0,8.9,3.1,8.9,9.4V137Z"/><path class="d" d="M1493.5,124c0-8.1,4.5-13.6,12.9-13.6s13,5.6,13,13.3c0,.5-.1,1-.1,1.6H1500c.2,5.3,2.7,7.8,6.7,7.8s5.4-1.7,6.1-4.3h6c-1.1,5.3-5.1,8.7-12.1,8.7S1493.5,132.2,1493.5,124Zm6.5-2.9h12.9c-.6-4.2-2.9-6.2-6.5-6.2S1500.5,116.9,1500,121.1Z"/><path class="d" d="M1523.1,137V101h6.5v36Z"/><path class="d" d="M1542.5,126.1v-1.6c0-9.4,8.7-7.9,8.7-13.8,0-3.1-2.4-4.9-5.5-4.9s-5.5,2.1-6,6.3h-6.3c0-7.3,4.4-11.6,12.3-11.6s12.4,4.3,12.4,10.3c0,8.2-10.1,7.6-10.1,13.7v1.6Zm-1.2,7.8a3.6,3.6,0,0,1,3.9-3.6c2.6,0,3.9,1.6,3.9,3.6s-1.3,3.5-3.9,3.5S1541.3,135.8,1541.3,133.9Z"/><rect class="e" x="891.4" y="266.6" width="292.6" height="71.49" rx="11.8"/><path class="c" d="M927.3,303.5c0-9.3,5.2-15.7,14.8-15.7s13.4,5.1,13.4,10.6h-4.2c-.7-3.7-3.8-6.7-9.2-6.7S932,295.9,932,303.5s3.5,11.7,10.1,11.7,8.9-3.6,9.1-9.4h-8.3v-3.3h12.9v16.2h-3.6l-.4-5.7c-1.2,3.8-4.4,6.1-10.1,6.1C932.3,319.1,927.3,312.7,927.3,303.5Z"/><path class="c" d="M959.1,307.7c0-6.8,3.6-11.5,10.6-11.5s10.7,4.7,10.7,11.1c0,.4-.1.8-.1,1.2H963.6c.1,5.2,2.6,7.5,6.4,7.5s5.1-1.6,5.7-4.1h4.2c-1,4.4-4.2,7.2-9.9,7.2S959.1,314.7,959.1,307.7Zm4.5-2.2h12.2c-.4-4.1-2.7-6.2-6.1-6.2S964.1,301.4,963.6,305.5Z"/><path class="c" d="M985.2,313V299.9h-3.5v-3.3h3.5V290h4.6v6.6h5.1v3.3h-5.1v13.3c0,1.9.7,2.5,2.7,2.5h2.4v3.1l-3.4.2C986.9,318.9,985.2,317.5,985.2,313Z"/><path class="c" d="M1008,309h4.5c.5,4.4,2.4,6.5,7.7,6.5s7.4-2.2,7.4-5.5-1.3-3.8-6.1-4.5l-4.2-.7c-6.3-.9-8.6-3.1-8.6-7.7s3.7-9.3,11.4-9.3,11.5,3.7,11.5,9.7h-4.5c-.5-4-2.5-6.1-7.1-6.1s-6.5,2.1-6.5,5.4,1,3.5,5.3,4.1l4.2.7c6.1.8,9.3,3.2,9.3,8.1s-3.9,9.4-12.2,9.4S1008,315.5,1008,309Z"/><path class="c" d="M1037.6,313V299.9H1034v-3.3h3.6V290h4.6v6.6h5.1v3.3h-5.1v13.3c0,1.9.7,2.5,2.7,2.5h2.4v3.1l-3.4.2C1039.3,318.9,1037.6,317.5,1037.6,313Z"/><path class="c" d="M1049.7,312.5c0-3.3,2-6,7.4-6.4l4.3-.4c2.6-.2,3.4-.8,3.4-2.2s-1.5-4.1-4.7-4.1-4.6,1.3-4.8,4.1h-4.5c0-4.5,2.8-7.3,9.3-7.3s9.2,2.8,9.2,7.3V313c0,3,.3,5,.7,5.7h-4.1a6,6,0,0,1-.9-3.8c-1.2,2.8-3.6,4.2-7.4,4.2S1049.7,316.6,1049.7,312.5Zm15.1-3.2v-1.9c-.5.6-1.7,1-3.4,1.1l-2.8.3c-3.2.2-4.4,1.6-4.4,3.4s1.4,3.8,4.6,3.8S1064.8,313,1064.8,309.3Z"/><path class="c" d="M1073.6,318.7V296.6h4.3v5.1c1.2-3.9,3.1-5.3,6.3-5.3l2.1.2v4h-2.2c-3.6,0-6,2.8-6,7.7v10.5Z"/><path class="c" d="M1091.1,313V299.9h-3.6v-3.3h3.6V290h4.6v6.6h5.1v3.3h-5.1v13.3c0,1.9.7,2.5,2.7,2.5h2.4v3.1l-3.4.2C1092.8,318.9,1091.1,317.5,1091.1,313Z"/><path class="c" d="M1102,307.7c0-6.8,3.7-11.5,10.7-11.5s10.6,4.7,10.6,11.1v1.2h-16.7c.1,5.2,2.6,7.5,6.3,7.5s5.1-1.6,5.8-4.1h4.2c-1,4.4-4.2,7.2-10,7.2S1102,314.7,1102,307.7Zm4.6-2.2h12.2c-.5-4.1-2.7-6.2-6.1-6.2S1107,301.4,1106.6,305.5Z"/><path class="c" d="M1125.9,307.7c0-7.3,3.7-11.5,9.6-11.5,3.6,0,6,1.5,7.3,4.2V288.2h4.5v30.5H1143v-4.1c-1.3,2.9-3.6,4.5-7.5,4.5C1129.6,319.1,1125.9,314.9,1125.9,307.7Zm16.9,0c0-5.6-2.6-8-6.2-8s-6.2,2.4-6.2,8,2.5,8,6.2,8S1142.8,313.2,1142.8,307.7Z"/><polygon class="e" points="110.1 122.4 417.5 70.8 407.2 140.9 96.7 196.6 110.1 122.4"/><polygon class="d" points="53.4 197.7 360.7 146.1 350.4 216.2 40 271.9 53.4 197.7"/><polygon class="e" points="160.6 228.5 372 191.9 361.7 262.1 147.3 302.9 160.6 228.5"/><path class="c" d="M171.6,146.5v-.2l.2-.7-.4.4c0-.1-.1-.2-.1-.3v-.5h-.4a15.1,15.1,0,0,1,1.1-5,44.5,44.5,0,0,0,1.3-4.3,2.3,2.3,0,0,1,.1-.7,2.5,2.5,0,0,0,.1-.8,1.5,1.5,0,0,0,.1-.7v-.8l-.3-.5a1.4,1.4,0,0,0-1.4-.4,3.8,3.8,0,0,0-1.9.6l-1.8.9-1.3.9a18.1,18.1,0,0,0-5.1,6.4,13.3,13.3,0,0,0-1.3,7.4,1.9,1.9,0,0,0,1.8,1.5,14.7,14.7,0,0,0,3.8.2h2.9a8.4,8.4,0,0,1,4.6,2.7,11.1,11.1,0,0,1,2.5,4.8,5.9,5.9,0,0,1-1,4.7,12.5,12.5,0,0,1-4.2,3.7,13.5,13.5,0,0,1-5.6,1.7,7.4,7.4,0,0,1-5-1.3,10.5,10.5,0,0,1-2.4-2.7,3.3,3.3,0,0,1-.7-2.9,3,3,0,0,1,2.4-1.9,1.9,1.9,0,0,1,2.5,1.2l.6-.3-.5,1.7.7-.7-.2,1.4a18.2,18.2,0,0,0,5.6-2.7,9.4,9.4,0,0,0,3.4-4.4l-3.3.4a20,20,0,0,1-4,.4,5.7,5.7,0,0,1-3.2-.9,11.2,11.2,0,0,1-3.9-3.9,13.9,13.9,0,0,1-2-5.1,17.5,17.5,0,0,1,0-5.6,20,20,0,0,1,1.7-5.4,18.7,18.7,0,0,1,3.6-4.5,16.3,16.3,0,0,1,5.1-3,9.7,9.7,0,0,1,6.7.2,6.7,6.7,0,0,1,4.3,4.2,15.8,15.8,0,0,1,0,8.1,14.8,14.8,0,0,1-3.9,7.3l-.3-.5-.5.4Zm-14.1-8.4.7-1.7-.8,1.7Zm1.4,1,2.4-4.6a9.3,9.3,0,0,0-2.6,4.7Z"/><path class="c" d="M199.9,132.1l.9,18.9.8,5.6.8,2.9h-1.8l-.5-.2a9,9,0,0,1-2.6-1.7,7.8,7.8,0,0,1-1.7-2.6c-.5-1-.8-1.9-1.1-2.6a21.3,21.3,0,0,1-.7-3.1h-.2a7.9,7.9,0,0,1-.8,2.3c-1,1.8-2.1,2.8-3.5,2.9a6.8,6.8,0,0,1-4-1.3,9.5,9.5,0,0,1-3.2-3.4A11.1,11.1,0,0,1,181,147a12.4,12.4,0,0,1-.6-2.9c-.1-1.1-.1-1.9-.1-2.7a21.3,21.3,0,0,1,.3-3c.2-1.3.4-2.2.5-2.7s.4-1.6.7-3.1l2.1.8,2.6,15.5a35.5,35.5,0,0,0,5.7-14.1c0-.4.1-1.3.2-2.6a30.9,30.9,0,0,1,.4-3.5,5.5,5.5,0,0,1,.9-2.3l.3-.2h.8l.4-.2h.1l2.3,2.4.6-.6Zm-18.4,10.6a12.2,12.2,0,0,0,.9,4.2,12.4,12.4,0,0,0,2,3.8l-1.4-3.2Zm.4-1.6a18.7,18.7,0,0,0,2,6.3L182,141Zm17.1,2.8-.4-9.7-.3.9c0,.3-.1.7-.1,1a2.8,2.8,0,0,1,.1.9,2.8,2.8,0,0,0,.1.9v.9c.2,5.3.4,8.2.4,8.9s0,.5,0,1.2a5.3,5.3,0,0,0,.2,1.9,1.3,1.3,0,0,0,.7.9Z"/><path class="c" d="M230.6,116.6c.4,1.5.7,3,1,4.5a37.4,37.4,0,0,1,.9,5.2c.3,1.8.5,3.3.7,4.6s.4,2.9.7,5.1.4,3.7.5,4.6.3,1.7.7,4.3.7,4.6.9,6.4a29.1,29.1,0,0,1,0,4.2h-1.3l-.3.4-.3-.5-.8.3-.4-.9h-.2v-.4l-.3.5c-.6-.1-1.2-.8-1.9-2.2a25.7,25.7,0,0,1-1.4-3.8,29.8,29.8,0,0,1-1.1-4c-.3-1.4-.6-3.2-1-5.3s-.6-3.5-.7-4.1H226c-.3,1.7-1,2.8-2.2,3.3a4.5,4.5,0,0,1-3.9-.3,25.1,25.1,0,0,1-9.8-8.6h-.2l1.6,14.1,1.8,9.4-.8-.4-.3.6V153l-.7.6-.2-1c-.6.6-1,.5-1.2-.5a1.8,1.8,0,0,0-.1-.6v-.4h-.2v1.7h-.3l-.6-.2-2.2-2-1.2-5.4-2-15.5h.2l.2,1.2h.2l-.8-2.9h.2l.2.6h.2l-.5-7.9h.3l1.4,14.5,2.3,13.1h.2l-1.4-8.7L204.4,126l-.5-6,1.2.4.6-.3,3.9,3.4,8.8,9.3h.2a66.1,66.1,0,0,0,1.8-6.8c.8-3,1.5-5.4,2-7s2.1-4.6,3.4-5.5a2.2,2.2,0,0,1,1.1-.5,3,3,0,0,1,1.3.1,2.1,2.1,0,0,1,1.4,1.1A6.7,6.7,0,0,1,230.6,116.6ZM222,130.1a60.4,60.4,0,0,0,2.4-11.7l-1.4,6.2-2.8,9.8a2.2,2.2,0,0,0,.7-.9,9.3,9.3,0,0,0,.5-1,11.1,11.1,0,0,1,.3-1.3A11,11,0,0,1,222,130.1Zm7.1,10.7-1.7-10.1a3.8,3.8,0,0,0-.1,1.5,8.1,8.1,0,0,0,.3,1.9,7,7,0,0,1,.3,1.4l1.5,9.2c0,.1.1.5.2,1.3a6.9,6.9,0,0,0,.4,1.9,1.3,1.3,0,0,0,.7,1Z"/><path class="c" d="M263.9,110.3c.3,1.4.7,3,1,4.5s.6,3.3.9,5.2.5,3.3.6,4.5.4,3,.7,5.2.5,3.7.6,4.6.3,1.7.7,4.2.6,4.7.8,6.5a20.4,20.4,0,0,1,.1,4.2H268l-.4.4-.3-.5-.8.3-.4-.9h-.2V148l-.3.4q-.9,0-1.8-2.1a27,27,0,0,1-1.5-3.8c-.4-1.3-.8-2.7-1.1-4s-.6-3.2-1-5.3-.6-3.5-.7-4.1h-.2a3.7,3.7,0,0,1-2.1,3.3,4.8,4.8,0,0,1-4-.3c-3.5-1.6-6.7-4.4-9.8-8.6h-.2l1.6,14,1.8,9.4-.7-.3-.3.5v-.4l-.8.6-.2-1c-.5.6-.9.5-1.1-.5s-.1-.3-.1-.6a.8.8,0,0,1-.1-.4h-.2v1.7h-.2l-.7-.3-2.2-1.9-1.1-5.4-2.1-15.5h.2l.2,1.2h.2l-.7-2.8h.2v.6h.2l-.4-7.9h.2l1.5,14.5,2.2,13.1h.2l-1.4-8.6-1.5-13.6-.5-6,1.1.4.6-.3,3.9,3.4,8.8,9.3h.3c.4-1.4,1-3.7,1.8-6.8s1.4-5.4,2-7,2-4.6,3.3-5.5a2.2,2.2,0,0,1,1.1-.5,2.3,2.3,0,0,1,1.4.1,2.1,2.1,0,0,1,1.3,1.1A6.7,6.7,0,0,1,263.9,110.3Zm-8.7,13.5a62.1,62.1,0,0,0,2.5-11.7l-1.5,6.2-2.7,9.8.7-.9a6.9,6.9,0,0,0,.4-1l.3-1.3A6.2,6.2,0,0,0,255.2,123.8Zm7.1,10.7-1.6-10.1a3.9,3.9,0,0,0-.2,1.5c.1.5.2,1.1.3,1.9a7,7,0,0,1,.3,1.4l1.5,9.2c.1,0,.1.5.2,1.3a6.9,6.9,0,0,0,.4,1.9,2,2,0,0,0,.7,1Z"/><path class="c" d="M290.4,109.3a53,53,0,0,1-5.7,2.1l-5.7,2.1,1,8.6c4.3-1.5,7.9-2,10.8-1.6v.3l-.2.8.4.2-1,.8h0c.4,0,.3.2-.2.5s-1,1.5-3.8,2.6l-5.4,1.9.8,7.2.5-.3c3-1.4,6.8-3.1,11.3-4.9a1.2,1.2,0,0,0,.5.5l-3.4,1.7h0l3.9-1.6,1,.2-3.3,1.6v.2l4-1.6c.3.2.3.7-.1,1.7s-.3.5-.6.7l-.8.6-.9.4-1,.4-.9.4-2.4,1.6-3.3,2a36.9,36.9,0,0,1-4.1,1.7,2.9,2.9,0,0,1-1.4,1.7,5.3,5.3,0,0,1-2.1.9c-.6,0-1-.1-1.2-.5h-.3c-.2.6-1,.3-2.4-1s-2-2-2-2.5h.2l-.6-.5.3-.8h1.4a1.6,1.6,0,0,1-.3-.9.7.7,0,0,1,.7-.5h.2q.3-2.6.3-3c0-1.1-.1-2.3-.1-3.4a7.9,7.9,0,0,1-3.1.9l-.5-1.6.7-.5v-.6l.5-.4c-.1-1.1.5-2.1,2-3a18.4,18.4,0,0,0-.3-2.4c-.2-1.1-.3-2.4-.5-3.8s-.3-2.7-.4-3.8a2.7,2.7,0,0,1-2.1-.7.9.9,0,0,1-1.1-.3l-.7.2-.8-1.3A7.9,7.9,0,0,1,271,111c-.1-.1,0-.2.1-.4l.8-.5,1.2-.5,1.3-.5a26.2,26.2,0,0,1,6.1-2.7,39.1,39.1,0,0,1,5.7-1.3l2.2-.3,3.5-.6.8.5-.4,2.1A2.8,2.8,0,0,1,290.4,109.3Zm-11.6,10.3-.3-2.6v2.6Zm.1,2.9-.2-2.2v2.3h.1Zm1.4,13-.8-7.5h-.2l.8,7.5Zm2.9-28-3.6,1.2h.2Zm6.6,25c-1.8.2-4.5,1.3-8.2,3.2v.3Zm-4.2-26-1.9.6v.2Z"/><path class="c" d="M325.8,140.5c.5.4.5.7-.1.8a6,6,0,0,1-2-.3,87.8,87.8,0,0,1-13.8-9.3l-.9-1-1-1.1a2.8,2.8,0,0,0-1-.9c0,.5.2,1.8.5,3.9s.4,3.7,0,4.6a2.3,2.3,0,0,1-.7.8l-.6.5H306l-1.4-.2-1.2-1.6a3.1,3.1,0,0,1-2.1-1.7,8,8,0,0,1-1-3.1,79.1,79.1,0,0,1,.1-10.8v-3.1c.1-.4.1-.9.2-1.5a5.9,5.9,0,0,1,.2-1.4H302v-1.8l.7.5h.2l.3-.5a10,10,0,0,1,1.9,2.6,17.9,17.9,0,0,1,1,3.6c.5-.8,1.4-2.1,2.8-4s2.6-3.6,3.5-5.1a15.6,15.6,0,0,0,1.8-4.6h-3.7a20,20,0,0,0-3.7.9l-3.5,1.6-3.2,2.2-1.3,1.1-1,1.2a3.3,3.3,0,0,0-.7,1.6,2.5,2.5,0,0,0,.1,1.7,4.9,4.9,0,0,1-2.2-2,5.9,5.9,0,0,1-1.1-2.8,9.6,9.6,0,0,1,1.5-2.7,36,36,0,0,1,5.9-5.8,18.5,18.5,0,0,1,6.9-3.4v-.2l-2.4.5v-.2l2.5-.4h2.3a8.3,8.3,0,0,1,2.5.6,8.4,8.4,0,0,1,3.9,3.6,13.7,13.7,0,0,1,2.1,10.8,19,19,0,0,1-.9,2.9,27,27,0,0,1-1.5,2.9c-.6.9-1.2,1.7-1.6,2.4l-2,2.6-1.8,2.3,3.2,1.9,2.7,2c.7.6,1.8,1.4,3.1,2.6L323,136C325.1,137.7,326,139.2,325.8,140.5Zm-24-14.5v-8.7a5.6,5.6,0,0,0-.4,1.2v1.7a7.5,7.5,0,0,1,.1,1.2v8.9a4,4,0,0,0,0,1.1,3.4,3.4,0,0,0,.1,1c.1.3.2.6.5.7Zm13-18.8-.4.8h.2Z"/><path class="c" d="M109.4,211.6a9.7,9.7,0,0,1,4.3,1.9,12.2,12.2,0,0,1,3.2,3.6,13.1,13.1,0,0,1,1.6,4.7,9.1,9.1,0,0,1-.5,4.7,13.8,13.8,0,0,1-5.9,6.8,16,16,0,0,1-8.9,2.5,11.5,11.5,0,0,1-7.7-2.9,16,16,0,0,1-4.9-7.3,10,10,0,0,1-.5-5.4,9.2,9.2,0,0,1,2.4-4.7,8.2,8.2,0,0,1,4.8-2.4l.6.8V211c.1-1.1.1-2.2.1-3.3a28.1,28.1,0,0,1,.1-2.9,3.1,3.1,0,0,1,3.4,1.1,6.8,6.8,0,0,1,1.8,3.7l1.2-1.6,1.2-1.6a9.7,9.7,0,0,0,1.1-1.5l1.2-1.7V203c.9-1.5,1.1-2.6.6-3.4s-.8-.4-1.8-.3a10.8,10.8,0,0,0-2.7.5l-2.5.8a35.7,35.7,0,0,0-5.6,2.6c-1.8,1-2.8,1.9-3,2.5a2.9,2.9,0,0,1-1.6-2.4,6.6,6.6,0,0,1,.6-2.7,9.6,9.6,0,0,1,1.8-2.2,21.3,21.3,0,0,1,6.3-3.4,16.7,16.7,0,0,1,7-.6c4.2.7,6.6,2.3,7.3,4.8a7.4,7.4,0,0,1-.5,4.3C113.2,205,111.7,207.8,109.4,211.6ZM94.1,227.2a7.1,7.1,0,0,0,3.7,2,9,9,0,0,0,4.3-.2,20.5,20.5,0,0,0,4.1-1.6,15.8,15.8,0,0,0,3.3-2.2,9,9,0,0,0,2.3-2.7,4.1,4.1,0,0,0,.8-2.9c-.2-.6-.9-1.1-2.2-1.5l-2-.4-2.2-.2a2.1,2.1,0,0,1-1.6-.8,2.5,2.5,0,0,1-.8-2,1.5,1.5,0,0,0-.4.6c-.1.3-.1.5-.2.6v1.6a19.2,19.2,0,0,0,.2,3.9,33.6,33.6,0,0,1,.2,4l-.6-.3h-.2l-.3,2.2a3.8,3.8,0,0,1-2.3-1.9,11.8,11.8,0,0,1-1.2-3.3h-.1c-.3.3-.5.3-.9-.2l-.2-.6c-.1-1.2-.1-2.4-.1-3.5s.1-.3.1-.7l-.7.5a4.6,4.6,0,0,1-.7.7c-.2.1-.3.3-.4.4C92.8,222.4,92.2,225.2,94.1,227.2Zm14.5,6.4a10.6,10.6,0,0,0,4.6-2.5,20.1,20.1,0,0,0,3.6-4.3l-3.2,3.1Zm7.6-9.4-5.3,4.1.2.2A16.1,16.1,0,0,0,116.2,224.2Zm.3,1.6-3.8,3.4h.1Z"/><path class="c" d="M144.5,216.1c.3.2.2.8-.2,1.8a3.2,3.2,0,0,1-.8.9l-1,.6-1.3.5-1.1.5-2.5,1.6a27.9,27.9,0,0,1-3.3,1.9,23.4,23.4,0,0,1-4.1,1.6,3.3,3.3,0,0,1-.6,1,4.6,4.6,0,0,1-.7.7l-.9.5-.8.3h-1.5l-.3-.3h-.3c-.2.7-1,.3-2.4-1.1s-2-2.3-1.9-2.8,0-.2.2-.2l-.7-.5.4-.8h1.4a1.4,1.4,0,0,1-.3-1c.1-.3.3-.5.8-.4h.2c.2-1.9.3-3,.3-3.2,0-3.5-.2-7.8-.5-12.8s-.5-8.2-.5-9.4a4,4,0,0,1,1.7-3.6l2-1.6,1,.8,1,4.8,2.1,23.8.5-.2a115.9,115.9,0,0,1,11.4-4.8l.5.5-3.4,1.7h0l3.8-1.5,1.1.3a15.5,15.5,0,0,0-3.3,1.5v.2Zm-17.2-15.7v2.8h.2Zm1.4,20L127.4,204v5.1l1,11.4Zm.5-1.2v.9h.1Zm.2,1.9h0Zm.6-.2,8.2-3.3c-1.8.1-4.5,1.1-8.2,3.1Z"/><path class="c" d="M165.3,194.3a25.3,25.3,0,0,1,3.1,7.2,19.3,19.3,0,0,1,.4,7.6,16.7,16.7,0,0,1-2.7,7.3,11.5,11.5,0,0,1-3.2,3.4,11.4,11.4,0,0,1-4.2,1.9,9.4,9.4,0,0,1-4.7-.3,13.8,13.8,0,0,1-6.6-5.1,21.8,21.8,0,0,1-3.2-8.1,5.4,5.4,0,0,1-.1-1.1,8.8,8.8,0,0,1-.2-1.4,9.7,9.7,0,0,1-.1-1.6c.1-.4.1-.9.2-1.3a2.3,2.3,0,0,1,.4-1.1,1,1,0,0,1,.9-.4,25.4,25.4,0,0,1,3.5-7.4c1.6-2.7,3.2-4.3,4.7-4.9a6.7,6.7,0,0,1,6.4.5A14.9,14.9,0,0,1,165.3,194.3ZM149.9,205l-1,2.8h.2Zm7.4,7.2a17.1,17.1,0,0,0,3.8-8.5,13.5,13.5,0,0,0-1.1-8.9,8.3,8.3,0,0,0-3.3,2.2,28.3,28.3,0,0,0-3.1,3.5,17.8,17.8,0,0,1,4.6-5.5h0a8.7,8.7,0,0,0-4,3.5,20.8,20.8,0,0,0-4.7,10.9,20.2,20.2,0,0,0-.1,2.3,6.3,6.3,0,0,0,.5,2.2,3.3,3.3,0,0,0,1.6,1.7C152.9,216.1,154.8,215,157.3,212.2Zm5.8-10.5-.5,3.4h.2Zm-.1,16.6.9-1.4-1,1.4Zm2.1-15.3-1.5,6.5h.2A15.6,15.6,0,0,0,165.1,203Zm-.8,13.1a9.6,9.6,0,0,0,2.5-4.6,15.7,15.7,0,0,0,.7-5.5l-1,4.4Zm2-12-.8,5h.2Zm.5,9.2.7-2.4-.8,2.4Zm.8-7.5v-.5l-.2.5Zm.4-3.1v.7h.1Zm.1,1.6h.2v0Z"/><path class="c" d="M203,188.7c0,.4.1,1,.2,1.8.5,2.6.8,4.7,1,6.1s.2,3.4.2,5.7a21.3,21.3,0,0,1-.8,6c-.8,2.9-1.9,4.7-3.3,5.5a5.2,5.2,0,0,1-5.1-.3,10.4,10.4,0,0,1-4.3-3.6,15.8,15.8,0,0,0-1.4,2.9,30.1,30.1,0,0,1-1.8,3.6,8.3,8.3,0,0,1-2.1,2.4,4.8,4.8,0,0,1-3.2.9,7.3,7.3,0,0,1-3.4-1.2,11.9,11.9,0,0,1-3.1-2.3,11,11,0,0,1-2-2.5,14.2,14.2,0,0,1-1.4-3.6,17.6,17.6,0,0,1-.7-4.4c-.1-1.6-.2-3-.2-4s0-2.5.1-4.5.1-3.3.1-3.9v-4.1a19.1,19.1,0,0,1,.2-2,12,12,0,0,1,.3-2l1.5-.2,1.4,1a1.1,1.1,0,0,1,1,.6,3.7,3.7,0,0,1,.7,1.4l.3,1.7c.1.5.1,1.1.2,1.7a8.4,8.4,0,0,0,.1,1.2q.9,6,1.5,12.3c0,.4.1,1.2.1,2.3s.1,1.9.2,2.5a10.4,10.4,0,0,0,.3,2.3l.6,2.4,1.4-1.9,1.2-1.8,1.1-2,.9-1.9a10.4,10.4,0,0,0,1-2.1,19.5,19.5,0,0,1,.8-2l.8-2.2a10.4,10.4,0,0,0,.8-2c1.1-2.7,2-4,2.6-3.9s.3.2.5.5l.5-.5.5.9h.3l.3-.5,1,2.8-.7,5.7,1.5,4.5a12,12,0,0,0,1.7-3.6,27.1,27.1,0,0,0,.9-4.1c.1-1.3.2-2.7.2-4.3a30.2,30.2,0,0,0-.2-4.3c-.1-1.4-.3-2.8-.4-4.2a39.1,39.1,0,0,0-.7-3.9,13.3,13.3,0,0,0-.8-3,7.5,7.5,0,0,1-.7-3.4l.4.6,1.2-.9,1.6.9a4.4,4.4,0,0,1,1.6,1.2,14.9,14.9,0,0,1,1.8,3,20.4,20.4,0,0,1,1.1,3.2C202.5,186.1,202.8,187.3,203,188.7Zm-29.4,10.6v0Zm.1,1.8v0Zm.1,1.9v0Zm.1,1.8-.2-1.2v1.3Zm0,1.9v0Zm.7-19v0Zm18.5,8.6v.6h.2Zm5.5-5.6v1.2h.2Zm.2,2.4v1.5h.2Zm.3,6v-.8l-.2.8Zm-.2-3.7v1h.2Zm.2,2.5-.2-1.1v1.1Zm1.3,5.9.3-5.2-.5,5.3Zm.2-8.5v1.1h.2Zm0,1.7v1.4h.2Zm1.2,4.5-.2,1.8h.2Zm0-3.7v.1Zm-.1,2.1h.2v0Zm.1.4v1.1h.2Zm.4,8,.6-4.2-.8,4.3Zm.8-4.4-.2-.8v.8Z"/><path class="c" d="M228.1,184.7a26,26,0,0,1,3.1,7.1,19.4,19.4,0,0,1,.4,7.6,18.2,18.2,0,0,1-2.6,7.4,12.9,12.9,0,0,1-3.3,3.3,9.4,9.4,0,0,1-4.2,1.9,7.6,7.6,0,0,1-4.7-.3,12.9,12.9,0,0,1-6.5-5.1,18,18,0,0,1-3.2-8.1,6.5,6.5,0,0,1-.2-1.1c0-.2-.1-.6-.2-1.3a8.4,8.4,0,0,1,0-1.6,7.1,7.1,0,0,1,.1-1.4,2.8,2.8,0,0,1,.4-1.1,1.8,1.8,0,0,1,.9-.4,25.4,25.4,0,0,1,3.5-7.4c1.7-2.6,3.2-4.2,4.7-4.9a7,7,0,0,1,6.4.5A13.6,13.6,0,0,1,228.1,184.7Zm-15.3,10.7-1,2.7h.1Zm7.4,7.1a16.6,16.6,0,0,0,3.7-8.5,13.6,13.6,0,0,0-1.1-8.9,11.9,11.9,0,0,0-3.3,2.2,40.5,40.5,0,0,0-3.1,3.6,17.1,17.1,0,0,1,4.7-5.5H221c-1.2.3-2.6,1.5-4,3.4a22,22,0,0,0-4.7,10.9c0,1-.1,1.7-.1,2.4a5.6,5.6,0,0,0,.6,2.2,3,3,0,0,0,1.6,1.7C215.8,206.5,217.7,205.4,220.2,202.5Zm5.7-10.4-.5,3.4h.2Zm0,16.6.8-1.4-1,1.4Zm2-15.4-1.5,6.6h.2A14.3,14.3,0,0,0,227.9,193.3Zm-.8,13.2a9.7,9.7,0,0,0,2.5-4.6,16.2,16.2,0,0,0,.7-5.6l-.9,4.4Zm2-12.1-.8,5.1h.2Zm.6,9.3.7-2.4-.9,2.4Zm.8-7.6v.1Zm.4-3v.7h.2Zm.1,1.5h.1v0Z"/><path class="c" d="M253.4,181l.2,18.9.6,5.7.7,2.9h-1.8l-.5-.2a9.2,9.2,0,0,1-4.2-4.5,21.3,21.3,0,0,1-.9-2.7c-.2-.7-.4-1.7-.7-3.1h-.2a7.9,7.9,0,0,1-.8,2.3q-1.5,2.7-3.6,2.7a6.2,6.2,0,0,1-4-1.3,11.9,11.9,0,0,1-3.1-3.6,15.9,15.9,0,0,1-1.2-2.7,13.5,13.5,0,0,1-.5-2.9v-2.7a23.2,23.2,0,0,1,.5-3,18.1,18.1,0,0,1,.6-2.8c.1-.5.4-1.5.7-3l2.1.8,2,15.7a33.9,33.9,0,0,0,6.2-13.9,20.7,20.7,0,0,0,.3-2.6c.2-1.3.4-2.5.6-3.5a4.5,4.5,0,0,1,1-2.2l.3-.3H249l2.2,2.4.6-.5Zm-18.8,10a11.5,11.5,0,0,0,.7,4.2,17.7,17.7,0,0,0,1.9,3.9l-1.3-3.3Zm.5-1.6a18.4,18.4,0,0,0,1.7,6.3l-1.6-6.4Zm17,3.4v-9.7a3.2,3.2,0,0,0-.3.9,3.1,3.1,0,0,0-.1,1v1.8c0,.4.1.7.1.9v8.9c.1,0,0,.5,0,1.2a5.6,5.6,0,0,0,.1,1.9,1.5,1.5,0,0,0,.6.9Z"/><path class="c" d="M282.6,161.8a1.1,1.1,0,0,1,.3.5l.3.6.2.5a1.3,1.3,0,0,1,.1.6,1.8,1.8,0,0,0,.1.6c0,.2-.1.4-.1.6a2,2,0,0,1-.7,1,3.8,3.8,0,0,1-.9.9l-1.2.8-.9.6-2,1.3-1.9,1.3-1.5,1-2.1,1-2.2.8a38.8,38.8,0,0,1,1.1,7.2c.2,2.7.3,5.6.4,8.6s.2,5.6.4,7.4a31.9,31.9,0,0,0,.7,4.7c.2.5-.1,1.4-.7,2.6a19.1,19.1,0,0,0-1,2.3h-.2a7.6,7.6,0,0,1-3.7-3.8,15.7,15.7,0,0,1-1.7-5.8c-.5-4-.9-8.6-1.1-13.7v-4.7a12.5,12.5,0,0,0-.2-2.1l-2.3,1.3a9.4,9.4,0,0,1-2.2,1h-.7l-1,.5-1,.3h-1a1.3,1.3,0,0,1-.7-.4,1.5,1.5,0,0,1-.4-1h-.6l-.2-.5a2,2,0,0,0-.1-.5v-.6l.2-.5c.2-.1.3-.3.4-.4l.6-.4.4-.3c8.7-6.8,15.7-11.1,20.9-12.9v.2h-.6v.2l5-2.8,1.2.5h0l-2.7,1.7-9.4,5.3h1l1-.3.9-.5.9-.5a2.5,2.5,0,0,1,.8-.5c3.3-1.9,5.9-3.4,7.7-4.7.1.1.1.3.2.4l-.4.3-7.7,4.7.9-.2.9-.4,1-.7.8-.5C279.9,163.6,281.5,162.6,282.6,161.8ZM270,186.4l-.6-10.5a5.4,5.4,0,0,0-.4,1.5,15.6,15.6,0,0,0,.1,2c.1.8.2,1.3.2,1.4.4,5.8.6,9,.6,9.7a5.6,5.6,0,0,1,0,1.4,10.3,10.3,0,0,0,.2,2,2.3,2.3,0,0,0,.7,1.1Z"/><path class="c" d="M222.6,252.5v-.2l.2-.7-.4.4c0-.1-.1-.2-.1-.3v-.5h-.4a15.1,15.1,0,0,1,1.1-5,44.5,44.5,0,0,0,1.3-4.3,2.3,2.3,0,0,1,.1-.7,2.5,2.5,0,0,0,.1-.8,1.5,1.5,0,0,0,.1-.7v-.8l-.3-.5a1.4,1.4,0,0,0-1.4-.4,3.8,3.8,0,0,0-1.9.6l-1.8.9-1.3.9a18.1,18.1,0,0,0-5.1,6.4,13.3,13.3,0,0,0-1.3,7.4,1.9,1.9,0,0,0,1.8,1.5,14.7,14.7,0,0,0,3.8.2h2.9a8.4,8.4,0,0,1,4.6,2.7,11.1,11.1,0,0,1,2.5,4.8,5.9,5.9,0,0,1-1,4.7,12.5,12.5,0,0,1-4.2,3.7,13.5,13.5,0,0,1-5.6,1.7,7.4,7.4,0,0,1-5-1.3,10.5,10.5,0,0,1-2.4-2.7,3.3,3.3,0,0,1-.7-2.9,3,3,0,0,1,2.4-1.9,1.9,1.9,0,0,1,2.5,1.2l.6-.3-.5,1.7.7-.7-.2,1.4a18.2,18.2,0,0,0,5.6-2.7,9.4,9.4,0,0,0,3.4-4.4l-3.3.4a20,20,0,0,1-4,.4,5.7,5.7,0,0,1-3.2-.9,11.2,11.2,0,0,1-3.9-3.9,13.9,13.9,0,0,1-2-5.1,17.5,17.5,0,0,1,0-5.6,20,20,0,0,1,1.7-5.4,18.7,18.7,0,0,1,3.6-4.5,16.3,16.3,0,0,1,5.1-3,9.7,9.7,0,0,1,6.7.2,6.7,6.7,0,0,1,4.3,4.2,15.8,15.8,0,0,1,0,8.1,14.8,14.8,0,0,1-3.9,7.3l-.3-.5-.5.4Zm-14.1-8.4.7-1.7-.8,1.7Zm1.4,1,2.4-4.6a9.3,9.3,0,0,0-2.6,4.7Z"/><path class="c" d="M254.6,264.9l.4,1,.4,1c0,.2.1.5.1,1l-1.9.2a12.2,12.2,0,0,0-1.6-1.4l-1.6-1.2-1.3-1.4a9.4,9.4,0,0,1-1.2-1.8c-.5-1.4-1.3-3.6-2.3-6.7l-.2-.9-.3-1.1a1.4,1.4,0,0,0-.4-.7.7.7,0,0,0-.8-.2l-.9.3-1.1.5-.8.3a4.4,4.4,0,0,1-1.3.5l-1.8.7a2.2,2.2,0,0,0-1.2.7c-.8.7-1.1,2.7-.9,5.8l-.8-.2-.3.4-.7-.5-.7-.5-.7-.6-.6-.7a4.9,4.9,0,0,1-.4-1.1,6.1,6.1,0,0,1-.2-1.5,6.6,6.6,0,0,1-.1-1.3v-2.7c.1-3.4.2-6.4.5-9a29.7,29.7,0,0,1,1.6-7.3c1.5-4.5,3.4-7,5.6-7.4a6,6,0,0,1,5.2,1.1,12.5,12.5,0,0,1,3.7,4.9,30.4,30.4,0,0,1,2.3,7.2,84.2,84.2,0,0,1,1.5,8.8,68.5,68.5,0,0,0,1.2,7.3C253.5,260.9,254.1,263,254.6,264.9Zm-21.9-8.8v0Zm.1,1.2-.2-.8v.9Zm-.1,1.5h.2l-.2-1.2Zm1.2-.3v-3.8l-.2,3.9Zm.3-6.9.4-5.2-.6,5.2Zm.6-6v-.7l-.3.7Zm.6,12.3v0Zm0-1.2v0Zm.6-6h.1l2.8-10.8a9.6,9.6,0,0,0-1.7,3.2,32.4,32.4,0,0,0-.9,4A21.9,21.9,0,0,0,236,250.7Zm7.7-2-1.4-12.1a15.8,15.8,0,0,0-3.5,6.2,27.7,27.7,0,0,0-1.5,7.5l1.5-.6,1.7-.6,1.5-.3Zm-1.9-19.3v-.2h-.5l-.2.2Z"/><path class="c" d="M279.9,251c.3.2.2.8-.2,1.9a1.8,1.8,0,0,1-.7.9l-1,.6-1.3.6a2.8,2.8,0,0,0-1.1.5l-2.4,1.7a18.7,18.7,0,0,1-3.2,2,33.1,33.1,0,0,1-4.1,1.8,3.1,3.1,0,0,1-.5,1l-.8.7-.8.6-.8.3h-1.5l-.3-.3h-.3c-.2.7-1,.4-2.4-1s-2.1-2.2-2.1-2.7.1-.2.2-.2l-.6-.5.3-.8h1.4a1.2,1.2,0,0,1-.3-1.1c0-.3.3-.4.7-.4h.2a30.8,30.8,0,0,0,.2-3.2c-.1-3.5-.4-7.7-.9-12.8s-.8-8.1-.9-9.3a4.1,4.1,0,0,1,1.6-3.7l2-1.6,1,.7,1.2,4.8,2.9,23.7.5-.3c2.9-1.6,6.7-3.3,11.2-5.2.2.2.3.4.5.5l-3.3,1.8v.2l3.8-1.7,1.1.3a19.8,19.8,0,0,0-3.3,1.6v.2Zm-17.8-15v2.8h.2Zm2.1,19.9-1.9-16.3.4,5.1L264,256Zm.5-1.2v.9h.1Zm.2,1.9h0Zm.6-.2,8.1-3.6c-1.7.1-4.4,1.3-8.1,3.4Z"/><path class="c" d="M299.3,223.3l-5.7,2.1-5.8,2.1,1,8.6c4.3-1.5,7.9-2,10.8-1.6v.3l-.2.8.5.2-1.1.8h0c.4,0,.4.2-.2.5s-.9,1.5-3.8,2.6l-5.4,1.9.9,7.2.5-.3c3-1.4,6.7-3.1,11.2-4.9.2.2.3.4.5.5l-3.3,1.7h0l3.8-1.6,1,.2-3.2,1.6v.2l3.9-1.6c.3.2.3.7-.1,1.7l-.5.7-.8.6-1,.4-.9.4-.9.4-2.5,1.6-3.2,2-4.1,1.7a3.5,3.5,0,0,1-1.5,1.7,5,5,0,0,1-2,.9c-.7,0-1.1-.1-1.2-.5h-.3c-.2.6-1.1.3-2.5-1s-2-2-2-2.5h.3l-.7-.5.4-.8h1.3a1,1,0,0,1-.2-.9c0-.3.2-.5.7-.5h.2a24.8,24.8,0,0,0,.2-3c0-1.2,0-2.3-.1-3.4a7.4,7.4,0,0,1-3.1.9l-.4-1.6.7-.5a.6.6,0,0,1,0-.6l.4-.4c-.1-1.1.6-2.1,2.1-3.1a16.2,16.2,0,0,1-.3-2.3c-.2-1.1-.4-2.4-.6-3.8s-.3-2.7-.4-3.8a2.4,2.4,0,0,1-2-.7,1.1,1.1,0,0,1-1.1-.3l-.8.2-.8-1.3a8.6,8.6,0,0,1,2.8-1.6c-.1-.1-.1-.2.1-.4l.8-.5,1.1-.5,1.4-.5a22.9,22.9,0,0,1,6.1-2.7,38.3,38.3,0,0,1,5.6-1.3l2.2-.3,3.6-.6.7.5-.3,2.1A3,3,0,0,1,299.3,223.3Zm-11.7,10.3-.3-2.6v2.6Zm.2,2.9-.3-2.2.2,2.3h.1Zm1.4,13-.9-7.5h-.2l.9,7.5Zm2.9-28-3.6,1.2h.2Zm6.5,25c-1.7.2-4.5,1.3-8.1,3.2v.2Zm-4.1-26-2,.6v.2Z"/><polygon class="ak" points="722.5 299.2 655.5 264.3 699.2 300.7 722.5 299.2"/><polygon class="al" points="693 302.8 665.2 306.9 655.9 264.2 693 302.8"/><polygon class="am" points="688.7 318.9 680.5 304 693 302.8 688.7 318.9"/><polygon class="am" points="700.3 301.1 655.5 264.3 691.4 303.9 686.5 320.2 700.3 301.1"/><polygon class="ak" points="1451.5 204.3 1524.8 185.9 1473.8 211.1 1451.5 204.3"/><polygon class="al" points="1479.4 214.6 1505.5 225.1 1524.5 185.7 1479.4 214.6"/><polygon class="am" points="1479.8 231.2 1491.2 218.7 1479.4 214.6 1479.8 231.2"/><polygon class="am" points="1472.7 211.2 1524.8 185.9 1480.7 216 1481.7 233 1472.7 211.2"/><path class="d" d="M1652.2,101.8l9.7,9.7h-20.2C1641.7,111.2,1652.2,101.8,1652.2,101.8Z"/><path class="d" d="M1652.9,84.8l9.7,9.7h-20.2C1642.4,94.2,1652.9,84.8,1652.9,84.8Z"/><path class="d" d="M1652.2,69.3l9.7,9.7h-20.2C1641.7,78.6,1652.2,69.3,1652.2,69.3Z"/><path class="d" d="M1652.2,52.6l9.7,9.7h-20.2C1641.7,61.9,1652.2,52.6,1652.2,52.6Z"/></g></svg>