<svg xmlns="http://www.w3.org/2000/svg" viewBox="0 0 133 137"><defs><style>.a{fill:#0e0e0e;}.b{fill:#fe7f32;}.c{fill:#fff;}.d{fill:none;stroke:#0e0e0e;stroke-miterlimit:10;stroke-width:1.08px;}</style></defs><path class="a" d="M36.9,63.3a12.3,12.3,0,0,1,1.7-10l9-13.4s1.1-2.7,5.5-1.1S67.4,45,68.9,45.6l.3.2c.8.3,4.4,1.8,4.3,5.7a3.4,3.4,0,0,0,.2,1.4L86.6,94.7s1.2,3-.7,5.3a4.8,4.8,0,0,1-2.3,1.3l-27.8,7.1-.8.3c-1.1.5-4.4,1.6-6.2-3.1-.1-.2-.2-.3-.2-.5Z"/><path class="b" d="M33.1,63.8a11.6,11.6,0,0,1,1.6-9.9l9-13.5s1.1-2.7,5.5-1.1S63.5,45.5,65,46.2h.3c.8.3,4.4,1.9,4.3,5.7a5.9,5.9,0,0,0,.2,1.4l13,41.8s1.2,3.1-.8,5.3a4.9,4.9,0,0,1-2.3,1.4L51.9,109l-.8.2c-1,.5-4.3,1.6-6.2-3.1-.1-.1-.1-.3-.2-.4Z"/><ellipse class="c" cx="47.2" cy="53" rx="2.7" ry="3.5" transform="translate(-11.7 13.5) rotate(-14.5)"/><path class="d" d="M47,53.2S29.8,8.7,45.7,24.4"/><path class="c" d="M64.5,97.1,49.8,84.8a2.8,2.8,0,0,1-.9-1.7c-.6-1.6-.6-1.7.6-2A8.5,8.5,0,0,0,53.6,79c1.3-1.3,1.8-3.2,1.5-5.6-.1-.6-.3-.7-.8-.6L45.4,76c0-.9.2-1.6.2-2.4s.4-1.4,1.1-1.6l5.8-2.2.7-.3a5.1,5.1,0,0,0-1.8-1.3,5,5,0,0,0-4.3,0l-3.9,1.5c.1-1.3.1-2.5.3-3.6L58,59.9c.2,0,.4,0,.4-.3l1-.5c.3.1.4.3.4.7a25.4,25.4,0,0,0-.4,2.9.7.7,0,0,1-.5.7L54.7,65a20.9,20.9,0,0,1,2.4,2.8c.2.3.4.1.6.1l3.7-1.4,1-.4c-.1,1.4-.3,2.7-.5,3.9s-.3.3-.5.3l-2.5.9c-.2.1-.3.2-.2.6.7,4.5-.6,7.5-3.2,9.5a8.2,8.2,0,0,1-2,1.2c-.2,0-.4,0-.4.2a.8.8,0,0,0,.4.4l6.3,5.3L68,95.3a1.2,1.2,0,0,1,.6,1Z"/></svg>