<svg id="Layer_2" data-name="Layer 2" xmlns="http://www.w3.org/2000/svg" viewBox="0 0 233.7 58.2"><defs><style>.cls-1{fill:#0082c9;}.cls-2{isolation:isolate;}.cls-3{fill:#2b2a27;}.cls-4{fill:#fdfdfd;}.cls-5{fill:#464749;}.cls-6{fill:#fff;}.cls-7{fill:none;stroke:#0082c9;stroke-miterlimit:10;stroke-width:0.45px;}</style></defs><path class="cls-1" d="M227.18,46a2.58,2.58,0,0,0-2.3,1.44,3.91,3.91,0,0,0-7.52,0,2.55,2.55,0,1,0,0,2.16,3.92,3.92,0,0,0,7.52,0,2.55,2.55,0,1,0,2.3-3.65Zm-12.12,3.56a1,1,0,0,1-1.05-1,1,1,0,0,1,1.05-1,1,1,0,0,1,0,2.09ZM221.13,51a2.43,2.43,0,1,1,2.42-2.42A2.42,2.42,0,0,1,221.13,51Zm6.05-1.38a1,1,0,1,1,1-1A1,1,0,0,1,227.18,49.58Z"/><g class="cls-2"><path class="cls-3" d="M60.75,33.72a9.64,9.64,0,0,1-3.1-1.64l1.92-2.69A7.69,7.69,0,0,0,64.47,31a4.41,4.41,0,0,0,2.22-.48,1.42,1.42,0,0,0,.82-1.29,1.3,1.3,0,0,0-.76-1.19,6.68,6.68,0,0,0-2.44-.61A9.66,9.66,0,0,1,59.58,26a3.92,3.92,0,0,1-1.5-3.3,4.17,4.17,0,0,1,.81-2.55,5.24,5.24,0,0,1,2.28-1.72,8.73,8.73,0,0,1,3.39-.61,11.18,11.18,0,0,1,3.21.47,9.26,9.26,0,0,1,2.77,1.34L68.8,22.18a7,7,0,0,0-4.09-1.28,4.62,4.62,0,0,0-2.2.45,1.36,1.36,0,0,0-.82,1.22,1.28,1.28,0,0,0,.71,1.15,6.89,6.89,0,0,0,2.38.61,9.52,9.52,0,0,1,4.79,1.59,4.06,4.06,0,0,1,1.58,3.38,4.38,4.38,0,0,1-.83,2.63A5.38,5.38,0,0,1,68,33.69a9.19,9.19,0,0,1-3.48.62A12,12,0,0,1,60.75,33.72Z"/><path class="cls-3" d="M80.84,33.52a6.48,6.48,0,0,1-3,.66,4,4,0,0,1-2.89-1,4.45,4.45,0,0,1-1.06-3.31V25.62H72V22.79h1.9V20l3.52-.39v3.16h2.78v2.83H77.45v4.22a1.17,1.17,0,0,0,1.27,1.33A2.84,2.84,0,0,0,80,30.86Z"/><path class="cls-3" d="M84.6,33.46a5.06,5.06,0,0,1-2.13-2,6.58,6.58,0,0,1,0-6.1,5.12,5.12,0,0,1,2.13-2,7.58,7.58,0,0,1,6.49,0,5.17,5.17,0,0,1,2.15,2,6.66,6.66,0,0,1,0,6.1,5.11,5.11,0,0,1-2.15,2,7.48,7.48,0,0,1-6.49,0Zm5.14-3.06a3.22,3.22,0,0,0,0-4.06,2.45,2.45,0,0,0-1.9-.79,2.4,2.4,0,0,0-1.87.79,3.19,3.19,0,0,0,0,4.06,2.4,2.4,0,0,0,1.87.79A2.45,2.45,0,0,0,89.74,30.4Z"/><path class="cls-3" d="M103.9,22.83a3.86,3.86,0,0,1,1.33.82l-1.49,2.6a4.15,4.15,0,0,0-.88-.43,2.72,2.72,0,0,0-.86-.14,2.28,2.28,0,0,0-1.78.73,3,3,0,0,0-.66,2.12V34H96V22.79h3.09l.27,1.4a3.4,3.4,0,0,1,3-1.64A4.4,4.4,0,0,1,103.9,22.83Z"/><path class="cls-3" d="M117.83,22.79V34h-3.07l-.23-1.33a4.76,4.76,0,0,1-3.7,1.56,5.24,5.24,0,0,1-2.77-.74,5,5,0,0,1-1.88-2,7,7,0,0,1,0-6,5.07,5.07,0,0,1,1.88-2.06,5.23,5.23,0,0,1,2.77-.73,5.43,5.43,0,0,1,2.08.39,4.67,4.67,0,0,1,1.62,1.14l.23-1.31Zm-4.24,7.63a3.2,3.2,0,0,0,0-4.09,2.55,2.55,0,0,0-1.92-.78,2.47,2.47,0,0,0-1.91.79,3.15,3.15,0,0,0,0,4.06,2.47,2.47,0,0,0,1.91.79A2.54,2.54,0,0,0,113.59,30.42Z"/><path class="cls-3" d="M131.53,33.55a3.72,3.72,0,0,1,.62,2.12,4.16,4.16,0,0,1-.77,2.47,4.9,4.9,0,0,1-2.17,1.65,8.54,8.54,0,0,1-3.25.57,7.92,7.92,0,0,1-3.16-.58,4.75,4.75,0,0,1-2.09-1.68,4.33,4.33,0,0,1-.73-2.5,3.88,3.88,0,0,1,0-.54h3.41a2.09,2.09,0,0,0,.62,1.71,2.74,2.74,0,0,0,1.93.61,3,3,0,0,0,1.83-.51,1.55,1.55,0,0,0,.7-1.34,1.53,1.53,0,0,0-.64-1.32,3.13,3.13,0,0,0-1.84-.46,7.16,7.16,0,0,1-3.24-.7,5.15,5.15,0,0,1-2.15-2,5.75,5.75,0,0,1-.76-3,5.45,5.45,0,0,1,.78-2.9,5.36,5.36,0,0,1,2.17-2A6.91,6.91,0,0,1,126,22.5a5.86,5.86,0,0,1,2.53.54l1.31-1.62,2.6,1.87L130.93,25a4.71,4.71,0,0,1,.53,5.36,4.88,4.88,0,0,1-1.68,1.73A4.22,4.22,0,0,1,131.53,33.55ZM127.88,30a2.59,2.59,0,0,0,.72-1.92,2.62,2.62,0,1,0-5.24,0,2.63,2.63,0,0,0,.73,1.91,2.52,2.52,0,0,0,1.89.73A2.56,2.56,0,0,0,127.88,30Z"/><path class="cls-3" d="M142.9,23.23a4.8,4.8,0,0,1,2,1.95,5.74,5.74,0,0,1,.71,2.92,8.86,8.86,0,0,1-.11,1.33h-8.2a2.11,2.11,0,0,0,.93,1.39,3.33,3.33,0,0,0,2,.53,5.28,5.28,0,0,0,1.63-.25,3.76,3.76,0,0,0,1.35-.7l1.86,2a6.65,6.65,0,0,1-2.25,1.36,8.18,8.18,0,0,1-2.77.47,7.5,7.5,0,0,1-3.36-.71,5.17,5.17,0,0,1-2.19-2,6.07,6.07,0,0,1-.77-3.1,6,6,0,0,1,.76-3,5.25,5.25,0,0,1,2.11-2.07,6.47,6.47,0,0,1,3.14-.73A6.79,6.79,0,0,1,142.9,23.23Zm-4.78,2.66a2.1,2.1,0,0,0-.75,1.51h4.92a2.07,2.07,0,0,0-.71-1.51,2.61,2.61,0,0,0-1.73-.54A2.67,2.67,0,0,0,138.12,25.89Z"/><path class="cls-3" d="M155.4,33.72a9.8,9.8,0,0,1-3.11-1.64l1.92-2.69a7.71,7.71,0,0,0,4.9,1.65,4.42,4.42,0,0,0,2.23-.48,1.42,1.42,0,0,0,.82-1.29,1.3,1.3,0,0,0-.77-1.19,6.61,6.61,0,0,0-2.43-.61A9.74,9.74,0,0,1,154.22,26a3.92,3.92,0,0,1-1.5-3.3,4.12,4.12,0,0,1,.82-2.55,5.24,5.24,0,0,1,2.28-1.72,8.64,8.64,0,0,1,3.38-.61,11.25,11.25,0,0,1,3.22.47,9.26,9.26,0,0,1,2.77,1.34l-1.74,2.59a7.08,7.08,0,0,0-4.09-1.28,4.59,4.59,0,0,0-2.2.45,1.36,1.36,0,0,0-.82,1.22,1.26,1.26,0,0,0,.71,1.15,6.89,6.89,0,0,0,2.38.61,9.56,9.56,0,0,1,4.79,1.59,4.06,4.06,0,0,1,1.58,3.38,4.32,4.32,0,0,1-.84,2.63,5.27,5.27,0,0,1-2.35,1.76,9.1,9.1,0,0,1-3.47.62A12,12,0,0,1,155.4,33.72Z"/><path class="cls-3" d="M178,23.92a5.44,5.44,0,0,1,1.21,3.73V34h-3.54v-6.1a2.5,2.5,0,0,0-.53-1.69,1.86,1.86,0,0,0-1.48-.61,2.17,2.17,0,0,0-1.69.7,2.65,2.65,0,0,0-.64,1.83V34h-3.54V18.14h3.54V24a4.31,4.31,0,0,1,3.41-1.46A4.1,4.1,0,0,1,178,23.92Z"/><path class="cls-3" d="M193.44,22.79V34h-3.07l-.23-1.33a4.76,4.76,0,0,1-3.7,1.56,5.24,5.24,0,0,1-2.77-.74,5,5,0,0,1-1.88-2,7,7,0,0,1,0-6,5.07,5.07,0,0,1,1.88-2.06,5.23,5.23,0,0,1,2.77-.73,5.46,5.46,0,0,1,2.08.39,4.67,4.67,0,0,1,1.62,1.14l.23-1.31Zm-4.24,7.63a3.2,3.2,0,0,0,0-4.09,2.55,2.55,0,0,0-1.92-.78,2.47,2.47,0,0,0-1.91.79,3.15,3.15,0,0,0,0,4.06,2.47,2.47,0,0,0,1.91.79A2.54,2.54,0,0,0,189.2,30.42Z"/><path class="cls-3" d="M204,22.83a3.86,3.86,0,0,1,1.33.82l-1.49,2.6a4.15,4.15,0,0,0-.88-.43,2.72,2.72,0,0,0-.86-.14,2.28,2.28,0,0,0-1.78.73,3,3,0,0,0-.66,2.12V34h-3.54V22.79h3.09l.27,1.4a3.4,3.4,0,0,1,3-1.64A4.44,4.44,0,0,1,204,22.83Z"/><path class="cls-3" d="M214.76,23.23a4.8,4.8,0,0,1,2,1.95,5.74,5.74,0,0,1,.71,2.92,8.86,8.86,0,0,1-.11,1.33h-8.2a2.11,2.11,0,0,0,.93,1.39,3.33,3.33,0,0,0,2,.53,5.28,5.28,0,0,0,1.63-.25,3.89,3.89,0,0,0,1.36-.7l1.85,2a6.65,6.65,0,0,1-2.25,1.36,8.18,8.18,0,0,1-2.77.47,7.5,7.5,0,0,1-3.36-.71,5.17,5.17,0,0,1-2.19-2,6.07,6.07,0,0,1-.77-3.1,6,6,0,0,1,.76-3,5.25,5.25,0,0,1,2.11-2.07,6.47,6.47,0,0,1,3.14-.73A6.79,6.79,0,0,1,214.76,23.23ZM210,25.89a2.1,2.1,0,0,0-.75,1.51h4.92a2.07,2.07,0,0,0-.71-1.51,2.61,2.61,0,0,0-1.73-.54A2.67,2.67,0,0,0,210,25.89Z"/></g><path class="cls-1" d="M40.28,33.23H16v6.89s2.23,4.29,11.23,4.25c0,0,10.64.85,13.1-4.34Z"/><ellipse class="cls-4" cx="28.18" cy="33.65" rx="12.1" ry="5.12"/><path class="cls-5" d="M28.05,29.26c-5.33,0-9.66,1.69-9.75,3.79h.31v.07c0,2.14,4.3,3.87,9.59,3.87s9.6-1.73,9.6-3.87S33.43,29.26,28.05,29.26Z"/><path class="cls-1" d="M40.28,24.28H16v6.89s2.23,4.3,11.23,4.25c0,0,10.64.85,13.1-4.34Z"/><ellipse class="cls-4" cx="28.18" cy="24.71" rx="12.1" ry="5.12"/><path class="cls-5" d="M28.05,20.31c-5.33,0-9.66,1.69-9.75,3.79h.31v.07c0,2.13,4.3,3.86,9.59,3.86s9.6-1.73,9.6-3.86S33.43,20.31,28.05,20.31Z"/><path class="cls-1" d="M40.15,15.29H15.81v6.89S18.05,26.47,27,26.43c0,0,10.65.85,13.11-4.34Z"/><ellipse class="cls-4" cx="28.05" cy="15.72" rx="12.1" ry="5.12"/><ellipse class="cls-6" cx="37.93" cy="20.97" rx="0.56" ry="0.47" transform="translate(8.58 52.86) rotate(-76.32)"/><ellipse class="cls-6" cx="36.4" cy="21.62" rx="0.56" ry="0.47" transform="translate(6.78 51.87) rotate(-76.32)"/><ellipse class="cls-6" cx="35" cy="22.24" rx="0.56" ry="0.47" transform="translate(5.11 50.99) rotate(-76.32)"/><ellipse class="cls-6" cx="38.2" cy="30.04" rx="0.56" ry="0.47" transform="translate(-0.03 60.04) rotate(-76.32)"/><ellipse class="cls-6" cx="37.1" cy="30.63" rx="0.56" ry="0.47" transform="translate(-1.45 59.43) rotate(-76.32)"/><ellipse class="cls-6" cx="35.88" cy="31.16" rx="0.56" ry="0.47" transform="translate(-2.88 58.64) rotate(-76.32)"/><ellipse class="cls-6" cx="38.58" cy="38.82" rx="0.56" ry="0.47" transform="translate(-8.26 67.12) rotate(-76.32)"/><ellipse class="cls-6" cx="37.51" cy="39.27" rx="0.56" ry="0.47" transform="translate(-9.52 66.43) rotate(-76.32)"/><ellipse class="cls-6" cx="36.38" cy="39.7" rx="0.56" ry="0.47" transform="translate(-10.8 65.66) rotate(-76.32)"/><path class="cls-1" d="M25.75,15a1.73,1.73,0,0,1,1-.86,3.21,3.21,0,0,1,1.29-.2,3.26,3.26,0,0,1,.76.12,2.61,2.61,0,0,1,.67.27,2.08,2.08,0,0,1,.52.39,1.49,1.49,0,0,1,.33.47,1.49,1.49,0,0,1,1-.5,2.35,2.35,0,0,1,1,.05c.63.18,1,.6,1,1s-.46.82-1.09.93a2.12,2.12,0,0,1-1.09-.08,1.46,1.46,0,0,1-.79-.54,1.78,1.78,0,0,1-1,.85,3.34,3.34,0,0,1-2.72-.19,1.84,1.84,0,0,1-.85-.88,1.45,1.45,0,0,1-.94.51,2.08,2.08,0,0,1-1,0c-.65-.16-1.09-.6-1.07-1s.48-.84,1.14-.94a2.32,2.32,0,0,1,1.08.1A1.49,1.49,0,0,1,25.75,15Zm3.78.61c0-.55-.64-1-1.45-1.05s-1.51.37-1.52.92.64,1,1.46,1.06S29.52,16.14,29.53,15.59Zm-5.22.2c.36,0,.65-.16.66-.4s-.28-.44-.64-.46-.65.16-.65.4S24,15.78,24.31,15.79Zm8.09-.07c0-.24-.27-.44-.64-.46s-.65.16-.65.4.27.44.63.46S32.39,16,32.4,15.72Z"/><circle class="cls-7" cx="28.54" cy="27.02" r="23.09"/><circle class="cls-1" cx="40.98" cy="7.29" r="3.35"/><circle class="cls-4" cx="40.98" cy="6.06" r="0.9"/><path class="cls-4" d="M39.53,8.8l2.9,0s-.06-1.51-1.21-1.6A1.5,1.5,0,0,0,39.53,8.8Z"/><circle class="cls-1" cx="10.72" cy="41.08" r="3.35"/><circle class="cls-4" cx="10.72" cy="39.85" r="0.9"/><path class="cls-4" d="M9.27,42.59l2.9,0S12.11,41.05,11,41A1.5,1.5,0,0,0,9.27,42.59Z"/><circle class="cls-4" cx="8.99" cy="41.07" r="0.5"/><path class="cls-4" d="M8.19,42.58H9.8s0-.84-.67-.88A.83.83,0,0,0,8.19,42.58Z"/><circle class="cls-4" cx="12.56" cy="41.07" r="0.5"/><path class="cls-4" d="M11.76,42.58h1.6s0-.84-.67-.88A.82.82,0,0,0,11.76,42.58Z"/></svg>