<svg id="Layer_3" data-name="Layer 3" xmlns="http://www.w3.org/2000/svg" viewBox="0 0 233.7 58.2"><defs><style>.cls-1{isolation:isolate;}.cls-2{fill:#2b2a27;}.cls-3{fill:#4269b1;}.cls-4{fill:#cedef2;}</style></defs><g class="cls-1"><path class="cls-2" d="M81.29,33.64a9.58,9.58,0,0,1-3-1.61l1.88-2.63A7.55,7.55,0,0,0,84.92,31a4.5,4.5,0,0,0,2.18-.46,1.42,1.42,0,0,0,.8-1.26,1.29,1.29,0,0,0-.75-1.17,6.65,6.65,0,0,0-2.38-.6A9.46,9.46,0,0,1,80.14,26a3.81,3.81,0,0,1-1.47-3.22,4.1,4.1,0,0,1,.8-2.5,5.14,5.14,0,0,1,2.23-1.68A8.5,8.5,0,0,1,85,18.05a10.87,10.87,0,0,1,3.15.46,9.14,9.14,0,0,1,2.7,1.3l-1.7,2.54a6.85,6.85,0,0,0-4-1.26,4.4,4.4,0,0,0-2.15.45,1.32,1.32,0,0,0-.81,1.19,1.24,1.24,0,0,0,.7,1.12,6.44,6.44,0,0,0,2.33.6A9.38,9.38,0,0,1,89.91,26a4,4,0,0,1,1.55,3.3,4.26,4.26,0,0,1-.82,2.57,5.17,5.17,0,0,1-2.3,1.72,8.78,8.78,0,0,1-3.4.61A11.76,11.76,0,0,1,81.29,33.64Z"/><path class="cls-2" d="M100.93,33.44a6.33,6.33,0,0,1-2.89.64,3.9,3.9,0,0,1-2.83-1,4.34,4.34,0,0,1-1-3.23V25.71H92.32V23h1.85V20.23l3.45-.37V23h2.71v2.76H97.62v4.13a1.3,1.3,0,0,0,.33,1,1.22,1.22,0,0,0,.91.32,2.72,2.72,0,0,0,1.25-.31Z"/><path class="cls-2" d="M104.61,33.38a5,5,0,0,1-2.09-2,6.45,6.45,0,0,1,0-6,5.11,5.11,0,0,1,2.09-2,6.77,6.77,0,0,1,3.17-.71,6.9,6.9,0,0,1,3.18.71,5.13,5.13,0,0,1,2.1,2,6.53,6.53,0,0,1,0,6,5,5,0,0,1-2.1,2,6.78,6.78,0,0,1-3.18.72A6.65,6.65,0,0,1,104.61,33.38Zm5-3a3.13,3.13,0,0,0,0-4,2.57,2.57,0,0,0-3.69,0,3.16,3.16,0,0,0,0,4,2.6,2.6,0,0,0,3.69,0Z"/><path class="cls-2" d="M123.48,23a3.62,3.62,0,0,1,1.3.81l-1.45,2.54a4.28,4.28,0,0,0-.87-.42,2.55,2.55,0,0,0-.84-.13,2.24,2.24,0,0,0-1.74.7,3,3,0,0,0-.64,2.08v5.3h-3.47V23h3l.26,1.37A3.31,3.31,0,0,1,122,22.71,4.4,4.4,0,0,1,123.48,23Z"/><path class="cls-2" d="M137.11,23V33.86h-3l-.22-1.3a4.69,4.69,0,0,1-3.62,1.52,5.11,5.11,0,0,1-2.71-.72,5,5,0,0,1-1.84-2,6.9,6.9,0,0,1,0-5.89,4.85,4.85,0,0,1,1.84-2,5.11,5.11,0,0,1,2.71-.72,5.36,5.36,0,0,1,2,.38,4.38,4.38,0,0,1,1.59,1.12L134.1,23ZM133,30.4a3.1,3.1,0,0,0,0-4,2.49,2.49,0,0,0-1.87-.76,2.42,2.42,0,0,0-1.87.78,3.1,3.1,0,0,0,0,4,2.42,2.42,0,0,0,1.87.77A2.46,2.46,0,0,0,133,30.4Z"/><path class="cls-2" d="M150.5,33.47a3.58,3.58,0,0,1,.61,2.07,4.06,4.06,0,0,1-.75,2.42,4.86,4.86,0,0,1-2.12,1.61,8.47,8.47,0,0,1-3.18.56,7.83,7.83,0,0,1-3.1-.57,4.66,4.66,0,0,1-2-1.64,4.26,4.26,0,0,1-.72-2.45,3.51,3.51,0,0,1,0-.53h3.33a2,2,0,0,0,.61,1.68,2.68,2.68,0,0,0,1.89.59,3,3,0,0,0,1.79-.49,1.56,1.56,0,0,0,.68-1.32,1.49,1.49,0,0,0-.63-1.29,3.07,3.07,0,0,0-1.8-.45,6.92,6.92,0,0,1-3.17-.69,5,5,0,0,1-2.1-1.93,5.61,5.61,0,0,1-.74-2.9,5.33,5.33,0,0,1,.77-2.84A5.11,5.11,0,0,1,142,23.36a6.62,6.62,0,0,1,3.1-.7,5.76,5.76,0,0,1,2.47.53l1.28-1.59,2.54,1.83-1.45,1.71a4.6,4.6,0,0,1,.51,5.24,4.73,4.73,0,0,1-1.64,1.69A4.18,4.18,0,0,1,150.5,33.47ZM146.93,30a2.57,2.57,0,0,0,.71-1.88,2.39,2.39,0,0,0-2.56-2.56,2.54,2.54,0,0,0-1.86.69,2.83,2.83,0,0,0,0,3.73,2.78,2.78,0,0,0,3.71,0Z"/><path class="cls-2" d="M161.62,23.38a4.77,4.77,0,0,1,2,1.9,5.74,5.74,0,0,1,.69,2.86,8.5,8.5,0,0,1-.11,1.3h-8a2.06,2.06,0,0,0,.9,1.36,3.27,3.27,0,0,0,1.92.52,5.28,5.28,0,0,0,1.59-.24,4.09,4.09,0,0,0,1.33-.69l1.81,1.94a6.36,6.36,0,0,1-2.2,1.33,7.77,7.77,0,0,1-2.7.46,7.29,7.29,0,0,1-3.29-.69,5,5,0,0,1-2.15-2,5.86,5.86,0,0,1-.75-3,6,6,0,0,1,.74-3,5.22,5.22,0,0,1,2.07-2,6.41,6.41,0,0,1,3.07-.71A6.64,6.64,0,0,1,161.62,23.38ZM157,26a2.07,2.07,0,0,0-.74,1.48H161a2,2,0,0,0-.69-1.48,2.57,2.57,0,0,0-1.69-.53A2.61,2.61,0,0,0,157,26Z"/><path class="cls-2" d="M184.61,27.27a4,4,0,0,1,.66,2.26,3.74,3.74,0,0,1-1.56,3.18,7.05,7.05,0,0,1-4.29,1.15h-7.64V18.4h7.64a6.35,6.35,0,0,1,3.93,1.1,3.59,3.59,0,0,1,1.44,3,3.73,3.73,0,0,1-.52,2,3.39,3.39,0,0,1-1.45,1.3A4,4,0,0,1,184.61,27.27Zm-9.28-5.89v3.07h4.16a2,2,0,0,0,1.32-.4,1.39,1.39,0,0,0,.46-1.12,1.4,1.4,0,0,0-.47-1.14,2,2,0,0,0-1.31-.41Zm5.84,9a1.79,1.79,0,0,0,0-2.58,2.29,2.29,0,0,0-1.51-.45h-4.33v3.49h4.33A2.23,2.23,0,0,0,181.17,30.35Z"/><path class="cls-2" d="M189.59,33.38a5,5,0,0,1-2.09-2,6.45,6.45,0,0,1,0-6,5.11,5.11,0,0,1,2.09-2,7.45,7.45,0,0,1,6.35,0,5.13,5.13,0,0,1,2.1,2,6.45,6.45,0,0,1,0,6,5,5,0,0,1-2.1,2,7.36,7.36,0,0,1-6.35,0Zm5-3a3.13,3.13,0,0,0,0-4,2.38,2.38,0,0,0-1.85-.78,2.35,2.35,0,0,0-1.83.78,3.13,3.13,0,0,0,0,4,2.34,2.34,0,0,0,1.83.77A2.37,2.37,0,0,0,194.61,30.39Z"/><path class="cls-2" d="M207.47,28.32l3.66,5.54h-4l-.95-1.57-1.09-1.83L204,32.29l-1,1.57h-3.91l3.67-5.54L199.43,23h3.91l1,1.65.8,1.51L206,24.6,207,23h3.82Z"/></g><polygon class="cls-3" points="21.91 15.49 43.08 26.83 64.32 15.75 42.56 4.61 21.91 15.49"/><polygon class="cls-4" points="21.42 16.11 42.43 27.48 42.69 50.61 21.71 39.01 21.42 16.11"/><polygon class="cls-3" points="43.47 27.87 64.84 16.92 65.04 39.34 43.73 50.61 43.47 27.87"/><path class="cls-3" d="M32,31.58a3.67,3.67,0,0,0-1.71-3.19c-1-.41-1.89.45-1.95,2A4.57,4.57,0,0,0,29,33l-.38,5.44,2.52,1-.12-5.61A2.45,2.45,0,0,0,32,31.58Z"/><polygon class="cls-4" points="60.41 39.27 48.69 45.66 48.42 28.07 60.55 21.68 60.41 39.27"/><polygon class="cls-3" points="53 29.84 50.62 31.11 50.61 29.69 53 28.42 53 29.84"/><polygon class="cls-3" points="58.59 37.7 55.17 39.55 55.17 38.19 58.6 36.34 58.59 37.7"/><polygon class="cls-3" points="58.52 35.05 56.21 36.3 56.21 34.92 58.53 33.67 58.52 35.05"/><polygon class="cls-3" points="55.09 36.9 50.71 39.26 50.7 37.88 55.08 35.53 55.09 36.9"/><polygon class="cls-3" points="58.6 29.71 56.26 30.96 56.26 29.56 58.61 28.31 58.6 29.71"/><polygon class="cls-3" points="55.18 31.54 50.71 33.92 50.7 32.52 55.18 30.13 55.18 31.54"/><polygon class="cls-3" points="58.62 32.31 55.24 34.12 55.24 32.73 58.62 30.92 58.62 32.31"/><polygon class="cls-3" points="54.34 34.64 50.93 36.47 50.92 35.08 54.33 33.25 54.34 34.64"/><polygon class="cls-3" points="58.45 27.05 53.98 29.43 53.98 28.01 58.45 25.64 58.45 27.05"/><polygon class="cls-3" points="54.55 39.89 50.74 41.95 50.73 40.59 54.54 38.53 54.55 39.89"/></svg>