<svg xmlns="http://www.w3.org/2000/svg" viewBox="0 0 1366 1108"><defs><style>.a{fill:#fcb341;stroke:#3ec2a3;stroke-width:9.87px;}.a,.g{stroke-miterlimit:10;}.b{fill:#3ec2a3;}.c{fill:#fff;}.d{fill:#6fd6a2;}.e{fill:#f3e9f9;}.f{fill:#dddaed;}.g{fill:none;stroke:#bbbdbf;stroke-width:16.09px;}</style></defs><rect class="a" x="39.9" y="49.9" width="1293.2" height="1000.31"/><rect class="b" x="39.9" y="49.9" width="1293.2" height="174.4"/><circle class="c" cx="105.7" cy="135.5" r="23"/><circle class="c" cx="171.5" cy="135.5" r="23"/><circle class="c" cx="237.3" cy="135.5" r="23"/><path class="d" d="M706.7,328.8c13.8,6,23.2,17.7,34.5,26.9,49.5,40.1,105.2,66,168.4,75.6l5.5,1.2a7,7,0,0,1,2.7,6c.2,14.6.3,29.1-.1,43.7a7,7,0,0,1-1.1,4.2c-2.6,3.3-6.1,3-9.7,2.5s-7.3-1.8-11.1-1.8c-15.7-1.8-30.9-6-46-10.3-48.6-13.7-92.5-36.5-132.7-66.9-3.5-2.7-7-5.4-10.3-8.3s-6.5-3-10.1-.1c-39.4,32.1-83.1,56.4-131.5,71.9a390.3,390.3,0,0,1-83.7,17.3c-10.4.9-10.8,1.4-10.8,11.9,0,35.7-.6,71.5.2,107.3s4.8,72.5,16.2,107.3a245.9,245.9,0,0,0,48.2,85c28,32.4,61.8,57.4,98.6,78.7,8.4,4.8,16.8,9.6,25.3,14.1,5.8,4.3,12.7,6.2,19,9.5,2.9,1.5,6.4,2.6,6.4,6.9s-3.8,4.4-6.4,5.7c-13.2,6.3-26.5,12.6-40.2,18.1-8.1,3.3-15.8,3.1-23.6-1.1-5.9-3.2-12-6-18-9.1-93.7-55.6-159.8-131.2-176.6-242.9-5.1-33.8-6.7-67.8-6.8-101.9-.2-38.9-.1-77.8-.1-116.8.1-19.2,7.9-27.2,27.1-27.5,90.7-1.4,170-32.3,237.3-93.4,5.9-5.3,11.8-10.6,19.3-13.7Z"/><path class="b" d="M915.1,486.7V432.5c19.1,1.2,38.2,2.1,57.2,3.8,10.3.9,18.3,10.7,18.3,22.4-.1,50.3.9,100.6-.5,150.8-.8,27.8-3.1,55.3-8.1,82.6-12.5,68.6-44.1,126.7-95.3,174s-112.9,81.7-178,108.4c-.3.1-.5.6-.7.9H695.3c-32-13.7-63.3-28.8-93.2-46.5-2-1.2-3.8-2.6-5.7-3.9,6.5,2.5,13,4.9,19.4,7.5a26.6,26.6,0,0,0,21.4,0c15.9-6.6,31.6-13.8,46.9-21.6,2.7-2.7,5.7-1.7,8.1-.1,6.4,4.2,12,3.3,18.8.2,31-14.4,61.1-30.3,89.3-49.5,36.6-24.8,68.4-54.3,91.8-92.3,16.7-27.2,27.2-56.7,33-88,6.4-35.1,7.8-70.5,7.5-106-.2-23.8,0-47.6,0-71.4,0-11.6-.1-11.6-11.5-13.2C918.5,490.3,915.5,490.5,915.1,486.7Z"/><path class="e" d="M658.4,897.4c-50.3-25.7-96.4-56.9-132.1-101.6-29.9-37.5-46.5-80.4-53.3-127.6s-4.9-91.6-5.2-137.4c0-11.8.2-23.6,0-35.4-.1-4.3.7-6.2,5.7-6.6,55.1-5,107.4-19.7,156.2-46a389.9,389.9,0,0,0,66-44.2c4.6-3.9,7.4-3.7,12,.1q82.3,67.4,187.2,85.6c3.9.6,5.2,3.1,5.2,6.7.1,27.8.8,55.6-.3,83.3-.7,18-1.3,36.1-3.5,54-3.8,31.5-10.4,62.1-23.6,91.1-15.3,33.4-36.8,62.2-63.4,87.2s-55,44.2-86,61.4q-26.7,14.8-54.6,27.5C665.3,897,662,898,658.4,897.4Z"/><path class="f" d="M658.4,897.4c20.9-10.3,42.2-19.9,62.6-31.4,28.3-16.1,55.3-34.1,79.8-55.8,29.1-25.8,52.2-55.7,68.7-90.8,11.1-23.9,17.7-49,21.6-74.9,3.2-21.2,4.2-42.5,5.4-63.9,1.5-29.8.2-59.7.9-89.5.1-2.6-.1-5.1-2.5-6.8l20.2,2.4c5.1,2,10.7,1.6,16,2.3,3.2.3,4.4,1.3,4.3,4.5-.7,52,2.1,103.9-2.8,155.8-5.1,55.4-22.3,106.2-58.2,149.7-28.6,34.7-63.9,61.3-102.5,83.8-20.4,11.8-41.5,22.2-62.7,32.3-5.5,2.6-10,2.9-15.2-.2-3-1.8-6.2-3.6-9.9-4C675.8,905.8,666.4,903,658.4,897.4Z"/><path class="b" d="M599.5,630.2a59.9,59.9,0,0,1-19.4-10.3l12-16.8a47.9,47.9,0,0,0,30.6,10.3c5.8,0,10.4-1,13.9-2.9s5.1-4.7,5.1-8.1-1.6-5.7-4.8-7.4-8.2-3.1-15.2-3.8c-13.4-1.5-23.3-4.7-29.5-9.5s-9.4-11.6-9.4-20.6a26,26,0,0,1,5.1-15.9,32.5,32.5,0,0,1,14.2-10.7,55.7,55.7,0,0,1,21.2-3.8,67.8,67.8,0,0,1,20,3,55.5,55.5,0,0,1,17.3,8.3l-10.8,16.2a44,44,0,0,0-25.6-8.1c-5.7,0-10.3,1-13.7,2.9s-5.1,4.4-5.1,7.6a7.8,7.8,0,0,0,4.4,7.2c3,1.7,7.9,2.9,14.9,3.8,13.3,1.5,23.3,4.8,29.8,9.9s9.9,12.1,9.9,21.1a26.9,26.9,0,0,1-5.2,16.4,34,34,0,0,1-14.7,11,56.4,56.4,0,0,1-21.7,3.9A76.2,76.2,0,0,1,599.5,630.2Z"/><path class="b" d="M692.4,630.2A59.9,59.9,0,0,1,673,619.9l12-16.8c8.7,6.9,18.9,10.3,30.6,10.3,5.8,0,10.4-1,13.9-2.9s5.1-4.7,5.1-8.1-1.6-5.7-4.8-7.4-8.3-3.1-15.2-3.8c-13.5-1.5-23.3-4.7-29.5-9.5s-9.4-11.6-9.4-20.6a26,26,0,0,1,5.1-15.9A31.9,31.9,0,0,1,695,534.5a55.2,55.2,0,0,1,21.1-3.8,68,68,0,0,1,20.1,3,56.6,56.6,0,0,1,17.3,8.3l-10.9,16.2a43.4,43.4,0,0,0-25.5-8.1c-5.7,0-10.3,1-13.7,2.9s-5.2,4.4-5.2,7.6,1.5,5.5,4.5,7.2,7.9,2.9,14.8,3.8c13.4,1.5,23.3,4.8,29.9,9.9s9.9,12.1,9.9,21.1a27.6,27.6,0,0,1-5.2,16.4,34,34,0,0,1-14.7,11,56.4,56.4,0,0,1-21.7,3.9A75.7,75.7,0,0,1,692.4,630.2Z"/><path class="b" d="M772.1,532.9h23.1v77.8h49.6v20.9H772.1Z"/><rect class="g" x="674.5" y="676.8" width="70.3" height="137.71" rx="34.6"/><path class="b" d="M655.2,731.4H763.8a0,0,0,0,1,0,0v89.5a14.5,14.5,0,0,1-14.5,14.5H669.8a14.5,14.5,0,0,1-14.5-14.5V731.4A0,0,0,0,1,655.2,731.4Z"/><polygon class="c" points="677.5 780.7 687.7 771.6 701.7 784.4 729.7 759.2 739.4 768.3 700.5 804.3 677.5 780.7"/></svg>