<svg xmlns="http://www.w3.org/2000/svg" viewBox="0 0 1366 1108"><defs><style>.a{fill:#eaeaea;stroke:#151516;stroke-width:19.67px;}.a,.h{stroke-miterlimit:10;}.b{fill:#9b9b9b;}.c{fill:#d3d3d3;}.d{fill:#191817;}.e{fill:#cce2ef;}.f,.h{fill:#d9aa5a;}.g{fill:#fff;}.h{stroke:#191817;stroke-width:6.56px;}</style></defs><rect class="a" x="312.8" y="213.9" width="898.3" height="537.67" rx="27.8"/><rect class="b" x="345.6" y="246.6" width="793.4" height="183.59" rx="20.2"/><rect class="c" x="348.8" y="459.7" width="170.5" height="236.05" rx="10.6"/><rect class="c" x="545.6" y="459.7" width="170.5" height="236.05" rx="10.6"/><rect class="c" x="742.3" y="459.7" width="170.5" height="236.05" rx="10.6"/><rect class="c" x="939" y="459.7" width="170.5" height="236.05" rx="10.6"/><path class="d" d="M775.1,494.5a10.1,10.1,0,0,0-14.2-.8c-3.9,3.6-4.4,10.1-.4,13.5s3.1,4.6,2.9,7.6c-.1,1.1,0,2.2,0,3.3v6.7c0,3,1.7,5,4.3,5s4.2-2,4.2-5,.1-8.2,0-12.3a4.7,4.7,0,0,1,2-4.4A9.2,9.2,0,0,0,775.1,494.5Zm0,0a10.1,10.1,0,0,0-14.2-.8c-3.9,3.6-4.4,10.1-.4,13.5s3.1,4.6,2.9,7.6c-.1,1.1,0,2.2,0,3.3v6.7c0,3,1.7,5,4.3,5s4.2-2,4.2-5,.1-8.2,0-12.3a4.7,4.7,0,0,1,2-4.4A9.2,9.2,0,0,0,775.1,494.5Zm0,0a10.1,10.1,0,0,0-14.2-.8c-3.9,3.6-4.4,10.1-.4,13.5s3.1,4.6,2.9,7.6c-.1,1.1,0,2.2,0,3.3v6.7c0,3,1.7,5,4.3,5s4.2-2,4.2-5,.1-8.2,0-12.3a4.7,4.7,0,0,1,2-4.4A9.2,9.2,0,0,0,775.1,494.5Zm0,0a10.1,10.1,0,0,0-14.2-.8c-3.9,3.6-4.4,10.1-.4,13.5s3.1,4.6,2.9,7.6c-.1,1.1,0,2.2,0,3.3v6.7c0,3,1.7,5,4.3,5s4.2-2,4.2-5,.1-8.2,0-12.3a4.7,4.7,0,0,1,2-4.4A9.2,9.2,0,0,0,775.1,494.5Zm0,0a10.1,10.1,0,0,0-14.2-.8c-3.9,3.6-4.4,10.1-.4,13.5s3.1,4.6,2.9,7.6c-.1,1.1,0,2.2,0,3.3v6.7c0,3,1.7,5,4.3,5s4.2-2,4.2-5,.1-8.2,0-12.3a4.7,4.7,0,0,1,2-4.4A9.2,9.2,0,0,0,775.1,494.5Zm0,0a10.1,10.1,0,0,0-14.2-.8c-3.9,3.6-4.4,10.1-.4,13.5s3.1,4.6,2.9,7.6c-.1,1.1,0,2.2,0,3.3v6.7c0,3,1.7,5,4.3,5s4.2-2,4.2-5,.1-8.2,0-12.3a4.7,4.7,0,0,1,2-4.4A9.2,9.2,0,0,0,775.1,494.5Zm0,0a10.1,10.1,0,0,0-14.2-.8c-3.9,3.6-4.4,10.1-.4,13.5s3.1,4.6,2.9,7.6c-.1,1.1,0,2.2,0,3.3v6.7c0,3,1.7,5,4.3,5s4.2-2,4.2-5,.1-8.2,0-12.3a4.7,4.7,0,0,1,2-4.4A9.2,9.2,0,0,0,775.1,494.5Zm0,0a10.1,10.1,0,0,0-14.2-.8c-3.9,3.6-4.4,10.1-.4,13.5s3.1,4.6,2.9,7.6c-.1,1.1,0,2.2,0,3.3v6.7c0,3,1.7,5,4.3,5s4.2-2,4.2-5,.1-8.2,0-12.3a4.7,4.7,0,0,1,2-4.4A9.2,9.2,0,0,0,775.1,494.5Zm0,0a10.1,10.1,0,0,0-14.2-.8c-3.9,3.6-4.4,10.1-.4,13.5s3.1,4.6,2.9,7.6c-.1,1.1,0,2.2,0,3.3v6.7c0,3,1.7,5,4.3,5s4.2-2,4.2-5,.1-8.2,0-12.3a4.7,4.7,0,0,1,2-4.4A9.2,9.2,0,0,0,775.1,494.5Zm0,0a10.1,10.1,0,0,0-14.2-.8c-3.9,3.6-4.4,10.1-.4,13.5s3.1,4.6,2.9,7.6c-.1,1.1,0,2.2,0,3.3v6.7c0,3,1.7,5,4.3,5s4.2-2,4.2-5,.1-8.2,0-12.3a4.7,4.7,0,0,1,2-4.4A9.2,9.2,0,0,0,775.1,494.5Zm0,0a10.1,10.1,0,0,0-14.2-.8c-3.9,3.6-4.4,10.1-.4,13.5s3.1,4.6,2.9,7.6c-.1,1.1,0,2.2,0,3.3v6.7c0,3,1.7,5,4.3,5s4.2-2,4.2-5,.1-8.2,0-12.3a4.7,4.7,0,0,1,2-4.4A9.2,9.2,0,0,0,775.1,494.5Zm0,0a10.1,10.1,0,0,0-14.2-.8c-3.9,3.6-4.4,10.1-.4,13.5s3.1,4.6,2.9,7.6c-.1,1.1,0,2.2,0,3.3v6.7c0,3,1.7,5,4.3,5s4.2-2,4.2-5,.1-8.2,0-12.3a4.7,4.7,0,0,1,2-4.4A9.2,9.2,0,0,0,775.1,494.5Zm57.7-14.8a13.1,13.1,0,0,0-.3-3.4,17.2,17.2,0,0,0-16.9-13.7c-3.7,0-3.6,0-3.7-3.7-.1-6.4.5-12.9-.3-19.4a44,44,0,0,0-45.9-38.6c-24.2,1.3-42.4,20.5-42.4,44.3v14.4c0,3.5.4,3-3,3-10.4,0-17.9,7.5-17.9,17.8v60.2c0,10.1,7.6,17.6,17.7,17.6h95.6a17.2,17.2,0,0,0,17.2-17Q832.9,510.5,832.8,479.7Zm-98-39.2a33.2,33.2,0,0,1,65.3-2.5,39.9,39.9,0,0,1,.7,9.1c0,4.4-.1,8.8.1,13.2,0,1.6-.5,2-2.1,2H736.7c-1.7.1-2.4-.3-2.3-2.2C734.7,453.6,734,447,734.8,440.5Zm80.1,106.6H720.2c-4.1,0-6.7-2.5-6.7-6.6V480.2a6.1,6.1,0,0,1,6.4-6.4q47.9-.2,95.5,0c3.2,0,5.1,1.6,6.3,4.8v1.7c-.6.6-.3,1.4-.3,2.1v56.3c0,.7-.3,1.5.3,2.2s.1.8.1,1.2C820.4,545.7,818.6,547.1,814.9,547.1Zm-54-53.4c-3.9,3.6-4.4,10.1-.4,13.5s3.1,4.6,2.9,7.6c-.1,1.1,0,2.2,0,3.3v6.7c0,3,1.7,5,4.3,5s4.2-2,4.2-5,.1-8.2,0-12.3a4.7,4.7,0,0,1,2-4.4,9.2,9.2,0,0,0,1.2-13.6A10.1,10.1,0,0,0,760.9,493.7Zm14.2.8a10.1,10.1,0,0,0-14.2-.8c-3.9,3.6-4.4,10.1-.4,13.5s3.1,4.6,2.9,7.6c-.1,1.1,0,2.2,0,3.3v6.7c0,3,1.7,5,4.3,5s4.2-2,4.2-5,.1-8.2,0-12.3a4.7,4.7,0,0,1,2-4.4A9.2,9.2,0,0,0,775.1,494.5Zm0,0a10.1,10.1,0,0,0-14.2-.8c-3.9,3.6-4.4,10.1-.4,13.5s3.1,4.6,2.9,7.6c-.1,1.1,0,2.2,0,3.3v6.7c0,3,1.7,5,4.3,5s4.2-2,4.2-5,.1-8.2,0-12.3a4.7,4.7,0,0,1,2-4.4A9.2,9.2,0,0,0,775.1,494.5Zm0,0a10.1,10.1,0,0,0-14.2-.8c-3.9,3.6-4.4,10.1-.4,13.5s3.1,4.6,2.9,7.6c-.1,1.1,0,2.2,0,3.3v6.7c0,3,1.7,5,4.3,5s4.2-2,4.2-5,.1-8.2,0-12.3a4.7,4.7,0,0,1,2-4.4A9.2,9.2,0,0,0,775.1,494.5Zm0,0a10.1,10.1,0,0,0-14.2-.8c-3.9,3.6-4.4,10.1-.4,13.5s3.1,4.6,2.9,7.6c-.1,1.1,0,2.2,0,3.3v6.7c0,3,1.7,5,4.3,5s4.2-2,4.2-5,.1-8.2,0-12.3a4.7,4.7,0,0,1,2-4.4A9.2,9.2,0,0,0,775.1,494.5Zm0,0a10.1,10.1,0,0,0-14.2-.8c-3.9,3.6-4.4,10.1-.4,13.5s3.1,4.6,2.9,7.6c-.1,1.1,0,2.2,0,3.3v6.7c0,3,1.7,5,4.3,5s4.2-2,4.2-5,.1-8.2,0-12.3a4.7,4.7,0,0,1,2-4.4A9.2,9.2,0,0,0,775.1,494.5Zm0,0a10.1,10.1,0,0,0-14.2-.8c-3.9,3.6-4.4,10.1-.4,13.5s3.1,4.6,2.9,7.6c-.1,1.1,0,2.2,0,3.3v6.7c0,3,1.7,5,4.3,5s4.2-2,4.2-5,.1-8.2,0-12.3a4.7,4.7,0,0,1,2-4.4A9.2,9.2,0,0,0,775.1,494.5Zm0,0a10.1,10.1,0,0,0-14.2-.8c-3.9,3.6-4.4,10.1-.4,13.5s3.1,4.6,2.9,7.6c-.1,1.1,0,2.2,0,3.3v6.7c0,3,1.7,5,4.3,5s4.2-2,4.2-5,.1-8.2,0-12.3a4.7,4.7,0,0,1,2-4.4A9.2,9.2,0,0,0,775.1,494.5Zm0,0a10.1,10.1,0,0,0-14.2-.8c-3.9,3.6-4.4,10.1-.4,13.5s3.1,4.6,2.9,7.6c-.1,1.1,0,2.2,0,3.3v6.7c0,3,1.7,5,4.3,5s4.2-2,4.2-5,.1-8.2,0-12.3a4.7,4.7,0,0,1,2-4.4A9.2,9.2,0,0,0,775.1,494.5Zm0,0a10.1,10.1,0,0,0-14.2-.8c-3.9,3.6-4.4,10.1-.4,13.5s3.1,4.6,2.9,7.6c-.1,1.1,0,2.2,0,3.3v6.7c0,3,1.7,5,4.3,5s4.2-2,4.2-5,.1-8.2,0-12.3a4.7,4.7,0,0,1,2-4.4A9.2,9.2,0,0,0,775.1,494.5Zm0,0a10.1,10.1,0,0,0-14.2-.8c-3.9,3.6-4.4,10.1-.4,13.5s3.1,4.6,2.9,7.6c-.1,1.1,0,2.2,0,3.3v6.7c0,3,1.7,5,4.3,5s4.2-2,4.2-5,.1-8.2,0-12.3a4.7,4.7,0,0,1,2-4.4A9.2,9.2,0,0,0,775.1,494.5Zm0,0a10.1,10.1,0,0,0-14.2-.8c-3.9,3.6-4.4,10.1-.4,13.5s3.1,4.6,2.9,7.6c-.1,1.1,0,2.2,0,3.3v6.7c0,3,1.7,5,4.3,5s4.2-2,4.2-5,.1-8.2,0-12.3a4.7,4.7,0,0,1,2-4.4A9.2,9.2,0,0,0,775.1,494.5Zm0,0a10.1,10.1,0,0,0-14.2-.8c-3.9,3.6-4.4,10.1-.4,13.5s3.1,4.6,2.9,7.6c-.1,1.1,0,2.2,0,3.3v6.7c0,3,1.7,5,4.3,5s4.2-2,4.2-5,.1-8.2,0-12.3a4.7,4.7,0,0,1,2-4.4A9.2,9.2,0,0,0,775.1,494.5Z"/><path class="d" d="M833.5,477.7v65.1C833,539.6,833.1,479.9,833.5,477.7Z"/><path class="d" d="M999.1,466.9c-5.4-7.3-12.8-10.4-21.7-9s-14.5,6.3-17.6,14.4c-.3,1-.6,1.9-2,1.9H911.5c-1.1,0-1.6-.3-1.5-1.5s-.1-1.1-.1-1.6a137.7,137.7,0,0,0-13.6-51.9c-.5-1-1-2-1.4-3s-.2-.9.6-.6,1,.2,1.5.2h56.2c.5,0,1.1.2,1.6-.2s.8-1.2.8-2q.1-14,0-27.9c0-2.1.5-3.1,2.6-3.9a21.8,21.8,0,0,0,13.2-27,22.4,22.4,0,0,0-25.9-15.2,22.1,22.1,0,0,0-2.9,42.5c1.5.5,2,1.1,2,2.8-.1,5.7-.1,11.4,0,17,0,1.9-.4,2.5-2.4,2.5H890a3.1,3.1,0,0,1-3.1-1.7,148.6,148.6,0,0,0-29-31.8c-5.6-4.4-11.5-8.2-17.4-12.2-.1-.2-.1-.5-.2-.7V308.9a22.6,22.6,0,0,1,0-4.5c-.2-1.4.8-1.4,1.8-1.4h26.6a2,2,0,0,1,1.3.2l.9,2.3a22.3,22.3,0,0,0,27.6,13,21.9,21.9,0,0,0,15-25.9,22.4,22.4,0,0,0-42.7-2.9c-.6,1.7-1.4,2.2-3.2,2.2H832c-2.7,0-2.7,0-2.7,2.5v56.2c0,1.6-.1,2.2-2,1.4a140,140,0,0,0-52.1-12.7c-1.7-.1-2-.7-2-2.2V295.5a2.3,2.3,0,0,1,1.8-2.6,22,22,0,0,0,15-20.2A22.4,22.4,0,0,0,765.3,250a22.1,22.1,0,0,0-19.7,25.1c1.3,9.5,7.1,15.4,16.2,18.4.5.8.1,1.8.3,2.7v40a6,6,0,0,1-.2,2.3l-.4.3h-.2a2.1,2.1,0,0,0-1.1.4,140.2,140.2,0,0,0-52.4,12.8c-1.6.7-2,.5-2-1.3.1-12.2,0-24.3.1-36.5,0-1.7-.5-2.1-2.1-2.1H667.3a2.5,2.5,0,0,1-2.8-1.9,22.3,22.3,0,0,0-31-12.3A21.9,21.9,0,0,0,622,323.9a22.2,22.2,0,0,0,23.8,15.9c9.4-1.2,15.7-6.3,18.9-15.1.3-.8.6-1.4,1.7-1.4h27c1.3,0,1.6.5,1.3,1.6a1.7,1.7,0,0,0-.2,1.2c-.1,10.5-.1,21,0,31.4,0,.4-.1.7.1,1s-.7.8-1.2,1.1a143.7,143.7,0,0,0-45.2,43.3,2.7,2.7,0,0,1-2.6,1.3H585.1c-1.6,0-2-.4-2-2,.1-9.8.1-19.7,0-29.5a2.5,2.5,0,0,1,2-2.9,21.9,21.9,0,0,0,14.3-25.4,22.4,22.4,0,0,0-44,1.6,21.9,21.9,0,0,0,15,24c1.3.4,1.6,1,1.6,2.3v40.1c0,.8.1,1.5.1,2.3a.5.5,0,0,0,.4.2h0l.3.2a5.5,5.5,0,0,0,1.8.2h64.9c.5,0,1.2-.3,1.1.6a138.4,138.4,0,0,0-15.2,55.9c-.1,1.8-.5,2.4-2.4,2.4-14.7-.1-29.4-.2-44,0-2.4,0-3.3-.7-4.1-2.8-3.9-10.2-15.3-15.9-26.1-13.2A22.3,22.3,0,0,0,532,482c1.1,9.9,9.3,18.4,18.9,19.5s20.8-4.4,24.4-14.4c.5-1.3,1-1.9,2.5-1.9h45.5c.6,0,1.2-.2,1.7.4s.3,1,.4,1.5a137.3,137.3,0,0,0,15.4,56.4c.2.6.7,1,.6,1.7a4.2,4.2,0,0,1-2.2.2c-18.2,0-36.5.1-54.7,0-1.9,0-2.2.5-2.2,2.3.1,9.5,0,19.1.1,28.6a2,2,0,0,1-1.7,2.3,21.2,21.2,0,0,0-13.3,12.2,22,22,0,0,0,12.2,29.3c11.5,4.5,24.8-1.1,29.1-12.5a22,22,0,0,0-13.4-28.9c-1.4-.5-1.9-1-1.9-2.5.1-5.9.1-11.8,0-17.6,0-1.6.3-2.1,2-2.1h51.2a2.9,2.9,0,0,1,2.8,1.5,139.8,139.8,0,0,0,16.3,19.7,144.9,144.9,0,0,0,29,22.6c.2.4.1.7.2,1.1v15.3c-.1,13.1,0,26.2-.1,39.2-.3.6.2,1.2-.2,1.8H667.8c-1.9,0-2.8-.5-3.5-2.4a22.3,22.3,0,0,0-42.7,12.4c2.1,10,10.2,16.9,21.2,17.5a21.7,21.7,0,0,0,21.6-14.5,2.6,2.6,0,0,1,2.9-2h36.1c2.2,0,2.5-.6,2.5-2.6V608.7c0-2.5,0-2.5,2.3-1.4a147.9,147.9,0,0,0,35.6,10.8c5,.9,10.1,1.2,15.2,1.8a1.3,1.3,0,0,0,1,.3,3.8,3.8,0,0,1,1.5.1h.2c0,.1.1.1.1.2h.2a12.1,12.1,0,0,1,.1,1.9v40.1c-.2.9.2,1.9-.3,2.7a22.3,22.3,0,0,0-16.4,23.7c1.3,11.8,11.5,20.3,23.8,19.8s20.7-10.4,20.9-21.9c0-9.5-5.8-17.7-15.2-21.1-.9-.4-1.7-.5-1.7-1.9V621.4c0-1.1.3-1.5,1.5-1.5a144.1,144.1,0,0,0,52.8-12.8c1.6-.8,1.8-.4,1.8,1.2v37.9c-.1,1.9.5,2.4,2.3,2.4h36.5a2.3,2.3,0,0,1,2.6,1.8,22.4,22.4,0,0,0,43.3-5.6c.6-11.1-6.2-20.6-16.8-23.3s-21.7,2.5-25.6,12.2c-1.4,3.3-3,3.9-6.1,3.8-8.3-.2-16.7-.1-25-.2a1.4,1.4,0,0,1-.2-.7V601a1.1,1.1,0,0,1,.3-.7A143.7,143.7,0,0,0,886,557.9a2.6,2.6,0,0,1,2.4-1.4h61.9c1.5,0,1.8.4,1.8,1.8-.1,10-.1,20,0,29.9a2.3,2.3,0,0,1-1.8,2.6c-9.4,3.3-15.6,12.3-15,21.7a22.3,22.3,0,1,0,29.6-21.7,2.2,2.2,0,0,1-1.8-2.6c.1-13.3.1-26.5.1-39.8,0-3.3.5-3-2.9-3H895.9c-2.3,0-2.3,0-1.2-2.1a143,143,0,0,0,13.7-41.4c.8-5,1.1-10.1,1.7-15.2.6-.3.1-.7.1-1.1s.5-.4.9-.4H958a1.6,1.6,0,0,1,1.7,1.3,22.3,22.3,0,0,0,36,9.8A21.8,21.8,0,0,0,999.1,466.9ZM938.8,361.1A11.3,11.3,0,1,1,950,372.2,11.4,11.4,0,0,1,938.8,361.1Zm-47.2-74.6a11,11,0,1,1-11.1,11A11.1,11.1,0,0,1,891.6,286.5ZM643.4,328.9a11.1,11.1,0,0,1-11.1-11.1,11,11,0,0,1,11.2-10.9,11,11,0,1,1-.1,22ZM554.2,490.6a11,11,0,1,1,11.3-10.8A11.1,11.1,0,0,1,554.2,490.6Zm44.9,109.1a11.1,11.1,0,0,1-11.3,10.8,11.3,11.3,0,0,1-11.2-11,11.4,11.4,0,0,1,11.3-11A11.3,11.3,0,0,1,599.1,599.7Zm44.5,74.5a11,11,0,0,1-11.3-10.8,11.1,11.1,0,0,1,11.2-11.2,11,11,0,1,1,.1,22Zm248.1-42.3a10.9,10.9,0,0,1,11.2,10.9,11.2,11.2,0,1,1-11.2-10.9Zm77.2-20.2a11.3,11.3,0,1,1-11.2-11A11.1,11.1,0,0,1,968.9,611.7ZM756.4,272a11.3,11.3,0,0,1,22.5,0c.1,6-5.2,11.1-11.4,11.1A11.3,11.3,0,0,1,756.4,272ZM566.3,349a11.3,11.3,0,1,1,11.1,11A11.1,11.1,0,0,1,566.3,349ZM778.9,686.8c.1,6-5.2,11-11.4,11a11,11,0,1,1,11.4-11Zm74.8-109.6a126.4,126.4,0,0,1-66.8,30.3c-36.8,5.1-70.4-3.3-100-26-25.4-19.5-41.8-45.1-48-76.6-7.1-35.9-.1-69.1,20.9-99.1a126.3,126.3,0,0,1,63.3-47.9c32.9-11.5,65.7-10.5,97.7,3.4,27.4,11.8,48.2,31.1,62.7,57.2,10.4,18.9,15.4,39.4,15.6,64.6C898.3,518.7,883.4,551.5,853.7,577.2Zm127.2-86.6a11,11,0,1,1-.1-21.9,11,11,0,1,1,.1,21.9Z"/><path class="d" d="M840.4,358.5h-.3a2.6,2.6,0,0,1-.2-1.5V305.9a3.2,3.2,0,0,1,.2-1.4c-.1-1.1.2-1.8,1.6-1.7h27.1c.4,0,.9-.1,1.2.4-9.2,0-18.5.1-27.8,0-2.2-.1-1.6,1.3-1.6,2.5a3.4,3.4,0,0,1,.1,1.4v51.4h-.3Z"/><path class="d" d="M640.5,415.1c.4.3.5.5.1.8l-.5-.3a4.3,4.3,0,0,1-1.6.1H573.9c-.6,0-1.2.2-1.8-.2v-.4a3.7,3.7,0,0,1,1.8-.2h64.8A3.6,3.6,0,0,1,640.5,415.1Z"/><path class="d" d="M640.5,415.1H572.1v-.4h66.1C639,414.7,639.9,414.4,640.5,415.1Z"/><path class="d" d="M572.1,415.5h68c-.6.5-1.3.3-1.9.3H573.6C573.1,415.9,572.4,416.4,572.1,415.5Z"/><path class="d" d="M895.5,415.5h59.3c.1.2.4.2.5.4s-.1.4-.4.4c-19-.6-38-.1-56.9-.3C897.1,415.9,896.2,416.3,895.5,415.5Z"/><path class="d" d="M695.1,656.4c-.1.5.1,1-.5,1.3v-.4a3.8,3.8,0,0,1-.1-1.5c-.1-17.9-.1-35.7,0-53.6a3.2,3.2,0,0,1,.1-1.4v-.5l.4.5a2.9,2.9,0,0,1,.2,1.6v52.4A2.9,2.9,0,0,1,695.1,656.4Z"/><path class="d" d="M694.6,600.8v56.5c-.6-.7-.3-1.5-.3-2.2q-.1-26.1,0-52.2C694.3,602.2,694,601.4,694.6,600.8Z"/><path class="d" d="M840.7,358.5a1.3,1.3,0,0,1-.1-.6V305.7c.5.6.3,1.3.3,2v48.8C840.9,357.2,841.1,357.9,840.7,358.5Z"/><path class="d" d="M625,485.6v1.8c-.5-1.6-1.4-1.4-2.1-1.4-15.4,0-30.9,0-46.3-.4Z"/><path class="d" d="M910.1,486.7c-.1-.4-.3-.8.1-1.1h47.4a4,4,0,0,1-2.5.4H912.8c-1.2,0-2.5-.3-2.5,1.6Z"/><path class="d" d="M761.8,293.5c.9.6.2,1.6.5,2.4a4.4,4.4,0,0,1,.2,1.6v39.9c0,.6.2,1.3-.3,1.8h-2l.4-.4c1.3-.3,1-1.3,1.1-2.1,0-9-.1-18,0-27,0-4.7-.2-9.3.1-13.9Z"/><path class="d" d="M761.8,620h.5a2.2,2.2,0,0,1,.2,1.4v40.4a2.5,2.5,0,0,1-.2,1.2c-.3.8.4,1.8-.5,2.4V663a3.3,3.3,0,0,1-.1-1.4V621.4A3.2,3.2,0,0,1,761.8,620Z"/><path class="d" d="M761.8,620v43c-.6-.7-.3-1.6-.3-2.4-.1-12.1-.1-24.3,0-36.5,0-2,.1-3.8-2.5-4.2Z"/><path class="d" d="M761.8,295.9c0,13.8,0,27.6.1,41.4,0,.9,0,1.8-1.3,1.6,1-.7.8-1.7.8-2.6,0-12.7,0-25.4.1-38.1C761.5,297.5,761.2,296.6,761.8,295.9Z"/><path class="d" d="M840.5,637.2h-.4a2.2,2.2,0,0,1-.2-1.4V601.9a2.3,2.3,0,0,1,.3-1.6h.4v.5a62.6,62.6,0,0,1,.1,7.5v26.2a8.9,8.9,0,0,1-.1,2.3Z"/><path class="d" d="M840.6,636.8v-36c.5.5.3,1.1.3,1.7V635C840.9,635.6,841.1,636.3,840.6,636.8Z"/><path class="d" d="M694.7,324.9c.1,11.2.2,22.4-.1,33.6-.6-.5-.4-1.2-.4-1.9V326.8C694.2,326.2,694,325.5,694.7,324.9Z"/><path class="d" d="M775.1,494.5a10.1,10.1,0,0,0-14.2-.8c-3.9,3.6-4.4,10.1-.4,13.5s3.1,4.6,2.9,7.6c-.1,1.1,0,2.2,0,3.3v6.7c0,3,1.7,5,4.3,5s4.2-2,4.2-5,.1-8.2,0-12.3a4.7,4.7,0,0,1,2-4.4A9.2,9.2,0,0,0,775.1,494.5Zm0,0a10.1,10.1,0,0,0-14.2-.8c-3.9,3.6-4.4,10.1-.4,13.5s3.1,4.6,2.9,7.6c-.1,1.1,0,2.2,0,3.3v6.7c0,3,1.7,5,4.3,5s4.2-2,4.2-5,.1-8.2,0-12.3a4.7,4.7,0,0,1,2-4.4A9.2,9.2,0,0,0,775.1,494.5Zm0,0a10.1,10.1,0,0,0-14.2-.8c-3.9,3.6-4.4,10.1-.4,13.5s3.1,4.6,2.9,7.6c-.1,1.1,0,2.2,0,3.3v6.7c0,3,1.7,5,4.3,5s4.2-2,4.2-5,.1-8.2,0-12.3a4.7,4.7,0,0,1,2-4.4A9.2,9.2,0,0,0,775.1,494.5Zm0,0a10.1,10.1,0,0,0-14.2-.8c-3.9,3.6-4.4,10.1-.4,13.5s3.1,4.6,2.9,7.6c-.1,1.1,0,2.2,0,3.3v6.7c0,3,1.7,5,4.3,5s4.2-2,4.2-5,.1-8.2,0-12.3a4.7,4.7,0,0,1,2-4.4A9.2,9.2,0,0,0,775.1,494.5Zm0,0a10.1,10.1,0,0,0-14.2-.8c-3.9,3.6-4.4,10.1-.4,13.5s3.1,4.6,2.9,7.6c-.1,1.1,0,2.2,0,3.3v6.7c0,3,1.7,5,4.3,5s4.2-2,4.2-5,.1-8.2,0-12.3a4.7,4.7,0,0,1,2-4.4A9.2,9.2,0,0,0,775.1,494.5Zm0,0a10.1,10.1,0,0,0-14.2-.8c-3.9,3.6-4.4,10.1-.4,13.5s3.1,4.6,2.9,7.6c-.1,1.1,0,2.2,0,3.3v6.7c0,3,1.7,5,4.3,5s4.2-2,4.2-5,.1-8.2,0-12.3a4.7,4.7,0,0,1,2-4.4A9.2,9.2,0,0,0,775.1,494.5Zm0,0a10.1,10.1,0,0,0-14.2-.8c-3.9,3.6-4.4,10.1-.4,13.5s3.1,4.6,2.9,7.6c-.1,1.1,0,2.2,0,3.3v6.7c0,3,1.7,5,4.3,5s4.2-2,4.2-5,.1-8.2,0-12.3a4.7,4.7,0,0,1,2-4.4A9.2,9.2,0,0,0,775.1,494.5Zm0,0a10.1,10.1,0,0,0-14.2-.8c-3.9,3.6-4.4,10.1-.4,13.5s3.1,4.6,2.9,7.6c-.1,1.1,0,2.2,0,3.3v6.7c0,3,1.7,5,4.3,5s4.2-2,4.2-5,.1-8.2,0-12.3a4.7,4.7,0,0,1,2-4.4A9.2,9.2,0,0,0,775.1,494.5Zm0,0a10.1,10.1,0,0,0-14.2-.8c-3.9,3.6-4.4,10.1-.4,13.5s3.1,4.6,2.9,7.6c-.1,1.1,0,2.2,0,3.3v6.7c0,3,1.7,5,4.3,5s4.2-2,4.2-5,.1-8.2,0-12.3a4.7,4.7,0,0,1,2-4.4A9.2,9.2,0,0,0,775.1,494.5Zm0,0a10.1,10.1,0,0,0-14.2-.8c-3.9,3.6-4.4,10.1-.4,13.5s3.1,4.6,2.9,7.6c-.1,1.1,0,2.2,0,3.3v6.7c0,3,1.7,5,4.3,5s4.2-2,4.2-5,.1-8.2,0-12.3a4.7,4.7,0,0,1,2-4.4A9.2,9.2,0,0,0,775.1,494.5Zm0,0a10.1,10.1,0,0,0-14.2-.8c-3.9,3.6-4.4,10.1-.4,13.5s3.1,4.6,2.9,7.6c-.1,1.1,0,2.2,0,3.3v6.7c0,3,1.7,5,4.3,5s4.2-2,4.2-5,.1-8.2,0-12.3a4.7,4.7,0,0,1,2-4.4A9.2,9.2,0,0,0,775.1,494.5Zm0,0a10.1,10.1,0,0,0-14.2-.8c-3.9,3.6-4.4,10.1-.4,13.5s3.1,4.6,2.9,7.6c-.1,1.1,0,2.2,0,3.3v6.7c0,3,1.7,5,4.3,5s4.2-2,4.2-5,.1-8.2,0-12.3a4.7,4.7,0,0,1,2-4.4A9.2,9.2,0,0,0,775.1,494.5Zm57.7-14.8a13.1,13.1,0,0,0-.3-3.4,17.2,17.2,0,0,0-16.9-13.7c-3.7,0-3.6,0-3.7-3.7-.1-6.4.5-12.9-.3-19.4a44,44,0,0,0-45.9-38.6c-24.2,1.3-42.4,20.5-42.4,44.3v14.4c0,3.5.4,3-3,3-10.4,0-17.9,7.5-17.9,17.8v60.2c0,10.1,7.6,17.6,17.7,17.6h95.6a17.2,17.2,0,0,0,17.2-17Q832.9,510.5,832.8,479.7Zm-98-39.2a33.2,33.2,0,0,1,65.3-2.5,39.9,39.9,0,0,1,.7,9.1c0,4.4-.1,8.8.1,13.2,0,1.6-.5,2-2.1,2H736.7c-1.7.1-2.4-.3-2.3-2.2C734.7,453.6,734,447,734.8,440.5Zm80.1,106.6H720.2c-4.1,0-6.7-2.5-6.7-6.6V480.2a6.1,6.1,0,0,1,6.4-6.4q47.9-.2,95.5,0c3.2,0,5.1,1.6,6.3,4.8v1.7c-.6.6-.3,1.4-.3,2.1v56.3c0,.7-.3,1.5.3,2.2s.1.8.1,1.2C820.4,545.7,818.6,547.1,814.9,547.1Zm-54-53.4c-3.9,3.6-4.4,10.1-.4,13.5s3.1,4.6,2.9,7.6c-.1,1.1,0,2.2,0,3.3v6.7c0,3,1.7,5,4.3,5s4.2-2,4.2-5,.1-8.2,0-12.3a4.7,4.7,0,0,1,2-4.4,9.2,9.2,0,0,0,1.2-13.6A10.1,10.1,0,0,0,760.9,493.7Zm14.2.8a10.1,10.1,0,0,0-14.2-.8c-3.9,3.6-4.4,10.1-.4,13.5s3.1,4.6,2.9,7.6c-.1,1.1,0,2.2,0,3.3v6.7c0,3,1.7,5,4.3,5s4.2-2,4.2-5,.1-8.2,0-12.3a4.7,4.7,0,0,1,2-4.4A9.2,9.2,0,0,0,775.1,494.5Zm0,0a10.1,10.1,0,0,0-14.2-.8c-3.9,3.6-4.4,10.1-.4,13.5s3.1,4.6,2.9,7.6c-.1,1.1,0,2.2,0,3.3v6.7c0,3,1.7,5,4.3,5s4.2-2,4.2-5,.1-8.2,0-12.3a4.7,4.7,0,0,1,2-4.4A9.2,9.2,0,0,0,775.1,494.5Zm0,0a10.1,10.1,0,0,0-14.2-.8c-3.9,3.6-4.4,10.1-.4,13.5s3.1,4.6,2.9,7.6c-.1,1.1,0,2.2,0,3.3v6.7c0,3,1.7,5,4.3,5s4.2-2,4.2-5,.1-8.2,0-12.3a4.7,4.7,0,0,1,2-4.4A9.2,9.2,0,0,0,775.1,494.5Zm0,0a10.1,10.1,0,0,0-14.2-.8c-3.9,3.6-4.4,10.1-.4,13.5s3.1,4.6,2.9,7.6c-.1,1.1,0,2.2,0,3.3v6.7c0,3,1.7,5,4.3,5s4.2-2,4.2-5,.1-8.2,0-12.3a4.7,4.7,0,0,1,2-4.4A9.2,9.2,0,0,0,775.1,494.5Zm0,0a10.1,10.1,0,0,0-14.2-.8c-3.9,3.6-4.4,10.1-.4,13.5s3.1,4.6,2.9,7.6c-.1,1.1,0,2.2,0,3.3v6.7c0,3,1.7,5,4.3,5s4.2-2,4.2-5,.1-8.2,0-12.3a4.7,4.7,0,0,1,2-4.4A9.2,9.2,0,0,0,775.1,494.5Zm0,0a10.1,10.1,0,0,0-14.2-.8c-3.9,3.6-4.4,10.1-.4,13.5s3.1,4.6,2.9,7.6c-.1,1.1,0,2.2,0,3.3v6.7c0,3,1.7,5,4.3,5s4.2-2,4.2-5,.1-8.2,0-12.3a4.7,4.7,0,0,1,2-4.4A9.2,9.2,0,0,0,775.1,494.5Zm0,0a10.1,10.1,0,0,0-14.2-.8c-3.9,3.6-4.4,10.1-.4,13.5s3.1,4.6,2.9,7.6c-.1,1.1,0,2.2,0,3.3v6.7c0,3,1.7,5,4.3,5s4.2-2,4.2-5,.1-8.2,0-12.3a4.7,4.7,0,0,1,2-4.4A9.2,9.2,0,0,0,775.1,494.5Zm0,0a10.1,10.1,0,0,0-14.2-.8c-3.9,3.6-4.4,10.1-.4,13.5s3.1,4.6,2.9,7.6c-.1,1.1,0,2.2,0,3.3v6.7c0,3,1.7,5,4.3,5s4.2-2,4.2-5,.1-8.2,0-12.3a4.7,4.7,0,0,1,2-4.4A9.2,9.2,0,0,0,775.1,494.5Zm0,0a10.1,10.1,0,0,0-14.2-.8c-3.9,3.6-4.4,10.1-.4,13.5s3.1,4.6,2.9,7.6c-.1,1.1,0,2.2,0,3.3v6.7c0,3,1.7,5,4.3,5s4.2-2,4.2-5,.1-8.2,0-12.3a4.7,4.7,0,0,1,2-4.4A9.2,9.2,0,0,0,775.1,494.5Zm0,0a10.1,10.1,0,0,0-14.2-.8c-3.9,3.6-4.4,10.1-.4,13.5s3.1,4.6,2.9,7.6c-.1,1.1,0,2.2,0,3.3v6.7c0,3,1.7,5,4.3,5s4.2-2,4.2-5,.1-8.2,0-12.3a4.7,4.7,0,0,1,2-4.4A9.2,9.2,0,0,0,775.1,494.5Zm0,0a10.1,10.1,0,0,0-14.2-.8c-3.9,3.6-4.4,10.1-.4,13.5s3.1,4.6,2.9,7.6c-.1,1.1,0,2.2,0,3.3v6.7c0,3,1.7,5,4.3,5s4.2-2,4.2-5,.1-8.2,0-12.3a4.7,4.7,0,0,1,2-4.4A9.2,9.2,0,0,0,775.1,494.5Zm0,0a10.1,10.1,0,0,0-14.2-.8c-3.9,3.6-4.4,10.1-.4,13.5s3.1,4.6,2.9,7.6c-.1,1.1,0,2.2,0,3.3v6.7c0,3,1.7,5,4.3,5s4.2-2,4.2-5,.1-8.2,0-12.3a4.7,4.7,0,0,1,2-4.4A9.2,9.2,0,0,0,775.1,494.5Z"/><path class="d" d="M833.5,477.7v65.1C833,539.6,833.1,479.9,833.5,477.7Z"/><path class="d" d="M695.1,656.4V600.8c.6.6.4,1.4.4,2.1v51.4C695.5,655,695.7,655.8,695.1,656.4Z"/><path class="d" d="M840.1,304.5v54c-.6-.6-.4-1.4-.4-2.1V306.6C839.7,305.9,839.5,305.1,840.1,304.5Z"/><path class="d" d="M762.3,663V620c.4-.4.6,0,.5.4-.4,13.5,0,27.1-.1,40.6C762.7,661.7,762.9,662.4,762.3,663Z"/><path class="d" d="M762.2,339.2c0-12.4,0-24.8.1-37.2v-6.1c.5.5.4,1.1.4,1.7v40.5a3.6,3.6,0,0,1-.2,1.1.1.1,0,0,1-.1.1Z"/><path class="d" d="M840.2,600.3c0,12.3-.1,24.6-.1,36.9-.6-.6-.4-1.4-.4-2.1V602.4C839.7,601.7,839.5,600.9,840.2,600.3Z"/><path class="d" d="M775.1,494.5a10.1,10.1,0,0,0-14.2-.8c-3.9,3.6-4.4,10.1-.4,13.5s3.1,4.6,2.9,7.6c-.1,1.1,0,2.2,0,3.3v6.7c0,3,1.7,5,4.3,5s4.2-2,4.2-5,.1-8.2,0-12.3a4.7,4.7,0,0,1,2-4.4A9.2,9.2,0,0,0,775.1,494.5Zm0,0a10.1,10.1,0,0,0-14.2-.8c-3.9,3.6-4.4,10.1-.4,13.5s3.1,4.6,2.9,7.6c-.1,1.1,0,2.2,0,3.3v6.7c0,3,1.7,5,4.3,5s4.2-2,4.2-5,.1-8.2,0-12.3a4.7,4.7,0,0,1,2-4.4A9.2,9.2,0,0,0,775.1,494.5Zm0,0a10.1,10.1,0,0,0-14.2-.8c-3.9,3.6-4.4,10.1-.4,13.5s3.1,4.6,2.9,7.6c-.1,1.1,0,2.2,0,3.3v6.7c0,3,1.7,5,4.3,5s4.2-2,4.2-5,.1-8.2,0-12.3a4.7,4.7,0,0,1,2-4.4A9.2,9.2,0,0,0,775.1,494.5Zm0,0a10.1,10.1,0,0,0-14.2-.8c-3.9,3.6-4.4,10.1-.4,13.5s3.1,4.6,2.9,7.6c-.1,1.1,0,2.2,0,3.3v6.7c0,3,1.7,5,4.3,5s4.2-2,4.2-5,.1-8.2,0-12.3a4.7,4.7,0,0,1,2-4.4A9.2,9.2,0,0,0,775.1,494.5Zm0,0a10.1,10.1,0,0,0-14.2-.8c-3.9,3.6-4.4,10.1-.4,13.5s3.1,4.6,2.9,7.6c-.1,1.1,0,2.2,0,3.3v6.7c0,3,1.7,5,4.3,5s4.2-2,4.2-5,.1-8.2,0-12.3a4.7,4.7,0,0,1,2-4.4A9.2,9.2,0,0,0,775.1,494.5Zm0,0a10.1,10.1,0,0,0-14.2-.8c-3.9,3.6-4.4,10.1-.4,13.5s3.1,4.6,2.9,7.6c-.1,1.1,0,2.2,0,3.3v6.7c0,3,1.7,5,4.3,5s4.2-2,4.2-5,.1-8.2,0-12.3a4.7,4.7,0,0,1,2-4.4A9.2,9.2,0,0,0,775.1,494.5Zm0,0a10.1,10.1,0,0,0-14.2-.8c-3.9,3.6-4.4,10.1-.4,13.5s3.1,4.6,2.9,7.6c-.1,1.1,0,2.2,0,3.3v6.7c0,3,1.7,5,4.3,5s4.2-2,4.2-5,.1-8.2,0-12.3a4.7,4.7,0,0,1,2-4.4A9.2,9.2,0,0,0,775.1,494.5Zm0,0a10.1,10.1,0,0,0-14.2-.8c-3.9,3.6-4.4,10.1-.4,13.5s3.1,4.6,2.9,7.6c-.1,1.1,0,2.2,0,3.3v6.7c0,3,1.7,5,4.3,5s4.2-2,4.2-5,.1-8.2,0-12.3a4.7,4.7,0,0,1,2-4.4A9.2,9.2,0,0,0,775.1,494.5Zm0,0a10.1,10.1,0,0,0-14.2-.8c-3.9,3.6-4.4,10.1-.4,13.5s3.1,4.6,2.9,7.6c-.1,1.1,0,2.2,0,3.3v6.7c0,3,1.7,5,4.3,5s4.2-2,4.2-5,.1-8.2,0-12.3a4.7,4.7,0,0,1,2-4.4A9.2,9.2,0,0,0,775.1,494.5Zm0,0a10.1,10.1,0,0,0-14.2-.8c-3.9,3.6-4.4,10.1-.4,13.5s3.1,4.6,2.9,7.6c-.1,1.1,0,2.2,0,3.3v6.7c0,3,1.7,5,4.3,5s4.2-2,4.2-5,.1-8.2,0-12.3a4.7,4.7,0,0,1,2-4.4A9.2,9.2,0,0,0,775.1,494.5Zm0,0a10.1,10.1,0,0,0-14.2-.8c-3.9,3.6-4.4,10.1-.4,13.5s3.1,4.6,2.9,7.6c-.1,1.1,0,2.2,0,3.3v6.7c0,3,1.7,5,4.3,5s4.2-2,4.2-5,.1-8.2,0-12.3a4.7,4.7,0,0,1,2-4.4A9.2,9.2,0,0,0,775.1,494.5Zm0,0a10.1,10.1,0,0,0-14.2-.8c-3.9,3.6-4.4,10.1-.4,13.5s3.1,4.6,2.9,7.6c-.1,1.1,0,2.2,0,3.3v6.7c0,3,1.7,5,4.3,5s4.2-2,4.2-5,.1-8.2,0-12.3a4.7,4.7,0,0,1,2-4.4A9.2,9.2,0,0,0,775.1,494.5Zm57.7-14.8a13.1,13.1,0,0,0-.3-3.4,17.2,17.2,0,0,0-16.9-13.7c-3.7,0-3.6,0-3.7-3.7-.1-6.4.5-12.9-.3-19.4a44,44,0,0,0-45.9-38.6c-24.2,1.3-42.4,20.5-42.4,44.3v14.4c0,3.5.4,3-3,3-10.4,0-17.9,7.5-17.9,17.8v60.2c0,10.1,7.6,17.6,17.7,17.6h95.6a17.2,17.2,0,0,0,17.2-17Q832.9,510.5,832.8,479.7Zm-98-39.2a33.2,33.2,0,0,1,65.3-2.5,39.9,39.9,0,0,1,.7,9.1c0,4.4-.1,8.8.1,13.2,0,1.6-.5,2-2.1,2H736.7c-1.7.1-2.4-.3-2.3-2.2C734.7,453.6,734,447,734.8,440.5Zm80.1,106.6H720.2c-4.1,0-6.7-2.5-6.7-6.6V480.2a6.1,6.1,0,0,1,6.4-6.4q47.9-.2,95.5,0c3.2,0,5.1,1.6,6.3,4.8v1.7c-.6.6-.3,1.4-.3,2.1v56.3c0,.7-.3,1.5.3,2.2s.1.8.1,1.2C820.4,545.7,818.6,547.1,814.9,547.1Zm-54-53.4c-3.9,3.6-4.4,10.1-.4,13.5s3.1,4.6,2.9,7.6c-.1,1.1,0,2.2,0,3.3v6.7c0,3,1.7,5,4.3,5s4.2-2,4.2-5,.1-8.2,0-12.3a4.7,4.7,0,0,1,2-4.4,9.2,9.2,0,0,0,1.2-13.6A10.1,10.1,0,0,0,760.9,493.7Zm14.2.8a10.1,10.1,0,0,0-14.2-.8c-3.9,3.6-4.4,10.1-.4,13.5s3.1,4.6,2.9,7.6c-.1,1.1,0,2.2,0,3.3v6.7c0,3,1.7,5,4.3,5s4.2-2,4.2-5,.1-8.2,0-12.3a4.7,4.7,0,0,1,2-4.4A9.2,9.2,0,0,0,775.1,494.5Zm0,0a10.1,10.1,0,0,0-14.2-.8c-3.9,3.6-4.4,10.1-.4,13.5s3.1,4.6,2.9,7.6c-.1,1.1,0,2.2,0,3.3v6.7c0,3,1.7,5,4.3,5s4.2-2,4.2-5,.1-8.2,0-12.3a4.7,4.7,0,0,1,2-4.4A9.2,9.2,0,0,0,775.1,494.5Zm0,0a10.1,10.1,0,0,0-14.2-.8c-3.9,3.6-4.4,10.1-.4,13.5s3.1,4.6,2.9,7.6c-.1,1.1,0,2.2,0,3.3v6.7c0,3,1.7,5,4.3,5s4.2-2,4.2-5,.1-8.2,0-12.3a4.7,4.7,0,0,1,2-4.4A9.2,9.2,0,0,0,775.1,494.5Zm0,0a10.1,10.1,0,0,0-14.2-.8c-3.9,3.6-4.4,10.1-.4,13.5s3.1,4.6,2.9,7.6c-.1,1.1,0,2.2,0,3.3v6.7c0,3,1.7,5,4.3,5s4.2-2,4.2-5,.1-8.2,0-12.3a4.7,4.7,0,0,1,2-4.4A9.2,9.2,0,0,0,775.1,494.5Zm0,0a10.1,10.1,0,0,0-14.2-.8c-3.9,3.6-4.4,10.1-.4,13.5s3.1,4.6,2.9,7.6c-.1,1.1,0,2.2,0,3.3v6.7c0,3,1.7,5,4.3,5s4.2-2,4.2-5,.1-8.2,0-12.3a4.7,4.7,0,0,1,2-4.4A9.2,9.2,0,0,0,775.1,494.5Zm0,0a10.1,10.1,0,0,0-14.2-.8c-3.9,3.6-4.4,10.1-.4,13.5s3.1,4.6,2.9,7.6c-.1,1.1,0,2.2,0,3.3v6.7c0,3,1.7,5,4.3,5s4.2-2,4.2-5,.1-8.2,0-12.3a4.7,4.7,0,0,1,2-4.4A9.2,9.2,0,0,0,775.1,494.5Zm0,0a10.1,10.1,0,0,0-14.2-.8c-3.9,3.6-4.4,10.1-.4,13.5s3.1,4.6,2.9,7.6c-.1,1.1,0,2.2,0,3.3v6.7c0,3,1.7,5,4.3,5s4.2-2,4.2-5,.1-8.2,0-12.3a4.7,4.7,0,0,1,2-4.4A9.2,9.2,0,0,0,775.1,494.5Zm0,0a10.1,10.1,0,0,0-14.2-.8c-3.9,3.6-4.4,10.1-.4,13.5s3.1,4.6,2.9,7.6c-.1,1.1,0,2.2,0,3.3v6.7c0,3,1.7,5,4.3,5s4.2-2,4.2-5,.1-8.2,0-12.3a4.7,4.7,0,0,1,2-4.4A9.2,9.2,0,0,0,775.1,494.5Zm0,0a10.1,10.1,0,0,0-14.2-.8c-3.9,3.6-4.4,10.1-.4,13.5s3.1,4.6,2.9,7.6c-.1,1.1,0,2.2,0,3.3v6.7c0,3,1.7,5,4.3,5s4.2-2,4.2-5,.1-8.2,0-12.3a4.7,4.7,0,0,1,2-4.4A9.2,9.2,0,0,0,775.1,494.5Zm0,0a10.1,10.1,0,0,0-14.2-.8c-3.9,3.6-4.4,10.1-.4,13.5s3.1,4.6,2.9,7.6c-.1,1.1,0,2.2,0,3.3v6.7c0,3,1.7,5,4.3,5s4.2-2,4.2-5,.1-8.2,0-12.3a4.7,4.7,0,0,1,2-4.4A9.2,9.2,0,0,0,775.1,494.5Zm0,0a10.1,10.1,0,0,0-14.2-.8c-3.9,3.6-4.4,10.1-.4,13.5s3.1,4.6,2.9,7.6c-.1,1.1,0,2.2,0,3.3v6.7c0,3,1.7,5,4.3,5s4.2-2,4.2-5,.1-8.2,0-12.3a4.7,4.7,0,0,1,2-4.4A9.2,9.2,0,0,0,775.1,494.5Zm0,0a10.1,10.1,0,0,0-14.2-.8c-3.9,3.6-4.4,10.1-.4,13.5s3.1,4.6,2.9,7.6c-.1,1.1,0,2.2,0,3.3v6.7c0,3,1.7,5,4.3,5s4.2-2,4.2-5,.1-8.2,0-12.3a4.7,4.7,0,0,1,2-4.4A9.2,9.2,0,0,0,775.1,494.5Z"/><path class="d" d="M833.5,477.7v65.1C833,539.6,833.1,479.9,833.5,477.7Z"/><path class="d" d="M775.1,494.5a9.2,9.2,0,0,1-1.2,13.6,4.7,4.7,0,0,0-2,4.4q.1,6.2,0,12.3c0,3-1.7,5-4.2,5s-4.3-2-4.3-5v-6.7c0-1.1-.1-2.2,0-3.3.2-3-.2-5.3-2.9-7.6s-3.5-9.9.4-13.5A10.1,10.1,0,0,1,775.1,494.5Z"/><path class="d" d="M822,480.5a12.2,12.2,0,0,0-.1,2.7v57.4c-.1.5.1,1.1-.2,1.5s-.1-.8-.1-1.2-.3-1.5-.3-2.2V482.4c0-.7-.3-1.5.3-2.1v-1.7A2.5,2.5,0,0,1,822,480.5Z"/><path class="d" d="M822.3,539.5a2.4,2.4,0,0,1-.2,1.4c-.1.4,0,.9-.4,1.2s-.1-.8-.1-1.2a4.9,4.9,0,0,1-.1-1.7V481.9a4.3,4.3,0,0,1,.1-1.6v-1.7a.8.8,0,0,0,.4.4,3,3,0,0,1,.2,1.6Z"/><path class="d" d="M822.1,540.9V479c.6.6.4,1.3.4,1.9v58C822.5,539.6,822.7,540.3,822.1,540.9Z"/><path class="d" d="M773.9,508.1a4.7,4.7,0,0,0-2,4.4q.1,6.2,0,12.3c0,3-1.7,5-4.2,5s-4.3-2-4.3-5v-6.7c0-1.1-.1-2.2,0-3.3.2-3-.2-5.3-2.9-7.6s-3.5-9.9.4-13.5a10.1,10.1,0,0,1,14.2.8A9.2,9.2,0,0,1,773.9,508.1Z"/><path class="d" d="M821.7,531.3c0,3.2-.1,6.4-.1,9.6-.6-.7-.3-1.5-.3-2.2V482.4c0-.7-.3-1.5.3-2.1C821.6,497.3,821.7,514.3,821.7,531.3Z"/><rect class="e" x="21" y="538.4" width="472.1" height="183.59"/><rect class="f" x="21" y="505.6" width="472.1" height="32.78"/><rect class="d" x="40.7" y="551.5" width="39.3" height="39.34"/><rect class="d" x="47.2" y="656.4" width="39.3" height="39.34" rx="8.6"/><rect class="d" x="99.7" y="656.4" width="39.3" height="39.34" rx="8.6"/><rect class="d" x="152.1" y="656.4" width="39.3" height="39.34" rx="8.6"/><rect class="d" x="204.6" y="656.4" width="39.3" height="39.34" rx="8.6"/><rect class="d" x="257.1" y="656.4" width="39.3" height="39.34" rx="8.6"/><rect class="d" x="309.5" y="656.4" width="39.3" height="39.34" rx="8.6"/><rect class="d" x="362" y="656.4" width="39.3" height="39.34" rx="8.6"/><rect class="d" x="414.4" y="656.4" width="39.3" height="39.34" rx="8.6"/><rect class="g" x="93.1" y="551.5" width="386.9" height="6.56"/><rect class="g" x="93.1" y="564.7" width="386.9" height="6.56"/><rect class="g" x="93.1" y="577.8" width="386.9" height="6.56"/><rect class="g" x="93.1" y="590.9" width="386.9" height="6.56"/><rect class="g" x="40.7" y="604" width="439.3" height="6.56"/><rect class="g" x="40.7" y="617.1" width="439.3" height="6.56"/><rect class="g" x="40.7" y="630.2" width="439.3" height="6.56"/><circle class="h" cx="1191.4" cy="240.1" r="121.3"/><polygon class="g" points="1135.7 236.8 1168.5 269.6 1260.3 197.5 1273.4 210.6 1168.5 295.8 1122.6 249.9 1135.7 236.8"/></svg>