<svg xmlns="http://www.w3.org/2000/svg" viewBox="0 0 1366 1108"><defs><style>.a{fill:#0f8bc2;}.b,.d{fill:#fff;}.b{stroke:#fe7f32;stroke-linecap:round;stroke-linejoin:round;stroke-width:13.37px;}.c{fill:#fe7f32;}</style></defs><path class="a" d="M971,493.7C970.5,754,761,962.3,503,964.3c-256.1,2-476-205.6-475.1-472.8C28.7,231.8,239.1,22,496.3,20.9,757.4,19.8,972.3,229.2,971,493.7Zm-235.8-183c19,56.7,28.3,116.6,29,178.2H935q-2.6-138.6-80.3-247.8Zm-474-7.5L149.4,234.1C94,309.5,65.5,394.3,64,489.2H229.8C230.5,424.6,240.8,362.3,261.2,303.2ZM933.3,527.4H763a592,592,0,0,1-36.4,172.3l114.5,62.6C894.7,694.1,926.3,615.8,933.3,527.4Zm-702.5-.5H67.4c-7.4,57.9,48.2,195.2,96.7,241.3l106.3-61.6C247.7,649.6,235.1,589.8,230.8,526.9Zm249.5-37.5V354.6a584.6,584.6,0,0,1-183.9-38.8c-18.3,41.1-35.1,144.5-28.2,173.6ZM305.1,695.1c57.8-21.1,115.7-32.2,175.6-35.2v-133H267.6C270.8,585.4,283.3,640.6,305.1,695.1ZM727.8,489.2c-.4-58.1-9.2-113.1-26.9-165.9-31.2,7.7-60.7,16.6-90.7,22.1s-61.3,7.8-91.7,11.5V489.2Zm-1.3,37.5H518.4V659.4a603.9,603.9,0,0,1,172.9,29.8C711.7,636.1,723.4,582.9,726.5,526.7ZM480.7,62.1c-77.1,59-134,130.9-172,219.1a529.8,529.8,0,0,0,172,36.9ZM688,287.2c-37.5-89-93.1-161.5-169.7-221.2V318.4C576.6,317.5,632.2,307.1,688,287.2ZM480.9,696.6a520.2,520.2,0,0,0-161.1,32c38.6,77.9,91.5,141.6,161.1,194.5Zm37.3,222.7C587.5,865,639.9,800.9,677,722.9c-52.7-16.8-104.8-26.6-158.8-26.6ZM578.8,64.4c27.3,32.6,56.8,63.6,81.1,98.1s43.4,72.7,66.3,111.8l106-62.4C762.3,132,678.6,83.5,578.8,64.4ZM416.3,66.5C320.1,84.9,239.9,131,172.4,205.6l101.9,63.1C308.6,189.6,355.8,123.5,416.3,66.5ZM576.9,919.7C670.2,903.2,749,860.5,817,790.2L712.4,733.6C678.5,806.1,633.3,866.8,576.9,919.7ZM187.8,796.2c65.8,65.5,140.9,105.8,229,122.7-54.4-50.8-98.3-109.2-131.9-178.6Z"/><rect class="a" x="28.6" y="375.8" width="949.2" height="233.95"/><rect class="b" x="342.7" y="402.6" width="922.4" height="661.75"/><rect class="c" x="342.7" y="402.6" width="922.4" height="100.26"/><path class="c" d="M639.2,811.6a54.1,54.1,0,0,1-5.4,23.7A62.2,62.2,0,0,1,618.7,855a74.6,74.6,0,0,1-22.9,13.7,80.8,80.8,0,0,1-29.3,5.1,184.4,184.4,0,0,1-25.9-1.6,110.9,110.9,0,0,1-21.5-5.3,101.7,101.7,0,0,1-19.4-9.3A171.7,171.7,0,0,1,480.5,844l30.4-30.7c8.9,7.3,17.5,12.5,26,15.6a82.5,82.5,0,0,0,27.7,4.6,35.8,35.8,0,0,0,11.4-1.8,32.1,32.1,0,0,0,9.4-4.9,23.1,23.1,0,0,0,6.4-7.2,17.6,17.6,0,0,0,2.3-9.1,21.9,21.9,0,0,0-1.9-9.4,22.8,22.8,0,0,0-6.9-8,69.4,69.4,0,0,0-13.8-7.9c-5.9-2.7-13.5-5.7-22.7-9a203.7,203.7,0,0,1-23.4-10.1,81.8,81.8,0,0,1-19.6-13.7,62.2,62.2,0,0,1-13.5-18.8c-3.5-7.1-5.2-15.6-5.2-25.4a59.3,59.3,0,0,1,5.7-26,60.7,60.7,0,0,1,15.5-20.3,71.7,71.7,0,0,1,22.9-13.1,82.2,82.2,0,0,1,28.4-4.7c16.9,0,31.2,2.2,42.8,6.6a93.1,93.1,0,0,1,31,19.3l-29.9,30.2A57.6,57.6,0,0,0,585,687.9c-6.8-2.9-14.8-4.3-24-4.3a34.4,34.4,0,0,0-11.8,1.9,31.9,31.9,0,0,0-9.3,5.1,29.5,29.5,0,0,0-6.2,7.5,19.4,19.4,0,0,0-2.3,9,19.9,19.9,0,0,0,2.2,9.5,24.9,24.9,0,0,0,7.5,8.3,69.1,69.1,0,0,0,13.9,8c5.8,2.7,13.1,5.6,21.7,8.8a159.4,159.4,0,0,1,28.5,12.7,81.3,81.3,0,0,1,19.4,15.2,54.9,54.9,0,0,1,11,18.6A71.4,71.4,0,0,1,639.2,811.6Z"/><path class="c" d="M831.6,869.7H685.7V648.8H831.6v35.3H727.7V737H830.3v34.5H727.7v60.8H831.6Z"/><path class="c" d="M1158.2,923.2c-.1,0-.1-.2-.1-.3a19.7,19.7,0,0,0-.4-3.4,21.1,21.1,0,0,0-5.3-8.5c-1.7-1.8-3.3-3.6-4.9-5.5l-6.8-7.5-5-5.5-5.1-5.7-5-5.5-6.5-7.3-3.6-3.9-6.4-7.1-5.1-5.7-7-7.7-4.6-5.1-6.9-7.7c-1.5-1.7-3.1-3.4-4.6-5.2l-6.6-7.3c-1.9-2.1-3.9-4.2-5.8-6.4a.9.9,0,0,1,0-1.3c.7-.9,1.4-2,2.1-3a106.2,106.2,0,0,0,9.4-16.8,119.9,119.9,0,0,0,5.7-16.2,131.5,131.5,0,0,0,2.8-13.9,66.7,66.7,0,0,0,.7-8.9c.1-2.4.2-4.8.1-7.2s-.2-7-.6-10.4a100.2,100.2,0,0,0-2.4-13.3,107.2,107.2,0,0,0-5.7-17.1,104.3,104.3,0,0,0-19.4-30.2,108.1,108.1,0,0,0-10.9-10.5,116.8,116.8,0,0,0-12.1-8.8,103.8,103.8,0,0,0-14.4-7.5,107.7,107.7,0,0,0-19.9-6.5,84.5,84.5,0,0,0-18.1-2.2H974.1l-3.9.2a62.6,62.6,0,0,0-10.6,1.2,111.2,111.2,0,0,0-16.9,4.6,97.9,97.9,0,0,0-10.1,4.2,102,102,0,0,0-17.2,10.1,114.1,114.1,0,0,0-10.1,8.3c-1.8,1.7-3.7,3.5-5.4,5.4s-3.2,3.4-4.6,5.2a98.8,98.8,0,0,0-8.6,11.8,109.8,109.8,0,0,0-8.2,16,107.6,107.6,0,0,0-5.5,17.5,82,82,0,0,0-2.3,18.4h0V758h0c0,.5.1,1.1.1,1.6a69.1,69.1,0,0,0,1.5,13.6,107.2,107.2,0,0,0,6.2,20.7,109.2,109.2,0,0,0,9.2,17.6,110.7,110.7,0,0,0,16.1,19.3,97.7,97.7,0,0,0,11.6,9.7,101.5,101.5,0,0,0,20.5,11.7,104.5,104.5,0,0,0,18.9,6.2,106.7,106.7,0,0,0,22.5,2.9c3.3.1,6.6,0,9.8-.2s7.5-.7,11.2-1.3a108.9,108.9,0,0,0,36-12.8.7.7,0,0,1,1.1.1l2.6,2.8,6.8,7.6,4.7,5.2,6.8,7.5,4.9,5.5,5.3,5.8c1.6,1.8,3.2,3.7,4.9,5.4l5.1,5.7,3.6,4,6.5,7.2,3.6,4,5.1,5.7,5,5.5,5.3,5.9,3.4,3.8,6.5,7.2,3.7,4.1a25.9,25.9,0,0,0,4.1,4,16.7,16.7,0,0,0,8.2,3.5h1.9a1.4,1.4,0,0,1,.9,0h2.2a1.1,1.1,0,0,1,.8,0h.8a15.5,15.5,0,0,0,8.8-3.2,39.5,39.5,0,0,0,6.8-6.1,16.5,16.5,0,0,0,4.3-9.1,7.7,7.7,0,0,1,.2-1.5v-.9a14.1,14.1,0,0,1,0-2.9ZM996.1,825.4a73.3,73.3,0,0,1-16.3,1.7,74.9,74.9,0,0,1-72.6-55.6c-10.6-39.9,13.9-81.3,54-91.2a75,75,0,0,1,70.9,18.8,72.3,72.3,0,0,1,22.2,44.3A74.7,74.7,0,0,1,996.1,825.4Z"/><path class="c" d="M870.8,749.7v5.9c-.1.1-.1.1-.2,0v-5.9C870.7,749.6,870.7,749.6,870.8,749.7Z"/><path class="c" d="M982.2,644.2h-5.4c-.1-.1-.1-.1,0-.1h5.4C982.3,644.1,982.3,644.2,982.2,644.2Z"/><path class="c" d="M1158.2,926.9a5.7,5.7,0,0,1,0-2.9Z"/><path class="c" d="M976.8,644.1h-1.5c-.1-.1-.1-.1.1-.1Z"/><path class="c" d="M870.8,749.7h-.2v-1.4h.2Z"/><path class="c" d="M870.6,755.6h.2V757c-.1.1-.1.1-.2,0Z"/><path class="c" d="M975.4,644.1c-.1,0-.1,0-.1.1h.1Z"/><path class="c" d="M982.2,644.2h1.2c.1,0,.1,0,0,.1Z"/><path class="c" d="M983.4,644.2h1.3c.1,0,.1,0,0,.1Z"/><path class="c" d="M870.8,748.3h-.2V747h.2Z"/><path class="c" d="M984.7,644.2h0Z"/><path class="c" d="M870.6,757h.2v1.1h-.2Z"/><path class="c" d="M1133.4,947.7a1,1,0,0,1,.9,0Z"/><path class="c" d="M1136.5,947.7c.3-.1.6-.2.8,0Z"/><circle class="d" cx="416.2" cy="456" r="20.1"/><circle class="d" cx="469.7" cy="456" r="20.1"/><circle class="d" cx="523.2" cy="456" r="20.1"/></svg>