<svg xmlns="http://www.w3.org/2000/svg" viewBox="0 0 1366 1108"><defs><style>.a{fill:#0f8bc2;}.b{fill:#cdd6df;}.c{fill:#f2f2f2;}.d{fill:#344a5f;}.e{fill:#fff;}.f{fill:#095c80;}</style></defs><path class="a" d="M934.5,242.3c7.9-8.5,16.9-9.7,27-6.1,3.9,1.4,8,2.1,11.9,3.2s5.7-.1,6.9-3.6c2.9-8.5,5.9-16.9,8.9-25.4,1.2-3.5,0-5.6-3.2-7l-15.4-6.8c-7.8-3.4-12-9.4-12.9-18s1.7-16.3,9.4-21.3c5-3.3,10.3-6.3,15.5-9.2,3.6-2,4.2-4.5,2.4-8-3.7-7.7-7.5-15.4-11.1-23.1-1.7-3.9-4.2-4.8-8.1-3.2s-9.6,3.8-14.4,5.7c-9,3.6-16.9,1.9-24-4.6s-9.1-14.1-6.5-23.2c1.4-4.9,2.7-9.9,4-14.9,1-3.5,0-5.9-3.7-7.1-8.4-2.8-16.7-5.8-25-8.7-3.4-1.3-5.7-.4-7.1,3-2.2,5.1-4.5,10.2-6.8,15.3-3.6,8.2-9.9,12.5-18.8,13.2s-16.4-2.4-21.3-10.4c-2.8-4.6-5.5-9.4-8.2-14.1s-4.1-4.9-8.6-2.8c-7.7,3.7-15.3,7.5-23.1,11.1-3.6,1.7-4.5,4.1-2.9,7.8s4,10.1,5.9,15.2c3.4,8.9,1.4,16.7-4.9,23.6s-13.7,8.9-22.5,6.4l-15.3-4.1c-3.8-1-6.1.1-7.4,4-2.7,8.1-5.6,16.1-8.4,24.1-1.6,4.7-.9,6.2,3.7,8.2l14.2,6.2c8.3,3.6,12.7,10,13.4,19.1s-2.6,16.4-10.6,21.2c-4.7,2.8-9.4,5.6-14.1,8.2s-4.7,4.5-2.8,8.3c3.8,7.6,7.5,15.3,11.1,23,1.8,3.9,4.3,4.8,8.2,3.2s10.4-4.2,15.6-6.1c8.8-3.2,16.4-1,23.1,5.3s8.7,13.4,6.4,22c-1.5,5.4-2.9,10.9-4.3,16.2-.9,3.3.2,5.4,3.4,6.6l25.9,9c3.2,1.1,5.4-.1,6.7-3.1,2-4.7,4.2-9.4,6.1-14.2,2.7-6.7,7.2-11.4,14.2-13.4,2.5-.8,2.8-1.6,1.8-3.9-3.2-7.6-6.2-15.3-9.1-23A4.4,4.4,0,0,0,856,243c-34.7-7.2-56-39.9-48.6-74.5,7-32.8,40.1-53.7,73.9-46.7,39.6,8.2,60.7,54.3,41,89.6-2.1,3.8-2.4,6.5,0,10.2C926.6,228.1,930.3,235,934.5,242.3Z"/><path class="a" d="M981.9,237.7l9.8-28h-.4l-9.9,28.1Z"/><polygon class="b" points="490.6 867.4 438.9 1018.9 683.5 1015.5 638.7 867.4 490.6 867.4"/><rect class="c" x="377" y="995.4" width="368.5" height="43.59"/><rect class="d" x="98" y="230.3" width="971.2" height="678.44"/><rect class="e" x="139.3" y="278.5" width="885.1" height="578.57"/><path class="a" d="M449.6,489.1l71.6,196.1C444.3,648,417.9,557.4,449.6,489.1Z"/><path class="a" d="M635.8,690.2c.7,1.7.7,1.7-1,2.3a148.3,148.3,0,0,1-45.8,7.8,153.4,153.4,0,0,1-43.2-5.6c-1.5-.5-1.5-.5-1-2q22.1-63.9,44-127.9a1.9,1.9,0,0,1,.7-1.2c2.5,6.7,4.9,13.4,7.3,20Q616,636.4,635.3,689A6.1,6.1,0,0,0,635.8,690.2Z"/><path class="a" d="M676,593.4l-13.8,46a2.2,2.2,0,0,1-.6,1.4l-2.6-7.5L608,481.4a1.4,1.4,0,0,1-.2-.6c-.4-.8-.3-1.1.7-1.2,5.2-.2,10.4-.7,15.6-1.3s6.6-3.3,6-7.2a5.8,5.8,0,0,0-6.5-5.1c-8.5.6-17.1,1.1-25.7,1.5A342,342,0,0,1,560,467l-16-1a5.8,5.8,0,0,0-6.4,5.6,5.7,5.7,0,0,0,5.2,6.6c4.9.7,9.9,1.1,14.8,1.4.9.1,1.4.3,1.7,1.2,7.5,20.7,15.1,41.4,22.6,62a2.6,2.6,0,0,1,0,2.1q-15.9,48-32,95.9c-.1.4-.1.9-.5,1.2a2.8,2.8,0,0,1-.6-1.4q-22.8-67.5-45.4-135c-2.8-8.2-5.5-16.4-8.3-24.5-.4-1.2-.2-1.4,1-1.5,5.2-.2,10.4-.7,15.5-1.3s7.3-5,5.2-9.2a6.1,6.1,0,0,0-6.2-3.1c-13.5,1-27,1.8-40.6,1.9l-7.5-.2c-1.1,0-1.2-.3-.6-1.1a149.1,149.1,0,0,1,15.7-19.7c24.1-25.1,53.4-40.7,87.9-45.4,45.9-6.1,86.4,6.3,121.4,36.7l1.3,1.1a26.8,26.8,0,0,0-5.8.3,25.6,25.6,0,0,0-20.7,20.3c-1.5,6.9-.4,13.5,2.2,20a93.8,93.8,0,0,0,8,15,123.7,123.7,0,0,1,10.6,19.6c6.4,15.2,7.1,30.8,3.1,46.7C682.8,572.1,679.2,582.7,676,593.4Z"/><path class="a" d="M721.1,617.2c-13,26.2-32.3,46.7-57.3,61.9l-1.3.7a1.9,1.9,0,0,1,.3-1.5l29.7-86c5.1-14.8,10.1-29.5,15.3-44.2a249.4,249.4,0,0,0,7.9-24,126,126,0,0,0,3.2-42.8,4.1,4.1,0,0,1-.1-1.1V480c0-.1-.1-.3-.1-.4a.7.7,0,0,0-.1-.5c0-.2,0-.5.3-.5s.3.3.3.5a148.4,148.4,0,0,1,15.7,45.7C740.1,557,735.7,587.9,721.1,617.2Z"/><path class="a" d="M588.5,375.1c-97-1-175.7,77-176.8,172.9s76.8,176.1,172.9,177.2c97.8,1.2,177.2-78,177.2-175S684.5,376,588.5,375.1Zm-1.9,342.1c-92.4-.1-167.7-75.6-166.9-168.6.8-91.5,75.7-166,168-165.5s166.5,75.5,166,167.9S678.2,717.2,586.6,717.2Z"/><path d="M449.6,489.1l71.6,196.1C444.3,648,417.9,557.4,449.6,489.1Z"/><path d="M635.8,690.2c.7,1.7.7,1.7-1,2.3a148.3,148.3,0,0,1-45.8,7.8,153.4,153.4,0,0,1-43.2-5.6c-1.5-.5-1.5-.5-1-2q22.1-63.9,44-127.9a1.9,1.9,0,0,1,.7-1.2c2.5,6.7,4.9,13.4,7.3,20Q616,636.4,635.3,689A6.1,6.1,0,0,0,635.8,690.2Z"/><path d="M676,593.4l-13.8,46a2.2,2.2,0,0,1-.6,1.4l-2.6-7.5L608,481.4a1.4,1.4,0,0,1-.2-.6c-.4-.8-.3-1.1.7-1.2,5.2-.2,10.4-.7,15.6-1.3s6.6-3.3,6-7.2a5.8,5.8,0,0,0-6.5-5.1c-8.5.6-17.1,1.1-25.7,1.5A342,342,0,0,1,560,467l-16-1a5.8,5.8,0,0,0-6.4,5.6,5.7,5.7,0,0,0,5.2,6.6c4.9.7,9.9,1.1,14.8,1.4.9.1,1.4.3,1.7,1.2,7.5,20.7,15.1,41.4,22.6,62a2.6,2.6,0,0,1,0,2.1q-15.9,48-32,95.9c-.1.4-.1.9-.5,1.2a2.8,2.8,0,0,1-.6-1.4q-22.8-67.5-45.4-135c-2.8-8.2-5.5-16.4-8.3-24.5-.4-1.2-.2-1.4,1-1.5,5.2-.2,10.4-.7,15.5-1.3s7.3-5,5.2-9.2a6.1,6.1,0,0,0-6.2-3.1c-13.5,1-27,1.8-40.6,1.9l-7.5-.2c-1.1,0-1.2-.3-.6-1.1a149.1,149.1,0,0,1,15.7-19.7c24.1-25.1,53.4-40.7,87.9-45.4,45.9-6.1,86.4,6.3,121.4,36.7l1.3,1.1a26.8,26.8,0,0,0-5.8.3,25.6,25.6,0,0,0-20.7,20.3c-1.5,6.9-.4,13.5,2.2,20a93.8,93.8,0,0,0,8,15,123.7,123.7,0,0,1,10.6,19.6c6.4,15.2,7.1,30.8,3.1,46.7C682.8,572.1,679.2,582.7,676,593.4Z"/><path d="M721.1,617.2c-13,26.2-32.3,46.7-57.3,61.9l-1.3.7a1.9,1.9,0,0,1,.3-1.5l29.7-86c5.1-14.8,10.1-29.5,15.3-44.2a249.4,249.4,0,0,0,7.9-24,126,126,0,0,0,3.2-42.8,4.1,4.1,0,0,1-.1-1.1V480c0-.1-.1-.3-.1-.4a.7.7,0,0,0-.1-.5c0-.2,0-.5.3-.5s.3.3.3.5a148.4,148.4,0,0,1,15.7,45.7C740.1,557,735.7,587.9,721.1,617.2Z"/><path class="a" d="M682.5,514.5c6.4,15.2,7.1,30.8,3.1,46.7-2.8,10.9-6.4,21.5-9.6,32.2l-13.8,46a2.2,2.2,0,0,1-.6,1.4l-2.6-7.5L608,481.4a1.4,1.4,0,0,1-.2-.6c-.4-.8-.3-1.1.7-1.2,5.2-.2,10.4-.7,15.6-1.3s6.6-3.3,6-7.2a5.8,5.8,0,0,0-6.5-5.1c-8.5.6-17.1,1.1-25.7,1.5A342,342,0,0,1,560,467l-16-1a5.8,5.8,0,0,0-6.4,5.6,5.7,5.7,0,0,0,5.2,6.6c4.9.7,9.9,1.1,14.8,1.4.9.1,1.4.3,1.7,1.2,7.5,20.7,15.1,41.4,22.6,62a2.6,2.6,0,0,1,0,2.1q-15.9,48-32,95.9c-.1.4-.1.9-.5,1.2a2.8,2.8,0,0,1-.6-1.4q-22.8-67.5-45.4-135c-2.8-8.2-5.5-16.4-8.3-24.5-.4-1.2-.2-1.4,1-1.5,5.2-.2,10.4-.7,15.5-1.3s7.3-5,5.2-9.2a6.1,6.1,0,0,0-6.2-3.1c-13.5,1-27,1.8-40.6,1.9l-7.5-.2c-1.1,0-1.2-.3-.6-1.1a149.1,149.1,0,0,1,15.7-19.7c24.1-25.1,53.4-40.7,87.9-45.4,45.9-6.1,86.4,6.3,121.4,36.7l1.3,1.1a26.8,26.8,0,0,0-5.8.3,25.6,25.6,0,0,0-20.7,20.3c-1.5,6.9-.4,13.5,2.2,20a93.8,93.8,0,0,0,8,15A123.7,123.7,0,0,1,682.5,514.5Z"/><path class="a" d="M634.8,692.5a148.3,148.3,0,0,1-45.8,7.8,153.4,153.4,0,0,1-43.2-5.6c-1.5-.5-1.5-.5-1-2q22.1-63.9,44-127.9a1.9,1.9,0,0,1,.7-1.2c2.5,6.7,4.9,13.4,7.3,20Q616,636.4,635.3,689a6.1,6.1,0,0,0,.5,1.2C636.5,691.9,636.5,691.9,634.8,692.5Z"/><path class="a" d="M521.2,685.2C444.3,648,417.9,557.4,449.6,489.1Z"/><path class="a" d="M721.1,617.2c-13,26.2-32.3,46.7-57.3,61.9l-1.3.7a1.9,1.9,0,0,1,.3-1.5l29.7-86c5.1-14.8,10.1-29.5,15.3-44.2a249.4,249.4,0,0,0,7.9-24,126,126,0,0,0,3.2-42.8,4.1,4.1,0,0,1-.1-1.1V480c0-.1-.1-.3-.1-.4s.1-.4.5-.5a148.4,148.4,0,0,1,15.7,45.7C740.1,557,735.7,587.9,721.1,617.2Z"/><path class="f" d="M719.1,479.1c-.3.3-.2.8-.3,1.1V480a.6.6,0,0,0-.1-.4.7.7,0,0,0-.1-.5c0-.2,0-.5.3-.5S719.1,478.9,719.1,479.1Z"/><path class="a" d="M1042.6,216.5c-5.5-12.6-15.1-17.5-27.9-17.4-4.8,0-9.7-.7-14.6-1.1s-6.3-2.3-6.3-6.7c.1-10.6.1-21.3,0-31.9,0-4.4,2.2-6.4,6.4-6.7q9.9-.6,19.8-1.5c10.1-.8,17.2-5.9,21.5-15.1s4.6-18.9-2.1-27.6c-4.3-5.6-9.1-11-13.8-16.4-3.2-3.6-2.9-6.6.4-9.9,7.3-7.1,14.5-14.2,21.5-21.5,3.5-3.6,6.7-3.7,10.4-.4s9.3,8,13.9,12c8.6,7.6,18.2,8.8,28.7,4.3s15.7-12.2,16.3-23.4c.3-6.1.9-12.2,1.3-18.3.3-4.4,2.4-6.6,7.1-6.5,10.4.1,20.9.1,31.4,0,4.3,0,6.5,1.9,6.8,6.1.4,6.7,1,13.3,1.5,19.9.8,10.5,6.3,17.8,15.9,22.1s19.4,3.7,28-3.3c5-4.1,9.8-8.4,14.7-12.6s6.5-3.9,10.7.3c7.2,7.1,14.2,14.3,21.5,21.4,3.4,3.3,3.5,6.4.3,10s-8.5,9.7-12.7,14.6c-7.3,8.7-8.1,18.2-3.7,28.4s11.8,15.3,22.6,16l18.8,1.4c4.7.3,6.9,2.4,6.8,7.3-.2,10.1,0,20.3-.1,30.4,0,5.8-1.4,7.2-7.4,7.7l-18.3,1.3c-10.7.8-18.2,6.3-22.4,16.2s-3.6,19.4,3.5,27.9q6.2,7.5,12.6,14.7c3.4,3.7,3.5,6.8-.2,10.4-7.2,7-14.4,14.2-21.4,21.5-3.5,3.5-6.7,3.6-10.4.3s-10-8.8-15.1-13c-8.6-7-18-7.5-28-3s-14.9,11.6-15.7,22.1c-.5,6.7-1.1,13.3-1.6,19.9-.2,4-2.3,5.9-6.4,5.9h-32.4c-4.1,0-6.1-2.2-6.4-6.1-.4-6.1-1-12.2-1.3-18.3-.3-8.5-3.5-15.6-10.6-20.6-2.5-1.8-2.5-2.9-.5-5.1,6.5-7.2,12.9-14.7,19.2-22.1a5.3,5.3,0,0,1,5.4-2.1c41.7,5.5,78.3-22.7,83.6-64.3,5-39.5-23.9-76-64.5-81.4-47.6-6.2-89.3,37.1-81,84.4.9,5,.1,8.2-4.1,11.4C1057,203.7,1050.2,210,1042.6,216.5Z"/><path class="a" d="M991.3,192.8V157.6h.5v35.3Z"/></svg>