<svg xmlns="http://www.w3.org/2000/svg" xmlns:xlink="http://www.w3.org/1999/xlink" viewBox="0 0 1366 1108"><defs><style>.a{fill:none;}.b,.i{fill:#fff;}.b{stroke:#fe7f32;stroke-linecap:round;stroke-linejoin:round;stroke-width:12.57px;}.c{fill:#fe7f32;}.d{fill:#8b8b8b;}.e{fill:#ebebeb;}.f{fill:#ebeeff;}.g{fill:#ffebfb;}.h{clip-path:url(#a);}.j{fill:#ffefe6;}.k{fill:#ebffe1;}.l{clip-path:url(#b);}</style><clipPath id="a"><rect class="a" x="485.6" y="642.7" width="825.3" height="102.17"/></clipPath><clipPath id="b"><rect class="a" x="66.9" y="879.1" width="825.3" height="102.17"/></clipPath></defs><rect class="b" x="467.6" y="140" width="867.2" height="622.09"/><rect class="c" x="467.6" y="140" width="867.2" height="94.26"/><path class="c" d="M363,202.8v-9.6a2.8,2.8,0,0,1,4.8-2.4l57.6,44.8c2.2,1.6,2.2,3.5,0,5.1l-57.7,44.9a2.7,2.7,0,0,1-3.2.5,3,3,0,0,1-1.5-2.9c0-6.4-.1-12.8,0-19.2,0-1.4-.4-1.6-1.6-1.6a81,81,0,0,0-46.8,16.4c-15.7,11.6-26.6,26.9-33.9,44.8a121.7,121.7,0,0,0-5,15.5c-.1.7-.2,1.5-1.2,1.5s-1-.9-1.1-1.6a123.5,123.5,0,0,1,6.4-61.7c8.1-21.1,21-38.5,40.3-50.8a79.3,79.3,0,0,1,41.5-12.6c1.1,0,1.4-.2,1.4-1.4C362.9,209.3,363,206,363,202.8Z"/><path class="c" d="M1121.1,888l8.7,4a3,3,0,0,0,3.3-.1,3,3,0,0,0,.9-3.3l-16.8-71c-.6-2.6-2.2-3.4-4.6-2.2l-64.8,33.9a2.7,2.7,0,0,0-1.8,2.7c0,1.3.8,2,2,2.6l17.5,7.9c1.2.6,1.2,1.1.7,2.1-7.6,15.6-19.2,27.4-34.4,35.8-17,9.4-35.5,13-54.8,12.1a110,110,0,0,1-16.2-1.8c-.7-.2-1.4-.5-1.8.4s.3,1.3,1,1.7a121,121,0,0,0,58.7,19.8c22.6,1.5,43.8-3,63-15.4a79.4,79.4,0,0,0,28.7-32.6c.5-1,.8-1.2,1.8-.7Z"/><rect class="d" x="481.6" y="246.1" width="835.4" height="150.24"/><rect class="e" x="495.6" y="448.4" width="156.3" height="150.24"/><rect class="e" x="657.9" y="448.4" width="156.3" height="150.24"/><rect class="e" x="822.2" y="448.4" width="156.3" height="150.24"/><rect class="f" x="990.4" y="448.4" width="156.3" height="150.24"/><rect class="g" x="1154.7" y="448.4" width="156.3" height="150.24"/><path d="M525.5,616.9H519v-9.6h1.9v7.8h4.6Z"/><path d="M534.2,613.4a3.7,3.7,0,0,1-.3,1.5,4.4,4.4,0,0,1-.8,1.1,2.5,2.5,0,0,1-1.2.8,3.2,3.2,0,0,1-1.4.3,4,4,0,0,1-1.5-.3,4.2,4.2,0,0,1-1.2-.8,2.6,2.6,0,0,1-.7-1.1,3.7,3.7,0,0,1-.3-1.5,3.5,3.5,0,0,1,.3-1.4,4.4,4.4,0,0,1,1.9-1.9,4,4,0,0,1,1.5-.3,3.2,3.2,0,0,1,1.4.3,3.5,3.5,0,0,1,1.2.7,8.3,8.3,0,0,1,.8,1.2A3.2,3.2,0,0,1,534.2,613.4Zm-1.7,0a2.4,2.4,0,0,0-.2-.8,2.5,2.5,0,0,0-.4-.7l-.7-.4-.7-.2-.8.2-.6.4a2.5,2.5,0,0,0-.4.7,1.2,1.2,0,0,0-.2.8,1.5,1.5,0,0,0,.2.9c.1.2.2.5.4.6l.6.5.8.2.7-.2a1.8,1.8,0,0,0,.7-.5c.2-.1.3-.4.4-.6A2.9,2.9,0,0,0,532.5,613.4Z"/><path d="M541,610.7l-1,1.5a1.2,1.2,0,0,0-.5-.5.8.8,0,0,0-.7-.2h-.3l-.4.3-.3.5a1.5,1.5,0,0,0-.1.7v3.9H536V610h1.7v.7a2.3,2.3,0,0,1,.7-.7l.8-.2.9.2Z"/><path d="M549.4,613.4v.8h-5.6l.3.5.4.5.6.3h1.6l.8-.5,1.1,1.1a5,5,0,0,1-1.4.8l-1.5.2a3.2,3.2,0,0,1-1.4-.3,2.5,2.5,0,0,1-1.2-.8,4.4,4.4,0,0,1-.8-1.1,4,4,0,0,1-.3-1.5,3.5,3.5,0,0,1,.3-1.4,4.4,4.4,0,0,1,.8-1.1,2.5,2.5,0,0,1,1.2-.8,3.4,3.4,0,0,1,2.8,0,2.4,2.4,0,0,1,1.2.7,2.5,2.5,0,0,1,.8,1.2A3.2,3.2,0,0,1,549.4,613.4Zm-1.8-.6a2.1,2.1,0,0,0-.7-1.1,1.7,1.7,0,0,0-1.2-.4,1.9,1.9,0,0,0-1.2.4,3,3,0,0,0-.7,1.1Z"/><path d="M561.5,616.9h-1.7v-4.1a1.2,1.2,0,0,0-.4-1.1,1,1,0,0,0-.9-.4h-.7l-.7.4a3.1,3.1,0,0,1,.1,1v4.1h-1.7v-4.1a1.2,1.2,0,0,0-.4-1.1.9.9,0,0,0-.8-.4h-.7l-.7.5v5h-1.7V610h1.7v.5l.8-.5.9-.2,1,.2a2.2,2.2,0,0,1,.9.7,3.4,3.4,0,0,1,1.1-.7l1.2-.2h1.1a2.4,2.4,0,0,1,.8.6,3.5,3.5,0,0,1,.6.9,4.4,4.4,0,0,1,.2,1.3Z"/><path d="M569.8,608.8H568V607h1.8Zm0,8.1H568V610h1.8Z"/><path d="M578.7,613.5a3,3,0,0,1-.2,1.3,3.5,3.5,0,0,1-.7,1.2l-1.1.8a2.8,2.8,0,0,1-1.3.3h-.9l-.7-.4v3.3h-1.7V610h1.7v.3l.7-.4h.9a2.7,2.7,0,0,1,1.2.3,4.1,4.1,0,0,1,1.1.7l.8,1.2A6.1,6.1,0,0,1,578.7,613.5Zm-1.7,0a2,2,0,0,0-.2-.9,1.6,1.6,0,0,0-.4-.7l-.6-.4-.8-.2h-.6l-.6.3v3.4a2.1,2.1,0,0,0,1.3.5l.7-.2a.9.9,0,0,0,.6-.4,1.6,1.6,0,0,0,.4-.7A1.9,1.9,0,0,0,577,613.5Z"/><path d="M585.6,615a2.9,2.9,0,0,1-.2.9,2.3,2.3,0,0,1-.7.7l-.8.4h-1a3.2,3.2,0,0,1-1.4-.3,2.7,2.7,0,0,1-1.2-.9l1-1.1a1.6,1.6,0,0,0,.8.6,1.1,1.1,0,0,0,.8.3l.7-.2c.2-.1.3-.2.3-.4s-.1-.4-.4-.6l-1.1-.4-.8-.3-.7-.4a1.6,1.6,0,0,1-.4-.7,1.1,1.1,0,0,1-.2-.8,2.9,2.9,0,0,1,.2-.9l.6-.7.9-.4h1a3.4,3.4,0,0,1,2.6,1.2l-1.1,1-.7-.6-.8-.2h-.6l-.3.2a.4.4,0,0,0-.1.3c0,.2.1.3.4.5l1,.4.9.3.7.5a2.1,2.1,0,0,1,.4.6A1.1,1.1,0,0,1,585.6,615Z"/><path d="M593.5,616.9h-1.7v-.5l-.4.3-.5.2H590l-1.1-.2-.8-.5a1.5,1.5,0,0,1-.6-.9,2.7,2.7,0,0,1-.2-1.3V610H589v4.1a1.5,1.5,0,0,0,.1.7l.3.4c.1.2.3.2.4.3h.6a2,2,0,0,0,1.4-.6v-5h1.7Z"/><path d="M606,616.9h-1.8v-4.1a1.6,1.6,0,0,0-.3-1.1,1.1,1.1,0,0,0-.9-.4h-.7l-.7.4c0,.3.1.6.1,1v4.1h-1.8v-4.1a1.6,1.6,0,0,0-.3-1.1,1,1,0,0,0-.9-.4H598l-.6.5v5h-1.7V610h1.7v.5l.8-.5.9-.2,1,.2.9.7a2.6,2.6,0,0,1,1.1-.7l1.2-.2h1l.9.6a1.9,1.9,0,0,1,.5.9,2.5,2.5,0,0,1,.3,1.3Z"/><path d="M693.7,616.9h-6.5v-9.6h1.9v7.8h4.6Z"/><path d="M702.5,613.4a3.7,3.7,0,0,1-.3,1.5,4.4,4.4,0,0,1-.8,1.1,4.2,4.2,0,0,1-1.2.8,3.7,3.7,0,0,1-1.5.3,3.2,3.2,0,0,1-1.4-.3,4.2,4.2,0,0,1-1.2-.8,4.4,4.4,0,0,1-.8-1.1,3.7,3.7,0,0,1-.3-1.5,3.5,3.5,0,0,1,.3-1.4,4.4,4.4,0,0,1,.8-1.1,4.2,4.2,0,0,1,1.2-.8,3.5,3.5,0,0,1,1.4-.3,3.7,3.7,0,0,1,1.5.3l1.2.7.8,1.2A3.2,3.2,0,0,1,702.5,613.4Zm-1.8,0a2.2,2.2,0,0,0-.1-.8l-.5-.7a.9.9,0,0,0-.6-.4l-.8-.2-.7.2a.9.9,0,0,0-.6.4l-.5.7a2.2,2.2,0,0,0-.1.8,2.8,2.8,0,0,0,.1.9,1.5,1.5,0,0,0,.5.6,1,1,0,0,0,.6.5l.7.2.8-.2a1,1,0,0,0,.6-.5,1.5,1.5,0,0,0,.5-.6A2.8,2.8,0,0,0,700.7,613.4Z"/><path d="M709.2,610.7l-.9,1.5-.6-.5a.7.7,0,0,0-.6-.2h-.3l-.4.3-.3.5a1.5,1.5,0,0,0-.1.7v3.9h-1.8V610H706v.7a2.3,2.3,0,0,1,.7-.7l.8-.2.9.2A2.7,2.7,0,0,1,709.2,610.7Z"/><path d="M717.7,613.4v.4a.8.8,0,0,1-.1.4h-5.5a1.3,1.3,0,0,0,.3.5,1,1,0,0,0,.4.5l.6.3H715l.8-.5,1.1,1.1a7,7,0,0,1-1.4.8l-1.5.2a4,4,0,0,1-1.5-.3,4.4,4.4,0,0,1-1.9-1.9,4,4,0,0,1-.3-1.5,3.5,3.5,0,0,1,.3-1.4,2.8,2.8,0,0,1,.8-1.1,2.5,2.5,0,0,1,1.2-.8,3.4,3.4,0,0,1,2.8,0,2.9,2.9,0,0,1,1.2.7,3.6,3.6,0,0,1,.8,1.2A3.2,3.2,0,0,1,717.7,613.4Zm-1.8-.6a2.1,2.1,0,0,0-.7-1.1,2,2,0,0,0-2.4,0,2.1,2.1,0,0,0-.7,1.1Z"/><path d="M729.8,616.9H728v-4.1a1.6,1.6,0,0,0-.3-1.1,1,1,0,0,0-.9-.4h-.7l-.7.4c0,.3.1.6.1,1v4.1h-1.7v-4.1a1.6,1.6,0,0,0-.4-1.1,1,1,0,0,0-.9-.4h-.7l-.6.5v5h-1.7V610h1.7v.5l.8-.5.9-.2,1,.2.9.7a3.4,3.4,0,0,1,1.1-.7l1.2-.2h1a2.8,2.8,0,0,1,.9.6,3.5,3.5,0,0,1,.6.9,4.4,4.4,0,0,1,.2,1.3Z"/><path d="M738.1,608.8h-1.8V607h1.8Zm-.1,8.1h-1.7V610H738Z"/><path d="M747,613.5a5.9,5.9,0,0,1-.2,1.3,3.5,3.5,0,0,1-.7,1.2l-1.1.8a2.8,2.8,0,0,1-1.3.3h-.9l-.7-.4v3.3h-1.8V610h1.8v.3l.7-.4h.9a2.7,2.7,0,0,1,1.2.3,4.1,4.1,0,0,1,1.1.7,7.5,7.5,0,0,1,.7,1.2A3.3,3.3,0,0,1,747,613.5Zm-1.8,0a2.2,2.2,0,0,0-.1-.9,1.6,1.6,0,0,0-.4-.7l-.6-.4-.8-.2h-.6l-.6.3v3.4a1.8,1.8,0,0,0,1.2.5l.8-.2.6-.4a1.6,1.6,0,0,0,.4-.7A1.9,1.9,0,0,0,745.2,613.5Z"/><path d="M753.9,615a1.6,1.6,0,0,1-.3.9,1.3,1.3,0,0,1-.6.7l-.8.4h-1a4,4,0,0,1-1.5-.3,3.1,3.1,0,0,1-1.1-.9l1-1.1a1.9,1.9,0,0,0,.7.6,1.6,1.6,0,0,0,.9.3l.7-.2c.2-.1.3-.2.3-.4s-.2-.4-.4-.6l-1.1-.4-.8-.3-.7-.4-.5-.7a1.9,1.9,0,0,1-.1-.8,1.5,1.5,0,0,1,.2-.9,1.9,1.9,0,0,1,.6-.7l.9-.4h.9a3.1,3.1,0,0,1,2.6,1.2l-1,1-.7-.6-.8-.2h-.7a.2.2,0,0,0-.2.2.4.4,0,0,0-.1.3c0,.2.1.3.3.5l1.1.4.8.3a1.8,1.8,0,0,1,.7.5l.5.6A1.9,1.9,0,0,1,753.9,615Z"/><path d="M761.8,616.9h-1.7v-.5l-.4.3-.5.2h-1l-1-.2-.8-.5a1.5,1.5,0,0,1-.6-.9,2.8,2.8,0,0,1-.3-1.3V610h1.8v4.1a1.5,1.5,0,0,0,.1.7l.3.4c.1.2.2.2.4.3h.5a2,2,0,0,0,1.5-.6v-5h1.7Z"/><path d="M774.2,616.9h-1.7v-4.1a1.6,1.6,0,0,0-.3-1.1,1.2,1.2,0,0,0-.9-.4h-.8l-.7.4a3.1,3.1,0,0,1,.1,1v4.1h-1.7v-4.1a1.6,1.6,0,0,0-.3-1.1,1.2,1.2,0,0,0-.9-.4h-.7l-.6.5v5h-1.8V610h1.8v.5l.7-.5.9-.2,1.1.2.9.7a3,3,0,0,1,1-.7l1.3-.2h1a2.4,2.4,0,0,1,.8.6,1.5,1.5,0,0,1,.6.9,2.5,2.5,0,0,1,.2,1.3Z"/><path d="M862,616.9h-6.5v-9.6h1.9v7.8H862Z"/><path d="M870.7,613.4a3.7,3.7,0,0,1-.3,1.5,2.6,2.6,0,0,1-.7,1.1,4.2,4.2,0,0,1-1.2.8,4,4,0,0,1-1.5.3,3.2,3.2,0,0,1-1.4-.3,2.5,2.5,0,0,1-1.2-.8,4.4,4.4,0,0,1-.8-1.1,3.7,3.7,0,0,1-.3-1.5,3.5,3.5,0,0,1,.3-1.4,4.4,4.4,0,0,1,.8-1.1,3.8,3.8,0,0,1,2.6-1.1,4,4,0,0,1,1.5.3l1.2.7a3.7,3.7,0,0,1,.7,1.2A3.2,3.2,0,0,1,870.7,613.4Zm-1.7,0a1.2,1.2,0,0,0-.2-.8,2.5,2.5,0,0,0-.4-.7l-.6-.4-.8-.2-.7.2-.7.4-.4.7a2.2,2.2,0,0,0-.1.8,2.8,2.8,0,0,0,.1.9l.4.6a1.8,1.8,0,0,0,.7.5l.7.2.8-.2.6-.5c.2-.1.3-.4.4-.6A1.5,1.5,0,0,0,869,613.4Z"/><path d="M877.5,610.7l-.9,1.5-.6-.5a.7.7,0,0,0-.6-.2H875l-.3.3a.5.5,0,0,0-.3.5,1.4,1.4,0,0,0-.2.7v3.9h-1.7V610h1.7v.7l.7-.7.9-.2.9.2Z"/><path d="M886,613.4v.4c0,.1-.1.2-.1.4h-5.5c0,.2.1.3.2.5s.3.4.5.5l.5.3h1.7l.8-.5,1.1,1.1a5.5,5.5,0,0,1-1.5.8l-1.4.2a4,4,0,0,1-1.5-.3,4.2,4.2,0,0,1-1.2-.8,4.1,4.1,0,0,1-.7-1.1,4,4,0,0,1-.3-1.5,3.5,3.5,0,0,1,.3-1.4,4.4,4.4,0,0,1,1.9-1.9,4,4,0,0,1,1.5-.3,3.5,3.5,0,0,1,1.4.3,3.7,3.7,0,0,1,1.2.7,3.6,3.6,0,0,1,.8,1.2A3.2,3.2,0,0,1,886,613.4Zm-1.8-.6a2.3,2.3,0,0,0-.8-1.1,1.5,1.5,0,0,0-1.1-.4,1.6,1.6,0,0,0-1.2.4,2.1,2.1,0,0,0-.7,1.1Z"/><path d="M898.1,616.9h-1.8v-4.1a1.6,1.6,0,0,0-.3-1.1,1.2,1.2,0,0,0-.9-.4h-.8l-.6.4c0,.3.1.6.1,1v4.1H892v-4.1a1.6,1.6,0,0,0-.3-1.1,1.1,1.1,0,0,0-.9-.4h-.7l-.6.5v5h-1.7V610h1.7v.5l.8-.5.9-.2,1,.2.9.7a2.6,2.6,0,0,1,1.1-.7l1.2-.2h1a4.7,4.7,0,0,1,.9.6,1.9,1.9,0,0,1,.5.9,2.5,2.5,0,0,1,.3,1.3Z"/><path d="M906.3,608.8h-1.8V607h1.8Zm0,8.1h-1.7V610h1.7Z"/><path d="M915.3,613.5a3.1,3.1,0,0,1-.3,1.3,3.4,3.4,0,0,1-.6,1.2l-1.1.8a3.2,3.2,0,0,1-1.4.3h-.8l-.8-.4v3.3h-1.8V610h1.8v.3l.7-.4h.9a2.7,2.7,0,0,1,1.2.3l1.1.7a7.5,7.5,0,0,1,.7,1.2A3.3,3.3,0,0,1,915.3,613.5Zm-1.8,0a2.2,2.2,0,0,0-.1-.9,4.3,4.3,0,0,0-.4-.7l-.6-.4-.8-.2h-.7l-.6.3v3.4a2.1,2.1,0,0,0,1.3.5l.8-.2.6-.4a1.6,1.6,0,0,0,.4-.7A1.9,1.9,0,0,0,913.5,613.5Z"/><path d="M922.2,615a1.6,1.6,0,0,1-.3.9,1.3,1.3,0,0,1-.6.7l-.9.4h-.9a4,4,0,0,1-1.5-.3,4.7,4.7,0,0,1-1.2-.9l1.1-1.1a1.3,1.3,0,0,0,.7.6,1.6,1.6,0,0,0,.9.3l.7-.2a.5.5,0,0,0,.2-.4.7.7,0,0,0-.3-.6l-1.1-.4-.8-.3-.7-.4a1.8,1.8,0,0,1-.5-.7,1.9,1.9,0,0,1-.2-.8,1.6,1.6,0,0,1,.3-.9,1.9,1.9,0,0,1,.6-.7l.8-.4h1a3.2,3.2,0,0,1,2.6,1.2l-1,1-.7-.6-.8-.2h-.7a.2.2,0,0,0-.2.2.4.4,0,0,0-.1.3c0,.2.1.3.3.5l1.1.4.8.3a1.8,1.8,0,0,1,.7.5l.5.6A1.9,1.9,0,0,1,922.2,615Z"/><path d="M930.1,616.9h-1.7v-.5l-.4.3-.5.2h-1l-1-.2-.9-.5a3.5,3.5,0,0,1-.6-.9,5.1,5.1,0,0,1-.2-1.3V610h1.7v4.1a1.4,1.4,0,0,0,.2.7.5.5,0,0,0,.3.4c.1.2.2.2.4.3h.5a2.2,2.2,0,0,0,1.5-.6v-5h1.7Z"/><path d="M942.5,616.9h-1.7v-4.1a1.2,1.2,0,0,0-.4-1.1.9.9,0,0,0-.8-.4h-.8l-.7.4a3.1,3.1,0,0,1,.1,1v4.1h-1.7v-4.1a1.2,1.2,0,0,0-.4-1.1.9.9,0,0,0-.8-.4h-.7l-.6.5v5h-1.8V610H934v.5a1.8,1.8,0,0,1,.7-.5l.9-.2,1,.2a2.2,2.2,0,0,1,.9.7l1.1-.7,1.2-.2h1.1a2.4,2.4,0,0,1,.8.6,1.5,1.5,0,0,1,.6.9,4.4,4.4,0,0,1,.2,1.3Z"/><path d="M1030.3,616.9h-6.5v-9.6h1.9v7.8h4.6Z"/><path d="M1039,613.4a3.7,3.7,0,0,1-.3,1.5,2.8,2.8,0,0,1-.8,1.1,2.5,2.5,0,0,1-1.2.8,3.4,3.4,0,0,1-2.8,0,2.5,2.5,0,0,1-1.2-.8,2.8,2.8,0,0,1-.8-1.1,3.7,3.7,0,0,1-.3-1.5,3.5,3.5,0,0,1,.3-1.4,4.4,4.4,0,0,1,.8-1.1,2.5,2.5,0,0,1,1.2-.8,3.4,3.4,0,0,1,2.8,0,3.5,3.5,0,0,1,1.2.7,4.2,4.2,0,0,1,.8,1.2A3.2,3.2,0,0,1,1039,613.4Zm-1.7,0a2.4,2.4,0,0,0-.2-.8,2.5,2.5,0,0,0-.4-.7l-.6-.4-.8-.2-.8.2-.6.4a2.5,2.5,0,0,0-.4.7,2.4,2.4,0,0,0-.2.8,2.9,2.9,0,0,0,.2.9c.1.2.2.5.4.6l.6.5.8.2.8-.2.6-.5c.2-.1.3-.4.4-.6A2.9,2.9,0,0,0,1037.3,613.4Z"/><path d="M1045.8,610.7l-.9,1.5-.6-.5a.7.7,0,0,0-.6-.2h-.4l-.4.3-.3.5c0,.2-.1.4-.1.7v3.9h-1.7V610h1.7v.7a4.6,4.6,0,0,1,.7-.7l.9-.2.9.2Z"/><path d="M1054.3,613.4a.6.6,0,0,1-.1.4v.4h-5.6l.3.5.4.5.6.3h1.7l.7-.5,1.1,1.1a3.9,3.9,0,0,1-1.4.8l-1.4.2a3.7,3.7,0,0,1-1.5-.3,3.2,3.2,0,0,1-1.2-.8,4.4,4.4,0,0,1-.8-1.1,4,4,0,0,1-.3-1.5,3.5,3.5,0,0,1,.3-1.4,4.4,4.4,0,0,1,.8-1.1,4.2,4.2,0,0,1,1.2-.8,3.5,3.5,0,0,1,1.4-.3,4,4,0,0,1,1.5.3,2.6,2.6,0,0,1,1.1.7,2.7,2.7,0,0,1,.9,1.2A3.2,3.2,0,0,1,1054.3,613.4Zm-1.9-.6a1.6,1.6,0,0,0-.7-1.1,1.6,1.6,0,0,0-1.2-.4,1.5,1.5,0,0,0-1.1.4,2.3,2.3,0,0,0-.8,1.1Z"/><path d="M1066.3,616.9h-1.7v-4.1a1.2,1.2,0,0,0-.4-1.1.9.9,0,0,0-.8-.4h-.8l-.7.4a3.1,3.1,0,0,1,.1,1v4.1h-1.7v-4.1a1.6,1.6,0,0,0-.3-1.1,1.2,1.2,0,0,0-.9-.4h-.7l-.6.5v5H1056V610h1.8v.5a1.8,1.8,0,0,1,.7-.5l.9-.2,1.1.2a2.7,2.7,0,0,1,.8.7l1.1-.7,1.3-.2h1a2.4,2.4,0,0,1,.8.6,1.5,1.5,0,0,1,.6.9,2.5,2.5,0,0,1,.2,1.3Z"/><path d="M1074.6,608.8h-1.8V607h1.8Zm0,8.1h-1.8V610h1.8Z"/><path d="M1083.6,613.5a3.1,3.1,0,0,1-.3,1.3,2.4,2.4,0,0,1-.7,1.2,3.9,3.9,0,0,1-1,.8,3.2,3.2,0,0,1-1.4.3h-.8l-.8-.4v3.3h-1.7V610h1.7v.3l.8-.4h.8a3.1,3.1,0,0,1,1.3.3l1,.7.8,1.2A3.3,3.3,0,0,1,1083.6,613.5Zm-1.8,0a2.2,2.2,0,0,0-.1-.9,1.8,1.8,0,0,0-.5-.7.9.9,0,0,0-.6-.4l-.8-.2h-.6l-.6.3v3.4a2.1,2.1,0,0,0,1.3.5l.7-.2.7-.4a4.3,4.3,0,0,0,.4-.7A1.9,1.9,0,0,0,1081.8,613.5Z"/><path d="M1090.4,615a1.5,1.5,0,0,1-.2.9l-.6.7-.9.4h-.9a3.3,3.3,0,0,1-1.5-.3,3.4,3.4,0,0,1-1.2-.9l1.1-1.1a1.3,1.3,0,0,0,.7.6,1.4,1.4,0,0,0,.9.3l.6-.2c.2-.1.3-.2.3-.4s-.1-.4-.4-.6l-1.1-.4-.7-.3-.7-.4a1.8,1.8,0,0,1-.5-.7,1.9,1.9,0,0,1-.2-.8,2.9,2.9,0,0,1,.2-.9l.7-.7.8-.4h1a3.2,3.2,0,0,1,2.6,1.2l-1,1-.7-.6-.9-.2h-.6l-.3.2c0,.1-.1.2-.1.3s.2.3.4.5l1.1.4.8.3a1.8,1.8,0,0,1,.7.5l.5.6A1.9,1.9,0,0,1,1090.4,615Z"/><path d="M1098.4,616.9h-1.8v-.5l-.4.3-.4.2h-1l-1-.2a2.6,2.6,0,0,1-.9-.5,3.5,3.5,0,0,1-.6-.9,5.1,5.1,0,0,1-.2-1.3V610h1.7v4.1c0,.3.1.5.1.7l.3.4.5.3h.5a2,2,0,0,0,1.4-.6v-5h1.8Z"/><path d="M1110.8,616.9h-1.7v-4.1a1.6,1.6,0,0,0-.4-1.1,1,1,0,0,0-.9-.4h-.7l-.7.4a3.1,3.1,0,0,1,.1,1v4.1h-1.7v-4.1a1.6,1.6,0,0,0-.4-1.1.9.9,0,0,0-.8-.4h-.7l-.7.5v5h-1.7V610h1.7v.5l.8-.5.9-.2,1,.2a2.2,2.2,0,0,1,.9.7,3.4,3.4,0,0,1,1.1-.7l1.2-.2h1a2,2,0,0,1,.9.6,3.5,3.5,0,0,1,.6.9,4.4,4.4,0,0,1,.2,1.3Z"/><path d="M1198.6,616.9h-6.5v-9.6h1.9v7.8h4.6Z"/><path d="M1207.3,613.4a3.7,3.7,0,0,1-.3,1.5,4.4,4.4,0,0,1-.8,1.1,2.5,2.5,0,0,1-1.2.8,3.2,3.2,0,0,1-1.4.3,3.7,3.7,0,0,1-1.5-.3,4.2,4.2,0,0,1-1.2-.8,4.4,4.4,0,0,1-.8-1.1,6.8,6.8,0,0,1-.2-1.5,3.5,3.5,0,0,1,.3-1.4,2.1,2.1,0,0,1,.8-1.1,2.8,2.8,0,0,1,1.1-.8,4,4,0,0,1,1.5-.3,3.2,3.2,0,0,1,1.4.3,3.5,3.5,0,0,1,1.2.7l.8,1.2A3.2,3.2,0,0,1,1207.3,613.4Zm-1.8,0a2.2,2.2,0,0,0-.1-.8l-.4-.7-.7-.4-.7-.2-.8.2-.6.4-.5.7a2.2,2.2,0,0,0-.1.8,2.8,2.8,0,0,0,.1.9,1.5,1.5,0,0,0,.5.6l.6.5.8.2.7-.2a1.8,1.8,0,0,0,.7-.5l.4-.6A2.8,2.8,0,0,0,1205.5,613.4Z"/><path d="M1214,610.7l-.9,1.5c-.2-.2-.3-.4-.5-.5a1,1,0,0,0-.7-.2h-.3l-.4.3-.3.5a1.5,1.5,0,0,0-.1.7v3.9h-1.7V610h1.7v.7a2.3,2.3,0,0,1,.7-.7l.8-.2.9.2A2.7,2.7,0,0,1,1214,610.7Z"/><path d="M1222.5,613.4v.8h-5.6l.3.5a1,1,0,0,0,.4.5l.6.3h1.6l.8-.5,1.1,1.1a7,7,0,0,1-1.4.8l-1.5.2a3.2,3.2,0,0,1-1.4-.3,2.5,2.5,0,0,1-1.2-.8,4.4,4.4,0,0,1-.8-1.1,4,4,0,0,1-.3-1.5,3.5,3.5,0,0,1,.3-1.4,4.4,4.4,0,0,1,.8-1.1,2.5,2.5,0,0,1,1.2-.8,3.4,3.4,0,0,1,2.8,0,2.4,2.4,0,0,1,1.2.7,2.5,2.5,0,0,1,.8,1.2A3.2,3.2,0,0,1,1222.5,613.4Zm-1.8-.6a2.1,2.1,0,0,0-.7-1.1,2,2,0,0,0-2.4,0,3,3,0,0,0-.7,1.1Z"/><path d="M1234.6,616.9h-1.7v-4.1a1.6,1.6,0,0,0-.4-1.1,1,1,0,0,0-.9-.4h-.7l-.7.4a3.1,3.1,0,0,1,.1,1v4.1h-1.7v-4.1a1.2,1.2,0,0,0-.4-1.1.9.9,0,0,0-.8-.4h-.7l-.7.5v5h-1.7V610h1.7v.5l.8-.5.9-.2,1,.2a2.2,2.2,0,0,1,.9.7,3.4,3.4,0,0,1,1.1-.7l1.2-.2h1.1a2.4,2.4,0,0,1,.8.6,3.5,3.5,0,0,1,.6.9,4.4,4.4,0,0,1,.2,1.3Z"/><path d="M1242.9,608.8h-1.8V607h1.8Zm0,8.1h-1.8V610h1.8Z"/><path d="M1251.8,613.5a5.9,5.9,0,0,1-.2,1.3,3.5,3.5,0,0,1-.7,1.2l-1.1.8a2.8,2.8,0,0,1-1.3.3h-.9l-.7-.4v3.3h-1.8V610h1.8v.3l.7-.4h.9a2.7,2.7,0,0,1,1.2.3,4.1,4.1,0,0,1,1.1.7,3.7,3.7,0,0,1,.7,1.2A3.3,3.3,0,0,1,1251.8,613.5Zm-1.7,0a2,2,0,0,0-.2-.9,1.6,1.6,0,0,0-.4-.7l-.6-.4-.8-.2h-.6l-.6.3v3.4a2.1,2.1,0,0,0,1.2.5l.8-.2c.2-.1.5-.2.6-.4a1.6,1.6,0,0,0,.4-.7A1.9,1.9,0,0,0,1250.1,613.5Z"/><path d="M1258.7,615a2.9,2.9,0,0,1-.2.9,2.3,2.3,0,0,1-.7.7l-.8.4h-1a3.2,3.2,0,0,1-1.4-.3,2.7,2.7,0,0,1-1.2-.9l1-1.1a1.9,1.9,0,0,0,.7.6,1.6,1.6,0,0,0,.9.3l.7-.2c.2-.1.3-.2.3-.4s-.2-.4-.4-.6l-1.1-.4-.8-.3-.7-.4-.5-.7a1.9,1.9,0,0,1-.1-.8,1.5,1.5,0,0,1,.2-.9l.6-.7.9-.4h1a3.4,3.4,0,0,1,2.6,1.2l-1.1,1-.7-.6-.8-.2h-.7c-.1,0-.1.1-.2.2a.4.4,0,0,0-.1.3c0,.2.1.3.4.5l1,.4.9.3.7.5a2.1,2.1,0,0,1,.4.6A1.9,1.9,0,0,1,1258.7,615Z"/><path d="M1266.6,616.9h-1.7v-.5l-.4.3-.5.2h-1l-1-.2-.8-.5a1.5,1.5,0,0,1-.6-.9,2.7,2.7,0,0,1-.2-1.3V610h1.7v4.1a1.5,1.5,0,0,0,.1.7l.3.4c.1.2.3.2.4.3h.5a2,2,0,0,0,1.5-.6v-5h1.7Z"/><path d="M1279.1,616.9h-1.8v-4.1a1.6,1.6,0,0,0-.3-1.1,1.2,1.2,0,0,0-.9-.4h-.8l-.6.4c0,.3.1.6.1,1v4.1H1273v-4.1a1.6,1.6,0,0,0-.3-1.1,1.1,1.1,0,0,0-.9-.4h-.7l-.6.5v5h-1.7V610h1.7v.5l.8-.5.9-.2,1,.2.9.7a2.6,2.6,0,0,1,1.1-.7l1.2-.2h1l.9.6a1.9,1.9,0,0,1,.5.9,2.5,2.5,0,0,1,.3,1.3Z"/><g class="h"><rect class="e" x="491.6" y="640.7" width="156.3" height="150.24"/><rect class="e" x="653.9" y="640.7" width="156.3" height="150.24"/><rect class="e" x="818.1" y="640.7" width="156.3" height="150.24"/><rect class="e" x="986.4" y="640.7" width="156.3" height="150.24"/><rect class="e" x="1150.7" y="640.7" width="156.3" height="150.24"/></g><circle class="i" cx="535.7" cy="181.9" r="20"/><circle class="i" cx="589.8" cy="181.9" r="20"/><circle class="i" cx="643.9" cy="181.9" r="20"/><rect class="b" x="48.9" y="376.4" width="867.2" height="622.09"/><rect class="c" x="48.9" y="376.4" width="867.2" height="94.26"/><rect class="d" x="62.9" y="482.4" width="835.4" height="150.24"/><rect class="j" x="76.9" y="684.8" width="156.3" height="150.24"/><rect class="g" x="239.2" y="684.8" width="156.3" height="150.24"/><rect class="f" x="403.5" y="684.8" width="156.3" height="150.24"/><rect class="e" x="571.7" y="684.8" width="156.3" height="150.24"/><rect class="k" x="736" y="684.8" width="156.3" height="150.24"/><path d="M106.8,853.3h-6.5v-9.6h1.9v7.8h4.6Z"/><path d="M115.5,849.8a4,4,0,0,1-.3,1.5,2.8,2.8,0,0,1-.8,1.1,2.5,2.5,0,0,1-1.2.8,3.2,3.2,0,0,1-1.4.3,4,4,0,0,1-1.5-.3,4.4,4.4,0,0,1-1.9-1.9,4,4,0,0,1-.3-1.5,3.2,3.2,0,0,1,.3-1.4,4.2,4.2,0,0,1,.8-1.2,2.4,2.4,0,0,1,1.2-.7,3.4,3.4,0,0,1,2.8,0,2.4,2.4,0,0,1,1.2.7,2.5,2.5,0,0,1,.8,1.2A3.2,3.2,0,0,1,115.5,849.8Zm-1.7,0a2.4,2.4,0,0,0-.2-.8,1.6,1.6,0,0,0-.4-.7l-.6-.4-.8-.2-.8.2-.6.4a1.6,1.6,0,0,0-.4.7,2.4,2.4,0,0,0-.2.8,2.9,2.9,0,0,0,.2.9,2.1,2.1,0,0,0,.4.6l.6.5h1.6l.6-.5a2.1,2.1,0,0,0,.4-.6A2.9,2.9,0,0,0,113.8,849.8Z"/><path d="M122.3,847.1l-1,1.4-.5-.4a.9.9,0,0,0-.6-.3h-.4l-.4.3-.3.5a5.6,5.6,0,0,0-.1.7v3.9h-1.7v-6.9H119v.7a4.6,4.6,0,0,1,.7-.7l.9-.2.8.2Z"/><path d="M130.8,849.8a.8.8,0,0,1-.1.4v.3h-5.6l.3.6.4.5.6.3h.7l1-.2.7-.4,1.1,1.1a5,5,0,0,1-1.4.8l-1.4.2a3.3,3.3,0,0,1-1.5-.3,5,5,0,0,1-1.2-.8,3.6,3.6,0,0,1-.8-1.2,3.4,3.4,0,0,1,0-2.8,8.3,8.3,0,0,1,.8-1.2l1.2-.7a3.5,3.5,0,0,1,1.4-.3l1.5.2,1.1.8a3.1,3.1,0,0,1,.9,1.1A4,4,0,0,1,130.8,849.8Zm-1.9-.7a1.4,1.4,0,0,0-.7-1,1.6,1.6,0,0,0-1.2-.4,1.5,1.5,0,0,0-1.1.4,2,2,0,0,0-.8,1Z"/><path d="M142.8,853.3h-1.7v-4.1a1.6,1.6,0,0,0-.4-1.2,1.1,1.1,0,0,0-.8-.3h-.8l-.7.4a3.1,3.1,0,0,1,.1,1v4.1h-1.7v-4.1a1.6,1.6,0,0,0-.4-1.2,1.1,1.1,0,0,0-.8-.3h-.7l-.6.4v5.1h-1.8v-6.9h1.8v.5a1.8,1.8,0,0,1,.7-.5,1.5,1.5,0,0,1,.9-.2,1.6,1.6,0,0,1,1,.2,2.2,2.2,0,0,1,.9.7,2.8,2.8,0,0,1,1.1-.7,2.7,2.7,0,0,1,1.3-.2h1a1.6,1.6,0,0,1,.8.6,1.5,1.5,0,0,1,.6.9,2.5,2.5,0,0,1,.2,1.3Z"/><path d="M151.1,845.1h-1.8v-1.8h1.8Zm0,8.2h-1.8v-7h1.8Z"/><path d="M160.1,849.8a3.2,3.2,0,0,1-.3,1.4,3.5,3.5,0,0,1-.7,1.2,3.9,3.9,0,0,1-1,.8,3.2,3.2,0,0,1-1.4.3h-.8l-.8-.4v3.3h-1.7v-10h1.7v.4l.7-.4h.9a3.1,3.1,0,0,1,1.3.3,2.3,2.3,0,0,1,1,.7,5,5,0,0,1,.8,1.2A3.2,3.2,0,0,1,160.1,849.8Zm-1.8,0a1.9,1.9,0,0,0-.2-.8,1,1,0,0,0-.4-.7,1,1,0,0,0-.6-.5h-1.4l-.6.3v3.3a1.8,1.8,0,0,0,1.3.6l.7-.2.7-.4a1.5,1.5,0,0,0,.3-.7A2.4,2.4,0,0,0,158.3,849.8Z"/><path d="M166.9,851.4a1.5,1.5,0,0,1-.2.9c-.2.2-.4.5-.6.6l-.9.5h-1a3.2,3.2,0,0,1-1.4-.3,2.7,2.7,0,0,1-1.2-.9l1.1-1.1a1.9,1.9,0,0,0,1.6.8h.6a.5.5,0,0,0,.3-.5c0-.2-.1-.3-.4-.5l-1.1-.4-.8-.3-.6-.5a1.5,1.5,0,0,1-.5-.6,1.9,1.9,0,0,1-.2-.8,2.9,2.9,0,0,1,.2-.9l.6-.7.9-.4h1a3.4,3.4,0,0,1,2.6,1.2l-1,1-.7-.6-.9-.2h-.6l-.3.2c0,.1-.1.2-.1.3s.2.3.4.4l1,.5a3.2,3.2,0,0,1,.9.3,1.8,1.8,0,0,1,.7.5c.2.1.3.3.5.6A1.9,1.9,0,0,1,166.9,851.4Z"/><path d="M174.9,853.3h-1.8v-.5l-.4.3-.4.2h-1l-1-.2a1.9,1.9,0,0,1-.9-.5l-.6-.9a5.1,5.1,0,0,1-.2-1.3v-4.2h1.7v4.1c0,.2.1.5.1.6l.3.5.5.3h.5a2,2,0,0,0,1.4-.6v-5h1.8Z"/><path d="M187.3,853.3h-1.7v-4.1a2.1,2.1,0,0,0-.4-1.2,1.2,1.2,0,0,0-.9-.3h-.7l-.7.4a3.1,3.1,0,0,1,.1,1v4.1h-1.7v-4.1a2.1,2.1,0,0,0-.4-1.2,1.2,1.2,0,0,0-.9-.3h-.6l-.7.4v5.1H177v-6.9h1.7v.5l.8-.5a1.5,1.5,0,0,1,.9-.2,1.8,1.8,0,0,1,1,.2l.9.7a2.3,2.3,0,0,1,1.1-.7,2.5,2.5,0,0,1,1.2-.2h1a1.8,1.8,0,0,1,.9.6,3.5,3.5,0,0,1,.6.9,4.4,4.4,0,0,1,.2,1.3Z"/><path d="M275.1,853.3h-6.5v-9.6h1.9v7.8h4.6Z"/><path d="M283.8,849.8a4,4,0,0,1-.3,1.5,4.4,4.4,0,0,1-.8,1.1,2.5,2.5,0,0,1-1.2.8,3.2,3.2,0,0,1-1.4.3,3.7,3.7,0,0,1-1.5-.3,4.2,4.2,0,0,1-1.2-.8,4.4,4.4,0,0,1-.8-1.1,7.7,7.7,0,0,1-.2-1.5,3.2,3.2,0,0,1,.3-1.4,2.8,2.8,0,0,1,.8-1.2,2.6,2.6,0,0,1,1.1-.7,4,4,0,0,1,1.5-.3,3.2,3.2,0,0,1,1.4.3,2.4,2.4,0,0,1,1.2.7,3.6,3.6,0,0,1,.8,1.2A3.2,3.2,0,0,1,283.8,849.8Zm-1.8,0a2.2,2.2,0,0,0-.1-.8,4.3,4.3,0,0,0-.4-.7l-.7-.4-.7-.2-.8.2-.6.4a1.8,1.8,0,0,0-.5.7,2.2,2.2,0,0,0-.1.8,2.8,2.8,0,0,0,.1.9l.5.6.6.5h1.5a1.8,1.8,0,0,0,.7-.5l.4-.6A2.8,2.8,0,0,0,282,849.8Z"/><path d="M290.5,847.1l-.9,1.4-.5-.4a1.1,1.1,0,0,0-.7-.3h-.3l-.4.3-.3.5c-.1.1-.1.4-.1.7v3.9h-1.7v-6.9h1.7v.7a2.3,2.3,0,0,1,.7-.7l.8-.2.9.2A2.7,2.7,0,0,1,290.5,847.1Z"/><path d="M299,849.8v.7h-5.6l.3.6.4.5.6.3h.7l.9-.2a2,2,0,0,0,.8-.4l1.1,1.1a7,7,0,0,1-1.4.8l-1.5.2a3.2,3.2,0,0,1-1.4-.3,3.7,3.7,0,0,1-2-2,3.4,3.4,0,0,1,0-2.8l.8-1.2a3.5,3.5,0,0,1,1.2-.7,3.2,3.2,0,0,1,1.4-.3l1.4.2a3.6,3.6,0,0,1,1.2.8,2.8,2.8,0,0,1,.8,1.1A4,4,0,0,1,299,849.8Zm-1.8-.7a1.8,1.8,0,0,0-.7-1,2,2,0,0,0-2.4,0,2.6,2.6,0,0,0-.7,1Z"/><path d="M311.1,853.3h-1.7v-4.1a2.1,2.1,0,0,0-.4-1.2,1.2,1.2,0,0,0-.9-.3h-.7l-.7.4a3.1,3.1,0,0,1,.1,1v4.1h-1.7v-4.1a1.6,1.6,0,0,0-.4-1.2,1.1,1.1,0,0,0-.8-.3h-.7l-.7.4v5.1h-1.7v-6.9h1.7v.5l.8-.5a1.5,1.5,0,0,1,.9-.2,1.8,1.8,0,0,1,1,.2,2.2,2.2,0,0,1,.9.7,2.3,2.3,0,0,1,1.1-.7,2.5,2.5,0,0,1,1.2-.2h1.1a1.6,1.6,0,0,1,.8.6,3.5,3.5,0,0,1,.6.9,4.4,4.4,0,0,1,.2,1.3Z"/><path d="M319.4,845.1h-1.8v-1.8h1.8Zm0,8.2h-1.8v-7h1.8Z"/><path d="M328.3,849.8a5.9,5.9,0,0,1-.2,1.4,3.5,3.5,0,0,1-.7,1.2l-1.1.8a2.8,2.8,0,0,1-1.3.3h-.9l-.7-.4v3.3h-1.8v-10h1.8v.4l.7-.4h.9a2.7,2.7,0,0,1,1.2.3,2.6,2.6,0,0,1,1.1.7,2.9,2.9,0,0,1,.7,1.2A3.2,3.2,0,0,1,328.3,849.8Zm-1.7,0a1.9,1.9,0,0,0-.2-.8,1.6,1.6,0,0,0-.4-.7l-.6-.5H324l-.6.3v3.3a1.7,1.7,0,0,0,1.2.6l.8-.2c.2-.1.5-.2.6-.4a1.6,1.6,0,0,0,.4-.7A2.4,2.4,0,0,0,326.6,849.8Z"/><path d="M335.2,851.4a2.9,2.9,0,0,1-.2.9c-.2.2-.4.5-.7.6l-.8.5h-1a3.2,3.2,0,0,1-1.4-.3,2.7,2.7,0,0,1-1.2-.9l1-1.1a1.9,1.9,0,0,0,.7.6,1.5,1.5,0,0,0,.9.2h.7a.5.5,0,0,0,.3-.5c0-.2-.2-.3-.4-.5l-1.1-.4-.8-.3-.7-.5c-.2-.1-.3-.4-.5-.6a1.9,1.9,0,0,1-.1-.8,1.5,1.5,0,0,1,.2-.9l.6-.7.9-.4h1a3.4,3.4,0,0,1,2.6,1.2l-1.1,1-.7-.6-.8-.2h-.7c-.1,0-.1.1-.2.2a.4.4,0,0,0-.1.3c0,.1.1.3.4.4l1,.5a3.2,3.2,0,0,1,.9.3l.7.5a.9.9,0,0,1,.4.6A1.9,1.9,0,0,1,335.2,851.4Z"/><path d="M343.1,853.3h-1.7v-.5l-.4.3-.5.2h-1l-1-.2-.8-.5a2.4,2.4,0,0,1-.6-.9,2.7,2.7,0,0,1-.2-1.3v-4.2h1.7v4.1c0,.2,0,.5.1.6l.3.5.4.3h.5a2,2,0,0,0,1.5-.6v-5h1.7Z"/><path d="M355.6,853.3h-1.8v-4.1a2.1,2.1,0,0,0-.3-1.2,1.6,1.6,0,0,0-.9-.3h-.8l-.6.4c0,.3.1.6.1,1v4.1h-1.8v-4.1a2.1,2.1,0,0,0-.3-1.2,1.4,1.4,0,0,0-.9-.3h-.7l-.6.4v5.1h-1.7v-6.9H347v.5l.8-.5a1.5,1.5,0,0,1,.9-.2,2,2,0,0,1,1,.2l.9.7a1.9,1.9,0,0,1,1.1-.7,2.2,2.2,0,0,1,1.2-.2h1a2.4,2.4,0,0,1,.9.6,1.9,1.9,0,0,1,.5.9,2.5,2.5,0,0,1,.3,1.3Z"/><path d="M443.3,853.3h-6.5v-9.6h1.9v7.8h4.6Z"/><path d="M452.1,849.8a4,4,0,0,1-.3,1.5,4.4,4.4,0,0,1-.8,1.1,4.2,4.2,0,0,1-1.2.8,3.7,3.7,0,0,1-1.5.3,3.8,3.8,0,0,1-2.6-1.1,4.4,4.4,0,0,1-.8-1.1,4,4,0,0,1-.3-1.5,3.2,3.2,0,0,1,.3-1.4l.8-1.2a3.7,3.7,0,0,1,1.2-.7,3.5,3.5,0,0,1,1.4-.3,3.7,3.7,0,0,1,1.5.3,3.7,3.7,0,0,1,1.2.7,3.6,3.6,0,0,1,.8,1.2A3.2,3.2,0,0,1,452.1,849.8Zm-1.8,0a2.2,2.2,0,0,0-.1-.8,1.8,1.8,0,0,0-.5-.7.9.9,0,0,0-.6-.4l-.8-.2-.7.2-.7.4a4.3,4.3,0,0,0-.4.7,2.2,2.2,0,0,0-.1.8,2.8,2.8,0,0,0,.1.9l.4.6a1.8,1.8,0,0,0,.7.5h1.5a1,1,0,0,0,.6-.5l.5-.6A2.8,2.8,0,0,0,450.3,849.8Z"/><path d="M458.8,847.1l-.9,1.4-.6-.4a.9.9,0,0,0-.6-.3h-.4l-.3.3-.3.5c-.1.1-.1.4-.1.7v3.9h-1.8v-6.9h1.8v.7a2.3,2.3,0,0,1,.7-.7l.8-.2.9.2A2.7,2.7,0,0,1,458.8,847.1Z"/><path d="M467.3,849.8v.4a.4.4,0,0,1-.1.3h-5.5c.1.2.1.4.3.6l.4.5.6.3h.7l.9-.2a2,2,0,0,0,.8-.4l1.1,1.1a7,7,0,0,1-1.4.8l-1.5.2a4,4,0,0,1-1.5-.3l-1.1-.8a2.5,2.5,0,0,1-.8-1.2,3.4,3.4,0,0,1,0-2.8,4.2,4.2,0,0,1,.8-1.2,4.1,4.1,0,0,1,1.1-.7,4,4,0,0,1,1.5-.3l1.4.2,1.2.8a4.4,4.4,0,0,1,.8,1.1A4,4,0,0,1,467.3,849.8Zm-1.8-.7a1.8,1.8,0,0,0-.7-1,1.9,1.9,0,0,0-1.2-.4,1.7,1.7,0,0,0-1.2.4,1.8,1.8,0,0,0-.7,1Z"/><path d="M479.4,853.3h-1.8v-4.1a2.1,2.1,0,0,0-.3-1.2,1.2,1.2,0,0,0-.9-.3h-.7l-.7.4c0,.3.1.6.1,1v4.1h-1.7v-4.1a2.1,2.1,0,0,0-.4-1.2,1.2,1.2,0,0,0-.9-.3h-.7l-.6.4v5.1h-1.7v-6.9h1.7v.5l.8-.5a1.5,1.5,0,0,1,.9-.2,1.8,1.8,0,0,1,1,.2l.9.7a2.3,2.3,0,0,1,1.1-.7,2.5,2.5,0,0,1,1.2-.2h1a1.8,1.8,0,0,1,.9.6,3.5,3.5,0,0,1,.6.9,4.4,4.4,0,0,1,.2,1.3Z"/><path d="M487.7,845.1h-1.8v-1.8h1.8Zm-.1,8.2h-1.7v-7h1.7Z"/><path d="M496.6,849.8a5.9,5.9,0,0,1-.2,1.4,3.5,3.5,0,0,1-.7,1.2l-1.1.8a3.1,3.1,0,0,1-1.3.3h-.9l-.7-.4v3.3h-1.8v-10h1.8v.4l.7-.4h.9a2.7,2.7,0,0,1,1.2.3,2.6,2.6,0,0,1,1.1.7,4.7,4.7,0,0,1,.7,1.2A3.2,3.2,0,0,1,496.6,849.8Zm-1.8,0a1.9,1.9,0,0,0-.1-.8,1.6,1.6,0,0,0-.4-.7l-.6-.5h-1.4l-.6.3v3.3a1.6,1.6,0,0,0,1.2.6l.8-.2.6-.4a1.6,1.6,0,0,0,.4-.7A2.5,2.5,0,0,0,494.8,849.8Z"/><path d="M503.5,851.4a1.6,1.6,0,0,1-.3.9,1.2,1.2,0,0,1-.6.6,1.9,1.9,0,0,1-.9.5h-.9a4,4,0,0,1-1.5-.3,3.1,3.1,0,0,1-1.1-.9l1-1.1a1.9,1.9,0,0,0,.7.6,1.5,1.5,0,0,0,.9.2h.7a.5.5,0,0,0,.3-.5c0-.2-.2-.3-.4-.5l-1.1-.4-.8-.3a1.8,1.8,0,0,1-.7-.5,1.5,1.5,0,0,1-.5-.6,1.9,1.9,0,0,1-.2-.8,1.6,1.6,0,0,1,.3-.9,1.3,1.3,0,0,1,.6-.7,1.9,1.9,0,0,1,.9-.4h.9a3.1,3.1,0,0,1,2.6,1.2l-1,1-.7-.6-.8-.2h-.7a.2.2,0,0,0-.2.2.4.4,0,0,0-.1.3.5.5,0,0,0,.3.4l1.1.5a1.9,1.9,0,0,1,.8.3,1.8,1.8,0,0,1,.7.5,1,1,0,0,1,.5.6A1.9,1.9,0,0,1,503.5,851.4Z"/><path d="M511.4,853.3h-1.7v-.5l-.4.3-.5.2h-1l-1-.2-.9-.5a4.1,4.1,0,0,1-.5-.9,2.8,2.8,0,0,1-.3-1.3v-4.2h1.8v4.1c0,.2,0,.5.1.6l.3.5.4.3h.5a2,2,0,0,0,1.5-.6v-5h1.7Z"/><path d="M523.8,853.3h-1.7v-4.1a1.6,1.6,0,0,0-.4-1.2,1.1,1.1,0,0,0-.8-.3h-.8l-.7.4a3.1,3.1,0,0,1,.1,1v4.1h-1.7v-4.1a2.1,2.1,0,0,0-.3-1.2,1.6,1.6,0,0,0-.9-.3h-.7l-.6.4v5.1h-1.8v-6.9h1.8v.5a1.8,1.8,0,0,1,.7-.5,1.5,1.5,0,0,1,.9-.2,2.2,2.2,0,0,1,1.1.2l.9.7a2,2,0,0,1,1-.7,2.7,2.7,0,0,1,1.3-.2h1a1.6,1.6,0,0,1,.8.6,1.5,1.5,0,0,1,.6.9,2.5,2.5,0,0,1,.2,1.3Z"/><path d="M611.6,853.3h-6.5v-9.6H607v7.8h4.6Z"/><path d="M620.3,849.8a4,4,0,0,1-.3,1.5,4.4,4.4,0,0,1-1.9,1.9,4,4,0,0,1-1.5.3,3.2,3.2,0,0,1-1.4-.3,2.5,2.5,0,0,1-1.2-.8,4.4,4.4,0,0,1-.8-1.1,4,4,0,0,1-.3-1.5,3.2,3.2,0,0,1,.3-1.4,8.3,8.3,0,0,1,.8-1.2,2.4,2.4,0,0,1,1.2-.7,3.2,3.2,0,0,1,1.4-.3,4,4,0,0,1,1.5.3,2.6,2.6,0,0,1,1.1.7,2.5,2.5,0,0,1,.8,1.2A3.2,3.2,0,0,1,620.3,849.8Zm-1.7,0a2.4,2.4,0,0,0-.2-.8,1.6,1.6,0,0,0-.4-.7l-.6-.4-.8-.2-.7.2-.7.4a1.6,1.6,0,0,0-.4.7,2.4,2.4,0,0,0-.2.8,2.9,2.9,0,0,0,.2.9,2.1,2.1,0,0,0,.4.6,1.8,1.8,0,0,0,.7.5h1.5l.6-.5a2.1,2.1,0,0,0,.4-.6A2.9,2.9,0,0,0,618.6,849.8Z"/><path d="M627.1,847.1l-.9,1.4-.6-.4a.9.9,0,0,0-.6-.3h-.4l-.4.3a.8.8,0,0,0-.2.5,1.2,1.2,0,0,0-.2.7v3.9h-1.7v-6.9h1.7v.7a4.6,4.6,0,0,1,.7-.7l.9-.2.9.2Z"/><path d="M635.6,849.8v.4a.4.4,0,0,0-.1.3H630a1.4,1.4,0,0,0,.2.6l.5.5.5.3h.7l1-.2.8-.4,1,1.1a3.9,3.9,0,0,1-1.4.8l-1.4.2a4,4,0,0,1-1.5-.3l-1.2-.8a2.4,2.4,0,0,1-.7-1.2,3.4,3.4,0,0,1,0-2.8,3.7,3.7,0,0,1,.7-1.2l1.2-.7a4,4,0,0,1,1.5-.3l1.4.2,1.2.8a4.4,4.4,0,0,1,.8,1.1A4,4,0,0,1,635.6,849.8Zm-1.8-.7a2,2,0,0,0-.8-1,1.5,1.5,0,0,0-1.1-.4,1.6,1.6,0,0,0-1.2.4,1.4,1.4,0,0,0-.7,1Z"/><path d="M647.6,853.3h-1.7v-4.1a2.1,2.1,0,0,0-.3-1.2,1.6,1.6,0,0,0-.9-.3h-.8l-.7.4a3,3,0,0,1,.2,1v4.1h-1.8v-4.1a2.1,2.1,0,0,0-.3-1.2,1.6,1.6,0,0,0-.9-.3h-.7l-.6.4v5.1h-1.7v-6.9h1.7v.5l.8-.5c.2-.2.5-.2.9-.2a2,2,0,0,1,1,.2l.9.7a1.9,1.9,0,0,1,1.1-.7,2.2,2.2,0,0,1,1.2-.2h1a2.4,2.4,0,0,1,.9.6,1.9,1.9,0,0,1,.5.9,2.5,2.5,0,0,1,.2,1.3Z"/><path d="M655.9,845.1h-1.8v-1.8h1.8Zm0,8.2h-1.7v-7h1.7Z"/><path d="M664.9,849.8a3.2,3.2,0,0,1-.3,1.4,2.4,2.4,0,0,1-.7,1.2,3.9,3.9,0,0,1-1,.8,3.2,3.2,0,0,1-1.4.3h-.8l-.8-.4v3.3h-1.7v-10h1.7v.4l.7-.4h.8a2.8,2.8,0,0,1,1.3.3,2.3,2.3,0,0,1,1,.7,3.8,3.8,0,0,1,1.1,2.6Zm-1.8,0a1.9,1.9,0,0,0-.1-.8,4.3,4.3,0,0,0-.4-.7l-.6-.5h-1.5l-.6.3v3.3a1.8,1.8,0,0,0,1.3.6l.8-.2.6-.4a4.3,4.3,0,0,0,.4-.7A2.5,2.5,0,0,0,663.1,849.8Z"/><path d="M671.8,851.4a1.6,1.6,0,0,1-.3.9,1.7,1.7,0,0,1-.6.6l-.9.5h-.9a3.7,3.7,0,0,1-1.5-.3,4.7,4.7,0,0,1-1.2-.9l1.1-1.1a1.3,1.3,0,0,0,.7.6,1.5,1.5,0,0,0,.9.2h.7a.8.8,0,0,0,.2-.5c0-.2-.1-.3-.4-.5l-1-.4-.8-.3a1.8,1.8,0,0,1-.7-.5,1.5,1.5,0,0,1-.5-.6,1.9,1.9,0,0,1-.2-.8,1.6,1.6,0,0,1,.3-.9,1.3,1.3,0,0,1,.6-.7,2,2,0,0,1,.8-.4h1a3.2,3.2,0,0,1,2.6,1.2l-1,1-.7-.6-.9-.2h-.6l-.3.2v.3a.5.5,0,0,0,.3.4l1.1.5c.3,0,.5.2.8.3a1.8,1.8,0,0,1,.7.5,1,1,0,0,1,.5.6A1.9,1.9,0,0,1,671.8,851.4Z"/><path d="M679.7,853.3h-1.8v-.5l-.3.3-.5.2h-1l-1-.2-.9-.5-.6-.9a5.1,5.1,0,0,1-.2-1.3v-4.2h1.7v4.1c0,.2.1.5.1.6l.3.5.5.3h.5a1.8,1.8,0,0,0,1.4-.6v-5h1.8Z"/><path d="M692.1,853.3h-1.7v-4.1a1.6,1.6,0,0,0-.4-1.2,1.2,1.2,0,0,0-.9-.3h-.7l-.7.4a3.1,3.1,0,0,1,.1,1v4.1h-1.7v-4.1a1.6,1.6,0,0,0-.4-1.2,1.1,1.1,0,0,0-.8-.3h-.7l-.7.4v5.1h-1.7v-6.9h1.7v.5l.8-.5a1.5,1.5,0,0,1,.9-.2,1.8,1.8,0,0,1,1,.2,2.2,2.2,0,0,1,.9.7,2.3,2.3,0,0,1,1.1-.7,2.5,2.5,0,0,1,1.2-.2h1.1a1.6,1.6,0,0,1,.8.6,2,2,0,0,1,.6.9,4.4,4.4,0,0,1,.2,1.3Z"/><path d="M779.9,853.3h-6.5v-9.6h1.9v7.8h4.6Z"/><path d="M788.6,849.8a4,4,0,0,1-.3,1.5,2.8,2.8,0,0,1-.8,1.1,2.5,2.5,0,0,1-1.2.8,3.2,3.2,0,0,1-1.4.3,4,4,0,0,1-1.5-.3,4.4,4.4,0,0,1-1.9-1.9,4,4,0,0,1-.3-1.5,3.2,3.2,0,0,1,.3-1.4,4.2,4.2,0,0,1,.8-1.2,2.4,2.4,0,0,1,1.2-.7,3.4,3.4,0,0,1,2.8,0,2.4,2.4,0,0,1,1.2.7,2.5,2.5,0,0,1,.8,1.2A3.2,3.2,0,0,1,788.6,849.8Zm-1.7,0a2.4,2.4,0,0,0-.2-.8,1.6,1.6,0,0,0-.4-.7l-.6-.4-.8-.2-.8.2-.6.4a1.6,1.6,0,0,0-.4.7,2.4,2.4,0,0,0-.2.8,2.9,2.9,0,0,0,.2.9,2.1,2.1,0,0,0,.4.6l.6.5h1.6l.6-.5a2.1,2.1,0,0,0,.4-.6A2.9,2.9,0,0,0,786.9,849.8Z"/><path d="M795.4,847.1l-1,1.4-.5-.4a.9.9,0,0,0-.6-.3h-.4l-.4.3-.3.5a5.6,5.6,0,0,0-.1.7v3.9h-1.7v-6.9h1.7v.7a2.3,2.3,0,0,1,.7-.7l.8-.2.9.2Z"/><path d="M803.9,849.8c0,.1-.1.2-.1.4v.3h-5.6l.3.6.4.5.6.3h.7l.9-.2a1.5,1.5,0,0,0,.8-.4l1.1,1.1a5,5,0,0,1-1.4.8l-1.4.2a3.3,3.3,0,0,1-1.5-.3,3.7,3.7,0,0,1-2-2,3.4,3.4,0,0,1,0-2.8,8.3,8.3,0,0,1,.8-1.2l1.2-.7a3.2,3.2,0,0,1,1.4-.3l1.4.2a3.6,3.6,0,0,1,1.2.8,3.1,3.1,0,0,1,.9,1.1A4,4,0,0,1,803.9,849.8Zm-1.9-.7a1.4,1.4,0,0,0-.7-1,1.6,1.6,0,0,0-1.2-.4,1.5,1.5,0,0,0-1.1.4,2,2,0,0,0-.8,1Z"/><path d="M815.9,853.3h-1.7v-4.1a1.6,1.6,0,0,0-.4-1.2,1.1,1.1,0,0,0-.8-.3h-.8l-.7.4a3.1,3.1,0,0,1,.1,1v4.1h-1.7v-4.1a1.6,1.6,0,0,0-.4-1.2,1.1,1.1,0,0,0-.8-.3H808l-.6.4v5.1h-1.8v-6.9h1.8v.5a1.8,1.8,0,0,1,.7-.5,1.5,1.5,0,0,1,.9-.2,1.6,1.6,0,0,1,1,.2,2.2,2.2,0,0,1,.9.7,2.8,2.8,0,0,1,1.1-.7,2.5,2.5,0,0,1,1.2-.2h1.1a1.6,1.6,0,0,1,.8.6,1.5,1.5,0,0,1,.6.9,4.4,4.4,0,0,1,.2,1.3Z"/><path d="M824.2,845.1h-1.8v-1.8h1.8Zm0,8.2h-1.8v-7h1.8Z"/><path d="M833.2,849.8a3.2,3.2,0,0,1-.3,1.4,3.5,3.5,0,0,1-.7,1.2,3.9,3.9,0,0,1-1,.8,3.5,3.5,0,0,1-1.4.3H829l-.8-.4v3.3h-1.7v-10h1.7v.4l.7-.4h.9a3.1,3.1,0,0,1,1.3.3,2.3,2.3,0,0,1,1,.7,5,5,0,0,1,.8,1.2A3.2,3.2,0,0,1,833.2,849.8Zm-1.8,0a1.9,1.9,0,0,0-.2-.8,1.6,1.6,0,0,0-.4-.7,1,1,0,0,0-.6-.5h-1.4l-.6.3v3.3a1.8,1.8,0,0,0,1.3.6l.7-.2a.9.9,0,0,0,.6-.4,1.6,1.6,0,0,0,.4-.7A2.4,2.4,0,0,0,831.4,849.8Z"/><path d="M840,851.4a1.5,1.5,0,0,1-.2.9l-.6.6-.9.5h-1a3.2,3.2,0,0,1-1.4-.3,2.7,2.7,0,0,1-1.2-.9l1.1-1.1a1.3,1.3,0,0,0,.7.6c.2.2.5.2.9.2h.6a.5.5,0,0,0,.3-.5c0-.2-.1-.3-.4-.5l-1.1-.4-.8-.3-.6-.5a1.5,1.5,0,0,1-.5-.6,1.9,1.9,0,0,1-.2-.8,2.9,2.9,0,0,1,.2-.9l.6-.7.9-.4h1a3.4,3.4,0,0,1,2.6,1.2l-1,1-.7-.6-.9-.2h-.6l-.3.2c0,.1-.1.2-.1.3s.1.3.4.4l1,.5a3.2,3.2,0,0,1,.9.3,1.8,1.8,0,0,1,.7.5c.2.1.3.3.5.6A1.9,1.9,0,0,1,840,851.4Z"/><path d="M848,853.3h-1.8v-.5l-.4.3-.4.2h-1l-1-.2a1.9,1.9,0,0,1-.9-.5,2.4,2.4,0,0,1-.6-.9,5.1,5.1,0,0,1-.2-1.3v-4.2h1.7v4.1c0,.2,0,.5.1.6l.3.5.5.3h.5a2,2,0,0,0,1.4-.6v-5H848Z"/><path d="M860.4,853.3h-1.7v-4.1a2.1,2.1,0,0,0-.4-1.2,1.2,1.2,0,0,0-.9-.3h-.7l-.7.4a3.1,3.1,0,0,1,.1,1v4.1h-1.7v-4.1a2.1,2.1,0,0,0-.4-1.2,1.2,1.2,0,0,0-.9-.3h-.7l-.6.4v5.1h-1.7v-6.9h1.7v.5l.8-.5a1.5,1.5,0,0,1,.9-.2,1.8,1.8,0,0,1,1,.2l.9.7a2.3,2.3,0,0,1,1.1-.7,2.5,2.5,0,0,1,1.2-.2h1a1.8,1.8,0,0,1,.9.6l.6.9a4.4,4.4,0,0,1,.2,1.3Z"/><g class="l"><rect class="e" x="72.9" y="877.1" width="156.3" height="150.24"/><rect class="e" x="235.2" y="877.1" width="156.3" height="150.24"/><rect class="e" x="399.5" y="877.1" width="156.3" height="150.24"/><rect class="e" x="567.7" y="877.1" width="156.3" height="150.24"/><rect class="e" x="732" y="877.1" width="156.3" height="150.24"/></g><circle class="i" cx="117" cy="418.3" r="20"/><circle class="i" cx="171.1" cy="418.3" r="20"/><circle class="i" cx="225.2" cy="418.3" r="20"/></svg>