<svg xmlns="http://www.w3.org/2000/svg" viewBox="0 0 1366 1108"><defs><style>.a{fill:#eaeaea;}.b{fill:#b7b7b7;}.c{fill:#6df0c6;}.d{fill:#76afc3;}.e{fill:#fff;}</style></defs><rect class="a" x="446.1" y="44" width="513.6" height="725.07"/><rect class="b" x="476.3" y="74.2" width="120.8" height="135.95"/><rect class="b" x="627.4" y="81.8" width="309.7" height="7.55" rx="3.8"/><rect class="b" x="627.4" y="104.4" width="309.7" height="7.55" rx="3.8"/><rect class="b" x="627.4" y="127.1" width="309.7" height="7.55" rx="3.8"/><rect class="b" x="627.4" y="149.7" width="309.7" height="7.55" rx="3.8"/><rect class="b" x="627.4" y="172.4" width="309.7" height="7.55" rx="3.8"/><rect class="b" x="627.4" y="195.1" width="309.7" height="7.55" rx="3.8"/><rect class="b" x="627.4" y="217.7" width="309.7" height="7.55" rx="3.8"/><rect class="b" x="468.8" y="240.4" width="468.3" height="7.55" rx="3.8"/><rect class="b" x="468.8" y="263" width="468.3" height="7.55" rx="3.8"/><rect class="b" x="468.8" y="285.7" width="468.3" height="7.55" rx="3.8"/><rect class="b" x="468.8" y="308.3" width="468.3" height="7.55" rx="3.8"/><rect class="b" x="468.8" y="331" width="468.3" height="7.55" rx="3.8"/><rect class="b" x="468.8" y="353.7" width="468.3" height="7.55" rx="3.8"/><rect class="b" x="468.8" y="376.3" width="468.3" height="7.55" rx="3.8"/><path class="c" d="M1151.8,778.2c0-93.4-65.7-171.4-153.4-190.4a193.9,193.9,0,0,0,15.8-77.1c0-107.6-87.2-194.8-194.8-194.8A194.9,194.9,0,0,0,631.1,460.6a194.1,194.1,0,0,0-125-45.4c-107,0-193.8,86.3-194.8,193.1A195,195,0,0,0,212,778.2C212,885.8,299.2,973,406.8,973a199,199,0,0,0,24.5-1.6,20.6,20.6,0,0,0,7.9,1.6H985.7a20.8,20.8,0,0,0,12.8-4.5C1086.1,949.5,1151.8,871.5,1151.8,778.2Z"/><path class="c" d="M1083.8,778.2c0-93.4-65.7-171.4-153.4-190.4a194,194,0,0,0,15.9-77.1c0-107.6-87.3-194.8-194.9-194.8-90.2,0-166.1,61.4-188.3,144.7a194,194,0,0,0-124.9-45.4c-107.1,0-193.9,86.3-194.8,193.1A194.9,194.9,0,0,0,144,778.2C144,885.8,231.2,973,338.8,973a197.7,197.7,0,0,0,24.5-1.6,20.6,20.6,0,0,0,7.9,1.6H917.7a20.5,20.5,0,0,0,12.8-4.5C1018.1,949.5,1083.8,871.5,1083.8,778.2Z"/><path class="d" d="M998.4,587.8a193.9,193.9,0,0,0,15.8-77.1c0-107.6-87.2-194.8-194.8-194.8a200,200,0,0,0-34,3c91.4,16.1,160.9,95.8,160.9,191.8a194,194,0,0,1-15.9,77.1c87.7,19,153.4,97,153.4,190.4s-65.7,171.3-153.3,190.3a20.5,20.5,0,0,1-12.8,4.5h68a20.8,20.8,0,0,0,12.8-4.5c87.6-19,153.3-97,153.3-190.3S1086.1,606.8,998.4,587.8Z"/><path class="d" d="M563.1,460.6a202.9,202.9,0,0,1,12.1-32.7,193.1,193.1,0,0,0-69.1-12.7,199.7,199.7,0,0,0-33.9,3A194.4,194.4,0,0,1,563.1,460.6Z"/><path class="e" d="M500.2,720.5h44.7c1.1,31.7,14.2,57,40.3,74.8,20.5,13.9,43.3,18.3,67.6,13.5a89.8,89.8,0,0,0,71.5-103.1c-8.5-51.5-54.9-77.1-89-75.2V678l-85.6-70.5,85.5-70.4v47.5c49.6,1.9,88.7,22.8,115.2,64.7,19.2,30.5,24.8,63.9,17.3,99.1C752.4,820,683.5,866.5,611.9,853.7S498.8,777.8,500.2,720.5Z"/></svg>