<svg xmlns="http://www.w3.org/2000/svg" viewBox="0 0 1366 1108"><defs><style>.a,.e{fill:#eaeaea;}.b{fill:#344a5f;}.c{fill:#1d4568;}.d{fill:#fff;}.e{stroke:#1d4568;stroke-miterlimit:10;stroke-width:5.11px;}.f{fill:#ffa382;}.g{fill:#e88bc2;}</style></defs><polygon class="a" points="1056.1 382.1 261.2 392.8 374.5 98 958.3 98 1056.1 382.1"/><rect class="b" x="259" y="406.7" width="802.7" height="470.67"/><rect class="c" x="262.1" y="358.8" width="803.4" height="154.19" rx="40.4"/><circle class="d" cx="351.4" cy="435.9" r="24.3"/><circle class="d" cx="444.1" cy="435.6" r="24.3"/><rect class="d" x="589" y="419.4" width="422" height="38.26"/><rect class="c" x="262.1" y="552.4" width="803.4" height="154.19" rx="40.4"/><circle class="d" cx="351.4" cy="629.5" r="24.3"/><circle class="d" cx="444.1" cy="629.2" r="24.3"/><rect class="d" x="589" y="613" width="422" height="38.26"/><rect class="c" x="262.1" y="746" width="803.4" height="154.19" rx="40.4"/><circle class="d" cx="351.4" cy="823.1" r="24.3"/><circle class="d" cx="444.1" cy="822.8" r="24.3"/><rect class="d" x="589" y="806.6" width="422" height="38.26"/><circle class="e" cx="1051.5" cy="838" r="199.4"/><path class="f" d="M1139.5,881.3c-3.2-1.1-6.6-.6-10-1.2,2-7.4,1.3-14.2-3.4-20.2s-11.6-8-19.3-7.6c1.9-7,1.7-13.3-2.1-19.2s-9.5-8.4-16.8-9.3l3.6-3.9c13.9-13.9,27.9-27.8,41.7-41.8,9.7-9.7,10-23.9,1-33.1s-23.6-9.3-33.5.4l-58.5,57.1L1028.1,816c-9-15.8-17.6-31.3-26.6-46.7s-33.1-19.5-47-6.5c-.4,3.3-3.7,5.3-4,8.7s.6,7.2,2.8,10.3,4.8,7,7.6,10.2c11.5,13.4,13.6,28.9,9.9,45.5s-8.6,35.2-9.4,53.4c-.9,20.4,3.7,39.1,17.2,55a188.9,188.9,0,0,0,20.3,20.7c26.7,23.7,69.8,25.2,94.9,2.2,18.9-17.4,36.7-35.9,54.5-54.4C1158.6,903.7,1153.5,886.2,1139.5,881.3Zm-65-10.4c-1.8,3.7-1.2,6.8,2,9.5s8.3,4.1,12.2,1a78.8,78.8,0,0,0,6.2-5.5l3.5-3a70.8,70.8,0,0,1,5-5.9c4-3.7,9.2-3.8,12.8-.5s3.4,7.5-.1,12.1-9.2,9.6-13.7,14.5-3.3,12.5,3.1,15.1c3.7,1.4,6.9.5,9.7-2.2s7.2-7.2,10.9-10.7,9.4-4.4,13.1-.7,3.6,8.9-.5,13.1c-16.2,16.3-32.1,33-48.9,48.9-24.4,23-61,22.4-85.4-.8-4.4-4.2-8.7-8.7-13-13.1-14.9-15.1-19.7-33.4-18.3-54.1,1.3-17,6.1-33.2,9.4-49.7,3.9-19.6,1.2-37.8-12-53.6-2.6-3.1-4.7-6.6-7.2-9.7s-1.4-4.3,1.2-6c8.9-6.1,22-3.1,27.5,6.5,8.6,15.1,17.1,30.3,25.8,45.4,5.2,9.1,11.5,9.9,19,2.6l1.5-1.4,70.2-68.5c2.9-2.9,6.1-4.9,10.2-4.4s7.9,2.9,9.5,7.4.6,8.7-2.7,12.1c-5.7,5.8-11.4,11.4-17.2,17.2l-55.2,55.2c-2.4,2.3-4.3,4.8-4,8.2a8.4,8.4,0,0,0,5.1,7.4c3.7,1.6,6.9.8,9.7-1.9,5.3-5.1,10.5-10.4,15.7-15.6s10.5-5.4,14.3-1.4,3.2,9.1-1.6,13.8l-15.9,15.5"/><path class="g" d="M1094.1,724.7c-4.5,4.5-8.2,9.6-13.6,13.1a2,2,0,0,0-1.2-.6c.4.3.9.2,1.2.6l-5.5,6.9c-2,2.2-3.8,4.5-7.4,3.1-6-2.3-6.4-7.6-1-12.2l23.1-22.3a11,11,0,0,1,5.7-.1h0c.9,1.2,2.3,1.9,2.8,3.4s-.1,3.6-1.1,5.2A27.6,27.6,0,0,0,1094.1,724.7Z"/><path class="g" d="M1039.4,678.6c2.3-2,4.4-4.1,7.9-2.6s3.6,4.4,3.6,7.5c0,9.7-.1,19.4.1,29,.1,5.2-2.1,8-7.3,8.2s-4.9-3.5-5-6.8c-.1-8.5,0-17.1,0-25.6C1038.7,685,1037.4,681.7,1039.4,678.6Z"/><path class="g" d="M1025.1,746l-.8.9c-2,1.4-4.1,1-6.2.3h0c-6.9-5.4-12.5-12.1-18.7-18.2-2.6-2.6-6.4-4.3-7.7-8.3-.1-2.1-.5-4.3,1.1-6.2s4.2-2.6,6.8-1.8a4.6,4.6,0,0,1,3.6,3,11.8,11.8,0,0,0,4.2,4.1,6.6,6.6,0,0,1,3.2,3.2c.1.7.4,1,1,1a1.4,1.4,0,0,1,.6,1.2c-.2,2.8,2.7,4.2,3.3,6.8s1.6-.4,2.4-.8a.9.9,0,0,1,1.2.3.9.9,0,0,0,1,1,9.4,9.4,0,0,1,3.3,3h.1C1028.7,739.8,1029,741.5,1025.1,746Z"/><path class="f" d="M954.5,762.8c.7,1.1,3.4,2-.1,3.5-1.7.7-2.6,3.4-3.9,5.2A10.1,10.1,0,0,1,954.5,762.8Z"/><path class="g" d="M1000.2,713.3a17.2,17.2,0,0,0-7.4,1.2c.2-1.2,1.3-1.5,2-2.2s3.6-.9,5.3.1h0c.3.1.5.3.4.6S1000.3,713.3,1000.2,713.3Z"/><path class="g" d="M1000.1,712.4h-5.3C996.6,710.8,998.4,710.7,1000.1,712.4Z"/><path class="g" d="M1094.1,724.7a3.1,3.1,0,0,1,3-2.9A5,5,0,0,1,1094.1,724.7Z"/><path class="g" d="M1098.2,716.6a5.3,5.3,0,0,1-2.8-3.4A3.2,3.2,0,0,1,1098.2,716.6Z"/><path class="g" d="M1095.4,713.2h-5.7A4.2,4.2,0,0,1,1095.4,713.2Z"/><path class="f" d="M1076.4,867.7c-.9.9-2.1,1.7-1.9,3.2"/><path class="f" d="M1094.9,875.9c.9-1.3,1.6-2.8,3.5-3Z"/><path class="f" d="M1063.5,849.7c-2.1,0-3.1,1.3-3.5,3.3-.2-3.1-.2-3.1,5-6.8.8,1.7-1.4,2.2-1.5,3.5Z"/><path class="f" d="M1136.3,922.1c-1.6-3-.9-5.1,3-7.3C1137.9,917.8,1135.4,919.4,1136.3,922.1Z"/><path class="f" d="M1087.5,767.2c1.5-2.9,2.9-4.6,3.2-6.8C1091,762.8,1091.3,765.2,1087.5,767.2Z"/><path class="f" d="M1041.3,979.1a17.1,17.1,0,0,1-8.4-.1A17.1,17.1,0,0,1,1041.3,979.1Z"/><path class="f" d="M1070.7,839.9l-2.5,4.8C1067.4,842.7,1067.8,841.3,1070.7,839.9Z"/><path class="f" d="M970.1,859.9a7.2,7.2,0,0,1,0-5.8Z"/><path class="f" d="M1063.5,849.7c2.1.6,2.1.6-.6,3.3-1-1.4.3-2.2.6-3.3Z"/><path class="f" d="M1007,964.9c-.2,1.1-.6,1.6-1.4,1.4a5.3,5.3,0,0,1-1.5-1.1l1.9-1.8Z"/><path class="f" d="M977.2,929.7c1.1.7,1.9,1.8,1.2,2.5s-1.3-.2-1.4-1A3.9,3.9,0,0,1,977.2,929.7Z"/><path class="f" d="M1042.7,812c.5.4,1,.6,1.1.9a.9.9,0,0,1-.9,1.3,1.3,1.3,0,0,1-1-.9C1041.9,813,1042.3,812.5,1042.7,812Z"/><path class="f" d="M1021.1,814.3c-.1.6-.5,1.1-1,.7a1.5,1.5,0,0,1-.5-1.2c0-.2.6-.4,1-.6Z"/><path class="f" d="M1020.7,817.1l-1.4,1.2c-.8-.4-1.5-.9-1.5-1.9l.9-.2Z"/><path class="g" d="M1080.5,737.8l-4.7,1.5c1.4-3.1,2.8-3.2,4.7-1.5Z"/><path class="g" d="M1041.3,686.1c0,7.5,0,15.1.1,22.6,0,.8-1.4,3.3,1.6,2.4.8-.2,1.7-1,2,.3s-.8,1.8-1.7,2.4a1.4,1.4,0,0,1-2.2-.4,6.4,6.4,0,0,1-.8-3c-.1-8,0-16.1,0-24.1Z"/><path class="g" d="M1042.8,682.2c1.5-2,2.8-1.6,4.9,0Z"/><path class="g" d="M1011.9,725l3,3.2,3.2,3.3c-.1,1.3.1,3.1-1.9,2.8s-3.3.1-2.3-2.8-2.1-2.6-2.9-4.3S1010,725.1,1011.9,725Z"/><path class="g" d="M995.8,715.9l1.5,4.4c-.5,0-1.1.4-1.4.2S995,717.6,995.8,715.9Z"/><path class="g" d="M1007.3,730.9c-1.2-1.3-2.7-2.3-2-3.3s1.8,0,2.1,1.1A9.1,9.1,0,0,1,1007.3,730.9Z"/><path class="g" d="M1015.8,737.1c0,.6-.2,1.2-.9.8a2.9,2.9,0,0,1-1.3-1.4c-.2-.7.4-.8,1-.8A1.3,1.3,0,0,1,1015.8,737.1Z"/></svg>