<svg xmlns="http://www.w3.org/2000/svg" viewBox="0 0 1366 1108"><defs><style>.a{fill:#f0c419;}.b{fill:#ecf0f1;stroke:#9e9e9e;stroke-width:2px;}.b,.e{stroke-miterlimit:10;}.c{fill:#f29c1f;}.d{fill:#26b99a;}.e{fill:none;stroke:#fff;stroke-width:28.05px;}</style></defs><path class="a" d="M228.3,345,745.6,98.4l461.1,221.9L1125,694s-44.5,90.7-127,90.7-450.4,49.5-506.5,1.7S228.3,345,228.3,345Z"/><rect class="b" x="316.6" y="36.5" width="793.6" height="910.71"/><path class="a" d="M1183.6,1066s19-4.1,17.3-23.9l5.8-721.8L690.3,717.9,228.3,345l-5.7,702"/><path class="c" d="M240.1,1062.7h944.2a17,17,0,0,0,12.5-28.5L825.6,632.1c-4.6-6.1-60-76-151.8-71-80,4.5-125.5,62.5-132,71L226.7,1035.2A17,17,0,0,0,240.1,1062.7Z"/><circle class="d" cx="703.5" cy="295.5" r="139.4"/><polyline class="e" points="619.8 291.2 663.8 343 777.1 248.2"/></svg>