<svg xmlns="http://www.w3.org/2000/svg" xmlns:xlink="http://www.w3.org/1999/xlink" viewBox="0 0 148.017 149.99"><defs><linearGradient id="linear-gradient" y1="74.995" x2="148.017" y2="74.995" gradientUnits="userSpaceOnUse"><stop offset="0" stop-color="#53d8ff"/><stop offset="1" stop-color="#3840f7"/></linearGradient></defs><g id="Layer_2" data-name="Layer 2"><g id="Layer_5" data-name="Layer 5"><ellipse cx="74.009" cy="74.995" rx="74.009" ry="74.995" fill="url(#linear-gradient)"/><path d="M120.728,102.454H26.838a5.906,5.906,0,0,0,0,11.811h93.89a5.906,5.906,0,0,0,0-11.811ZM88.84,110.82H53.407V105.9H88.84Z" fill="#fff"/><path d="M33.3,100.731V47.189a4.473,4.473,0,0,1,4.463-4.483H106.6a4.473,4.473,0,0,1,4.463,4.483v53.542h1.857V45.742a4.473,4.473,0,0,0-4.463-4.483H35.905a4.473,4.473,0,0,0-4.463,4.483v54.989Z" fill="#fff"/><rect x="40.723" y="85.456" width="69.057" height="2.98" rx="1.49" fill="#fff"/><rect x="40.723" y="91.004" width="69.057" height="2.98" rx="1.49" fill="#fff"/><ellipse cx="38.554" cy="86.945" rx="1.483" ry="1.49" fill="#fff"/><ellipse cx="38.808" cy="92.494" rx="1.483" ry="1.49" fill="#fff"/><path d="M106.282,43.72H38.518A3.928,3.928,0,0,0,34.6,47.657v6.534h75.6V47.657A3.928,3.928,0,0,0,106.282,43.72ZM39.76,52.085A2.245,2.245,0,1,1,42,49.841,2.239,2.239,0,0,1,39.76,52.085Zm5.235,0a2.245,2.245,0,1,1,2.234-2.244A2.239,2.239,0,0,1,45,52.085Zm5.234,0a2.245,2.245,0,1,1,2.234-2.244A2.239,2.239,0,0,1,50.229,52.085Z" fill="#fff"/><path d="M97.6,73.134H47.2a3.927,3.927,0,0,0-3.919,3.937,4.121,4.121,0,0,0,4.111,4.13H97.412a4.121,4.121,0,0,0,4.111-4.13A3.927,3.927,0,0,0,97.6,73.134Zm-1.266,5.517H72.482V75.877H96.338Z" fill="#fff"/><path d="M45.008,67.984h1.478V62.017H45.262V60.968H48.9v1.049h-1.23v5.967h1.485v1.091H45.008Z" fill="#fff"/><path d="M52.837,60.9h1.409l2.915,6.154V60.9h1.113v8.246H56.92l-2.97-6.208v6.208H52.837Z" fill="#fff"/><path d="M65.272,62.908a1.059,1.059,0,0,0-.354-.78,1.291,1.291,0,0,0-.877-.283,1.331,1.331,0,0,0-.9.3.97.97,0,0,0-.051,1.454,4.312,4.312,0,0,0,1.12.708l.468.221a4.235,4.235,0,0,1,1.491,1.088,2.165,2.165,0,0,1,.433,1.363,2.028,2.028,0,0,1-.736,1.647,2.992,2.992,0,0,1-1.979.611,2.428,2.428,0,0,1-1.77-.607,2.49,2.49,0,0,1-.663-1.768h1.265v.041a1.327,1.327,0,0,0,.312.943,1.133,1.133,0,0,0,.87.335,1.537,1.537,0,0,0,1.035-.345,1.157,1.157,0,0,0,.126-1.627A5.028,5.028,0,0,0,63.7,65.38l-.577-.283a3.075,3.075,0,0,1-1.193-.918,2.052,2.052,0,0,1-.395-1.243,1.922,1.922,0,0,1,.715-1.554,2.841,2.841,0,0,1,1.877-.594,2.447,2.447,0,0,1,1.681.563,2.214,2.214,0,0,1,.711,1.557Z" fill="#fff"/><path d="M71.926,62.045H69.761V60.968h5.506v1.077H73.094v7.1H71.926Z" fill="#fff"/><path d="M80.182,60.843h1.642L84,69.144H82.725l-.578-2.389H79.756l-.592,2.389H78.023Zm.769,1.071-.928,3.75h1.863Z" fill="#fff"/><path d="M87.234,60.9H88.4v7.086H92.54v1.091H87.234Z" fill="#fff"/><path d="M95.71,60.9h1.169v7.086h4.137v1.091H95.71Z" fill="#fff"/><path d="M96.05,83.659l-5.292-3.3L84.44,76.421a.433.433,0,0,0-.661.355l-.237,7.467q-.093,2.941-.187,5.883a.432.432,0,0,0,.812.223,10.77,10.77,0,0,1,2.25-2.87c.143-.129.286-.249.428-.365l3.528,6.138a2.59,2.59,0,0,0,3.547.955,2.617,2.617,0,0,0,.95-3.564l-3.321-5.778c.251-.062.508-.121.776-.173a14.382,14.382,0,0,1,3.473-.229A.435.435,0,0,0,96.05,83.659Z" fill="#fff" stroke="#00aeef" stroke-miterlimit="10"/></g></g></svg>