<svg xmlns="http://www.w3.org/2000/svg" xmlns:xlink="http://www.w3.org/1999/xlink" viewBox="0 0 150.642 150.146"><defs><linearGradient id="linear-gradient" x1="8.174" y1="13.988" x2="144.084" y2="13.988" gradientUnits="userSpaceOnUse"><stop offset="0" stop-color="#ce2f72"/><stop offset="0.135" stop-color="#c33276"/><stop offset="0.367" stop-color="#a73a80"/><stop offset="0.528" stop-color="#904088"/><stop offset="0.738" stop-color="#674c96"/><stop offset="1" stop-color="#2f5daa"/></linearGradient><linearGradient id="linear-gradient-2" x1="8.174" y1="71.503" x2="144.084" y2="71.503" xlink:href="#linear-gradient"/><linearGradient id="linear-gradient-3" x1="118.339" y1="-0.703" x2="100.776" y2="29.717" xlink:href="#linear-gradient"/><linearGradient id="linear-gradient-4" x1="42.414" y1="85.154" x2="14.776" y2="133.025" xlink:href="#linear-gradient"/><linearGradient id="linear-gradient-5" x1="34.514" y1="98.928" x2="22.38" y2="119.945" xlink:href="#linear-gradient"/><linearGradient id="linear-gradient-6" x1="50.244" y1="133.259" x2="41.306" y2="148.742" xlink:href="#linear-gradient"/><linearGradient id="linear-gradient-7" x1="47.689" y1="137.714" x2="43.765" y2="144.512" xlink:href="#linear-gradient"/><linearGradient id="linear-gradient-8" x1="130.651" y1="85.236" x2="103.183" y2="132.812" gradientTransform="matrix(-1, 0, 0, 1, 239.5, 0)" xlink:href="#linear-gradient"/><linearGradient id="linear-gradient-9" x1="122.795" y1="98.918" x2="110.72" y2="119.832" gradientTransform="matrix(-1, 0, 0, 1, 239.5, 0)" xlink:href="#linear-gradient"/><linearGradient id="linear-gradient-10" x1="138.196" y1="133.244" x2="129.312" y2="148.631" gradientTransform="matrix(-1, 0, 0, 1, 239.5, 0)" xlink:href="#linear-gradient"/><linearGradient id="linear-gradient-11" x1="135.655" y1="137.669" x2="131.75" y2="144.433" gradientTransform="matrix(-1, 0, 0, 1, 239.5, 0)" xlink:href="#linear-gradient"/></defs><g id="Layer_2" data-name="Layer 2"><g id="Layer_5" data-name="Layer 5"><path d="M144.084,27.976V9.542A9.544,9.544,0,0,0,134.538,0H17.719A9.544,9.544,0,0,0,8.174,9.542V27.976Z" fill="url(#linear-gradient)"/><path d="M8.174,31.972v69.52a9.544,9.544,0,0,0,9.545,9.541H134.538a9.544,9.544,0,0,0,9.546-9.541V31.972Z" fill="url(#linear-gradient-2)"/><rect x="82.096" y="7.253" width="55.16" height="14.507" rx="4.293" fill="#fff"/><rect x="82.688" y="7.926" width="53.739" height="13.161" rx="4.293" fill="url(#linear-gradient-3)"/><path d="M60.321,16.131h17.27a1.625,1.625,0,0,0,0-3.249H60.321a1.625,1.625,0,0,0,0,3.249Z" fill="#fff"/><path d="M38.255,16.131h17.27a1.625,1.625,0,0,0,0-3.249H38.255a1.625,1.625,0,0,0,0,3.249Z" fill="#fff"/><path d="M15.059,16.131h17.27a1.625,1.625,0,0,0,0-3.249H15.059a1.625,1.625,0,0,0,0,3.249Z" fill="#fff"/><path d="M56.463,75.387H95.8c4.763,0,4.771-4.071,0-4.071H56.463c-4.763,0-4.771,4.071,0,4.071Z" fill="#fff"/><path d="M56.463,84.36H95.8c4.763,0,4.771-4.071,0-4.071H56.463c-4.763,0-4.771,4.071,0,4.071Z" fill="#fff"/><path d="M64.862,92.657H85.468a1.641,1.641,0,1,0,0-3.249H64.862a1.641,1.641,0,1,0,0,3.249Z" fill="#fff"/><path d="M64.862,99.819H85.468a1.641,1.641,0,1,0,0-3.249H64.862a1.641,1.641,0,1,0,0,3.249Z" fill="#fff"/><path d="M57.782,56.735a1.341,1.341,0,0,1,.975,1.723A10.557,10.557,0,0,1,55.9,63.225a8.547,8.547,0,0,1-5.945,2.069,8.71,8.71,0,0,1-7.424-3.513q-2.616-3.513-2.616-9.975,0-6.286,2.633-9.87a8.434,8.434,0,0,1,7.178-3.583,8.639,8.639,0,0,1,5.883,1.963,9.383,9.383,0,0,1,2.7,4.42,1.378,1.378,0,0,1-.957,1.744h0a1.352,1.352,0,0,1-1.63-.9,7.744,7.744,0,0,0-1.861-3.233,5.218,5.218,0,0,0-3.306-1.524,6.335,6.335,0,0,0-5.727,2.661q-1.993,2.9-1.993,8.425,0,5.212,1.884,8.046a6.045,6.045,0,0,0,5.338,2.836,5.81,5.81,0,0,0,4.236-1.647,7.623,7.623,0,0,0,1.943-3.5,1.311,1.311,0,0,1,1.546-.916Z" fill="#fff"/><path d="M63.549,63.471V40.707a1.932,1.932,0,0,1,1.933-1.931H66.59A1.931,1.931,0,0,1,68.425,40.1l6.838,20.719L82.151,40.1a1.932,1.932,0,0,1,1.833-1.322h.865a1.932,1.932,0,0,1,1.932,1.931V63.462a1.391,1.391,0,0,1-1.391,1.391h0A1.391,1.391,0,0,1,84,63.462V41.875L76.439,63.937a1.355,1.355,0,0,1-1.282.916h0a1.356,1.356,0,0,1-1.283-.916l-7.56-22.062v21.6a1.382,1.382,0,0,1-1.382,1.382h0A1.382,1.382,0,0,1,63.549,63.471Z" fill="#fff"/><path d="M92.918,57.855h0a1.421,1.421,0,0,1,1.747.792,7.068,7.068,0,0,0,3,3.425,6.77,6.77,0,0,0,2.7.719,6.088,6.088,0,0,0,4.183-1.239,4.1,4.1,0,0,0,1.479-3.3,4.736,4.736,0,0,0-.441-2.112,3.838,3.838,0,0,0-1.32-1.5,22.342,22.342,0,0,0-4.387-1.972q-1.11-.4-1.673-.616a11.852,11.852,0,0,1-4.642-2.835,5.747,5.747,0,0,1-1.347-3.909,6.5,6.5,0,0,1,2.088-5.053,7.934,7.934,0,0,1,5.557-1.9A8.11,8.11,0,0,1,105,39.99a8.373,8.373,0,0,1,2.506,3.318,1.349,1.349,0,0,1-.871,1.822h0a1.351,1.351,0,0,1-1.614-.782,6.019,6.019,0,0,0-1.738-2.377,5.742,5.742,0,0,0-3.717-1.2,4.709,4.709,0,0,0-3.338,1.153,4.034,4.034,0,0,0-1.241,3.107,3.532,3.532,0,0,0,.413,1.691,4.906,4.906,0,0,0,1.3,1.48,18.006,18.006,0,0,0,4,1.813q1,.352,1.551.563a12.719,12.719,0,0,1,5.143,3.081,6.582,6.582,0,0,1,1.427,4.421,6.7,6.7,0,0,1-2.21,5.238,8.473,8.473,0,0,1-5.875,1.981,9.378,9.378,0,0,1-5.83-1.762,9.266,9.266,0,0,1-2.854-3.744A1.436,1.436,0,0,1,92.918,57.855Z" fill="#fff"/><path d="M51.071,111.83l5.541-3.752c-1.123-4.862-1.18-5.109-2.3-9.972l-6.638-1L44.64,93.344l.489-6.623L35.81,82.283,30.878,86.79H26.016l-4.932-4.507-9.319,4.438.488,6.623L9.222,97.1l-6.638,1c-1.123,4.863-1.18,5.11-2.3,9.972l5.541,3.752,1.082,4.688-3.346,5.757c3.144,3.9,3.3,4.1,6.449,8l6.421-1.945,4.38,2.087,2.466,6.176H33.619l2.465-6.176,4.381-2.087,6.421,1.945,6.449-8-3.346-5.757ZM28.447,125.45A16.014,16.014,0,1,1,44.64,109.437,16.1,16.1,0,0,1,28.447,125.45Z" stroke="#fff" stroke-miterlimit="10" stroke-width="0.5" fill="url(#linear-gradient-4)"/><ellipse cx="28.447" cy="109.437" rx="12.234" ry="12.098" stroke="#fff" stroke-miterlimit="10" stroke-width="0.5" fill="url(#linear-gradient-5)"/><path d="M53.042,141.887l1.792-1.214c-.363-1.572-.381-1.652-.744-3.225l-2.147-.325-.98-1.216.158-2.142-3.013-1.435-1.595,1.457H44.941l-1.6-1.457-3.013,1.435.158,2.142-.98,1.216-2.147.325-.744,3.225,1.792,1.214.349,1.516-1.081,1.863,2.085,2.586,2.076-.629,1.416.675.8,2H47.4l.8-2,1.416-.675,2.076.629,2.085-2.586L52.693,143.4Zm-7.315,4.406a5.18,5.18,0,1,1,5.236-5.18A5.209,5.209,0,0,1,45.727,146.293Z" stroke="#fff" stroke-miterlimit="10" stroke-width="0.5" fill="url(#linear-gradient-6)"/><ellipse cx="45.727" cy="141.113" rx="3.956" ry="3.913" stroke="#fff" stroke-miterlimit="10" stroke-width="0.5" fill="url(#linear-gradient-7)"/><path d="M101.618,116.456l-3.281,5.758,6.324,8,6.3-1.944,4.3,2.086,2.418,6.177h10.143l2.418-6.177,4.3-2.086,6.3,1.944,6.324-8-3.281-5.758c.407-1.8.653-2.886,1.061-4.688l5.433-3.752c-1.1-4.862-1.157-5.109-2.257-9.972l-6.509-1-2.973-3.76.479-6.623-9.138-4.438-4.836,4.507h-4.768l-4.837-4.507-9.138,4.438.479,6.623-2.973,3.76-6.509,1c-1.1,4.863-1.156,5.11-2.257,9.972l5.433,3.752C100.965,113.57,101.211,114.654,101.618,116.456Zm5.245-7.081a15.88,15.88,0,1,1,15.879,16.014A15.948,15.948,0,0,1,106.863,109.375Z" stroke="#fff" stroke-miterlimit="10" stroke-width="0.5" fill="url(#linear-gradient-8)"/><ellipse cx="122.742" cy="109.375" rx="11.997" ry="12.098" stroke="#fff" stroke-miterlimit="10" stroke-width="0.5" fill="url(#linear-gradient-9)"/><path d="M98.967,143.341,97.906,145.2l2.045,2.587,2.036-.629,1.389.674.782,2h3.279l.782-2,1.389-.674,2.036.629,2.045-2.587-1.061-1.863c.132-.582.211-.933.343-1.516l1.757-1.213-.73-3.226-2.105-.324-.961-1.216.155-2.143-2.955-1.435-1.563,1.458h-1.542l-1.564-1.458-2.955,1.435.155,2.143-.961,1.216-2.105.324-.73,3.226,1.757,1.213Zm1.7-2.29a5.135,5.135,0,1,1,5.135,5.18A5.158,5.158,0,0,1,100.663,141.051Z" stroke="#fff" stroke-miterlimit="10" stroke-width="0.5" fill="url(#linear-gradient-10)"/><ellipse cx="105.798" cy="141.051" rx="3.879" ry="3.913" stroke="#fff" stroke-miterlimit="10" stroke-width="0.5" fill="url(#linear-gradient-11)"/></g></g></svg>