<svg xmlns="http://www.w3.org/2000/svg" xmlns:xlink="http://www.w3.org/1999/xlink" viewBox="0 0 150.615 150.475"><defs><radialGradient id="radial-gradient" cx="42.152" cy="55.319" r="34.851" gradientTransform="translate(0 -7.328) scale(1 1.049)" gradientUnits="userSpaceOnUse"><stop offset="0.011" stop-color="#9cced4"/><stop offset="0.192" stop-color="#77bcd4"/><stop offset="0.431" stop-color="#4da7d5"/><stop offset="0.647" stop-color="#2f98d5"/><stop offset="0.831" stop-color="#1d8fd5"/><stop offset="0.961" stop-color="#168cd5"/></radialGradient><linearGradient id="linear-gradient" x1="54.121" y1="47.167" x2="73.489" y2="19.866" gradientUnits="userSpaceOnUse"><stop offset="0" stop-color="#f15a29"/><stop offset="0.035" stop-color="#f25f26"/><stop offset="0.282" stop-color="#f77e16"/><stop offset="0.524" stop-color="#fb940a"/><stop offset="0.754" stop-color="#fda103"/><stop offset="0.961" stop-color="#fea601"/></linearGradient><linearGradient id="linear-gradient-2" x1="12.607" y1="100.638" x2="73.844" y2="100.638" xlink:href="#linear-gradient"/></defs><g id="Layer_2" data-name="Layer 2"><g id="Layer_2-2" data-name="Layer 2"><rect x="0.25" y="0.25" width="150.115" height="122.078" rx="12.174" fill="#026097" stroke="#2b3990" stroke-miterlimit="10" stroke-width="0.5"/><rect x="4.949" y="7.939" width="140.716" height="107.641" rx="7.489" fill="#68cbff"/><ellipse cx="42.152" cy="50.695" rx="29.544" ry="30.989" stroke="#fff" stroke-miterlimit="10" stroke-width="2" fill="url(#radial-gradient)"/><path d="M69.6,27.237a28.238,28.238,0,0,1,4.095,7.684A29.132,29.132,0,0,1,75.3,45.143L59.191,47.919,43.081,50.7l5.763-16.022,5.762-16.021a24.853,24.853,0,0,1,8.435,3.08A25.909,25.909,0,0,1,69.6,27.237Z" stroke="#fff" stroke-miterlimit="10" fill="url(#linear-gradient)"/><rect x="90.334" y="18.112" width="49.371" height="20.422" rx="7.846" fill="#27aae1" stroke="#1c75bc" stroke-miterlimit="10"/><rect x="90.334" y="41.451" width="49.371" height="20.422" rx="7.846" fill="#27aae1" stroke="#1c75bc" stroke-miterlimit="10"/><rect x="90.334" y="64.791" width="49.371" height="20.422" rx="7.846" fill="#27aae1" stroke="#1c75bc" stroke-miterlimit="10"/><line x1="72.741" y1="51.662" x2="81.496" y2="51.662" fill="none" stroke="#1c75bc" stroke-miterlimit="10"/><line x1="81.496" y1="52.182" x2="81.496" y2="26.495" fill="none" stroke="#1c75bc" stroke-miterlimit="10"/><line x1="81.198" y1="27.086" x2="90.334" y2="27.086" fill="none" stroke="#1c75bc" stroke-miterlimit="10"/><ellipse cx="129.29" cy="28.323" rx="8.338" ry="8.745" fill="#fc7f05"/><ellipse cx="100.496" cy="51.662" rx="8.338" ry="8.745" fill="#1c75bc"/><ellipse cx="100.496" cy="75.435" rx="8.338" ry="8.745" fill="#1c75bc"/><rect x="12.607" y="98.282" width="61.237" height="4.711" fill="url(#linear-gradient-2)"/><rect x="78.87" y="98.282" width="60.834" height="4.711" fill="#026097"/><ellipse cx="76.156" cy="100.638" rx="4.091" ry="4.574" fill="#00a5ff" stroke="#fff" stroke-miterlimit="10"/><path d="M75.9,116.688c-17.039,0-30.852,15.127-30.852,33.787h61.7C106.747,131.815,92.934,116.688,75.9,116.688Z" fill="#808285"/></g></g></svg>