<svg xmlns="http://www.w3.org/2000/svg" xmlns:xlink="http://www.w3.org/1999/xlink" viewBox="0 0 149.935 150.09"><defs><linearGradient id="linear-gradient" x1="25.36" y1="34.924" x2="145.983" y2="34.924" gradientUnits="userSpaceOnUse"><stop offset="0" stop-color="#01b0ff"/><stop offset="0.203" stop-color="#05a7f4"/><stop offset="0.553" stop-color="#118ed8"/><stop offset="0.845" stop-color="#1c75bc"/></linearGradient></defs><g id="Layer_2" data-name="Layer 2"><g id="Layer_5" data-name="Layer 5"><polyline points="118.88 66.857 118.88 90.225 133.075 104.579 133.075 119.243" fill="none" stroke="#00aeef" stroke-miterlimit="10" stroke-width="0.5"/><polyline points="113.753 66.857 114.212 91.386 128.14 105.469 128.14 127.445" fill="none" stroke="#00aeef" stroke-miterlimit="10" stroke-width="0.5"/><polyline points="108.855 66.857 109.161 92.16 122.783 106.088 122.783 121.487" fill="none" stroke="#00aeef" stroke-miterlimit="10" stroke-width="0.5"/><line x1="103.881" y1="67.166" x2="103.881" y2="85.041" fill="none" stroke="#00aeef" stroke-miterlimit="10" stroke-width="0.5"/><polyline points="99.29 67.166 99.29 88.987 113.37 103.225 113.37 118.314" fill="none" stroke="#00aeef" stroke-miterlimit="10" stroke-width="0.5"/><polyline points="94.163 67.166 94.545 89.916 108.32 104.463 108.32 126.052" fill="none" stroke="#00aeef" stroke-miterlimit="10" stroke-width="0.5"/><polyline points="89.342 67.166 89.342 91.309 103.039 105.237 103.039 120.481" fill="none" stroke="#00aeef" stroke-miterlimit="10" stroke-width="0.5"/><polyline points="84.827 67.166 85.133 92.74 96.191 104.231" fill="none" stroke="#00aeef" stroke-miterlimit="10" stroke-width="0.5"/><line x1="80.235" y1="67.166" x2="80.235" y2="137.349" fill="none" stroke="#00aeef" stroke-miterlimit="10" stroke-width="0.5"/><line x1="75.72" y1="67.166" x2="75.72" y2="147.022" fill="none" stroke="#00aeef" stroke-miterlimit="10" stroke-width="0.5"/><line x1="71.129" y1="67.166" x2="71.358" y2="136.963" fill="none" stroke="#00aeef" stroke-miterlimit="10" stroke-width="0.5"/><polyline points="66.69 67.166 66.996 92.74 55.824 103.689" fill="none" stroke="#00aeef" stroke-miterlimit="10" stroke-width="0.5"/><polyline points="62.175 67.166 62.175 91.309 48.401 105.237 48.401 119.954" fill="none" stroke="#00aeef" stroke-miterlimit="10" stroke-width="0.5"/><polyline points="43.332 126.052 43.332 104.231 57.536 89.872 57.536 67.166" fill="none" stroke="#00aeef" stroke-miterlimit="10" stroke-width="0.5"/><polyline points="52.165 67.166 52.165 89.229 38.386 103.091 38.386 118.382" fill="none" stroke="#00aeef" stroke-miterlimit="10" stroke-width="0.5"/><line x1="47.784" y1="67.166" x2="47.784" y2="85.428" fill="none" stroke="#00aeef" stroke-miterlimit="10" stroke-width="0.5"/><polyline points="42.696 67.166 42.696 91.801 28.775 106.021 28.775 121.455" fill="none" stroke="#00aeef" stroke-miterlimit="10" stroke-width="0.5"/><polyline points="37.538 67.166 37.538 90.944 23.899 105.092 23.899 127.386" fill="none" stroke="#00aeef" stroke-miterlimit="10" stroke-width="0.5"/><polyline points="32.521 67.166 32.521 89.943 19.306 103.689 19.306 119.168" fill="none" stroke="#00aeef" stroke-miterlimit="10" stroke-width="0.5"/><ellipse cx="128.095" cy="129.04" rx="1.578" ry="1.595" fill="none" stroke="#00aeef" stroke-miterlimit="10" stroke-width="0.25"/><ellipse cx="122.728" cy="122.956" rx="1.578" ry="1.595" fill="none" stroke="#00aeef" stroke-miterlimit="10" stroke-width="0.25"/><ellipse cx="133.092" cy="120.844" rx="1.578" ry="1.595" fill="none" stroke="#00aeef" stroke-miterlimit="10" stroke-width="0.25"/><ellipse cx="113.409" cy="119.944" rx="1.578" ry="1.595" fill="none" stroke="#00aeef" stroke-miterlimit="10" stroke-width="0.25"/><ellipse cx="108.339" cy="127.395" rx="1.578" ry="1.595" fill="none" stroke="#00aeef" stroke-miterlimit="10" stroke-width="0.25"/><ellipse cx="103.002" cy="122.154" rx="1.578" ry="1.595" fill="none" stroke="#00aeef" stroke-miterlimit="10" stroke-width="0.25"/><ellipse cx="97.001" cy="105.595" rx="1.578" ry="1.595" fill="none" stroke="#00aeef" stroke-miterlimit="10" stroke-width="0.25"/><ellipse cx="103.905" cy="86.673" rx="1.578" ry="1.595" fill="none" stroke="#00aeef" stroke-miterlimit="10" stroke-width="0.25"/><ellipse cx="54.863" cy="104.624" rx="1.578" ry="1.595" fill="none" stroke="#00aeef" stroke-miterlimit="10" stroke-width="0.25"/><ellipse cx="48.442" cy="121.555" rx="1.578" ry="1.595" fill="none" stroke="#00aeef" stroke-miterlimit="10" stroke-width="0.25"/><ellipse cx="43.316" cy="127.386" rx="1.578" ry="1.595" fill="none" stroke="#00aeef" stroke-miterlimit="10" stroke-width="0.25"/><ellipse cx="38.353" cy="119.959" rx="1.578" ry="1.595" fill="none" stroke="#00aeef" stroke-miterlimit="10" stroke-width="0.25"/><ellipse cx="28.746" cy="123.15" rx="1.578" ry="1.595" fill="none" stroke="#00aeef" stroke-miterlimit="10" stroke-width="0.25"/><ellipse cx="23.837" cy="128.981" rx="1.578" ry="1.595" fill="none" stroke="#00aeef" stroke-miterlimit="10" stroke-width="0.25"/><ellipse cx="19.194" cy="120.704" rx="1.578" ry="1.595" fill="none" stroke="#00aeef" stroke-miterlimit="10" stroke-width="0.25"/><ellipse cx="47.787" cy="86.748" rx="1.578" ry="1.595" fill="none" stroke="#00aeef" stroke-miterlimit="10" stroke-width="0.25"/><ellipse cx="80.359" cy="138.777" rx="1.578" ry="1.595" fill="none" stroke="#00aeef" stroke-miterlimit="10" stroke-width="0.25"/><ellipse cx="71.256" cy="138.386" rx="1.578" ry="1.595" fill="none" stroke="#00aeef" stroke-miterlimit="10" stroke-width="0.25"/><ellipse cx="75.738" cy="148.37" rx="1.578" ry="1.595" fill="none" stroke="#00aeef" stroke-miterlimit="10" stroke-width="0.25"/><path d="M36.938,69.849A17.231,17.231,0,0,1,25.015,54.778a17.4,17.4,0,0,1,13.3-17.622c.06-.891.931-11.269,10.089-16.694a21.069,21.069,0,0,1,17.2-1.623A34.9,34.9,0,0,1,102.519,4.463c15.052,3.748,26.01,17.658,26.369,33.852,7.843,3.356,12.078,11.675,10.319,19.245a16.718,16.718,0,0,1-13.07,12.289Z" fill="#21409a" opacity="0.6"/><path d="M26.84,69.849A18.136,18.136,0,0,1,14.291,53.988a18.31,18.31,0,0,1,14-18.545c.062-.938.979-11.86,10.618-17.569A22.174,22.174,0,0,1,57,16.166C65.811,3.433,81.345-2.575,95.856,1.037,111.7,4.981,123.229,19.62,123.608,36.663c8.254,3.531,12.71,12.286,10.859,20.253a17.6,17.6,0,0,1-13.755,12.933Z" fill="url(#linear-gradient)"/><g opacity="0.35"><path d="M18.564.74V.446h.83V3.009h-.406V.74Z" fill="#00aeef"/><path d="M18.564,4.283V3.99h.83V6.552h-.406V4.283Z" fill="#00aeef"/><path d="M18.238,7.838A.992.992,0,0,1,19.1,7.5a.991.991,0,0,1,.861.342,1.6,1.6,0,0,1,.247.951,1.632,1.632,0,0,1-.247.963.99.99,0,0,1-.861.344.99.99,0,0,1-.865-.344,1.618,1.618,0,0,1-.248-.963A1.588,1.588,0,0,1,18.238,7.838Zm1.524.428a.613.613,0,0,0-.207-.345A.684.684,0,0,0,19.1,7.79a.7.7,0,0,0-.458.131.624.624,0,0,0-.207.345,2.3,2.3,0,0,0-.051.523,2.371,2.371,0,0,0,.051.535.626.626,0,0,0,.207.347A.7.7,0,0,0,19.1,9.8a.69.69,0,0,0,.452-.131.615.615,0,0,0,.207-.347,2.315,2.315,0,0,0,.051-.535A2.239,2.239,0,0,0,19.762,8.266Z" fill="#00aeef"/><path d="M18.564,11.371v-.294h.83V13.64h-.406V11.371Z" fill="#00aeef"/><path d="M18.238,14.925a1,1,0,0,1,.865-.342.994.994,0,0,1,.861.342,1.606,1.606,0,0,1,.247.952,1.632,1.632,0,0,1-.247.963.99.99,0,0,1-.861.344.99.99,0,0,1-.865-.344,1.618,1.618,0,0,1-.248-.963A1.591,1.591,0,0,1,18.238,14.925Zm1.524.429a.613.613,0,0,0-.207-.345.685.685,0,0,0-.452-.132.7.7,0,0,0-.458.132.624.624,0,0,0-.207.345,2.3,2.3,0,0,0-.051.523,2.371,2.371,0,0,0,.051.535.626.626,0,0,0,.207.347.7.7,0,0,0,.458.131.69.69,0,0,0,.452-.131.615.615,0,0,0,.207-.347,2.315,2.315,0,0,0,.051-.535A2.239,2.239,0,0,0,19.762,15.354Z" fill="#00aeef"/><path d="M18.564,18.459v-.294h.83v2.563h-.406V18.459Z" fill="#00aeef"/><path d="M18.238,22.013a1,1,0,0,1,.865-.342.994.994,0,0,1,.861.342,1.606,1.606,0,0,1,.247.952,1.634,1.634,0,0,1-.247.963.992.992,0,0,1-.861.344.993.993,0,0,1-.865-.344,1.62,1.62,0,0,1-.248-.963A1.591,1.591,0,0,1,18.238,22.013Zm1.524.428a.61.61,0,0,0-.207-.344.679.679,0,0,0-.452-.132.691.691,0,0,0-.458.132.621.621,0,0,0-.207.344,2.31,2.31,0,0,0-.051.524,2.377,2.377,0,0,0,.051.535.629.629,0,0,0,.207.347.7.7,0,0,0,.458.131.69.69,0,0,0,.452-.131.618.618,0,0,0,.207-.347,2.32,2.32,0,0,0,.051-.535A2.254,2.254,0,0,0,19.762,22.441Z" fill="#00aeef"/><path d="M18.564,25.547v-.294h.83v2.562h-.406V25.547Z" fill="#00aeef"/><path d="M18.564,29.09V28.8h.83v2.563h-.406V29.09Z" fill="#00aeef"/><path d="M18.564,32.635v-.294h.83V34.9h-.406V32.635Z" fill="#00aeef"/><path d="M18.238,36.188a1,1,0,0,1,.865-.342.994.994,0,0,1,.861.342,1.6,1.6,0,0,1,.247.951,1.638,1.638,0,0,1-.247.964.992.992,0,0,1-.861.344.993.993,0,0,1-.865-.344,1.623,1.623,0,0,1-.248-.964A1.588,1.588,0,0,1,18.238,36.188Zm1.524.428a.613.613,0,0,0-.207-.345.684.684,0,0,0-.452-.131.7.7,0,0,0-.458.131.624.624,0,0,0-.207.345,2.3,2.3,0,0,0-.051.523,2.371,2.371,0,0,0,.051.535.626.626,0,0,0,.207.347.7.7,0,0,0,.458.132.685.685,0,0,0,.452-.132.615.615,0,0,0,.207-.347,2.315,2.315,0,0,0,.051-.535A2.245,2.245,0,0,0,19.762,36.616Z" fill="#00aeef"/><path d="M18.564,39.722v-.294h.83v2.563h-.406V39.722Z" fill="#00aeef"/><path d="M18.564,43.266v-.294h.83v2.562h-.406V43.266Z" fill="#00aeef"/><path d="M18.238,46.82a1,1,0,0,1,.865-.342.994.994,0,0,1,.861.342,1.6,1.6,0,0,1,.247.952,1.634,1.634,0,0,1-.247.963.992.992,0,0,1-.861.344.993.993,0,0,1-.865-.344,1.62,1.62,0,0,1-.248-.963A1.589,1.589,0,0,1,18.238,46.82Zm1.524.428a.616.616,0,0,0-.207-.345.684.684,0,0,0-.452-.131.7.7,0,0,0-.458.131.627.627,0,0,0-.207.345,2.3,2.3,0,0,0-.051.524,2.377,2.377,0,0,0,.051.535.623.623,0,0,0,.207.346.7.7,0,0,0,.458.132.685.685,0,0,0,.452-.132.612.612,0,0,0,.207-.346,2.32,2.32,0,0,0,.051-.535A2.249,2.249,0,0,0,19.762,47.248Z" fill="#00aeef"/><path d="M18.238,50.363a1,1,0,0,1,.865-.342.994.994,0,0,1,.861.342,1.606,1.606,0,0,1,.247.952,1.634,1.634,0,0,1-.247.963.99.99,0,0,1-.861.344.99.99,0,0,1-.865-.344,1.62,1.62,0,0,1-.248-.963A1.591,1.591,0,0,1,18.238,50.363Zm1.524.429a.613.613,0,0,0-.207-.345.685.685,0,0,0-.452-.132.7.7,0,0,0-.458.132.624.624,0,0,0-.207.345,2.3,2.3,0,0,0-.051.523,2.371,2.371,0,0,0,.051.535.626.626,0,0,0,.207.347.7.7,0,0,0,.458.131.69.69,0,0,0,.452-.131.615.615,0,0,0,.207-.347,2.315,2.315,0,0,0,.051-.535A2.239,2.239,0,0,0,19.762,50.792Z" fill="#00aeef"/><path d="M18.238,53.908a1,1,0,0,1,.865-.342.994.994,0,0,1,.861.342,1.6,1.6,0,0,1,.247.951,1.638,1.638,0,0,1-.247.964.992.992,0,0,1-.861.344.993.993,0,0,1-.865-.344,1.623,1.623,0,0,1-.248-.964A1.588,1.588,0,0,1,18.238,53.908Zm1.524.428a.613.613,0,0,0-.207-.345.684.684,0,0,0-.452-.131.7.7,0,0,0-.458.131.624.624,0,0,0-.207.345,2.3,2.3,0,0,0-.051.523,2.371,2.371,0,0,0,.051.535.626.626,0,0,0,.207.347.7.7,0,0,0,.458.132.69.69,0,0,0,.452-.132.615.615,0,0,0,.207-.347,2.315,2.315,0,0,0,.051-.535A2.245,2.245,0,0,0,19.762,54.336Z" fill="#00aeef"/><path d="M18.564,57.441v-.294h.83V59.71h-.406V57.441Z" fill="#00aeef"/><path d="M18.238,61a.992.992,0,0,1,.865-.342.991.991,0,0,1,.861.342,1.6,1.6,0,0,1,.247.951,1.632,1.632,0,0,1-.247.963.99.99,0,0,1-.861.344.99.99,0,0,1-.865-.344,1.618,1.618,0,0,1-.248-.963A1.586,1.586,0,0,1,18.238,61Zm1.524.428a.613.613,0,0,0-.207-.345.684.684,0,0,0-.452-.131.7.7,0,0,0-.458.131.624.624,0,0,0-.207.345,2.3,2.3,0,0,0-.051.523,2.371,2.371,0,0,0,.051.535.626.626,0,0,0,.207.347.7.7,0,0,0,.458.131.69.69,0,0,0,.452-.131.615.615,0,0,0,.207-.347,2.315,2.315,0,0,0,.051-.535A2.239,2.239,0,0,0,19.762,61.423Z" fill="#00aeef"/><path d="M18.564,64.529v-.294h.83V66.8h-.406V64.529Z" fill="#00aeef"/></g><g opacity="0.35"><path d="M26.664,14.289V14h.83v2.562h-.406V14.289Z" fill="#00aeef"/><path d="M26.664,17.832v-.294h.83V20.1h-.406V17.832Z" fill="#00aeef"/><path d="M26.338,21.386a1.26,1.26,0,0,1,1.726,0,1.6,1.6,0,0,1,.247.952,1.634,1.634,0,0,1-.247.963,1.255,1.255,0,0,1-1.726,0,1.627,1.627,0,0,1-.248-.963A1.6,1.6,0,0,1,26.338,21.386Zm1.524.428a.616.616,0,0,0-.207-.345.684.684,0,0,0-.452-.131.692.692,0,0,0-.457.131.623.623,0,0,0-.208.345,2.3,2.3,0,0,0-.051.524,2.377,2.377,0,0,0,.051.535.625.625,0,0,0,.208.347.7.7,0,0,0,.457.131.69.69,0,0,0,.452-.131.618.618,0,0,0,.207-.347,2.32,2.32,0,0,0,.051-.535A2.249,2.249,0,0,0,27.862,21.814Z" fill="#00aeef"/><path d="M26.664,24.92v-.294h.83v2.562h-.406V24.92Z" fill="#00aeef"/><path d="M26.338,28.474a1.26,1.26,0,0,1,1.726,0,1.6,1.6,0,0,1,.247.951,1.638,1.638,0,0,1-.247.964,1.255,1.255,0,0,1-1.726,0,1.63,1.63,0,0,1-.248-.964A1.6,1.6,0,0,1,26.338,28.474Zm1.524.428a.613.613,0,0,0-.207-.345.684.684,0,0,0-.452-.131.692.692,0,0,0-.457.131.62.62,0,0,0-.208.345,2.3,2.3,0,0,0-.051.523,2.371,2.371,0,0,0,.051.535.621.621,0,0,0,.208.347.692.692,0,0,0,.457.132.685.685,0,0,0,.452-.132.615.615,0,0,0,.207-.347,2.315,2.315,0,0,0,.051-.535A2.245,2.245,0,0,0,27.862,28.9Z" fill="#00aeef"/><path d="M26.664,32.008v-.294h.83v2.562h-.406V32.008Z" fill="#00aeef"/><path d="M26.338,35.562a1.26,1.26,0,0,1,1.726,0,1.6,1.6,0,0,1,.247.951,1.632,1.632,0,0,1-.247.963,1.255,1.255,0,0,1-1.726,0,1.625,1.625,0,0,1-.248-.963A1.6,1.6,0,0,1,26.338,35.562Zm1.524.428a.613.613,0,0,0-.207-.345.684.684,0,0,0-.452-.131.692.692,0,0,0-.457.131.62.62,0,0,0-.208.345,2.3,2.3,0,0,0-.051.523,2.371,2.371,0,0,0,.051.535.621.621,0,0,0,.208.347.7.7,0,0,0,.457.131.69.69,0,0,0,.452-.131.615.615,0,0,0,.207-.347,2.315,2.315,0,0,0,.051-.535A2.239,2.239,0,0,0,27.862,35.99Z" fill="#00aeef"/><path d="M26.664,39.1V38.8h.83v2.563h-.406V39.1Z" fill="#00aeef"/><path d="M26.664,42.639v-.294h.83v2.562h-.406V42.639Z" fill="#00aeef"/><path d="M26.664,46.183v-.294h.83v2.563h-.406V46.183Z" fill="#00aeef"/><path d="M26.338,49.736a1.26,1.26,0,0,1,1.726,0,1.606,1.606,0,0,1,.247.952,1.634,1.634,0,0,1-.247.963,1.255,1.255,0,0,1-1.726,0,1.627,1.627,0,0,1-.248-.963A1.6,1.6,0,0,1,26.338,49.736Zm1.524.429a.609.609,0,0,0-.207-.345.679.679,0,0,0-.452-.132.686.686,0,0,0-.457.132.616.616,0,0,0-.208.345,2.3,2.3,0,0,0-.051.523,2.377,2.377,0,0,0,.051.535.621.621,0,0,0,.208.347.7.7,0,0,0,.457.131.69.69,0,0,0,.452-.131.615.615,0,0,0,.207-.347,2.32,2.32,0,0,0,.051-.535A2.239,2.239,0,0,0,27.862,50.165Z" fill="#00aeef"/><path d="M26.664,53.271v-.294h.83v2.562h-.406V53.271Z" fill="#00aeef"/><path d="M26.664,56.814V56.52h.83v2.563h-.406V56.814Z" fill="#00aeef"/><path d="M26.338,60.368a1.26,1.26,0,0,1,1.726,0,1.606,1.606,0,0,1,.247.952,1.632,1.632,0,0,1-.247.963,1.255,1.255,0,0,1-1.726,0,1.625,1.625,0,0,1-.248-.963A1.6,1.6,0,0,1,26.338,60.368Zm1.524.429a.613.613,0,0,0-.207-.345.685.685,0,0,0-.452-.132.692.692,0,0,0-.457.132.62.62,0,0,0-.208.345,2.3,2.3,0,0,0-.051.523,2.371,2.371,0,0,0,.051.535.621.621,0,0,0,.208.347.7.7,0,0,0,.457.131.69.69,0,0,0,.452-.131.615.615,0,0,0,.207-.347,2.315,2.315,0,0,0,.051-.535A2.239,2.239,0,0,0,27.862,60.8Z" fill="#00aeef"/><path d="M26.338,63.912a1.26,1.26,0,0,1,1.726,0,1.6,1.6,0,0,1,.247.951,1.638,1.638,0,0,1-.247.964,1.255,1.255,0,0,1-1.726,0,1.63,1.63,0,0,1-.248-.964A1.6,1.6,0,0,1,26.338,63.912Zm1.524.428A.613.613,0,0,0,27.655,64a.684.684,0,0,0-.452-.131.692.692,0,0,0-.457.131.62.62,0,0,0-.208.345,2.3,2.3,0,0,0-.051.523,2.371,2.371,0,0,0,.051.535.621.621,0,0,0,.208.347.692.692,0,0,0,.457.132.685.685,0,0,0,.452-.132.615.615,0,0,0,.207-.347,2.315,2.315,0,0,0,.051-.535A2.245,2.245,0,0,0,27.862,64.34Z" fill="#00aeef"/></g><g opacity="0.35"><path d="M33.495,1.827V1.533h.83V4.1h-.406V1.827Z" fill="#00aeef"/><path d="M33.495,5.37V5.076h.83V7.639h-.406V5.37Z" fill="#00aeef"/><path d="M33.169,8.924a1.26,1.26,0,0,1,1.726,0,1.606,1.606,0,0,1,.247.952,1.634,1.634,0,0,1-.247.963,1.255,1.255,0,0,1-1.726,0,1.62,1.62,0,0,1-.248-.963A1.591,1.591,0,0,1,33.169,8.924Zm1.524.429a.618.618,0,0,0-.207-.345.685.685,0,0,0-.452-.132.7.7,0,0,0-.458.132.624.624,0,0,0-.207.345,2.3,2.3,0,0,0-.051.523,2.371,2.371,0,0,0,.051.535.626.626,0,0,0,.207.347.7.7,0,0,0,.458.131.69.69,0,0,0,.452-.131.62.62,0,0,0,.207-.347,2.371,2.371,0,0,0,.051-.535A2.3,2.3,0,0,0,34.693,9.353Z" fill="#00aeef"/><path d="M33.495,12.458v-.294h.83v2.563h-.406V12.458Z" fill="#00aeef"/><path d="M33.169,16.012a1.26,1.26,0,0,1,1.726,0,1.606,1.606,0,0,1,.247.952,1.634,1.634,0,0,1-.247.963,1.255,1.255,0,0,1-1.726,0,1.62,1.62,0,0,1-.248-.963A1.591,1.591,0,0,1,33.169,16.012Zm1.524.428a.622.622,0,0,0-.207-.345.684.684,0,0,0-.452-.131.7.7,0,0,0-.458.131.627.627,0,0,0-.207.345,2.3,2.3,0,0,0-.051.524,2.377,2.377,0,0,0,.051.535.629.629,0,0,0,.207.347.7.7,0,0,0,.458.131.69.69,0,0,0,.452-.131.623.623,0,0,0,.207-.347,2.377,2.377,0,0,0,.051-.535A2.3,2.3,0,0,0,34.693,16.44Z" fill="#00aeef"/><path d="M33.495,19.546v-.294h.83v2.562h-.406V19.546Z" fill="#00aeef"/><path d="M33.169,23.1a1.26,1.26,0,0,1,1.726,0,1.6,1.6,0,0,1,.247.951,1.638,1.638,0,0,1-.247.964,1.255,1.255,0,0,1-1.726,0,1.623,1.623,0,0,1-.248-.964A1.588,1.588,0,0,1,33.169,23.1Zm1.524.428a.618.618,0,0,0-.207-.345.684.684,0,0,0-.452-.131.7.7,0,0,0-.458.131.624.624,0,0,0-.207.345,2.3,2.3,0,0,0-.051.523,2.387,2.387,0,0,0,.051.536.623.623,0,0,0,.207.346.7.7,0,0,0,.458.132.685.685,0,0,0,.452-.132.617.617,0,0,0,.207-.346,2.387,2.387,0,0,0,.051-.536A2.3,2.3,0,0,0,34.693,23.528Z" fill="#00aeef"/><path d="M33.495,26.634V26.34h.83V28.9h-.406V26.634Z" fill="#00aeef"/><path d="M33.495,30.178v-.294h.83v2.563h-.406V30.178Z" fill="#00aeef"/><path d="M33.495,33.721v-.294h.83V35.99h-.406V33.721Z" fill="#00aeef"/><path d="M33.169,37.275a1.26,1.26,0,0,1,1.726,0,1.6,1.6,0,0,1,.247.951,1.632,1.632,0,0,1-.247.963,1.255,1.255,0,0,1-1.726,0,1.618,1.618,0,0,1-.248-.963A1.586,1.586,0,0,1,33.169,37.275Zm1.524.428a.618.618,0,0,0-.207-.345.684.684,0,0,0-.452-.131.7.7,0,0,0-.458.131.624.624,0,0,0-.207.345,2.3,2.3,0,0,0-.051.523,2.371,2.371,0,0,0,.051.535.626.626,0,0,0,.207.347.7.7,0,0,0,.458.131.69.69,0,0,0,.452-.131.62.62,0,0,0,.207-.347,2.371,2.371,0,0,0,.051-.535A2.3,2.3,0,0,0,34.693,37.7Z" fill="#00aeef"/><path d="M33.495,40.809v-.294h.83v2.563h-.406V40.809Z" fill="#00aeef"/><path d="M33.495,44.353v-.294h.83v2.562h-.406V44.353Z" fill="#00aeef"/><path d="M33.169,47.907a1.26,1.26,0,0,1,1.726,0,1.6,1.6,0,0,1,.247.951,1.638,1.638,0,0,1-.247.964,1.257,1.257,0,0,1-1.726,0,1.623,1.623,0,0,1-.248-.964A1.588,1.588,0,0,1,33.169,47.907Zm1.524.428a.618.618,0,0,0-.207-.345.684.684,0,0,0-.452-.131.7.7,0,0,0-.458.131.624.624,0,0,0-.207.345,2.3,2.3,0,0,0-.051.523,2.371,2.371,0,0,0,.051.535.626.626,0,0,0,.207.347.7.7,0,0,0,.458.132.69.69,0,0,0,.452-.132.62.62,0,0,0,.207-.347,2.371,2.371,0,0,0,.051-.535A2.3,2.3,0,0,0,34.693,48.335Z" fill="#00aeef"/><path d="M33.169,51.45a1.26,1.26,0,0,1,1.726,0,1.606,1.606,0,0,1,.247.952,1.634,1.634,0,0,1-.247.963,1.255,1.255,0,0,1-1.726,0,1.62,1.62,0,0,1-.248-.963A1.591,1.591,0,0,1,33.169,51.45Zm1.524.428a.622.622,0,0,0-.207-.345.684.684,0,0,0-.452-.131.7.7,0,0,0-.458.131.627.627,0,0,0-.207.345,2.3,2.3,0,0,0-.051.524,2.377,2.377,0,0,0,.051.535.629.629,0,0,0,.207.347.7.7,0,0,0,.458.131.69.69,0,0,0,.452-.131.623.623,0,0,0,.207-.347,2.377,2.377,0,0,0,.051-.535A2.3,2.3,0,0,0,34.693,51.878Z" fill="#00aeef"/><path d="M33.169,55A1.26,1.26,0,0,1,34.9,55a1.6,1.6,0,0,1,.247.951,1.632,1.632,0,0,1-.247.963,1.255,1.255,0,0,1-1.726,0,1.618,1.618,0,0,1-.248-.963A1.586,1.586,0,0,1,33.169,55Zm1.524.428a.618.618,0,0,0-.207-.345.684.684,0,0,0-.452-.131.7.7,0,0,0-.458.131.624.624,0,0,0-.207.345,2.3,2.3,0,0,0-.051.523,2.371,2.371,0,0,0,.051.535.626.626,0,0,0,.207.347.7.7,0,0,0,.458.131.69.69,0,0,0,.452-.131.62.62,0,0,0,.207-.347,2.371,2.371,0,0,0,.051-.535A2.3,2.3,0,0,0,34.693,55.423Z" fill="#00aeef"/><path d="M33.495,58.528v-.294h.83V60.8h-.406V58.528Z" fill="#00aeef"/><path d="M33.169,62.081a1.26,1.26,0,0,1,1.726,0,1.606,1.606,0,0,1,.247.952A1.634,1.634,0,0,1,34.9,64a1.255,1.255,0,0,1-1.726,0,1.62,1.62,0,0,1-.248-.963A1.591,1.591,0,0,1,33.169,62.081Zm1.524.429a.618.618,0,0,0-.207-.345.679.679,0,0,0-.452-.132.691.691,0,0,0-.458.132.624.624,0,0,0-.207.345,2.3,2.3,0,0,0-.051.523,2.371,2.371,0,0,0,.051.535.626.626,0,0,0,.207.347.7.7,0,0,0,.458.131.69.69,0,0,0,.452-.131.62.62,0,0,0,.207-.347,2.371,2.371,0,0,0,.051-.535A2.3,2.3,0,0,0,34.693,62.51Z" fill="#00aeef"/><path d="M33.495,65.616v-.294h.83v2.562h-.406V65.616Z" fill="#00aeef"/></g><g opacity="0.35"><path d="M45.611,16.392V16.1h.83v2.563h-.406V16.392Z" fill="#00aeef"/><path d="M45.611,19.936v-.294h.83V22.2h-.406V19.936Z" fill="#00aeef"/><path d="M45.285,23.49a1.26,1.26,0,0,1,1.726,0,1.6,1.6,0,0,1,.247.952,1.637,1.637,0,0,1-.247.963,1.255,1.255,0,0,1-1.726,0,1.629,1.629,0,0,1-.247-.963A1.6,1.6,0,0,1,45.285,23.49Zm1.525.428a.623.623,0,0,0-.208-.345.683.683,0,0,0-.452-.131.692.692,0,0,0-.457.131.623.623,0,0,0-.208.345,2.31,2.31,0,0,0-.05.524,2.39,2.39,0,0,0,.05.535.619.619,0,0,0,.208.346.692.692,0,0,0,.457.132.683.683,0,0,0,.452-.132.619.619,0,0,0,.208-.346,2.39,2.39,0,0,0,.05-.535A2.31,2.31,0,0,0,46.81,23.918Z" fill="#00aeef"/><path d="M45.611,27.024V26.73h.83v2.562h-.406V27.024Z" fill="#00aeef"/><path d="M45.285,30.578a1.26,1.26,0,0,1,1.726,0,1.6,1.6,0,0,1,.247.951,1.638,1.638,0,0,1-.247.964,1.255,1.255,0,0,1-1.726,0,1.631,1.631,0,0,1-.247-.964A1.6,1.6,0,0,1,45.285,30.578Zm1.525.428a.62.62,0,0,0-.208-.345.683.683,0,0,0-.452-.131.692.692,0,0,0-.457.131.62.62,0,0,0-.208.345,2.306,2.306,0,0,0-.05.523,2.377,2.377,0,0,0,.05.535.621.621,0,0,0,.208.347.7.7,0,0,0,.457.132.688.688,0,0,0,.452-.132.621.621,0,0,0,.208-.347,2.377,2.377,0,0,0,.05-.535A2.306,2.306,0,0,0,46.81,31.006Z" fill="#00aeef"/><path d="M45.611,34.111v-.294h.83V36.38h-.406V34.111Z" fill="#00aeef"/><path d="M45.285,37.666a1.26,1.26,0,0,1,1.726,0,1.6,1.6,0,0,1,.247.951,1.632,1.632,0,0,1-.247.963,1.255,1.255,0,0,1-1.726,0,1.625,1.625,0,0,1-.247-.963A1.593,1.593,0,0,1,45.285,37.666Zm1.525.428a.62.62,0,0,0-.208-.345.683.683,0,0,0-.452-.131.692.692,0,0,0-.457.131.62.62,0,0,0-.208.345,2.3,2.3,0,0,0-.05.523,2.377,2.377,0,0,0,.05.535.621.621,0,0,0,.208.347.7.7,0,0,0,.457.131A.688.688,0,0,0,46.6,39.5a.621.621,0,0,0,.208-.347,2.377,2.377,0,0,0,.05-.535A2.3,2.3,0,0,0,46.81,38.094Z" fill="#00aeef"/><path d="M45.611,41.2v-.294h.83v2.563h-.406V41.2Z" fill="#00aeef"/><path d="M45.611,44.744V44.45h.83v2.562h-.406V44.744Z" fill="#00aeef"/><path d="M45.611,48.287v-.294h.83v2.563h-.406V48.287Z" fill="#00aeef"/><path d="M45.285,51.84a1.26,1.26,0,0,1,1.726,0,1.606,1.606,0,0,1,.247.952,1.634,1.634,0,0,1-.247.963,1.255,1.255,0,0,1-1.726,0,1.627,1.627,0,0,1-.247-.963A1.6,1.6,0,0,1,45.285,51.84Zm1.525.428a.623.623,0,0,0-.208-.345.683.683,0,0,0-.452-.131.692.692,0,0,0-.457.131.623.623,0,0,0-.208.345,2.31,2.31,0,0,0-.05.524,2.383,2.383,0,0,0,.05.535.625.625,0,0,0,.208.347.7.7,0,0,0,.457.131.688.688,0,0,0,.452-.131.625.625,0,0,0,.208-.347,2.383,2.383,0,0,0,.05-.535A2.31,2.31,0,0,0,46.81,52.268Z" fill="#00aeef"/><path d="M45.611,55.375v-.294h.83v2.562h-.406V55.375Z" fill="#00aeef"/><path d="M45.611,58.918v-.294h.83v2.563h-.406V58.918Z" fill="#00aeef"/><path d="M45.285,62.472a1.26,1.26,0,0,1,1.726,0,1.606,1.606,0,0,1,.247.952,1.634,1.634,0,0,1-.247.963,1.255,1.255,0,0,1-1.726,0,1.627,1.627,0,0,1-.247-.963A1.6,1.6,0,0,1,45.285,62.472Zm1.525.429a.62.62,0,0,0-.208-.345.677.677,0,0,0-.452-.132.686.686,0,0,0-.457.132.62.62,0,0,0-.208.345,2.3,2.3,0,0,0-.05.523,2.377,2.377,0,0,0,.05.535.621.621,0,0,0,.208.347.7.7,0,0,0,.457.131.688.688,0,0,0,.452-.131.621.621,0,0,0,.208-.347,2.377,2.377,0,0,0,.05-.535A2.3,2.3,0,0,0,46.81,62.9Z" fill="#00aeef"/></g><g opacity="0.35"><path d="M54.755,4.4V4.11h.83V6.673h-.406V4.4Z" fill="#00aeef"/><path d="M54.755,7.947V7.653h.83v2.563h-.406V7.947Z" fill="#00aeef"/><path d="M54.429,11.5a1.26,1.26,0,0,1,1.726,0,1.6,1.6,0,0,1,.247.951,1.632,1.632,0,0,1-.247.963,1.255,1.255,0,0,1-1.726,0,1.625,1.625,0,0,1-.248-.963A1.593,1.593,0,0,1,54.429,11.5Zm1.524.428a.613.613,0,0,0-.207-.345.684.684,0,0,0-.452-.131.692.692,0,0,0-.457.131.62.62,0,0,0-.208.345,2.3,2.3,0,0,0-.051.523,2.371,2.371,0,0,0,.051.535.621.621,0,0,0,.208.347.7.7,0,0,0,.457.131.69.69,0,0,0,.452-.131.615.615,0,0,0,.207-.347A2.315,2.315,0,0,0,56,12.453,2.239,2.239,0,0,0,55.953,11.93Z" fill="#00aeef"/><path d="M54.755,15.035v-.294h.83V17.3h-.406V15.035Z" fill="#00aeef"/><path d="M54.429,18.589a1.26,1.26,0,0,1,1.726,0,1.606,1.606,0,0,1,.247.952,1.634,1.634,0,0,1-.247.963,1.255,1.255,0,0,1-1.726,0,1.627,1.627,0,0,1-.248-.963A1.6,1.6,0,0,1,54.429,18.589Zm1.524.429a.613.613,0,0,0-.207-.345.679.679,0,0,0-.452-.132.686.686,0,0,0-.457.132.62.62,0,0,0-.208.345,2.3,2.3,0,0,0-.051.523,2.371,2.371,0,0,0,.051.535.621.621,0,0,0,.208.347.7.7,0,0,0,.457.131.69.69,0,0,0,.452-.131.615.615,0,0,0,.207-.347A2.315,2.315,0,0,0,56,19.541,2.239,2.239,0,0,0,55.953,19.018Z" fill="#00aeef"/><path d="M54.755,22.123v-.294h.83v2.563h-.406V22.123Z" fill="#00aeef"/><path d="M54.429,25.677a1.26,1.26,0,0,1,1.726,0,1.606,1.606,0,0,1,.247.952,1.634,1.634,0,0,1-.247.963,1.255,1.255,0,0,1-1.726,0,1.627,1.627,0,0,1-.248-.963A1.6,1.6,0,0,1,54.429,25.677Zm1.524.428a.616.616,0,0,0-.207-.345.684.684,0,0,0-.452-.131.692.692,0,0,0-.457.131.623.623,0,0,0-.208.345,2.3,2.3,0,0,0-.051.524,2.377,2.377,0,0,0,.051.535.625.625,0,0,0,.208.347.7.7,0,0,0,.457.131.69.69,0,0,0,.452-.131.618.618,0,0,0,.207-.347A2.32,2.32,0,0,0,56,26.629,2.249,2.249,0,0,0,55.953,26.105Z" fill="#00aeef"/><path d="M54.755,29.211v-.294h.83v2.562h-.406V29.211Z" fill="#00aeef"/><path d="M54.755,32.754V32.46h.83v2.563h-.406V32.754Z" fill="#00aeef"/><path d="M54.755,36.3v-.294h.83v2.562h-.406V36.3Z" fill="#00aeef"/><path d="M54.429,39.852a1.26,1.26,0,0,1,1.726,0,1.6,1.6,0,0,1,.247.951,1.638,1.638,0,0,1-.247.964,1.255,1.255,0,0,1-1.726,0,1.63,1.63,0,0,1-.248-.964A1.6,1.6,0,0,1,54.429,39.852Zm1.524.428a.613.613,0,0,0-.207-.345.684.684,0,0,0-.452-.131.692.692,0,0,0-.457.131.62.62,0,0,0-.208.345,2.3,2.3,0,0,0-.051.523,2.371,2.371,0,0,0,.051.535.621.621,0,0,0,.208.347.7.7,0,0,0,.457.132.69.69,0,0,0,.452-.132.615.615,0,0,0,.207-.347A2.315,2.315,0,0,0,56,40.8,2.245,2.245,0,0,0,55.953,40.28Z" fill="#00aeef"/><path d="M54.755,43.386v-.294h.83v2.563h-.406V43.386Z" fill="#00aeef"/><path d="M54.755,46.93v-.294h.83V49.2h-.406V46.93Z" fill="#00aeef"/><path d="M54.429,50.484a1.26,1.26,0,0,1,1.726,0,1.6,1.6,0,0,1,.247.951,1.638,1.638,0,0,1-.247.964,1.255,1.255,0,0,1-1.726,0,1.63,1.63,0,0,1-.248-.964A1.6,1.6,0,0,1,54.429,50.484Zm1.524.428a.613.613,0,0,0-.207-.345.684.684,0,0,0-.452-.131.692.692,0,0,0-.457.131.62.62,0,0,0-.208.345,2.3,2.3,0,0,0-.051.523,2.387,2.387,0,0,0,.051.536.619.619,0,0,0,.208.346.692.692,0,0,0,.457.132.685.685,0,0,0,.452-.132.612.612,0,0,0,.207-.346A2.33,2.33,0,0,0,56,51.435,2.245,2.245,0,0,0,55.953,50.912Z" fill="#00aeef"/><path d="M54.429,54.027a1.26,1.26,0,0,1,1.726,0,1.606,1.606,0,0,1,.247.952,1.634,1.634,0,0,1-.247.963,1.255,1.255,0,0,1-1.726,0,1.627,1.627,0,0,1-.248-.963A1.6,1.6,0,0,1,54.429,54.027Zm1.524.429a.613.613,0,0,0-.207-.345.679.679,0,0,0-.452-.132.686.686,0,0,0-.457.132.62.62,0,0,0-.208.345,2.3,2.3,0,0,0-.051.523,2.371,2.371,0,0,0,.051.535.621.621,0,0,0,.208.347.7.7,0,0,0,.457.131.69.69,0,0,0,.452-.131.615.615,0,0,0,.207-.347A2.315,2.315,0,0,0,56,54.979,2.239,2.239,0,0,0,55.953,54.456Z" fill="#00aeef"/><path d="M54.429,57.572a1.26,1.26,0,0,1,1.726,0,1.6,1.6,0,0,1,.247.951,1.638,1.638,0,0,1-.247.964,1.257,1.257,0,0,1-1.726,0,1.63,1.63,0,0,1-.248-.964A1.6,1.6,0,0,1,54.429,57.572ZM55.953,58a.613.613,0,0,0-.207-.345.684.684,0,0,0-.452-.131.692.692,0,0,0-.457.131.62.62,0,0,0-.208.345,2.3,2.3,0,0,0-.051.523,2.371,2.371,0,0,0,.051.535.621.621,0,0,0,.208.347.7.7,0,0,0,.457.132.69.69,0,0,0,.452-.132.615.615,0,0,0,.207-.347A2.315,2.315,0,0,0,56,58.523,2.239,2.239,0,0,0,55.953,58Z" fill="#00aeef"/><path d="M54.755,61.105v-.294h.83v2.563h-.406V61.105Z" fill="#00aeef"/><path d="M54.429,64.659a1.26,1.26,0,0,1,1.726,0,1.6,1.6,0,0,1,.247.951,1.632,1.632,0,0,1-.247.963,1.255,1.255,0,0,1-1.726,0,1.625,1.625,0,0,1-.248-.963A1.593,1.593,0,0,1,54.429,64.659Zm1.524.428a.613.613,0,0,0-.207-.345.684.684,0,0,0-.452-.131.692.692,0,0,0-.457.131.62.62,0,0,0-.208.345,2.3,2.3,0,0,0-.051.523,2.371,2.371,0,0,0,.051.535.621.621,0,0,0,.208.347.7.7,0,0,0,.457.131.69.69,0,0,0,.452-.131.615.615,0,0,0,.207-.347A2.315,2.315,0,0,0,56,65.61,2.239,2.239,0,0,0,55.953,65.087Z" fill="#00aeef"/></g><g opacity="0.35"><path d="M62.022,17.161v-.294h.83V19.43h-.406V17.161Z" fill="#00aeef"/><path d="M62.022,20.705v-.294h.83v2.562h-.406V20.705Z" fill="#00aeef"/><path d="M61.7,24.259a1.26,1.26,0,0,1,1.726,0,1.6,1.6,0,0,1,.247.951,1.631,1.631,0,0,1-.247.964,1.257,1.257,0,0,1-1.726,0,1.631,1.631,0,0,1-.247-.964A1.6,1.6,0,0,1,61.7,24.259Zm1.525.428a.624.624,0,0,0-.207-.345.856.856,0,0,0-.91,0,.618.618,0,0,0-.207.345,2.3,2.3,0,0,0-.051.523,2.371,2.371,0,0,0,.051.535.62.62,0,0,0,.207.347.856.856,0,0,0,.91,0,.626.626,0,0,0,.207-.347,2.371,2.371,0,0,0,.051-.535A2.3,2.3,0,0,0,63.221,24.687Z" fill="#00aeef"/><path d="M62.022,27.792V27.5h.83v2.563h-.406V27.792Z" fill="#00aeef"/><path d="M61.7,31.347a1.26,1.26,0,0,1,1.726,0,1.593,1.593,0,0,1,.247.951,1.625,1.625,0,0,1-.247.963,1.255,1.255,0,0,1-1.726,0,1.625,1.625,0,0,1-.247-.963A1.593,1.593,0,0,1,61.7,31.347Zm1.525.428a.624.624,0,0,0-.207-.345.856.856,0,0,0-.91,0,.618.618,0,0,0-.207.345,2.3,2.3,0,0,0-.051.523,2.371,2.371,0,0,0,.051.535.62.62,0,0,0,.207.347.856.856,0,0,0,.91,0,.626.626,0,0,0,.207-.347,2.371,2.371,0,0,0,.051-.535A2.3,2.3,0,0,0,63.221,31.775Z" fill="#00aeef"/><path d="M62.022,34.88v-.294h.83v2.563h-.406V34.88Z" fill="#00aeef"/><path d="M61.7,38.434a1.26,1.26,0,0,1,1.726,0,1.6,1.6,0,0,1,.247.952,1.627,1.627,0,0,1-.247.963,1.255,1.255,0,0,1-1.726,0,1.627,1.627,0,0,1-.247-.963A1.6,1.6,0,0,1,61.7,38.434Zm1.525.429a.62.62,0,0,0-.207-.345.85.85,0,0,0-.91,0,.615.615,0,0,0-.207.345,2.3,2.3,0,0,0-.051.523,2.377,2.377,0,0,0,.051.535.62.62,0,0,0,.207.347.856.856,0,0,0,.91,0,.626.626,0,0,0,.207-.347,2.377,2.377,0,0,0,.051-.535A2.3,2.3,0,0,0,63.221,38.863Z" fill="#00aeef"/><path d="M62.022,41.968v-.294h.83v2.562h-.406V41.968Z" fill="#00aeef"/><path d="M62.022,45.511v-.294h.83V47.78h-.406V45.511Z" fill="#00aeef"/><path d="M62.022,49.056v-.294h.83v2.562h-.406V49.056Z" fill="#00aeef"/><path d="M61.7,52.609a1.26,1.26,0,0,1,1.726,0,1.6,1.6,0,0,1,.247.951,1.631,1.631,0,0,1-.247.964,1.255,1.255,0,0,1-1.726,0,1.631,1.631,0,0,1-.247-.964A1.6,1.6,0,0,1,61.7,52.609Zm1.525.428a.624.624,0,0,0-.207-.345.856.856,0,0,0-.91,0,.618.618,0,0,0-.207.345,2.3,2.3,0,0,0-.051.523,2.371,2.371,0,0,0,.051.535.617.617,0,0,0,.207.347.85.85,0,0,0,.91,0,.622.622,0,0,0,.207-.347,2.371,2.371,0,0,0,.051-.535A2.3,2.3,0,0,0,63.221,53.037Z" fill="#00aeef"/><path d="M62.022,56.144V55.85h.83v2.562h-.406V56.144Z" fill="#00aeef"/><path d="M62.022,59.687v-.294h.83v2.562h-.406V59.687Z" fill="#00aeef"/><path d="M61.7,63.241a1.26,1.26,0,0,1,1.726,0,1.6,1.6,0,0,1,.247.952,1.627,1.627,0,0,1-.247.963,1.255,1.255,0,0,1-1.726,0,1.627,1.627,0,0,1-.247-.963A1.6,1.6,0,0,1,61.7,63.241Zm1.525.428a.627.627,0,0,0-.207-.345.856.856,0,0,0-.91,0,.622.622,0,0,0-.207.345,2.3,2.3,0,0,0-.051.524,2.377,2.377,0,0,0,.051.535.623.623,0,0,0,.207.347.856.856,0,0,0,.91,0,.629.629,0,0,0,.207-.347,2.377,2.377,0,0,0,.051-.535A2.3,2.3,0,0,0,63.221,63.669Z" fill="#00aeef"/></g><g opacity="0.35"><path d="M76.861,7.869V7.575h.829v2.563h-.406V7.869Z" fill="#00aeef"/><path d="M76.861,11.412v-.294h.829v2.563h-.406V11.412Z" fill="#00aeef"/><path d="M76.533,14.967a1.26,1.26,0,0,1,1.726,0,1.593,1.593,0,0,1,.247.951,1.625,1.625,0,0,1-.247.963,1.255,1.255,0,0,1-1.726,0,1.625,1.625,0,0,1-.247-.963A1.593,1.593,0,0,1,76.533,14.967Zm1.525.428a.618.618,0,0,0-.207-.345.684.684,0,0,0-.452-.131.7.7,0,0,0-.458.131.624.624,0,0,0-.207.345,2.3,2.3,0,0,0-.05.523,2.377,2.377,0,0,0,.05.535.626.626,0,0,0,.207.347.7.7,0,0,0,.458.131.69.69,0,0,0,.452-.131.62.62,0,0,0,.207-.347,2.365,2.365,0,0,0,.052-.535A2.289,2.289,0,0,0,78.058,15.4Z" fill="#00aeef"/><path d="M76.861,18.5v-.294h.829v2.563h-.406V18.5Z" fill="#00aeef"/><path d="M76.533,22.054a1.26,1.26,0,0,1,1.726,0,1.6,1.6,0,0,1,.247.952,1.627,1.627,0,0,1-.247.963,1.255,1.255,0,0,1-1.726,0,1.627,1.627,0,0,1-.247-.963A1.6,1.6,0,0,1,76.533,22.054Zm1.525.429a.618.618,0,0,0-.207-.345.685.685,0,0,0-.452-.132.7.7,0,0,0-.458.132.624.624,0,0,0-.207.345,2.3,2.3,0,0,0-.05.523,2.377,2.377,0,0,0,.05.535.626.626,0,0,0,.207.347.7.7,0,0,0,.458.131.69.69,0,0,0,.452-.131.62.62,0,0,0,.207-.347,2.365,2.365,0,0,0,.052-.535A2.289,2.289,0,0,0,78.058,22.483Z" fill="#00aeef"/><path d="M76.861,25.588v-.294h.829v2.563h-.406V25.588Z" fill="#00aeef"/><path d="M76.533,29.142a1.26,1.26,0,0,1,1.726,0,1.6,1.6,0,0,1,.247.952,1.627,1.627,0,0,1-.247.963,1.255,1.255,0,0,1-1.726,0,1.627,1.627,0,0,1-.247-.963A1.6,1.6,0,0,1,76.533,29.142Zm1.525.428a.622.622,0,0,0-.207-.345.684.684,0,0,0-.452-.131.7.7,0,0,0-.458.131.627.627,0,0,0-.207.345,2.31,2.31,0,0,0-.05.524,2.383,2.383,0,0,0,.05.535.629.629,0,0,0,.207.347.7.7,0,0,0,.458.131.69.69,0,0,0,.452-.131.623.623,0,0,0,.207-.347,2.371,2.371,0,0,0,.052-.535A2.3,2.3,0,0,0,78.058,29.57Z" fill="#00aeef"/><path d="M76.861,32.676v-.294h.829v2.562h-.406V32.676Z" fill="#00aeef"/><path d="M76.861,36.22v-.294h.829v2.563h-.406V36.22Z" fill="#00aeef"/><path d="M76.861,39.764V39.47h.829v2.562h-.406V39.764Z" fill="#00aeef"/><path d="M76.533,43.317a1.26,1.26,0,0,1,1.726,0,1.6,1.6,0,0,1,.247.951,1.631,1.631,0,0,1-.247.964,1.255,1.255,0,0,1-1.726,0,1.631,1.631,0,0,1-.247-.964A1.6,1.6,0,0,1,76.533,43.317Zm1.525.428a.618.618,0,0,0-.207-.345.684.684,0,0,0-.452-.131.7.7,0,0,0-.458.131.624.624,0,0,0-.207.345,2.306,2.306,0,0,0-.05.523,2.377,2.377,0,0,0,.05.535.626.626,0,0,0,.207.347.7.7,0,0,0,.458.132.69.69,0,0,0,.452-.132.62.62,0,0,0,.207-.347,2.365,2.365,0,0,0,.052-.535A2.3,2.3,0,0,0,78.058,43.745Z" fill="#00aeef"/><path d="M76.861,46.851v-.294h.829V49.12h-.406V46.851Z" fill="#00aeef"/><path d="M76.861,50.4V50.1h.829v2.562h-.406V50.4Z" fill="#00aeef"/><path d="M76.533,53.949a1.26,1.26,0,0,1,1.726,0,1.6,1.6,0,0,1,.247.951,1.631,1.631,0,0,1-.247.964,1.255,1.255,0,0,1-1.726,0,1.631,1.631,0,0,1-.247-.964A1.6,1.6,0,0,1,76.533,53.949Zm1.525.428a.618.618,0,0,0-.207-.345A.684.684,0,0,0,77.4,53.9a.7.7,0,0,0-.458.131.624.624,0,0,0-.207.345,2.306,2.306,0,0,0-.05.523,2.393,2.393,0,0,0,.05.536.623.623,0,0,0,.207.346.7.7,0,0,0,.458.132.685.685,0,0,0,.452-.132.617.617,0,0,0,.207-.346,2.381,2.381,0,0,0,.052-.536A2.3,2.3,0,0,0,78.058,54.377Z" fill="#00aeef"/><path d="M76.533,57.492a1.26,1.26,0,0,1,1.726,0,1.6,1.6,0,0,1,.247.952,1.627,1.627,0,0,1-.247.963,1.255,1.255,0,0,1-1.726,0,1.627,1.627,0,0,1-.247-.963A1.6,1.6,0,0,1,76.533,57.492Zm1.525.429a.618.618,0,0,0-.207-.345.679.679,0,0,0-.452-.132.689.689,0,0,0-.458.132.624.624,0,0,0-.207.345,2.3,2.3,0,0,0-.05.523,2.377,2.377,0,0,0,.05.535.626.626,0,0,0,.207.347.7.7,0,0,0,.458.131.69.69,0,0,0,.452-.131.62.62,0,0,0,.207-.347,2.365,2.365,0,0,0,.052-.535A2.289,2.289,0,0,0,78.058,57.921Z" fill="#00aeef"/><path d="M76.533,61.037a1.26,1.26,0,0,1,1.726,0,1.6,1.6,0,0,1,.247.951,1.631,1.631,0,0,1-.247.964,1.255,1.255,0,0,1-1.726,0,1.631,1.631,0,0,1-.247-.964A1.6,1.6,0,0,1,76.533,61.037Zm1.525.428a.618.618,0,0,0-.207-.345.684.684,0,0,0-.452-.131.7.7,0,0,0-.458.131.624.624,0,0,0-.207.345,2.306,2.306,0,0,0-.05.523,2.377,2.377,0,0,0,.05.535.626.626,0,0,0,.207.347A.7.7,0,0,0,77.4,63a.69.69,0,0,0,.452-.132.62.62,0,0,0,.207-.347,2.365,2.365,0,0,0,.052-.535A2.3,2.3,0,0,0,78.058,61.465Z" fill="#00aeef"/><path d="M76.861,64.57v-.294h.829v2.563h-.406V64.57Z" fill="#00aeef"/></g><g opacity="0.35"><path d="M83.313,17.3V17h.83v2.562h-.407V17.3Z" fill="#00aeef"/><path d="M83.313,20.841v-.294h.83V23.11h-.407V20.841Z" fill="#00aeef"/><path d="M82.986,24.4a1.259,1.259,0,0,1,1.725,0,1.6,1.6,0,0,1,.247.952,1.625,1.625,0,0,1-.247.963,1.253,1.253,0,0,1-1.725,0,1.618,1.618,0,0,1-.248-.963A1.591,1.591,0,0,1,82.986,24.4Zm1.524.429a.613.613,0,0,0-.207-.345.683.683,0,0,0-.452-.132.69.69,0,0,0-.457.132.62.62,0,0,0-.208.345,2.359,2.359,0,0,0-.05.523,2.437,2.437,0,0,0,.05.535.621.621,0,0,0,.208.347.7.7,0,0,0,.457.131.688.688,0,0,0,.452-.131.615.615,0,0,0,.207-.347,2.365,2.365,0,0,0,.052-.535A2.289,2.289,0,0,0,84.51,24.824Z" fill="#00aeef"/><path d="M83.313,27.929v-.294h.83V30.2h-.407V27.929Z" fill="#00aeef"/><path d="M82.986,31.483a1.259,1.259,0,0,1,1.725,0,1.6,1.6,0,0,1,.247.952,1.627,1.627,0,0,1-.247.963,1.253,1.253,0,0,1-1.725,0,1.62,1.62,0,0,1-.248-.963A1.591,1.591,0,0,1,82.986,31.483Zm1.524.428a.61.61,0,0,0-.207-.344.677.677,0,0,0-.452-.132.685.685,0,0,0-.457.132.617.617,0,0,0-.208.344,2.375,2.375,0,0,0-.05.524,2.444,2.444,0,0,0,.05.535.625.625,0,0,0,.208.347.7.7,0,0,0,.457.131.688.688,0,0,0,.452-.131.618.618,0,0,0,.207-.347,2.371,2.371,0,0,0,.052-.535A2.3,2.3,0,0,0,84.51,31.911Z" fill="#00aeef"/><path d="M83.313,35.017v-.294h.83v2.562h-.407V35.017Z" fill="#00aeef"/><path d="M82.986,38.571a1.259,1.259,0,0,1,1.725,0,1.6,1.6,0,0,1,.247.952,1.627,1.627,0,0,1-.247.963,1.253,1.253,0,0,1-1.725,0,1.62,1.62,0,0,1-.248-.963A1.589,1.589,0,0,1,82.986,38.571ZM84.51,39a.616.616,0,0,0-.207-.345.683.683,0,0,0-.452-.131.69.69,0,0,0-.457.131.623.623,0,0,0-.208.345,2.368,2.368,0,0,0-.05.524,2.444,2.444,0,0,0,.05.535.619.619,0,0,0,.208.346.69.69,0,0,0,.457.132A.683.683,0,0,0,84.3,40.4a.612.612,0,0,0,.207-.346,2.371,2.371,0,0,0,.052-.535A2.3,2.3,0,0,0,84.51,39Z" fill="#00aeef"/><path d="M83.313,42.105v-.294h.83v2.562h-.407V42.105Z" fill="#00aeef"/><path d="M83.313,45.649v-.294h.83v2.563h-.407V45.649Z" fill="#00aeef"/><path d="M83.313,49.192V48.9h.83v2.563h-.407V49.192Z" fill="#00aeef"/><path d="M82.986,52.746a1.259,1.259,0,0,1,1.725,0,1.593,1.593,0,0,1,.247.951,1.625,1.625,0,0,1-.247.963,1.253,1.253,0,0,1-1.725,0,1.618,1.618,0,0,1-.248-.963A1.586,1.586,0,0,1,82.986,52.746Zm1.524.428a.613.613,0,0,0-.207-.345.683.683,0,0,0-.452-.131.69.69,0,0,0-.457.131.62.62,0,0,0-.208.345,2.359,2.359,0,0,0-.05.523,2.437,2.437,0,0,0,.05.535.621.621,0,0,0,.208.347.7.7,0,0,0,.457.131.688.688,0,0,0,.452-.131.615.615,0,0,0,.207-.347,2.365,2.365,0,0,0,.052-.535A2.289,2.289,0,0,0,84.51,53.174Z" fill="#00aeef"/><path d="M83.313,56.28v-.294h.83v2.563h-.407V56.28Z" fill="#00aeef"/><path d="M83.313,59.824V59.53h.83v2.562h-.407V59.824Z" fill="#00aeef"/><path d="M82.986,63.378a1.259,1.259,0,0,1,1.725,0,1.6,1.6,0,0,1,.247.951,1.631,1.631,0,0,1-.247.964,1.253,1.253,0,0,1-1.725,0,1.623,1.623,0,0,1-.248-.964A1.588,1.588,0,0,1,82.986,63.378Zm1.524.428a.613.613,0,0,0-.207-.345.683.683,0,0,0-.452-.131.69.69,0,0,0-.457.131.62.62,0,0,0-.208.345,2.365,2.365,0,0,0-.05.523,2.437,2.437,0,0,0,.05.535.621.621,0,0,0,.208.347.7.7,0,0,0,.457.132.688.688,0,0,0,.452-.132.615.615,0,0,0,.207-.347,2.365,2.365,0,0,0,.052-.535A2.3,2.3,0,0,0,84.51,63.806Z" fill="#00aeef"/></g><g opacity="0.35"><path d="M102.951,17.946v-.294h.83v2.562h-.407V17.946Z" fill="#00aeef"/><path d="M102.951,21.489V21.2h.83v2.563h-.407V21.489Z" fill="#00aeef"/><path d="M102.624,25.043a1.259,1.259,0,0,1,1.725,0A1.591,1.591,0,0,1,104.6,26a1.62,1.62,0,0,1-.248.963,1.253,1.253,0,0,1-1.725,0,1.627,1.627,0,0,1-.247-.963A1.6,1.6,0,0,1,102.624,25.043Zm1.525.428a.623.623,0,0,0-.208-.345.683.683,0,0,0-.452-.131.69.69,0,0,0-.457.131.616.616,0,0,0-.207.345,2.3,2.3,0,0,0-.051.524,2.377,2.377,0,0,0,.051.535.618.618,0,0,0,.207.347.7.7,0,0,0,.457.131.688.688,0,0,0,.452-.131.625.625,0,0,0,.208-.347A2.437,2.437,0,0,0,104.2,26,2.363,2.363,0,0,0,104.149,25.471Z" fill="#00aeef"/><path d="M102.951,28.577v-.294h.83v2.562h-.407V28.577Z" fill="#00aeef"/><path d="M102.624,32.131a1.259,1.259,0,0,1,1.725,0,1.588,1.588,0,0,1,.248.951,1.623,1.623,0,0,1-.248.964,1.253,1.253,0,0,1-1.725,0,1.631,1.631,0,0,1-.247-.964A1.6,1.6,0,0,1,102.624,32.131Zm1.525.428a.62.62,0,0,0-.208-.345.683.683,0,0,0-.452-.131.69.69,0,0,0-.457.131.613.613,0,0,0-.207.345,2.3,2.3,0,0,0-.051.523,2.387,2.387,0,0,0,.051.536.612.612,0,0,0,.207.346.69.69,0,0,0,.457.132.683.683,0,0,0,.452-.132.619.619,0,0,0,.208-.346,2.447,2.447,0,0,0,.051-.536A2.359,2.359,0,0,0,104.149,32.559Z" fill="#00aeef"/><path d="M102.951,35.665v-.294h.83v2.562h-.407V35.665Z" fill="#00aeef"/><path d="M102.624,39.219a1.259,1.259,0,0,1,1.725,0,1.588,1.588,0,0,1,.248.951,1.623,1.623,0,0,1-.248.964,1.256,1.256,0,0,1-1.725,0,1.631,1.631,0,0,1-.247-.964A1.6,1.6,0,0,1,102.624,39.219Zm1.525.428a.62.62,0,0,0-.208-.345.683.683,0,0,0-.452-.131.69.69,0,0,0-.457.131.613.613,0,0,0-.207.345,2.3,2.3,0,0,0-.051.523,2.371,2.371,0,0,0,.051.535.615.615,0,0,0,.207.347.7.7,0,0,0,.457.132.688.688,0,0,0,.452-.132.621.621,0,0,0,.208-.347,2.431,2.431,0,0,0,.051-.535A2.353,2.353,0,0,0,104.149,39.647Z" fill="#00aeef"/><path d="M102.951,42.752v-.294h.83v2.563h-.407V42.752Z" fill="#00aeef"/><path d="M102.951,46.3V46h.83v2.562h-.407V46.3Z" fill="#00aeef"/><path d="M102.951,49.84v-.294h.83v2.563h-.407V49.84Z" fill="#00aeef"/><path d="M102.624,53.393a1.259,1.259,0,0,1,1.725,0,1.591,1.591,0,0,1,.248.952,1.62,1.62,0,0,1-.248.963,1.253,1.253,0,0,1-1.725,0,1.627,1.627,0,0,1-.247-.963A1.6,1.6,0,0,1,102.624,53.393Zm1.525.429a.62.62,0,0,0-.208-.345.677.677,0,0,0-.452-.132.685.685,0,0,0-.457.132.613.613,0,0,0-.207.345,2.3,2.3,0,0,0-.051.523,2.371,2.371,0,0,0,.051.535.615.615,0,0,0,.207.347.7.7,0,0,0,.457.131.688.688,0,0,0,.452-.131.621.621,0,0,0,.208-.347,2.431,2.431,0,0,0,.051-.535A2.353,2.353,0,0,0,104.149,53.822Z" fill="#00aeef"/><path d="M102.951,56.928v-.294h.83V59.2h-.407V56.928Z" fill="#00aeef"/><path d="M102.951,60.471v-.294h.83V62.74h-.407V60.471Z" fill="#00aeef"/><path d="M102.624,64.026a1.259,1.259,0,0,1,1.725,0,1.586,1.586,0,0,1,.248.951,1.618,1.618,0,0,1-.248.963,1.253,1.253,0,0,1-1.725,0,1.625,1.625,0,0,1-.247-.963A1.593,1.593,0,0,1,102.624,64.026Zm1.525.428a.62.62,0,0,0-.208-.345.683.683,0,0,0-.452-.131.69.69,0,0,0-.457.131.613.613,0,0,0-.207.345,2.3,2.3,0,0,0-.051.523,2.371,2.371,0,0,0,.051.535.615.615,0,0,0,.207.347.7.7,0,0,0,.457.131.688.688,0,0,0,.452-.131.621.621,0,0,0,.208-.347,2.431,2.431,0,0,0,.051-.535A2.353,2.353,0,0,0,104.149,64.454Z" fill="#00aeef"/></g><g opacity="0.35"><path d="M109.782,5.483V5.189h.83V7.751h-.407V5.483Z" fill="#00aeef"/><path d="M109.782,9.026V8.732h.83V11.3h-.407V9.026Z" fill="#00aeef"/><path d="M109.455,12.581a1.259,1.259,0,0,1,1.725,0,1.593,1.593,0,0,1,.248.951,1.625,1.625,0,0,1-.248.963,1.253,1.253,0,0,1-1.725,0,1.625,1.625,0,0,1-.247-.963A1.593,1.593,0,0,1,109.455,12.581Zm1.525.428a.62.62,0,0,0-.208-.345.683.683,0,0,0-.452-.132.69.69,0,0,0-.457.132.613.613,0,0,0-.207.345,2.3,2.3,0,0,0-.051.523,2.371,2.371,0,0,0,.051.535.615.615,0,0,0,.207.347.7.7,0,0,0,.457.131.688.688,0,0,0,.452-.131.621.621,0,0,0,.208-.347,2.431,2.431,0,0,0,.051-.535A2.353,2.353,0,0,0,110.98,13.009Z" fill="#00aeef"/><path d="M109.782,16.114V15.82h.83v2.563h-.407V16.114Z" fill="#00aeef"/><path d="M109.455,19.668a1.259,1.259,0,0,1,1.725,0,1.6,1.6,0,0,1,.248.952,1.627,1.627,0,0,1-.248.963,1.253,1.253,0,0,1-1.725,0,1.627,1.627,0,0,1-.247-.963A1.6,1.6,0,0,1,109.455,19.668Zm1.525.429a.616.616,0,0,0-.208-.345.677.677,0,0,0-.452-.132.685.685,0,0,0-.457.132.609.609,0,0,0-.207.345,2.3,2.3,0,0,0-.051.523,2.377,2.377,0,0,0,.051.535.615.615,0,0,0,.207.347.7.7,0,0,0,.457.131.688.688,0,0,0,.452-.131.621.621,0,0,0,.208-.347,2.437,2.437,0,0,0,.051-.535A2.353,2.353,0,0,0,110.98,20.1Z" fill="#00aeef"/><path d="M109.782,23.2v-.294h.83V25.47h-.407V23.2Z" fill="#00aeef"/><path d="M109.455,26.756a1.259,1.259,0,0,1,1.725,0,1.6,1.6,0,0,1,.248.952,1.627,1.627,0,0,1-.248.963,1.253,1.253,0,0,1-1.725,0,1.627,1.627,0,0,1-.247-.963A1.6,1.6,0,0,1,109.455,26.756Zm1.525.428a.623.623,0,0,0-.208-.345.683.683,0,0,0-.452-.131.69.69,0,0,0-.457.131.616.616,0,0,0-.207.345,2.3,2.3,0,0,0-.051.524,2.377,2.377,0,0,0,.051.535.618.618,0,0,0,.207.347.7.7,0,0,0,.457.131.688.688,0,0,0,.452-.131.625.625,0,0,0,.208-.347,2.437,2.437,0,0,0,.051-.535A2.363,2.363,0,0,0,110.98,27.184Z" fill="#00aeef"/><path d="M109.782,30.29V30h.83v2.562h-.407V30.29Z" fill="#00aeef"/><path d="M109.782,33.833v-.294h.83V36.1h-.407V33.833Z" fill="#00aeef"/><path d="M109.782,37.377v-.293h.83v2.562h-.407V37.377Z" fill="#00aeef"/><path d="M109.455,40.931a1.259,1.259,0,0,1,1.725,0,1.6,1.6,0,0,1,.248.951,1.625,1.625,0,0,1-.248.963,1.253,1.253,0,0,1-1.725,0,1.625,1.625,0,0,1-.247-.963A1.6,1.6,0,0,1,109.455,40.931Zm1.525.428a.62.62,0,0,0-.208-.345.683.683,0,0,0-.452-.131.69.69,0,0,0-.457.131.613.613,0,0,0-.207.345,2.3,2.3,0,0,0-.051.523,2.371,2.371,0,0,0,.051.535.615.615,0,0,0,.207.347.7.7,0,0,0,.457.131.688.688,0,0,0,.452-.131.621.621,0,0,0,.208-.347,2.431,2.431,0,0,0,.051-.535A2.353,2.353,0,0,0,110.98,41.359Z" fill="#00aeef"/><path d="M109.782,44.465v-.294h.83v2.563h-.407V44.465Z" fill="#00aeef"/><path d="M109.782,48.009v-.294h.83v2.562h-.407V48.009Z" fill="#00aeef"/><path d="M109.455,51.563a1.259,1.259,0,0,1,1.725,0,1.6,1.6,0,0,1,.248.951,1.63,1.63,0,0,1-.248.964,1.253,1.253,0,0,1-1.725,0,1.631,1.631,0,0,1-.247-.964A1.6,1.6,0,0,1,109.455,51.563Zm1.525.428a.62.62,0,0,0-.208-.345.683.683,0,0,0-.452-.131.69.69,0,0,0-.457.131.613.613,0,0,0-.207.345,2.3,2.3,0,0,0-.051.523,2.371,2.371,0,0,0,.051.535.615.615,0,0,0,.207.347.69.69,0,0,0,.457.132.683.683,0,0,0,.452-.132.621.621,0,0,0,.208-.347,2.431,2.431,0,0,0,.051-.535A2.359,2.359,0,0,0,110.98,51.991Z" fill="#00aeef"/><path d="M109.455,55.106a1.259,1.259,0,0,1,1.725,0,1.6,1.6,0,0,1,.248.952,1.627,1.627,0,0,1-.248.963,1.253,1.253,0,0,1-1.725,0,1.627,1.627,0,0,1-.247-.963A1.6,1.6,0,0,1,109.455,55.106Zm1.525.429a.616.616,0,0,0-.208-.345.677.677,0,0,0-.452-.132.685.685,0,0,0-.457.132.609.609,0,0,0-.207.345,2.3,2.3,0,0,0-.051.523,2.377,2.377,0,0,0,.051.535.615.615,0,0,0,.207.347.7.7,0,0,0,.457.131.688.688,0,0,0,.452-.131.621.621,0,0,0,.208-.347,2.437,2.437,0,0,0,.051-.535A2.353,2.353,0,0,0,110.98,55.535Z" fill="#00aeef"/><path d="M109.455,58.651a1.259,1.259,0,0,1,1.725,0,1.6,1.6,0,0,1,.248.951,1.625,1.625,0,0,1-.248.963,1.253,1.253,0,0,1-1.725,0,1.625,1.625,0,0,1-.247-.963A1.6,1.6,0,0,1,109.455,58.651Zm1.525.428a.62.62,0,0,0-.208-.345.683.683,0,0,0-.452-.131.69.69,0,0,0-.457.131.613.613,0,0,0-.207.345,2.3,2.3,0,0,0-.051.523,2.371,2.371,0,0,0,.051.535.615.615,0,0,0,.207.347.7.7,0,0,0,.457.131.688.688,0,0,0,.452-.131.621.621,0,0,0,.208-.347,2.431,2.431,0,0,0,.051-.535A2.353,2.353,0,0,0,110.98,59.079Z" fill="#00aeef"/><path d="M109.782,62.184V61.89h.83v2.563h-.407V62.184Z" fill="#00aeef"/><path d="M109.455,65.737a1.259,1.259,0,0,1,1.725,0,1.6,1.6,0,0,1,.248.952,1.625,1.625,0,0,1-.248.963,1.253,1.253,0,0,1-1.725,0,1.625,1.625,0,0,1-.247-.963A1.6,1.6,0,0,1,109.455,65.737Zm1.525.429a.62.62,0,0,0-.208-.345.683.683,0,0,0-.452-.132.69.69,0,0,0-.457.132.613.613,0,0,0-.207.345,2.3,2.3,0,0,0-.051.523,2.371,2.371,0,0,0,.051.535.615.615,0,0,0,.207.347.7.7,0,0,0,.457.131.688.688,0,0,0,.452-.131.621.621,0,0,0,.208-.347,2.431,2.431,0,0,0,.051-.535A2.353,2.353,0,0,0,110.98,66.166Z" fill="#00aeef"/></g><g opacity="0.35"><path d="M118.714,13.536v-.294h.829v2.563h-.406V13.536Z" fill="#00aeef"/><path d="M118.714,17.08v-.294h.829v2.562h-.406V17.08Z" fill="#00aeef"/><path d="M118.386,20.634a1.26,1.26,0,0,1,1.726,0,1.6,1.6,0,0,1,.247.952,1.629,1.629,0,0,1-.247.963,1.255,1.255,0,0,1-1.726,0,1.629,1.629,0,0,1-.247-.963A1.6,1.6,0,0,1,118.386,20.634Zm1.525.428a.623.623,0,0,0-.208-.345.852.852,0,0,0-.908,0,.623.623,0,0,0-.208.345,2.31,2.31,0,0,0-.05.524,2.383,2.383,0,0,0,.05.535.619.619,0,0,0,.208.346.847.847,0,0,0,.908,0,.619.619,0,0,0,.208-.346,2.377,2.377,0,0,0,.051-.535A2.3,2.3,0,0,0,119.911,21.062Z" fill="#00aeef"/><path d="M118.714,24.168v-.294h.829v2.562h-.406V24.168Z" fill="#00aeef"/><path d="M118.386,27.722a1.26,1.26,0,0,1,1.726,0,1.6,1.6,0,0,1,.247.951,1.631,1.631,0,0,1-.247.964,1.255,1.255,0,0,1-1.726,0,1.631,1.631,0,0,1-.247-.964A1.6,1.6,0,0,1,118.386,27.722Zm1.525.428a.62.62,0,0,0-.208-.345.852.852,0,0,0-.908,0,.62.62,0,0,0-.208.345,2.306,2.306,0,0,0-.05.523,2.377,2.377,0,0,0,.05.535.621.621,0,0,0,.208.347.847.847,0,0,0,.908,0,.621.621,0,0,0,.208-.347,2.371,2.371,0,0,0,.051-.535A2.3,2.3,0,0,0,119.911,28.15Z" fill="#00aeef"/><path d="M118.714,31.255v-.294h.829v2.563h-.406V31.255Z" fill="#00aeef"/><path d="M118.386,34.81a1.26,1.26,0,0,1,1.726,0,1.593,1.593,0,0,1,.247.951,1.625,1.625,0,0,1-.247.963,1.255,1.255,0,0,1-1.726,0,1.625,1.625,0,0,1-.247-.963A1.593,1.593,0,0,1,118.386,34.81Zm1.525.428a.62.62,0,0,0-.208-.345.852.852,0,0,0-.908,0,.62.62,0,0,0-.208.345,2.3,2.3,0,0,0-.05.523,2.377,2.377,0,0,0,.05.535.621.621,0,0,0,.208.347.852.852,0,0,0,.908,0,.621.621,0,0,0,.208-.347,2.371,2.371,0,0,0,.051-.535A2.3,2.3,0,0,0,119.911,35.238Z" fill="#00aeef"/><path d="M118.714,38.343v-.294h.829v2.563h-.406V38.343Z" fill="#00aeef"/><path d="M118.714,41.887v-.294h.829v2.562h-.406V41.887Z" fill="#00aeef"/><path d="M118.714,45.431v-.294h.829V47.7h-.406V45.431Z" fill="#00aeef"/><path d="M118.386,48.984a1.26,1.26,0,0,1,1.726,0,1.6,1.6,0,0,1,.247.952,1.627,1.627,0,0,1-.247.963,1.255,1.255,0,0,1-1.726,0,1.627,1.627,0,0,1-.247-.963A1.6,1.6,0,0,1,118.386,48.984Zm1.525.428a.623.623,0,0,0-.208-.345.852.852,0,0,0-.908,0,.623.623,0,0,0-.208.345,2.31,2.31,0,0,0-.05.524,2.383,2.383,0,0,0,.05.535.625.625,0,0,0,.208.347.852.852,0,0,0,.908,0,.625.625,0,0,0,.208-.347,2.377,2.377,0,0,0,.051-.535A2.3,2.3,0,0,0,119.911,49.412Z" fill="#00aeef"/><path d="M118.714,52.519v-.294h.829v2.562h-.406V52.519Z" fill="#00aeef"/><path d="M118.714,56.062v-.294h.829v2.563h-.406V56.062Z" fill="#00aeef"/><path d="M118.386,59.616a1.26,1.26,0,0,1,1.726,0,1.6,1.6,0,0,1,.247.952,1.627,1.627,0,0,1-.247.963,1.255,1.255,0,0,1-1.726,0,1.627,1.627,0,0,1-.247-.963A1.6,1.6,0,0,1,118.386,59.616Zm1.525.429a.62.62,0,0,0-.208-.345.847.847,0,0,0-.908,0,.62.62,0,0,0-.208.345,2.3,2.3,0,0,0-.05.523,2.377,2.377,0,0,0,.05.535.621.621,0,0,0,.208.347.852.852,0,0,0,.908,0,.621.621,0,0,0,.208-.347,2.371,2.371,0,0,0,.051-.535A2.3,2.3,0,0,0,119.911,60.045Z" fill="#00aeef"/><path d="M118.386,63.16a1.26,1.26,0,0,1,1.726,0,1.6,1.6,0,0,1,.247.951,1.631,1.631,0,0,1-.247.964,1.255,1.255,0,0,1-1.726,0,1.631,1.631,0,0,1-.247-.964A1.6,1.6,0,0,1,118.386,63.16Zm1.525.428a.62.62,0,0,0-.208-.345.852.852,0,0,0-.908,0,.62.62,0,0,0-.208.345,2.306,2.306,0,0,0-.05.523,2.377,2.377,0,0,0,.05.535.621.621,0,0,0,.208.347.847.847,0,0,0,.908,0,.621.621,0,0,0,.208-.347,2.371,2.371,0,0,0,.051-.535A2.3,2.3,0,0,0,119.911,63.588Z" fill="#00aeef"/></g><g opacity="0.35"><path d="M135.007,4.147V3.853h.83V6.416h-.406V4.147Z" fill="#00aeef"/><path d="M135.007,7.691V7.4h.83V9.959h-.406V7.691Z" fill="#00aeef"/><path d="M134.68,11.245a1.26,1.26,0,0,1,1.726,0,1.6,1.6,0,0,1,.247.951,1.631,1.631,0,0,1-.247.964,1.255,1.255,0,0,1-1.726,0,1.631,1.631,0,0,1-.247-.964A1.6,1.6,0,0,1,134.68,11.245Zm1.525.428a.62.62,0,0,0-.208-.345.683.683,0,0,0-.452-.131.692.692,0,0,0-.457.131.618.618,0,0,0-.207.345,2.3,2.3,0,0,0-.051.523,2.371,2.371,0,0,0,.051.535.62.62,0,0,0,.207.347.692.692,0,0,0,.457.132.683.683,0,0,0,.452-.132.621.621,0,0,0,.208-.347,2.431,2.431,0,0,0,.051-.535A2.359,2.359,0,0,0,136.205,11.673Z" fill="#00aeef"/><path d="M135.007,14.778v-.294h.83v2.563h-.406V14.778Z" fill="#00aeef"/><path d="M134.68,18.333a1.26,1.26,0,0,1,1.726,0,1.593,1.593,0,0,1,.247.951,1.625,1.625,0,0,1-.247.963,1.255,1.255,0,0,1-1.726,0,1.625,1.625,0,0,1-.247-.963A1.593,1.593,0,0,1,134.68,18.333Zm1.525.428a.62.62,0,0,0-.208-.345.683.683,0,0,0-.452-.131.692.692,0,0,0-.457.131.618.618,0,0,0-.207.345,2.3,2.3,0,0,0-.051.523,2.371,2.371,0,0,0,.051.535.62.62,0,0,0,.207.347.7.7,0,0,0,.457.131.688.688,0,0,0,.452-.131.621.621,0,0,0,.208-.347,2.431,2.431,0,0,0,.051-.535A2.353,2.353,0,0,0,136.205,18.761Z" fill="#00aeef"/><path d="M135.007,21.866v-.294h.83v2.563h-.406V21.866Z" fill="#00aeef"/><path d="M134.68,25.42a1.26,1.26,0,0,1,1.726,0,1.6,1.6,0,0,1,.247.952,1.625,1.625,0,0,1-.247.963,1.255,1.255,0,0,1-1.726,0,1.625,1.625,0,0,1-.247-.963A1.6,1.6,0,0,1,134.68,25.42Zm1.525.429A.62.62,0,0,0,136,25.5a.683.683,0,0,0-.452-.132.692.692,0,0,0-.457.132.618.618,0,0,0-.207.345,2.3,2.3,0,0,0-.051.523,2.371,2.371,0,0,0,.051.535.62.62,0,0,0,.207.347.7.7,0,0,0,.457.131.688.688,0,0,0,.452-.131.621.621,0,0,0,.208-.347,2.431,2.431,0,0,0,.051-.535A2.353,2.353,0,0,0,136.205,25.849Z" fill="#00aeef"/><path d="M135.007,28.954V28.66h.83v2.563h-.406V28.954Z" fill="#00aeef"/><path d="M135.007,32.5V32.2h.83v2.563h-.406V32.5Z" fill="#00aeef"/><path d="M135.007,36.042v-.294h.83V38.31h-.406V36.042Z" fill="#00aeef"/><path d="M134.68,39.6a1.26,1.26,0,0,1,1.726,0,1.6,1.6,0,0,1,.247.952,1.627,1.627,0,0,1-.247.963,1.255,1.255,0,0,1-1.726,0,1.627,1.627,0,0,1-.247-.963A1.6,1.6,0,0,1,134.68,39.6Zm1.525.428a.623.623,0,0,0-.208-.345.683.683,0,0,0-.452-.131.692.692,0,0,0-.457.131.622.622,0,0,0-.207.345,2.3,2.3,0,0,0-.051.524,2.377,2.377,0,0,0,.051.535.617.617,0,0,0,.207.346.692.692,0,0,0,.457.132.683.683,0,0,0,.452-.132.619.619,0,0,0,.208-.346,2.437,2.437,0,0,0,.051-.535A2.363,2.363,0,0,0,136.205,40.023Z" fill="#00aeef"/><path d="M135.007,43.13v-.294h.83V45.4h-.406V43.13Z" fill="#00aeef"/><path d="M135.007,46.673v-.294h.83v2.563h-.406V46.673Z" fill="#00aeef"/><path d="M134.68,50.227a1.26,1.26,0,0,1,1.726,0,1.6,1.6,0,0,1,.247.952,1.627,1.627,0,0,1-.247.963,1.255,1.255,0,0,1-1.726,0,1.627,1.627,0,0,1-.247-.963A1.6,1.6,0,0,1,134.68,50.227Zm1.525.428a.617.617,0,0,0-.208-.344.677.677,0,0,0-.452-.132.686.686,0,0,0-.457.132.615.615,0,0,0-.207.344,2.31,2.31,0,0,0-.051.524,2.377,2.377,0,0,0,.051.535.623.623,0,0,0,.207.347.7.7,0,0,0,.457.131.688.688,0,0,0,.452-.131.625.625,0,0,0,.208-.347,2.437,2.437,0,0,0,.051-.535A2.369,2.369,0,0,0,136.205,50.655Z" fill="#00aeef"/><path d="M134.68,53.771a1.26,1.26,0,0,1,1.726,0,1.593,1.593,0,0,1,.247.951,1.625,1.625,0,0,1-.247.963,1.255,1.255,0,0,1-1.726,0,1.625,1.625,0,0,1-.247-.963A1.593,1.593,0,0,1,134.68,53.771Zm1.525.428a.62.62,0,0,0-.208-.345.683.683,0,0,0-.452-.131.692.692,0,0,0-.457.131.618.618,0,0,0-.207.345,2.3,2.3,0,0,0-.051.523,2.371,2.371,0,0,0,.051.535.62.62,0,0,0,.207.347.7.7,0,0,0,.457.131A.688.688,0,0,0,136,55.6a.621.621,0,0,0,.208-.347,2.431,2.431,0,0,0,.051-.535A2.353,2.353,0,0,0,136.205,54.2Z" fill="#00aeef"/><path d="M134.68,57.315a1.26,1.26,0,0,1,1.726,0,1.6,1.6,0,0,1,.247.952,1.629,1.629,0,0,1-.247.963,1.255,1.255,0,0,1-1.726,0,1.629,1.629,0,0,1-.247-.963A1.6,1.6,0,0,1,134.68,57.315Zm1.525.428A.623.623,0,0,0,136,57.4a.683.683,0,0,0-.452-.131.692.692,0,0,0-.457.131.622.622,0,0,0-.207.345,2.3,2.3,0,0,0-.051.524,2.377,2.377,0,0,0,.051.535.617.617,0,0,0,.207.346.692.692,0,0,0,.457.132.683.683,0,0,0,.452-.132.619.619,0,0,0,.208-.346,2.437,2.437,0,0,0,.051-.535A2.363,2.363,0,0,0,136.205,57.743Z" fill="#00aeef"/><path d="M135.007,60.849v-.294h.83v2.562h-.406V60.849Z" fill="#00aeef"/><path d="M134.68,64.4a1.26,1.26,0,0,1,1.726,0,1.6,1.6,0,0,1,.247.951,1.631,1.631,0,0,1-.247.964,1.255,1.255,0,0,1-1.726,0,1.631,1.631,0,0,1-.247-.964A1.6,1.6,0,0,1,134.68,64.4Zm1.525.428a.62.62,0,0,0-.208-.345.683.683,0,0,0-.452-.131.692.692,0,0,0-.457.131.618.618,0,0,0-.207.345,2.3,2.3,0,0,0-.051.523,2.371,2.371,0,0,0,.051.535.62.62,0,0,0,.207.347.7.7,0,0,0,.457.132.688.688,0,0,0,.452-.132.621.621,0,0,0,.208-.347,2.431,2.431,0,0,0,.051-.535A2.359,2.359,0,0,0,136.205,64.83Z" fill="#00aeef"/></g><g opacity="0.35"><path d="M.574,4.213V3.919H1.4V6.481H1V4.213Z" fill="#00aeef"/><path d="M.574,7.756V7.462H1.4v2.563H1V7.756Z" fill="#00aeef"/><path d="M.247,11.311a1,1,0,0,1,.865-.342.99.99,0,0,1,.861.342,1.593,1.593,0,0,1,.247.951,1.625,1.625,0,0,1-.247.963.988.988,0,0,1-.861.344.993.993,0,0,1-.865-.344A1.625,1.625,0,0,1,0,12.262,1.593,1.593,0,0,1,.247,11.311Zm1.525.428a.624.624,0,0,0-.207-.345.687.687,0,0,0-.453-.131.694.694,0,0,0-.457.131.624.624,0,0,0-.207.345,2.3,2.3,0,0,0-.051.523,2.371,2.371,0,0,0,.051.535.626.626,0,0,0,.207.347.7.7,0,0,0,.457.131.693.693,0,0,0,.453-.131.626.626,0,0,0,.207-.347,2.371,2.371,0,0,0,.051-.535A2.3,2.3,0,0,0,1.772,11.739Z" fill="#00aeef"/><path d="M.574,14.844V14.55H1.4v2.563H1V14.844Z" fill="#00aeef"/><path d="M.247,18.4a1,1,0,0,1,.865-.342.993.993,0,0,1,.861.342,1.6,1.6,0,0,1,.247.952,1.627,1.627,0,0,1-.247.963.991.991,0,0,1-.861.344,1,1,0,0,1-.865-.344A1.627,1.627,0,0,1,0,19.35,1.6,1.6,0,0,1,.247,18.4Zm1.525.429a.62.62,0,0,0-.207-.345.682.682,0,0,0-.453-.132.688.688,0,0,0-.457.132.62.62,0,0,0-.207.345A2.3,2.3,0,0,0,.4,19.35a2.377,2.377,0,0,0,.051.535.626.626,0,0,0,.207.347.7.7,0,0,0,.457.131.693.693,0,0,0,.453-.131.626.626,0,0,0,.207-.347,2.377,2.377,0,0,0,.051-.535A2.3,2.3,0,0,0,1.772,18.827Z" fill="#00aeef"/><path d="M.574,21.932v-.294H1.4V24.2H1V21.932Z" fill="#00aeef"/><path d="M.247,25.486a1,1,0,0,1,.865-.342.993.993,0,0,1,.861.342,1.6,1.6,0,0,1,.247.952,1.627,1.627,0,0,1-.247.963.991.991,0,0,1-.861.344A1,1,0,0,1,.247,27.4,1.627,1.627,0,0,1,0,26.438,1.6,1.6,0,0,1,.247,25.486Zm1.525.428a.627.627,0,0,0-.207-.345.687.687,0,0,0-.453-.131.694.694,0,0,0-.457.131.627.627,0,0,0-.207.345,2.3,2.3,0,0,0-.051.524,2.377,2.377,0,0,0,.051.535.629.629,0,0,0,.207.347.7.7,0,0,0,.457.131.693.693,0,0,0,.453-.131.629.629,0,0,0,.207-.347,2.377,2.377,0,0,0,.051-.535A2.3,2.3,0,0,0,1.772,25.914Z" fill="#00aeef"/><path d="M.574,29.02v-.294H1.4v2.562H1V29.02Z" fill="#00aeef"/><path d="M.574,32.563v-.294H1.4v2.563H1V32.563Z" fill="#00aeef"/><path d="M.574,36.108v-.294H1.4v2.562H1V36.108Z" fill="#00aeef"/><path d="M.247,39.661a1,1,0,0,1,.865-.342.99.99,0,0,1,.861.342,1.6,1.6,0,0,1,.247.951,1.625,1.625,0,0,1-.247.963.988.988,0,0,1-.861.344.993.993,0,0,1-.865-.344A1.625,1.625,0,0,1,0,40.612,1.6,1.6,0,0,1,.247,39.661Zm1.525.428a.624.624,0,0,0-.207-.345.687.687,0,0,0-.453-.131.694.694,0,0,0-.457.131.624.624,0,0,0-.207.345,2.3,2.3,0,0,0-.051.523,2.371,2.371,0,0,0,.051.535.626.626,0,0,0,.207.347.7.7,0,0,0,.457.131.693.693,0,0,0,.453-.131.626.626,0,0,0,.207-.347,2.371,2.371,0,0,0,.051-.535A2.3,2.3,0,0,0,1.772,40.089Z" fill="#00aeef"/><path d="M.574,43.2V42.9H1.4v2.563H1V43.2Z" fill="#00aeef"/><path d="M.574,46.739v-.294H1.4v2.562H1V46.739Z" fill="#00aeef"/><path d="M.247,50.293a1,1,0,0,1,.865-.342.993.993,0,0,1,.861.342,1.6,1.6,0,0,1,.247.951,1.631,1.631,0,0,1-.247.964.991.991,0,0,1-.861.344,1,1,0,0,1-.865-.344A1.631,1.631,0,0,1,0,51.244,1.6,1.6,0,0,1,.247,50.293Zm1.525.428a.624.624,0,0,0-.207-.345.687.687,0,0,0-.453-.131.694.694,0,0,0-.457.131.624.624,0,0,0-.207.345,2.3,2.3,0,0,0-.051.523,2.371,2.371,0,0,0,.051.535.626.626,0,0,0,.207.347.694.694,0,0,0,.457.132.687.687,0,0,0,.453-.132.626.626,0,0,0,.207-.347,2.371,2.371,0,0,0,.051-.535A2.3,2.3,0,0,0,1.772,50.721Z" fill="#00aeef"/><path d="M.247,53.836a1,1,0,0,1,.865-.342.993.993,0,0,1,.861.342,1.6,1.6,0,0,1,.247.952,1.627,1.627,0,0,1-.247.963.991.991,0,0,1-.861.344,1,1,0,0,1-.865-.344A1.627,1.627,0,0,1,0,54.788,1.6,1.6,0,0,1,.247,53.836Zm1.525.429a.62.62,0,0,0-.207-.345.682.682,0,0,0-.453-.132.688.688,0,0,0-.457.132.62.62,0,0,0-.207.345,2.3,2.3,0,0,0-.051.523,2.377,2.377,0,0,0,.051.535.626.626,0,0,0,.207.347.7.7,0,0,0,.457.131.693.693,0,0,0,.453-.131.626.626,0,0,0,.207-.347,2.377,2.377,0,0,0,.051-.535A2.3,2.3,0,0,0,1.772,54.265Z" fill="#00aeef"/><path d="M.247,57.381a1,1,0,0,1,.865-.342.99.99,0,0,1,.861.342,1.6,1.6,0,0,1,.247.951,1.625,1.625,0,0,1-.247.963.988.988,0,0,1-.861.344A.993.993,0,0,1,.247,59.3,1.625,1.625,0,0,1,0,58.332,1.6,1.6,0,0,1,.247,57.381Zm1.525.428a.624.624,0,0,0-.207-.345.687.687,0,0,0-.453-.131.694.694,0,0,0-.457.131.624.624,0,0,0-.207.345,2.3,2.3,0,0,0-.051.523,2.371,2.371,0,0,0,.051.535.626.626,0,0,0,.207.347.7.7,0,0,0,.457.131.693.693,0,0,0,.453-.131.626.626,0,0,0,.207-.347,2.371,2.371,0,0,0,.051-.535A2.3,2.3,0,0,0,1.772,57.809Z" fill="#00aeef"/><path d="M.574,60.914V60.62H1.4v2.563H1V60.914Z" fill="#00aeef"/><path d="M.247,64.467a1,1,0,0,1,.865-.341.992.992,0,0,1,.861.341,1.6,1.6,0,0,1,.247.952,1.625,1.625,0,0,1-.247.963.988.988,0,0,1-.861.344.993.993,0,0,1-.865-.344A1.625,1.625,0,0,1,0,65.419,1.6,1.6,0,0,1,.247,64.467Zm1.525.429a.624.624,0,0,0-.207-.345.687.687,0,0,0-.453-.132.694.694,0,0,0-.457.132.624.624,0,0,0-.207.345,2.3,2.3,0,0,0-.051.523,2.371,2.371,0,0,0,.051.535.626.626,0,0,0,.207.347.7.7,0,0,0,.457.131.693.693,0,0,0,.453-.131.626.626,0,0,0,.207-.347,2.371,2.371,0,0,0,.051-.535A2.3,2.3,0,0,0,1.772,64.9Z" fill="#00aeef"/></g><g opacity="0.35"><path d="M9.43,13.128v-.294h.83V15.4H9.854V13.128Z" fill="#00aeef"/><path d="M9.43,16.672v-.294h.83V18.94H9.854V16.672Z" fill="#00aeef"/><path d="M9.1,20.226a1,1,0,0,1,.865-.342.993.993,0,0,1,.861.342,1.6,1.6,0,0,1,.247.951,1.638,1.638,0,0,1-.247.964.991.991,0,0,1-.861.344.994.994,0,0,1-.865-.344,1.631,1.631,0,0,1-.247-.964A1.6,1.6,0,0,1,9.1,20.226Zm1.525.428a.62.62,0,0,0-.208-.345.683.683,0,0,0-.452-.131.692.692,0,0,0-.457.131.62.62,0,0,0-.208.345,2.306,2.306,0,0,0-.05.523,2.377,2.377,0,0,0,.05.535.621.621,0,0,0,.208.347.692.692,0,0,0,.457.132.683.683,0,0,0,.452-.132.621.621,0,0,0,.208-.347,2.377,2.377,0,0,0,.05-.535A2.306,2.306,0,0,0,10.629,20.654Z" fill="#00aeef"/><path d="M9.43,23.759v-.294h.83v2.563H9.854V23.759Z" fill="#00aeef"/><path d="M9.1,27.314a.994.994,0,0,1,.865-.342.99.99,0,0,1,.861.342,1.6,1.6,0,0,1,.247.951,1.632,1.632,0,0,1-.247.963.988.988,0,0,1-.861.344.992.992,0,0,1-.865-.344,1.625,1.625,0,0,1-.247-.963A1.6,1.6,0,0,1,9.1,27.314Zm1.525.428a.62.62,0,0,0-.208-.345.683.683,0,0,0-.452-.131.692.692,0,0,0-.457.131.62.62,0,0,0-.208.345,2.3,2.3,0,0,0-.05.523,2.377,2.377,0,0,0,.05.535.621.621,0,0,0,.208.347.7.7,0,0,0,.457.131.688.688,0,0,0,.452-.131.621.621,0,0,0,.208-.347,2.377,2.377,0,0,0,.05-.535A2.3,2.3,0,0,0,10.629,27.742Z" fill="#00aeef"/><path d="M9.43,30.847v-.294h.83v2.563H9.854V30.847Z" fill="#00aeef"/><path d="M9.1,34.4a1,1,0,0,1,.865-.342.993.993,0,0,1,.861.342,1.606,1.606,0,0,1,.247.952,1.632,1.632,0,0,1-.247.963.988.988,0,0,1-.861.344.992.992,0,0,1-.865-.344,1.625,1.625,0,0,1-.247-.963A1.6,1.6,0,0,1,9.1,34.4Zm1.525.429a.62.62,0,0,0-.208-.345.683.683,0,0,0-.452-.132.692.692,0,0,0-.457.132.62.62,0,0,0-.208.345,2.3,2.3,0,0,0-.05.523,2.377,2.377,0,0,0,.05.535.621.621,0,0,0,.208.347.7.7,0,0,0,.457.131.688.688,0,0,0,.452-.131.621.621,0,0,0,.208-.347,2.377,2.377,0,0,0,.05-.535A2.3,2.3,0,0,0,10.629,34.83Z" fill="#00aeef"/><path d="M9.43,37.935v-.294h.83V40.2H9.854V37.935Z" fill="#00aeef"/><path d="M9.43,41.478v-.294h.83v2.563H9.854V41.478Z" fill="#00aeef"/><path d="M9.43,45.023v-.294h.83v2.562H9.854V45.023Z" fill="#00aeef"/><path d="M9.1,48.576a1,1,0,0,1,.865-.342.993.993,0,0,1,.861.342,1.6,1.6,0,0,1,.247.952,1.634,1.634,0,0,1-.247.963.991.991,0,0,1-.861.344.994.994,0,0,1-.865-.344,1.627,1.627,0,0,1-.247-.963A1.6,1.6,0,0,1,9.1,48.576ZM10.629,49a.623.623,0,0,0-.208-.345.683.683,0,0,0-.452-.131.692.692,0,0,0-.457.131A.623.623,0,0,0,9.3,49a2.31,2.31,0,0,0-.05.524,2.383,2.383,0,0,0,.05.535.619.619,0,0,0,.208.346.692.692,0,0,0,.457.132.683.683,0,0,0,.452-.132.619.619,0,0,0,.208-.346,2.383,2.383,0,0,0,.05-.535A2.31,2.31,0,0,0,10.629,49Z" fill="#00aeef"/><path d="M9.43,52.111v-.294h.83v2.562H9.854V52.111Z" fill="#00aeef"/><path d="M9.43,55.654V55.36h.83v2.563H9.854V55.654Z" fill="#00aeef"/><path d="M9.1,59.208a1,1,0,0,1,.865-.342.993.993,0,0,1,.861.342,1.606,1.606,0,0,1,.247.952,1.634,1.634,0,0,1-.247.963.991.991,0,0,1-.861.344.994.994,0,0,1-.865-.344,1.627,1.627,0,0,1-.247-.963A1.6,1.6,0,0,1,9.1,59.208Zm1.525.428a.617.617,0,0,0-.208-.344.677.677,0,0,0-.452-.132.686.686,0,0,0-.457.132.617.617,0,0,0-.208.344,2.316,2.316,0,0,0-.05.524,2.383,2.383,0,0,0,.05.535.625.625,0,0,0,.208.347.7.7,0,0,0,.457.131.688.688,0,0,0,.452-.131.625.625,0,0,0,.208-.347,2.383,2.383,0,0,0,.05-.535A2.316,2.316,0,0,0,10.629,59.636Z" fill="#00aeef"/><path d="M9.1,62.752a.994.994,0,0,1,.865-.342.99.99,0,0,1,.861.342,1.6,1.6,0,0,1,.247.951,1.632,1.632,0,0,1-.247.963.988.988,0,0,1-.861.344.992.992,0,0,1-.865-.344,1.625,1.625,0,0,1-.247-.963A1.593,1.593,0,0,1,9.1,62.752Zm1.525.428a.62.62,0,0,0-.208-.345.683.683,0,0,0-.452-.131.692.692,0,0,0-.457.131.62.62,0,0,0-.208.345,2.3,2.3,0,0,0-.05.523,2.377,2.377,0,0,0,.05.535.621.621,0,0,0,.208.347.7.7,0,0,0,.457.131.688.688,0,0,0,.452-.131.621.621,0,0,0,.208-.347,2.377,2.377,0,0,0,.05-.535A2.3,2.3,0,0,0,10.629,63.18Z" fill="#00aeef"/></g><g opacity="0.35"><path d="M141.712,14.94v-.294h.829v2.563h-.406V14.94Z" fill="#00aeef"/><path d="M141.712,18.484V18.19h.829v2.562h-.406V18.484Z" fill="#00aeef"/><path d="M141.385,22.038a1.26,1.26,0,0,1,1.726,0,1.6,1.6,0,0,1,.247.951,1.631,1.631,0,0,1-.247.964,1.257,1.257,0,0,1-1.726,0,1.631,1.631,0,0,1-.247-.964A1.6,1.6,0,0,1,141.385,22.038Zm1.525.428a.62.62,0,0,0-.208-.345.681.681,0,0,0-.451-.131.7.7,0,0,0-.458.131.624.624,0,0,0-.207.345,2.239,2.239,0,0,0-.051.523,2.315,2.315,0,0,0,.051.535.626.626,0,0,0,.207.347.7.7,0,0,0,.458.131.687.687,0,0,0,.451-.131.621.621,0,0,0,.208-.347,2.371,2.371,0,0,0,.051-.535A2.3,2.3,0,0,0,142.91,22.466Z" fill="#00aeef"/><path d="M141.712,25.571v-.294h.829V27.84h-.406V25.571Z" fill="#00aeef"/><path d="M141.385,29.126a1.26,1.26,0,0,1,1.726,0,1.593,1.593,0,0,1,.247.951,1.625,1.625,0,0,1-.247.963,1.255,1.255,0,0,1-1.726,0,1.625,1.625,0,0,1-.247-.963A1.593,1.593,0,0,1,141.385,29.126Zm1.525.428a.62.62,0,0,0-.208-.345.681.681,0,0,0-.451-.131.7.7,0,0,0-.458.131.624.624,0,0,0-.207.345,2.239,2.239,0,0,0-.051.523,2.315,2.315,0,0,0,.051.535.626.626,0,0,0,.207.347.7.7,0,0,0,.458.131.687.687,0,0,0,.451-.131.621.621,0,0,0,.208-.347,2.371,2.371,0,0,0,.051-.535A2.3,2.3,0,0,0,142.91,29.554Z" fill="#00aeef"/><path d="M141.712,32.659v-.294h.829v2.563h-.406V32.659Z" fill="#00aeef"/><path d="M141.385,36.213a1.26,1.26,0,0,1,1.726,0,1.6,1.6,0,0,1,.247.952,1.627,1.627,0,0,1-.247.963,1.255,1.255,0,0,1-1.726,0,1.627,1.627,0,0,1-.247-.963A1.6,1.6,0,0,1,141.385,36.213Zm1.525.429a.616.616,0,0,0-.208-.345.676.676,0,0,0-.451-.132.689.689,0,0,0-.458.132.62.62,0,0,0-.207.345,2.239,2.239,0,0,0-.051.523,2.32,2.32,0,0,0,.051.535.626.626,0,0,0,.207.347.7.7,0,0,0,.458.131.687.687,0,0,0,.451-.131.621.621,0,0,0,.208-.347,2.377,2.377,0,0,0,.051-.535A2.3,2.3,0,0,0,142.91,36.642Z" fill="#00aeef"/><path d="M141.712,39.747v-.294h.829v2.562h-.406V39.747Z" fill="#00aeef"/><path d="M141.712,43.29V43h.829v2.563h-.406V43.29Z" fill="#00aeef"/><path d="M141.712,46.835v-.294h.829V49.1h-.406V46.835Z" fill="#00aeef"/><path d="M141.385,50.388a1.26,1.26,0,0,1,1.726,0,1.6,1.6,0,0,1,.247.951,1.631,1.631,0,0,1-.247.964,1.255,1.255,0,0,1-1.726,0,1.631,1.631,0,0,1-.247-.964A1.6,1.6,0,0,1,141.385,50.388Zm1.525.428a.62.62,0,0,0-.208-.345.681.681,0,0,0-.451-.131.7.7,0,0,0-.458.131.624.624,0,0,0-.207.345,2.245,2.245,0,0,0-.051.523,2.315,2.315,0,0,0,.051.535.622.622,0,0,0,.207.347.7.7,0,0,0,.458.132.682.682,0,0,0,.451-.132.618.618,0,0,0,.208-.347,2.371,2.371,0,0,0,.051-.535A2.3,2.3,0,0,0,142.91,50.816Z" fill="#00aeef"/><path d="M141.712,53.923v-.294h.829v2.562h-.406V53.923Z" fill="#00aeef"/><path d="M141.712,57.466v-.294h.829v2.562h-.406V57.466Z" fill="#00aeef"/><path d="M141.385,61.02a1.26,1.26,0,0,1,1.726,0,1.6,1.6,0,0,1,.247.952,1.627,1.627,0,0,1-.247.963,1.255,1.255,0,0,1-1.726,0,1.627,1.627,0,0,1-.247-.963A1.6,1.6,0,0,1,141.385,61.02Zm1.525.428a.623.623,0,0,0-.208-.345.681.681,0,0,0-.451-.131.7.7,0,0,0-.458.131.627.627,0,0,0-.207.345,2.249,2.249,0,0,0-.051.524,2.32,2.32,0,0,0,.051.535.629.629,0,0,0,.207.347.7.7,0,0,0,.458.131.687.687,0,0,0,.451-.131.625.625,0,0,0,.208-.347,2.377,2.377,0,0,0,.051-.535A2.3,2.3,0,0,0,142.91,61.448Z" fill="#00aeef"/><path d="M141.385,64.564a1.26,1.26,0,0,1,1.726,0,1.593,1.593,0,0,1,.247.951,1.625,1.625,0,0,1-.247.963,1.255,1.255,0,0,1-1.726,0,1.625,1.625,0,0,1-.247-.963A1.593,1.593,0,0,1,141.385,64.564Zm1.525.428a.62.62,0,0,0-.208-.345.681.681,0,0,0-.451-.131.7.7,0,0,0-.458.131.624.624,0,0,0-.207.345,2.239,2.239,0,0,0-.051.523,2.315,2.315,0,0,0,.051.535.626.626,0,0,0,.207.347.7.7,0,0,0,.458.131.687.687,0,0,0,.451-.131.621.621,0,0,0,.208-.347,2.371,2.371,0,0,0,.051-.535A2.3,2.3,0,0,0,142.91,64.992Z" fill="#00aeef"/></g><g opacity="0.35"><path d="M129.2,20.93v-.294h.83V23.2h-.406V20.93Z" fill="#00aeef"/><path d="M129.2,24.474V24.18h.83v2.562h-.406V24.474Z" fill="#00aeef"/><path d="M128.874,28.028a1.26,1.26,0,0,1,1.726,0,1.6,1.6,0,0,1,.247.952,1.637,1.637,0,0,1-.247.963,1.255,1.255,0,0,1-1.726,0,1.622,1.622,0,0,1-.248-.963A1.589,1.589,0,0,1,128.874,28.028Zm1.524.428a.62.62,0,0,0-.206-.345.856.856,0,0,0-.91,0,.623.623,0,0,0-.208.345,2.368,2.368,0,0,0-.05.524,2.444,2.444,0,0,0,.05.535.619.619,0,0,0,.208.346.85.85,0,0,0,.91,0,.616.616,0,0,0,.206-.346,2.315,2.315,0,0,0,.052-.535A2.243,2.243,0,0,0,130.4,28.456Z" fill="#00aeef"/><path d="M129.2,31.562v-.294h.83V33.83h-.406V31.562Z" fill="#00aeef"/><path d="M128.874,35.116a1.26,1.26,0,0,1,1.726,0,1.6,1.6,0,0,1,.247.951,1.638,1.638,0,0,1-.247.964,1.255,1.255,0,0,1-1.726,0,1.623,1.623,0,0,1-.248-.964A1.588,1.588,0,0,1,128.874,35.116Zm1.524.428a.617.617,0,0,0-.206-.345.856.856,0,0,0-.91,0,.62.62,0,0,0-.208.345,2.365,2.365,0,0,0-.05.523,2.437,2.437,0,0,0,.05.535.621.621,0,0,0,.208.347.85.85,0,0,0,.91,0,.619.619,0,0,0,.206-.347,2.309,2.309,0,0,0,.052-.535A2.24,2.24,0,0,0,130.4,35.544Z" fill="#00aeef"/><path d="M129.2,38.649v-.294h.83v2.563h-.406V38.649Z" fill="#00aeef"/><path d="M128.874,42.2a1.26,1.26,0,0,1,1.726,0,1.6,1.6,0,0,1,.247.951,1.632,1.632,0,0,1-.247.963,1.255,1.255,0,0,1-1.726,0,1.618,1.618,0,0,1-.248-.963A1.586,1.586,0,0,1,128.874,42.2Zm1.524.428a.617.617,0,0,0-.206-.345.856.856,0,0,0-.91,0,.62.62,0,0,0-.208.345,2.359,2.359,0,0,0-.05.523,2.437,2.437,0,0,0,.05.535.621.621,0,0,0,.208.347.856.856,0,0,0,.91,0,.619.619,0,0,0,.206-.347,2.309,2.309,0,0,0,.052-.535A2.234,2.234,0,0,0,130.4,42.632Z" fill="#00aeef"/><path d="M129.2,45.737v-.294h.83v2.563h-.406V45.737Z" fill="#00aeef"/><path d="M129.2,49.281v-.294h.83v2.562h-.406V49.281Z" fill="#00aeef"/><path d="M129.2,52.825v-.294h.83v2.563h-.406V52.825Z" fill="#00aeef"/><path d="M128.874,56.378a1.26,1.26,0,0,1,1.726,0,1.606,1.606,0,0,1,.247.952,1.634,1.634,0,0,1-.247.963,1.255,1.255,0,0,1-1.726,0,1.62,1.62,0,0,1-.248-.963A1.591,1.591,0,0,1,128.874,56.378Zm1.524.428a.614.614,0,0,0-.206-.344.85.85,0,0,0-.91,0,.617.617,0,0,0-.208.344,2.375,2.375,0,0,0-.05.524,2.444,2.444,0,0,0,.05.535.625.625,0,0,0,.208.347.856.856,0,0,0,.91,0,.622.622,0,0,0,.206-.347,2.315,2.315,0,0,0,.052-.535A2.249,2.249,0,0,0,130.4,56.806Z" fill="#00aeef"/><path d="M129.2,59.913v-.294h.83v2.562h-.406V59.913Z" fill="#00aeef"/><path d="M129.2,63.456v-.294h.83v2.563h-.406V63.456Z" fill="#00aeef"/></g><g opacity="0.35"><path d="M93.683,21.341v-.294h.829V23.61h-.406V21.341Z" fill="#00aeef"/><path d="M93.683,24.884V24.59h.829v2.563h-.406V24.884Z" fill="#00aeef"/><path d="M93.357,28.439a1.259,1.259,0,0,1,1.725,0,1.593,1.593,0,0,1,.247.951,1.625,1.625,0,0,1-.247.963,1.253,1.253,0,0,1-1.725,0,1.618,1.618,0,0,1-.248-.963A1.586,1.586,0,0,1,93.357,28.439Zm1.524.428a.618.618,0,0,0-.207-.345.684.684,0,0,0-.452-.131.7.7,0,0,0-.458.131.624.624,0,0,0-.207.345,2.3,2.3,0,0,0-.051.523,2.371,2.371,0,0,0,.051.535.626.626,0,0,0,.207.347.7.7,0,0,0,.458.131.69.69,0,0,0,.452-.131.62.62,0,0,0,.207-.347,2.371,2.371,0,0,0,.051-.535A2.3,2.3,0,0,0,94.881,28.867Z" fill="#00aeef"/><path d="M93.683,31.972v-.294h.829v2.563h-.406V31.972Z" fill="#00aeef"/><path d="M93.357,35.526a1.259,1.259,0,0,1,1.725,0,1.6,1.6,0,0,1,.247.952,1.627,1.627,0,0,1-.247.963,1.253,1.253,0,0,1-1.725,0,1.62,1.62,0,0,1-.248-.963A1.591,1.591,0,0,1,93.357,35.526Zm1.524.429a.618.618,0,0,0-.207-.345.685.685,0,0,0-.452-.132.7.7,0,0,0-.458.132.624.624,0,0,0-.207.345,2.3,2.3,0,0,0-.051.523,2.371,2.371,0,0,0,.051.535.626.626,0,0,0,.207.347.7.7,0,0,0,.458.131.69.69,0,0,0,.452-.131.62.62,0,0,0,.207-.347,2.371,2.371,0,0,0,.051-.535A2.3,2.3,0,0,0,94.881,35.955Z" fill="#00aeef"/><path d="M93.683,39.06v-.294h.829v2.563h-.406V39.06Z" fill="#00aeef"/><path d="M93.357,42.614a1.259,1.259,0,0,1,1.725,0,1.6,1.6,0,0,1,.247.952,1.627,1.627,0,0,1-.247.963,1.253,1.253,0,0,1-1.725,0,1.62,1.62,0,0,1-.248-.963A1.591,1.591,0,0,1,93.357,42.614Zm1.524.428a.622.622,0,0,0-.207-.345.684.684,0,0,0-.452-.131.7.7,0,0,0-.458.131.627.627,0,0,0-.207.345,2.3,2.3,0,0,0-.051.524,2.377,2.377,0,0,0,.051.535.629.629,0,0,0,.207.347.7.7,0,0,0,.458.131.69.69,0,0,0,.452-.131.623.623,0,0,0,.207-.347,2.377,2.377,0,0,0,.051-.535A2.3,2.3,0,0,0,94.881,43.042Z" fill="#00aeef"/><path d="M93.683,46.148v-.294h.829v2.562h-.406V46.148Z" fill="#00aeef"/><path d="M93.683,49.691V49.4h.829V51.96h-.406V49.691Z" fill="#00aeef"/><path d="M93.683,53.236v-.294h.829V55.5h-.406V53.236Z" fill="#00aeef"/><path d="M93.357,56.789a1.259,1.259,0,0,1,1.725,0,1.6,1.6,0,0,1,.247.951,1.631,1.631,0,0,1-.247.964,1.253,1.253,0,0,1-1.725,0,1.623,1.623,0,0,1-.248-.964A1.588,1.588,0,0,1,93.357,56.789Zm1.524.428a.618.618,0,0,0-.207-.345.684.684,0,0,0-.452-.131.7.7,0,0,0-.458.131.624.624,0,0,0-.207.345,2.3,2.3,0,0,0-.051.523,2.371,2.371,0,0,0,.051.535.626.626,0,0,0,.207.347.7.7,0,0,0,.458.132.69.69,0,0,0,.452-.132.62.62,0,0,0,.207-.347,2.371,2.371,0,0,0,.051-.535A2.3,2.3,0,0,0,94.881,57.217Z" fill="#00aeef"/><path d="M93.683,60.323v-.294h.829v2.563h-.406V60.323Z" fill="#00aeef"/><path d="M93.683,63.867v-.294h.829v2.562h-.406V63.867Z" fill="#00aeef"/></g><g opacity="0.35"><path d="M148.289,1.113V.819h.83V3.382h-.406V1.113Z" fill="#00aeef"/><path d="M148.289,4.657V4.363h.83V6.925h-.406V4.657Z" fill="#00aeef"/><path d="M147.962,8.211a1.26,1.26,0,0,1,1.726,0,1.6,1.6,0,0,1,.247.952,1.629,1.629,0,0,1-.247.963,1.255,1.255,0,0,1-1.726,0,1.629,1.629,0,0,1-.247-.963A1.6,1.6,0,0,1,147.962,8.211Zm1.525.428a.623.623,0,0,0-.208-.345.683.683,0,0,0-.452-.131.692.692,0,0,0-.457.131.622.622,0,0,0-.207.345,2.3,2.3,0,0,0-.051.524,2.377,2.377,0,0,0,.051.535.617.617,0,0,0,.207.346.692.692,0,0,0,.457.132.683.683,0,0,0,.452-.132.619.619,0,0,0,.208-.346,2.437,2.437,0,0,0,.051-.535A2.363,2.363,0,0,0,149.487,8.639Z" fill="#00aeef"/><path d="M148.289,11.745v-.294h.83v2.562h-.406V11.745Z" fill="#00aeef"/><path d="M147.962,15.3a1.26,1.26,0,0,1,1.726,0,1.6,1.6,0,0,1,.247.951,1.631,1.631,0,0,1-.247.964,1.255,1.255,0,0,1-1.726,0,1.631,1.631,0,0,1-.247-.964A1.6,1.6,0,0,1,147.962,15.3Zm1.525.428a.62.62,0,0,0-.208-.345.683.683,0,0,0-.452-.131.692.692,0,0,0-.457.131.618.618,0,0,0-.207.345,2.3,2.3,0,0,0-.051.523,2.371,2.371,0,0,0,.051.535.62.62,0,0,0,.207.347.7.7,0,0,0,.457.132.688.688,0,0,0,.452-.132.621.621,0,0,0,.208-.347,2.431,2.431,0,0,0,.051-.535A2.359,2.359,0,0,0,149.487,15.727Z" fill="#00aeef"/><path d="M148.289,18.832v-.294h.83V21.1h-.406V18.832Z" fill="#00aeef"/><path d="M147.962,22.387a1.26,1.26,0,0,1,1.726,0,1.593,1.593,0,0,1,.247.951,1.625,1.625,0,0,1-.247.963,1.255,1.255,0,0,1-1.726,0,1.625,1.625,0,0,1-.247-.963A1.593,1.593,0,0,1,147.962,22.387Zm1.525.428a.62.62,0,0,0-.208-.345.683.683,0,0,0-.452-.131.692.692,0,0,0-.457.131.618.618,0,0,0-.207.345,2.3,2.3,0,0,0-.051.523,2.371,2.371,0,0,0,.051.535.62.62,0,0,0,.207.347.7.7,0,0,0,.457.131.688.688,0,0,0,.452-.131.621.621,0,0,0,.208-.347,2.431,2.431,0,0,0,.051-.535A2.353,2.353,0,0,0,149.487,22.815Z" fill="#00aeef"/><path d="M148.289,25.92v-.294h.83v2.563h-.406V25.92Z" fill="#00aeef"/><path d="M148.289,29.465v-.294h.83v2.562h-.406V29.465Z" fill="#00aeef"/><path d="M148.289,33.008v-.294h.83v2.563h-.406V33.008Z" fill="#00aeef"/><path d="M147.962,36.561a1.26,1.26,0,0,1,1.726,0,1.6,1.6,0,0,1,.247.952,1.627,1.627,0,0,1-.247.963,1.255,1.255,0,0,1-1.726,0,1.627,1.627,0,0,1-.247-.963A1.6,1.6,0,0,1,147.962,36.561Zm1.525.428a.617.617,0,0,0-.208-.344.677.677,0,0,0-.452-.132.686.686,0,0,0-.457.132.615.615,0,0,0-.207.344,2.31,2.31,0,0,0-.051.524,2.377,2.377,0,0,0,.051.535.623.623,0,0,0,.207.347.7.7,0,0,0,.457.131.688.688,0,0,0,.452-.131.625.625,0,0,0,.208-.347,2.437,2.437,0,0,0,.051-.535A2.369,2.369,0,0,0,149.487,36.989Z" fill="#00aeef"/><path d="M148.289,40.1V39.8h.83v2.562h-.406V40.1Z" fill="#00aeef"/><path d="M148.289,43.639v-.294h.83v2.563h-.406V43.639Z" fill="#00aeef"/><path d="M147.962,47.193a1.26,1.26,0,0,1,1.726,0,1.6,1.6,0,0,1,.247.952,1.627,1.627,0,0,1-.247.963,1.255,1.255,0,0,1-1.726,0,1.627,1.627,0,0,1-.247-.963A1.6,1.6,0,0,1,147.962,47.193Zm1.525.429a.62.62,0,0,0-.208-.345.677.677,0,0,0-.452-.132.686.686,0,0,0-.457.132.618.618,0,0,0-.207.345,2.3,2.3,0,0,0-.051.523,2.371,2.371,0,0,0,.051.535.62.62,0,0,0,.207.347.7.7,0,0,0,.457.131.688.688,0,0,0,.452-.131.621.621,0,0,0,.208-.347,2.431,2.431,0,0,0,.051-.535A2.353,2.353,0,0,0,149.487,47.622Z" fill="#00aeef"/><path d="M147.962,50.737a1.26,1.26,0,0,1,1.726,0,1.6,1.6,0,0,1,.247.951,1.631,1.631,0,0,1-.247.964,1.255,1.255,0,0,1-1.726,0,1.631,1.631,0,0,1-.247-.964A1.6,1.6,0,0,1,147.962,50.737Zm1.525.428a.62.62,0,0,0-.208-.345.683.683,0,0,0-.452-.131.692.692,0,0,0-.457.131.618.618,0,0,0-.207.345,2.3,2.3,0,0,0-.051.523,2.371,2.371,0,0,0,.051.535.62.62,0,0,0,.207.347.7.7,0,0,0,.457.132.688.688,0,0,0,.452-.132.621.621,0,0,0,.208-.347,2.431,2.431,0,0,0,.051-.535A2.359,2.359,0,0,0,149.487,51.165Z" fill="#00aeef"/><path d="M147.962,54.281a1.26,1.26,0,0,1,1.726,0,1.6,1.6,0,0,1,.247.952,1.627,1.627,0,0,1-.247.963,1.255,1.255,0,0,1-1.726,0,1.627,1.627,0,0,1-.247-.963A1.6,1.6,0,0,1,147.962,54.281Zm1.525.428a.623.623,0,0,0-.208-.345.683.683,0,0,0-.452-.131.692.692,0,0,0-.457.131.622.622,0,0,0-.207.345,2.3,2.3,0,0,0-.051.524,2.377,2.377,0,0,0,.051.535.623.623,0,0,0,.207.347.7.7,0,0,0,.457.131.688.688,0,0,0,.452-.131.625.625,0,0,0,.208-.347,2.437,2.437,0,0,0,.051-.535A2.363,2.363,0,0,0,149.487,54.709Z" fill="#00aeef"/><path d="M148.289,57.815v-.294h.83v2.562h-.406V57.815Z" fill="#00aeef"/><path d="M147.962,61.368a1.26,1.26,0,0,1,1.726,0,1.6,1.6,0,0,1,.247.951,1.631,1.631,0,0,1-.247.964,1.255,1.255,0,0,1-1.726,0,1.631,1.631,0,0,1-.247-.964A1.6,1.6,0,0,1,147.962,61.368Zm1.525.428a.623.623,0,0,0-.208-.345.683.683,0,0,0-.452-.131.692.692,0,0,0-.457.131.622.622,0,0,0-.207.345,2.3,2.3,0,0,0-.051.523,2.387,2.387,0,0,0,.051.536.617.617,0,0,0,.207.346.692.692,0,0,0,.457.132.683.683,0,0,0,.452-.132.619.619,0,0,0,.208-.346,2.447,2.447,0,0,0,.051-.536A2.359,2.359,0,0,0,149.487,61.8Z" fill="#00aeef"/><path d="M148.289,64.9v-.294h.83v2.562h-.406V64.9Z" fill="#00aeef"/></g><path d="M67.242,31.736v.8H54.883v9.692H64.917v3.052H54.883V58.235h0a3.733,3.733,0,0,1-3.712-3.754V31.394a1.9,1.9,0,0,1,1.886-1.906H65.019A2.235,2.235,0,0,1,67.242,31.736Z" fill="#fff"/><path d="M89.226,32.54H81.477v25.7H77.765V32.54h-7.79a3.035,3.035,0,0,1,3.018-3.052H86.208A3.035,3.035,0,0,1,89.226,32.54Z" fill="#fff"/><path d="M110.374,43.862q-2.427,2.371-7.4,2.371H97.506v8.248a3.733,3.733,0,0,1-3.712,3.754h0V31.616a2.116,2.116,0,0,1,2.1-2.128h7.073q4.812,0,7.321,2.351A7.936,7.936,0,0,1,112.8,37.9,7.992,7.992,0,0,1,110.374,43.862Zm-2.835-2.083a5.026,5.026,0,0,0,1.469-3.877q0-5.321-6.037-5.321H97.506V43.14h5.465A6.55,6.55,0,0,0,107.539,41.779Z" fill="#fff"/></g></g></svg>