<svg xmlns="http://www.w3.org/2000/svg" xmlns:xlink="http://www.w3.org/1999/xlink" viewBox="0 0 150.084 150"><defs><linearGradient id="linear-gradient" x1="354.88" y1="-5.665" x2="378.071" y2="-5.665" gradientTransform="translate(473.283 1.307) rotate(180)" gradientUnits="userSpaceOnUse"><stop offset="0" stop-color="#4b59ef"/><stop offset="0.211" stop-color="#465cf0"/><stop offset="0.459" stop-color="#3863f3"/><stop offset="0.725" stop-color="#2070f8"/><stop offset="1" stop-color="#0081fe"/></linearGradient><linearGradient id="linear-gradient-2" x1="361.021" y1="-8.502" x2="371.929" y2="-8.502" xlink:href="#linear-gradient"/><linearGradient id="linear-gradient-3" y1="55.379" x2="122.929" y2="55.379" gradientUnits="userSpaceOnUse"><stop offset="0" stop-color="#f15a29"/><stop offset="0.035" stop-color="#f25f26"/><stop offset="0.282" stop-color="#f77e16"/><stop offset="0.524" stop-color="#fb940a"/><stop offset="0.754" stop-color="#fda103"/><stop offset="0.961" stop-color="#fea601"/></linearGradient><linearGradient id="linear-gradient-4" x1="34.599" y1="93.06" x2="150.084" y2="93.06" gradientTransform="matrix(1, 0, 0, 1, 0, 0)" xlink:href="#linear-gradient"/><linearGradient id="linear-gradient-5" x1="34.599" y1="132.432" x2="150.084" y2="132.432" gradientTransform="matrix(1, 0, 0, 1, 0, 0)" xlink:href="#linear-gradient"/></defs><g id="Layer_2" data-name="Layer 2"><g id="Layer_4" data-name="Layer 4"><path d="M101.354,10.962a5.457,5.457,0,0,1,10.908,0,5.148,5.148,0,0,1-.954,2.983h.677a5.676,5.676,0,0,0,.851-2.983,6.031,6.031,0,0,0-12.056,0,5.685,5.685,0,0,0,.851,2.983h.677A5.148,5.148,0,0,1,101.354,10.962Z" fill="none"/><path d="M111.871,10.962a5.065,5.065,0,0,0-10.126,0,4.783,4.783,0,0,0,1.052,2.983h8.022A4.783,4.783,0,0,0,111.871,10.962Z" fill="none"/><path d="M95.213,11.51c.292,1.243.409,1.74.573,2.435h5.845a5.685,5.685,0,0,1-.851-2.983,6.031,6.031,0,0,1,12.056,0,5.676,5.676,0,0,1-.851,2.983h5.845c.164-.7.281-1.192.573-2.435L116.122,10,115.677,8.1l1.377-2.324L114.4,2.551l-2.643.785-1.8-.843L108.937,0h-4.258l-1.015,2.493-1.8.843-2.643-.785L96.562,5.779,97.939,8.1,97.494,10Z" fill="url(#linear-gradient)"/><path d="M106.808,5.673a5.379,5.379,0,0,0-5.454,5.289,5.148,5.148,0,0,0,.954,2.983h.489a4.783,4.783,0,0,1-1.052-2.983,5.065,5.065,0,0,1,10.126,0,4.783,4.783,0,0,1-1.052,2.983h.489a5.148,5.148,0,0,0,.954-2.983A5.379,5.379,0,0,0,106.808,5.673Z" fill="url(#linear-gradient-2)"/></g><g id="Layer_3" data-name="Layer 3"><rect y="13.334" width="122.929" height="84.09" rx="1.945" fill="url(#linear-gradient-3)"/><path d="M70.739,55.723c3.763,2.576,7.4,5.305,10.995,8.086s7.128,5.634,10.641,8.514c3.488,2.908,6.961,5.836,10.359,8.854s6.768,6.07,10,9.286c-3.766-2.574-7.4-5.3-11-8.084S94.612,76.745,91.1,73.863c-3.488-2.91-6.96-5.838-10.358-8.856S73.975,58.937,70.739,55.723Z" fill="#fff"/><path d="M10.249,90.463c3.236-3.214,6.6-6.276,10-9.284s6.871-5.946,10.358-8.856c3.511-2.882,7.038-5.744,10.639-8.516s7.231-5.509,11-8.084c-3.234,3.216-6.595,6.279-10,9.287s-6.871,5.945-10.359,8.853c-3.513,2.88-7.04,5.742-10.641,8.514S14.012,87.887,10.249,90.463Z" fill="#fff"/><path d="M9.487,19.824c4.475,3.409,8.869,6.917,13.305,10.373L35.971,40.722Q49.119,51.287,62.1,62.047H60.827Q73.838,51.319,86.955,40.72L100.134,30.2c4.438-3.455,8.831-6.963,13.307-10.371-4.187,3.758-8.456,7.416-12.682,11.126L87.95,41.922Q75.108,52.854,62.1,63.588l-.637.528-.637-.528Q47.852,52.816,34.98,41.92L22.171,30.948C17.945,27.238,13.675,23.581,9.487,19.824Z" fill="#fff"/><rect x="32.57" y="73.375" width="117.515" height="48.098" rx="11.995" fill="#fff"/><path d="M138.8,75.492H45.885A11.308,11.308,0,0,0,34.6,86.821V99.3a11.308,11.308,0,0,0,11.286,11.329H138.8A11.308,11.308,0,0,0,150.084,99.3V86.821A11.308,11.308,0,0,0,138.8,75.492ZM50.318,102.311c-2.308,0-4.18-4.142-4.18-9.251s1.872-9.251,4.18-9.251,4.18,4.142,4.18,9.251S52.626,102.311,50.318,102.311Zm11.146,0c-2.308,0-4.18-4.142-4.18-9.251s1.872-9.251,4.18-9.251,4.18,4.142,4.18,9.251S63.773,102.311,61.464,102.311Zm11.146,0c-2.308,0-4.179-4.142-4.179-9.251s1.871-9.251,4.179-9.251,4.18,4.142,4.18,9.251S74.919,102.311,72.61,102.311Zm29.9,2.208A11.459,11.459,0,1,1,113.924,93.06,11.437,11.437,0,0,1,102.508,104.519Zm27.866,0A11.459,11.459,0,1,1,141.79,93.06,11.437,11.437,0,0,1,130.374,104.519Z" fill="url(#linear-gradient-4)"/><path d="M138.8,114.864H45.885A11.308,11.308,0,0,0,34.6,126.193v12.478A11.308,11.308,0,0,0,45.885,150H138.8a11.308,11.308,0,0,0,11.287-11.329V126.193A11.308,11.308,0,0,0,138.8,114.864ZM50.318,141.683c-2.308,0-4.18-4.142-4.18-9.251s1.872-9.251,4.18-9.251,4.18,4.142,4.18,9.251S52.626,141.683,50.318,141.683Zm11.146,0c-2.308,0-4.18-4.142-4.18-9.251s1.872-9.251,4.18-9.251,4.18,4.142,4.18,9.251S63.773,141.683,61.464,141.683Zm11.146,0c-2.308,0-4.179-4.142-4.179-9.251s1.871-9.251,4.179-9.251,4.18,4.142,4.18,9.251S74.919,141.683,72.61,141.683Zm29.9,2.208a11.459,11.459,0,1,1,11.416-11.459A11.437,11.437,0,0,1,102.508,143.891Zm27.866,0a11.459,11.459,0,1,1,11.416-11.459A11.437,11.437,0,0,1,130.374,143.891Z" fill="url(#linear-gradient-5)"/></g></g></svg>