<svg xmlns="http://www.w3.org/2000/svg" xmlns:xlink="http://www.w3.org/1999/xlink" viewBox="0 0 149.908 149.994"><defs><linearGradient id="linear-gradient" y1="46.563" x2="149.908" y2="46.563" gradientUnits="userSpaceOnUse"><stop offset="0" stop-color="#53d8ff"/><stop offset="1" stop-color="#3840f7"/></linearGradient><linearGradient id="linear-gradient-2" x1="30.271" y1="63.249" x2="122.13" y2="63.249" xlink:href="#linear-gradient"/><linearGradient id="linear-gradient-3" x1="30.271" y1="89.857" x2="122.13" y2="89.857" xlink:href="#linear-gradient"/><linearGradient id="linear-gradient-4" x1="30.271" y1="116.465" x2="122.13" y2="116.465" xlink:href="#linear-gradient"/><linearGradient id="linear-gradient-5" x1="73.917" y1="137.985" x2="78.485" y2="137.985" gradientTransform="translate(-61.784 214.186) rotate(-90)" xlink:href="#linear-gradient"/><linearGradient id="linear-gradient-6" x1="69.231" y1="146.705" x2="83.057" y2="146.705" xlink:href="#linear-gradient"/><linearGradient id="linear-gradient-7" x1="83.057" y1="146.705" x2="122.13" y2="146.705" xlink:href="#linear-gradient"/><linearGradient id="linear-gradient-8" x1="30.271" y1="146.705" x2="69.345" y2="146.705" xlink:href="#linear-gradient"/><linearGradient id="linear-gradient-9" x1="45.177" y1="46.683" x2="83.008" y2="46.683" xlink:href="#linear-gradient"/></defs><g id="Layer_2" data-name="Layer 2"><g id="Layer_1-2" data-name="Layer 1"><path d="M149.869,66.12a33.52,33.52,0,0,0-11.18-22.982c1.827-7.972-1.65-16.1-8.464-19.122-5.023-2.229-9.985-.69-12.89.692a14.911,14.911,0,0,0-17.187-4.283C94.876,6.6,81.247-2.192,68.231.477,59.879,2.187,52.7,8.59,48.97,17.467A12.526,12.526,0,0,0,35.5,23.489a23.069,23.069,0,0,0-24.625,7.632A23.611,23.611,0,0,0,9.249,57.939C5.5,61.108-.732,67.578.071,75.03.513,79.14,3.043,83.178,7.193,86.4c6.463,5.017,15.61,7.326,25.516,6.6V87.027c-8.559.7-16.586-1.217-21.906-5.349-2.821-2.189-4.59-4.847-4.853-7.292-.553-5.128,5.42-10.832,9.038-13.393l2.585-1.83L15.59,56.685a17.589,17.589,0,0,1-.114-21.824,17.191,17.191,0,0,1,20.388-4.9l3.042,1.347.974-3.2a7.153,7.153,0,0,1,3.282-4.134,7.357,7.357,0,0,1,6.358-.142l3.026,1.417,1.032-3.2C56.239,13.8,62.3,7.772,69.41,6.316,80.473,4.059,92.2,12.641,95.557,25.461l1.1,4.2,3.488-2.541a9.986,9.986,0,0,1,8.189-1.511,9.775,9.775,0,0,1,5.562,4.48l1.624,2.865,2.672-1.913c.05-.036,5.086-3.583,9.652-1.565,3.929,1.741,6.838,7.478,4.684,13.71l-.683,1.982,1.62,1.317a27.741,27.741,0,0,1,10.5,19.94c.287,5.713-1.434,10.865-4.72,14.137-4.5,4.477-12.255,5.708-20,3.489v6.168c9.248,2.138,18.5.22,24.16-5.417C147.883,80.333,150.241,73.526,149.869,66.12Z" fill="url(#linear-gradient)"/><rect x="30.271" y="51.662" width="91.859" height="23.173" fill="url(#linear-gradient-2)"/><rect x="81.026" y="60.067" width="32.049" height="6.724" fill="#fff"/><ellipse cx="37.301" cy="57.726" rx="2.323" ry="2.341" fill="#fff"/><rect x="30.271" y="78.27" width="91.859" height="23.173" fill="url(#linear-gradient-3)"/><rect x="81.026" y="86.675" width="32.049" height="6.724" fill="#fff"/><ellipse cx="37.301" cy="84.334" rx="2.323" ry="2.341" fill="#fff"/><rect x="30.271" y="104.878" width="91.859" height="23.173" fill="url(#linear-gradient-4)"/><rect x="81.026" y="113.283" width="32.049" height="6.724" fill="#fff"/><ellipse cx="37.301" cy="110.941" rx="2.323" ry="2.341" fill="#fff"/><rect x="67.02" y="135.701" width="18.363" height="4.568" transform="translate(214.186 61.784) rotate(90)" fill="url(#linear-gradient-5)"/><rect x="69.231" y="143.415" width="13.826" height="6.579" fill="url(#linear-gradient-6)"/><rect x="83.057" y="144.398" width="39.074" height="4.614" fill="url(#linear-gradient-7)"/><rect x="30.271" y="144.398" width="39.074" height="4.614" fill="url(#linear-gradient-8)"/><path d="M79.287,48.318l3.721-2.564-1.546-6.815L77,38.254l-2.036-2.57.328-4.526-6.259-3.033-3.312,3.08H62.459l-3.312-3.08-6.258,3.033.328,4.526-2.036,2.57-4.459.685c-.753,3.323-.792,3.492-1.545,6.815L48.9,48.318l.726,3.2-2.247,3.935,4.331,5.465,4.313-1.329,2.942,1.426,1.656,4.221h6.947l1.656-4.221,2.942-1.426,4.312,1.329,4.331-5.465L78.56,51.522C78.839,50.29,79.007,49.55,79.287,48.318Zm-15.2,8.557a9.887,9.887,0,1,1,9.825-9.886A9.855,9.855,0,0,1,64.092,56.875Z" stroke="#fff" stroke-miterlimit="10" stroke-width="0.5" fill="url(#linear-gradient-9)"/></g></g></svg>