<svg xmlns="http://www.w3.org/2000/svg" xmlns:xlink="http://www.w3.org/1999/xlink" viewBox="0 0 149.426 150.352"><defs><linearGradient id="linear-gradient" x1="54.46" y1="12.718" x2="100.552" y2="12.718" gradientUnits="userSpaceOnUse"><stop offset="0" stop-color="#53d8ff"/><stop offset="1" stop-color="#3840f7"/></linearGradient><linearGradient id="linear-gradient-2" x1="19.063" y1="130.123" x2="131.631" y2="130.123" gradientUnits="userSpaceOnUse"><stop offset="0" stop-color="#4b59ef"/><stop offset="0.211" stop-color="#465cf0"/><stop offset="0.459" stop-color="#3863f3"/><stop offset="0.725" stop-color="#2070f8"/><stop offset="1" stop-color="#0081fe"/></linearGradient><linearGradient id="linear-gradient-3" x1="15.473" y1="130.255" x2="135.05" y2="130.255" xlink:href="#linear-gradient-2"/><linearGradient id="linear-gradient-4" x1="13.296" y1="130.146" x2="136.85" y2="130.146" xlink:href="#linear-gradient-2"/><linearGradient id="linear-gradient-5" x1="19.063" y1="87.59" x2="131.631" y2="87.59" xlink:href="#linear-gradient-2"/><linearGradient id="linear-gradient-6" x1="15.473" y1="87.399" x2="135.05" y2="87.399" xlink:href="#linear-gradient-2"/><linearGradient id="linear-gradient-7" x1="13.296" y1="87.29" x2="136.85" y2="87.29" xlink:href="#linear-gradient-2"/><linearGradient id="linear-gradient-8" x1="19.252" y1="44.544" x2="131.82" y2="44.544" xlink:href="#linear-gradient-2"/><linearGradient id="linear-gradient-9" x1="15.936" y1="44.653" x2="135.513" y2="44.653" xlink:href="#linear-gradient-2"/><linearGradient id="linear-gradient-10" x1="13.759" y1="44.544" x2="137.313" y2="44.544" xlink:href="#linear-gradient-2"/><linearGradient id="linear-gradient-11" x1="32.094" y1="88.435" x2="53.25" y2="88.435" gradientTransform="matrix(-0.998, -0.058, -0.058, 0.998, 58.39, 2.723)" xlink:href="#linear-gradient-2"/><linearGradient id="linear-gradient-12" x1="50.975" y1="89.79" x2="72.262" y2="89.79" gradientTransform="matrix(0.672, -0.039, 0.058, 0.998, 95.547, 1.878)" xlink:href="#linear-gradient-2"/></defs><g id="Layer_2" data-name="Layer 2"><g id="Layer_4" data-name="Layer 4"><path d="M65.537,24.07a11.979,11.979,0,1,1,23.938,0c0,.359-.023.712-.051,1.064h7.452l3.676-2.62c-.919-4.187-.965-4.4-1.884-8.586l-5.431-.864L90.756,9.827l.4-5.7L83.531.3,79.5,4.184H75.517L71.481.3,63.856,4.124l.4,5.7-2.481,3.237-5.431.864c-.919,4.187-.965,4.4-1.884,8.586l3.676,2.62h7.452C65.56,24.782,65.537,24.429,65.537,24.07Z" stroke="#fff" stroke-miterlimit="10" stroke-width="0.5" fill="url(#linear-gradient)"/><path d="M19.063,116.933v26.38H131.631v-26.38Zm77.944,20.908c-3.4,0-6.147-3.456-6.147-7.718s2.752-7.718,6.147-7.718,6.148,3.456,6.148,7.718S100.4,137.841,97.007,137.841Zm14.132-1.594c-2.694,0-4.878-2.742-4.878-6.124S108.445,124,111.139,124s4.878,2.742,4.878,6.124S113.833,136.247,111.139,136.247Zm10.893-1.794c-1.905,0-3.449-1.938-3.449-4.33s1.544-4.33,3.449-4.33,3.449,1.939,3.449,4.33S123.937,134.453,122.032,134.453Z" fill="url(#linear-gradient-2)"/><path d="M135.05,148.131H15.473V112.379H135.05ZM18.041,144.907H132.483V115.6H18.041Z" fill="url(#linear-gradient-3)"/><path d="M132.957,150.352H17.189c-2.146,0-3.893-2.193-3.893-4.888V114.828c0-2.7,1.747-4.888,3.893-4.888H132.957c2.146,0,3.893,2.193,3.893,4.888v30.636C136.85,148.159,135.1,150.352,132.957,150.352ZM17.189,113.164a1.525,1.525,0,0,0-1.325,1.664v30.636a1.525,1.525,0,0,0,1.325,1.664H132.957a1.525,1.525,0,0,0,1.325-1.664V114.828a1.525,1.525,0,0,0-1.325-1.664Z" fill="url(#linear-gradient-4)"/><path d="M19.063,74.4v26.38H131.631V74.4ZM93.426,93.714c-2.694,0-4.878-2.742-4.878-6.124s2.184-6.124,4.878-6.124S98.3,84.208,98.3,87.59,96.12,93.714,93.426,93.714Zm14.013,1.594c-3.395,0-6.148-3.456-6.148-7.718s2.753-7.718,6.148-7.718,6.147,3.456,6.147,7.718S110.834,95.308,107.439,95.308Zm12.111-2.921c-1.905,0-3.449-1.939-3.449-4.331s1.544-4.33,3.449-4.33S123,85.665,123,88.056,121.455,92.387,119.55,92.387Z" fill="url(#linear-gradient-5)"/><path d="M135.05,105.275H15.473V69.523H135.05ZM18.041,102.052H132.483V72.747H18.041Z" fill="url(#linear-gradient-6)"/><path d="M132.957,107.5H17.189c-2.146,0-3.893-2.193-3.893-4.888V71.972c0-2.695,1.747-4.888,3.893-4.888H132.957c2.146,0,3.893,2.193,3.893,4.888v30.636C136.85,105.3,135.1,107.5,132.957,107.5ZM17.189,70.308a1.525,1.525,0,0,0-1.325,1.664v30.636a1.525,1.525,0,0,0,1.325,1.664H132.957a1.525,1.525,0,0,0,1.325-1.664V71.972a1.525,1.525,0,0,0-1.325-1.664Z" fill="url(#linear-gradient-7)"/><path d="M19.252,31.354v26.38H131.82V31.354ZM94.5,48.874c-1.905,0-3.449-1.939-3.449-4.33s1.544-4.331,3.449-4.331,3.449,1.939,3.449,4.331S96.4,48.874,94.5,48.874Zm10.893,1.794c-2.694,0-4.878-2.742-4.878-6.124s2.184-6.124,4.878-6.124,4.878,2.741,4.878,6.124S108.085,50.668,105.391,50.668Zm14.131,1.593c-3.4,0-6.147-3.455-6.147-7.717s2.752-7.718,6.147-7.718,6.148,3.455,6.148,7.718S122.918,52.261,119.522,52.261Z" fill="url(#linear-gradient-8)"/><path d="M135.513,62.529H15.936V26.777H135.513ZM18.5,59.305H132.946V30H18.5Z" fill="url(#linear-gradient-9)"/><path d="M133.419,64.749H17.652c-2.146,0-3.893-2.192-3.893-4.887V29.226c0-2.695,1.747-4.888,3.893-4.888H133.419c2.147,0,3.894,2.193,3.894,4.888V59.862C137.313,62.557,135.566,64.749,133.419,64.749ZM17.652,27.562a1.525,1.525,0,0,0-1.325,1.664V59.862a1.525,1.525,0,0,0,1.325,1.663H133.419a1.525,1.525,0,0,0,1.326-1.663V29.226a1.525,1.525,0,0,0-1.326-1.664Z" fill="url(#linear-gradient-10)"/><path d="M15.053,36a17.7,17.7,0,0,0-6.876,5.568,21.22,21.22,0,0,0-2.5,4.265,24.684,24.684,0,0,0-1.546,4.992,26.607,26.607,0,0,0,.117,10.7,23.759,23.759,0,0,0,4.163,9.348l.113-2.006a26.762,26.762,0,0,0-3.44,4.324,29.463,29.463,0,0,0-2.674,5.1A31.074,31.074,0,0,0,.654,84.03l-.161.747-.11.762L.167,87.065.06,88.608a13.763,13.763,0,0,0-.053,1.546,33.828,33.828,0,0,0,.548,6.12,32.136,32.136,0,0,0,1.7,5.74,27.138,27.138,0,0,0,2.662,5.053,25.052,25.052,0,0,0,3.463,4.185l-.253-1.75a32.27,32.27,0,0,0-2.762,9.919,27.534,27.534,0,0,0,.7,10.4,20.7,20.7,0,0,0,1.867,4.648,16.3,16.3,0,0,0,2.849,3.687,13.611,13.611,0,0,0,7.381,3.594,15.088,15.088,0,0,1-6.873-4.394,17.789,17.789,0,0,1-3.915-8.077,23.346,23.346,0,0,1-.538-4.734,26.5,26.5,0,0,1,.3-4.778,30.98,30.98,0,0,1,2.774-8.9l.479-1-.733-.746A25.822,25.822,0,0,1,4.3,100.657a28.839,28.839,0,0,1-1.47-5.1,30.1,30.1,0,0,1-.444-5.408c-.026-.909.085-1.812.123-2.719L2.69,86.08l.091-.673.139-.66a27.63,27.63,0,0,1,1.527-5.128A28.865,28.865,0,0,1,9.8,70.981L10.72,70l-.805-1.021a21.887,21.887,0,0,1-3.931-8.131,25.345,25.345,0,0,1-.5-9.659A22.56,22.56,0,0,1,8.78,42.255,20.073,20.073,0,0,1,15.053,36Z" fill="url(#linear-gradient-11)"/><path d="M138.34,36.552a15.339,15.339,0,0,1,4.731,5.7,26.363,26.363,0,0,1,1.759,4.312,34.917,34.917,0,0,1,1.128,5.019,39.116,39.116,0,0,1,.106,10.685,29.133,29.133,0,0,1-2.646,9.251l-.111-2.006a29.418,29.418,0,0,1,2.394,4.39,37.87,37.87,0,0,1,1.891,5.145,44.077,44.077,0,0,1,1.282,5.777l.122.749.087.764.172,1.528.1,1.544c.032.515.069,1.031.062,1.545a49.267,49.267,0,0,1-.264,6.1,43.156,43.156,0,0,1-1.045,5.7,31.782,31.782,0,0,1-1.708,4.992,23.855,23.855,0,0,1-2.262,4.108l.141-1.743a46.05,46.05,0,0,1,2.032,9.966,40.123,40.123,0,0,1-.291,10.378,26.17,26.17,0,0,1-1.179,4.6,16.007,16.007,0,0,1-1.857,3.624,7.945,7.945,0,0,1-4.914,3.437,10.006,10.006,0,0,0,4.558-4.247,21.218,21.218,0,0,0,2.5-7.986,33.76,33.76,0,0,0,.281-4.717,39.489,39.489,0,0,0-.285-4.78,43.741,43.741,0,0,0-2.023-8.947l-.341-1.014.481-.73a27.936,27.936,0,0,0,3.464-8.343,38.963,38.963,0,0,0,.9-5.068,44,44,0,0,0,.206-5.393c0-.907-.088-1.812-.129-2.718l-.147-1.348-.073-.674-.1-.663a39.3,39.3,0,0,0-1.118-5.153,35.035,35.035,0,0,0-3.758-8.741l-.636-1,.525-1a26.207,26.207,0,0,0,2.51-8.039,37.063,37.063,0,0,0,.168-9.638,31.03,31.03,0,0,0-2.374-8.989A19.576,19.576,0,0,0,138.34,36.552Z" fill="url(#linear-gradient-12)"/></g></g></svg>