<svg xmlns="http://www.w3.org/2000/svg" viewBox="0 0 125.2 69.7"><defs><style>.a{fill:#094e8e;}.b{fill:#fff;}.c{fill:none;stroke:#fffeff;stroke-linecap:round;stroke-linejoin:round;stroke-width:0.49px;}.d{fill:#231f20;opacity:0.6;}</style></defs><path class="a" d="M20.4,14.7s-6.9.5-8.6-.4A7.3,7.3,0,0,1,9,11.5a6.8,6.8,0,0,0-2.2,5.9c.2,1.9,4.1,6,8.1,9.3S25,36,30,40.6q2.1,2.1,4.2,3.9c0,.6-1,1.8-1.3,2.3L32,48.3l-2.6,3.6c-1.6,2-3.6,4.4-6.2,5-5.1,1.2-5.8,0-5.8,0s-.8-.4-3.5.3c0,0,.4,3.1,4.5,4a8.6,8.6,0,0,0,7.1-2.1h1.3l2.1-.3,4.1-1a32.8,32.8,0,0,0,9.4-4.1l5.4-3.1c.4-.2,2.4.4,2.9.5H51c.1.1.1.3.2.4.7,2,2.4,2.4,4,3.5a8.1,8.1,0,0,1,2.2,3.8l.7,2.1c-.7.4-6,3.4-4.6,4.3a1,1,0,0,0,.7.2,9.9,9.9,0,0,0,4.2-.1c1.7-.4,4.9-3.5,3.8-5.5l-1-2c-.6-1,1-2.2,1.6-2.9a2.6,2.6,0,0,0,.5-.9c.2-.5,0-1.1.1-1.6s.2-.6.8-.5a24.8,24.8,0,0,0,10.5-.6v1.9l.4.5L77,54.9,78.7,56c.7.6.6.9.6,1.8a.4.4,0,0,1-.1.3c-.2.5-1.6,1-2,1.3a4.4,4.4,0,0,1-1.5.8H68.6c-.1,0-.7-.1-.8,0s.5,1.4.8,1.7a6.2,6.2,0,0,0,2.6,1.2c1.6.4,4.1.9,5.6-.1s2.7-1,3.9-1.6a13.5,13.5,0,0,0,4.4-3.8.8.8,0,0,0,.2-.4c.1-.3-.2-.5-.3-.7s-1-2.8-1-4.3a5,5,0,0,1,.2-1.7,7.6,7.6,0,0,1,1.1-1.4l3.8-3.6c.6-.7,2.3.6,3,.9l2.5,1.3c3.2,1.3,6.8,2.5,10.4,2.4,1.9,0,3.6,1.4,5.1,2.5a28.5,28.5,0,0,1,4.9,4.3,10.9,10.9,0,0,0,2.4,2.4,3.9,3.9,0,0,0,3.3.5,7,7,0,0,0-.9-3.7c-2.2-4.3-6.5-7.1-10.9-9.2a19.6,19.6,0,0,1-3.2-1.7,11.6,11.6,0,0,1-3.6-4.6,12.6,12.6,0,0,0-1.3-2.6c-1.6-2.1-4-3.4-5-5.9s3-7.1,3-7.1V17.2a10,10,0,0,1,1.6-1.9c1.3-1.2,2.5-1,4.2-.9a3.3,3.3,0,0,0-2.5-.8,8.5,8.5,0,0,0,3.8-.9,5.1,5.1,0,0,1-3-.1c2.3,0,4.7-.1,6.6-1.2a9.4,9.4,0,0,1-4.1,0,16.3,16.3,0,0,0,5.7-1.3,11.8,11.8,0,0,1-5.6.4c3.2-1.1,6.9-2.7,8.9-5.5,0,0-3.3,2.2-4.2,2.2s3.6-2.3,5.1-5c0,0-2.7,2.2-3.3,1.9l.9-1.5a22.6,22.6,0,0,1-2.5-.1,19.8,19.8,0,0,0-4.2.3c-3.8.8-6.7,3.4-9.3,6.2a17.3,17.3,0,0,0-4.2,9.8V19s0,4.9-1.2,5.4-5.5.2-5.9-.5-11.5-5.6-23.2-2.6a83.1,83.1,0,0,0-15.3,5.8c-4.3,2.1-10.5,3.1-14.4-.3-1.2-1-1.8-2.7-2.4-4a14.2,14.2,0,0,0-2.1-2.9,15.7,15.7,0,0,0-6.4-5l-1.6-.5v.3"/><path class="b" d="M20.5,15.1a38.1,38.1,0,0,1,2.7,8.8c.5,4.2,2.4,9.1,7.5,10.5s15,1.6,18.1,3.9c0,0,4.6,1.1,5.9,2.8,0,0,18.1,1,30-5.2,0,0,7.8-3.9,8-6.3s-5-3.5-5-3.5l-2-2.4c-.3-.4-12.1-4.2-20.3-2.7-5.7,1.1-11.3,3.3-16.6,5.4-2.4,1-4.6,2.1-7.1,2.4a16.9,16.9,0,0,1-7.4-1c-2.2-1-3-3-3.9-5.1a22.7,22.7,0,0,0-1.8-2.5,15,15,0,0,0-4.4-4.3,11.1,11.1,0,0,0-2.7-1.2l-1.2-.3Z"/><path class="a" d="M25,20.7a.9.9,0,0,0,0,1.5,6.8,6.8,0,0,0,2.5,2c.6.2,2.2-1,2.2-1a3,3,0,0,0-2.4-2.6A2.6,2.6,0,0,0,25,20.7Z"/><path class="a" d="M28.4,19.3c-.2.1-.7.8.2,1.5a9.3,9.3,0,0,0,2.9,1.4c.6,0,1.9-1.4,1.9-1.4a2.9,2.9,0,0,0-2.8-2.1A2.3,2.3,0,0,0,28.4,19.3Z"/><path class="c" d="M16.6,17.1s-.6.3-.4.8,1.5.8,1.5.8"/><ellipse class="d" cx="60.6" cy="64" rx="50.9" ry="2"/></svg>