<svg version="1.1" id="Layer_1" xmlns="http://www.w3.org/2000/svg" x="0" y="0" viewBox="0 0 200 200" style="enable-background:new 0 0 200 200" xml:space="preserve"><style>.st0{display:none}.st1{display:inline}.st2{fill:#5c6a86}.st3{fill:#e2e3e5}.st4{fill:#fff;stroke:#303c64;stroke-width:1.5;stroke-miterlimit:10}.st5{fill:#0f4d92}.st6{fill:#1f8ac0}.st7{fill:#fc929c}.st8{stroke-linejoin:round}.st8,.st9{fill:none;stroke:#303c64;stroke-width:1.5;stroke-linecap:round;stroke-miterlimit:10}.st10{fill:#fff}.st11{fill:#96d7ff}.st16{fill:#1f8ac0;stroke:#4a86b1;stroke-width:.1671;stroke-linejoin:round}.st19{fill:#3a312a}.st20{fill:#1a60a0}.st21{fill:#303c64}.st24{fill:#99d3ff}.st26{fill:#4da6c1}.st27{fill:#fff;stroke:#313131;stroke-width:2;stroke-linecap:round;stroke-linejoin:round;stroke-miterlimit:10}.st28{fill:#323232}.st29{fill:#e38992}.st30{fill:#ffd98c}.st31{fill:#8fce95}.st32{fill:none;stroke:#313131;stroke-width:2;stroke-linecap:round;stroke-linejoin:round;stroke-miterlimit:10}.st34{fill:#eb99e3}.st35,.st37{fill:none;stroke-linecap:round;stroke-miterlimit:10}.st35{stroke:#96d7ff;stroke-width:3;stroke-linejoin:round}.st37{stroke:#313131;stroke-width:2}.st41{fill:#e9edf1}.st45{fill:#0a94e3}.st46{fill:#c2e4f8}</style><g id="Layer_1_3_"><path class="st2" d="M11.8 104.5h11.8c.3 0 .7-.3.7-.7 0-.3-.3-.7-.7-.7H11.8c-.3 0-.7.3-.7.7.2.4.4.7.7.7zM5.6 104.5h2.6c.3 0 .7-.3.7-.7 0-.3-.3-.7-.7-.7H5.6c-.3 0-.7.3-.7.7s0 .7.7.7zM7.6 107.5h3.3c.3 0 .7-.3.7-.7 0-.3-.3-.7-.7-.7H7.6c-.3 0-.7.3-.7.7s.4.7.7.7zM13.8 107.5h3.9c.3 0 .7-.3.7-.7 0-.3-.3-.7-.7-.7h-3.9c-.3 0-.7.3-.7.7s.4.7.7.7zM151.6 77.8h10.2c.3 0 .7-.3.7-.7s-.3-.7-.7-.7h-10.2c-.3 0-.7.3-.7.7s-.1.7.7.7zM144.9 77.8h2.6c.3 0 .7-.3.7-.7s-.3-.7-.7-.7h-2.6c-.3 0-.7.3-.7.7s.4.7.7.7zM147.3 81.1h3.3c.3 0 .7-.3.7-.7s-.3-.7-.7-.7h-3.3c-.3 0-.7.3-.7.7s.3.7.7.7zM153.6 81.1h2.3c.3 0 .7-.3.7-.7s-.3-.7-.7-.7h-2.3c-.3 0-.7.3-.7.7s-.1.7.7.7z"/></g><path class="st8" d="M9.5 169h23M167.4 169h23M40.2 169h121.2"/><circle class="st4" cx="14.5" cy="82.9" r="4.1"/><circle class="st4" cx="131.4" cy="27" r="4.1"/><path class="st9" d="m59.7 14.9-2.5 2.5M51.7 22.9 49 25.5M59.7 25.5l-2.5-2.6M51.7 17.4 49 14.9M190.6 57l-2.7 2.4M182.4 65l-2.5 2.6M190.6 67.6l-2.7-2.6M182.4 59.4l-2.5-2.4"/><path class="st5" d="M169.4 112.6c0 2.7-.3 5.3-.9 7.8H148V90.2h-34.2v30.1H85.2v24.4h-6.7V102h-2.4v42.7h-3.2v-38.5h-2.4v38.5h-3.6v-25.3h-2.4v25.3h-3.2v-8.6h-2.4v8.6h-3.6v-50h-2.4v50h-.4c-.9 0-1.9 0-2.8-.1v-29.1h-2.4v28.8c-1-.2-1.9-.4-2.9-.6v-41.6H42V143c-1.1-.4-2.2-.8-3.2-1.3v-15.4h-2.4v14.1c-1.2-.7-2.4-1.5-3.6-2.4v-29h-2.4v27c-1.2-1.1-2.2-2.3-3.2-3.5v-17h-2.4V129c-2.8-4.8-4.5-10.4-4.5-16.4 0-17.8 14.4-32.2 32.2-32.2.8-21.3 18.2-38.3 39.7-38.3 18.5 0 34.1 12.7 38.5 29.9 1.4-.5 2.8-.8 4.3-.8 6.2 0 11.4 4.7 12.1 10.8 12.9 4.2 22.3 16.3 22.3 30.6z" id="XMLID_3_"/><path class="st5" d="M85.2 144.8h80.3c14 0 17.4-19.8 4-24.1-.3-.1-.7-.2-1-.3l-12.1-14.2-5.1-11.4-3-7.2-17.3-3-16.1 1.7-10.4 4.9-15.9 9.9-6.3 5.1 2.9 38.6zM49 57.6h-2c-1 0-1.9-.8-1.9-1.9 0-1 .8-1.9 1.9-1.9h2c1 0 1.9.8 1.9 1.9 0 .9-.9 1.9-1.9 1.9zM49 71h-2c-1 0-1.9-.8-1.9-1.9 0-1.1.8-1.9 1.9-1.9h2c1 0 1.9.8 1.9 1.9 0 1-.9 1.9-1.9 1.9zM56.7 71h-1.9c-1 0-1.9-.8-1.9-1.9 0-1.1.8-1.9 1.9-1.9h1.9c1 0 1.9.8 1.9 1.9.1 1-.9 1.9-1.9 1.9zM64.4 71h-1.9c-1 0-1.9-.8-1.9-1.9 0-1.1.8-1.9 1.9-1.9h1.9c1 0 1.9.8 1.9 1.9 0 1-.8 1.9-1.9 1.9zM64.4 57.6h-9.7c-1 0-1.9-.8-1.9-1.9 0-1 .8-1.9 1.9-1.9h9.7c1 0 1.9.8 1.9 1.9 0 .9-.8 1.9-1.9 1.9zM56.7 63.3H47c-1 0-1.9-.8-1.9-1.9s.8-1.9 1.9-1.9h9.7c1 0 1.9.8 1.9 1.9s-.9 1.9-1.9 1.9zM178.6 122.3c-.8 0-1.6-.7-1.6-1.6 0-.1 0-.2.1-.3 0-.1.1-.3.1-.3.1-.1.1-.2.1-.3.1-.1.1-.2.3-.3.4-.4.9-.6 1.5-.4.1 0 .3.1.3.1.1.1.2.1.3.1.1.1.2.1.3.2.1.1.1.2.2.3s.1.2.2.3c.1.1.1.2.1.3s.1.2.1.3c0 .4-.2.8-.5 1.1-.1.1-.2.1-.3.2-.1.1-.2.1-.3.1-.1.1-.2.1-.3.1-.4.1-.5.1-.6.1zM180.2 115.9h-3.1c-.8 0-1.6-.7-1.6-1.6s.7-1.6 1.6-1.6h3.1c.8 0 1.6.7 1.6 1.6s-.7 1.6-1.6 1.6zM184.9 109.6H169c-.8 0-1.6-.7-1.6-1.6s.7-1.6 1.6-1.6h15.9c.8 0 1.6.7 1.6 1.6 0 .9-.7 1.6-1.6 1.6z"/><path class="st5" d="M170.7 115.9h-6.4c-.8 0-1.6-.7-1.6-1.6s.7-1.6 1.6-1.6h6.3c.8 0 1.6.7 1.6 1.6.1 1-.7 1.6-1.5 1.6zM172.3 122.3h-12.6c-.8 0-1.6-.7-1.6-1.6s.7-1.6 1.6-1.6h12.6c.8 0 1.6.7 1.6 1.6s-.8 1.6-1.6 1.6z"/><g id="sync_1_"><path id="sync-2_1_" class="st10" d="m163.1 126.8-3.7 3.7c-8.3-8.1-21.5-8-29.7.2-1.8 1.9-3.3 4.1-4.4 6.5-.8 1.8 0 3.8 1.8 4.6.4.2.9.3 1.4.3h.1c1.4 0 2.7-.9 3.2-2.2 3.1-7.1 11.3-10.3 18.4-7.2 1.5.7 2.9 1.6 4.1 2.8L151 139c-.7.7-.7 1.9 0 2.6.3.3.8.5 1.3.5h14v-14c0-1-.8-1.8-1.8-1.8-.5-.1-1 .1-1.4.5z"/></g><path class="st6" d="M161.7 149.2h-.1c-1.4 0-2.7.9-3.2 2.2-3.1 7.1-11.3 10.3-18.4 7.2-1.5-.7-2.9-1.6-4.1-2.8l3.5-3.5c.7-.7.7-1.9 0-2.6-.3-.3-.8-.5-1.3-.5h-14v14c0 1 .8 1.8 1.8 1.8.5 0 1-.2 1.3-.5l3.7-3.7c8.3 8.1 21.5 8 29.7-.2 1.8-1.9 3.3-4.1 4.4-6.5.8-1.8 0-3.8-1.8-4.6-.6-.2-1-.3-1.5-.3z"/></svg>