<svg version="1.1" id="Layer_1" xmlns="http://www.w3.org/2000/svg" x="0" y="0" viewBox="0 0 200 200" style="enable-background:new 0 0 200 200" xml:space="preserve"><style>.st1{fill:#fff}.st2{fill:#8ee891}.st3{fill:#5ad1cf}.st4{fill:#ff8282}.st5{fill:#ffd07d}.st6{fill:#fff06e}.st8{fill:#626f8c}</style><g style="opacity:.5"><path class="st1" d="M37.8 63h25.8c1.1 0 2 .9 2 2s-.9 2-2 2H37.8c-1.1 0-2-.9-2-2s.9-2 2-2zM21.9 72.9h35.7c1.1 0 2 .9 2 2s-.9 2-2 2H21.9c-1.1 0-2-.9-2-2s.9-2 2-2zM33.8 82.8h19.8c1.1 0 2 .9 2 2s-.9 2-2 2H33.8c-1.1 0-2-.9-2-2s.9-2 2-2zM14 82.8h9.9c1.1 0 2 .9 2 2s-.9 2-2 2H14c-1.1 0-2-.9-2-2s.9-2 2-2zM23.9 92.7h27.8c1.1 0 2 .9 2 2s-.9 2-2 2H23.9c-1.1 0-2-.9-2-2s.9-2 2-2zM6.1 102.7h43.7c1.1 0 2 .9 2 2s-.9 2-2 2H6.1c-1.1 0-2-.9-2-2 0-1.2.9-2 2-2zM10 112.6h6c1.1 0 2 .9 2 2s-.9 2-2 2h-6c-1.1 0-2-.9-2-2s.9-2 2-2zM23.9 112.6h27.8c1.1 0 2 .9 2 2s-.9 2-2 2H23.9c-1.1 0-2-.9-2-2s.9-2 2-2zM21.9 122.5h29.8c1.1 0 2 .9 2 2s-.9 2-2 2H21.9c-1.1 0-2-.9-2-2s.9-2 2-2zM37.8 132.4h17.9c1.1 0 2 .9 2 2s-.9 2-2 2H37.8c-1.1 0-2-.9-2-2s.9-2 2-2zM16 132.4h11.9c1.1 0 2 .9 2 2s-.9 2-2 2H16c-1.1 0-2-.9-2-2s.9-2 2-2zM31.8 142.3h27.8c1.1 0 2 .9 2 2s-.9 2-2 2H31.8c-1.1 0-2-.9-2-2 .1-1.1 1-2 2-2zM43.8 152.3h25.8c1.1 0 2 .9 2 2s-.9 2-2 2H43.8c-1.1 0-2-.9-2-2 0-1.2.9-2 2-2z"/></g><circle class="st1" cx="115.8" cy="109.4" r="69.4"/><path class="st2" d="m87.4 60.3 9.7 16.8c-5.6 3.2-10.2 7.9-13.5 13.5l-16.8-9.7c5-8.6 12.1-15.7 20.6-20.6z"/><path class="st2" d="m67.3 80.8 16.6 9.6c-3.2 5.5-4.9 11.8-4.9 18.2H59.8c0-9.7 2.6-19.3 7.5-27.8z"/><path class="st3" d="m83.8 126.8-16.6 9.6c-4.9-8.4-7.5-18-7.4-27.8H79c0 6.4 1.6 12.7 4.8 18.2zM97.1 142.1l-9.7 16.8c-8.5-4.9-15.6-12-20.6-20.6l16.8-9.7c3.3 5.7 7.9 10.3 13.5 13.5z"/><path class="st4" d="M163.5 138.4c-4.9 8.5-12 15.6-20.6 20.6l-9.7-16.8c5.6-3.2 10.2-7.9 13.5-13.5l16.8 9.7zM152.7 108.6h19.2c0 9.8-2.5 19.3-7.4 27.8l-16.6-9.6c3.2-5.5 4.9-11.8 4.8-18.2z"/><path class="st5" d="M171.9 108.6h-19.2c0-6.4-1.7-12.7-4.9-18.2l16.6-9.6c4.9 8.5 7.5 18.1 7.5 27.8zM163.5 80.8l-16.8 9.7c-3.2-5.6-7.9-10.3-13.5-13.5l9.7-16.8c8.6 5 15.7 12.1 20.6 20.6z"/><path class="st6" d="m143 60.8-9.6 16.6c-5.5-3.2-11.8-4.9-18.2-4.9V53.4c9.7-.1 19.3 2.5 27.8 7.4zM115.2 53.4v19.2c-6.4 0-12.7 1.7-18.2 4.9l-9.6-16.6c8.4-5 18-7.6 27.8-7.5z"/><circle cx="116.8" cy="109.4" r="23.1" style="opacity:.5;fill:#ced8ee;enable-background:new"/><path class="st8" d="m145.4 79.2-31.9 26.9 6.6 6.6L147 80.8c.4-.5.3-1.2-.1-1.6-.5-.3-1.1-.3-1.5 0z"/><circle class="st8" cx="116.8" cy="109.4" r="7.7"/><path d="M106.9 148.3h16.5c.9 0 1.7.7 1.7 1.7v10.6c0 .9-.7 1.7-1.7 1.7h-16.5c-.9 0-1.7-.7-1.7-1.7V150c.1-1 .8-1.7 1.7-1.7z" style="fill:#ced8ee"/></svg>