<svg xmlns="http://www.w3.org/2000/svg" viewBox="0 0 1690.4 664.6"><defs><style>.a{fill:#094e8e;opacity:0.06;}.b{opacity:0.33;}.c,.d{fill:#b5c3c2;}.d,.g,.j,.k,.l{isolation:isolate;}.d,.g{opacity:0.29;}.e{fill:#95a9a7;}.f,.g{fill:#668381;}.h{opacity:0.52;}.i,.j,.k,.l{fill:#fff;}.j{opacity:0.5;}.k{opacity:0.33;}.l,.u{opacity:0.4;}.m{opacity:0.22;}.n{fill:#f37260;}.o{opacity:0.3;}.p{fill:#010101;}.q{fill:#465b65;}.r{fill:#273339;}.s{fill:#ebebeb;}.t{fill:#e0e1e0;}.v{fill:#fbbf9e;}</style></defs><path class="a" d="M-281.4,540.9s266-77.5,529.5-51.7,349.7,77.5,549.2,51.7,613.2-101,778.2-61.1S1797.1,620.7,1770,667.7s-800.3,96.2-812.7,96.2S309.7,754.5,125,745.1s-504.9-68-514.7-79.8S-281.4,540.9-281.4,540.9Z"/><path class="a" d="M327.4,684.5S648.7,452.8,823.8,478.7s232.3,77.4,364.9,51.6,407.5-100.9,517.1-61,147.3,140.8,129.3,187.8-531.9,96.3-540,96.3S864.7,744,741.9,734.6s-334.4-8.6-341-20.4S327.4,684.5,327.4,684.5Z"/><g class="b"><rect class="c" x="116.5" y="591.2" width="20.1" height="79.99"/><rect class="c" x="119.8" y="585.5" width="13.5" height="33.61"/><rect class="c" x="122.8" y="581.8" width="7.5" height="18.65"/><polygon class="c" points="129.1 591.4 124 591.4 124 578.7 125.8 578.7 127.7 578.7 129.1 578.7 129.1 591.4"/><polygon class="c" points="126.2 585.9 125.6 585.9 125.6 573.2 125.8 573.2 126 573.2 126.2 573.2 126.2 585.9"/><polygon class="c" points="127.4 581.5 126.9 581.5 126.9 568.8 127.1 568.8 127.3 568.8 127.4 568.8 127.4 581.5"/><rect class="c" x="116" y="591" width="21.2" height="0.85"/><rect class="c" x="119.3" y="585.1" width="14.5" height="0.82"/><rect class="c" x="122.2" y="581.5" width="8.4" height="0.63"/><rect class="d" x="121" y="586.8" width="0.6" height="3.52"/><rect class="d" x="122.8" y="586.8" width="0.6" height="3.52"/><rect class="d" x="124.5" y="586.8" width="0.6" height="3.52"/><rect class="d" x="126.2" y="586.8" width="0.6" height="3.52"/><rect class="d" x="128" y="586.8" width="0.6" height="3.52"/><rect class="d" x="129.7" y="586.8" width="0.6" height="3.52"/><rect class="d" x="131.5" y="586.8" width="0.6" height="3.52"/><rect class="c" x="118.3" y="594.4" width="1.5" height="4.18"/><rect class="d" x="121.3" y="594.4" width="1.5" height="4.18"/><rect class="c" x="124.3" y="594.4" width="1.5" height="4.18"/><rect class="c" x="127.3" y="594.4" width="1.5" height="4.18"/><rect class="c" x="130.3" y="594.4" width="1.5" height="4.18"/><rect class="c" x="133.3" y="594.4" width="1.5" height="4.18"/><rect class="c" x="118.3" y="600.9" width="1.5" height="4.18"/><rect class="c" x="121.3" y="600.9" width="1.5" height="4.18"/><rect class="c" x="124.3" y="600.9" width="1.5" height="4.18"/><rect class="d" x="127.3" y="600.9" width="1.5" height="4.18"/><rect class="c" x="130.3" y="600.9" width="1.5" height="4.18"/><rect class="c" x="133.3" y="600.9" width="1.5" height="4.18"/><rect class="c" x="118.3" y="607.4" width="1.5" height="4.18"/><rect class="c" x="121.3" y="607.4" width="1.5" height="4.18"/><rect class="c" x="124.3" y="607.4" width="1.5" height="4.18"/><rect class="c" x="127.3" y="607.4" width="1.5" height="4.18"/><rect class="d" x="130.3" y="607.4" width="1.5" height="4.18"/><rect class="d" x="133.3" y="607.4" width="1.5" height="4.18"/><rect class="d" x="118.3" y="613.9" width="1.5" height="4.18"/><rect class="c" x="121.3" y="613.9" width="1.5" height="4.18"/><rect class="c" x="124.3" y="613.9" width="1.5" height="4.18"/><rect class="c" x="127.3" y="613.9" width="1.5" height="4.18"/><rect class="c" x="130.3" y="613.9" width="1.5" height="4.18"/><rect class="c" x="133.3" y="613.9" width="1.5" height="4.18"/><rect class="c" x="118.3" y="620.5" width="1.5" height="4.18"/><rect class="d" x="121.3" y="620.5" width="1.5" height="4.18"/><rect class="c" x="124.3" y="620.5" width="1.5" height="4.18"/><rect class="d" x="127.3" y="620.5" width="1.5" height="4.18"/><rect class="c" x="130.3" y="620.5" width="1.5" height="4.18"/><rect class="c" x="133.3" y="620.5" width="1.5" height="4.18"/><rect class="c" x="118.3" y="627" width="1.5" height="4.18"/><rect class="c" x="121.3" y="627" width="1.5" height="4.18"/><rect class="c" x="124.3" y="627" width="1.5" height="4.18"/><rect class="c" x="127.3" y="627" width="1.5" height="4.18"/><rect class="c" x="130.3" y="627" width="1.5" height="4.18"/><rect class="d" x="133.3" y="627" width="1.5" height="4.18"/><rect class="c" x="118.3" y="633.5" width="1.5" height="4.18"/><rect class="d" x="121.3" y="633.5" width="1.5" height="4.18"/><rect class="d" x="124.3" y="633.5" width="1.5" height="4.18"/><rect class="c" x="127.3" y="633.5" width="1.5" height="4.18"/><rect class="c" x="130.3" y="633.5" width="1.5" height="4.18"/><rect class="c" x="133.3" y="633.5" width="1.5" height="4.18"/><rect class="c" x="118.3" y="640" width="1.5" height="4.18"/><rect class="c" x="121.3" y="640" width="1.5" height="4.18"/><rect class="c" x="124.3" y="640" width="1.5" height="4.18"/><rect class="c" x="127.3" y="640" width="1.5" height="4.18"/><rect class="d" x="130.3" y="640" width="1.5" height="4.18"/><rect class="c" x="133.3" y="640" width="1.5" height="4.18"/><rect class="c" x="118.3" y="646.5" width="1.5" height="4.18"/><rect class="d" x="121.3" y="646.5" width="1.5" height="4.18"/><rect class="c" x="124.3" y="646.5" width="1.5" height="4.18"/><rect class="c" x="127.3" y="646.5" width="1.5" height="4.18"/><rect class="c" x="130.3" y="646.5" width="1.5" height="4.18"/><rect class="c" x="133.3" y="646.5" width="1.5" height="4.18"/><rect class="c" x="118.3" y="653" width="1.5" height="4.18"/><rect class="c" x="121.3" y="653" width="1.5" height="4.18"/><rect class="c" x="124.3" y="653" width="1.5" height="4.18"/><rect class="d" x="127.3" y="653" width="1.5" height="4.18"/><rect class="c" x="130.3" y="653" width="1.5" height="4.18"/><rect class="d" x="133.3" y="653" width="1.5" height="4.18"/><rect class="d" x="118.3" y="659.5" width="1.5" height="4.18"/><rect class="c" x="121.3" y="659.5" width="1.5" height="4.18"/><rect class="d" x="124.3" y="659.5" width="1.5" height="4.18"/><rect class="c" x="127.3" y="659.5" width="1.5" height="4.18"/><rect class="c" x="130.3" y="659.5" width="1.5" height="4.18"/><rect class="c" x="133.3" y="659.5" width="1.5" height="4.18"/><rect class="c" x="58.1" y="594.3" width="32.3" height="67.38"/><rect class="c" x="57.2" y="593.1" width="34.1" height="1.9"/><rect class="c" x="59.2" y="590.7" width="30.1" height="9.05"/><rect class="c" x="61.5" y="587" width="11.9" height="9.89"/><polygon class="c" points="68.4 589.7 61.5 589.7 61.5 584.5 66.5 584.5 68.4 589.7"/><rect class="c" x="64.3" y="580.2" width="0.7" height="11.6"/><path class="c" d="M65.2,579.6a.6.6,0,0,1-.6.6.6.6,0,1,1,0-1.2A.6.6,0,0,1,65.2,579.6Z"/><polygon class="c" points="357.9 666.8 322.6 666.8 318.2 567.7 357.9 576 357.9 666.8"/><polygon class="c" points="203.7 610.2 203.7 577.1 198.1 577.1 198.1 568.2 196.1 568.2 196.1 555.2 185.2 555.2 185.2 545.6 184.3 545.6 184.3 555.2 182.1 555.2 182.1 543.2 181.1 543.2 181.1 555.2 174.2 555.2 174.2 577.1 170.7 577.1 170.7 610.2 167.6 610.2 167.6 670.5 205.8 670.5 205.8 610.2 203.7 610.2"/><polygon class="e" points="261.7 673.1 243 673.1 250.3 635.7 261.7 635.7 261.7 673.1"/><polygon class="e" points="246.3 603.8 246.3 587.2 240.3 587.2 240.3 580.9 237.1 580.9 237.1 575.6 236 575.6 236 566.5 235.7 566.5 235.7 575.6 234.6 575.6 234.6 580.9 231.4 580.9 231.4 587.2 225.4 587.2 225.4 603.8 224.2 603.8 224.2 633.9 214.9 633.9 214.9 668.3 224.2 668.3 233.4 668.3 247.5 668.3 247.5 603.8 246.3 603.8"/><polygon class="e" points="280.9 622.9 251.8 622.9 251.8 623.4 253.1 623.4 253.1 672.6 279.6 672.6 279.6 623.4 280.9 623.4 280.9 622.9"/><rect class="e" x="122.5" y="635.1" width="25.8" height="40.96"/><rect class="e" x="74.3" y="656.1" width="44.3" height="19.97"/><rect class="e" x="98" y="611.5" width="9.7" height="49.05"/><rect class="e" x="100.2" y="598.4" width="0.5" height="26.67"/><rect class="e" x="101.8" y="600.4" width="0.5" height="26.67"/><rect class="e" x="98.8" y="608.4" width="5.9" height="6.57"/><rect class="e" x="116.9" y="642.5" width="16.9" height="33.62"/><rect class="e" x="152.5" y="606.9" width="31.8" height="69.21"/><rect class="e" x="155.6" y="604.5" width="25.5" height="11.53"/><rect class="e" x="150" y="608.3" width="36.7" height="0.81"/><rect class="e" x="146.7" y="641.1" width="15" height="34.95"/><rect class="e" x="39.4" y="639.8" width="17.2" height="36.28"/><rect class="e" x="45" y="629.9" width="34.3" height="46.14"/><rect class="e" x="43" y="628.2" width="37.1" height="1.77"/><rect class="e" x="46.5" y="623.4" width="15.1" height="9.35"/><rect class="e" x="66.4" y="623.4" width="2.5" height="5.69"/><rect class="e" x="71.5" y="623.4" width="2.8" height="5.69"/><rect class="e" x="30" y="662" width="17.9" height="14.03"/><rect class="e" x="23.3" y="656.1" width="8.5" height="19.97"/><rect class="e" x="181.1" y="660.5" width="179" height="15.55"/><path class="e" d="M345.8,617.5a2.2,2.2,0,0,0-2.1,2h-2.5v-.8a27,27,0,0,0-1.6-9l2.1-.8a2.1,2.1,0,0,0,2,1.3,2.1,2.1,0,0,0,2.1-2.1,2.1,2.1,0,0,0-2.1-2.2,2.2,2.2,0,0,0-2.2,2.2c0,.2.1.4.1.6l-2.1.8a25.8,25.8,0,0,0-5.4-8.8l1.7-1.5a2.2,2.2,0,0,0,1.4.5,2.1,2.1,0,0,0,2.2-2.1,2.2,2.2,0,1,0-4.3,0,2.4,2.4,0,0,0,.5,1.4l-1.7,1.5-.5-.5a28.5,28.5,0,0,0-8.5-5.8l.9-2.2h.6a2.1,2.1,0,0,0,2.2-2.1,2.2,2.2,0,0,0-2.2-2.2,2.1,2.1,0,0,0-2.1,2.2,2.2,2.2,0,0,0,1.3,2l-1,2.2a26.8,26.8,0,0,0-8.9-2v-3h0A2.1,2.1,0,0,0,318,587a2.2,2.2,0,0,0-2.2-2.2,2.1,2.1,0,0,0-2.1,2.2,2.1,2.1,0,0,0,1.8,2.1v3h-.7a25.3,25.3,0,0,0-8.7,1.5l-.9-2.5a2.1,2.1,0,0,0,1.3-2,2.1,2.1,0,0,0-2.1-2.1,2.1,2.1,0,0,0-2.2,2.1,2.2,2.2,0,0,0,2.2,2.2h.6l.9,2.5a26.2,26.2,0,0,0-9.2,5.5l-1.5-1.7a2.2,2.2,0,0,0,.5-1.4,2.1,2.1,0,0,0-2.1-2.2,2.2,2.2,0,0,0-2.2,2.2,2.1,2.1,0,0,0,2.2,2.1,2.4,2.4,0,0,0,1.4-.5l1.6,1.7-.6.5a25.3,25.3,0,0,0-5.2,7.5l-2-.9c0-.2.1-.5.1-.7a2.1,2.1,0,0,0-2.2-2.1,2.1,2.1,0,0,0-2.1,2.1,2.1,2.1,0,0,0,2.1,2.2,2.4,2.4,0,0,0,2-1.3l2,.9a24.6,24.6,0,0,0-2.4,10.1h-2.6a2.1,2.1,0,0,0-2.1-2.1,2.1,2.1,0,0,0-2.2,2.1,2.2,2.2,0,0,0,2.2,2.2,2.2,2.2,0,0,0,2.1-2h2.6v.7a25.3,25.3,0,0,0,1.6,9.1l-2.2.8a2,2,0,0,0-1.9-1.3,2.1,2.1,0,0,0-2.2,2.1,2.2,2.2,0,0,0,2.2,2.2,2.1,2.1,0,0,0,2.1-2.2,1.3,1.3,0,0,0-.1-.6l2.1-.8a27.1,27.1,0,0,0,5.5,8.8l-1.7,1.5a2,2,0,0,0-1.5-.6,2.1,2.1,0,0,0-2.1,2.2,2.1,2.1,0,0,0,2.1,2.1,2.1,2.1,0,0,0,2.2-2.1,2.2,2.2,0,0,0-.5-1.4l1.6-1.6.5.6a24.9,24.9,0,0,0,5.6,4.2l-13,23.9h-2.3v.7H285v1.4h59.3v-1.4h-1.1v-.7h-2.4l-12.9-23.9a32.7,32.7,0,0,0,4.8-3.5l2.1,2.2a2.4,2.4,0,0,0-.7,1.6,2.1,2.1,0,0,0,2.1,2.2,2.2,2.2,0,0,0,2.2-2.2,2.1,2.1,0,0,0-2.2-2.1,1.9,1.9,0,0,0-1.2.4l-2.1-2.3.5-.5a27.7,27.7,0,0,0,5.3-7.5l2.3,1v.6a2.1,2.1,0,0,0,2.1,2.1,2.1,2.1,0,0,0,2.2-2.1,2.2,2.2,0,0,0-2.2-2.2,2.2,2.2,0,0,0-2,1.4l-2.3-1.1a28.2,28.2,0,0,0,2.4-10h2.5a2.1,2.1,0,0,0,2.1,2.1,2.2,2.2,0,0,0,2.2-2.2A2.1,2.1,0,0,0,345.8,617.5Zm-5.3,1.1v.8l-7.5-.3v-.5a17.9,17.9,0,0,0-1-6.2l6.9-2.6A26.3,26.3,0,0,1,340.5,618.6Zm-7.8.5-16.6-.5v-.4l15.5-5.7a17.8,17.8,0,0,1,1.1,6.1Zm-36-.9,16.5.5c0,.1.1.2.1.3l-15.6,5.7a20,20,0,0,1-1-6.1Zm19.1-.5,12.1-11.3a17.1,17.1,0,0,1,3.6,5.9L316,618Zm-.1-.1-.4-.3,6.3-15.3a17.5,17.5,0,0,1,6.1,4.2Zm-.6-.3h-.3l.6-16.6a20.1,20.1,0,0,1,6,1.3Zm-.5-.1h-.3l-5.5-15.6a19.2,19.2,0,0,1,5.9-1h.4Zm-.5.1-.3.2-11.3-12.1a17.2,17.2,0,0,1,6.1-3.7Zm-.5.4-.2.2-15-6.9a16.3,16.3,0,0,1,3.9-5.4Zm-.3.4a.6.6,0,0,1-.1.4l-16.5-.6a16.9,16.9,0,0,1,1.6-6.7Zm.1,1.1c0,.1.1.2.1.3v.2l-11.9,11.2a19,19,0,0,1-3.7-5.9Zm-.4,1.1-7.4,13.8a17.2,17.2,0,0,1-4-3.1Zm.9-.5a.1.1,0,0,0,.1.1l-6.3,15.3-1.7-.8Zm.3.2h.3l-.5,16.5a16.9,16.9,0,0,1-6-1.3Zm.5,16.6h-.5l.6-16.5c.1,0,.2,0,.2-.1l5.6,15.7A19.6,19.6,0,0,1,314.7,636.6Zm.6-16.6.2-.2,7.9,14.6-2.6,1.2Zm1.3.9,10.3,10.9a13.9,13.9,0,0,1-3.1,2.3Zm-.4-.9-.3-.5v-.2l15.1,7a19.1,19.1,0,0,1-3.9,5.4Zm-.2-.9a.4.4,0,0,0,.1-.3l16.6.5a19.4,19.4,0,0,1-1.6,6.8Zm-8.4,16.5-2.8,6.9-2.6-1.3,3.6-6.5Zm.2.1A20.7,20.7,0,0,0,314,637l-.3,7.4a23.4,23.4,0,0,1-8.7-1.9Zm6.4,1.3h.5a19.9,19.9,0,0,0,6-1l2.4,7a26,26,0,0,1-8.4,1.4H314Zm6.7-1.1a15.9,15.9,0,0,0,2.7-1.2l3.5,6.5a17.6,17.6,0,0,1-3.7,1.7Zm18-26.3-7,2.6a18.4,18.4,0,0,0-3.7-6l5.4-5.1A27,27,0,0,1,338.9,609.6Zm-6-9.2.5.5L328,606a19.2,19.2,0,0,0-6.2-4.3l2.8-6.9A25.9,25.9,0,0,1,332.9,600.4Zm-8.5-5.7-2.9,6.9a17.5,17.5,0,0,0-6.1-1.3l.2-7.4A26.1,26.1,0,0,1,324.4,594.7Zm-9.7-1.9h.7l-.2,7.4h-.5a17.2,17.2,0,0,0-6,1l-2.5-7A24.5,24.5,0,0,1,314.7,592.8Zm-8.7,1.5,2.5,7.1a16.9,16.9,0,0,0-6.3,3.8l-5.1-5.5A26.3,26.3,0,0,1,306,594.3Zm-9.6,6.1.6-.5,5,5.4a19,19,0,0,0-3.9,5.5l-6.8-3.1A28.2,28.2,0,0,1,296.4,600.4Zm-5.2,7.5L298,611a18.4,18.4,0,0,0-1.7,6.9l-7.4-.2A25.6,25.6,0,0,1,291.2,607.9Zm-2.3,10.7v-.7l7.4.3v.4a19,19,0,0,0,1.1,6.3l-7,2.5A25.4,25.4,0,0,1,288.9,618.6Zm1.6,9.1,7-2.6a17.7,17.7,0,0,0,3.7,6l-5.4,5.1A27,27,0,0,1,290.5,627.7Zm5.9,9.2a1.2,1.2,0,0,0-.5-.5l5.5-5.1a18.2,18.2,0,0,0,4,3.2l-3.6,6.5A29.6,29.6,0,0,1,296.4,636.9Zm43.9,28.6H289.1l12.8-23.6a20.6,20.6,0,0,0,2.6,1.2l-.9,2.2h-.7a2.2,2.2,0,0,0-2.1,2.2,2.1,2.1,0,0,0,2.1,2.1,2.1,2.1,0,0,0,2.2-2.1,2.1,2.1,0,0,0-1.3-2l.9-2.2a25,25,0,0,0,9,1.9v2.3a2.2,2.2,0,0,0-2.1,2.1,2.2,2.2,0,0,0,2.2,2.2,2.1,2.1,0,0,0,2.1-2.2,2.1,2.1,0,0,0-1.9-2.1v-2.3h.8a28.3,28.3,0,0,0,8.7-1.4l.8,2.2a2.1,2.1,0,0,0-1.3,1.9,2.2,2.2,0,0,0,2.2,2.2,2.1,2.1,0,0,0,2.1-2.2,2.1,2.1,0,0,0-2.1-2.1h-.7l-.8-2.2a32.9,32.9,0,0,0,3.9-1.7ZM327.5,641l-3.5-6.5a18.3,18.3,0,0,0,3.1-2.4l5.1,5.4A23,23,0,0,1,327.5,641Zm5.4-4.1-.5.5-5.1-5.5a16.9,16.9,0,0,0,4-5.5l6.8,3.2A27.9,27.9,0,0,1,332.9,636.9Zm5.3-7.6-6.8-3.1a17.5,17.5,0,0,0,1.6-6.9l7.5.3A28.7,28.7,0,0,1,338.2,629.3Z"/><rect class="e" x="351" y="635.6" width="27.6" height="40.5"/><rect class="e" x="374.6" y="651.3" width="27.6" height="24.53"/><rect class="e" x="267.4" y="647.7" width="15.5" height="20.58"/><rect class="e" x="364.9" y="597.1" width="19.6" height="79.02"/><polygon class="e" points="416.6 676.1 390.8 676.1 390.8 629.9 410.4 629.9 416.6 676.1"/><rect class="e" x="379.3" y="580.6" width="0.7" height="21.47"/><rect class="e" x="381.6" y="585.2" width="0.7" height="21.47"/><rect class="e" x="377.3" y="588.1" width="0.7" height="21.47"/><rect class="e" x="391.8" y="626.2" width="9.2" height="7.27"/><rect class="e" x="392.8" y="623.6" width="7.2" height="4.09"/><rect class="e" x="404.7" y="628.3" width="1.8" height="2.93"/><rect class="e" x="407.1" y="625.7" width="2.5" height="5.61"/><rect class="f" x="267.4" y="614.9" width="23.4" height="75.55"/><rect class="f" x="265.6" y="615.3" width="26.9" height="0.77"/><rect class="f" x="266.3" y="625.9" width="25.5" height="0.76"/><rect class="f" x="266.3" y="636.2" width="25.5" height="0.76"/><rect class="f" x="266.3" y="646.5" width="25.5" height="0.76"/><rect class="f" x="266.3" y="656.8" width="25.5" height="0.76"/><rect class="f" x="264.7" y="613.2" width="28.7" height="2.09"/><rect class="g" x="269.5" y="618.6" width="2.4" height="6.04"/><rect class="f" x="274.9" y="618.6" width="2.4" height="6.04"/><rect class="f" x="280.4" y="618.6" width="2.4" height="6.04"/><rect class="f" x="285.8" y="618.6" width="2.4" height="6.04"/><rect class="f" x="269.5" y="628.4" width="2.4" height="6.04"/><rect class="g" x="274.9" y="628.4" width="2.4" height="6.04"/><rect class="f" x="280.4" y="628.4" width="2.4" height="6.04"/><rect class="f" x="285.8" y="628.4" width="2.4" height="6.04"/><rect class="f" x="269.5" y="638.7" width="2.4" height="6.04"/><rect class="f" x="274.9" y="638.7" width="2.4" height="6.04"/><rect class="f" x="280.4" y="638.7" width="2.4" height="6.04"/><rect class="g" x="285.8" y="638.7" width="2.4" height="6.04"/><rect class="f" x="269.5" y="649" width="2.4" height="6.04"/><rect class="g" x="274.9" y="649" width="2.4" height="6.04"/><rect class="g" x="280.4" y="649" width="2.4" height="6.04"/><rect class="f" x="285.8" y="649" width="2.4" height="6.04"/><rect class="g" x="269.5" y="659.3" width="2.4" height="6.04"/><rect class="f" x="274.9" y="659.3" width="2.4" height="6.04"/><rect class="f" x="280.4" y="659.3" width="2.4" height="6.04"/><rect class="f" x="285.8" y="659.3" width="2.4" height="6.04"/><rect class="f" x="268.8" y="610.4" width="8" height="3.92"/><rect class="f" x="268.3" y="610.3" width="9.1" height="0.67"/><polygon class="f" points="233.8 690.4 202.5 690.4 202.5 618.7 233.8 611 233.8 690.4"/><rect class="f" x="201.2" y="617.4" width="2.7" height="73.05"/><rect class="f" x="209" y="615.3" width="2.7" height="75.1"/><rect class="f" x="216.8" y="613.2" width="2.7" height="77.24"/><rect class="f" x="224.6" y="611.4" width="2.7" height="78.98"/><rect class="f" x="232.4" y="609.6" width="2.7" height="80.84"/><rect class="g" x="204.6" y="623.5" width="3.6" height="5.55"/><rect class="g" x="212.4" y="623.5" width="3.6" height="5.55"/><rect class="f" x="220.2" y="623.5" width="3.6" height="5.55"/><rect class="g" x="228" y="623.5" width="3.6" height="5.55"/><rect class="f" x="204.6" y="633.2" width="3.6" height="5.55"/><rect class="f" x="212.4" y="633.2" width="3.6" height="5.55"/><rect class="g" x="220.2" y="633.2" width="3.6" height="5.55"/><rect class="g" x="228" y="633.2" width="3.6" height="5.55"/><rect class="g" x="204.6" y="642.8" width="3.6" height="5.55"/><rect class="g" x="212.4" y="642.8" width="3.6" height="5.55"/><rect class="g" x="220.2" y="642.8" width="3.6" height="5.55"/><rect class="f" x="228" y="642.8" width="3.6" height="5.55"/><rect class="g" x="204.6" y="652.5" width="3.6" height="5.55"/><rect class="f" x="212.4" y="652.5" width="3.6" height="5.55"/><rect class="g" x="220.2" y="652.5" width="3.6" height="5.55"/><rect class="g" x="228" y="652.5" width="3.6" height="5.55"/><rect class="g" x="204.6" y="662.2" width="3.6" height="5.55"/><rect class="g" x="212.4" y="662.2" width="3.6" height="5.55"/><rect class="f" x="220.2" y="662.2" width="3.6" height="5.55"/><rect class="g" x="228" y="662.2" width="3.6" height="5.55"/><polygon class="f" points="113.5 622.1 113.5 622.8 112.7 622.8 112.7 625 125.8 625 125.8 690.4 104.4 690.4 104.4 628.4 104.4 625 104.4 622.8 103.6 622.8 103.6 622.1 113.5 622.1"/><rect class="f" x="150" y="651.8" width="18.4" height="38.6"/><rect class="f" x="70" y="643" width="14.9" height="47.45"/><rect class="f" x="81.9" y="652.9" width="16.3" height="37.57"/><rect class="f" x="75.3" y="641.1" width="6.6" height="5.68"/><rect class="f" x="83" y="652.2" width="17.3" height="1.39"/><rect class="f" x="37.5" y="651.5" width="14.8" height="38.9"/><rect class="f" x="160.5" y="635.2" width="0.4" height="23.58"/><rect class="f" x="162.4" y="643.1" width="0.5" height="13.91"/><rect class="f" x="159.7" y="645.6" width="6.9" height="6.89"/><rect class="f" x="158.5" y="645.1" width="9.1" height="0.62"/><rect class="f" x="183" y="648.6" width="14.3" height="38.42"/><rect class="f" x="238.8" y="655.8" width="22.8" height="34.61"/><rect class="f" x="297.5" y="644.3" width="34.3" height="46.14"/><rect class="f" x="296.6" y="642.5" width="37.1" height="1.77"/><rect class="f" x="315.1" y="637.7" width="15.1" height="9.35"/><rect class="f" x="307.7" y="637.7" width="2.5" height="5.69"/><rect class="f" x="302.4" y="637.7" width="2.8" height="5.69"/><rect class="f" x="355.3" y="623" width="27.1" height="67.38"/><rect class="f" x="354.5" y="621.9" width="28.7" height="1.9"/><rect class="f" x="356.2" y="619.5" width="25.3" height="9.05"/><rect class="f" x="369.5" y="615.7" width="10" height="9.89"/><polygon class="f" points="373.7 618.5 379.5 618.5 379.5 613.3 375.4 613.3 373.7 618.5"/><rect class="f" x="376.6" y="609" width="0.6" height="11.6"/><path class="f" d="M376.4,608.4a.5.5,0,1,0,.5-.6A.6.6,0,0,0,376.4,608.4Z"/><rect class="f" x="378.7" y="662.6" width="12.1" height="27.82"/><rect class="f" x="344.1" y="649.1" width="13.8" height="41.38"/><rect class="f" x="405.6" y="642.5" width="17.3" height="47.98"/><rect class="f" x="404.7" y="641.6" width="19" height="1.57"/><rect class="f" x="420.2" y="634.8" width="0.4" height="9.67"/><rect class="f" x="417.7" y="636" width="0.4" height="7.76"/><polygon class="f" points="429.3 660.5 421.6 660.5 421.6 682.5 432.6 682.5 429.3 660.5"/><g class="h"><rect class="i" x="71.5" y="645.4" width="1.1" height="1.13"/><rect class="i" x="73.8" y="645.4" width="1.1" height="1.13"/><rect class="i" x="71.5" y="648" width="1.1" height="1.13"/><rect class="i" x="73.8" y="648" width="1.1" height="1.13"/><rect class="i" x="71.5" y="650.6" width="1.1" height="1.13"/><rect class="i" x="76.3" y="645.4" width="1.1" height="1.13"/></g><rect class="j" x="154.2" y="611.4" width="0.8" height="4.27"/><rect class="j" x="156.8" y="611.4" width="0.8" height="4.27"/><rect class="j" x="159.5" y="611.4" width="0.8" height="4.27"/><rect class="j" x="162.2" y="611.4" width="0.8" height="4.27"/><rect class="j" x="164.8" y="611.4" width="0.8" height="4.27"/><rect class="j" x="167.5" y="611.4" width="0.8" height="4.27"/><rect class="j" x="170.1" y="611.4" width="0.8" height="4.27"/><rect class="j" x="172.8" y="611.4" width="0.8" height="4.27"/><rect class="j" x="175.4" y="611.4" width="0.8" height="4.27"/><rect class="j" x="178.1" y="611.4" width="0.8" height="4.27"/><rect class="j" x="180.7" y="611.4" width="0.8" height="4.27"/><rect class="j" x="154.2" y="617.4" width="0.8" height="4.27"/><rect class="j" x="156.8" y="617.4" width="0.8" height="4.27"/><rect class="j" x="159.5" y="617.4" width="0.8" height="4.27"/><rect class="j" x="162.2" y="617.4" width="0.8" height="4.27"/><rect class="j" x="164.8" y="617.4" width="0.8" height="4.27"/><rect class="j" x="167.5" y="617.4" width="0.8" height="4.27"/><rect class="j" x="170.1" y="617.4" width="0.8" height="4.27"/><rect class="j" x="172.8" y="617.4" width="0.8" height="4.27"/><rect class="j" x="175.4" y="617.4" width="0.8" height="4.27"/><rect class="j" x="178.1" y="617.4" width="0.8" height="4.27"/><rect class="j" x="180.7" y="617.4" width="0.8" height="4.27"/><rect class="j" x="154.2" y="623.3" width="0.8" height="4.27"/><rect class="j" x="156.8" y="623.3" width="0.8" height="4.27"/><rect class="j" x="159.5" y="623.3" width="0.8" height="4.27"/><rect class="j" x="162.2" y="623.3" width="0.8" height="4.27"/><rect class="j" x="164.8" y="623.3" width="0.8" height="4.27"/><rect class="j" x="167.5" y="623.3" width="0.8" height="4.27"/><rect class="j" x="170.1" y="623.3" width="0.8" height="4.27"/><rect class="j" x="172.8" y="623.3" width="0.8" height="4.27"/><rect class="j" x="175.4" y="623.3" width="0.8" height="4.27"/><rect class="j" x="178.1" y="623.3" width="0.8" height="4.27"/><rect class="j" x="180.7" y="623.3" width="0.8" height="4.27"/><rect class="j" x="162.2" y="629.3" width="0.8" height="4.27"/><rect class="j" x="164.8" y="629.3" width="0.8" height="4.27"/><rect class="j" x="167.5" y="629.3" width="0.8" height="4.27"/><rect class="j" x="170.1" y="629.3" width="0.8" height="4.27"/><rect class="j" x="172.8" y="629.3" width="0.8" height="4.27"/><rect class="j" x="175.4" y="629.3" width="0.8" height="4.27"/><rect class="j" x="178.1" y="629.3" width="0.8" height="4.27"/><rect class="j" x="180.7" y="629.3" width="0.8" height="4.27"/><rect class="j" x="164.8" y="635.5" width="0.8" height="4.27"/><rect class="j" x="167.5" y="635.5" width="0.8" height="4.27"/><rect class="j" x="170.1" y="635.5" width="0.8" height="4.27"/><rect class="j" x="172.8" y="635.5" width="0.8" height="4.27"/><rect class="j" x="175.4" y="635.5" width="0.8" height="4.27"/><rect class="j" x="178.1" y="635.5" width="0.8" height="4.27"/><rect class="j" x="180.7" y="635.5" width="0.8" height="4.27"/><rect class="k" x="205.5" y="622" width="1.8" height="4.62"/><rect class="k" x="205.5" y="630.9" width="1.8" height="4.62"/><rect class="k" x="205.5" y="639.7" width="1.8" height="4.62"/><rect class="k" x="205.5" y="648.5" width="1.8" height="4.62"/><rect class="k" x="205.5" y="656.9" width="1.8" height="4.62"/><rect class="k" x="213.3" y="622" width="1.8" height="4.62"/><rect class="k" x="213.3" y="630.9" width="1.8" height="4.62"/><rect class="k" x="213.3" y="639.7" width="1.8" height="4.62"/><rect class="k" x="213.3" y="648.5" width="1.8" height="4.62"/><rect class="k" x="213.3" y="656.9" width="1.8" height="4.62"/><rect class="k" x="221.1" y="622" width="1.8" height="4.62"/><rect class="k" x="221.1" y="630.9" width="1.8" height="4.62"/><rect class="k" x="221.1" y="639.7" width="1.8" height="4.62"/><rect class="k" x="221.1" y="648.5" width="1.8" height="4.62"/><rect class="k" x="221.1" y="656.9" width="1.8" height="4.62"/><rect class="k" x="228.9" y="622" width="1.8" height="4.62"/><rect class="k" x="228.9" y="630.9" width="1.8" height="4.62"/><rect class="k" x="228.9" y="639.7" width="1.8" height="4.62"/><rect class="k" x="228.9" y="648.5" width="1.8" height="4.62"/><rect class="k" x="228.9" y="656.9" width="1.8" height="4.62"/><rect class="j" x="176.2" y="557.6" width="1.5" height="4.04"/><rect class="j" x="179.9" y="557.6" width="1.5" height="4.04"/><rect class="j" x="183.7" y="557.6" width="1.5" height="4.04"/><rect class="j" x="187.4" y="557.6" width="1.5" height="4.04"/><rect class="j" x="176.2" y="564.4" width="1.5" height="4.04"/><rect class="j" x="179.9" y="564.4" width="1.5" height="4.04"/><rect class="j" x="183.7" y="564.4" width="1.5" height="4.04"/><rect class="j" x="187.4" y="564.4" width="1.5" height="4.04"/><rect class="j" x="176.2" y="571.1" width="1.5" height="4.04"/><rect class="j" x="179.9" y="571.1" width="1.5" height="4.04"/><rect class="j" x="191.7" y="557.6" width="1.5" height="4.04"/><rect class="l" x="75.3" y="598.6" width="1" height="3.7"/><rect class="l" x="78.7" y="598.6" width="1" height="3.7"/><rect class="l" x="82.7" y="598.6" width="1" height="3.7"/><rect class="l" x="86.1" y="598.6" width="1" height="3.7"/><rect class="l" x="67.8" y="598.6" width="1" height="3.7"/><rect class="l" x="71.2" y="598.6" width="1" height="3.7"/><rect class="l" x="75.3" y="605" width="1" height="3.7"/><rect class="l" x="78.7" y="605" width="1" height="3.7"/><rect class="l" x="82.7" y="605" width="1" height="3.7"/><rect class="l" x="86.1" y="605" width="1" height="3.7"/><rect class="l" x="67.8" y="605" width="1" height="3.7"/><rect class="l" x="71.2" y="605" width="1" height="3.7"/><rect class="l" x="75.3" y="611.4" width="1" height="3.7"/><rect class="l" x="78.7" y="611.4" width="1" height="3.7"/><rect class="l" x="82.7" y="611.4" width="1" height="3.7"/><rect class="l" x="86.1" y="611.4" width="1" height="3.7"/><rect class="l" x="67.8" y="611.4" width="1" height="3.7"/><rect class="l" x="71.2" y="611.4" width="1" height="3.7"/><rect class="j" x="255.1" y="627" width="1.5" height="5.74"/><rect class="j" x="259.7" y="627" width="1.5" height="5.74"/><rect class="j" x="264" y="627" width="1.5" height="5.74"/><rect class="k" x="357.9" y="628.2" width="1.1" height="3.23"/><rect class="k" x="361.5" y="628.2" width="1.1" height="3.23"/><rect class="k" x="357.9" y="628.2" width="1.1" height="3.23"/><rect class="k" x="361.5" y="628.2" width="1.1" height="3.23"/><rect class="k" x="364.9" y="628.2" width="1.1" height="3.23"/><rect class="k" x="368.4" y="628.2" width="1.1" height="3.23"/><rect class="k" x="357.9" y="634" width="1.1" height="3.23"/><rect class="k" x="361.5" y="634" width="1.1" height="3.23"/><rect class="k" x="357.9" y="634" width="1.1" height="3.23"/><rect class="k" x="361.5" y="634" width="1.1" height="3.23"/><rect class="k" x="364.9" y="634" width="1.1" height="3.23"/><rect class="k" x="368.4" y="634" width="1.1" height="3.23"/><rect class="k" x="357.9" y="640.1" width="1.1" height="3.23"/><rect class="k" x="361.5" y="640.1" width="1.1" height="3.23"/><rect class="k" x="357.9" y="640.1" width="1.1" height="3.23"/><rect class="k" x="361.5" y="640.1" width="1.1" height="3.23"/><rect class="k" x="364.9" y="640.1" width="1.1" height="3.23"/><rect class="k" x="368.4" y="640.1" width="1.1" height="3.23"/><rect class="k" x="372.3" y="628.2" width="1.1" height="3.23"/><rect class="k" x="372.3" y="634" width="1.1" height="3.23"/><rect class="k" x="375.8" y="628.2" width="1.1" height="3.23"/><rect class="k" x="269.5" y="618.6" width="1.2" height="5.04"/><rect class="k" x="275.5" y="618.6" width="1.2" height="5.04"/><rect class="k" x="281.6" y="618.6" width="1.2" height="5.04"/><rect class="k" x="287.6" y="618.6" width="1.2" height="5.04"/><rect class="k" x="269.5" y="628.9" width="1.2" height="5.04"/><rect class="k" x="275.5" y="628.9" width="1.2" height="5.04"/><rect class="k" x="281.6" y="628.9" width="1.2" height="5.04"/><rect class="k" x="287.6" y="628.9" width="1.2" height="5.04"/><rect class="k" x="269.5" y="639.6" width="1.2" height="5.04"/><rect class="k" x="275.5" y="639.6" width="1.2" height="5.04"/><rect class="k" x="281.6" y="639.6" width="1.2" height="5.04"/><rect class="k" x="287.6" y="639.6" width="1.2" height="5.04"/><rect class="k" x="269.5" y="650.2" width="1.2" height="5.04"/><rect class="k" x="275.5" y="650.2" width="1.2" height="5.04"/><rect class="k" x="281.6" y="650.2" width="1.2" height="5.04"/><rect class="k" x="287.6" y="650.2" width="1.2" height="5.04"/><rect class="k" x="269.5" y="659.8" width="1.2" height="5.04"/><rect class="k" x="275.5" y="659.8" width="1.2" height="5.04"/><rect class="k" x="281.6" y="659.8" width="1.2" height="5.04"/><rect class="k" x="287.6" y="659.8" width="1.2" height="5.04"/><rect class="k" x="407.1" y="645.2" width="1.2" height="2.89"/><rect class="k" x="407.1" y="649.9" width="1.2" height="2.89"/><rect class="k" x="410.3" y="645.2" width="1.2" height="2.89"/></g><g class="m"><rect class="n" x="505.1" y="495.4" width="12.5" height="190.97"/><g class="o"><rect class="p" x="505.1" y="495.4" width="12.5" height="190.97"/></g><rect class="n" x="517.6" y="495.4" width="41.5" height="190.97"/><rect class="q" x="520.5" y="499.4" width="21.5" height="5.84"/><g class="o"><rect class="i" x="520.5" y="499.4" width="21.5" height="5.84"/></g><rect class="q" x="545.5" y="499.4" width="10.8" height="5.84"/><g class="o"><rect class="i" x="545.5" y="499.4" width="10.8" height="5.84"/></g><g class="o"><polygon class="p" points="520.5 500.3 541 500.4 541 505.3 542 505.3 542 499.4 520.5 499.4 520.5 500.3"/></g><g class="o"><polygon class="p" points="545.5 499.4 545.5 500.3 555.1 500.3 555.1 505.3 556.3 505.3 556.3 499.4 545.5 499.4"/></g><rect class="q" x="520.5" y="509.5" width="21.5" height="5.84"/><g class="o"><rect class="i" x="520.5" y="509.5" width="21.5" height="5.84"/></g><rect class="q" x="545.5" y="509.5" width="10.8" height="5.84"/><g class="o"><rect class="i" x="545.5" y="509.5" width="10.8" height="5.84"/></g><g class="o"><polygon class="p" points="520.5 510.4 541 510.4 541 515.3 542 515.3 542 509.5 520.5 509.5 520.5 510.4"/></g><g class="o"><polygon class="p" points="545.5 509.5 545.5 510.3 555.1 510.3 555.1 515.3 556.3 515.3 556.3 509.5 545.5 509.5"/></g><rect class="q" x="520.5" y="519.5" width="21.5" height="5.84"/><g class="o"><rect class="i" x="520.5" y="519.5" width="21.5" height="5.84"/></g><rect class="q" x="545.5" y="519.5" width="10.8" height="5.84"/><g class="o"><polygon class="i" points="556.3 525.4 553.6 525.4 553.6 524.1 550.1 524.1 550.1 525.4 545.5 525.4 545.5 519.5 556.3 519.5 556.3 525.4"/></g><g class="o"><polygon class="p" points="520.5 520.5 541 520.5 541 525.4 542 525.4 542 519.5 520.5 519.5 520.5 520.5"/></g><g class="o"><polygon class="p" points="545.5 519.5 545.5 520.4 555.1 520.4 555.1 525.4 556.3 525.4 556.3 519.5 545.5 519.5"/></g><rect class="q" x="520.5" y="529.6" width="21.5" height="5.84"/><rect class="q" x="545.5" y="529.6" width="10.8" height="5.84"/><g class="o"><polygon class="i" points="547.7 535.4 547.7 532.5 549.8 532.5 549.8 529.6 545.5 529.6 545.5 535.4 547.7 535.4"/></g><g class="o"><rect class="i" x="554.4" y="529.6" width="1.9" height="5.84"/></g><g class="o"><rect class="i" x="520.5" y="529.6" width="21.5" height="5.84"/></g><g class="o"><polygon class="p" points="520.5 530.5 541 530.5 541 535.4 542 535.4 542 529.6 520.5 529.6 520.5 530.5"/></g><g class="o"><polygon class="p" points="545.5 529.6 545.5 530.4 555.1 530.4 555.1 535.4 556.3 535.4 556.3 529.6 545.5 529.6"/></g><rect class="q" x="520.5" y="539.6" width="21.5" height="5.84"/><g class="o"><polygon class="i" points="520.5 543.9 525.5 543.9 525.5 541.7 535 541.7 535 545.5 542 545.5 542 539.6 520.5 539.6 520.5 543.9"/></g><rect class="q" x="545.5" y="539.6" width="10.8" height="5.84"/><g class="o"><rect class="i" x="554.4" y="539.6" width="1.9" height="5.84"/></g><g class="o"><polygon class="p" points="520.5 540.6 541 540.6 541 545.5 542 545.5 542 539.6 520.5 539.6 520.5 540.6"/></g><g class="o"><rect class="i" x="545.5" y="539.6" width="2.2" height="5.84"/></g><g class="o"><polygon class="p" points="545.5 539.6 545.5 540.5 555.1 540.5 555.1 545.5 556.3 545.5 556.3 539.6 545.5 539.6"/></g><rect class="q" x="520.5" y="549.7" width="21.5" height="5.84"/><rect class="q" x="545.5" y="549.7" width="10.8" height="5.84"/><g class="o"><polygon class="p" points="520.5 550.6 541 550.6 541 555.5 542 555.5 542 549.7 520.5 549.7 520.5 550.6"/></g><g class="o"><polygon class="p" points="545.5 549.7 545.5 550.5 555.1 550.5 555.1 555.5 556.3 555.5 556.3 549.7 545.5 549.7"/></g><rect class="q" x="520.5" y="559.8" width="21.5" height="5.84"/><rect class="q" x="545.5" y="559.8" width="10.8" height="5.84"/><g class="o"><polygon class="p" points="520.5 560.7 541 560.7 541 565.6 542 565.6 542 559.8 520.5 559.8 520.5 560.7"/></g><g class="o"><polygon class="p" points="545.5 559.8 545.5 560.6 555.1 560.6 555.1 565.6 556.3 565.6 556.3 559.8 545.5 559.8"/></g><rect class="q" x="520.5" y="569.8" width="21.5" height="5.84"/><rect class="q" x="545.5" y="569.8" width="10.8" height="5.84"/><g class="o"><polygon class="p" points="520.5 570.7 541 570.7 541 575.7 542 575.7 542 569.8 520.5 569.8 520.5 570.7"/></g><g class="o"><polygon class="p" points="545.5 569.8 545.5 570.7 555.1 570.7 555.1 575.7 556.3 575.7 556.3 569.8 545.5 569.8"/></g><rect class="q" x="520.5" y="579.9" width="21.5" height="5.84"/><rect class="q" x="545.5" y="579.9" width="10.8" height="5.84"/><g class="o"><polygon class="p" points="520.5 580.8 541 580.8 541 585.7 542 585.7 542 579.9 520.5 579.9 520.5 580.8"/></g><g class="o"><polygon class="p" points="545.5 579.9 545.5 580.7 555.1 580.7 555.1 585.7 556.3 585.7 556.3 579.9 545.5 579.9"/></g><rect class="q" x="520.5" y="589.9" width="21.5" height="5.84"/><rect class="q" x="545.5" y="589.9" width="10.8" height="5.84"/><g class="o"><polygon class="p" points="520.5 590.8 541 590.9 541 595.8 542 595.8 542 589.9 520.5 589.9 520.5 590.8"/></g><g class="o"><polygon class="p" points="545.5 589.9 545.5 590.8 555.1 590.8 555.1 595.8 556.3 595.8 556.3 589.9 545.5 589.9"/></g><rect class="q" x="520.5" y="600" width="21.5" height="5.84"/><rect class="q" x="545.5" y="600" width="10.8" height="5.84"/><g class="o"><polygon class="p" points="520.5 600.9 541 600.9 541 605.8 542 605.8 542 600 520.5 600 520.5 600.9"/></g><g class="o"><polygon class="p" points="545.5 600 545.5 600.8 555.1 600.8 555.1 605.8 556.3 605.8 556.3 600 545.5 600"/></g><rect class="q" x="520.5" y="610" width="21.5" height="5.84"/><rect class="q" x="545.5" y="610" width="10.8" height="5.84"/><g class="o"><polygon class="p" points="520.5 611 541 611 541 615.9 542 615.9 542 610 520.5 610 520.5 611"/></g><g class="o"><polygon class="p" points="545.5 610 545.5 610.9 555.1 610.9 555.1 615.9 556.3 615.9 556.3 610 545.5 610"/></g><rect class="q" x="520.5" y="620.1" width="21.5" height="5.84"/><rect class="q" x="545.5" y="620.1" width="10.8" height="5.84"/><g class="o"><polygon class="p" points="520.5 621 541 621 541 625.9 542 625.9 542 620.1 520.5 620.1 520.5 621"/></g><g class="o"><polygon class="p" points="545.5 620.1 545.5 620.9 555.1 620.9 555.1 625.9 556.3 625.9 556.3 620.1 545.5 620.1"/></g><rect class="q" x="511.8" y="500.5" width="2.6" height="4.21"/><rect class="q" x="511.8" y="510.3" width="2.6" height="4.21"/><rect class="q" x="511.8" y="520.2" width="2.6" height="4.21"/><rect class="q" x="511.8" y="530.1" width="2.6" height="4.21"/><rect class="q" x="511.8" y="540" width="2.6" height="4.21"/><rect class="q" x="511.8" y="549.9" width="2.6" height="4.21"/><rect class="q" x="511.8" y="559.8" width="2.6" height="4.21"/><rect class="q" x="511.8" y="569.7" width="2.6" height="4.21"/><rect class="q" x="511.8" y="579.6" width="2.6" height="4.21"/><rect class="q" x="511.8" y="589.5" width="2.6" height="4.21"/><rect class="q" x="511.8" y="599.4" width="2.6" height="4.21"/><rect class="q" x="511.8" y="609.4" width="2.6" height="4.21"/><rect class="q" x="507.5" y="500.5" width="2.6" height="4.21"/><rect class="q" x="507.5" y="510.3" width="2.6" height="4.21"/><rect class="q" x="507.5" y="520.2" width="2.6" height="4.21"/><rect class="q" x="507.5" y="530.1" width="2.6" height="4.21"/><rect class="q" x="507.5" y="540" width="2.6" height="4.21"/><rect class="q" x="507.5" y="549.9" width="2.6" height="4.21"/><rect class="q" x="507.5" y="559.8" width="2.6" height="4.21"/><rect class="q" x="507.5" y="569.7" width="2.6" height="4.21"/><rect class="q" x="507.5" y="579.6" width="2.6" height="4.21"/><rect class="q" x="507.5" y="589.5" width="2.6" height="4.21"/><rect class="q" x="507.5" y="599.4" width="2.6" height="4.21"/><rect class="q" x="507.5" y="609.4" width="2.6" height="4.21"/><path class="i" d="M541.6,575.7H520.5c0-.1,4.7-.2,10.5-.2S541.6,575.6,541.6,575.7Z"/><path class="i" d="M555.4,575.7h-9.6a31,31,0,0,1,4.8-.2A29.9,29.9,0,0,1,555.4,575.7Z"/><path class="i" d="M541.6,585.8c0,.1-4.8.2-10.6.2s-10.5-.1-10.5-.2h21.1Z"/><path class="i" d="M555.4,585.8a29.9,29.9,0,0,1-4.8.2,31,31,0,0,1-4.8-.2h9.6Z"/><path class="i" d="M541.6,596c0,.1-4.8.1-10.6.1s-10.5,0-10.5-.1,4.7-.2,10.5-.2S541.6,595.9,541.6,596Z"/><path class="i" d="M555.4,596a40.5,40.5,0,0,1-4.8.1,41.7,41.7,0,0,1-4.8-.1,31,31,0,0,1,4.8-.2A29.9,29.9,0,0,1,555.4,596Z"/><path class="i" d="M541.6,606.1c0,.1-4.8.2-10.6.2s-10.5-.1-10.5-.2h21.1Z"/><path class="i" d="M555.4,606.1a29.9,29.9,0,0,1-4.8.2,31,31,0,0,1-4.8-.2h9.6Z"/><path class="i" d="M541.6,616.3c0,.1-4.8.1-10.6.1s-10.5,0-10.5-.1h21.1Z"/><path class="i" d="M555.4,616.3a40.5,40.5,0,0,1-4.8.1,41.7,41.7,0,0,1-4.8-.1h9.6Z"/><path class="i" d="M541.6,626.5H520.5c0-.1,4.7-.2,10.5-.2S541.6,626.4,541.6,626.5Z"/><path class="i" d="M555.4,626.5h-9.6a31,31,0,0,1,4.8-.2A29.9,29.9,0,0,1,555.4,626.5Z"/><path class="i" d="M541.6,535.5c0,.1-4.8.2-10.6.2s-10.5-.1-10.5-.2h21.1Z"/><path class="i" d="M541.6,525.4c0,.1-4.8.1-10.6.1s-10.5,0-10.5-.1,4.7-.2,10.5-.2S541.6,525.3,541.6,525.4Z"/><path class="i" d="M541.6,515.2H520.5c0-.1,4.7-.1,10.5-.1S541.6,515.1,541.6,515.2Z"/><path class="i" d="M541.6,545.5c0,.1-4.8.1-10.6.1s-10.5,0-10.5-.1,4.7-.1,10.5-.1S541.6,545.4,541.6,545.5Z"/><path class="i" d="M541.6,555.4c0,.1-4.8.2-10.6.2s-10.5-.1-10.5-.2h21.1Z"/><path class="i" d="M541.6,565.4H520.5c0-.1,4.7-.2,10.5-.2S541.6,565.3,541.6,565.4Z"/><path class="i" d="M541.1,505.2c0,.1-4.7.2-10.4.2s-10.5-.1-10.5-.2h20.9Z"/><path class="i" d="M555.4,505.2a29.9,29.9,0,0,1-4.8.2,31,31,0,0,1-4.8-.2h9.6Z"/><path class="i" d="M555.4,515.2h-9.6a41.7,41.7,0,0,1,4.8-.1A40.5,40.5,0,0,1,555.4,515.2Z"/><path class="i" d="M555.4,525.2h-9.6a31,31,0,0,1,4.8-.2A29.9,29.9,0,0,1,555.4,525.2Z"/><path class="i" d="M555.4,535.5a29.9,29.9,0,0,1-4.8.2,31,31,0,0,1-4.8-.2h9.6Z"/><path class="i" d="M555.4,545.5a40.5,40.5,0,0,1-4.8.1,41.7,41.7,0,0,1-4.8-.1,41.7,41.7,0,0,1,4.8-.1A40.5,40.5,0,0,1,555.4,545.5Z"/><path class="i" d="M555.4,555.5h-9.6a31,31,0,0,1,4.8-.2A29.9,29.9,0,0,1,555.4,555.5Z"/><path class="i" d="M555.4,565.4a29.9,29.9,0,0,1-4.8.2,31,31,0,0,1-4.8-.2h9.6Z"/><rect class="n" x="437.5" y="548.2" width="56.3" height="137.61"/><rect class="q" x="460" y="553.8" width="4.4" height="126.48"/><rect class="q" x="466.2" y="553.8" width="4.4" height="126.48"/><rect class="q" x="472.4" y="553.8" width="4.4" height="126.48"/><rect class="q" x="441.4" y="553.8" width="4.4" height="126.48"/><rect class="q" x="447.6" y="553.8" width="4.4" height="126.48"/><rect class="q" x="478.6" y="553.8" width="4.4" height="126.48"/><rect class="q" x="484.8" y="553.8" width="4.4" height="126.48"/><g class="o"><rect class="p" x="437.5" y="548.2" width="18.1" height="137.61"/></g><path class="i" d="M476.4,567.8a16,16,0,0,1-1.3,1.5,7.6,7.6,0,0,1-1.5,1.3,7.6,7.6,0,0,1,1.3-1.5Z"/><path class="i" d="M481.9,571.5a4.5,4.5,0,0,1-.9,1.1c-.6.5-1,.9-1.1.8l.9-1Z"/><path class="i" d="M487.4,563.7c.1.1-.3.5-.8,1a5.8,5.8,0,0,1-1,.8c-.1-.1.3-.5.8-1A5.8,5.8,0,0,1,487.4,563.7Z"/><rect class="r" x="570.2" y="529.6" width="28.4" height="7.53"/><rect class="q" x="571.4" y="530.5" width="26" height="4.87"/><g class="o"><rect class="i" x="571.4" y="530.5" width="26" height="4.87"/></g><rect class="r" x="565.9" y="536" width="36.5" height="92.48"/><rect class="q" x="567.8" y="538.1" width="32.4" height="90.34"/><g class="o"><polygon class="i" points="567.8 580.5 574.4 580.5 574.4 570.3 579.7 570.3 579.7 562.1 590.2 562.1 590.2 588.1 595.5 588.1 595.5 551.2 600.2 551.2 600.2 538.1 567.8 538.1 567.8 580.5"/></g><path class="r" d="M601.7,547.7H567c0-.1,7.8-.2,17.4-.2S601.7,547.6,601.7,547.7Z"/><path class="r" d="M601.7,556.9c0,.1-7.8.2-17.3.2s-17.4-.1-17.4-.2,7.8-.1,17.4-.1S601.7,556.8,601.7,556.9Z"/><path class="r" d="M601.7,566.2H567c0-.1,7.8-.1,17.4-.1S601.7,566.1,601.7,566.2Z"/><path class="r" d="M601.7,575.5H567c0-.1,7.8-.2,17.4-.2S601.7,575.4,601.7,575.5Z"/><path class="r" d="M601.7,584.7c0,.1-7.8.2-17.3.2s-17.4-.1-17.4-.2h34.7Z"/><path class="r" d="M601.7,594c0,.1-7.8.1-17.3.1s-17.4,0-17.4-.1,7.8-.1,17.4-.1S601.7,593.9,601.7,594Z"/><path class="r" d="M601.7,603.3H567c0-.1,7.8-.2,17.4-.2S601.7,603.2,601.7,603.3Z"/><path class="r" d="M601.7,612.5c0,.1-7.8.2-17.3.2s-17.4-.1-17.4-.2h34.7Z"/><path class="r" d="M601.7,621.8c0,.1-7.8.1-17.3.1s-17.4,0-17.4-.1h34.7Z"/><path class="r" d="M575.2,630.4c-.1,0-.1-22.4-.1-50.1s0-50.2.1-50.2.1,22.5.1,50.2S575.3,630.4,575.2,630.4Z"/><path class="r" d="M584.6,630.4c-.1,0-.1-22.4-.1-50.1s0-50.2.1-50.2.1,22.5.1,50.2S584.7,630.4,584.6,630.4Z"/><path class="r" d="M594,630.4c-.1,0-.1-22.4-.1-50.1s0-50.2.1-50.2.1,22.5.1,50.2S594.1,630.4,594,630.4Z"/><rect class="r" x="566.1" y="529.6" width="4.1" height="6.42"/><g class="o"><rect class="p" x="566.1" y="529.6" width="4.1" height="6.42"/></g><rect class="r" x="561.9" y="536.1" width="4.1" height="77.83"/><g class="o"><rect class="p" x="561.9" y="536.1" width="4.1" height="77.83"/></g><path class="i" d="M583.2,549.3a18.4,18.4,0,0,1-2.6,2.8l-2.9,2.5a14.3,14.3,0,0,1,2.7-2.7C581.9,550.4,583.2,549.3,583.2,549.3Z"/><path class="i" d="M591.9,549.2a33.8,33.8,0,0,1-2.6,2.7c-1.6,1.4-2.9,2.6-2.9,2.5a14.3,14.3,0,0,1,2.7-2.7A19.6,19.6,0,0,1,591.9,549.2Z"/><path class="i" d="M592.1,541.8a29.2,29.2,0,0,1-2.7,2.7,13.7,13.7,0,0,1-2.9,2.5l2.7-2.7A28.5,28.5,0,0,1,592.1,541.8Z"/><polygon class="q" points="662.4 662.7 614 662.7 614 576.5 662.4 552.9 662.4 662.7"/><rect class="s" x="633.4" y="613.9" width="4.4" height="6.26"/><g class="o"><polygon class="p" points="633.4 613.9 633.4 614.6 637 614.6 637 620.1 637.8 620.1 637.8 613.9 633.4 613.9"/></g><rect class="s" x="633.4" y="626" width="4.4" height="6.26"/><g class="o"><polygon class="p" points="633.4 626 633.4 626.7 637 626.7 637 632.2 637.8 632.2 637.8 626 633.4 626"/></g><rect class="s" x="633.4" y="638.1" width="4.4" height="6.26"/><g class="o"><polygon class="p" points="633.4 638.1 633.4 638.8 637 638.8 637 644.3 637.8 644.3 637.8 638.1 633.4 638.1"/></g><rect class="s" x="633.4" y="650.2" width="4.4" height="12.52"/><g class="o"><polygon class="p" points="633.4 650.2 633.4 651.8 637 651.8 637 662.8 637.8 662.8 637.8 650.2 633.4 650.2"/></g><rect class="s" x="633.4" y="601.4" width="4.4" height="6.26"/><g class="o"><polygon class="p" points="633.4 601.4 633.4 602.2 637 602.2 637 607.7 637.8 607.7 637.8 601.4 633.4 601.4"/></g><rect class="s" x="633.4" y="589" width="4.4" height="6.26"/><g class="o"><polygon class="p" points="633.4 589 633.4 589.8 637 589.8 637 595.3 637.8 595.3 637.8 589 633.4 589"/></g><rect class="s" x="633.4" y="576.6" width="4.4" height="6.26"/><g class="o"><polygon class="p" points="633.4 576.6 633.4 577.4 637 577.4 637 582.9 637.8 582.9 637.8 576.6 633.4 576.6"/></g><rect class="s" x="643.3" y="613.6" width="4.4" height="6.26"/><g class="o"><polygon class="p" points="643.3 613.6 643.3 614.4 646.9 614.4 646.9 619.8 647.6 619.8 647.6 613.6 643.3 613.6"/></g><rect class="s" x="643.3" y="625.7" width="4.4" height="6.26"/><g class="o"><polygon class="p" points="643.3 625.7 643.3 626.5 646.9 626.5 646.9 631.9 647.6 631.9 647.6 625.7 643.3 625.7"/></g><rect class="s" x="643.3" y="637.8" width="4.4" height="6.26"/><g class="o"><polygon class="p" points="643.3 637.8 643.3 638.6 646.9 638.6 646.9 644.1 647.6 644.1 647.6 637.8 643.3 637.8"/></g><rect class="s" x="643.3" y="649.9" width="4.4" height="12.86"/><g class="o"><polygon class="p" points="643.3 649.9 643.3 651.5 646.9 651.5 646.9 662.8 647.6 662.8 647.6 649.9 643.3 649.9"/></g><rect class="s" x="643.3" y="601.2" width="4.4" height="6.26"/><g class="o"><polygon class="p" points="643.3 601.2 643.3 602 646.9 602 646.9 607.4 647.6 607.4 647.6 601.2 643.3 601.2"/></g><rect class="s" x="643.3" y="588.8" width="4.4" height="6.26"/><g class="o"><polygon class="p" points="643.3 588.8 643.3 589.5 646.9 589.5 646.9 595 647.6 595 647.6 588.8 643.3 588.8"/></g><rect class="s" x="643.3" y="576.4" width="4.4" height="6.26"/><g class="o"><polygon class="p" points="643.3 576.4 643.3 577.1 646.9 577.1 646.9 582.6 647.6 582.6 647.6 576.4 643.3 576.4"/></g><rect class="s" x="653.2" y="613.8" width="4.4" height="6.26"/><g class="o"><polygon class="p" points="653.2 613.8 653.2 614.6 656.8 614.6 656.8 620 657.5 620 657.5 613.8 653.2 613.8"/></g><rect class="s" x="653.2" y="625.9" width="4.4" height="6.26"/><g class="o"><polygon class="p" points="653.2 625.9 653.2 626.7 656.8 626.7 656.8 632.1 657.5 632.1 657.5 625.9 653.2 625.9"/></g><rect class="s" x="653.2" y="638" width="4.4" height="6.26"/><g class="o"><polygon class="p" points="653.2 638 653.2 638.8 656.8 638.8 656.8 644.3 657.5 644.3 657.5 638 653.2 638"/></g><rect class="s" x="653.2" y="650.1" width="4.4" height="12.52"/><g class="o"><polygon class="p" points="653.2 650.1 653.2 651.7 656.8 651.7 656.8 662.6 657.5 662.6 657.5 650.1 653.2 650.1"/></g><rect class="s" x="653.2" y="601.4" width="4.4" height="6.26"/><g class="o"><polygon class="p" points="653.2 601.4 653.2 602.2 656.8 602.2 656.8 607.6 657.5 607.6 657.5 601.4 653.2 601.4"/></g><rect class="s" x="653.2" y="589" width="4.4" height="6.26"/><g class="o"><polygon class="p" points="653.2 589 653.2 589.8 656.8 589.8 656.8 595.2 657.5 595.2 657.5 589 653.2 589"/></g><rect class="s" x="653.2" y="576.6" width="4.4" height="6.26"/><g class="o"><polygon class="p" points="653.2 576.6 653.2 577.4 656.8 577.4 656.8 582.8 657.5 582.8 657.5 576.6 653.2 576.6"/></g><rect class="s" x="653.2" y="566" width="4.4" height="6.26"/><g class="o"><polygon class="p" points="653.2 566 653.2 566.8 656.8 566.8 656.8 572.3 657.5 572.3 657.5 566 653.2 566"/></g><rect class="r" x="622.4" y="578.6" width="1.5" height="6.26"/><rect class="i" x="621.3" y="584.8" width="2.8" height="0.94"/><rect class="r" x="622.4" y="590.5" width="1.5" height="6.26"/><rect class="i" x="621.3" y="596.8" width="2.8" height="0.94"/><rect class="r" x="622.4" y="602.4" width="1.5" height="6.26"/><rect class="i" x="621.3" y="608.7" width="2.8" height="0.94"/><rect class="r" x="622.4" y="614.3" width="1.5" height="6.26"/><rect class="i" x="621.3" y="620.6" width="2.8" height="0.94"/><rect class="r" x="622.5" y="625.9" width="1.5" height="6.26"/><rect class="i" x="621.5" y="632.2" width="2.8" height="0.94"/><rect class="r" x="622.7" y="637.6" width="1.5" height="6.26"/><rect class="i" x="621.6" y="643.8" width="2.8" height="0.94"/><rect class="r" x="622.8" y="649.2" width="1.5" height="6.26"/><rect class="i" x="621.8" y="655.4" width="2.8" height="0.94"/><rect class="r" x="617.7" y="578.6" width="1.5" height="6.26"/><rect class="i" x="616.7" y="584.8" width="2.8" height="0.94"/><rect class="r" x="617.7" y="590.5" width="1.5" height="6.26"/><rect class="i" x="616.7" y="596.8" width="2.8" height="0.94"/><rect class="r" x="617.7" y="602.4" width="1.5" height="6.26"/><rect class="i" x="616.7" y="608.7" width="2.8" height="0.94"/><rect class="r" x="617.7" y="614.3" width="1.5" height="6.26"/><rect class="i" x="616.7" y="620.6" width="2.8" height="0.94"/><rect class="r" x="617.9" y="625.9" width="1.5" height="6.26"/><rect class="i" x="616.8" y="632.2" width="2.8" height="0.94"/><rect class="r" x="618" y="637.6" width="1.5" height="6.26"/><rect class="i" x="617" y="643.8" width="2.8" height="0.94"/><rect class="r" x="618.2" y="649.2" width="1.5" height="6.26"/><rect class="i" x="617.1" y="655.4" width="2.8" height="0.94"/><g class="o"><polygon class="p" points="627.7 662.8 614 662.8 614 576.5 628 569.7 627.7 662.8"/></g><rect class="t" x="496.9" y="574.5" width="41.4" height="111.48"/><rect class="q" x="513" y="578.8" width="2.7" height="3.9"/><g class="o"><polygon class="p" points="513 578.8 513 579.2 515.2 579.2 515.2 582.7 515.7 582.7 515.7 578.8 513 578.8"/></g><rect class="q" x="517.1" y="578.8" width="2.7" height="3.9"/><g class="o"><polygon class="p" points="517.1 578.8 517.1 579.2 519.4 579.2 519.4 582.7 519.8 582.7 519.8 578.8 517.1 578.8"/></g><rect class="q" x="521.3" y="578.8" width="2.7" height="3.9"/><g class="o"><polygon class="p" points="521.3 578.8 521.3 579.2 523.6 579.2 523.6 582.7 524 582.7 524 578.8 521.3 578.8"/></g><rect class="q" x="525.5" y="578.8" width="2.7" height="3.9"/><g class="o"><polygon class="p" points="525.5 578.8 525.5 579.2 527.7 579.2 527.7 582.7 528.2 582.7 528.2 578.8 525.5 578.8"/></g><rect class="q" x="529.6" y="578.8" width="2.7" height="3.9"/><g class="o"><polygon class="p" points="529.6 578.8 529.6 579.2 531.9 579.2 531.9 582.7 532.4 582.7 532.4 578.8 529.6 578.8"/></g><rect class="q" x="533.8" y="578.8" width="2.7" height="3.9"/><g class="o"><polygon class="p" points="533.8 578.8 533.8 579.2 536.1 579.2 536.1 582.7 536.5 582.7 536.5 578.8 533.8 578.8"/></g><rect class="q" x="498.6" y="578.8" width="2.7" height="3.9"/><g class="o"><polygon class="p" points="498.6 578.8 498.6 579.2 500.9 579.2 500.9 582.7 501.3 582.7 501.3 578.8 498.6 578.8"/></g><rect class="q" x="502.8" y="578.8" width="2.7" height="3.9"/><g class="o"><polygon class="p" points="502.8 578.8 502.8 579.2 505 579.2 505 582.7 505.5 582.7 505.5 578.8 502.8 578.8"/></g><rect class="q" x="507" y="578.8" width="2.7" height="3.9"/><g class="o"><polygon class="p" points="507 578.8 507 579.2 509.2 579.2 509.2 582.7 509.7 582.7 509.7 578.8 507 578.8"/></g><rect class="q" x="513" y="584.6" width="2.7" height="3.9"/><g class="o"><polygon class="p" points="513 584.6 513 585 515.2 585 515.2 588.5 515.7 588.5 515.7 584.6 513 584.6"/></g><rect class="q" x="517.1" y="584.6" width="2.7" height="3.9"/><g class="o"><polygon class="p" points="517.1 584.6 517.1 585 519.4 585 519.4 588.5 519.8 588.5 519.8 584.6 517.1 584.6"/></g><rect class="q" x="521.3" y="584.6" width="2.7" height="3.9"/><g class="o"><polygon class="p" points="521.3 584.6 521.3 585 523.6 585 523.6 588.5 524 588.5 524 584.6 521.3 584.6"/></g><rect class="q" x="525.5" y="584.6" width="2.7" height="3.9"/><g class="o"><polygon class="p" points="525.5 584.6 525.5 585 527.7 585 527.7 588.5 528.2 588.5 528.2 584.6 525.5 584.6"/></g><rect class="q" x="529.6" y="584.6" width="2.7" height="3.9"/><g class="o"><polygon class="p" points="529.6 584.6 529.6 585 531.9 585 531.9 588.5 532.4 588.5 532.4 584.6 529.6 584.6"/></g><rect class="q" x="533.8" y="584.6" width="2.7" height="3.9"/><g class="o"><polygon class="p" points="533.8 584.6 533.8 585 536.1 585 536.1 588.5 536.5 588.5 536.5 584.6 533.8 584.6"/></g><rect class="q" x="498.6" y="584.6" width="2.7" height="3.9"/><g class="o"><polygon class="p" points="498.6 584.6 498.6 585 500.9 585 500.9 588.5 501.3 588.5 501.3 584.6 498.6 584.6"/></g><rect class="q" x="502.8" y="584.6" width="2.7" height="3.9"/><g class="o"><polygon class="p" points="502.8 584.6 502.8 585 505 585 505 588.5 505.5 588.5 505.5 584.6 502.8 584.6"/></g><rect class="q" x="507" y="584.6" width="2.7" height="3.9"/><g class="o"><polygon class="p" points="507 584.6 507 585 509.2 585 509.2 588.5 509.7 588.5 509.7 584.6 507 584.6"/></g><rect class="q" x="513" y="590.3" width="2.7" height="3.9"/><g class="o"><polygon class="p" points="513 590.3 513 590.8 515.2 590.8 515.2 594.3 515.7 594.3 515.7 590.3 513 590.3"/></g><rect class="q" x="517.1" y="590.3" width="2.7" height="3.9"/><g class="o"><polygon class="p" points="517.1 590.3 517.1 590.8 519.4 590.8 519.4 594.3 519.8 594.3 519.8 590.3 517.1 590.3"/></g><rect class="q" x="521.3" y="590.3" width="2.7" height="3.9"/><g class="o"><polygon class="p" points="521.3 590.3 521.3 590.8 523.6 590.8 523.6 594.3 524 594.3 524 590.3 521.3 590.3"/></g><rect class="q" x="525.5" y="590.3" width="2.7" height="3.9"/><g class="o"><polygon class="p" points="525.5 590.3 525.5 590.8 527.7 590.8 527.7 594.3 528.2 594.3 528.2 590.3 525.5 590.3"/></g><rect class="q" x="529.6" y="590.3" width="2.7" height="3.9"/><g class="o"><polygon class="p" points="529.6 590.3 529.6 590.8 531.9 590.8 531.9 594.3 532.4 594.3 532.4 590.3 529.6 590.3"/></g><rect class="q" x="533.8" y="590.3" width="2.7" height="3.9"/><g class="o"><polygon class="p" points="533.8 590.3 533.8 590.8 536.1 590.8 536.1 594.3 536.5 594.3 536.5 590.3 533.8 590.3"/></g><rect class="q" x="498.6" y="590.3" width="2.7" height="3.9"/><g class="o"><polygon class="p" points="498.6 590.3 498.6 590.8 500.9 590.8 500.9 594.3 501.3 594.3 501.3 590.3 498.6 590.3"/></g><rect class="q" x="502.8" y="590.3" width="2.7" height="3.9"/><g class="o"><polygon class="p" points="502.8 590.3 502.8 590.8 505 590.8 505 594.3 505.5 594.3 505.5 590.3 502.8 590.3"/></g><rect class="q" x="507" y="590.3" width="2.7" height="3.9"/><g class="o"><polygon class="p" points="507 590.3 507 590.8 509.2 590.8 509.2 594.3 509.7 594.3 509.7 590.3 507 590.3"/></g><g class="u"><rect class="i" x="498.6" y="578.8" width="2.7" height="3.9"/><g class="o"><polygon class="i" points="498.6 578.8 498.6 579.2 500.9 579.2 500.9 582.7 501.3 582.7 501.3 578.8 498.6 578.8"/></g></g><g class="u"><rect class="i" x="502.8" y="578.8" width="2.7" height="3.9"/><g class="o"><polygon class="i" points="502.8 578.8 502.8 579.2 505 579.2 505 582.7 505.5 582.7 505.5 578.8 502.8 578.8"/></g></g><g class="u"><rect class="i" x="507" y="578.8" width="2.7" height="3.9"/><g class="o"><polygon class="i" points="507 578.8 507 579.2 509.2 579.2 509.2 582.7 509.7 582.7 509.7 578.8 507 578.8"/></g></g><g class="u"><rect class="i" x="498.6" y="584.6" width="2.7" height="3.9"/><g class="o"><polygon class="i" points="498.6 584.6 498.6 585 500.9 585 500.9 588.5 501.3 588.5 501.3 584.6 498.6 584.6"/></g></g><g class="u"><rect class="i" x="502.8" y="584.6" width="2.7" height="3.9"/><g class="o"><polygon class="i" points="502.8 584.6 502.8 585 505 585 505 588.5 505.5 588.5 505.5 584.6 502.8 584.6"/></g></g><g class="u"><rect class="i" x="507" y="584.6" width="2.7" height="3.9"/><g class="o"><polygon class="i" points="507 584.6 507 585 509.2 585 509.2 588.5 509.7 588.5 509.7 584.6 507 584.6"/></g></g><g class="u"><rect class="i" x="498.6" y="590.3" width="2.7" height="3.9"/><g class="o"><polygon class="i" points="498.6 590.3 498.6 590.8 500.9 590.8 500.9 594.3 501.3 594.3 501.3 590.3 498.6 590.3"/></g></g><g class="u"><rect class="i" x="507" y="590.3" width="2.7" height="3.9"/><g class="o"><polygon class="i" points="507 590.3 507 590.8 509.2 590.8 509.2 594.3 509.7 594.3 509.7 590.3 507 590.3"/></g></g><rect class="q" x="513" y="596.1" width="2.7" height="3.9"/><g class="o"><polygon class="p" points="513 596.1 513 596.6 515.2 596.6 515.2 600.1 515.7 600.1 515.7 596.1 513 596.1"/></g><rect class="q" x="517.1" y="596.1" width="2.7" height="3.9"/><g class="o"><polygon class="p" points="517.1 596.1 517.1 596.6 519.4 596.6 519.4 600.1 519.8 600.1 519.8 596.1 517.1 596.1"/></g><rect class="q" x="521.3" y="596.1" width="2.7" height="3.9"/><g class="o"><polygon class="p" points="521.3 596.1 521.3 596.6 523.6 596.6 523.6 600.1 524 600.1 524 596.1 521.3 596.1"/></g><rect class="q" x="525.5" y="596.1" width="2.7" height="3.9"/><g class="o"><polygon class="p" points="525.5 596.1 525.5 596.6 527.7 596.6 527.7 600.1 528.2 600.1 528.2 596.1 525.5 596.1"/></g><rect class="q" x="529.6" y="596.1" width="2.7" height="3.9"/><g class="o"><polygon class="p" points="529.6 596.1 529.6 596.6 531.9 596.6 531.9 600.1 532.4 600.1 532.4 596.1 529.6 596.1"/></g><rect class="q" x="533.8" y="596.1" width="2.7" height="3.9"/><g class="o"><polygon class="p" points="533.8 596.1 533.8 596.6 536.1 596.6 536.1 600.1 536.5 600.1 536.5 596.1 533.8 596.1"/></g><rect class="q" x="498.6" y="596.1" width="2.7" height="3.9"/><g class="o"><polygon class="p" points="498.6 596.1 498.6 596.6 500.9 596.6 500.9 600.1 501.3 600.1 501.3 596.1 498.6 596.1"/></g><rect class="q" x="502.8" y="596.1" width="2.7" height="3.9"/><g class="o"><polygon class="p" points="502.8 596.1 502.8 596.6 505 596.6 505 600.1 505.5 600.1 505.5 596.1 502.8 596.1"/></g><rect class="q" x="507" y="596.1" width="2.7" height="3.9"/><g class="o"><polygon class="p" points="507 596.1 507 596.6 509.2 596.6 509.2 600.1 509.7 600.1 509.7 596.1 507 596.1"/></g><rect class="q" x="513" y="601.9" width="2.7" height="3.9"/><g class="o"><polygon class="p" points="513 601.9 513 602.4 515.2 602.4 515.2 605.8 515.7 605.8 515.7 601.9 513 601.9"/></g><rect class="q" x="517.1" y="601.9" width="2.7" height="3.9"/><g class="o"><polygon class="p" points="517.1 601.9 517.1 602.4 519.4 602.4 519.4 605.8 519.8 605.8 519.8 601.9 517.1 601.9"/></g><rect class="q" x="521.3" y="601.9" width="2.7" height="3.9"/><g class="o"><polygon class="p" points="521.3 601.9 521.3 602.4 523.6 602.4 523.6 605.8 524 605.8 524 601.9 521.3 601.9"/></g><rect class="q" x="525.5" y="601.9" width="2.7" height="3.9"/><g class="o"><polygon class="p" points="525.5 601.9 525.5 602.4 527.7 602.4 527.7 605.8 528.2 605.8 528.2 601.9 525.5 601.9"/></g><rect class="q" x="529.6" y="601.9" width="2.7" height="3.9"/><g class="o"><polygon class="p" points="529.6 601.9 529.6 602.4 531.9 602.4 531.9 605.8 532.4 605.8 532.4 601.9 529.6 601.9"/></g><rect class="q" x="533.8" y="601.9" width="2.7" height="3.9"/><g class="o"><polygon class="p" points="533.8 601.9 533.8 602.4 536.1 602.4 536.1 605.8 536.5 605.8 536.5 601.9 533.8 601.9"/></g><rect class="q" x="498.6" y="601.9" width="2.7" height="3.9"/><g class="o"><polygon class="p" points="498.6 601.9 498.6 602.4 500.9 602.4 500.9 605.8 501.3 605.8 501.3 601.9 498.6 601.9"/></g><rect class="q" x="502.8" y="601.9" width="2.7" height="3.9"/><g class="o"><polygon class="p" points="502.8 601.9 502.8 602.4 505 602.4 505 605.8 505.5 605.8 505.5 601.9 502.8 601.9"/></g><rect class="q" x="507" y="601.9" width="2.7" height="3.9"/><g class="o"><polygon class="p" points="507 601.9 507 602.4 509.2 602.4 509.2 605.8 509.7 605.8 509.7 601.9 507 601.9"/></g><rect class="q" x="513" y="607.7" width="2.7" height="3.9"/><g class="o"><polygon class="p" points="513 607.7 513 608.2 515.2 608.2 515.2 611.6 515.7 611.6 515.7 607.7 513 607.7"/></g><rect class="q" x="517.1" y="607.7" width="2.7" height="3.9"/><g class="o"><polygon class="p" points="517.1 607.7 517.1 608.2 519.4 608.2 519.4 611.6 519.8 611.6 519.8 607.7 517.1 607.7"/></g><rect class="q" x="521.3" y="607.7" width="2.7" height="3.9"/><g class="o"><polygon class="p" points="521.3 607.7 521.3 608.2 523.6 608.2 523.6 611.6 524 611.6 524 607.7 521.3 607.7"/></g><rect class="q" x="525.5" y="607.7" width="2.7" height="3.9"/><g class="o"><polygon class="p" points="525.5 607.7 525.5 608.2 527.7 608.2 527.7 611.6 528.2 611.6 528.2 607.7 525.5 607.7"/></g><rect class="q" x="529.6" y="607.7" width="2.7" height="3.9"/><g class="o"><polygon class="p" points="529.6 607.7 529.6 608.2 531.9 608.2 531.9 611.6 532.4 611.6 532.4 607.7 529.6 607.7"/></g><rect class="q" x="533.8" y="607.7" width="2.7" height="3.9"/><g class="o"><polygon class="p" points="533.8 607.7 533.8 608.2 536.1 608.2 536.1 611.6 536.5 611.6 536.5 607.7 533.8 607.7"/></g><rect class="q" x="498.6" y="607.7" width="2.7" height="3.9"/><g class="o"><polygon class="p" points="498.6 607.7 498.6 608.2 500.9 608.2 500.9 611.6 501.3 611.6 501.3 607.7 498.6 607.7"/></g><rect class="q" x="502.8" y="607.7" width="2.7" height="3.9"/><g class="o"><polygon class="p" points="502.8 607.7 502.8 608.2 505 608.2 505 611.6 505.5 611.6 505.5 607.7 502.8 607.7"/></g><rect class="q" x="507" y="607.7" width="2.7" height="3.9"/><g class="o"><polygon class="p" points="507 607.7 507 608.2 509.2 608.2 509.2 611.6 509.7 611.6 509.7 607.7 507 607.7"/></g><rect class="q" x="513" y="616.3" width="2.7" height="3.9"/><g class="o"><polygon class="p" points="513 616.3 513 616.8 515.2 616.8 515.2 620.2 515.7 620.2 515.7 616.3 513 616.3"/></g><rect class="q" x="517.1" y="616.3" width="2.7" height="3.9"/><g class="o"><polygon class="p" points="517.1 616.3 517.1 616.8 519.4 616.8 519.4 620.2 519.8 620.2 519.8 616.3 517.1 616.3"/></g><rect class="q" x="521.3" y="616.3" width="2.7" height="3.9"/><g class="o"><polygon class="p" points="521.3 616.3 521.3 616.8 523.6 616.8 523.6 620.2 524 620.2 524 616.3 521.3 616.3"/></g><rect class="q" x="525.5" y="616.3" width="2.7" height="3.9"/><g class="o"><polygon class="p" points="525.5 616.3 525.5 616.8 527.7 616.8 527.7 620.2 528.2 620.2 528.2 616.3 525.5 616.3"/></g><rect class="q" x="529.6" y="616.3" width="2.7" height="3.9"/><g class="o"><polygon class="p" points="529.6 616.3 529.6 616.8 531.9 616.8 531.9 620.2 532.4 620.2 532.4 616.3 529.6 616.3"/></g><rect class="q" x="533.8" y="616.3" width="2.7" height="3.9"/><g class="o"><polygon class="p" points="533.8 616.3 533.8 616.8 536.1 616.8 536.1 620.2 536.5 620.2 536.5 616.3 533.8 616.3"/></g><rect class="q" x="498.6" y="616.3" width="2.7" height="3.9"/><g class="o"><polygon class="p" points="498.6 616.3 498.6 616.8 500.9 616.8 500.9 620.2 501.3 620.2 501.3 616.3 498.6 616.3"/></g><rect class="q" x="502.8" y="616.3" width="2.7" height="3.9"/><g class="o"><polygon class="p" points="502.8 616.3 502.8 616.8 505 616.8 505 620.2 505.5 620.2 505.5 616.3 502.8 616.3"/></g><rect class="q" x="507" y="616.3" width="2.7" height="3.9"/><g class="o"><polygon class="p" points="507 616.3 507 616.8 509.2 616.8 509.2 620.2 509.7 620.2 509.7 616.3 507 616.3"/></g><rect class="q" x="513" y="621.9" width="2.7" height="3.9"/><g class="o"><polygon class="p" points="513 621.9 513 622.4 515.2 622.4 515.2 625.8 515.7 625.8 515.7 621.9 513 621.9"/></g><rect class="q" x="517.1" y="621.9" width="2.7" height="3.9"/><g class="o"><polygon class="p" points="517.1 621.9 517.1 622.4 519.4 622.4 519.4 625.8 519.8 625.8 519.8 621.9 517.1 621.9"/></g><rect class="q" x="521.3" y="621.9" width="2.7" height="3.9"/><g class="o"><polygon class="p" points="521.3 621.9 521.3 622.4 523.6 622.4 523.6 625.8 524 625.8 524 621.9 521.3 621.9"/></g><rect class="q" x="525.5" y="621.9" width="2.7" height="3.9"/><g class="o"><polygon class="p" points="525.5 621.9 525.5 622.4 527.7 622.4 527.7 625.8 528.2 625.8 528.2 621.9 525.5 621.9"/></g><rect class="q" x="529.6" y="621.9" width="2.7" height="3.9"/><g class="o"><polygon class="p" points="529.6 621.9 529.6 622.4 531.9 622.4 531.9 625.8 532.4 625.8 532.4 621.9 529.6 621.9"/></g><rect class="q" x="533.8" y="621.9" width="2.7" height="3.9"/><g class="o"><polygon class="p" points="533.8 621.9 533.8 622.4 536.1 622.4 536.1 625.8 536.5 625.8 536.5 621.9 533.8 621.9"/></g><rect class="q" x="498.6" y="621.9" width="2.7" height="3.9"/><g class="o"><polygon class="p" points="498.6 621.9 498.6 622.4 500.9 622.4 500.9 625.8 501.3 625.8 501.3 621.9 498.6 621.9"/></g><rect class="q" x="502.8" y="621.9" width="2.7" height="3.9"/><g class="o"><polygon class="p" points="502.8 621.9 502.8 622.4 505 622.4 505 625.8 505.5 625.8 505.5 621.9 502.8 621.9"/></g><rect class="q" x="507" y="621.9" width="2.7" height="3.9"/><g class="o"><polygon class="p" points="507 621.9 507 622.4 509.2 622.4 509.2 625.8 509.7 625.8 509.7 621.9 507 621.9"/></g><rect class="q" x="513" y="627.5" width="2.7" height="3.9"/><g class="o"><polygon class="p" points="513 627.5 513 628 515.2 628 515.2 631.4 515.7 631.4 515.7 627.5 513 627.5"/></g><rect class="q" x="517.1" y="627.5" width="2.7" height="3.9"/><g class="o"><polygon class="p" points="517.1 627.5 517.1 628 519.4 628 519.4 631.4 519.8 631.4 519.8 627.5 517.1 627.5"/></g><rect class="q" x="521.3" y="627.5" width="2.7" height="3.9"/><g class="o"><polygon class="p" points="521.3 627.5 521.3 628 523.6 628 523.6 631.4 524 631.4 524 627.5 521.3 627.5"/></g><rect class="q" x="525.5" y="627.5" width="2.7" height="3.9"/><g class="o"><polygon class="p" points="525.5 627.5 525.5 628 527.7 628 527.7 631.4 528.2 631.4 528.2 627.5 525.5 627.5"/></g><rect class="q" x="529.6" y="627.5" width="2.7" height="3.9"/><g class="o"><polygon class="p" points="529.6 627.5 529.6 628 531.9 628 531.9 631.4 532.4 631.4 532.4 627.5 529.6 627.5"/></g><rect class="q" x="533.8" y="627.5" width="2.7" height="3.9"/><g class="o"><polygon class="p" points="533.8 627.5 533.8 628 536.1 628 536.1 631.4 536.5 631.4 536.5 627.5 533.8 627.5"/></g><rect class="q" x="498.6" y="627.5" width="2.7" height="3.9"/><g class="o"><polygon class="p" points="498.6 627.5 498.6 628 500.9 628 500.9 631.4 501.3 631.4 501.3 627.5 498.6 627.5"/></g><rect class="q" x="502.8" y="627.5" width="2.7" height="3.9"/><g class="o"><polygon class="p" points="502.8 627.5 502.8 628 505 628 505 631.4 505.5 631.4 505.5 627.5 502.8 627.5"/></g><rect class="q" x="507" y="627.5" width="2.7" height="3.9"/><g class="o"><polygon class="p" points="507 627.5 507 628 509.2 628 509.2 631.4 509.7 631.4 509.7 627.5 507 627.5"/></g><rect class="q" x="513" y="633.1" width="2.7" height="3.9"/><g class="o"><polygon class="p" points="513 633.1 513 633.6 515.2 633.6 515.2 637 515.7 637 515.7 633.1 513 633.1"/></g><rect class="q" x="517.1" y="633.1" width="2.7" height="3.9"/><g class="o"><polygon class="p" points="517.1 633.1 517.1 633.6 519.4 633.6 519.4 637 519.8 637 519.8 633.1 517.1 633.1"/></g><rect class="q" x="521.3" y="633.1" width="2.7" height="3.9"/><g class="o"><polygon class="p" points="521.3 633.1 521.3 633.6 523.6 633.6 523.6 637 524 637 524 633.1 521.3 633.1"/></g><rect class="q" x="525.5" y="633.1" width="2.7" height="3.9"/><g class="o"><polygon class="p" points="525.5 633.1 525.5 633.6 527.7 633.6 527.7 637 528.2 637 528.2 633.1 525.5 633.1"/></g><rect class="q" x="529.6" y="633.1" width="2.7" height="3.9"/><g class="o"><polygon class="p" points="529.6 633.1 529.6 633.6 531.9 633.6 531.9 637 532.4 637 532.4 633.1 529.6 633.1"/></g><rect class="q" x="533.8" y="633.1" width="2.7" height="3.9"/><g class="o"><polygon class="p" points="533.8 633.1 533.8 633.6 536.1 633.6 536.1 637 536.5 637 536.5 633.1 533.8 633.1"/></g><rect class="q" x="498.6" y="633.1" width="2.7" height="3.9"/><g class="o"><polygon class="p" points="498.6 633.1 498.6 633.6 500.9 633.6 500.9 637 501.3 637 501.3 633.1 498.6 633.1"/></g><rect class="q" x="502.8" y="633.1" width="2.7" height="3.9"/><g class="o"><polygon class="p" points="502.8 633.1 502.8 633.6 505 633.6 505 637 505.5 637 505.5 633.1 502.8 633.1"/></g><rect class="q" x="507" y="633.1" width="2.7" height="3.9"/><g class="o"><polygon class="p" points="507 633.1 507 633.6 509.2 633.6 509.2 637 509.7 637 509.7 633.1 507 633.1"/></g><rect class="q" x="513" y="638.7" width="2.7" height="3.9"/><g class="o"><polygon class="p" points="513 638.7 513 639.2 515.2 639.2 515.2 642.6 515.7 642.6 515.7 638.7 513 638.7"/></g><rect class="q" x="517.1" y="638.7" width="2.7" height="3.9"/><g class="o"><polygon class="p" points="517.1 638.7 517.1 639.2 519.4 639.2 519.4 642.6 519.8 642.6 519.8 638.7 517.1 638.7"/></g><rect class="q" x="521.3" y="638.7" width="2.7" height="3.9"/><g class="o"><polygon class="p" points="521.3 638.7 521.3 639.2 523.6 639.2 523.6 642.6 524 642.6 524 638.7 521.3 638.7"/></g><rect class="q" x="525.5" y="638.7" width="2.7" height="3.9"/><g class="o"><polygon class="p" points="525.5 638.7 525.5 639.2 527.7 639.2 527.7 642.6 528.2 642.6 528.2 638.7 525.5 638.7"/></g><rect class="q" x="529.6" y="638.7" width="2.7" height="3.9"/><g class="o"><polygon class="p" points="529.6 638.7 529.6 639.2 531.9 639.2 531.9 642.6 532.4 642.6 532.4 638.7 529.6 638.7"/></g><rect class="q" x="533.8" y="638.7" width="2.7" height="3.9"/><g class="o"><polygon class="p" points="533.8 638.7 533.8 639.2 536.1 639.2 536.1 642.6 536.5 642.6 536.5 638.7 533.8 638.7"/></g><rect class="q" x="498.6" y="638.7" width="2.7" height="3.9"/><g class="o"><polygon class="p" points="498.6 638.7 498.6 639.2 500.9 639.2 500.9 642.6 501.3 642.6 501.3 638.7 498.6 638.7"/></g><rect class="q" x="502.8" y="638.7" width="2.7" height="3.9"/><g class="o"><polygon class="p" points="502.8 638.7 502.8 639.2 505 639.2 505 642.6 505.5 642.6 505.5 638.7 502.8 638.7"/></g><rect class="q" x="507" y="638.7" width="2.7" height="3.9"/><g class="o"><polygon class="p" points="507 638.7 507 639.2 509.2 639.2 509.2 642.6 509.7 642.6 509.7 638.7 507 638.7"/></g><rect class="q" x="513" y="644.3" width="2.7" height="3.9"/><g class="o"><polygon class="p" points="513 644.3 513 644.8 515.2 644.8 515.2 648.2 515.7 648.2 515.7 644.3 513 644.3"/></g><rect class="q" x="517.1" y="644.3" width="2.7" height="3.9"/><g class="o"><polygon class="p" points="517.1 644.3 517.1 644.8 519.4 644.8 519.4 648.2 519.8 648.2 519.8 644.3 517.1 644.3"/></g><rect class="q" x="521.3" y="644.3" width="2.7" height="3.9"/><g class="o"><polygon class="p" points="521.3 644.3 521.3 644.8 523.6 644.8 523.6 648.2 524 648.2 524 644.3 521.3 644.3"/></g><rect class="q" x="525.5" y="644.3" width="2.7" height="3.9"/><g class="o"><polygon class="p" points="525.5 644.3 525.5 644.8 527.7 644.8 527.7 648.2 528.2 648.2 528.2 644.3 525.5 644.3"/></g><rect class="q" x="529.6" y="644.3" width="2.7" height="3.9"/><g class="o"><polygon class="p" points="529.6 644.3 529.6 644.8 531.9 644.8 531.9 648.2 532.4 648.2 532.4 644.3 529.6 644.3"/></g><rect class="q" x="533.8" y="644.3" width="2.7" height="3.9"/><g class="o"><polygon class="p" points="533.8 644.3 533.8 644.8 536.1 644.8 536.1 648.2 536.5 648.2 536.5 644.3 533.8 644.3"/></g><rect class="q" x="498.6" y="644.3" width="2.7" height="3.9"/><g class="o"><polygon class="p" points="498.6 644.3 498.6 644.8 500.9 644.8 500.9 648.2 501.3 648.2 501.3 644.3 498.6 644.3"/></g><rect class="q" x="502.8" y="644.3" width="2.7" height="3.9"/><g class="o"><polygon class="p" points="502.8 644.3 502.8 644.8 505 644.8 505 648.2 505.5 648.2 505.5 644.3 502.8 644.3"/></g><rect class="q" x="507" y="644.3" width="2.7" height="3.9"/><g class="o"><polygon class="p" points="507 644.3 507 644.8 509.2 644.8 509.2 648.2 509.7 648.2 509.7 644.3 507 644.3"/></g><rect class="q" x="513" y="651.6" width="2.7" height="3.9"/><g class="o"><polygon class="p" points="513 651.6 513 652.1 515.2 652.1 515.2 655.5 515.7 655.5 515.7 651.6 513 651.6"/></g><rect class="q" x="517.1" y="651.6" width="2.7" height="3.9"/><g class="o"><polygon class="p" points="517.1 651.6 517.1 652.1 519.4 652.1 519.4 655.5 519.8 655.5 519.8 651.6 517.1 651.6"/></g><rect class="q" x="521.3" y="651.6" width="2.7" height="3.9"/><g class="o"><polygon class="p" points="521.3 651.6 521.3 652.1 523.6 652.1 523.6 655.5 524 655.5 524 651.6 521.3 651.6"/></g><rect class="q" x="525.5" y="651.6" width="2.7" height="3.9"/><g class="o"><polygon class="p" points="525.5 651.6 525.5 652.1 527.7 652.1 527.7 655.5 528.2 655.5 528.2 651.6 525.5 651.6"/></g><rect class="q" x="529.6" y="651.6" width="2.7" height="3.9"/><g class="o"><polygon class="p" points="529.6 651.6 529.6 652.1 531.9 652.1 531.9 655.5 532.4 655.5 532.4 651.6 529.6 651.6"/></g><rect class="q" x="533.8" y="651.6" width="2.7" height="3.9"/><g class="o"><polygon class="p" points="533.8 651.6 533.8 652.1 536.1 652.1 536.1 655.5 536.5 655.5 536.5 651.6 533.8 651.6"/></g><rect class="q" x="498.6" y="651.6" width="2.7" height="3.9"/><g class="o"><polygon class="p" points="498.6 651.6 498.6 652.1 500.9 652.1 500.9 655.5 501.3 655.5 501.3 651.6 498.6 651.6"/></g><rect class="q" x="502.8" y="651.6" width="2.7" height="3.9"/><g class="o"><polygon class="p" points="502.8 651.6 502.8 652.1 505 652.1 505 655.5 505.5 655.5 505.5 651.6 502.8 651.6"/></g><rect class="q" x="507" y="651.6" width="2.7" height="3.9"/><g class="o"><polygon class="p" points="507 651.6 507 652.1 509.2 652.1 509.2 655.5 509.7 655.5 509.7 651.6 507 651.6"/></g><rect class="q" x="513" y="657.2" width="2.7" height="3.9"/><g class="o"><polygon class="p" points="513 657.2 513 657.7 515.2 657.7 515.2 661.1 515.7 661.1 515.7 657.2 513 657.2"/></g><rect class="q" x="517.1" y="657.2" width="2.7" height="3.9"/><g class="o"><polygon class="p" points="517.1 657.2 517.1 657.7 519.4 657.7 519.4 661.1 519.8 661.1 519.8 657.2 517.1 657.2"/></g><rect class="q" x="521.3" y="657.2" width="2.7" height="3.9"/><g class="o"><polygon class="p" points="521.3 657.2 521.3 657.7 523.6 657.7 523.6 661.1 524 661.1 524 657.2 521.3 657.2"/></g><rect class="q" x="525.5" y="657.2" width="2.7" height="3.9"/><g class="o"><polygon class="p" points="525.5 657.2 525.5 657.7 527.7 657.7 527.7 661.1 528.2 661.1 528.2 657.2 525.5 657.2"/></g><rect class="q" x="529.6" y="657.2" width="2.7" height="3.9"/><g class="o"><polygon class="p" points="529.6 657.2 529.6 657.7 531.9 657.7 531.9 661.1 532.4 661.1 532.4 657.2 529.6 657.2"/></g><rect class="q" x="533.8" y="657.2" width="2.7" height="3.9"/><g class="o"><polygon class="p" points="533.8 657.2 533.8 657.7 536.1 657.7 536.1 661.1 536.5 661.1 536.5 657.2 533.8 657.2"/></g><rect class="q" x="498.6" y="657.2" width="2.7" height="3.9"/><g class="o"><polygon class="p" points="498.6 657.2 498.6 657.7 500.9 657.7 500.9 661.1 501.3 661.1 501.3 657.2 498.6 657.2"/></g><rect class="q" x="502.8" y="657.2" width="2.7" height="3.9"/><g class="o"><polygon class="p" points="502.8 657.2 502.8 657.7 505 657.7 505 661.1 505.5 661.1 505.5 657.2 502.8 657.2"/></g><rect class="q" x="507" y="657.2" width="2.7" height="3.9"/><g class="o"><polygon class="p" points="507 657.2 507 657.7 509.2 657.7 509.2 661.1 509.7 661.1 509.7 657.2 507 657.2"/></g><rect class="q" x="513" y="662.8" width="2.7" height="3.9"/><g class="o"><polygon class="p" points="513 662.8 513 663.3 515.2 663.3 515.2 666.7 515.7 666.7 515.7 662.8 513 662.8"/></g><rect class="q" x="517.1" y="662.8" width="2.7" height="3.9"/><g class="o"><polygon class="p" points="517.1 662.8 517.1 663.3 519.4 663.3 519.4 666.7 519.8 666.7 519.8 662.8 517.1 662.8"/></g><rect class="q" x="521.3" y="662.8" width="2.7" height="3.9"/><g class="o"><polygon class="p" points="521.3 662.8 521.3 663.3 523.6 663.3 523.6 666.7 524 666.7 524 662.8 521.3 662.8"/></g><rect class="q" x="525.5" y="662.8" width="2.7" height="3.9"/><g class="o"><polygon class="p" points="525.5 662.8 525.5 663.3 527.7 663.3 527.7 666.7 528.2 666.7 528.2 662.8 525.5 662.8"/></g><rect class="q" x="529.6" y="662.8" width="2.7" height="3.9"/><g class="o"><polygon class="p" points="529.6 662.8 529.6 663.3 531.9 663.3 531.9 666.7 532.4 666.7 532.4 662.8 529.6 662.8"/></g><rect class="q" x="533.8" y="662.8" width="2.7" height="3.9"/><g class="o"><polygon class="p" points="533.8 662.8 533.8 663.3 536.1 663.3 536.1 666.7 536.5 666.7 536.5 662.8 533.8 662.8"/></g><rect class="q" x="498.6" y="662.8" width="2.7" height="3.9"/><g class="o"><polygon class="p" points="498.6 662.8 498.6 663.3 500.9 663.3 500.9 666.7 501.3 666.7 501.3 662.8 498.6 662.8"/></g><rect class="q" x="502.8" y="662.8" width="2.7" height="3.9"/><g class="o"><polygon class="p" points="502.8 662.8 502.8 663.3 505 663.3 505 666.7 505.5 666.7 505.5 662.8 502.8 662.8"/></g><rect class="q" x="507" y="662.8" width="2.7" height="3.9"/><g class="o"><polygon class="p" points="507 662.8 507 663.3 509.2 663.3 509.2 666.7 509.7 666.7 509.7 662.8 507 662.8"/></g><g class="u"><rect class="i" x="513" y="578.8" width="2.7" height="3.9"/></g><g class="u"><rect class="i" x="517.1" y="578.8" width="2.7" height="3.9"/></g><g class="u"><rect class="i" x="521.3" y="578.8" width="2.7" height="3.9"/></g><g class="u"><rect class="i" x="525.5" y="578.8" width="2.7" height="3.9"/></g><g class="u"><rect class="i" x="529.6" y="578.8" width="2.7" height="3.9"/></g><g class="u"><rect class="i" x="533.8" y="578.8" width="2.7" height="3.9"/></g><g class="u"><rect class="i" x="513" y="584.6" width="2.7" height="3.9"/></g><g class="u"><rect class="i" x="517.1" y="584.6" width="2.7" height="3.9"/></g><g class="u"><rect class="i" x="521.3" y="584.6" width="2.7" height="3.9"/></g><g class="u"><rect class="i" x="525.5" y="584.6" width="2.7" height="3.9"/></g><g class="u"><rect class="i" x="529.6" y="584.6" width="2.7" height="3.9"/></g><g class="u"><rect class="i" x="533.8" y="584.6" width="2.7" height="3.9"/></g><g class="u"><rect class="i" x="513" y="590.3" width="2.7" height="3.9"/></g><g class="u"><rect class="i" x="517.1" y="590.3" width="2.7" height="3.9"/></g><g class="u"><rect class="i" x="529.6" y="590.3" width="2.7" height="3.9"/></g><g class="u"><rect class="i" x="513" y="596.1" width="2.7" height="3.9"/></g><g class="u"><rect class="i" x="529.6" y="596.1" width="2.7" height="3.9"/></g><g class="o"><rect class="p" x="496.9" y="574.5" width="14.1" height="111.49"/></g><rect class="n" x="489.3" y="621" width="23.8" height="64.85"/><rect class="n" x="477.2" y="621" width="12.1" height="64.85"/><rect class="q" x="492.8" y="627.3" width="4.9" height="6.61"/><g class="o"><polygon class="p" points="492.8 627.3 492.8 628.2 496.9 628.2 496.9 634 497.7 634 497.7 627.3 492.8 627.3"/></g><rect class="i" x="492.8" y="634" width="5.2" height="1.34"/><rect class="i" x="492.8" y="626" width="5.2" height="1.34"/><rect class="i" x="503.8" y="634" width="5.2" height="1.34"/><rect class="i" x="503.8" y="626" width="5.2" height="1.34"/><rect class="q" x="503.8" y="627.3" width="4.9" height="6.61"/><g class="o"><polygon class="p" points="503.8 627.3 503.8 628.2 507.9 628.2 507.9 634 508.7 634 508.7 627.3 503.8 627.3"/></g><rect class="q" x="492.8" y="639.6" width="4.9" height="6.61"/><g class="o"><polygon class="p" points="492.8 639.6 492.8 640.4 496.9 640.4 496.9 646.2 497.7 646.2 497.7 639.6 492.8 639.6"/></g><rect class="i" x="492.8" y="646.2" width="5.2" height="1.34"/><rect class="i" x="492.8" y="638.2" width="5.2" height="1.34"/><rect class="i" x="503.8" y="646.2" width="5.2" height="1.34"/><rect class="i" x="503.8" y="638.2" width="5.2" height="1.34"/><rect class="q" x="503.8" y="639.6" width="4.9" height="6.61"/><g class="o"><polygon class="p" points="503.8 639.6 503.8 640.4 507.9 640.4 507.9 646.2 508.7 646.2 508.7 639.6 503.8 639.6"/></g><rect class="q" x="492.8" y="652.3" width="4.9" height="6.61"/><g class="o"><polygon class="p" points="492.8 652.3 492.8 653.1 496.9 653.1 496.9 658.9 497.7 658.9 497.7 652.3 492.8 652.3"/></g><rect class="i" x="492.8" y="658.9" width="5.2" height="1.34"/><rect class="i" x="492.8" y="650.9" width="5.2" height="1.34"/><rect class="i" x="503.8" y="658.9" width="5.2" height="1.34"/><rect class="i" x="503.8" y="650.9" width="5.2" height="1.34"/><rect class="q" x="503.8" y="652.3" width="4.9" height="6.61"/><g class="o"><polygon class="p" points="503.8 652.3 503.8 653.1 507.9 653.1 507.9 658.9 508.7 658.9 508.7 652.3 503.8 652.3"/></g><rect class="i" x="492.8" y="663.5" width="5.2" height="1.34"/><rect class="i" x="503.8" y="663.5" width="5.2" height="1.34"/><rect class="r" x="484.4" y="627.1" width="1.7" height="6.61"/><rect class="i" x="483.3" y="633.7" width="3.1" height="1"/><rect class="r" x="479.8" y="627.1" width="1.7" height="6.61"/><rect class="i" x="478.7" y="633.7" width="3.1" height="1"/><rect class="r" x="484.4" y="639.7" width="1.7" height="6.61"/><rect class="i" x="483.3" y="646.3" width="3.1" height="1"/><rect class="r" x="479.8" y="639.7" width="1.7" height="6.61"/><rect class="i" x="478.7" y="646.3" width="3.1" height="1"/><rect class="r" x="484.4" y="652.3" width="1.7" height="6.61"/><rect class="i" x="483.3" y="658.9" width="3.1" height="1"/><rect class="r" x="479.8" y="652.3" width="1.7" height="6.61"/><rect class="i" x="478.7" y="658.9" width="3.1" height="1"/><g class="o"><rect class="p" x="476.8" y="621" width="12.5" height="64.85"/></g><rect class="n" x="616.1" y="658.8" width="51.6" height="27.3"/><rect class="t" x="615.4" y="658.8" width="53.3" height="2.55"/><g class="o"><rect class="p" x="616.1" y="661.4" width="13.8" height="24.75"/></g><rect class="n" x="556.2" y="605.3" width="59.8" height="80.73"/><rect class="q" x="569.3" y="611" width="4.4" height="6.31"/><g class="o"><polygon class="p" points="569.3 611 569.3 611.8 573 611.8 573 617.3 573.7 617.3 573.7 611 569.3 611"/></g><rect class="q" x="577.4" y="611" width="4.4" height="6.31"/><g class="o"><polygon class="p" points="577.4 611 577.4 611.8 581 611.8 581 617.3 581.8 617.3 581.8 611 577.4 611"/></g><rect class="q" x="585.5" y="611" width="4.4" height="6.31"/><g class="o"><polygon class="p" points="585.5 611 585.5 611.8 589.1 611.8 589.1 617.3 589.8 617.3 589.8 611 585.5 611"/></g><rect class="q" x="593.5" y="611" width="4.4" height="6.31"/><g class="o"><polygon class="p" points="593.5 611 593.5 611.8 597.2 611.8 597.2 617.3 597.9 617.3 597.9 611 593.5 611"/></g><rect class="q" x="601.6" y="611" width="4.4" height="6.31"/><g class="o"><polygon class="p" points="601.6 611 601.6 611.8 605.2 611.8 605.2 617.3 606 617.3 606 611 601.6 611"/></g><rect class="q" x="609.6" y="611" width="4.4" height="6.31"/><g class="o"><polygon class="p" points="609.6 611 609.6 611.8 613.3 611.8 613.3 617.3 614 617.3 614 611 609.6 611"/></g><rect class="q" x="569.7" y="626.4" width="4.4" height="6.31"/><g class="o"><polygon class="p" points="569.7 626.4 569.7 627.1 573.4 627.1 573.4 632.7 574.1 632.7 574.1 626.4 569.7 626.4"/></g><rect class="q" x="577.8" y="626.4" width="4.4" height="6.31"/><g class="o"><polygon class="p" points="577.8 626.4 577.8 627.1 581.4 627.1 581.4 632.7 582.2 632.7 582.2 626.4 577.8 626.4"/></g><rect class="q" x="585.8" y="626.4" width="4.4" height="6.31"/><g class="o"><polygon class="p" points="585.8 626.4 585.8 627.1 589.5 627.1 589.5 632.7 590.2 632.7 590.2 626.4 585.8 626.4"/></g><rect class="q" x="593.9" y="626.4" width="4.4" height="6.31"/><g class="o"><polygon class="p" points="593.9 626.4 593.9 627.1 597.5 627.1 597.5 632.7 598.3 632.7 598.3 626.4 593.9 626.4"/></g><rect class="q" x="602" y="626.4" width="4.4" height="6.31"/><g class="o"><polygon class="p" points="602 626.4 602 627.1 605.6 627.1 605.6 632.7 606.4 632.7 606.4 626.4 602 626.4"/></g><rect class="q" x="610" y="626.4" width="4.4" height="6.31"/><g class="o"><polygon class="p" points="610 626.4 610 627.1 613.7 627.1 613.7 632.7 614.4 632.7 614.4 626.4 610 626.4"/></g><rect class="q" x="569.2" y="641.6" width="4.4" height="6.31"/><g class="o"><polygon class="p" points="569.2 641.6 569.2 642.4 572.9 642.4 572.9 647.9 573.6 647.9 573.6 641.6 569.2 641.6"/></g><rect class="q" x="577.3" y="641.6" width="4.4" height="6.31"/><g class="o"><polygon class="p" points="577.3 641.6 577.3 642.4 581 642.4 581 647.9 581.7 647.9 581.7 641.6 577.3 641.6"/></g><rect class="q" x="585.4" y="641.6" width="4.4" height="6.31"/><g class="o"><polygon class="p" points="585.4 641.6 585.4 642.4 589 642.4 589 647.9 589.8 647.9 589.8 641.6 585.4 641.6"/></g><rect class="q" x="593.4" y="641.6" width="4.4" height="6.31"/><g class="o"><polygon class="p" points="593.4 641.6 593.4 642.4 597.1 642.4 597.1 647.9 597.8 647.9 597.8 641.6 593.4 641.6"/></g><rect class="q" x="601.5" y="641.6" width="4.4" height="6.31"/><g class="o"><polygon class="p" points="601.5 641.6 601.5 642.4 605.1 642.4 605.1 647.9 605.9 647.9 605.9 641.6 601.5 641.6"/></g><rect class="q" x="609.6" y="641.6" width="4.4" height="6.31"/><g class="o"><polygon class="p" points="609.6 641.6 609.6 642.4 613.2 642.4 613.2 647.9 613.9 647.9 613.9 641.6 609.6 641.6"/></g><rect class="q" x="569.5" y="656.9" width="4.4" height="6.31"/><g class="o"><polygon class="p" points="569.5 656.9 569.5 657.7 573.1 657.7 573.1 663.2 573.9 663.2 573.9 656.9 569.5 656.9"/></g><rect class="q" x="577.5" y="656.9" width="4.4" height="6.31"/><g class="o"><polygon class="p" points="577.5 656.9 577.5 657.7 581.2 657.7 581.2 663.2 581.9 663.2 581.9 656.9 577.5 656.9"/></g><rect class="q" x="585.6" y="656.9" width="4.4" height="6.31"/><g class="o"><polygon class="p" points="585.6 656.9 585.6 657.7 589.2 657.7 589.2 663.2 590 663.2 590 656.9 585.6 656.9"/></g><rect class="q" x="593.6" y="656.9" width="4.4" height="6.31"/><g class="o"><polygon class="p" points="593.6 656.9 593.6 657.7 597.3 657.7 597.3 663.2 598 663.2 598 656.9 593.6 656.9"/></g><rect class="q" x="601.7" y="656.9" width="4.4" height="6.31"/><g class="o"><polygon class="p" points="601.7 656.9 601.7 657.7 605.4 657.7 605.4 663.2 606.1 663.2 606.1 656.9 601.7 656.9"/></g><rect class="q" x="609.8" y="656.9" width="4.4" height="6.31"/><g class="o"><polygon class="p" points="609.8 656.9 609.8 657.7 613.4 657.7 613.4 663.2 614.2 663.2 614.2 656.9 609.8 656.9"/></g><rect class="v" x="556.2" y="603.9" width="59.8" height="2.71"/><rect class="v" x="556.2" y="619.9" width="59.8" height="2.71"/><rect class="v" x="556.2" y="635.2" width="59.8" height="2.71"/><rect class="v" x="556.2" y="650.5" width="59.8" height="2.71"/><rect class="r" x="558.8" y="610.5" width="1.6" height="6.55"/><rect class="r" x="563.5" y="610.5" width="1.6" height="6.55"/><rect class="r" x="558.9" y="625.1" width="1.6" height="6.55"/><rect class="r" x="563.6" y="625.1" width="1.6" height="6.55"/><rect class="r" x="558.8" y="640.4" width="1.6" height="6.55"/><rect class="r" x="563.6" y="640.4" width="1.6" height="6.55"/><rect class="r" x="558.6" y="655.8" width="1.6" height="6.55"/><rect class="r" x="563" y="655.8" width="1.6" height="6.55"/><g class="o"><rect class="p" x="556.2" y="603.9" width="10.5" height="82.08"/></g><g class="o"><rect class="p" x="566.7" y="653.2" width="49.3" height="1.14"/></g><g class="o"><rect class="p" x="566.7" y="638" width="49.3" height="1.14"/></g><g class="o"><rect class="p" x="566.7" y="622.6" width="49.3" height="1.14"/></g><g class="o"><rect class="p" x="566.7" y="606.6" width="49.3" height="1.14"/></g><rect class="v" x="571.4" y="597.6" width="12" height="6.37"/><g class="o"><rect class="p" x="571.4" y="597.6" width="3.8" height="6.37"/></g><path class="i" d="M573.9,663.1h-4.5a7,7,0,0,1,2.3-.2A6.6,6.6,0,0,1,573.9,663.1Z"/><path class="i" d="M581.9,663.1h-4.5a6.6,6.6,0,0,1,2.2-.2A7,7,0,0,1,581.9,663.1Z"/><path class="i" d="M589.9,663.1h-4.5a6.6,6.6,0,0,1,2.2-.2A7,7,0,0,1,589.9,663.1Z"/><path class="i" d="M598.1,663.1h-4.5a6.6,6.6,0,0,1,2.2-.2A7,7,0,0,1,598.1,663.1Z"/><path class="i" d="M606.2,663.1h-4.5a6.6,6.6,0,0,1,2.2-.2A7,7,0,0,1,606.2,663.1Z"/><path class="i" d="M614.3,663.1h-4.5a6.6,6.6,0,0,1,2.2-.2A7,7,0,0,1,614.3,663.1Z"/><path class="i" d="M573.9,647.8a6.6,6.6,0,0,1-2.2.2,7,7,0,0,1-2.3-.2h4.5Z"/><path class="i" d="M581.9,647.8a7,7,0,0,1-2.3.2,6.6,6.6,0,0,1-2.2-.2h4.5Z"/><path class="i" d="M589.9,647.8a7,7,0,0,1-2.3.2,6.6,6.6,0,0,1-2.2-.2h4.5Z"/><path class="i" d="M598.1,647.8a7,7,0,0,1-2.3.2,6.6,6.6,0,0,1-2.2-.2h4.5Z"/><path class="i" d="M606.2,647.8a7,7,0,0,1-2.3.2,6.6,6.6,0,0,1-2.2-.2h4.5Z"/><path class="i" d="M614.3,647.8a7,7,0,0,1-2.3.2,6.6,6.6,0,0,1-2.2-.2h4.5Z"/><path class="i" d="M573.9,632.7h-4.5a7,7,0,0,1,2.3-.2A6.6,6.6,0,0,1,573.9,632.7Z"/><path class="i" d="M581.9,632.7h-4.5a6.6,6.6,0,0,1,2.2-.2A7,7,0,0,1,581.9,632.7Z"/><path class="i" d="M589.9,632.7h-4.5a6.6,6.6,0,0,1,2.2-.2A7,7,0,0,1,589.9,632.7Z"/><path class="i" d="M598.1,632.7h-4.5a6.6,6.6,0,0,1,2.2-.2A7,7,0,0,1,598.1,632.7Z"/><path class="i" d="M606.2,632.7h-4.5a6.6,6.6,0,0,1,2.2-.2A7,7,0,0,1,606.2,632.7Z"/><path class="i" d="M614.3,632.7h-4.5a6.6,6.6,0,0,1,2.2-.2A7,7,0,0,1,614.3,632.7Z"/><path class="i" d="M573.9,617.3a6.6,6.6,0,0,1-2.2.2,7,7,0,0,1-2.3-.2h4.5Z"/><path class="i" d="M581.9,617.3a7,7,0,0,1-2.3.2,6.6,6.6,0,0,1-2.2-.2h4.5Z"/><path class="i" d="M589.9,617.3a7,7,0,0,1-2.3.2,6.6,6.6,0,0,1-2.2-.2h4.5Z"/><path class="i" d="M598.1,617.3a7,7,0,0,1-2.3.2,6.6,6.6,0,0,1-2.2-.2h4.5Z"/><path class="i" d="M606.2,617.3a7,7,0,0,1-2.3.2,6.6,6.6,0,0,1-2.2-.2h4.5Z"/><path class="i" d="M614.3,617.3a7,7,0,0,1-2.3.2,6.6,6.6,0,0,1-2.2-.2h4.5Z"/></g></svg>