<svg xmlns="http://www.w3.org/2000/svg" viewBox="0 0 150 150"><defs><style>.a{fill:#009bdb;}.b{fill:#ad5298;}.c{fill:#bbcd32;}.d{fill:#f1a41f;}.e{fill:#da1960;}.f{fill:#ffed00;}</style></defs><polygon class="a" points="95.1 84.7 95.8 83.3 94.7 81.7 94.3 82.2 95.1 84.7"/><polygon class="a" points="53.1 28.9 54.2 28.6 54.9 31.6 53.7 31.8 53.1 28.9"/><polygon class="a" points="53.9 31.8 54.6 30.4 53.6 28.8 53.2 29.3 53.9 31.8"/><polygon class="a" points="93.3 21.7 94 20.3 92.9 18.8 92.5 19.3 93.3 21.7"/><polygon class="a" points="115.5 26.3 116.1 24.9 115.1 23.3 114.7 23.8 115.5 26.3"/><polygon class="b" points="71.4 70.7 69.5 68.4 70.3 71.6 72.2 74 71.4 70.7"/><polygon class="b" points="121 39.3 119.2 37 120 40.2 121.8 42.5 121 39.3"/><polygon class="c" points="88.3 119.6 86.5 120.8 88.6 121.7 90.4 120.5 88.3 119.6"/><polygon class="d" points="90.8 45.7 88.7 44.5 90.2 47.2 92.3 48.4 90.8 45.7"/><polygon class="c" points="104.8 20.7 104.4 22.6 106.2 20.3 106.6 18.4 104.8 20.7"/><polygon class="c" points="103.7 48.8 103.3 50.6 105.2 48.3 105.6 46.5 103.7 48.8"/><polygon class="c" points="53.7 103.7 52.5 105.1 55.2 104.1 56.4 102.7 53.7 103.7"/><polygon class="c" points="26.8 27 26.3 28.9 28.2 26.6 28.6 24.7 26.8 27"/><polygon class="b" points="76.2 118 74.5 119.2 76.5 120 78.3 118.9 76.2 118"/><polygon class="e" points="73.6 100.4 73.7 103.7 74.8 101.4 74.8 98.1 73.6 100.4"/><polygon class="e" points="68.8 35.4 70.4 38.1 70 34.8 68.4 32.1 68.8 35.4"/><polygon class="e" points="83.6 73.3 86.8 71.5 84.4 67.7 81.3 69.5 83.6 73.3"/><polygon class="e" points="53 54.6 52.2 50.9 48.1 51.8 48.9 55.6 53 54.6"/><polygon class="e" points="65 71.2 64.2 67.4 60.1 68.4 60.9 72.2 65 71.2"/><polygon class="f" points="26.6 34 29.8 32.6 28 28.8 24.8 30.2 26.6 34"/><polygon class="f" points="66.5 53.1 69.6 51.7 67.8 47.9 64.7 49.3 66.5 53.1"/><polygon class="f" points="63.1 101.7 66.5 102.2 66.6 98 63.2 97.6 63.1 101.7"/><polygon class="f" points="86.3 91.7 89.7 92.1 89.9 88 86.4 87.5 86.3 91.7"/><polygon class="c" points="76.6 60.9 79.8 59.6 78 55.8 74.8 57.1 76.6 60.9"/><polygon class="d" points="98.6 113.4 98.3 109.8 94.3 110.3 94.7 113.9 98.6 113.4"/><polygon class="c" points="46.7 79 50.2 79.4 50.3 75.3 46.9 74.8 46.7 79"/><polygon class="c" points="13 34.8 16.1 33.4 14.3 29.7 11.2 31 13 34.8"/><polygon class="f" points="75.9 127.1 75.6 123.5 71.6 124 72 127.5 75.9 127.1"/><polygon class="b" points="114.4 53.6 114.7 49.8 110.4 49.5 110.1 53.3 114.4 53.6"/><polygon class="e" points="69.4 114.8 71 112.5 70.8 109.7 67.6 111 69.4 114.8"/><polygon class="e" points="130.6 82.8 132.3 80.5 132 77.7 128.8 79 130.6 82.8"/><polygon class="b" points="60.1 25.7 61.7 23.3 61.4 20.6 58.3 21.9 60.1 25.7"/><polygon class="e" points="30.6 19.3 33.8 17.5 31.5 13.7 28.3 15.5 30.6 19.3"/><polygon class="f" points="77.2 62.6 80.4 60.8 78.1 57 74.9 58.8 77.2 62.6"/><polygon class="b" points="72.4 87.5 74.6 84.8 71.4 82.2 69.1 84.9 72.4 87.5"/><polygon class="b" points="91.2 101.3 91.9 97.8 87.9 97 87.2 100.5 91.2 101.3"/><polygon class="b" points="33.2 46.5 33.8 43 29.9 42.3 29.2 45.8 33.2 46.5"/><polygon class="b" points="86.8 31.7 87.5 28.2 83.5 27.4 82.9 30.9 86.8 31.7"/><polygon class="f" points="12.4 48 15.6 46.7 13.8 42.9 10.6 44.2 12.4 48"/><polygon class="d" points="73.4 22.9 76.5 24.7 74.3 20.6 71.2 18.8 73.4 22.9"/><polygon class="a" points="90.3 56.7 89.3 58.8 90.9 61.2 91.5 60.4 90.3 56.7"/><polygon class="a" points="132.2 65.5 131.3 67.6 132.8 69.9 133.4 69.2 132.2 65.5"/><polygon class="f" points="108 106.1 110.7 104.3 107.6 103 104.9 104.8 108 106.1"/><polygon class="f" points="132.6 95.8 135.2 94 132.1 92.7 129.5 94.5 132.6 95.8"/><polygon class="c" points="101.8 96 104.4 94.3 101.3 92.9 98.6 94.7 101.8 96"/><polygon class="d" points="97.8 132.5 101 134.3 98.7 130.2 95.6 128.4 97.8 132.5"/><polygon class="f" points="45.8 67 48.4 65.3 45.3 64 42.7 65.7 45.8 67"/><polygon class="b" points="38 82.7 39.6 81 37.4 79.3 35.7 81 38 82.7"/><polygon class="e" points="129.5 122.6 129.5 119.3 128.3 121.6 128.4 124.9 129.5 122.6"/><polygon class="a" points="83.6 110.7 83 112.1 84 113.6 84.4 113.1 83.6 110.7"/><polygon class="b" points="32.8 75.3 27.7 77.6 22.9 76.4 27.9 74.1 32.8 75.3"/><polygon class="b" points="46.6 76.4 48.3 75.2 46.2 74.3 44.5 75.5 46.6 76.4"/><polygon class="e" points="119.8 72.1 119.7 67.4 118.1 70.6 118.2 75.3 119.8 72.1"/><polygon class="f" points="49.2 87.5 48.1 87.1 48.8 84.3 50 84.7 49.2 87.5"/><polygon class="f" points="49.7 84.7 48.5 85.5 48.7 87.3 49.3 87.1 49.7 84.7"/><polygon class="f" points="65.4 91.8 67.3 89.7 65.3 89.9 63.4 92 65.4 91.8"/><polygon class="c" points="52.9 40.3 54.5 43 54 39.7 52.4 37 52.9 40.3"/><polygon class="e" points="10.5 18.2 9.9 14.5 8 16.3 8.6 19.9 10.5 18.2"/><polygon class="e" points="24.4 64.3 23.8 60.7 21.9 62.5 22.5 66.1 24.4 64.3"/><polygon class="d" points="43.2 27.8 45.5 28.4 44.2 24.9 42 24.2 43.2 27.8"/><polygon class="d" points="33.4 34.3 35.6 35 34.4 31.4 32.1 30.7 33.4 34.3"/><polygon class="d" points="123.2 107.4 124.9 105.8 121.3 104.9 119.7 106.5 123.2 107.4"/><polygon class="d" points="101.1 67.5 103.4 68.2 102.1 64.6 99.8 64 101.1 67.5"/><polygon class="d" points="134.7 48.5 137 49.2 135.7 45.6 133.5 45 134.7 48.5"/><polygon class="f" points="22.6 30.8 21.4 31 20.8 28.1 22 27.9 22.6 30.8"/><polygon class="f" points="38.8 74.7 40.5 73.5 38.5 72.7 36.7 73.8 38.8 74.7"/><polygon class="b" points="54 137.5 55.8 139.8 55 136.6 53.2 134.2 54 137.5"/><polygon class="b" points="142.8 77.3 144.7 79.7 143.8 76.4 142 74.1 142.8 77.3"/><polygon class="c" points="38.8 89.9 41 89.7 39.5 87.9 37.4 88.1 38.8 89.9"/><polygon class="c" points="47.8 124.1 49.5 122.9 47.5 122 45.7 123.2 47.8 124.1"/><polygon class="c" points="118.2 82.8 120 81.6 117.9 80.7 116.2 81.9 118.2 82.8"/><polygon class="e" points="45.2 102.3 45.1 99 43.9 101.3 44 104.6 45.2 102.3"/><polygon class="d" points="23 47.7 25.1 48.9 23.6 46.1 21.5 45 23 47.7"/><polygon class="f" points="65 60.2 66.8 59 64.7 58.1 63 59.3 65 60.2"/><polygon class="f" points="82.4 141 84.2 139.9 82.1 139 80.4 140.2 82.4 141"/><polygon class="b" points="65.5 123.8 67.3 122.6 65.2 121.7 63.5 122.9 65.5 123.8"/><polygon class="c" points="56 77.4 57.8 76.2 55.7 75.3 54 76.5 56 77.4"/><polygon class="c" points="30 64.3 31.8 63.1 29.7 62.2 28 63.4 30 64.3"/><polygon class="e" points="105.8 82.9 105.7 79.6 104.6 81.9 104.7 85.2 105.8 82.9"/><polygon class="e" points="56.6 118.1 55 115.4 55.4 118.7 57 121.4 56.6 118.1"/></svg>