<svg xmlns="http://www.w3.org/2000/svg" viewBox="0 0 156.3 69.7"><defs><style>.a{fill:#ababab;opacity:0.25;}.b{fill:#094e8e;}.c{fill:#ecb41f;}.d{fill:#ea7524;}.e{fill:#56505c;}.f{fill:#fbcc22;}.g{fill:#f1c916;}.h{fill:#332f2c;}.i{fill:#2289c1;}</style></defs><path class="a" d="M86.4,18a38.3,38.3,0,0,0-.4,5.3,3.8,3.8,0,0,0,2.2,3.8,18.2,18.2,0,0,0,8.6,1.6c2.2-.3,16.7-3.2,20.1-3.8s14.8-6.5,14.8-6.5l-17-6.4-3.5-2.8Z"/><path class="b" d="M145.8,23.6a5.3,5.3,0,0,1,0,2.8,13.1,13.1,0,0,1-2.2,4.4c-4,3-24.4,8.4-24.4,8.4L95,45.6,84,47.4,55.5,52.1l-19,3.1L18.9,58.3,3.7,30.8C5.2,28.9,8.9,28,8.9,28c4.2-1.6,6.7.2,6.7.2L33.9,39.5,76.7,22.3l10-2.8c-.6.2,1,4.1,1.2,4.4,2,2.9,6.1,2.9,9.1,2l5.6-1.6c7.1-2.1,14.1-4.6,21.4-5.7h.1c3.8-.5,7.6-.5,11.5-.8C145.3,16.9,145.8,23.6,145.8,23.6Z"/><path class="c" d="M145.8,23.6a5.3,5.3,0,0,1,0,2.8l-.4.8L18.9,58l-.6-1.4,96.3-34.8c1.6-.2,7.7-2.5,9.4-3.2h.1c3.8-.5,7.6-.5,11.5-.8C145.3,16.9,145.8,23.6,145.8,23.6Z"/><path class="b" d="M35.6,54.7c-.2,0-5.5,8.8-5.5,8.8l.5.3,9.9-10.1Z"/><polygon class="d" points="112.8 40.2 121.5 46.8 120.8 44 117.5 38.3 112.8 40.2"/><circle class="e" cx="121.6" cy="46.5" r="3.5"/><circle class="f" cx="121.5" cy="46.5" r="1.7"/><circle class="e" cx="30.1" cy="64.7" r="1.9"/><circle class="g" cx="30.1" cy="64.7" r="0.9"/><polygon class="h" points="110.7 9.8 111.9 41.2 110.9 41.2 108.3 10.5 110.7 9.8"/><path class="h" d="M86.4,18.4l16.1,24.8-1,.4L85.2,18.3S86.4,18.9,86.4,18.4Z"/><path class="c" d="M98.2,11.2l2.5-.9a59.1,59.1,0,0,1,8.4-2.8l1.6-.2c2.7.2,3.8,2.5.2,4.4L88.8,19l-12,3.2c.2,0,.4-.3.6-.4l1.7-1.2a50.2,50.2,0,0,1,6.3-3.8A112.6,112.6,0,0,1,98.2,11.2Z"/><ellipse class="h" cx="146.2" cy="23.7" rx="0.4" ry="15.5" transform="translate(-1.3 36.6) rotate(-14.2)"/><path class="b" d="M80.4,35.4a1.9,1.9,0,0,1,1-.3l1,.2a2,2,0,0,1,.8.4l.2.2A1.8,1.8,0,0,1,85,36a1,1,0,0,1,.5.4h.1c0,.1.1.1.1.2v.2l-.2.3a.1.1,0,0,1-.2,0l-.2-.2a1,1,0,0,0-.5-.4,1.4,1.4,0,0,0-.9,0,.5.5,0,0,0-.4.2h0l-.3-.3a1.8,1.8,0,0,0-.7-.5,1.6,1.6,0,0,0-1-.1,1.4,1.4,0,0,0-1,.4,2.1,2.1,0,0,0-.9,1.5h-.6a2.7,2.7,0,0,1,.5-1.5A3.1,3.1,0,0,1,80.4,35.4Z"/><path class="b" d="M82.2,38.2l.4-.3H83l.2.2c0,.1.1.3.1.4a.9.9,0,0,1,.1.5,4.3,4.3,0,0,0,.2-1.1c.1,0,.1-.1.1-.2H84v.2l.3,1,.3-1.1c0-.1,0-.2.1-.2a.1.1,0,0,1,.1-.1H85l-.4,1.6c-.1.1-.1.2-.2.2h-.2c0-.1-.1-.1-.1-.2s-.1-.6-.2-.9h0c-.1.4-.1.7-.2,1.1a.3.3,0,0,1-.1.2h-.2a.1.1,0,0,1-.1-.1l-.3-1a.3.3,0,0,0-.1-.2.1.1,0,0,0-.1-.1c-.1,0-.2,0-.2.1s-.1.1-.2.2a.3.3,0,0,0,.1.2h.2a.1.1,0,0,1,.1-.1H83c0,.1-.1.1-.2.2h-.2c-.2,0-.3,0-.4-.2a.4.4,0,0,1-.1-.3A.7.7,0,0,1,82.2,38.2Z"/><path class="b" d="M89.4,36.2h.3a.1.1,0,0,1-.1.1v.7l.4-.2c0-.2.1-.5.1-.7s0-.2.1-.2h.1c.1,0,.1,0,.1.1s0,.1,0,.1v.7h.1c.1,0,.1,0,.1.1s.1.1,0,.2h-.3v.4h-.4v-.6h-.4a.9.9,0,0,1-.1.5v.5l-.3.4-.5.2h-.4a.5.5,0,0,1-.2-.4h-.6a.1.1,0,0,1,0-.2,7.7,7.7,0,0,1,.2-1.5c0-.1,0-.2.1-.2s.1-.1.1,0h.1v.2c-.1.5-.1.9-.2,1.4H88a.7.7,0,0,1,.1-.5l.6-.5h.5c0-.3.1-.6.1-.8s0-.2.1-.2Zm-.5,1.4a.5.5,0,0,0-.4.2.8.8,0,0,0-.2.4.4.4,0,0,0,.1.3c0,.1.1.1.2.1h.2l.2-.2a.8.8,0,0,1,.1-.4v-.5Z"/><path class="b" d="M86.9,36.9h.3a7.7,7.7,0,0,0-.2,1.5h.3v.2h-.6c0-.1-.1-.1-.1-.2v-.2a5.9,5.9,0,0,0,.2-1.3c0-.1.1-.1.1-.2Z"/><path class="b" d="M93.2,35.7h.3c0,.1-.1.2-.1.3h.2a.1.1,0,0,0,.1.1c0,.1,0,.2-.1.2h-.2a4.3,4.3,0,0,0-.1.5h.3c.1.1.1.1.1.2H93v-.7h-.1c0-.1-.1-.1-.1-.2h.3v-.2c0-.1.1-.1.1-.2Z"/><path class="b" d="M92.1,36.3h.1a.1.1,0,0,1,.2,0h0a.3.3,0,0,0,.1.2h.2a.3.3,0,0,0,.1.2v.3c0,.1-.2.2-.3.3h-.3c-.1,0-.1,0-.1-.1s-.1,0-.1-.1h.5v-.2h-.2v.2c-.1.1-.2.1-.2,0a.1.1,0,0,1-.1-.1.9.9,0,0,0,.1-.5Z"/><path class="b" d="M85.4,38.3q0-.1.3-.3h.6v.8h.3v.2a.1.1,0,0,1-.1.1h-.9a.2.2,0,0,1-.2-.2.6.6,0,0,1,0-.6Zm.4,0a.1.1,0,0,0-.1.1.4.4,0,0,0-.1.3h.3a.3.3,0,0,0,.1-.2c0-.1,0-.1-.1-.1Z"/><path class="b" d="M91.2,36.6h.3l.3.2a.5.5,0,0,1,0,.5c0,.1-.1.2-.2.3h-.5c-.1-.1-.2-.1-.2-.2a.9.9,0,0,1-.1-.5Zm.1.3a.1.1,0,0,0-.1.1.1.1,0,0,0,0,.2h.2a.1.1,0,0,1,.1-.1c0-.1.1-.2,0-.3h-.2Z"/><path class="b" d="M82.8,40.1h.6l1.7-.5h1.5c.2-.1.3,0,.4.2a.8.8,0,0,1-.2.4h-.3l-.7.2-1.3.3-.8.2-.8.3c0-.2.1-.3,0-.4s-.1-.2-.1-.3Z"/><path class="i" d="M78.4,38.1l1-.2,1.2-.3,1-.3h.3a.4.4,0,0,1,.1.3c-.1.1-.1.2-.2.2l-3.3.9c-.2,0-.4.2-.6.3l-.3.7a1.4,1.4,0,0,0,.2.6l.3.4a1,1,0,0,0,.9.2h.2l2.4-.6.6-.2h.4c.1,0,.1.1.1.2s0,.4-.2.4h-.4l-1.4.4h-.6l-.9.2h-.5a1.6,1.6,0,0,1-1.1-.5,1.3,1.3,0,0,1-.5-.9h0a2.2,2.2,0,0,1-.1-.8,3,3,0,0,1,.4-.8l.8-.5Z"/><path class="i" d="M80.5,38.8h.6l.5-.2c.1,0,.1,0,.1.1s0,.1,0,.1l-1.9.5H78.6c-.1,0-.1-.1,0-.2h.1l1.1-.3h.7Z"/><path class="i" d="M80.7,39.3l1-.3h.1c.1.1.1.1.1.2h-.1l-.5.2h-.2l-1.4.4h-1c-.1-.1,0-.1,0-.2h.5l1.2-.3Z"/><path class="i" d="M80.9,39.8l1-.2c0-.1.1,0,.1,0s0,.1-.1.2H80.4l-1.5.4h.6l1.4-.4Z"/></svg>