<svg version="1.1" id="Layer_1" xmlns="http://www.w3.org/2000/svg" x="0" y="0" viewBox="0 0 200 200" style="enable-background:new 0 0 200 200" xml:space="preserve"><style>.st0{display:none}.st1{display:inline}.st2{fill:#5c6a86}.st3{fill:#e2e3e5}.st4{fill:#fff;stroke:#303c64;stroke-width:1.5;stroke-miterlimit:10}.st5{fill:#0f4d92}.st7{fill:#fc929c}.st8{stroke-linejoin:round}.st8,.st9{fill:none;stroke:#303c64;stroke-width:1.5;stroke-linecap:round;stroke-miterlimit:10}.st10{fill:#fff}.st11{fill:#96d7ff}.st16{fill:#1f8ac0;stroke:#4a86b1;stroke-width:.1671;stroke-linejoin:round}</style><g id="Layer_1_1_"><path class="st2" d="M28.2 120.9H40c.3 0 .7-.3.7-.7 0-.3-.3-.7-.7-.7H28.2c-.3 0-.7.3-.7.7.1.4.4.7.7.7zM22 120.9h2.6c.3 0 .7-.3.7-.7 0-.3-.3-.7-.7-.7H22c-.3 0-.7.3-.7.7 0 .4 0 .7.7.7zM24 123.9h3.3c.3 0 .7-.3.7-.7 0-.3-.3-.7-.7-.7H24c-.3 0-.7.3-.7.7 0 .4.3.7.7.7zM30.2 123.9h3.9c.3 0 .7-.3.7-.7 0-.3-.3-.7-.7-.7h-3.9c-.3 0-.7.3-.7.7 0 .4.4.7.7.7zM167.9 94.2h10.2c.3 0 .7-.3.7-.7s-.3-.7-.7-.7h-10.2c-.3 0-.7.3-.7.7s0 .7.7.7zM161.3 94.2h2.6c.3 0 .7-.3.7-.7s-.3-.7-.7-.7h-2.6c-.3 0-.7.3-.7.7s.4.7.7.7zM163.6 97.5h3.3c.3 0 .7-.3.7-.7s-.3-.7-.7-.7h-3.3c-.3 0-.7.3-.7.7s.4.7.7.7zM169.9 97.5h2.3c.3 0 .7-.3.7-.7s-.3-.7-.7-.7h-2.3c-.3 0-.7.3-.7.7s0 .7.7.7z"/></g><path class="st3" d="M35.5 48.2h-2.1c-1.1 0-2.1-.9-2.1-2.1 0-1.1.9-2.1 2.1-2.1h2.1c1.1 0 2.1.9 2.1 2.1 0 1.1-1 2.1-2.1 2.1zM35.5 62.7h-2.1c-1.1 0-2.1-.9-2.1-2.1s.9-2.1 2.1-2.1h2.1c1.1 0 2.1.9 2.1 2.1s-1 2.1-2.1 2.1zM43.9 62.7h-2.1c-1.1 0-2.1-.9-2.1-2.1s.9-2.1 2.1-2.1h2.1c1.1 0 2.1.9 2.1 2.1s-1 2.1-2.1 2.1zM52.2 62.7h-2.1c-1.1 0-2.1-.9-2.1-2.1s.9-2.1 2.1-2.1h2.1c1.1 0 2.1.9 2.1 2.1s-.9 2.1-2.1 2.1zM52.2 48.2H41.8c-1.1 0-2.1-.9-2.1-2.1 0-1.1.9-2.1 2.1-2.1h10.5c1.1 0 2.1.9 2.1 2.1-.1 1.1-1 2.1-2.2 2.1zM43.9 54.4H33.4c-1.1 0-2.1-.9-2.1-2.1s.9-2.1 2.1-2.1h10.5c1.1 0 2.1.9 2.1 2.1s-1 2.1-2.1 2.1zM160.2 154.8c-.9 0-1.7-.8-1.7-1.7 0-.1 0-.2.1-.3 0-.1.1-.3.1-.3.1-.1.1-.2.1-.3.1-.1.1-.2.3-.3.4-.4 1-.6 1.6-.4.1 0 .3.1.3.1.1.1.2.1.3.1.1.1.2.1.3.2s.1.2.2.3c.1.1.1.2.2.3.1.1.1.2.1.3s.1.2.1.3c0 .4-.2.9-.5 1.2-.1.1-.2.1-.3.2-.1.1-.2.1-.3.1-.1.1-.2.1-.3.1-.3.1-.5.1-.6.1zM162 147.9h-3.4c-.9 0-1.7-.8-1.7-1.7s.8-1.7 1.7-1.7h3.4c.9 0 1.7.8 1.7 1.7s-.8 1.7-1.7 1.7zM167.1 141h-17.2c-.9 0-1.7-.8-1.7-1.7s.8-1.7 1.7-1.7h17.2c.9 0 1.7.8 1.7 1.7 0 1-.8 1.7-1.7 1.7zM151.7 147.9h-6.9c-.9 0-1.7-.8-1.7-1.7s.8-1.7 1.7-1.7h6.8c.9 0 1.7.8 1.7 1.7.1 1-.7 1.7-1.6 1.7zM153.4 154.8h-13.7c-.9 0-1.7-.8-1.7-1.7s.8-1.7 1.7-1.7h13.7c.9 0 1.7.8 1.7 1.7 0 .9-.8 1.7-1.7 1.7z"/><path class="st8" d="M11.6 173.1h23.1M169.6 173.1h23M42.3 173.1h121.3"/><circle class="st4" cx="16.6" cy="87" r="4.1"/><circle class="st4" cx="133.6" cy="31.1" r="4.1"/><path class="st9" d="m61.8 19-2.5 2.5M53.8 27l-2.6 2.6M61.8 29.6 59.3 27M53.8 21.5 51.2 19M192.7 61.1l-2.6 2.4M184.6 69.1l-2.5 2.6M192.7 71.7l-2.6-2.6M184.6 63.5l-2.5-2.4"/><g id="layer1_2_" transform="translate(0 -952.362)"><path id="path9843_2_" class="st4" d="M45 1024.3c10.5-19 30.9-32 54.2-32 34.2 0 61.9 27.7 61.9 61.9s-27.7 61.9-61.9 61.9c-33.7 0-61.2-27-61.8-60.5"/><path id="path9850_2_" class="st4" d="M60.5 1092.9c-3.8-7.5-5.7-22.4-5.8-37.4m2.8-31.1c.8-3.5 1.8-6.5 3-8.8"/><path id="path9848_2_" class="st4" d="M75.9 1100.7c-3.8-7.6-5.7-26.3-5.8-45.2m1.8-31.2c.9-7.1 2.3-12.9 4-16.5"/><path id="path9846_2_" class="st4" d="M91.4 1108.4c-3.8-7.6-5.8-30.2-5.8-53m1.1-30.9c.9-11.1 2.5-20.1 4.6-24.4"/><path id="path6946_2_" d="M150.2 1024.7v31.1H33.8c-4.3 0-7.7-3.5-7.7-7.7v-15.6c0-4.3 3.5-7.7 7.7-7.7l116.4-.1z" style="fill:none"/><path id="path4308_2_" class="st10" d="M114.6 1024.8H144c-6.2 10.8-6.2 23.3 6.2 31H89.8l24.8-31z"/><path id="path6944_2_" class="st4" d="M144.4 1024.8h-2.2m-23.8 0H34.5c-4.3 0-7.7 3.5-7.7 7.7v15.6c0 4.3 3.5 7.7 7.7 7.7h62.3m45.4 0h7.9"/><path id="path6950_2_" d="M130 1020.4v8.9-4.6h-4.6 9.7" style="fill:none;stroke:#fc929c;stroke-width:3.5;stroke-linecap:round;stroke-linejoin:round"/><path id="path9852_2_" class="st4" d="M114.8 1090.6c-23.5 1.4-52.2-.4-62.1-5.3"/><path id="path9854_2_" class="st4" d="M95.5 1075.5c-20.6.3-42.2-1.7-50.5-5.8"/><path id="path9955_2_" class="st16" d="M47 1046.5v-7.2c0-.9-.2-1.4-.5-1.9-.3-.4-.9-.6-1.6-.6-1 0-1.8.3-2.2.9-.5.6-.7 1.5-.7 2.9v5.8h-2.2v-15.9H42v4.5c0 .6 0 1-.1 1.3h-.3c.3-.5.8-.9 1.3-1.3s1.3-.5 2.1-.5c1.3 0 2.4.4 3.1 1 .7.7 1.1 1.8 1.1 3.3v7.6l-2.2.1z"/><path id="path9957_2_" class="st16" d="M56 1045c.3 0 .6 0 .8-.1.3-.1 1-.1 1-.1v1.7c-.3.1-.5.2-.9.3-.3.1-.6.1-1 .1-2.1 0-3.2-1.2-3.2-3.5v-6.3h-2.2v-1.3l1.7-.7.7-2.3h1.9v2.9h2.9v1.4h-3.6v6c.2.6.4 1.1.7 1.4.4.3.8.5 1.2.5z"/><path id="path9959_2_" class="st16" d="M63.4 1045c.3 0 .6 0 .8-.1.3-.1.9-.1.9-.1v1.5c-.3.1-.5.2-.9.3s-.6.1-1 .1c-2.1 0-3.2-1.1-3.2-3.3v-6.2h-1.4v-1.3l1.2-.7.7-2.3h1.7v2.9H65v1.4h-2.9v6c-.3.6-.1 1.1.2 1.4.3.2.6.4 1.1.4z"/><path id="path9961_2_" class="st16" d="M72.3 1046.6c-.7 0-1.5-.1-2.1-.4-.7-.3-1.1-.7-1.6-1.2h.6c.1.5.1 1 .1 1.6v4.9h-2.2v-15.9h1.6l.2.7h-.4c.4-.6.9-1 1.6-1.3.6-.3 1.3-.4 2.1-.4 1.6 0 2.8.5 3.6 1.6.8 1 1.3 2.5 1.3 4.4 0 1.9-.4 3.4-1.3 4.4-.8 1.1-2 1.6-3.5 1.6zm0-9.8c-1 0-1.8.3-2.2.9-.4.6-.7 1.5-.7 2.8v.4c0 1.5.2 2.5.7 3.2.5.6 1.2.9 2.3.9.9 0 1.5-.4 2-1.1.5-.7.7-1.7.7-3s-.2-2.3-.7-3c-.5-.7-1.2-1.1-2.1-1.1z"/><path id="path9963_2_" class="st16" d="M86.9 1043.3c0 1.1-.4 1.9-1.2 2.5-.8.6-1.9.9-3.3.9-1.5 0-2.7-.3-3.6-.8v-1.9c.7.3 1.4.5 1.9.6.6.1 1.2.2 1.7.2.8 0 1.4-.1 1.8-.4.4-.2.6-.6.6-1.1 0-.4-.1-.6-.5-.9-.4-.3-1-.6-2-1s-1.8-.7-2.2-1c-.4-.3-.8-.6-1-1-.2-.4-.4-.9-.4-1.4 0-.9.4-1.7 1.2-2.2.8-.6 1.8-.8 3.1-.8 1.2 0 2.4.3 3.7.8l-.7 1.7c-1.2-.4-2.2-.6-3.1-.6-.7 0-1.3.1-1.6.3-.4.2-.5.5-.5.9 0 .3.1.4.2.6.1.1.4.4.6.5s.9.4 1.7.8c1.4.5 2.5 1 2.9 1.5.5.4.7 1.1.7 1.8z"/><path id="path13399_2_" d="M104 1055.3c0-1.5 1.5-3.1 3.1-3.1h24.8c1.5 0 3.1 1.5 3.1 3.1v20.4c0 1.5-1.5 3.1-3.1 3.1h-24.8c-1.5 0-3.1-1.5-3.1-3.1v-20.4z" style="fill:#76e5b7;stroke:#1f8ac0;stroke-width:3.5"/><path id="path13401_2_" d="M108.5 1046.1c0-6 4.8-10.8 10.8-10.8 6 0 10.8 4.8 10.8 10.8" style="fill:none;stroke:#1f8ac0;stroke-width:3.5;stroke-linecap:round;stroke-linejoin:round"/></g></svg>