<?xml version="1.0" encoding="utf-8"?>
<!-- Generator: Adobe Illustrator 25.3.1, SVG Export Plug-In . SVG Version: 6.00 Build 0)  -->
<svg version="1.1" id="Layer_1" xmlns="http://www.w3.org/2000/svg" xmlns:xlink="http://www.w3.org/1999/xlink" x="0px" y="0px"
	 viewBox="0 0 150 150" enable-background="new 0 0 150 150" xml:space="preserve">
<g>
	<path fill="#F7B64D" d="M22.9,27.8c9.4-9.7,20.8-16.2,33.9-19.3c25.2-6,47.8-0.6,67.5,16.3c1,0.9,1.8,1.9,2.8,2.9
		c-0.7,0.8-1.4,1.6-2.1,2.4c-3.7,3.9-7.5,7.7-11.3,11.5c-0.2,0-0.4,0-0.6,0c-1.8-1.5-3.5-3-5.3-4.4c-15-11.2-31.5-14.1-49.5-8.6
		c-8.2,2.5-15.2,7.1-21.4,13c-0.2,0-0.3,0-0.5-0.1C31.9,37,27.4,32.4,22.9,27.8z"/>
	<path fill="#F05540" d="M113.7,41.6c3.8-3.8,7.5-7.7,11.3-11.5c0.7-0.8,1.4-1.6,2.1-2.4c9,8.5,15.1,18.8,18.5,30.6
		c7.7,26.8,2.1,50.8-16.1,71.9c-1.5,1.7-2.4,2.1-4.1,0.2c-3.7-4.1-7.8-8-11.7-11.9c0.5-0.8,0.9-1.7,1.6-2.4
		c10.3-11.8,15-25.4,13.5-41.2c-1.2-12.7-6.2-23.5-15.1-32.7C113.7,42,113.7,41.8,113.7,41.6z"/>
	<path fill="#55C0EA" d="M22.9,27.8c4.5,4.6,9,9.2,13.5,13.8c-0.5,2.2-2.6,3.2-3.9,4.9c-8.4,11.2-12.3,23.7-11.2,37.8
		c0.8,10.6,4.5,19.8,10.6,28.4c1.4,2,3.8,3.3,4.6,5.8c-4,4.1-8.2,8.2-12.1,12.3c-1.2,1.3-1.9,1.3-3.1,0
		c-9.5-10.3-15.8-22.2-18.5-35.9c-4.8-24.7,1.6-46.4,18.1-65.2C21.4,29,22.2,28.4,22.9,27.8z"/>
	<path fill="#CCD5DF" d="M74.9,143.8c-8.9,0-17.9,0-26.8,0c-6.3,0-11.2-5-11.2-11.4c0-6.5,4.9-11.7,11.3-11.7c17.7,0,35.4,0,53,0
		c6.1,0,10.8,4.5,11.8,11.2c0.7,4.6-3.1,10-8.1,11.6c-1,0.3-2.1,0.3-3.1,0.3C92.8,143.8,83.9,143.8,74.9,143.8z"/>
	<path fill="#FED05D" d="M36.9,41.7c6.2-5.9,13.2-10.5,21.4-13c17.9-5.5,34.4-2.6,49.5,8.6c1.8,1.4,3.5,2.9,5.3,4.4
		c0,0.2,0,0.4,0,0.6c-4.7,4.2-9,8.7-13.3,13.2c-4.8-4.2-10-7.5-16.2-9c-11.5-2.8-21.9-0.3-31.1,7.1c-0.7,0.6-1.5,1.1-2.3,1.7
		C45.8,50.7,41.3,46.2,36.9,41.7z"/>
	<path fill="#84DAFE" d="M36.9,41.7c4.4,4.5,8.9,9,13.3,13.5c-3.3,4.3-6.6,8.6-8.2,14c-3.6,12.6-2,24.1,7,34c1,1.1,1.2,1.7,0.1,2.8
		c-4.3,4.1-8.5,8.3-12.7,12.5c-0.7-2.6-3.1-3.8-4.6-5.8c-6.1-8.5-9.8-17.8-10.6-28.4c-1.1-14.1,2.8-26.6,11.2-37.8
		c1.2-1.7,3.4-2.6,3.9-4.9C36.5,41.6,36.7,41.6,36.9,41.7z"/>
	<path fill="#FE7058" d="M99.8,55.4c4.3-4.5,8.6-9,13.3-13.2c0.2,0,0.4,0,0.6,0c8.8,9.1,13.9,20,15.1,32.7
		c1.5,15.8-3.2,29.4-13.5,41.2c-0.6,0.7-1,1.6-1.6,2.4c-4.2-4.2-8.4-8.4-12.7-12.5c-1.1-1.1-0.9-1.7,0-2.8c6.4-7.5,9.4-16.1,8.7-26
		c-0.3-4.8-1.8-9.2-3.9-13.4c4.3-3.4,8.6-6.8,12.9-10.2c0.2-0.2,0.8-0.3,0.5-0.7c-0.2-0.3-0.7-0.1-0.9,0.2
		c-4.9,2.3-9.9,4.5-14.8,6.8C102.2,58.3,101,56.9,99.8,55.4z"/>
	<path fill="#445C6D" d="M118.6,53.5c-4.3,3.4-8.6,6.8-12.9,10.2c-7.5,5.7-15,11.3-22.6,17c-0.8,0.6-0.9,1.4-1.3,2.2
		c-1.6,3.6-5.3,5.3-9.1,4.3c-3.6-1-5.9-4.5-5.4-8.4c0.4-3.7,3.4-6.7,7.2-6.5c2.8,0.1,5-0.8,7.3-2c7.2-3.5,14.3-7,21.5-10.4
		c4.9-2.3,9.9-4.5,14.8-6.8C118.3,53.2,118.4,53.4,118.6,53.5z M72,80c0.1,1.9,1.2,3.1,3.1,3.1c1.7,0,2.9-1,2.9-2.9
		c0.1-2-1-3.1-2.9-3.2C73.2,76.9,72.1,78.1,72,80z"/>
	<path fill="#FC7059" d="M113.7,42.2c-0.2,0-0.4,0-0.6,0c0-0.2,0-0.4,0-0.6c0.2,0,0.4,0,0.6,0C113.7,41.8,113.7,42,113.7,42.2z"/>
	<path fill="#445C6D" d="M118.1,53c0.3-0.3,0.7-0.5,0.9-0.2c0.3,0.4-0.3,0.5-0.5,0.7C118.4,53.4,118.3,53.2,118.1,53z"/>
	<path fill="#F6F7F7" d="M72,80c0.2-1.9,1.2-3.1,3.1-3c1.8,0.1,3,1.3,2.9,3.2c-0.1,1.8-1.2,2.9-2.9,2.9C73.2,83.1,72.1,82,72,80z"/>
</g>
<g>
</g>
<g>
</g>
<g>
</g>
<g>
</g>
<g>
</g>
<g>
</g>
<g>
</g>
<g>
</g>
<g>
</g>
<g>
</g>
<g>
</g>
<g>
</g>
<g>
</g>
<g>
</g>
<g>
</g>
</svg>
