<?xml version="1.0" encoding="utf-8"?>
<!-- Generator: Adobe Illustrator 25.3.1, SVG Export Plug-In . SVG Version: 6.00 Build 0)  -->
<svg version="1.1" id="Layer_1" xmlns="http://www.w3.org/2000/svg" xmlns:xlink="http://www.w3.org/1999/xlink" x="0px" y="0px"
	 viewBox="0 0 150 150" enable-background="new 0 0 150 150" xml:space="preserve">
<g>
	<path fill="#4284A8" d="M11,45.7c-4.2-1.5-4.9-2.4-4.9-6.9c0-8.3,0-16.6,0-24.9c0-4.7,1.6-6.4,6.3-6.4c41.6,0,83.1,0,124.7,0
		c4.7,0,6.3,1.6,6.3,6.4c0,8.3,0,16.6,0,24.9c0,4.4-0.7,5.3-4.9,6.9C96.1,45.7,53.5,45.7,11,45.7z M86.5,21.8c-5.2,0-10.3,0-15.5,0
		c-3.6,0-5.5,1.4-5.6,4.3c-0.1,2.9,2.3,5.1,5.6,5.1c10.4,0,20.9,0,31.3,0c3.2,0,5.7-2.1,5.7-4.7c0-2.6-2.5-4.7-5.8-4.7
		C97,21.8,91.7,21.8,86.5,21.8z M22.8,19.5c-3.9,0-7.1,3-7.2,6.8c-0.1,3.9,3.2,7.2,7.3,7.1c3.9,0,7.1-3.2,7-7
		C29.8,22.6,26.7,19.5,22.8,19.5z M46.3,19.5c-3.9,0-7,3.1-7,7c0,3.8,3.2,7,7.1,7c3.9,0,7.1-3.1,7.2-6.9
		C53.6,22.6,50.4,19.5,46.3,19.5z M132.7,24c1.7,0.1,3.6,0,3.5-2.3c0-2.1-1.8-2.2-3.4-2.2c-1.7,0-3.6,0-3.6,2.3
		C129.3,24,131,24.1,132.7,24z M132.8,29c-1.7-0.1-3.6,0-3.5,2.3c0.1,2.1,1.8,2.1,3.5,2.1c1.7,0,3.6,0,3.5-2.3
		C136.2,29.1,134.4,28.9,132.8,29z M121.2,24c1.6,0.2,3.2-0.1,3.3-2.1c0.1-2-1.5-2.4-3.3-2.3c-1.7,0.1-3.6,0-3.6,2.3
		C117.6,24,119.3,24.1,121.2,24z M121.3,33.4c1.6,0.2,3.2-0.2,3.2-2.2c0-2-1.7-2.3-3.4-2.2c-1.6,0.1-3.4,0-3.5,2.1
		C117.5,33.4,119.4,33.5,121.3,33.4z"/>
	<path fill="#4284A8" d="M138.6,106.6c4.2,1.5,4.8,2.4,4.9,6.9c0,8.3,0,16.6,0,24.9c0,4.7-1.6,6.4-6.3,6.4c-41.6,0-83.1,0-124.7,0
		c-4.7,0-6.3-1.6-6.3-6.4c0-8.3,0-16.6,0-24.9c0-4.4,0.7-5.3,4.9-6.9C53.5,106.6,96.1,106.6,138.6,106.6z M86.3,130.5
		c5.5,0,11.1,0,16.6,0c2.8,0,5.2-2.3,5.1-4.7c0-2.3-2.3-4.6-5-4.6c-10.9-0.1-21.8-0.1-32.7,0c-2.9,0-5.1,2.4-5,5.2
		c0.1,2.7,1.9,4.2,5.1,4.2C75.7,130.5,81,130.5,86.3,130.5z M22.7,132.8c4,0,7.1-2.9,7.2-6.8c0.1-3.9-3.2-7.2-7.2-7.1
		c-3.9,0-7.1,3.2-7.1,7C15.6,129.6,18.8,132.8,22.7,132.8z M46.3,132.8c4.1,0,7.3-3.1,7.3-7c0-3.8-3.2-7-7.2-7
		c-3.9,0-7.1,3.1-7.1,6.9C39.3,129.7,42.3,132.7,46.3,132.8z M132.9,123.3c1.7,0.1,3.4-0.1,3.4-2.2c0-2.3-1.9-2.2-3.6-2.2
		c-1.7,0-3.4,0.1-3.4,2.2C129.2,123.3,131.1,123.3,132.9,123.3z M132.8,132.7c1.6,0.1,3.3,0,3.4-2.1c0.1-2.3-1.8-2.4-3.5-2.4
		c-1.6,0-3.4,0-3.5,2.1C129.1,132.6,131,132.8,132.8,132.7z M121.4,123.3c1.5,0.3,3-0.3,3-2.3c0-2-1.7-2.2-3.4-2.2
		c-1.6,0-3.4,0.1-3.4,2.2C117.5,123.3,119.4,123.3,121.4,123.3z M121.2,132.7c1.6,0.2,3.2-0.1,3.3-2.2c0-2-1.5-2.4-3.3-2.3
		c-1.7,0.1-3.6,0-3.6,2.3C117.6,132.7,119.4,132.8,121.2,132.7z"/>
	<path fill="#4184A8" d="M138.7,57.3c3.4,0.6,4.7,2.1,4.7,5.3c0,9,0,18.1,0,27.1c0,3.3-1.4,4.7-4.7,5.3c-42.6,0-85.2,0-127.8,0
		c-3.4-0.6-4.7-2.1-4.7-5.3c0-9,0-18.1,0-27.1c0-3.3,1.4-4.7,4.7-5.3C53.5,57.3,96.1,57.3,138.7,57.3z M86.2,81.1
		c5.3,0,10.5,0.1,15.8,0c3.6-0.1,6.2-2.4,6.1-5.1c-0.1-2.8-2.6-4.8-6.1-4.8c-10.2,0-20.3,0-30.5,0c-1.5,0-3,0.2-4.2,1.2
		c-1.7,1.3-2.4,3.1-1.7,5.2c0.8,2.5,2.8,3.6,5.3,3.6C76,81.2,81.1,81.1,86.2,81.1z M39.3,76.2c0,4,3.4,7.2,7.3,7.1
		c3.6-0.1,7.1-3.7,7-7.3C53.5,72.4,50,69,46.4,69C42.4,69,39.3,72.2,39.3,76.2z M29.9,76.1c0-4-3.3-7.2-7.3-7.1
		c-3.6,0.1-7.1,3.6-7,7.2c0,3.6,3.5,7.1,7.1,7.1C26.6,83.3,29.9,80.1,29.9,76.1z M120.9,68.9c-1.8-0.1-3.3,0.3-3.3,2.4
		c0,2.3,1.7,2.5,3.5,2.6c1.9,0.1,3.6-0.7,3.5-2.6C124.4,69.5,122.7,68.7,120.9,68.9z M121,83.3c1.8,0.2,3.4-0.7,3.5-2.5
		c0-1.7-1.5-2.6-3.3-2.5c-1.7,0.1-3.5,0.1-3.6,2.4C117.4,83,119,83.4,121,83.3z M132.8,73.9c1.8,0.1,3.5-0.5,3.5-2.7
		c0-2.1-1.8-2.2-3.4-2.3c-1.8-0.1-3.6,0.4-3.6,2.4C129.3,73.1,130.8,74,132.8,73.9z M133.1,83.3c1.2-0.1,3.2-0.1,3.1-2.4
		c0-2-1.6-2.6-3.5-2.6c-1.9,0-3.4,0.8-3.4,2.7C129.3,82.9,131,83.4,133.1,83.3z"/>
	<path fill="#296172" d="M138.7,57.3c-42.6,0-85.2,0-127.8,0c0-3.9,0.1-7.7,0.1-11.6c42.5,0,85.1,0,127.6,0
		C138.6,49.5,138.7,53.4,138.7,57.3z"/>
	<path fill="#296172" d="M10.9,95c42.6,0,85.2,0,127.8,0c0,3.9-0.1,7.7-0.1,11.6c-42.5,0-85.1,0-127.6,0
		C10.9,102.8,10.9,98.9,10.9,95z"/>
	<path fill="#35718A" d="M86.5,21.8c5.3,0,10.5,0,15.8,0c3.2,0,5.8,2.1,5.8,4.7c0,2.6-2.5,4.7-5.7,4.7c-10.4,0-20.9,0-31.3,0
		c-3.3,0-5.7-2.2-5.6-5.1c0.1-2.9,1.9-4.3,5.6-4.3C76.1,21.8,81.3,21.8,86.5,21.8z"/>
	<path fill="#84FAA9" d="M22.8,19.5c3.9,0,7.1,3.1,7.1,6.9c0,3.8-3.1,7-7,7c-4,0-7.4-3.2-7.3-7.1C15.7,22.5,18.8,19.5,22.8,19.5z"/>
	<path fill="#84FAA9" d="M46.3,19.5c4.1,0,7.3,3.1,7.3,7c0,3.8-3.3,6.9-7.2,6.9c-3.9,0-7.1-3.1-7.1-7C39.3,22.6,42.4,19.5,46.3,19.5
		z"/>
	<path fill="#35718A" d="M132.7,24c-1.7,0.1-3.4-0.1-3.5-2.1c0-2.3,1.8-2.3,3.6-2.3c1.6,0,3.4,0.1,3.4,2.2
		C136.3,24,134.4,24.1,132.7,24z"/>
	<path fill="#35718A" d="M132.8,29c1.7-0.1,3.4,0,3.5,2.1c0.1,2.3-1.8,2.3-3.5,2.3c-1.6,0-3.4-0.1-3.5-2.1
		C129.2,29,131,28.9,132.8,29z"/>
	<path fill="#35718A" d="M121.2,24c-1.8,0.1-3.6-0.1-3.6-2.2c0-2.3,1.9-2.2,3.6-2.3c1.8-0.1,3.3,0.3,3.3,2.3
		C124.4,23.9,122.7,24.2,121.2,24z"/>
	<path fill="#35718A" d="M121.3,33.4c-1.9,0.1-3.8,0-3.7-2.3c0.1-2.1,1.9-2.1,3.5-2.1c1.7-0.1,3.4,0.2,3.4,2.2
		C124.4,33.2,122.9,33.7,121.3,33.4z"/>
	<path fill="#35718A" d="M86.3,130.5c-5.3,0-10.5,0-15.8,0c-3.2,0-5-1.5-5.1-4.2c-0.1-2.7,2.1-5.2,5-5.2c10.9-0.1,21.8-0.1,32.7,0
		c2.6,0,4.9,2.3,5,4.6c0,2.4-2.3,4.7-5.1,4.7C97.3,130.5,91.8,130.5,86.3,130.5z"/>
	<path fill="#84FAA9" d="M22.7,132.8c-3.9,0-7.1-3.1-7.1-7c0-3.8,3.2-7,7.1-7c4,0,7.3,3.2,7.2,7.1C29.8,129.9,26.7,132.8,22.7,132.8
		z"/>
	<path fill="#84FAA9" d="M46.3,132.8c-3.9,0-7-3.1-7-7c0-3.8,3.2-6.9,7.1-6.9c3.9,0,7.1,3.1,7.2,7C53.6,129.7,50.4,132.8,46.3,132.8
		z"/>
	<path fill="#35718A" d="M132.9,123.3c-1.7,0.1-3.6,0.1-3.6-2.2c0-2.1,1.7-2.2,3.4-2.2c1.7,0,3.6,0,3.6,2.2
		C136.2,123.2,134.5,123.4,132.9,123.3z"/>
	<path fill="#35718A" d="M132.8,132.7c-1.8,0.1-3.7-0.1-3.6-2.4c0.1-2.1,1.9-2.1,3.5-2.1c1.7,0,3.6,0.1,3.5,2.4
		C136.1,132.7,134.4,132.8,132.8,132.7z"/>
	<path fill="#35718A" d="M121.4,123.3c-2,0.1-3.9,0-3.9-2.3c0-2.1,1.8-2.1,3.4-2.2c1.7-0.1,3.4,0.2,3.4,2.2
		C124.5,123,123,123.5,121.4,123.3z"/>
	<path fill="#35718B" d="M121.2,132.7c-1.8,0.1-3.6,0-3.6-2.1c0-2.3,1.8-2.3,3.6-2.3c1.8-0.1,3.3,0.3,3.3,2.3
		C124.4,132.6,122.8,132.9,121.2,132.7z"/>
	<path fill="#35718B" d="M86.2,81.1c-5.1,0-10.2,0-15.2,0c-2.5,0-4.5-1.1-5.3-3.6c-0.7-2.1,0.1-3.8,1.7-5.2c1.2-0.9,2.7-1.2,4.2-1.2
		c10.2,0,20.3,0,30.5,0c3.5,0,5.9,2,6.1,4.8c0.1,2.7-2.5,5.1-6.1,5.1C96.7,81.2,91.4,81.1,86.2,81.1z"/>
	<path fill="#84F9A9" d="M39.3,76.2c0-4,3.1-7.2,7.1-7.3c3.6,0,7.1,3.4,7.2,7.1c0.1,3.6-3.4,7.2-7,7.3
		C42.7,83.4,39.3,80.2,39.3,76.2z"/>
	<path fill="#84F9A9" d="M29.9,76.1c0,4-3.3,7.2-7.2,7.2c-3.6,0-7.1-3.5-7.1-7.1c0-3.6,3.4-7.1,7-7.2C26.5,68.9,29.8,72.2,29.9,76.1
		z"/>
	<path fill="#35728B" d="M120.9,68.9c1.8-0.2,3.5,0.6,3.6,2.4c0.1,1.9-1.6,2.7-3.5,2.6c-1.7-0.1-3.5-0.3-3.5-2.6
		C117.6,69.3,119,68.9,120.9,68.9z"/>
	<path fill="#35728B" d="M121,83.3c-2,0.1-3.6-0.3-3.5-2.6c0.1-2.3,1.9-2.3,3.6-2.4c1.8-0.1,3.4,0.8,3.3,2.5
		C124.4,82.7,122.8,83.5,121,83.3z"/>
	<path fill="#35728B" d="M132.8,73.9c-2,0-3.4-0.9-3.5-2.5c0-2,1.8-2.5,3.6-2.4c1.6,0.1,3.4,0.2,3.4,2.3
		C136.2,73.5,134.5,74,132.8,73.9z"/>
	<path fill="#35728B" d="M133.1,83.3c-2.1,0.1-3.8-0.5-3.8-2.3c0-1.9,1.6-2.7,3.4-2.7c1.9,0,3.4,0.6,3.5,2.6
		C136.3,83.2,134.3,83.2,133.1,83.3z"/>
</g>
<g>
</g>
<g>
</g>
<g>
</g>
<g>
</g>
<g>
</g>
<g>
</g>
<g>
</g>
<g>
</g>
<g>
</g>
<g>
</g>
<g>
</g>
<g>
</g>
<g>
</g>
<g>
</g>
<g>
</g>
</svg>
