<?xml version="1.0" encoding="utf-8"?>
<!-- Generator: Adobe Illustrator 25.3.1, SVG Export Plug-In . SVG Version: 6.00 Build 0)  -->
<svg version="1.1" id="Layer_1" xmlns="http://www.w3.org/2000/svg" xmlns:xlink="http://www.w3.org/1999/xlink" x="0px" y="0px"
	 viewBox="0 0 150 150" enable-background="new 0 0 150 150" xml:space="preserve">
<g>
	<path fill="#837683" d="M120.9,29.1c0.2,0,0.3,0.1,0.5,0.2c2.1,1.8,5,2.8,4.9,6.4c-0.2,4.3-0.1,8.5,0,12.8c0,2.5-1.3,4.1-3.4,5.4
		c-0.6,0.4-1.7,0.1-1.8,1.4c5.6,1.5,5.9,5.9,5.8,10.6c-3.6-1.1-7.2-2.2-11-2.4c-1.4-0.1-2.4,0.1-2.4,1.8c-4.3-0.4-9.1,1.4-12.7-2.7
		c-0.3-0.3-0.9-0.4-1.4-0.4c-2.8-0.3-5,0.5-6.2,3.2c-1.3,2.8-0.3,5.3,2.8,7.8c-4.9,1.8-9.5,4.2-13.6,7.5c-23.7,0-47.3-0.1-71-0.1
		c-1.1,0-2.2,0.1-3.3-0.1c-3.9-0.5-6.2-3.2-6.2-7.3c0-3.4,0-6.7,0-10.1c0-4.7,0.8-5.9,5.9-8.2c-6.8-1.6-6.5-6.5-6.3-11.4
		c0.1-1.9,0-3.9,0-5.8c0-5.6,2.7-8.3,8.4-8.4c0.6,0,1.2,0,1.8,0c1.7,0,3.4-0.1,5.1-0.1c0.5,0,1,0.1,1.5,0.1c32.6,0,65.2,0,97.7,0
		C117.5,29.2,119.2,29.2,120.9,29.1z M43.8,45.1c9.5,0,19.1,0,28.6,0c2.2,0,3.4-0.3,3.4-2.9c0-2.6-1-3.2-3.4-3.2
		c-19,0.1-38,0.1-56.9,0c-2.2,0-3.4,0.4-3.4,3c0,2.6,1,3.2,3.4,3.2C24.9,45.1,34.3,45.1,43.8,45.1z M43.9,64.7c-9.4,0-18.9,0-28.3,0
		c-2.2,0-3.6,0.2-3.6,3.1c0,2.7,1.2,3.1,3.5,3.1c18.9-0.1,37.8-0.1,56.6,0c2.2,0,3.6-0.2,3.6-3c0-2.7-1.2-3.2-3.5-3.1
		C62.8,64.7,53.4,64.7,43.9,64.7z M112.6,44.5c2,0,4.1,0,6.1,0c1.9,0,4.1,0.1,4.1-2.4c0.1-2.6-2.1-2.5-4-2.5c-3.8,0-7.5,0-11.3,0
		c-2.1,0-4-0.1-5.7-1.9c-2.1-2.2-6-1.7-7.9,0.6c-1.9,2.2-1.8,5.7,0.2,7.8c2,2.1,5.8,2.6,7.6,0.4c1.8-2.1,3.7-2.1,5.9-2.1
		C109.4,44.5,111,44.5,112.6,44.5z"/>
	<path fill="#8AC8FD" d="M105.6,80.5c0,7.9,0,15.8-0.1,23.7c0,2,0.7,2.6,2.6,2.6c8.1-0.1,16.2,0,24.3,0c1.2,0,2.4,0.1,3.6,0.2
		c-0.3,2.3-0.4,4.6-1,6.9c-3.2,13.6-16.2,23.9-30.5,23.5c-15-0.4-27.4-11.1-29.5-26.3c-2.6-19.1,12.5-35,30.2-34.2
		C105.5,78.1,105.5,79.3,105.6,80.5z"/>
	<path fill="#FEE077" d="M144,98.2c-9.4,0-18.8,0-28.2,0.1c-1.7,0-2.3-0.6-2.3-2.3c0-5.2,0-10.3,0-15.5c0-3.5,0-6.9,0-10.4
		c0.1-0.8,0.2-1.6,0.3-2.5C131,67.8,145.1,82.9,144,98.2z"/>
	<path fill="#63B7FE" d="M105.4,76.8C87.7,76.1,72.6,91.9,75.2,111c2,15.3,14.5,25.9,29.5,26.3c14.3,0.4,27.3-9.9,30.5-23.5
		c0.5-2.2,0.7-4.6,1-6.9c4.4-0.4,4.6-0.2,4.1,4c-2.3,17.9-17.5,31.2-35.4,30.9c-17.4-0.2-32.5-14.2-34.1-31.3
		c-1-11.1,2.4-20.6,10.2-28.5c0.5-0.5,0.9-1.1,1.4-1.6c4.1-3.2,8.7-5.6,13.6-7.5c2.2-0.4,4.4-0.8,6.6-1.2c2.4-0.3,3.5,0.6,3,3.1
		C105.4,75.6,105.4,76.2,105.4,76.8z"/>
	<path fill="#AA9EAA" d="M16.6,29.2c-1.7,0-3.4,0.1-5.1,0.1c0-3.6,0.1-7.1,0.1-10.7C11.7,12.2,15.8,8,22.1,8c29.6,0,59.1,0,88.7,0
		c6.1,0,10,4.1,10.1,10.2c0,3.7,0.1,7.3,0.1,11c-1.7,0-3.4,0.1-5.1,0.1c0-3.1,0.1-6.3,0.1-9.4c0-5.4-1.5-6.9-6.8-6.9
		c-8.4,0-16.8,0-25.3,0c-20.1,0-40.2,0-60.3,0c-5.4,0-7.1,1.7-7.1,7.1C16.5,23.1,16.6,26.1,16.6,29.2z"/>
	<path fill="#FDCF66" d="M144,98.2c1.1-15.3-13-30.4-30.2-30.5c-0.1-0.8-0.2-1.6-0.2-2.4c0-1.7,1-1.9,2.4-1.8
		c3.8,0.2,7.4,1.3,11,2.4c1.4,0.7,2.8,1.7,4.4,1.9c4.8,3.7,9.5,7.5,12.6,12.9c2.7,4.7,4.1,9.8,4.8,15.2c0.3,1.9-0.4,2.6-2.3,2.4
		C145.6,98.2,144.8,98.2,144,98.2z"/>
	<path fill="#6B616B" d="M131.3,67.8c-1.7-0.2-3-1.2-4.4-1.9c0.2-4.7-0.2-9.1-5.8-10.6c0.1-1.3,1.2-1,1.8-1.4
		c2.1-1.2,3.4-2.8,3.4-5.4c0-4.3-0.1-8.5,0-12.8c0.1-3.6-2.8-4.6-4.9-6.4c7.3-0.2,9.7,2.1,9.7,9.4c0,2.1-0.1,4.3,0,6.4
		c0.3,4.3-0.4,7.9-5.9,9.7C132.7,57.3,131.4,62.8,131.3,67.8z"/>
	<path fill="#837683" d="M105.4,76.8c0-0.6,0-1.2,0.1-1.8c0.4-2.5-0.6-3.4-3-3.1c0.7-1.5,1.8-1.9,3.4-1.9c2.5,0.1,5.1,0,7.6,0
		c0,3.5,0,6.9,0,10.4c-2.6,0-5.3,0-7.9,0C105.5,79.3,105.5,78.1,105.4,76.8z"/>
	<path fill="#F6F8F9" d="M16.6,29.2c0-3,0-6.1,0-9.1c0-5.4,1.7-7.1,7.1-7.1c20.1,0,40.2,0,60.3,0c8.4,0,16.8,0,25.3,0
		c5.4,0,6.8,1.5,6.8,6.9c0,3.1-0.1,6.3-0.1,9.4c-32.6,0-65.2,0-97.7,0C17.6,29.3,17.1,29.2,16.6,29.2z"/>
	<path fill="#EBEEF0" d="M43.8,45.1c-9.4,0-18.9-0.1-28.3,0C13,45.2,12,44.6,12,42c0-2.6,1.2-3,3.4-3c19,0.1,38,0.1,56.9,0
		c2.4,0,3.5,0.6,3.4,3.2c0,2.6-1.2,3-3.4,2.9C62.8,45.1,53.3,45.1,43.8,45.1z"/>
	<path fill="#EAEDEF" d="M43.9,64.7c9.4,0,18.9,0,28.3,0c2.3,0,3.5,0.4,3.5,3.1c0,2.8-1.4,3-3.6,3c-18.9-0.1-37.8-0.1-56.6,0
		c-2.3,0-3.5-0.4-3.5-3.1c0-2.8,1.4-3.1,3.6-3.1C25,64.7,34.5,64.7,43.9,64.7z"/>
	<path fill="#E9ECEE" d="M112.6,44.5c-1.6,0-3.2,0-4.9,0c-2.2,0-4.2,0-5.9,2.1c-1.9,2.2-5.6,1.7-7.6-0.4c-2-2-2.1-5.6-0.2-7.8
		c1.9-2.2,5.9-2.8,7.9-0.6c1.7,1.8,3.6,1.9,5.7,1.9c3.8,0,7.5,0,11.3,0c1.9,0,4.1-0.1,4,2.5c-0.1,2.5-2.3,2.4-4.1,2.4
		C116.7,44.5,114.7,44.5,112.6,44.5z"/>
	<path fill="#E9ECEF" d="M113.5,70.1c-2.5,0-5.1,0.1-7.6,0c-1.6-0.1-2.8,0.4-3.4,1.9c-2.2,0.4-4.4,0.8-6.6,1.2
		c-3.1-2.5-4.1-5-2.8-7.8c1.2-2.7,3.4-3.5,6.2-3.2c0.5,0.1,1.1,0.1,1.4,0.4c3.6,4.1,8.4,2.3,12.7,2.7c0.1,0.8,0.2,1.6,0.2,2.4
		C113.6,68.5,113.5,69.3,113.5,70.1z"/>
</g>
<g>
</g>
<g>
</g>
<g>
</g>
<g>
</g>
<g>
</g>
<g>
</g>
<g>
</g>
<g>
</g>
<g>
</g>
<g>
</g>
<g>
</g>
<g>
</g>
<g>
</g>
<g>
</g>
<g>
</g>
</svg>
