<?xml version="1.0" encoding="utf-8"?>
<!-- Generator: Adobe Illustrator 25.3.1, SVG Export Plug-In . SVG Version: 6.00 Build 0)  -->
<svg version="1.1" id="Layer_1" xmlns="http://www.w3.org/2000/svg" xmlns:xlink="http://www.w3.org/1999/xlink" x="0px" y="0px"
	 viewBox="0 0 150 150" enable-background="new 0 0 150 150" xml:space="preserve">
<g>
	<path fill="#FEB025" d="M82.3,33.7c4.2,0.3,8.4,0.2,12.6,0c4.8,0,9.5,0,14.3,0c4.2,0.3,8.4,0.2,12.6,0c4.8,0,9.6,0,14.5,0.1
		c2.3,0,4.7,0,7,0.1c4,0.2,6.6,2.6,6.6,6.4c0,20,0,40.1-0.1,60.1c-1.6,3.7-4.5,5.3-8.5,5.2c-12.3-0.1-24.7,0-37,0
		c-31.7,0-63.4,0-95,0c-3.6,0-6.8-0.7-8.7-4.1c0-20.4-0.1-40.8-0.1-61.2c0-3.8,2.6-6.2,6.6-6.4c2.3-0.1,4.7-0.1,7-0.1
		c4.8,0,9.6,0,14.5-0.1c4.2,0.2,8.4,0.3,12.6,0c4.8,0,9.5,0,14.3,0c4.2,0.2,8.4,0.3,12.6,0C72.8,33.7,77.5,33.7,82.3,33.7z
		 M130.5,83.9c0-8.3,0.1-16.5,0.1-24.8c0-5.1-1-6-6.2-6c-32.8,0-65.7,0-98.5,0c-0.7,0-1.4,0-2,0c-2.6,0.2-4.1,1.5-4.1,4.3
		c0,8.8,0.1,17.7,0.1,26.5c0,2.4-0.1,4.9-0.1,7.3c0,5.1,1,6,6.2,6c32.9,0,65.7,0,98.6,0c0.7,0,1.4,0,2,0c2.6-0.2,4.1-1.5,4.1-4.3
		C130.6,90,130.6,87,130.5,83.9z"/>
	<path fill="#FE901F" d="M0.5,101.5c2,3.3,5.2,4.1,8.7,4.1c31.7,0,63.4,0,95,0c12.3,0,24.7,0,37,0c4,0,6.9-1.5,8.5-5.2
		c0,3.1,0.1,6.2,0.1,9.3c0,4.3-2.5,6.8-6.9,6.9c-2.2,0.1-4.5,0-6.7,0.1c-4.8,0-9.7,0-14.5,0.1c-4.1,0-8.3-0.1-12.4-0.1
		c-4.8,0-9.7,0.1-14.5,0.1c-4.2,0-8.4,0-12.6,0c-4.8,0-9.5,0-14.3,0c-4.2,0-8.4,0-12.6,0c-4.8,0-9.7-0.1-14.5-0.1
		c-4.1,0-8.3,0.1-12.4,0.1c-4.8,0-9.7,0-14.5-0.1c-2.2,0-4.5,0-6.7-0.1c-4.4-0.1-6.8-2.6-6.9-6.9C0.4,106.9,0.5,104.2,0.5,101.5z"/>
	<path fill="#FE6F3E" d="M121.8,116.7c4.8,0,9.7,0,14.5-0.1c0,4.8,0,9.7-0.1,14.5c0,4.2-1.6,5.8-5.8,5.8c-8.2,0.1-8.7-0.4-8.7-8.7
		C121.8,124.4,121.8,120.5,121.8,116.7z"/>
	<path fill="#FE6F3E" d="M14,116.6c4.8,0,9.7,0,14.5,0.1c0,5,0,10.1,0,15.1c0,3.6-1.6,5.1-5.2,5.2c-8.5,0.3-9.3-0.5-9.3-9
		C14,124.2,14,120.4,14,116.6z"/>
	<path fill="#FE6E3B" d="M94.9,116.7c4.8,0,9.7-0.1,14.5-0.1c0,4.8,0,9.7-0.1,14.5c0,4.3-1.5,5.8-5.8,5.8c-8.2,0.1-8.7-0.4-8.7-8.7
		C94.9,124.4,94.9,120.5,94.9,116.7z"/>
	<path fill="#FE6E3B" d="M40.9,116.6c4.8,0,9.7,0.1,14.5,0.1c0,5,0,10.1,0,15.1c0,3.6-1.6,5.1-5.2,5.2c-8.5,0.3-9.3-0.5-9.3-9
		C41,124.1,40.9,120.4,40.9,116.6z"/>
	<path fill="#FE901F" d="M136.3,33.8c-4.8,0-9.6,0-14.5-0.1c0-5,0-10.1,0-15.1c0-3.6,1.6-5.1,5.2-5.2c8.5-0.3,9.3,0.5,9.3,9
		C136.3,26.2,136.3,30,136.3,33.8z"/>
	<path fill="#FE901F" d="M28.5,33.7c-4.8,0-9.6,0-14.5,0.1c0-5,0-10.1,0.1-15.1c0.1-3.6,1.6-5.2,5.1-5.2c7.5-0.1,9.7-0.4,9.3,9
		C28.4,26.1,28.5,29.9,28.5,33.7z"/>
	<path fill="#FE901F" d="M109.2,33.7c-4.8,0-9.5,0-14.3,0c0-5,0-10.1,0-15.1c0-3.6,1.5-5.1,5.1-5.2c8.6-0.3,9.2,0.3,9.2,9
		C109.2,26.1,109.2,29.9,109.2,33.7z"/>
	<path fill="#FE901F" d="M82.3,33.7c-4.8,0-9.5,0-14.3,0c0-5,0-10.1,0-15.1c0-3.6,1.6-5.1,5.1-5.2c8-0.2,9.6,0.1,9.2,9
		C82.2,26.1,82.3,29.9,82.3,33.7z"/>
	<path fill="#FE6E3B" d="M68,116.7c4.8,0,9.5,0,14.3,0c0,5.1,0,10.1,0,15.2c0,3.4-1.6,5-5,5.1c-7.8,0.2-9.8,0.2-9.4-8.9
		C68.1,124.3,68,120.5,68,116.7z"/>
	<path fill="#FE901F" d="M55.4,33.7c-4.8,0-9.5,0-14.3,0c0-5,0-10.1,0-15.1c0-3.6,1.6-5.1,5.1-5.2c7.9-0.2,9.6,0,9.2,9
		C55.3,26.2,55.4,29.9,55.4,33.7z"/>
	<path fill="#2F5971" d="M19.8,83.9c0-8.8-0.1-17.7-0.1-26.5c0-2.7,1.5-4,4.1-4.3c0.7-0.1,1.4,0,2,0c32.8,0,65.7,0,98.5,0
		c5.2,0,6.2,1,6.2,6c0,8.3-0.1,16.5-0.1,24.8c-1.8,1.9-4,2.4-6.6,2.4c-32.5-0.1-65.1-0.1-97.6,0C23.8,86.3,21.6,85.8,19.8,83.9z
		 M88.8,78c-0.7-4.3-1.4-7.7-1.9-11.1c-0.3-2.2-1.9-1.4-3.1-1.5c-1.4-0.2-1.8,0.6-1.8,1.9c0,5.2,0,10.5,0,15.7c0,1,0,2,1.5,2
		c1.4,0,1.5-0.9,1.5-2c0-2.9,0-5.8,0-8.7c0.9,2.4,1.3,4.8,1.8,7.2c0.3,1.3-0.4,3.5,2.1,3.4c2.3-0.1,1.7-2,1.9-3.3
		c0.6-2.7,1-5.4,1.4-8.2c0.4,3.1,0.4,6.2,0.4,9.4c0,1.1,0,2.2,1.6,2.1c1.5-0.1,1.3-1.1,1.3-2.1c0-5,0-10.1,0-15.1
		c0-1.2,0.2-2.4-1.6-2.4c-1.5,0-3-0.3-3.3,2.1C90.4,70.7,89.6,73.9,88.8,78z M58.7,76.6c0.2,0,0.4,0,0.7-0.1
		c0.6,2.3,1.2,4.6,1.8,6.9c0.4,1.7,1.7,1.7,3,1.4c1.3-0.3,1-1.4,0.7-2.4c-0.5-1.5-0.9-3-1.4-4.4c-0.6-1.5-0.5-2.5,0.7-3.8
		c2.8-3.2,1-7.9-3.2-8.6c-1.2-0.2-2.5-0.1-3.8-0.2c-1.8-0.1-2.4,0.6-2.4,2.4c0.1,5,0.1,9.9,0,14.9c0,1.5,0.4,2.4,2.1,2.4
		c1.6,0,2-0.9,1.9-2.3C58.7,80.7,58.7,78.6,58.7,76.6z M78.9,83.3c-1.2-5.5-2.4-11-3.6-16.5c-0.3-1.3-1.1-1.4-2.2-1.4
		c-1.2,0-1.8,0.5-2,1.7c-1.1,5.3-2.3,10.6-3.5,15.9c-0.4,1.6,0.4,2,1.9,2.1c1.8,0,2-1.2,2.1-2.5c0.1-1,0.4-1.6,1.6-1.7
		c1.3-0.1,1.4,0.8,1.6,1.6c0.1,0.6,0.2,1.2,0.4,1.7c0.5,1.1,1.6,0.9,2.6,0.8C78.8,84.9,79.1,84.2,78.9,83.3z"/>
	<path fill="#204958" d="M19.8,83.9c1.8,1.9,4,2.4,6.6,2.4c32.5-0.1,65.1-0.1,97.6,0c2.6,0,4.8-0.5,6.6-2.4c0,3,0.1,6,0.1,9
		c0,2.8-1.5,4-4.1,4.3c-0.7,0.1-1.4,0-2,0c-32.9,0-65.7,0-98.6,0c-5.2,0-6.2-0.9-6.2-6C19.7,88.8,19.8,86.4,19.8,83.9z"/>
	<path fill="#F6F5F7" d="M88.8,78c0.7-4.1,1.5-7.3,1.9-10.6c0.3-2.4,1.8-2,3.3-2.1c1.8,0,1.6,1.2,1.6,2.4c0,5,0,10.1,0,15.1
		c0,1,0.2,2-1.3,2.1c-1.6,0.1-1.6-1-1.6-2.1c0-3.1,0-6.2-0.4-9.4c-0.5,2.7-0.9,5.5-1.4,8.2c-0.3,1.3,0.3,3.2-1.9,3.3
		c-2.5,0.1-1.8-2.1-2.1-3.4c-0.6-2.4-0.9-4.9-1.8-7.2c0,2.9,0,5.8,0,8.7c0,1.1-0.1,1.9-1.5,2c-1.4,0-1.5-0.9-1.5-2
		c0-5.2,0-10.5,0-15.7c0-1.3,0.4-2.1,1.8-1.9c1.2,0.1,2.8-0.7,3.1,1.5C87.5,70.3,88.1,73.8,88.8,78z"/>
	<path fill="#F4F3F5" d="M58.7,76.6c0,2,0,4.1,0,6.1c0,1.4-0.4,2.2-1.9,2.3c-1.7,0.1-2.1-0.9-2.1-2.4c0.1-5,0.1-9.9,0-14.9
		c0-1.8,0.6-2.5,2.4-2.4c1.3,0.1,2.5,0,3.8,0.2c4.2,0.8,6.1,5.4,3.2,8.6c-1.2,1.4-1.3,2.3-0.7,3.8c0.6,1.4,0.9,3,1.4,4.4
		c0.4,1,0.7,2-0.7,2.4c-1.3,0.3-2.6,0.4-3-1.4c-0.6-2.3-1.2-4.6-1.8-6.9C59.1,76.6,58.9,76.6,58.7,76.6z M58.6,71
		c0.4,0.8-0.7,2.5,1.2,2.4c1.4-0.1,1.4-1.4,1.4-2.5c0-1.2,0-2.7-1.6-2.5C58,68.5,59,70.1,58.6,71z"/>
	<path fill="#F3F2F5" d="M78.9,83.3c0.2,0.9-0.1,1.6-1.1,1.7c-0.9,0.1-2,0.3-2.6-0.8c-0.2-0.5-0.3-1.1-0.4-1.7
		c-0.2-0.9-0.3-1.7-1.6-1.6c-1.2,0.1-1.5,0.7-1.6,1.7c-0.1,1.3-0.3,2.5-2.1,2.5c-1.4,0-2.3-0.4-1.9-2.1c1.2-5.3,2.3-10.6,3.5-15.9
		c0.2-1.1,0.8-1.7,2-1.7c1.1,0,1.9,0.1,2.2,1.4C76.5,72.3,77.7,77.8,78.9,83.3z M73.1,72.9c-0.2,1.5-0.5,2.7-0.7,3.9
		c-0.1,0.7-0.2,1.4,0.8,1.4c0.8,0,0.9-0.6,0.8-1.2C73.9,75.8,74.1,74.4,73.1,72.9z"/>
	<path fill="#386179" d="M58.6,71c0.4-0.9-0.7-2.5,1-2.6c1.6-0.1,1.6,1.3,1.6,2.5c0,1.1,0,2.4-1.4,2.5C57.9,73.4,59,71.8,58.6,71z"
		/>
	<path fill="#466C82" d="M73.1,72.9c1,1.5,0.8,2.9,1,4.1c0.1,0.6,0,1.2-0.8,1.2c-1,0-0.9-0.7-0.8-1.4C72.6,75.6,72.8,74.4,73.1,72.9
		z"/>
</g>
<g>
</g>
<g>
</g>
<g>
</g>
<g>
</g>
<g>
</g>
<g>
</g>
<g>
</g>
<g>
</g>
<g>
</g>
<g>
</g>
<g>
</g>
<g>
</g>
<g>
</g>
<g>
</g>
<g>
</g>
</svg>
