<svg xmlns="http://www.w3.org/2000/svg" xmlns:xlink="http://www.w3.org/1999/xlink" viewBox="0 0 150.312 119.473"><defs><linearGradient id="linear-gradient" x1="19.646" y1="116.887" x2="150.312" y2="116.887" gradientUnits="userSpaceOnUse"><stop offset="0" stop-color="#53d8ff"/><stop offset="1" stop-color="#3840f7"/></linearGradient><linearGradient id="linear-gradient-2" x1="10988.591" y1="2408.204" x2="11005.974" y2="2408.204" gradientTransform="translate(-11183.726 1197.748) rotate(-17.969)" gradientUnits="userSpaceOnUse"><stop offset="0" stop-color="#cb236d"/><stop offset="1" stop-color="#4c246d"/></linearGradient><linearGradient id="linear-gradient-3" x1="-6849.156" y1="973.474" x2="-6831.915" y2="973.474" gradientTransform="matrix(-0.988, 0.157, 0.157, 0.988, -6885.556, 207.193)" gradientUnits="userSpaceOnUse"><stop offset="0" stop-color="#b37cff"/><stop offset="0.772" stop-color="#e88fec"/><stop offset="1" stop-color="#f895e7"/></linearGradient><linearGradient id="linear-gradient-4" x1="10978.102" y1="2414.958" x2="11001.32" y2="2414.958" gradientTransform="translate(-11183.726 1197.748) rotate(-17.969)" gradientUnits="userSpaceOnUse"><stop offset="0" stop-color="#fdf53f"/><stop offset="1" stop-color="#d93c65"/></linearGradient><linearGradient id="linear-gradient-5" x1="-6844.598" y1="981.027" x2="-6819.972" y2="981.027" xlink:href="#linear-gradient-3"/><linearGradient id="linear-gradient-6" x1="27.392" y1="115.753" x2="35.409" y2="92.786" xlink:href="#linear-gradient"/><linearGradient id="linear-gradient-7" x1="16.128" y1="54.905" x2="44.236" y2="78.937" xlink:href="#linear-gradient"/><linearGradient id="linear-gradient-8" x1="40.296" y1="97.727" x2="36.858" y2="108.155" xlink:href="#linear-gradient"/><linearGradient id="linear-gradient-9" x1="40.296" y1="95.351" x2="36.858" y2="105.779" xlink:href="#linear-gradient"/><linearGradient id="linear-gradient-10" x1="40.296" y1="92.975" x2="36.858" y2="103.403" xlink:href="#linear-gradient"/><linearGradient id="linear-gradient-11" x1="45.261" y1="37.794" x2="38.967" y2="54.345" xlink:href="#linear-gradient"/><linearGradient id="linear-gradient-12" x1="44.486" y1="37.455" x2="38.192" y2="54.006" xlink:href="#linear-gradient"/><linearGradient id="linear-gradient-13" x1="49.707" y1="52.201" x2="31.282" y2="126.835" xlink:href="#linear-gradient"/><linearGradient id="linear-gradient-14" x1="40.409" y1="83.126" x2="35.526" y2="97.938" xlink:href="#linear-gradient"/><linearGradient id="linear-gradient-15" x1="26.647" y1="72.971" x2="26.251" y2="91.346" xlink:href="#linear-gradient"/><linearGradient id="linear-gradient-16" x1="31.245" y1="73.072" x2="30.849" y2="91.446" xlink:href="#linear-gradient"/><linearGradient id="linear-gradient-17" x1="35.843" y1="73.172" x2="35.447" y2="91.547" xlink:href="#linear-gradient"/><linearGradient id="linear-gradient-18" x1="47.069" y1="73.42" x2="46.674" y2="91.768" xlink:href="#linear-gradient"/><linearGradient id="linear-gradient-19" x1="40.409" y1="65.128" x2="35.526" y2="79.939" xlink:href="#linear-gradient"/><linearGradient id="linear-gradient-20" x1="26.647" y1="54.973" x2="26.251" y2="73.347" xlink:href="#linear-gradient"/><linearGradient id="linear-gradient-21" x1="31.245" y1="55.073" x2="30.849" y2="73.448" xlink:href="#linear-gradient"/><linearGradient id="linear-gradient-22" x1="35.843" y1="55.174" x2="35.447" y2="73.549" xlink:href="#linear-gradient"/><linearGradient id="linear-gradient-23" x1="47.986" y1="52.999" x2="43.574" y2="66.588" xlink:href="#linear-gradient"/><linearGradient id="linear-gradient-24" x1="118.114" y1="115.753" x2="126.13" y2="92.786" xlink:href="#linear-gradient"/><linearGradient id="linear-gradient-25" x1="106.85" y1="54.905" x2="134.958" y2="78.937" xlink:href="#linear-gradient"/><linearGradient id="linear-gradient-26" x1="131.017" y1="97.727" x2="127.579" y2="108.155" xlink:href="#linear-gradient"/><linearGradient id="linear-gradient-27" x1="131.017" y1="95.351" x2="127.579" y2="105.779" xlink:href="#linear-gradient"/><linearGradient id="linear-gradient-28" x1="131.017" y1="92.975" x2="127.579" y2="103.403" xlink:href="#linear-gradient"/><linearGradient id="linear-gradient-29" x1="135.982" y1="37.794" x2="129.688" y2="54.345" xlink:href="#linear-gradient"/><linearGradient id="linear-gradient-30" x1="135.208" y1="37.455" x2="128.914" y2="54.006" xlink:href="#linear-gradient"/><linearGradient id="linear-gradient-31" x1="140.429" y1="52.201" x2="122.004" y2="126.835" xlink:href="#linear-gradient"/><linearGradient id="linear-gradient-32" x1="131.131" y1="83.126" x2="126.248" y2="97.938" xlink:href="#linear-gradient"/><linearGradient id="linear-gradient-33" x1="117.368" y1="72.971" x2="116.972" y2="91.346" xlink:href="#linear-gradient"/><linearGradient id="linear-gradient-34" x1="121.966" y1="73.072" x2="121.57" y2="91.446" xlink:href="#linear-gradient"/><linearGradient id="linear-gradient-35" x1="126.564" y1="73.172" x2="126.168" y2="91.547" xlink:href="#linear-gradient"/><linearGradient id="linear-gradient-36" x1="137.791" y1="73.42" x2="137.396" y2="91.768" xlink:href="#linear-gradient"/><linearGradient id="linear-gradient-37" x1="131.131" y1="65.128" x2="126.248" y2="79.939" xlink:href="#linear-gradient"/><linearGradient id="linear-gradient-38" x1="117.368" y1="54.973" x2="116.972" y2="73.347" xlink:href="#linear-gradient"/><linearGradient id="linear-gradient-39" x1="121.966" y1="55.073" x2="121.57" y2="73.448" xlink:href="#linear-gradient"/><linearGradient id="linear-gradient-40" x1="126.564" y1="55.174" x2="126.168" y2="73.549" xlink:href="#linear-gradient"/><linearGradient id="linear-gradient-41" x1="138.708" y1="52.999" x2="134.296" y2="66.588" xlink:href="#linear-gradient"/><linearGradient id="linear-gradient-42" x1="70.89" y1="114.362" x2="80.607" y2="86.525" xlink:href="#linear-gradient"/><linearGradient id="linear-gradient-43" x1="102.079" y1="17.602" x2="70.197" y2="112.17" xlink:href="#linear-gradient"/><linearGradient id="linear-gradient-44" x1="86.53" y1="92.513" x2="82.363" y2="105.153" xlink:href="#linear-gradient"/><linearGradient id="linear-gradient-45" x1="86.53" y1="89.634" x2="82.363" y2="102.273" xlink:href="#linear-gradient"/><linearGradient id="linear-gradient-46" x1="86.53" y1="86.754" x2="82.363" y2="99.393" xlink:href="#linear-gradient"/><linearGradient id="linear-gradient-47" x1="92.547" y1="19.872" x2="84.919" y2="39.933" xlink:href="#linear-gradient"/><linearGradient id="linear-gradient-48" x1="91.609" y1="19.461" x2="83.98" y2="39.521" xlink:href="#linear-gradient"/><linearGradient id="linear-gradient-49" x1="97.937" y1="37.334" x2="75.605" y2="127.794" gradientUnits="userSpaceOnUse"><stop offset="0" stop-color="#a737d5"/><stop offset="1" stop-color="#ef497a"/></linearGradient><linearGradient id="linear-gradient-50" x1="86.668" y1="74.814" x2="80.737" y2="92.804" xlink:href="#linear-gradient"/><linearGradient id="linear-gradient-51" x1="69.986" y1="62.509" x2="69.506" y2="84.779" gradientTransform="matrix(1, 0, 0, 1, 0, 0)" xlink:href="#linear-gradient-4"/><linearGradient id="linear-gradient-52" x1="75.559" y1="62.631" x2="75.079" y2="84.901" xlink:href="#linear-gradient"/><linearGradient id="linear-gradient-53" x1="81.132" y1="62.753" x2="80.652" y2="85.023" gradientTransform="matrix(1, 0, 0, 1, 0, 0)" xlink:href="#linear-gradient-4"/><linearGradient id="linear-gradient-54" x1="94.74" y1="63.052" x2="94.26" y2="85.291" xlink:href="#linear-gradient"/><linearGradient id="linear-gradient-55" x1="86.668" y1="52.999" x2="80.737" y2="70.989" xlink:href="#linear-gradient"/><linearGradient id="linear-gradient-56" x1="69.986" y1="40.694" x2="69.506" y2="62.965" xlink:href="#linear-gradient"/><linearGradient id="linear-gradient-57" x1="75.559" y1="40.816" x2="75.079" y2="63.087" xlink:href="#linear-gradient"/><linearGradient id="linear-gradient-58" x1="81.132" y1="40.938" x2="80.652" y2="63.209" gradientTransform="matrix(1, 0, 0, 1, 0, 0)" xlink:href="#linear-gradient-4"/><linearGradient id="linear-gradient-59" x1="95.851" y1="38.301" x2="90.503" y2="54.772" xlink:href="#linear-gradient"/><linearGradient id="linear-gradient-60" x1="-1909.251" y1="116.778" x2="-1903.556" y2="102.115" gradientTransform="matrix(-1, 0, 0, 1, -1770.965, 0)" gradientUnits="userSpaceOnUse"><stop offset="0" stop-color="#f9b776"/><stop offset="1" stop-color="#f47960"/></linearGradient><linearGradient id="linear-gradient-61" x1="-1909.372" y1="163.989" x2="-1890.529" y2="-56.241" xlink:href="#linear-gradient-60"/><linearGradient id="linear-gradient-62" x1="-1908.632" y1="94.433" x2="-1906.253" y2="94.433" xlink:href="#linear-gradient-60"/><linearGradient id="linear-gradient-63" x1="-1426.962" y1="112.755" x2="-1429.063" y2="116.312" gradientTransform="translate(1562.718)" xlink:href="#linear-gradient"/><linearGradient id="linear-gradient-64" x1="-2795.691" y1="-97.9" x2="-2797.803" y2="-94.325" gradientTransform="matrix(0.922, -0.388, 0.388, 0.922, 2752.47, -882.327)" xlink:href="#linear-gradient"/><linearGradient id="linear-gradient-65" x1="-1902.164" y1="94.321" x2="-1907.642" y2="107.135" gradientTransform="matrix(-1, 0, 0, 1, -1770.965, 0)" gradientUnits="userSpaceOnUse"><stop offset="0" stop-color="#2b3582"/><stop offset="1" stop-color="#150e42"/></linearGradient><linearGradient id="linear-gradient-66" x1="-1906.034" y1="88.17" x2="-1904.345" y2="88.17" xlink:href="#linear-gradient-60"/><linearGradient id="linear-gradient-67" x1="-1902.968" y1="90.044" x2="-1912.018" y2="101.655" gradientTransform="matrix(-1, 0, 0, 1, -1770.965, 0)" xlink:href="#linear-gradient-4"/><linearGradient id="linear-gradient-68" x1="-1896.126" y1="89.198" x2="-1910.756" y2="97.579" xlink:href="#linear-gradient-60"/><linearGradient id="linear-gradient-69" x1="-1894.659" y1="91.739" x2="-1909.334" y2="100.146" xlink:href="#linear-gradient-60"/><linearGradient id="linear-gradient-70" x1="-1903.204" y1="88.161" x2="-1906.526" y2="83.305" xlink:href="#linear-gradient-60"/><linearGradient id="linear-gradient-71" x1="137.678" y1="88.066" x2="137.458" y2="98.721" gradientTransform="matrix(1, 0, 0, 1, 0, 0)" xlink:href="#linear-gradient-2"/><linearGradient id="linear-gradient-72" x1="-2145.965" y1="64.028" x2="-2140.711" y2="80.108" gradientTransform="matrix(-1, 0, 0, 1, -2115.679, 0)" xlink:href="#linear-gradient-2"/><linearGradient id="linear-gradient-73" x1="-7585.734" y1="58.278" x2="-7582.039" y2="66.688" gradientTransform="matrix(-1, 0, 0, 1, -7547.752, 0)" xlink:href="#linear-gradient-60"/><linearGradient id="linear-gradient-74" x1="-7574.43" y1="87.568" x2="-7572.756" y2="87.568" gradientTransform="matrix(-1, 0, 0, 1, -7547.752, 0)" xlink:href="#linear-gradient-49"/><linearGradient id="linear-gradient-75" x1="-7581.519" y1="94.271" x2="-7579.072" y2="65.673" gradientTransform="matrix(-1, 0, 0, 1, -7547.752, 0)" xlink:href="#linear-gradient-60"/><linearGradient id="linear-gradient-76" x1="-7582.208" y1="87.257" x2="-7579.499" y2="87.257" gradientTransform="matrix(-1, 0, 0, 1, -7547.752, 0)" xlink:href="#linear-gradient-49"/><linearGradient id="linear-gradient-77" x1="-7576.674" y1="94.705" x2="-7574.225" y2="66.082" gradientTransform="matrix(-1, 0, 0, 1, -7547.752, 0)" xlink:href="#linear-gradient-60"/><linearGradient id="linear-gradient-78" x1="-7582.221" y1="62.283" x2="-7573.784" y2="91.579" gradientTransform="matrix(-1, 0, 0, 1, -7547.752, 0)" xlink:href="#linear-gradient-4"/><linearGradient id="linear-gradient-79" x1="-7583.388" y1="62.639" x2="-7574.965" y2="91.886" gradientTransform="matrix(-1, 0, 0, 1, -7547.752, 0)" xlink:href="#linear-gradient-65"/><linearGradient id="linear-gradient-80" x1="-7581.777" y1="66.084" x2="-7581.317" y2="62.72" gradientTransform="matrix(-1, 0, 0, 1, -7547.752, 0)" xlink:href="#linear-gradient-60"/><linearGradient id="linear-gradient-81" x1="-7586.686" y1="57.983" x2="-7584.134" y2="63.79" gradientTransform="matrix(-1, 0, 0, 1, -7547.752, 0)" xlink:href="#linear-gradient-60"/><linearGradient id="linear-gradient-82" x1="7833.91" y1="7330.088" x2="7839.691" y2="7330.088" gradientTransform="matrix(0.447, 0.895, 0.895, -0.447, -10024.309, -3669.448)" xlink:href="#linear-gradient-60"/><linearGradient id="linear-gradient-83" x1="3851.663" y1="262.405" x2="3876.244" y2="262.405" gradientTransform="translate(1391.417 -3573.811) rotate(106.356)" xlink:href="#linear-gradient-4"/><linearGradient id="linear-gradient-84" x1="3838.769" y1="251.793" x2="3851.396" y2="251.793" gradientTransform="translate(1391.417 -3573.811) rotate(106.356)" xlink:href="#linear-gradient-4"/><linearGradient id="linear-gradient-85" x1="-2150.543" y1="62.259" x2="-2146.54" y2="55.136" gradientTransform="matrix(-1, 0, 0, 1, -2115.679, 0)" xlink:href="#linear-gradient-60"/><linearGradient id="linear-gradient-86" x1="-2146.816" y1="64.307" x2="-2141.565" y2="80.376" gradientTransform="matrix(-1, 0, 0, 1, -2115.679, 0)" xlink:href="#linear-gradient-2"/><linearGradient id="linear-gradient-87" x1="-2149.704" y1="62.741" x2="-2145.701" y2="55.616" gradientTransform="matrix(-1, 0, 0, 1, -2115.679, 0)" xlink:href="#linear-gradient-60"/><linearGradient id="linear-gradient-88" x1="106.002" y1="90.341" x2="116.624" y2="75.654" gradientUnits="userSpaceOnUse"><stop offset="0" stop-color="#b37cff"/><stop offset="1" stop-color="#f895e7"/></linearGradient><linearGradient id="linear-gradient-89" x1="4652.353" y1="73.411" x2="4643.499" y2="116.365" gradientTransform="translate(-4542.42)" xlink:href="#linear-gradient-65"/><linearGradient id="linear-gradient-90" x1="12172.454" y1="95.369" x2="12135.624" y2="137.304" gradientTransform="translate(-12131.689)" xlink:href="#linear-gradient-65"/><linearGradient id="linear-gradient-91" x1="12169.062" y1="92.307" x2="12132.232" y2="134.242" gradientTransform="translate(-12131.689)" xlink:href="#linear-gradient-65"/><linearGradient id="linear-gradient-92" x1="12144.629" y1="102.947" x2="12156.553" y2="102.947" gradientTransform="translate(-12131.689)" gradientUnits="userSpaceOnUse"><stop offset="0" stop-color="#9cfffb"/><stop offset="1" stop-color="#9bfffa"/></linearGradient><linearGradient id="linear-gradient-93" x1="12151.717" y1="102.947" x2="12163.641" y2="102.947" xlink:href="#linear-gradient-92"/><linearGradient id="linear-gradient-94" x1="12155.395" y1="89.167" x2="12166.539" y2="89.167" xlink:href="#linear-gradient-92"/><linearGradient id="linear-gradient-95" x1="12154.349" y1="93.43" x2="12161.907" y2="93.43" xlink:href="#linear-gradient-92"/><linearGradient id="linear-gradient-96" x1="12152.392" y1="98.616" x2="12159.501" y2="98.616" xlink:href="#linear-gradient-92"/><linearGradient id="linear-gradient-97" x1="12150.281" y1="103.801" x2="12157.39" y2="103.801" xlink:href="#linear-gradient-92"/><linearGradient id="linear-gradient-98" x1="12147.842" y1="108.987" x2="12155.399" y2="108.987" xlink:href="#linear-gradient-92"/><linearGradient id="linear-gradient-99" x1="12145.701" y1="114.172" x2="12153.258" y2="114.172" xlink:href="#linear-gradient-92"/><linearGradient id="linear-gradient-100" x1="504.682" y1="42.888" x2="507.469" y2="45.799" gradientTransform="translate(-379.339)" xlink:href="#linear-gradient-65"/><linearGradient id="linear-gradient-101" x1="500.416" y1="39.973" x2="503.332" y2="28.993" gradientTransform="translate(-379.339)" xlink:href="#linear-gradient-2"/><linearGradient id="linear-gradient-102" x1="508.349" y1="50.261" x2="513.6" y2="54.115" gradientTransform="translate(-379.339)" xlink:href="#linear-gradient-65"/><linearGradient id="linear-gradient-103" x1="510.88" y1="48.129" x2="499.824" y2="39.097" gradientTransform="translate(-379.339)" gradientUnits="userSpaceOnUse"><stop offset="0" stop-color="#fdf53f"/><stop offset="0.665" stop-color="#e57a58"/><stop offset="1" stop-color="#d93c65"/></linearGradient><linearGradient id="linear-gradient-104" x1="513.853" y1="54.683" x2="502.812" y2="45.665" xlink:href="#linear-gradient-103"/><linearGradient id="linear-gradient-105" x1="508.413" y1="42.902" x2="497.497" y2="47.02" gradientTransform="translate(-379.339)" xlink:href="#linear-gradient-2"/><linearGradient id="linear-gradient-106" x1="499.95" y1="35.814" x2="496.328" y2="40.12" gradientTransform="translate(-379.339)" xlink:href="#linear-gradient-60"/><linearGradient id="linear-gradient-107" x1="489.888" y1="27.903" x2="495.66" y2="48.153" xlink:href="#linear-gradient-103"/><linearGradient id="linear-gradient-108" x1="495.759" y1="39.733" x2="502.851" y2="30.03" gradientTransform="translate(-379.339)" xlink:href="#linear-gradient-60"/><linearGradient id="linear-gradient-109" x1="491.418" y1="31.569" x2="491.684" y2="29.178" gradientTransform="translate(-379.339)" xlink:href="#linear-gradient-60"/><linearGradient id="linear-gradient-110" x1="492.82" y1="29.483" x2="491.651" y2="25.628" gradientTransform="translate(-379.339)" xlink:href="#linear-gradient-60"/><linearGradient id="linear-gradient-111" x1="491.764" y1="22.397" x2="492.852" y2="28.608" gradientTransform="translate(-379.339)" xlink:href="#linear-gradient-65"/><linearGradient id="linear-gradient-112" x1="491.629" y1="29.849" x2="490.46" y2="25.994" gradientTransform="translate(-379.339)" xlink:href="#linear-gradient-60"/><linearGradient id="linear-gradient-113" x1="501.039" y1="37.512" x2="506.44" y2="37.512" gradientTransform="translate(-379.339)" xlink:href="#linear-gradient-65"/><linearGradient id="linear-gradient-114" x1="505.58" y1="35.193" x2="502.261" y2="38.561" gradientTransform="translate(-379.339)" xlink:href="#linear-gradient-4"/><linearGradient id="linear-gradient-115" x1="501.694" y1="39.923" x2="497.376" y2="41.107" gradientTransform="translate(-379.339)" xlink:href="#linear-gradient-65"/><linearGradient id="linear-gradient-116" x1="4664.851" y1="84.048" x2="4633.126" y2="139.828" gradientTransform="translate(-4542.42)" xlink:href="#linear-gradient-49"/><linearGradient id="linear-gradient-117" x1="4655.458" y1="92.396" x2="4650.375" y2="117.052" gradientTransform="translate(-4542.42)" xlink:href="#linear-gradient-65"/><linearGradient id="linear-gradient-118" x1="144.72" y1="16.666" x2="117.793" y2="35.548" xlink:href="#linear-gradient"/><linearGradient id="linear-gradient-119" x1="149.55" y1="23.552" x2="122.588" y2="42.459" xlink:href="#linear-gradient"/><linearGradient id="linear-gradient-120" x1="145.612" y1="17.981" x2="118.68" y2="36.866" xlink:href="#linear-gradient"/><linearGradient id="linear-gradient-121" x1="149.727" y1="23.84" x2="122.765" y2="42.747" xlink:href="#linear-gradient"/><linearGradient id="linear-gradient-122" x1="29.357" y1="23.499" x2="53.646" y2="23.499" xlink:href="#linear-gradient-88"/><linearGradient id="linear-gradient-123" x1="822.862" y1="98.553" x2="826.237" y2="98.553" gradientTransform="translate(-767.769)" xlink:href="#linear-gradient-60"/><linearGradient id="linear-gradient-124" x1="826.255" y1="116.188" x2="828.785" y2="116.188" gradientTransform="translate(-767.769)" xlink:href="#linear-gradient-65"/><linearGradient id="linear-gradient-125" x1="832.593" y1="113.216" x2="823.382" y2="120.449" gradientTransform="translate(-767.769)" xlink:href="#linear-gradient"/><linearGradient id="linear-gradient-126" x1="826.962" y1="113.263" x2="826.471" y2="117.546" gradientTransform="translate(-767.769)" xlink:href="#linear-gradient-60"/><linearGradient id="linear-gradient-127" x1="834.226" y1="115.299" x2="825.015" y2="122.532" gradientTransform="translate(-767.769)" xlink:href="#linear-gradient"/><linearGradient id="linear-gradient-128" x1="830.108" y1="116.257" x2="833.75" y2="116.257" gradientTransform="translate(-767.769)" xlink:href="#linear-gradient-65"/><linearGradient id="linear-gradient-129" x1="830.898" y1="113.721" x2="830.407" y2="118.003" gradientTransform="translate(-767.769)" xlink:href="#linear-gradient-60"/><linearGradient id="linear-gradient-130" x1="836.752" y1="94.147" x2="821.079" y2="118.467" gradientTransform="translate(-767.769)" xlink:href="#linear-gradient-65"/><linearGradient id="linear-gradient-131" x1="59.39" y1="89.34" x2="56.869" y2="114.023" gradientTransform="matrix(1, 0, 0, 1, 0, 0)" xlink:href="#linear-gradient-4"/><linearGradient id="linear-gradient-132" x1="828.032" y1="85.873" x2="826.161" y2="93.958" gradientTransform="translate(-767.769)" xlink:href="#linear-gradient-60"/><linearGradient id="linear-gradient-133" x1="-1513.788" y1="-576.602" x2="-1517.113" y2="-572.203" gradientTransform="translate(1517.323 -622.684) rotate(-46.73)" xlink:href="#linear-gradient-60"/><linearGradient id="linear-gradient-134" x1="-1516.307" y1="-575.544" x2="-1512.359" y2="-575.544" gradientTransform="translate(1517.323 -622.684) rotate(-46.73)" xlink:href="#linear-gradient-65"/><linearGradient id="linear-gradient-135" x1="-1518.646" y1="-573.105" x2="-1515.979" y2="-575.841" gradientTransform="translate(1517.323 -622.684) rotate(-46.73)" xlink:href="#linear-gradient-60"/><linearGradient id="linear-gradient-136" x1="826.51" y1="87.395" x2="822.627" y2="94.528" gradientTransform="translate(-767.769)" xlink:href="#linear-gradient-4"/><linearGradient id="linear-gradient-137" x1="828.002" y1="100.639" x2="826.665" y2="103.02" gradientTransform="translate(-767.769)" xlink:href="#linear-gradient-65"/><linearGradient id="linear-gradient-138" x1="65.043" y1="89.882" x2="62.34" y2="116.349" gradientTransform="matrix(1, 0, 0, 1, 0, 0)" xlink:href="#linear-gradient-4"/><linearGradient id="linear-gradient-139" x1="74.787" y1="85.715" x2="63.396" y2="100.289" gradientTransform="matrix(1, 0, 0, 1, 0, 0)" xlink:href="#linear-gradient-60"/><linearGradient id="linear-gradient-140" x1="76.298" y1="86.892" x2="64.895" y2="101.48" gradientTransform="matrix(1, 0, 0, 1, 0, 0)" xlink:href="#linear-gradient-60"/><linearGradient id="linear-gradient-141" x1="-1531.972" y1="17.497" x2="-1570.464" y2="44.488" gradientTransform="matrix(-1, 0, 0, 1, -1511.711, 0)" xlink:href="#linear-gradient"/><linearGradient id="linear-gradient-142" x1="-1525.068" y1="27.341" x2="-1563.61" y2="54.367" gradientTransform="matrix(-1, 0, 0, 1, -1511.711, 0)" xlink:href="#linear-gradient"/><linearGradient id="linear-gradient-143" x1="-1530.697" y1="19.376" x2="-1569.196" y2="46.373" gradientTransform="matrix(-1, 0, 0, 1, -1511.711, 0)" xlink:href="#linear-gradient"/><linearGradient id="linear-gradient-144" x1="-1524.815" y1="27.752" x2="-1563.357" y2="54.779" gradientTransform="matrix(-1, 0, 0, 1, -1511.711, 0)" xlink:href="#linear-gradient"/><linearGradient id="linear-gradient-145" x1="106.562" y1="45.852" x2="111.366" y2="45.852" gradientTransform="translate(-39.99 39.663) rotate(-33.953)" xlink:href="#linear-gradient-88"/><linearGradient id="linear-gradient-146" x1="114.053" y1="45.958" x2="118.859" y2="45.958" gradientTransform="translate(213.965 -21.811) rotate(144.851)" xlink:href="#linear-gradient-88"/><linearGradient id="linear-gradient-147" x1="113.915" y1="35.685" x2="118.721" y2="35.685" gradientTransform="translate(213.965 -21.811) rotate(144.851)" xlink:href="#linear-gradient-88"/><linearGradient id="linear-gradient-148" x1="107.949" y1="30.471" x2="111.169" y2="30.471" gradientTransform="matrix(0.985, 0.171, -0.171, 0.985, 15.407, -40.763)" xlink:href="#linear-gradient-88"/><linearGradient id="linear-gradient-149" x1="110.458" y1="48.652" x2="113.693" y2="48.652" gradientTransform="translate(197.256 122.448) rotate(-144.821)" xlink:href="#linear-gradient-88"/><linearGradient id="linear-gradient-150" x1="85.686" y1="44.763" x2="88.22" y2="44.763" gradientTransform="matrix(-0.949, -0.316, 0.316, -0.949, 128.137, 92.15)" xlink:href="#linear-gradient-88"/><linearGradient id="linear-gradient-151" x1="39.886" y1="34.725" x2="44.69" y2="34.725" gradientTransform="translate(-39.99 39.663) rotate(-33.953)" xlink:href="#linear-gradient-88"/><linearGradient id="linear-gradient-152" x1="65.644" y1="57.687" x2="69.168" y2="57.687" gradientTransform="translate(69.988 5.065) rotate(94.671)" xlink:href="#linear-gradient-88"/><linearGradient id="linear-gradient-153" x1="70.394" y1="51.629" x2="73.917" y2="51.629" gradientTransform="translate(-44.789 160.317) rotate(-92.287)" xlink:href="#linear-gradient-88"/><linearGradient id="linear-gradient-154" x1="118.64" y1="71.287" x2="122.12" y2="71.287" gradientTransform="translate(-59.589 -81.82) rotate(26.852)" xlink:href="#linear-gradient-88"/></defs><g id="Layer_2" data-name="Layer 2"><g id="Layer_42" data-name="Layer 42"><ellipse cx="84.979" cy="116.887" rx="65.333" ry="2.586" fill="url(#linear-gradient)"/><g opacity="0.5"><path d="M5.52,89.466c-2.562-29.3,2.737-39.012,8.444-42.189,2.8-1.56,7.168-2.36,7.389-4.717.4-4.286-13.582-6.478-14.147-12.064-.254-2.515,2.134-6.462,15.346-12.371" fill="none" stroke="#b897f2" stroke-miterlimit="10" stroke-width="0.25" stroke-dasharray="2 2 2 2 2 2"/><path d="M23.934,17.517a7.567,7.567,0,0,0-1.443,1.974l-.107-1.26-.888-.9A7.546,7.546,0,0,0,23.934,17.517Z" fill="#b897f2"/></g><path d="M35.457,116.7S29.762,91.847,15.235,74.215A4.436,4.436,0,0,0,7.37,77.088C7.311,89.37,11.164,109.46,35.457,116.7Z" fill="url(#linear-gradient-2)"/><path d="M11.027,76.833c.432,1.868.993,3.689,1.6,5.5s1.281,3.594,2.014,5.355A85.621,85.621,0,0,0,19.7,97.944c.965,1.645,1.969,3.269,3.055,4.836.531.792,1.1,1.554,1.661,2.327.581.756,1.152,1.518,1.767,2.246a52.78,52.78,0,0,0,8.063,8.024.2.2,0,0,0,.285-.036.209.209,0,0,0-.02-.277l0,0a71.647,71.647,0,0,1-7.5-8.381c-.581-.737-1.115-1.51-1.676-2.262-.532-.773-1.081-1.534-1.588-2.325-.254-.395-.523-.78-.772-1.179l-.754-1.19c-.248-.4-.487-.8-.731-1.206S21,97.711,20.77,97.3c-.477-.81-.932-1.634-1.389-2.456s-.887-1.661-1.312-2.5c-.867-1.672-1.671-3.378-2.458-5.093s-1.52-3.455-2.219-5.211-1.368-3.529-1.973-5.316l0-.006a.2.2,0,0,0-.258-.128A.209.209,0,0,0,11.027,76.833Z" opacity="0.5" fill="url(#linear-gradient-3)"/><path d="M30.263,114.883S18.338,97.475,5.01,93.039A3.759,3.759,0,0,0,.7,98.631C4.434,104.72,12.689,113.107,30.263,114.883Z" fill="url(#linear-gradient-4)"/><path d="M1.969,95.708c1.023.945,2.071,1.85,3.132,2.743q.8.662,1.611,1.316c.544.429,1.083.865,1.631,1.288q3.287,2.547,6.74,4.859c1.143.782,2.32,1.51,3.484,2.258l1.777,1.074c.3.178.591.36.89.533l.9.509c2.391,1.394,4.873,2.618,7.37,3.8a.173.173,0,0,0,.231-.085.177.177,0,0,0-.081-.233l0,0-1.846-.926-.923-.463c-.305-.159-.606-.327-.909-.491l-1.818-.98c-.6-.337-1.2-.686-1.792-1.029l-.895-.516-.883-.537-1.766-1.075c-1.157-.749-2.327-1.478-3.463-2.261-1.149-.763-2.276-1.559-3.4-2.354l-1.673-1.219-1.655-1.244c-.552-.415-1.093-.844-1.64-1.266s-1.08-.859-1.618-1.292C4.3,97.245,3.232,96.362,2.2,95.446l0,0a.172.172,0,0,0-.246.017A.179.179,0,0,0,1.969,95.708Z" opacity="0.5" fill="url(#linear-gradient-5)"/><rect x="20.893" y="43.589" width="37.768" height="73.369" rx="15.228" fill="url(#linear-gradient-6)"/><path d="M58.66,105.257V46.209a2.6,2.6,0,0,0-2.579-2.62H23.472a2.6,2.6,0,0,0-2.579,2.62v59.048Z" fill="url(#linear-gradient-7)"/><rect x="25.231" y="98.01" width="29.589" height="1.069" rx="0.424" fill="url(#linear-gradient-8)"/><rect x="25.231" y="95.634" width="29.589" height="1.069" rx="0.424" fill="url(#linear-gradient-9)"/><rect x="25.231" y="93.258" width="29.589" height="1.069" rx="0.424" fill="url(#linear-gradient-10)"/><rect x="25.231" y="51.025" width="29.589" height="1.069" rx="0.424" fill="url(#linear-gradient-11)"/><rect x="25.231" y="48.649" width="29.589" height="1.069" rx="0.424" fill="url(#linear-gradient-12)"/><rect x="25.231" y="90.882" width="29.589" height="1.069" rx="0.424" fill="url(#linear-gradient-13)"/><rect x="25.231" y="80.903" width="29.589" height="6.772" rx="2.688" fill="url(#linear-gradient-14)"/><ellipse cx="26.615" cy="74.423" rx="1.384" ry="1.406" fill="url(#linear-gradient-15)"/><ellipse cx="31.215" cy="74.423" rx="1.384" ry="1.406" fill="url(#linear-gradient-16)"/><ellipse cx="35.816" cy="74.423" rx="1.384" ry="1.406" fill="url(#linear-gradient-17)"/><path d="M53.456,75.876H40.026l-.721-2.906H53.456a1.375,1.375,0,0,1,1.364,1.386v.134A1.375,1.375,0,0,1,53.456,75.876Z" fill="url(#linear-gradient-18)"/><rect x="25.231" y="62.904" width="29.589" height="6.772" rx="2.688" fill="url(#linear-gradient-19)"/><ellipse cx="26.615" cy="56.425" rx="1.384" ry="1.406" fill="url(#linear-gradient-20)"/><ellipse cx="31.215" cy="56.425" rx="1.384" ry="1.406" fill="url(#linear-gradient-21)"/><ellipse cx="35.816" cy="56.425" rx="1.384" ry="1.406" fill="url(#linear-gradient-22)"/><path d="M53.456,57.877H40.026l-.721-2.905H53.456a1.374,1.374,0,0,1,1.364,1.386v.133A1.374,1.374,0,0,1,53.456,57.877Z" fill="url(#linear-gradient-23)"/><rect x="111.614" y="43.589" width="37.768" height="73.369" rx="15.228" fill="url(#linear-gradient-24)"/><path d="M149.382,105.257V46.209a2.6,2.6,0,0,0-2.58-2.62H114.194a2.6,2.6,0,0,0-2.58,2.62v59.048Z" fill="url(#linear-gradient-25)"/><rect x="115.953" y="98.01" width="29.589" height="1.069" rx="0.424" fill="url(#linear-gradient-26)"/><rect x="115.953" y="95.634" width="29.589" height="1.069" rx="0.424" fill="url(#linear-gradient-27)"/><rect x="115.953" y="93.258" width="29.589" height="1.069" rx="0.424" fill="url(#linear-gradient-28)"/><rect x="115.953" y="51.025" width="29.589" height="1.069" rx="0.424" fill="url(#linear-gradient-29)"/><rect x="115.953" y="48.649" width="29.589" height="1.069" rx="0.424" fill="url(#linear-gradient-30)"/><rect x="115.953" y="90.882" width="29.589" height="1.069" rx="0.424" fill="url(#linear-gradient-31)"/><rect x="115.953" y="80.903" width="29.589" height="6.772" rx="2.688" fill="url(#linear-gradient-32)"/><ellipse cx="117.337" cy="74.423" rx="1.384" ry="1.406" fill="url(#linear-gradient-33)"/><ellipse cx="121.937" cy="74.423" rx="1.384" ry="1.406" fill="url(#linear-gradient-34)"/><ellipse cx="126.537" cy="74.423" rx="1.384" ry="1.406" fill="url(#linear-gradient-35)"/><path d="M144.178,75.876H130.747l-.721-2.906h14.152a1.376,1.376,0,0,1,1.364,1.386v.134A1.376,1.376,0,0,1,144.178,75.876Z" fill="url(#linear-gradient-36)"/><rect x="115.953" y="62.904" width="29.589" height="6.772" rx="2.688" fill="url(#linear-gradient-37)"/><ellipse cx="117.337" cy="56.425" rx="1.384" ry="1.406" fill="url(#linear-gradient-38)"/><ellipse cx="121.937" cy="56.425" rx="1.384" ry="1.406" fill="url(#linear-gradient-39)"/><ellipse cx="126.537" cy="56.425" rx="1.384" ry="1.406" fill="url(#linear-gradient-40)"/><path d="M144.178,57.877H130.747l-.721-2.905h14.152a1.375,1.375,0,0,1,1.364,1.386v.133A1.375,1.375,0,0,1,144.178,57.877Z" fill="url(#linear-gradient-41)"/><rect x="63.012" y="26.896" width="45.776" height="88.926" rx="18.457" fill="url(#linear-gradient-42)"/><path d="M108.788,101.641V30.072a3.152,3.152,0,0,0-3.126-3.176H66.139a3.152,3.152,0,0,0-3.127,3.176v71.569Z" fill="url(#linear-gradient-43)"/><rect x="68.271" y="92.857" width="35.863" height="1.296" rx="0.514" fill="url(#linear-gradient-44)"/><rect x="68.271" y="89.977" width="35.863" height="1.296" rx="0.514" fill="url(#linear-gradient-45)"/><rect x="68.271" y="87.098" width="35.863" height="1.296" rx="0.514" fill="url(#linear-gradient-46)"/><rect x="68.271" y="35.909" width="35.863" height="1.296" rx="0.514" fill="url(#linear-gradient-47)"/><rect x="68.271" y="33.029" width="35.863" height="1.296" rx="0.514" fill="url(#linear-gradient-48)"/><rect x="68.271" y="84.218" width="35.863" height="1.296" rx="0.514" fill="url(#linear-gradient-49)"/><rect x="68.271" y="72.122" width="35.863" height="8.208" rx="3.188" fill="url(#linear-gradient-50)"/><ellipse cx="69.948" cy="64.268" rx="1.677" ry="1.704" fill="url(#linear-gradient-51)"/><ellipse cx="75.524" cy="64.268" rx="1.677" ry="1.704" fill="url(#linear-gradient-52)"/><ellipse cx="81.099" cy="64.268" rx="1.677" ry="1.704" fill="url(#linear-gradient-53)"/><path d="M102.48,66.029H86.2l-.875-3.521H102.48a1.667,1.667,0,0,1,1.654,1.68v.161A1.667,1.667,0,0,1,102.48,66.029Z" fill="url(#linear-gradient-54)"/><rect x="68.271" y="50.307" width="35.863" height="8.208" rx="3.188" fill="url(#linear-gradient-55)"/><ellipse cx="69.948" cy="42.454" rx="1.677" ry="1.704" fill="url(#linear-gradient-56)"/><ellipse cx="75.524" cy="42.454" rx="1.677" ry="1.704" fill="url(#linear-gradient-57)"/><ellipse cx="81.099" cy="42.454" rx="1.677" ry="1.704" fill="url(#linear-gradient-58)"/><path d="M102.48,44.214H86.2l-.875-3.521H102.48a1.667,1.667,0,0,1,1.654,1.68v.161A1.667,1.667,0,0,1,102.48,44.214Z" fill="url(#linear-gradient-59)"/><path d="M133.8,103.4l1.988.5-.5,3.787a4.305,4.305,0,0,1,.994,1.766c.249,1.01.478,5.249.478,5.249l.471.29.058.242-1.373,1.874.228-1.492c.036-.236-.026-.717-.007-.727-.745-2.019-2.34-7.707-2.34-7.707Z" fill="url(#linear-gradient-60)"/><path d="M133.216,115.264c.022,0,.043,0,.065,0-.1-1.217-.535-6.575-.975-8.583-.5-2.272.746-6.815.746-6.815l2.236,2.272-1.242,4.291c.851,1.3-.139,8.894-.118,8.891v.017l.324.453-.039.245-1.981,1.187.779-1.285A1.459,1.459,0,0,0,133.216,115.264Z" fill="url(#linear-gradient-61)"/><path d="M135.732,89.791s4.354,6.137,0,9.284l-.444-.4a4.8,4.8,0,0,0,0-5.758Z" fill="url(#linear-gradient-62)"/><path d="M132.1,117.408h.632a.379.379,0,0,0,.3-.15c.2-.26.6-.767.8-.781.263-.018.229.931.229.931h.148l.186-1.179a.7.7,0,0,0-.36-.729h0a.988.988,0,0,1-.386.65c-.326.2-1.325.915-1.325.915a.879.879,0,0,0-.257.007A.17.17,0,0,0,132.1,117.408Z" fill="url(#linear-gradient-63)"/><path d="M135.867,117.335l.583-.249a.383.383,0,0,0,.221-.257c.082-.318.265-.946.44-1.035.235-.12.566.768.566.768l.136-.058-.278-1.161a.69.69,0,0,0-.611-.53h0a1,1,0,0,1-.107.752c-.224.312-.873,1.365-.873,1.365a.879.879,0,0,0-.234.107A.169.169,0,0,0,135.867,117.335Z" fill="url(#linear-gradient-64)"/><path d="M132.482,96.025a8.261,8.261,0,0,1-.034,1.7,49.1,49.1,0,0,0-.514,7,14.883,14.883,0,0,0,3.982.181s1.067-4.387.807-6.055a5.353,5.353,0,0,0-1.669-2.864Z" fill="url(#linear-gradient-65)"/><polygon points="133.557 87.667 133.38 89.791 135.069 89.791 134.649 86.549 133.557 87.667" fill="url(#linear-gradient-66)"/><path d="M135.57,89.5c-.584-.033-1.887-.093-2.811-.042a1.079,1.079,0,0,0-.993.866l-.225,1.1a2.681,2.681,0,0,0,.037,1.234l.9,3.374a3.379,3.379,0,0,0,2.572-.035s1.551-3.758.916-6.162A.441.441,0,0,0,135.57,89.5Z" fill="url(#linear-gradient-67)"/><path d="M131.81,90.124c-.249.666-.473,1.364-.715,2.018-.123.327-.247.648-.38.943-.068.147-.142.282-.21.4a1.764,1.764,0,0,1-.184.268c-.008.007.018.012.027.012s-.168.029-.222.038h-.208a7.034,7.034,0,0,1-.974-.136c-.683-.129-1.393-.311-2.122-.448h-.006a.258.258,0,0,0-.3.209.264.264,0,0,0,.083.243,7.572,7.572,0,0,0,.929.69c.163.1.329.2.5.3s.344.178.522.261a6.014,6.014,0,0,0,1.16.4c.113.019.224.04.34.055a3.549,3.549,0,0,0,.389.008c.076-.007.152-.017.227-.028a.928.928,0,0,0,.119-.022c.051-.015.1-.033.154-.052a1.594,1.594,0,0,0,.261-.135,2.442,2.442,0,0,0,.2-.15,2.732,2.732,0,0,0,.508-.6,4.825,4.825,0,0,0,.32-.576,8.027,8.027,0,0,0,.44-1.13,10.715,10.715,0,0,0,.46-2.29.676.676,0,0,0-1.307-.3Z" fill="url(#linear-gradient-68)"/><path d="M127.051,93.561l-.3-.727-1.587-.4s-.127.279.539.4a.6.6,0,0,0-.111.582C125.718,93.73,127.067,94.045,127.051,93.561Z" fill="url(#linear-gradient-69)"/><path d="M132.842,85.214a4,4,0,0,0-.137,2.453c.4.714,1.614-.086,1.944-1.118S134.449,84.251,132.842,85.214Z" fill="url(#linear-gradient-70)"/><path d="M135.994,86.549c.273,1.357,1.177.986,1.818,1.59,1.037.979,2.522-.03,3.965.9a3.346,3.346,0,0,1,1.044,3.767,3.518,3.518,0,0,1-4.286,2.121c-1.172-.558-1-2.228-2.582-2.874-.669-.274-1-.1-1.4-.5-.7-.711-.512-2.091-.439-2.623.158-1.154.539-1.363.357-1.87-.354-.986-2-.782-2.143-1.479-.125-.634,1.072-1.835,2.2-1.646C136.267,84.223,135.873,85.944,135.994,86.549Z" fill="url(#linear-gradient-71)"/><path d="M142.3,92.479a.046.046,0,0,0,.045-.036,2.7,2.7,0,0,0-.3-2.293,3.078,3.078,0,0,0-2.079-1.06.047.047,0,0,0-.049.043.046.046,0,0,0,.043.049,2.981,2.981,0,0,1,2.012,1.024,2.618,2.618,0,0,1,.285,2.216.046.046,0,0,0,.034.056Z" fill="#fff" opacity="0.6"/><path d="M137.834,93.34h0a.022.022,0,0,0,.017-.028,2.684,2.684,0,0,0-1.133-1.748,2.217,2.217,0,0,0-1.075-.268,1.194,1.194,0,0,1-.792-.228c-.446-.4-.42-1.369.076-2.874a.023.023,0,0,0-.014-.029.023.023,0,0,0-.029.015c-.5,1.523-.524,2.507-.064,2.922a1.22,1.22,0,0,0,.821.24,2.187,2.187,0,0,1,1.054.262,2.639,2.639,0,0,1,1.112,1.72A.023.023,0,0,0,137.834,93.34Z" fill="#fff" opacity="0.72"/><path d="M135.349,86.212l.007,0a.023.023,0,0,0,.015-.029c-.173-.522-.671-.444-1.2-.362a2.287,2.287,0,0,1-.972.018c-.218-.066-.348-.168-.385-.3a.637.637,0,0,1,.162-.49.023.023,0,1,0-.034-.031.671.671,0,0,0-.172.533c.042.152.182.264.416.335a2.313,2.313,0,0,0,.992-.016c.529-.083.987-.154,1.147.331A.024.024,0,0,0,135.349,86.212Z" fill="#fff" opacity="0.72"/><path d="M31.927,58.668s.149.3-.818.774c-.54.263-1.589.651-1.728,1.787a1.294,1.294,0,0,1-1.073,1.145c-1.432.223-3.638.978-3.991,3.5-.269,1.927.7,2.658,1.713,2.911a1.461,1.461,0,0,1,1.09,1.687c-.145.733.071,1.581,1.322,2.251,2.8,1.5,5.6-3.559,5.6-3.559l.574-8.837Z" fill="url(#linear-gradient-72)"/><path d="M39.651,55.621s-1.894,5.243-5.12,6.882c0,0,1.074,1.78,1.634,1.888,0,0,3.447-4.481,3.8-8.152Z" fill="url(#linear-gradient-73)"/><path d="M26.676,87.16l-.095.8a.325.325,0,0,1-.284.287,4.948,4.948,0,0,1-1.047.017.282.282,0,0,1-.233-.365,2.916,2.916,0,0,1,.525-1.039h.869A.27.27,0,0,1,26.676,87.16Z" fill="url(#linear-gradient-74)"/><path d="M33.477,77.845l.147.876s-.491,5.05-.578,7.07a1.605,1.605,0,0,0,.23.9L34.13,88.1l-2.169-1.3-.043-.269.355-.495-.465-5.658a1.756,1.756,0,0,1,.194-.96l.449-.856Z" fill="url(#linear-gradient-75)"/><path d="M34.273,88.3H33.58a.414.414,0,0,1-.33-.164c-.216-.285-.663-.841-.877-.855-.288-.02-.251,1.019-.251,1.019h-.161l-.2-1.291a.769.769,0,0,1,.4-.8h0a1.087,1.087,0,0,0,.423.713c.356.218,1.451,1,1.451,1a.988.988,0,0,1,.282.008A.186.186,0,0,1,34.273,88.3Z" fill="url(#linear-gradient-76)"/><path d="M30.506,78.261s-2.875,5.541-3.332,6.805a12.291,12.291,0,0,0-.623,2.421c-.01.156-.2.305-.728.305a.5.5,0,0,1-.47-.217.317.317,0,0,1-.012-.3c.166-.342.694-1.434.89-1.93.233-.592.735-3.273,1.01-4.2a4.963,4.963,0,0,1,1.786-2.876S29.85,77.442,30.506,78.261Z" fill="url(#linear-gradient-77)"/><path d="M32.323,69.183a5.363,5.363,0,0,0-1.137-5A8.519,8.519,0,0,1,34.531,62.5s2.061,1.531,1.817,2.729c-.143.7-1.449,4.206-1.449,4.206A2.826,2.826,0,0,1,32.323,69.183Z" fill="url(#linear-gradient-78)"/><path d="M30.678,70.764c.3-.924,1.645-1.581,1.645-1.581a2.826,2.826,0,0,0,2.576.255,5.324,5.324,0,0,1,.084,2.028c-.187.977-1.359,7.255-1.359,7.255a12.9,12.9,0,0,1-4.688-.382C30.112,76.217,30.377,71.687,30.678,70.764Z" fill="url(#linear-gradient-79)"/><path d="M33.184,60.393l-.6,2.752c-.058.242.159.2.4.156a1.6,1.6,0,0,0,1.074-.543.313.313,0,0,0,.031-.1l.259-1.908a.344.344,0,0,0-.2-.36l-.5-.225A.336.336,0,0,0,33.184,60.393Z" fill="url(#linear-gradient-80)"/><path d="M39.832,56.576c.029.093-.3.235-.5-.146a3.639,3.639,0,0,1-.009-1.116A1.824,1.824,0,0,1,40.5,54.47a2.638,2.638,0,0,1,.314.631.779.779,0,0,1-.075.565,6.66,6.66,0,0,1-.345.574A.745.745,0,0,1,39.832,56.576Z" fill="url(#linear-gradient-81)"/><path d="M30.852,65.035s5.516,6.842,9.637-.948a.982.982,0,0,0,.03-.487,4.7,4.7,0,0,1,.121-.923.144.144,0,0,0-.127-.173h0a.2.2,0,0,0-.172.075l-.753.974a.41.41,0,0,0,.213.484h0a.2.2,0,0,1,.074.3c-3.134,4.173-8.376-.406-8.472-.352C31.063,64.18,30.669,64.391,30.852,65.035Z" fill="url(#linear-gradient-82)"/><path d="M64.524,50.678a.139.139,0,0,1-.114-.061c-.1-.153-.211-.3-.319-.453a.142.142,0,0,1,.029-.2.137.137,0,0,1,.193.029c.11.15.219.3.324.461a.14.14,0,0,1-.113.22Z" fill="#eac4f9"/><path d="M51.061,75.813h0c-.382-.011-.768-.036-1.148-.076a.139.139,0,0,1-.124-.153.141.141,0,0,1,.152-.126c.373.039.753.064,1.127.075a.14.14,0,0,1,0,.28Zm1.851-.057a.14.14,0,0,1-.012-.28c.372-.034.749-.082,1.121-.144a.139.139,0,0,1,.159.116.141.141,0,0,1-.114.161c-.379.063-.763.112-1.142.146Zm2.939-.556a.139.139,0,0,1-.133-.1.142.142,0,0,1,.095-.174L55.9,74.9c.333-.1.667-.21.992-.33a.138.138,0,0,1,.177.084.141.141,0,0,1-.083.18c-.33.122-.669.235-1.008.335l-.086.025A.121.121,0,0,1,55.851,75.2Zm2.785-1.1a.137.137,0,0,1-.123-.077.142.142,0,0,1,.061-.189c.335-.171.668-.357.99-.553a.138.138,0,0,1,.19.049.142.142,0,0,1-.048.192c-.328.2-.667.389-1.008.563A.138.138,0,0,1,58.636,74.1Zm2.529-1.618a.135.135,0,0,1-.109-.054.141.141,0,0,1,.025-.2c.3-.234.59-.48.868-.734a.136.136,0,0,1,.2.011.141.141,0,0,1-.01.2c-.284.258-.581.509-.884.747A.135.135,0,0,1,61.165,72.478ZM63.346,70.4a.139.139,0,0,1-.091-.035.142.142,0,0,1-.013-.2c.249-.287.49-.585.717-.888a.137.137,0,0,1,.194-.027.142.142,0,0,1,.026.2c-.231.308-.477.612-.729.9A.138.138,0,0,1,63.346,70.4ZM65.1,67.948a.131.131,0,0,1-.07-.02.141.141,0,0,1-.048-.192c.191-.328.373-.668.54-1.009a.136.136,0,0,1,.185-.062.14.14,0,0,1,.062.188c-.17.347-.355.692-.55,1.026A.136.136,0,0,1,65.1,67.948ZM66.377,65.2a.135.135,0,0,1-.047-.009.14.14,0,0,1-.083-.179c.127-.36.243-.728.345-1.094a.137.137,0,0,1,.17-.1.142.142,0,0,1,.1.173c-.1.373-.221.747-.351,1.113A.138.138,0,0,1,66.377,65.2Zm.743-2.943H67.1a.141.141,0,0,1-.115-.161c.058-.376.1-.76.135-1.14a.138.138,0,1,1,.275.023c-.031.387-.078.778-.137,1.161A.139.139,0,0,1,67.12,62.258Zm.18-3.031a.14.14,0,0,1-.138-.136c-.013-.381-.04-.766-.081-1.145a.14.14,0,0,1,.123-.154.138.138,0,0,1,.152.124c.041.386.069.778.082,1.166a.14.14,0,0,1-.133.145Zm-.388-3.011a.139.139,0,0,1-.135-.109c-.069-.307-.148-.616-.235-.919-.018-.064-.037-.128-.056-.191a.141.141,0,0,1,.092-.175.137.137,0,0,1,.172.093c.02.065.039.129.057.194.089.309.169.623.24.935a.14.14,0,0,1-.1.168A.115.115,0,0,1,66.912,56.216Zm-.936-2.885a.136.136,0,0,1-.126-.084c-.151-.35-.316-.7-.49-1.035a.141.141,0,0,1,.057-.189.137.137,0,0,1,.187.059c.178.342.345.7.5,1.053a.141.141,0,0,1-.071.184A.123.123,0,0,1,65.976,53.331Z" fill="#eac4f9"/><path d="M48.085,75.435a.153.153,0,0,1-.03,0c-.18-.041-.362-.086-.541-.133a.141.141,0,0,1-.1-.171.137.137,0,0,1,.168-.1c.177.047.356.091.532.131a.14.14,0,0,1,.1.168A.138.138,0,0,1,48.085,75.435Z" fill="#eac4f9"/><path d="M38.083,68.211a.139.139,0,0,1-.118-.067c-.1-.16-.193-.323-.284-.487a.14.14,0,0,1,.052-.191.137.137,0,0,1,.188.052c.09.161.184.322.279.479a.142.142,0,0,1-.045.193A.134.134,0,0,1,38.083,68.211Z" fill="#eac4f9"/><path d="M36.992,66.069a.138.138,0,0,1-.127-.086c-.147-.351-.283-.712-.406-1.073a.142.142,0,0,1,.086-.178.137.137,0,0,1,.176.087c.12.355.254.71.4,1.054a.142.142,0,0,1-.073.185A.145.145,0,0,1,36.992,66.069Zm-.9-2.847a.14.14,0,0,1-.135-.11c-.081-.373-.15-.753-.2-1.131a.139.139,0,1,1,.274-.041c.054.371.122.745.2,1.111a.14.14,0,0,1-.105.168Zm-.364-2.965a.139.139,0,0,1-.138-.136c-.005-.164-.008-.328-.008-.491,0-.219.005-.442.014-.661a.137.137,0,0,1,.143-.134.14.14,0,0,1,.133.146c-.009.215-.013.433-.013.649,0,.16,0,.321.007.482a.141.141,0,0,1-.134.145Zm.187-2.985H35.9a.14.14,0,0,1-.115-.161c.059-.377.132-.757.217-1.129a.137.137,0,0,1,.166-.1.14.14,0,0,1,.1.168c-.084.365-.156.738-.214,1.109A.139.139,0,0,1,35.919,57.272Zm.73-2.895a.124.124,0,0,1-.046-.008.141.141,0,0,1-.084-.179c.127-.36.268-.72.42-1.068a.137.137,0,0,1,.182-.072.14.14,0,0,1,.07.185c-.148.342-.287.7-.412,1.049A.137.137,0,0,1,36.649,54.377Zm1.245-2.707a.133.133,0,0,1-.069-.019.142.142,0,0,1-.05-.192c.19-.33.394-.657.606-.971a.137.137,0,0,1,.192-.037.142.142,0,0,1,.036.2c-.208.309-.409.631-.595.954A.138.138,0,0,1,37.894,51.67Zm1.715-2.427a.135.135,0,0,1-.09-.034.142.142,0,0,1-.014-.2c.247-.288.507-.571.772-.841a.138.138,0,0,1,.2,0,.141.141,0,0,1,0,.2c-.262.265-.517.543-.759.826A.138.138,0,0,1,39.609,49.243Zm2.128-2.061a.14.14,0,0,1-.109-.054.142.142,0,0,1,.023-.2c.295-.237.6-.465.913-.679a.137.137,0,0,1,.192.037.143.143,0,0,1-.037.2c-.3.21-.607.435-.9.667A.131.131,0,0,1,41.737,47.182Zm2.469-1.623a.137.137,0,0,1-.123-.076.141.141,0,0,1,.059-.189c.333-.176.677-.343,1.022-.494a.136.136,0,0,1,.181.073.14.14,0,0,1-.071.184c-.339.149-.677.313-1,.486A.135.135,0,0,1,44.206,45.559Zm2.723-1.128a.139.139,0,0,1-.132-.1.141.141,0,0,1,.092-.175l.171-.052c.3-.09.614-.172.923-.244a.138.138,0,0,1,.165.106.14.14,0,0,1-.1.168c-.3.07-.608.151-.907.239l-.168.051A.139.139,0,0,1,46.929,44.431Zm6.939-.517-.021,0c-.366-.056-.738-.1-1.105-.128a.14.14,0,0,1,.021-.28c.375.03.753.074,1.125.131A.14.14,0,0,1,54,43.8.138.138,0,0,1,53.868,43.914Zm-4.057-.083a.141.141,0,0,1-.015-.28c.373-.042.753-.07,1.129-.085a.137.137,0,0,1,.143.135.14.14,0,0,1-.133.146c-.369.014-.742.042-1.109.083Z" fill="#eac4f9"/><path d="M56.19,44.456a.123.123,0,0,1-.042-.007c-.173-.054-.349-.107-.525-.155a.141.141,0,0,1-.1-.173.139.139,0,0,1,.17-.1c.178.049.358.1.534.158a.141.141,0,0,1,.091.176A.138.138,0,0,1,56.19,44.456Z" fill="#eac4f9"/><path d="M56.538,48.421a.187.187,0,0,0-.219.02l-1.757,1.518a9.908,9.908,0,0,0-3.222-.466L50.069,47.54a.186.186,0,0,0-.205-.08l-2.679.7a.19.19,0,0,0-.142.171l-.185,2.333a10.039,10.039,0,0,0-2.6,1.988L42,52.183a.188.188,0,0,0-.2.09l-1.407,2.42a.2.2,0,0,0,.018.223L41.9,56.7a10.354,10.354,0,0,0-.458,3.273l-1.923,1.291a.193.193,0,0,0-.079.208l.689,2.722a.19.19,0,0,0,.168.144l2.3.188a10.157,10.157,0,0,0,1.956,2.642l-.462,2.3a.194.194,0,0,0,.09.2l2.381,1.43a.189.189,0,0,0,.22-.02l1.756-1.518a9.914,9.914,0,0,0,3.223.466l1.27,1.953a.188.188,0,0,0,.2.081l2.68-.7a.19.19,0,0,0,.141-.171l.185-2.333a10.044,10.044,0,0,0,2.6-1.988l2.26.469a.188.188,0,0,0,.2-.09l1.407-2.42a.2.2,0,0,0-.019-.223L61.2,62.819a10.354,10.354,0,0,0,.459-3.273l1.923-1.291a.194.194,0,0,0,.079-.208l-.689-2.722a.192.192,0,0,0-.169-.144l-2.3-.188a10.183,10.183,0,0,0-1.957-2.642l.462-2.3a.2.2,0,0,0-.089-.2Z" fill="url(#linear-gradient-83)"/><path d="M51.555,62.465a2.661,2.661,0,0,1-2.344-1.41,2.732,2.732,0,0,1,1.064-3.671,2.612,2.612,0,0,1,2.028-.22,2.653,2.653,0,0,1,1.586,1.3,2.73,2.73,0,0,1-1.064,3.67A2.611,2.611,0,0,1,51.555,62.465Zm-.008-4.991a2.213,2.213,0,0,0-1.073.279h0a2.307,2.307,0,0,0-.9,3.1,2.235,2.235,0,0,0,3.052.913,2.306,2.306,0,0,0,.9-3.1,2.243,2.243,0,0,0-1.978-1.192Zm-1.172.1h0Z" fill="#fff"/><path d="M51.513,66.808a6.757,6.757,0,0,1-3.489-.975,6.935,6.935,0,0,1-3.165-4.278,7.1,7.1,0,0,1-.218-1.74,6.987,6.987,0,0,1,5.169-6.773h0a6.875,6.875,0,0,1,1.37-.213l.08,0,.016.421a6.4,6.4,0,0,0-1.363.2h0a6.588,6.588,0,0,0-4.653,8,6.519,6.519,0,0,0,2.974,4.02,6.341,6.341,0,0,0,4.9.707,6.44,6.44,0,0,0,3.958-3.022,6.62,6.62,0,0,0,.9-3.33,6.723,6.723,0,0,0-.207-1.648,6.583,6.583,0,0,0-1.715-3.036l.291-.3a7.006,7.006,0,0,1,1.825,3.23,7.144,7.144,0,0,1,.22,1.754,7.032,7.032,0,0,1-.96,3.544,6.869,6.869,0,0,1-5.937,3.438Z" fill="#fff"/><path d="M73.859,40.271a.138.138,0,0,1-.116-.064c-.1-.153-.2-.306-.308-.454a.142.142,0,0,1,.028-.2.137.137,0,0,1,.194.03c.112.153.219.311.319.469a.142.142,0,0,1-.042.194A.136.136,0,0,1,73.859,40.271Z" fill="#eac4f9"/><path d="M67.293,52.955a.141.141,0,0,1,0-.281,7.724,7.724,0,0,0,1.061-.109.14.14,0,0,1,.046.277,8.106,8.106,0,0,1-1.1.112Zm2.775-.6a.139.139,0,0,1-.129-.088.142.142,0,0,1,.077-.183,7.83,7.83,0,0,0,.96-.471.138.138,0,0,1,.189.053.142.142,0,0,1-.052.191,8.318,8.318,0,0,1-.994.488A.154.154,0,0,1,70.068,52.358Zm2.4-1.528a.133.133,0,0,1-.1-.046.141.141,0,0,1,.009-.2,8.141,8.141,0,0,0,.741-.779.136.136,0,0,1,.194-.017.142.142,0,0,1,.017.2,8.462,8.462,0,0,1-.766.806A.14.14,0,0,1,72.471,50.83Zm1.736-2.276a.138.138,0,0,1-.064-.016.143.143,0,0,1-.058-.19,8.288,8.288,0,0,0,.433-.99.138.138,0,0,1,.177-.084.141.141,0,0,1,.082.181,8.62,8.62,0,0,1-.447,1.024A.138.138,0,0,1,74.207,48.554Zm.864-2.744h-.019a.14.14,0,0,1-.119-.158A8.133,8.133,0,0,0,75,44.582a.145.145,0,0,1,.138-.147.134.134,0,0,1,.138.134v.013a8.34,8.34,0,0,1-.073,1.106A.138.138,0,0,1,75.071,45.81Zm-.124-2.878a.139.139,0,0,1-.135-.11c-.037-.17-.081-.342-.129-.51s-.109-.356-.171-.53a.141.141,0,0,1,.082-.18.137.137,0,0,1,.177.084c.065.179.125.363.177.547s.1.352.134.528a.14.14,0,0,1-.1.168Z" fill="#eac4f9"/><path d="M65.53,52.817a.115.115,0,0,1-.026,0c-.183-.035-.367-.077-.548-.125a.14.14,0,0,1-.1-.171.138.138,0,0,1,.169-.1c.175.046.353.087.529.121a.14.14,0,0,1-.025.278Z" fill="#eac4f9"/><path d="M60.129,49.051a.137.137,0,0,1-.118-.067c-.1-.162-.192-.329-.279-.5a.142.142,0,0,1,.058-.189.137.137,0,0,1,.187.059c.083.161.174.322.269.479a.142.142,0,0,1-.045.193A.139.139,0,0,1,60.129,49.051Z" fill="#eac4f9"/><path d="M59.216,46.927a.138.138,0,0,1-.133-.1,8.68,8.68,0,0,1-.223-1.079.14.14,0,0,1,.118-.158.138.138,0,0,1,.156.119,8.283,8.283,0,0,0,.215,1.043.14.14,0,0,1-.1.173A.157.157,0,0,1,59.216,46.927Zm-.277-2.82h-.01a.139.139,0,0,1-.127-.151,8.371,8.371,0,0,1,.152-1.091.137.137,0,0,1,.163-.109.14.14,0,0,1,.107.166,8.34,8.34,0,0,0-.147,1.055A.139.139,0,0,1,58.939,44.107Zm.684-2.747a.145.145,0,0,1-.056-.012.143.143,0,0,1-.07-.186A8.647,8.647,0,0,1,60,40.188a.136.136,0,0,1,.19-.046.141.141,0,0,1,.045.193,8.154,8.154,0,0,0-.489.942A.139.139,0,0,1,59.623,41.36Zm1.557-2.351a.137.137,0,0,1-.095-.039.141.141,0,0,1,0-.2,8.282,8.282,0,0,1,.8-.744.137.137,0,0,1,.194.022.143.143,0,0,1-.022.2,7.948,7.948,0,0,0-.774.718A.135.135,0,0,1,61.18,39.009Zm2.25-1.675a.137.137,0,0,1-.124-.078.142.142,0,0,1,.062-.188,8.179,8.179,0,0,1,1-.422.138.138,0,0,1,.175.088.142.142,0,0,1-.086.178,7.721,7.721,0,0,0-.969.408A.136.136,0,0,1,63.43,37.334Zm2.675-.8a.14.14,0,0,1-.016-.279,8.027,8.027,0,0,1,.941-.056h.143a.141.141,0,0,1,0,.281H67.03a7.9,7.9,0,0,0-.909.053Z" fill="#eac4f9"/><path d="M69.43,36.848a.152.152,0,0,1-.042-.006c-.172-.055-.348-.1-.523-.146a.141.141,0,0,1-.1-.169.139.139,0,0,1,.167-.1c.181.044.363.094.542.151a.14.14,0,0,1,.091.175A.138.138,0,0,1,69.43,36.848Z" fill="#eac4f9"/><path d="M69.609,38.817a.1.1,0,0,0-.113.01l-.9.78a5.075,5.075,0,0,0-1.656-.239l-.652-1a.1.1,0,0,0-.106-.041l-1.376.359a.1.1,0,0,0-.073.088l-.095,1.2A5.181,5.181,0,0,0,63.3,40.99l-1.161-.241a.1.1,0,0,0-.1.047l-.723,1.242a.1.1,0,0,0,.01.115l.767.916a5.346,5.346,0,0,0-.235,1.682l-.988.663a.1.1,0,0,0-.04.107l.354,1.4a.1.1,0,0,0,.086.074l1.18.1a5.253,5.253,0,0,0,1,1.358l-.237,1.179a.1.1,0,0,0,.046.105l1.223.734a.1.1,0,0,0,.113-.01l.9-.78a5.1,5.1,0,0,0,1.656.24l.652,1a.1.1,0,0,0,.106.041l1.376-.359a.1.1,0,0,0,.073-.088l.095-1.2a5.181,5.181,0,0,0,1.336-1.021l1.161.241a.1.1,0,0,0,.1-.046l.723-1.243a.1.1,0,0,0-.01-.115L72,46.213a5.318,5.318,0,0,0,.236-1.682l.988-.663a.1.1,0,0,0,.04-.107l-.354-1.4a.1.1,0,0,0-.086-.074l-1.18-.1a5.253,5.253,0,0,0-1-1.358l.237-1.179a.1.1,0,0,0-.046-.1Z" fill="url(#linear-gradient-84)"/><path d="M67.048,46.134a1.463,1.463,0,0,1-1.291-.779,1.5,1.5,0,0,1-.12-1.136,1.478,1.478,0,0,1,.706-.888,1.458,1.458,0,0,1,1.993.6,1.505,1.505,0,0,1-.586,2.024A1.437,1.437,0,0,1,67.048,46.134Zm0-2.564a1.039,1.039,0,0,0-.5.13,1.058,1.058,0,0,0-.507.638,1.082,1.082,0,0,0,.085.816,1.053,1.053,0,0,0,.629.515,1.031,1.031,0,0,0,.8-.087,1.082,1.082,0,0,0,.422-1.454A1.054,1.054,0,0,0,67.045,43.57Z" fill="#fff"/><path d="M67.034,48.363a3.652,3.652,0,0,1-3.522-2.774,3.763,3.763,0,0,1-.117-.927A3.718,3.718,0,0,1,63.9,42.79a3.619,3.619,0,0,1,2.224-1.7h0l.021-.005h.006l0,0h0a3.681,3.681,0,0,1,.735-.106l.017.421A3.208,3.208,0,0,0,64.259,43a3.294,3.294,0,0,0-.449,1.659,3.34,3.34,0,0,0,.1.821,3.22,3.22,0,0,0,3.923,2.354,3.27,3.27,0,0,0,2.42-3.17,3.37,3.37,0,0,0-.1-.815,3.287,3.287,0,0,0-.855-1.512l.292-.3a3.718,3.718,0,0,1-1.652,6.2A3.574,3.574,0,0,1,67.034,48.363Z" fill="#fff"/><path d="M33.58,58.291a2.7,2.7,0,0,1,1.2,1.357c.486,1.05.123,1.535-.333,1.6a2.117,2.117,0,0,1-1.861-.622C31.866,59.949,32.65,57.927,33.58,58.291Z" fill="url(#linear-gradient-85)"/><path d="M33.073,60.067s-.54-1.536.8-1.555l.316.224a.88.88,0,0,0-.316-1.258,1.454,1.454,0,0,0-2.1,1.034c-.344,1.106-.4,1.846.169,2.374s.808-.07.808-.07-.312-.5-.185-.76.419.055.419.055Z" fill="url(#linear-gradient-86)"/><path d="M32.923,60.238s-.273-.791-.637-.476.3.731.554.866Z" fill="url(#linear-gradient-87)"/><path d="M102.112,114.966c3.5.711,7.967-3.164,9.407-7.4,1.481-4.356-1.235-6.181-1.214-12.227.024-6.867,3.541-7.9,5.867-17.158.525-2.089,3.562-14.175-.2-16.44-3.48-2.095-13.256,3.917-14.97,11.61-1.221,5.487,2.556,7.79,1.113,14.18-1.266,5.606-4.592,5.687-5.867,11.1C94.694,105.215,97.518,114.033,102.112,114.966Z" fill="url(#linear-gradient-88)"/><path d="M102.366,116.63c-.943-7.4.9-18.814,2.607-27.087,1.851-8.957,3.952-16.263,3.973-16.336l.291.087c-.021.073-2.119,7.369-3.968,16.315-1.7,8.249-3.54,19.626-2.6,26.981Z" fill="url(#linear-gradient-89)"/><path d="M34.186,116.711a.227.227,0,0,1-.225-.228V89.237a.225.225,0,1,1,.449,0v27.246A.226.226,0,0,1,34.186,116.711Z" fill="url(#linear-gradient-90)"/><path d="M28.105,116.711a.227.227,0,0,1-.225-.228V89.237a.225.225,0,1,1,.449,0v27.246A.226.226,0,0,1,28.105,116.711Z" fill="url(#linear-gradient-91)"/><path d="M13.164,116.884a.222.222,0,0,1-.087-.018.23.23,0,0,1-.119-.3L24.433,89.148a.223.223,0,0,1,.294-.12.229.229,0,0,1,.119.3L13.371,116.745A.224.224,0,0,1,13.164,116.884Z" fill="url(#linear-gradient-92)"/><path d="M20.252,116.884a.222.222,0,0,1-.087-.018.23.23,0,0,1-.119-.3L31.521,89.148a.223.223,0,0,1,.294-.12.229.229,0,0,1,.119.3L20.459,116.745A.224.224,0,0,1,20.252,116.884Z" fill="url(#linear-gradient-93)"/><path d="M34.534,89.488H24.023a.318.318,0,0,1-.316-.321h0a.318.318,0,0,1,.316-.321H34.534a.318.318,0,0,1,.316.321h0A.318.318,0,0,1,34.534,89.488Z" fill="url(#linear-gradient-94)"/><path d="M29.994,93.658H22.885a.228.228,0,0,1,0-.456h7.109a.228.228,0,0,1,0,.456Z" fill="url(#linear-gradient-95)"/><rect x="20.704" y="98.388" width="7.109" height="0.456" fill="url(#linear-gradient-96)"/><rect x="18.592" y="103.573" width="7.109" height="0.456" fill="url(#linear-gradient-97)"/><path d="M23.487,109.215H16.378a.228.228,0,0,1,0-.456h7.109a.228.228,0,0,1,0,.456Z" fill="url(#linear-gradient-98)"/><path d="M21.346,114.4H14.237a.228.228,0,0,1,0-.455h7.109a.228.228,0,0,1,0,.455Z" fill="url(#linear-gradient-99)"/><path d="M124.574,41.374s-.763.041-.856,1.635A9.016,9.016,0,0,0,127.875,45c.18.028-.25-1.244-.315-1.416C127.252,42.766,126.283,42.238,124.574,41.374Z" fill="url(#linear-gradient-100)"/><path d="M115.983,39.5h1.61s4.94-5.542,8.181-6.1c0,0,2.255,2.924-.12,8.389a.78.78,0,0,1-1.125.376.651.651,0,0,1-.257-.311l.191-4.666s-4.214,3.744-4.946,4.467S115.061,41.935,115.983,39.5Z" fill="url(#linear-gradient-101)"/><path d="M131.545,51.136a6.008,6.008,0,0,0-3.3-1.467L127.72,50a5.762,5.762,0,0,0,.946,1.031,6.542,6.542,0,0,0,2.148.877C131.513,52,131.616,51.569,131.545,51.136Z" fill="url(#linear-gradient-102)"/><path d="M127.56,43.587c-.416.136-.6.734-1.653.339a9.274,9.274,0,0,1-2.168-1.161c-.009.077-.016.158-.021.244a9.008,9.008,0,0,0,4.254,2.185.241.241,0,0,0,.257-.326A6.142,6.142,0,0,0,127.56,43.587Z" fill="url(#linear-gradient-103)"/><path d="M132.053,51.649a5.5,5.5,0,0,0-.508-.513c.071.433-.032.862-.731.767a6.542,6.542,0,0,1-2.148-.877,4.6,4.6,0,0,0,3.127,1.219A.361.361,0,0,0,132.053,51.649Z" fill="url(#linear-gradient-104)"/><path d="M116.042,40.682l7.538.083a16.166,16.166,0,0,1,5.086,9.134s.129.406-.649.476a15.067,15.067,0,0,1-4.3-4.78c-2.081-3.743-6.2-2.058-6.2-2.058-1.981.444-3.557.279-4.711-1.524Z" fill="url(#linear-gradient-105)"/><path d="M116.22,34.514a8.448,8.448,0,0,0,4.788,5.765l1.414-.169.334.541-3.318.107a9.124,9.124,0,0,1-4.338-4.25C115.05,36.406,114.223,34.67,116.22,34.514Z" fill="url(#linear-gradient-106)"/><path d="M116.655,40.615a22.335,22.335,0,0,1-1.121-5.024,10.761,10.761,0,0,1,1.1-.844.311.311,0,0,0,.119-.4,23.883,23.883,0,0,0-2.326-3.252c-.764-.194-3.9-1.707-6.1,1.359-.947,1.315.188,5.365,4.483,9.56A4.161,4.161,0,0,0,116.655,40.615Z" fill="url(#linear-gradient-107)"/><path d="M113.1,36.149s2.563,3.084,5.841,3.535c0,0,.847-.785,1.477-.5a5.734,5.734,0,0,1,1.494,1.517H117.7s-3.979-.143-5.968-2.594A3.159,3.159,0,0,1,113.1,36.149Z" fill="url(#linear-gradient-108)"/><path d="M111.6,28.931l-.561,1.9a.209.209,0,0,0,.08.232,2.062,2.062,0,0,0,1.944.2.309.309,0,0,0,.2-.266l.133-1.656Z" fill="url(#linear-gradient-109)"/><path d="M114.889,27.392s-.276,1.97-1.021,2.576-2.2.15-2.687-1.336l.977-2.539Z" fill="url(#linear-gradient-110)"/><path d="M112.048,27.736a.1.1,0,0,0,.125-.078,2.576,2.576,0,0,1,.23-.787s-.071-.258.643.132,1.786.964,2.418.623c.616-.333,1.239-2.009-.388-1.7a.1.1,0,0,1-.114-.1,1.008,1.008,0,0,0-.639-1.112.9.9,0,0,0-1.048.244.094.094,0,0,1-.149,0,1.1,1.1,0,0,0-1.366-.418c-.583.261-.674.626-.664.853a.1.1,0,0,1-.137.093.571.571,0,0,0-.741.223c-.38.484.163.9.326,1.014a.1.1,0,0,1,.044.081,3.363,3.363,0,0,0,.582,1.969.1.1,0,0,0,.161-.028l.417-1.01a.1.1,0,0,1,.119-.055Z" fill="url(#linear-gradient-111)"/><path d="M112.057,27.941s-.255-1.054-.642-.712.1,1.1.544,1.24Z" fill="url(#linear-gradient-112)"/><path d="M121.7,40.935l1.889-6.4a.648.648,0,0,1,.574-.466l2.551-.177a.367.367,0,0,1,.366.489l-2.112,6.113a.532.532,0,0,1-.447.357l-2.512.283Z" fill="url(#linear-gradient-113)"/><path d="M125.185,36.7c-.141.289-.385.459-.544.379s-.175-.38-.034-.669.385-.459.544-.379S125.326,36.414,125.185,36.7Z" fill="url(#linear-gradient-114)"/><path d="M122.009,41.133H122l-5.353-.275a.244.244,0,0,1,.024-.487l5.354.275a.244.244,0,0,1-.012.487Z" fill="url(#linear-gradient-115)"/><path d="M115.534,35.661h0a.069.069,0,0,1-.069-.07,11.689,11.689,0,0,0-.431-2.652.07.07,0,0,1,.047-.087.069.069,0,0,1,.085.048,11.773,11.773,0,0,1,.437,2.691A.069.069,0,0,1,115.534,35.661Z" fill="#e78456"/><path d="M113.1,36.22a.072.072,0,0,1-.055-.027,13.512,13.512,0,0,1-1.589-2.57.071.071,0,0,1,.039-.091.068.068,0,0,1,.09.039,13.61,13.61,0,0,0,1.569,2.535.071.071,0,0,1-.012.1A.061.061,0,0,1,113.1,36.22Z" fill="#e78456"/><path d="M111.461,38.538l-.051-.023a6.767,6.767,0,0,1-2.764-2.824.07.07,0,0,1,.03-.094.068.068,0,0,1,.093.03,6.682,6.682,0,0,0,2.644,2.737l.162-.233a.068.068,0,0,1,.1-.017.071.071,0,0,1,.017.1Z" fill="#e78456"/><path d="M104.842,115c-3.967-2.1-5.325-9.31-3.07-11.653,1.524-1.584,3.709.082,5.817-1.56,2.692-2.095.712-6.042,2.828-11.161,1.8-4.356,6.12-8.478,8.644-7.632,2.643.885,4.034,7.454,1.778,11.407-1.468,2.571-3.714,2.7-4.2,5.089-.566,2.774,2.166,4.039,2.181,6.729C118.846,111.052,110.091,117.779,104.842,115Z" fill="url(#linear-gradient-116)"/><path d="M106.983,116.848a.156.156,0,0,1-.07-.016.165.165,0,0,1-.075-.22c5.259-11.009,6.8-23.78,6.817-23.908a.162.162,0,0,1,.179-.144.163.163,0,0,1,.141.183c-.015.128-1.563,12.954-6.846,24.012A.162.162,0,0,1,106.983,116.848Z" fill="url(#linear-gradient-117)"/><path d="M117.774,96.011a.077.077,0,0,1-.048-.016.08.08,0,0,1-.013-.11c1.66-2.165,3.5-5.417,2.838-8.617a5.636,5.636,0,0,0-1.516-2.91.079.079,0,0,1-.008-.111.077.077,0,0,1,.109-.008,5.693,5.693,0,0,1,1.566,3c.372,1.8.177,4.777-2.867,8.746A.077.077,0,0,1,117.774,96.011Z" fill="#f0f0f0"/><path d="M104.485,114.04a.077.077,0,0,1-.064-.034c-2.551-3.782-3.422-6.7-2.586-8.686a3.741,3.741,0,0,1,2.637-2.093.078.078,0,0,1,.089.065.079.079,0,0,1-.064.09,3.582,3.582,0,0,0-2.521,2c-.812,1.929.054,4.8,2.572,8.534a.079.079,0,0,1-.02.109A.069.069,0,0,1,104.485,114.04Z" fill="#f0f0f0"/><g opacity="0.54"><path d="M138.77,26.256l-18.122-.1a.967.967,0,0,0-.821,1.464l.091.154a.947.947,0,0,0,.815.469h18.032a.959.959,0,0,0,.951-.966v-.052A.959.959,0,0,0,138.77,26.256Z" fill="url(#linear-gradient-118)"/><path d="M141.3,27.244v.03a.959.959,0,0,0,.951.966h4.023a.953.953,0,0,0,.919-.717h0a.964.964,0,0,0-.912-1.216l-4.023-.03A.959.959,0,0,0,141.3,27.244Z" fill="url(#linear-gradient-119)"/></g><g opacity="0.54"><path d="M134.411,29.725l-13.763-.1a.967.967,0,0,0-.821,1.464l.091.154a.947.947,0,0,0,.815.469h13.673a.959.959,0,0,0,.951-.967v-.051A.959.959,0,0,0,134.411,29.725Z" fill="url(#linear-gradient-120)"/><path d="M136.942,30.712v.03a.959.959,0,0,0,.952.967h4.023a.953.953,0,0,0,.919-.717h0a.964.964,0,0,0-.912-1.216l-4.023-.03A.959.959,0,0,0,136.942,30.712Z" fill="url(#linear-gradient-121)"/></g><path d="M46.114,20.7a2.9,2.9,0,0,0-3.26-1.333c-1.314.391-2.057,1.885-3.28,2.483-2.133,1.043-5.084-1.017-6.7,1.67-1.982,3.288-3.513.822-3.513,3.053s13.692.587,20.448.7c.977.017,5.214-.067,3.39-2.478a3.251,3.251,0,0,0-2.128-1.05c-.983-.228-3.319-.354-4.03-1.263-.383-.49-.531-1.193-.877-1.717C46.145,20.743,46.13,20.72,46.114,20.7Z" opacity="0.5" fill="url(#linear-gradient-122)"/><path d="M41.077,66.774l-.034.418v0a.071.071,0,1,1-.142-.012h0l.038-.421a.07.07,0,0,1,.076-.063.069.069,0,0,1,.062.075Z" fill="#fff"/><path d="M41.006,68.169l0,.419v0a.079.079,0,1,1-.157,0h0l0-.423a.076.076,0,1,1,.152,0Z" fill="#fff"/><path d="M41.055,69.564l.037.417v0a.085.085,0,1,1-.17.015h0l-.033-.421a.083.083,0,1,1,.166-.015Z" fill="#fff"/><path d="M41.218,70.95l.071.413v0a.094.094,0,0,1-.075.109.092.092,0,0,1-.107-.077h0l-.067-.417a.093.093,0,0,1,.075-.106.09.09,0,0,1,.1.075Z" fill="#fff"/><path d="M41.491,72.318l.1.405v0a.1.1,0,0,1-.071.123.1.1,0,0,1-.121-.072h0l-.1-.411a.1.1,0,0,1,.071-.12.1.1,0,0,1,.118.072Z" fill="#fff"/><path d="M41.87,73.659l.133.395v0a.108.108,0,0,1-.067.137.105.105,0,0,1-.135-.067h0l-.131-.4a.106.106,0,0,1,.066-.134.1.1,0,0,1,.132.066Z" fill="#fff"/><path d="M42.349,74.966l.162.385v0a.116.116,0,0,1-.059.152.114.114,0,0,1-.15-.061h0l-.161-.391a.113.113,0,0,1,.06-.148.111.111,0,0,1,.146.059Z" fill="#fff"/><path d="M42.924,76.233l.19.37v0a.124.124,0,0,1-.051.166.12.12,0,0,1-.163-.053h0l-.189-.377a.124.124,0,0,1,.052-.163.118.118,0,0,1,.159.052Z" fill="#fff"/><path d="M43.59,77.451l.216.356,0,0a.131.131,0,0,1-.041.179.128.128,0,0,1-.177-.042h0l-.217-.362a.129.129,0,0,1,.043-.176.124.124,0,0,1,.172.042Z" fill="#fff"/><path d="M44.342,78.616l.243.338v0a.138.138,0,0,1-.029.191.134.134,0,0,1-.189-.03h0l-.242-.345a.137.137,0,0,1,.031-.189.132.132,0,0,1,.185.031Z" fill="#fff"/><path d="M45.178,79.72l.267.319,0,0a.146.146,0,0,1-.017.2.141.141,0,0,1-.2-.017h0l-.267-.326a.143.143,0,0,1,.018-.2.138.138,0,0,1,.2.017Z" fill="#fff"/><path d="M46.093,80.757l.29.3,0,0a.154.154,0,0,1,0,.215.148.148,0,0,1-.211,0h0l-.291-.306a.15.15,0,0,1,0-.211.146.146,0,0,1,.207,0Z" fill="#fff"/><path d="M47.083,81.719l.311.273,0,0a.16.16,0,0,1,.016.224.153.153,0,0,1-.22.016h0l-.313-.28a.16.16,0,0,1-.014-.222.154.154,0,0,1,.217-.015Z" fill="#fff"/><path d="M48.144,82.6l.33.247,0,0a.169.169,0,0,1,.035.232.163.163,0,0,1-.229.036h0l-.335-.255a.166.166,0,0,1-.032-.229.159.159,0,0,1,.224-.034Z" fill="#fff"/><path d="M49.269,83.388l.349.219,0,0a.172.172,0,0,1,.055.236.167.167,0,0,1-.232.055h0l-.355-.225a.173.173,0,0,1-.053-.235.166.166,0,0,1,.23-.054Z" fill="#fff"/><path d="M50.453,84.082l.365.187,0,0a.177.177,0,0,1,.076.236.17.17,0,0,1-.231.077h0l-.373-.194a.175.175,0,0,1-.074-.234.17.17,0,0,1,.23-.077Z" fill="#fff"/><path d="M51.689,84.669l.381.154,0,0a.18.18,0,0,1,.1.233.176.176,0,0,1-.23.1h0L51.554,85a.179.179,0,0,1-.1-.232.175.175,0,0,1,.228-.1Z" fill="#fff"/><path d="M52.972,85.147l.392.123h0a.184.184,0,0,1,.12.229.182.182,0,0,1-.226.122h0l-.4-.128a.183.183,0,0,1-.118-.228.178.178,0,0,1,.224-.119Z" fill="#fff"/><path d="M54.289,85.52l.4.092h0a.188.188,0,0,1,.14.224.184.184,0,0,1-.221.141h0l-.408-.1a.186.186,0,0,1-.137-.223.184.184,0,0,1,.219-.14Z" fill="#fff"/><path d="M55.63,85.79l.406.061h0a.192.192,0,0,1,.159.218.188.188,0,0,1-.214.161h0l-.414-.065a.189.189,0,0,1-.156-.217.187.187,0,0,1,.212-.159Z" fill="#fff"/><path d="M56.988,85.959l.409.031h0a.2.2,0,0,1,.177.21.192.192,0,0,1-.206.18h0l-.417-.034a.195.195,0,0,1,.03-.388Z" fill="#fff"/><path d="M58.354,86.03l.41,0h0a.2.2,0,0,1,0,.4h0l-.418-.006a.2.2,0,0,1,0-.4Z" fill="#fff"/><path d="M59.722,86.01l.41-.024h0a.2.2,0,0,1,.022.407h0l-.417.021a.2.2,0,0,1-.022-.4Z" fill="#fff"/><path d="M61.087,85.9l.408-.048h0a.208.208,0,0,1,.047.413h0l-.415.047a.206.206,0,0,1-.047-.41Z" fill="#fff"/><path d="M62.443,85.711l.405-.073h0a.212.212,0,0,1,.072.417h0l-.412.071a.207.207,0,0,1-.239-.172.211.211,0,0,1,.168-.243Z" fill="#fff"/><path d="M63.788,85.442l.4-.095h0a.213.213,0,0,1,.255.161.217.217,0,0,1-.159.26h0l-.407.094a.211.211,0,0,1-.253-.162.215.215,0,0,1,.158-.256Z" fill="#fff"/><path d="M65.115,85.1l.4-.116h0a.215.215,0,0,1,.268.15.221.221,0,0,1-.148.272h0l-.4.116a.214.214,0,0,1-.266-.15.219.219,0,0,1,.147-.27Z" fill="#fff"/><path d="M66.425,84.688l.389-.136h0a.22.22,0,0,1,.28.139.224.224,0,0,1-.136.284h0l-.4.136a.218.218,0,0,1-.278-.139.223.223,0,0,1,.136-.282Z" fill="#fff"/><path d="M67.713,84.211l.381-.155,0,0a.224.224,0,0,1,.292.127.23.23,0,0,1-.125.3h0l-.388.156a.222.222,0,0,1-.29-.128.229.229,0,0,1,.124-.294Z" fill="#fff"/><path d="M68.976,83.671l.374-.174h0a.228.228,0,0,1,.3.114.234.234,0,0,1-.113.308h0l-.381.174a.226.226,0,0,1-.3-.116.232.232,0,0,1,.113-.3Z" fill="#fff"/><path d="M70.213,83.071l.366-.192h0a.23.23,0,0,1,.313.1.238.238,0,0,1-.1.318h0l-.373.193a.23.23,0,0,1-.311-.1.236.236,0,0,1,.1-.315Z" fill="#fff"/><path d="M71.422,82.414l.357-.207h0a.232.232,0,0,1,.319.088.241.241,0,0,1-.087.325h0l-.362.209a.232.232,0,0,1-.319-.089.241.241,0,0,1,.088-.324Z" fill="#fff"/><path d="M72.6,81.707l.349-.222h0a.233.233,0,0,1,.324.076.242.242,0,0,1-.075.33h0l-.354.223a.234.234,0,0,1-.324-.076.242.242,0,0,1,.076-.329Z" fill="#fff"/><path d="M73.759,80.954l.342-.235h0a.235.235,0,0,1,.329.065.244.244,0,0,1-.064.334h0l-.346.236a.233.233,0,0,1-.327-.065.241.241,0,0,1,.064-.333Z" fill="#fff"/><path d="M74.888,80.159l.334-.246h0a.235.235,0,0,1,.332.054.243.243,0,0,1-.053.337h0l-.338.248a.235.235,0,0,1-.332-.054.244.244,0,0,1,.054-.337Z" fill="#fff"/><path d="M75.991,79.327l.327-.256v0a.238.238,0,0,1,.336.044.245.245,0,0,1-.043.341h0l-.33.258a.235.235,0,0,1-.335-.044.245.245,0,0,1,.043-.34Z" fill="#fff"/><path d="M77.07,78.461l.319-.266h0a.239.239,0,0,1,.339.034.248.248,0,0,1-.033.344h0l-.322.268a.238.238,0,0,1-.338-.034.247.247,0,0,1,.034-.344Z" fill="#fff"/><path d="M78.125,77.565l.312-.274h0a.239.239,0,0,1,.341.025.249.249,0,0,1-.025.347h0l-.316.276a.237.237,0,0,1-.34-.026.248.248,0,0,1,.025-.346Z" fill="#fff"/><path d="M79.159,76.643l.306-.281h0a.241.241,0,0,1,.344.017.251.251,0,0,1-.017.349h0l-.309.283a.24.24,0,0,1-.343-.018.248.248,0,0,1,.018-.348Z" fill="#fff"/><path d="M80.173,75.7l.3-.287h0a.242.242,0,0,1,.346.011.251.251,0,0,1-.01.351h0l-.3.289a.242.242,0,0,1-.346-.011.252.252,0,0,1,.011-.351Z" fill="#fff"/><path d="M81.169,74.732l.3-.293h0a.244.244,0,0,1,.348,0,.253.253,0,0,1,0,.353h0l-.3.295a.243.243,0,0,1-.347,0,.251.251,0,0,1,0-.353Z" fill="#fff"/><path d="M82.15,73.749l.292-.3h0a.245.245,0,0,1,.35,0,.254.254,0,0,1,0,.355h0l-.294.3a.244.244,0,0,1-.349,0,.254.254,0,0,1,0-.354Z" fill="#fff"/><path d="M83.119,72.752l.288-.3h0a.245.245,0,0,1,.351-.005.254.254,0,0,1,0,.357h0l-.29.3a.245.245,0,0,1-.351,0,.255.255,0,0,1-.005-.356Z" fill="#fff"/><path d="M84.076,71.743l.286-.3a.247.247,0,0,1,.353-.009.258.258,0,0,1,.01.359h0l-.287.306a.248.248,0,0,1-.353.008A.257.257,0,0,1,84.076,71.743Z" fill="#fff"/><path d="M85.025,70.725l.283-.307a.249.249,0,0,1,.355-.012.258.258,0,0,1,.012.361h0l-.285.308a.247.247,0,0,1-.354.01A.257.257,0,0,1,85.025,70.725Z" fill="#fff"/><path d="M85.968,69.7l.282-.308a.25.25,0,0,1,.357-.014.26.26,0,0,1,.013.363h0l-.283.308a.249.249,0,0,1-.357.013A.26.26,0,0,1,85.968,69.7Z" fill="#fff"/><path d="M86.907,68.671l.282-.309a.251.251,0,0,1,.359-.014.26.26,0,0,1,.014.364h0l-.282.308a.25.25,0,0,1-.358.014A.26.26,0,0,1,86.907,68.671Z" fill="#fff"/><path d="M87.846,67.641l.282-.309a.253.253,0,0,1,.361-.014.263.263,0,0,1,.013.367h0l-.282.308a.252.252,0,0,1-.36.014A.262.262,0,0,1,87.846,67.641Z" fill="#fff"/><path d="M88.787,66.612l.283-.308a.255.255,0,0,1,.363-.012.263.263,0,0,1,.012.368h0l-.284.307a.253.253,0,0,1-.361.012A.263.263,0,0,1,88.787,66.612Z" fill="#fff"/><path d="M89.733,65.587l.285-.306a.255.255,0,0,1,.364-.011.265.265,0,0,1,.011.371h0l-.285.3a.255.255,0,0,1-.364.011A.265.265,0,0,1,89.733,65.587Z" fill="#fff"/><path d="M90.686,64.569l.288-.305a.256.256,0,0,1,.366-.007.266.266,0,0,1,.008.372h0l-.288.3h0a.255.255,0,0,1-.366.007A.265.265,0,0,1,90.686,64.569Z" fill="#fff"/><path d="M91.649,63.558l.292-.3a.258.258,0,0,1,.368,0,.268.268,0,0,1,0,.374h0l-.291.3h0a.258.258,0,0,1-.368,0A.268.268,0,0,1,91.649,63.558Z" fill="#fff"/><path d="M92.625,62.56l.3-.3a.258.258,0,0,1,.37,0,.269.269,0,0,1,0,.376h0l-.294.295h0a.258.258,0,0,1-.369,0A.267.267,0,0,1,92.625,62.56Z" fill="#fff"/><path d="M93.615,61.575l.3-.292a.261.261,0,0,1,.372.008.272.272,0,0,1-.008.378h0l-.3.29h0a.259.259,0,0,1-.371-.009A.27.27,0,0,1,93.615,61.575Z" fill="#fff"/><path d="M94.624,60.609l.307-.286a.258.258,0,0,1,.37.016.269.269,0,0,1-.015.376h0l-.3.284h0a.26.26,0,0,1-.371-.015.27.27,0,0,1,.016-.377Z" fill="#fff"/><path d="M95.653,59.663l.313-.279a.257.257,0,0,1,.368.024.269.269,0,0,1-.023.375h0l-.31.278h0a.26.26,0,0,1-.37-.024.269.269,0,0,1,.024-.375Z" fill="#fff"/><path d="M96.7,58.741l.319-.271a.258.258,0,0,1,.367.033.268.268,0,0,1-.033.373h0l-.316.269h0a.258.258,0,0,1-.367-.033.267.267,0,0,1,.032-.373Z" fill="#fff"/><path d="M97.776,57.847l.326-.262a.256.256,0,0,1,.364.043.266.266,0,0,1-.042.37h0l-.323.26h0a.256.256,0,0,1-.364-.042.266.266,0,0,1,.042-.371Z" fill="#fff"/><path d="M98.874,56.983l.334-.252a.255.255,0,0,1,.361.054.265.265,0,0,1-.053.367h0l-.329.25,0,0a.257.257,0,0,1-.362-.054.266.266,0,0,1,.052-.368Z" fill="#fff"/><path d="M100,56.154l.342-.242a.255.255,0,0,1,.358.066.265.265,0,0,1-.064.364h0l-.338.239h0a.255.255,0,0,1-.359-.065.264.264,0,0,1,.065-.364Z" fill="#fff"/><path d="M101.149,55.363l.351-.23a.253.253,0,0,1,.354.078.263.263,0,0,1-.076.36h0l-.346.227,0,0a.253.253,0,0,1-.354-.078.263.263,0,0,1,.076-.36Z" fill="#fff"/><path d="M102.329,54.613l.359-.216a.254.254,0,0,1,.35.091.263.263,0,0,1-.09.356h0l-.354.213,0,0a.253.253,0,0,1-.35-.091.26.26,0,0,1,.089-.355Z" fill="#fff"/><path d="M103.535,53.909l.367-.2a.251.251,0,0,1,.344.1.26.26,0,0,1-.1.35h0l-.361.2h0a.251.251,0,0,1-.345-.1.26.26,0,0,1,.1-.35Z" fill="#fff"/><path d="M104.765,53.251l.374-.189a.251.251,0,0,1,.339.116.26.26,0,0,1-.114.345h0l-.368.186,0,0a.252.252,0,0,1-.34-.116.26.26,0,0,1,.114-.345Z" fill="#fff"/><path d="M106.018,52.638l.38-.175a.251.251,0,0,1,.334.128.258.258,0,0,1-.126.339h0l-.375.173h0a.251.251,0,0,1-.335-.127.259.259,0,0,1,.126-.34Z" fill="#fff"/><path d="M107.291,52.072l.386-.161a.25.25,0,0,1,.328.139.257.257,0,0,1-.137.333h0l-.381.159h0a.25.25,0,0,1-.329-.139.257.257,0,0,1,.137-.333Z" fill="#fff"/><path d="M108.584,51.552l.391-.147a.25.25,0,0,1,.322.15.256.256,0,0,1-.148.327h0l-.386.146h0a.249.249,0,0,1-.322-.15.255.255,0,0,1,.148-.327Z" fill="#fff"/><path d="M109.894,51.079l.4-.133a.248.248,0,0,1,.315.161.254.254,0,0,1-.159.32h0l-.391.132h0a.25.25,0,0,1-.316-.161.254.254,0,0,1,.159-.32Z" fill="#fff"/><path d="M111.22,50.653l.4-.118a.247.247,0,0,1,.307.171.252.252,0,0,1-.169.313h0l-.4.118h0a.248.248,0,0,1-.308-.172.253.253,0,0,1,.169-.313Z" fill="#fff"/><path d="M112.56,50.275l.4-.1a.247.247,0,0,1,.3.182.252.252,0,0,1-.179.3h0l-.4.1h0a.247.247,0,0,1-.3-.181.251.251,0,0,1,.179-.306Z" fill="#fff"/><path d="M113.912,49.945l.408-.089a.244.244,0,0,1,.292.191.249.249,0,0,1-.188.3h0l-.4.089h0a.247.247,0,0,1-.294-.191.251.251,0,0,1,.189-.3Z" fill="#fff"/><path d="M115.275,49.664l.41-.075a.244.244,0,0,1,.285.2.249.249,0,0,1-.2.289h0l-.406.075h0a.245.245,0,0,1-.285-.2.249.249,0,0,1,.2-.29Z" fill="#fff"/><path d="M116.646,49.431l.413-.06a.245.245,0,0,1,.277.21.248.248,0,0,1-.207.281h0l-.407.06h0a.245.245,0,0,1-.277-.21.248.248,0,0,1,.207-.281Z" fill="#fff"/><path d="M118.025,49.248l.415-.046a.247.247,0,0,1,.052.491h0l-.409.046h0a.247.247,0,0,1-.052-.491Z" fill="#fff"/><path d="M119.409,49.114l.416-.031a.246.246,0,0,1,.035.491h0l-.411.031h0a.246.246,0,0,1-.035-.491Z" fill="#fff"/><path d="M120.8,49.03l.417-.016a.245.245,0,0,1,.017.49h0l-.412.016h0a.245.245,0,0,1-.019-.49Z" fill="#fff"/><path d="M122.187,49h.417a.244.244,0,0,1,0,.488h-.417a.245.245,0,0,1,0-.489Z" fill="#fff"/><path d="M123.576,49.013l.417.016a.243.243,0,0,1-.017.485h0l-.412-.015h0a.243.243,0,0,1,.016-.486Z" fill="#fff"/><path d="M124.965,49.082l.416.03a.242.242,0,0,1-.034.483h0l-.41-.029h0a.242.242,0,0,1-.221-.259.239.239,0,0,1,.255-.224Z" fill="#fff"/><path d="M126.35,49.2l.415.046a.24.24,0,0,1,.209.266.237.237,0,0,1-.261.213h0l-.41-.045h0a.241.241,0,0,1,.051-.48Z" fill="#fff"/><path d="M127.73,49.373l.413.062a.24.24,0,0,1-.069.474h0l-.408-.061h0a.239.239,0,0,1-.2-.272.236.236,0,0,1,.268-.2Z" fill="#fff"/><path d="M129.1,49.6l.41.079a.239.239,0,0,1-.087.469h0l-.4-.077h0a.239.239,0,0,1-.188-.279.236.236,0,0,1,.275-.191Z" fill="#fff"/><path d="M130.466,49.881l.407.1a.237.237,0,0,1,.174.286.233.233,0,0,1-.281.177h0l-.4-.1h0a.238.238,0,0,1-.175-.286.234.234,0,0,1,.281-.178Z" fill="#fff"/><path d="M131.817,50.227l.4.116a.238.238,0,0,1,.16.292.232.232,0,0,1-.288.163h0l-.4-.113h0a.238.238,0,0,1-.161-.293.232.232,0,0,1,.288-.163Z" fill="#fff"/><path d="M133.149,50.639l.4.137a.234.234,0,0,1,.143.3.23.23,0,0,1-.292.146h0l-.39-.133,0,0a.236.236,0,0,1-.146-.3.231.231,0,0,1,.293-.148Z" fill="#fff"/><path d="M134.46,51.121l.388.159a.233.233,0,0,1,.125.3.226.226,0,0,1-.3.127h0l-.382-.154,0,0a.234.234,0,0,1-.128-.3.228.228,0,0,1,.3-.129Z" fill="#fff"/><path d="M135.742,51.678l.378.183a.229.229,0,0,1,.107.3.223.223,0,0,1-.3.108h0l-.371-.177,0,0a.23.23,0,0,1-.108-.3.223.223,0,0,1,.3-.11Z" fill="#fff"/><path d="M136.989,52.314l.367.207a.227.227,0,0,1,.085.306.219.219,0,0,1-.3.087l0,0-.359-.2,0,0a.227.227,0,0,1-.087-.306.221.221,0,0,1,.3-.089Z" fill="#fff"/><path d="M138.193,53.034l.352.232a.225.225,0,0,1,.063.307.216.216,0,0,1-.3.064l0,0-.344-.225,0,0a.224.224,0,0,1-.065-.308.216.216,0,0,1,.3-.066Z" fill="#fff"/><path d="M139.344,53.84l.333.26a.22.22,0,0,1,.039.306.211.211,0,0,1-.3.04l0,0-.326-.252,0,0a.221.221,0,0,1-.042-.307.213.213,0,0,1,.3-.042Z" fill="#fff"/><path d="M140.429,54.736l.312.286a.218.218,0,0,1,.014.3.209.209,0,0,1-.3.016l0,0-.305-.277,0,0a.218.218,0,0,1-.016-.3.212.212,0,0,1,.3-.017Z" fill="#fff"/><path d="M141.438,55.721l.286.313a.215.215,0,0,1-.011.3.206.206,0,0,1-.295-.011l0,0-.28-.3,0,0a.215.215,0,0,1,.01-.3.206.206,0,0,1,.3.01Z" fill="#fff"/><path d="M142.358,56.794l.256.339a.21.21,0,0,1-.038.293.2.2,0,0,1-.288-.039l0,0-.25-.328,0-.005a.213.213,0,0,1,.036-.295.205.205,0,0,1,.291.038Z" fill="#fff"/><path d="M143.172,57.954l.221.363a.208.208,0,0,1-.066.283.2.2,0,0,1-.279-.066l0,0-.216-.351,0-.006a.208.208,0,0,1,.065-.285.2.2,0,0,1,.28.066Z" fill="#fff"/><path d="M143.866,59.189l.185.384a.2.2,0,0,1-.091.271.2.2,0,0,1-.267-.093l0,0-.182-.372,0-.005a.207.207,0,0,1,.091-.274.2.2,0,0,1,.269.093Z" fill="#fff"/><path d="M144.441,60.486l.148.4a.2.2,0,0,1-.114.258.2.2,0,0,1-.254-.116v-.005l-.147-.388,0-.005a.2.2,0,0,1,.114-.259.2.2,0,0,1,.255.116Z" fill="#fff"/><path d="M144.894,61.831l.112.41a.2.2,0,0,1-.135.242.192.192,0,0,1-.238-.136l0-.005-.111-.4v0a.2.2,0,0,1,.134-.244.193.193,0,0,1,.24.136Z" fill="#fff"/><path d="M145.226,63.21l.076.419a.194.194,0,0,1-.152.226.192.192,0,0,1-.223-.155v0l-.077-.409v-.005a.2.2,0,0,1,.153-.228.192.192,0,0,1,.224.155Z" fill="#fff"/><path d="M145.439,64.613l.041.424a.188.188,0,1,1-.374.037v0l-.042-.414v-.005a.188.188,0,1,1,.375-.038Z" fill="#fff"/><path d="M145.534,66.029l0,.426a.185.185,0,1,1-.369,0v0l-.007-.416v-.005a.186.186,0,1,1,.371-.007Z" fill="#fff"/><path d="M145.511,67.448l-.029.425a.182.182,0,1,1-.362-.027v0l.027-.416v0a.182.182,0,1,1,.364.024Z" fill="#fff"/><path d="M145.372,68.859l-.065.421a.178.178,0,0,1-.2.151.18.18,0,0,1-.149-.207v0l.062-.411v0a.18.18,0,1,1,.355.055Z" fill="#fff"/><path d="M145.116,70.254l-.1.413a.175.175,0,0,1-.212.131.179.179,0,0,1-.129-.216v0l.1-.4v-.005a.177.177,0,0,1,.213-.132.179.179,0,0,1,.13.216Z" fill="#fff"/><path d="M144.743,71.621l-.135.4a.172.172,0,0,1-.219.109.176.176,0,0,1-.108-.222l0,0,.13-.395v-.005a.174.174,0,0,1,.22-.111.178.178,0,0,1,.109.223Z" fill="#fff"/><path d="M144.252,72.949l-.17.388a.169.169,0,0,1-.223.088.173.173,0,0,1-.086-.227v0l.165-.381v0a.171.171,0,0,1,.225-.089.174.174,0,0,1,.087.228Z" fill="#fff"/><path d="M143.644,74.226l-.205.371a.167.167,0,0,1-.227.065.17.17,0,0,1-.063-.23l0,0,.2-.364,0,0a.166.166,0,0,1,.227-.066.171.171,0,0,1,.065.231Z" fill="#fff"/><path d="M142.918,75.438l-.24.349a.159.159,0,0,1-.224.04.164.164,0,0,1-.041-.226l0,0,.232-.343,0,0a.161.161,0,0,1,.226-.042.166.166,0,0,1,.042.229Z" fill="#fff"/><path d="M142.077,76.572l-.273.322a.154.154,0,0,1-.219.017.16.16,0,0,1-.018-.222l0,0,.264-.317,0,0a.154.154,0,0,1,.221-.019.162.162,0,0,1,.018.225Z" fill="#fff"/><path d="M141.128,77.613l-.3.292a.148.148,0,0,1-.212-.006.153.153,0,0,1,.005-.214l0,0,.3-.288,0,0a.15.15,0,0,1,.214.005.156.156,0,0,1,0,.218Z" fill="#fff"/><path d="M140.079,78.55l-.332.259a.142.142,0,0,1-.2-.026.149.149,0,0,1,.025-.206l0,0,.323-.257,0,0a.145.145,0,0,1,.2.025.15.15,0,0,1-.025.209Z" fill="#fff"/><path d="M138.946,79.376l-.355.226a.139.139,0,0,1-.192-.045.143.143,0,0,1,.043-.194l0,0,.346-.224,0,0a.14.14,0,0,1,.2.044.145.145,0,0,1-.043.2Z" fill="#fff"/><path d="M137.741,80.088l-.374.191a.132.132,0,0,1-.179-.06.137.137,0,0,1,.058-.182h0l.366-.191,0,0a.134.134,0,0,1,.182.06.139.139,0,0,1-.058.185Z" fill="#fff"/><path d="M136.477,80.685l-.388.156a.126.126,0,0,1-.166-.073.131.131,0,0,1,.071-.169h0l.381-.157h0a.128.128,0,0,1,.169.073.133.133,0,0,1-.072.172Z" fill="#fff"/><path d="M135.168,81.165l-.4.122a.122.122,0,0,1-.153-.084.125.125,0,0,1,.082-.155h0l.393-.123h0a.125.125,0,0,1,.156.084.127.127,0,0,1-.083.158Z" fill="#fff"/><path d="M133.823,81.529l-.408.087a.118.118,0,0,1-.139-.093.119.119,0,0,1,.09-.141h0l.4-.088h0a.12.12,0,0,1,.142.093.122.122,0,0,1-.092.144Z" fill="#fff"/><path d="M132.454,81.776l-.415.051a.112.112,0,0,1-.124-.1.113.113,0,0,1,.1-.127h0l.408-.054h0a.115.115,0,0,1,.029.229Z" fill="#fff"/><path d="M131.069,81.905l-.417.016a.108.108,0,0,1-.009-.216h0l.411-.019h0a.11.11,0,0,1,.01.219Z" fill="#fff"/><path d="M129.679,81.916l-.417-.02a.1.1,0,0,1,.009-.2h0l.412.016h0a.1.1,0,0,1-.009.208Z" fill="#fff"/><path d="M128.293,81.807l-.414-.056a.1.1,0,0,1,.025-.193h0l.41.053h0a.1.1,0,0,1-.024.2Z" fill="#fff"/><path d="M126.921,81.577l-.407-.093a.092.092,0,0,1,.039-.18h0l.4.089h0a.094.094,0,0,1,.07.111.092.092,0,0,1-.11.072Z" fill="#fff"/><path d="M125.576,81.223l-.4-.13a.087.087,0,0,1-.055-.109.085.085,0,0,1,.106-.056h0l.392.126h0a.089.089,0,0,1,.057.111.086.086,0,0,1-.109.057Z" fill="#fff"/><path d="M124.27,80.745l-.383-.168a.082.082,0,0,1-.042-.106.08.08,0,0,1,.1-.043h0l.379.163h0a.082.082,0,0,1,.043.108.08.08,0,0,1-.106.044Z" fill="#fff"/><path d="M123.014,80.141l-.364-.2a.075.075,0,0,1-.029-.1.073.073,0,0,1,.1-.03h0l.362.2,0,0a.077.077,0,0,1,.03.1.075.075,0,0,1-.1.031Z" fill="#fff"/><path d="M121.824,79.414l-.268-.188a.071.071,0,0,1-.018-.1.069.069,0,0,1,.1-.019h0l.267.185h0a.073.073,0,0,1,.018.1.069.069,0,0,1-.1.019Z" fill="#fff"/><path d="M56.308,96.787a5.238,5.238,0,0,1-1.214.9,10.124,10.124,0,0,0,2.22,2.005l.274.626.88-1.071A4.818,4.818,0,0,1,56.308,96.787Z" fill="url(#linear-gradient-123)"/><path d="M61.017,117.1a.234.234,0,0,0-.006-.058,3.532,3.532,0,0,0-1.7-1.862l-.561.044a4.01,4.01,0,0,0-.229,1.909l.006.022A13.033,13.033,0,0,0,61.017,117.1Z" fill="url(#linear-gradient-124)"/><path d="M58.528,117.158a.246.246,0,0,0,.178.183,7.6,7.6,0,0,0,2.142-.031.208.208,0,0,0,.169-.207A13.033,13.033,0,0,1,58.528,117.158Z" fill="url(#linear-gradient-125)"/><path d="M58.526,114.379l.237,1.161a.188.188,0,0,0,.16.156,1.484,1.484,0,0,0,.368-.006.239.239,0,0,0,.186-.28l-.165-1.031Z" fill="url(#linear-gradient-126)"/><path d="M63.444,117.147a3.3,3.3,0,0,1-1.105-.161c0,.063,0,.126,0,.192a.125.125,0,0,0,.117.127l3.4-.023a.157.157,0,0,0,.125-.229A25.377,25.377,0,0,1,63.444,117.147Z" fill="url(#linear-gradient-127)"/><path d="M65.982,117.053a.13.13,0,0,0-.014-.026,4.326,4.326,0,0,0-2.575-1.643l-.725-.023a3.591,3.591,0,0,0-.329,1.625,3.3,3.3,0,0,0,1.105.161A25.377,25.377,0,0,0,65.982,117.053Z" fill="url(#linear-gradient-128)"/><path d="M62.534,114.246c.008.054.107.888.146,1.212a.158.158,0,0,0,.133.144,1.644,1.644,0,0,0,.5-.007.218.218,0,0,0,.162-.219v-1.309Z" fill="url(#linear-gradient-129)"/><path d="M61.952,99.026a66.53,66.53,0,0,1,1.717,15.239.328.328,0,0,1-.257.32,3.7,3.7,0,0,1-.81.1.3.3,0,0,1-.286-.254c-.245-1.46-1.652-9.685-2.453-11.02,0,0-.528,7.325-.359,11.126a.18.18,0,0,1-.156.187,2.959,2.959,0,0,1-.651,0,.239.239,0,0,1-.211-.2,112.5,112.5,0,0,1-1.137-13.888,8.076,8.076,0,0,1,.778-1.6Z" fill="url(#linear-gradient-130)"/><path d="M64.383,90.859a7.443,7.443,0,0,1-.74-1.147c-.29-.557-.023.361-.1-.269-2.175-1.593-5.449-.787-6.715-.625a1.684,1.684,0,0,0-1.069.583c-1.085,1.276-3.466,4.768-.663,8.288a5.238,5.238,0,0,0,1.214-.9,4.412,4.412,0,0,1,.315-3.414,3.132,3.132,0,0,0,.083.327,20.56,20.56,0,0,1,.941,5.834.182.182,0,0,0,.113.17,10.1,10.1,0,0,0,4.21.079.26.26,0,0,0,.214-.3c-.374-2.751,1.545-7.277,2.052-8.411A.741.741,0,0,1,64.383,90.859Z" fill="url(#linear-gradient-131)"/><path d="M58.864,86.5l-.228,2.357a2.862,2.862,0,0,0,2.256-.281l-.668-2.143Z" fill="url(#linear-gradient-132)"/><path d="M60.379,83.814c.031.03,1.326,2.613,1.326,2.613l-1.468.72-1.585-2.263S59.853,83.311,60.379,83.814Z" fill="url(#linear-gradient-133)"/><path d="M59.3,84.947a.244.244,0,0,0,.018.209l.732,1.239a.22.22,0,0,0,.04.051.381.381,0,0,0,.616,0,2.087,2.087,0,0,1,.578-.636.232.232,0,0,1,.316.106,8.959,8.959,0,0,1,.5,1.207.237.237,0,0,1-.136.29,6.365,6.365,0,0,1-1.405.417.233.233,0,0,1-.222-.1c-.224-.312-.856-1.184-1.072-1.4-.2-.2-.57-.126-.737-.078a.229.229,0,0,1-.187-.025.527.527,0,0,1-.194-.8.24.24,0,0,0-.072-.323.531.531,0,0,1-.2-.747.726.726,0,0,1,.791-.393.242.242,0,0,0,.255-.144.155.155,0,0,1,.121-.1.231.231,0,0,0,.184-.271.612.612,0,0,1,.334-.7c.634-.353,1.188.223,1.329.709s-.567.831-1.012.888C59.553,84.394,59.374,84.757,59.3,84.947Z" fill="url(#linear-gradient-134)"/><path d="M59.542,86.783s-.281-.837-.642-.806-.644.395-.2.806C59.258,87.293,59.542,86.783,59.542,86.783Z" fill="url(#linear-gradient-135)"/><path d="M56.5,93.157a7.57,7.57,0,0,1-.3-2.932l.131.016a7.4,7.4,0,0,0,.294,2.87Z" fill="url(#linear-gradient-136)"/><path d="M59.8,103.234a.065.065,0,0,1-.063-.051c-.145-.567-1.231-1.192-1.242-1.2a.068.068,0,0,1-.025-.091.066.066,0,0,1,.09-.026c.047.027,1.145.659,1.3,1.282a.066.066,0,0,1-.047.081Z" fill="url(#linear-gradient-137)"/><path d="M68.8,91.6c-2.459.375-4.062-1.2-5.256-2.158a2.7,2.7,0,0,0-2.8-.648l1.681,3.26a5.6,5.6,0,0,0,6.71,1.092A3.22,3.22,0,0,0,68.8,91.6Z" fill="url(#linear-gradient-138)"/><path d="M72.253,90.11l-.815.446A7.073,7.073,0,0,1,68.8,91.6a3.22,3.22,0,0,1,.331,1.546,7.514,7.514,0,0,0,1.681-1.092C72.656,90.936,72.253,90.11,72.253,90.11Z" fill="url(#linear-gradient-139)"/><path d="M74.655,91.278a.606.606,0,0,0-.351-.391l-1.655-.676S72.624,90,73,89.849a.51.51,0,0,0,.288-.573s-.512.237-1.262.613a1.771,1.771,0,0,0-.8.881l.426.569a7.455,7.455,0,0,0,3.093.248Z" fill="url(#linear-gradient-140)"/><g opacity="0.54"><path d="M28.767,31.205l25.906-.146a1.381,1.381,0,0,1,1.173,2.092l-.13.22a1.356,1.356,0,0,1-1.166.671H28.774a1.371,1.371,0,0,1-1.36-1.382v-.073A1.373,1.373,0,0,1,28.767,31.205Z" fill="url(#linear-gradient-141)"/><path d="M25.148,32.617v.043a1.371,1.371,0,0,1-1.36,1.382H18.037a1.364,1.364,0,0,1-1.314-1.025h0a1.378,1.378,0,0,1,1.3-1.738l5.751-.043A1.371,1.371,0,0,1,25.148,32.617Z" fill="url(#linear-gradient-142)"/></g><g opacity="0.54"><path d="M35,36.164l19.675-.147a1.382,1.382,0,0,1,1.173,2.093l-.13.22A1.355,1.355,0,0,1,54.55,39H35.006a1.371,1.371,0,0,1-1.36-1.381v-.074A1.37,1.37,0,0,1,35,36.164Z" fill="url(#linear-gradient-143)"/><path d="M31.379,37.576v.043A1.37,1.37,0,0,1,30.02,39H24.269a1.363,1.363,0,0,1-1.314-1.025h0a1.377,1.377,0,0,1,1.3-1.738L30.01,36.2A1.369,1.369,0,0,1,31.379,37.576Z" fill="url(#linear-gradient-144)"/></g><g opacity="0.5"><path d="M139.65,21.337c-2.7-2.736-14.349-13.934-28.9-11.9-9.182,1.282-19.024,7.758-18.278,11.6.76,3.911,12.836,6.673,15.915,2.8,3.283-4.13-2.224-17.6-9.858-19.352C88.376,2.152,81.232,22.1,65.476,21.953A22.413,22.413,0,0,1,53.2,17.772" fill="none" stroke="#b897f2" stroke-miterlimit="10" stroke-width="0.25" stroke-dasharray="2 2 2 2 2 2"/><path d="M52.09,16.991a6.8,6.8,0,0,0,2.194.172l-.915.678L53.1,18.946A6.79,6.79,0,0,0,52.09,16.991Z" fill="#b897f2"/></g><path d="M75.181,18.743a.586.586,0,0,1-.8-.014.423.423,0,0,1,.152-.647.635.635,0,0,1-.185-.482.845.845,0,0,1,.552-.687,1.4,1.4,0,0,1,.544-1.047,1.286,1.286,0,0,1,1.045-.238,1,1,0,0,1,.607.482.806.806,0,0,1,.78-.432.557.557,0,0,1,.479.414.68.68,0,0,1-.309.687C77.041,17.465,76.185,18.056,75.181,18.743Z" opacity="0.28" fill="url(#linear-gradient-145)"/><path d="M93.069,5.735a.585.585,0,0,1,.8,0,.423.423,0,0,1-.138.65.643.643,0,0,1,.194.478.847.847,0,0,1-.537.7,1.4,1.4,0,0,1-.523,1.058,1.287,1.287,0,0,1-1.04.261,1,1,0,0,1-.616-.47.81.81,0,0,1-.771.449.557.557,0,0,1-.488-.4.678.678,0,0,1,.3-.693C91.236,7.051,92.08,6.442,93.069,5.735Z" opacity="0.28" fill="url(#linear-gradient-146)"/><path d="M99.1,14.055a.587.587,0,0,1,.8,0,.425.425,0,0,1-.138.651.638.638,0,0,1,.194.477.845.845,0,0,1-.537.7,1.406,1.406,0,0,1-.523,1.059,1.288,1.288,0,0,1-1.04.26.994.994,0,0,1-.616-.47.807.807,0,0,1-.771.449.558.558,0,0,1-.488-.4.68.68,0,0,1,.3-.694C97.263,15.372,98.107,14.763,99.1,14.055Z" opacity="0.28" fill="url(#linear-gradient-147)"/><path d="M116.87,8.523c-.211-.015-.412-.213-.383-.386a.279.279,0,0,1,.37-.243.432.432,0,0,1,.131-.321.556.556,0,0,1,.584-.073.914.914,0,0,1,.745-.251.865.865,0,0,1,.617.379.689.689,0,0,1,.074.521.54.54,0,0,1,.577.159.385.385,0,0,1,.043.429.443.443,0,0,1-.465.187C118.36,8.782,117.673,8.664,116.87,8.523Z" opacity="0.28" fill="url(#linear-gradient-148)"/><path d="M135.062,18.182a.407.407,0,0,1,.184.515.276.276,0,0,1-.437.059.424.424,0,0,1-.254.233A.556.556,0,0,1,134,18.8a.912.912,0,0,1-.779-.1.89.89,0,0,1-.4-.611.689.689,0,0,1,.154-.5.547.547,0,0,1-.455-.395.383.383,0,0,1,.141-.405.442.442,0,0,1,.5.033C133.825,17.3,134.4,17.7,135.062,18.182Z" opacity="0.28" fill="url(#linear-gradient-149)"/><path d="M60.823,21.954c.162.036.3.214.253.345a.219.219,0,0,1-.316.145.336.336,0,0,1-.139.234.436.436,0,0,1-.462-.013.715.715,0,0,1-.608.107.692.692,0,0,1-.436-.368.543.543,0,0,1,0-.414.426.426,0,0,1-.43-.193.3.3,0,0,1,.016-.338.348.348,0,0,1,.383-.09C59.7,21.575,60.215,21.748,60.823,21.954Z" opacity="0.28" fill="url(#linear-gradient-150)"/><path d="M13.659,46.751a.585.585,0,0,1-.8-.013.423.423,0,0,1,.152-.647.645.645,0,0,1-.185-.482.847.847,0,0,1,.552-.687,1.4,1.4,0,0,1,.544-1.047,1.29,1.29,0,0,1,1.046-.238,1,1,0,0,1,.606.482.806.806,0,0,1,.78-.432.555.555,0,0,1,.479.414.68.68,0,0,1-.309.687C15.519,45.474,14.663,46.065,13.659,46.751Z" opacity="0.28" fill="url(#linear-gradient-151)"/><path d="M6.311,66.21c0-.23.184-.469.37-.455a.3.3,0,0,1,.292.381.448.448,0,0,1,.353.112.623.623,0,0,1,.134.629,1.015,1.015,0,0,1,.337.788.962.962,0,0,1-.34.71.711.711,0,0,1-.544.13.607.607,0,0,1-.112.646.4.4,0,0,1-.449.088.492.492,0,0,1-.243-.489C6.181,67.861,6.239,67.1,6.311,66.21Z" opacity="0.28" fill="url(#linear-gradient-152)"/><path d="M4.768,87.4c.032.228-.127.488-.313.5a.3.3,0,0,1-.336-.342.444.444,0,0,1-.363-.067.619.619,0,0,1-.208-.608,1.012,1.012,0,0,1-.429-.741.971.971,0,0,1,.253-.747.714.714,0,0,1,.525-.2.6.6,0,0,1,.034-.655.4.4,0,0,1,.434-.143.49.49,0,0,1,.3.456C4.7,85.749,4.733,86.511,4.768,87.4Z" opacity="0.28" fill="url(#linear-gradient-153)"/><path d="M14.128,36.3a.437.437,0,0,1-.275-.52.3.3,0,0,1,.458-.131.457.457,0,0,1,.234-.29.6.6,0,0,1,.624.112.983.983,0,0,1,.846-.02.952.952,0,0,1,.519.588.748.748,0,0,1-.086.562.587.587,0,0,1,.546.348.414.414,0,0,1-.089.455.473.473,0,0,1-.538.044C15.584,37.043,14.912,36.7,14.128,36.3Z" opacity="0.28" fill="url(#linear-gradient-154)"/><ellipse cx="41.48" cy="13.507" rx="1.434" ry="1.456" fill="none" stroke="#b897f2" stroke-miterlimit="10" stroke-width="0.25"/><ellipse cx="69.258" cy="10.995" rx="1.403" ry="1.425" fill="none" stroke="#b897f2" stroke-miterlimit="10" stroke-width="0.25"/><ellipse cx="81.489" cy="23.499" rx="0.983" ry="0.999" fill="none" stroke="#b897f2" stroke-miterlimit="10" stroke-width="0.25"/><ellipse cx="116.415" cy="18.893" rx="0.923" ry="0.937" fill="none" stroke="#b897f2" stroke-miterlimit="10" stroke-width="0.25"/><ellipse cx="131.486" cy="8.932" rx="0.748" ry="0.759" fill="none" stroke="#b897f2" stroke-miterlimit="10" stroke-width="0.25"/><ellipse cx="44.477" cy="41.403" rx="0.418" ry="0.425" fill="none" stroke="#b897f2" stroke-miterlimit="10" stroke-width="0.25"/><ellipse cx="7.601" cy="42.106" rx="0.649" ry="0.659" fill="none" stroke="#b897f2" stroke-miterlimit="10" stroke-width="0.25"/><ellipse cx="16.959" cy="61.608" rx="1.125" ry="1.143" fill="none" stroke="#b897f2" stroke-miterlimit="10" stroke-width="0.25"/><ellipse cx="30.508" cy="12.345" rx="0.289" ry="0.294" fill="none" stroke="#b897f2" stroke-miterlimit="10" stroke-width="0.25"/><ellipse cx="121.223" cy="27.775" rx="1.138" ry="1.156" fill="none" stroke="#b897f2" stroke-miterlimit="10" stroke-width="0.25"/><ellipse cx="144.242" cy="18.609" rx="1.075" ry="1.092" fill="none" stroke="#b897f2" stroke-miterlimit="10" stroke-width="0.25"/><ellipse cx="105.908" cy="0.535" rx="0.404" ry="0.41" fill="none" stroke="#b897f2" stroke-miterlimit="10" stroke-width="0.25"/><ellipse cx="109.197" cy="47.299" rx="0.33" ry="0.335" fill="none" stroke="#b897f2" stroke-miterlimit="10" stroke-width="0.25"/><ellipse cx="0.862" cy="78.363" rx="0.737" ry="0.749" fill="none" stroke="#b897f2" stroke-miterlimit="10" stroke-width="0.25"/></g></g></svg>