<svg xmlns="http://www.w3.org/2000/svg" xmlns:xlink="http://www.w3.org/1999/xlink" viewBox="0 0 150.056 149.851"><defs><linearGradient id="linear-gradient" x1="168.503" y1="193.669" x2="35.89" y2="28.972" gradientUnits="userSpaceOnUse"><stop offset="0" stop-color="#b37cff"/><stop offset="1" stop-color="#f895e7"/></linearGradient><linearGradient id="linear-gradient-2" x1="-3006.709" y1="-790.473" x2="-3082.864" y2="-694.242" gradientTransform="translate(3128.377 -824) rotate(-30.558)" gradientUnits="userSpaceOnUse"><stop offset="0" stop-color="#cb236d"/><stop offset="1" stop-color="#4c246d"/></linearGradient><linearGradient id="linear-gradient-3" x1="121.603" y1="83.95" x2="118.366" y2="20.821" xlink:href="#linear-gradient"/><linearGradient id="linear-gradient-4" x1="-2170.571" y1="-3551.919" x2="-2139.04" y2="-3551.919" gradientTransform="translate(-2662.873 -3122.293) rotate(170.828)" xlink:href="#linear-gradient"/><linearGradient id="linear-gradient-5" x1="-2137.504" y1="-3560.155" x2="-2135.661" y2="-3560.155" gradientTransform="translate(-2662.873 -3122.293) rotate(170.828)" xlink:href="#linear-gradient"/><linearGradient id="linear-gradient-6" x1="-2127.926" y1="-3546.151" x2="-2126.661" y2="-3546.151" gradientTransform="translate(-2662.873 -3122.293) rotate(170.828)" xlink:href="#linear-gradient"/><linearGradient id="linear-gradient-7" x1="-2158.866" y1="-3531.866" x2="-2126.387" y2="-3531.866" gradientTransform="translate(-2662.873 -3122.293) rotate(170.828)" xlink:href="#linear-gradient"/><linearGradient id="linear-gradient-8" x1="-2162.108" y1="-3525.082" x2="-2160.288" y2="-3525.082" gradientTransform="translate(-2662.873 -3122.293) rotate(170.828)" xlink:href="#linear-gradient"/><linearGradient id="linear-gradient-9" x1="17.507" y1="57.172" x2="26.141" y2="16.52" xlink:href="#linear-gradient"/><linearGradient id="linear-gradient-10" x1="-2189.323" y1="-3525.831" x2="-2188.423" y2="-3525.831" gradientTransform="translate(-2662.873 -3122.293) rotate(170.828)" xlink:href="#linear-gradient"/><linearGradient id="linear-gradient-11" x1="-2189.69" y1="-3535.865" x2="-2172.079" y2="-3535.865" gradientTransform="translate(-2662.873 -3122.293) rotate(170.828)" xlink:href="#linear-gradient"/><linearGradient id="linear-gradient-12" x1="-2181.811" y1="-3519.057" x2="-2161.701" y2="-3519.057" gradientTransform="translate(-2662.873 -3122.293) rotate(170.828)" xlink:href="#linear-gradient"/><linearGradient id="linear-gradient-13" x1="-2184.024" y1="-3517.822" x2="-2182.648" y2="-3517.822" gradientTransform="translate(-2662.873 -3122.293) rotate(170.828)" xlink:href="#linear-gradient"/><linearGradient id="linear-gradient-14" x1="47.442" y1="34.147" x2="46.363" y2="1.413" xlink:href="#linear-gradient"/><linearGradient id="linear-gradient-15" x1="81.597" y1="154.274" x2="79.787" y2="118.453" gradientUnits="userSpaceOnUse"><stop offset="0" stop-color="#2b3582"/><stop offset="1" stop-color="#150e42"/></linearGradient><linearGradient id="linear-gradient-16" x1="10.436" y1="79.03" x2="144.824" y2="79.03" xlink:href="#linear-gradient-15"/><linearGradient id="_3" x1="90.56" y1="40.831" x2="24.201" y2="214.116" gradientUnits="userSpaceOnUse"><stop offset="0" stop-color="#53d8ff"/><stop offset="0.622" stop-color="#4279fa"/><stop offset="1" stop-color="#3840f7"/></linearGradient><linearGradient id="linear-gradient-17" x1="81.695" y1="140.89" x2="65.824" y2="175.738" xlink:href="#linear-gradient-15"/><linearGradient id="linear-gradient-18" x1="124.779" y1="46.603" x2="113.263" y2="87.631" gradientUnits="userSpaceOnUse"><stop offset="0" stop-color="#a737d5"/><stop offset="1" stop-color="#ef497a"/></linearGradient><linearGradient id="linear-gradient-19" x1="100.405" y1="12.498" x2="88.529" y2="54.246" xlink:href="#linear-gradient-18"/><linearGradient id="linear-gradient-20" x1="50.107" y1="36.371" x2="56.314" y2="11.003" xlink:href="#linear-gradient-18"/><linearGradient id="linear-gradient-21" x1="29.415" y1="47.577" x2="21.139" y2="85.719" xlink:href="#linear-gradient-18"/><linearGradient id="_9" x1="79.816" y1="47.722" x2="54.438" y2="164.355" gradientUnits="userSpaceOnUse"><stop offset="0" stop-color="#cb236d"/><stop offset="0.867" stop-color="#5d246d"/><stop offset="1" stop-color="#4c246d"/></linearGradient><linearGradient id="linear-gradient-22" x1="66.615" y1="76.709" x2="91.868" y2="114.589" gradientUnits="userSpaceOnUse"><stop offset="0" stop-color="#fdf53f"/><stop offset="1" stop-color="#d93c65"/></linearGradient><linearGradient id="linear-gradient-23" x1="20.069" y1="-319.497" x2="19.864" y2="-333.428" gradientTransform="matrix(0.933, 0.36, -0.36, 0.933, -65.058, 369.588)" gradientUnits="userSpaceOnUse"><stop offset="0" stop-color="#f9b776"/><stop offset="1" stop-color="#f47960"/></linearGradient><linearGradient id="linear-gradient-24" x1="10869.608" y1="-224.484" x2="10857.387" y2="-215.133" gradientTransform="translate(-10492.186 -2485.93) rotate(14.72)" xlink:href="#linear-gradient-23"/><linearGradient id="linear-gradient-25" x1="10861.043" y1="-231.827" x2="10872.056" y2="-217.648" gradientTransform="translate(-10492.186 -2485.93) rotate(14.72)" xlink:href="#linear-gradient-15"/><linearGradient id="linear-gradient-26" x1="10868.088" y1="-226.459" x2="10855.868" y2="-217.108" gradientTransform="translate(-10492.186 -2485.93) rotate(14.72)" xlink:href="#linear-gradient-23"/><linearGradient id="linear-gradient-27" x1="57.098" y1="83.005" x2="82.238" y2="120.715" xlink:href="#linear-gradient-22"/><linearGradient id="linear-gradient-28" x1="59.45" y1="76.871" x2="64.051" y2="93.435" xlink:href="#linear-gradient-22"/><linearGradient id="linear-gradient-29" x1="58.644" y1="86.968" x2="66.443" y2="107.491" gradientTransform="matrix(1, 0, 0, 1, 0, 0)" xlink:href="#linear-gradient-23"/><linearGradient id="linear-gradient-30" x1="68.366" y1="83.284" x2="76.165" y2="103.81" gradientTransform="matrix(1, 0, 0, 1, 0, 0)" xlink:href="#linear-gradient-23"/><linearGradient id="linear-gradient-31" x1="85.324" y1="90.712" x2="81.277" y2="95.925" xlink:href="#linear-gradient-15"/><linearGradient id="linear-gradient-32" x1="88.355" y1="93.066" x2="84.31" y2="98.276" xlink:href="#linear-gradient-15"/><linearGradient id="linear-gradient-33" x1="89.743" y1="75.4" x2="96.923" y2="93.76" xlink:href="#linear-gradient-15"/><linearGradient id="linear-gradient-34" x1="88.874" y1="82.7" x2="92.969" y2="107.887" xlink:href="#linear-gradient-15"/><linearGradient id="linear-gradient-35" x1="87.008" y1="97.337" x2="99.161" y2="105.302" xlink:href="#linear-gradient-15"/><linearGradient id="linear-gradient-36" x1="41.498" y1="247.837" x2="46.327" y2="244.563" gradientTransform="translate(-12.23 -172.552) rotate(-9.735)" gradientUnits="userSpaceOnUse"><stop offset="0" stop-color="#53d8ff"/><stop offset="1" stop-color="#3840f7"/></linearGradient><linearGradient id="linear-gradient-37" x1="74.727" y1="48.894" x2="69.592" y2="59.615" gradientTransform="matrix(1, 0, 0, 1, 0, 0)" xlink:href="#linear-gradient-36"/><linearGradient id="linear-gradient-38" x1="76.475" y1="48.592" x2="73.235" y2="54.442" gradientTransform="matrix(1, 0, 0, 1, 0, 0)" xlink:href="#linear-gradient-36"/><linearGradient id="linear-gradient-39" x1="75.179" y1="50.997" x2="67.531" y2="64.222" gradientTransform="matrix(1, 0, 0, 1, 0, 0)" xlink:href="#linear-gradient-36"/><linearGradient id="linear-gradient-40" x1="-2164.63" y1="165.604" x2="-2158.178" y2="90.196" gradientTransform="matrix(-1, 0, 0, 1, -2144.637, 0)" xlink:href="#linear-gradient-23"/><linearGradient id="linear-gradient-41" x1="20.877" y1="143.89" x2="30.286" y2="130.398" xlink:href="#linear-gradient-15"/><linearGradient id="linear-gradient-42" x1="-2159.701" y1="165.596" x2="-2153.249" y2="90.187" gradientTransform="matrix(-1, 0, 0, 1, -2144.637, 0)" xlink:href="#linear-gradient-23"/><linearGradient id="linear-gradient-43" x1="-2161.615" y1="147.095" x2="-2154.314" y2="147.095" gradientTransform="matrix(-1, 0, 0, 1, -2144.637, 0)" xlink:href="#linear-gradient-15"/><linearGradient id="linear-gradient-44" x1="1136.966" y1="540.423" x2="1126.273" y2="549.059" gradientTransform="translate(-1206.696 -160.526) rotate(-14.436)" xlink:href="#linear-gradient-23"/><linearGradient id="linear-gradient-45" x1="13.345" y1="93.109" x2="-1.064" y2="114.722" xlink:href="#linear-gradient-22"/><linearGradient id="linear-gradient-46" x1="1118.806" y1="547.122" x2="1122.361" y2="555.009" gradientTransform="translate(-1206.696 -160.526) rotate(-14.436)" xlink:href="#linear-gradient-23"/><linearGradient id="linear-gradient-47" x1="1112.55" y1="549.928" x2="1116.101" y2="557.807" gradientTransform="translate(-1206.696 -160.526) rotate(-14.436)" xlink:href="#linear-gradient-23"/><linearGradient id="linear-gradient-48" x1="6554.655" y1="1041.33" x2="6552.062" y2="1044.988" gradientTransform="translate(-6070.306 2716.418) rotate(-32.438)" xlink:href="#linear-gradient-23"/><linearGradient id="linear-gradient-49" x1="6557.634" y1="1039.303" x2="6548.551" y2="1052.119" gradientTransform="translate(-6070.306 2716.418) rotate(-32.438)" xlink:href="#linear-gradient-15"/><linearGradient id="linear-gradient-50" x1="6557.008" y1="1039.931" x2="6549.691" y2="1050.255" gradientTransform="translate(-6070.306 2716.418) rotate(-32.438)" xlink:href="#linear-gradient-22"/><linearGradient id="linear-gradient-51" x1="6104.576" y1="5484.567" x2="6103.957" y2="5485.442" gradientTransform="matrix(0.718, -0.696, 0.366, 0.377, -6367.956, 2261.421)" gradientUnits="userSpaceOnUse"><stop offset="0" stop-color="#8d55d1"/><stop offset="0.996" stop-color="#1c2873"/></linearGradient><linearGradient id="linear-gradient-52" x1="6557.52" y1="1040.494" x2="6553.17" y2="1046.63" gradientTransform="translate(-6070.306 2716.418) rotate(-32.438)" xlink:href="#linear-gradient-23"/><linearGradient id="linear-gradient-53" x1="1119.405" y1="546.919" x2="1125.822" y2="535.001" gradientTransform="translate(-1206.696 -160.526) rotate(-14.436)" xlink:href="#linear-gradient-23"/><linearGradient id="linear-gradient-54" x1="-2974.439" y1="-4592.612" x2="-2966.849" y2="-4587.457" gradientTransform="matrix(-0.872, -0.489, -0.489, 0.872, -4819.719, 2631.149)" xlink:href="#linear-gradient-23"/><linearGradient id="linear-gradient-55" x1="1124.244" y1="532.582" x2="1117.369" y2="521.041" gradientTransform="translate(-1206.696 -160.526) rotate(-14.436)" xlink:href="#linear-gradient-2"/><linearGradient id="linear-gradient-56" x1="-2973.986" y1="-4593.279" x2="-2966.396" y2="-4588.123" gradientTransform="matrix(-0.872, -0.489, -0.489, 0.872, -4819.719, 2631.149)" xlink:href="#linear-gradient-23"/><linearGradient id="linear-gradient-57" x1="1117.995" y1="536.274" x2="1111.105" y2="524.708" gradientTransform="translate(-1206.696 -160.526) rotate(-14.436)" xlink:href="#linear-gradient-2"/><linearGradient id="linear-gradient-58" x1="19.414" y1="101.494" x2="9.515" y2="128.672" gradientTransform="matrix(1, 0, 0, 1, 0, 0)" xlink:href="#linear-gradient-2"/><linearGradient id="linear-gradient-59" x1="91.269" y1="21.347" x2="101.985" y2="27.502" gradientUnits="userSpaceOnUse"><stop offset="0" stop-color="#fff"/><stop offset="1" stop-color="#dee3fc"/></linearGradient><linearGradient id="linear-gradient-60" x1="89.821" y1="21.458" x2="104.175" y2="29.703" gradientUnits="userSpaceOnUse"><stop offset="0" stop-color="#49d5ff"/><stop offset="1" stop-color="#0bf"/></linearGradient><linearGradient id="linear-gradient-61" x1="95.485" y1="24.903" x2="97.916" y2="24.903" xlink:href="#linear-gradient-59"/><linearGradient id="linear-gradient-62" x1="95.041" y1="27.271" x2="98.316" y2="27.271" xlink:href="#linear-gradient-59"/><linearGradient id="linear-gradient-63" x1="96.679" y1="28.248" x2="96.679" y2="26.569" gradientUnits="userSpaceOnUse"><stop offset="0" stop-color="#3945ba"/><stop offset="1" stop-color="#43a6ff"/></linearGradient><linearGradient id="linear-gradient-64" x1="57.45" y1="16.399" x2="61.422" y2="20.37" gradientUnits="userSpaceOnUse"><stop offset="0" stop-color="#003cad"/><stop offset="1" stop-color="#00185a"/></linearGradient><linearGradient id="linear-gradient-65" x1="-0.356" y1="77.61" x2="14.135" y2="91.681" gradientTransform="translate(18.519 -29.761) rotate(-2.162)" gradientUnits="userSpaceOnUse"><stop offset="0" stop-color="#aa80f9"/><stop offset="0.996" stop-color="#6165d7"/></linearGradient><linearGradient id="linear-gradient-66" x1="4.13" y1="81.525" x2="10.954" y2="85.349" gradientTransform="translate(18.519 -29.761) rotate(-2.162)" gradientUnits="userSpaceOnUse"><stop offset="0" stop-color="#444b8c"/><stop offset="0.996" stop-color="#26264f"/></linearGradient><linearGradient id="linear-gradient-67" x1="2.934" y1="82.628" x2="3.097" y2="85.101" gradientTransform="translate(18.519 -29.761) rotate(-2.162)" gradientUnits="userSpaceOnUse"><stop offset="0" stop-color="#ff9085"/><stop offset="1" stop-color="#fb6fbb"/></linearGradient><linearGradient id="linear-gradient-68" x1="3.555" y1="84.165" x2="3.576" y2="84.498" xlink:href="#linear-gradient-67"/><linearGradient id="linear-gradient-69" x1="4.094" y1="83.173" x2="4.205" y2="84.874" xlink:href="#linear-gradient-67"/><linearGradient id="linear-gradient-70" x1="4.686" y1="83.875" x2="4.735" y2="84.631" xlink:href="#linear-gradient-67"/><linearGradient id="linear-gradient-71" x1="5.226" y1="83.039" x2="5.348" y2="84.91" xlink:href="#linear-gradient-67"/><linearGradient id="linear-gradient-72" x1="5.806" y1="83.473" x2="5.891" y2="84.773" xlink:href="#linear-gradient-67"/><linearGradient id="linear-gradient-73" x1="6.345" y1="82.753" x2="6.491" y2="84.978" xlink:href="#linear-gradient-67"/><linearGradient id="linear-gradient-74" x1="6.901" y1="82.569" x2="7.061" y2="85.016" xlink:href="#linear-gradient-67"/><linearGradient id="linear-gradient-75" x1="7.494" y1="83.526" x2="7.576" y2="84.767" xlink:href="#linear-gradient-67"/><linearGradient id="linear-gradient-76" x1="8.013" y1="82.367" x2="8.187" y2="85.034" xlink:href="#linear-gradient-67"/><linearGradient id="linear-gradient-77" x1="8.581" y1="82.677" x2="8.73" y2="84.951" xlink:href="#linear-gradient-67"/><linearGradient id="linear-gradient-78" x1="9.185" y1="84.038" x2="9.227" y2="84.676" xlink:href="#linear-gradient-67"/><linearGradient id="linear-gradient-79" x1="9.715" y1="83.363" x2="9.809" y2="84.807" xlink:href="#linear-gradient-67"/><linearGradient id="linear-gradient-80" x1="10.248" y1="82.833" x2="10.383" y2="84.893" xlink:href="#linear-gradient-67"/><linearGradient id="linear-gradient-81" x1="10.816" y1="83.304" x2="10.915" y2="84.815" xlink:href="#linear-gradient-67"/><linearGradient id="linear-gradient-82" x1="11.338" y1="82.59" x2="11.49" y2="84.908" xlink:href="#linear-gradient-67"/><linearGradient id="linear-gradient-83" x1="11.877" y1="82.356" x2="12.045" y2="84.925" xlink:href="#linear-gradient-67"/><linearGradient id="linear-gradient-84" x1="-0.35" y1="81.812" x2="14.141" y2="95.883" xlink:href="#linear-gradient-65"/><linearGradient id="linear-gradient-85" x1="4.136" y1="85.727" x2="10.96" y2="89.551" xlink:href="#linear-gradient-66"/><linearGradient id="linear-gradient-86" x1="2.941" y1="86.831" x2="3.103" y2="89.304" xlink:href="#linear-gradient-67"/><linearGradient id="linear-gradient-87" x1="3.561" y1="88.367" x2="3.583" y2="88.7" xlink:href="#linear-gradient-67"/><linearGradient id="linear-gradient-88" x1="4.1" y1="87.376" x2="4.212" y2="89.076" xlink:href="#linear-gradient-67"/><linearGradient id="linear-gradient-89" x1="4.692" y1="88.078" x2="4.741" y2="88.834" xlink:href="#linear-gradient-67"/><linearGradient id="linear-gradient-90" x1="5.232" y1="87.241" x2="5.354" y2="89.112" xlink:href="#linear-gradient-67"/><linearGradient id="linear-gradient-91" x1="5.812" y1="87.675" x2="5.897" y2="88.976" xlink:href="#linear-gradient-67"/><linearGradient id="linear-gradient-92" x1="6.351" y1="86.955" x2="6.497" y2="89.181" xlink:href="#linear-gradient-67"/><linearGradient id="linear-gradient-93" x1="6.907" y1="86.771" x2="7.067" y2="89.218" xlink:href="#linear-gradient-67"/><linearGradient id="linear-gradient-94" x1="7.5" y1="87.728" x2="7.582" y2="88.969" xlink:href="#linear-gradient-67"/><linearGradient id="linear-gradient-95" x1="8.019" y1="86.569" x2="8.194" y2="89.236" xlink:href="#linear-gradient-67"/><linearGradient id="linear-gradient-96" x1="8.587" y1="86.88" x2="8.736" y2="89.154" xlink:href="#linear-gradient-67"/><linearGradient id="linear-gradient-97" x1="9.191" y1="88.241" x2="9.233" y2="88.878" xlink:href="#linear-gradient-67"/><linearGradient id="linear-gradient-98" x1="9.721" y1="87.566" x2="9.816" y2="89.009" xlink:href="#linear-gradient-67"/><linearGradient id="linear-gradient-99" x1="10.254" y1="87.035" x2="10.389" y2="89.095" xlink:href="#linear-gradient-67"/><linearGradient id="linear-gradient-100" x1="10.822" y1="87.507" x2="10.921" y2="89.017" xlink:href="#linear-gradient-67"/><linearGradient id="linear-gradient-101" x1="11.344" y1="86.793" x2="11.496" y2="89.111" xlink:href="#linear-gradient-67"/><linearGradient id="linear-gradient-102" x1="11.883" y1="86.558" x2="12.051" y2="89.127" xlink:href="#linear-gradient-67"/><linearGradient id="linear-gradient-103" x1="-0.308" y1="85.945" x2="14.182" y2="100.016" xlink:href="#linear-gradient-65"/><linearGradient id="linear-gradient-104" x1="4.177" y1="89.86" x2="11.001" y2="93.684" xlink:href="#linear-gradient-66"/><linearGradient id="linear-gradient-105" x1="2.982" y1="90.964" x2="3.144" y2="93.436" xlink:href="#linear-gradient-67"/><linearGradient id="linear-gradient-106" x1="3.602" y1="92.5" x2="3.624" y2="92.833" xlink:href="#linear-gradient-67"/><linearGradient id="linear-gradient-107" x1="4.141" y1="91.508" x2="4.253" y2="93.209" xlink:href="#linear-gradient-67"/><linearGradient id="linear-gradient-108" x1="4.733" y1="92.21" x2="4.782" y2="92.966" xlink:href="#linear-gradient-67"/><linearGradient id="linear-gradient-109" x1="5.273" y1="91.374" x2="5.395" y2="93.245" xlink:href="#linear-gradient-67"/><linearGradient id="linear-gradient-110" x1="5.853" y1="91.808" x2="5.938" y2="93.108" xlink:href="#linear-gradient-67"/><linearGradient id="linear-gradient-111" x1="6.392" y1="91.088" x2="6.538" y2="93.313" xlink:href="#linear-gradient-67"/><linearGradient id="linear-gradient-112" x1="6.948" y1="90.904" x2="7.108" y2="93.351" xlink:href="#linear-gradient-67"/><linearGradient id="linear-gradient-113" x1="7.542" y1="91.861" x2="7.623" y2="93.102" xlink:href="#linear-gradient-67"/><linearGradient id="linear-gradient-114" x1="8.06" y1="90.702" x2="8.235" y2="93.369" xlink:href="#linear-gradient-67"/><linearGradient id="linear-gradient-115" x1="8.628" y1="91.013" x2="8.777" y2="93.286" xlink:href="#linear-gradient-67"/><linearGradient id="linear-gradient-116" x1="9.232" y1="92.373" x2="9.274" y2="93.011" xlink:href="#linear-gradient-67"/><linearGradient id="linear-gradient-117" x1="9.762" y1="91.698" x2="9.857" y2="93.142" xlink:href="#linear-gradient-67"/><linearGradient id="linear-gradient-118" x1="10.295" y1="91.168" x2="10.43" y2="93.228" xlink:href="#linear-gradient-67"/><linearGradient id="linear-gradient-119" x1="10.863" y1="91.64" x2="10.962" y2="93.15" xlink:href="#linear-gradient-67"/><linearGradient id="linear-gradient-120" x1="11.386" y1="90.925" x2="11.538" y2="93.244" xlink:href="#linear-gradient-67"/><linearGradient id="linear-gradient-121" x1="11.924" y1="90.691" x2="12.092" y2="93.26" xlink:href="#linear-gradient-67"/></defs><g style="isolation:isolate"><g id="Layer_2" data-name="Layer 2"><g id="Layer_1-2" data-name="Layer 1"><path d="M132.662,128.271a53.918,53.918,0,0,1-8.3,6.856c-27.077,19.06-59.116,13.5-65.925,12.147-10.055-2-29.491-5.876-43.543-22.088C-6.365,100.659-3.055,62.018,13.435,36.51,16.452,31.844,32.385,5.948,64.769,1.8c19.6-2.514,42.444,2.556,58.988,16.154C158.485,46.492,156.012,104.155,132.662,128.271Z" opacity="0.08" fill="url(#linear-gradient)"/><path d="M142.915,15.686a.8.8,0,0,0-1.552.072c-1.559,7.847-6.3,28.3-15.181,39.647-14.465,18.481-22.781,47.3-11.49,61.011C114.692,116.416,168.938,102.043,142.915,15.686Z" fill="url(#linear-gradient-2)"/><path d="M142.259,26.76c0,.253-.02.461-.032.686l-.048.663-.112,1.323c-.08.881-.174,1.76-.269,2.64q-.291,2.637-.644,5.268c-.472,3.506-1.04,7-1.66,10.484s-1.33,6.954-2.117,10.406-1.63,6.892-2.584,10.3a169.175,169.175,0,0,1-6.9,20.1c-1.4,3.257-2.893,6.48-4.568,9.609a92.033,92.033,0,0,1-5.574,9.064.14.14,0,0,1-.233-.156h0a102.544,102.544,0,0,0,5.291-9.173c1.614-3.138,3.044-6.367,4.386-9.629s2.55-6.579,3.683-9.919,2.123-6.729,3.1-10.121c1.916-6.793,3.466-13.685,4.824-20.613q1.008-5.2,1.813-10.434.408-2.616.763-5.241l.331-2.627.152-1.315.068-.657c.019-.216.043-.447.052-.637v-.031a.14.14,0,0,1,.279.006Z" fill="#fff" opacity="0.43"/><path d="M114.756.345a.767.767,0,0,0-1.4.487c.725,7.619,2,27.656-3.035,40.473-8.191,20.869-7.9,49.555,6.214,59.064C116.531,100.369,162.331,72.486,114.756.345Z" fill="url(#linear-gradient-3)"/><path d="M117.2,10.678c.07.232.109.428.16.638l.138.621.261,1.243c.168.83.324,1.662.479,2.494q.458,2.5.857,5c.53,3.344.969,6.7,1.357,10.065s.691,6.738.916,10.117.4,6.762.461,10.15a161.629,161.629,0,0,1-.809,20.305c-.393,3.367-.875,6.726-1.552,10.05a87.532,87.532,0,0,1-2.626,9.822.137.137,0,0,1-.173.086.135.135,0,0,1-.088-.167h0a98.09,98.09,0,0,0,2.331-9.846c.618-3.316,1.042-6.665,1.377-10.019s.532-6.724.653-10.095.1-6.746.06-10.12c-.107-6.748-.578-13.489-1.234-20.21q-.5-5.04-1.2-10.06-.344-2.51-.738-5.013l-.417-2.5L117.188,12l-.118-.622c-.041-.2-.083-.422-.127-.6l-.007-.03a.135.135,0,0,1,.261-.071Z" fill="#fff" opacity="0.43"/><g opacity="0.63"><g opacity="0.3"><path d="M43.459,26.067a.554.554,0,0,1,.622.4c.163.6.3,1.215.415,1.829a.551.551,0,0,1-.446.639l-.011,0a.553.553,0,0,1-.632-.445c-.106-.583-.239-1.168-.394-1.737a.548.548,0,0,1,.389-.674A.39.39,0,0,1,43.459,26.067Zm.733,4.734a.476.476,0,0,1,.066-.007.552.552,0,0,1,.576.526c.026.623.026,1.253,0,1.873a.554.554,0,0,1-1.106-.047c.025-.589.025-1.188,0-1.78A.549.549,0,0,1,44.192,30.8Zm-.334,4.775a.566.566,0,0,1,.188,0,.55.55,0,0,1,.444.641c-.113.612-.255,1.226-.421,1.827A.553.553,0,0,1,43,37.755c.158-.571.292-1.154.4-1.735A.554.554,0,0,1,43.858,35.576Zm-1.4,4.583a.555.555,0,0,1,.307.038.548.548,0,0,1,.289.722c-.249.572-.525,1.14-.822,1.688a.555.555,0,0,1-.749.224.547.547,0,0,1-.225-.744c.281-.521.544-1.06.78-1.6A.554.554,0,0,1,42.457,40.159Zm-2.394,4.157a.551.551,0,0,1,.535.867c-.369.5-.765.994-1.177,1.464a.554.554,0,0,1-.78.054.547.547,0,0,1-.055-.775c.392-.447.768-.916,1.119-1.392A.546.546,0,0,1,40.063,44.316ZM36.8,47.843a.554.554,0,0,1,.506.181.547.547,0,0,1-.054.776c-.472.408-.968.8-1.473,1.169a.556.556,0,0,1-.774-.119.547.547,0,0,1,.121-.768c.48-.349.951-.723,1.4-1.111A.554.554,0,0,1,36.8,47.843ZM17,52.345a.548.548,0,0,1,.234.013c.573.155,1.161.288,1.747.394a.55.55,0,1,1-.2,1.082c-.618-.112-1.237-.252-1.841-.416A.549.549,0,0,1,17,52.345Zm15.841-1.783a.554.554,0,0,1,.575.284.548.548,0,0,1-.226.744c-.552.294-1.123.568-1.7.813a.55.55,0,1,1-.437-1.01c.547-.233,1.089-.493,1.613-.772A.569.569,0,0,1,32.841,50.562ZM21.763,53.077a.581.581,0,0,1,.111-.007c.594.024,1.2.023,1.793,0a.55.55,0,1,1,.049,1.1c-.627.028-1.262.029-1.887,0a.549.549,0,0,1-.066-1.092Zm6.6-.742a.55.55,0,0,1,.233,1.073c-.6.163-1.222.3-1.839.415l-.012,0a.55.55,0,0,1-.187-1.083c.585-.107,1.173-.24,1.747-.395A.541.541,0,0,1,28.366,52.335Z" fill="url(#linear-gradient-4)"/><path d="M13.36,51a.557.557,0,0,1,.327.047c.257.123.521.242.785.355a.549.549,0,0,1,.289.723.555.555,0,0,1-.727.287c-.277-.119-.555-.245-.825-.374A.549.549,0,0,1,13.36,51Z" fill="url(#linear-gradient-5)"/></g><g opacity="0.3"><path d="M2.213,38.419a.555.555,0,0,1,.613.371c.089.269.186.541.287.807a.553.553,0,0,1-1.036.388c-.106-.281-.208-.567-.3-.851a.549.549,0,0,1,.352-.694A.634.634,0,0,1,2.213,38.419Z" fill="url(#linear-gradient-6)"/><path d="M19.212,10.559c.252-.04.5-.076.759-.108a.549.549,0,1,1,.14,1.09c-.588.075-1.171.172-1.74.292a.55.55,0,1,1-.23-1.075C18.493,10.684,18.854,10.617,19.212,10.559Zm3.675-.277a.716.716,0,0,1,.094-.007c.617.006,1.241.038,1.854.095a.549.549,0,1,1-.1,1.094c-.582-.054-1.175-.084-1.761-.089a.55.55,0,0,1-.084-1.093Zm-7.545,1.271a.55.55,0,0,1,.276,1.06c-.55.2-1.1.42-1.632.663a.55.55,0,1,1-.462-1c.561-.256,1.139-.491,1.718-.7A.614.614,0,0,1,15.342,11.553ZM27.6,10.845a.573.573,0,0,1,.214.007c.6.141,1.2.308,1.788.5a.549.549,0,0,1,.355.693.555.555,0,0,1-.7.352c-.556-.18-1.127-.339-1.7-.472a.549.549,0,0,1,.039-1.078ZM11.089,13.632a.555.555,0,0,1,.555.247.547.547,0,0,1-.169.759c-.492.312-.978.65-1.444,1a.555.555,0,0,1-.776-.1.547.547,0,0,1,.1-.77c.491-.373,1-.728,1.521-1.057A.551.551,0,0,1,11.089,13.632ZM7.4,16.587a.551.551,0,0,1,.481.931c-.413.413-.814.848-1.19,1.293a.557.557,0,0,1-.78.067.547.547,0,0,1-.067-.775c.4-.468.817-.926,1.252-1.36A.548.548,0,0,1,7.4,16.587ZM4.443,20.272a.56.56,0,0,1,.383.078A.549.549,0,0,1,5,21.109c-.314.492-.609,1-.879,1.519a.555.555,0,0,1-.746.234.548.548,0,0,1-.235-.741c.283-.543.594-1.081.924-1.6A.553.553,0,0,1,4.443,20.272ZM2.367,24.51a.552.552,0,0,1,.609.727c-.2.549-.373,1.112-.522,1.674a.553.553,0,0,1-1.07-.281c.157-.592.342-1.185.55-1.762A.55.55,0,0,1,2.367,24.51ZM1.278,29.1a.573.573,0,0,1,.155,0,.551.551,0,0,1,.482.612c-.07.577-.116,1.164-.137,1.746a.553.553,0,0,1-1.106-.04c.022-.612.071-1.231.145-1.838A.552.552,0,0,1,1.278,29.1ZM1.23,33.809l.034,0a.552.552,0,0,1,.605.492c.043.427.1.857.168,1.279.024.153.051.3.079.457a.553.553,0,0,1-1.088.2c-.03-.16-.058-.32-.084-.481-.072-.444-.131-.9-.176-1.345A.55.55,0,0,1,1.23,33.809Z" fill="url(#linear-gradient-7)"/><path d="M32.079,12.43a.55.55,0,0,1,.329.048c.27.13.541.268.808.411a.548.548,0,0,1,.225.744.555.555,0,0,1-.75.224c-.253-.135-.511-.267-.767-.39a.549.549,0,0,1,.155-1.037Z" fill="url(#linear-gradient-8)"/></g><path d="M32.364,18.842a.26.26,0,0,0-.3-.032l-2.743,1.534a13.756,13.756,0,0,0-4.2-1.447l-1.2-2.889a.258.258,0,0,0-.254-.158l-3.769.221a.258.258,0,0,0-.233.188l-.848,3.009a13.724,13.724,0,0,0-4,1.928L11.923,20a.26.26,0,0,0-.293.066L9.124,22.866a.252.252,0,0,0-.032.3l1.543,2.725a13.549,13.549,0,0,0-1.456,4.17L6.271,31.248a.256.256,0,0,0-.159.253l.223,3.744a.257.257,0,0,0,.188.232l3.029.842a13.574,13.574,0,0,0,1.94,3.97l-1.208,2.887a.254.254,0,0,0,.067.291l2.822,2.49a.258.258,0,0,0,.3.032l2.743-1.533a13.763,13.763,0,0,0,4.2,1.446l1.2,2.889a.259.259,0,0,0,.255.159l3.768-.222a.258.258,0,0,0,.234-.187l.847-3.009a13.755,13.755,0,0,0,4-1.928l2.9,1.2a.26.26,0,0,0,.293-.067l2.507-2.8a.257.257,0,0,0,.032-.3L34.9,38.912a13.567,13.567,0,0,0,1.455-4.169l2.908-1.191a.257.257,0,0,0,.159-.253L39.2,29.555a.255.255,0,0,0-.188-.232l-3.029-.843a13.581,13.581,0,0,0-1.94-3.969l1.209-2.887a.258.258,0,0,0-.067-.291Z" fill="url(#linear-gradient-9)"/><path d="M22.166,28.677a3.772,3.772,0,1,1-1.146,7.069,3.762,3.762,0,0,1,.6-6.941A3.9,3.9,0,0,1,22.166,28.677Zm1.06,6.578a3.119,3.119,0,0,0,.42-.1,2.918,2.918,0,1,0-.42.1Z" fill="#fff" opacity="0.56"/><path d="M21.216,23.314q.471-.075.953-.1h0c.1-.006.2-.011.3-.013a9.28,9.28,0,0,1,1.492.078l.02,0,.057.008.111.017a.22.22,0,0,1,.185.182.2.2,0,0,1,0,.069.221.221,0,0,1-.252.183,8.981,8.981,0,0,0-1.891-.087,8.892,8.892,0,0,0-7.243,4.53,8.782,8.782,0,0,0,1.866,10.886A8.864,8.864,0,0,0,31.493,31.05a8.749,8.749,0,0,0-1.428-3.56.205.205,0,0,1-.035-.089.218.218,0,0,1,.093-.217.223.223,0,0,1,.308.058,9.2,9.2,0,0,1,1.5,3.738,9.4,9.4,0,0,1,.1.936,9.338,9.338,0,0,1-15.509,7.478,9.176,9.176,0,0,1-3.013-5.434,9.3,9.3,0,0,1-.105-.949,9.175,9.175,0,0,1,2.338-6.7A9.273,9.273,0,0,1,21.216,23.314Z" fill="#fff" opacity="0.56"/><g opacity="0.3"><path d="M59.773,8.777a.344.344,0,0,1,.363.189c.125.26.244.528.353.8a.341.341,0,0,1-.633.255c-.1-.254-.217-.509-.337-.758a.338.338,0,0,1,.161-.452A.37.37,0,0,1,59.773,8.777Z" fill="url(#linear-gradient-10)"/><path d="M60.684,11.227a.343.343,0,0,1,.384.247,14.609,14.609,0,0,1,.314,1.461c.017.1.033.207.048.311a.351.351,0,0,1-.291.383.341.341,0,0,1-.386-.289q-.021-.149-.045-.3a14.094,14.094,0,0,0-.3-1.393.339.339,0,0,1,.241-.416Zm.491,3.491a.389.389,0,0,1,.049,0,.34.34,0,0,1,.347.334,14.494,14.494,0,0,1-.08,1.805.341.341,0,0,1-.679-.072,14.13,14.13,0,0,0,.076-1.722A.341.341,0,0,1,61.175,14.718ZM60.8,18.224a.352.352,0,0,1,.133,0,.34.34,0,0,1,.254.408,14.568,14.568,0,0,1-.524,1.732.343.343,0,0,1-.44.2.339.339,0,0,1-.2-.436,14.008,14.008,0,0,0,.5-1.651A.341.341,0,0,1,60.8,18.224ZM59.568,21.53a.341.341,0,0,1,.358.491,14.838,14.838,0,0,1-.935,1.551.344.344,0,0,1-.475.088.338.338,0,0,1-.089-.472,14.12,14.12,0,0,0,.892-1.479A.343.343,0,0,1,59.568,21.53Zm-2.007,2.907a.345.345,0,0,1,.281.081.337.337,0,0,1,.03.479,15.046,15.046,0,0,1-1.285,1.278.344.344,0,0,1-.483-.029.337.337,0,0,1,.03-.479,14.257,14.257,0,0,0,1.226-1.22A.34.34,0,0,1,57.561,24.437Zm-2.655,2.335a.342.342,0,0,1,.336.143.338.338,0,0,1-.088.472,14.871,14.871,0,0,1-1.56.928.344.344,0,0,1-.461-.146.338.338,0,0,1,.147-.457,14.208,14.208,0,0,0,1.487-.885A.347.347,0,0,1,54.906,26.772Zm-3.149,1.619a.339.339,0,0,1,.172.653,14.913,14.913,0,0,1-1.742.52.345.345,0,0,1-.411-.254.34.34,0,0,1,.255-.408,14.176,14.176,0,0,0,1.662-.5A.286.286,0,0,1,51.757,28.391Zm-5.231.882a.408.408,0,0,1,.061,0,14.365,14.365,0,0,0,1.507-.057l.226-.022a.341.341,0,0,1,.376.3.337.337,0,0,1-.3.374l-.239.023a14.914,14.914,0,0,1-1.579.06.34.34,0,0,1-.05-.675Z" fill="url(#linear-gradient-11)"/></g><g opacity="0.3"><path d="M44.265.843a.339.339,0,1,1,.113.669,14.2,14.2,0,0,0-1.66.393.344.344,0,0,1-.426-.227.339.339,0,0,1,.228-.423A14.963,14.963,0,0,1,44.26.843ZM46,.647l.037,0a15.253,15.253,0,0,1,1.789.012.34.34,0,1,1-.046.678,14.3,14.3,0,0,0-1.707-.012A.339.339,0,0,1,46,.647Zm-5.076,1.2a.343.343,0,0,1,.367.2.34.34,0,0,1-.174.448,14.074,14.074,0,0,0-1.516.78.343.343,0,0,1-.468-.118.337.337,0,0,1,.118-.465,14.7,14.7,0,0,1,1.589-.818A.367.367,0,0,1,40.926,1.848ZM49.485.882a.34.34,0,0,1,.119,0,14.781,14.781,0,0,1,1.734.442.338.338,0,0,1,.22.427.343.343,0,0,1-.43.219,14.244,14.244,0,0,0-1.653-.421.339.339,0,0,1,.01-.668ZM37.931,3.626a.344.344,0,0,1,.325.127.339.339,0,0,1-.06.477,13.918,13.918,0,0,0-1.283,1.118.342.342,0,0,1-.483,0,.338.338,0,0,1,0-.48,14.968,14.968,0,0,1,1.344-1.173A.35.35,0,0,1,37.931,3.626Zm-2.478,2.44a.341.341,0,0,1,.323.546A14.2,14.2,0,0,0,34.8,8a.344.344,0,0,1-.47.113.339.339,0,0,1-.113-.467,14.97,14.97,0,0,1,1.023-1.458A.34.34,0,0,1,35.453,6.066Zm-1.819,2.96A.34.34,0,0,1,34,9.5a13.944,13.944,0,0,0-.612,1.583.341.341,0,0,1-.651-.2,14.485,14.485,0,0,1,.641-1.661A.34.34,0,0,1,33.634,9.026Z" fill="url(#linear-gradient-12)"/><path d="M52.822,1.952a.343.343,0,0,1,.2.027c.265.123.528.253.781.389a.339.339,0,0,1,.139.46.345.345,0,0,1-.463.138c-.241-.129-.492-.254-.745-.371a.339.339,0,0,1,.09-.643Z" fill="url(#linear-gradient-13)"/></g><path d="M53.245,6.327a.174.174,0,0,0-.2-.022L51.21,7.331A9.248,9.248,0,0,0,48.4,6.363L47.6,4.43a.176.176,0,0,0-.171-.106l-2.521.149a.172.172,0,0,0-.157.125l-.567,2.014A9.152,9.152,0,0,0,41.511,7.9l-1.945-.8a.173.173,0,0,0-.2.045L37.693,9.019a.171.171,0,0,0-.021.2L38.7,11.041a9.073,9.073,0,0,0-.974,2.79l-1.945.8a.172.172,0,0,0-.107.169l.149,2.506a.172.172,0,0,0,.126.155l2.027.564a9.088,9.088,0,0,0,1.3,2.656l-.809,1.932a.171.171,0,0,0,.045.194L40.4,24.471a.174.174,0,0,0,.2.021l1.835-1.026a9.186,9.186,0,0,0,2.808.968l.8,1.933a.172.172,0,0,0,.17.106l2.522-.148A.173.173,0,0,0,48.9,26.2l.567-2.014a9.209,9.209,0,0,0,2.674-1.29l1.944.8a.174.174,0,0,0,.2-.045l1.677-1.876a.172.172,0,0,0,.022-.2l-1.033-1.823a9.056,9.056,0,0,0,.974-2.79l1.946-.8A.173.173,0,0,0,57.97,16L57.82,13.5a.172.172,0,0,0-.126-.155l-2.026-.564a9.091,9.091,0,0,0-1.3-2.656l.809-1.932a.17.17,0,0,0-.045-.2Z" fill="url(#linear-gradient-14)"/><path d="M46.417,12.862a2.582,2.582,0,0,1,1.6.258,2.562,2.562,0,0,1-.411,4.727,2.59,2.59,0,0,1-3.244-1.674,2.533,2.533,0,0,1,.17-1.958,2.563,2.563,0,0,1,1.514-1.265A2.726,2.726,0,0,1,46.417,12.862Zm.709,4.4A1.868,1.868,0,0,0,47.4,17.2a1.89,1.89,0,1,0-1.147-3.6h0a1.888,1.888,0,0,0-1.239,2.371A1.906,1.906,0,0,0,47.126,17.264Z" fill="#fff" opacity="0.56"/><path d="M45.761,9.128q.319-.051.65-.071a6.529,6.529,0,0,1,1.311.055l.058.009a.34.34,0,0,1,.285.281.314.314,0,0,1,0,.106.341.341,0,0,1-.389.284,5.826,5.826,0,0,0-1.224-.057h0l-.067.005a5.729,5.729,0,0,0-3.86,1.867l-.009.009-.026.029a5.663,5.663,0,0,0-1.442,4.134q.018.3.065.585a5.669,5.669,0,0,0,1.858,3.352,5.78,5.78,0,0,0,8.122-.478A5.655,5.655,0,0,0,52.535,15.1c-.012-.194-.033-.387-.064-.577a5.674,5.674,0,0,0-.924-2.3.336.336,0,0,1,.089-.472.344.344,0,0,1,.475.089,6.364,6.364,0,0,1,1.035,2.579c.034.213.058.429.071.646A6.326,6.326,0,0,1,51.6,19.689a6.466,6.466,0,0,1-9.087.534,6.335,6.335,0,0,1-2.078-3.749,6.387,6.387,0,0,1,5.322-7.346Z" fill="#fff" opacity="0.56"/></g><polygon points="67.368 113.563 64.548 140.61 97.265 140.61 93.004 113.563 67.368 113.563" fill="url(#linear-gradient-15)"/><path d="M10.436,44.991v63.742c0,5.244,3.908,9.532,8.809,9.667,21.771.6,97.914,2.056,118.638,1.729a6.888,6.888,0,0,0,6.55-6.912c.4-14.808,1.049-50.417-1.353-66.949a7.025,7.025,0,0,0-6.547-6.2c-18.241-.624-98.957-2.6-119.672-2.108A6.825,6.825,0,0,0,10.436,44.991Z" fill="url(#linear-gradient-16)"/><path d="M14.176,44.68v60.56a5.437,5.437,0,0,0,5.161,5.6L134.9,112.369a5.277,5.277,0,0,0,5.175-5.432l.193-60.019a3.873,3.873,0,0,0-3.638-4L18.315,40.361A4.18,4.18,0,0,0,14.176,44.68Z" fill="url(#_3)"/><path d="M140.946,114.878h0l-126.77-2.31a.2.2,0,0,1,.006-.4l126.77,2.31a.2.2,0,0,1,0,.4Z" fill="#fff" opacity="0.65"/><path d="M104.313,146.144H56.428c-1.3,0-2.278-.99-2.026-2.054l.614-2.6A1.99,1.99,0,0,1,56.96,140.1l46.162-1.541a2.036,2.036,0,0,1,2.1,1.346l1.107,4.139C106.616,145.123,105.635,146.144,104.313,146.144Z" fill="url(#linear-gradient-17)"/><path d="M46.9,101.279l-22.267-.035a.632.632,0,0,1-.658-.6V99.237a.627.627,0,0,1,.658-.6l22.267.125a.6.6,0,0,1,.612.58V100.7A.593.593,0,0,1,46.9,101.279Z" fill="#fff"/><path d="M25.494,101.774l1.915,6.976a1.058,1.058,0,0,0,1.052.741l14.823-.166a1.034,1.034,0,0,0,1-.744l1.806-6.791Zm5.5,6.567a.531.531,0,0,1-.545.507l-.52,0a.52.52,0,0,1-.547-.5V102.95a.526.526,0,0,1,.547-.5h.52a.524.524,0,0,1,.545.5Zm2.893-.027a.527.527,0,0,1-.54.5l-.516,0a.515.515,0,0,1-.542-.494v-5.382a.523.523,0,0,1,.542-.5h.516a.52.52,0,0,1,.54.5Zm2.868-.027a.524.524,0,0,1-.536.5l-.511,0a.513.513,0,0,1-.538-.492v-5.358a.519.519,0,0,1,.538-.5h.511a.518.518,0,0,1,.536.5Zm2.841-.027a.52.52,0,0,1-.531.5l-.506,0a.509.509,0,0,1-.533-.49v-5.334a.516.516,0,0,1,.533-.5h.506a.514.514,0,0,1,.531.494Zm2.816-.027a.516.516,0,0,1-.526.5l-.5.005a.505.505,0,0,1-.528-.488v-5.31a.512.512,0,0,1,.528-.494h.5a.509.509,0,0,1,.526.492Z" fill="#fff"/><path d="M28,97.95a.868.868,0,0,1-1.147-.079.7.7,0,0,1,.078-1.05.869.869,0,0,1,1.148.081A.7.7,0,0,1,28,97.95Z" fill="#fff"/><path d="M35.142,91.322a.4.4,0,0,0-.515.029l-7.051,5.563c-.177.14-.228.351-.114.472a.408.408,0,0,0,.527-.034l7.042-5.565C35.2,91.651,35.253,91.442,35.142,91.322Z" fill="#fff"/><path d="M43.727,98.055a.806.806,0,0,0,1.089-.063.7.7,0,0,0-.075-1.022.806.806,0,0,0-1.089.062A.7.7,0,0,0,43.727,98.055Z" fill="#fff"/><path d="M36.773,91.35a.394.394,0,0,1,.512.047l6.842,5.654c.168.139.216.345.108.461a.381.381,0,0,1-.5-.041l-6.851-5.653C36.711,91.676,36.662,91.466,36.773,91.35Z" fill="#fff"/><ellipse cx="121.157" cy="59.507" rx="11.487" ry="11.414" fill="url(#linear-gradient-18)"/><path d="M121.239,67.05c-.128,0-.255,0-.384-.008-4.385-.192-7.806-3.661-7.627-7.733a7.091,7.091,0,0,1,2.573-5.133,8.238,8.238,0,0,1,5.7-1.9c4.385.192,7.807,3.661,7.627,7.733h0a7.091,7.091,0,0,1-2.573,5.133A8.207,8.207,0,0,1,121.239,67.05Zm-.116-13.745a7.152,7.152,0,0,0-4.642,1.665,6.059,6.059,0,0,0-2.2,4.384A6.655,6.655,0,0,0,120.9,66a7.192,7.192,0,0,0,4.978-1.657,6.059,6.059,0,0,0,2.205-4.385,6.653,6.653,0,0,0-6.625-6.646C121.347,53.308,121.235,53.305,121.123,53.305Z" fill="#fff"/><path d="M123.08,59.69a20.73,20.73,0,0,1-.3,3.621c-.054.3-.117.595-.192.89a8.565,8.565,0,0,1-.268.87,4.075,4.075,0,0,1-.4.821,1.635,1.635,0,0,1-.3.349.82.82,0,0,1-.2.126.578.578,0,0,1-.461.012.83.83,0,0,1-.2-.12,1.564,1.564,0,0,1-.307-.343,4.019,4.019,0,0,1-.405-.818,8.336,8.336,0,0,1-.271-.87c-.076-.294-.139-.591-.194-.889-.109-.6-.184-1.2-.234-1.8s-.075-1.21-.078-1.817c0-.3.007-.606.018-.909s.028-.6.05-.907c.045-.605.113-1.208.212-1.806.05-.3.109-.6.179-.892a8.56,8.56,0,0,1,.254-.874c.051-.143.107-.285.17-.423a3.239,3.239,0,0,1,.218-.4,1.5,1.5,0,0,1,.3-.346.753.753,0,0,1,.2-.118A.554.554,0,0,1,121.1,53a.628.628,0,0,1,.226.053.853.853,0,0,1,.2.122,1.653,1.653,0,0,1,.307.34,4.106,4.106,0,0,1,.42.808,8.237,8.237,0,0,1,.288.863c.081.293.15.588.209.886A18.916,18.916,0,0,1,123.08,59.69Zm-.09,0q0-.906-.072-1.81a17.528,17.528,0,0,0-.237-1.8c-.056-.3-.121-.591-.2-.883a8.3,8.3,0,0,0-.277-.861,4.055,4.055,0,0,0-.407-.8,1.637,1.637,0,0,0-.3-.336.845.845,0,0,0-.188-.12.57.57,0,0,0-.214-.052.524.524,0,0,0-.217.041.713.713,0,0,0-.189.116,1.457,1.457,0,0,0-.289.341,2.968,2.968,0,0,0-.211.4c-.062.138-.115.278-.164.421a8.4,8.4,0,0,0-.243.872c-.067.294-.122.591-.168.889-.093.6-.153,1.2-.192,1.8s-.051,1.207-.05,1.811.018,1.208.063,1.81.115,1.2.219,1.8c.052.3.113.593.186.885a8.385,8.385,0,0,0,.262.866,3.921,3.921,0,0,0,.393.808,1.492,1.492,0,0,0,.293.335.752.752,0,0,0,.188.113.517.517,0,0,0,.212.041.529.529,0,0,0,.21-.052.767.767,0,0,0,.184-.12,1.564,1.564,0,0,0,.287-.34,4.092,4.092,0,0,0,.388-.812,8.622,8.622,0,0,0,.259-.866c.072-.293.132-.589.183-.886.1-.595.172-1.2.218-1.8S122.991,60.294,122.99,59.69Z" fill="#fff"/><path d="M121.178,66.6a.748.748,0,0,1-.28-.056.957.957,0,0,1-.245-.144,1.693,1.693,0,0,1-.343-.383,4.11,4.11,0,0,1-.425-.854,8.638,8.638,0,0,1-.277-.889c-.073-.283-.137-.578-.2-.9-.105-.573-.182-1.168-.236-1.821-.049-.594-.076-1.209-.079-1.831,0-.324.008-.645.018-.916.012-.308.029-.615.051-.914.049-.657.119-1.253.214-1.822.054-.325.113-.62.181-.9a8.647,8.647,0,0,1,.259-.892c.058-.162.115-.3.176-.437a3.192,3.192,0,0,1,.231-.424,1.641,1.641,0,0,1,.337-.387.934.934,0,0,1,.245-.145.717.717,0,0,1,.3-.053.784.784,0,0,1,.29.067,1.137,1.137,0,0,1,.236.146,1.862,1.862,0,0,1,.34.376,4.245,4.245,0,0,1,.439.844,8.421,8.421,0,0,1,.3.882c.078.285.148.578.212.9a19.008,19.008,0,0,1,.337,3.651h0a20.663,20.663,0,0,1-.3,3.652c-.058.323-.122.618-.194.9a8.664,8.664,0,0,1-.274.889,4.27,4.27,0,0,1-.418.856,1.8,1.8,0,0,1-.333.387,1.045,1.045,0,0,1-.238.152.762.762,0,0,1-.3.07ZM121.086,53.2a.354.354,0,0,0-.134.028.553.553,0,0,0-.144.089,1.255,1.255,0,0,0-.253.3,2.95,2.95,0,0,0-.2.375c-.055.122-.107.255-.159.407a8.258,8.258,0,0,0-.237.853c-.063.275-.117.562-.166.878-.087.558-.149,1.142-.19,1.784-.035.55-.052,1.138-.05,1.8,0,.611.019,1.215.063,1.8.048.639.119,1.222.216,1.78.055.313.115.6.184.874a8.216,8.216,0,0,0,.256.846,3.693,3.693,0,0,0,.375.773,1.334,1.334,0,0,0,.257.3.6.6,0,0,0,.142.087.4.4,0,0,0,.14.027.361.361,0,0,0,.142-.035.638.638,0,0,0,.143-.094,1.42,1.42,0,0,0,.254-.3,3.84,3.84,0,0,0,.37-.776,8.37,8.37,0,0,0,.253-.848c.067-.273.126-.559.181-.874.1-.553.167-1.136.215-1.78.045-.581.067-1.185.067-1.8h0c0-.609-.023-1.213-.071-1.795a17.112,17.112,0,0,0-.235-1.777c-.058-.31-.122-.594-.2-.871a7.975,7.975,0,0,0-.271-.842,3.842,3.842,0,0,0-.388-.77,1.456,1.456,0,0,0-.263-.3.693.693,0,0,0-.148-.095.377.377,0,0,0-.146-.036Z" fill="#fff"/><path d="M126.145,59.69A8.788,8.788,0,0,1,125.831,62a7.446,7.446,0,0,1-.97,2.122,6.247,6.247,0,0,1-.742.905,5.188,5.188,0,0,1-.912.733,4.4,4.4,0,0,1-1.065.485,3.992,3.992,0,0,1-2.315,0,4.439,4.439,0,0,1-1.066-.484,5.2,5.2,0,0,1-.913-.733,6.085,6.085,0,0,1-.743-.905,7.454,7.454,0,0,1-.973-2.122,8.5,8.5,0,0,1-.236-1.148,9.3,9.3,0,0,1-.079-1.168,9.118,9.118,0,0,1,.08-1.168,8.308,8.308,0,0,1,.237-1.147,7.438,7.438,0,0,1,.974-2.121,6.077,6.077,0,0,1,.743-.9,5.184,5.184,0,0,1,.913-.731,4.391,4.391,0,0,1,1.065-.483,3.956,3.956,0,0,1,2.311,0,4.4,4.4,0,0,1,1.064.483,5.229,5.229,0,0,1,.912.732,6.121,6.121,0,0,1,.742.9,7.46,7.46,0,0,1,.972,2.121A8.818,8.818,0,0,1,126.145,59.69Zm-.1,0a8.714,8.714,0,0,0-.3-2.289,7.453,7.453,0,0,0-.94-2.107,6.052,6.052,0,0,0-.725-.9,5.051,5.051,0,0,0-.9-.733,4.32,4.32,0,0,0-1.051-.484,3.858,3.858,0,0,0-2.288,0,4.323,4.323,0,0,0-1.051.485,5.123,5.123,0,0,0-.9.734,5.989,5.989,0,0,0-.723.9,7.4,7.4,0,0,0-.937,2.106,8.393,8.393,0,0,0-.225,1.134,9.063,9.063,0,0,0-.076,1.153,8.884,8.884,0,0,0,.077,1.153,8.427,8.427,0,0,0,.226,1.134,7.368,7.368,0,0,0,.938,2.1,6.082,6.082,0,0,0,.723.9,5.075,5.075,0,0,0,.9.732,4.338,4.338,0,0,0,1.049.483,3.827,3.827,0,0,0,2.285,0,4.386,4.386,0,0,0,1.051-.482,5.118,5.118,0,0,0,.9-.732,6.1,6.1,0,0,0,.724-.9,7.4,7.4,0,0,0,.941-2.106A8.662,8.662,0,0,0,126.042,59.69Z" fill="#fff"/><path d="M120.985,66.6a4.19,4.19,0,0,1-1.209-.179,4.534,4.534,0,0,1-1.108-.5,5.418,5.418,0,0,1-.946-.757,6.373,6.373,0,0,1-.764-.931,7.593,7.593,0,0,1-1-2.173,8.515,8.515,0,0,1-.241-1.172,8.758,8.758,0,0,1,0-2.384,8.47,8.47,0,0,1,.241-1.171,7.606,7.606,0,0,1,1-2.172,6.238,6.238,0,0,1,.764-.93,5.35,5.35,0,0,1,.945-.756,4.572,4.572,0,0,1,1.108-.5,4.126,4.126,0,0,1,2.414,0,4.58,4.58,0,0,1,1.106.5,5.39,5.39,0,0,1,.944.756,6.356,6.356,0,0,1,.763.931,7.613,7.613,0,0,1,1,2.17,8.995,8.995,0,0,1,.322,2.361v0a8.987,8.987,0,0,1-.32,2.36,7.616,7.616,0,0,1-.994,2.173,6.365,6.365,0,0,1-.763.932,5.406,5.406,0,0,1-.944.757,4.538,4.538,0,0,1-1.108.505A4.209,4.209,0,0,1,120.985,66.6Zm0-13.42a3.809,3.809,0,0,0-1.092.165,4.16,4.16,0,0,0-1.007.466,4.927,4.927,0,0,0-.863.708,5.935,5.935,0,0,0-.7.876,7.232,7.232,0,0,0-.914,2.057,8.369,8.369,0,0,0-.221,1.109,8.615,8.615,0,0,0,0,2.261,8.417,8.417,0,0,0,.221,1.11,7.252,7.252,0,0,0,.916,2.055,5.849,5.849,0,0,0,.7.875,4.875,4.875,0,0,0,.863.707,4.19,4.19,0,0,0,1.006.464,3.679,3.679,0,0,0,2.182,0,4.2,4.2,0,0,0,1.007-.464,4.866,4.866,0,0,0,.864-.706,5.8,5.8,0,0,0,.7-.875,7.209,7.209,0,0,0,.918-2.056,8.635,8.635,0,0,0,0-4.483,7.225,7.225,0,0,0-.917-2.057,5.876,5.876,0,0,0-.7-.876,4.866,4.866,0,0,0-.865-.708,4.152,4.152,0,0,0-1.007-.464A3.788,3.788,0,0,0,120.984,53.178Z" fill="#fff"/><path d="M114.963,57.026l1.55-.012,1.549-.007,3.1-.006,3.1.006,1.55.008,1.55.014,0,0,0,0-1.55.013-1.55.008-3.1.006-3.1-.006-1.549-.007-1.55-.012-.007,0C114.956,57.029,114.959,57.026,114.963,57.026Z" fill="#fff"/><polygon points="121.162 57.242 116.512 57.229 114.888 57.216 114.779 57.108 114.779 57.029 114.783 56.857 114.961 56.85 118.061 56.83 121.162 56.824 125.812 56.839 127.538 56.854 127.543 57.21 127.361 57.214 124.262 57.235 121.162 57.242" fill="#fff"/><path d="M116.761,54.437c.366-.006.733-.008,1.1-.012l1.1-.007c.367,0,.734,0,1.1,0l1.1,0,2.2.006,1.1.008c.367,0,.733.007,1.1.013l0,0c0,.005,0,.007,0,.007-.367.006-.733.008-1.1.013l-1.1.008-2.2.006-1.1,0c-.367,0-.734,0-1.1,0l-1.1-.007c-.367,0-.734-.006-1.1-.012l-.007-.007Z" fill="#fff"/><path d="M121.162,54.653l-1.386,0q-.408,0-.816,0l-1.467-.011-.735-.009-.174,0-.007-.358.181-.006c.237,0,.474-.006.711-.009l1.491-.011c.258,0,.517,0,.775,0l1.427,0,3.7.019.7.009.18,0-.008.355-.175,0c-.242,0-.487.007-.732.009l-1.467.012Z" fill="#fff"/><polygon points="114.424 59.616 116.109 59.603 117.793 59.596 121.162 59.59 124.531 59.597 126.215 59.604 127.9 59.618 127.904 59.622 127.9 59.627 126.215 59.64 124.531 59.648 121.162 59.654 117.793 59.649 116.109 59.641 114.424 59.629 114.417 59.622 114.424 59.616" fill="#fff"/><polygon points="121.162 59.831 116.108 59.818 114.247 59.804 114.24 59.446 114.423 59.439 117.792 59.419 121.162 59.414 126.216 59.428 127.975 59.442 128.082 59.55 128.075 59.799 127.9 59.803 124.532 59.825 121.162 59.831" fill="#fff"/><path d="M114.963,62.205l1.55-.013,1.549-.007,3.1-.006,3.1.007,1.55.007,1.55.014,0,0s0,.007,0,.007l-1.55.013-1.55.008-3.1.006-3.1-.005-1.549-.007-1.55-.013-.007-.007Z" fill="#fff"/><polygon points="121.162 62.42 116.512 62.407 114.888 62.394 114.779 62.286 114.779 62.207 114.783 62.035 114.961 62.028 118.061 62.008 121.162 62.003 125.812 62.017 127.538 62.032 127.543 62.388 127.361 62.393 124.262 62.414 121.162 62.42" fill="#fff"/><path d="M125.785,64.824h-8.8a.023.023,0,0,1-.023-.023.023.023,0,0,1,.023-.024h8.8a.024.024,0,1,1,0,.047Z" fill="#fff"/><path d="M125.785,65h-8.8a.2.2,0,0,1,0-.4h8.8a.2.2,0,1,1,0,.4Z" fill="#fff"/><ellipse cx="96.679" cy="25.599" rx="11.949" ry="11.872" fill="url(#linear-gradient-19)"/><ellipse cx="53.374" cy="23.019" rx="11.898" ry="11.821" fill="url(#linear-gradient-20)"/><ellipse cx="27.306" cy="57.296" rx="11.539" ry="11.465" fill="url(#linear-gradient-21)"/><path d="M103.121,88.783l-2.027-2.406a2.581,2.581,0,0,1-.509-2.344,27.528,27.528,0,0,0,.942-6.248,2.594,2.594,0,0,1,1.181-2.1l2.651-1.709a3.094,3.094,0,0,0,1.33-3.35L105.73,66.8a3.119,3.119,0,0,0-2.755-2.342l-3.147-.277a2.613,2.613,0,0,1-2.031-1.3,27.742,27.742,0,0,0-3.776-5.082,2.584,2.584,0,0,1-.655-2.309l.657-3.068a3.094,3.094,0,0,0-1.443-3.3l-3.407-2.037a3.136,3.136,0,0,0-3.614.279l-2.421,2.013a2.622,2.622,0,0,1-2.36.506,28.088,28.088,0,0,0-6.288-.936,2.613,2.613,0,0,1-2.109-1.173L70.66,45.128a3.13,3.13,0,0,0-3.372-1.321l-3.859.953A3.108,3.108,0,0,0,61.072,47.5l-.279,3.128a2.593,2.593,0,0,1-1.311,2.017,27.853,27.853,0,0,0-5.115,3.753,2.624,2.624,0,0,1-2.324.65l-3.088-.653a3.133,3.133,0,0,0-3.325,1.434l-2.05,3.386a3.086,3.086,0,0,0,.281,3.591l2.026,2.4a2.581,2.581,0,0,1,.509,2.344,27.528,27.528,0,0,0-.942,6.248,2.593,2.593,0,0,1-1.18,2.1L41.623,79.6a3.092,3.092,0,0,0-1.33,3.351l.959,3.834a3.115,3.115,0,0,0,2.754,2.342l3.148.277a2.614,2.614,0,0,1,2.03,1.3,27.709,27.709,0,0,0,3.777,5.083,2.581,2.581,0,0,1,.654,2.308l-.657,3.068a3.1,3.1,0,0,0,1.444,3.3l3.407,2.038a3.138,3.138,0,0,0,3.614-.28l2.421-2.013a2.623,2.623,0,0,1,2.359-.506,28.03,28.03,0,0,0,6.288.936,2.619,2.619,0,0,1,2.11,1.173l1.72,2.634a3.132,3.132,0,0,0,3.372,1.322l3.859-.953a3.11,3.11,0,0,0,2.357-2.737l.279-3.128a2.6,2.6,0,0,1,1.311-2.017,27.866,27.866,0,0,0,5.116-3.752,2.622,2.622,0,0,1,2.323-.651l3.088.653a3.129,3.129,0,0,0,3.325-1.434l2.051-3.385A3.086,3.086,0,0,0,103.121,88.783Zm-39.5,8.8A22.93,22.93,0,0,1,52.562,66.981,23.207,23.207,0,0,1,83.365,56,22.929,22.929,0,0,1,94.419,86.6,23.206,23.206,0,0,1,63.616,97.587Z" fill="url(#_9)"/><path d="M59.7,70.406a60.154,60.154,0,0,1,20.419-.983,10.2,10.2,0,0,1,7.158,4.631C90.145,78.566,94.2,86.608,93.344,95L88.84,96.1s-3.113-9.952-6.617-14c0,0-4.149,9.4-3.94,14.558.006.146.016.289.029.428.476,5.049-19.919.942-19.919.942Z" fill="url(#linear-gradient-22)"/><path d="M70.431,61.981l-2.114,6.69a1.511,1.511,0,0,0,.491,1.664,10.12,10.12,0,0,0,6.1,2.205,1,1,0,0,0,.955-.952l.751-11.181Z" fill="url(#linear-gradient-23)"/><path d="M78.616,54.649s.821,5.268.3,7.786S78.515,66.7,75.5,66.449a6.331,6.331,0,0,1-5.738-5.134s-1.058-4.348-.182-5.787S78.616,54.649,78.616,54.649Z" fill="url(#linear-gradient-24)"/><path d="M71.213,59.8l.365.1s-.693-3.459.771-3.652,6.98.112,8.6-1.438a3.534,3.534,0,0,0-.086-5.07.2.2,0,0,0-.272.026l-.18.2a.2.2,0,0,1-.352-.131h0a.2.2,0,0,0-.337-.146c-.492.462-1.666,1.115-4.3.92-3.735-.277-6.47.541-7.175,2.973a.2.2,0,0,1-.346.08c-.221-.228-.622-.412-1.309-.089-1.194.562-1.354,2.787.329,5.091a.2.2,0,0,1-.092.31c-.455.15-1.193.6.1,1.786a4.151,4.151,0,0,0,2.619,1.368.2.2,0,0,0,.2-.163l.439-2.2a.2.2,0,0,1,.25-.156Z" fill="url(#linear-gradient-25)"/><path d="M71.183,60.272s.009-3.226-1.578-2.735-.188,3.568.878,3.968Z" fill="url(#linear-gradient-26)"/><path d="M59.759,90.525c-.44-3.086,2.777-7.622,4.107-9.343a2.855,2.855,0,0,0,.6-1.715A9.859,9.859,0,0,0,59.7,70.406S48.958,82.837,51.693,92.4a8.017,8.017,0,0,0,1.332,2.68C53.456,91.477,57.647,90.691,59.759,90.525Z" fill="url(#linear-gradient-27)"/><path d="M59.959,89.331l-.409-.046c.347-3.026,3.02-6.762,4.152-8.228l.327.25C62.917,82.745,60.3,86.407,59.959,89.331Z" fill="url(#linear-gradient-28)"/><path d="M59.843,90.952a3.706,3.706,0,0,1-.084-.427c-2.112.166-6.3.952-6.734,4.555,4.792,6.3,18,4.026,18,4.026V96.655S60.882,94.782,59.843,90.952Z" fill="url(#linear-gradient-29)"/><path d="M69.758,98.429s1.95-4.573,5.387-2.951,3.167,2.684,3.167,2.684Z" fill="url(#linear-gradient-30)"/><path d="M69.32,99.378h0a.651.651,0,0,0,.673.6L87.8,99.358a.652.652,0,0,0,.6-.454l.517-1.644a.649.649,0,0,0-.588-.841l-6.494-.342a.613.613,0,0,0-.176.014L69.829,98.7A.646.646,0,0,0,69.32,99.378Z" fill="url(#linear-gradient-31)"/><polygon points="81.258 98.732 81.748 96.464 88.419 96.78 87.98 98.662 81.258 98.732" fill="url(#linear-gradient-32)"/><path d="M77.838,74.311c-.378,3.065-2.076,15.52-2.563,19.078a.819.819,0,0,0,.84.926l28.813-.819a.823.823,0,0,0,.781-.64L110.191,72.8a.82.82,0,0,0-.852-.994L78.607,73.594A.82.82,0,0,0,77.838,74.311Z" fill="url(#linear-gradient-33)"/><path d="M89.419,86.888,85.161,98.9l9.9.209.824-12.146a.946.946,0,0,0-1.01-1l-4.625.305A.95.95,0,0,0,89.419,86.888Z" fill="url(#linear-gradient-34)"/><path d="M81.147,99.068h0a.512.512,0,0,0,.488.671H97.142a.513.513,0,0,0,.514-.511v-.661a.513.513,0,0,0-.536-.511l-15.507.661A.512.512,0,0,0,81.147,99.068Z" fill="url(#linear-gradient-35)"/><path d="M77.4,86.981l-.2-.026,1.416-11.092a1.449,1.449,0,0,1,1.353-1.26l26.558-1.594.012.2L79.98,74.807a1.245,1.245,0,0,0-1.162,1.081Z" fill="#fff"/><polygon points="76.693 92.542 76.488 92.517 76.795 90.115 76.999 90.141 76.693 92.542" fill="#fff"/><path d="M75.788,63.674c-3.2.24-5.06-3.048-5.078-3.081l.214-.117c.018.032,1.8,3.183,4.845,2.955Z" fill="url(#linear-gradient-36)"/><path d="M77.092,63.551a.342.342,0,0,1-.343.341h-.916a.342.342,0,0,1-.343-.341h0a.342.342,0,0,1,.343-.341h.916a.341.341,0,0,1,.343.341Z" fill="#3840f7"/><path d="M70.93,56.946s1.149-5.852,4.532-6.4a2.3,2.3,0,0,0-1.957.04,8.373,8.373,0,0,0-3.42,6.509C70.771,57.336,70.93,56.946,70.93,56.946Z" fill="url(#linear-gradient-37)"/><path d="M70.343,56.669c-1.759.355-1.543,2.565-1.543,2.565-.127,1.6.344,2.4.948,2.778a1.4,1.4,0,0,0,1.367.065,1.381,1.381,0,0,0,.76-1.131c.033-.437.07-.852.1-1C72.056,59.59,72.1,56.315,70.343,56.669Z" fill="url(#linear-gradient-38)"/><path d="M70.5,57.228a.8.8,0,0,0-.872.468c-1.051,2.42.24,3.994.873,4.027.668.034.655-3.158.513-3.977A.586.586,0,0,0,70.5,57.228Z" fill="url(#linear-gradient-39)"/><path d="M19.368,122.281l.2,3.594S18.44,137.9,18.2,143.23a4.148,4.148,0,0,0,.622,2.371l2.3,3.712-5.846-3.428-.117-.709.957-1.307-1.253-14.915a4.547,4.547,0,0,1,.524-2.531l1.209-2.258Z" fill="url(#linear-gradient-40)"/><path d="M21.512,149.851H19.646a1.126,1.126,0,0,1-.891-.435c-.582-.75-1.787-2.215-2.363-2.254-.776-.051-.677,2.689-.677,2.689h-.434l-.551-3.405a2.01,2.01,0,0,1,1.064-2.106h0a2.849,2.849,0,0,0,1.139,1.879c.961.576,3.912,2.64,3.912,2.64a2.7,2.7,0,0,1,.759.02A.49.49,0,0,1,21.512,149.851Z" fill="url(#linear-gradient-41)"/><path d="M14.341,122.281l.4,2.309s-1.323,13.314-1.558,18.64A4.141,4.141,0,0,0,13.8,145.6l2.3,3.712-5.846-3.428-.117-.709.957-1.307L9.841,128.954a4.547,4.547,0,0,1,.524-2.531l1.209-2.258Z" fill="url(#linear-gradient-42)"/><path d="M16.485,149.851H14.619a1.126,1.126,0,0,1-.891-.435c-.582-.75-1.787-2.215-2.363-2.254-.776-.051-.677,2.689-.677,2.689h-.434L9.7,146.446a2.01,2.01,0,0,1,1.064-2.106h0a2.849,2.849,0,0,0,1.139,1.879c.961.576,3.912,2.64,3.912,2.64a2.7,2.7,0,0,1,.759.02A.49.49,0,0,1,16.485,149.851Z" fill="url(#linear-gradient-43)"/><path d="M18.159,84.143a4.755,4.755,0,0,1,2.288.915A35.862,35.862,0,0,1,24.47,88.57l-2.612-7.2,1.917-.49s4.828,8.7,3.921,10.23-5.557,1.106-7.927-2.895C18.532,85.281,18.159,84.143,18.159,84.143Z" fill="url(#linear-gradient-44)"/><path d="M7.712,86.649c-.218.169,3.629,8.271,3.637,14.866a11.991,11.991,0,0,0,6.768-.656s3.013-8.858,2.9-9.9c-.124-1.18-2.515-6.786-2.515-6.786A12.556,12.556,0,0,0,7.712,86.649Z" fill="url(#linear-gradient-45)"/><path d="M20.446,95.278a1.09,1.09,0,0,0-.789-.512l-3.2-.417s-.139-.358.452-.777a.891.891,0,0,0,.248-1.11s-.791.636-1.936,1.616a3.145,3.145,0,0,0-1,1.866l1,.784a13.772,13.772,0,0,0,5.526-.962Z" fill="url(#linear-gradient-46)"/><path d="M7.712,86.649s-6.1,5.424-3.552,12.058S15.746,96.34,15.746,96.34l-.685-1.578s-6.036,3.55-7.542,2.21c-1.1-.983.847-4.446,1.966-6.223a1.787,1.787,0,0,0-.128-2.085Z" fill="url(#linear-gradient-47)"/><path d="M20.818,81.55a2.635,2.635,0,0,1-.918-.829c-.253-.469-.954-.949-.625-1.088s.366-.219.791.267S22.486,81.905,20.818,81.55Z" fill="url(#linear-gradient-48)"/><path d="M20.95,76.8a.339.339,0,0,0-.517-.045l-1.762,1.766a.189.189,0,0,0-.013.252l4,4.941a.1.1,0,0,0,.07.038.1.1,0,0,0,.076-.023l1.659-1.351a.335.335,0,0,0,.063-.451Z" fill="url(#linear-gradient-49)"/><path d="M20.567,77.477a.192.192,0,0,0-.294-.021l-1.14,1.193a.188.188,0,0,0-.01.249l3.411,4.2a.105.105,0,0,0,.073.038.1.1,0,0,0,.077-.027l1.109-1.01a.1.1,0,0,0,.014-.135Z" fill="url(#linear-gradient-50)"/><path d="M19.71,77.846c.014.014,0,.046-.024.072l-.393.38c-.027.025-.059.035-.073.021l-.013-.014c-.014-.014,0-.046.024-.071l.393-.38c.027-.026.059-.035.073-.021Z" fill="url(#linear-gradient-51)"/><path d="M22.213,77.641c-.333.071-1.44-.5-1.351-.141s.5.681.534.835.2,1.043.537,1.285a14.958,14.958,0,0,1,1.186,1.128.329.329,0,0,0,.409.048.324.324,0,0,0,.131-.388C23.637,80.35,22.546,77.569,22.213,77.641Z" fill="url(#linear-gradient-52)"/><path d="M14.585,79.3s-.643,3.32-1.143,4.779a.882.882,0,0,0,.468,1.088,3.258,3.258,0,0,0,2.176.124.94.94,0,0,0,.713-.9l.054-3.618Z" fill="url(#linear-gradient-53)"/><path d="M18.773,75.633a5.785,5.785,0,0,1,.864,3.805c-.176,2.474-1.378,2.993-2.318,2.633a4.648,4.648,0,0,1-2.892-3.134C13.764,76.907,17.383,73.969,18.773,75.633Z" fill="url(#linear-gradient-54)"/><path d="M15.941,78.407s.586-3.437,3.161-2.048l.366.752s1.833-1.066.721-2.681a3.767,3.767,0,0,0-5.6-.522c-1.817,1.7-2.184,3.239-1.65,4.832s1.613.724,1.613.724-.073-1.252.446-1.611.742.547.742.547Z" fill="url(#linear-gradient-55)"/><path d="M15.474,78.566S15.786,76.8,14.761,77s-.205,1.677.146,2.2Z" fill="url(#linear-gradient-56)"/><path d="M14.009,75.273a.726.726,0,0,0,.1-1.286c-1.592-1.031-4.326-1.928-7.073,1.224-3.095,3.551-4.828,5.243-5.817,5.234a.731.731,0,0,0-.591,1.208,3.125,3.125,0,0,0,1.76.863C9.327,83.958,10.793,76.524,14.009,75.273Z" fill="url(#linear-gradient-57)"/><path d="M8.02,107.093c.318-2.547,3.329-5.578,3.329-5.578,4.787.711,7.044-.929,7.044-.929a25.834,25.834,0,0,1,1.018,5.979c.014,2.623.522,19.519.522,19.519-4.685,1.951-10.565.874-10.565.874C9.729,120.893,7.7,109.639,8.02,107.093Z" fill="url(#linear-gradient-58)"/><rect x="92.299" y="20.837" width="8.758" height="7.235" rx="2.666" fill="url(#linear-gradient-59)"/><path d="M97.273,20.582l-.593,1.167a.523.523,0,0,1-.452.317H92.235a.64.64,0,0,0-.542.706v7.05a.64.64,0,0,0,.542.706h8.887a.641.641,0,0,0,.543-.706V20.971a.641.641,0,0,0-.543-.706h-3.4A.523.523,0,0,0,97.273,20.582Z" fill="url(#linear-gradient-60)"/><path d="M96.7,23.32A1.437,1.437,0,0,0,95.485,24.9v1.584h.328V24.9a.919.919,0,1,1,1.775,0v1.584h.328V24.9A1.437,1.437,0,0,0,96.7,23.32Z" fill="url(#linear-gradient-61)"/><rect x="95.041" y="25.675" width="3.276" height="3.191" rx="1.365" fill="url(#linear-gradient-62)"/><path d="M97.023,27.061c0-.279-.2-.5-.419-.437a.408.408,0,0,0-.262.343.5.5,0,0,0,.166.482.134.134,0,0,1,.048.107v.5a.145.145,0,0,0,.123.16h0a.145.145,0,0,0,.122-.16v-.5a.135.135,0,0,1,.049-.108A.482.482,0,0,0,97.023,27.061Z" fill="url(#linear-gradient-63)"/><rect x="45.024" y="17.739" width="14.958" height="11.075" rx="1.943" fill="#00aeef"/><polygon points="53.859 23.124 58.827 27.959 53.365 23.689 53.859 23.124" fill="#fff"/><polygon points="51.859 23.801 46.654 27.847 51.365 23.236 51.859 23.801" fill="#fff"/><path d="M46.178,18.593c1.157.829,2.26,1.719,3.354,2.618s2.16,1.829,3.221,2.765h-.5c1.059-.937,2.12-1.873,3.22-2.766s2.2-1.789,3.354-2.617c-.95,1.06-1.956,2.058-2.97,3.046s-2.056,1.946-3.1,2.9l-.251.227-.249-.227c-1.048-.951-2.1-1.9-3.1-2.9S47.129,19.652,46.178,18.593Z" fill="#fff"/><ellipse cx="59.163" cy="18.111" rx="2.003" ry="2.176" fill="url(#linear-gradient-64)"/><path d="M58.03,17.95A10.336,10.336,0,0,1,59.012,19l-.179,0A11.978,11.978,0,0,1,60.3,17.4a11.976,11.976,0,0,1-1.293,1.741.115.115,0,0,1-.162.017l-.018-.018A10.222,10.222,0,0,1,58.03,17.95Z" fill="#fff"/><path d="M19.181,54.607l-.1-2.552a.734.734,0,0,1,.79-.707l14.586,0a.752.752,0,0,1,.78.678l.093,2.447a.7.7,0,0,1-.728.686l-14.58.149A.794.794,0,0,1,19.181,54.607Z" opacity="0.74" fill="url(#linear-gradient-65)"/><path d="M20.615,52.286a.339.339,0,0,1-.363.327.37.37,0,0,1-.39-.325.34.34,0,0,1,.365-.327A.369.369,0,0,1,20.615,52.286Z" fill="#fff" opacity="0.4"/><path d="M21.8,52.283a.337.337,0,0,1-.361.326.367.367,0,0,1-.387-.324.337.337,0,0,1,.362-.326A.368.368,0,0,1,21.8,52.283Z" fill="#fff" opacity="0.4"/><path d="M22.984,52.28a.336.336,0,0,1-.36.325.366.366,0,0,1-.384-.323.335.335,0,0,1,.36-.325A.366.366,0,0,1,22.984,52.28Z" fill="#fff" opacity="0.4"/><polygon points="34.512 54.544 23.814 54.636 23.712 51.955 34.413 51.937 34.512 54.544" fill="url(#linear-gradient-66)"/><g opacity="0.3" style="mix-blend-mode:soft-light"><polygon points="24.85 54.438 24.527 54.441 24.445 52.276 24.768 52.276 24.85 54.438" fill="#fff"/><polygon points="25.423 54.434 25.101 54.436 25.019 52.275 25.341 52.274 25.423 54.434" fill="#fff"/><polygon points="25.995 54.429 25.674 54.432 25.592 52.274 25.913 52.273 25.995 54.429" fill="#fff"/><polygon points="26.565 54.424 26.244 54.427 26.162 52.272 26.483 52.271 26.565 54.424" fill="#fff"/><polygon points="27.133 54.42 26.813 54.422 26.732 52.271 27.051 52.27 27.133 54.42" fill="#fff"/><polygon points="27.699 54.415 27.381 54.418 27.299 52.269 27.618 52.268 27.699 54.415" fill="#fff"/><polygon points="28.264 54.411 27.946 54.413 27.865 52.268 28.182 52.267 28.264 54.411" fill="#fff"/><polygon points="28.827 54.406 28.51 54.409 28.429 52.266 28.746 52.266 28.827 54.406" fill="#fff"/><polygon points="29.388 54.401 29.073 54.404 28.992 52.265 29.307 52.264 29.388 54.401" fill="#fff"/><polygon points="29.948 54.397 29.634 54.399 29.552 52.263 29.867 52.263 29.948 54.397" fill="#fff"/><polygon points="30.506 54.392 30.193 54.395 30.112 52.262 30.425 52.261 30.506 54.392" fill="#fff"/><polygon points="31.063 54.388 30.75 54.39 30.669 52.261 30.982 52.26 31.063 54.388" fill="#fff"/><polygon points="31.618 54.383 31.306 54.386 31.225 52.259 31.537 52.258 31.618 54.383" fill="#fff"/><polygon points="32.171 54.379 31.86 54.381 31.78 52.258 32.091 52.257 32.171 54.379" fill="#fff"/><polygon points="32.723 54.374 32.413 54.377 32.332 52.256 32.642 52.256 32.723 54.374" fill="#fff"/><polygon points="33.273 54.37 32.964 54.372 32.883 52.255 33.193 52.254 33.273 54.37" fill="#fff"/><polygon points="33.822 54.365 33.513 54.368 33.433 52.254 33.741 52.253 33.822 54.365" fill="#fff"/></g><g opacity="0.69"><polygon points="24.85 54.438 24.527 54.441 24.457 52.599 24.78 52.598 24.85 54.438" fill="url(#linear-gradient-67)"/><polygon points="25.423 54.434 25.101 54.436 25.093 54.215 25.415 54.212 25.423 54.434" fill="url(#linear-gradient-68)"/><polygon points="25.995 54.429 25.674 54.432 25.626 53.175 25.947 53.173 25.995 54.429" fill="url(#linear-gradient-69)"/><polygon points="26.565 54.424 26.244 54.427 26.224 53.885 26.544 53.883 26.565 54.424" fill="url(#linear-gradient-70)"/><polygon points="27.133 54.42 26.813 54.422 26.761 53.036 27.08 53.035 27.133 54.42" fill="url(#linear-gradient-71)"/><polygon points="27.699 54.415 27.381 54.418 27.344 53.463 27.663 53.461 27.699 54.415" fill="url(#linear-gradient-72)"/><polygon points="28.264 54.411 27.946 54.413 27.883 52.758 28.201 52.757 28.264 54.411" fill="url(#linear-gradient-73)"/><polygon points="28.827 54.406 28.51 54.409 28.441 52.586 28.758 52.585 28.827 54.406" fill="url(#linear-gradient-74)"/><polygon points="29.388 54.401 29.073 54.404 29.038 53.494 29.354 53.492 29.388 54.401" fill="url(#linear-gradient-75)"/><polygon points="29.948 54.397 29.634 54.399 29.558 52.41 29.873 52.409 29.948 54.397" fill="url(#linear-gradient-76)"/><polygon points="30.506 54.392 30.193 54.395 30.128 52.703 30.442 52.702 30.506 54.392" fill="url(#linear-gradient-77)"/><polygon points="31.063 54.388 30.75 54.39 30.733 53.937 31.046 53.935 31.063 54.388" fill="url(#linear-gradient-78)"/><polygon points="31.618 54.383 31.306 54.386 31.266 53.323 31.578 53.321 31.618 54.383" fill="url(#linear-gradient-79)"/><polygon points="32.171 54.379 31.86 54.381 31.802 52.851 32.113 52.85 32.171 54.379" fill="url(#linear-gradient-80)"/><polygon points="32.723 54.374 32.413 54.377 32.37 53.262 32.681 53.261 32.723 54.374" fill="url(#linear-gradient-81)"/><polygon points="33.273 54.37 32.964 54.372 32.898 52.646 33.208 52.645 33.273 54.37" fill="url(#linear-gradient-82)"/><polygon points="33.822 54.365 33.513 54.368 33.44 52.452 33.749 52.451 33.822 54.365" fill="url(#linear-gradient-83)"/></g><path d="M19.346,58.807l-.1-2.553a.734.734,0,0,1,.79-.707l14.586,0a.752.752,0,0,1,.779.678L35.5,58.67a.7.7,0,0,1-.728.686l-14.58.149A.794.794,0,0,1,19.346,58.807Z" opacity="0.74" fill="url(#linear-gradient-84)"/><path d="M20.78,56.485a.34.34,0,0,1-.364.328.37.37,0,0,1-.389-.326.339.339,0,0,1,.364-.327A.37.37,0,0,1,20.78,56.485Z" fill="#fff" opacity="0.4"/><path d="M21.968,56.482a.339.339,0,0,1-.362.327.369.369,0,0,1-.387-.325.338.338,0,0,1,.362-.326A.369.369,0,0,1,21.968,56.482Z" fill="#fff" opacity="0.4"/><path d="M23.148,56.479a.337.337,0,0,1-.359.326.367.367,0,0,1-.385-.324.337.337,0,0,1,.36-.325A.366.366,0,0,1,23.148,56.479Z" fill="#fff" opacity="0.4"/><polygon points="34.677 58.743 23.979 58.835 23.877 56.154 34.578 56.136 34.677 58.743" fill="url(#linear-gradient-85)"/><g opacity="0.3" style="mix-blend-mode:soft-light"><polygon points="25.015 58.638 24.692 58.64 24.609 56.476 24.933 56.475 25.015 58.638" fill="#fff"/><polygon points="25.588 58.633 25.266 58.635 25.184 56.474 25.506 56.473 25.588 58.633" fill="#fff"/><polygon points="26.159 58.628 25.838 58.631 25.756 56.473 26.077 56.472 26.159 58.628" fill="#fff"/><polygon points="26.729 58.624 26.409 58.626 26.327 56.471 26.647 56.47 26.729 58.624" fill="#fff"/><polygon points="27.297 58.619 26.978 58.622 26.896 56.47 27.216 56.469 27.297 58.619" fill="#fff"/><polygon points="27.864 58.614 27.545 58.617 27.464 56.468 27.782 56.468 27.864 58.614" fill="#fff"/><polygon points="28.429 58.61 28.111 58.612 28.03 56.467 28.347 56.466 28.429 58.61" fill="#fff"/><polygon points="28.992 58.605 28.675 58.608 28.594 56.465 28.91 56.465 28.992 58.605" fill="#fff"/><polygon points="29.553 58.601 29.237 58.603 29.156 56.464 29.472 56.463 29.553 58.601" fill="#fff"/><polygon points="30.113 58.596 29.798 58.599 29.717 56.463 30.032 56.462 30.113 58.596" fill="#fff"/><polygon points="30.671 58.591 30.357 58.594 30.276 56.461 30.59 56.46 30.671 58.591" fill="#fff"/><polygon points="31.228 58.587 30.915 58.59 30.834 56.46 31.147 56.459 31.228 58.587" fill="#fff"/><polygon points="31.783 58.582 31.471 58.585 31.39 56.458 31.702 56.458 31.783 58.582" fill="#fff"/><polygon points="32.336 58.578 32.025 58.58 31.944 56.457 32.255 56.456 32.336 58.578" fill="#fff"/><polygon points="32.888 58.573 32.577 58.576 32.497 56.456 32.807 56.455 32.888 58.573" fill="#fff"/><polygon points="33.438 58.569 33.128 58.571 33.048 56.454 33.357 56.453 33.438 58.569" fill="#fff"/><polygon points="33.986 58.565 33.678 58.567 33.598 56.453 33.906 56.452 33.986 58.565" fill="#fff"/></g><g opacity="0.69"><polygon points="25.015 58.638 24.692 58.64 24.622 56.798 24.945 56.797 25.015 58.638" fill="url(#linear-gradient-86)"/><polygon points="25.588 58.633 25.266 58.635 25.257 58.414 25.58 58.412 25.588 58.633" fill="url(#linear-gradient-87)"/><polygon points="26.159 58.628 25.838 58.631 25.79 57.374 26.112 57.372 26.159 58.628" fill="url(#linear-gradient-88)"/><polygon points="26.729 58.624 26.409 58.626 26.388 58.084 26.709 58.082 26.729 58.624" fill="url(#linear-gradient-89)"/><polygon points="27.297 58.619 26.978 58.622 26.925 57.235 27.245 57.234 27.297 58.619" fill="url(#linear-gradient-90)"/><polygon points="27.864 58.614 27.545 58.617 27.509 57.662 27.828 57.661 27.864 58.614" fill="url(#linear-gradient-91)"/><polygon points="28.429 58.61 28.111 58.612 28.048 56.957 28.366 56.956 28.429 58.61" fill="url(#linear-gradient-92)"/><polygon points="28.992 58.605 28.675 58.608 28.606 56.785 28.922 56.784 28.992 58.605" fill="url(#linear-gradient-93)"/><polygon points="29.553 58.601 29.237 58.603 29.203 57.693 29.519 57.691 29.553 58.601" fill="url(#linear-gradient-94)"/><polygon points="30.113 58.596 29.798 58.599 29.723 56.609 30.037 56.608 30.113 58.596" fill="url(#linear-gradient-95)"/><polygon points="30.671 58.591 30.357 58.594 30.293 56.902 30.607 56.901 30.671 58.591" fill="url(#linear-gradient-96)"/><polygon points="31.228 58.587 30.915 58.59 30.898 58.136 31.21 58.134 31.228 58.587" fill="url(#linear-gradient-97)"/><polygon points="31.783 58.582 31.471 58.585 31.43 57.522 31.742 57.52 31.783 58.582" fill="url(#linear-gradient-98)"/><polygon points="32.336 58.578 32.025 58.58 31.967 57.05 32.278 57.049 32.336 58.578" fill="url(#linear-gradient-99)"/><polygon points="32.888 58.573 32.577 58.576 32.535 57.462 32.845 57.46 32.888 58.573" fill="url(#linear-gradient-100)"/><polygon points="33.438 58.569 33.128 58.571 33.063 56.845 33.372 56.844 33.438 58.569" fill="url(#linear-gradient-101)"/><polygon points="33.986 58.565 33.678 58.567 33.605 56.651 33.914 56.65 33.986 58.565" fill="url(#linear-gradient-102)"/></g><path d="M19.543,62.935l-.1-2.552a.735.735,0,0,1,.79-.708l14.586,0a.753.753,0,0,1,.779.678l.093,2.447a.694.694,0,0,1-.728.686l-14.58.149A.794.794,0,0,1,19.543,62.935Z" opacity="0.74" fill="url(#linear-gradient-103)"/><path d="M20.977,60.614a.339.339,0,0,1-.364.327.37.37,0,0,1-.389-.325.34.34,0,0,1,.364-.328A.371.371,0,0,1,20.977,60.614Z" fill="#fff" opacity="0.4"/><path d="M22.165,60.611a.339.339,0,0,1-.362.326.369.369,0,0,1-.387-.324.339.339,0,0,1,.362-.327A.369.369,0,0,1,22.165,60.611Z" fill="#fff" opacity="0.4"/><path d="M23.345,60.608a.336.336,0,0,1-.359.325.367.367,0,0,1-.385-.324.337.337,0,0,1,.36-.325A.366.366,0,0,1,23.345,60.608Z" fill="#fff" opacity="0.4"/><polygon points="34.874 62.871 24.176 62.963 24.074 60.282 34.775 60.264 34.874 62.871" fill="url(#linear-gradient-104)"/><g opacity="0.3" style="mix-blend-mode:soft-light"><polygon points="25.212 62.766 24.889 62.768 24.806 60.604 25.13 60.603 25.212 62.766" fill="#fff"/><polygon points="25.785 62.761 25.463 62.764 25.381 60.602 25.703 60.602 25.785 62.761" fill="#fff"/><polygon points="26.356 62.756 26.035 62.759 25.953 60.601 26.274 60.6 26.356 62.756" fill="#fff"/><polygon points="26.926 62.752 26.606 62.754 26.524 60.599 26.844 60.599 26.926 62.752" fill="#fff"/><polygon points="27.494 62.747 27.175 62.75 27.093 60.598 27.413 60.597 27.494 62.747" fill="#fff"/><polygon points="28.061 62.743 27.742 62.745 27.661 60.597 27.979 60.596 28.061 62.743" fill="#fff"/><polygon points="28.625 62.738 28.308 62.741 28.226 60.595 28.544 60.594 28.625 62.738" fill="#fff"/><polygon points="29.189 62.733 28.872 62.736 28.791 60.594 29.107 60.593 29.189 62.733" fill="#fff"/><polygon points="29.75 62.729 29.434 62.731 29.353 60.592 29.669 60.591 29.75 62.729" fill="#fff"/><polygon points="30.31 62.724 29.995 62.727 29.914 60.591 30.229 60.59 30.31 62.724" fill="#fff"/><polygon points="30.868 62.72 30.554 62.722 30.473 60.589 30.787 60.589 30.868 62.72" fill="#fff"/><polygon points="31.425 62.715 31.112 62.718 31.031 60.588 31.344 60.587 31.425 62.715" fill="#fff"/><polygon points="31.98 62.711 31.668 62.713 31.587 60.587 31.899 60.586 31.98 62.711" fill="#fff"/><polygon points="32.533 62.706 32.222 62.709 32.141 60.585 32.452 60.584 32.533 62.706" fill="#fff"/><polygon points="33.085 62.702 32.774 62.704 32.694 60.584 33.004 60.583 33.085 62.702" fill="#fff"/><polygon points="33.635 62.697 33.325 62.7 33.245 60.582 33.554 60.581 33.635 62.697" fill="#fff"/><polygon points="34.183 62.693 33.875 62.695 33.795 60.581 34.103 60.58 34.183 62.693" fill="#fff"/></g><g opacity="0.69"><polygon points="25.212 62.766 24.889 62.768 24.819 60.927 25.142 60.925 25.212 62.766" fill="url(#linear-gradient-105)"/><polygon points="25.785 62.761 25.463 62.764 25.454 62.542 25.777 62.54 25.785 62.761" fill="url(#linear-gradient-106)"/><polygon points="26.356 62.756 26.035 62.759 25.987 61.502 26.309 61.5 26.356 62.756" fill="url(#linear-gradient-107)"/><polygon points="26.926 62.752 26.606 62.754 26.585 62.212 26.906 62.21 26.926 62.752" fill="url(#linear-gradient-108)"/><polygon points="27.494 62.747 27.175 62.75 27.122 61.363 27.442 61.362 27.494 62.747" fill="url(#linear-gradient-109)"/><polygon points="28.061 62.743 27.742 62.745 27.706 61.791 28.024 61.789 28.061 62.743" fill="url(#linear-gradient-110)"/><polygon points="28.625 62.738 28.308 62.741 28.245 61.085 28.563 61.084 28.625 62.738" fill="url(#linear-gradient-111)"/><polygon points="29.189 62.733 28.872 62.736 28.803 60.913 29.119 60.912 29.189 62.733" fill="url(#linear-gradient-112)"/><polygon points="29.75 62.729 29.434 62.731 29.4 61.821 29.716 61.819 29.75 62.729" fill="url(#linear-gradient-113)"/><polygon points="30.31 62.724 29.995 62.727 29.92 60.737 30.234 60.736 30.31 62.724" fill="url(#linear-gradient-114)"/><polygon points="30.868 62.72 30.554 62.722 30.49 61.03 30.804 61.029 30.868 62.72" fill="url(#linear-gradient-115)"/><polygon points="31.425 62.715 31.112 62.718 31.095 62.265 31.407 62.262 31.425 62.715" fill="url(#linear-gradient-116)"/><polygon points="31.98 62.711 31.668 62.713 31.627 61.65 31.939 61.648 31.98 62.711" fill="url(#linear-gradient-117)"/><polygon points="32.533 62.706 32.222 62.709 32.164 61.178 32.475 61.177 32.533 62.706" fill="url(#linear-gradient-118)"/><polygon points="33.085 62.702 32.774 62.704 32.732 61.59 33.042 61.588 33.085 62.702" fill="url(#linear-gradient-119)"/><polygon points="33.635 62.697 33.325 62.7 33.26 60.974 33.569 60.973 33.635 62.697" fill="url(#linear-gradient-120)"/><polygon points="34.183 62.693 33.875 62.695 33.802 60.779 34.11 60.779 34.183 62.693" fill="url(#linear-gradient-121)"/></g></g></g></g></svg>