<svg xmlns="http://www.w3.org/2000/svg" viewBox="0 0 150 141.355"><g id="Layer_2" data-name="Layer 2"><g id="Layer_1-2" data-name="Layer 1"><path id="Floor" d="M21.966,67.213c-29.289,16.961-29.288,44.46,0,61.421s76.777,16.961,106.066,0,29.288-44.46,0-61.421S51.255,50.251,21.966,67.213Z" fill="#a7a9ac"/><path id="Shadow" d="M115.809,99.8a1.683,1.683,0,0,1-1.629-1.353l-.31-1.641a19.694,19.694,0,0,1-2.093-.52l-3.067,1.425a1.913,1.913,0,0,1-.8.17,1.963,1.963,0,0,1-.977-.25l-3.1-1.794a1.424,1.424,0,0,1-.121-2.425l1.719-1.24c-.113-.159-.218-.319-.314-.482l-3.846-.244a1.612,1.612,0,0,1-1.5-1.605v-2.31a1.61,1.61,0,0,1,1.5-1.6l3.847-.244q.144-.245.314-.482l-1.719-1.24a1.425,1.425,0,0,1,.121-2.426l3.1-1.793a1.966,1.966,0,0,1,.978-.251,1.927,1.927,0,0,1,.8.17l3.067,1.425a19.815,19.815,0,0,1,2.093-.519l.31-1.641a1.683,1.683,0,0,1,1.629-1.353h4.554a1.682,1.682,0,0,1,1.629,1.353l.311,1.641a19.736,19.736,0,0,1,2.092.519l3.068-1.425a1.92,1.92,0,0,1,.8-.17,1.969,1.969,0,0,1,.977.25l3.1,1.794a1.425,1.425,0,0,1,.122,2.425l-1.72,1.241c.113.158.217.319.314.482l3.846.244a1.609,1.609,0,0,1,1.5,1.6v2.31a1.609,1.609,0,0,1-1.5,1.6l-3.845.244c-.1.164-.2.324-.314.483l1.719,1.24a1.425,1.425,0,0,1-.122,2.426l-3.1,1.793a1.964,1.964,0,0,1-.978.25h0a1.908,1.908,0,0,1-.8-.17L124.4,96.287a19.694,19.694,0,0,1-2.093.52l-.311,1.641a1.682,1.682,0,0,1-1.629,1.353Zm2.278-14.2a9.553,9.553,0,0,0-4.637,1.095c-1,.578-1.572,1.305-1.572,2s.573,1.417,1.572,2a10.364,10.364,0,0,0,9.273,0c1-.578,1.572-1.305,1.572-2s-.573-1.417-1.572-2A9.549,9.549,0,0,0,118.087,85.6Z" fill="#e1e1e1"/><path id="Shadow-2" data-name="Shadow" d="M67.207,108.767a13.27,13.27,0,0,1-4.767,2.762,4.527,4.527,0,0,1-4.894-1.647c-1.713-2.533-.82-7.036.722-9.326a17.737,17.737,0,0,1,1.7-2.145c4.913-5.3,12.158-6.188,18.561-4.808a24.944,24.944,0,0,1,6.645,2.485,12.621,12.621,0,0,1,5.463,5.027,3.114,3.114,0,0,1-.165,3.308,5.164,5.164,0,0,1-3.092,1.606c-2.145.449-4.452.07-7.531-.332a18.711,18.711,0,0,0-6.724.041A14.975,14.975,0,0,0,67.207,108.767Z" fill="#e1e1e1"/><path id="Shadow-3" data-name="Shadow" d="M68.4,128.961a2.918,2.918,0,0,1-2.827-2.347l-.736-3.887a41.219,41.219,0,0,1-4.877-1.192.512.512,0,0,0-.072,0,.763.763,0,0,0-.153.014l-6.592,3.063a3.448,3.448,0,0,1-1.437.3h0a3.556,3.556,0,0,1-1.752-.445l-6.541-3.788a2.381,2.381,0,0,1-.2-4.071l4.145-2.992a14.568,14.568,0,0,1-1.171-1.76l-8.455-.537a2.771,2.771,0,0,1-2.587-2.764v-4.878a2.772,2.772,0,0,1,2.587-2.764l8.455-.536a14.529,14.529,0,0,1,1.171-1.76l-4.146-2.992a2.382,2.382,0,0,1,.2-4.071l6.542-3.788a3.546,3.546,0,0,1,1.752-.445,3.439,3.439,0,0,1,1.437.3l6.592,3.064a.859.859,0,0,0,.153.014.512.512,0,0,0,.072,0A41.127,41.127,0,0,1,64.836,89.5l.736-3.887A2.919,2.919,0,0,1,68.4,83.268h9.619a2.918,2.918,0,0,1,2.827,2.347L81.58,89.5A41.028,41.028,0,0,1,86.457,90.7c.013,0,.037,0,.072,0a.76.76,0,0,0,.152-.014l6.593-3.063a3.433,3.433,0,0,1,1.438-.3,3.537,3.537,0,0,1,1.75.444L103,91.552a2.383,2.383,0,0,1,.2,4.071l-4.146,2.992a14.481,14.481,0,0,1,1.17,1.76l8.457.537a2.773,2.773,0,0,1,2.586,2.764v4.878a2.769,2.769,0,0,1-2.586,2.763l-8.456.537a14.568,14.568,0,0,1-1.171,1.76l4.145,2.992a2.381,2.381,0,0,1-.2,4.07l-6.542,3.789a3.55,3.55,0,0,1-1.751.445,3.42,3.42,0,0,1-1.437-.3l-6.592-3.063a.767.767,0,0,0-.154-.014c-.034,0-.058,0-.07,0a40.946,40.946,0,0,1-4.878,1.193l-.736,3.888a2.922,2.922,0,0,1-2.827,2.346ZM58.492,98.688c-3.574,2.069-5.542,4.707-5.542,7.426s1.968,5.358,5.542,7.427a29.864,29.864,0,0,0,14.717,3.5,29.859,29.859,0,0,0,14.715-3.5c3.573-2.069,5.541-4.706,5.541-7.426s-1.968-5.358-5.541-7.427a29.865,29.865,0,0,0-14.716-3.5A29.871,29.871,0,0,0,58.492,98.688Z" fill="#e1e1e1"/><path id="Shadow-4" data-name="Shadow" d="M25.316,99.8a1.683,1.683,0,0,1-1.629-1.353l-.31-1.641a19.754,19.754,0,0,1-2.093-.52l-3.067,1.425a1.913,1.913,0,0,1-.8.17,1.957,1.957,0,0,1-.976-.25l-3.1-1.794a1.424,1.424,0,0,1-.121-2.425l1.719-1.24c-.112-.159-.217-.319-.314-.482l-3.846-.244a1.612,1.612,0,0,1-1.5-1.605v-2.31a1.61,1.61,0,0,1,1.5-1.6l3.847-.244q.145-.245.314-.482l-1.719-1.24a1.425,1.425,0,0,1,.122-2.426l3.1-1.793a1.966,1.966,0,0,1,.978-.251,1.924,1.924,0,0,1,.8.17l3.067,1.425a19.815,19.815,0,0,1,2.093-.519l.311-1.641a1.682,1.682,0,0,1,1.629-1.353h4.554A1.683,1.683,0,0,1,31.5,78.926l.31,1.641a19.815,19.815,0,0,1,2.093.519l3.067-1.425a1.92,1.92,0,0,1,.8-.17,1.975,1.975,0,0,1,.978.25l3.1,1.794a1.425,1.425,0,0,1,.122,2.425L40.251,85.2c.113.158.217.319.315.482l3.845.244a1.609,1.609,0,0,1,1.5,1.6v2.31a1.609,1.609,0,0,1-1.5,1.6l-3.845.244c-.1.164-.2.324-.314.483l1.719,1.24a1.425,1.425,0,0,1-.122,2.426l-3.1,1.793a1.963,1.963,0,0,1-.977.25h0a1.913,1.913,0,0,1-.8-.17L33.9,96.287a19.694,19.694,0,0,1-2.093.52l-.31,1.641A1.684,1.684,0,0,1,29.87,99.8Zm2.278-14.2a9.553,9.553,0,0,0-4.637,1.095c-1,.578-1.572,1.305-1.572,2s.573,1.417,1.572,2a9.553,9.553,0,0,0,4.637,1.095,9.546,9.546,0,0,0,4.636-1.095c1-.578,1.572-1.305,1.572-2s-.573-1.417-1.572-2A9.546,9.546,0,0,0,27.594,85.6Z" fill="#e1e1e1"/><g id="Gear"><path d="M131.746,78.877l-3.1-1.794a.834.834,0,0,0-.686-.031l-3.139,1.459a1.146,1.146,0,0,1-.718.043,18.665,18.665,0,0,0-2.437-.581.594.594,0,0,1-.454-.442l-.393-2.075a.485.485,0,0,0-.459-.381H115.81a.485.485,0,0,0-.459.381l-.393,2.075a.594.594,0,0,1-.454.442,18.7,18.7,0,0,0-2.437.581,1.147,1.147,0,0,1-.718-.043l-3.14-1.459a.832.832,0,0,0-.685.031l-3.1,1.794a.25.25,0,0,0-.144.211h0l-.008,2.693h0a.263.263,0,0,0,.123.21l1.425,1.028a.677.677,0,0,1-.351.146l-4.128.263a.417.417,0,0,0-.385.412V85.6l-.007,3.239a.418.418,0,0,0,.386.412l4.127.262a.7.7,0,0,1,.359.152l-1.417,1.023a.257.257,0,0,0-.123.206h0l-.008,2.695h0a.254.254,0,0,0,.144.211l3.1,1.793a.832.832,0,0,0,.685.031l3.139-1.459a1.147,1.147,0,0,1,.718-.043,18.522,18.522,0,0,0,2.438.582.593.593,0,0,1,.454.442l.393,2.075a.486.486,0,0,0,.458.381h4.554a.487.487,0,0,0,.459-.381l.392-2.075a.593.593,0,0,1,.454-.442,18.665,18.665,0,0,0,2.437-.581,1.149,1.149,0,0,1,.719.042l3.139,1.459a.83.83,0,0,0,.686-.031l3.1-1.793a.254.254,0,0,0,.144-.206h0l.007-2.7h0a.257.257,0,0,0-.123-.206l-1.425-1.029a.7.7,0,0,1,.352-.146l4.127-.262a.418.418,0,0,0,.386-.412l0-2.682,0-.011v-2.31a.418.418,0,0,0-.386-.412l-4.127-.262a.681.681,0,0,1-.358-.152l1.417-1.022a.266.266,0,0,0,.123-.207h0l.007-2.7h0A.254.254,0,0,0,131.746,78.877Zm-20.908,6.977a4.028,4.028,0,0,1,2.015-2.127,11.531,11.531,0,0,1,10.465,0,4.786,4.786,0,0,1,2.063,1.98,4.166,4.166,0,0,1-2.062,2.316,11.531,11.531,0,0,1-10.465,0A4.284,4.284,0,0,1,110.838,85.854Z" fill="#1a2e35"/><path d="M106.029,87.194a.761.761,0,0,0-.558-.373l-4.128-.261a.416.416,0,0,1-.384-.412V85.6l-.007,3.238a.42.42,0,0,0,.386.413l4.128.261a.692.692,0,0,1,.363.15l1.033-.746a.329.329,0,0,0,.045-.505A6.312,6.312,0,0,1,106.029,87.194Zm-1.756-5.413h0a.257.257,0,0,0,.122.208l1.425,1.03a.708.708,0,0,0,.205-.227,6.3,6.3,0,0,1,.877-1.22.327.327,0,0,0-.046-.5L104.4,79.3a.319.319,0,0,1-.124-.181Z" opacity="0.1"/><path d="M135.211,86.2a.426.426,0,0,1-.382.36l-4.126.261a.546.546,0,0,0-.208.055l0,2.7a.57.57,0,0,1,.2-.059l4.127-.264a.416.416,0,0,0,.387-.41Zm-3.32-7.114,0,0a.18.18,0,0,1-.016.083.17.17,0,0,1-.05.08.294.294,0,0,1-.056.048l-2.455,1.771a.308.308,0,0,0-.059.054.317.317,0,0,0-.08.256c0,.02.007.036.011.053a.4.4,0,0,0,.083.143.455.455,0,0,1,.046.054,6.234,6.234,0,0,1,.832,1.165.792.792,0,0,0,.195.222l1.42-1.022a.265.265,0,0,0,.122-.207h0Zm0,11.834a.271.271,0,0,1-.145.19l-3.1,1.793a.815.815,0,0,1-.481.084l0,2.69a.808.808,0,0,0,.479-.081l3.1-1.794a.251.251,0,0,0,.145-.2Zm-20.233.479a1.03,1.03,0,0,0-.31.074l-3.139,1.46a.652.652,0,0,1-.28.06l-.007,2.688a.791.791,0,0,0,.282-.055l3.138-1.46a.988.988,0,0,1,.308-.071Zm9.088,3.306a.478.478,0,0,1-.381.2l-4.556,0a.459.459,0,0,1-.279-.1l0,2.695a.473.473,0,0,0,.276.1h4.552a.489.489,0,0,0,.4-.23Z" fill="#2b454e"/><path d="M127.963,77.052l-3.139,1.459a1.146,1.146,0,0,1-.718.043,18.7,18.7,0,0,0-2.437-.581.594.594,0,0,1-.454-.442l-.393-2.075a.485.485,0,0,0-.459-.381H115.81a.485.485,0,0,0-.459.381l-.393,2.075a.594.594,0,0,1-.454.442,18.7,18.7,0,0,0-2.437.581,1.147,1.147,0,0,1-.718-.043l-3.14-1.459a.832.832,0,0,0-.685.031l-3.1,1.794a.232.232,0,0,0-.021.42l2.454,1.771a.329.329,0,0,1,.046.506,6.192,6.192,0,0,0-.877,1.219.759.759,0,0,1-.557.371l-4.128.263a.417.417,0,0,0-.385.412v2.309a.417.417,0,0,0,.385.412l4.128.262a.761.761,0,0,1,.557.372,6.18,6.18,0,0,0,.877,1.219.328.328,0,0,1-.046.505l-2.454,1.772a.232.232,0,0,0,.021.42l3.1,1.793a.828.828,0,0,0,.685.031l3.14-1.459a1.16,1.16,0,0,1,.718-.043,18.507,18.507,0,0,0,2.437.582.594.594,0,0,1,.454.442l.393,2.075a.486.486,0,0,0,.458.381h4.554a.486.486,0,0,0,.459-.381l.393-2.075a.592.592,0,0,1,.453-.442,18.68,18.68,0,0,0,2.438-.581,1.154,1.154,0,0,1,.718.042l3.14,1.459a.828.828,0,0,0,.685-.031l3.1-1.793a.232.232,0,0,0,.021-.42l-2.454-1.772a.328.328,0,0,1-.046-.505,6.174,6.174,0,0,0,.876-1.219.765.765,0,0,1,.558-.372l4.127-.262a.418.418,0,0,0,.386-.412v-2.31a.418.418,0,0,0-.386-.412l-4.127-.262a.758.758,0,0,1-.557-.371,6.192,6.192,0,0,0-.877-1.219.329.329,0,0,1,.046-.506l2.454-1.771a.232.232,0,0,0-.021-.42l-3.1-1.794A.834.834,0,0,0,127.963,77.052Zm-4.644,4.911c2.889,1.674,2.889,4.387,0,6.06a11.531,11.531,0,0,1-10.465,0c-2.89-1.673-2.89-4.386,0-6.06A11.538,11.538,0,0,1,123.319,81.963Z" fill="#375a64"/></g><g id="Gear-2" data-name="Gear"><path d="M41.253,78.877l-3.1-1.794a.832.832,0,0,0-.685-.031l-3.14,1.459a1.146,1.146,0,0,1-.718.043,18.665,18.665,0,0,0-2.437-.581.594.594,0,0,1-.454-.442l-.393-2.075a.485.485,0,0,0-.458-.381H25.317a.485.485,0,0,0-.459.381l-.393,2.075a.594.594,0,0,1-.454.442,18.65,18.65,0,0,0-2.436.581,1.15,1.15,0,0,1-.719-.043l-3.139-1.459a.834.834,0,0,0-.686.031l-3.1,1.794a.252.252,0,0,0-.144.211h0l-.008,2.693h0a.264.264,0,0,0,.124.21l1.424,1.028a.677.677,0,0,1-.351.146l-4.127.263a.418.418,0,0,0-.386.412V85.6l-.006,3.239a.417.417,0,0,0,.385.412l4.128.262a.7.7,0,0,1,.358.152L13.913,90.69a.257.257,0,0,0-.123.206h0l-.008,2.695h0a.253.253,0,0,0,.145.211l3.1,1.793a.832.832,0,0,0,.685.031l3.14-1.459a1.146,1.146,0,0,1,.718-.043A18.507,18.507,0,0,0,24,94.707a.591.591,0,0,1,.454.442l.393,2.075a.486.486,0,0,0,.458.381h4.554a.486.486,0,0,0,.459-.381l.392-2.075a.594.594,0,0,1,.454-.442,18.665,18.665,0,0,0,2.437-.581,1.149,1.149,0,0,1,.719.042l3.139,1.459a.83.83,0,0,0,.686-.031l3.1-1.793a.252.252,0,0,0,.144-.206h0l.007-2.7h0a.257.257,0,0,0-.123-.206l-1.425-1.029a.7.7,0,0,1,.352-.146l4.127-.262a.418.418,0,0,0,.386-.412l.005-2.682,0-.011v-2.31a.418.418,0,0,0-.385-.412l-4.128-.262a.681.681,0,0,1-.358-.152l1.417-1.022a.263.263,0,0,0,.123-.207h0l.007-2.7h0A.252.252,0,0,0,41.253,78.877ZM20.345,85.854a4.032,4.032,0,0,1,2.015-2.127,11.531,11.531,0,0,1,10.465,0,4.786,4.786,0,0,1,2.063,1.98,4.166,4.166,0,0,1-2.062,2.316,11.531,11.531,0,0,1-10.465,0A4.284,4.284,0,0,1,20.345,85.854Z" fill="#1a2e35"/><path d="M15.536,87.194a.761.761,0,0,0-.558-.373L10.85,86.56a.416.416,0,0,1-.384-.412V85.6l-.007,3.238a.42.42,0,0,0,.386.413l4.128.261a.692.692,0,0,1,.363.15l1.033-.746a.328.328,0,0,0,.045-.505A6.312,6.312,0,0,1,15.536,87.194ZM13.78,81.781h0a.257.257,0,0,0,.122.208l1.426,1.03a.717.717,0,0,0,.2-.227,6.263,6.263,0,0,1,.878-1.22.329.329,0,0,0-.046-.5L13.911,79.3a.319.319,0,0,1-.124-.181Z" opacity="0.1"/><path d="M44.718,86.2a.426.426,0,0,1-.382.36l-4.126.261a.555.555,0,0,0-.208.055L40,89.575a.57.57,0,0,1,.2-.059l4.128-.264a.416.416,0,0,0,.386-.41ZM41.4,79.087l0,0a.168.168,0,0,1-.016.083.17.17,0,0,1-.05.08.294.294,0,0,1-.056.048l-2.455,1.771a.308.308,0,0,0-.059.054.332.332,0,0,0-.077.153.325.325,0,0,0,0,.1.377.377,0,0,0,.012.053.4.4,0,0,0,.082.143.455.455,0,0,1,.046.054,6.234,6.234,0,0,1,.832,1.165.792.792,0,0,0,.2.222l1.42-1.022a.269.269,0,0,0,.123-.207h0Zm0,11.834a.27.27,0,0,1-.144.19l-3.1,1.793a.813.813,0,0,1-.48.084l0,2.69a.808.808,0,0,0,.479-.081l3.1-1.794a.255.255,0,0,0,.146-.2ZM21.165,91.4a1.03,1.03,0,0,0-.31.074l-3.138,1.46a.658.658,0,0,1-.28.06l-.007,2.688a.785.785,0,0,0,.281-.055l3.138-1.46a.988.988,0,0,1,.308-.071Zm9.088,3.306a.478.478,0,0,1-.381.2l-4.556,0a.462.462,0,0,1-.279-.1l0,2.695a.473.473,0,0,0,.276.1h4.552a.487.487,0,0,0,.4-.23Z" fill="#2b454e"/><path d="M37.471,77.052l-3.14,1.459a1.146,1.146,0,0,1-.718.043,18.665,18.665,0,0,0-2.437-.581.594.594,0,0,1-.454-.442l-.393-2.075a.485.485,0,0,0-.458-.381H25.317a.485.485,0,0,0-.459.381l-.393,2.075a.594.594,0,0,1-.454.442,18.65,18.65,0,0,0-2.436.581,1.15,1.15,0,0,1-.719-.043l-3.139-1.459a.834.834,0,0,0-.686.031l-3.1,1.794a.232.232,0,0,0-.021.42l2.455,1.771a.33.33,0,0,1,.045.506,6.186,6.186,0,0,0-.876,1.219.761.761,0,0,1-.558.371l-4.127.263a.418.418,0,0,0-.386.412v2.309a.417.417,0,0,0,.385.412l4.128.262a.761.761,0,0,1,.557.372,6.221,6.221,0,0,0,.877,1.219.329.329,0,0,1-.045.505L13.913,90.69a.232.232,0,0,0,.021.42l3.1,1.793a.828.828,0,0,0,.685.031l3.14-1.459a1.161,1.161,0,0,1,.718-.043,18.507,18.507,0,0,0,2.437.582.594.594,0,0,1,.454.442l.393,2.075a.486.486,0,0,0,.458.381H29.87a.486.486,0,0,0,.459-.381l.393-2.075a.593.593,0,0,1,.453-.442,18.68,18.68,0,0,0,2.438-.581,1.153,1.153,0,0,1,.718.042l3.14,1.459a.828.828,0,0,0,.685-.031l3.1-1.793a.232.232,0,0,0,.021-.42L38.82,88.918a.328.328,0,0,1-.046-.505,6.221,6.221,0,0,0,.877-1.219.762.762,0,0,1,.557-.372l4.128-.262a.417.417,0,0,0,.385-.412v-2.31a.418.418,0,0,0-.385-.412l-4.128-.262a.759.759,0,0,1-.557-.371,6.151,6.151,0,0,0-.877-1.219.33.33,0,0,1,.046-.506L41.274,79.3a.231.231,0,0,0-.021-.42l-3.1-1.794A.832.832,0,0,0,37.471,77.052Zm-4.645,4.911c2.89,1.674,2.89,4.387,0,6.06a11.531,11.531,0,0,1-10.465,0c-2.889-1.673-2.889-4.386,0-6.06A11.538,11.538,0,0,1,32.826,81.963Z" fill="#375a64"/></g><g id="Gear-3" data-name="Gear"><path d="M44.053,87.526h0l.016,5.7,0,0a.552.552,0,0,0,.259.436l2.993,2.16a1.459,1.459,0,0,1-.757.321l-8.717.553a.883.883,0,0,0-.814.871v4.878c0,.008,0,.015,0,.023l.011,5.665a.882.882,0,0,0,.815.87l8.717.553a1.453,1.453,0,0,1,.742.309l-3.009,2.172a.547.547,0,0,0-.259.436h0l.016,5.7h0a.542.542,0,0,0,.306.436l6.541,3.788a1.76,1.76,0,0,0,1.448.065l6.631-3.081a2.425,2.425,0,0,1,1.517-.091,39.394,39.394,0,0,0,5.148,1.228,1.252,1.252,0,0,1,.958.933l.83,4.383a1.024,1.024,0,0,0,.968.8h9.618a1.027,1.027,0,0,0,.969-.805l.829-4.383a1.258,1.258,0,0,1,.959-.934,39.369,39.369,0,0,0,5.149-1.227,2.422,2.422,0,0,1,1.516.091l6.631,3.081a1.76,1.76,0,0,0,1.448-.065l6.541-3.788a.534.534,0,0,0,.3-.446h0l-.015-5.694h0a.551.551,0,0,0-.259-.437l-2.993-2.159a1.461,1.461,0,0,1,.757-.322l8.717-.553a.882.882,0,0,0,.814-.87l-.013-6.842,0-.008V97.562a.882.882,0,0,0-.815-.87l-8.716-.554a1.452,1.452,0,0,1-.743-.309l3.009-2.172a.549.549,0,0,0,.26-.442h0l-.015-5.688h0a.533.533,0,0,0-.3-.446l-6.541-3.788a1.76,1.76,0,0,0-1.448-.066L87.438,86.31a2.425,2.425,0,0,1-1.517.09,39.218,39.218,0,0,0-5.147-1.227,1.252,1.252,0,0,1-.959-.934l-.83-4.383a1.024,1.024,0,0,0-.968-.8H68.4a1.025,1.025,0,0,0-.969.8L66.6,84.239a1.255,1.255,0,0,1-.959.934A39.354,39.354,0,0,0,60.494,86.4a2.418,2.418,0,0,1-1.517-.091l-6.631-3.081a1.757,1.757,0,0,0-1.447.065l-6.542,3.789A.535.535,0,0,0,44.053,87.526ZM88.87,109.071c-8.65,5.009-22.674,5.008-31.324,0-3.382-1.958-5.436-4.394-6.173-6.932.935-2.07,3-4.091,6.176-5.928,8.65-5.009,22.673-5.009,31.323,0,3.384,1.959,5.366,4.139,6.032,6.367C94.066,104.956,92.057,107.225,88.87,109.071Z" fill="#d268cc"/><g opacity="0.2"><path d="M37.047,108.131a.879.879,0,0,0,.817.865l8.718.557a1.221,1.221,0,0,1,.428.124L47,103.98a1.163,1.163,0,0,0-.438-.117l-8.715-.552a.9.9,0,0,1-.808-.759Zm7.017-14.9.005,0a.566.566,0,0,0,.26.437l3,2.158a1.7,1.7,0,0,0,.412-.468,13.032,13.032,0,0,1,1.756-2.46,1.028,1.028,0,0,1,.1-.116.831.831,0,0,0,.175-.3,1.072,1.072,0,0,0,.025-.111.7.7,0,0,0-.008-.219.682.682,0,0,0-.163-.322.545.545,0,0,0-.124-.114l-5.185-3.74a.661.661,0,0,1-.118-.1.508.508,0,0,1-.139-.343l0,0Zm0,24.948a.532.532,0,0,0,.308.431l6.539,3.789a1.7,1.7,0,0,0,1.011.173l-.009-5.682a1.713,1.713,0,0,1-1.014-.178l-6.545-3.786a.577.577,0,0,1-.306-.4Zm42.735,1.05a2.11,2.11,0,0,1,.65.151l6.629,3.083a1.628,1.628,0,0,0,.594.117L94.66,116.9a1.358,1.358,0,0,1-.591-.126L87.44,113.69a2.107,2.107,0,0,0-.654-.157Zm-19.228,6.927a1.034,1.034,0,0,0,.843.486h9.614a1,1,0,0,0,.583-.212l-.007-5.69a.977.977,0,0,1-.588.214l-9.623,0a1.006,1.006,0,0,1-.805-.433Z"/></g><path d="M50.9,83.293l-6.542,3.789a.489.489,0,0,0-.044.887L49.5,91.711a.694.694,0,0,1,.1,1.067,13.122,13.122,0,0,0-1.851,2.576,1.608,1.608,0,0,1-1.178.784l-8.717.553a.883.883,0,0,0-.814.871v4.878a.881.881,0,0,0,.814.87l8.718.554a1.606,1.606,0,0,1,1.177.784,13.092,13.092,0,0,0,1.851,2.576.694.694,0,0,1-.1,1.067l-5.184,3.741a.49.49,0,0,0,.044.888l6.542,3.788a1.757,1.757,0,0,0,1.447.065l6.631-3.081A2.428,2.428,0,0,1,60.5,113.6a39.356,39.356,0,0,0,5.148,1.228,1.253,1.253,0,0,1,.958.934l.829,4.383a1.025,1.025,0,0,0,.969.8h9.618a1.025,1.025,0,0,0,.969-.805l.829-4.382a1.254,1.254,0,0,1,.959-.934,39.394,39.394,0,0,0,5.148-1.228,2.422,2.422,0,0,1,1.516.091l6.631,3.081a1.76,1.76,0,0,0,1.448-.065l6.541-3.788a.49.49,0,0,0,.045-.888l-5.185-3.741a.7.7,0,0,1-.1-1.068,13.052,13.052,0,0,0,1.852-2.575,1.608,1.608,0,0,1,1.178-.784l8.717-.554a.881.881,0,0,0,.814-.87V97.562a.882.882,0,0,0-.815-.87l-8.717-.554a1.613,1.613,0,0,1-1.178-.785,13.116,13.116,0,0,0-1.851-2.575.694.694,0,0,1,.1-1.067l5.185-3.742a.489.489,0,0,0-.045-.887l-6.541-3.788a1.76,1.76,0,0,0-1.448-.066L87.438,86.31a2.425,2.425,0,0,1-1.517.09,39.218,39.218,0,0,0-5.147-1.227,1.254,1.254,0,0,1-.959-.934l-.83-4.383a1.024,1.024,0,0,0-.968-.8H68.4a1.025,1.025,0,0,0-.969.8L66.6,84.239a1.255,1.255,0,0,1-.959.934A39.354,39.354,0,0,0,60.494,86.4a2.418,2.418,0,0,1-1.517-.091l-6.631-3.081A1.757,1.757,0,0,0,50.9,83.293Zm37.97,7.638c8.65,5.009,8.65,13.131,0,18.14s-22.674,5.008-31.324,0-8.65-13.13,0-18.139S80.219,85.922,88.869,90.931Z" fill="#d268cc"/><g opacity="0.3"><path d="M50.9,83.293l-6.542,3.789a.489.489,0,0,0-.044.887L49.5,91.711a.694.694,0,0,1,.1,1.067,13.122,13.122,0,0,0-1.851,2.576,1.608,1.608,0,0,1-1.178.784l-8.717.553a.883.883,0,0,0-.814.871v4.878a.881.881,0,0,0,.814.87l8.718.554a1.606,1.606,0,0,1,1.177.784,13.092,13.092,0,0,0,1.851,2.576.694.694,0,0,1-.1,1.067l-5.184,3.741a.49.49,0,0,0,.044.888l6.542,3.788a1.757,1.757,0,0,0,1.447.065l6.631-3.081A2.428,2.428,0,0,1,60.5,113.6a39.356,39.356,0,0,0,5.148,1.228,1.253,1.253,0,0,1,.958.934l.829,4.383a1.025,1.025,0,0,0,.969.8h9.618a1.025,1.025,0,0,0,.969-.805l.829-4.382a1.254,1.254,0,0,1,.959-.934,39.394,39.394,0,0,0,5.148-1.228,2.422,2.422,0,0,1,1.516.091l6.631,3.081a1.76,1.76,0,0,0,1.448-.065l6.541-3.788a.49.49,0,0,0,.045-.888l-5.185-3.741a.7.7,0,0,1-.1-1.068,13.052,13.052,0,0,0,1.852-2.575,1.608,1.608,0,0,1,1.178-.784l8.717-.554a.881.881,0,0,0,.814-.87V97.562a.882.882,0,0,0-.815-.87l-8.717-.554a1.613,1.613,0,0,1-1.178-.785,13.116,13.116,0,0,0-1.851-2.575.694.694,0,0,1,.1-1.067l5.185-3.742a.489.489,0,0,0-.045-.887l-6.541-3.788a1.76,1.76,0,0,0-1.448-.066L87.438,86.31a2.425,2.425,0,0,1-1.517.09,39.218,39.218,0,0,0-5.147-1.227,1.254,1.254,0,0,1-.959-.934l-.83-4.383a1.024,1.024,0,0,0-.968-.8H68.4a1.025,1.025,0,0,0-.969.8L66.6,84.239a1.255,1.255,0,0,1-.959.934A39.354,39.354,0,0,0,60.494,86.4a2.418,2.418,0,0,1-1.517-.091l-6.631-3.081A1.757,1.757,0,0,0,50.9,83.293Zm37.97,7.638c8.65,5.009,8.65,13.131,0,18.14s-22.674,5.008-31.324,0-8.65-13.13,0-18.139S80.219,85.922,88.869,90.931Z" fill="#fff"/></g></g><g id="Character"><g id="Bottom"><path d="M60.984,96.518c.38-4.051-.2-4.856.272-11.184h0c.064-1.623.16-3.362.3-4.905a52.075,52.075,0,0,1,1.408-7.955s.308-8.087.889-19.458c.273-5.349,1.853-6.937,3.149-9.751l14.686.313c1.492,7.046,1.635,22.343,1.433,29.567-.1,3.683-1.692,19.713-1.732,20.166-.139,1.6-.012,2.243.6,2.933a37.6,37.6,0,0,0,4.787,4.1c-.252.628-2.523.858-3.495.356a24.982,24.982,0,0,1-3.61-2.419c-1.334-1.035-3.048-1.879-3.038-3.41A1.6,1.6,0,0,0,76.6,94.6c-.007-.9-1.828-10.773-1.936-13.835-.092-2.633.321-7.089.321-7.089L73.527,62.5s-1.182,6.562-2.333,11.036c-.936,3.641-2.485,9.856-3.548,14.339h0c-1.038,5.169-2,6.649-2.288,9.241-.084.618-1.089,6.677-1.408,8.065s-3.349,1.36-3.493-1.042C60.362,102.539,60.912,97.281,60.984,96.518Z" fill="#ffaaa8"/><path d="M73.527,62.5l1.407-8.01s4.794-.467,6.569-2.106c0,0-2.259,3.057-5.514,3.494l-1.505,6.632.486,11.071Z" fill="#ff9090"/><path d="M89.262,102.32A1.318,1.318,0,0,1,89,103.638a5.605,5.605,0,0,1-4.119.894,7.14,7.14,0,0,1-3.943-1.624,8.532,8.532,0,0,0-2.863-1.886,5.574,5.574,0,0,1-2.053-.867c-.271-.269-.221-1.449-.221-1.449Z" fill="#1a2e35"/><path d="M76.563,94.165s-.154,0-.21.276c-.066.325-.144,1.271-.284,1.8a9.578,9.578,0,0,0-.231,2.868c.106.606,1.5,1.041,2.388,1.392a11.376,11.376,0,0,1,2.873,1.862,8.391,8.391,0,0,0,4.287,1.653c2.028.052,3.348-.486,3.762-1.214.511-.9.412-1.723-1.908-2.832-.44-.21-1.981-1.147-2.5-1.486a12.083,12.083,0,0,1-1.575-1.2,9.135,9.135,0,0,1-.7-.715,3.2,3.2,0,0,1-.583-.762c-.026-.062-.043-.135-.066-.2a3.4,3.4,0,0,1-.146-.55c-.036-.2-.056-.478-.24-.6a1.546,1.546,0,0,0-.832-.107,9.9,9.9,0,0,0-1.264.235,1.17,1.17,0,0,0-.874.6,1.735,1.735,0,0,0-.2.846c-.007.136,0,.274-.008.41,0,.059.022.164-.059.139s-.162-.229-.19-.3c-.063-.154-.1-.318-.172-.469a2.473,2.473,0,0,0-.285-.5,2.351,2.351,0,0,0-.365-.381,4.082,4.082,0,0,1-.4-.264A.944.944,0,0,1,76.563,94.165Z" fill="#2b454e"/><path d="M87.614,100.157a4.356,4.356,0,0,0-4.31,3.4,6.914,6.914,0,0,0,2.082.461c2.028.052,3.432-.485,3.845-1.212C89.714,101.959,89.688,100.971,87.614,100.157Z" fill="#fff"/><path d="M82.921,100.435a.144.144,0,0,1-.091-.033.146.146,0,0,1-.018-.2,4.305,4.305,0,0,1,2.956-1.318.144.144,0,0,1,.126.16.143.143,0,0,1-.159.126,4.061,4.061,0,0,0-2.7,1.217A.139.139,0,0,1,82.921,100.435Z" fill="#f0f0f0"/><path d="M81.663,99.683a.14.14,0,0,1-.09-.034.144.144,0,0,1-.018-.2,4.292,4.292,0,0,1,2.956-1.317.142.142,0,0,1,.125.159.141.141,0,0,1-.159.126,4.049,4.049,0,0,0-2.7,1.217A.142.142,0,0,1,81.663,99.683Z" fill="#f0f0f0"/><path d="M80.5,98.826a.14.14,0,0,1-.09-.034.144.144,0,0,1-.019-.2,4.312,4.312,0,0,1,2.956-1.319.144.144,0,0,1,.126.16.142.142,0,0,1-.159.126,4.053,4.053,0,0,0-2.7,1.217A.143.143,0,0,1,80.5,98.826Z" fill="#f0f0f0"/><path d="M79.36,97.969a.14.14,0,0,1-.088-.032.144.144,0,0,1-.022-.2,4.347,4.347,0,0,1,3.2-1.331.144.144,0,0,1-.034.286,4.1,4.1,0,0,0-2.944,1.226A.144.144,0,0,1,79.36,97.969Z" fill="#f0f0f0"/><path d="M65.04,106.06a6.815,6.815,0,0,1-.9,3.285,2.154,2.154,0,0,1-2.51.827,3.294,3.294,0,0,1-2.5-2.248,8.04,8.04,0,0,1-.15-3.5Z" fill="#1a2e35"/><path d="M61.083,95.3c-.41.024-.561,2.031-.839,4-.3,2.111-.946,2.972-1.208,4.7a5.435,5.435,0,0,0,.675,4.082c.667,1.214,3.093,2.441,4.337.751,1.014-1.378,1.088-2.929,1.04-4.91a44.334,44.334,0,0,1,.238-5.012c.112-1.483.646-3.136.294-3.309-.064.332-.128.6-.162.81a4.307,4.307,0,0,1-.26.849c-.044.11-.137.224-.171.043a1.2,1.2,0,0,1,.009-.369c.071-.545-.2-.595-.35-.641a17.764,17.764,0,0,0-1.891-.31c-.312-.028-1.389-.1-1.533.077a1.238,1.238,0,0,0-.15.57c-.041.3-.114.515-.121.421-.015-.214.017-.655.025-.789s.031-.4.035-.533S61.072,95.427,61.083,95.3Z" fill="#2b454e"/><path d="M58.9,105.148a4.954,4.954,0,0,0,.7,3.028c.666,1.214,3.29,2.45,4.534.759a5.636,5.636,0,0,0,.906-2.876C64.344,104.721,60.064,104.047,58.9,105.148Z" fill="#fff"/><path d="M64.193,103.885a.152.152,0,0,1-.05-.015,6.938,6.938,0,0,0-3.742-.445.152.152,0,0,1-.062-.3,7.123,7.123,0,0,1,3.941.471.153.153,0,0,1,.067.2A.15.15,0,0,1,64.193,103.885Z" fill="#f0f0f0"/><path d="M60.524,101.95a.154.154,0,0,1-.127-.105.152.152,0,0,1,.1-.191,5.933,5.933,0,0,1,3.937.436.152.152,0,0,1-.147.266,5.743,5.743,0,0,0-3.7-.412A.155.155,0,0,1,60.524,101.95Z" fill="#f0f0f0"/><path d="M60.618,100.558a.152.152,0,0,1-.03-.3,5.351,5.351,0,0,1,4.012.427.153.153,0,0,1,.046.21.15.15,0,0,1-.209.046,5.151,5.151,0,0,0-3.752-.394A.155.155,0,0,1,60.618,100.558Z" fill="#f0f0f0"/><path d="M60.747,99.189a.152.152,0,0,1-.032-.294,5.574,5.574,0,0,1,4.038.469.151.151,0,0,1,.051.209.149.149,0,0,1-.208.051,5.377,5.377,0,0,0-3.78-.442A.149.149,0,0,1,60.747,99.189Z" fill="#ececec"/><path d="M65.978,43.243c-1.807,3.145-2.8,5.727-3.176,15.186s-.5,12.365-.558,13.506-1.189,2.82-1.434,8.13c-.3,6.545-.049,11.709-.049,11.709s.632.97,2.771,1.208a5.511,5.511,0,0,0,3.2-.5s2.837-9.894,3.658-13.264,3.093-14.457,3.093-14.457l1.1,9.056a28.257,28.257,0,0,0-.17,8.03c.5,4.942,1.248,8.882,1.248,8.882a9.255,9.255,0,0,0,3.251.7,6.719,6.719,0,0,0,2.981-.7s1.668-13.58,1.786-19.166S83.684,51.73,82.6,43.431Z" fill="#2b454e"/><path d="M75.472,54.057l-1.993,10.7,1.1,9.056-.355-9.161,1.764-8.781c1.35-.295,4.44-1.845,5.329-4.134C79.2,53.869,75.472,54.057,75.472,54.057Zm-6.144-6.414c.256-.9.525-1.79.826-2.688A13.341,13.341,0,0,0,68.89,47.5a25.091,25.091,0,0,0-.863,2.7c-.232.915-.428,1.84-.569,2.774a18.494,18.494,0,0,0-.247,2.822c.245-.914.473-1.822.7-2.73s.45-1.815.69-2.717S69.077,48.541,69.328,47.643Zm-1.335-.706c.315-.545.632-1.091.922-1.666a10.143,10.143,0,0,0-1.3,1.406,13.878,13.878,0,0,0-1.07,1.592,12.214,12.214,0,0,0-.823,1.738,7.556,7.556,0,0,0-.472,1.868l.893-1.674c.3-.548.6-1.1.916-1.636S67.682,47.483,67.993,46.937ZM66.114,82.785q-.876,4.347-1.638,8.717,1.1-4.3,2.091-8.618c.668-2.881,1.3-5.757,1.928-8.657.592-2.908,1.012-5.842,1.359-8.779s.628-5.881.868-8.829c-.468,2.92-.9,5.846-1.325,8.767s-.885,5.838-1.483,8.721C67.3,76.986,66.689,79.888,66.114,82.785ZM81.657,68.414c.031,1.283.08,2.573.031,3.839s-.158,2.56-.25,3.841l-.275,3.851q-.279,3.851-.469,7.712.534-3.829.931-7.672c.264-2.564.515-5.119.657-7.709.047-2.6-.119-5.168-.294-7.743s-.437-5.136-.778-7.691l.317,7.717C81.571,65.845,81.626,67.129,81.657,68.414Z" fill="#1a2e35"/></g><g id="Top"><g id="Top-2" data-name="Top"><g id="Arm"><path d="M91.091,38.546c-2.219,2.031-3.719,1.447-5.256.1a71.351,71.351,0,0,1-5.969-6.3s-1.633-5.831-.3-8.45c2.926.27,3.652,1.332,6.2,4.874,1.54,2.136,3.243,4.481,3.243,4.481a38.3,38.3,0,0,0,4.525-3.165,18.037,18.037,0,0,0,1.536-1.918,12.767,12.767,0,0,1,1.456-1.635c.748-.762,1.6-1.4,2.375-2.132a.452.452,0,0,1,.186-.124c.282-.073.359.32.364.52a1.309,1.309,0,0,1-.3.748c-.2.29-.416.569-.622.858-.055.077-.267.322-.187.423s.342-.117.413-.166a10.293,10.293,0,0,0,.82-.653l2-1.7a1.219,1.219,0,0,1,.3-.2c.442-.19.725.269.463.747a2.177,2.177,0,0,1-.243.359,11.716,11.716,0,0,1-.92.983,3.976,3.976,0,0,0-.385.394c-.023.029-.187.229-.063.22a.165.165,0,0,0,.081-.039c.473-.36.909-.763,1.356-1.155.226-.2.454-.394.692-.579.158-.124.415-.4.635-.371a.357.357,0,0,1,.194.1.634.634,0,0,1,.173.635,1.7,1.7,0,0,1-.17.364,2.472,2.472,0,0,1-.254.318c.352-.1.563.312.455.616a2.907,2.907,0,0,1-.965,1.146c-.5.433-.739.643-1.508,1.261-.149.12-.188.265,0,.158a4.628,4.628,0,0,0,.46-.292c.187-.132.244-.179.444-.318.264-.184.72-.588.893-.583s.249.217.246.367a.694.694,0,0,1-.111.32,4.838,4.838,0,0,1-1.595,1.483q-.729.492-1.464.975a12.009,12.009,0,0,1-2.719,1.334C95.861,33.121,93.311,36.516,91.091,38.546Z" fill="#ffaaa8"/><path d="M98.613,28.093c.661.718-.1,1.854-.581,2.455-.1.119-.487.357-.324.028.057-.115.117-.229.172-.345a5.574,5.574,0,0,0,.282-.683A2.691,2.691,0,0,0,98.3,28.3c-.019-.114-.028-.264.078-.308a.193.193,0,0,1,.2.062C98.585,28.063,98.6,28.078,98.613,28.093Z" fill="#ff9090"/><path d="M103.428,26.081a18.472,18.472,0,0,0-2.578,2.351,11.957,11.957,0,0,0,2.578-2.351Z" fill="#ff9090"/><path d="M79.6,23.753c2.5.271,3.5.907,6.365,4.843,1.359,1.865,3.1,4.454,3.1,4.454l3.451-2.207a4.9,4.9,0,0,0,.935,2.384,3.76,3.76,0,0,0,1.661,1.46,40.514,40.514,0,0,1-4.339,4.287,3.4,3.4,0,0,1-4.805.021,73.441,73.441,0,0,1-6.208-6.516C79.122,31.312,78.041,25.679,79.6,23.753Z" fill="#375a64"/><path d="M89.061,33.05A4.721,4.721,0,0,0,87,35.957a3.589,3.589,0,0,1,1.734-3.4Z" fill="#2b454e"/></g><g id="Chest"><path id="Chest-2" data-name="Chest" d="M70.424,23.545A30.545,30.545,0,0,0,64.94,25.8s-1.8,3.181-1.038,10.406c.122,1.157.431,4.274.576,6.681a37.877,37.877,0,0,1-.035,5.887s3.033,2.655,10.929,2.052c6.2-.473,8.062-3.03,8.062-3.03s-.035-8.389-.2-12.974c-.217-6.023-2.038-9.5-3.377-10.549l-4.07-.677Z" fill="#f0f0f0"/><path d="M69.338,23.582l.021.474s1.845,3.5,1.975,10.565S71.325,53,71.325,53s-4.81-.1-8.037-2.7c0,0,.6-6.129.525-8.937s.233-4.078-.564-8.07c-.81-4.055,1.582-8.191,1.582-8.191C66.03,24.667,66.858,24.4,69.338,23.582Z" fill="#2b454e"/><path d="M75.8,23.224l3.793.529s2.643,2.015,3.491,7.556,1.279,18.972,1.279,18.972a9.708,9.708,0,0,1-2.65,1s-.255-6.613-.61-12.7c-.428-7.351-1-11.83-5.247-14.821Z" fill="#2b454e"/><path d="M70.487,32.337l.082-.159c-.722-.286-1.45-.556-2.178-.823-.1-2.157-.224-4.395-.417-6.536-.025,2.186.029,4.464.1,6.655l0,.1.1.039c.643.251,1.288.5,1.937.735l-.781,1.57c-.305.6-.585,1.213-.879,1.818l.059.053q1.127,1.024,2.285,2.013-1.023-1.071-2.077-2.111C69.263,34.714,69.974,33.325,70.487,32.337ZM82.9,33.473q-.753-1.225-1.537-2.43l.759-1.153.045-.068a16.134,16.134,0,0,0-3.6-5.706,26.335,26.335,0,0,1,2.641,4.211,13.628,13.628,0,0,1,.589,1.45l-.767,1.174-.06.091.06.09q.807,1.22,1.642,2.421c-.352.929-.7,1.861-1.015,2.8.437-.916.849-1.843,1.253-2.774l.024-.053Z" opacity="0.3"/></g><g id="Head"><path d="M67.66,11.344a2.24,2.24,0,0,0-1.607,1.01,4.862,4.862,0,0,0,.051,4.2,24.6,24.6,0,0,0,2.734,4.2,1.529,1.529,0,0,0,.955.622L69.5,19l-.251-1.648a4.8,4.8,0,0,0,1.21-2.545,3.835,3.835,0,0,0-.684-2.355Z" fill="#1a2e35"/><path d="M76.035,13.321a6.091,6.091,0,0,0-2.2-.249l-2,.066-2.14.071s-2.306-.155-2.465-1.766a2.457,2.457,0,0,1,.33-1.484,4.938,4.938,0,0,1,1.066-1.246,6.156,6.156,0,0,1,3-1.362,10.02,10.02,0,0,1,2.624-.029,5.055,5.055,0,0,0,1.77-.023c.411-.11.833-.4.863-.828a1.848,1.848,0,0,1,.388,1.974,1.31,1.31,0,0,1,1.35.844,1.759,1.759,0,0,1-.328,1.626c.039-.062.312.371.334.408a1.418,1.418,0,0,1,.2.851,1.4,1.4,0,0,1-.742.979A2.3,2.3,0,0,1,76.035,13.321Z" fill="#1a2e35"/><path d="M67.4,19.911a1.3,1.3,0,0,0,1.751-.552l.208,4.7c2.2,3.388,8.483,2.361,6.5-.3l-.112-1.381a5.683,5.683,0,0,0,1.053-.209,2.769,2.769,0,0,0,2.168-2.762,17.965,17.965,0,0,0-1.033-7.384,2.048,2.048,0,0,0-1.043-1.373c-1.368-.518-2.484.534-4.231,1.425a6.341,6.341,0,0,1-3.041.5,3.462,3.462,0,0,1,.07,3.852,2.068,2.068,0,0,1-.408.658c-.364.386-.777-.477-1.146-.8a1.375,1.375,0,0,0-2.082.7A2.249,2.249,0,0,0,67.4,19.911Z" fill="#ffaaa8"/><path d="M75.748,22.376a7.773,7.773,0,0,1-3.686-.343,4.872,4.872,0,0,1-2.444-2.546,3.328,3.328,0,0,0,2.3,3.146,9.062,9.062,0,0,0,3.891.449Z" fill="#ff9090"/><path d="M72.981,13.637l-1.023.828a.693.693,0,0,1,.105-.952A.64.64,0,0,1,72.981,13.637Z" fill="#1a2e35"/><path d="M77.644,13.55l-1.239-.469a.636.636,0,0,1,.832-.4A.7.7,0,0,1,77.644,13.55Z" fill="#1a2e35"/><path d="M72.563,15.393a.536.536,0,1,0,.459-.6A.536.536,0,0,0,72.563,15.393Z" fill="#1a2e35"/><path d="M76.535,14.832a.536.536,0,1,0,.459-.605A.489.489,0,0,0,76.535,14.832Z" fill="#1a2e35"/><path d="M74.741,14.323l.775,3.36,1.727-.841A7.994,7.994,0,0,0,74.741,14.323Z" fill="#ff9090"/><path d="M73.713,18.162l2.232.4a1.19,1.19,0,0,1-1.356.937A1.11,1.11,0,0,1,73.713,18.162Z" fill="#c76668"/><path d="M75.116,19.468a1.61,1.61,0,0,0-1.424-1.024,1.1,1.1,0,0,0,.9,1.059A1.127,1.127,0,0,0,75.116,19.468Z" fill="#ff9090"/></g></g><g id="Arm-2" data-name="Arm"><path d="M64.733,25.362c-2.584.751-3.347,1.555-4.268,3.38a83.161,83.161,0,0,0-4.458,10.735,3.9,3.9,0,0,0,1.411,4.575,89.557,89.557,0,0,0,7.262,5.3c.526.343,2.19,1.567,2.69,1.823a12.537,12.537,0,0,0,6.524,1.1L70.562,50.3l-.6-1.118-7.768-8.8s2.641-5.8,3.391-7.576C66.359,30.971,66.736,26.529,64.733,25.362Z" fill="#ffaaa8"/><path d="M67.511,47.666l0,.312a.883.883,0,0,0,.43.767l8.313,4.924a.88.88,0,0,0,.877.01l15.449-8.715a.886.886,0,0,0,.448-.758l0-.214L76.694,53.206Z" fill="#d268cc"/><g opacity="0.5"><path d="M67.511,47.666l0,.312a.883.883,0,0,0,.43.767l8.313,4.924a.88.88,0,0,0,.877.01l15.449-8.715a.886.886,0,0,0,.448-.758l0-.214L76.694,53.206Z" fill="#fff"/></g><g opacity="0.1"><path d="M67.511,47.666l0,.312a.883.883,0,0,0,.43.767l8.313,4.924a.88.88,0,0,0,.877.01l15.449-8.715a.886.886,0,0,0,.448-.758l0-.214L76.694,53.206Z"/></g><path d="M93.026,43.992l-9.042-5.373a.525.525,0,0,0-.523-.006L67.57,47.58a.117.117,0,0,0,0,.2l9.126,5.424Z" fill="#d268cc"/><g opacity="0.85"><path d="M93.026,43.992l-9.042-5.373a.525.525,0,0,0-.523-.006L67.57,47.58a.117.117,0,0,0,0,.2l9.126,5.424Z" fill="#fff"/></g><polygon points="76.761 52.348 71.884 49.453 86.189 41.385 91.091 44.265 76.761 52.348" fill="#d268cc"/><g opacity="0.6"><polygon points="76.761 52.348 71.884 49.453 86.189 41.385 91.091 44.265 76.761 52.348" fill="#fff"/></g><polygon points="74.295 44.504 74.385 44.557 76.775 45.977 81.082 43.547 81.171 43.498 78.691 42.024 74.295 44.504" fill="#d268cc"/><polygon points="74.385 44.557 76.775 45.977 81.082 43.547 78.69 42.127 74.385 44.557" fill="#d268cc"/><g opacity="0.6"><polygon points="74.385 44.557 76.775 45.977 81.082 43.547 78.69 42.127 74.385 44.557" fill="#fff"/></g><path d="M76.694,53.206l-.006.585a.87.87,0,0,0,.439-.112l15.449-8.715a.886.886,0,0,0,.448-.758l0-.214Z" fill="#d268cc"/><g opacity="0.03"><path d="M76.694,53.206l-.006.585a.87.87,0,0,0,.439-.112l15.449-8.715a.886.886,0,0,0,.448-.758l0-.214Z" fill="#fff"/></g><g opacity="0.2"><path d="M76.694,53.206l-.006.585a.87.87,0,0,0,.439-.112l15.449-8.715a.886.886,0,0,0,.448-.758l0-.214Z"/></g><path d="M76.94,53.338a1.037,1.037,0,0,0,.9-.059L93.217,44.6a1.041,1.041,0,0,0,.514-.723l1.785-9.988a1.1,1.1,0,0,0,.016-.171,1.046,1.046,0,0,0-.3-.744L79.249,41.994a.774.774,0,0,0-.379.535Z" fill="#d268cc"/><g opacity="0.4"><path d="M76.94,53.338a1.037,1.037,0,0,0,.9-.059L93.217,44.6a1.041,1.041,0,0,0,.514-.723l1.785-9.988a1.1,1.1,0,0,0,.016-.171,1.046,1.046,0,0,0-.3-.744L79.249,41.994a.774.774,0,0,0-.379.535Z" fill="#fff"/></g><path d="M76.694,53.206l.1.061a1.107,1.107,0,0,0,.142.071l1.93-10.809a.774.774,0,0,1,.379-.535l15.984-9.019a1.1,1.1,0,0,0-.21-.165L79.006,41.846a.776.776,0,0,0-.379.535Z" fill="#d268cc"/><g opacity="0.6"><path d="M76.694,53.206l.1.061a1.107,1.107,0,0,0,.142.071l1.93-10.809a.774.774,0,0,1,.379-.535l15.984-9.019a1.1,1.1,0,0,0-.21-.165L79.006,41.846a.776.776,0,0,0-.379.535Z" fill="#fff"/></g><path d="M79.017,42.2l-.244-.145a.77.77,0,0,0-.146.327L76.694,53.206l.1.061a1.107,1.107,0,0,0,.142.071l1.93-10.809A.777.777,0,0,1,79.017,42.2Z" fill="#d268cc"/><path d="M79.017,42.2l-.244-.145a.77.77,0,0,0-.146.327L76.694,53.206l.1.061a1.107,1.107,0,0,0,.142.071l1.93-10.809A.777.777,0,0,1,79.017,42.2Z" fill="#fff" opacity="0.5"/><path d="M79.017,42.2l-.244-.145a.77.77,0,0,0-.146.327L76.694,53.206l.1.061a1.107,1.107,0,0,0,.142.071l1.93-10.809A.777.777,0,0,1,79.017,42.2Z" fill="#d268cc" opacity="0.5"/><path d="M85.65,44.2a3.389,3.389,0,0,1,1.563-1.97c.743-.419,1.249-.217,1.13.452a3.389,3.389,0,0,1-1.563,1.97C86.037,45.068,85.531,44.866,85.65,44.2Z" fill="#d268cc"/><path d="M67.128,45.977c.887,1.108,2.058.686,3.208.814s2.224.441,3.143.515,1.175.454.7.958c-.672.715-2.493.341-2.99.572a1.079,1.079,0,0,0-.215,1.709c.548.625-3.089-.555-3.58-1.3S66.473,46.079,67.128,45.977Z" fill="#ffaaa8"/><path d="M57.862,33.824a56.545,56.545,0,0,1,3.1-6.211,6.073,6.073,0,0,1,3.865-2.51c2.464.952,1.986,5.03,1.695,6.316s-3.973,8.967-3.973,8.967l3.834,4.481a5,5,0,0,0-3.47,3.482s-4.383-3.168-5.73-4.3-2.041-2.091-1.42-4.266S57.32,35.23,57.862,33.824Z" fill="#375a64"/><path d="M62.553,40.386a2.957,2.957,0,0,0-2.9-.261A6.171,6.171,0,0,1,63.076,41Z" fill="#2b454e"/></g></g></g><path id="Arrow" d="M138.365,105.831l-4.737-3.134a.6.6,0,0,0-.656,1l3.083,2.041c-9.114.051-14.637,2.136-24.636,14.269-9.292,11.275-21.47,16.526-38.325,16.526S44.061,131.279,34.769,120c-10.127-12.288-15.66-14.272-24.987-14.272a.6.6,0,0,0,0,1.2c8.931,0,14.249,1.923,24.069,13.838,9.536,11.571,22.006,16.96,39.243,16.96s29.707-5.389,39.243-16.96c9.687-11.754,14.995-13.782,23.711-13.835l-3.076,2.035a.6.6,0,0,0,.329,1.1.59.59,0,0,0,.327-.1l4.737-3.134a.6.6,0,0,0,0-1Z" fill="#e1e1e1"/><g id="Flowchart_Window" data-name="Flowchart Window"><g opacity="0.2"><path d="M9.853,15.838,37.113.065c.263-.152.477-.028.477.277V47a1.061,1.061,0,0,1-.477.83L9.853,63.607c-.263.153-.477.029-.477-.276V16.668A1.063,1.063,0,0,1,9.853,15.838Z"/></g><g id="Window"><g id="Window-2" data-name="Window"><path d="M12.034,63.127a.418.418,0,0,0,.2-.061l25.5-14.779a1.7,1.7,0,0,0,.757-1.312V2.63c0-.283-.118-.452-.318-.452a.617.617,0,0,0-.3.1l-25.5,14.764a1.707,1.707,0,0,0-.757,1.314V62.494a.82.82,0,0,0,.132.463A.352.352,0,0,0,12.034,63.127Z" fill="#fafafa"/><path d="M10.772,62.614c.09.047.732.415,1.013.575a.845.845,0,0,1-.3-.7V21.06l-1.057-.62V61.9A.808.808,0,0,0,10.772,62.614Z" fill="#ececec"/></g><path id="Outline" d="M38.173,2.318c.155,0,.179.2.179.312V46.975a1.546,1.546,0,0,1-.687,1.191l-25.5,14.779a.276.276,0,0,1-.134.042c-.146,0-.275-.23-.275-.493V18.351a1.551,1.551,0,0,1,.687-1.193l25.5-14.764a.464.464,0,0,1,.229-.076m0-.279a.746.746,0,0,0-.369.113l-25.5,14.764a1.834,1.834,0,0,0-.825,1.435V62.494c0,.418.231.773.553.773a.544.544,0,0,0,.273-.08L37.8,48.408a1.828,1.828,0,0,0,.826-1.433V2.63c0-.375-.186-.591-.457-.591Z" fill="#e1e1e1"/><g id="Up_Bar" data-name="Up Bar"><path d="M38.63,2.614V5.375L11.481,21.092l-1.057-.617V17.749a1.726,1.726,0,0,1,.251-.829,1.667,1.667,0,0,1,.575-.6l25.5-14.765a.589.589,0,0,1,.6-.048c.15.093.873.506,1.022.582a.245.245,0,0,1,.062.043.368.368,0,0,1,.066.065.465.465,0,0,1,.052.083.38.38,0,0,1,.04.1.5.5,0,0,1,.026.113v0A.88.88,0,0,1,38.63,2.614Z" fill="#d268cc"/><path d="M38.63,2.614V5.375L11.481,21.092l-1.057-.617V17.749a1.726,1.726,0,0,1,.251-.829,1.667,1.667,0,0,1,.575-.6l25.5-14.765a.589.589,0,0,1,.6-.048c.15.093.873.506,1.022.582a.245.245,0,0,1,.062.043.368.368,0,0,1,.066.065.465.465,0,0,1,.052.083.38.38,0,0,1,.04.1.5.5,0,0,1,.026.113v0A.88.88,0,0,1,38.63,2.614Z" opacity="0.15"/><path d="M38.63,2.614V5.375L11.481,21.092V18.35a1.475,1.475,0,0,1,.1-.513c.01-.028.02-.058.032-.086a2.349,2.349,0,0,1,.113-.224,1.672,1.672,0,0,1,.58-.612L37.8,2.153a.544.544,0,0,1,.632-.025.368.368,0,0,1,.066.065.465.465,0,0,1,.052.083.38.38,0,0,1,.04.1.5.5,0,0,1,.026.113v0A.88.88,0,0,1,38.63,2.614Z" fill="#d268cc"/><path d="M33.086,5.936a1.365,1.365,0,0,0-.516,1.095c0,.44.231.662.516.5A1.364,1.364,0,0,0,33.6,6.434C33.6,5.994,33.37,5.772,33.086,5.936Z" fill="#fafafa"/><path d="M34.941,4.86a1.367,1.367,0,0,0-.515,1.094c0,.44.231.663.515.5a1.365,1.365,0,0,0,.516-1.095C35.457,4.918,35.226,4.7,34.941,4.86Z" fill="#fafafa"/><path d="M36.8,3.783a1.365,1.365,0,0,0-.515,1.1c0,.439.23.662.515.5a1.365,1.365,0,0,0,.516-1.094C37.313,3.841,37.082,3.618,36.8,3.783Z" fill="#fafafa"/><path d="M37.8,2.151l-25.5,14.765a1.7,1.7,0,0,0-.581.615l-1.05-.61a1.656,1.656,0,0,1,.574-.6L36.75,1.552a.579.579,0,0,1,.6-.049c.148.091.833.482,1.007.576A.594.594,0,0,0,37.8,2.151Z" fill="#d268cc"/><g opacity="0.5"><path d="M37.8,2.151l-25.5,14.765a1.7,1.7,0,0,0-.581.615l-1.05-.61a1.656,1.656,0,0,1,.574-.6L36.75,1.552a.579.579,0,0,1,.6-.049c.148.091.833.482,1.007.576A.594.594,0,0,0,37.8,2.151Z" fill="#fff"/></g></g></g><g id="Flowchart"><path d="M17.444,27.972a.077.077,0,0,1-.077-.077V24.61a.077.077,0,0,1,.154,0V27.9A.078.078,0,0,1,17.444,27.972Z" fill="#375a64"/><polygon points="17.183 27.587 17.444 27.849 17.705 27.587 17.705 27.809 17.444 28.071 17.183 27.809 17.183 27.587" fill="#375a64"/><path d="M20.224,28.331a.077.077,0,0,1-.038-.144l2.156-1.249a.077.077,0,0,1,.077.134l-2.156,1.249A.09.09,0,0,1,20.224,28.331Z" fill="#375a64"/><polygon points="22.245 27.386 22.341 27.028 21.984 26.932 22.176 26.821 22.533 26.917 22.437 27.274 22.245 27.386" fill="#375a64"/><path d="M19.825,45.584a.077.077,0,0,1-.038-.144l2.156-1.249a.077.077,0,0,1,.077.134l-2.156,1.249A.078.078,0,0,1,19.825,45.584Z" fill="#375a64"/><polygon points="21.846 44.639 21.942 44.281 21.585 44.185 21.777 44.074 22.134 44.17 22.038 44.528 21.846 44.639" fill="#375a64"/><path d="M27.651,41.052a.077.077,0,0,1-.039-.144l2.156-1.248a.076.076,0,0,1,.105.028.077.077,0,0,1-.028.1l-2.156,1.249A.075.075,0,0,1,27.651,41.052Z" fill="#375a64"/><polygon points="29.672 40.107 29.767 39.749 29.41 39.654 29.602 39.542 29.959 39.638 29.863 39.996 29.672 40.107" fill="#375a64"/><path d="M28.153,23.74a.078.078,0,0,1-.039-.145l2.156-1.248a.077.077,0,0,1,.077.134l-2.156,1.248A.076.076,0,0,1,28.153,23.74Z" fill="#375a64"/><polygon points="30.174 22.794 30.27 22.436 29.913 22.341 30.105 22.23 30.461 22.325 30.366 22.683 30.174 22.794" fill="#375a64"/><path d="M28.012,32.417a.077.077,0,0,1-.039-.144l2.156-1.249a.077.077,0,0,1,.105.028.078.078,0,0,1-.028.106L28.05,32.407A.075.075,0,0,1,28.012,32.417Z" fill="#375a64"/><polygon points="28.146 31.959 28.051 32.317 28.408 32.412 28.216 32.524 27.859 32.428 27.955 32.07 28.146 31.959" fill="#375a64"/><path d="M27.874,48.55a.077.077,0,0,1-.038-.144l2.013-1.166a.077.077,0,0,1,.077.134L27.913,48.54A.078.078,0,0,1,27.874,48.55Z" fill="#375a64"/><polygon points="28.009 48.092 27.914 48.45 28.27 48.546 28.079 48.657 27.722 48.561 27.817 48.203 28.009 48.092" fill="#375a64"/><path d="M20.262,36.9a.076.076,0,0,1-.067-.038.078.078,0,0,1,.028-.106l2.156-1.248a.076.076,0,0,1,.105.028.077.077,0,0,1-.028.106L20.3,36.894A.075.075,0,0,1,20.262,36.9Z" fill="#375a64"/><polygon points="20.397 36.447 20.301 36.804 20.658 36.9 20.466 37.011 20.109 36.915 20.205 36.558 20.397 36.447" fill="#375a64"/><path d="M32.526,26.671a.077.077,0,0,1-.077-.077v-2.5a.077.077,0,0,1,.154,0v2.5A.077.077,0,0,1,32.526,26.671Z" fill="#375a64"/><polygon points="32.265 26.287 32.526 26.549 32.787 26.287 32.787 26.509 32.526 26.771 32.265 26.509 32.265 26.287" fill="#375a64"/><path d="M17.444,42.664a.076.076,0,0,1-.039-.01.076.076,0,0,1-.038-.067V40.745a.077.077,0,0,1,.154,0v1.708l14.928-8.645V32.664a.077.077,0,1,1,.154,0v1.189a.077.077,0,0,1-.039.067L17.482,42.654A.075.075,0,0,1,17.444,42.664Z" fill="#375a64"/><polygon points="17.705 41.053 17.444 40.791 17.183 41.053 17.183 40.831 17.444 40.569 17.705 40.831 17.705 41.053" fill="#375a64"/><path d="M17.444,51.207a.087.087,0,0,1-.039-.01.078.078,0,0,1-.038-.067V49.94a.077.077,0,0,1,.154,0V51l14.928-8.645v-1.8a.077.077,0,1,1,.154,0V42.4a.079.079,0,0,1-.039.067L17.482,51.2A.086.086,0,0,1,17.444,51.207Z" fill="#375a64"/><polygon points="32.787 40.862 32.526 40.6 32.265 40.862 32.265 40.639 32.526 40.378 32.787 40.639 32.787 40.862" fill="#375a64"/><path d="M13.993,48.961a.075.075,0,0,1-.038-.01.077.077,0,0,1-.039-.067V40.457a.079.079,0,0,1,.039-.067l.815-.472a.077.077,0,0,1,.077.134l-.777.45V48.75l.856-.495a.076.076,0,0,1,.105.028.077.077,0,0,1-.028.1l-.971.563A.076.076,0,0,1,13.993,48.961Z" fill="#375a64"/><polygon points="14.829 48.702 14.925 48.344 14.568 48.249 14.76 48.137 15.117 48.233 15.021 48.591 14.829 48.702" fill="#375a64"/><path d="M35.451,44.163a.077.077,0,0,1-.039-.144l.813-.471V36.1l-.7.405a.077.077,0,1,1-.076-.133l.815-.473a.077.077,0,0,1,.115.067v7.628a.075.075,0,0,1-.038.066l-.851.493A.067.067,0,0,1,35.451,44.163Z" fill="#375a64"/><polygon points="35.586 43.705 35.49 44.063 35.847 44.159 35.655 44.27 35.298 44.174 35.394 43.816 35.586 43.705" fill="#375a64"/><path d="M19.771,21.227c0,.874-1.042,2.187-2.327,2.931s-2.327.639-2.327-.236,1.042-2.187,2.327-2.931S19.771,20.353,19.771,21.227Z" fill="#d268cc"/><path d="M27.411,48.741c0,.875-1.042,2.187-2.327,2.931s-2.327.639-2.327-.236,1.042-2.186,2.327-2.93S27.411,47.867,27.411,48.741Z" fill="#d268cc"/><path d="M19.563,30.038l-4.239,2.455c-.126.073-.229-.005-.229-.174v-2.19a.555.555,0,0,1,.229-.44l4.239-2.454c.127-.074.229,0,.229.174V29.6A.549.549,0,0,1,19.563,30.038Z" fill="#d268cc"/><path d="M19.563,30.038l-4.239,2.455c-.126.073-.229-.005-.229-.174v-2.19a.555.555,0,0,1,.229-.44l4.239-2.454c.127-.074.229,0,.229.174V29.6A.549.549,0,0,1,19.563,30.038Z" fill="#fff" opacity="0.6"/><path d="M27.2,25.614l-4.239,2.455c-.126.073-.229,0-.229-.174v-2.19a.552.552,0,0,1,.229-.44L27.2,22.811c.127-.074.229,0,.229.174v2.189A.55.55,0,0,1,27.2,25.614Z" fill="#d268cc"/><path d="M27.2,25.614l-4.239,2.455c-.126.073-.229,0-.229-.174v-2.19a.552.552,0,0,1,.229-.44L27.2,22.811c.127-.074.229,0,.229.174v2.189A.55.55,0,0,1,27.2,25.614Z" fill="#fff" opacity="0.6"/><path d="M27.2,34.21l-4.239,2.454c-.126.073-.229-.005-.229-.174V34.3a.555.555,0,0,1,.229-.44L27.2,31.406c.127-.074.229,0,.229.174v2.19A.553.553,0,0,1,27.2,34.21Z" fill="#d268cc"/><path d="M27.2,34.21l-4.239,2.454c-.126.073-.229-.005-.229-.174V34.3a.555.555,0,0,1,.229-.44L27.2,31.406c.127-.074.229,0,.229.174v2.19A.553.553,0,0,1,27.2,34.21Z" fill="#fff" opacity="0.6"/><path d="M27.2,42.636l-4.239,2.455c-.126.073-.229-.005-.229-.175V42.727a.552.552,0,0,1,.229-.44L27.2,39.832c.127-.073.229.005.229.174V42.2A.55.55,0,0,1,27.2,42.636Z" fill="#d268cc"/><path d="M27.2,42.636l-4.239,2.455c-.126.073-.229-.005-.229-.175V42.727a.552.552,0,0,1,.229-.44L27.2,39.832c.127-.073.229.005.229.174V42.2A.55.55,0,0,1,27.2,42.636Z" fill="#fff" opacity="0.6"/><path d="M34.645,38.326l-4.238,2.455c-.127.073-.23,0-.23-.174v-2.19a.552.552,0,0,1,.23-.44l4.238-2.454c.127-.074.23,0,.23.174v2.189A.55.55,0,0,1,34.645,38.326Z" fill="#d268cc"/><path d="M34.645,38.326l-4.238,2.455c-.127.073-.23,0-.23-.174v-2.19a.552.552,0,0,1,.23-.44l4.238-2.454c.127-.074.23,0,.23.174v2.189A.55.55,0,0,1,34.645,38.326Z" fill="#fff" opacity="0.6"/><path d="M34.645,45.954l-4.238,2.454c-.127.074-.23,0-.23-.174v-2.19a.55.55,0,0,1,.23-.439l4.238-2.455c.127-.073.23.005.23.174v2.19A.553.553,0,0,1,34.645,45.954Z" fill="#d268cc"/><path d="M34.645,45.954l-4.238,2.454c-.127.074-.23,0-.23-.174v-2.19a.55.55,0,0,1,.23-.439l4.238-2.455c.127-.073.23.005.23.174v2.19A.553.553,0,0,1,34.645,45.954Z" fill="#fff" opacity="0.6"/><path d="M19.563,38.634l-4.239,2.454c-.126.074-.229,0-.229-.174v-2.19a.552.552,0,0,1,.229-.439l4.239-2.455c.127-.073.229.005.229.174v2.19A.553.553,0,0,1,19.563,38.634Z" fill="#d268cc"/><path d="M19.563,38.634l-4.239,2.454c-.126.074-.229,0-.229-.174v-2.19a.552.552,0,0,1,.229-.439l4.239-2.455c.127-.073.229.005.229.174v2.19A.553.553,0,0,1,19.563,38.634Z" fill="#fff" opacity="0.6"/><path d="M32.312,23.428l-1.793-2.511a.69.69,0,0,1,.215-.8l3.584-2.075c.227-.131.354.2.215.553L32.74,23.18C32.631,23.459,32.421,23.581,32.312,23.428Z" fill="#375a64"/><path d="M34.349,29.006l-1.661,2.872c-.1.166-.228.243-.324.188L30.7,31.117c-.145-.083-.145-.421,0-.673l1.661-2.872c.1-.166.228-.243.324-.188l1.661.949C34.494,28.417,34.494,28.754,34.349,29.006Z" fill="#d268cc"/><g opacity="0.3"><path d="M34.349,29.006l-1.661,2.872c-.1.166-.228.243-.324.188L30.7,31.117c-.145-.083-.145-.421,0-.673l1.661-2.872c.1-.166.228-.243.324-.188l1.661.949C34.494,28.417,34.494,28.754,34.349,29.006Z" fill="#fff"/></g><path d="M19.266,46.167l-1.66,2.872c-.1.166-.228.243-.325.188l-1.66-.949c-.146-.084-.146-.421,0-.673l1.66-2.872c.1-.167.229-.243.325-.188l1.66.949C19.412,45.577,19.412,45.915,19.266,46.167Z" fill="#d268cc"/><g opacity="0.3"><path d="M19.266,46.167l-1.66,2.872c-.1.166-.228.243-.325.188l-1.66-.949c-.146-.084-.146-.421,0-.673l1.66-2.872c.1-.167.229-.243.325-.188l1.66.949C19.412,45.577,19.412,45.915,19.266,46.167Z" fill="#fff"/></g><path d="M22.582,29.342a.077.077,0,0,1-.039-.144l5-2.9a.077.077,0,0,1,.105.028.078.078,0,0,1-.028.106l-5,2.9A.075.075,0,0,1,22.582,29.342Z" fill="#375a64"/><path d="M22.582,30.07a.077.077,0,0,1-.039-.144l5-2.9a.076.076,0,0,1,.105.028.078.078,0,0,1-.028.106l-5,2.9A.076.076,0,0,1,22.582,30.07Z" fill="#e1e1e1"/><path d="M22.582,30.8a.076.076,0,0,1-.067-.039.078.078,0,0,1,.028-.106l5-2.9a.076.076,0,0,1,.105.028.077.077,0,0,1-.028.105l-5,2.9A.076.076,0,0,1,22.582,30.8Z" fill="#e1e1e1"/><path d="M22.582,31.526a.076.076,0,0,1-.067-.039.078.078,0,0,1,.028-.106l5-2.9a.077.077,0,0,1,.077.134l-5,2.9A.076.076,0,0,1,22.582,31.526Z" fill="#e1e1e1"/><path d="M29.821,16.9a.075.075,0,0,1-.066-.038.077.077,0,0,1,.028-.106l5-2.9a.077.077,0,0,1,.077.134l-5,2.9A.078.078,0,0,1,29.821,16.9Z" fill="#375a64"/><path d="M29.821,17.623a.077.077,0,0,1-.038-.144l5-2.9a.076.076,0,0,1,.105.029.077.077,0,0,1-.028.105l-5,2.9A.078.078,0,0,1,29.821,17.623Z" fill="#e1e1e1"/><path d="M29.821,18.351a.077.077,0,0,1-.038-.144l5-2.9a.077.077,0,0,1,.105.028.078.078,0,0,1-.028.106l-5,2.9A.078.078,0,0,1,29.821,18.351Z" fill="#e1e1e1"/><path d="M29.821,19.079a.077.077,0,0,1-.038-.144l5-2.9a.076.076,0,0,1,.105.028.078.078,0,0,1-.028.106l-5,2.9A.078.078,0,0,1,29.821,19.079Z" fill="#e1e1e1"/></g></g><g id="Chart_Window" data-name="Chart Window"><g opacity="0.2"><path d="M136.038,17.165,108.778,1.392c-.263-.153-.477-.029-.477.276V29.736a1.063,1.063,0,0,0,.477.83l27.26,15.773c.263.152.477.028.477-.277V17.994A1.059,1.059,0,0,0,136.038,17.165Z"/></g><g id="Window-3" data-name="Window"><g id="Window-4" data-name="Window"><path d="M133.857,45.858a.408.408,0,0,1-.2-.061l-25.5-14.778a1.7,1.7,0,0,1-.757-1.313V3.956c0-.283.119-.452.318-.452a.617.617,0,0,1,.3.1l25.5,14.764a1.707,1.707,0,0,1,.757,1.314V45.226a.819.819,0,0,1-.132.462A.351.351,0,0,1,133.857,45.858Z" fill="#fafafa"/><path d="M135.119,45.345c-.09.048-.732.415-1.013.576a.846.846,0,0,0,.3-.7V22.387l1.057-.621v22.86A.808.808,0,0,1,135.119,45.345Z" fill="#ececec"/></g><path id="Outline-2" data-name="Outline" d="M107.718,3.644a.464.464,0,0,1,.229.076l25.5,14.765a1.547,1.547,0,0,1,.687,1.192V45.226c0,.262-.129.492-.275.492a.276.276,0,0,1-.134-.042L108.226,30.9a1.546,1.546,0,0,1-.687-1.191V3.956c0-.116.024-.312.179-.312m0-.279c-.271,0-.457.216-.457.591v25.75a1.831,1.831,0,0,0,.826,1.434l25.5,14.778a.547.547,0,0,0,.273.08c.322,0,.554-.355.554-.772V19.677a1.831,1.831,0,0,0-.826-1.434l-25.5-14.765a.746.746,0,0,0-.369-.113Z" fill="#e1e1e1"/><g id="Up_Bar-2" data-name="Up Bar"><path d="M107.262,3.94V6.7L134.41,22.418l1.057-.617V19.075a1.726,1.726,0,0,0-.251-.829,1.659,1.659,0,0,0-.575-.6l-25.5-14.765a.591.591,0,0,0-.6-.048c-.15.093-.873.506-1.021.582a.259.259,0,0,0-.063.043.363.363,0,0,0-.065.065.419.419,0,0,0-.053.083.394.394,0,0,0-.04.1.5.5,0,0,0-.025.113v.005A.88.88,0,0,0,107.262,3.94Z" fill="#d268cc"/><path d="M107.262,3.94V6.7L134.41,22.418l1.057-.617V19.075a1.726,1.726,0,0,0-.251-.829,1.659,1.659,0,0,0-.575-.6l-25.5-14.765a.591.591,0,0,0-.6-.048c-.15.093-.873.506-1.021.582a.259.259,0,0,0-.063.043.363.363,0,0,0-.065.065.419.419,0,0,0-.053.083.394.394,0,0,0-.04.1.5.5,0,0,0-.025.113v.005A.88.88,0,0,0,107.262,3.94Z" opacity="0.15"/><path d="M107.262,3.94V6.7L134.41,22.418V19.677a1.453,1.453,0,0,0-.1-.514c-.01-.028-.02-.058-.032-.086a2.349,2.349,0,0,0-.113-.224,1.672,1.672,0,0,0-.58-.612l-25.5-14.762a.544.544,0,0,0-.632-.025.363.363,0,0,0-.065.065.419.419,0,0,0-.053.083.394.394,0,0,0-.04.1.5.5,0,0,0-.025.113v.005A.88.88,0,0,0,107.262,3.94Z" fill="#d268cc"/><path d="M112.805,7.263a1.362,1.362,0,0,1,.516,1.094c0,.44-.231.662-.516.5a1.368,1.368,0,0,1-.515-1.1C112.29,7.32,112.521,7.1,112.805,7.263Z" fill="#fafafa"/><path d="M110.95,6.186a1.367,1.367,0,0,1,.515,1.094c0,.44-.231.663-.515.5a1.365,1.365,0,0,1-.516-1.095C110.434,6.244,110.665,6.021,110.95,6.186Z" fill="#fafafa"/><path d="M109.094,5.109a1.365,1.365,0,0,1,.515,1.095c0,.439-.23.662-.515.5a1.364,1.364,0,0,1-.515-1.094C108.579,5.167,108.809,4.944,109.094,5.109Z" fill="#fafafa"/><path d="M108.087,3.478l25.5,14.764a1.7,1.7,0,0,1,.582.615l1.049-.61a1.656,1.656,0,0,0-.574-.6l-25.5-14.765a.579.579,0,0,0-.6-.049c-.148.091-.833.482-1.007.576A.592.592,0,0,1,108.087,3.478Z" fill="#d268cc"/><g opacity="0.5"><path d="M108.087,3.478l25.5,14.764a1.7,1.7,0,0,1,.582.615l1.049-.61a1.656,1.656,0,0,0-.574-.6l-25.5-14.765a.579.579,0,0,0-.6-.049c-.148.091-.833.482-1.007.576A.592.592,0,0,1,108.087,3.478Z" fill="#fff"/></g></g></g><g id="Chart"><path d="M132.085,23.68,109.7,10.8c-.315-.183-.57-.035-.57.329V27.735a1.262,1.262,0,0,0,.57.99l22.386,12.882c.315.182.57.034.57-.33V24.67A1.264,1.264,0,0,0,132.085,23.68Z" fill="#d268cc"/><path d="M132.085,23.68,109.7,10.8c-.315-.183-.57-.035-.57.329V27.735a1.262,1.262,0,0,0,.57.99l22.386,12.882c.315.182.57.034.57-.33V24.67A1.264,1.264,0,0,0,132.085,23.68Z" fill="#fff" opacity="0.9"/><g opacity="0.3"><path d="M109.719,11.49l22.071,12.7a.688.688,0,0,1,.276.48V40.916l-22.071-12.7a.686.686,0,0,1-.276-.48V11.49m-.275-.77c-.186,0-.315.15-.315.408V27.735a1.262,1.262,0,0,0,.57.99l22.386,12.882a.517.517,0,0,0,.255.078c.187,0,.315-.15.315-.408V24.67a1.264,1.264,0,0,0-.57-.99L109.7,10.8a.519.519,0,0,0-.255-.079Z" fill="#d268cc"/></g><g opacity="0.3"><path d="M129.969,38.154a36.98,36.98,0,0,0-.274-3.921c-.167-1.414-.509-3.8-1.868-4.585s-1.869.635-2.066,1.336c-.255.909-1.583.333-1.769-1.165s-.305-6.268-1.9-7.19-2.107,1.3-2.288,1.917c-.356,1.217-1.4.882-1.744.075s-1.272-1-1.623.132-.569,2.436-1.708,1.767c-1-.586-.54-1.656-1.515-2.163-.771-.4-1.129,1.508-1.129,3.441Z" fill="#d268cc"/><path d="M129.808,28.68c0,.208-.186.269-.416.136l-2.256-1.3a.837.837,0,0,1-.415-.618c0-.208.186-.268.415-.135l2.256,1.3A.834.834,0,0,1,129.808,28.68Z" fill="#d268cc"/><path d="M123.492,21.99c0,.208-.186.269-.416.136l-2.256-1.3a.837.837,0,0,1-.415-.618c0-.207.186-.268.415-.135l2.256,1.3A.834.834,0,0,1,123.492,21.99Z" fill="#d268cc"/><path d="M119.053,22.862c0,.208-.186.269-.416.136l-2.256-1.3a.836.836,0,0,1-.416-.618c0-.208.186-.268.416-.135l2.256,1.3A.834.834,0,0,1,119.053,22.862Z" fill="#d268cc"/><path d="M114.9,23.817c0,.208-.186.269-.416.136l-2.256-1.3a.834.834,0,0,1-.416-.617c0-.208.186-.269.416-.136l2.256,1.3A.836.836,0,0,1,114.9,23.817Z" fill="#d268cc"/></g><line x1="127.827" y1="29.648" x2="127.827" y2="30.237" fill="none" stroke="#fff" stroke-linecap="round" stroke-linejoin="round" stroke-width="0.589"/><line x1="127.827" y1="32.685" x2="127.827" y2="35.134" fill="none" stroke="#fff" stroke-linecap="round" stroke-linejoin="round" stroke-width="0.589" stroke-dasharray="1.224 2.449"/><line x1="127.827" y1="36.358" x2="127.827" y2="36.947" fill="none" stroke="#fff" stroke-linecap="round" stroke-linejoin="round" stroke-width="0.589"/><line x1="117.316" y1="24.023" x2="117.316" y2="24.612" fill="none" stroke="#fff" stroke-linecap="round" stroke-linejoin="round" stroke-width="0.589"/><line x1="117.316" y1="26.87" x2="117.316" y2="29.128" fill="none" stroke="#fff" stroke-linecap="round" stroke-linejoin="round" stroke-width="0.589" stroke-dasharray="1.129 2.258"/><line x1="117.316" y1="30.256" x2="117.316" y2="30.845" fill="none" stroke="#fff" stroke-linecap="round" stroke-linejoin="round" stroke-width="0.589"/><line x1="113.211" y1="24.357" x2="113.21" y2="24.946" fill="none" stroke="#fff" stroke-linecap="round" stroke-linejoin="round" stroke-width="0.589"/><line x1="113.205" y1="27.875" x2="113.204" y2="28.464" fill="none" stroke="#fff" stroke-linecap="round" stroke-linejoin="round" stroke-width="0.589"/><line x1="121.734" y1="22.467" x2="121.734" y2="23.056" fill="none" stroke="#fff" stroke-linecap="round" stroke-linejoin="round" stroke-width="0.589"/><line x1="121.734" y1="25.496" x2="121.734" y2="31.595" fill="none" stroke="#fff" stroke-linecap="round" stroke-linejoin="round" stroke-width="0.589" stroke-dasharray="1.22 2.44"/><line x1="121.734" y1="32.815" x2="121.734" y2="33.404" fill="none" stroke="#fff" stroke-linecap="round" stroke-linejoin="round" stroke-width="0.589"/></g></g><g id="Donut_Chart_Window" data-name="Donut Chart Window"><g opacity="0.2"><path d="M30.057,50.282,46.9,40.536c.163-.094.3-.017.3.171V57.3a.654.654,0,0,1-.3.513L30.057,67.56c-.163.094-.295.017-.295-.171V50.8A.656.656,0,0,1,30.057,50.282Z"/></g><path d="M46.481,41.893,30.866,50.924a.72.72,0,0,0-.325.565V67.511a.709.709,0,0,0,.327.561l.619.353a.729.729,0,0,0,.653,0l15.614-9.031a.722.722,0,0,0,.326-.566V42.8a.715.715,0,0,0-.327-.562l-.62-.352A.726.726,0,0,0,46.481,41.893Z" fill="#d268cc"/><path d="M32.14,68.422a.745.745,0,0,1-.653,0l-.619-.354a.71.71,0,0,1-.327-.561V51.489a.677.677,0,0,1,.1-.333l1.267.735a.643.643,0,0,0-.1.321V68.233C31.814,68.423,31.948,68.533,32.14,68.422Z" opacity="0.2"/><g opacity="0.2"><path d="M48.075,42.745c-.025-.164-.159-.223-.321-.129L32.14,51.647a.666.666,0,0,0-.229.244l-1.268-.735a.647.647,0,0,1,.223-.232l15.615-9.031a.723.723,0,0,1,.652,0l.619.352A.717.717,0,0,1,48.075,42.745Z" fill="#fff"/></g><path d="M47.754,42.616,32.14,51.647a.721.721,0,0,0-.326.565V68.233c0,.209.146.293.326.189l15.614-9.031a.722.722,0,0,0,.326-.566V42.8C48.08,42.6,47.934,42.512,47.754,42.616Z" fill="#fff"/><path d="M47.819,42.88V58.825a.466.466,0,0,1-.2.339L32.075,68.158V52.212a.468.468,0,0,1,.2-.339L47.819,42.88m.081-.309a.3.3,0,0,0-.146.045L32.14,51.647a.721.721,0,0,0-.326.565V68.233c0,.148.074.233.181.233a.3.3,0,0,0,.145-.044l15.614-9.031a.722.722,0,0,0,.326-.566V42.8c0-.147-.074-.233-.18-.233Z" fill="#d268cc"/><path d="M37.142,52.787v2.254a4.23,4.23,0,0,0-1.759,3.372l-1.685.976A8.282,8.282,0,0,1,37.142,52.787Z" fill="#d268cc"/><path d="M35.877,59.761,34.664,62.03a3.259,3.259,0,0,1-.966-2.641l1.685-.976A1.684,1.684,0,0,0,35.877,59.761Z" fill="#d268cc"/><path d="M40.587,55.4c0,2.545-1.542,5.5-3.445,6.6a2.02,2.02,0,0,1-2.478.029l1.213-2.269a1.073,1.073,0,0,0,1.265-.014,4.23,4.23,0,0,0,1.76-3.372c0-1.3-.788-1.9-1.76-1.334V52.787C39.045,51.686,40.587,52.855,40.587,55.4Z" fill="#d268cc"/><g opacity="0.4"><path d="M40.587,55.4c0,2.545-1.542,5.5-3.445,6.6a2.02,2.02,0,0,1-2.478.029l1.213-2.269a1.073,1.073,0,0,0,1.265-.014,4.23,4.23,0,0,0,1.76-3.372c0-1.3-.788-1.9-1.76-1.334V52.787C39.045,51.686,40.587,52.855,40.587,55.4Z" fill="#fff"/></g><path d="M38.06,58.868a3.069,3.069,0,0,1-.918.879,1.073,1.073,0,0,1-1.265.014,1.684,1.684,0,0,1-.494-1.348l-1.685.976a3.259,3.259,0,0,0,.966,2.641A2.02,2.02,0,0,0,37.142,62a6.021,6.021,0,0,0,1.823-1.758Z" fill="#d268cc"/><path d="M38.06,58.868a3.069,3.069,0,0,1-.918.879,1.073,1.073,0,0,1-1.265.014,1.684,1.684,0,0,1-.494-1.348l-1.685.976a3.259,3.259,0,0,0,.966,2.641A2.02,2.02,0,0,0,37.142,62a6.021,6.021,0,0,0,1.823-1.758Z" opacity="0.3"/><path d="M42.706,51.388l-1,.581a.044.044,0,0,0-.02.035v1.163c0,.013.009.018.02.012l1-.581a.047.047,0,0,0,.02-.035V51.4C42.726,51.386,42.717,51.381,42.706,51.388Z" fill="#d268cc"/><path d="M42.706,51.388l-1,.581a.044.044,0,0,0-.02.035v1.163c0,.013.009.018.02.012l1-.581a.047.047,0,0,0,.02-.035V51.4C42.726,51.386,42.717,51.381,42.706,51.388Z" fill="#fff" opacity="0.4"/><path d="M43.448,51.373a.074.074,0,0,1-.037-.139l2.812-1.62a.074.074,0,0,1,.074.129l-2.812,1.62A.074.074,0,0,1,43.448,51.373Z" fill="#375a64"/><path d="M43.448,52.015a.074.074,0,0,1-.037-.139l2.812-1.62a.073.073,0,0,1,.1.027.074.074,0,0,1-.027.1l-2.812,1.62A.074.074,0,0,1,43.448,52.015Z" fill="#375a64"/><path d="M42.706,53.766l-1,.582a.044.044,0,0,0-.02.035v1.163c0,.013.009.018.02.012l1-.582a.044.044,0,0,0,.02-.035V53.778C42.726,53.765,42.717,53.76,42.706,53.766Z" fill="#d268cc"/><path d="M43.448,53.752a.074.074,0,0,1-.037-.139l2.812-1.62a.073.073,0,0,1,.1.027.074.074,0,0,1-.027.1l-2.812,1.62A.074.074,0,0,1,43.448,53.752Z" fill="#375a64"/><path d="M43.448,54.394a.076.076,0,0,1-.065-.038.074.074,0,0,1,.028-.1l2.812-1.621a.073.073,0,0,1,.1.028.074.074,0,0,1-.027.1l-2.812,1.62A.074.074,0,0,1,43.448,54.394Z" fill="#375a64"/><path d="M42.706,56.145l-1,.581a.047.047,0,0,0-.02.036v1.163c0,.013.009.018.02.011l1-.581a.044.044,0,0,0,.02-.035V56.157C42.726,56.144,42.717,56.139,42.706,56.145Z" fill="#d268cc"/><path d="M42.706,56.145l-1,.581a.047.047,0,0,0-.02.036v1.163c0,.013.009.018.02.011l1-.581a.044.044,0,0,0,.02-.035V56.157C42.726,56.144,42.717,56.139,42.706,56.145Z" opacity="0.3"/><path d="M43.448,56.131a.075.075,0,0,1-.037-.14l2.812-1.62a.075.075,0,0,1,.074.13l-2.812,1.62A.074.074,0,0,1,43.448,56.131Z" fill="#375a64"/><path d="M43.448,56.772a.074.074,0,0,1-.037-.139l2.812-1.62a.075.075,0,0,1,.074.13l-2.812,1.62A.084.084,0,0,1,43.448,56.772Z" fill="#375a64"/></g><g id="Customer_Window" data-name="Customer Window"><g opacity="0.2"><path d="M118.565,50.282l-16.843-9.746c-.163-.094-.295-.017-.295.171V57.3a.654.654,0,0,0,.295.513l16.843,9.746c.163.094.3.017.3-.171V50.8A.656.656,0,0,0,118.565,50.282Z"/></g><path d="M102.141,41.893l15.615,9.031a.72.72,0,0,1,.325.565V67.511a.709.709,0,0,1-.327.561l-.619.353a.729.729,0,0,1-.653,0l-15.614-9.031a.722.722,0,0,1-.326-.566V42.8a.715.715,0,0,1,.327-.562l.62-.352A.726.726,0,0,1,102.141,41.893Z" fill="#d268cc"/><path d="M116.482,68.422a.745.745,0,0,0,.653,0l.619-.354a.71.71,0,0,0,.327-.561V51.489a.677.677,0,0,0-.1-.333l-1.266.735a.652.652,0,0,1,.1.321V68.233C116.807,68.423,116.674,68.533,116.482,68.422Z" opacity="0.2"/><g opacity="0.2"><path d="M100.547,42.745c.025-.164.159-.223.321-.129l15.614,9.031a.677.677,0,0,1,.23.244l1.267-.735a.647.647,0,0,0-.223-.232l-15.615-9.031a.723.723,0,0,0-.652,0l-.619.352A.717.717,0,0,0,100.547,42.745Z" fill="#fff"/></g><path d="M100.868,42.616l15.614,9.031a.721.721,0,0,1,.326.565V68.233c0,.209-.146.293-.326.189l-15.614-9.031a.722.722,0,0,1-.326-.566V42.8C100.542,42.6,100.688,42.512,100.868,42.616Z" fill="#fff"/><path d="M100.8,42.88l15.549,8.993a.468.468,0,0,1,.195.339V68.158L101,59.164a.466.466,0,0,1-.2-.339V42.88m-.081-.309c-.106,0-.18.086-.18.233V58.825a.722.722,0,0,0,.326.566l15.614,9.031a.3.3,0,0,0,.145.044c.107,0,.18-.085.18-.233V52.212a.72.72,0,0,0-.325-.565l-15.614-9.031a.3.3,0,0,0-.146-.045Z" fill="#d268cc"/><path d="M106.174,49.851a3.117,3.117,0,0,0-1.3-2.486.8.8,0,0,0-.917-.023,1.225,1.225,0,0,0-.38,1.007,3.12,3.12,0,0,0,1.3,2.486.8.8,0,0,0,.918.023A1.228,1.228,0,0,0,106.174,49.851Zm-3.68,2.745,4.767,2.761-.078-.893a3.627,3.627,0,0,0-1.392-2.672l-1.828-1.058a.8.8,0,0,0-.92,0,1.48,1.48,0,0,0-.471,1.064Z" fill="#d268cc"/><path d="M104.877,58.067a3.12,3.12,0,0,0-1.3-2.486.8.8,0,0,0-.917-.023,1.225,1.225,0,0,0-.38,1.007,3.12,3.12,0,0,0,1.3,2.486.8.8,0,0,0,.917.023A1.225,1.225,0,0,0,104.877,58.067Z" fill="#375a64"/><path d="M109.6,60.7a3.12,3.12,0,0,0-1.3-2.487.8.8,0,0,0-.917-.023A1.225,1.225,0,0,0,107,59.2a3.117,3.117,0,0,0,1.3,2.486.8.8,0,0,0,.917.023A1.222,1.222,0,0,0,109.6,60.7Z" fill="#d268cc"/><path d="M114.319,63.334a3.12,3.12,0,0,0-1.3-2.486.8.8,0,0,0-.918-.023,1.228,1.228,0,0,0-.38,1.007,3.121,3.121,0,0,0,1.3,2.486.8.8,0,0,0,.917.023A1.225,1.225,0,0,0,114.319,63.334Z" fill="#d268cc"/><path d="M114.319,63.334a3.12,3.12,0,0,0-1.3-2.486.8.8,0,0,0-.918-.023,1.228,1.228,0,0,0-.38,1.007,3.121,3.121,0,0,0,1.3,2.486.8.8,0,0,0,.917.023A1.225,1.225,0,0,0,114.319,63.334Z" fill="#fff" opacity="0.5"/><path d="M114.576,54.291a.146.146,0,0,0,.073-.273l-5.517-3.179a.145.145,0,0,0-.2.054.147.147,0,0,0,.054.2l5.516,3.179A.15.15,0,0,0,114.576,54.291Z" fill="#375a64"/><path d="M114.576,55.55a.146.146,0,0,0,.073-.273L109.132,52.1a.146.146,0,0,0-.145.254l5.516,3.179A.15.15,0,0,0,114.576,55.55Z" fill="#375a64"/><path d="M114.576,57.883a.146.146,0,0,0,.073-.273l-5.517-3.178a.144.144,0,0,0-.2.054.146.146,0,0,0,.054.2l5.516,3.179A.15.15,0,0,0,114.576,57.883Z" fill="#e1e1e1"/><path d="M114.576,59.142a.146.146,0,0,0,.073-.273l-5.517-3.178a.145.145,0,0,0-.2.053.147.147,0,0,0,.054.2l5.516,3.179A.15.15,0,0,0,114.576,59.142Z" fill="#e1e1e1"/></g><g id="Arrows"><g id="Arrow-2" data-name="Arrow"><polygon points="43.064 37.24 44.273 37.94 46.262 36.788 46.262 12.423 47.589 11.655 45.313 9.9 44.104 9.2 41.738 13.643 42.946 14.343 43.064 14.275 43.064 37.24" fill="#d268cc"/><polygon points="43.064 37.24 44.273 37.94 46.262 36.788 46.262 12.423 47.589 11.655 45.313 9.9 44.104 9.2 41.738 13.643 42.946 14.343 43.064 14.275 43.064 37.24" fill="#fff" opacity="0.8"/><polygon id="Down_Arrow" data-name="Down Arrow" points="44.273 37.94 46.262 36.788 46.262 12.423 47.589 11.655 45.313 9.9 42.946 14.343 44.273 13.575 44.273 37.94" fill="#d268cc"/><polygon id="Down_Arrow-2" data-name="Down Arrow" points="44.273 37.94 46.262 36.788 46.262 12.423 47.589 11.655 45.313 9.9 42.946 14.343 44.273 13.575 44.273 37.94" fill="#fff" opacity="0.7"/><polygon points="43.064 37.24 44.273 37.94 44.273 13.575 43.064 14.275 43.064 37.24" fill="#d268cc"/><polygon points="43.064 37.24 44.273 37.94 44.273 13.575 43.064 14.275 43.064 37.24" fill="#fff" opacity="0.5"/></g><g id="Arrow-3" data-name="Arrow"><polygon points="48.72 34.309 49.626 34.834 51.117 33.971 51.117 14.171 52.111 13.595 50.406 12.28 49.5 11.755 47.726 15.085 48.632 15.61 48.72 15.559 48.72 34.309" fill="#d268cc"/><polygon points="48.632 15.61 50.406 12.28 49.5 11.755 47.726 15.085 48.632 15.61" fill="#fff" opacity="0.1"/><polygon id="Down_Arrow-3" data-name="Down Arrow" points="49.626 34.834 51.117 33.971 51.117 14.171 52.111 13.595 50.406 12.28 48.632 15.61 49.626 15.034 49.626 34.834" fill="#d268cc"/><polygon id="Down_Arrow-4" data-name="Down Arrow" points="49.626 34.834 51.117 33.971 51.117 14.171 52.111 13.595 50.406 12.28 48.632 15.61 49.626 15.034 49.626 34.834" opacity="0.1"/><polygon points="48.72 34.309 49.626 34.834 49.626 15.034 48.72 15.559 48.72 34.309" opacity="0.3"/></g></g><g id="Icon"><path d="M118.56,41.857c0-.422.3-.593.659-.382l5.5,3.191a1.463,1.463,0,0,1,.659,1.145v8.367c0,.421-.3.592-.659.381l-5.5-3.191a1.462,1.462,0,0,1-.659-1.145Z" opacity="0.15"/><path d="M123.5,45.406l-5.5-3.192a1.457,1.457,0,0,0-1.318,0l-.536.311a1.463,1.463,0,0,0-.659,1.145v8.367a1.46,1.46,0,0,0,.659,1.144l5.5,3.192a1.457,1.457,0,0,0,1.318,0l.536-.311a1.462,1.462,0,0,0,.659-1.145V46.551A1.46,1.46,0,0,0,123.5,45.406Z" fill="#2b454e"/><path d="M115.481,43.67c0-.421.3-.592.659-.381l5.5,3.191a1.46,1.46,0,0,1,.659,1.145v8.366c0,.422-.3.592-.659.382l-5.5-3.192a1.46,1.46,0,0,1-.659-1.144Z" fill="#375a64"/><path d="M124.156,54.917a1.462,1.462,0,0,1-.659,1.145l-.536.311a1.471,1.471,0,0,1-1.206.053c.31.118.547-.058.547-.435V47.625a1.358,1.358,0,0,0-.193-.652l1.854-1.074a1.347,1.347,0,0,1,.193.652Z" fill="#1a2e35"/><path d="M119.517,52.051l-1.066-.619c-.045-.027-.081.009-.081.078a.211.211,0,0,0,.081.17l1.066.619c.045.024.08-.009.08-.078A.206.206,0,0,0,119.517,52.051Zm-.914-2.862.006.018c.029.116.059.245.086.379a8.076,8.076,0,0,1,.1,1.637v.17l.381.219v-.135a6.281,6.281,0,0,1,.1-1.518,1.517,1.517,0,0,1,.086-.283l.009-.021-.021-.024a2.282,2.282,0,0,1-.256-.365c-.042-.077-.083-.152-.119-.23l0-.009a.627.627,0,0,1-.116.09A.491.491,0,0,1,118.6,49.189Zm.914,3.322-1.066-.616c-.045-.026-.081.006-.081.075a1.62,1.62,0,0,0,.614,1.3c.336.2.61-.069.61-.592A.218.218,0,0,0,119.517,52.511Zm-.453-6.394a.95.95,0,0,0-1.221-.006,2.078,2.078,0,0,0-.512,1.551,5.047,5.047,0,0,0,.813,2.662,1.321,1.321,0,0,1,.22.708.186.186,0,0,0,.072.152l.214.123v-.114a8.229,8.229,0,0,0-.1-1.6c-.03-.152-.063-.287-.1-.4l-.012-.036a.277.277,0,0,1-.14-.048.661.661,0,0,1-.245-.236.41.41,0,0,1-.062-.3c.018-.08.065-.128.128-.128a.182.182,0,0,1,.083.024,1.01,1.01,0,0,1,.322.505l.006.018.027,0a.394.394,0,0,0,.214-.062.4.4,0,0,0,.113-.1l-.005-.021a1.475,1.475,0,0,1-.111-.744c.024-.089.075-.14.14-.14a.172.172,0,0,1,.087.027.485.485,0,0,1,.2.325.882.882,0,0,1-.113.622l-.007.012c.035.081.087.179.129.254a1.779,1.779,0,0,0,.247.349.308.308,0,0,1,.236-.158.19.19,0,0,1,.1.03.441.441,0,0,1,.185.3c.021.122-.009.209-.081.245a.18.18,0,0,1-.074.015.364.364,0,0,1-.182-.057,1.111,1.111,0,0,1-.131-.1,1.974,1.974,0,0,0-.089.275,6.356,6.356,0,0,0-.1,1.47c0,.042,0,.107,0,.167l.206.12a.041.041,0,0,0,.051,0,.108.108,0,0,0,.02-.066c0-.239.081-.409.218-.454.512-.17.822-.846.813-1.763A4.535,4.535,0,0,0,119.064,46.117Zm-.848,2.506a.1.1,0,0,0-.043-.013c-.069,0-.064.088-.048.132a.382.382,0,0,0,.113.162.275.275,0,0,0,.093.058c.023.007.083.024.08-.017a.281.281,0,0,0-.034-.1c-.013-.029-.027-.057-.043-.085A.336.336,0,0,0,118.216,48.623Zm.815.045a.619.619,0,0,0,.062-.378.211.211,0,0,0-.094-.151.092.092,0,0,0-.047-.015c-.02,0-.054.007-.072.07a.974.974,0,0,0,.062.444.22.22,0,0,0,.025.051.035.035,0,0,0,.014.013h.01A.052.052,0,0,0,119.031,48.668Zm.613,1.06a.287.287,0,0,0,.144.049.108.108,0,0,0,.053-.014.08.08,0,0,0,.032-.091.2.2,0,0,0-.088-.144.118.118,0,0,0-.061-.016.241.241,0,0,0-.17.109l-.006.008a.03.03,0,0,0,0,.021c.009.03.035.041.059.057A.2.2,0,0,0,119.644,49.728Z" fill="#d268cc"/><path d="M119.517,52.051l-1.066-.619c-.045-.027-.081.009-.081.078a.211.211,0,0,0,.081.17l1.066.619c.045.024.08-.009.08-.078A.206.206,0,0,0,119.517,52.051Zm-.914-2.862.006.018c.029.116.059.245.086.379a8.076,8.076,0,0,1,.1,1.637v.17l.381.219v-.135a6.281,6.281,0,0,1,.1-1.518,1.517,1.517,0,0,1,.086-.283l.009-.021-.021-.024a2.282,2.282,0,0,1-.256-.365c-.042-.077-.083-.152-.119-.23l0-.009a.627.627,0,0,1-.116.09A.491.491,0,0,1,118.6,49.189Zm.914,3.322-1.066-.616c-.045-.026-.081.006-.081.075a1.62,1.62,0,0,0,.614,1.3c.336.2.61-.069.61-.592A.218.218,0,0,0,119.517,52.511Zm-.453-6.394a.95.95,0,0,0-1.221-.006,2.078,2.078,0,0,0-.512,1.551,5.047,5.047,0,0,0,.813,2.662,1.321,1.321,0,0,1,.22.708.186.186,0,0,0,.072.152l.214.123v-.114a8.229,8.229,0,0,0-.1-1.6c-.03-.152-.063-.287-.1-.4l-.012-.036a.277.277,0,0,1-.14-.048.661.661,0,0,1-.245-.236.41.41,0,0,1-.062-.3c.018-.08.065-.128.128-.128a.182.182,0,0,1,.083.024,1.01,1.01,0,0,1,.322.505l.006.018.027,0a.394.394,0,0,0,.214-.062.4.4,0,0,0,.113-.1l-.005-.021a1.475,1.475,0,0,1-.111-.744c.024-.089.075-.14.14-.14a.172.172,0,0,1,.087.027.485.485,0,0,1,.2.325.882.882,0,0,1-.113.622l-.007.012c.035.081.087.179.129.254a1.779,1.779,0,0,0,.247.349.308.308,0,0,1,.236-.158.19.19,0,0,1,.1.03.441.441,0,0,1,.185.3c.021.122-.009.209-.081.245a.18.18,0,0,1-.074.015.364.364,0,0,1-.182-.057,1.111,1.111,0,0,1-.131-.1,1.974,1.974,0,0,0-.089.275,6.356,6.356,0,0,0-.1,1.47c0,.042,0,.107,0,.167l.206.12a.041.041,0,0,0,.051,0,.108.108,0,0,0,.02-.066c0-.239.081-.409.218-.454.512-.17.822-.846.813-1.763A4.535,4.535,0,0,0,119.064,46.117Zm-.848,2.506a.1.1,0,0,0-.043-.013c-.069,0-.064.088-.048.132a.382.382,0,0,0,.113.162.275.275,0,0,0,.093.058c.023.007.083.024.08-.017a.281.281,0,0,0-.034-.1c-.013-.029-.027-.057-.043-.085A.336.336,0,0,0,118.216,48.623Zm.815.045a.619.619,0,0,0,.062-.378.211.211,0,0,0-.094-.151.092.092,0,0,0-.047-.015c-.02,0-.054.007-.072.07a.974.974,0,0,0,.062.444.22.22,0,0,0,.025.051.035.035,0,0,0,.014.013h.01A.052.052,0,0,0,119.031,48.668Zm.613,1.06a.287.287,0,0,0,.144.049.108.108,0,0,0,.053-.014.08.08,0,0,0,.032-.091.2.2,0,0,0-.088-.144.118.118,0,0,0-.061-.016.241.241,0,0,0-.17.109l-.006.008a.03.03,0,0,0,0,.021c.009.03.035.041.059.057A.2.2,0,0,0,119.644,49.728Z" fill="#fff" opacity="0.85"/></g><g id="Icon-2" data-name="Icon"><path d="M128.075,47.359c0-.422.3-.593.659-.382l5.5,3.191a1.462,1.462,0,0,1,.66,1.145V59.68c0,.421-.3.592-.66.381l-5.5-3.191a1.462,1.462,0,0,1-.659-1.145Z" opacity="0.15"/><path d="M133.012,50.908l-5.5-3.191a1.451,1.451,0,0,0-1.318,0l-.537.31A1.463,1.463,0,0,0,125,49.172v8.367a1.463,1.463,0,0,0,.659,1.145l5.5,3.191a1.451,1.451,0,0,0,1.318,0l.537-.311a1.462,1.462,0,0,0,.659-1.145V52.053A1.462,1.462,0,0,0,133.012,50.908Z" fill="#d268cc"/><path d="M133.012,50.908l-5.5-3.191a1.451,1.451,0,0,0-1.318,0l-.537.31A1.463,1.463,0,0,0,125,49.172v8.367a1.463,1.463,0,0,0,.659,1.145l5.5,3.191a1.451,1.451,0,0,0,1.318,0l.537-.311a1.462,1.462,0,0,0,.659-1.145V52.053A1.462,1.462,0,0,0,133.012,50.908Z" fill="#fff" opacity="0.7"/><path d="M125,49.172c0-.421.3-.592.659-.381l5.5,3.191a1.462,1.462,0,0,1,.659,1.145v8.366c0,.422-.3.593-.659.382l-5.5-3.191A1.463,1.463,0,0,1,125,57.539Z" fill="#d268cc"/><path d="M125,49.172c0-.421.3-.592.659-.381l5.5,3.191a1.462,1.462,0,0,1,.659,1.145v8.366c0,.422-.3.593-.659.382l-5.5-3.191A1.463,1.463,0,0,1,125,57.539Z" fill="#fff" opacity="0.4"/><path d="M133.671,60.419a1.462,1.462,0,0,1-.659,1.145l-.537.311a1.469,1.469,0,0,1-1.2.053c.31.118.546-.058.546-.435V53.127a1.358,1.358,0,0,0-.193-.652l1.855-1.074a1.358,1.358,0,0,1,.193.652Z" fill="#d268cc"/><path d="M133.671,60.419a1.462,1.462,0,0,1-.659,1.145l-.537.311a1.469,1.469,0,0,1-1.2.053c.31.118.546-.058.546-.435V53.127a1.358,1.358,0,0,0-.193-.652l1.855-1.074a1.358,1.358,0,0,1,.193.652Z" fill="#fff" opacity="0.2"/><path d="M125.89,53.884a4.883,4.883,0,0,0,.038.594.146.146,0,0,0,.053.1l.461.336a.7.7,0,0,1,.233.379h0l0,.008a.419.419,0,0,1-.035.374l-.288.32a.1.1,0,0,0,0,.1,6.547,6.547,0,0,0,.607,1.16c.022.033.052.049.072.039l.361-.178c.082-.039.194.008.3.123l.007.006a.764.764,0,0,1,.181.417l.054.648a.164.164,0,0,0,.049.1,3.549,3.549,0,0,0,.43.3,2.434,2.434,0,0,0,.428.2c.027.009.047-.008.05-.043l.051-.586c.012-.131.081-.21.181-.208h.006a.4.4,0,0,1,.3.217l.363.595c.021.034.051.053.072.045a1.3,1.3,0,0,0,.6-.462.108.108,0,0,0,0-.1l-.288-.652a.566.566,0,0,1-.036-.414v-.007a.166.166,0,0,1,.234-.11l.461.193c.027.012.049,0,.053-.035a3.939,3.939,0,0,0,.036-.55,4.938,4.938,0,0,0-.038-.595.152.152,0,0,0-.052-.1l-.463-.338a.7.7,0,0,1-.233-.374l0-.013a.426.426,0,0,1,.034-.374l.287-.319a.1.1,0,0,0,0-.1,6.479,6.479,0,0,0-.607-1.16c-.022-.032-.051-.049-.073-.039l-.361.176c-.08.04-.194-.008-.3-.121l0-.007a.747.747,0,0,1-.182-.418l-.055-.647a.147.147,0,0,0-.049-.1,2.887,2.887,0,0,0-.858-.5c-.026-.007-.046.008-.049.043l-.052.586c-.011.13-.08.21-.182.209h0a.41.41,0,0,1-.3-.219l-.363-.594c-.021-.034-.05-.051-.071-.043a1.276,1.276,0,0,0-.605.461.105.105,0,0,0,0,.1l.288.651a.568.568,0,0,1,.037.414l0,.011a.164.164,0,0,1-.232.106l-.46-.2c-.028-.011-.048,0-.053.036A4.159,4.159,0,0,0,125.89,53.884Zm1.245.717c0-.938.566-1.375,1.267-.972a3.059,3.059,0,0,1,1.273,2.435c0,.938-.566,1.372-1.268.969A3.055,3.055,0,0,1,127.135,54.6Z" fill="#fff"/></g><g id="Speech_Bubble" data-name="Speech Bubble"><g id="Speech_Bubble-2" data-name="Speech Bubble"><path d="M87.409,6.669A6.815,6.815,0,0,0,84.3,10.6l-.184.761a6.812,6.812,0,0,0,13.117,3.529l.221-.751A6.822,6.822,0,0,0,87.409,6.669Z" fill="#fff"/><path d="M87.131,6.16a7.44,7.44,0,0,0-3.25,9.006l-1.444,1.792a.431.431,0,0,0,.4.7l2.271-.348A7.4,7.4,0,1,0,87.131,6.16Zm9.6,3.025a6.833,6.833,0,0,1,.72,4.97l-.222.75a6.813,6.813,0,0,1-13.111-3.552l.185-.761A6.808,6.808,0,0,1,96.729,9.185Z" fill="#375a64"/></g><g id="Check"><path d="M89.782,16.52A1.069,1.069,0,0,1,89,16.181l-2.423-2.6a1.071,1.071,0,1,1,1.561-1.466l1.574,1.686,3.724-4.732A1.07,1.07,0,1,1,95.115,10.4l-4.494,5.71a1.068,1.068,0,0,1-.794.407Z" fill="#d268cc"/></g></g></g></g></svg>