<svg xmlns="http://www.w3.org/2000/svg" xmlns:xlink="http://www.w3.org/1999/xlink" viewBox="0 0 149.851 149.88"><defs><linearGradient id="linear-gradient" x1="12.526" y1="144.635" x2="132.168" y2="144.635" gradientUnits="userSpaceOnUse"><stop offset="0" stop-color="#53d8ff"/><stop offset="1" stop-color="#3840f7"/></linearGradient><linearGradient id="linear-gradient-2" x1="85.495" y1="113.034" x2="126.216" y2="113.034" xlink:href="#linear-gradient"/><linearGradient id="linear-gradient-3" x1="75.703" y1="113.034" x2="116.425" y2="113.034" xlink:href="#linear-gradient"/><linearGradient id="linear-gradient-4" x1="118.243" y1="95.167" x2="124.298" y2="95.167" xlink:href="#linear-gradient"/><linearGradient id="linear-gradient-5" x1="87.127" y1="62.82" x2="111.819" y2="62.82" gradientUnits="userSpaceOnUse"><stop offset="0" stop-color="#fdf53f"/><stop offset="1" stop-color="#d93c65"/></linearGradient><linearGradient id="linear-gradient-6" x1="59.572" y1="100.515" x2="66.703" y2="100.515" xlink:href="#linear-gradient"/><linearGradient id="linear-gradient-7" x1="20.058" y1="100.515" x2="59.572" y2="100.515" xlink:href="#linear-gradient"/><linearGradient id="linear-gradient-8" x1="135.266" y1="92.258" x2="139.36" y2="92.258" gradientUnits="userSpaceOnUse"><stop offset="0" stop-color="#cbdefe"/><stop offset="1" stop-color="#0062cc"/></linearGradient><linearGradient id="linear-gradient-9" x1="131.879" y1="57.935" x2="135.94" y2="57.935" gradientTransform="matrix(-0.358, 0.934, -0.934, -0.358, 249.158, -25.321)" xlink:href="#linear-gradient-8"/><linearGradient id="linear-gradient-10" x1="118.032" y1="91.514" x2="122.107" y2="91.514" gradientTransform="translate(124.306 214.843) rotate(-123.558)" xlink:href="#linear-gradient-8"/><linearGradient id="linear-gradient-11" x1="147.99" y1="41.551" x2="152.074" y2="41.551" gradientTransform="translate(-83.727 97.14) rotate(-23.576)" xlink:href="#linear-gradient-8"/><linearGradient id="linear-gradient-12" x1="164.507" y1="27.653" x2="168.565" y2="27.653" gradientTransform="translate(137.001 -97.2) rotate(101.025)" xlink:href="#linear-gradient-8"/><linearGradient id="linear-gradient-13" x1="152.14" y1="39.077" x2="154.927" y2="39.077" gradientTransform="translate(-7.105 -96.238) rotate(49.838)" xlink:href="#linear-gradient-8"/><linearGradient id="linear-gradient-14" x1="166.706" y1="30.781" x2="168.349" y2="30.781" gradientTransform="translate(235.049 123.685) rotate(-166.557)" xlink:href="#linear-gradient-8"/><linearGradient id="linear-gradient-15" x1="164.598" y1="38.543" x2="167.292" y2="38.543" gradientTransform="translate(235.049 123.685) rotate(-166.557)" xlink:href="#linear-gradient-8"/><linearGradient id="linear-gradient-16" x1="154.089" y1="54.562" x2="156.766" y2="54.562" gradientTransform="translate(238.138 -55.687) rotate(130.075)" xlink:href="#linear-gradient-8"/><linearGradient id="linear-gradient-17" x1="170.857" y1="56.104" x2="173.299" y2="56.104" gradientTransform="matrix(0.757, -0.654, 0.654, 0.757, -75.376, 106.217)" xlink:href="#linear-gradient-8"/><linearGradient id="linear-gradient-18" x1="150.348" y1="45.395" x2="151.823" y2="45.395" gradientTransform="matrix(0.756, 0.654, -0.654, 0.756, -16.711, -90.534)" xlink:href="#linear-gradient-8"/><linearGradient id="linear-gradient-19" x1="141.89" y1="51.013" x2="144.475" y2="51.013" gradientTransform="translate(114.508 175.019) rotate(-135.629)" xlink:href="#linear-gradient-8"/><linearGradient id="linear-gradient-20" x1="142.838" y1="49.611" x2="145.428" y2="49.611" gradientTransform="translate(-69.834 -82.388) rotate(30.154)" xlink:href="#linear-gradient-8"/><linearGradient id="linear-gradient-21" x1="152.407" y1="63.108" x2="154.996" y2="63.108" gradientTransform="translate(176.6 59.922) rotate(164.95)" xlink:href="#linear-gradient-8"/><linearGradient id="linear-gradient-22" x1="143.039" y1="38.704" x2="147.104" y2="38.704" gradientTransform="matrix(0.533, -0.846, 0.846, 0.533, -107.876, 156.138)" xlink:href="#linear-gradient-8"/><linearGradient id="linear-gradient-23" x1="148.913" y1="70.499" x2="152.973" y2="70.499" gradientTransform="translate(120.756 -45.097) rotate(109.306)" xlink:href="#linear-gradient-8"/><linearGradient id="linear-gradient-24" x1="142.677" y1="45.645" x2="145.603" y2="45.645" gradientTransform="translate(-84.625 208.912) rotate(-72.199)" xlink:href="#linear-gradient-8"/><linearGradient id="linear-gradient-25" x1="143.178" y1="56.144" x2="145.965" y2="56.144" gradientTransform="translate(-7.105 -96.238) rotate(49.838)" xlink:href="#linear-gradient-8"/><linearGradient id="linear-gradient-26" x1="158.313" y1="44.328" x2="160.444" y2="44.328" gradientTransform="translate(-61.828 -50.686) rotate(24.132)" xlink:href="#linear-gradient-8"/><linearGradient id="linear-gradient-27" x1="146.236" y1="78.628" x2="147.533" y2="78.628" gradientTransform="translate(26.642 -76.129) rotate(26.331)" xlink:href="#linear-gradient-8"/></defs><g id="Layer_2" data-name="Layer 2"><g id="Layer_37" data-name="Layer 37"><ellipse cx="72.347" cy="144.635" rx="59.821" ry="5.245" fill="url(#linear-gradient)"/><ellipse cx="12.668" cy="4.619" rx="4.659" ry="4.619" fill="#cbdefe"/><ellipse cx="62.764" cy="1.175" rx="1.186" ry="1.175" fill="#cbdefe"/><ellipse cx="102.534" cy="18.405" rx="1.519" ry="1.506" fill="#cbdefe"/><ellipse cx="148.66" cy="55.035" rx="1.191" ry="1.181" fill="#cbdefe"/><ellipse cx="134.653" cy="76.706" rx="1.552" ry="1.538" fill="#cbdefe"/><ellipse cx="142.211" cy="121.464" rx="3.142" ry="3.115" fill="#cbdefe"/><ellipse cx="3.444" cy="116.82" rx="3.444" ry="3.415" fill="#cbdefe"/><ellipse cx="10.338" cy="51.475" rx="2.329" ry="2.31" fill="#cbdefe"/><ellipse cx="120.342" cy="31.435" rx="1.66" ry="1.646" fill="none" stroke="#0864c2" stroke-miterlimit="10" stroke-width="0.25"/><ellipse cx="127.331" cy="45.918" rx="1.115" ry="1.105" fill="none" stroke="#0864c2" stroke-miterlimit="10" stroke-width="0.25"/><ellipse cx="123.216" cy="75.821" rx="0.659" ry="0.653" fill="none" stroke="#0864c2" stroke-miterlimit="10" stroke-width="0.25"/><ellipse cx="70.414" cy="86.567" rx="1.541" ry="1.528" fill="none" stroke="#0864c2" stroke-miterlimit="10" stroke-width="0.25"/><ellipse cx="16.939" cy="99.015" rx="0.855" ry="0.847" fill="none" stroke="#0864c2" stroke-miterlimit="10" stroke-width="0.25"/><ellipse cx="9.928" cy="74.986" rx="1.502" ry="1.489" fill="none" stroke="#0864c2" stroke-miterlimit="10" stroke-width="0.25"/><ellipse cx="12.396" cy="30.36" rx="0.966" ry="0.957" fill="none" stroke="#0864c2" stroke-miterlimit="10" stroke-width="0.25"/><ellipse cx="38.297" cy="42.883" rx="0.876" ry="0.868" fill="none" stroke="#0864c2" stroke-miterlimit="10" stroke-width="0.25"/><ellipse cx="36.531" cy="9.329" rx="2.064" ry="2.046" fill="none" stroke="#0864c2" stroke-miterlimit="10" stroke-width="0.25"/><ellipse cx="81.611" cy="40.968" rx="1.056" ry="1.047" fill="none" stroke="#0864c2" stroke-miterlimit="10" stroke-width="0.25"/><ellipse cx="61.472" cy="23.78" rx="0.876" ry="0.869" fill="none" stroke="#0864c2" stroke-miterlimit="10" stroke-width="0.25"/><ellipse cx="85.837" cy="9.908" rx="1.984" ry="1.967" fill="none" stroke="#0864c2" stroke-miterlimit="10" stroke-width="0.25"/><ellipse cx="90.99" cy="55.625" rx="0.596" ry="0.591" fill="none" stroke="#0864c2" stroke-miterlimit="10" stroke-width="0.25"/><ellipse cx="116.777" cy="71.931" rx="1.667" ry="1.653" fill="none" stroke="#0864c2" stroke-miterlimit="10" stroke-width="0.25"/><ellipse cx="140.008" cy="80.449" rx="0.939" ry="0.931" fill="none" stroke="#0864c2" stroke-miterlimit="10" stroke-width="0.25"/><ellipse cx="145.613" cy="97.587" rx="1.308" ry="1.297" fill="none" stroke="#0864c2" stroke-miterlimit="10" stroke-width="0.25"/><ellipse cx="136.159" cy="110.745" rx="1.506" ry="1.493" fill="none" stroke="#0864c2" stroke-miterlimit="10" stroke-width="0.25"/><ellipse cx="137.958" cy="73.398" rx="1.111" ry="1.102" fill="none" stroke="#0864c2" stroke-miterlimit="10" stroke-width="0.25"/><rect x="85.495" y="82.273" width="40.722" height="61.521" rx="2.317" fill="url(#linear-gradient-2)"/><rect x="75.703" y="82.273" width="40.722" height="61.521" rx="3.667" fill="url(#linear-gradient-3)"/><rect x="77.534" y="85.039" width="37.06" height="55.989" rx="3.667" fill="#fff"/><rect x="118.243" y="92.165" width="6.055" height="6.003" rx="1.827" fill="url(#linear-gradient-4)"/><rect x="79.262" y="87.621" width="33.603" height="3.773" rx="1.863" fill="#b2d7ff"/><rect x="80.951" y="89.122" width="23.102" height="0.771" fill="#fff"/><circle cx="107.407" cy="89.508" r="0.432" fill="#fff"/><circle cx="108.948" cy="89.508" r="0.432" fill="#fff"/><circle cx="110.591" cy="89.508" r="0.432" fill="#fff"/><line x1="65.983" y1="106.311" x2="75.703" y2="106.311" fill="#0864c2" stroke="#0864c2" stroke-miterlimit="10"/><line x1="65.905" y1="110.227" x2="75.625" y2="110.227" fill="#0864c2" stroke="#0864c2" stroke-miterlimit="10"/><rect x="79.262" y="94.831" width="33.603" height="3.773" rx="1.863" fill="#b2d7ff"/><rect x="80.951" y="96.332" width="23.102" height="0.771" fill="#fff"/><circle cx="107.407" cy="96.718" r="0.432" fill="#fff"/><circle cx="108.948" cy="96.718" r="0.432" fill="#fff"/><circle cx="110.591" cy="96.718" r="0.432" fill="#fff"/><rect x="79.262" y="102.041" width="33.603" height="3.773" rx="1.863" fill="#b2d7ff"/><rect x="80.951" y="103.543" width="23.102" height="0.771" fill="#fff"/><circle cx="107.407" cy="103.928" r="0.432" fill="#fff"/><circle cx="108.948" cy="103.928" r="0.432" fill="#fff"/><circle cx="110.591" cy="103.928" r="0.432" fill="#fff"/><rect x="79.262" y="109.252" width="33.603" height="3.773" rx="1.863" fill="#b2d7ff"/><rect x="80.951" y="110.753" width="23.102" height="0.771" fill="#fff"/><circle cx="107.407" cy="111.138" r="0.432" fill="#fff"/><circle cx="108.948" cy="111.138" r="0.432" fill="#fff"/><circle cx="110.591" cy="111.138" r="0.432" fill="#fff"/><rect x="79.262" y="116.462" width="33.603" height="3.773" rx="1.863" fill="#b2d7ff"/><rect x="80.951" y="117.963" width="23.102" height="0.771" fill="#fff"/><circle cx="107.407" cy="118.349" r="0.432" fill="#fff"/><circle cx="108.948" cy="118.349" r="0.432" fill="#fff"/><circle cx="110.591" cy="118.349" r="0.432" fill="#fff"/><rect x="79.262" y="123.672" width="33.603" height="3.773" rx="1.863" fill="#b2d7ff"/><rect x="80.951" y="125.173" width="23.102" height="0.771" fill="#fff"/><circle cx="107.407" cy="125.559" r="0.432" fill="#fff"/><circle cx="108.948" cy="125.559" r="0.432" fill="#fff"/><circle cx="110.591" cy="125.559" r="0.432" fill="#fff"/><rect x="79.342" y="130.674" width="33.603" height="3.773" rx="1.863" fill="#b2d7ff"/><rect x="81.031" y="132.175" width="23.102" height="0.771" fill="#fff"/><circle cx="107.487" cy="132.56" r="0.432" fill="#fff"/><circle cx="109.027" cy="132.56" r="0.432" fill="#fff"/><circle cx="110.671" cy="132.56" r="0.432" fill="#fff"/><path d="M96.876,37.652s-6.2,6.486.794,10.563c0,0,.634,2.071-.314,2.683l-.044,3.71s3.2,3.379,3.8,3.449,2.526-1.484,2.64-1.711-.821-2.013-.637-3.591a16.128,16.128,0,0,0,.28-4.684c-.043-4.162-.01-6.717-1.036-7.714s-2.176-3.206-2.956-3.3A8.17,8.17,0,0,0,96.876,37.652Z" fill="#ffbdbd"/><path d="M98.051,85.066S94.216,77.7,85.376,81.091c0,0-2.184,17.11-1.97,21.061,0,0-.511,6.248-4.5,8.9h2.608a6.715,6.715,0,0,0,2.539-5.527S89.932,92.747,90.3,86.067l.8-.789s9.261,18.68,10.564,20.764c0,0-1.6,4.355-2.828,5.013h2.1s3.552-3.5,3.046-4.724C103.978,106.331,99.354,85.929,98.051,85.066Z" fill="#ffbdbd"/><polygon points="84.103 106.719 84.835 109.247 82.187 112.541 77.907 112.541 78.318 110.914 79.639 110.373 81.371 110.6 84.103 106.719" fill="#0062cc"/><polygon points="104.067 106.521 104.798 109.049 102.151 112.343 97.871 112.343 98.281 110.716 99.602 110.175 101.334 110.402 104.067 106.521" fill="#0062cc"/><path d="M104.415,53.926s-3.328,1.609-3.483,2.683-1.623-3.369-2.707-2.683-.544,4.675-.544,4.675.049,10.816-.134,11.737.341,4.833,0,5.37-3.668,0-3.668,0-7.74,3.368-8.127,3.982a4.873,4.873,0,0,0-.543,2.147c0,.461,3.561-1.847,7.041,0s5.723,3.537,6.032,4.458,10.988,0,10.988,0,5.648-.91,4.879-8.275c0,0-1.7-3.99-2.7-4.145s-1.7-.768-2.476-.308-1.471.766-1.78.459-1.466-6.214-1.93-7.365a57.911,57.911,0,0,1-1.31-8.056c0-.69.777-4.752.777-4.752Z" fill="#fff"/><path d="M109.792,60.386c.014-.081.027-.162.045-.243a27.47,27.47,0,0,0-.253-4.071,21.282,21.282,0,0,0-.862-3.336,4.284,4.284,0,0,0-.841-1.5c-.008-.01-.014-.021-.023-.031-1.4-.163-2.805-.456-3.073-.989a26.944,26.944,0,0,0-1.617,8.414h-.009a19.191,19.191,0,0,1-.525,4.944,11.822,11.822,0,0,1-2.151,5.121,8.25,8.25,0,0,1-2.53,2.025V49.165q-.923,1.111-1.843,2.224c-4.329,5.637-8.983,18.26-8.983,18.26l4.325.32a33.739,33.739,0,0,0,1.263-3.219c.883-2.632,1.127-4.425,1.9-4.509.377-.042.7.342.844.5,1.43,1.6,1.422,5.524,1.158,8.561a12.29,12.29,0,0,1-2.777.631l1.765,4.38c.336-.3.66-.564.974-.814l1.371.587v-1.61c.311-.218.607-.418.866-.584,1.51-.968,2.044-1.092,3.495-2.1,1.607-1.114,2.411-1.671,2.926-2.541.051-.086.086-.169.129-.253.563,2.621,1.281,6.426.921,7.342,0,0,4.085.955,5.529-2.3C111.819,74.044,107.22,68.935,109.792,60.386Z" fill="url(#linear-gradient-5)"/><polygon points="103.949 75.337 92.044 75.168 82.633 78.245 97.36 78.416 103.949 75.337" fill="#001566"/><ellipse cx="86.684" cy="72.702" rx="1.452" ry="1.44" fill="#fff"/><ellipse cx="85.3" cy="72.296" rx="0.883" ry="0.876" fill="#fff"/><ellipse cx="88.164" cy="72.988" rx="0.883" ry="0.876" fill="#fff"/><polygon points="96.624 78.245 91.885 67.331 78.181 67.16 82.633 78.245 96.624 78.245" fill="#001566"/><path d="M97.4,39.532s-2.87,2.328-2.807,4.026c0,0-2.215-6.653,5.329-7.844,0,0,7.222.463,5.681,8.136,0,0-1.471,2.127-.406,3.818a3.492,3.492,0,0,1,.3,3.778s-1.615,2.714.991,2.649c0,0-1.78,4.144-6.334.846,0,0-1.353-4.019,1.264-5.289,0,0-2.232-3.154-.115-4.6C101.3,45.05,97.293,42.66,97.4,39.532Z" fill="#0b0b4f"/><polygon points="66.703 141.918 59.572 143.982 59.572 57.049 66.703 57.049 66.703 141.918" fill="url(#linear-gradient-6)"/><rect x="20.058" y="57.049" width="39.514" height="86.933" fill="url(#linear-gradient-7)"/><rect x="19.493" y="61.823" width="37.173" height="5.292" fill="#007bff"/><rect x="26.235" y="62.351" width="0.772" height="4.421" fill="#fff"/><rect x="28.117" y="62.351" width="0.772" height="4.421" fill="#fff"/><rect x="22.396" y="62.353" width="0.772" height="4.421" fill="#fff"/><rect x="24.277" y="62.353" width="0.772" height="4.421" fill="#fff"/><rect x="29.96" y="62.351" width="0.772" height="4.421" fill="#fff"/><rect x="31.842" y="62.351" width="0.772" height="4.421" fill="#fff"/><rect x="33.696" y="62.346" width="0.772" height="4.421" fill="#fff"/><rect x="35.578" y="62.346" width="0.772" height="4.421" fill="#fff"/><rect x="37.421" y="62.346" width="0.772" height="4.421" fill="#fff"/><rect x="39.303" y="62.346" width="0.772" height="4.421" fill="#fff"/><rect x="41.176" y="62.341" width="0.788" height="4.421" fill="#fff"/><rect x="43.098" y="62.341" width="0.788" height="4.421" fill="#fff"/><rect x="44.981" y="62.341" width="0.788" height="4.421" fill="#fff"/><rect x="46.904" y="62.341" width="0.788" height="4.421" fill="#fff"/><rect x="48.798" y="62.337" width="0.788" height="4.421" fill="#fff"/><rect x="50.72" y="62.337" width="0.788" height="4.421" fill="#fff"/><rect x="52.603" y="62.337" width="0.788" height="4.421" fill="#fff"/><rect x="54.525" y="62.337" width="0.788" height="4.421" fill="#fff"/><ellipse cx="20.966" cy="63.324" rx="0.825" ry="0.818" fill="#fff"/><ellipse cx="20.966" cy="65.47" rx="0.825" ry="0.818" fill="#0864c2"/><rect x="19.493" y="70.851" width="37.173" height="5.292" fill="#007bff"/><rect x="26.235" y="71.378" width="0.772" height="4.421" fill="#fff"/><rect x="28.117" y="71.378" width="0.772" height="4.421" fill="#fff"/><rect x="22.396" y="71.381" width="0.772" height="4.421" fill="#fff"/><rect x="24.277" y="71.381" width="0.772" height="4.421" fill="#fff"/><rect x="29.96" y="71.378" width="0.772" height="4.421" fill="#fff"/><rect x="31.842" y="71.378" width="0.772" height="4.421" fill="#fff"/><rect x="33.696" y="71.374" width="0.772" height="4.421" fill="#fff"/><rect x="35.578" y="71.374" width="0.772" height="4.421" fill="#fff"/><rect x="37.421" y="71.374" width="0.772" height="4.421" fill="#fff"/><rect x="39.303" y="71.374" width="0.772" height="4.421" fill="#fff"/><rect x="41.176" y="71.369" width="0.788" height="4.421" fill="#fff"/><rect x="43.098" y="71.369" width="0.788" height="4.421" fill="#fff"/><rect x="44.981" y="71.369" width="0.788" height="4.421" fill="#fff"/><rect x="46.904" y="71.369" width="0.788" height="4.421" fill="#fff"/><rect x="48.798" y="71.364" width="0.788" height="4.421" fill="#fff"/><rect x="50.72" y="71.364" width="0.788" height="4.421" fill="#fff"/><rect x="52.603" y="71.364" width="0.788" height="4.421" fill="#fff"/><rect x="54.525" y="71.364" width="0.788" height="4.421" fill="#fff"/><ellipse cx="20.966" cy="72.352" rx="0.825" ry="0.818" fill="#fff"/><ellipse cx="20.966" cy="74.498" rx="0.825" ry="0.818" fill="#0864c2"/><rect x="19.493" y="79.518" width="37.173" height="5.292" fill="#007bff"/><rect x="26.235" y="80.046" width="0.772" height="4.421" fill="#fff"/><rect x="28.117" y="80.046" width="0.772" height="4.421" fill="#fff"/><rect x="22.396" y="80.048" width="0.772" height="4.421" fill="#fff"/><rect x="24.277" y="80.048" width="0.772" height="4.421" fill="#fff"/><rect x="29.96" y="80.046" width="0.772" height="4.421" fill="#fff"/><rect x="31.842" y="80.046" width="0.772" height="4.421" fill="#fff"/><rect x="33.696" y="80.041" width="0.772" height="4.421" fill="#fff"/><rect x="35.578" y="80.041" width="0.772" height="4.421" fill="#fff"/><rect x="37.421" y="80.041" width="0.772" height="4.421" fill="#fff"/><rect x="39.303" y="80.041" width="0.772" height="4.421" fill="#fff"/><rect x="41.176" y="80.036" width="0.788" height="4.421" fill="#fff"/><rect x="43.098" y="80.036" width="0.788" height="4.421" fill="#fff"/><rect x="44.981" y="80.036" width="0.788" height="4.421" fill="#fff"/><rect x="46.904" y="80.036" width="0.788" height="4.421" fill="#fff"/><rect x="48.798" y="80.032" width="0.788" height="4.421" fill="#fff"/><rect x="50.72" y="80.032" width="0.788" height="4.421" fill="#fff"/><rect x="52.603" y="80.032" width="0.788" height="4.421" fill="#fff"/><rect x="54.525" y="80.032" width="0.788" height="4.421" fill="#fff"/><ellipse cx="20.966" cy="81.019" rx="0.825" ry="0.818" fill="#fff"/><ellipse cx="20.966" cy="83.165" rx="0.825" ry="0.818" fill="#0864c2"/><rect x="19.108" y="87.582" width="37.173" height="5.292" fill="#007bff"/><rect x="25.85" y="88.109" width="0.772" height="4.421" fill="#fff"/><rect x="27.731" y="88.109" width="0.772" height="4.421" fill="#fff"/><rect x="22.01" y="88.112" width="0.772" height="4.421" fill="#fff"/><rect x="23.892" y="88.112" width="0.772" height="4.421" fill="#fff"/><rect x="29.574" y="88.109" width="0.772" height="4.421" fill="#fff"/><rect x="31.456" y="88.109" width="0.772" height="4.421" fill="#fff"/><rect x="33.31" y="88.105" width="0.772" height="4.421" fill="#fff"/><rect x="35.192" y="88.105" width="0.772" height="4.421" fill="#fff"/><rect x="37.035" y="88.105" width="0.772" height="4.421" fill="#fff"/><rect x="38.917" y="88.105" width="0.772" height="4.421" fill="#fff"/><rect x="40.79" y="88.1" width="0.788" height="4.421" fill="#fff"/><rect x="42.713" y="88.1" width="0.788" height="4.421" fill="#fff"/><rect x="44.596" y="88.1" width="0.788" height="4.421" fill="#fff"/><rect x="46.518" y="88.1" width="0.788" height="4.421" fill="#fff"/><rect x="48.412" y="88.096" width="0.788" height="4.421" fill="#fff"/><rect x="50.334" y="88.096" width="0.788" height="4.421" fill="#fff"/><rect x="52.217" y="88.096" width="0.788" height="4.421" fill="#fff"/><rect x="54.139" y="88.096" width="0.788" height="4.421" fill="#fff"/><ellipse cx="20.58" cy="89.083" rx="0.825" ry="0.818" fill="#fff"/><ellipse cx="20.58" cy="91.229" rx="0.825" ry="0.818" fill="#0864c2"/><rect x="19.108" y="96.609" width="37.173" height="5.292" fill="#007bff"/><rect x="25.85" y="97.137" width="0.772" height="4.421" fill="#fff"/><rect x="27.731" y="97.137" width="0.772" height="4.421" fill="#fff"/><rect x="22.01" y="97.139" width="0.772" height="4.421" fill="#fff"/><rect x="23.892" y="97.139" width="0.772" height="4.421" fill="#fff"/><rect x="29.574" y="97.137" width="0.772" height="4.421" fill="#fff"/><rect x="31.456" y="97.137" width="0.772" height="4.421" fill="#fff"/><rect x="33.31" y="97.132" width="0.772" height="4.421" fill="#fff"/><rect x="35.192" y="97.132" width="0.772" height="4.421" fill="#fff"/><rect x="37.035" y="97.132" width="0.772" height="4.421" fill="#fff"/><rect x="38.917" y="97.132" width="0.772" height="4.421" fill="#fff"/><rect x="40.79" y="97.128" width="0.788" height="4.421" fill="#fff"/><rect x="42.713" y="97.128" width="0.788" height="4.421" fill="#fff"/><rect x="44.596" y="97.128" width="0.788" height="4.421" fill="#fff"/><rect x="46.518" y="97.128" width="0.788" height="4.421" fill="#fff"/><rect x="48.412" y="97.123" width="0.788" height="4.421" fill="#fff"/><rect x="50.334" y="97.123" width="0.788" height="4.421" fill="#fff"/><rect x="52.217" y="97.123" width="0.788" height="4.421" fill="#fff"/><rect x="54.139" y="97.123" width="0.788" height="4.421" fill="#fff"/><ellipse cx="20.58" cy="98.11" rx="0.825" ry="0.818" fill="#fff"/><ellipse cx="20.58" cy="100.257" rx="0.825" ry="0.818" fill="#0864c2"/><rect x="19.108" y="105.277" width="37.173" height="5.292" fill="#007bff"/><rect x="25.85" y="105.804" width="0.772" height="4.421" fill="#fff"/><rect x="27.731" y="105.804" width="0.772" height="4.421" fill="#fff"/><rect x="22.01" y="105.807" width="0.772" height="4.421" fill="#fff"/><rect x="23.892" y="105.807" width="0.772" height="4.421" fill="#fff"/><rect x="29.574" y="105.804" width="0.772" height="4.421" fill="#fff"/><rect x="31.456" y="105.804" width="0.772" height="4.421" fill="#fff"/><rect x="33.31" y="105.8" width="0.772" height="4.421" fill="#fff"/><rect x="35.192" y="105.8" width="0.772" height="4.421" fill="#fff"/><rect x="37.035" y="105.8" width="0.772" height="4.421" fill="#fff"/><rect x="38.917" y="105.8" width="0.772" height="4.421" fill="#fff"/><rect x="40.79" y="105.795" width="0.788" height="4.421" fill="#fff"/><rect x="42.713" y="105.795" width="0.788" height="4.421" fill="#fff"/><rect x="44.596" y="105.795" width="0.788" height="4.421" fill="#fff"/><rect x="46.518" y="105.795" width="0.788" height="4.421" fill="#fff"/><rect x="48.412" y="105.79" width="0.788" height="4.421" fill="#fff"/><rect x="50.334" y="105.79" width="0.788" height="4.421" fill="#fff"/><rect x="52.217" y="105.79" width="0.788" height="4.421" fill="#fff"/><rect x="54.139" y="105.79" width="0.788" height="4.421" fill="#fff"/><ellipse cx="20.58" cy="106.778" rx="0.825" ry="0.818" fill="#fff"/><ellipse cx="20.58" cy="108.924" rx="0.825" ry="0.818" fill="#0864c2"/><rect x="18.722" y="112.723" width="37.173" height="5.292" fill="#007bff"/><rect x="25.464" y="113.25" width="0.772" height="4.421" fill="#fff"/><rect x="27.345" y="113.25" width="0.772" height="4.421" fill="#fff"/><rect x="21.624" y="113.253" width="0.772" height="4.421" fill="#fff"/><rect x="23.506" y="113.253" width="0.772" height="4.421" fill="#fff"/><rect x="29.189" y="113.25" width="0.772" height="4.421" fill="#fff"/><rect x="31.07" y="113.25" width="0.772" height="4.421" fill="#fff"/><rect x="32.924" y="113.246" width="0.772" height="4.421" fill="#fff"/><rect x="34.806" y="113.246" width="0.772" height="4.421" fill="#fff"/><rect x="36.649" y="113.246" width="0.772" height="4.421" fill="#fff"/><rect x="38.531" y="113.246" width="0.772" height="4.421" fill="#fff"/><rect x="40.404" y="113.241" width="0.788" height="4.421" fill="#fff"/><rect x="42.327" y="113.241" width="0.788" height="4.421" fill="#fff"/><rect x="44.21" y="113.241" width="0.788" height="4.421" fill="#fff"/><rect x="46.132" y="113.241" width="0.788" height="4.421" fill="#fff"/><rect x="48.026" y="113.236" width="0.788" height="4.421" fill="#fff"/><rect x="49.948" y="113.236" width="0.788" height="4.421" fill="#fff"/><rect x="51.831" y="113.236" width="0.788" height="4.421" fill="#fff"/><rect x="53.754" y="113.236" width="0.788" height="4.421" fill="#fff"/><ellipse cx="20.195" cy="114.224" rx="0.825" ry="0.818" fill="#fff"/><ellipse cx="20.195" cy="116.37" rx="0.825" ry="0.818" fill="#0864c2"/><rect x="18.722" y="121.75" width="37.173" height="5.292" fill="#007bff"/><rect x="25.464" y="122.278" width="0.772" height="4.421" fill="#fff"/><rect x="27.345" y="122.278" width="0.772" height="4.421" fill="#fff"/><rect x="21.624" y="122.28" width="0.772" height="4.421" fill="#fff"/><rect x="23.506" y="122.28" width="0.772" height="4.421" fill="#fff"/><rect x="29.189" y="122.278" width="0.772" height="4.421" fill="#fff"/><rect x="31.07" y="122.278" width="0.772" height="4.421" fill="#fff"/><rect x="32.924" y="122.273" width="0.772" height="4.421" fill="#fff"/><rect x="34.806" y="122.273" width="0.772" height="4.421" fill="#fff"/><rect x="36.649" y="122.273" width="0.772" height="4.421" fill="#fff"/><rect x="38.531" y="122.273" width="0.772" height="4.421" fill="#fff"/><rect x="40.404" y="122.269" width="0.788" height="4.421" fill="#fff"/><rect x="42.327" y="122.269" width="0.788" height="4.421" fill="#fff"/><rect x="44.21" y="122.269" width="0.788" height="4.421" fill="#fff"/><rect x="46.132" y="122.269" width="0.788" height="4.421" fill="#fff"/><rect x="48.026" y="122.264" width="0.788" height="4.421" fill="#fff"/><rect x="49.948" y="122.264" width="0.788" height="4.421" fill="#fff"/><rect x="51.831" y="122.264" width="0.788" height="4.421" fill="#fff"/><rect x="53.754" y="122.264" width="0.788" height="4.421" fill="#fff"/><ellipse cx="20.195" cy="123.251" rx="0.825" ry="0.818" fill="#fff"/><ellipse cx="20.195" cy="125.398" rx="0.825" ry="0.818" fill="#0864c2"/><rect x="18.722" y="130.418" width="37.173" height="5.292" fill="#007bff"/><rect x="25.464" y="130.945" width="0.772" height="4.421" fill="#fff"/><rect x="27.345" y="130.945" width="0.772" height="4.421" fill="#fff"/><rect x="21.624" y="130.948" width="0.772" height="4.421" fill="#fff"/><rect x="23.506" y="130.948" width="0.772" height="4.421" fill="#fff"/><rect x="29.189" y="130.945" width="0.772" height="4.421" fill="#fff"/><rect x="31.07" y="130.945" width="0.772" height="4.421" fill="#fff"/><rect x="32.924" y="130.941" width="0.772" height="4.421" fill="#fff"/><rect x="34.806" y="130.941" width="0.772" height="4.421" fill="#fff"/><rect x="36.649" y="130.941" width="0.772" height="4.421" fill="#fff"/><rect x="38.531" y="130.941" width="0.772" height="4.421" fill="#fff"/><rect x="40.404" y="130.936" width="0.788" height="4.421" fill="#fff"/><rect x="42.327" y="130.936" width="0.788" height="4.421" fill="#fff"/><rect x="44.21" y="130.936" width="0.788" height="4.421" fill="#fff"/><rect x="46.132" y="130.936" width="0.788" height="4.421" fill="#fff"/><rect x="48.026" y="130.931" width="0.788" height="4.421" fill="#fff"/><rect x="49.948" y="130.931" width="0.788" height="4.421" fill="#fff"/><rect x="51.831" y="130.931" width="0.788" height="4.421" fill="#fff"/><rect x="53.754" y="130.931" width="0.788" height="4.421" fill="#fff"/><ellipse cx="20.195" cy="131.919" rx="0.825" ry="0.818" fill="#fff"/><ellipse cx="20.195" cy="134.065" rx="0.825" ry="0.818" fill="#0864c2"/><path d="M78.168,20.979l1.277-.866c-.258-1.124-.272-1.181-.53-2.3l-1.53-.231-.7-.869.113-1.53-2.148-1.026-1.136,1.042H72.394l-1.136-1.042L69.11,15.178l.113,1.53-.7.869-1.53.231c-.259,1.124-.272,1.181-.53,2.3l1.277.866c.095.417.153.667.249,1.084l-.771,1.33,1.486,1.848,1.48-.45,1.009.482.569,1.427h2.383l.569-1.427,1.009-.482,1.48.45,1.486-1.848-.771-1.33Zm-5.214,2.974a3.527,3.527,0,1,1,3.558-3.527A3.542,3.542,0,0,1,72.954,23.953Z" fill="#007bff"/><path d="M83.37,22.566l.5-.341-.208-.906-.6-.091-.275-.342.044-.6-.845-.4-.447.41H81.1l-.447-.41-.845.4.044.6-.275.342-.6.091-.208.906.5.341.1.427-.3.523.584.727.583-.177.4.19.224.561h.937l.224-.561.4-.19.582.177.585-.727-.3-.523Zm-2.052,1.17a1.388,1.388,0,1,1,1.4-1.387A1.393,1.393,0,0,1,81.318,23.736Z" fill="#007bff"/><rect x="55.514" y="29.403" width="34.88" height="2.937" rx="1.468" fill="#007bff"/><rect x="56.737" y="29.666" width="17.287" height="2.411" rx="1.206" fill="#fff"/><polygon points="74.024 33.08 75.887 33.08 74.956 34.68 74.024 36.279 73.093 34.68 72.162 33.08 74.024 33.08" fill="#007bff"/><path d="M136.118,93.831a.587.587,0,0,1-.779-.261c-.131-.284-.1-.587.183-.669a.95.95,0,0,1-.154-.589.658.658,0,0,1,.574-.59,1.248,1.248,0,0,1,.588-.991,1.043,1.043,0,0,1,1.031.058,1.5,1.5,0,0,1,.564.719.606.606,0,0,1,.784-.238.819.819,0,0,1,.444.605.614.614,0,0,1-.339.664C138,92.99,137.133,93.38,136.118,93.831Z" fill="url(#linear-gradient-8)"/><path d="M146.1,77.336a.581.581,0,0,1,.524-.628c.315-.019.589.121.566.409a.972.972,0,0,1,.609.068.654.654,0,0,1,.351.743,1.252,1.252,0,0,1,.723.9,1.026,1.026,0,0,1-.423.934,1.516,1.516,0,0,1-.88.265.594.594,0,0,1-.056.811.829.829,0,0,1-.728.2.618.618,0,0,1-.5-.551C146.221,79.379,146.163,78.437,146.1,77.336Z" fill="url(#linear-gradient-9)"/><path d="M136.174,64.317a.577.577,0,0,1,.212.788c-.167.265-.441.4-.664.219a.963.963,0,0,1-.41.452.666.666,0,0,1-.814-.148,1.267,1.267,0,0,1-1.157.062,1.024,1.024,0,0,1-.521-.883,1.476,1.476,0,0,1,.293-.865.6.6,0,0,1-.634-.515.814.814,0,0,1,.263-.7.625.625,0,0,1,.745-.087C134.427,63.228,135.234,63.727,136.174,64.317Z" fill="url(#linear-gradient-10)"/><path d="M69.94,77.135a.587.587,0,0,1-.819.07c-.234-.209-.326-.5-.1-.686a.959.959,0,0,1-.379-.479.651.651,0,0,1,.289-.768,1.238,1.238,0,0,1,.138-1.141,1.037,1.037,0,0,1,.968-.356,1.5,1.5,0,0,1,.808.436.6.6,0,0,1,.622-.53.826.826,0,0,1,.651.378.611.611,0,0,1-.042.743C71.325,75.618,70.689,76.319,69.94,77.135Z" fill="url(#linear-gradient-11)"/><path d="M76.68,59.51a.579.579,0,0,1,.407-.709c.307-.072.6.019.628.306a.984.984,0,0,1,.612-.037.657.657,0,0,1,.475.672,1.258,1.258,0,0,1,.868.761,1.021,1.021,0,0,1-.254.993,1.51,1.51,0,0,1-.821.411.594.594,0,0,1,.087.808.826.826,0,0,1-.684.317.621.621,0,0,1-.593-.456C77.153,61.5,76.932,60.584,76.68,59.51Z" fill="url(#linear-gradient-12)"/><path d="M60.7,46.373a.393.393,0,0,1-.206-.518c.092-.193.267-.309.433-.2a.655.655,0,0,1,.242-.34.455.455,0,0,1,.564.038.866.866,0,0,1,.78-.133.7.7,0,0,1,.424.559,1.01,1.01,0,0,1-.13.61.41.41,0,0,1,.471.3.557.557,0,0,1-.123.5.428.428,0,0,1-.5.117C61.972,46.976,61.384,46.7,60.7,46.373Z" fill="url(#linear-gradient-13)"/><path d="M79.882,54.3a.234.234,0,0,1,.279.174c.025.123-.017.238-.134.244a.385.385,0,0,1,0,.244.266.266,0,0,1-.28.177.5.5,0,0,1-.322.332.417.417,0,0,1-.4-.118.6.6,0,0,1-.153-.333.243.243,0,0,1-.328.021.325.325,0,0,1-.116-.277.247.247,0,0,1,.194-.228Z" fill="url(#linear-gradient-14)"/><path d="M83.618,46.794a.385.385,0,0,1,.459.285c.039.2-.029.391-.22.4a.627.627,0,0,1,.007.4.435.435,0,0,1-.459.29.821.821,0,0,1-.528.545.688.688,0,0,1-.651-.193.981.981,0,0,1-.25-.546.4.4,0,0,1-.538.033.535.535,0,0,1-.191-.454.407.407,0,0,1,.319-.374C82.285,47.047,82.9,46.929,83.618,46.794Z" fill="url(#linear-gradient-15)"/><path d="M96.03,26.854a.384.384,0,0,1,.462-.279c.2.056.339.2.262.375a.636.636,0,0,1,.365.173.428.428,0,0,1,.056.536.817.817,0,0,1,.254.713.676.676,0,0,1-.466.49.993.993,0,0,1-.6-.023.392.392,0,0,1-.211.492.546.546,0,0,1-.495-.034.405.405,0,0,1-.194-.451C95.66,28.149,95.829,27.551,96.03,26.854Z" fill="url(#linear-gradient-16)"/><path d="M91.6,37.371a.351.351,0,0,1-.456.184c-.172-.078-.276-.229-.182-.375a.584.584,0,0,1-.3-.207.391.391,0,0,1,.028-.491.741.741,0,0,1-.125-.678.619.619,0,0,1,.49-.374.917.917,0,0,1,.541.107.356.356,0,0,1,.261-.412.5.5,0,0,1,.44.1.365.365,0,0,1,.109.433C92.124,36.258,91.885,36.772,91.6,37.371Z" fill="url(#linear-gradient-17)"/><path d="M67.186,42.774a.209.209,0,0,1-.151-.254c.032-.108.113-.183.209-.139a.344.344,0,0,1,.1-.2.241.241,0,0,1,.3-.027.457.457,0,0,1,.4-.133.374.374,0,0,1,.268.257.534.534,0,0,1-.018.329.217.217,0,0,1,.271.118.294.294,0,0,1-.023.269.224.224,0,0,1-.25.1Z" fill="url(#linear-gradient-18)"/><path d="M49.071,38.24a.366.366,0,0,1,.236.46c-.068.186-.219.308-.382.222a.6.6,0,0,1-.193.335.424.424,0,0,1-.524.015.8.8,0,0,1-.708.19.654.654,0,0,1-.441-.479.935.935,0,0,1,.066-.573.382.382,0,0,1-.461-.236.512.512,0,0,1,.069-.469.4.4,0,0,1,.45-.152C47.844,37.8,48.41,38,49.071,38.24Z" fill="url(#linear-gradient-19)"/><path d="M28.718,33.393a.367.367,0,0,1-.343-.388c.02-.2.136-.352.315-.309a.6.6,0,0,1,.1-.371.421.421,0,0,1,.5-.142.8.8,0,0,1,.64-.357.659.659,0,0,1,.546.357.938.938,0,0,1,.078.572.382.382,0,0,1,.5.116.512.512,0,0,1,.05.471.393.393,0,0,1-.4.257C30.018,33.526,29.418,33.467,28.718,33.393Z" fill="url(#linear-gradient-20)"/><path d="M12.253,37.732a.372.372,0,0,1,.52.033c.127.152.157.343,0,.439a.6.6,0,0,1,.192.335.413.413,0,0,1-.253.454.786.786,0,0,1-.2.7.663.663,0,0,1-.64.133.954.954,0,0,1-.465-.349.381.381,0,0,1-.439.274.519.519,0,0,1-.372-.3.387.387,0,0,1,.1-.462C11.243,38.553,11.708,38.173,12.253,37.732Z" fill="url(#linear-gradient-21)"/><path d="M2.952,55.918a.582.582,0,0,1-.637.514c-.313-.042-.554-.232-.474-.51a.982.982,0,0,1-.585-.185.653.653,0,0,1-.2-.8,1.249,1.249,0,0,1-.532-1.021,1.026,1.026,0,0,1,.6-.834A1.519,1.519,0,0,1,2.042,53a.594.594,0,0,1,.214-.784.829.829,0,0,1,.753-.05A.614.614,0,0,1,3.4,52.8C3.238,53.891,3.109,54.826,2.952,55.918Z" fill="url(#linear-gradient-22)"/><path d="M3.214,72.411a.58.58,0,0,1,.506-.643c.314-.028.591.1.576.392a.981.981,0,0,1,.612.051.655.655,0,0,1,.372.733,1.252,1.252,0,0,1,.749.877,1.025,1.025,0,0,1-.4.946,1.512,1.512,0,0,1-.872.29.593.593,0,0,1-.032.812.827.827,0,0,1-.722.216.619.619,0,0,1-.521-.537C3.393,74.449,3.308,73.51,3.214,72.411Z" fill="url(#linear-gradient-23)"/><path d="M3.728,86.788a.418.418,0,0,1-.352.473c-.226.026-.428-.064-.423-.272a.709.709,0,0,1-.442-.025.472.472,0,0,1-.282-.521.9.9,0,0,1-.556-.618.738.738,0,0,1,.267-.689,1.1,1.1,0,0,1,.623-.226.426.426,0,0,1,.007-.585.6.6,0,0,1,.517-.169.446.446,0,0,1,.385.377C3.56,85.323,3.64,86,3.728,86.788Z" fill="url(#linear-gradient-24)"/><path d="M41.877,50.531a.4.4,0,0,1-.206-.518c.093-.193.267-.309.433-.2a.654.654,0,0,1,.243-.339.455.455,0,0,1,.564.037.861.861,0,0,1,.78-.132.7.7,0,0,1,.424.559,1.023,1.023,0,0,1-.13.609.411.411,0,0,1,.47.3.556.556,0,0,1-.122.5.426.426,0,0,1-.5.117C43.149,51.134,42.562,50.858,41.877,50.531Z" fill="url(#linear-gradient-25)"/><path d="M64.6,55.421a.3.3,0,0,1-.314-.288c0-.163.08-.3.23-.279a.5.5,0,0,1,.054-.313.345.345,0,0,1,.4-.159.656.656,0,0,1,.492-.346.539.539,0,0,1,.477.244.769.769,0,0,1,.114.462.314.314,0,0,1,.423.051.423.423,0,0,1,.082.382.324.324,0,0,1-.3.244Z" fill="url(#linear-gradient-26)"/><path d="M122.848,59.773a.184.184,0,0,1-.184-.183c0-.1.056-.18.147-.164a.3.3,0,0,1,.039-.189.21.21,0,0,1,.247-.087.4.4,0,0,1,.307-.2.331.331,0,0,1,.285.16.465.465,0,0,1,.058.283.191.191,0,0,1,.256.042.256.256,0,0,1,.041.233.2.2,0,0,1-.191.142C123.5,59.8,123.2,59.786,122.848,59.773Z" fill="url(#linear-gradient-27)"/><path d="M126.929,95.443c.069.014.422.08.987.143" fill="none" stroke="#0864c2" stroke-miterlimit="10" stroke-width="0.25"/><path d="M129.787,95.706a19.367,19.367,0,0,0,6.474-.932" fill="none" stroke="#0864c2" stroke-miterlimit="10" stroke-width="0.25" stroke-dasharray="1.877 1.877 1.877 1.877"/><path d="M137.143,94.448a13.474,13.474,0,0,0,5.224-3.707c4.206-4.886,3.331-11.007,3.035-13.076-1.176-8.226-7.465-12.793-9.025-13.851-6.657-4.513-14.023-3.688-17.319-3.148" fill="none" stroke="#0864c2" stroke-miterlimit="10" stroke-width="0.25" stroke-dasharray="1.877 1.877 1.877 1.877 1.877 1.877"/><path d="M118.134,60.825c-.338.06-.664.126-.978.194" fill="none" stroke="#0864c2" stroke-miterlimit="10" stroke-width="0.25"/><path d="M113.947,61.928a16.7,16.7,0,0,0,3.874-3.767l-.233,2.784,1.6,2.288A16.709,16.709,0,0,0,113.947,61.928Z" fill="#0864c2"/><path d="M5.281,91.73c-1.124-5.779-8.479-45.519,8.2-55.21,10.7-6.221,31.306-.056,45.031,4.052,13.411,4.014,19.4,7.977,25.907,5.025,7.762-3.519,10.59-14.285,11.685-23.71" fill="none" stroke="#0864c2" stroke-miterlimit="10" stroke-width="0.25" stroke-dasharray="2 2 2 2 2 2"/><path d="M96.262,20.387a7.539,7.539,0,0,0,.923,2.264l-1.129-.569-1.231.284A7.572,7.572,0,0,0,96.262,20.387Z" fill="#0864c2"/><path d="M66.441,80.972c7.224-4.567,11.2-11.838,10.156-18.608-1-6.494-6.255-10.227-8.238-11.636-11.55-8.2-28.748-4.57-29.052-1.9-.272,2.387,12.673,6.725,24.576,6.945a53.991,53.991,0,0,0,18.612-3" fill="none" stroke="#0864c2" stroke-miterlimit="10" stroke-width="0.25" stroke-dasharray="2 2 2 2 2 2"/><path d="M83.853,52.279a7.266,7.266,0,0,0-1.585,1.731L82.3,52.8l-.752-.952A7.257,7.257,0,0,0,83.853,52.279Z" fill="#0864c2"/><polygon points="149.093 61.182 147.673 61.639 148.02 63.078 146.775 62.262 145.857 63.428 145.724 61.955 144.231 61.97 145.311 60.948 144.368 59.801 145.847 60 146.164 58.554 146.929 59.825 148.267 59.169 147.741 60.554 149.093 61.182" fill="#0062cc"/><polygon points="130.969 74.611 130.147 74.875 130.348 75.708 129.627 75.236 129.096 75.911 129.019 75.058 128.155 75.066 128.78 74.475 128.234 73.811 129.09 73.927 129.274 73.09 129.716 73.825 130.49 73.446 130.186 74.247 130.969 74.611" fill="#0062cc"/><polygon points="136.672 101.416 135.851 101.681 136.052 102.514 135.331 102.041 134.8 102.716 134.723 101.863 133.859 101.872 134.484 101.281 133.938 100.617 134.794 100.732 134.977 99.896 135.42 100.631 136.194 100.251 135.89 101.053 136.672 101.416" fill="#0062cc"/><polygon points="78.876 78.131 78.054 78.395 78.255 79.228 77.534 78.756 77.003 79.431 76.926 78.578 76.062 78.587 76.687 77.995 76.141 77.331 76.997 77.447 77.181 76.61 77.623 77.345 78.398 76.966 78.094 77.767 78.876 78.131" fill="#0062cc"/><polygon points="71.882 64.163 70.733 64.532 71.014 65.697 70.007 65.037 69.263 65.981 69.156 64.788 67.948 64.8 68.821 63.973 68.058 63.044 69.255 63.206 69.512 62.036 70.131 63.064 71.214 62.533 70.789 63.654 71.882 64.163" fill="#0062cc"/><polygon points="59.043 51.298 57.894 51.668 58.175 52.832 57.167 52.172 56.424 53.116 56.316 51.923 55.109 51.936 55.982 51.108 55.219 50.18 56.416 50.341 56.673 49.171 57.292 50.199 58.375 49.669 57.949 50.79 59.043 51.298" fill="#0062cc"/><polygon points="64.197 37.031 63.404 37.286 63.598 38.091 62.902 37.635 62.388 38.287 62.314 37.463 61.48 37.471 62.083 36.9 61.556 36.259 62.383 36.37 62.56 35.562 62.988 36.272 63.735 35.906 63.442 36.68 64.197 37.031" fill="#0062cc"/><polygon points="33.138 19.277 32.344 19.532 32.538 20.336 31.842 19.88 31.329 20.532 31.254 19.708 30.42 19.717 31.023 19.146 30.497 18.504 31.323 18.616 31.5 17.808 31.928 18.518 32.676 18.151 32.382 18.926 33.138 19.277" fill="#0062cc"/><polygon points="26.858 43.254 25.371 43.732 25.734 45.24 24.43 44.385 23.468 45.607 23.329 44.063 21.765 44.079 22.896 43.008 21.909 41.806 23.458 42.015 23.79 40.501 24.591 41.832 25.993 41.145 25.442 42.596 26.858 43.254" fill="#0062cc"/><polygon points="16.145 60.026 15.284 60.303 15.495 61.175 14.74 60.681 14.183 61.388 14.103 60.494 13.198 60.504 13.852 59.884 13.281 59.189 14.177 59.31 14.37 58.433 14.833 59.203 15.644 58.806 15.326 59.645 16.145 60.026" fill="#0062cc"/><polygon points="21.023 12.906 19.678 13.339 20.007 14.701 18.828 13.929 17.959 15.033 17.833 13.638 16.42 13.652 17.442 12.685 16.549 11.598 17.95 11.787 18.25 10.418 18.974 11.621 20.241 11 19.743 12.312 21.023 12.906" fill="#0062cc"/><polygon points="60.493 10.437 59.149 10.87 59.477 12.232 58.299 11.46 57.429 12.564 57.303 11.169 55.89 11.183 56.912 10.216 56.02 9.129 57.42 9.318 57.72 7.949 58.444 9.152 59.711 8.531 59.213 9.843 60.493 10.437" fill="#0062cc"/><polygon points="133.37 22.931 132.026 23.363 132.355 24.726 131.176 23.953 130.306 25.058 130.18 23.662 128.767 23.677 129.789 22.709 128.897 21.623 130.297 21.812 130.597 20.442 131.321 21.646 132.588 21.025 132.091 22.336 133.37 22.931" fill="#0062cc"/><polygon points="115.553 44.44 115.154 44.568 115.252 44.972 114.902 44.743 114.644 45.071 114.607 44.657 114.188 44.661 114.491 44.374 114.226 44.052 114.642 44.108 114.731 43.702 114.945 44.059 115.321 43.875 115.173 44.264 115.553 44.44" fill="#0062cc"/></g></g></svg>