<?xml version="1.0" encoding="utf-8"?>
<!-- Generator: Adobe Illustrator 25.3.1, SVG Export Plug-In . SVG Version: 6.00 Build 0)  -->
<svg version="1.1" id="Layer_1" xmlns="http://www.w3.org/2000/svg" xmlns:xlink="http://www.w3.org/1999/xlink" x="0px" y="0px"
	 viewBox="0 0 1440 1024" style="enable-background:new 0 0 1440 1024;" xml:space="preserve">
<style type="text/css">
	.st0{fill:#878787;}
</style>
<path class="st0" d="M476.41,557.69c3.15,2.26,8.58,1.11,8.67,8.01c0.05,3.99,19.1,7.54,21.15,3.92c4.49-7.92,12.16-6.99,19.03-8.11
	c9.02-1.48,12.44-4.43,13.86-13.44c0.83-5.26,8.64-11.03,14.65-9.94c4.06,0.74,7.42-0.17,11.14-1.24c2.59-0.75,5.17-1.88,8.13-1.69
	c4.48,0.29,8.71-0.29,12.9-2.82c5.08-3.07,11.22-2.7,17.07-2.69c0.92,0,2.27,0.8,2.79-0.68c0.55-1.57-0.32-2.34-1.79-2.76
	c-4.53-1.3-6.43-6.42-11.13-7.63c-2.47-0.64-1.41-2.47-0.24-3.41c2.81-2.26,5.63-3.06,9.48-1.38c3.4,1.49,7.59,5.2,10-3.09
	c1.25-4.27,5.27-7.41,3.15-12.99c-0.64-1.68,0.85-5.47,4-5.8c6.35-0.67,12.94-4.25,18.93,1.77c1.62,1.63,4.99,2.7,4.67-2.41
	c-0.17-2.68-0.37-6.56,3.37-7.07c3.6-0.49,8.44-2.34,9.65,3.98c0.46,2.42,2.73,3.25,4.8,3.44c2.21,0.21,2.6-1.69,3-3.5
	c0.72-3.2,3.51-2.68,5.82-2.93c5.47-0.59,7.62-3.18,5.32-8.61c-1.29-3.04-0.91-5.58,0.4-8.97c1.87-4.81-2.76-9.46-3.35-14.65
	c-0.59-5.19,0.46-11.44-5.35-14.94c3.03-7.67-1.55-16.5,3.7-23.86c1.85-2.6,4.66,0.45,6.48-1.49c-2.08-7.88-0.51-10.11,7.68-10.04
	c2.96,0.02,4.34-1.91,5.83-3.62c4.8-5.54,10.43-9.44,18.3-10.02c-0.94,5.48-1.33,10.81-6.24,15.21c-2.98,2.68-2.71,7.57,0.15,11.13
	c1.89,2.36,4.33,4.27,6.74,6.59c-6.07,3.9-10.36,9.11-15.21,13.74c-2.83,2.71-3.74,4.99,0.98,6.53c0.81,0.26,1.51,0.94,2.33,1.09
	c8.54,1.64,8.6,7.99,8.41,15.27c-4.95-2.18-9.61-3.85-12.59-8.25c-0.78-1.15-0.86-2.9-3.08-2.69c-2.32,0.22-2.75,2.07-3.22,3.52
	c-2.45,7.48,4.22,20.37,12.98,21.21c1.89,0.18,3.84,0.57,5.57,1.31c1.17,0.5,2.99,1.34,1.06,3.32c-1.29,1.32-4.08,3.2-2.52,4.62
	c1.78,1.62,5.77,2.98,7.58,2.06c10.1-5.13,22.86-4.19,31.08-13.56c0.87-1,3.04-1.22,3.44-0.11c0.82,2.26,4.79,3.29,2.86,6.51
	c-1.8,3.01-0.32,4.26,1.94,6.28c3.9,3.49,4.53,9.22,8.27,13.24c2.7,2.9,3.18,2.54,5.5-0.01c4.69-5.16,9.43-10.22,16.74-12.21
	c6.19-1.69,11.28-6.14,16.55-9.58c6.28-4.1,13.17-3.49,19.65-5.44c0.97-0.29,2.68,0.41,3.49,1.22c5.27,5.24,12.6,6.25,18.92,9.28
	c5.15,2.47,9.17-0.15,9.83-6.01c0.27-2.39,0.53-4.69,1.44-6.94c1.27-3.13,3.29-4.5,6.51-2.94c3.89,1.89,5.2-0.53,8.12-2.83
	c7.12-5.6,4.22-11.37,2.68-17.54c-3.39-13.63-3.14-27.28-0.38-40.99c2.02-10.05,8.5-12.94,16.95-7.55c2.89,1.84,5.84,3.54,8.33,5.94
	c5.05,4.89,14.54,4.6,19.65-0.52c1.52-1.52,0.96-3,0.27-4.66c-2.78-6.7-6.17-13.32-2.14-20.81c0.94-1.74-0.34-2.38-2.18-2.92
	c-8.59-2.57-13.8-10.51-13.11-19.63c0.06-0.76,0.53-1.78,1.14-2.17c6.01-3.85,10.12-9.91,18.03-11.76
	c11.2-2.61,22.17-4.55,33.67-3.37c2.61,0.27,5.14,0.63,5.98,2.98c0.72,2.03-1.4,3.71-2.77,5.32c-2.12,2.51-7.98,2.8-6.92,6.38
	c1.71,5.81,2.96,12.44,7.38,16.83c4.33,4.3,6.87,8.05,3.34,13.87c-0.5,0.83-0.76,2.76-0.33,3.07c6.82,4.92,5.31,14.25,10.49,19.83
	c4.64,5.01,8.26,9.85,5.28,17.17c-0.88,2.17,1.28,2.22,2.82,2.26c2.84,0.07,5.77,0.63,8.5,0.11c8.21-1.56,16,2.09,24.21,1.5
	c3.56-0.25,7.44,2.02,9.61,6.27c3.12,6.09,6.85,11.58,2.14,18.67c-1.27,1.91-0.49,4.31,2.37,6.37c11,7.94,21.52,16.54,32.17,24.96
	c1.29,1.02,3.22,2.5,1.21,4.21c-2,1.71-1.92,5.84-5.86,5.25c-1.26-0.19-2.46-0.92-3.72-1.04c-1.7-0.16-3.79-1.06-5.05,0.28
	c-1.5,1.6,0.35,3.3,1.09,4.64c3.05,5.48,5.4,11.19,6.61,17.35c0.78,3.98,3.38,5.26,7.15,5.8c4.17,0.6,4.61-2.47,5.46-4.9
	c1.04-2.95,2.31-4.72,5.85-4.22c1.34,0.19,2.84-0.82,4.28-1.26c11.74-3.58,18.26-0.37,23.24,11.27c2.26,5.28,3.37,10.84,11.93,10.44
	c5.14-0.24,7.31,7.22,11.28,10.76c0.92,0.82,1.31,2.25,2.23,3.07c1.8,1.62,23.63,2.4,25.68,0.9c2.96-2.16,6.33-3.89,9.58-1.88
	c8.73,5.39,18.59,4.03,27.82,4.31c11.08,0.34,17.84,7.55,26.14,12.5c0.51,0.3,1.19,1.14,1.08,1.52c-2.34,7.8,2.77,14.03,4.51,20.92
	c1.13,4.48,0.52,7.65-3.17,10.64c-4.86,3.93-9.46,8.21-13.95,12.55c-3.17,3.07-6.13,5.82-7.12,11.04
	c-1.07,5.63-7.75,7.88-12.55,10.3c-9.32,4.69-16.96,12.22-27.52,14.99c-4.21,1.11-7.77,5.53-11.09,8.96
	c-4.97,5.12-10.86,6.9-17.61,5.79c-1.83-0.3-3.26-0.72-4.79,0.48c-8.64,6.78-19.03,5.74-29.03,6.51c-3.35,0.26-4.9-0.26-5.06-4.4
	c-0.35-8.95-5.24-11.33-13.3-6.92c-1.94,1.06-3.3,1.58-5.19-0.08c-3.71-3.26-5.58-2.43-5.68,2.69c-0.07,3.44-0.98,6.85-1.1,10.29
	c-0.12,3.3-2.27,2.4-4.1,2.47c-1.78,0.07-4.78-0.72-3.74,2.53c2.18,6.82-3.24,10.12-6.24,14.46c-1.21,1.74-2.53,3.4-1.55,5.21
	c2.33,4.3,0.28,7.63-1.33,11.45c-1.5,3.58-3.22,5.28-7.19,4.4c-1.58-0.35-4.3-0.46-3.29,2.24c1.95,5.21-0.95,9.67-1.31,14.47
	c-0.47,6.29-0.1,12.65-0.27,18.97c-0.04,1.56,1.01,4.53-1.08,4.48c-6.57-0.16-5.46,5.71-7.6,8.9c-1.14,1.7-0.67,4.79-2.04,5.96
	c-8.52,7.29-2.5,12.5,2.2,17.95c0.87,1.01,0.41,2.51,1.51,4.11c-3.15,0-6.57,0.81-9.39-0.15c-8.05-2.75-12.55,3.24-17.95,6.72
	c-2.62,1.69-4.22,4.42-0.68,7.45c3.8,3.25,1.12,6.36-0.36,9.8c-5.16,12-5.99,13.11-19.08,9.4c-7.38-2.09-14.19,0.82-21.24-0.14
	c-1.52-0.21-2.3,1.13-3.13,2.07c-1.81,2.04-3.52,2.91-6.57,2.1c-4.17-1.12-6.01,2.47-4.41,5.24c3.35,5.78-1.93,7.33-4.36,8.42
	c-3.55,1.59-7.94,1.41-10.7-3.15c-0.83-1.37,0.93-4.93-2.49-4.1c-2.47,0.6-5.21,2.74-5.21,5.18c0.01,5.08-1.5,10.42,4.41,14.58
	c3.22,2.27,5,7.15,8.2,10.35c0.93,0.93,0.42,2.53-1.48,2.64c-0.87,0.05-1.75,0.09-2.62,0.05c-1.67-0.08-3.01,1.53-2.04,2.17
	c6.44,4.26-10.95,8.79,0.67,13.74c7.75,3.3,14.22,9.77,20.9,15.27c1.34,1.1,3.4,4.23,1.24,6.25c-1.53,1.43-4.01,0.68-5.85-1.03
	c-3.13-2.92-7.21,0.09-10.65-1.5c1.9-2.37,3.78-3.23-1.31-5.32c-7.75-3.19-15.19-5.44-23.5-4.81c-1.09,0.08-2.42-0.32-3.24,0.16
	c-8.17,4.83-12.7,1.08-15.94-6.4c-0.96-2.21-3.52-4.05,0.66-5.85c1.68-0.72,2.01-3.69-0.42-3.54c-11.24,0.67-13.16-8.34-16.94-15.5
	c-2.54-4.8-5.72-9.09-10.38-12c-5.95-3.72-8.74-10.24-7.64-17.15c1.09-6.78,1.72-13.64,2.44-20.48c0.2-1.9,0.28-3.78-1.5-5.36
	c-5.9-5.25-11.78-10.53-17.41-16.07c-1.87-1.85-4.07-1.13-6.05-1.86c-7.45-2.75-13.41-7.87-17.5-14.07
	c-5.62-8.53-14.52-9-22.61-11.53c-2.55-0.8-4.87-0.81-5.88-3.75c-1.06-3.07-3.53-4.86-6.41-5.97c-2.88-1.11-4.47-3.16-5.19-6.03
	c1.21-1.77,4.23,0.73,4.88-1.85c0.58-2.3-1.87-3.21-3-4.71c-4.08-5.42-10.48-9.1-10.45-17.46c0.02-3.81-5.27-4.74-8.52-5.95
	c-2.97-1.1-2.6,2.54-3.63,4.17c-1.75,2.78-5.74,1.85-7.65,5.15c-1.44-3.53-2.67-6.5-3.87-9.48c-1.24-3.11-3.15-6.31,2.37-7.48
	c1.9-0.4,2.59-2.43,2.01-4.28c-0.71-2.29-2.72-1.74-4.28-1.25c-7.11,2.22-14.19,4.57-21.27,6.88c-4.31,1.41-5.72,4.77-3.14,8.01
	c2.81,3.53,0.66,5.41-0.88,7.88c-1.64,2.63-6.37,3.73-5.04,7.69c1.63,4.84,3.78,10.12,8.19,12.77c14.71,8.86,22.9,21.58,26.16,38.34
	c0.78,3.99,3.16,9.07,8.43,10.58c6.27,1.8,8.83,9.97,16.62,9.34c4.93-0.4,9.92-0.07,15.07-0.07c-2.34,9.26-1.44,11.36,6.83,15.18
	c7.5,3.47,15.09,7.2,22.06,11.23c7.23,4.18,16.16,7.72,20.25,16.56c1.41,3.05,0.5,5.55-1.26,6.98c-1.65,1.34-4.39-0.55-5.4-2.12
	c-4.17-6.45-12.46-6.23-17.6-11.47c-3.31-3.38-8-1.39-10.52,2.9c-1.29,2.2-2.08,4.69-3.05,7.07c-3.79,9.28-4.03,9.76,4.57,14.31
	c5.28,2.8,4.99,6.87,5.23,11.4c0.25,4.78-3.74,3.92-6.26,4.9c-6.06,2.38-7.18,8.78-10.72,13.18c-3.62,4.5-7.08,7.86-13.48,5.48
	c1.29-3.02,2.94-6.05,2.61-9.65c-0.19-2.05,1.21-3.15,3.1-3.58c5.41-1.23,5.3-4.48,3.23-8.56c-2.12-4.18-1.78-8.94-2.09-13.31
	c-0.41-5.67-5.33-8.93-5.89-14.22c-0.15-1.42-1.67-1.05-2.7-1.04c-9.01,0.13-11.12-1.49-13.26-9.92c-0.69-2.72-1.66-5.24-5.43-4.69
	c-2.72,0.4-4.58-0.89-5.32-3.65c-0.17-0.62-0.44-1.66-0.79-1.72c-8.76-1.44-10.3-14.62-20.96-12.88
	c-7.44,1.22-10.63-4.76-12.94-9.43c-4.99-10.08-14.48-15.49-22.51-21.68c-4.51-3.48-7.32-6.59-9.35-11.37
	c-0.55-1.31-1.99-3.24-2.96-3.21c-7.14,0.22-4.94-5.01-4.27-8.06c1.95-8.79-3.14-15.27-7.81-20.73
	c-5.11-5.98-11.91-11.1-20.73-11.83c-4.01-0.33-7.7-0.91-10.52,2.94c-5.18,7.08-14.01,6.67-21.1,9.78
	c-3.04,1.33-6.18,2.35-8.02,5.06c-6.78,9.99-23.65,6.96-31.93,1.33c-3.04-2.06-4.89-8.2-10.6-5.05c-1.87-4.61-6.7-2.56-9.61-4.27
	c-10.33-6.04-17.42,1.99-24.52,6.09c-5.16,2.97-6.13,10.78-5.39,17.06c0.37,3.1,1.83,6.31,2.73,9.47c1.16,4.08-0.38,5.26-3.26,5.86
	c-12.17,2.53-22.38,11.32-36.14,9.75c-5.18-0.59-13.99-0.22-15.17,9.24c-0.09,0.74-1.51,1.82-2.38,1.88
	c-6.09,0.47-9.31,5.05-13.15,8.79c-1.56,1.52-3.07,3.14-4.84,4.37c-3.21,2.23-8.63,2.12-9.23,7.04c-0.87,7.26-3.55,14.92,2.2,21.58
	c0.86,1.33,1.04,2.67,0.02,4.01c-13.23,1.44-18.23,12.46-24.39,21.69c-1.86,2.78-3.96,2.65-5.02,1.76
	c-6.63-5.55-11.32,0.27-16.32,2.7c-2,0.97-3.97,2.86-5.58,4.94c-2.73,3.52-6.29,4.03-11.11,3.26c-13.08-2.1-25.9-4.96-38.47-9.09
	c-0.98-0.32-2.36-0.37-3.23,0.07c-6.52,3.34-13.28,4.01-20.41,2.5c-2.53-0.53-4.07,1.72-5.11,3.44c-2.97,4.94-7.14,4.01-10.2,1.34
	c-5.57-4.85-10.25-10.4-8.81-19c0.95-5.69-3.01-10.5-6.07-14.46c-2.51-3.25-8.39-2.77-12.66-2.77c-7.62-0.01-14.32-0.9-21.82-3.87
	c-7.61-3.02-8.48-4.27-5.42-11.34c2.85-6.59,4.7-13.55,9.3-19.31c3.57-4.47,1.64-6.49-3.75-6.66c1.34-2.42,3.52-4.31,2.47-7.34
	c-0.75,0-1.61,0.09-2.45-0.02c-1.81-0.22-4.16,0.91-5.22-1.36c-0.96-2.04,0.6-4.03,1.66-5.33c5.64-6.91,11.55-13.67,18.71-19.04
	c3.51-2.63,4.06-6.52,5.74-9.85c2.73-5.43,8.46-8.38,10.27-14.85c1.53-5.47,2.96-10.73,2.94-16.38c-0.02-4.71,1.01-8.85,3.56-13.17
	c1.56-2.65,7.3-8.42-1.23-11.05c1.52-1.75,2.17-4.01,1.37-5.97c-3.33-8.15,1.92-7.56,7.08-7.28c3.05,0.16,6.11,0.22,9.17,0.29
	c1.53,0.03,2.96-0.07,4.13-1.42c6.72-7.7,14.44-7.15,20.37,1.32c0.99,1.41,2.6,1.98,4.23,2.72c5.41,2.46,11.58,2.62,16.92,3.11
	c8.33,0.76,13.8,5.38,19.96,9.22c6.61,4.11,12.98,7.8,21.06,5.02c1.44-0.5,2.76-0.01,3.67,0.7c5.25,4.1,11.97,4.72,17.6,7.65
	c6.3,3.27,13,4.29,19.68,5.52c2.81,0.52,5.35-1.28,7.36-4.16c3.39-4.85,5.04-10.39,7.52-15.59c1.57-3.3,2.75-6.76,5.92-9.02
	c1.04-0.74,2.4-1.84,1.81-3.2c-3.29-7.51,1.17-12.8,4.93-18.36c0.43-0.64,0.73-1.77,0.46-2.41c-1.18-2.83-2.51-5.25,1.23-7.62
	c0.88-0.56,1.32-4.42-1.59-5.96c-1.48-0.78-2.67-2.13-3.79-3.05c1.66-2.7,4.73,0.12,5.4-2.43c0.77-2.93-2.27-3.22-3.9-4.39
	c-5.75-4.16-8.1-12.22-5.39-17.35c0.7-1.32,0.94-2.18,2.56-2.06c1.17,0.09,2.81,0.75,3.04-1.24c0.2-1.77-0.93-2.9-2.53-3.33
	c-2.9-0.76-5.84-1.35-9.03-2.06c2.31-4.49,0.56-6.26-4.09-8.1c-6.45-2.55-12.33-6.6-18.31-10.25c-1.48-0.9-2.58-2.14-4.56-2.02
	c-1.23,0.08-3.55,2.41-3.54-1.22c0.01-1.97-3.82-3.97,0.12-5.93c2.45-1.22,1.38-3.6,1.02-5.24c-0.93-4.27-1.03-5.96,4.49-4.34
	c4.67,1.37,10.02,6.23,15.15-0.6c1.1-1.47,6.44,0.15,7.89,2.58c3.82,6.41,10.29,4.91,15.78,6.1c2.47,0.53,5.17,0.18,7.43,1.64
	c1.82,1.18,3.47,1.58,5.25-0.11c1.59-1.51,2.23-2.9,1.08-5.12c-1-1.94-0.85-4.24-0.26-6.4c1.96-3.52-0.49-6.5-1.23-9.68
	C474.77,560.59,473.14,558.55,476.41,557.69z"/>
<path class="st0" d="M916.1,53.31c-1,1.13-1.61,1.69-2.06,2.35c-2,2.92-8,5.29-5.68,8.37c2.29,3.05,7.03,5.97,12.08,5.77
	c0.87-0.04,1.78-0.21,2.61-0.04c1.55,0.3,3.92-1.15,4.47,1.21c0.49,2.08-1.44,2.93-3.25,3.19c-1.95,0.27-3.9,1.57-3.89,2.99
	c0.02,5.02-4.06,7.48-6.29,11c-4.93,7.74-0.24,23.17,8.35,26.23c4.76,1.69,8.33,7.76,7.47,12.84c-0.29,1.7-0.49,3.49-1.2,5.02
	c-4.71,10.17-0.71,17.79,6.8,24.58c9.59,8.66,12.68,19.33,9.51,31.85c-0.51,2-0.71,4.11,1.37,5.24
	c9.31,5.06,11.56,14.07,12.52,23.36c0.74,7.18,3.92,11.04,10.8,13.19c12.01,3.75,13.25,7.34,7.64,18.73
	c-6.22,12.61-9.42,26.59-16.92,38.57c-5.53,8.82-10.32,18.53-23.45,18.88c-5.06,0.14-10.9,1.9-14.58,6.85
	c-2.55,3.43-6.23,5.14-10.41,5.98c-9.71,1.96-18.78,7.21-29.27,5.36c-1.93-0.34-4.2-0.38-5.39-1.6c-3.31-3.42-7.01-4.25-11.66-4.19
	c-4.17,0.05-7.17-5.45-5.64-10c3.97-11.86,1.26-22.89-3.52-33.75c-4.6-10.45-3.81-16.88,4.51-24.48
	c11.14-10.16,15.43-24.37,22.62-36.84c0.84-1.46,1.28-2.9,2.75-4.02c10.63-8.06,10.28-20.71-0.18-28.45
	c-4.12-3.05-7-7.57-12.77-2.75c-3.6,3.01-9.79,1.41-12.32,7.03c-1.65,3.67-5.85,5.25-8.22,8.79c-6.17,9.22-6.1,19.48-6.56,29.76
	c-0.22,4.88,0.2,9.82-6.97,10.15c-1.48,0.07-2.87,2.44-4.27,3.77c-0.79,0.75-1.39,2.04-2.3,2.28
	c-11.28,3.08-14.73,13.91-21.48,21.46c-0.86,0.96-2.59,1.84-2.59,2.76c-0.05,12.89-7.68,24.26-7.09,37.34
	c0.43,9.4,1.49,11.32,10.07,15.44c6.97,3.35,11.83,8.88,13.56,16.7c0.14,0.63,0.43,1.6,0.13,1.9c-6.95,7.06-6.14,18.65-16.16,24.55
	c-8.78,5.17-14.37,14.18-13.91,25.46c0.56,13.47-3.19,25.64-9.95,37.33c-3.24,5.61-7.93,7.59-13.28,8.53
	c-6.75,1.19-12.03,3.84-14.72,10.36c-2.12,5.13-6.42,3.89-10.47,4.19c-4.58,0.34-4.42-3.33-5.64-5.82
	c-3.6-7.29-6.17-14.67-1.94-22.71c1.28-2.43-0.46-4.56-1.45-6.69c-4.31-9.29-10.43-18.08-11.88-28.24
	c-1.61-11.33-7.8-20.6-11.54-30.91c-3.32-9.16-11.68-10.94-18.98-1.95c-9.29,11.43-21.84,18.11-35.67,22.19
	c-8.77,2.59-15.91-2.63-15.71-11.42c0.36-15.65-4.69-30.53-5.84-45.98c-0.66-8.82,1.6-16.25,6.2-22.97
	c2.38-3.47,2.63-6.79,2.94-10.43c0.41-4.69,1.21-8.85,7.39-8.7c6.39,0.15,9.71-3.83,11.39-9.35c1.26-4.15,3.93-5.18,7.92-5.36
	c9.34-0.44,18.66-1.18,22.54-12.14c0.43-1.21,0.75-3.32,3.36-3.28c5.55,0.09,8.63-3.66,9.6-8.44c1.06-5.23,4.62-8.32,8.69-9.57
	c6.23-1.91,8.94-7.04,12.84-11.1c3.04-3.16,3.44-6.34,0.82-10.69c-2.99-4.96,1.63-7.55,5.53-8.71c5.78-1.72,10.89-4.2,11.08-10.72
	c0.16-5.75,1.83-10.36,5.49-14.57c2.05-2.36,3.91-4.61,6.98-6c3.91-1.77,7.11-4.25,7.82-9.41c1.14-8.27,4.52-15.42,12.3-20.03
	c3.25-1.93,5.94-4.8,3.8-9.81c-2.24-5.23-4.98-6.44-9.85-3.62c-3.36,1.95-6.9,3.56-9.5,6.6c-2.25,2.64-5.17,3.85-8.66,3.7
	c-2.02-0.09-4.84,0.87-4.23-2.86c0.34-2.1-2.57-4.79,2.31-6.15c7.28-2.03,15.24-3.43,19.11-11.9c1.35-2.95,5.62-3.8,9.33-3.06
	c1.69,0.33,3.33,0.93,5.03,1.16c9.02,1.18,9.26,1.14,8.82-7.74c-0.32-6.34,3.31-9.58,8.51-10.2c4.02-0.48,5.85-1.75,6.56-5.44
	c1.28-6.63,7.97-11.13,15.64-9.3c1.26,0.3,2.56,0.4,3.82,0.68c8.25,1.81,15.8-3.23,16.51-11.67c0.26-3.02,1.55-4.09,3.79-5.25
	c6.6-3.41,14.05-4.95,20.16-9.49c2.12-1.58,4.68-0.62,6.67,0.72c4.24,2.85,8.04,3.11,11.92-0.73c0.77-0.76,2.66-2.65,3.76-1.13
	C900.17,55.64,908.34,51.45,916.1,53.31z"/>
<path class="st0" d="M461.24,392.64c4.69-8.67,7.52-16.5,4.1-25.68c-1.91-5.12-2.7-9.98,2.37-14.56c3.61-3.26,1.33-8.73,2.2-13.14
	c0.44-0.07,0.83-0.26,1.17-0.18c11.57,2.55,11.49,2.5,18.15-7.08c2.45-3.52,5.38-6.7,8.1-10.03c0.27-0.34,0.58-0.69,0.95-0.89
	c1.97-1.07,16.65,3.86,17.82,5.86c1.87,3.17,1.89,5.53-2.03,7.22c-2.11,0.91-3.92,2.59-5.76,4.06c-5.59,4.46-5.52,4.74,1.34,7.61
	c5.53,2.3,10.93,5.02,16.64,6.75c3.37,1.02,2.91,2.01,1.69,4.37c-3.74,7.19-6.54,14.78-12.79,20.62c-3.11,2.91-4.66,7.57-6.65,11.57
	c-1.33,2.66-6.86,2.13-5.4,6.26c1.05,2.98,5.11,2.85,7.77,4.01c7.49,3.24,5.87,10.56,7.48,16.12c2.82,9.74,4.43,19.83,12.94,26.71
	c1.75,1.42,1.83,3.22,1.82,5.25c-0.01,8.47-0.78,16.98,1.17,25.36c0.15,0.63,0.28,1.37,0.1,1.95c-2.47,7.67-1.7,11.71,8.29,12.55
	c7.3,0.61,8.34,15.93,1.94,20.88c-1.19,0.92-2.38,2.12-3.76,2.46c-10.04,2.51-12.27,9.37-10.71,18.54c0.77,4.53-0.72,4.66-5.29,4.27
	c-13.29-1.12-26.51-5.17-40.05-1.95c-2.75,0.65-5.25-0.01-7.87-1.89c-5.81-4.18-12.02-5.47-17.84,0.42
	c-0.69,0.7-1.29,1.34-2.73,0.94c-7.3-2.03-13.96,1.27-20.81,2.91c-1.91,0.46-3.81,1.23-5.47-0.49c-1.3-1.35-3.54-1.82-0.14-4.35
	c7.37-5.48,14.75-11.03,23.22-14.34c4.17-1.63,9.46-0.41,14.25-0.42c2.81-0.01,5.62,0.39,7.65-2.39c1.47-2.02,4.82-3.52,3.38-6.4
	c-1.41-2.83-4.56-1.22-6.89-0.75c-1.33,0.27-2.37,0.77-3.57-0.26c-5.8-4.99-13.35-6.65-19.83-10.37c-5.36-3.08-5.78-6.36-0.66-10.2
	c4.09-3.07,8.62-5.53,12.76-8.53c2.8-2.03,5.91-4.44,2.68-8.42c-3.6-4.44,0.33-8.59,0.25-12.88c-0.04-2.15,1.47-1.44,2.75-1.12
	c6.03,1.55,12.08,3.05,18.11,4.57c3.21,0.81,5.21,0.19,5.9-3.63c0.6-3.32,1.56-6.79,3.31-9.61c2.07-3.34,1.2-6.24-0.93-8.19
	c-4.76-4.36-3.75-9.62-2.55-14.48c1.09-4.42,1.77-6.75-4.18-6.87c-5.3-0.11-9.18-4.18-13.39-7.03c-2.15-1.46-1.43-3.24-0.63-5.17
	c1.46-3.56,2.83-7.17,4.04-10.82c0.38-1.14,0.62-2.8,0.06-3.66c-0.87-1.33-2.22-0.21-3.41,0.27
	C468.65,389.88,464.93,391.23,461.24,392.64z"/>
<path class="st0" d="M416.66,472.74c-4.55-0.42-8.98,0.19-13.31,1.86c-7.95,3.09-16.25,1.91-24.45,1.87c-0.64,0-1.33-0.07-1.9-0.33
	c-3.86-1.74-9.54-14.67-8.42-18.92c0.22-0.84,0.14-1.85,1.24-1.93c6.55-0.51,9.37-7.27,15.15-8.97c1.84-0.54,2.37-1.66,2.22-3.34
	c-0.47-5.3,0.98-10.94-2.79-15.67c-0.38-0.48-0.84-1.24-0.72-1.74c1.32-5.83,4.43-11.02,6.51-16.58c1.08-2.89,6.06-0.93,9.38,0.12
	c3.44,1.09,6.71,2.82,10.53,2.79c5.86-0.04,8.01-2.47,6.97-8.37c-0.73-4.17,5.86-11.22,10.1-11.22c8.58,0,15.89,5.33,24.53,5.55
	c2.47,0.07,3.6,4.44,3.86,7.48c0.32,3.88,0.42,7.74,1.1,11.62c0.9,5.17-6.01,12.51-10.95,10.93c-7.31-2.34-5.65,3.93-5.18,5.69
	c2.74,10.34-0.27,19.59-4.47,28.63C432.29,470.34,426.07,474.6,416.66,472.74z"/>
<path class="st0" d="M763.79,886.19c-1.82,5.53-5.61,9.28-6.83,14.38c-1.13,4.73-2.5,9.15,0.88,13.51c1.42,1.83,1.26,4.4-0.81,4.95
	c-2.83,0.76-2.65,7.23-7.31,3.78c-7.46-5.52-16.82-7.17-24.48-12.53c-6.01-4.2-13.13-6.82-19.74-10.16
	c-3.31-1.67-6.91-2.47-6.51-7.93c0.41-5.75,3.05-5.37,7.58-5.73c13.47-1.09,26.34,6.2,40.18,1.78
	C751.69,886.66,757.76,887.11,763.79,886.19z"/>
<path class="st0" d="M1095.43,680.11c5.99-2.19,8.28-7.35,12.84-10.06c1.64-0.98,3.01-2.45,4.43-3.77c2.56-2.38,1.75-9.12,8.86-5.62
	c3.54,1.75,7.92,0.78,11.66,4.2c3.05,2.79,7.37,4.17,10.52,7.61c2.97,3.25,12.52,0.53,18.07-4.2c1.72-1.47,2.97-3.9,5.95-2.25
	c1.15,0.63,3.38-0.72,3.58,1.65c0.15,1.66,0.49,3.64-1.13,4.86c-1.69,1.27-3.65,3.38-5.35,3.25c-12.42-0.94-17.75,9.86-26.16,15.45
	c-3.35,2.23-6.06,5.45-9.17,8.1c-3.23,2.75-5.75,0.66-8.42,0.09c-3.02-0.64-2.78-3.41-2.59-5.84c0.44-5.74-0.77-9.17-7.97-9.04
	C1105.98,684.64,1101.35,681.96,1095.43,680.11z"/>
<path class="st0" d="M618.6,805.5c1.69,6.61,5.35,5.24,8.43,4.17c4.02-1.41,7.87-3.34,11.76-5.11c3.02-1.38,4.2-0.32,5.89,2.6
	c6.96,12.09,0.77,23.61-0.92,35.3c-0.29,2.02-1.96,3.8-1.77,6.11c0.08,1.02,0.04,2.01-0.91,2.92c-2.16,2.06-20.32,5.39-23.03,4.17
	c-3.24-1.45-4.83-3.19-2.5-6.8c5.72-8.86,5.46-18.8,4.85-28.77c-0.15-2.49,0.31-4.85-2.71-6.68
	C614.43,811.46,617.88,809.07,618.6,805.5z"/>
<path class="st0" d="M914.64,930.02c-1.32-2.6-2.38-5.19-3.89-7.49c-1.01-1.54-2.86-4.07-4.61-2.45c-4.97,4.59-5.6-0.04-5.52-2.77
	c0.23-7.9-5.41-11.82-10.12-16.38c-2.25-2.18-2.74-3.32-0.13-5.94c9.7-9.72,18.08-10.06,30.92,0.51c3.67,3.02,8.29,4.6,11.35,8.35
	c1.29,1.58,2.91,3.5,0.87,4.92c-1.32,0.91-4.04,1.4-5.39-1.38c-0.62-1.28-1.8-2.64-3.06-3.18c-1.27-0.55-3.21-0.64-4.39-0.03
	c-1.91,0.98-0.47,2.61,0.1,3.91c1.72,3.92,3.62,7.77,5.2,11.74c1.09,2.74,1.84,5.54,0.58,8.63c-1.05,2.56-1.78,2.44-3.36,0.49
	C918.89,923.63,917.64,923.79,914.64,930.02z"/>
<path class="st0" d="M649.39,762.33c2.83,12.07-4.03,21.83-7.85,32.28c-1.02,2.78-3.3,2.79-4.87,0.31
	c-1.78-2.81-3.85-6.33-4.06-8.96c-0.26-3.19-0.52-6.52-0.86-9.8c-0.79-7.56,4.44-9.84,10.34-11.45c1.58-0.43,3.53,0.59,4.78-1.18
	C647.58,762.87,647.91,761.37,649.39,762.33z"/>
<path class="st0" d="M733.64,436.25c0.22,3.27-1.9,5.67-2.97,8.44c-0.76,1.98-2.24,4.09-2.01,5.98c1.14,9.21-6.13,11.22-11.86,14.63
	c-1.58,0.94-3.32,1.68-4.5-0.22c-0.86-1.38-2.31-2.95-1.48-4.77c1.26-2.77,2.92-0.35,4.3,0c3.57,0.91,4.47-1.65,5.58-3.99
	c1.32-2.78-0.25-3.87-2.63-4.71c-3.27-1.14-4.87-3.77-6.2-6.87c-0.92-2.14-2.15-4.37,0.2-5.65c2.13-1.15,4.75-3.75,7.39-1.29
	c3.85,3.58,5.62,1.34,6.97-2.13c1.01-2.6,3.22-3.81,5.42-3.67C733.6,432.11,734.1,434.38,733.64,436.25z"/>
<path class="st0" d="M965.98,965.25c-6.9,0.79-10.43-2.7-14.66-4.05c-2.88-0.92-5.53-2.15-8.67-1.98c-1.5,0.08-4.01,0.79-3.6-2.15
	c0.31-2.24,0.93-5.9,3.73-4.83c3.32,1.26,7.98-1.27,10.27,4.03c1.04,2.4,5.23,1.25,7.94,0.85c8.56-1.27,16.92-1.66,24.49,3.58
	c1.53,1.06,2.76-0.02,4.19-0.3c1.54-0.3,4.36-1.88,4.6,1.25c0.19,2.49-2.32,2.64-4.37,2.65c-2.61,0-5.23,0.05-7.84,0.11
	C976.01,964.52,969.92,964.17,965.98,965.25z"/>
<path class="st0" d="M821.68,409.66c0.22-6.13-3.81-11.57-0.03-18.03c3.47-5.91,10.19-5.42,14.29-9.63
	c0.85-0.88,1.77,1.78,0.79,2.53c-5.03,3.86-5.78,8.7-6.03,14.88C830.55,403.08,824.06,405.36,821.68,409.66z"/>
<path class="st0" d="M509.95,830.76c-1.44-0.07-2.7,0.16-3.81-1.55c-1.84-2.81-4.51-4.91-8.16-5.06c-1.23-0.05-2.05-0.43-2.17-1.77
	c-0.1-1.1-0.09-2.51,1.23-2.52c4.57-0.01,8.25-3.47,12.98-2.96c4.39,0.47,6.84,4.33,6.85,6.95
	C516.88,826.59,514.76,830.96,509.95,830.76z"/>
<path class="st0" d="M875.2,380.69c1.12-3.63-3.99-6.42-0.43-10.4c3.84-4.29,9.24-4.18,13.8-6.26c1.67-0.76,3.51,2.02,1.56,3.79
	c-3.22,2.92-5.03,7.83-10.41,7.92C876.52,375.79,876.86,378.92,875.2,380.69z"/>
<path class="st0" d="M554.83,304.73c0.51-7.32,4.84-12.93,5.38-19.65c0.2-2.5,3.7-2.72,5.76-2.75c2.02-0.03,1.18,2.37,1.25,3.73
	c0.18,3.61-0.19,7.08-4.35,8.46c-2.71,0.9-2.28,3.55-2.88,5.41C559.18,302.38,558.11,304.1,554.83,304.73z"/>
<path class="st0" d="M501.7,234.48c-2.29,2.14-4.46,5.86-6.77,5.96c-5.06,0.2-6.61-4.52-7.5-8.77c-0.89-4.24,3.27-2.53,4.56-2.81
	C496.35,227.89,498.81,231.5,501.7,234.48z"/>
<path class="st0" d="M932.08,868.8c5.68,2.22,9.33,5.77,14.46,6.34c2.28,0.26,3.02,3.48,3.5,5.8c0.32,1.56-0.81,2.83-2.26,1.89
	C942.2,879.2,935.01,877.41,932.08,868.8z"/>
<path class="st0" d="M525.97,318.19c-1.84-0.2-3.42,0.33-3.6-0.97c-0.26-1.86-0.34-4.01,0.36-5.68c0.8-1.88,10.46-2.96,12.14-1.72
	c1.13,0.84,1.14,2.14,0.25,2.74C531.98,314.69,528.66,316.56,525.97,318.19z"/>
<path class="st0" d="M476.55,319.33c0.05,1.8-9.27,10.69-10.75,10.51c-1.01-0.13-1.29-0.74-1.5-1.72
	c-0.96-4.62,5.79-11.46,10.59-10.73C476.29,317.61,476.74,318.28,476.55,319.33z"/>
<path class="st0" d="M607.89,504.22c0.58,2.76-2.76,3.74-3.39,3.41c-2.02-1.03-5.83-0.5-5.59-4.08c0.19-2.89,0.6-6.19,3.9-7.5
	C604.21,495.5,608.01,501.67,607.89,504.22z"/>
<path class="st0" d="M850.34,330.89c-0.54,0.36-1.39,1.36-1.95,1.22c-4.08-1.03-8.13-2.2-12.12-3.54c-0.95-0.32-0.56-1.42,0.03-2.15
	c1.46-1.82,3.27-3.24,5.6-2C844.85,325.97,848.53,326.66,850.34,330.89z"/>
<path class="st0" d="M879.03,891.72c-3.09-1.51-7.98-0.04-7.91-4.31c0.03-2.22,3.2-4.47,6.07-3.56
	C881.68,885.28,877.8,889.11,879.03,891.72z"/>
<path class="st0" d="M985.11,854.61c3.01-3.17,6.29-3.51,9.99-1.27c1.07,0.65,2.8,0.84,1.97,2.58c-0.6,1.25-1.63,3.18-3.38,2.1
	C990.99,856.36,987.21,857.57,985.11,854.61z"/>
<path class="st0" d="M881.67,353.25c2.23,0.12,3.72,1.82,3.92,3.45c0.31,2.55-3.05,2.37-4.21,4.04c-1.93-1.56-5.07-2.89-5.06-5.16
	C876.34,353.11,880.17,355.11,881.67,353.25z"/>
<path class="st0" d="M856.59,846.15c7.15,0.89,1.33,7.79,4.61,10.54c-3.09-2.87-8.33-4.45-5.82-10.53c0.55,0.69,0.93,1.49,1.39,2.24
	C856.74,847.64,856.08,846.94,856.59,846.15z"/>
<path class="st0" d="M1036.76,933.72c-1.1-5.45-0.3-9.91,5.93-11.68C1043.85,927.6,1038.13,929.61,1036.76,933.72z"/>
<path class="st0" d="M987.99,871.8c3.07,1.21,6.29,1.38,6.5,5.41c0.13,2.48-2.18,2.35-3.46,3.07c-1.47,0.83-2.2-0.28-2.29-1.88
	C988.63,876.52,988.32,874.64,987.99,871.8z"/>
<path class="st0" d="M774.33,457.62c0.36,2.3-0.59,4.48-2.16,4.24c-2.56-0.39-2.99-3.28-3.49-5.51c-0.44-1.92,0.61-2.5,2.56-2.56
	C774.54,453.69,774.6,455.66,774.33,457.62z"/>
<path class="st0" d="M493.1,261.15c-2.58-3.59-4.64-6.46-7.05-9.81C491.66,252.29,493.55,255.29,493.1,261.15z"/>
<path class="st0" d="M472.76,836.58c-0.57,1.6,0.88,4.84-1.91,4.32c-1.85-0.35-1.99-3.85-2.4-6.05c-0.39-2.12,1.24-3.47,2.97-3.09
	C474.29,832.38,472.08,835,472.76,836.58z"/>
<path class="st0" d="M576.06,527.79c3.25-0.88,4.31-4.52,7.79-2.84c1.02,0.5,1.26,1.32,0.54,1.92
	C582.28,528.64,580.14,530.75,576.06,527.79z"/>
<path class="st0" d="M476.41,557.69c-3.15,2.61,0.07,5.04,0.45,7.42c0.41,2.48,1.84,4.76-0.44,7c0.42-4.02-1.8-7.49-2.26-11.28
	C474.08,560.17,471.59,555.68,476.41,557.69z"/>
<path class="st0" d="M627.06,486.57c-3.32,0-6.65,0-11.2,0C620.5,482.68,623.84,485.13,627.06,486.57z"/>
<path class="st0" d="M1008.58,902.17c7.54,1.28,6.27,5.13,3.8,10.18C1011.03,908.73,1009.93,905.77,1008.58,902.17z"/>
<path class="st0" d="M451.47,344.36c-1.44,1.56-1.87,0.23-1.42-0.74c1.06-2.33,2.53-4.47,3.84-6.69c0.51-0.87,0.98-2.32,2.22-1.24
	c0.62,0.54,0.48,1.95,0.69,2.97C454.61,340.19,453.67,342.87,451.47,344.36z"/>
<path class="st0" d="M741.12,948.3c-2.54-3.41-6.72-4.48-4.9-9.51C739,941.06,742.1,942.62,741.12,948.3z"/>
<path class="st0" d="M528.81,817.18c3.02-0.38,5.74-0.71,6.78,2.39c0.79,2.36-2.68,3.5-4.06,1.14
	C530.78,819.42,529.03,819.23,528.81,817.18z"/>
<path class="st0" d="M468.47,433.48c0.06-2.77-1.67-5.47,1.13-6.82c2.05-0.99,2.3,1.64,2.7,2.78
	C473.52,432.87,470.12,431.94,468.47,433.48z"/>
<path class="st0" d="M994.7,899.2c0.12-4.2,1.81-5.19,4.06-5.46c0.35-0.04,1.19,0.82,1.14,1.18
	C999.52,897.56,997.09,897.36,994.7,899.2z"/>
<path class="st0" d="M973.43,912.79c0.13-1.7,1.5-1.65,2.35-1.99c1.65-0.66,2.99-2.64,5.08-1.51c0.36,0.2,0.59,1.29,0.39,1.77
	c-1.06,2.55-3.29,2.37-5.49,2.12C974.98,913.08,974.2,912.91,973.43,912.79z"/>
<path class="st0" d="M453.98,385.09c-0.73-4.67,2.9-5.1,7.04-5.04C458.68,381.72,456.34,383.4,453.98,385.09z"/>
<path class="st0" d="M805.22,768.51c-2.65,2.53-5.91,1.11-8.55,2.95c-0.65,0.46-1.73-0.19-1.88-1.19c-0.14-0.97,0.49-1.71,1.45-1.74
	C799.24,768.46,802.23,768.51,805.22,768.51z"/>
<path class="st0" d="M588.02,521.28c2.49,1.33,4.11,2.2,5.84,3.11C590.25,526.43,590.25,526.43,588.02,521.28z"/>
<path class="st0" d="M962.72,889.89c2.59-0.18,4.27,0.39,5.14,2.27c0.39,0.85-0.38,1.78-1.31,1.73
	C964.27,893.77,963.65,892.02,962.72,889.89z"/>
<path class="st0" d="M961.19,919.77c1.56,0.31,1.51,1.17,1.36,2.01c-0.26,1.46-1.36,2.24-2.66,2.3c-1.15,0.05-0.93-1.12-0.86-1.89
	C959.2,920.68,960.35,920.19,961.19,919.77z"/>
<path class="st0" d="M956.35,900.72c1.66,2.88,1.26,4.48,0.82,6.65C954.14,905.33,955.01,903.51,956.35,900.72z"/>
<path class="st0" d="M856.59,846.15c0.8,2,3.86,3.2,2,6.31c-2.1-1.63-3.07-3.74-3.21-6.3C855.79,846.01,856.19,846.01,856.59,846.15
	z"/>
<path class="st0" d="M796.2,761.16c-2.9,1.13-5.9,2.3-8.53-2.04C791.19,759.96,793.7,760.56,796.2,761.16z"/>
<path class="st0" d="M797.32,425.9c-3.57-3.29-0.41-5.82-0.56-8.27C798.46,420.03,797.85,422.5,797.32,425.9z"/>
<path class="st0" d="M451.47,344.36c1.48-2.17,1.69-5.53,5.32-5.7C456.06,341.54,455.36,344.44,451.47,344.36z"/>
<path class="st0" d="M609.13,491.12c-1.24,2.35-2.84,3.3-5.6,2.04C604.74,490.34,606.56,489.96,609.13,491.12z"/>
<path class="st0" d="M442.4,835.68c-0.01-1.34-0.01-2.68-0.02-4.01c1.47,0.57,2.27,1.69,2.01,3.21
	C444.33,835.24,443.1,835.41,442.4,835.68z"/>
<path class="st0" d="M784.11,765.72c-2.19,0.65-3.08-0.17-3.83-1.39C781.98,763.32,783.13,763.88,784.11,765.72z"/>
<path class="st0" d="M1011.68,889.39c-0.06,1.38-1.08,1.63-2.21,1.52c-0.72-0.07-1.93,0.1-1.88-0.99c0.05-1.19,1.15-1.77,2.27-1.9
	C1010.74,887.91,1011.51,888.25,1011.68,889.39z"/>
<path class="st0" d="M649.39,762.33c-0.84,0.4-1.69,0.79-2.53,1.19c0.17-1.7,0.56-3.3,2.16-4.28
	C649.14,760.27,649.27,761.3,649.39,762.33z"/>
<path class="st0" d="M878.76,876.29c-0.19,0.68-0.58,1.28-1.3,0.8c-0.46-0.31-0.79-0.98-0.94-1.55c-0.15-0.57,0.01-1.39,0.85-1.18
	C878.23,874.57,878.79,875.28,878.76,876.29z"/>
<rect x="199.13" y="-361.04" class="st0" width="61.04" height="106.43"/>
</svg>
