<svg id="Layer_2" data-name="Layer 2" xmlns="http://www.w3.org/2000/svg" viewBox="0 0 1302 689"><defs><style>.cls-1{fill:#e7e7e7;}</style></defs><path class="cls-1" d="M769.47,334.28a9.28,9.28,0,0,1,1.55,2.53c1.92,8.76,2.42,9.4,10.7,6.23,6.24-2.39,13.09-1.66,19.18-4.68,2.28-1.14,2.37,1.28,2.38,3,0,7.06-2.62,13.32-6,19.27-3.67,6.5-7.75,12.77-11.69,19.12a8.74,8.74,0,0,1-2.12,2.72c-8.23,5.64-14,13.63-20.66,20.84A42,42,0,0,0,753,422.6c-1,4.44.66,8.83,2,13.06,3,9.56,5.12,19,3.81,29.31-.67,5.24-2.86,8.52-7.12,10.23-6.8,2.74-10.8,8.7-16.24,13-1.65,1.29-1.41,3.23-.95,5.08.6,2.4,1.35,4.79,1.75,7.23.93,5.71-1,10.07-6,12.66-4.06,2.12-6.25,4.65-6,9.7.23,4.06-1.58,7.82-5,10.9-6,5.49-10.1,12.7-16.19,18.24-4.51,4.1-10.42,5.22-15.3,5.47a80.92,80.92,0,0,0-16,2.31c-3,.76-4.9.16-5.81-2.71s-4.12-5.31-1.7-9.16c1.13-1.8-1.37-3.52-2.09-5.32a171.43,171.43,0,0,0-9.68-20.18,6,6,0,0,1-1.13-3.74c1.47-11.24-3.46-20.8-8.45-30.14-5.14-9.61-5.07-19-.41-28.5,3.33-6.78,5.55-13.45,1.76-20.83-1.3-2.52,1.12-5-.21-8.26-4.11-10-8.6-19.76-15.3-28.33-1.88-2.41-2.15-4.72-.7-7.35,2.16-3.91,2.41-8.21,2.56-12.55.17-5.18-2.42-8.08-7.5-8.11a17.47,17.47,0,0,0-5,.23c-3,.9-4-.61-5.19-3-3.52-7.23-11.1-9.42-18.38-5.53-1.32.7-2.59,1.51-4,2.11-4.7,2.05-8.85,4.74-14.83,2.53C571.22,369.2,565.57,370,561,373c-2.5,1.64-4.34,1.12-6.56-.65-3.5-2.79-7.32-5.19-11-7.77-4.5-3.17-8.27-6.5-9.8-12.47a17.28,17.28,0,0,0-9.72-11.41,6.68,6.68,0,0,1-4.07-5.78c-.36-3.24,1.58-6.8-2.06-9.43-.64-.47.56-1.32.91-2,3.11-6.15,5.93-12.18,3.73-19.59-2.84-9.51-.4-17.75,5.86-25.84,3.13-4,5.44-9.1,8.72-13.34.9-1.15,1.51-2.28,3.08-3,6.6-2.9,12.57-6.28,12.36-15.11-.09-3.83,2.19-7,5.59-9.35s7.49-4.14,9.34-8.57c1.22-2.91,1.63-5-.31-7.9-1.68-2.49-2.91-3.7-5.92-2.37-2.49,1.11-3.14.32-3.85-2.71A21.11,21.11,0,0,1,558.84,201a10.36,10.36,0,0,0,.33-6.38c-1.08-5.39,1.9-7.6,7.22-6.69a105.54,105.54,0,0,0,18.22,1.2c3.61,0,5.89-6.53,4.31-11s-3.9-7.93-8.75-9.35c-1.39-.41-3.77-.88-3.09-3.09.51-1.68,2.46-1.89,4.24-1.86,2.31,0,4.61,0,6.8.95,1.33-1.58-.34-3.28.36-4.81h0c6.87,2.32,10,1,12.06-5l-.06.06c5.24-1.48,10.82-2.35,11.66-9.49.29-2.53,3.3-2.48,5.23-3.12a26.1,26.1,0,0,1,5.9-.87c3.83-.35,4.82-1.79,2.93-5.48-2.83-5.53-1.79-9.19,2.69-11.26,2-.94,4.5-2.56,4.11,2-.1,1.23,1.91,2.3,1.28,4-.18.32-.36.64-.55,1l1.21-.13c6.28-1.72,6.63-2.61,3.07-7.89-.55-.82-1.49-1.54-1.69-2.44-1.47-6.59-4.61-3-7.29-1.17-4,2.8-10.48,3-11.65-.48-1.32-3.92-3.58-8-2.55-12.47a11.76,11.76,0,0,1,6.7-7.68c2.8-1.34,5.86-3,9.45-1.42,2.43,1,3.84-1.48,4.2-3,1.2-5.26,4.52-8.63,8.65-11.66,1.79-1.32,5.07-3.3-.76-5.43,12.14-4.74,23.24-10.09,36.11-8.91,4,.37,8-3.1,11.89-.44,10.93,7.45,24.07,7.77,36.16,11.45,1.25.39,2.14.88,2.26,2.23.13,1.5-.66,2.34-1.9,3.16-4.63,3.07-9.55,1.81-14.45,1.25a34.82,34.82,0,0,0-6-.4c1.88,1.21,3.13,2.2,2.69,4.77-.3,1.76,8.21,6.41,10.23,6a1.61,1.61,0,0,0,1-.84,1.28,1.28,0,0,0-.59-1.1c-1.32-.59-3-.52-4.11-2.18,2.87-2.14,5.59-.89,8.3,0,1.28.43,2.49,1.08,2.58-1.26s5.69-6.16,8.14-5.55c1.25.3,2.64,1.48,3.6.08s-1.27-1.66-1.51-2.64a12.45,12.45,0,0,0-3.1-6.41c2.58,0,4.61-.27,6.53.07,1.76.31,3.46,1.5,3,3.59-.24,1.06-2.29,1.86-.29,3a3.36,3.36,0,0,0,4.19-.39c4.22-4.08,9.9-4.94,15.05-6.94,1.36-.53,3.41-1.49,3.44,1.57,0,1.2,1,1.32,1.7.7,2.35-2.1,5.43-1.24,8-2.18,2.34-.85,4.56-3.12,6.62.43.39.68,1.27.23,1.67-.31.77-1.07.15-1.9-.74-2.44-1.9-1.15-4.48-1.16-5.8-3.27a1.61,1.61,0,0,1,2.19-.87c9.18,4.84,20.3,3.14,29.27,8.66.65.4,1.66.7,2-.44.56-1.68-.65-2.46-1.88-3a15.16,15.16,0,0,1-6.65-4.84c-2.72-3.53.36-4.75.73-6.78,1-5.74,1.82-4.59,7.15-3.84,6.35.88,4.79,6.77,8.19,9.41,2.42,1.88,3.94,5.47,6.42,8,3,3,.59,5.56-2.3,8,2.61,1.07,4.8,1.56,6.31-.34,1.29-1.63,3-3.32.94-6.11-1.69-2.3.5-2.4,2.33-2.1,1,.17,2.2-.29,2-1.49-.24-1.37-1.62-1.11-2.42-.64-5.08,2.94-7.54,1.1-8.52-4.26-.24-1.28-1.77-1.89-3-2.39s-1.78-1.72-.93-2.29c4.35-2.88-.63-4-1.19-6.25,3.88-1.28,3.93,2,4.8,3.85,1.54,3.28,3.46,5.41,8.46,3.78-2.13-1.39-5.29-.81-4.74-3.28s3.22-1.71,5.06-1.7a12.56,12.56,0,0,1,6.64,1.8c-.16-2.48-.16-2.48-4.29-6.39h14.2c.87-2.52-1.36-2.27-1.5-4.17,8.29-2.49,16.77-4.55,25.72-4.31,3.5.1,7.09,1,8.78-4,.86-2.55,13.56-2.89,15.32-.48,1.44,2,3,1.7,4.75,1.72,5.64.08,11.26.06,16.78,1.78,1.73.54,3.28,1,3.73,2.74.57,2.18-1.58,2.61-2.83,3.54-1.94,1.43-4.48,1.91-6.08,3.88l-.69.4.39.2c.07-.23.15-.45.22-.67,3,.63,5.66.45,8.1-2.1a4.4,4.4,0,0,1,6.64-.16,8.4,8.4,0,0,0,7.29,2.23c8.26-1,16,3.82,24.51,1.82-1.77-2.15-1.33-3.46,1.74-2.76,7.29,1.67,15.2,1.27,21.16,7.35,2.06,2.1,5.49,3,8.45,4,4.48,1.49,1.06-3.24,3.32-3.94a13.61,13.61,0,0,0,3.33.86c5.13.11,10.27,0,15.51,0,.27-1.78-2.64-1.45-2.92-3.46,2.63-1.11,5.36-.79,8.15-.48,10.17,1.14,20.37,1.73,30.32,4.66,9.46,2.78,19.6-.11,29.15,2.73,1,.28,2.43,0,2.85.58,3.92,5.35,9.62,3.72,14.65,3.52,8.24-.34,16.14,1.7,24.21,2.52l1.14.25-.51-.88L1116.55,71c7.9-.06,14.91,1.77,22,2.52,14.44,1.52,27.91,7.22,42.07,10,4.4.85,8.82,1.61,13.21,2.48,4,.79,3.83.86,4.5,5,.21,1.32,2.56,1.62,2.08,3.88-4.79-.2-9.36-.16-13.79-3.42-2.55-1.88-6.64-1.68-10.05-2.38-1.17-.23-1.74.1-1.71,1.53,0,2.21-2.06,2.77-3.46,3.83,4.17,4.07,10.54,4.25,15.12,8.49-10.21-3.06-14.9,2.44-18,10.66-3.67-1.17-7.34-4.54-11.07,0-.94,1.15-1.64-.3-2.36-.85-2.39-1.83-4.38.13-6.47.78a1.09,1.09,0,0,0-.32,2c2.22,1.59-1.17,6.22,3.62,6.39,2.33.09,4.16.76,5.22,3.54.94,2.49,4.45,2.42,6.5,3.89.3,2.37-3.11,1.15-2.43,1.65,4,3,.29,7.7,2.82,10.85.41.52,1.41,1.39,0,1.86-2.65.93-1.55,2.11-.63,3.7,1,1.8,1.16,4.2-.54,5.41s-3-1-4.08-2c-7-6.16-14.16-12.14-20.59-18.85-2.58-2.7-5.32-6.51-1.13-11.11,3.54-3.87,3.59-13.89,1.16-17.08-.69-.9-1.2-2.23-2.69-1.27-1.17.76-.6,1.58,0,2.48,1.94,2.88-1.24,3.69-2.37,5.09-1.67,2-2.85-.34-4-1.17-.92-.64-1.46-1.79-2.29-2.6a7.1,7.1,0,0,0-8.28-1c-1.63.92-2.26,4.64-2.24,7.11,0,1.87,3.52,1.53,4.45,4-4.78,1.65-9,1.17-14.15,0-6.74-1.59-14.2.06-21.34,0-6.18-.07-8.43,3.12-8.66,8.8a10.89,10.89,0,0,1-3.44,8c-2,1.76-1.66,3.37,1,3.57,2.22.18,3.57,1.38,5,2.69,1.51-1.14-1-2.55.56-3.74a20,20,0,0,0,1.76,2.92c1.3,1.5,1.94,5.51,5,1.09,1.28-1.88,10,1.1,12.33,4.17,10,13.08,14.88,27.17,8.24,43.46-1.57,3.85-5,5.65-8.66,4.16-2.85-1.14-6.16.94-6.09,4.89.09,4.75-1.4,8.22-5.31,10.75a24.87,24.87,0,0,0,7.32,5.81,16.76,16.76,0,0,1,8.32,10.58c.6,2,1.47,3.65-.82,5.12-2.76,1.79-5.49,3.65-9,3.26-.62-.07-1.72-1.28-1.61-1.67,1.25-4.16-2.37-7.08-2.71-10.21-.44-4.13-2.64-3.65-4.83-4.29-2.43-.7-5-1.08-4.66-4.57.18-2,.07-3.77-2.64-4.52s-5.21-.79-7.42,1.15c-1.09,1-1.65,2.54-3.58,2.91-.26-2.41-3-4.23-1.22-7.16.6-1-.52-1.86-1.38-2.3-1.13-.59-1.92.33-2.51,1.06-2.17,2.68-3.89,5.66-7.43,7.09-1.56.63-1.61,2.42.38,3.36,2.31,1.09,5.19,1.3,6,4.57.22.86,1.89.66,2.64-.06,2.85-2.78,6.27-1.44,9.5-1.42,1,0,2.22.16,2.43,1.29.29,1.59-1.25,1-2,1.39-3.71,1.75-5.24,5.42-7.29,8.58-1.16,1.81.81,2.35,1.81,2.81,5.46,2.5,8,8,11.54,12.15,1.46,1.71,4.77,5.52,1.07,8.8,2,2,3.2-.32,5.32-.46-1.91,11-3.4,21.53-11.39,30.52-5.31,6-13,6.64-18.64,11.31-1.18,1-3.69-.47-5.81.95-1.49,1-2.69,1.38-2.46,3.38.11,1.06-.23,2.05-1.53,2.09a2,2,0,0,1-2.15-2.22c.42-4.26-2.66-4.39-5.14-3.81-4.44,1-7.21,4.58-9.36,8.3-1.8,3.1.21,5.74,2.25,8,3.77,4.2,7.66,8.3,11.42,12.51,4.19,4.7,4.55,10.48,4.46,16.38a3.68,3.68,0,0,1-1.85,3.31c-5.85,3.38-9.74,9.08-15.4,13.09a5,5,0,0,1-.73-4.3c.34-1.2.5-2.7-.82-3-4.94-1.13-6.38-6-9.76-8.74-1.49-1.21-2.41-3.13-5-2.16-2.39.89-1.85-1-1.58-2.25s-.14-2.54-1.45-2.71c-1.75-.23-2.21,1.25-2.15,2.63.11,2.91-.93,5.52-1.83,8.2-1.21,3.6.38,6.38,1.54,9.87,2.7,8.11,10.46,11.06,14.43,17.48.08.14.27.23.32.38a205.7,205.7,0,0,1,6.12,21.8c-4.15-5.46-11.36-6.89-14.94-12.65-.89-1.43-2.12-3-1.65-4.55,2-6.6-3.76-10-5.85-14.92-9.35-1.87-4.38-9.55-4.27-13.77a44.18,44.18,0,0,0-1-11.12c-1.54-6.58-3.81-13-5.81-19.58-2.88,1.12-4.69,3.07-6.77,4.64-2.38,1.79-6.07.83-6.21-1.7-.27-4.87,1-10.16-4.76-13,1.74-5.14-4.21-4.43-5.79-7.38-1.66-3.12-1.25-7.41-4.87-9.49-2.91,4.57-7.57,4.32-12,3.94-2.42-.21-4.53-.32-5.33,2.1-2.42,7.38-8.62,11.66-13.61,16.88-1.81,1.89-4.21,3.18-5.18,5.83-.22.6-.62,1.53-1.05,1.6-7.07,1.14-4.89,5.89-4.56,10.41.37,5.09-.22,10.26-.42,15.39a3.37,3.37,0,0,1-.35,1.4c-1.68,3.05-1.5,2.43,1.67,3.41,3.82,1.18,6,4.93,7.15,8.46,1.05,3.12-.61,6.28-3.51,8.12-2.41,1.52-3.83-.36-4.31-2.31a21.35,21.35,0,0,1-.64-7.37c.27-2.48-.61-3.77-2.67-4.64-2.26-1-2.82,1-3.75,2.24s-1.55,3.57-4,2.93a5.18,5.18,0,0,1-4-4c-1.89-7.77-5.43-14.94-8.75-22.12-5.33-11.53-9.82-23.18-10.63-36a25.3,25.3,0,0,0-1-4.26c-2.52.74-.72,3.38-2,4.2-1.54.95-3.22,3.09-5.19,1.62-2.65-2-7.43-3.4-6.11-7.36.82-2.48.18-2.46-1.25-3a16.85,16.85,0,0,1-7.43-5.67c-2.88-4-6.86-5-11.39-4.35-9.62,1.34-18.82-1.34-28.14-2.78-1.88-.28-3.4-1.07-3.59-3.41-.22-2.72-2.47-3.48-4.25-2.36-2.68,1.68-5.57,3.32-8.27,1.88-4.86-2.6-10.57-4.35-13.24-10-.71-1.49-1.66-2.87-2.36-4.37-1.64-3.5-4.34-3.36-7-1.77-2.91,1.73-3.68,4.74-1.38,7.17,3.84,4,6.39,8.78,8.6,13.85,3.34-2.89,4.93-2.39,6,1.46.54,1.9-.9,5.1,2.09,5.42a10.4,10.4,0,0,0,7.91-2.34c2.75-2.39,5.38-4.92,8.41-7.72.56,2.32,1,4.32,1.52,6.28.82,3,2.52,4.92,5.88,5,4,.1,5.71,3.68,8.15,6,1.24,1.17.14,3.06-1,4-2.69,2.14-2.6,5.79-5.05,8.44-1.63,1.76-2.54,5.78-5.14,7.53-4,2.71-6.56,7.62-12.19,8.2-2.25.23-5.09.62-5.33,4.13,0,.62-1.4,1.38-2.28,1.65-5.89,1.81-10.4,6.47-16.32,8a61.66,61.66,0,0,0-12.85,4.52c-1.88.95-3.53.29-5.14-.69-1.64-6.74-3.58-13.34-9.28-18.66,3-.69,3.41,1.64,5,1.38a3.45,3.45,0,0,0-.94-3.42c-5.49-4.4-6.81-12.13-13-16-1.6-1-2-3-2.41-4.79-2.6-10.78-9.42-19.11-15.86-27.69-2-2.7-4.1-2.57-6.5-1.11,3.94,8.9,7.43,17.69,12.5,25.7,2.49,3.93,5.22,7.73,4.25,12.81-.32,1.72.75,2.82,2,3.74,2.41,1.8,3.42,4.34,4.1,7.15.47,1.9.8,3.87,2.5,5.26C759,322.74,764.14,328.59,769.47,334.28ZM683.1,203.35c-1,2.08-.56,3.7.33,4.37,4.63,3.54,5.36,6.21.51,10.87-2.42,2.34-4.62,1.48-4.78.68-1.19-5.69-7-7.4-9.54-11.73-.65-1.1-1.47-2.6-1.21-3.66,1.31-5.34-2-7.57-5.92-9.5-6.8-3.37-12.91-7.5-16.89-14.23-.57-1-.93-3-2.68-2.14s-3.15,2.57-2.26,4.5c2.25,4.83,4.93,9.81,9.71,12.25,4,2,7.43,5.2,12,6.24a2.32,2.32,0,0,1,1.73,3.5l-1.26-.55c-1.49-.64-2.94-1.76-4.58-.26s.1,2.57.63,3.81c.91,2.16-.66,3.64-1.63,5.28-1.48,2.51-6.34,2.42-5.29,6.88-.61.11-1.32.49-1.8.3-3.28-1.34-6.82-2.22-9.86-4.61a6.56,6.56,0,0,1,6.87-1c3.53,1.25,4.76-1.26,6.37-3.29,1.83-2.3.4-4-1.15-5.62-2.08-2.15-4.15-4.4-7-5.45a23.73,23.73,0,0,1-13.59-12.43c-1.62-3.3-3.4-4-6.57-1.72-3.92,2.82-7.67,6.23-13.4,3.36-1.74-.87-6-.22-5.75,2.79.3,4.42-2.38,5.58-5.24,6.69a13.2,13.2,0,0,0-7.93,9.63c-1.56,7.16-6.18,9.89-12.25,11.72-2.51.75-5.29.66-7.41,2.6-1.19,1.08-2,2.27-1.62,3.91.41,1.82,2.24,1.59,3.28,1.55,5.11-.17,10.72,2.26,14.8-3.44,1.43-2,4.53-2.34,7.19-2.94,6.59-1.49,13.52.07,20-2.81,2.59-1.16,5.9-.72,8.88-1,6.91-.57,11,5.43,8.23,12-.5,1.17-2.25,2.79-1.19,3.44,3,1.85,4.61,5.91,9,5.56,4.58-.36,8,2.15,10.82,5.22a10.13,10.13,0,0,0,6.78,3.55c2.68.29,5.31.55,7.38,2.54a2.24,2.24,0,0,0,3.16.12,2.17,2.17,0,0,0,1.18-2.36c-.92-6.91,5.09-11.47,11.46-8.88,6.13,2.5,12.29,5,18.49,7.28,2.28.86,4.59,2,7.2.91,4.61-2,9.43-1.88,14.17-.84,2.74.6,4.91-.24,6-2.25,2.92-5.18,6-10.43,6.51-16.52.21-2.25-.06-5.21-1.74-6.44s-4.5-.21-6.46,1.19c-2.79,2-5.22,2.11-8.12-.14-1.77-1.38-4.47-3-6.24.48-.6,1.2-1.36,1.07-2.44.68-7.45-2.69-13.68-6.46-14.53-15.39a8,8,0,0,0-1-3.8c-1.41-2-4-3.84-5.52-1.05C686.84,206.73,685.26,205.2,683.1,203.35ZM730,180.54c-2.22,1.78-5.07,1.13-7,3.11-1,1-6.92-3.85-6.06-4.84,2.28-2.61.12-2.05-1.34-2.85-4.07-2.24-6.56-.13-8.56,2.84a90,90,0,0,0-6.5,11.21,7.91,7.91,0,0,0-.3,5.56c1,2.62,9.8,4.66,12.56,3.46,6.75-2.94,13.46-5.37,20.63-.79,4.41,2.82,9.76,1.2,14.62,2.19,1.82.37,3-1.88,4.09-3.26,1-1.22,0-2.18-.9-2.92-4.57-3.78-8.38-8.5-14.15-10.8-2.6-1-7.46-1.93-1.89-6.08,1.4-1,1.75-3.48,2.78-5.71-4.45,1.19-9.35.55-11.36,5.45C725.49,179.94,728.86,179.2,730,180.54Zm-94.32-39.67c4.56-2.37,8.1-4.74,11.42-.75.21.25,1.52-.32,2.26-.63,2.29-.94,4.52-2,6.83-2.89,1.45-.56,3.19-1.85,4.48,0,3,4.29,5.09,0,7.49-.66,3.08-.89,2-3,1.4-5.16s-.42-4.84,1.81-6.29c1.89-1.23,3.84-.66,5.29,1.14,1.86,2.31,2.74.74,3.44-.92.87-2.07-.08-3.41-1.91-4.47-2.61-1.52-2-2.52.57-3.39a21.78,21.78,0,0,1,11.65-.79c2.2.45,4.45-.84,4.25-3-.18-2-2.66-2-4.48-1.65-4.06.74-8.13,1.44-12.15,2.36-3.73.85-7.12.61-9-3.14-2.06-4.14-.61-10.8,2.3-12.8,2.73-1.88,5.38-3.88,8-5.87,1-.76,1.78-1.75.18-2.67-3.55-2-10.11.52-10.78,4.51A4.23,4.23,0,0,1,665,97.75c-4,.55-5.92,3.57-7.82,6.37-2.24,3.29-2.29,6.71,1.91,8.69,4.84,2.29,3,3.89-.3,5.69-2.69,1.48-4.86,3-3.79,7a4.1,4.1,0,0,1-3.7,5.37c-3.93.33-3.57,2.19-1.19,5.25C643.5,132.63,642.47,133,635.71,140.87Zm158.37,58.81c1.56-7.29-4.52-8.5-7.27-12.05-.92-1.18-3.65-1.79-2.73-3.38,1-1.75,1.9-5,5.45-3.63,2.08.8,2-1.22,2.4-2.26.49-1.33,1.22-3-.74-3.88-3.22-1.4-6.38-3.63-9.78,0-1.75,1.88-4.13,3.11-6.37,4.49s-7.48,3.69-1.34,7.27c.82.48.7,1.44.51,2.26-.56,2.52.88,4,2.62,5.47,2.9,2.48,5.68,5.12,8.47,7.72.78.73,2.52,1.77,1.26,2.65-2.74,1.91-.42,5.73-3.55,7.59-1.6,1-.17,3.81,1.21,4,3.61.52,5.8,3.39,8.9,4.51s6.18-.7,9.31-.89c.26,0,.8-.9.68-1.11-2-3.7.94-9.35-4.77-11.61a3.42,3.42,0,0,1-2.2-4c.63-2,2.61-.49,3.94-.83.73-.19,1.7.21,2-.85C799.33,195.34,798.94,195.2,794.08,199.68Z"/><path class="cls-1" d="M363.43,558.46c.82,2.45,1.3,4.79,3.88,6.53,3.55,2.39,1.33,11.55-3,12.92-2.65.85-5.38,1.79-8.3,1.38-3.47-.48-4.38,1.41-4.06,4.45.46,4.38-1.08,6-5.33,5.94-1.29,0-3-1.72-3.77.4-.63,1.72,1,3.06,1.81,4.44,1.11,1.8,3.26,1.32,5.15,2.11-2.34,2.61-4.12,5.36-3.24,9a2.43,2.43,0,0,1-.15,1.46c-3.51,7.82-3.53,7.83,2.61,12.89.76.62,2.2,1.26,1.06,2.09-4.14,3-1.5,8.42-4.53,11.91-1.13,1.31.25,3.62,1.37,5,3.91,4.67,7.46,9.86,14.13,11.11a34.63,34.63,0,0,1,4.64,1.61c-2.69,3.54-5.58,4.81-10.12,4.35-19.53-2-29.31-15.94-38.66-30.56-.48-.75-1.45-1.61-.68-2.67,2.44-3.4,1.11-4.86-2.53-5.74-2.1-.5-1-2.56-.84-3.84.19-1.85,1.78-3.65-.51-5.38-.81-.61.08-1.47.62-2.08,3.54-4,3.66-6.87.43-11.47-2.53,1.09,2.49,4.68-1.29,4.73-2.54,0-2-3.3-2.67-5.18-2.28-6.68-1.7-13.91-5.12-20.59-1.71-3.35.53-8.7.95-13.14.63-6.8.78-13.49-1.41-20.18-2.05-6.24-1.09-12.87-1.13-19.31-.07-11.16-.59-22.24-3-33.17-.64-2.89-1.52-5.36-4.31-6.8-1-.53-1.86-1.42-2.86-2a56.21,56.21,0,0,1-24.37-27.72c-3.27-7.65-9-14.25-12.46-22-.91-2.07-3.54-2.47-4.35-4.67-1.75-4.8-4.32-9.63,1.24-13.77,1.5-1.11,1-2.05-.22-3.16-2.7-2.47-2.38-5.18-1.17-8.51,2.43-6.72,6.86-11.94,11.37-17.21a11.29,11.29,0,0,0,2.66-7.28,40.65,40.65,0,0,0-3.43-18.67,3.84,3.84,0,0,0-3.86-2.56,3.66,3.66,0,0,0-3.58,3.48c0,1.5.62,2.93-1.22,3.77-2.13,1-3-.83-4.13-1.91-1.24-1.24-2.87-2.53-4.29-2.13-2.83.79-3.68-1.34-5.35-2.51-6.65-4.66-9.34-12-12.91-18.74-.62-1.17-.89-2.09-2.58-2.46-4.68-1-9.22-2.62-13.86-3.81-3.29-.84-4.46-3.83-6.43-5.95-3.08-3.35-6.26-5.29-10.92-3.21-3.31,1.48-6.6.29-9.57-1.11a148.7,148.7,0,0,1-24.54-14.62c-3-2.18-3.68-4.53-2.16-8.08s1.42-7.36-1.73-10.56c-2.44-2.48-4.46-5.37-6.81-7.95-2.06-2.27-3.87-4.44-2.95-7.9.64-2.43-1.49-4-2.76-5.58a24.23,24.23,0,0,1-5.28-12.64c-.2-1.89,1.06-4.69-2.19-5.29-1.07-.2-2.73-1.28-3.21-.23-1,2.2-2.27,5-1.17,7.11,4.72,9.2,6.24,19.56,10.84,28.75,1.06,2.13,1.16,3.71-1.41,5.2-1.73-3.05-3.1-6.42-6.06-8.6-.37-.27-.92-.87-.83-1.13,1.81-5.53-2.29-7.86-5.53-10.87-1.54-1.44-4.15-3.67,0-5.64.83-.4.54-1.45,0-2.2-3.29-4.84-2.72-10.53-3.15-15.89-.35-4.43-1.77-7.71-5.84-9.53-3.28-1.46-4.31-3.81-4.58-7.4-.52-6.86-2-13.65-1.39-20.61.07-.78-.34-1.64.35-2.29,6-5.64,6.66-14.76,13.36-20,5.43-4.22,5.49-11.57,9.32-16.77,1-1.41-.62-2-1.29-2.77-1.31-1.49-3.14-2.69-4-4.39-.66-1.31-1.9-4.67,1.43-4,3.95.77,3.32-1.1,3.07-3.35-.56-5-1-9.91,1-15.23-6.58,1.53-6.88-1.83-6-6.44a24.21,24.21,0,0,0,.4-7.44c-.45-3.53-1.69-6.63-6.1-7.2s-8.59-1.2-12.4-3.41c-2.19-1.27-4.06-.6-6.1.33a45.34,45.34,0,0,1-17.71,4.28l4.44-3.93.52-.88-1.17,0c-3.3,1.08-6.46,2.64-10,2.72-1.67,0-2.35,0-1.19,2.21,1,1.91-1.62,3-3,3.59A41.18,41.18,0,0,1,66.75,123a29.73,29.73,0,0,0-11.19,3.76c-12,6.56-25.25,8.77-38.41,11.33a2.75,2.75,0,0,1-1.84-.43c15.15-5.18,29.91-11.24,45.33-17.37-3.2-2.4-6.43-1.76-9.3-2.1-.72-1.78,1.22-2.36,1.15-3.75-.12-.05-.41-.19-.71-.31-1.48-.56-3.44,1.73-4.43-.33-.74-1.55.7-3.07,1.5-4.53,2.27-4.13,6.41-6.12,10.34-7.29,5.45-1.62,10.92-3.84,16.78-3.75,2.87,0,4.51-.78,4.14-3.94l.34-.57-.55.34c-2.82-.07-5.65,0-8.45-.26-1.1-.1-3.14.31-3-1.47.08-1.37,0-3.38,2.25-3.92,4.5-1.11,9.06-2.11,13.42-3.65,2.18-.78,1.63,1.88,2.82,1.59,1.81-.43,6,1.74,4.14-3.23-1.6-4.33.08-5.57,4.34-6.21,12.14-1.82,23.25-7.73,35.51-9.33a19.46,19.46,0,0,1,8.54.33,97.87,97.87,0,0,0,27.42,4.29c4.86,0,9.64.1,13.73,3.22a3.91,3.91,0,0,0,3.33.56c10.56-2.27,21.66-1.17,31.92-5.15,1.39-.53,2.47-1.14,3.09.82.27.81,1.08,1.86,1.73,1.35,3.68-2.92,7.17.43,10.68.53a51.32,51.32,0,0,1,18.47,4c-.36,2.17-2.88,1.39-3.19,3.54,5.8,0,11.7.85,17.15-.35,2.76-.62,5.57-3.09,8.79-4,1.67-.46,2.89-.37,4.08.77,5.73,5.45,12.65,1.84,19,2.47.75.07,1.06-.58,1.2-1.3,1-5.27,5.44-5.19,9.14-5.11,2.74.06,4.68,1.25,5.73-2.79.64-2.52,4.48-3.13,6.63-4.91,1.28-1.06,4-1,3.41-3.75l-.06.06c1.05,1.3,1.94.17,2.31-.45,4.37-7.35,11.28-5.72,19.14-5.5-4.71,2.77-8.09,5.24-12.61,5.48-2.47.13-6.39,1.43-5.3,3.62,1.45,2.92-3,8.07,3.57,9.11,2.51.39,2.83,3,.41,4.8-1.18.87-2.25,1.9-1.25,3.22,1.14,1.51,2.58,0,3.43-.58,3.45-2.24,7.31-4,10.06-7.13,1.48-1.69,2.08-3.51-1.46-3.69-1.8-.09-4.16.45-4.72-2.45-.48-2.5,1.23-3.52,2.75-4.82,4.65-4,9.79-6.7,16.22-6.66-.3,2.33-3.62,2.17-3.33,5,2.79.12,4.24-2.53,6.63-3.32,6.66-2.22,13.33.19,19.94-.65a2.67,2.67,0,0,1,2.13,1.06c3.38,5.83,9.73,6.93,15.08,9.63,3.15,1.59,4.19,3.92,1.57,6.71-1.94,2.08-.91,4,.88,3.9,5.06-.38,7.21,3.37,10.34,5.8-2.29,3.56-6.51,3.87-9.45,6.25-2.38,1.93-4-.68-5.46-2.57-1.08-1.41-1.83-4-4.49-1.85s-1.06,3.71.43,5.43c1.16,1.34,3.41,2.87,2.67,4.35-.93,1.89-3.15,3.12-4,5.38-.32.85-1.48,0-2.13-.41-1.72-1-3.38-2.06-5.06-3.1-.53-.65-1.15-1.12-1.92-.45-.08.07.53.92.81,1.4.82,1.88,3.33,3,2.5,6-4.05-1.25-8.05-2.59-12.11-3.7-1.93-.52-2.48-2-3.3-3.44-3.42-5.78-4.54-6.26-10.5-3.56-2.15,1-4.3,1.24-5-1s2-3,3.63-3.57c1.11-.41,2.58.32,3.88.29,3.09-.07,6.83,2.12,8.32-3.25.41-1.5,3.82-2.28,5.95-3.16s3.46-2.61,2.2-4.61-3.58-1.12-5.25,0-2.76,4-5.73,3.13c-.91-.26-2.37,0-2.46-1.18a2.76,2.76,0,0,1,1.73-2.73c.92-.35,1.94-.44,2.9-.71,1.73-.48,5,.54,4.66-2.06-.26-2-2.84-4.09-5.52-4.19-4.78-.19-9.58-.06-14.46-.06,1.44,8.23-8.48,17.1-20.71,14.84,1.25,3.46,4.42,4.51,6.72,6.39,1.32,1.07,3.1,2.25,2.08,4s-3.39,1.38-4.79.31c-2.63-2-4.75-1.76-7,.44-2.91,2.82-5.07.65-7.27-1.31,1.48-1.26,4-1.53,4.2-5.19-5.83,4.31-12.69,4.63-18.37,8.46-5.18,3.5-11.15,5.86-16.8,8.66-2.24,1.11-4.81,2-6,4.25-1,1.9-7.34,2.83-1.6,6.51.32.21-.08,1.57-.17,2.39-.26,2.54-.37,4.64,3.45,4,2.34-.39,4.62,1,6.34,2.53,5,4.28,10.51,7,17.16,6.73.63,1.77-.63,2.7-1.28,3.68a5,5,0,0,0,.39,6.62c-5.1,1-1.07,3.63-1,5.51s1.09,1.59,2.42,1c3.67-1.72,6.21-4.12,6.58-8.48.34-4.05,1.16-7.41,6.65-8,3.17-.35,6.47-2.8,9-5.09,2.3-2.11,5.43-5,2-8.68-1.16-1.25-.9-2.08.2-2.77,4.83-3.06,6.26-8.35,8.6-13,1.22-2.44,2.78-3.11,5.52-2.94,3.2.19,6.43,1.25,9.76-.28,1.57-.72,2.88,1.43,3.84,2.63a11.19,11.19,0,0,0,7.36,4.55c-1.67,2-3.36,3.28-3.36,5.66,0,3.59,2.86,5.85,6.08,4.43a35,35,0,0,0,9.59-6.18c1.88-1.7,3.67-2.83,3.79,1.26.14,4.66,2.44,9,.89,14.08-.74,2.41,2.93,5,5.68,6.58,5.4,3,6.76,9.09,3.79,14.25-1.6,2.78-3.52,6-1.18,9.53.34.52.39,1.53,1.1,1.42,7.76-1.15,3.21,5.54,5,8.19,1,1.54-2.09,2.46-3.35,3.62-1.42,1.31-1.67-.8-2.42-1.05-2.62-.9-5.08-2.45-8-2.36s-6,0-10.46,0c5.23-6.7,10.72-11.57,16.3-17.47-4.74.54-7.5,3.53-11.06,4.62a46.65,46.65,0,0,1-18.29,1.33c-8.31-.83-14.19,3.81-20.53,7.67-.39.79-2.23.22-1.74,1.35.27.64,1.76.4,2.36-.64,3.39-1.3,6.77-2.62,10.18-3.89a5,5,0,0,1,5.17,1c1.64,1.53-.78,2.8-1,4.28-.39,2.51-4.31,3.51-2.84,6.81,1.75,3.94,7.55,5.24,10.73,2.34.73-.67,1.32-1.49,2-2.18s1.78-1.83,3-1.26c1,.47.38,1.78.66,2.68.48,1.58-.94,1.58-1.73,2.32-4.81,4.47-11.63,4.17-16.93,7.42-2,1.23-4.87,3-6.6,1-2.83-3.22,2.42-3.24,3.23-6.41-7.9,4.06-17,3.78-22.58,11.27-.4.53-1.15,1.18-1.06,1.63,1.51,7.16-4.55,5.61-8,6.78-4.59,1.58-9.17,2.93-11.67,7.66-1.43,2.7-4.79,2.73-6.81,5.56-3.8,5.33-3.11,13.1-9.78,16.74-4.8,2.61-9.18,6-13.83,8.86-4.08,2.54-6.71,6.44-9.48,10.13-2.05,2.74-.78,6.05-.24,9.13.9,5.11,1.31,10.16-1,15.11-1,2.19-2.1,2.42-3.58.7-3-3.53-4.9-7.51-3.75-12.3,1.35-5.65-1.35-8.71-7-7.71-1,.18-2.13.42-2.74-.52-1.83-2.86-4.3-1.81-7-1.85-4.44-.08-8.25-.05-11.43,3.78-1.09,1.31-3.48,1-5.54-.08-3.85-2-7.57-1.83-11.66.53-9.18,5.28-17.1,10.9-17.82,22.94-.35,5.85-5,11.08-2.18,17.69a36.13,36.13,0,0,0,5.66,9.21,6.35,6.35,0,0,0,7.63,1.93,43.25,43.25,0,0,1,8.13-2.28c2.45-.44,3.59-1.64,4.4-4,2.64-7.69,4-8.38,12.38-7.59,1,.09,2,.13,3.36.23-3,7.78-5.82,15.3-8.86,22.72-1,2.37-.85,3.29,2,3.19,3.66-.15,7.32-.06,11,0,5.54,0,7.8,3,6.83,8.43-.7,3.91-2.21,7.59-2.41,11.66-.21,4.48,1.82,7.66,4.69,10.45,2,2,4.2,3,7.52,1.39s7.09-2.6,10.6.6c4.07,3.7,8.55,2.5,9.72-2.93.94-4.4,3.21-6.49,7.28-7.41,3.14-.72,5.74-2.52,8.24-4.48.88-.7,2-1.45,3.12-.35,1.48,1.5-.89,1.74-1,2.59-.36,3.3-3.58,6.48-.57,10.1-1.16-6.16,5.51-7.46,7-12.54,2.67,5.27,6.81,6.73,11.78,6.73a13.06,13.06,0,0,1,6.78,1.35c1.76,1,3,1.53,5.06-.18,2.38-2,5,.21,7.71,1.42,4.82,2.16,6.58,7.61,11.51,9.34a4.93,4.93,0,0,1,3.11,2.33c3.57,7.31,10,9.42,17.51,9.64a16.12,16.12,0,0,1,15.23,12.82c.51,2.34,2.8,4.71,3,6.18.76,5,3.93,7.78,6.88,11,.41.46.14,1.53.19,2.42,5.46-3.15,14.35.09,16.48,5.89.23.64.27,1.36,1.1,1.26,5.25-.63,10.38,2.8,15.63.59,2.24-.94,3.46.38,4.84,1.5,4.1,3.37,7.69,7.95,12.37,9.86s6,4.93,7.27,8.87a6.45,6.45,0,0,1-.45,5.2c-3.82,7.9-7.38,15.95-13.09,22.78-1.8,2.16-1.92,4.54-2,7.34-.36,12.06-.71,24.21-7,35.13a11.21,11.21,0,0,1-7.32,5.62c-6.9,1.52-12.14,6-17.8,9.69-2.44,1.6-3.39,3.65-2.66,6.77,1.31,5.59-.06,10.85-3.08,15.69-.26.42-.39,1.16-.73,1.26-7.3,2.31-5.95,9.72-8.49,14.72-4.25,8.39-8.89,10.15-16.93,5.07l-.92-.74c-.44-.07-1-.33-1.28-.14-.47.38-.18.79.36,1Z"/><path class="cls-1" d="M1139.94,553.2a16.82,16.82,0,0,0-7.79,5.95c-.64,1-1.45,1.37-2.51.76-.72-.42-1.46-1-1.25-1.95,1.74-7.76-5.1-9.14-9.43-11.39a15.27,15.27,0,0,0-12.15-.51c-6.19,2.31-13.58,1.59-18.88,5.75s-11.16,4.75-17.5,4.47c-3.5-.16-6,2.59-9,4-3.7,1.83-7.24,2.44-10.86.25-2.31-1.4-4.33-2.94-.76-5.43,2.26-1.57,3.33-4.24,3.84-6.79a57.34,57.34,0,0,0-.85-27.18c-.22-.79-.83-2.19-.76-2.22,4-1.87,1.72-5.71,2.81-8.25a20.87,20.87,0,0,0,2.12-8.42c0-2.93,3.18-2,4.36-3.12,4.92-4.83,11.42-5.74,17.47-7.87,5.44-1.92,11.18-3.39,14.9-8.47a13.31,13.31,0,0,0,2.17-3.83c.81-2.46,0-7.28,5.3-4.09,1.19-2.42,4.22-2.8,5.57-5,1.06-1.78,1.6-4,4.71-3.23,1.53.4,1.38-1.46,1.54-2.55a4.06,4.06,0,0,1,3.48-3.73,4.45,4.45,0,0,1,4.55,2.45c1.15,1.91,2.11,3.51,5,2.68a5.07,5.07,0,0,0,4.08-3.91c1.39-4.13,3.17-8.42,8.95-8.61,5.26-.18.37-4.66,2.41-6.43,2.29-.1,3.13,2.17,4.82,3.12,3.38,1.89,6.58,4,10.55,1.45,1.21-.77,2.37-1,3.39.56s.75,2.9-.76,3.8c-2.77,1.65-3,5.1-5.2,7.13a1.78,1.78,0,0,0,.23,3c4.42,3.46,7.27,8.55,12.19,11.51,3.22,1.94,5.29,1.91,7.65-1.75,3.58-5.55,4.66-11.62,5.54-17.86.55-3.9,1-7.82,3.88-11.48,2.52,4.44,3,9,3.69,13.48.28,1.74-.2,4.33,3.23,3.3,1.46-.44,1.78,1.05,2.18,2.15a22.91,22.91,0,0,1,1.15,6.83c.31,5.92,1.66,11.4,6.32,15.69,2.4,2.22,3,5.47,4.21,8.47a71.31,71.31,0,0,0,7.64,13.7,11.89,11.89,0,0,1,1.76,11.47c-2.07,6.62-3.3,13.5-7.15,19.5a56.27,56.27,0,0,1-9.49,11.29c-5.81,5.37-10.53,11.94-15.51,18.15-1.89,2.36-3.87,4.06-7,4-4.52-.14-7,3.49-10.22,5.62-1,.63-2.27,2.51-3.18.58-1.75-3.69-3.19-3.14-6.62-1.52-7,3.29-14.75-3.39-13.73-11.13.18-1.41.42-3.3-1.06-3.95s-2.21,1.11-3.11,2c-2.56,2.52-2.54,2.55-4.88.18,2.76-2.21,8-1.64,8.23-7.6l-5.17,3.07c.27-3.94,5.08-4.2,5.11-7.68.52-.11.78-.55.43-.85S1140,552.85,1139.94,553.2Z"/><path class="cls-1" d="M443.49,72.13c-1.75-1.6-5.38,2-5.76-1.23-.56-4.73,5-1.61,6.62-4.13-1.28-2.14-3.91-1.4-5.87-2.22,4.89-9.39,5.89-12.24-8.81-15.54-5.17-1.16-10.44-1.9-15.63-3-2.14-.44-4.55-1.37-4.55-3.86,0-2.82,2.9-2.33,4.67-2.61,5.57-.88,11.2-1.45,16.79-2.2,1-.14,3.22,0,2.57-1.41-2.91-6.11,2.9-3.85,4.37-4.1,8.84-1.46,17.79-3.38,26.67-3.22,14.81.27,29.08-3.83,43.8-4,13.12-.17,26.52-2.17,38.95,2.89,8.14,3.31,15.87,2.92,24.12,1.95-5.83,2.92-11.27,6.58-17.75,7.65-4.38.71-6.09,2.34-3.08,6.33,1.6,2.12,1,3.13-1.34,3.75-2.83.73-3.43,3.91-2.39,5.08,2.52,2.88-.18,3-1.43,3.84-2.07,1.36-4.34,2.42-6.38,3.81a5.3,5.3,0,0,0-2.66,5.44c.51,4-.62,5.45-5.56,6.18-9.93,1.45-20.12,4.1-28.67,9.3-7.78,4.73-15.84,7.33-24.44,9.07-3.66.74-6,2.64-8.29,5.59-4.5,5.7-10.18,10.46-14.16,16.65a3.62,3.62,0,0,1-2.56,1.34c-6.43,1.51-16.07-3.75-17.84-9.92-2.05-7.16-1.92-14.57-1-21.78a9.26,9.26,0,0,1,7-7.54C442.09,73.92,443.75,74.23,443.49,72.13Z"/><path class="cls-1" d="M1166.8,433.22c5.11-6.48,3.14-13.27-4.46-15.43-4.42-1.25-8.4-3.8-13.25-3.86-2.53,0-3.47-2.89-3.35-4.84.2-3.3-1.72-4.53-4.07-5.36s-4.28-2.23-4-4.35c.23-1.53,3-1.54,4.72-1.76a63.44,63.44,0,0,1,7.43-.06c1.52,0,2.41.77,1.85,2.1-2,4.69,2.78,6.22,4.31,9.21.81,1.59,2.82,1.53,4.19-.09,1.17-1.39,2.21-2.91,3.48-4.2,1.88-1.92,3.85-3.36,7-2.53,9.23,2.46,17.56,6.85,25.74,11.59a1.31,1.31,0,0,1,.4.3c2.72,3.62,5.26,7.32,10,8.94,1,.32,4.85,3.39-.32,4.51-2.35.51-.74,1.93-.42,2.53a23.94,23.94,0,0,0,7.56,9,9.67,9.67,0,0,1,4.32,5.82c-5.1-1.46-10-1.57-13.53-5.52-1-1.11-1.79-2.38-2.68-3.57-4.17-5.54-7.12-6-11.46-.57-3.43,4.27-6.94,3.6-11,1.82a53.71,53.71,0,0,1-5.78-2.89C1171.45,432.79,1169.21,434.16,1166.8,433.22Z"/><path class="cls-1" d="M1079.77,360.37c1.43,1.27,2.32,2,3.16,2.8,6.56,6.08,6.51,6.07,2.32,14-1.82,3.42-2.42,6.76.68,10.06,1.49,1.6,3.92,4.14-1,4.86-.31,0-.83.35-.82.5.52,6.47-7.05,9.82-6.43,16.11.46,4.75-1.86,5.93-5.77,5.84a17,17,0,0,1-6.7-1.69,13.3,13.3,0,0,0-8.69-1.09c-3.5.77-5.9-1-5.37-5a8.48,8.48,0,0,0-2.14-7.29c-3.19-3.64-1.81-7.75-.54-11.72.11-.34.82-.86,1-.77,5.17,2.59,5.72-2.59,8.45-4.47,4.81-3.29,8.45-7.89,13.3-10.9C1075.5,369,1077.79,365.25,1079.77,360.37Z"/><path class="cls-1" d="M344.69,44.23c1.62,1.72,3.62,4.43,5.68,3.62C355,46,360.65,46.57,365,42.6,354.37,42,354,41.68,355,33.51c1.67.94,3.43,2,5.11.36C363.23,30.78,367,31,371,30.68c10.24-.79,20.55-1,30.68-3.31,7.82-1.78,15.92-.76,23.9-.72a152.88,152.88,0,0,1,19.49.87c-4.91,1.22-9.76,2.8-14.73,3.6-12.5,2-24.8,4.62-35.8,11.19-8.88,5.29-18.57,3.92-28.1,4.06-3.38.05-6.56.36-9.51,4.35,7.6-2.53,14.16-1.4,20.84,0A3.37,3.37,0,0,1,374,53.64c-8.67-.88-17.42,3.42-26-.39-.84-.38-2,.08-2.69-.87-2.13-3-2.11-3-4.53-.18-.84,1-1.6,2.56-3.12,2-4.5-1.62-9.24-.65-13.81-1.61-3.81-.8-3.2-2.35-1.49-4.63,1.1-1.46,2.06-3.41,4.29-2.42,1.81.8,5.22-.31,4.82,3.59-.2,2,1.3,1.91,2.67,1.89s3.44.24,3.28-1.32c-.63-6.29,4.17-4.65,7.36-5.42Z"/><path class="cls-1" d="M799.52,463.84c1.74,4.23-3.06,7.2-4.19,11.4-3.11,11.62-6,23.35-9.84,34.78-1.43,4.26-7.08,8.24-10.55,7.53-4.33-.87-6.91-5.54-6.87-11.08,0-4.29.7-8,3.4-11.56s2-8.14.93-12.46c-1.49-6.08.54-10.39,6.35-12.27,6.49-2.09,9.54-7.33,13.1-12.32,1.29-1.79,2.68-5.11,4.79-4.28s2.83,4.23,2.87,7C799.53,461.39,799.52,462.22,799.52,463.84Z"/><path class="cls-1" d="M252.31,62.45c-3.55,1.65-6.42,4.4-10.62,5.11-4,.68-6.84.48-8.11-4.1,2.78-1,5.69-2.17,8.64-3.18,2.07-.71,4.12-1.25,4.64-3.87a2.69,2.69,0,0,1,2.62-2c5.31-.21,10.62-.28,15.93-.26a2.51,2.51,0,0,1,1.95,1.27c1.77,5.53,7,4.23,10.83,5.86,4.35,1.85,7.76,2.38,11-1.82.72-.94,2.71-.91,4.4-1.41.2,3,1.07,5.78-.95,8.24-.78,1-.47,1.62-.08,2.64.56,1.46,3.5,2.78,1.13,4.5-2.11,1.54-4,4-7.46,2.91-9.7-3-19.15-1.49-28.39,2.14-2,.8-3.79,1.45-4.55-1.52a2.29,2.29,0,0,0-1.42-1.28c-6.33-1.66-3.55-4.79-1.06-7.49,1.34-1.45.77-3.56,2.25-4.79.15-.33.3-.67.44-1Z"/><path class="cls-1" d="M1036.74,407.85c-2,3.33-3.49,6.46-3,10.63.44,3.43-4,5.69-7.06,3.65-6.47-4.3-13-8.76-14.44-17.38-1.19-7.22-4.41-14.61-9.33-18.72s-6.72-11.72-13.85-13.43c-1.36-.33-1.33-1.32-.74-2.3s1.31-1.64,2.43-.93c5.89,3.75,13.75,4.45,17.59,11.35,1.71,3.07,5.05,4.25,7.4,6.5,3.25,3.1,10.67,3.17,8.34,10.73-.13.41,1.28,1.38,2.08,1.94,2.2,1.55,4.34,3.15,5.21,5.83S1034.86,406.94,1036.74,407.85Z"/><path class="cls-1" d="M1107.47,334.22c4.55,1.28,7.1,3.91,6.28,9-.11.73.17,2,.67,2.27,6.83,3.55,2.62,10.42,4.68,15.37a3.07,3.07,0,0,1-.24,1.75c-5.42-.18-1.75,4.39-3.5,6.44-2.41-1.31-4.69-2.7-5.64-5.65-1.83-5.68-3.76-6-8-1.28.22-5.83,1.74-7.18,7.62-8.3,2.55-.49,5.76-1.47,3.7-5.6-.72-1.45-.74-3.23-1.38-4.73-.49-1.17-1.31-2.53-3-1.37-1.28.87-1.77,1.83-.43,3.19s3.23,3,.33,4.7c-2.59,1.5-4.19,1.23-5.72-2-1-2.11-3.51-3.57-3.63-6.4-.09-2.06.07-3.5,2.65-1.88a10.59,10.59,0,0,0,3.64,1.48A2.19,2.19,0,0,0,1108,340c.43-1.06-.6-1.41-1.18-1.9-3.3-2.75-4.88-7.86-10.46-7.53-1.28,1.21.18,3.16-1.27,4.89-1.74-2.26-4.69-3.64-3.27-7.28a1,1,0,0,0-.19-.92c-9.1-5.88-.15-13.15-1.49-19.63-.29-1.4,1.14-1.84,2.3-2.14,1.52-.41,3,.24,3.26,1.53.75,3.41,2.74,6.54,1,10.5-2.48,5.63-.81,7.89,5.15,9.54,2.86.8,6.65,1.51,4.78,6.22-.11.37-.22.74-.34,1.11Z"/><path class="cls-1" d="M1266.54,581.52c12.18-3.68,8-14.26,10.56-21.81,3.32.55,4.27,2.56,3.48,5.65-.53,2,.37,3.6,1,5.53,1.76,5.33,4.15,4.53,8.07,1.8-.23,2.45-1.07,4.45-2.35,5-6.57,3-10.22,9.71-16.68,12.76-1,.49-2.22,1.37-3.2,1.21-6.47-1-10.72,3.74-14.51,7-6.57,5.66-14.89,8.31-21.25,14.16-3.89,3.57-8.81,5.53-13.82.23,8.76-5.22,17.5-10.59,26.42-15.66,3.61-2.06,7.23-4,10.31-6.84,2.17-2,6.82-2.27,10-.91,2.13.92,2.8-1.24,4-2.14s2.21-2.24.66-3.77C1268.51,583.09,1267.71,582.51,1266.54,581.52Z"/><path class="cls-1" d="M600.52,155c-8-.17-16,.07-23.61,3a3,3,0,0,1-1.12,0l5.31-4.89c-1.08-2.72-3.37-1.2-4.16-3.15.39-1.88,6.3-1.24,2.9-5.24.86-.47,1.71-1,2.59-1.4s3.08.47,2.42-1.88c-.5-1.78-.45-4.17-3.12-4.35-3.68-.26-6.22-3.14-6.41-5.7-.44-5.85,3.12-11.64,6.74-11.68,2.81,0,4.44-1.47,6.83-3.12,0,3.23-2.3,4.48-3.5,6.33.34,1.4,1.5,1,2.4,1,3.2-.06,3.75,1.38,1.59,3.42-2.49,2.34-1.44,3.37.59,5.35,2.32,2.26,3.77,5.39,5.64,8.12,1.36,2,1.69,4.78,5.33,4.66,1.71,0,1.91,2.39.58,3.47-2.28,1.87-1.36,4-1.06,6.12Z"/><path class="cls-1" d="M1105.16,445.23c.28-5.15,4.65-5.72,6.61-8.91-13.49,4.2-27.25-1.94-40.7,1.79-12.86-4.71-27.74-2.56-38.73-12.52,2-3.2,5.85-3.94,9.32-.89,4.44,3.89,6.33,3.94,10.73.11a2.11,2.11,0,0,1,3.11.14c1.93,1.81,4.11,1.83,6.5,1.57,1.28-.13,2.93-.6,3.8.54,1.34,1.78-2.28,1.7-1.41,3.86,4.66.61,9,3.15,14.57,1.86,4-.92,8.75,1.11,13.17,1.82.65.11,1.45.54,1.94.31,6.66-3.13,13.92.73,20.58-1.82,2.23-.85,4.18-.55,6.72.89C1114.86,436.26,1110.53,440.92,1105.16,445.23Z"/><path class="cls-1" d="M1114.65,386c.36,6.64-3.93,9.78-9.35,8-1.88-.62-3.6-1.72-5.48-2.35-2-.69-4-.48-5.15,1.72s-.44,4.16.88,6.05c1.63,2.34,3.1,1,4.56-.15a4.33,4.33,0,0,1,3.76-.8c.75.14,1.86-.19,2,.95a2,2,0,0,1-.77,1.67c-6.26,3.35-1.93,7.29-.53,10.92.71,1.85,1.89,3.49,1.74,5.61-.1,1.45-.52,2.69-2.09,3s-3.81-.39-3.81-1.44c0-2.63-2.35-4.53-1.93-7,.52-3-1.4-3.07-3.24-3.69-1.66,4.77,4.72,12.05-5,14.3.13-5,.6-9.72-1.66-14-.73-1.4.34-2.59.75-3.77,1.3-3.75,2.8-7.34,3.06-11.46.25-3.9,2.64-5.69,6.94-4.76C1104.4,389.93,1109.8,391.73,1114.65,386Z"/><path class="cls-1" d="M262.71,48.25c6.7-1,12.56-4.46,19.11-5.07,1.24-.11,2.66-1.54,3.68-.19,1.2,1.58-1,2.5-1.3,3.84,1.29.36,2.76.41,3.78,1.12,4.79,3.31,9.17,2.82,13.47-.87.84-.73,2.51-1.77,3-.76.76,1.52,2.38,2.58,2.65,3.92.33,1.55-1.78,2.6-3.11,2.57-6.88-.14-13.35,1.48-19.94,3.25-3.47.93-7.64-2.06-10.15-3.7C270.27,50,266.63,49.43,262.71,48.25Z"/><path class="cls-1" d="M521,90.42c4-3.43,6.67-4.06,10.95-1.9,4.72,2.38,10.38-.33,15.6-.84,3.29-.31,6.22.17,6.87,3.06S552,95,549.27,95.66c-3.2.82-6.43,1.55-9.55,2.59-3.46,1.16-6.38.83-8.68-2.2S525.6,91.18,521,90.42Z"/><path class="cls-1" d="M285.05,298.26c-5.39,3.63-10.88,2.56-16,2.95-1.79.14-2-2.09-2-3.51-.08-3.88-2.43-5.49-5.73-6.5-2.83-.88-5.65-1.86-8.39-3-3.2-1.34-4.38,1-6.05,2.82-.91,1-1.89,3.48-3.61,1.72-1.36-1.37,0-2.94,1.42-4.12,2.35-2,4.71-3.46,8.07-2.85,4.4.8,8.93.71,13.29,2,3.89,1.1,7.63,2.26,10.14,5.76C278.08,296.22,281.51,296.5,285.05,298.26Z"/><path class="cls-1" d="M562.61,151.78c-1.42-.47-3.46-.19-4.1-2.06s1.1-2.56,2.33-3.33,1.83-1.16.34-2.79c-2.15-2.36-.9-4.83,2.07-4.68,1.67.09,2.24-.36,2.81-1.86,1.17-3.1,3.66-3.49,6.55-2.61s6.06,1.55,2.44,5.39a2.68,2.68,0,0,0-.53,1.83c.13,2.37.13,5.31-1.73,6.41C569.76,149.86,566.11,150.58,562.61,151.78Z"/><path class="cls-1" d="M289.48,300.05c3.47.56,6.43,1.22,9.66.78,3.38-.47,5.66,2.19,7.67,4.56,1.09,1.3.82,2.46-1.26,2.44a21.48,21.48,0,0,0-12,3c-2.23,1.33-7.35-1.15-11.26-1.41a1.5,1.5,0,0,1-.28-1.17,3.09,3.09,0,0,1,2.39-1.52C289.57,305.63,289.57,305.61,289.48,300.05Z"/><path class="cls-1" d="M1151.11,586.13c3.9,4.8,8.3,2.45,12.76,2.06-2.48,5.42-4.83,10.33-10.5,12.71a6.37,6.37,0,0,1-5.7,0c-1.85-1.12.06-3,.37-4.43C1148.71,593.31,1149.86,590.22,1151.11,586.13Z"/><path class="cls-1" d="M321.76,62.15c-3.26,0-5.7,2.33-8.71,3.1-2.39.62-8.07-1.72-8.8-3.91a1.49,1.49,0,0,1,.35-1.24c.53-.58,1.13-1.31,2.08-.7s1.36,1.5,2.52,1.37c1.41-4.75,2-5,13-4.53,0,2-1.39,3.94-.5,6Z"/><path class="cls-1" d="M1086.9,290.33c-4.68-4.05-4.77-8.4-2.19-13.14.65-1.18,1.21-2.6,2.76-2.39,1.39.19,1.23,1.66,1.57,2.74C1090.47,282.13,1089,286.15,1086.9,290.33Z"/><path class="cls-1" d="M339.63,40.6c-3.69,2.34-10.77,2.07-13.8-.21-.6-.46-1.06-.85-.71-1.54a3,3,0,0,1,2.81-1.65C330.14,37.05,334.65,38.25,339.63,40.6Z"/><path class="cls-1" d="M1046.68,300a1.63,1.63,0,0,1,1.34,2.13c-.57,3-1.79,5.66-5.52,5.95-2.27.18-3.09-1.37-3.1-3C1039.37,301.17,1042.52,300.66,1046.68,300Z"/><path class="cls-1" d="M344.75,44.29c.56-1.06-.63-1.3-.89-2-.54-1.37-2.88-2.48-1.31-4.1,1.16-1.21,3.08-2.31,4.89-1.74,2.22.71,1.53,3,1.66,4.7.22,2.81-1.8,2.58-3.68,2.51-.23,0-.49.35-.73.55Z"/><path class="cls-1" d="M298.19,44c2.62-2.78,5.11-4.82,8.27-6,1.28-.47,2.42-.47,3,.68s-.66,1.74-1.39,2.29C305.29,43.11,302.36,45,298.19,44Z"/><path class="cls-1" d="M588.48,160l-.73-.3.26-.4.45.71Z"/><path class="cls-1" d="M683.1,203.35c2.16,1.85,3.74,3.38,5.72-.18,1.55-2.79,4.11-.95,5.52,1.05a8,8,0,0,1,1,3.8c.85,8.93,7.08,12.7,14.53,15.39,1.08.39,1.84.52,2.44-.68,1.77-3.52,4.47-1.86,6.24-.48,2.9,2.25,5.33,2.13,8.12.14,2-1.4,4.65-2.52,6.46-1.19s2,4.19,1.74,6.44c-.56,6.09-3.59,11.34-6.51,16.52-1.13,2-3.3,2.85-6,2.25-4.74-1-9.56-1.13-14.17.84-2.61,1.12-4.92-.05-7.2-.91-6.2-2.32-12.36-4.78-18.49-7.28-6.37-2.59-12.38,2-11.46,8.88a2.17,2.17,0,0,1-1.18,2.36,2.24,2.24,0,0,1-3.16-.12c-2.07-2-4.7-2.25-7.38-2.54a10.13,10.13,0,0,1-6.78-3.55c-2.78-3.07-6.24-5.58-10.82-5.22-4.35.35-6-3.71-9-5.56-1.06-.65.69-2.27,1.19-3.44,2.8-6.54-1.32-12.54-8.23-12-3,.25-6.29-.19-8.88,1-6.47,2.88-13.4,1.32-20,2.81-2.66.6-5.76.94-7.19,2.94-4.08,5.7-9.69,3.27-14.8,3.44-1,0-2.87.27-3.28-1.55-.37-1.64.43-2.83,1.62-3.91,2.12-1.94,4.9-1.85,7.41-2.6,6.07-1.83,10.69-4.56,12.25-11.72a13.2,13.2,0,0,1,7.93-9.63c2.86-1.11,5.54-2.27,5.24-6.69-.21-3,4-3.66,5.75-2.79,5.73,2.87,9.48-.54,13.4-3.36,3.17-2.29,4.95-1.58,6.57,1.72A23.73,23.73,0,0,0,645.35,200c2.88,1,4.95,3.3,7,5.45,1.55,1.61,3,3.32,1.15,5.62-1.61,2-2.84,4.54-6.37,3.29a6.56,6.56,0,0,0-6.87,1c3,2.39,6.58,3.27,9.86,4.61.48.19,1.19-.19,1.8-.3-1.05-4.46,3.81-4.37,5.29-6.88,1-1.64,2.54-3.12,1.63-5.28-.53-1.24-2.4-2.18-.63-3.81s3.09-.38,4.58.26l1.26.55a2.32,2.32,0,0,0-1.73-3.5c-4.55-1-8-4.2-12-6.24-4.78-2.44-7.46-7.42-9.71-12.25-.89-1.93.62-3.66,2.26-4.5s2.11,1.17,2.68,2.14c4,6.73,10.09,10.86,16.89,14.23,3.9,1.93,7.23,4.16,5.92,9.5-.26,1.06.56,2.56,1.21,3.66,2.58,4.33,8.35,6,9.54,11.73.16.8,2.36,1.66,4.78-.68,4.85-4.66,4.12-7.33-.51-10.87C682.54,207.05,682.11,205.43,683.1,203.35Z"/><path class="cls-1" d="M730,180.54c-1.17-1.34-4.54-.6-3.39-3.43,2-4.9,6.91-4.26,11.36-5.45-1,2.23-1.38,4.67-2.78,5.71-5.57,4.15-.71,5,1.89,6.08,5.77,2.3,9.58,7,14.15,10.8.9.74,1.9,1.7.9,2.92-1.12,1.38-2.27,3.63-4.09,3.26-4.86-1-10.21.63-14.62-2.19-7.17-4.58-13.88-2.15-20.63.79-2.76,1.2-11.58-.84-12.56-3.46a7.91,7.91,0,0,1,.3-5.56,90,90,0,0,1,6.5-11.21c2-3,4.49-5.08,8.56-2.84,1.46.8,3.62.24,1.34,2.85-.86,1,5.07,5.86,6.06,4.84C725,181.67,727.81,182.32,730,180.54Z"/><path class="cls-1" d="M635.71,140.87c6.76-7.9,7.79-8.24,14.43-4.77-2.38-3.06-2.74-4.92,1.19-5.25a4.1,4.1,0,0,0,3.7-5.37c-1.07-3.94,1.1-5.5,3.79-7,3.31-1.8,5.14-3.4.3-5.69-4.2-2-4.15-5.4-1.91-8.69,1.9-2.8,3.78-5.82,7.82-6.37a4.23,4.23,0,0,0,3.78-3.92c.67-4,7.23-6.53,10.78-4.51,1.6.92.83,1.91-.18,2.67-2.65,2-5.3,4-8,5.87-2.91,2-4.36,8.66-2.3,12.8,1.86,3.75,5.25,4,9,3.14,4-.92,8.09-1.62,12.15-2.36,1.82-.33,4.3-.32,4.48,1.65.2,2.16-2.05,3.45-4.25,3a21.78,21.78,0,0,0-11.65.79c-2.6.87-3.18,1.87-.57,3.39,1.83,1.06,2.78,2.4,1.91,4.47-.7,1.66-1.58,3.23-3.44.92-1.45-1.8-3.4-2.37-5.29-1.14-2.23,1.45-2.44,4-1.81,6.29s1.68,4.27-1.4,5.16c-2.4.7-4.53,4.95-7.49.66-1.29-1.88-3-.59-4.48,0-2.31.88-4.54,2-6.83,2.89-.74.31-2,.88-2.26.63C643.81,136.13,640.27,138.5,635.71,140.87Z"/><path class="cls-1" d="M794.08,199.68c4.86-4.48,5.25-4.34,8,1.47-.35,1.06-1.32.66-2,.85-1.33.34-3.31-1.16-3.94.83a3.42,3.42,0,0,0,2.2,4c5.71,2.26,2.81,7.91,4.77,11.61.12.21-.42,1.1-.68,1.11-3.13.19-6.21,2-9.31.89s-5.29-4-8.9-4.51c-1.38-.2-2.81-3.05-1.21-4,3.13-1.86.81-5.68,3.55-7.59,1.26-.88-.48-1.92-1.26-2.65-2.79-2.6-5.57-5.24-8.47-7.72-1.74-1.48-3.18-2.95-2.62-5.47.19-.82.31-1.78-.51-2.26-6.14-3.58-.78-6,1.34-7.27s4.62-2.61,6.37-4.49c3.4-3.66,6.56-1.43,9.78,0,2,.85,1.23,2.55.74,3.88-.38,1-.32,3.06-2.4,2.26-3.55-1.37-4.43,1.88-5.45,3.63-.92,1.59,1.81,2.2,2.73,3.38C789.56,191.18,795.64,192.39,794.08,199.68Z"/><path class="cls-1" d="M769.47,334.28c-5.33-5.69-10.52-11.54-16.56-16.52-1.7-1.39-2-3.36-2.5-5.26-.68-2.81-1.69-5.35-4.1-7.15-1.22-.92-2.29-2-2-3.74,1-5.08-1.76-8.88-4.25-12.81-5.07-8-8.56-16.8-12.5-25.7,2.4-1.46,4.47-1.59,6.5,1.11,6.44,8.58,13.26,16.91,15.86,27.69.42,1.76.81,3.78,2.41,4.79,6.15,3.9,7.47,11.63,13,16a3.45,3.45,0,0,1,.94,3.42c-1.58.26-2-2.07-5-1.38,5.7,5.32,7.64,11.92,9.28,18.66Z"/><path class="cls-1" d="M634.92,131.71l-1.21.13c.19-.32.37-.64.55-1Z"/><path class="cls-1" d="M1120.2,74.92l.51.88-1.14-.25Z"/><path class="cls-1" d="M913.11,58.13c-.07.22-.15.44-.22.67l-.39-.2.69-.4Z"/><path class="cls-1" d="M341.77,166.05c-.6,1-2.09,1.28-2.36.64-.49-1.13,1.35-.56,1.74-1.35A7,7,0,0,1,341.77,166.05Z"/><path class="cls-1" d="M378.86,99.72c-.28-.48-.89-1.33-.81-1.4.77-.67,1.39-.2,1.92.45Z"/><path class="cls-1" d="M91.45,111.39l1.17,0-.52.88Z"/><path class="cls-1" d="M79.9,94.05l.55-.34-.34.57Z"/><path class="cls-1" d="M362.35,557.52c-.54-.18-.83-.59-.36-1,.23-.19.84.07,1.28.14Z"/><path class="cls-1" d="M363.43,558.46l-1.08-.94.92-.83.92.74C363.94,557.78,363.68,558.12,363.43,558.46Z"/><path class="cls-1" d="M1139.94,553.2c.1-.35.21-.92.67-.52s.09.74-.43.85Z"/><path class="cls-1" d="M252.31,62.45l1.17,0c-.14.33-.29.67-.44,1Z"/><path class="cls-1" d="M1107.47,334.22l-1.2.17c.12-.37.23-.74.34-1.11Z"/></svg>