<svg version="1.1" id="Layer_1" xmlns="http://www.w3.org/2000/svg" x="0" y="0" viewBox="0 0 500 500" style="enable-background:new 0 0 500 500" xml:space="preserve"><style>.st1,.st2{fill:#1f8ac0}.st2{opacity:.5;enable-background:new}.st4{opacity:.29}.st5{fill:#eef6ff}.st6{opacity:.3;fill:#5cbeff;enable-background:new}.st7{fill:#fff}.st8{fill:#6d6daa}.st9{opacity:.5}.st10{fill:#0f4d92}.st11{fill:#96d7ff}.st12{opacity:.3;fill:#1f8ac0;enable-background:new}.st16{fill:#fc929c}.st20{fill:none}.st21,.st23{stroke-linejoin:round}.st21{fill:none;stroke:#96d7ff;stroke-linecap:round}.st23{fill:#fff;stroke:#fff;stroke-width:35;stroke-miterlimit:10}</style><g style="opacity:.2"><path class="st1" d="M55.1 156.6c-20.6 35.9-16.7 80.8 9.9 112.6 9.2 11 14.5 24.8 14.9 39.2 2.4 67.3 58.9 119.7 126 117.2 25.9-.9 51-10.1 71.4-26.4a67.01 67.01 0 0 1 55.1-13.4c51.8 10.4 109.6-24.6 112.7-97.6 0-8.9-2.2-17.7-6.5-25.6-7.2-15.1-8.6-32.4-3.8-48.5 14.3-49.8-14.5-101.7-64.2-115.9-3.6-1-7.1-1.8-10.8-2.4-25.6-4.1-48.3-17.9-66.4-36.6-36.5-37.7-97-38.9-134.8-2.2-7.9 7.7-14.5 16.6-19.4 26.5-7.5 14.3-19.8 25.3-35 30.8-20.6 8-38 23-49.1 42.3z"/><circle class="st1" cx="411.5" cy="390" r="14.9"/><path class="st2" d="M411.5 384.1c6.6 0 12.4 4.3 14.3 10.6.4-1.4.8-3 .8-4.6 0-8.2-6.7-14.9-14.9-14.9s-14.9 6.7-14.9 14.9c0 1.6.2 3.1.8 4.6 1.5-6.3 7.3-10.6 13.9-10.6z"/><path class="st1" d="M411.5 408.4c-10.1 0-18.3-8.2-18.3-18.3 0-10.1 8.2-18.3 18.3-18.3s18.3 8.2 18.3 18.3c-.1 10.1-8.2 18.2-18.3 18.3zm0-29.9c-6.5 0-11.6 5.2-11.6 11.6s5.2 11.6 11.6 11.6S423 396.4 423 390c.2-6.3-5.1-11.5-11.5-11.5z"/><circle class="st1" cx="99" cy="61" r="11.6"/><path class="st2" d="M99 56.3c5.1 0 9.6 3.3 11 8.2.3-1.1.6-2.3.6-3.6 0-6.5-5.2-11.6-11.6-11.6-6.5 0-11.6 5.2-11.6 11.6 0 1.2.2 2.4.6 3.6 1.5-4.8 5.9-8.2 11-8.2z"/><path class="st1" d="M99 75.9c-8.2 0-14.9-6.7-14.9-14.9S90.8 46.1 99 46.1s15 6.7 15 14.9-6.7 14.9-15 14.9zm0-23.2c-4.6 0-8.4 3.7-8.4 8.4 0 4.6 3.7 8.4 8.4 8.4s8.4-3.7 8.4-8.4c-.1-4.6-3.8-8.4-8.4-8.4z"/></g><path d="M434.7 236.9c0 105.8-85.7 191.5-191.5 191.5-105.5 0-191.5-85.7-191.5-191.5S137.4 45.4 243.2 45.4s191.5 85.7 191.5 191.5z" style="opacity:.1;fill:#0f4d92"/><g class="st4"><path class="st5" d="M465.7 217.3c1.5-14-8.6-26.5-22.5-28-11.5-1.2-22.4 5.4-26.5 16.2-5.9-4.6-14.4-3.7-19 2.2-1.9 2.4-2.9 5.3-3 8.3 0 .4 0 .8.1 1.1-10.6 3.7-16.1 15.2-12.5 25.7 2.9 8.2 10.6 13.7 19.2 13.6H459c11.2.1 20.3-8.9 20.4-20.2.1-8.3-5.5-16.1-13.7-18.9z"/><path class="st6" d="M459.1 250h-57.6c-9.9 0-18.4-7.2-20-17-2 11 5.4 21.5 16.4 23.3 1.1.2 2.4.3 3.6.3h57.6c11.2.1 20.3-8.9 20.4-20.2 0-1.2-.1-2.4-.3-3.6-1.8 10-10.2 17.2-20.1 17.2z"/><path class="st7" d="M394.7 224.1c0-.4-.1-.7-.1-1.1 0-7.5 6.2-13.6 13.6-13.5 3.1 0 6 1 8.3 3 4.8-13.2 19.4-19.8 32.6-15 11 4 17.8 15.1 16.4 26.7 7 2.4 12.1 8.4 13.5 15.7 1.7-9.8-4-19.3-13.5-22.4 1.5-14-8.6-26.5-22.5-28-11.5-1.2-22.4 5.4-26.5 16.2-5.9-4.6-14.4-3.7-19 2.2-1.9 2.4-2.9 5.3-3 8.3 0 .4 0 .8.1 1.1-9.4 3.2-15 12.6-13.4 22.4 1.5-7.2 6.6-13.1 13.5-15.6z"/><path class="st8" d="M459.1 259.6h-57.6c-12.7.1-23.1-10.2-23.1-22.9 0-9.1 5.2-17.4 13.6-21.1.4-9 8.1-16 17.2-15.5 2.3.1 4.4.6 6.4 1.6 7.2-13.8 24.3-19.1 38.1-11.9 9.3 4.8 15.1 14.4 15.1 24.9v.9c11.6 5.2 16.8 18.9 11.5 30.4-3.8 8.2-12.1 13.6-21.2 13.6zm-50.9-54.1c-6 0-10.7 4.7-10.8 10.7v.9c.1 1.2-.6 2.5-1.9 2.9-9 3.2-13.9 13.1-10.8 22.1 2.5 7.1 9.1 11.8 16.6 11.7h57.6c9.7.1 17.5-7.7 17.5-17.3 0-7.5-4.7-14.2-11.8-16.6-1.2-.4-2.1-1.6-1.9-3 1.3-12.4-7.6-23.5-20-24.9-10.2-1.1-19.9 4.8-23.5 14.5-.5 1.4-2.2 2.2-3.6 1.6-.3-.1-.5-.2-.7-.4-1.9-1.4-4.2-2.2-6.7-2.2z"/><path class="st8" d="M465.7 220.1c-.3 0-.6-.1-.9-.2-1.9-.6-3.8-.9-5.8-.9-1.5 0-2.8-1.2-2.8-2.8 0-1.5 1.2-2.8 2.8-2.8 2.6 0 5.1.4 7.6 1.2 1.4.5 2.3 2.2 1.7 3.6-.4 1.2-1.4 1.9-2.6 1.9zM394.7 220.2c-1.5 0-2.8-1.2-2.8-2.8 0-1.2.7-2.3 1.9-2.7 2.5-.8 5-1.3 7.6-1.3 1.5 0 2.8 1.2 2.8 2.8 0 1.5-1.2 2.8-2.8 2.8-2 0-3.9.3-5.8.9-.2.2-.5.3-.9.3zM420.2 212.8c-1 0-2.1-.6-2.5-1.5-.7-1.3-1.7-2.6-2.9-3.5-1.2-.9-1.4-2.7-.5-3.9s2.7-1.4 3.9-.5c1.9 1.4 3.4 3.3 4.4 5.3.7 1.3.2 3.1-1.1 3.8-.3.2-.8.3-1.3.3z"/></g><g class="st4"><path class="st5" d="M312.5 53.8c1.2-11.9-7.4-22.7-19.3-24-9.9-1-19.2 4.7-22.7 14-5-4-12.3-3.2-16.3 1.9-1.6 2.1-2.5 4.5-2.5 7.2v1C242.6 57 237.8 67 241 76c2.5 7 9 11.7 16.4 11.7h49.5c9.6 0 17.4-7.7 17.5-17.3 0-7.6-4.8-14.2-11.9-16.6z"/><path class="st6" d="M306.9 81.8h-49.5c-8.5 0-15.7-6.2-17.2-14.5-1.6 9.5 4.7 18.4 14.1 20 1 .2 2.1.3 3.1.2h49.5c9.6.1 17.4-7.7 17.5-17.3 0-1-.1-2.1-.2-3.1-1.5 8.5-8.8 14.7-17.3 14.7z"/><path class="st7" d="M251.8 59.6v-1c0-6.4 5.2-11.6 11.7-11.6 2.6 0 5.1.9 7.2 2.5 4.2-11.3 16.7-17.1 28-12.9 9.4 3.5 15.2 13 14.1 22.9 6 2.1 10.4 7.2 11.5 13.5 1.4-8.4-3.4-16.6-11.5-19.2 1.2-11.9-7.4-22.7-19.3-24-9.9-1-19.2 4.7-22.7 14-5-4-12.3-3.2-16.3 1.9-1.6 2.1-2.5 4.5-2.5 7.2v1c-8 2.7-12.9 10.9-11.4 19.2.8-6.4 5.2-11.5 11.2-13.5z"/><path class="st8" d="M306.9 89.9h-49.5c-10.9.1-19.8-8.7-19.8-19.6 0-7.8 4.5-14.9 11.6-18.1.4-7.7 7-13.7 14.7-13.4 1.9.1 3.8.6 5.4 1.4 6.2-11.8 20.9-16.4 32.7-10.3 7.9 4.1 13 12.3 13 21.4v.8c10 4.5 14.4 16.1 9.9 26.1-3.1 7.2-10.2 11.8-18 11.7zm-43.6-46.3c-5 0-9.2 4.1-9.3 9.2v.8c.1 1.1-.6 2.2-1.6 2.5-7.8 2.7-11.9 11.2-9.3 19 2.1 6.1 7.8 10.1 14.2 10.1h49.5c8.2 0 15-6.6 15-14.8 0-6.5-4-12.1-10.2-14.2-1-.4-1.7-1.4-1.6-2.6 1.1-10.6-6.6-20.2-17.2-21.3-8.5-1.1-16.9 4-19.9 12.2-.5 1.2-1.9 1.9-3.1 1.4-.2-.1-.4-.2-.6-.4-1.8-1.2-3.8-1.9-5.9-1.9z"/><path class="st8" d="M312.6 56.2c-.3 0-.5 0-.8-.1-1.5-.5-3.3-.8-4.9-.8-1.3 0-2.4-1.1-2.4-2.4s1.1-2.4 2.4-2.4c2.3 0 4.4.4 6.5 1.1 1.2.4 2 1.9 1.5 3.1-.3.8-1.2 1.5-2.3 1.5zM251.8 56.2c-1.3 0-2.4-1.1-2.4-2.4 0-1 .6-2 1.6-2.3 2.2-.7 4.3-1.1 6.6-1.1 1.3 0 2.4 1.1 2.4 2.4 0 1.2-1.1 2.4-2.4 2.4-1.6 0-3.4.3-4.9.8-.4.2-.7.2-.9.2zM273.7 49.8c-.9 0-1.7-.5-2.2-1.3-.6-1.1-1.4-2.2-2.5-3-1-.8-1.2-2.4-.4-3.4s2.4-1.2 3.4-.4c1.5 1.2 2.9 2.8 3.8 4.5.6 1.1.2 2.7-1 3.3-.4.3-.8.3-1.1.3z"/></g><g class="st4"><path class="st5" d="M87.8 149.5c.9-9-5.6-17.2-14.6-18.1-7.5-.8-14.5 3.5-17.2 10.6-3.8-3-9.4-2.4-12.3 1.4-1.2 1.5-1.9 3.5-1.9 5.4v.7c-6.9 2.4-10.5 9.9-8.1 16.7 1.9 5.3 6.9 8.8 12.4 8.8h37.3c7.2 0 13.2-5.8 13.2-13.1.1-5.5-3.5-10.5-8.8-12.4z"/><path class="st6" d="M83.6 170.7H46.3c-6.5 0-11.9-4.6-13-11-1.2 7.1 3.5 13.9 10.7 15.1.7.1 1.5.2 2.3.2h37.3c7.2 0 13.2-5.8 13.2-13.1 0-.8-.1-1.5-.2-2.3-1.1 6.5-6.7 11.1-13 11.1z"/><path class="st7" d="M41.8 153.9v-.7c0-4.8 4-8.7 8.8-8.7 2 0 3.9.7 5.4 1.9 3.2-8.5 12.6-12.9 21.2-9.8 7.1 2.7 11.5 9.8 10.7 17.3 4.5 1.5 7.9 5.4 8.7 10.2 1.1-6.4-2.6-12.5-8.7-14.6.9-9-5.6-17.2-14.6-18.1-7.5-.8-14.5 3.5-17.2 10.6-3.8-3-9.4-2.4-12.3 1.4-1.2 1.5-1.9 3.5-1.9 5.4v.7c-6.1 2.1-9.8 8.2-8.6 14.5.7-4.6 4-8.5 8.5-10.1z"/><path class="st8" d="M83.6 176.9H46.3c-8.2 0-15-6.6-15-14.9 0-5.9 3.4-11.3 8.8-13.7.3-5.9 5.2-10.4 11.1-10.1 1.4.1 2.9.4 4.1 1 4.7-8.9 15.7-12.4 24.7-7.7 6 3.2 9.8 9.4 9.9 16.1v.6c7.5 3.4 10.9 12.2 7.5 19.7-2.6 5.6-8 9-13.8 9zm-33-35c-3.8 0-7 3.1-7 6.9v.6c.1.8-.4 1.6-1.2 1.9-5.9 2.1-9 8.4-7 14.4 1.5 4.5 5.9 7.6 10.7 7.6h37.3c6.3 0 11.3-4.9 11.3-11.2 0-4.8-3.1-9.1-7.7-10.8-.8-.3-1.3-1-1.2-2 .8-8-4.9-15.2-13-16.1-6.6-.7-12.9 3.2-15.2 9.4-.3.9-1.4 1.4-2.4 1-.2-.1-.3-.2-.5-.3-1-.9-2.6-1.4-4.1-1.4z"/><path class="st8" d="M87.9 151.4c-.2 0-.4 0-.6-.1-1.2-.4-2.5-.6-3.7-.6-1 0-1.9-.8-1.9-1.9s.8-1.9 1.9-1.9c1.6 0 3.3.3 4.9.8.9.3 1.4 1.3 1.1 2.4-.3.8-1 1.3-1.7 1.3zM41.8 151.4c-1 0-1.9-.8-1.9-1.9 0-.8.5-1.4 1.2-1.7 1.6-.5 3.3-.8 4.9-.8 1 0 1.9.8 1.9 1.9s-.8 1.9-1.9 1.9c-1.2 0-2.6.2-3.8.6h-.4zM58.4 146.5c-.7 0-1.3-.4-1.6-.9-.5-.9-1.1-1.6-1.9-2.3-.8-.6-.9-1.7-.3-2.6.6-.8 1.7-.9 2.6-.3 1.2.9 2.2 2.1 2.9 3.4.5.9.1 2-.7 2.5-.4.2-.7.2-1 .2z"/></g><g class="st9"><path class="st7" d="M422.2 292.6c-.4 0-.7-.1-1-.2-.3-.1-.6-.3-.9-.6-.5-.5-.8-1.2-.8-2 0-.4.1-.7.2-1 .1-.3.3-.6.6-.9l.9-.6c1-.4 2.3-.2 3.1.6l.6.9c.1.3.2.7.2 1 0 1.5-1.3 2.8-2.9 2.8zM412.5 303.9h-28.9c-1.5 0-2.8-1.2-2.8-2.8 0-1.5 1.2-2.8 2.8-2.8h28.9c1.5 0 2.8 1.2 2.8 2.8.1 1.5-1.2 2.8-2.8 2.8zM402.9 292.6h-33.7c-1.5 0-2.8-1.2-2.8-2.8 0-1.5 1.2-2.8 2.8-2.8h33.7c1.5 0 2.8 1.2 2.8 2.8-.1 1.5-1.3 2.8-2.8 2.8zM364.3 303.9h-9.7c-1.5 0-2.8-1.2-2.8-2.8 0-1.5 1.2-2.8 2.8-2.8h9.7c1.5 0 2.8 1.2 2.8 2.8 0 1.6-1.2 2.8-2.8 2.8zM402.9 315.1h-38.6c-1.5 0-2.8-1.2-2.8-2.8s1.2-2.8 2.8-2.8h38.6c1.5 0 2.8 1.2 2.8 2.8s-1.3 2.8-2.8 2.8z"/></g><g class="st9"><path class="st7" d="M188.2 122.3c-1.5 0-2.8-1.2-2.8-2.8 0-.2 0-.3.1-.5 0-.2.1-.4.2-.5.1-.2.1-.3.2-.5s.2-.3.4-.4c.6-.6 1.6-.9 2.6-.7.2 0 .4.1.5.2.2.1.3.1.5.2.1.1.3.2.4.3s.2.3.3.4c.1.1.2.3.3.5.1.2.1.3.1.5s.1.3.1.5c0 .7-.3 1.4-.8 2-.1.1-.3.2-.4.3s-.3.2-.5.2c-.2.1-.3.1-.5.2-.3.1-.5.1-.7.1zM191 111.1h-5.7c-1.5 0-2.8-1.2-2.8-2.8s1.2-2.8 2.8-2.8h5.7c1.5 0 2.8 1.2 2.8 2.8s-1.2 2.8-2.8 2.8zM199.5 99.8h-28.2c-1.5 0-2.8-1.2-2.8-2.8s1.2-2.8 2.8-2.8h28.2c1.5 0 2.8 1.2 2.8 2.8-.1 1.6-1.3 2.8-2.8 2.8zM174.2 111.1h-11.3c-1.5 0-2.8-1.2-2.8-2.8s1.2-2.8 2.8-2.8h11.2c1.5 0 2.8 1.2 2.8 2.8 0 1.6-1.2 2.8-2.7 2.8zM176.9 122.3h-22.5c-1.5 0-2.8-1.2-2.8-2.8s1.2-2.8 2.8-2.8h22.5c1.5 0 2.8 1.2 2.8 2.8 0 1.6-1.2 2.8-2.8 2.8z"/></g><g class="st9"><path class="st7" d="M170.8 383H168c-1.5 0-2.8-1.2-2.8-2.8 0-1.5 1.2-2.8 2.8-2.8h2.8c1.5 0 2.8 1.2 2.8 2.8 0 1.6-1.2 2.8-2.8 2.8zM170.8 402.6H168c-1.5 0-2.8-1.2-2.8-2.8 0-1.5 1.2-2.8 2.8-2.8h2.8c1.5 0 2.8 1.2 2.8 2.8 0 1.6-1.2 2.8-2.8 2.8zM182.1 402.6h-2.8c-1.5 0-2.8-1.2-2.8-2.8 0-1.5 1.2-2.8 2.8-2.8h2.8c1.5 0 2.8 1.2 2.8 2.8 0 1.6-1.2 2.8-2.8 2.8zM193.3 402.6h-2.8c-1.5 0-2.8-1.2-2.8-2.8 0-1.5 1.2-2.8 2.8-2.8h2.8c1.5 0 2.8 1.2 2.8 2.8 0 1.6-1.2 2.8-2.8 2.8zM193.3 383h-14.1c-1.5 0-2.8-1.2-2.8-2.8 0-1.5 1.2-2.8 2.8-2.8h14.1c1.5 0 2.8 1.2 2.8 2.8 0 1.6-1.2 2.8-2.8 2.8zM182.1 391.4H168c-1.5 0-2.8-1.2-2.8-2.8 0-1.5 1.2-2.8 2.8-2.8h14.1c1.5 0 2.8 1.2 2.8 2.8 0 1.6-1.2 2.8-2.8 2.8z"/></g><circle class="st10" cx="47.5" cy="439.4" r="5"/><path class="st10" d="M70.2 434.3h-7.6c-2.8 0-5 2.3-5 5s2.3 5 5 5h7.6c2.8 0 5-2.3 5-5s-2.2-5-5-5zM446.5 434.3h-7.6c-2.8 0-5 2.3-5 5s2.3 5 5 5h7.6c2.8 0 5-2.3 5-5s-2.3-5-5-5z"/><circle class="st10" cx="461.7" cy="439.4" r="5"/><path class="st11" d="M340.8 454.5h-21c-2.8.2-4.8 2.7-4.6 5.4.2 2.5 2.2 4.4 4.6 4.6h21c2.8-.2 4.8-2.7 4.6-5.4-.1-2.4-2.2-4.4-4.6-4.6zM189.3 454.5h-21.1c-2.8.2-4.8 2.7-4.6 5.4.2 2.5 2.2 4.4 4.6 4.6h21c2.8-.2 4.8-2.7 4.6-5.4 0-2.4-2-4.4-4.5-4.6zM305.1 454.5H204c-2.8 0-5 2.3-5 5 0 2.8 2.3 5 5 5h40.3v5h-20c-2.8 0-5 2.3-5 5 0 2.8 2.3 5 5 5h63.1c2.8 0 5-2.3 5-5 0-2.8-2.3-5-5-5h-22.6v-5h40.3c2.8 0 5-2.3 5-5s-2.2-5-5-5z"/><path class="st12" d="M214.9 90.9c4.2 0 7.6-3.4 7.6-7.6s-3.4-7.6-7.6-7.6-7.6 3.4-7.6 7.6c0 4.2 3.4 7.6 7.6 7.6zm0-11.4c2.1 0 3.8 1.6 3.8 3.8 0 2.1-1.6 3.8-3.8 3.8-2.1 0-3.8-1.6-3.8-3.8 0-2.1 1.8-3.8 3.8-3.8zM56.4 293.6c-2.8 0-5 2.3-5 5 0 2.8 2.3 5 5 5s5-2.3 5-5-2.2-5-5-5zm0 7.5c-1.4 0-2.6-1.1-2.6-2.6 0-1.4 1.1-2.6 2.6-2.6 1.4 0 2.6 1.1 2.6 2.6-.1 1.5-1.3 2.6-2.6 2.6zM33.4 69.4c-2.8 0-5 2.3-5 5 0 2.8 2.3 5 5 5 2.8 0 5-2.3 5-5 .1-2.7-2.2-5-5-5zm0 7.6c-1.4 0-2.6-1.1-2.6-2.6 0-1.4 1.1-2.6 2.6-2.6 1.4 0 2.6 1.1 2.6 2.6S34.9 77 33.4 77zM445.8 127.8c-2.8 0-5 2.3-5 5 0 2.8 2.3 5 5 5s5-2.3 5-5c.1-2.7-2.2-5-5-5zm0 7.6c-1.4 0-2.6-1.1-2.6-2.6 0-1.4 1.1-2.6 2.6-2.6s2.6 1.1 2.6 2.6-1.1 2.6-2.6 2.6zM424.6 30.2c0-2.8-2.3-5-5-5-2.8 0-5 2.3-5 5s2.3 5 5 5c2.7.1 5-2.2 5-5zm-7.6 0c0-1.4 1.1-2.6 2.6-2.6s2.6 1.1 2.6 2.6-1.1 2.6-2.6 2.6c-1.5-.1-2.6-1.2-2.6-2.6z"/><path class="st10" d="M421 444.4H88.2c-2.4 0-4.2-1.9-4.2-4.2 0-2.4 1.9-4.2 4.2-4.2H421c2.4 0 4.2 1.9 4.2 4.2 0 2.4-1.9 4.2-4.2 4.2z"/><path d="M423 339.5c0 8.3-6.8 15.2-15.2 15.2H92.1c-8.3 0-15.2-6.8-15.2-15.2V259c0-8.3 6.8-15.2 15.2-15.2h315.7c8.3 0 15.2 6.8 15.2 15.2v80.5z" style="fill:#2c391b"/><path d="M301.8 412.2c2.4 3.4.9 6.2-3.3 6.2h-97.1c-4.2 0-5.7-2.8-3.3-6.2l6.6-9.5c2.4-3.4 4.3-9.7 4.3-13.8v-19c0-4.2 3.4-7.6 7.6-7.6h66.8c4.2 0 7.6 3.4 7.6 7.6v19c0 4.2 1.9 10.4 4.3 13.8l6.5 9.5z" style="fill:#b2b2b2"/><path class="st11" d="M92.1 331.9c-4.2 0-7.6-3.4-7.6-7.6V155.8c0-4.2 3.4-7.6 7.6-7.6h315.7c4.2 0 7.6 3.4 7.6 7.6v168.5c0 4.2-3.4 7.6-7.6 7.6H92.1z"/><path class="st10" d="M407.8 155.8c.1 0 .1 0 0 0v168.5H92.1V155.9l315.7-.1m.1-15.2H92.1c-8.3 0-15.2 6.8-15.2 15.2v183.7H423V155.8c0-8.4-6.8-15.2-15.1-15.2z"/><path d="M76.9 339.5v18.2c0 8.3 6.8 15.2 15.2 15.2h315.7c8.3 0 15.2-6.8 15.2-15.2v-18.2H76.9z" style="fill:#e5e5e5"/><path class="st16" d="M123.6 163.2h252.8v10.1H123.6z"/><path style="fill:#478193" d="M123.6 173.3h252.8v141H123.6z" class="st9"/><path class="st10" d="M164.2 220.5h-14.7v-14.7h14.7v14.7zm-13.3-1.4h11.9v-11.9h-11.9v11.9z"/><path class="st7" d="m158.5 218-5.1-5.1 1.6-1.6 3.1 3.1.4.5.5-.5 6.2-6.2 1.5 1.6zM172.4 208.2h120.1v10.5H172.4z"/><path class="st16" d="M339.8 218.7h-36.6c-2.9 0-5.3-2.4-5.3-5.3s2.4-5.3 5.3-5.3h36.6c2.9 0 5.3 2.4 5.3 5.3 0 3-2.4 5.3-5.3 5.3z"/><path class="st10" d="M164.2 241h-14.7v-14.7h14.7V241zm-13.3-1.4h11.9v-11.9h-11.9v11.9z"/><path class="st7" d="m158 237.4-5.1-5.1 1.5-1.6 3.1 3.1.5.4.4-.4 6.2-6.2 1.6 1.6zM172.4 228.7h104.3v10.5H172.4z"/><path class="st16" d="M324 239.2h-36.6c-2.9 0-5.3-2.4-5.3-5.3s2.4-5.3 5.3-5.3H324c2.9 0 5.3 2.4 5.3 5.3-.1 3-2.4 5.3-5.3 5.3z"/><path class="st10" d="M164.2 261.5h-14.7v-14.7h14.7v14.7zm-13.3-1.4h11.9v-11.9h-11.9v11.9z"/><path class="st7" d="m159 258.3-5.1-5.1 1.5-1.6 3.1 3.1.5.5.4-.5 6.2-6.2 1.6 1.6zM172.4 249.2h117.2v10.5H172.4z"/><path class="st16" d="M336.8 259.7h-36.6c-2.9 0-5.3-2.4-5.3-5.3s2.4-5.3 5.3-5.3h36.6c2.9 0 5.3 2.4 5.3 5.3 0 3-2.4 5.3-5.3 5.3z"/><path class="st10" d="M164.2 282h-14.7v-14.7h14.7V282zm-13.3-1.4h11.9v-11.9h-11.9v11.9z"/><path class="st7" d="m158 279.7-5.1-5.1 1.5-1.6 3.1 3.1.5.4.4-.4 6.2-6.2 1.6 1.6zM172.4 269.7h106.8v10.5H172.4z"/><path class="st16" d="M326.5 280.3h-36.6c-2.9 0-5.3-2.4-5.3-5.3s2.4-5.3 5.3-5.3h36.6c2.9 0 5.3 2.4 5.3 5.3-.1 2.9-2.4 5.3-5.3 5.3z"/><path class="st10" d="M164.2 302.5h-14.7v-14.7h14.7v14.7zm-13.3-1.4h11.9v-11.9h-11.9v11.9z"/><path class="st7" d="m159 298.2-5.1-5.1 1.5-1.5 3.1 3.1.5.4.4-.4 6.2-6.2 1.6 1.5zM172.4 290.2h124.9v10.5H172.4z"/><path class="st16" d="M344.6 300.8H308c-2.9 0-5.3-2.4-5.3-5.3s2.4-5.3 5.3-5.3h36.6c2.9 0 5.3 2.4 5.3 5.3-.1 2.9-2.4 5.3-5.3 5.3z"/><path class="st7" d="M149.8 177.9h26.7v17.6h-26.7zM182.8 177.9h26.7v17.6h-26.7zM216.7 177.9h26.7v17.6h-26.7zM247.7 177.9h26.7v17.6h-26.7zM280.7 177.9h26.7v17.6h-26.7zM314.6 177.9h26.7v17.6h-26.7z"/><path id="Rounded-Rectangle-1-copy_1_" d="M407.6 324.3V156h-153l153 168.3z" style="fill:#cce6ff;fill-opacity:.2588"/><path id="Shape-4_1_" d="m27.2 38.3 1.9-.2c.2-1.3.5-2.5 1.1-3.6l-1.5-1.1c-.1-.1-.2-.3-.2-.4 0-.2 0-.3.1-.5l2.3-3c.2-.3.6-.3.9-.1l1.6 1.2c1-.8 2.1-1.3 3.3-1.7l-.2-1.9c0-.2 0-.3.1-.5.1-.1.3-.2.4-.2l3.7-.5h.2c.3 0 .5.3.5.6l.2 2c1.3.2 2.4.5 3.6 1.1l1.2-1.5c.1-.1.3-.2.4-.2.2 0 .3 0 .5.1l3 2.3c.3.2.3.6.1.9l-1.2 1.5c.8 1 1.4 2.1 1.8 3.3l1.8-.2c.2 0 .3 0 .5.1.1.1.2.3.2.4l.5 3.7c0 .4-.2.7-.6.7l-1.8.2c-.1 1.3-.5 2.5-1.1 3.7l1.4 1.1c.1.1.2.3.2.4 0 .2 0 .3-.1.5l-2.3 3c-.2.3-.6.3-.9.1l-1.4-1.1c-1 .8-2.2 1.4-3.4 1.8l.2 1.7c0 .4-.2.7-.6.7l-3.7.5c-.4 0-.7-.2-.7-.6l-.2-1.7c-1.3-.2-2.5-.5-3.7-1.2l-1 1.3c-.1.1-.3.2-.4.2-.2 0-.3 0-.5-.1l-3-2.3c-.3-.2-.3-.6-.1-.9l1.1-1.4c-.8-1-1.4-2.2-1.8-3.4l-1.7.2c-.2 0-.3 0-.5-.1-.1-.1-.2-.3-.2-.4l-.5-3.8c-.1-.4.2-.7.5-.7zm8.5 1.9c.3 2.1 1.9 3.8 4 4.1.4.1.8.1 1.2 0 2.6-.3 4.4-2.7 4.1-5.2-.3-2.1-1.9-3.8-4-4.1-.4-.1-.8-.1-1.2 0-1.2.2-2.3.8-3.1 1.8-.8.9-1.1 2.1-1 3.4zm16.9-10.4c0-.2.2-.3.3-.4l2.3-1.3c-.4-1.6-.6-3.3-.4-5.1l-2.5-.7c-.3-.1-.5-.5-.4-.8l1.3-4.7c.1-.3.5-.5.8-.4l2.6.8c.8-1.5 1.9-2.8 3.2-3.8l-1.3-2.3c-.1-.2-.1-.3-.1-.5s.2-.3.3-.4l4.2-2.3c.3-.2.7-.1.9.3l1.3 2.4c1.6-.4 3.3-.6 5-.5l.9-2.6c.1-.3.4-.5.7-.5h.1l4.7 1.3c.3.1.5.5.4.8l-.7 2.6c1.5.8 2.8 1.9 3.9 3.2l2.2-1.2c.3-.2.7-.1.9.3l2.3 4.3c.2.3.1.7-.3.9L83 20.5c.5 1.7.7 3.4.5 5.2l2.3.7c.3.1.5.5.4.8l-1.3 4.7c0 .2-.2.3-.3.4-.2.1-.3.1-.5.1l-2.3-.7c-.9 1.5-2 2.9-3.4 4l1.1 2c.1.2.1.3.1.5s-.2.3-.3.4L75.1 41c-.3.2-.7.1-.9-.3L73 38.5c-1.7.5-3.4.6-5.2.4l-.6 2.2c0 .2-.2.3-.3.4-.2.1-.3.1-.5.1l-4.7-1.3c-.2 0-.3-.2-.4-.3-.1-.2-.1-.3-.1-.5l.7-2.4c-1.5-.9-2.8-2-3.9-3.4l-2.1 1.2c-.2.1-.3.1-.5.1s-.3-.2-.4-.3l-2.4-4.3c0-.2-.1-.4 0-.6zm11.1-2.3c1 1.7 2.6 2.9 4.6 3.2 1.3.2 2.7-.1 3.9-.7 3-1.7 4.1-5.5 2.4-8.5-1-1.7-2.6-2.9-4.6-3.2-1.3-.2-2.7.1-3.9.7-2.9 1.7-4 5.5-2.4 8.5z" style="opacity:.5;fill:#96d7ff"/><g class="st9"><path class="st11" d="m393.9 13.6-.1-1h-.9v1l.1.1.4.4zM395.2 13.8v-.2l.1-.8-.9-.2-.2 1 .4.6zM395.7 14.6l.6-.3.5-.9-.9-.4-.4.9zM396.7 14.6v.7l.6-.1h.1l.6-.8-.7-.6zM397.5 15.4l-.1.7.7.1.8-.6-.5-.8zM399.2 16.2l-1 .3-.3.6.6.3 1-.4zM399.6 17.6l-1 .1-.5.5.6.5 1-.1zM398.1 19.4l.4.6h.1l.9.1.2-.9-1.1-.2zM399.3 23.5c-1.7 2.4-4.7 3.5-7.5 2.9l-.3-.1-.8 1.7.4.1c1.8.4 3.6.3 5.2-.2 1.8-.6 3.4-1.7 4.5-3.3l.2-.3-1.6-1.1-.1.3zM389.8 25.6s0-.1.1-.1l.1-.3.1-.3-.3-.2c-1.3-.8-2.3-2-2.8-3.5-1.2-3.4.7-7.2 4.1-8.3l.3-.1-.8-2.3-.3.1c-4.8 1.6-7.4 6.9-5.7 11.7.7 2.1 2.1 3.8 4 4.9l.4.2.2-.4.2-.4v-.1l.1-.3V25.9l.3-.3z"/><path class="st11" d="m399.4 12.2-.3-.3-1.2 1.4.4.3c1 .8 1.7 1.9 2.1 3.1.5 1.6.5 3.4-.1 4.9l-.1.3.3.1h.1l.3.1s.1.1.2.1.1.1.2.1l.4.2.4.2.2-.4c.8-2 .8-4.3.1-6.3-.8-1.3-1.8-2.7-3-3.8zM394.8 15.5l-.1-.3-.2.2c-.6.4-.7 1-.9 1.5l-.3 1.6c-.8.2-1.2 1.1-1 1.9.3.8 1.1 1.2 1.8.9.8-.3 1.2-1.1.9-1.8-.1-.2-.2-.5-.4-.6l.2-.9c.1-.5.2-1 .2-1.5 0-.4-.1-.7-.2-1zm-.9 4.3c.1.2 0 .3-.2.4-.2.1-.3 0-.4-.2-.1-.2 0-.3.2-.4.2 0 .4.1.4.2z"/><path class="st11" d="m407.6 17.1-1.6-4.8-2.9.6c-.6-.9-1.3-1.7-2.1-2.4l1-2.8-4.6-2.2-1.6 2.5c-1.1-.2-2.2-.3-3.2-.2L391.2 5l-4.8 1.6.6 2.9c-.9.6-1.7 1.3-2.4 2.1l-2.8-1-2.2 4.6 2.5 1.6c-.2 1.1-.3 2.2-.2 3.2l-2.7 1.3 1.6 4.8 2.9-.6c.6.9 1.3 1.7 2.1 2.4l-1 2.8 4.6 2.2 1.6-2.5c1.1.2 2.2.3 3.2.2l1.3 2.7 4.8-1.6-.6-2.9c.9-.6 1.7-1.3 2.4-2.1l2.8 1 2.2-4.6-2.5-1.6c.2-1.1.3-2.2.2-3.2l2.8-1.2zm-4.9-1c1.8 5.1-1 10.7-6.1 12.5-5.1 1.8-10.7-1-12.5-6.1-1.8-5.1 1-10.7 6.1-12.5 5.1-1.8 10.7 1 12.5 6.1z"/><path transform="rotate(-18.904 371.263 26.873)" class="st11" d="M365.3 25.1h12v3.6h-12z"/><path transform="rotate(-18.904 368.88 19.916)" class="st11" d="M362.9 18.1h12v3.6h-12z"/><path transform="rotate(-18.904 373.736 34.095)" class="st11" d="M367.7 32.3h12v3.6h-12z"/><path class="st11" d="M361.5 30.3c-.5-.3-1.1-.5-1.7-.6-.6-.1-1.3-.2-2-.2l-1.7-.1c-.3 0-.6 0-.8-.1-.3 0-.5-.1-.7-.2l-.6-.3c-.2-.1-.3-.4-.4-.6-.1-.4-.2-.7-.1-.9.1-.3.1-.5.3-.6.2-.2.4-.3.6-.5.3-.1.5-.3.8-.3.4-.2.9-.3 1.2-.4.4-.1.7-.1 1-.2s.6 0 .9 0h1.2V25c.1-1.1.1-2.2-.2-3.2l-.1-.2h-.2c-.9 0-1.8 0-2.6.2-.8.1-1.6.3-2.5.6-.9.3-1.8.7-2.5 1.2s-1.2 1.1-1.6 1.7c-.4.7-.6 1.4-.7 2.2-.1.8 0 1.6.3 2.5.2.7.6 1.3.9 1.8.4.5.8.8 1.3 1.1.5.3 1 .5 1.5.6.5.1 1.1.2 1.8.2l1.7.1c.3 0 .7 0 1 .1.3 0 .6.1.8.2.2.1.5.2.7.4.2.2.3.4.5.8.2.7.2 1.3-.2 1.8s-1.1 1-2.1 1.3c-.2.1-.5.2-.7.2l-.3.1.7 1.9-1 2.1.6-.1c.3-.1.6-.1.9-.2.4-.1.9-.3 1.5-.5 1.1-.4 2.1-.9 2.9-1.5.8-.6 1.4-1.3 1.8-2 .4-.7.7-1.5.8-2.4s0-1.7-.3-2.6c-.3-.8-.6-1.5-1-2-.7-.4-1.1-.8-1.7-1.1z"/><path class="st11" d="m355.4 42.3.1-.2.6-1.3-.7-2-.9.3-.4.1-1.9.6-.4.1-.9.3.7 2 1.3.6.2.1.3.1.1-.1c.4-.3.9-.5 1.5-.5h.2l.2-.1z"/></g><g class="st9"><path class="st20" d="M4.6 260.5h42.5V303H4.6z"/><path class="st11" d="m4.9 275.9 2.3 19.4c.1.8.7 1.5 1.5 1.5h34.1c.8 0 1.3-.6 1.5-1.5l2.3-19.4H4.9zM40.9 270.4H21c-1.6 0-.9-3.6-3-3.6h-7.6c-.7 0-1.3.6-1.3 1.3v6.4h33.2v-2.8c-.1-.7-.7-1.3-1.4-1.3z"/></g><g id="Layer_2_2_"><g id="Layer_1-2_1_"><path class="st21" d="m479.6 286.9-5.5-4.3v-11.2"/><path class="st21" d="M460.2 281.1c-.4 8 5.8 14.9 13.9 15.3 8 .4 14.9-5.8 15.3-13.9s-5.8-14.9-13.9-15.3h-1"/><path d="M474.4 267.2c-6.2 0-11.7 4.1-13.5 10" style="fill:none;stroke:#96d7ff;stroke-linecap:round;stroke-linejoin:round;stroke-dasharray:.1,1.9"/><path class="st21" d="m457.4 283.9 2.8-2.8 3.2 2.8"/></g><path class="st20" d="M456.5 265h33.7v33.7h-33.7z" id="Layer_2-2_1_"/></g><g class="st9"><g id="Layer_2_3_"><path class="st11" d="M55.2 353.5c-.4-.3-1-.2-1.2.2 0 .1-.1.1-.1.2-.1.2-.1.4-.1.6 0 .6.2 1.1.5 1.5.5.6.8 1.4.7 2.2-.1.7-.4 1.4-.9 1.9l-1.3 1.4c-.5.5-1.2.9-2 .9-.9.1-1.8-.3-2.4-1-1.1-1.2-1-3 .2-4.2l.5-.5c.1-.1.1-.2.1-.4-.2-.7-.3-1.3-.3-2 0-.2-.2-.4-.4-.4-.1 0-.2 0-.2.1l-1.4 1.4c-2.1 2.1-2.3 5.7-.1 7.8 1.1 1.1 2.6 1.7 4.1 1.6 1.4-.1 2.8-.7 3.8-1.7l1.3-1.3c1-1 1.6-2.2 1.7-3.6.1-1.6-.5-3.1-1.6-4.2-.5-.2-.7-.3-.9-.5z"/><path class="st11" d="M56.9 347.5c-1.4 0-2.8.6-3.9 1.6l-1.5 1.5c-1 1-1.6 2.3-1.6 3.8 0 .6.1 1.1.2 1.6v.1c.4 1.4 1.4 2.6 2.8 3.3.3-.3.6-.8.7-1.2.1-.5-.1-.9-.4-1.3-.5-.7-.8-1.5-.8-2.4 0-.8.3-1.6.9-2.1l1.5-1.5c1.2-1.2 3.1-1.2 4.2 0 1.2 1.2 1.2 3.1 0 4.2l-.7.7c.3.8.4 1.7.3 2.5 0 .2 0 .4-.1.6.3-.2.5-.4.7-.6l1.5-1.5c2.1-2.1 2.1-5.6 0-7.7-.9-1.1-2.3-1.6-3.8-1.6z"/></g></g><g class="st9"><path class="st11" d="M456.5 89.3c.3.8.7 1.5 1.3 2 .3.3.7.5 1 .7.3.1.5.2.8.2.3 0 .5-.1.8-.2.4-.2.7-.4 1.1-.7.5-.5 1-1.3 1.2-2 .2-.1.4-.5.5-1 .1-.5 0-1-.2-1.1v-.4c0-2-1.2-3.1-3-3.3-1.6-.1-2.8.5-3.4 1.6-.2.4-.3.8-.3 1.3-.1.3-.1.5-.1.8-.2 0-.3.5-.2 1.1 0 .6.3 1 .5 1zm0-1.5c0-.1.1-.1.1-.1h.1c0-.1.1-1 .9-1.3h.5s1.1.4 2.1 0h.3c.4 0 .7.2 1 .4 0-.1-.1-.3-.1-.4 0 0 .1 0 .1.1.2.2.4.6.6 1.2h.2c.1.1.2.4.1.7-.1.3-.2.5-.3.6h-.2c-.3.8-.7 1.6-1.3 2.1-.2.1-.4.3-.6.3l-.2.1h-.4c-.4 0-.8-.2-1.2-.4-.6-.5-1.1-1.3-1.4-2.1h-.1c-.1 0-.1 0-.2-.1s-.2-.3-.3-.6v-.1c.3 0 .3-.2.3-.4zM441.3 100.1v-.3c0-1.5-.9-2.4-2.3-2.5-1.2-.1-2.2.4-2.6 1.2-.1.3-.2.6-.3 1 0 .2-.1.4-.1.6-.2 0-.3.4-.2.9.1.4.3.7.4.8.2.6.6 1.2 1 1.6.2.2.5.4.8.5.2.1.4.1.6.1.2 0 .4 0 .6-.1.3-.1.6-.3.8-.6.4-.4.8-1 1-1.6.2 0 .3-.4.4-.7.1-.5 0-.8-.1-.9zm-.3.9c0 .2-.1.4-.2.5h-.2c-.2.6-.6 1.2-1 1.6-.1.1-.3.2-.4.3l-.2.1H438.7c-.3 0-.6-.1-.9-.3-.5-.4-.9-1-1.1-1.6h-.1s-.1 0-.1-.1c-.1-.1-.2-.3-.2-.5v-.4c0-.1 0-.1.1-.1h.1c0-.1.1-.8.7-1h.4s.9.3 1.6 0h.2c.3 0 .5.2.8.3 0-.1-.1-.2-.1-.3h.1c.2.2.3.5.5 1h.1c.2 0 .2.2.2.5zM457.2 110.5c-.1.3-.2.6-.3 1 0 .2-.1.4-.1.6-.2 0-.3.4-.2.9.1.4.3.7.4.8.2.6.6 1.2 1 1.6.2.2.5.4.8.5.2.1.4.1.6.1.2 0 .4 0 .6-.1.3-.1.6-.3.8-.6.4-.4.8-1 1-1.6.2 0 .3-.4.4-.7.1-.4 0-.8-.2-.9v-.3c0-1.5-.9-2.4-2.3-2.5-1.1-.1-2 .4-2.5 1.2zm.9 1h.4s.9.3 1.6 0h.2c.3 0 .5.2.8.3 0-.1-.1-.2-.1-.3h.1c.2.2.3.5.5 1h.1c.1 0 .2.3.1.6 0 .2-.1.4-.2.5h-.2c-.2.6-.6 1.2-1 1.6-.1.1-.3.2-.4.3l-.2.1H459.5c-.3 0-.6-.1-.9-.3-.5-.4-.9-1-1.1-1.6h-.1s-.1 0-.1-.1c-.1-.1-.2-.3-.2-.5v-.4c0-.1 0-.1.1-.1h.1c.1-.2.2-.9.8-1.1zM483.2 100.1v-.3c0-1.5-.9-2.4-2.3-2.5-1.2-.1-2.2.4-2.6 1.2-.1.3-.2.6-.3 1 0 .2-.1.4-.1.6-.2 0-.3.4-.2.9.1.4.3.7.4.8.2.6.6 1.2 1 1.6.2.2.5.4.8.5.2.1.4.1.6.1.2 0 .4 0 .6-.1.3-.1.6-.3.8-.6.4-.4.8-1 1-1.6.2 0 .3-.4.4-.7.1-.5.1-.8-.1-.9zm-.3.9c0 .2-.1.4-.2.5h-.2c-.2.6-.6 1.2-1 1.6-.1.1-.3.2-.4.3l-.2.1H480.6c-.3 0-.6-.1-.9-.3-.5-.4-.9-1-1.1-1.6h-.1s-.1 0-.1-.1c-.1-.1-.2-.3-.2-.5v-.4c0-.1 0-.1.1-.1h.1c0-.1.1-.8.7-1h.4s.9.3 1.6 0h.2c.3 0 .5.2.8.3 0-.1-.1-.2-.1-.3h.1c.2.2.3.5.5 1h.1c.2 0 .3.2.2.5z"/><path class="st11" d="M480.6 95.7c-2.2 0-4.2 1.1-5.5 2.7l-7.3-4c.5-1.2.8-2.4.8-3.8s-.3-2.7-.8-3.8c-.2-.4-.4-.7-.6-1.1-.3-.5-.6-.9-1-1.3l-.1-.1-.2-.2c-.1-.1-.3-.2-.4-.4-.1-.1-.2-.2-.4-.3l-.2-.2-.2-.2c-.1-.1-.2-.2-.4-.2 0 0-.1 0-.1-.1-.2-.1-.3-.2-.5-.3h-.1c-.1 0-.2-.1-.3-.1 0 0-.1 0-.1-.1-.1 0-.2-.1-.3-.1h-.1c-.2-.1-.3-.1-.5-.2-.1 0-.1 0-.2-.1-.1 0-.1 0-.2-.1-.1 0-.2 0-.3-.1h-.2c-.1 0-.2 0-.3-.1h-.2c-.2 0-.3 0-.5-.1h-1.8c-.2 0-.3 0-.5.1h-.2c-.1 0-.2 0-.3.1h-.2c-.1 0-.2 0-.3.1-.1 0-.1 0-.2.1-.1 0-.1 0-.2.1-.2.1-.4.1-.5.2h-.1c-.1 0-.2.1-.3.1h-.1c-.1 0-.2.1-.3.1h-.1c-.2.1-.3.2-.5.3 0 0-.1 0-.1.1-.1.1-.2.2-.4.2-.1 0-.1.1-.2.2l-.2.2c-.1.1-.3.2-.4.3-.1.1-.3.2-.4.4l-.2.2-.1.1c-.4.4-.7.8-1 1.3-.2.3-.4.7-.6 1.1-.5 1.2-.8 2.4-.8 3.8s.3 2.7.8 3.8l-7.2 4c-1.3-1.6-3.3-2.7-5.5-2.7-3.9 0-7 3.1-7 7 0 3.8 3.1 7 6.9 7 0 .1 0 .1 0 0h.1c3.9 0 7-3.1 7-7 0-1.2-.3-2.3-.8-3.3l7.2-3.9c1.5 2.3 4.1 3.9 7 4.1v8.1c-3.6.3-6.5 3.3-6.5 7 0 3.8 3.1 7 6.9 7 0 .1 0 .1 0 0h.1c3.9 0 7-3.1 7-7 0-3.6-2.8-6.6-6.3-7v-8.1c2.9-.2 5.5-1.8 7-4.1l7.2 3.9c-.5 1-.8 2.1-.8 3.3 0 3.8 3.1 7 6.9 7 0 .1 0 .1 0 0h.1c3.9 0 7-3.1 7-7 .1-3.7-3.1-6.9-6.9-6.9zm-36.8 10.4c-.2-.7-.5-1.2-.8-1.5-.5-.6-1-.6-1.1-.6-.5-.1-1-.1-1.3-.2 0 .3-.9 1.3-1.4 1.9l-.2-.9c.2-.1.2-.3.2-.5h-.9c0 .2 0 .4.2.5l-.2.9c-.6-.6-1.4-1.6-1.4-1.9-.3.1-.9 0-1.3.2-.2 0-.7.1-1.2.7-.3.3-.5.7-.7 1.4-.6-1-1-2.1-1-3.4 0-3.4 2.8-6.2 6.2-6.2 3.4 0 6.2 2.8 6.2 6.2-.3 1.3-.6 2.5-1.3 3.4zm15.8-23.4c4.4 0 7.9 3.6 7.9 7.9 0 1.6-.5 3.1-1.3 4.4-.3-.9-.6-1.5-1-1.9-.6-.7-1.3-.8-1.5-.8-.6-.1-1.3-.1-1.7-.2 0 .4-1.1 1.6-1.9 2.4l-.3-1.2c.2-.1.3-.4.3-.7H459c0 .3.1.6.3.7l-.3 1.2c-.7-.8-1.8-2-1.9-2.4-.4.1-1.1.1-1.7.2-.2 0-.9.1-1.5.9-.3.4-.7 1-.9 1.8-.8-1.3-1.3-2.8-1.3-4.4 0-4.4 3.5-7.9 7.9-7.9zm6.1 32.1c0 1.3-.4 2.4-1 3.4-.2-.7-.5-1.2-.8-1.5-.5-.6-1-.6-1.1-.6-.5-.1-1-.1-1.3-.2 0 .3-.9 1.3-1.4 1.9l-.2-.9c.2-.1.2-.3.2-.5h-.9c0 .2 0 .4.2.5l-.2.9c-.6-.6-1.4-1.6-1.4-1.9-.3.1-.9 0-1.3.2-.2 0-.7.1-1.2.7-.3.3-.5.7-.7 1.4-.6-1-1-2.1-1-3.4 0-3.4 2.8-6.2 6.2-6.2 3.2 0 5.9 2.8 5.9 6.2zm19.3-10.1c-.5-.6-1-.6-1.1-.6-.5-.1-1-.1-1.3-.2 0 .3-.9 1.3-1.4 1.9l-.2-.9c.2-.1.2-.3.2-.5h-.9c0 .2 0 .4.2.5l-.2.9c-.6-.6-1.4-1.6-1.4-1.9-.3.1-.9 0-1.3.2-.2 0-.7.1-1.2.7-.3.3-.5.7-.7 1.4-.6-1-1-2.1-1-3.4 0-3.4 2.8-6.2 6.2-6.2 3.4 0 6.2 2.8 6.2 6.2 0 1.3-.4 2.4-1 3.4-.6-.8-.8-1.2-1.1-1.5z"/></g><path class="st11" d="M24.9 318.1c1 3.3 3.6 6 6.9 6.9 3.5 1.1 3.5 2.3 0 3.5-3.3 1-6 3.6-6.9 6.9-1.1 3.5-2.3 3.5-3.5 0-1-3.3-3.6-6-6.9-6.9-3.5-1.1-3.5-2.3 0-3.5 3.3-1 6-3.6 6.9-6.9 1.3-3.4 2.4-3.4 3.5 0z"/><path class="st16" d="M415.4 50.1c2 6.6 7.1 11.7 13.7 13.7 6.9 2.3 6.9 4.5 0 6.9-6.6 2-11.7 7.1-13.7 13.7-2.3 6.9-4.5 6.9-6.9 0-2-6.6-7.1-11.7-13.7-13.7-6.9-2.3-6.9-4.5 0-6.9 6.6-2 11.7-7.1 13.7-13.7 2.3-6.9 4.6-6.9 6.9 0z"/><path class="st23" d="M478.8 346.2c-.4-14.2-12.5-26-26.7-26.1h-18.7c-5.6 0-7.8 1.7-9.3 7-2.8 10.4-5.5 20.8-8.3 31.2-3 11.1-5.9 22.2-8.9 33.3-.6 2.2-.1 2.7 2 2.6 2.5-.1 5.1 0 7.6 0 7.3 0 9-1.3 10.8-8.3 4-15 8.1-29.9 12-44.9.5-2 1.3-2.8 3.4-2.6 2.5.2 5.1 0 7.6.1 5.5.1 9.8 4.2 9.9 9.5.1 5.3-4 9.7-9.4 10-2 .1-4 0-6 .1-3.6.2-6.2 2.1-7.3 5.6-1.1 3.5-1.9 7.1-2.9 10.7-.4 1.4-.1 1.9 1.4 1.9h9.2v-.1c2.7 0 5.5.1 8.2 0 14.6-1.2 25.9-14.4 25.4-30zM415.2 338.3c-7.9.1-15.9-.8-23.8.4-13.2 1.4-23.5 13.2-23.5 27.6 0 15.3 11.7 27.8 26.1 27.8 1.8.1 3.7.2 5.7.1 1.2 0 2.2 0 2.6-1.6 1-4 2.2-7.9 3.2-11.9.6-2.6-.7-4.3-3.4-4.5-1.9-.1-3.8 0-5.7-.1-5.9-.3-10-4.4-10-9.7.1-5.5 4.4-9.6 10.3-9.8 3.1-.1 6.1 0 9.2 0 3.9-.1 6.4-2 7.5-5.6 1.1-3.5 1.9-7.1 2.9-10.7.3-1.2.4-2-1.1-2z"/><path class="st10" d="M488.9 341.4c-.5-16.5-14.5-30.3-31-30.4-7.2-.1-14.5 0-21.7 0-6.6 0-9.1 1.9-10.8 8.2-3.2 12.1-6.5 24.2-9.7 36.3-3.4 12.9-6.8 25.9-10.4 38.7-.7 2.6-.1 3.2 2.4 3 2.9-.2 5.9 0 8.8 0 8.5 0 10.4-1.5 12.6-9.7 4.7-17.4 9.4-34.8 14-52.3.6-2.3 1.5-3.3 4-3.1 2.9.2 5.9 0 8.8.1 6.4.1 11.4 4.9 11.5 11 .1 6.1-4.6 11.3-10.9 11.6-2.3.1-4.7 0-7 .1-4.2.2-7.2 2.4-8.4 6.5-1.2 4.1-2.2 8.3-3.4 12.4-.5 1.7-.1 2.2 1.6 2.2 3.6-.1 7.1 0 10.7 0v-.1c3.2 0 6.4.2 9.6 0 16.8-1 29.9-16.4 29.3-34.5zM415 332.2c-9.2.2-18.5-1-27.6.4-15.3 1.6-27.3 15.4-27.3 32.2 0 17.8 13.6 32.3 30.3 32.3 2.1.1 4.3.2 6.6.1 1.4 0 2.5 0 3-1.9 1.1-4.7 2.6-9.2 3.7-13.9.7-3.1-.8-5-3.9-5.2-2.2-.2-4.4 0-6.6-.1-6.9-.4-11.7-5.1-11.6-11.3.1-6.4 5.1-11.2 12-11.4 3.6-.1 7.1 0 10.7 0 4.5-.1 7.5-2.3 8.8-6.5 1.2-4.1 2.2-8.3 3.3-12.5.2-1.3.3-2.2-1.4-2.2z"/></svg>