<?xml version="1.0" encoding="utf-8"?>
<!-- Generator: Adobe Illustrator 25.3.1, SVG Export Plug-In . SVG Version: 6.00 Build 0)  -->
<svg version="1.1" id="Layer_1" xmlns="http://www.w3.org/2000/svg" xmlns:xlink="http://www.w3.org/1999/xlink" x="0px" y="0px"
	 viewBox="0 0 150 150" enable-background="new 0 0 150 150" xml:space="preserve">
<g>
	<path opacity="0.14" fill="#79A1E8" d="M47,137.5c-16.7-6.4-31.2-18.4-39.4-34.2c-9.1-17.4-9.9-39.1-2-57.1
		C10,36,16.5,25.1,25.4,18.1c5.3-4.1,12.4-6.6,18.9-4.9c6.3,1.7,11.1,6.9,14.3,12.7S63.5,38,66.1,44c4.3,9.7,11.3,18.8,21.1,22.8
		c13.7,5.7,29.2,0.5,44.1-0.8c2.9-0.2,6-0.3,8.8,0.7c7.5,2.7,10.3,12,9.8,20c-1.2,18.9-15.1,35.2-31.6,44.5
		C97,143.2,69.9,146.3,47,137.5z"/>
	<g>
		<path fill="#FECDB8" d="M79.8,118c-9.9,0-19.7,0.1-29.6,0c-1.9,0-3.3,0.5-4.6,1.9c-2.9,3-5.9,6-8.9,8.9c-2.5,2.4-4.3,2.5-6.7,0
			c-6.6-6.6-13.2-13.2-19.8-19.8c-2.4-2.4-2.4-4.2,0.1-6.7c8.3-8.4,16.7-16.7,25-25c2-2,3.8-4.2,6.1-5.9c6.3-3.1,13-3.6,19.9-3.4
			c6.2,0.2,12.4-0.1,18.6-0.1c0,0.1,0,0.2,0,0.3c0,7-0.1,14-0.1,20.9l0.1,0.2c-8.4,0-16.7-0.1-25.1-0.1c-2.4,0-4.1,1.6-4.2,3.8
			c-0.1,2.1,1.6,4,4,4c8.4,0.1,16.9-0.1,25.3-0.1l-0.1,0.2C79.8,104,79.8,111,79.8,118z"/>
		<path fill="#FDA7A4" d="M79.8,118c0-7,0-14,0-20.9c2.1,0,4.2-0.2,6.3-0.1c2.7,0.2,4.6-0.8,6.4-2.7c7.4-7.6,15-15.1,22.5-22.6
			c0.7-0.7,1.6-1.1,1.6-2.3c2.1-0.9,3.3-2.8,4.9-4.3c5.6-5.3,13-5.7,19.1-1.1c2.6,2,3,4.6,0.6,6.9c-15.2,15.2-30.4,30.4-45.6,45.6
			c-1,1.1-2.3,1.5-3.8,1.5C87.8,118,83.8,118,79.8,118z"/>
		<path fill="#F9A6A3" d="M79.8,68.2c6-0.1,10.7,4.5,10.8,10.4c0,5.9-4.7,10.6-10.9,10.6C79.8,82.1,79.8,75.1,79.8,68.2z"/>
	</g>
	<g>
		<rect x="67.5" y="25.1" fill="#1C6CAF" width="48.6" height="14.1"/>
		<path fill="#FFE177" d="M120.3,28.7H63.4c-2.8,0-5-2.2-5-5V12.4c0-2.8,2.2-5,5-5h56.9c2.8,0,5,2.2,5,5v11.3
			C125.3,26.5,123,28.7,120.3,28.7z"/>
		<path fill="#FE646F" d="M120.3,57.3H63.4c-2.8,0-5-2.2-5-5V41.1c0-2.8,2.2-5,5-5h56.9c2.8,0,5,2.2,5,5v11.3
			C125.3,55.1,123,57.3,120.3,57.3z"/>
		<circle fill="#FFE177" cx="66.8" cy="46.6" r="2.2"/>
		<g>
			<circle fill="#FE646F" cx="66.8" cy="18.1" r="2.2"/>
			<path fill="#FE646F" d="M99.8,19.6H74.7c-0.9,0-1.6-0.7-1.6-1.6v0c0-0.9,0.7-1.6,1.6-1.6h25.1c0.9,0,1.6,0.7,1.6,1.6v0
				C101.4,18.9,100.7,19.6,99.8,19.6z"/>
		</g>
		<path fill="#FFE177" d="M116.2,48.1H91.1c-0.9,0-1.6-0.7-1.6-1.6v0c0-0.9,0.7-1.6,1.6-1.6h25.1c0.9,0,1.6,0.7,1.6,1.6v0
			C117.8,47.4,117.1,48.1,116.2,48.1z"/>
		<path fill="#FFE177" d="M83.9,48.1h-9.2c-0.9,0-1.6-0.7-1.6-1.6v0c0-0.9,0.7-1.6,1.6-1.6h9.2c0.9,0,1.6,0.7,1.6,1.6v0
			C85.4,47.4,84.7,48.1,83.9,48.1z"/>
	</g>
</g>
<g>
</g>
<g>
</g>
<g>
</g>
<g>
</g>
<g>
</g>
<g>
</g>
<g>
</g>
<g>
</g>
<g>
</g>
<g>
</g>
<g>
</g>
<g>
</g>
<g>
</g>
<g>
</g>
<g>
</g>
</svg>
