<svg version="1.1" id="Layer_1" xmlns="http://www.w3.org/2000/svg" x="0" y="0" viewBox="0 0 200 200" style="enable-background:new 0 0 200 200" xml:space="preserve"><style>.st0{display:none}.st1{display:inline}.st2{fill:#5c6a86}.st3{fill:#e2e3e5}.st4{fill:#fff;stroke:#303c64;stroke-width:1.5;stroke-miterlimit:10}.st5{fill:#0f4d92}.st6{fill:#1f8ac0}.st7{fill:#fc929c}.st8{stroke-linejoin:round}.st8,.st9{fill:none;stroke:#303c64;stroke-width:1.5;stroke-linecap:round;stroke-miterlimit:10}.st10{fill:#fff}.st11{fill:#96d7ff}.st16{fill:#1f8ac0;stroke:#4a86b1;stroke-width:.1671;stroke-linejoin:round}.st19{fill:#3a312a}.st20{fill:#1a60a0}.st21{fill:#303c64}.st24{fill:#99d3ff}.st26{fill:#4da6c1}.st27{fill:#fff;stroke:#313131;stroke-width:2;stroke-linecap:round;stroke-linejoin:round;stroke-miterlimit:10}.st28{fill:#323232}.st29{fill:#e38992}.st30{fill:#ffd98c}.st31{fill:#8fce95}.st32{fill:none;stroke:#313131;stroke-width:2;stroke-linecap:round;stroke-linejoin:round;stroke-miterlimit:10}.st34{fill:#eb99e3}.st35,.st37{fill:none;stroke-linecap:round;stroke-miterlimit:10}.st35{stroke:#96d7ff;stroke-width:3;stroke-linejoin:round}.st37{stroke:#313131;stroke-width:2}.st41{fill:#e9edf1}.st45{fill:#0a94e3}.st46{fill:#c2e4f8}.st49{fill:#bdc2c5}</style><g id="Layer_1_3_"><path class="st2" d="M24.6 104.7h11.8c.3 0 .7-.3.7-.7 0-.3-.3-.7-.7-.7H24.6c-.3 0-.7.3-.7.7.1.4.4.7.7.7zM18.4 104.7H21c.3 0 .7-.3.7-.7 0-.3-.3-.7-.7-.7h-2.6c-.3 0-.7.3-.7.7s0 .7.7.7zM20.4 107.7h3.3c.3 0 .7-.3.7-.7 0-.3-.3-.7-.7-.7h-3.3c-.3 0-.7.3-.7.7s.3.7.7.7zM26.6 107.7h3.9c.3 0 .7-.3.7-.7 0-.3-.3-.7-.7-.7h-3.9c-.3 0-.7.3-.7.7s.4.7.7.7zM164.3 78h10.2c.3 0 .7-.3.7-.7s-.3-.7-.7-.7h-10.2c-.3 0-.7.3-.7.7s0 .7.7.7zM157.7 78h2.6c.3 0 .7-.3.7-.7s-.3-.7-.7-.7h-2.6c-.3 0-.7.3-.7.7s.4.7.7.7zM160 81.3h3.3c.3 0 .7-.3.7-.7s-.3-.7-.7-.7H160c-.3 0-.7.3-.7.7s.4.7.7.7zM166.3 81.3h2.3c.3 0 .7-.3.7-.7s-.3-.7-.7-.7h-2.3c-.3 0-.7.3-.7.7s0 .7.7.7z"/></g><path class="st8" d="M9.5 169h23M167.4 169h23M40.2 169h121.2"/><circle class="st4" cx="14.5" cy="82.9" r="4.1"/><circle class="st4" cx="131.4" cy="27" r="4.1"/><path class="st9" d="m59.7 14.9-2.5 2.5M51.7 22.9 49 25.5M59.7 25.5l-2.5-2.6M51.7 17.4 49 14.9M190.6 57l-2.7 2.4M182.4 65l-2.5 2.6M190.6 67.6l-2.7-2.6M182.4 59.4l-2.5-2.4"/><path class="st5" d="M35.2 60.8h-2.1c-1.1 0-2.1-.9-2.1-2.1 0-1.1.9-2.1 2.1-2.1h2.1c1.1 0 2.1.9 2.1 2.1 0 1.1-1 2.1-2.1 2.1zM35.2 75.4h-2.1c-1.1 0-2.1-.9-2.1-2.1 0-1.2.9-2.1 2.1-2.1h2.1c1.1 0 2.1.9 2.1 2.1 0 1.2-1 2.1-2.1 2.1zM43.7 75.4h-2.1c-1.1 0-2.1-.9-2.1-2.1 0-1.2.9-2.1 2.1-2.1h2.1c1.1 0 2.1.9 2.1 2.1 0 1.2-1 2.1-2.1 2.1zM52 75.4h-2.1c-1.1 0-2.1-.9-2.1-2.1 0-1.2.9-2.1 2.1-2.1H52c1.1 0 2.1.9 2.1 2.1 0 1.2-.9 2.1-2.1 2.1zM52 60.8H41.4c-1.1 0-2.1-.9-2.1-2.1 0-1.1.9-2.1 2.1-2.1H52c1.1 0 2.1.9 2.1 2.1 0 1.1-.9 2.1-2.1 2.1zM43.7 67H33.1c-1.1 0-2.1-.9-2.1-2.1 0-1.2.9-2.1 2.1-2.1h10.6c1.1 0 2.1.9 2.1 2.1 0 1.2-1 2.1-2.1 2.1z"/><path class="st7" d="M162.7 149.1c-.9 0-1.7-.8-1.7-1.7 0-.1 0-.2.1-.3 0-.1.1-.3.1-.3.1-.1.1-.2.1-.3.1-.1.1-.2.3-.3.4-.4 1-.6 1.6-.4.1 0 .3.1.3.1.1.1.2.1.3.1.1.1.2.1.3.2.1.1.1.2.2.3s.1.2.2.3c.1.1.1.2.1.3s.1.2.1.3c0 .4-.2.9-.5 1.2-.1.1-.2.1-.3.2-.1.1-.2.1-.3.1-.1.1-.2.1-.3.1-.3.1-.5.1-.6.1zM164.5 142.2h-3.4c-.9 0-1.7-.8-1.7-1.7s.8-1.7 1.7-1.7h3.4c.9 0 1.7.8 1.7 1.7s-.8 1.7-1.7 1.7zM169.7 135.2h-17.3c-.9 0-1.7-.8-1.7-1.7s.8-1.7 1.7-1.7h17.3c.9 0 1.7.8 1.7 1.7 0 1-.8 1.7-1.7 1.7zM154.2 142.2h-7c-.9 0-1.7-.8-1.7-1.7s.8-1.7 1.7-1.7h6.9c.9 0 1.7.8 1.7 1.7.1.9-.7 1.7-1.6 1.7zM155.9 149.1h-13.8c-.9 0-1.7-.8-1.7-1.7s.8-1.7 1.7-1.7h13.8c.9 0 1.7.8 1.7 1.7s-.8 1.7-1.7 1.7z"/><path class="st49" d="M57.8 161.1c-5.7 0-10.4-1.6-13.9-4.9l1.9-1.9c12.3 12.3 47.2-3 77.7-33.8 30.8-30.8 46.1-65.7 33.8-77.7l1.9-1.9c13.4 13.4-1.4 49.3-33.8 81.8-24.2 23.9-50.4 38.4-67.6 38.4z"/><path class="st49" d="M145.6 161.1c-17.2 0-43.6-14.5-67.9-38.7-15.3-15.3-27.3-32.2-33.8-47.2-6.5-15.5-6.5-27.8 0-34.4l1.9 1.9c-5.7 5.7-5.5 16.9.5 31.4 6.3 15 18 31.4 33 46.3 30.8 30.8 65.7 45.8 77.7 33.8l1.9 1.9c-2.9 3.3-7.5 5-13.3 5z"/><path d="M136.9 76.3H66c-.8 0-1.4.5-1.4 1.2v69.9c0 1.9 1.9 3.6 4.1 3.6h65.2c2.2 0 4.1-1.7 4.1-3.6V77.5c.3-.7-.3-1.2-1.1-1.2z" style="fill:#555"/><path class="st5" d="M147.5 54.2H55.7c-2.7 0-5.2 2.2-5.2 5.2V76c0 2.7 2.2 5.2 5.2 5.2h91.9c2.7 0 5.2-2.2 5.2-5.2V59.4c-.1-2.7-2.5-5.2-5.3-5.2z"/><path class="st10" d="M60.8 60.7c-.8 0-1.4.5-1.4 1.4v11.2c0 .8.5 1.4 1.4 1.4s1.4-.5 1.4-1.4V62.1c0-.8-.8-1.4-1.4-1.4zM70.7 60.7c-.8 0-1.4.5-1.4 1.4v11.2c0 .8.5 1.4 1.4 1.4s1.4-.5 1.4-1.4V62.1c-.1-.8-.6-1.4-1.4-1.4zM80.7 60.7c-.8 0-1.4.5-1.4 1.4v11.2c0 .8.5 1.4 1.4 1.4s1.4-.5 1.4-1.4V62.1c0-.8-.5-1.4-1.4-1.4zM102 66.5H90.8c-.8 0-1.4.5-1.4 1.4s.5 1.4 1.4 1.4H102c.8 0 1.4-.5 1.4-1.4s-.6-1.4-1.4-1.4zM116.7 60.7c-3.8 0-6.8 3-6.8 6.8s3 6.8 6.8 6.8 6.8-3 6.8-6.8c.1-3.5-2.9-6.8-6.8-6.8zM136.9 60.7c-3.8 0-6.8 3-6.8 6.8s3 6.8 6.8 6.8 6.8-3 6.8-6.8c.3-3.5-3-6.8-6.8-6.8z"/><path class="st6" d="M147.5 89.1H55.7c-2.7 0-5.2 2.2-5.2 5.2v16.6c0 2.7 2.2 5.2 5.2 5.2h91.9c2.7 0 5.2-2.2 5.2-5.2V94.3c-.1-2.7-2.5-5.2-5.3-5.2z"/><path class="st10" d="M60.8 95.6c-.8 0-1.4.5-1.4 1.4v11.2c0 .8.5 1.4 1.4 1.4s1.4-.5 1.4-1.4V97c0-.8-.8-1.4-1.4-1.4zM70.7 95.6c-.8 0-1.4.5-1.4 1.4v11.2c0 .8.5 1.4 1.4 1.4s1.4-.5 1.4-1.4V97c-.1-.8-.6-1.4-1.4-1.4zM80.7 95.6c-.8 0-1.4.5-1.4 1.4v11.2c0 .8.5 1.4 1.4 1.4s1.4-.5 1.4-1.4V97c0-.8-.5-1.4-1.4-1.4zM102 101.1H90.8c-.8 0-1.4.5-1.4 1.4s.5 1.4 1.4 1.4H102c.8 0 1.4-.5 1.4-1.4 0-.6-.6-1.4-1.4-1.4zM116.7 95.6c-3.8 0-6.8 3-6.8 6.8s3 6.8 6.8 6.8 6.8-3 6.8-6.8c.1-3.8-2.9-6.8-6.8-6.8zM136.9 95.6c-3.8 0-6.8 3-6.8 6.8s3 6.8 6.8 6.8 6.8-3 6.8-6.8c.3-3.8-3-6.8-6.8-6.8z"/><path class="st7" d="M147.5 124H55.7c-2.7 0-5.2 2.2-5.2 5.2v16.6c0 2.7 2.2 5.2 5.2 5.2h91.9c2.7 0 5.2-2.2 5.2-5.2v-16.6c-.1-3-2.5-5.2-5.3-5.2z"/><path class="st10" d="M60.8 130.5c-.8 0-1.4.5-1.4 1.4v11.2c0 .8.5 1.4 1.4 1.4s1.4-.5 1.4-1.4v-11.2c0-.8-.8-1.4-1.4-1.4zM70.7 130.5c-.8 0-1.4.5-1.4 1.4v11.2c0 .8.5 1.4 1.4 1.4s1.4-.5 1.4-1.4v-11.2c-.1-.8-.6-1.4-1.4-1.4zM80.7 130.5c-.8 0-1.4.5-1.4 1.4v11.2c0 .8.5 1.4 1.4 1.4s1.4-.5 1.4-1.4v-11.2c0-.8-.5-1.4-1.4-1.4zM102 136H90.8c-.8 0-1.4.5-1.4 1.4 0 .8.5 1.4 1.4 1.4H102c.8 0 1.4-.5 1.4-1.4 0-.9-.6-1.4-1.4-1.4zM116.7 130.5c-3.8 0-6.8 3-6.8 6.8s3 6.8 6.8 6.8 6.8-3 6.8-6.8c.1-3.8-2.9-6.8-6.8-6.8zM136.9 130.5c-3.8 0-6.8 3-6.8 6.8s3 6.8 6.8 6.8 6.8-3 6.8-6.8c.3-3.8-3-6.8-6.8-6.8z"/><path class="st49" d="M43.9 156.2c-6.5-6.5-6.5-18.8 0-34.4 6.5-15.3 18.5-31.9 33.8-47.2s32.2-27.3 47.2-33.8c15.5-6.5 27.8-6.5 34.4 0l-1.9 1.9c-12.3-12.3-47.2 3-77.7 33.8-15 15-26.7 31.6-33 46.3-6.3 14.5-6.3 25.6-.5 31.4l-2.3 2z"/><path class="st49" d="m159 156.2-1.9-1.9c12.3-12.3-2.7-47.2-33.5-77.7C93 45.8 58.1 30.5 45.8 42.8l-1.9-1.9c13.4-13.4 49.3 1.4 81.5 33.8 32.5 32.1 47.2 68.1 33.6 81.5z"/><path class="st6" d="M158.5 33.2c-4.4 0-7.9 3.5-7.9 7.9s3.5 7.9 7.9 7.9 7.9-3.5 7.9-7.9-3.6-7.9-7.9-7.9z"/><path class="st7" d="M48.9 73.3c-4.4 0-7.9 3.5-7.9 7.9s3.5 7.9 7.9 7.9 7.9-3.5 7.9-7.9c.2-4.4-3.3-7.9-7.9-7.9z"/></svg>