<svg version="1.1" id="Layer_1" xmlns="http://www.w3.org/2000/svg" x="0" y="0" viewBox="0 0 200 200" style="enable-background:new 0 0 200 200" xml:space="preserve"><style>.st0{display:none}.st2{fill:#fff}.st4,.st5{display:inline;fill:#8ee891}.st5{fill:#5ad1cf}.st6,.st7,.st8{display:inline;fill:#ff8282}.st7,.st8{fill:#ffd07d}.st8{fill:#fff06e}.st10{fill:#626f8c}.st10,.st12{display:inline}.st13{fill:#fff;stroke:#fff;stroke-width:35;stroke-linejoin:round;stroke-miterlimit:10}.st14,.st15{fill:#0f4d92}.st15{opacity:.1}.st16{fill:#1f4254}.st22{fill:#1f8ac0}</style><path d="M106.8 100.3H83.1c-1.2 0-2.1.9-2.1 2.1v4c0 1.2.9 2.1 2.1 2.1h23.7c.9 0 1.6.7 1.6 1.6v2.5c0 .9 1.1 1.3 1.7.6l7-7.7c.4-.5.4-1.2 0-1.7l-7.4-8.2c-.5-.5-1.3-.2-1.3.5v2.5c0 1-.7 1.7-1.6 1.7z" style="fill:#96d7ff"/><path class="st22" d="M21.4 83.8v14.5c0 3.8 10.7 9.6 27.4 9.6s27.4-5.8 27.4-9.6V83.8c-6.3 4.1-17 6.3-27.4 6.3S27.7 88 21.4 83.8zm8.3 13.8h-5.5v-5.5h5.5v5.5zM48.2 41.3c-17 0-27.4 5.5-27.4 9.6 0 3.8 10.7 9.6 27.4 9.6s27.4-5.8 27.4-9.6-10.4-9.6-27.4-9.6z"/><path class="st22" d="M21.4 107.4V122c0 3.8 10.7 9.6 27.4 9.6s27.4-5.8 27.4-9.6v-14.5c-6.3 4.1-17 6.3-27.4 6.3s-21.1-2.2-27.4-6.4zm8.3 14.9h-5.5v-5.5h5.5v5.5z"/><path class="st22" d="M21.4 131v14.5c0 3.8 10.7 9.6 27.4 9.6s27.4-5.8 27.4-9.6V131c-6.3 4.1-17 6.3-27.4 6.3-10.4.3-21.1-2.2-27.4-6.3zm8.3 13.2h-5.5v-5.5h5.5v5.5zM21.4 60v14.5c0 3.8 10.7 9.6 27.4 9.6s27.4-5.8 27.4-9.6V60c-6.3 4.1-17 6.3-27.4 6.3-10.4.3-21.1-1.9-27.4-6.3zm8.3 15.6h-5.5v-5.5h5.5v5.5z"/><path class="st14" d="M150.9 41.3c-17 0-27.4 5.5-27.4 9.6 0 3.8 10.7 9.6 27.4 9.6s27.4-5.8 27.4-9.6-10.4-9.6-27.4-9.6z"/><path class="st14" d="M124.1 60v14.5c0 3.8 10.7 9.6 27.4 9.6s27.4-5.8 27.4-9.6V60c-6.3 4.1-17 6.3-27.4 6.3-10.4.3-21.1-1.9-27.4-6.3zm8.3 15.6h-5.5v-5.5h5.5v5.5zM124.1 107.4V122c0 3.8 10.7 9.6 27.4 9.6s27.4-5.8 27.4-9.6v-14.5c-6.3 4.1-17 6.3-27.4 6.3-10.4-.1-21.1-2.2-27.4-6.4zm8.3 14.9h-5.5v-5.5h5.5v5.5z"/><path class="st14" d="M124.1 131v14.5c0 3.8 10.7 9.6 27.4 9.6s27.4-5.8 27.4-9.6V131c-6.3 4.1-17 6.3-27.4 6.3-10.4.3-21.1-2.2-27.4-6.3zm8.3 13.2h-5.5v-5.5h5.5v5.5zM124.1 83.8v14.5c0 3.8 10.7 9.6 27.4 9.6s27.4-5.8 27.4-9.6V83.8c-6.3 4.1-17 6.3-27.4 6.3-10.4.1-21.1-2.1-27.4-6.3zm8.3 13.8h-5.5v-5.5h5.5v5.5z"/></svg>