<svg version="1.1" id="Layer_1" xmlns="http://www.w3.org/2000/svg" x="0" y="0" viewBox="0 0 200 200" style="enable-background:new 0 0 200 200" xml:space="preserve"><style>.st0{display:none}.st1{display:inline}.st2{fill:#5c6a86}.st3{fill:#e2e3e5}.st4{fill:#fff;stroke:#303c64;stroke-width:1.5;stroke-miterlimit:10}.st5{fill:#0f4d92}.st6{fill:#1f8ac0}.st7{fill:#fc929c}.st8{stroke-linejoin:round}.st8,.st9{fill:none;stroke:#303c64;stroke-width:1.5;stroke-linecap:round;stroke-miterlimit:10}.st10{fill:#fff}.st11{fill:#96d7ff}.st16{fill:#1f8ac0;stroke:#4a86b1;stroke-width:.1671;stroke-linejoin:round}.st19{fill:#3a312a}.st20{fill:#1a60a0}.st21{fill:#303c64}.st24{fill:#99d3ff}.st26{fill:#4da6c1}.st27{fill:#fff;stroke:#313131;stroke-width:2;stroke-linecap:round;stroke-linejoin:round;stroke-miterlimit:10}.st28{fill:#323232}.st29{fill:#e38992}.st30{fill:#ffd98c}.st31{fill:#8fce95}.st32{fill:none;stroke:#313131;stroke-width:2;stroke-linecap:round;stroke-linejoin:round;stroke-miterlimit:10}.st34{fill:#eb99e3}.st35,.st37{fill:none;stroke-linecap:round;stroke-miterlimit:10}.st35{stroke:#96d7ff;stroke-width:3;stroke-linejoin:round}.st37{stroke:#313131;stroke-width:2}.st41{fill:#e9edf1}.st42{fill:#7cbfe0}.st45{fill:#0a94e3}.st46{fill:#c2e4f8}.st49{fill:#bdc2c5}.st53{fill:#35bec4}.st54{fill:#ddd}.st55{fill:#2a302e}.st56{fill:#a6a3ce}.st57{fill:#d5a18c}.st58{fill:#f25357}</style><g id="Layer_1_3_"><path class="st2" d="M24.6 104.7h11.8c.3 0 .7-.3.7-.7 0-.3-.3-.7-.7-.7H24.6c-.3 0-.7.3-.7.7.1.4.4.7.7.7zM18.4 104.7H21c.3 0 .7-.3.7-.7 0-.3-.3-.7-.7-.7h-2.6c-.3 0-.7.3-.7.7s0 .7.7.7zM20.4 107.7h3.3c.3 0 .7-.3.7-.7 0-.3-.3-.7-.7-.7h-3.3c-.3 0-.7.3-.7.7s.3.7.7.7zM26.6 107.7h3.9c.3 0 .7-.3.7-.7 0-.3-.3-.7-.7-.7h-3.9c-.3 0-.7.3-.7.7s.4.7.7.7zM164.3 78h10.2c.3 0 .7-.3.7-.7s-.3-.7-.7-.7h-10.2c-.3 0-.7.3-.7.7s0 .7.7.7zM157.7 78h2.6c.3 0 .7-.3.7-.7s-.3-.7-.7-.7h-2.6c-.3 0-.7.3-.7.7s.4.7.7.7zM160 81.3h3.3c.3 0 .7-.3.7-.7s-.3-.7-.7-.7H160c-.3 0-.7.3-.7.7s.4.7.7.7zM166.3 81.3h2.3c.3 0 .7-.3.7-.7s-.3-.7-.7-.7h-2.3c-.3 0-.7.3-.7.7s0 .7.7.7z"/></g><path class="st8" d="M9.5 169h23M167.4 169h23M40.2 169h121.2"/><circle class="st4" cx="14.5" cy="82.9" r="4.1"/><circle class="st4" cx="131.4" cy="27" r="4.1"/><path class="st9" d="m59.7 14.9-2.5 2.5M51.7 22.9 49 25.5M59.7 25.5l-2.5-2.6M51.7 17.4 49 14.9M190.6 57l-2.7 2.4M182.4 65l-2.5 2.6M190.6 67.6l-2.7-2.6M182.4 59.4l-2.5-2.4"/><g id="Signgle_copy_2_1_"><path class="st41" d="M145.1 150.7H56.5c-7.5 0-13.6-6.1-13.6-13.6V68.3c0-7.5 6.1-13.6 13.6-13.6h88.6c7.5 0 13.6 6.1 13.6 13.6v68.8c0 7.5-6.1 13.6-13.6 13.6z"/><path d="M158.7 76.1v-7.8c0-7.5-6.1-13.6-13.6-13.6H56.5c-7.5 0-13.6 6.1-13.6 13.6v7.8h115.8z"/><circle class="st41" cx="56.1" cy="65.4" r="3"/><circle class="st29" cx="64.8" cy="65.4" r="3"/><circle class="st42" cx="73.4" cy="65.4" r="3"/><path class="st10" d="M140 64.5h6.9V66H140z"/><path class="st10" d="m144.9 69.9-1.2-1 3.1-3.5-3.1-3.6 1.2-1 3.9 4.6zM128.7 70.2H90c-2.7 0-4.8-2.2-4.8-4.8 0-2.7 2.2-4.8 4.8-4.8h38.6c2.7 0 4.8 2.2 4.8 4.8.1 2.6-2.1 4.8-4.7 4.8z"/><path d="m91 67.7-1.1-4.3h.8l.4 2c.1.5.2 1.1.3 1.5l.3-1.5.5-2h.8l.4 2 .3 1.5.3-1.5.5-2h.8l-1.2 4.3h-.9l-.5-2c-.1-.5-.2-.9-.2-1.4-.1.5-.2.9-.3 1.4l-.5 2H91zM96.7 67.7l-1.1-4.3h.8l.4 2c.1.5.2 1.1.3 1.5l.3-1.5.5-2h.8l.4 2 .3 1.5.3-1.5.5-2h.8l-1.2 4.3H99l-.5-2c-.1-.5-.2-.9-.2-1.4-.1.5-.2.9-.3 1.4l-.5 2h-.8zM102.3 67.7l-1.1-4.3h.8l.4 2c.1.5.2 1.1.3 1.5l.3-1.5.5-2h.8l.4 2 .3 1.5.3-1.5.5-2h.8l-1.2 4.3h-.9l-.5-2c-.1-.5-.2-.9-.2-1.4-.1.5-.2.9-.3 1.4l-.5 2h-.7zM106.7 67.3c0-.3.2-.5.5-.5s.5.2.5.5-.2.5-.5.5-.5-.3-.5-.5z"/></g><path class="st29" d="M77.9 94.1H58.5c-1.2 0-2.2-.9-2.2-2.2 0-1.2.9-2.2 2.2-2.2h19.4c1.2 0 2.2.9 2.2 2.2 0 1.3-1 2.2-2.2 2.2z"/><path class="st30" d="M69.8 102.9h-11c-1.2 0-2.2-.9-2.2-2.2 0-1.2.9-2.2 2.2-2.2h11c1.2 0 2.2.9 2.2 2.2-.1 1.3-1.2 2.2-2.2 2.2z"/><path class="st31" d="M85.1 113.2H58.4c-1.2 0-2.2-.9-2.2-2.2 0-1.2.9-2.2 2.2-2.2h26.7c1.2 0 2.2.9 2.2 2.2-.1 1.3-1.1 2.2-2.2 2.2z"/><path class="st11" d="M69.5 122H58.9c-1.2 0-2.2-.9-2.2-2.2 0-1.2.9-2.2 2.2-2.2h10.6c1.2 0 2.2.9 2.2 2.2 0 1.3-1 2.2-2.2 2.2z"/><path class="st34" d="M88.5 122h-11c-1.2 0-2.2-.9-2.2-2.2 0-1.2.9-2.2 2.2-2.2h11c1.2 0 2.2.9 2.2 2.2-.1 1.3-1 2.2-2.2 2.2z"/><path class="st30" d="M69.8 131h-11c-1.2 0-2.2-.9-2.2-2.2 0-1.2.9-2.2 2.2-2.2h11c1.2 0 2.2.9 2.2 2.2-.1 1.1-1.2 2.2-2.2 2.2z"/><path style="fill:#d9edff" d="M98.3 89.3h54.1v43.6H98.3z"/><g style="opacity:.1"><g id="XMLID_6_"><g id="XMLID_69_"><path id="XMLID_74_" class="st53" d="M107.4 106.4h.5v1.9h.5V106h-1z"/><path id="XMLID_73_" class="st53" d="M110.3 106.8h-.2c-.1 0-.1 0-.2.1l.1-.5h.9v-.4h-1.4l-.1 1.3h.5s0-.1.1-.1h.2c.1 0 .2 0 .2.1s.1.2.1.3 0 .2-.1.3c0 .1-.1.1-.2.1s-.2 0-.2-.1c-.1 0-.1-.1-.1-.2h-.5c0 .2.1.3.2.5.2.1.4.2.6.2.3 0 .5-.1.6-.2.1-.1.2-.3.2-.6s-.1-.5-.2-.6c-.1-.1-.3-.2-.5-.2z"/><path id="XMLID_72_" class="st53" d="M113.6 107.4c-.1-.1-.2-.1-.4-.1s-.3 0-.4.1c-.1.1-.1.2-.1.3v.1c0 .1 0 .3.1.3.1.1.2.1.4.1s.3 0 .4-.1c.1-.1.1-.2.1-.3v-.1c0-.1 0-.2-.1-.3zm-.2.5v.1l-.1.1c-.1 0-.1 0-.1-.1l-.1-.1v-.2l.1-.1c.1 0 .1 0 .1.1v.1l.1.1z"/><path id="XMLID_71_" class="st53" d="m113 106.2-1.1 1.8.2.2 1.2-1.9z"/><path id="XMLID_70_" class="st53" d="M112.4 106.9c.1-.1.1-.2.1-.3v-.1c0-.1 0-.3-.1-.3-.1-.1-.2-.1-.4-.1s-.3 0-.4.1c-.1.1-.1.2-.1.3v.1c0 .1 0 .3.1.3.1.1.2.1.4.1s.4 0 .4-.1zm-.5-.3v-.2l.1-.1c.1 0 .1 0 .1.1V106.7l-.1.1c-.1 0-.1 0-.1-.1v-.1z"/></g><g id="XMLID_66_"><path id="XMLID_68_" class="st54" d="M107.1 109.5h6.8v14.6h-6.8z"/><path id="XMLID_67_" class="st55" d="M114.2 124.4h-7.4v-15.1h7.4v15.1zm-6.8-.6h6.2v-14h-6.2v14z"/></g><g id="XMLID_63_"><path id="XMLID_65_" class="st53" d="M107.1 117.3h6.8v6.8h-6.8z"/><path id="XMLID_64_" class="st55" d="M114.2 124.4h-7.4V117h7.4v7.4zm-6.8-.6h6.2v-6.2h-6.2v6.2z"/></g><g id="XMLID_58_"><path id="XMLID_62_" class="st53" d="m108.3 126.8.2-.3c.2-.2.3-.3.3-.4.1-.1.1-.2.1-.3 0-.2-.1-.3-.2-.4-.1-.1-.3-.1-.4-.1-.2 0-.3.1-.4.2-.1.1-.2.3-.2.4h.4c0-.1 0-.1.1-.2 0-.1.1-.1.1-.1.1 0 .1 0 .1.1v.2s0 .1-.1.2c0 .1-.1.1-.2.2l-.5.6v.3h1.2v-.3l-.5-.1z"/><path id="XMLID_61_" class="st53" d="M109.8 125.3c-.2 0-.3.1-.4.2-.1.1-.2.3-.2.5v.5c0 .2.1.4.2.5.1.1.3.2.4.2.2 0 .3-.1.4-.2.1-.1.2-.3.2-.5v-.5c0-.2-.1-.4-.2-.5 0-.1-.2-.2-.4-.2zm.2 1.2c0 .1 0 .2-.1.2 0 .1-.1.1-.1.1-.1 0-.1 0-.2-.1 0-.1-.1-.1-.1-.2v-.5c0-.1 0-.2.1-.2 0-.1.1-.1.1-.1.1 0 .1 0 .1.1s.1.1.1.2l.1.5z"/><path id="XMLID_60_" class="st53" d="M111.3 125.3c-.2 0-.3.1-.4.2-.1.1-.2.3-.2.5v.5c0 .2.1.4.2.5.1.1.3.2.4.2.2 0 .3-.1.4-.2.1-.1.2-.3.2-.5v-.5c0-.2-.1-.4-.2-.5-.1-.1-.3-.2-.4-.2zm.2 1.2c0 .1 0 .2-.1.2 0 .1-.1.1-.1.1-.1 0-.1 0-.2-.1 0-.1-.1-.1-.1-.2v-.5c0-.1 0-.2.1-.2 0-.1.1-.1.1-.1.1 0 .1 0 .1.1s.1.1.1.2l.1.5z"/><path id="XMLID_59_" class="st53" d="M113.2 126.4v-1.1h-.4l-.7 1.1v.3h.7v.4h.4v-.4h.2v-.3h-.2zm-.4 0h-.4l.3-.5v-.1.6z"/></g><g id="XMLID_52_"><path id="XMLID_57_" class="st56" d="M117.8 102.3c.1-.1.2-.1.3-.2.1-.1.1-.2.1-.3 0-.2-.1-.4-.2-.5-.1-.1-.3-.2-.6-.2-.2 0-.4.1-.5.2-.1.1-.2.3-.2.4h.5c0-.1 0-.1.1-.2 0 0 .1-.1.2-.1s.2 0 .2.1.1.1.1.2 0 .2-.1.2c-.1.1-.1.1-.2.1h-.3v.4h.3c.1 0 .2 0 .2.1.1.1.1.1.1.2s0 .1-.1.2-.1.1-.2.1-.1 0-.2-.1-.1-.1-.1-.2h-.5c0 .2.1.4.2.5.2.1.3.2.6.2.2 0 .5-.1.6-.2.2-.1.2-.3.2-.5 0-.1 0-.2-.1-.3-.2 0-.3-.1-.4-.1z"/><path id="XMLID_56_" class="st56" d="M119.4 101.1c-.2 0-.4.1-.6.2s-.2.4-.2.6v.6c0 .3.1.5.2.6s.3.2.6.2c.2 0 .4-.1.6-.2s.2-.4.2-.6v-.5c0-.3-.1-.5-.2-.6-.1-.2-.3-.3-.6-.3zm.3 1.5c0 .1 0 .2-.1.3s-.1.1-.2.1-.1 0-.2-.1c0-.1-.1-.2-.1-.3v-.6c0-.1 0-.2.1-.3s.1-.1.2-.1.1 0 .2.1c0 .1.1.2.1.3v.6z"/><path id="XMLID_55_" class="st56" d="M122.7 102.5c-.1-.1-.2-.1-.4-.1s-.3 0-.4.1c-.1.1-.1.2-.1.3v.1c0 .1 0 .2.1.3.1.1.2.1.4.1s.3 0 .4-.1c.1-.1.1-.2.1-.3v-.1c0-.1 0-.2-.1-.3zm-.2.5v.1l-.1.1s-.1 0-.1-.1l-.1-.1v-.2l.1-.1s.1 0 .1.1v.2z"/><path id="XMLID_54_" class="st56" d="m122.2 101.4-1.1 1.7.2.2 1.1-1.8z"/><path id="XMLID_53_" class="st56" d="M121.6 102c.1-.1.1-.2.1-.3v-.1c0-.1 0-.2-.1-.3-.1-.1-.2-.1-.4-.1s-.3 0-.4.1c-.1.1-.1.2-.1.3v.1c0 .1 0 .2.1.3.1.1.2.1.4.1.2.1.3 0 .4-.1zm-.5-.3v-.2l.1-.1c.1 0 .1 0 .1.1V101.8l-.1.1c-.1 0-.1 0-.1-.1v-.1z"/></g><g id="XMLID_49_"><path id="XMLID_51_" class="st54" d="M116.3 104.7h6.8v19.4h-6.8z"/><path id="XMLID_50_" class="st55" d="M123.4 124.4H116v-20h7.4v20zm-6.8-.6h6.2V105h-6.2v18.8z"/></g><g id="XMLID_46_"><path id="XMLID_48_" class="st56" d="M116.3 110.8h6.8v13.3h-6.8z"/><path id="XMLID_47_" class="st55" d="M123.4 124.4H116v-13.9h7.4v13.9zm-6.8-.6h6.2V111h-6.2v12.8z"/></g><g id="XMLID_41_"><path id="XMLID_45_" class="st56" d="m117.5 126.8.2-.3c.2-.2.3-.3.3-.4.1-.1.1-.2.1-.3 0-.2-.1-.3-.2-.4s-.3-.1-.4-.1c-.2 0-.3.1-.4.2-.1.1-.2.3-.2.4h.4c0-.1 0-.1.1-.2 0-.1.1-.1.1-.1.1 0 .1 0 .1.1v.2s0 .1-.1.2c0 .1-.1.1-.2.2l-.5.6v.3h1.2v-.3l-.5-.1z"/><path id="XMLID_44_" class="st56" d="M119 125.3c-.2 0-.3.1-.4.2-.1.1-.2.3-.2.5v.5c0 .2.1.4.2.5.1.1.3.2.4.2.2 0 .3-.1.4-.2.1-.1.2-.3.2-.5v-.5c0-.2-.1-.4-.2-.5-.1-.1-.3-.2-.4-.2zm.2 1.2c0 .1 0 .2-.1.2 0 .1-.1.1-.1.1-.1 0-.1 0-.2-.1 0-.1-.1-.1-.1-.2v-.5c0-.1 0-.2.1-.2 0-.1.1-.1.1-.1.1 0 .1 0 .1.1s.1.1.1.2l.1.5z"/><path id="XMLID_43_" class="st56" d="M120.4 125.3c-.2 0-.3.1-.4.2-.1.1-.2.3-.2.5v.5c0 .2.1.4.2.5.1.1.3.2.4.2.2 0 .3-.1.4-.2.1-.1.2-.3.2-.5v-.5c0-.2-.1-.4-.2-.5-.1-.1-.2-.2-.4-.2zm.2 1.2c0 .1 0 .2-.1.2 0 .1-.1.1-.1.1-.1 0-.1 0-.2-.1 0-.1-.1-.1-.1-.2v-.5c0-.1 0-.2.1-.2 0-.1.1-.1.1-.1.1 0 .1 0 .1.1s.1.1.1.2l.1.5z"/><path id="XMLID_42_" class="st56" d="m122.4 126.4-.2-.2c.1 0 .1-.1.2-.2 0-.1.1-.1.1-.2 0-.2-.1-.3-.2-.4-.1-.1-.2-.1-.4-.1s-.3 0-.4.1c-.1.1-.2.2-.2.4 0 .1 0 .2.1.2 0 .1.1.1.2.2-.1 0-.2.1-.2.2-.1.1-.1.2-.1.3 0 .2.1.3.2.4.1.1.3.1.5.1s.3 0 .5-.1c.1-.1.2-.2.2-.4-.2-.2-.2-.3-.3-.3zm-.7-.7.1-.1c.1 0 .1 0 .1.1v.2l-.1.1c-.1 0-.1 0-.1-.1l-.1-.1c.1 0 .1-.1.1-.1zm.3 1.1s-.1.1-.2.1-.1 0-.2-.1c0 0-.1-.1-.1-.2s0-.1.1-.2c0 0 .1-.1.2-.1s.1 0 .2.1c0 0 .1.1.1.2s-.1.1-.1.2z"/></g><g id="XMLID_35_"><path id="XMLID_40_" class="st57" d="M127.1 96.3h-.5l-.9 1.5v.3h.9v.5h.5v-.5h.2v-.4h-.2v-1.4zm-.5 1.4h-.5l.4-.6.1-.1v.7z"/><path id="XMLID_39_" class="st57" d="M128.7 97.1h-.2c-.1 0-.1 0-.2.1l.1-.5h.9v-.4H128l-.1 1.3h.5s0-.1.1-.1h.2c.1 0 .2 0 .2.1s.1.2.1.3c0 .1 0 .2-.1.3 0 .1-.1.1-.2.1s-.1 0-.2-.1-.1-.1-.1-.2h-.5c0 .2.1.3.2.4.2.1.3.2.6.2s.5-.1.6-.2c.1-.1.2-.3.2-.5s-.1-.4-.2-.6c-.2-.2-.4-.2-.6-.2z"/><path id="XMLID_38_" class="st57" d="M131.8 97.7c-.1-.1-.2-.1-.4-.1s-.3 0-.4.1c-.1.1-.1.2-.1.3v.1c0 .1 0 .2.1.3.1.1.2.1.4.1s.3 0 .4-.1c.1-.1.1-.2.1-.3V98c.1-.1 0-.2-.1-.3zm-.2.4v.1h-.1s-.1 0-.1-.1l-.1-.1v-.1l.1-.1c.1 0 .1 0 .1.1v.2h.1z"/><path id="XMLID_37_" class="st57" d="M130.8 97.2c.1-.1.1-.2.1-.3v-.1c0-.1 0-.2-.1-.3s-.2-.1-.4-.1-.3 0-.4.1-.1.2-.1.3v.1c0 .1 0 .2.1.3.1.1.2.1.4.1s.3 0 .4-.1zm-.6-.4v-.2l.1-.1s.1 0 .1.1V96.9l-.1.1c-.1 0-.1 0-.1-.1v-.1z"/><path id="XMLID_36_" class="st57" d="m131.3 96.5-1.1 1.8.3.1 1.1-1.8z"/></g><g id="XMLID_32_"><path id="XMLID_34_" class="st54" d="M125.4 99.8h6.8v24.3h-6.8z"/><path id="XMLID_33_" class="st55" d="M132.5 124.4h-7.4V99.5h7.4v24.9zm-6.8-.6h6.2v-23.7h-6.2v23.7z"/></g><g id="XMLID_29_"><path id="XMLID_31_" class="st57" d="M125.4 113.4h6.8v10.7h-6.8z"/><path id="XMLID_30_" class="st55" d="M132.5 124.4h-7.4v-11.2h7.4v11.2zm-6.8-.6h6.2v-10.1h-6.2v10.1z"/></g><g id="XMLID_24_"><path id="XMLID_28_" class="st57" d="m126.6 126.8.2-.3c.2-.2.3-.3.3-.4.1-.1.1-.2.1-.3 0-.2-.1-.3-.2-.4s-.3-.1-.4-.1c-.2 0-.3.1-.4.2-.1.1-.2.3-.2.4h.4c0-.1 0-.1.1-.2 0-.1.1-.1.1-.1s.1 0 .1.1v.2s0 .1-.1.2c0 .1-.1.1-.2.2l-.5.6v.3h1.2v-.3l-.5-.1z"/><path id="XMLID_27_" class="st57" d="M128.1 125.3c-.2 0-.3.1-.4.2-.1.1-.2.3-.2.5v.5c0 .2.1.4.2.5.1.1.3.2.4.2.2 0 .3-.1.4-.2.1-.1.2-.3.2-.5v-.5c0-.2-.1-.4-.2-.5-.1-.1-.2-.2-.4-.2zm.2 1.2c0 .1 0 .2-.1.3 0 .1-.1.1-.1.1-.1 0-.1 0-.2-.1 0-.1-.1-.1-.1-.3v-.5c0-.1 0-.2.1-.2 0-.1.1-.1.1-.1.1 0 .1 0 .1.1s.1.1.1.2l.1.5z"/><path id="XMLID_26_" class="st57" d="M129.1 125.7h.3v1.4h.4v-1.8l-.7.1z"/><path id="XMLID_25_" class="st57" d="m130.9 126.8.2-.3c.2-.2.3-.3.3-.4.1-.1.1-.2.1-.3 0-.2-.1-.3-.2-.4s-.3-.1-.4-.1c-.2 0-.3.1-.4.2-.1.1-.2.3-.2.4h.4c0-.1 0-.1.1-.2 0-.1.1-.1.1-.1.1 0 .1 0 .1.1v.2s0 .1-.1.2c0 .1-.1.1-.2.2l-.5.6v.3h1.2v-.3l-.5-.1z"/></g><g id="XMLID_18_"><path id="XMLID_23_" class="st58" d="M135.8 92.2h-.3c-.1 0-.2.1-.2.1 0-.2 0-.3.1-.4.1-.1.2-.1.3-.1h.2c.1 0 .1 0 .2.1l.1-.4c-.1 0-.2-.1-.2-.1h-.2c-.3 0-.5.1-.7.3-.2.2-.3.4-.3.7v.5c0 .3.1.5.2.7.2.2.4.2.6.2.2 0 .4-.1.6-.2.1-.1.2-.3.2-.6 0-.2-.1-.4-.2-.6 0-.1-.2-.2-.4-.2zm0 1c-.1.1-.1.1-.2.1s-.2 0-.2-.1c-.1-.1-.1-.2-.1-.4v-.1l.1-.1h.2c.1 0 .1 0 .2.1 0 .1.1.2.1.3 0 .1 0 .2-.1.2z"/><path id="XMLID_22_" class="st58" d="M137.7 91.4c-.2 0-.4.1-.6.2-.1.2-.2.4-.2.6v.6c0 .3.1.5.2.6.1.2.3.2.6.2.2 0 .4-.1.6-.2.1-.2.2-.4.2-.6v-.6c0-.3-.1-.5-.2-.6-.2-.1-.4-.2-.6-.2zm.3 1.5c0 .1 0 .2-.1.3s-.1.1-.2.1-.1 0-.2-.1c0-.1-.1-.2-.1-.3v-.7c0-.1 0-.2.1-.3s.1-.1.2-.1.1 0 .2.1.1.2.1.3v.7z"/><path id="XMLID_21_" class="st58" d="M139.9 92.3c.1-.1.1-.2.1-.3v-.1c0-.1 0-.2-.1-.3-.1-.1-.2-.1-.4-.1s-.3 0-.4.1c-.1.1-.1.2-.1.3v.1c0 .1 0 .2.1.3.1.1.2.1.4.1.2.1.3 0 .4-.1zm-.5-.3v-.2l.1-.1c.1 0 .1 0 .1.1V92.1l-.1.1s-.1 0-.1-.1V92z"/><path id="XMLID_20_" class="st58" d="M141 92.8c-.1-.1-.2-.1-.4-.1s-.3 0-.4.1c-.1.1-.1.2-.1.3v.1c0 .1 0 .2.1.3.1.1.2.1.4.1s.3 0 .4-.1c.1-.1.1-.2.1-.3v-.1c0-.1 0-.2-.1-.3zm-.2.5v.1l-.1.1s-.1 0-.1-.1l-.1-.1v-.2l.1-.1s.1 0 .1.1v.2h.1z"/><path id="XMLID_19_" class="st58" d="m140.5 91.7-1.1 1.7.2.1 1.1-1.7z"/></g><g id="XMLID_15_"><path id="XMLID_17_" class="st54" d="M134.6 95h6.8v29.1h-6.8z"/><path id="XMLID_16_" class="st55" d="M141.6 124.4h-7.4V94.7h7.4v29.7zm-6.8-.6h6.2V95.3h-6.2v28.5z"/></g><g id="XMLID_12_"><path id="XMLID_14_" class="st58" d="M134.6 99.5h6.8v24.6h-6.8z"/><path id="XMLID_13_" class="st55" d="M141.6 124.4h-7.4V99.2h7.4v25.2zm-6.8-.6h6.2v-24h-6.2v24z"/></g><g id="XMLID_7_"><path id="XMLID_11_" class="st58" d="m135.8 126.8.2-.3c.2-.2.3-.3.3-.4.1-.1.1-.2.1-.3 0-.2-.1-.3-.2-.4s-.3-.1-.4-.1c-.2 0-.3.1-.4.2-.1.1-.2.3-.2.4h.4c0-.1 0-.1.1-.2l.1-.1s.1 0 .1.1v.2s0 .1-.1.2c0 .1-.1.1-.2.2l-.5.6v.3h1.2v-.3l-.5-.1z"/><path id="XMLID_10_" class="st58" d="M137.2 125.3c-.2 0-.3.1-.4.2-.1.1-.2.3-.2.5v.5c0 .2.1.4.2.5s.3.2.4.2c.2 0 .3-.1.4-.2.1-.1.2-.3.2-.5v-.5c0-.2-.1-.4-.2-.5 0-.1-.2-.2-.4-.2zm.3 1.2c0 .1 0 .2-.1.2 0 .1-.1.1-.1.1-.1 0-.1 0-.2-.1 0-.1-.1-.1-.1-.2v-.5c0-.1 0-.2.1-.2 0-.1.1-.1.1-.1.1 0 .1 0 .1.1s.1.1.1.2l.1.5z"/><path id="XMLID_9_" class="st58" d="M138.2 125.7h.4v1.4h.4v-1.8l-.8.1z"/><path id="XMLID_8_" class="st58" d="M140.6 126.1c-.1-.1-.2-.2-.3-.2h-.2c-.1 0-.1.1-.2.1 0-.1 0-.2.1-.3.1-.1.1-.1.2-.1h.2l.1-.3c-.1 0-.1 0-.2-.1s-.1 0-.2 0c-.2 0-.4.1-.5.2-.1.1-.2.3-.2.6v.4c0 .2.1.4.2.5s.3.2.5.2.3-.1.4-.2c.1-.1.2-.3.2-.4.1-.1 0-.3-.1-.4zm-.3.6c0 .1-.1.1-.1.1-.1 0-.1 0-.2-.1s-.1-.2-.1-.3v-.1l.1-.1h.1c.1 0 .1 0 .1.1s.1.1.1.2v.2z"/></g></g></g><path class="st21" d="M179 139.6c-.9 0-1.7-.8-1.7-1.7 0-.1 0-.2.1-.3 0-.1.1-.3.1-.3.1-.1.1-.2.1-.3.1-.1.1-.2.3-.3.4-.4 1-.6 1.6-.4.1 0 .3.1.3.1.1.1.2.1.3.1.1.1.2.1.3.2.1.1.1.2.2.3.1.1.1.2.2.3.1.1.1.2.1.3s.1.2.1.3c0 .4-.2.9-.5 1.2-.1.1-.2.1-.3.2-.1.1-.2.1-.3.1-.1.1-.2.1-.3.1-.3.1-.5.1-.6.1zM180.8 132.7h-3.4c-.9 0-1.7-.8-1.7-1.7s.8-1.7 1.7-1.7h3.4c.9 0 1.7.8 1.7 1.7s-.8 1.7-1.7 1.7zM185.9 125.8h-17.2c-.9 0-1.7-.8-1.7-1.7s.8-1.7 1.7-1.7h17.2c.9 0 1.7.8 1.7 1.7 0 1-.8 1.7-1.7 1.7zM170.5 132.7h-6.9c-.9 0-1.7-.8-1.7-1.7s.8-1.7 1.7-1.7h6.8c.9 0 1.7.8 1.7 1.7.1 1-.7 1.7-1.6 1.7zM172.2 139.6h-13.7c-.9 0-1.7-.8-1.7-1.7s.8-1.7 1.7-1.7h13.7c.9 0 1.7.8 1.7 1.7s-.8 1.7-1.7 1.7z"/><path class="st21" d="m145.6 105.5 19.7 6.8v23c0 .8-.2 1.7-.5 2.4-4.7 10.2-16.5 16.3-18.9 17.5-2.4-1.1-14.7-7.2-19.5-17.5-.3-.8-.5-1.6-.5-2.5v-23l19.7-6.7m0-3.8c-.2 0-.5 0-.7.1l-21.2 7.3c-.9.3-1.5 1.1-1.5 2.1v24c0 1.4.3 2.8.9 4 6 12.7 21.8 19.5 21.8 19.5.2.1.5.1.7.1h.7c.2 0 .4 0 .7-.1 0 0 15.3-6.8 21.2-19.5.6-1.2.8-2.6.8-3.9v-24.1c0-.9-.6-1.8-1.5-2.1l-21.2-7.3c-.3 0-.5-.1-.7-.1z"/><path d="M145.6 105.5v49.6c.1.1.2.1.3.2 2.4-1.2 14.2-7.3 18.9-17.5.3-.8.5-1.6.5-2.4v-23l-19.7-6.9z" style="fill:#6fc9a0"/><path d="M125.8 112.3v23c0 .9.2 1.7.5 2.5 4.7 9.8 16.2 15.9 19.2 17.3v-49.6l-19.7 6.8z" style="fill:#76e5b7"/><g id="_x31_044_x2C__Check_x2C__ok_x2C__tick_x2C__good_1_"><g id="XMLID_3_"><path class="st10" d="M138 131.5c-.4-.4-.7-1-.7-1.7 0-.6.2-1.2.7-1.7.4-.4 1-.7 1.7-.7s1.2.2 1.7.7l3.6 3.6 9.4-9.4c.4-.4 1-.7 1.7-.7s1.2.2 1.7.7c.9.9.9 2.4 0 3.3l-12.7 12.9-7.1-7z"/><path class="st10" d="M138 131.5c-.4-.4-.7-1-.7-1.7 0-.6.2-1.2.7-1.7.4-.4 1-.7 1.7-.7s1.2.2 1.7.7l3.6 3.6 9.4-9.4c.4-.4 1-.7 1.7-.7s1.2.2 1.7.7c.9.9.9 2.4 0 3.3l-12.7 12.9-7.1-7z"/><path class="st10" d="M138 131.5c-.4-.4-.7-1-.7-1.7 0-.6.2-1.2.7-1.7.4-.4 1-.7 1.7-.7s1.2.2 1.7.7l3.6 3.6 9.4-9.4c.4-.4 1-.7 1.7-.7s1.2.2 1.7.7c.9.9.9 2.4 0 3.3l-12.7 12.9-7.1-7z"/><path class="st10" d="M138 131.5c-.4-.4-.7-1-.7-1.7 0-.6.2-1.2.7-1.7.4-.4 1-.7 1.7-.7s1.2.2 1.7.7l3.6 3.6 9.4-9.4c.4-.4 1-.7 1.7-.7s1.2.2 1.7.7c.9.9.9 2.4 0 3.3l-12.7 12.9-7.1-7z"/><path class="st10" d="M145.1 140.4c-.1 0-.3-.1-.3-.1l-7.7-7.7c-.7-.7-1.1-1.7-1.1-2.7 0-1 .4-2 1.1-2.7.7-.7 1.7-1.1 2.7-1.1 1 0 2 .4 2.7 1.1l2.6 2.6 8.4-8.4c.7-.7 1.7-1.1 2.7-1.1 1 0 2 .4 2.7 1.1 1.5 1.5 1.5 3.9 0 5.4l-13.4 13.6h-.4zm-5.4-13.4c-.8 0-1.5.3-2 .8s-.8 1.3-.8 2c0 .8.3 1.5.8 2l7.4 7.4 13-13.2c1.1-1.1 1.1-2.9 0-4-.5-.5-1.3-.8-2-.8-.8 0-1.5.3-2 .8l-8.7 8.7c-.2.2-.5.2-.7 0l-2.9-2.9c-.6-.5-1.4-.8-2.1-.8z"/></g></g><path d="M34.8 59.9h-2.1c-1.1 0-2.1-.9-2.1-2.1 0-1.1.9-2.1 2.1-2.1h2.1c1.1 0 2.1.9 2.1 2.1 0 1.1-1 2.1-2.1 2.1zM34.8 74.4h-2.1c-1.1 0-2.1-.9-2.1-2.1s.9-2.1 2.1-2.1h2.1c1.1 0 2.1.9 2.1 2.1s-1 2.1-2.1 2.1zM43.2 74.4h-2.1c-1.1 0-2.1-.9-2.1-2.1s.9-2.1 2.1-2.1h2.1c1.1 0 2.1.9 2.1 2.1s-1 2.1-2.1 2.1zM51.5 74.4h-2.1c-1.1 0-2.1-.9-2.1-2.1s.9-2.1 2.1-2.1h2.1c1.1 0 2.1.9 2.1 2.1s-.9 2.1-2.1 2.1zM51.5 59.9H41c-1.1 0-2.1-.9-2.1-2.1 0-1.1.9-2.1 2.1-2.1h10.5c1.1 0 2.1.9 2.1 2.1 0 1.1-.9 2.1-2.1 2.1zM45.2 66.6H34.7c-1.1 0-2.1-.9-2.1-2.1s.9-2.1 2.1-2.1h10.5c1.1 0 2.1.9 2.1 2.1s-1 2.1-2.1 2.1z"/></svg>