<svg version="1.1" id="Layer_1" xmlns="http://www.w3.org/2000/svg" x="0" y="0" viewBox="0 0 200 200" style="enable-background:new 0 0 200 200" xml:space="preserve"><style>.st0{display:none}.st1{display:inline}.st2{fill:#5c6a86}.st3{fill:#e2e3e5}.st4{fill:#fff;stroke:#303c64;stroke-width:1.5;stroke-miterlimit:10}.st5{fill:#0f4d92}.st7{fill:#fc929c}.st8{stroke-linejoin:round}.st8,.st9{fill:none;stroke:#303c64;stroke-width:1.5;stroke-linecap:round;stroke-miterlimit:10}.st10{fill:#fff}.st11{fill:#96d7ff}.st16{fill:#1f8ac0;stroke:#4a86b1;stroke-width:.1671;stroke-linejoin:round}.st19{fill:#3a312a}.st20{fill:#1a60a0}.st21{fill:#303c64}.st24{fill:#99d3ff}.st26{fill:#4da6c1}.st27{fill:#fff;stroke:#313131;stroke-width:2;stroke-linecap:round;stroke-linejoin:round;stroke-miterlimit:10}.st28{fill:#323232}.st29{fill:#e38992}.st30{fill:#ffd98c}.st31{fill:#8fce95}.st32{stroke:#313131;stroke-width:2;stroke-linejoin:round}.st32,.st35,.st37{fill:none;stroke-linecap:round;stroke-miterlimit:10}.st35{stroke:#96d7ff;stroke-width:3;stroke-linejoin:round}.st37{stroke:#313131;stroke-width:2}</style><g id="Layer_1_1_"><path class="st2" d="M30.2 120.9H42c.3 0 .7-.3.7-.7 0-.3-.3-.7-.7-.7H30.2c-.3 0-.7.3-.7.7.1.4.4.7.7.7zM24 120.9h2.6c.3 0 .7-.3.7-.7 0-.3-.3-.7-.7-.7H24c-.3 0-.7.3-.7.7 0 .4 0 .7.7.7zM26 123.9h3.3c.3 0 .7-.3.7-.7 0-.3-.3-.7-.7-.7H26c-.3 0-.7.3-.7.7 0 .4.3.7.7.7zM32.2 123.9h3.9c.3 0 .7-.3.7-.7 0-.3-.3-.7-.7-.7h-3.9c-.3 0-.7.3-.7.7 0 .4.4.7.7.7zM169.9 94.2h10.2c.3 0 .7-.3.7-.7s-.3-.7-.7-.7h-10.2c-.3 0-.7.3-.7.7s0 .7.7.7zM163.3 94.2h2.6c.3 0 .7-.3.7-.7s-.3-.7-.7-.7h-2.6c-.3 0-.7.3-.7.7s.4.7.7.7zM165.6 97.5h3.3c.3 0 .7-.3.7-.7s-.3-.7-.7-.7h-3.3c-.3 0-.7.3-.7.7s.4.7.7.7zM171.9 97.5h2.3c.3 0 .7-.3.7-.7s-.3-.7-.7-.7h-2.3c-.3 0-.7.3-.7.7s0 .7.7.7z"/></g><path class="st3" d="M45.5 51.2h-2.1c-1.1 0-2.1-.9-2.1-2.1 0-1.1.9-2.1 2.1-2.1h2.1c1.1 0 2.1.9 2.1 2.1 0 1.1-1 2.1-2.1 2.1zM45.5 65.7h-2.1c-1.1 0-2.1-.9-2.1-2.1s.9-2.1 2.1-2.1h2.1c1.1 0 2.1.9 2.1 2.1s-1 2.1-2.1 2.1zM53.9 65.7h-2.1c-1.1 0-2.1-.9-2.1-2.1s.9-2.1 2.1-2.1h2.1c1.1 0 2.1.9 2.1 2.1s-1 2.1-2.1 2.1zM62.2 65.7h-2.1c-1.1 0-2.1-.9-2.1-2.1s.9-2.1 2.1-2.1h2.1c1.1 0 2.1.9 2.1 2.1s-.9 2.1-2.1 2.1zM62.2 51.2H51.8c-1.1 0-2.1-.9-2.1-2.1 0-1.1.9-2.1 2.1-2.1h10.5c1.1 0 2.1.9 2.1 2.1-.1 1.1-1 2.1-2.2 2.1zM53.9 57.4H43.4c-1.1 0-2.1-.9-2.1-2.1s.9-2.1 2.1-2.1h10.5c1.1 0 2.1.9 2.1 2.1s-1 2.1-2.1 2.1zM169.2 145.8c-.9 0-1.7-.8-1.7-1.7 0-.1 0-.2.1-.3 0-.1.1-.3.1-.3.1-.1.1-.2.1-.3.1-.1.1-.2.3-.3.4-.4 1-.6 1.6-.4.1 0 .3.1.3.1.1.1.2.1.3.1.1.1.2.1.3.2s.1.2.2.3c.1.1.1.2.2.3.1.1.1.2.1.3s.1.2.1.3c0 .4-.2.9-.5 1.2-.1.1-.2.1-.3.2-.1.1-.2.1-.3.1-.1.1-.2.1-.3.1-.3.1-.5.1-.6.1zM171 138.9h-3.4c-.9 0-1.7-.8-1.7-1.7s.8-1.7 1.7-1.7h3.4c.9 0 1.7.8 1.7 1.7s-.8 1.7-1.7 1.7zM176.1 132h-17.2c-.9 0-1.7-.8-1.7-1.7s.8-1.7 1.7-1.7h17.2c.9 0 1.7.8 1.7 1.7 0 1-.8 1.7-1.7 1.7zM160.7 138.9h-6.9c-.9 0-1.7-.8-1.7-1.7s.8-1.7 1.7-1.7h6.8c.9 0 1.7.8 1.7 1.7.1 1-.7 1.7-1.6 1.7zM162.4 145.8h-13.7c-.9 0-1.7-.8-1.7-1.7s.8-1.7 1.7-1.7h13.7c.9 0 1.7.8 1.7 1.7 0 .9-.8 1.7-1.7 1.7z"/><path class="st8" d="M11.6 173.1h23.1M169.6 173.1h23M42.3 173.1h121.3"/><circle class="st4" cx="16.6" cy="87" r="4.1"/><circle class="st4" cx="133.6" cy="31.1" r="4.1"/><path class="st9" d="m61.8 19-2.5 2.5M53.8 27l-2.6 2.6M61.8 29.6 59.3 27M53.8 21.5 51.2 19M192.7 61.1l-2.6 2.4M184.6 69.1l-2.5 2.6M192.7 71.7l-2.6-2.6M184.6 63.5l-2.5-2.4"/><path class="st27" d="M148.4 78.9v7.4H47.3v-7.4c0-3.7 2.4-6.9 5.8-7.8h89.5c3.4.9 5.8 4.1 5.8 7.8z"/><path class="st27" d="M148.4 86.3v55.3c0 3.1-2.5 5.6-5.6 5.6H52.9c-3.1 0-5.6-2.5-5.6-5.6V86.3h101.1z"/><circle class="st28" cx="58.7" cy="78.4" r="2.3"/><circle class="st28" cx="65.9" cy="78.4" r="2.3"/><circle class="st28" cx="73.1" cy="78.4" r="2.3"/><path class="st29" d="M70.8 99.3H56.4c-.9 0-1.6-.7-1.6-1.6 0-.9.7-1.6 1.6-1.6h14.5c.9 0 1.6.7 1.6 1.6 0 .9-.8 1.6-1.7 1.6z"/><path class="st30" d="M64.5 107h-8.2c-.9 0-1.6-.7-1.6-1.6 0-.9.7-1.6 1.6-1.6h8.2c.9 0 1.6.7 1.6 1.6 0 .8-.7 1.6-1.6 1.6z"/><path class="st31" d="M91.1 113.5H56.7c-.9 0-1.6-.7-1.6-1.6 0-.9.7-1.6 1.6-1.6h34.5c.9 0 1.6.7 1.6 1.6 0 .8-.8 1.6-1.7 1.6z"/><path class="st11" d="M91.1 121.1H56.7c-.9 0-1.6-.7-1.6-1.6 0-.9.7-1.6 1.6-1.6h34.5c.9 0 1.6.7 1.6 1.6 0 .8-.8 1.6-1.7 1.6z"/><path class="st29" d="M113.6 107h-42c-.9 0-1.6-.7-1.6-1.6 0-.9.7-1.6 1.6-1.6h42.1c.9 0 1.6.7 1.6 1.6-.1.8-.8 1.6-1.7 1.6z"/><path class="st30" d="M106.5 113.5h-8.2c-.9 0-1.6-.7-1.6-1.6 0-.9.7-1.6 1.6-1.6h8.2c.9 0 1.6.7 1.6 1.6 0 .8-.7 1.6-1.6 1.6zM64.5 128.7h-8.2c-.9 0-1.6-.7-1.6-1.6 0-.9.7-1.6 1.6-1.6h8.2c.9 0 1.6.7 1.6 1.6 0 .9-.7 1.6-1.6 1.6z"/><path class="st29" d="M85.6 128.7H71.1c-.9 0-1.6-.7-1.6-1.6 0-.9.7-1.6 1.6-1.6h14.5c.9 0 1.6.7 1.6 1.6 0 .9-.7 1.6-1.6 1.6z"/><path class="st11" d="M86.8 99.3h-8.2c-.9 0-1.6-.7-1.6-1.6 0-.9.7-1.6 1.6-1.6h8.2c.9 0 1.6.7 1.6 1.6.1.9-.7 1.6-1.6 1.6z"/><path class="st32" d="m122.7 130.6 9 8.7M122.6 135.5l4.2 4.1M126.8 129.6l5.8 5.5"/><path class="st27" d="M162.6 64.8v7.4H61.5v-7.4c0-3.7 2.4-6.9 5.8-7.8h89.5c3.3.9 5.8 4.1 5.8 7.8z"/><path d="M162.6 72.2v55.3c0 3.1-2.5 5.6-5.6 5.6H67c-3.1 0-5.6-2.5-5.6-5.6V72.2h101.2z" style="fill:#323232;stroke:#313131;stroke-width:2;stroke-linecap:round;stroke-linejoin:round;stroke-miterlimit:10"/><circle class="st28" cx="73.2" cy="64.5" r="2.3"/><circle class="st28" cx="80.4" cy="64.5" r="2.3"/><circle class="st28" cx="87.6" cy="64.5" r="2.3"/><path class="st29" d="M90.8 87.4H76.5c-.9 0-1.6-.7-1.6-1.6 0-.9.7-1.6 1.6-1.6h14.3c.9 0 1.6.7 1.6 1.6 0 .9-.7 1.6-1.6 1.6z"/><path class="st30" d="M84.8 93.9h-8.1c-.9 0-1.6-.7-1.6-1.6 0-.9.7-1.6 1.6-1.6h8.1c.9 0 1.6.7 1.6 1.6 0 .9-.8 1.6-1.6 1.6z"/><path class="st31" d="M96.1 101.5H76.4c-.9 0-1.6-.7-1.6-1.6 0-.9.7-1.6 1.6-1.6h19.7c.9 0 1.6.7 1.6 1.6 0 .9-.8 1.6-1.6 1.6z"/><path class="st11" d="M84.6 108h-7.8c-.9 0-1.6-.7-1.6-1.6 0-.9.7-1.6 1.6-1.6h7.8c.9 0 1.6.7 1.6 1.6 0 .9-.7 1.6-1.6 1.6z"/><path d="M98.6 108h-8.1c-.9 0-1.6-.7-1.6-1.6 0-.9.7-1.6 1.6-1.6h8.1c.9 0 1.6.7 1.6 1.6 0 .9-.7 1.6-1.6 1.6z" style="fill:#eb99e3"/><path class="st30" d="M84.8 114.6h-8.1c-.9 0-1.6-.7-1.6-1.6 0-.9.7-1.6 1.6-1.6h8.1c.9 0 1.6.7 1.6 1.6 0 .8-.8 1.6-1.6 1.6z"/><path class="st35" d="m127 96.7-10 5.8 10 5.8M142.3 96.7l9.9 5.8-9.9 5.8"/><path style="fill:none;stroke:#96d7ff;stroke-width:3;stroke-linecap:round;stroke-miterlimit:10" d="m130.7 112.8 7.8-20.6"/><path class="st37" d="m156.4 45.6.5-2.8M164 49.1l-2.6.7M161.2 45.3l-2.1 2.2"/></svg>