<svg xmlns="http://www.w3.org/2000/svg" xmlns:xlink="http://www.w3.org/1999/xlink" viewBox="0 0 144.29 78.8"><defs><style>.cls-1{fill:url(#linear-gradient);}.cls-2,.cls-3,.cls-4{fill:#727272;stroke-width:2px;}.cls-2,.cls-3,.cls-4,.cls-5{stroke-miterlimit:10;}.cls-2{stroke:url(#linear-gradient-2);}.cls-3{stroke:url(#linear-gradient-3);}.cls-4{stroke:url(#linear-gradient-4);}.cls-5,.cls-8{fill:#fff;}.cls-5{stroke:#033a91;}.cls-6{fill:#033a91;}.cls-7{fill:snow;}</style><linearGradient id="linear-gradient" y1="33.3" x2="144.29" y2="33.3" gradientUnits="userSpaceOnUse"><stop offset="0" stop-color="#fff" stop-opacity="0"/><stop offset="0.66" stop-color="#92c847" stop-opacity="0.43"/><stop offset="0.84" stop-color="#8dc63f" stop-opacity="0.5"/><stop offset="1" stop-color="#d1e8b2"/></linearGradient><linearGradient id="linear-gradient-2" x1="61.53" y1="55.44" x2="91.11" y2="55.44" gradientUnits="userSpaceOnUse"><stop offset="0" stop-color="#fff"/><stop offset="1" stop-color="#1c75bc"/></linearGradient><linearGradient id="linear-gradient-3" x1="61.31" y1="44.37" x2="90.9" y2="44.37" xlink:href="#linear-gradient-2"/><linearGradient id="linear-gradient-4" x1="61.24" y1="66.48" x2="90.83" y2="66.48" xlink:href="#linear-gradient-2"/></defs><g id="Layer_2" data-name="Layer 2"><g id="Layer_6" data-name="Layer 6"><path class="cls-1" d="M19.83,66.52C10.43,67.48.06,60.43,0,52.69S5.06,38.31,14.55,39.28a18.81,18.81,0,0,1,3.36-15c5.21-6.73,15.25-9.82,25.22-7.64,1-1.42,11.52-15.85,31-16.63,2.62-.11,19.46-.52,30.13,11.75a30,30,0,0,1,7.18,22.12c9.17-4.56,20.11-3.41,26.71,2.49,4.62,4.13,7.85,11.24,5.13,18.29s-10.39,11.76-19.15,11.71C87.62,66.39,56.37,66.52,19.83,66.52Z"/><line class="cls-2" x1="61.53" y1="55.44" x2="91.11" y2="55.44"/><line class="cls-3" x1="61.31" y1="44.37" x2="90.9" y2="44.37"/><line class="cls-4" x1="61.24" y1="66.48" x2="90.83" y2="66.48"/><rect class="cls-5" x="73.95" y="63.35" width="4.74" height="6.26" rx="1.27"/><rect class="cls-5" x="79.65" y="51.89" width="4.74" height="6.26" rx="1.27"/><rect class="cls-5" x="70.71" y="41.2" width="4.74" height="6.26" rx="1.27"/><rect class="cls-6" x="90.9" y="39.49" width="32.19" height="9.79" rx="2.72"/><rect class="cls-6" x="90.9" y="50.54" width="32.19" height="9.79" rx="2.72"/><rect class="cls-6" x="90.9" y="61.59" width="32.19" height="9.79" rx="2.72"/><circle class="cls-7" cx="104.5" cy="44.57" r="1.41"/><circle class="cls-7" cx="111.1" cy="44.57" r="1.41"/><circle class="cls-7" cx="117.54" cy="44.61" r="1.41"/><circle class="cls-7" cx="102.92" cy="55.41" r="1.41"/><circle class="cls-7" cx="96.44" cy="55.41" r="1.41"/><circle class="cls-7" cx="109.49" cy="55.36" r="1.41"/><circle class="cls-7" cx="104.63" cy="66.3" r="1.41"/><circle class="cls-7" cx="111.1" cy="66.3" r="1.41"/><circle class="cls-7" cx="117.45" cy="66.3" r="1.41"/><path class="cls-6" d="M52,35.25h0A4.75,4.75,0,0,0,58.5,38h0a4.77,4.77,0,0,1,6.34,6.38h0a4.8,4.8,0,0,0,2.7,6.57h0a4.8,4.8,0,0,1,0,9h0a4.8,4.8,0,0,0-2.7,6.57h0A4.77,4.77,0,0,1,58.5,72.9h0A4.75,4.75,0,0,0,52,75.62h0a4.74,4.74,0,0,1-9,0h0a4.75,4.75,0,0,0-6.53-2.72h0a4.77,4.77,0,0,1-6.34-6.38h0A4.8,4.8,0,0,0,27.44,60h0a4.8,4.8,0,0,1,0-9h0a4.8,4.8,0,0,0,2.7-6.57h0A4.77,4.77,0,0,1,36.48,38h0A4.75,4.75,0,0,0,43,35.25h0A4.75,4.75,0,0,1,52,35.25Z"/><ellipse class="cls-8" cx="47.97" cy="55.44" rx="12.55" ry="12.63"/></g></g></svg>