<svg xmlns="http://www.w3.org/2000/svg" xmlns:xlink="http://www.w3.org/1999/xlink" viewBox="0 0 144.29 90.51"><defs><style>.cls-1{fill:url(#linear-gradient);}.cls-2,.cls-3,.cls-4{fill:#727272;stroke-width:2px;}.cls-2,.cls-3,.cls-4,.cls-5{stroke-miterlimit:10;}.cls-2{stroke:url(#linear-gradient-2);}.cls-3{stroke:url(#linear-gradient-3);}.cls-4{stroke:url(#linear-gradient-4);}.cls-5,.cls-8{fill:#fff;}.cls-5{stroke:#033a91;}.cls-6{fill:#033a91;}.cls-7{fill:snow;}</style><linearGradient id="linear-gradient" x1="53.27" y1="20.92" x2="143.93" y2="20.92" gradientUnits="userSpaceOnUse"><stop offset="0" stop-color="#fff" stop-opacity="0"/><stop offset="0.66" stop-color="#92c847" stop-opacity="0.43"/><stop offset="0.84" stop-color="#8dc63f" stop-opacity="0.5"/><stop offset="1" stop-color="#d1e8b2"/></linearGradient><linearGradient id="linear-gradient-2" x1="54.4" y1="56.39" x2="97.6" y2="56.39" gradientUnits="userSpaceOnUse"><stop offset="0" stop-color="#fff"/><stop offset="1" stop-color="#1c75bc"/></linearGradient><linearGradient id="linear-gradient-3" x1="54.09" y1="40.23" x2="97.29" y2="40.23" xlink:href="#linear-gradient-2"/><linearGradient id="linear-gradient-4" x1="53.99" y1="72.52" x2="97.19" y2="72.52" xlink:href="#linear-gradient-2"/></defs><g id="Layer_2" data-name="Layer 2"><g id="Layer_6" data-name="Layer 6"><path class="cls-1" d="M65.73,41.79C59.82,42.4,53.31,38,53.27,33.1s3.18-9,9.14-8.42a11.85,11.85,0,0,1,2.11-9.41C67.8,11,74.1,9.1,80.37,10.47A26,26,0,0,1,99.86,0C101.5,0,112.08-.31,118.79,7.4a18.89,18.89,0,0,1,4.51,13.9c5.76-2.87,12.63-2.15,16.78,1.57,2.9,2.59,4.93,7.06,3.22,11.48s-6.53,7.39-12,7.36C108.32,41.71,88.68,41.79,65.73,41.79Z"/><line class="cls-2" x1="54.4" y1="56.39" x2="97.6" y2="56.39"/><line class="cls-3" x1="54.09" y1="40.23" x2="97.29" y2="40.23"/><line class="cls-4" x1="53.99" y1="72.52" x2="97.19" y2="72.52"/><rect class="cls-5" x="72.54" y="67.95" width="6.92" height="9.14" rx="1.27"/><rect class="cls-5" x="80.86" y="51.21" width="6.92" height="9.14" rx="1.27"/><rect class="cls-5" x="67.81" y="35.6" width="6.92" height="9.14" rx="1.27"/><rect class="cls-6" x="97.29" y="33.11" width="47" height="14.3" rx="2.72"/><rect class="cls-6" x="97.29" y="49.24" width="47" height="14.3" rx="2.72"/><rect class="cls-6" x="97.29" y="65.37" width="47" height="14.3" rx="2.72"/><circle class="cls-7" cx="117.15" cy="40.53" r="2.06"/><circle class="cls-7" cx="126.78" cy="40.53" r="2.06"/><circle class="cls-7" cx="136.2" cy="40.58" r="2.06"/><circle class="cls-7" cx="114.85" cy="56.35" r="2.06"/><circle class="cls-7" cx="105.38" cy="56.35" r="2.06"/><circle class="cls-7" cx="124.44" cy="56.29" r="2.06"/><circle class="cls-7" cx="117.34" cy="72.25" r="2.06"/><circle class="cls-7" cx="126.78" cy="72.25" r="2.06"/><circle class="cls-7" cx="136.07" cy="72.25" r="2.06"/><path class="cls-6" d="M40.45,26.92h0a6.94,6.94,0,0,0,9.53,4h0a7,7,0,0,1,9.26,9.32h0a7,7,0,0,0,3.95,9.59h0a7,7,0,0,1,0,13.18h0a7,7,0,0,0-3.95,9.59h0A7,7,0,0,1,50,81.89h0a6.94,6.94,0,0,0-9.53,4h0a6.93,6.93,0,0,1-13.09,0h0a6.94,6.94,0,0,0-9.53-4h0a7,7,0,0,1-9.26-9.32h0A7,7,0,0,0,4.62,63h0a7,7,0,0,1,0-13.18h0a7,7,0,0,0,4-9.59h0a7,7,0,0,1,9.26-9.32h0a6.94,6.94,0,0,0,9.53-4h0A6.93,6.93,0,0,1,40.45,26.92Z"/><ellipse class="cls-8" cx="34.6" cy="56.39" rx="18.33" ry="18.45"/></g></g></svg>