<svg xmlns="http://www.w3.org/2000/svg" xmlns:xlink="http://www.w3.org/1999/xlink" viewBox="0 0 145.13 74.87"><defs><style>.cls-1{fill:#033a91;}.cls-2{fill:url(#linear-gradient);}.cls-3{fill:#fff;}</style><linearGradient id="linear-gradient" y1="33.5" x2="145.13" y2="33.5" gradientUnits="userSpaceOnUse"><stop offset="0" stop-color="#fff" stop-opacity="0"/><stop offset="0.98" stop-color="#a7a8ad" stop-opacity="0.4"/></linearGradient></defs><g id="Layer_2" data-name="Layer 2"><g id="Layer_10" data-name="Layer 10"><polyline class="cls-1" points="41.1 66.94 41.1 70.72 42.23 72.84 44.35 74.16 48.79 74.58 104.76 74.3 107.78 71.48 108.54 69.16 108.54 66.61"/><path class="cls-2" d="M20,66.9C10.49,67.88.06,60.78,0,53S5.09,38.53,14.63,39.51A19,19,0,0,1,18,24.44c5.25-6.76,15.34-9.87,25.37-7.68C44.38,15.33,55,.81,74.58,0c2.64-.11,19.57-.52,30.31,11.82A30.21,30.21,0,0,1,112.1,34.1c9.23-4.59,20.23-3.44,26.87,2.5,4.65,4.16,7.89,11.31,5.16,18.39s-10.45,11.83-19.26,11.79C88.12,66.78,56.69,66.9,20,66.9Z"/><path class="cls-1" d="M43.61,65.84a1.28,1.28,0,0,0,1.28-1.28V30a5.15,5.15,0,0,1,4.58-5.46c.2,0,.47-.1.6,0,.3.21.74.49.75.77s-.4.7-.7.77c-2.87.68-3.61,1.57-3.61,4.5V65.76H103V30.26c0-2.6-.92-3.66-3.47-4.23-.34-.07-.6-.56-.9-.86.35-.23.7-.66,1-.66a5.05,5.05,0,0,1,4.92,4.9c0,1.23,0,2.46,0,3.68V64.56a1.28,1.28,0,0,0,1.28,1.28c.74,0,1.45,0,2.16,0,.87,0,1.09.37,1.26,1.19.71,3.42-1.1,5.61-3.5,7.52a2.5,2.5,0,0,1-1.43.32H60.82c-5.29,0-10.57,0-15.85,0a4.69,4.69,0,0,1-1.69-.69c-.17-.08-.29-.28-.43-.43C40,70.9,40.05,70.9,40.22,67c0-.83.38-1.17,1.19-1.14S42.86,65.84,43.61,65.84Zm-1.7,1.67c-.17,1.63-.34,3.18,1.25,4.23a3.12,3.12,0,0,1,.72.73,2.17,2.17,0,0,0,1.95.8q28.49,0,57,0a4.93,4.93,0,0,0,3.63-1.51c1.38-1.27,1.38-2.65,1.18-4.27Z"/><path class="cls-1" d="M50.84,62.4H98.67V31.46a2.29,2.29,0,0,1,0-.91c.15-.28.46-.66.72-.67s.63.32.79.6a1.88,1.88,0,0,1,.07.9v31.1c0,1.51-.1,1.6-1.65,1.6H50.87c-1.55,0-1.64-.08-1.64-1.6V31.28a1.76,1.76,0,0,1,.1-.9,1.08,1.08,0,0,1,.76-.51,1.05,1.05,0,0,1,.69.59,2.59,2.59,0,0,1,.06,1q0,14.84,0,29.66Z"/><path class="cls-1" d="M69.69,43.21c-.21.15-.46.32-.7.51-1.29,1-1.33,1-2.52-.18-.55-.56-1.09-1.12-1.67-1.66s-.66-1.1-.07-1.58c1.24-1,.6-2.06.06-3-.17-.3-.79-.44-1.21-.47-1-.06-1.48-.48-1.4-1.54a19.73,19.73,0,0,0,0-2.55c0-.91.34-1.31,1.23-1.39.45,0,1.08-.06,1.31-.35a3.91,3.91,0,0,0,.78-1.85c0-.36-.39-.83-.69-1.17a1.11,1.11,0,0,1,.09-1.83,23.92,23.92,0,0,0,1.95-1.95,1.11,1.11,0,0,1,1.77-.1,2.21,2.21,0,0,0,3,0A1.69,1.69,0,0,0,72,22.86c0-1.13.57-1.49,1.63-1.4a19.88,19.88,0,0,0,2.56,0c.8,0,1.16.31,1.24,1.12a2.36,2.36,0,0,0,2.22,2.23c.28,0,.6-.25.85-.45,1.33-1,1.32-1,2.52.18.53.53,1,1.09,1.6,1.59a1.09,1.09,0,0,1,.12,1.75,2.15,2.15,0,0,0,0,3,1.78,1.78,0,0,0,1.18.38c1,.05,1.47.5,1.4,1.54a21.86,21.86,0,0,0,0,2.56c0,.9-.33,1.3-1.22,1.37A2.39,2.39,0,0,0,84,39c0,.41.41.84.71,1.18A1.13,1.13,0,0,1,84.62,42a25.63,25.63,0,0,0-2,2A1.11,1.11,0,0,1,80.9,44a2.24,2.24,0,0,0-3,0,1.8,1.8,0,0,0-.38,1.2c0,1.13-.56,1.48-1.62,1.39a16.83,16.83,0,0,0-2.46,0c-.89.05-1.32-.3-1.36-1.22,0-.46-.06-1.11-.35-1.32A9,9,0,0,0,69.69,43.21Zm-5.83-7.93c1.88-.46,2.45.71,2.78,2.16a.41.41,0,0,0,0,.09,2.19,2.19,0,0,1-.31,3.3.11.11,0,0,0,0,.12L68,42.63c1-1.68,2.13-1,3.5-.52S73.8,43.32,73.61,45h2.31c-.22-1.67.71-2.29,2.15-2.86s2.57-.91,3.56.43l1.77-1.6c-1.59-1-1.17-2.13-.59-3.53s1.13-2.42,2.85-2.19V32.84c-1.78.31-2.23-.83-2.86-2.16s-.79-2.52.41-3.48l-1.6-1.74c-1,1.56-2.15,1-3.54.52s-2.36-1.2-2.16-2.85H73.73a1.07,1.07,0,0,0-.14.4,1.91,1.91,0,0,1-1.9,2.27.71.71,0,0,0-.37.15,2.22,2.22,0,0,1-3.38-.31s-.13,0-.14,0l-1.63,1.5c1.38,1.06,1.17,2.14.54,3.57s-1.11,2.44-2.85,2.17Z"/><path class="cls-1" d="M70.13,13.66c1.06.47,1.63-.26,2.29-1.15a11.17,11.17,0,0,1,20,7.86,1.29,1.29,0,0,0,.88,1.6,6.73,6.73,0,0,1,3.67,7.58,6.87,6.87,0,0,1-6.7,5.39c-.58,0-1.19,0-1.22-.75s.58-.85,1.21-.87a5.27,5.27,0,0,0,5.21-4.56,5.15,5.15,0,0,0-3.88-5.71c-1-.26-1.15-.71-1-1.63A9.56,9.56,0,0,0,73,14.59a1.45,1.45,0,0,1-1.8.84,8,8,0,0,0-9.4,5.92c-.41,1.49-.41,1.49-2,1.49-2.71,0-4.65,1.26-5.44,3.49a5.32,5.32,0,0,0,4.7,7c.17,0,.39-.05.51,0,.34.24.65.53,1,.79-.33.27-.64.75-1,.77a7,7,0,0,1-7.07-6.06,6.78,6.78,0,0,1,6.73-7.59,1.07,1.07,0,0,0,1.21-.88A9.61,9.61,0,0,1,70.13,13.66Z"/><path class="cls-1" d="M91,53.34c0,1.82,0,3.45,0,5.09,0,1-.35,1.36-1.33,1.31s-2,0-3,0-1.24-.35-1.22-1.22c0-1.36,0-2.72,0-4.09V53.35a15.41,15.41,0,0,1-2,0,1.19,1.19,0,0,1-.88-.49,1.09,1.09,0,0,1,.26-1c1.51-1.58,3.07-3.1,4.61-4.65a.87.87,0,0,1,1.41,0c1.55,1.55,3.1,3.07,4.61,4.65a1.13,1.13,0,0,1,.27,1,1.24,1.24,0,0,1-.89.49A15.35,15.35,0,0,1,91,53.34ZM91,51.64,88.41,49l-2.82,2.6c1.55.24,1.56.24,1.56,1.87v4.55h2.27V53.41C89.42,51.85,89.42,51.85,91,51.64Z"/><path class="cls-1" d="M58.48,53.21c0-1.7,0-3.29,0-4.89,0-1.33.15-1.47,1.45-1.48.92,0,1.84,0,2.76,0s1.3.31,1.28,1.25c0,1.66,0,3.33,0,5.14a14.68,14.68,0,0,1,1.89,0,1.49,1.49,0,0,1,1,.54c.12.21-.07.74-.29,1-1.51,1.57-3.07,3.1-4.61,4.64a.88.88,0,0,1-1.42,0c-1.52-1.51-3-3-4.54-4.56a1.24,1.24,0,0,1-.3-1,1.42,1.42,0,0,1,1-.5A12,12,0,0,1,58.48,53.21Zm.21,1.68,2.43,2.58,2.58-2.6c-1.33-.14-1.33-.14-1.33-1.72V48.51H60.1v4.64C60.1,54.74,60.1,54.74,58.69,54.89Z"/><path class="cls-1" d="M88.09,19.24c-.12.13-.39.68-.76.76-.64.15-.79-.43-.86-1a5.21,5.21,0,0,0-5-4.89c-.57-.07-1-.2-1-.88s.56-.76,1.12-.74A7,7,0,0,1,88.09,19.24Z"/><path class="cls-3" d="M74.78,71.16H71.31c-.57,0-1.06-.13-1.08-.8s.47-.82,1-.82h6.94c.56,0,1.08.11,1.08.79s-.54.84-1.14.83Z"/><path class="cls-1" d="M81.34,34.08a6.58,6.58,0,1,1-6.6-6.65A6.58,6.58,0,0,1,81.34,34.08ZM69.79,34a5,5,0,1,0,5-5A5,5,0,0,0,69.79,34Z"/></g></g></svg>