<svg xmlns="http://www.w3.org/2000/svg" xmlns:xlink="http://www.w3.org/1999/xlink" viewBox="0 0 144.29 77.98"><defs><style>.cls-1{fill:url(#linear-gradient);}.cls-2{fill:#033a91;}.cls-3,.cls-4{fill:#fff;}.cls-4{stroke:#fff;stroke-miterlimit:10;stroke-width:0.25px;}</style><linearGradient id="linear-gradient" y1="33.3" x2="144.29" y2="33.3" gradientUnits="userSpaceOnUse"><stop offset="0" stop-color="#fff" stop-opacity="0"/><stop offset="1" stop-color="#1c75bc" stop-opacity="0.3"/></linearGradient></defs><g id="Layer_2" data-name="Layer 2"><g id="Layer_9" data-name="Layer 9"><path class="cls-1" d="M19.83,66.52C10.43,67.48.06,60.43,0,52.69S5.06,38.31,14.55,39.28a18.81,18.81,0,0,1,3.36-15c5.21-6.73,15.25-9.82,25.22-7.64,1-1.42,11.52-15.85,31-16.63,2.62-.11,19.46-.52,30.13,11.75a30,30,0,0,1,7.18,22.12c9.17-4.56,20.11-3.41,26.71,2.49,4.62,4.13,7.85,11.24,5.13,18.29s-10.39,11.76-19.15,11.71C87.62,66.39,56.37,66.52,19.83,66.52Z"/><path class="cls-2" d="M75.52,18.36c-.59,2.27-1.17,4.5-1.76,6.72-.28,1.08-.61,2.14-.87,3.22-.31,1.31.22,1.86,1.52,1.52,2.76-.73,5.5-1.51,8.25-2.27,1.93-.54,1.81-.52,2,1.45.44,5.32-3.75,10.54-9.16,11.61C68.12,42.06,62.06,36,61.9,29.78A11.46,11.46,0,0,1,74.79,18.13,4.89,4.89,0,0,1,75.52,18.36ZM77,32.14c-2.28.78-4.3,1.37-6.1-.36s-1-3.78-.46-6A4.62,4.62,0,0,0,70,32.76,4.73,4.73,0,0,0,77,32.14Z"/><path class="cls-2" d="M75.15,27.57l2.35-8.65c3.12,1.14,4.89,3.29,6.43,6.2Z"/><path class="cls-2" d="M58.1,25.58,52.23,29a.57.57,0,0,0,0,1l6.11,3.3a.56.56,0,0,0,.78-.73,8.1,8.1,0,0,1-.24-6.25A.56.56,0,0,0,58.1,25.58Z"/><path class="cls-2" d="M88.27,33.1l6-3.12a.56.56,0,0,0,0-1l-6-3.57a.56.56,0,0,0-.81.69,7.9,7.9,0,0,1,.61,3,8,8,0,0,1-.65,3.28A.56.56,0,0,0,88.27,33.1Z"/><path class="cls-2" d="M49.92,29.46v4.66a8.65,8.65,0,0,0,2.52,6.29A8.52,8.52,0,0,0,58.37,43c.41,0,.81,0,1.22,0H87.73a8.61,8.61,0,0,0,6-2.27,8.43,8.43,0,0,0,2.88-6.18c0-1.61,0-3.22,0-4.83v-.32h3.86a1.92,1.92,0,0,1,2,2V58.56H44.1V31.37A1.91,1.91,0,0,1,46,29.45c1.29,0,2.57,0,3.86,0ZM73.3,45H65l-.8,0a4.83,4.83,0,0,0-4.47,4.41c-.05.79,0,1.59,0,2.38a4.85,4.85,0,0,0,4.83,4.83H82a4.85,4.85,0,0,0,4.49-3,4.72,4.72,0,0,0,.35-1.82,21,21,0,0,0,0-2.51A4.81,4.81,0,0,0,82,45Z"/><path class="cls-2" d="M65.49,74.09v-.27c0-1.11,0-2.23,0-3.34,0-.21-.06-.26-.27-.26q-9.54,0-19.08,0a1.94,1.94,0,0,1-2-1.64,1.36,1.36,0,0,1,0-.2V62.6s0-.09,0-.14h58.35v5.77a1.93,1.93,0,0,1-1.95,2,1.62,1.62,0,0,1-.22,0H81.09v3.87h7.7A1.95,1.95,0,1,1,88.9,78H57.66a1.94,1.94,0,0,1-.21-3.86,3.4,3.4,0,0,1,.45,0h7.59Zm11.67,0V70.24H69.4v3.84Z"/><path class="cls-2" d="M73.3,48.66H84.15c.82,0,1.33.44,1.33,1.15s0,1.32,0,2a1.16,1.16,0,0,1-1.31,1.15H62.41a1.18,1.18,0,0,1-1.32-1.15v-2a1.15,1.15,0,0,1,1.3-1.13Z"/><path class="cls-3" d="M64.06,51.42H76.19a.63.63,0,0,0,0-1.25H64.06a.63.63,0,0,0,0,1.25Z"/><circle class="cls-4" cx="78.63" cy="50.8" r="0.6"/><circle class="cls-4" cx="80.55" cy="50.8" r="0.6"/><circle class="cls-4" cx="82.5" cy="50.8" r="0.6"/></g></g></svg>