<svg xmlns="http://www.w3.org/2000/svg" xmlns:xlink="http://www.w3.org/1999/xlink" viewBox="0 0 141.96 142.88"><defs><style>.cls-1,.cls-2,.cls-3{fill:#727272;stroke-width:2px;}.cls-1,.cls-2,.cls-3,.cls-4{stroke-miterlimit:10;}.cls-1{stroke:url(#linear-gradient);}.cls-2{stroke:url(#linear-gradient-2);}.cls-3{stroke:url(#linear-gradient-3);}.cls-4,.cls-5{fill:#033a91;}.cls-4{stroke:#fff;}.cls-6{fill:snow;}.cls-7{fill:none;}.cls-8{fill:#21409a;}</style><linearGradient id="linear-gradient" x1="33.36" y1="71.72" x2="71.48" y2="71.72" gradientUnits="userSpaceOnUse"><stop offset="0" stop-color="#fff" stop-opacity="0"/><stop offset="0.1" stop-color="#c9d0e6" stop-opacity="0.24"/><stop offset="0.22" stop-color="#96a4cf" stop-opacity="0.47"/><stop offset="0.35" stop-color="#6b80bc" stop-opacity="0.67"/><stop offset="0.48" stop-color="#4a64ad" stop-opacity="0.81"/><stop offset="0.62" stop-color="#3350a2" stop-opacity="0.92"/><stop offset="0.79" stop-color="#25449c" stop-opacity="0.98"/><stop offset="1" stop-color="#21409a"/></linearGradient><linearGradient id="linear-gradient-2" x1="34.03" y1="59.78" x2="72.15" y2="59.78" xlink:href="#linear-gradient"/><linearGradient id="linear-gradient-3" x1="32.88" y1="83.45" x2="71" y2="83.45" xlink:href="#linear-gradient"/></defs><g id="Layer_2" data-name="Layer 2"><g id="Layer_6" data-name="Layer 6"><line class="cls-1" x1="33.36" y1="71.72" x2="71.48" y2="71.72"/><line class="cls-2" x1="34.03" y1="59.78" x2="72.15" y2="59.78"/><line class="cls-3" x1="32.88" y1="83.45" x2="71" y2="83.45"/><rect class="cls-4" x="49.25" y="79.42" width="6.11" height="8.07" rx="1.27"/><rect class="cls-4" x="56.71" y="67.15" width="6.11" height="8.07" rx="1.27"/><rect class="cls-4" x="60.46" y="55.75" width="6.11" height="8.07" rx="1.27"/><rect class="cls-5" x="70.51" y="54.49" width="34.78" height="10.58" rx="2.45"/><rect class="cls-5" x="70.51" y="66.43" width="34.78" height="10.58" rx="2.45"/><rect class="cls-5" x="70.51" y="78.37" width="34.78" height="10.58" rx="2.45"/><circle class="cls-6" cx="85.21" cy="59.98" r="1.52"/><circle class="cls-6" cx="92.34" cy="59.98" r="1.52"/><circle class="cls-6" cx="99.3" cy="60.02" r="1.52"/><circle class="cls-6" cx="83.5" cy="71.69" r="1.52"/><circle class="cls-6" cx="76.5" cy="71.69" r="1.52"/><circle class="cls-6" cx="90.6" cy="71.64" r="1.52"/><circle class="cls-6" cx="85.35" cy="83.45" r="1.52"/><circle class="cls-6" cx="92.34" cy="83.45" r="1.52"/><circle class="cls-6" cx="99.2" cy="83.45" r="1.52"/><ellipse class="cls-7" cx="72.44" cy="71.44" rx="38.38" ry="38.63"/><path class="cls-8" d="M132.29,57.65h0A14.68,14.68,0,0,1,124,37.56h0c5.88-12.44-7-25.42-19.38-19.51h0a14.51,14.51,0,0,1-20-8.31h0a14.52,14.52,0,0,0-27.42,0h0a14.51,14.51,0,0,1-20,8.31C25,12.14,12.06,25.12,17.94,37.56h0A14.68,14.68,0,0,1,9.67,57.65h0c-12.89,4.61-12.89,23,0,27.59h0a14.67,14.67,0,0,1,8.27,20.08c-5.88,12.44,7,25.43,19.38,19.51h0a14.51,14.51,0,0,1,20,8.32h0a14.52,14.52,0,0,0,27.42,0,14.51,14.51,0,0,1,20-8.32h0c12.36,5.92,25.26-7.07,19.38-19.51h0a14.67,14.67,0,0,1,8.27-20.08h0C145.18,80.62,145.18,62.26,132.29,57.65ZM72.44,110.07a38.63,38.63,0,1,1,38.38-38.63A38.5,38.5,0,0,1,72.44,110.07Z"/><path class="cls-5" d="M46.54,58.08c-.77.08-1.61-.5-1.62-1.13a1,1,0,0,1,1.19-1.1,1.53,1.53,0,0,1,.27-1.22A2.05,2.05,0,0,1,48.44,54,3.4,3.4,0,0,1,51,52.65a3.21,3.21,0,0,1,2.46,1A2.44,2.44,0,0,1,54,55.42a2,2,0,0,1,2.18.2,1.37,1.37,0,0,1,.42,1.49,1.65,1.65,0,0,1-1.57,1Z"/><path class="cls-5" d="M39.05,64.45c-.41,0-.87-.27-.88-.61a.56.56,0,0,1,.65-.6.79.79,0,0,1,.15-.66,1.11,1.11,0,0,1,1.11-.34,1.85,1.85,0,0,1,1.38-.73,1.69,1.69,0,0,1,1.33.52,1.34,1.34,0,0,1,.32,1,1.07,1.07,0,0,1,1.18.11.75.75,0,0,1,.23.81.88.88,0,0,1-.85.51Z"/><path class="cls-5" d="M48.87,69.84c-.42,0-.88-.27-.88-.61a.55.55,0,0,1,.65-.59.81.81,0,0,1,.15-.67,1.11,1.11,0,0,1,1.11-.34,1.84,1.84,0,0,1,1.37-.73,1.73,1.73,0,0,1,1.34.52,1.34,1.34,0,0,1,.32,1,1.09,1.09,0,0,1,1.18.11.75.75,0,0,1,.23.81.89.89,0,0,1-.85.52Z"/><path class="cls-5" d="M37.45,80c-.76.08-1.6-.49-1.61-1.12A1,1,0,0,1,37,77.77a1.55,1.55,0,0,1,.27-1.21,2.08,2.08,0,0,1,2.05-.62,3.38,3.38,0,0,1,2.51-1.35,3.22,3.22,0,0,1,2.44,1,2.42,2.42,0,0,1,.58,1.79,2,2,0,0,1,2.16.2A1.35,1.35,0,0,1,47.45,79a1.64,1.64,0,0,1-1.55,1Z"/><path class="cls-5" d="M45.09,87c-.25,0-.53-.16-.53-.37a.34.34,0,0,1,.39-.36.47.47,0,0,1,.09-.39.64.64,0,0,1,.66-.2,1.11,1.11,0,0,1,.83-.45,1,1,0,0,1,.79.32.77.77,0,0,1,.19.58.64.64,0,0,1,.71.07.43.43,0,0,1,.14.48.53.53,0,0,1-.51.31Z"/></g></g></svg>