<svg xmlns="http://www.w3.org/2000/svg" viewBox="0 0 123.77 119.93"><defs><style>.cls-1{fill:#21409a;}.cls-2{fill:#033a91;stroke:#fff;stroke-miterlimit:10;}.cls-3{fill:snow;}.cls-4{fill:#fff;}</style></defs><g id="Layer_2" data-name="Layer 2"><g id="Layer_2-2" data-name="Layer 2"><path class="cls-1" d="M121.74,25.18a8.4,8.4,0,0,1-2.53-11.1L120.44,12,116.09,6.5l-2.35.72a8.38,8.38,0,0,1-10.25-4.94L102.59,0h-7l-.9,2.28A8.38,8.38,0,0,1,84.46,7.22L82.11,6.5,77.76,12,79,14.08a8.4,8.4,0,0,1-2.54,11.1l-2,1.38c.75,3.32.79,3.49,1.55,6.8l2.43.38a8.38,8.38,0,0,1,7.09,8.89l-.18,2.45,6.29,3,1.8-1.67a8.38,8.38,0,0,1,11.38,0l1.8,1.67,6.29-3-.18-2.45a8.38,8.38,0,0,1,7.09-8.89l2.43-.38c.76-3.31.79-3.48,1.55-6.8ZM99.1,39.24a15.19,15.19,0,1,1,15.18-15.19A15.19,15.19,0,0,1,99.1,39.24Z"/><rect class="cls-2" x="0.84" y="19.97" width="102.32" height="31.12" rx="2.45"/><rect class="cls-2" x="0.84" y="55.09" width="102.32" height="31.12" rx="2.45"/><circle class="cls-3" cx="87.97" cy="35.53" r="4.48"/><circle class="cls-3" cx="73.2" cy="35.53" r="4.48"/><path class="cls-4" d="M12.83,40.53h45.9a5,5,0,0,0,0-10H12.83a5,5,0,0,0,0,10Z"/><circle class="cls-3" cx="14.13" cy="71.04" r="4.48"/><circle class="cls-3" cx="28.89" cy="71.04" r="4.48"/><path class="cls-4" d="M91.18,66H44.42a5,5,0,0,0,0,10H91.18a5,5,0,0,0,0-10Z"/><rect class="cls-2" x="0.5" y="88.31" width="102.32" height="31.12" rx="2.45" transform="translate(103.32 207.74) rotate(-180)"/><circle class="cls-3" cx="89.53" cy="103.47" r="4.48"/><circle class="cls-3" cx="74.77" cy="103.47" r="4.48"/><path class="cls-4" d="M12.83,108.47H59.24a5,5,0,0,0,0-10H12.83a5,5,0,0,0,0,10Z"/></g></g></svg>