<?xml version="1.0" standalone="no"?>
<!DOCTYPE svg PUBLIC "-//W3C//DTD SVG 20010904//EN"
 "http://www.w3.org/TR/2001/REC-SVG-20010904/DTD/svg10.dtd">
<svg version="1.0" xmlns="http://www.w3.org/2000/svg"
 width="150.000000pt" height="150.000000pt" viewBox="0 0 150.000000 150.000000"
 preserveAspectRatio="xMidYMid meet">

<g transform="translate(0.000000,150.000000) scale(0.100000,-0.100000)"
fill="#000000" stroke="none">
<path d="M800 1210 c0 -5 -24 -10 -52 -11 -39 -1 -47 -3 -28 -8 l25 -7 -25 -6
c-14 -3 -34 -9 -45 -13 -18 -6 -19 -5 -3 7 15 13 15 15 0 25 -13 8 -21 6 -31
-5 -12 -12 -11 -13 8 -7 29 9 26 3 -10 -24 l-31 -23 7 23 7 24 -21 -24 c-11
-13 -21 -29 -21 -35 0 -6 4 -4 10 4 5 8 12 11 15 8 4 -4 0 -17 -9 -30 -9 -12
-16 -29 -16 -38 1 -8 7 -1 15 15 7 17 14 24 14 17 1 -8 12 0 26 16 68 81 191
65 241 -31 8 -15 19 -25 24 -22 6 4 11 -11 11 -32 l2 -38 6 40 c5 33 13 43 46
62 52 29 87 29 123 -2 17 -14 34 -25 40 -25 24 0 30 -81 7 -100 -20 -17 -33
-5 -27 25 5 30 -22 65 -51 65 -12 0 -17 5 -14 14 9 22 -18 40 -32 22 -7 -8 -8
-17 -3 -20 6 -3 2 -22 -9 -43 -11 -22 -16 -46 -13 -58 6 -19 6 -19 -12 -4 -11
9 -34 19 -52 21 -28 4 -35 1 -47 -22 -8 -15 -28 -39 -44 -53 -24 -20 -27 -26
-15 -31 18 -7 660 -8 653 -1 -3 2 -150 5 -327 5 -213 1 -320 4 -316 11 3 6 11
8 17 6 7 -3 22 5 35 16 16 15 25 18 33 10 14 -14 39 -6 39 12 0 7 -7 15 -15
19 -8 3 -15 1 -15 -3 0 -5 6 -12 13 -14 7 -3 5 -6 -5 -6 -21 -1 -24 27 -4 35
21 8 67 -26 61 -45 -4 -13 6 -16 64 -19 64 -2 70 -1 90 24 12 15 21 40 21 57
0 39 20 23 24 -19 2 -16 7 -29 12 -30 5 0 27 -9 49 -18 32 -15 46 -16 76 -7
20 6 45 8 54 5 13 -5 16 -2 13 17 -4 32 44 51 69 27 17 -18 11 -52 -9 -46 -16
6 -23 28 -8 28 6 0 8 -6 4 -12 -5 -10 -4 -10 6 -1 16 14 4 34 -16 26 -8 -3
-14 -15 -12 -27 4 -26 36 -28 52 -4 26 42 -42 75 -90 43 -24 -15 -24 -15 -24
14 0 32 -30 61 -62 61 -24 0 -48 -28 -48 -56 0 -31 42 -53 65 -34 19 16 19 39
-1 47 -17 6 -42 -13 -30 -24 4 -4 11 -1 15 6 5 8 11 9 15 3 3 -5 -1 -15 -9
-22 -12 -10 -18 -10 -30 0 -23 19 -18 49 10 62 58 26 91 -69 35 -101 -23 -12
-30 -12 -63 4 -20 9 -37 23 -37 30 0 7 -4 15 -8 17 -4 2 -18 20 -31 41 l-23
37 31 -17 c33 -20 59 -8 48 22 -6 13 -10 13 -26 3 -18 -11 -24 -9 -48 14 -41
38 -66 48 -118 48 -50 0 -77 -10 -112 -43 -19 -17 -23 -18 -23 -5 0 9 3 18 8
21 4 2 1 2 -6 0 -9 -2 -11 3 -8 15 4 11 -2 28 -15 43 -20 23 -21 23 -15 2 4
-12 2 -24 -5 -29 -7 -4 -9 -3 -5 4 3 6 -6 20 -20 31 -15 12 -22 21 -15 21 6 0
11 5 11 12 0 9 -3 9 -12 0 -17 -17 -29 -15 -22 3 4 8 3 15 0 15 -3 0 -6 -4 -6
-10z m-17 -27 c-7 -2 -19 -2 -25 0 -7 3 -2 5 12 5 14 0 19 -2 13 -5z m58 -24
c19 -16 20 -18 4 -10 -34 17 -51 31 -39 31 7 0 22 -9 35 -21z m-181 -2 c0 -2
-12 -14 -27 -28 -24 -22 -24 -13 0 19 8 11 27 17 27 9z m237 -54 l1 -38 -14
28 c-8 15 -12 32 -9 37 12 20 21 9 22 -27z m188 -69 c25 -25 15 -58 -17 -62
-23 -3 -28 1 -28 17 0 12 5 21 10 21 6 0 9 -3 8 -7 -2 -5 2 -9 7 -10 6 -2 10
3 10 10 0 19 -42 20 -49 1 -10 -25 23 -56 51 -49 13 3 23 1 23 -5 0 -5 8 -10
18 -10 14 0 15 -2 2 -10 -23 -15 -73 -12 -98 6 -15 10 -22 25 -22 49 0 57 49
85 85 49z m-185 -58 c0 -8 -11 -28 -25 -43 l-25 -28 23 42 c24 47 27 50 27 29z"/>
<path d="M390 1123 c-8 -3 -31 -19 -51 -34 -39 -31 -59 -36 -59 -18 0 8 -5 7
-16 -1 -13 -12 -13 -15 1 -29 12 -13 19 -13 35 -3 11 6 22 12 26 12 5 0 -34
-60 -46 -70 -4 -3 -9 -13 -13 -23 -17 -46 -111 -40 -123 8 -11 46 39 92 71 65
31 -25 6 -84 -26 -64 -15 9 -10 24 6 18 10 -4 15 0 15 11 0 10 -6 15 -17 13
-27 -5 -24 -52 4 -56 19 -3 53 29 53 50 0 16 -40 48 -60 48 -25 0 -60 -38 -60
-66 0 -12 -7 -27 -15 -34 -18 -15 -10 -31 10 -23 9 3 29 0 46 -7 23 -10 39
-10 70 -1 21 6 39 16 39 21 0 6 6 9 13 8 6 -2 11 2 10 9 -2 6 4 24 12 40 14
26 15 27 15 5 0 -32 26 -79 48 -86 10 -3 43 -5 75 -3 43 1 56 5 52 15 -6 16
33 51 56 52 17 0 32 -23 22 -34 -13 -12 -22 -5 -16 12 6 15 5 15 -11 3 -15
-13 -15 -16 -2 -29 12 -13 18 -13 30 -2 13 10 19 9 33 -7 10 -10 15 -14 11 -9
-20 26 -5 27 22 1 24 -23 39 -29 87 -31 l58 -3 -50 8 c-59 8 -86 22 -114 57
-13 16 -21 21 -22 13 0 -8 -6 -2 -12 13 -12 25 -13 26 -50 13 -36 -12 -37 -12
-37 10 0 12 -9 34 -20 48 -13 16 -16 28 -10 32 17 11 11 25 -11 25 -16 0 -20
-5 -16 -20 4 -14 0 -20 -12 -20 -31 0 -56 -27 -56 -61 0 -40 -21 -49 -36 -16
-14 31 -4 76 19 84 9 3 29 17 44 31 22 21 33 24 65 19 20 -4 51 -16 67 -28 22
-17 28 -18 23 -6 -3 9 -3 18 1 20 4 2 2 2 -5 1 -7 -2 -25 3 -40 11 -28 15
-104 19 -133 8z m90 -93 c26 -26 25 -51 -1 -84 -16 -20 -29 -26 -59 -26 -20 0
-43 6 -49 14 -10 12 -8 13 8 9 13 -3 21 -1 21 7 0 7 7 10 16 6 25 -9 56 12 52
37 -4 30 -48 37 -48 8 0 -12 5 -21 10 -21 6 0 10 8 10 17 0 12 3 14 11 6 15
-15 3 -33 -20 -33 -28 0 -44 25 -32 48 19 36 52 41 81 12z"/>
<path d="M810 1091 c-5 -11 -10 -24 -10 -30 0 -23 -21 -62 -30 -56 -7 4 -7 14
1 28 10 21 10 21 -6 2 -8 -10 -14 -24 -12 -29 5 -15 55 -17 63 -4 4 7 2 8 -4
4 -16 -10 -15 13 3 63 15 43 13 54 -5 22z"/>
<path d="M670 1075 c-7 -8 -19 -15 -26 -15 -8 0 -14 -6 -14 -14 0 -8 -3 -23
-6 -33 -4 -12 -3 -14 3 -6 6 9 13 3 22 -22 7 -20 19 -35 29 -35 14 0 14 1 -1
13 -10 6 -21 26 -26 42 -7 25 -4 35 17 58 14 15 23 27 20 27 -3 0 -11 -7 -18
-15z"/>
<path d="M831 1074 c0 -11 3 -14 6 -6 3 7 2 16 -1 19 -3 4 -6 -2 -5 -13z"/>
<path d="M677 1043 c-15 -15 -7 -49 12 -49 11 0 17 4 15 8 -3 4 0 17 6 28 9
17 8 20 -8 20 -10 0 -22 -3 -25 -7z m15 -25 c-7 -7 -12 -8 -12 -2 0 14 12 26
19 19 2 -3 -1 -11 -7 -17z"/>
<path d="M726 1028 c-3 -13 0 -27 6 -33 8 -7 9 -6 4 2 -4 7 -2 22 4 33 6 11 7
20 2 20 -6 0 -12 -10 -16 -22z"/>
<path d="M845 1041 c-3 -5 -1 -12 5 -16 17 -11 11 -28 -7 -20 -15 5 -16 4 -5
-6 18 -19 40 4 23 25 -9 11 -9 15 1 19 9 4 9 6 1 6 -6 1 -14 -3 -18 -8z"/>
<path d="M892 1030 c0 -14 2 -19 5 -12 2 6 2 18 0 25 -3 6 -5 1 -5 -13z"/>
<path d="M18 965 c-8 -19 -8 -28 2 -40 16 -20 46 -19 54 1 9 24 -13 47 -30 33
-14 -12 -10 -29 7 -29 6 0 7 5 3 12 -5 7 -3 8 5 3 9 -5 10 -10 2 -18 -8 -8
-16 -7 -28 5 -14 14 -14 19 -3 33 13 16 31 16 75 0 20 -7 20 -6 1 9 -31 25
-74 21 -88 -9z"/>
<path d="M330 890 l-315 -5 328 -3 c217 -1 326 1 322 8 -3 6 -9 9 -13 8 -4 -2
-149 -5 -322 -8z"/>
<path d="M360 870 c-198 -4 -62 -6 390 -6 382 -1 684 1 670 2 -46 7 -752 9
-1060 4z"/>
<path d="M55 725 c0 -88 1 -95 20 -95 19 0 20 6 17 90 -3 71 -1 90 10 90 38 0
50 -50 21 -84 -18 -20 -18 -20 6 -5 59 38 39 99 -32 99 l-42 0 0 -95z"/>
<path d="M1075 725 c0 -94 0 -95 25 -95 19 0 21 3 12 12 -16 16 -15 68 1 68 8
0 28 -18 46 -40 24 -30 39 -40 61 -40 17 0 29 3 29 8 -5 32 3 42 35 42 28 0
35 -4 40 -25 4 -16 13 -25 26 -25 19 0 19 1 1 33 -10 17 -27 53 -36 80 -10 26
-21 47 -24 47 -4 0 -19 -34 -35 -75 -16 -41 -32 -75 -36 -75 -5 0 -22 17 -38
38 -27 33 -29 39 -16 57 17 23 18 57 2 73 -7 7 -30 12 -52 12 l-41 0 0 -95z
m79 52 c8 -21 6 -31 -6 -44 -25 -24 -48 -9 -48 30 0 19 3 37 7 41 14 14 38 0
47 -27z m150 -78 c-6 -10 -35 -4 -34 7 0 5 3 18 6 28 6 18 7 18 19 -5 7 -13
11 -27 9 -30z"/>
<path d="M208 710 c-3 -75 -2 -80 17 -80 18 0 20 5 17 35 -5 44 8 44 42 0 15
-19 35 -35 45 -35 15 0 12 7 -15 35 -32 35 -33 36 -16 64 22 39 4 61 -48 61
l-38 0 -4 -80z m71 53 c11 -21 -3 -53 -24 -53 -10 0 -15 11 -15 35 0 38 22 48
39 18z"/>
<path d="M370 710 c0 -70 2 -80 18 -80 15 0 17 10 17 80 0 70 -2 80 -17 80
-16 0 -18 -10 -18 -80z"/>
<path d="M440 782 c0 -5 14 -6 31 -4 l31 5 -4 -77 c-3 -75 -3 -76 22 -76 19 0
21 3 12 12 -7 7 -12 40 -12 76 l0 64 30 -4 c17 -3 30 -1 30 4 0 4 -31 8 -70 8
-38 0 -70 -4 -70 -8z"/>
<path d="M615 710 c0 -74 2 -80 20 -80 18 0 20 5 17 40 l-4 40 42 0 42 0 -4
-40 c-3 -35 -1 -40 17 -40 19 0 20 5 17 80 -3 68 -6 80 -21 80 -14 0 -16 -7
-13 -35 4 -35 4 -35 -37 -35 -40 0 -41 1 -41 35 0 27 -4 35 -17 35 -16 0 -18
-10 -18 -80z"/>
<path d="M803 778 c3 -7 17 -42 32 -78 33 -79 32 -78 44 -49 5 13 21 50 35 82
18 41 22 57 13 57 -8 0 -14 -6 -14 -12 0 -7 -9 -35 -20 -62 l-19 -48 -19 48
c-10 27 -18 54 -18 61 0 7 -9 13 -20 13 -11 0 -17 -5 -14 -12z"/>
<path d="M975 710 c0 -64 3 -80 15 -80 12 0 15 16 15 80 0 64 -3 80 -15 80
-12 0 -15 -16 -15 -80z"/>
<path d="M1400 697 c0 -59 -4 -97 -12 -105 -7 -7 -9 -12 -5 -12 3 0 15 10 27
22 17 18 20 35 20 105 0 67 -3 83 -15 83 -12 0 -15 -17 -15 -93z"/>
<path d="M203 556 l-2 -31 14 25 c18 31 18 37 3 37 -7 0 -14 -14 -15 -31z"/>
<path d="M247 576 c-4 -10 -7 -25 -6 -34 0 -12 2 -13 6 -3 5 11 7 11 14 0 7
-12 9 -11 8 1 0 8 -4 24 -8 34 -7 18 -8 18 -14 2z"/>
<path d="M355 575 c-3 -8 -7 -22 -10 -30 -2 -8 0 -15 5 -15 6 0 10 9 10 19 0
11 5 23 11 27 8 5 10 -2 6 -22 -5 -26 -4 -27 9 -10 10 14 11 23 3 33 -15 17
-29 17 -34 -2z"/>
<path d="M442 561 c-6 -17 -7 -31 -3 -31 10 0 25 50 18 57 -3 2 -9 -10 -15
-26z"/>
<path d="M696 565 c-4 -15 -5 -30 -1 -33 3 -3 5 0 5 8 0 10 3 10 15 0 18 -15
19 -3 1 29 l-13 24 -7 -28z"/>
<path d="M826 577 c-4 -9 -8 -24 -11 -33 -3 -8 0 -12 5 -9 6 3 10 14 11 23 1
11 4 8 9 -8 7 -21 8 -21 9 -5 0 11 -3 27 -9 35 -8 12 -10 12 -14 -3z"/>
<path d="M1042 578 c-15 -15 -16 -48 -1 -48 5 0 7 4 4 10 -3 5 -1 19 5 30 12
23 10 26 -8 8z"/>
<path d="M292 558 c-15 -15 -15 -28 -1 -28 5 0 7 5 4 10 -3 6 1 10 9 10 9 0
16 5 16 10 0 14 -13 13 -28 -2z"/>
<path d="M412 558 c-15 -15 -15 -28 -1 -28 5 0 8 4 5 9 -4 5 0 11 6 14 7 2 10
7 7 10 -3 4 -11 1 -17 -5z"/>
<path d="M496 563 c-4 -5 -13 -8 -18 -8 -6 0 -12 -6 -14 -13 -1 -7 0 -8 3 -2
3 7 10 7 21 -2 10 -7 14 -8 10 -4 -4 5 -3 15 3 23 12 14 8 18 -5 6z"/>
<path d="M592 550 c0 -14 2 -19 5 -12 2 6 2 18 0 25 -3 6 -5 1 -5 -13z"/>
<path d="M866 553 c-9 -23 -7 -30 4 -13 5 8 10 10 10 4 0 -15 28 -14 34 2 3 7
-6 14 -19 16 -15 3 -26 0 -29 -9z"/>
<path d="M957 563 c-4 -3 -7 -13 -7 -22 1 -13 3 -13 11 2 11 19 8 33 -4 20z"/>
<path d="M1087 563 c-12 -11 -8 -33 7 -33 14 0 30 29 21 38 -3 3 -5 -1 -5 -9
0 -11 -2 -11 -8 -1 -5 7 -11 9 -15 5z"/>
<path d="M1223 563 c-7 -2 -13 -9 -13 -14 0 -6 4 -8 9 -5 5 4 12 0 14 -6 3 -7
6 -3 6 10 1 12 0 22 -1 21 -2 0 -9 -3 -15 -6z"/>
<path d="M1262 558 c-15 -15 -15 -28 -1 -28 5 0 7 5 4 10 -3 6 1 10 9 10 9 0
16 5 16 10 0 14 -13 13 -28 -2z"/>
<path d="M521 542 c0 -12 2 -13 6 -3 4 10 7 11 13 1 10 -16 40 -6 39 12 0 10
-2 10 -6 1 -2 -7 -9 -13 -14 -13 -6 0 -8 4 -5 8 2 4 -4 9 -15 9 -12 1 -19 -4
-18 -15z"/>
<path d="M611 544 c0 -11 3 -14 6 -6 3 7 2 16 -1 19 -3 4 -6 -2 -5 -13z"/>
<path d="M640 545 c7 -9 15 -13 17 -11 7 7 -7 26 -19 26 -6 0 -6 -6 2 -15z"/>
<path d="M741 548 c-1 -23 25 -23 33 -2 5 14 4 15 -8 5 -11 -9 -15 -9 -19 1
-4 8 -6 7 -6 -4z"/>
<path d="M931 544 c0 -11 3 -14 6 -6 3 7 2 16 -1 19 -3 4 -6 -2 -5 -13z"/>
<path d="M980 545 c0 -8 2 -15 4 -15 2 0 6 7 10 15 3 8 1 15 -4 15 -6 0 -10
-7 -10 -15z"/>
<path d="M1131 544 c0 -11 3 -14 6 -6 3 7 2 16 -1 19 -3 4 -6 -2 -5 -13z"/>
<path d="M1156 545 c4 -8 8 -15 10 -15 2 0 4 7 4 15 0 8 -4 15 -10 15 -5 0 -7
-7 -4 -15z"/>
<path d="M1185 549 c-4 -6 -5 -12 -2 -15 2 -3 7 2 10 11 7 17 1 20 -8 4z"/>
<path d="M190 490 c0 -7 189 -10 546 -10 361 0 543 3 539 10 -9 14 -1085 14
-1085 0z"/>
<path d="M288 463 c23 -2 59 -2 80 0 20 2 1 4 -43 4 -44 0 -61 -2 -37 -4z"/>
<path d="M398 448 c-21 -26 -7 -51 26 -46 24 3 29 33 6 33 -8 0 -14 -6 -12
-12 1 -7 -3 -13 -9 -13 -6 0 -9 8 -7 18 5 25 50 27 73 2 10 -11 13 -20 7 -20
-7 0 -12 -4 -12 -10 0 -5 7 -10 16 -10 9 0 29 -10 46 -21 23 -17 39 -20 79
-17 47 5 51 3 87 -36 l37 -41 38 41 c35 39 40 41 82 37 33 -4 53 0 80 16 20
11 43 21 52 21 12 0 13 3 4 13 -15 19 19 50 51 45 22 -3 40 -38 19 -38 -6 0
-10 6 -9 12 2 7 -4 13 -12 13 -22 0 -19 -29 4 -33 30 -6 42 14 26 43 -18 33
-46 32 -81 -4 l-28 -29 -15 23 c-15 23 -15 24 22 28 20 2 6 4 -32 4 -46 1 -74
-3 -83 -12 -21 -22 -15 -27 12 -9 23 15 27 15 51 0 14 -10 28 -24 31 -33 10
-24 -33 -53 -78 -53 -32 0 -39 3 -39 20 0 23 3 24 30 8 15 -10 25 -10 38 -2
24 16 21 38 -5 42 -13 2 -23 -2 -23 -8 0 -7 8 -9 20 -5 23 7 28 -10 5 -19 -22
-8 -40 2 -55 30 -7 13 -18 24 -24 25 -6 1 0 5 14 9 19 6 12 8 -32 9 -36 1 -58
-3 -61 -11 -4 -10 -6 -10 -6 0 -1 8 -19 12 -58 11 -35 -1 -49 -4 -37 -7 17 -6
19 -9 9 -19 -9 -8 -15 -7 -26 8 -11 16 -25 19 -84 17 -40 -1 -54 -3 -32 -5 37
-4 37 -4 20 -27 l-17 -22 -26 28 c-32 33 -59 35 -82 6z m203 2 c10 -6 19 -19
19 -30 0 -10 5 -22 10 -25 6 -3 10 -13 10 -21 0 -21 -72 -18 -100 4 -27 22
-21 54 13 70 28 14 25 14 48 2z m104 -3 c-13 -11 -15 -16 -6 -22 7 -4 18 -2
24 4 7 7 14 7 23 0 7 -6 19 -7 25 -3 9 5 7 11 -6 21 -18 12 -17 13 8 13 17 0
32 -9 42 -24 15 -22 15 -27 1 -53 -8 -15 -30 -40 -49 -55 l-34 -26 -41 38
c-31 28 -42 45 -42 67 0 36 16 53 49 53 23 0 24 -1 6 -13z m-265 -27 c0 -5 -2
-10 -4 -10 -3 0 -8 5 -11 10 -3 6 -1 10 4 10 6 0 11 -4 11 -10z m610 6 c0 -3
-4 -8 -10 -11 -5 -3 -10 -1 -10 4 0 6 5 11 10 11 6 0 10 -2 10 -4z"/>
<path d="M555 420 c-9 -15 14 -40 36 -40 10 0 21 5 25 12 5 8 2 9 -9 5 -20 -8
-47 1 -47 15 0 5 9 6 20 3 11 -4 20 -2 20 4 0 14 -37 14 -45 1z"/>
<path d="M696 401 c-32 -14 -36 -19 -24 -29 12 -10 18 -8 33 8 23 25 37 25 60
0 10 -11 22 -17 26 -14 16 10 9 20 -23 36 -30 14 -37 13 -72 -1z"/>
<path d="M722 362 c-10 -21 -10 -29 1 -40 22 -21 37 6 23 40 l-11 26 -13 -26z"/>
<path d="M1108 463 c23 -2 59 -2 80 0 20 2 1 4 -43 4 -44 0 -61 -2 -37 -4z"/>
</g>
</svg>
