<?xml version="1.0" encoding="utf-8"?>
<!-- Generator: Adobe Illustrator 22.0.1, SVG Export Plug-In . SVG Version: 6.00 Build 0)  -->
<svg version="1.1" id="Layer_1" xmlns="http://www.w3.org/2000/svg" xmlns:xlink="http://www.w3.org/1999/xlink" x="0px" y="0px"
	 viewBox="0 0 50 50" style="enable-background:new 0 0 50 50;" xml:space="preserve">
<style type="text/css">
	.st0{display:none;}
	.st1{display:inline;}
	.st2{fill:#6B7F9E;}
	.st3{fill:none;}
	.st4{fill:none;stroke:#FFFFFF;stroke-width:2;stroke-linecap:round;stroke-linejoin:round;}
	.st5{fill:#FFFFFF;}
	.st6{display:inline;fill:#6B7F9E;}
	.st7{fill:#6B7F9E;stroke:#FFFFFF;stroke-width:0.75;stroke-miterlimit:10;}
	.st8{fill:none;stroke:#FFFFFF;stroke-width:0.75;stroke-miterlimit:10;}
</style>
<g class="st0">
	<g class="st1">
		<g>
			<title></title>
			<circle class="st2" cx="20.8" cy="23.5" r="19.3"/>
			<circle class="st3" cx="20.8" cy="23.5" r="19.3"/>
			<ellipse class="st4" cx="20.8" cy="23.5" rx="7.2" ry="19.3"/>
			<line class="st4" x1="39.2" y1="16.2" x2="2.1" y2="16.2"/>
			<line class="st4" x1="39.2" y1="30.7" x2="2.1" y2="30.7"/>
		</g>
		<g class="st0">
			<g class="st1">
				<path class="st2" d="M47.1,41.5c-0.6,0-1-0.5-1-1v-4l-7.4,4.8c-0.2,0.1-0.4,0.2-0.6,0.2c-0.7,0-1.2-0.5-1.2-1.2v-1.9l-4.4,2.9
					c-0.2,0.1-0.4,0.2-0.6,0.2c-0.7,0-1.2-0.5-1.2-1.2V27.7c0-0.7,0.5-1.3,1.2-1.3c0.2,0,0.5,0.1,0.6,0.2l4.4,2.9v-1.8
					c0-0.7,0.5-1.2,1.2-1.2c0.2,0,0.5,0.1,0.6,0.2l7.4,4.9v-4c0-0.6,0.5-1,1-1h0.4c0.6,0,1,0.4,1,1v13c0,0.6-0.4,1-1,1H47.1z"/>
				<path class="st5" d="M47.5,27c0.3,0,0.5,0.2,0.5,0.5v13c0,0.3-0.2,0.5-0.5,0.5h-0.4c-0.3,0-0.5-0.2-0.5-0.5v-5l-8.2,5.4
					c-0.1,0.1-0.2,0.1-0.4,0.1c-0.4,0-0.7-0.3-0.7-0.7v-2.8l-5.2,3.4C32.1,40.9,32,41,31.8,41c-0.4,0-0.7-0.3-0.7-0.7V27.7
					c0-0.4,0.3-0.8,0.7-0.8c0.1,0,0.2,0,0.4,0.1l5.2,3.4v-2.8c0-0.4,0.3-0.7,0.7-0.7c0.1,0,0.2,0,0.4,0.1l8.2,5.4v-5
					c0-0.3,0.2-0.5,0.5-0.5H47.5 M47.5,26h-0.4c-0.8,0-1.5,0.7-1.5,1.5v3.1l-6.6-4.4C38.7,26.1,38.4,26,38,26
					c-0.9,0-1.7,0.8-1.7,1.7v0.9l-3.6-2.4c-0.3-0.2-0.6-0.3-0.9-0.3c-0.9,0-1.7,0.8-1.7,1.8v12.5c0,1,0.7,1.7,1.7,1.7
					c0.4,0,0.7-0.2,0.9-0.3l3.7-2.4v1c0,1,0.7,1.7,1.7,1.7c0.4,0,0.7-0.2,0.9-0.3l6.7-4.4v3.1c0,0.8,0.7,1.5,1.5,1.5h0.4
					c0.8,0,1.5-0.7,1.5-1.5v-13C49,26.6,48.3,26,47.5,26L47.5,26z"/>
			</g>
		</g>
	</g>
	<g class="st1">
		<g>
			<g>
				<path class="st2" d="M37.3,39.8c-0.5,0-0.9-0.2-1.4-0.6l-1.6-1.6c-0.6-0.6-0.6-1-0.6-1.4c0-0.5,0.4-0.9,0.9-0.9h1.3v-3.1h-3.1
					v1.3c0,0.5-0.4,0.9-0.9,0.9c-0.4,0-0.8,0-1.4-0.7L28.9,32c-0.4-0.4-0.6-0.9-0.6-1.3c0-0.5,0.2-0.9,0.6-1.4l1.6-1.6
					c0.6-0.6,1-0.6,1.4-0.6c0.5,0,0.9,0.4,0.9,0.9v1.3h3.1v-3.1h-1.3c-0.5,0-0.9-0.4-0.9-0.9c0-0.4,0-0.8,0.6-1.4l1.6-1.6
					c0.4-0.4,0.9-0.6,1.4-0.6c0.5,0,0.9,0.2,1.3,0.6l1.6,1.6c0.6,0.6,0.6,1,0.6,1.4c0,0.5-0.4,0.9-0.9,0.9h-1.3v3.1h3.1V28
					c0-0.5,0.4-0.9,0.9-0.9c0.4,0,0.8,0,1.4,0.6l1.6,1.6c0.4,0.5,0.6,0.9,0.6,1.4c0,0.5-0.2,0.9-0.6,1.3l-1.6,1.6
					c-0.6,0.6-1,0.6-1.4,0.6c-0.5,0-0.9-0.4-0.9-0.9v-1.3h-3.1v3.1H40c0.5,0,0.9,0.4,0.9,0.9c0,0.4,0,0.8-0.6,1.4l-1.6,1.6
					C38.2,39.6,37.8,39.8,37.3,39.8z"/>
				<path class="st5" d="M37.3,22c0.4,0,0.7,0.2,1.1,0.5l1.6,1.6c0.5,0.5,0.5,0.8,0.5,1.1c0,0.3-0.3,0.5-0.5,0.5h-1.6v3.8h3.8V28
					c0-0.3,0.3-0.5,0.5-0.5c0.3,0,0.6,0,1.1,0.5l1.6,1.6c0.4,0.4,0.5,0.7,0.5,1.1c0,0.4-0.2,0.7-0.5,1.1l-1.6,1.6
					C43.3,34,43,34,42.7,34c-0.3,0-0.5-0.3-0.5-0.5v-1.6h-3.8v3.8H40c0.3,0,0.5,0.3,0.5,0.5c0,0.3,0,0.6-0.5,1.1l-1.6,1.6
					c-0.4,0.4-0.7,0.5-1.1,0.5c-0.4,0-0.7-0.2-1.1-0.5l-1.6-1.6C34,36.7,34,36.4,34,36.1c0-0.3,0.3-0.5,0.5-0.5h1.6v-3.8h-3.8v1.6
					c0,0.3-0.3,0.5-0.5,0.5c-0.3,0-0.6,0-1.1-0.5l-1.6-1.6c-0.4-0.4-0.5-0.7-0.5-1.1c0-0.4,0.2-0.7,0.5-1.1l1.6-1.6
					c0.5-0.5,0.8-0.5,1.1-0.5c0.3,0,0.5,0.3,0.5,0.5v1.6h3.8v-3.8h-1.6c-0.3,0-0.5-0.3-0.5-0.5c0-0.3,0-0.6,0.5-1.1l1.6-1.6
					C36.6,22.2,36.9,22,37.3,22 M37.3,21.3c-0.6,0-1.1,0.2-1.6,0.8L34,23.6c-0.7,0.7-0.8,1.2-0.8,1.6c0,0.7,0.6,1.3,1.3,1.3h0.9v2.3
					h-2.3V28c0-0.7-0.6-1.3-1.3-1.3c-0.4,0-0.9,0.1-1.6,0.8l-1.6,1.6c-0.5,0.5-0.8,1-0.8,1.6c0,0.8,0.4,1.3,0.8,1.6l1.6,1.6
					c0.7,0.7,1.2,0.8,1.6,0.8c0.7,0,1.3-0.6,1.3-1.3v-0.9h2.3v2.3h-0.9c-0.7,0-1.3,0.6-1.3,1.3c0,0.4,0.1,0.9,0.8,1.6l1.6,1.6
					c0.5,0.5,1,0.8,1.6,0.8c0.8,0,1.3-0.4,1.6-0.8l1.6-1.6c0.7-0.7,0.8-1.2,0.8-1.6c0-0.7-0.6-1.3-1.3-1.3h-0.9v-2.3h2.3v0.9
					c0,0.7,0.6,1.3,1.3,1.3c0.4,0,0.9-0.1,1.6-0.8l1.6-1.6c0.3-0.3,0.8-0.8,0.8-1.6c0-0.6-0.2-1.1-0.8-1.6l-1.6-1.6
					c-0.7-0.7-1.2-0.8-1.6-0.8c-0.7,0-1.3,0.6-1.3,1.3v0.9h-2.3v-2.3H40c0.7,0,1.3-0.6,1.3-1.3c0-0.4-0.1-0.9-0.8-1.6L38.9,22
					C38.6,21.7,38.1,21.3,37.3,21.3L37.3,21.3z"/>
			</g>
		</g>
	</g>
</g>
<g class="st0">
	<g class="st1">
		<g>
			<path class="st2" d="M13.3,5.3c0.1,0.1,0.1,0.1,0.2,0.2c0.4,0.4,0.7,0.8,1,1.3c3.2-1.9,6.9-2.9,10.8-2.9c3.8,0,7.5,1,10.8,2.9
				c0.2-0.5,0.6-0.9,1-1.3C37,5.4,37,5.4,37.1,5.3C33.5,3.2,29.5,2,25.2,2C20.9,2,16.8,3.2,13.3,5.3z"/>
			<path class="st2" d="M44.9,13.1c-0.1,0.1-0.1,0.1-0.2,0.2c-0.4,0.4-0.8,0.7-1.3,1c1.9,3.2,2.9,6.9,2.9,10.8s-1,7.5-2.9,10.8
				c0.5,0.3,0.9,0.6,1.3,1c0.1,0.1,0.1,0.1,0.2,0.2c2.2-3.6,3.3-7.6,3.3-11.9S47,16.7,44.9,13.1z"/>
			<path class="st2" d="M36,43.2c-3.2,1.9-6.9,2.9-10.8,2.9c-3.8,0-7.5-1-10.8-2.9c-0.3,0.5-0.6,0.9-1,1.3c-0.1,0.1-0.1,0.1-0.2,0.2
				c3.6,2.2,7.6,3.3,11.9,3.3c4.3,0,8.3-1.2,11.9-3.3c-0.1-0.1-0.1-0.1-0.2-0.2C36.5,44.1,36.2,43.7,36,43.2z"/>
			<path class="st2" d="M4,25c0-3.8,1-7.5,2.9-10.8c-0.5-0.3-0.9-0.6-1.3-1c-0.1-0.1-0.1-0.1-0.2-0.2C3.3,16.7,2.2,20.7,2.2,25
				s1.2,8.3,3.3,11.9c0.1-0.1,0.1-0.1,0.2-0.2c0.4-0.4,0.8-0.7,1.3-1C5,32.5,4,28.8,4,25z"/>
			<circle class="st2" cx="40.8" cy="40.6" r="3.7"/>
			<circle class="st2" cx="40.8" cy="9.4" r="3.7"/>
			<circle class="st2" cx="9.6" cy="9.4" r="3.7"/>
			<circle class="st2" cx="9.6" cy="40.6" r="3.7"/>
		</g>
	</g>
	<g class="st1">
		<path class="st2" d="M20,13.8c0.8,0.5,1.4,1.4,1.4,2.5c0,0.3,0,0.5-0.1,0.8c1.1,0.4,2.3,0.6,3.4,0.6V9.5c-0.9,0-1.5,0.2-2.4,0.3
			C21.5,10.8,20.7,12.2,20,13.8z"/>
		<path class="st2" d="M18.4,13.4c0.1,0,0.2,0,0.3,0c0.5-1.2,1-2.3,1.6-3.2c-2.1,0.7-3.9,1.7-5.7,3.1c0.4,0.4,0.9,0.8,1.4,1.2
			C16.7,13.8,17.5,13.4,18.4,13.4z"/>
		<path class="st2" d="M18.7,19.3c-0.3,1.8-0.5,3.8-0.5,5.8h6.5v-6.3c-1.3-0.1-2.6-0.3-3.9-0.7C20.3,18.8,19.5,19.2,18.7,19.3z"/>
		<path class="st2" d="M16.4,36.6c-0.6,0.4-1.2,0.9-1.7,1.4c1.7,1.4,3.6,2.4,5.7,3.1c-0.5-0.8-1-1.9-1.5-3
			C17.8,38,16.9,37.4,16.4,36.6z"/>
		<path class="st2" d="M20.1,37.8c0.6,1.6,1.3,2.9,2.2,3.8c0.9,0.2,1.7,0.2,2.4,0.3v-8.4c-1,0.1-2,0.3-2.9,0.5
			c0.1,0.3,0.2,0.7,0.2,1C21.9,36.3,21.2,37.4,20.1,37.8z"/>
		<path class="st2" d="M36.2,13.8c-1.7-1.5-3.8-2.7-6.2-3.6c1,1.5,1.9,3.6,2.6,6C33.8,15.5,35,14.8,36.2,13.8z"/>
		<path class="st2" d="M30.7,16.9c0.2,0,0.3-0.2,0.5-0.2c-0.9-3.1-1.9-5.5-3.3-7c-0.9-0.2-1.5-0.2-2.4-0.2v8.4
			c1.5,0,2.9-0.3,4.3-0.7C30.2,17.2,30.5,17.1,30.7,16.9z"/>
		<path class="st2" d="M32.3,22.8c-0.1-1.8-0.4-3.5-0.8-5c0,0-0.2,0.2-0.3,0.2c-0.3,0.2-0.7,0.2-1,0.3c-1.5,0.3-2.9,0.7-4.5,0.7v6.2
			h4.5C30.4,24,31.2,23.1,32.3,22.8z"/>
		<path class="st2" d="M30.2,41.1c2.2-0.7,4.3-1.9,6-3.4c-1.2-1.2-2.4-1.9-3.6-2.6C31.9,37.5,31.2,39.5,30.2,41.1z"/>
		<path class="st2" d="M18.5,32.1c0.1,0,0.3,0,0.4,0c0.9,0,1.6,0.4,2.2,0.9c1.1-0.4,2.3-0.6,3.5-0.7V26H18
			C18,28.1,18.2,30.2,18.5,32.1z"/>
		<path class="st2" d="M30.9,34.4c-1.7-0.5-3.4-0.9-5.1-0.9v8.4c0.9,0,1.7-0.2,2.6-0.3c1.2-1.7,2.4-4.1,3.1-7
			C31.2,34.5,31,34.4,30.9,34.4z"/>
		<path class="st2" d="M30.2,26.1h-4.5v6.2c1.9,0,3.8,0.3,5.5,1c0.2,0,0.3,0.2,0.3,0.2c0.4-1.6,0.6-3.3,0.7-5.1
			C31.2,28.1,30.4,27.2,30.2,26.1z"/>
		<path class="st2" d="M36,25.1h5.3c-0.2-4.1-1.7-7.9-4.5-10.6c-1.2,1.2-2.6,2.1-4.1,2.7c0.4,1.7,0.6,3.5,0.8,5.5
			C34.8,22.9,35.8,23.9,36,25.1z"/>
		<path class="st2" d="M33.5,28.5c-0.1,1.9-0.4,3.8-0.8,5.5c1.5,0.7,2.9,1.5,4.1,2.7c2.7-2.7,4.5-6.5,4.5-10.6H36
			C35.8,27.4,34.8,28.4,33.5,28.5z"/>
		<path class="st2" d="M17.4,32.5c-0.3-1.9-0.5-4.1-0.7-6.4H9.1c0.2,4.3,2.1,8.2,5.1,11.1c0.6-0.7,1.2-1.2,1.8-1.7
			c0-0.2,0-0.4,0-0.5C16,34,16.6,33,17.4,32.5z"/>
		<path class="st2" d="M15.5,16.3c0-0.3,0.1-0.7,0.2-1C15.1,15,14.6,14.5,14,14c-2.1,1.9-3.6,4.5-4.5,7.4c-0.3,1.2-0.5,2.6-0.5,3.8
			h7.7c0-2.2,0.2-4.2,0.5-6C16.2,18.6,15.5,17.6,15.5,16.3z"/>
	</g>
</g>
<g class="st0">
	<g class="st1">
		<g>
			<g>
				<g>
					<path class="st2" d="M48.9,33.7c-0.5-2.8-2.1-4.7-4.9-5.5c-1.7-0.4-3.5-0.5-5.2-0.2c-3.2,0.4-5.6,2.5-6.3,5.6
						c-0.5,2.1-0.5,4.2,0,6.3c0.6,2.7,2.1,4.5,4.8,5.1c2.1,0.5,4.1,0.4,6.3,0.2c-0.1-0.7-0.1-1.4-0.2-2.1c-1.5,0-3,0.1-4.5,0
						c-2.1-0.2-3.6-1.4-4.1-3.6c-0.4-1.5-0.5-3-0.2-4.6c0.4-2.4,1.6-4.1,4-4.8c1.6-0.4,3.2-0.4,4.7,0.1c1.4,0.4,2.4,1.3,2.8,2.7
						c0.6,1.8,0.5,3.7,0.2,5.6c-0.1,0.6-0.6,1-1.1,0.9c-0.6-0.1-0.7-0.6-0.7-1.1c0-1.7-0.1-3.5-0.1-5.2c0-0.1,0-0.2,0-0.3
						c0-0.3-0.2-0.5-0.5-0.5c-0.3,0-0.6,0-0.7,0c-1.1,0-2.2-0.1-3.3-0.1c-0.9,0-1.8,0.2-2.3,0.9c-0.4,0.5-0.6,1.2-0.7,1.9
						c-0.2,1.2-0.2,2.4,0,3.6c0.4,2.9,2.9,3.5,4.9,2.6c0.4-0.2,0.8-0.4,1.2-0.6c2.6,2.1,5.4,1,6-2.3C49.2,36.6,49.2,35.1,48.9,33.7z
						 M41.7,38.9c-0.4,0.2-0.8,0.3-1.2,0.3c-0.7-0.1-1-0.8-1.1-1.4c-0.1-0.5-0.1-1-0.1-1.6c0-0.5,0-1.1,0.4-1.5
						c0.3-0.4,0.9-0.6,1.4-0.6c0.3,0,0.5,0,0.7,0.2c0.4,0.3,0.3,1.2,0.3,1.7c0,0.5,0,0.9,0,1.4C42.1,37.9,42.4,38.6,41.7,38.9z"/>
				</g>
			</g>
			<path class="st2" d="M44.1,10.7c-0.5-0.7-2.3-0.6-3-0.7c-1.4-0.1-2.9,0-4.3,0c-2.3,0-4.6,0-6.8,0c-1.7,0-3.4,0-5.2,0
				c-1.7,0-3.4,0-5.2,0c-2.3,0-4.6,0-6.8,0c-1.4,0-2.9-0.1-4.3,0c-0.7,0-2.5,0-3,0.7c-0.1,0.2,0,0.4,0.3,0.7
				c5.5,4.9,11,9.7,16.6,14.6c0,0,0,0,0,0c1.4,1.2,3.4,1.2,4.8,0c0,0,0,0,0,0c5.5-4.8,11-9.7,16.6-14.6
				C44.2,11.1,44.2,10.9,44.1,10.7z"/>
			<path class="st2" d="M47.9,16.5v10.9c-0.9-0.7-2.1-1.2-3.3-1.6c-1.9-0.5-3.9-0.6-6.1-0.3c-4.1,0.6-7.3,3.4-8.3,7.4
				c-0.6,2.3-0.6,4.8-0.1,7.4c0.1,0.3,0.1,0.5,0.2,0.8h-5.4c-5.5,0-11.1,0-16.6,0c-4.1,0-6.5-2.6-6.5-7V16.5c0-1.5,0.4-2.8,1.2-4
				c0.2,0.4,0.5,0.7,0.9,1.1l3.4,3c4.4,3.9,8.7,7.7,13.2,11.6c1.2,1,2.8,1.6,4.3,1.6c1.6,0,3.1-0.6,4.4-1.7
				c4.4-3.8,8.8-7.7,13.1-11.5l3.4-3c0.4-0.4,0.7-0.7,0.9-1.1C47.6,13.7,47.9,15.1,47.9,16.5z"/>
		</g>
	</g>
</g>
<g class="st0">
	<path id="XMLID_20_" class="st6" d="M41.4,41.7c9.1-9.1,9.1-23.8,0-32.9s-23.8-9.1-32.9,0c-8.7,8.8-9.1,22.7-1,31.9l0.2,0.2
		c-0.9,1.9-2.4,4.2-4.8,5.4c-0.8,0.4-0.6,1.6,0.3,1.7c2.6,0.4,6.4-0.1,9.9-2.7l0.1,0C22.1,50.6,33.8,49.4,41.4,41.7z M26,10.9
		c2.1,0,3.8,1.7,3.7,3.8c0,2.1-1.7,3.8-3.8,3.8c-2.1,0-3.8-1.7-3.8-3.9C22.2,12.6,23.9,10.9,26,10.9z M19.9,35.4
		c0.2-1.4,0.4-2.7,0.6-4.1c0.4-2.4,0.8-4.7,1.2-7.1c0-0.1,0-0.3,0-0.5c0-1-0.3-1.3-1.3-1.5c-0.4-0.1-0.9-0.1-1.2-0.2
		c-0.5-0.2-0.7-0.6-0.7-0.9c0.1-0.4,0.3-0.7,0.8-0.8c0.3-0.1,0.6-0.1,0.9-0.1c1.2,0,2.3,0,3.5,0c1.2,0,2.5,0,3.7,0
		c0.9,0,1.4,0.4,1.4,1.3c0,0.7-0.1,1.5-0.2,2.2c-0.5,2.7-1,5.4-1.5,8.1c-0.2,0.9-0.3,1.8-0.5,2.7c-0.1,0.4,0,0.9,0.1,1.3
		c0.1,0.6,0.6,0.9,1.1,0.8c0.5-0.1,1-0.2,1.4-0.4c0.4-0.1,0.7-0.4,1.1-0.5c0.5-0.2,1,0.2,0.9,0.7c-0.1,0.3-0.3,0.7-0.5,0.9
		c-1.4,1.4-3,2.2-5,2.3c-0.9,0-1.9,0-2.8-0.1C21.5,39.3,19.6,37.4,19.9,35.4z"/>
</g>
<g>
	<g id="XMLID_40_">
		<g id="XMLID_41_">
			<circle class="st7" cx="24.9" cy="26.2" r="22.6"/>
			<g id="XMLID_58_">
				<path class="st5" d="M25,40.3c-1.8,0-3.2-1.4-3.3-3.1c0,0,0-0.1,0-0.2c0-1.8,1.5-3.3,3.3-3.3c1.8,0,3.3,1.5,3.3,3.3
					c0,0.1,0,0.2,0,0.3C28.1,39,26.7,40.3,25,40.3z M25,35.3c-1,0-1.8,0.8-1.8,1.8c0.1,1.1,0.8,1.8,1.8,1.8c1,0,1.8-0.7,1.8-1.7
					C26.7,36.1,25.9,35.3,25,35.3z M13.1,29.3c-1.8,0-3.3-1.5-3.3-3.3s1.5-3.3,3.3-3.3h0.2c1.8,0.1,3.1,1.5,3.1,3.3
					c0,1.7-1.4,3.2-3.1,3.3l0,0H13.1z M13,24.3c-1,0-1.7,0.8-1.7,1.8c0,1,0.8,1.8,1.7,1.8h0.1c1,0,1.8-0.8,1.8-1.8
					C14.9,25.1,14.1,24.3,13,24.3L13,24.3z M34.8,16.2c-1.4,0-2.6-0.8-3.1-2.1c-0.2-0.4-0.2-0.8-0.2-1.2c0-1.4,0.8-2.6,2.1-3.1
					c0.4-0.1,0.8-0.2,1.2-0.2c1.2,0,2.3,0.7,2.9,1.7c0.3,0.5,0.4,1,0.4,1.6c0,1.5-0.9,2.7-2.3,3.2C35.4,16.1,35.1,16.2,34.8,16.2z
					 M34.8,11.2c-0.2,0-0.5,0-0.7,0.1c-0.7,0.3-1.1,0.9-1.1,1.7c0,0.2,0,0.5,0.1,0.7c0.3,0.7,0.9,1.1,1.7,1.1c0.2,0,0.4,0,0.5-0.1
					c0.8-0.2,1.3-0.9,1.3-1.7c0-0.3-0.1-0.6-0.2-0.9C36,11.5,35.4,11.2,34.8,11.2z"/>
			</g>
			<g id="XMLID_57_">
				<path class="st5" d="M9.7,43.8l-1-1.1c1.9-1.7,3.9-3.1,6.2-4.1c2.4-1.1,4.9-1.8,7.5-2.1l0.2,1.5c-2.5,0.3-4.8,0.9-7.1,2
					C13.4,40.8,11.5,42.2,9.7,43.8z"/>
			</g>
			<g id="XMLID_56_">
				<path class="st5" d="M40.2,43.8c-1.8-1.6-3.6-2.9-5.8-3.8c-2.3-1-4.6-1.7-7.1-2l0.2-1.5c2.7,0.3,5.1,1,7.5,2.1
					c2.3,1.1,4.3,2.5,6.2,4.1L40.2,43.8z"/>
			</g>
			<g id="XMLID_55_">
				<path class="st5" d="M37.4,12.4l-0.8-1.3c1.3-0.8,2.5-1.7,3.6-2.8l1,1.1C40,10.6,38.8,11.6,37.4,12.4z"/>
			</g>
			<g id="XMLID_54_">
				<path class="st5" d="M25,15.8c-3.5,0-6.9-0.8-10.1-2.3c-2.3-1.1-4.3-2.5-6.2-4.1l1-1.1c1.7,1.6,3.6,2.9,5.8,3.8
					c3,1.4,6.2,2.1,9.5,2.1c2.5,0,4.9-0.4,7.2-1.2l0.5,1.4C30.2,15.4,27.6,15.8,25,15.8z"/>
			</g>
			<g id="XMLID_53_">
				<path class="st8" d="M13.1,28.6c0.2,3.9,0.9,7.6,2,10.6c2.1,6,5.5,10,9.5,10.1c0.1,0,0.2,0,0.3,0c0.1,0,0.2,0,0.3,0
					c3.9-0.2,7.4-4.1,9.5-10.1c1.3-3.7,2.1-8.3,2.1-13.2c0-3.8-0.5-7.5-1.4-10.7 M33.8,10.6c-2.1-4.6-5-7.6-8.4-7.8h-0.1
					c-0.1,0-0.2,0-0.3,0c-0.1,0-0.2,0-0.3,0h-0.1c-3.8,0.3-7.3,4.2-9.4,10.1c-1.1,3.1-1.8,6.7-2,10.6"/>
			</g>
			<g id="XMLID_52_">
				<rect x="1.7" y="25.4" class="st5" width="9" height="1.5"/>
			</g>
			<g id="XMLID_51_">
				<rect x="15.6" y="25.4" class="st5" width="32.6" height="1.5"/>
			</g>
			<g id="XMLID_50_">
				<rect x="24.3" y="39.5" class="st5" width="1.5" height="9.8"/>
			</g>
			<g id="XMLID_49_">
				<rect x="24.3" y="2.8" class="st5" width="1.5" height="31.8"/>
			</g>
			<g id="XMLID_46_">
				<g id="XMLID_48_">
					<rect x="29.8" y="19.6" class="st5" width="1.5" height="1.5"/>
				</g>
				<g id="XMLID_47_">
					<rect x="18.8" y="19.6" class="st5" width="1.5" height="1.5"/>
				</g>
			</g>
			<g id="XMLID_43_">
				<g id="XMLID_45_">
					<rect x="29.8" y="30.3" class="st5" width="1.5" height="1.5"/>
				</g>
				<g id="XMLID_44_">
					<rect x="18.8" y="30.3" class="st5" width="1.5" height="1.5"/>
				</g>
			</g>
			<g id="XMLID_42_">
				<path class="st5" d="M25,50.1c-13.3,0-24-10.7-24-24S11.8,2,25,2c13.3,0,24,10.7,24,24c0,2.9-0.5,5.6-1.5,8.3l-1.4-0.5
					c0.9-2.5,1.4-5.1,1.4-7.8C47.5,13.6,37.4,3.5,25,3.5C12.5,3.5,2.4,13.6,2.4,26S12.5,48.6,25,48.6c7.2,0,14-3.4,18.2-9.4l1.2,0.9
					C39.9,46.4,32.6,50.1,25,50.1z"/>
			</g>
		</g>
	</g>
</g>
</svg>
