<svg xmlns="http://www.w3.org/2000/svg" xmlns:xlink="http://www.w3.org/1999/xlink" viewBox="0 0 149.415 150.613"><defs><linearGradient id="linear-gradient" y1="75.307" x2="90.2" y2="75.307" gradientUnits="userSpaceOnUse"><stop offset="0" stop-color="#1c75bc"/><stop offset="0.296" stop-color="#1682c7"/><stop offset="0.836" stop-color="#06a3e5"/><stop offset="1" stop-color="#00aeef"/></linearGradient><linearGradient id="linear-gradient-2" x1="1.035" y1="21.415" x2="89.199" y2="21.415" xlink:href="#linear-gradient"/><linearGradient id="linear-gradient-3" x1="1.001" y1="125.224" x2="88.383" y2="125.224" xlink:href="#linear-gradient"/><linearGradient id="linear-gradient-4" x1="23.041" y1="136.957" x2="68.538" y2="136.957" xlink:href="#linear-gradient"/><linearGradient id="Orange_Yellow" x1="18.341" y1="41.708" x2="71.793" y2="41.708" gradientUnits="userSpaceOnUse"><stop offset="0" stop-color="#fff33b"/><stop offset="0.04" stop-color="#fee72e"/><stop offset="0.117" stop-color="#fed51b"/><stop offset="0.196" stop-color="#fdca10"/><stop offset="0.281" stop-color="#fdc70c"/><stop offset="0.669" stop-color="#f3903f"/><stop offset="0.888" stop-color="#ed683c"/><stop offset="1" stop-color="#e93e3a"/></linearGradient><linearGradient id="Orange_Yellow-2" x1="41.382" y1="86.232" x2="50.493" y2="86.232" xlink:href="#Orange_Yellow"/><linearGradient id="Orange_Yellow-3" x1="42.603" y1="98.706" x2="49.272" y2="98.706" xlink:href="#Orange_Yellow"/><linearGradient id="Orange_Yellow-4" x1="43.31" y1="111.427" x2="48.565" y2="111.427" xlink:href="#Orange_Yellow"/><linearGradient id="Orange_Yellow-5" x1="83.237" y1="52.354" x2="154.415" y2="52.354" gradientTransform="translate(232.653 147.166) rotate(180)" xlink:href="#Orange_Yellow"/><linearGradient id="Orange_Yellow-6" x1="112.76" y1="100.651" x2="124.893" y2="100.651" gradientTransform="translate(232.653 147.166) rotate(180)" xlink:href="#Orange_Yellow"/><linearGradient id="Orange_Yellow-7" x1="114.386" y1="117.262" x2="123.267" y2="117.262" gradientTransform="translate(232.653 147.166) rotate(180)" xlink:href="#Orange_Yellow"/><linearGradient id="Orange_Yellow-8" x1="115.328" y1="134.202" x2="122.325" y2="134.202" gradientTransform="translate(232.653 147.166) rotate(180)" xlink:href="#Orange_Yellow"/></defs><g id="Layer_2" data-name="Layer 2"><g id="Layer_2-2" data-name="Layer 2"><g id="Layer_5" data-name="Layer 5"><path d="M75.684,150.613H14.516A14.481,14.481,0,0,1,0,136.2V14.413A14.481,14.481,0,0,1,14.516,0H75.684A14.481,14.481,0,0,1,90.2,14.413V136.2A14.481,14.481,0,0,1,75.684,150.613ZM14.516,1.988A12.484,12.484,0,0,0,2,14.413V136.2a12.484,12.484,0,0,0,12.514,12.425H75.684A12.483,12.483,0,0,0,88.2,136.2V14.413A12.483,12.483,0,0,0,75.684,1.988Z" fill="url(#linear-gradient)"/><rect x="1.035" y="20.421" width="88.164" height="1.988" fill="url(#linear-gradient-2)"/><rect x="1.001" y="124.23" width="87.382" height="1.988" fill="url(#linear-gradient-3)"/><path d="M26.667,140.685H64.911c4.832,0,4.84-7.455,0-7.455H26.667c-4.831,0-4.839,7.455,0,7.455Z" fill="url(#linear-gradient-4)"/><path d="M68.106,39.432l3.687-3.3c-1.924-4.613-1.929-4.625-3.854-9.237l-4.96.251a3.078,3.078,0,0,1-3.242-3.219L59.991,19l-9.3-3.826-3.328,3.66a3.1,3.1,0,0,1-4.586,0l-3.328-3.66L30.143,19l.254,4.924a3.078,3.078,0,0,1-3.242,3.219l-4.96-.251-3.854,9.237,3.687,3.3a3.052,3.052,0,0,1,0,4.552l-3.687,3.3L22.2,56.525l4.96-.252A3.079,3.079,0,0,1,30.4,59.492l-.254,4.925,9.3,3.826,3.328-3.66a3.1,3.1,0,0,1,4.586,0l3.328,3.66,9.3-3.826-.254-4.925a3.079,3.079,0,0,1,3.242-3.219l4.96.252c1.925-4.612,1.93-4.624,3.854-9.237l-3.687-3.3A3.052,3.052,0,0,1,68.106,39.432ZM45.887,57a15.292,15.292,0,1,1,15.4-15.292A15.348,15.348,0,0,1,45.887,57Z" fill="url(#Orange_Yellow)"/><ellipse cx="45.937" cy="86.232" rx="4.555" ry="4.523" fill="url(#Orange_Yellow-2)"/><ellipse cx="45.937" cy="98.706" rx="3.335" ry="3.311" fill="url(#Orange_Yellow-3)"/><ellipse cx="45.937" cy="111.427" rx="2.627" ry="2.609" fill="url(#Orange_Yellow-4)"/><path d="M83.146,97.843l-4.909,4.4,5.131,12.3,6.605-.334a4.1,4.1,0,0,1,4.318,4.286l-.338,6.558,12.388,5.094,4.432-4.873a4.132,4.132,0,0,1,6.106,0l4.432,4.873,12.388-5.094-.337-6.558a4.1,4.1,0,0,1,4.317-4.286l6.6.334,5.131-12.3-4.909-4.4a4.063,4.063,0,0,1,0-6.061l4.909-4.4-5.131-12.3-6.6.335a4.1,4.1,0,0,1-4.317-4.286l.337-6.558-12.388-5.094-4.432,4.873a4.133,4.133,0,0,1-6.106,0l-4.432-4.873L93.953,64.572l.338,6.558a4.1,4.1,0,0,1-4.318,4.286l-6.605-.335-5.131,12.3,4.909,4.4A4.063,4.063,0,0,1,83.146,97.843Zm29.588-23.394a20.364,20.364,0,1,1-20.51,20.363A20.437,20.437,0,0,1,112.734,74.449Z" fill="url(#Orange_Yellow-5)"/><ellipse cx="113.826" cy="46.515" rx="6.066" ry="6.023" fill="url(#Orange_Yellow-6)"/><ellipse cx="113.826" cy="29.904" rx="4.441" ry="4.409" fill="url(#Orange_Yellow-7)"/><ellipse cx="113.826" cy="12.964" rx="3.499" ry="3.474" fill="url(#Orange_Yellow-8)"/></g></g></g></svg>