<svg xmlns="http://www.w3.org/2000/svg" xmlns:xlink="http://www.w3.org/1999/xlink" viewBox="0 0 150 150.015"><defs><linearGradient id="linear-gradient" y1="19.76" x2="111.662" y2="19.76" gradientUnits="userSpaceOnUse"><stop offset="0" stop-color="#00a651"/><stop offset="0.511" stop-color="#006838"/><stop offset="1" stop-color="#00a79d"/></linearGradient><linearGradient id="linear-gradient-2" y1="67.851" x2="111.662" y2="67.851" gradientUnits="userSpaceOnUse"><stop offset="0" stop-color="#1c75bc"/><stop offset="0.511" stop-color="#00aeef"/><stop offset="1" stop-color="#27aae1"/></linearGradient><linearGradient id="linear-gradient-3" x1="61.441" y1="96.203" x2="150" y2="96.203" xlink:href="#linear-gradient"/><linearGradient id="linear-gradient-4" x1="61.441" y1="134.344" x2="150" y2="134.344" xlink:href="#linear-gradient-2"/></defs><g id="Layer_2" data-name="Layer 2"><g id="Layer_7" data-name="Layer 7"><g id="Layer_8" data-name="Layer 8"><rect width="111.662" height="39.52" rx="8.218" fill="url(#linear-gradient)"/><rect y="48.091" width="111.662" height="39.52" rx="8.218" fill="url(#linear-gradient-2)"/><line x1="87.627" y1="39.52" x2="87.627" y2="48.091" fill="none" stroke="#231f20" stroke-miterlimit="10" stroke-width="2"/><line x1="25.016" y1="39.52" x2="25.016" y2="48.091" fill="none" stroke="#231f20" stroke-miterlimit="10" stroke-width="2"/><rect x="13.473" y="11.984" width="48.989" height="15.553" rx="3.522" fill="#fff"/><rect x="13.473" y="60.075" width="48.989" height="15.553" rx="3.522" fill="#fff"/><ellipse cx="87.627" cy="19.76" rx="10.299" ry="10.277" fill="#fff"/><ellipse cx="87.627" cy="67.851" rx="10.299" ry="10.277" fill="#fff"/><rect x="61.441" y="80.531" width="88.559" height="31.344" rx="8.218" fill="url(#linear-gradient-3)"/><rect x="61.441" y="118.672" width="88.559" height="31.344" rx="8.218" fill="url(#linear-gradient-4)"/><line x1="130.938" y1="111.874" x2="130.938" y2="118.672" fill="none" stroke="#231f20" stroke-miterlimit="10" stroke-width="2"/><line x1="81.282" y1="111.874" x2="81.282" y2="117.823" fill="none" stroke="#231f20" stroke-miterlimit="10" stroke-width="2"/><rect x="72.127" y="90.035" width="38.853" height="12.335" rx="3.522" fill="#fff"/><rect x="72.127" y="128.176" width="38.853" height="12.335" rx="3.522" fill="#fff"/><ellipse cx="130.938" cy="96.203" rx="8.169" ry="8.151" fill="#fff"/><ellipse cx="130.938" cy="134.344" rx="8.169" ry="8.151" fill="#fff"/><line x1="61.441" y1="134.941" x2="37.967" y2="134.941" fill="none" stroke="#231f20" stroke-miterlimit="10" stroke-width="2"/><line x1="38.955" y1="135.393" x2="38.955" y2="100.262" fill="none" stroke="#231f20" stroke-miterlimit="10" stroke-width="2"/><circle cx="38.955" cy="135.242" r="3.008" fill="#231f20"/><polygon points="38.955 94.613 42.207 102.573 38.955 100.684 35.704 102.573 38.955 94.613" fill="#231f20"/><line x1="111.662" y1="18.468" x2="138.566" y2="18.468" fill="none" stroke="#231f20" stroke-miterlimit="10" stroke-width="2"/><line x1="136.711" y1="17.911" x2="136.711" y2="68.16" fill="none" stroke="#231f20" stroke-miterlimit="10" stroke-width="2"/><circle cx="136.711" cy="18.062" r="3.008" fill="#231f20"/><polygon points="136.711 73.809 133.459 65.849 136.711 67.738 139.963 65.849 136.711 73.809" fill="#231f20"/></g></g></g></svg>