<svg xmlns="http://www.w3.org/2000/svg" xmlns:xlink="http://www.w3.org/1999/xlink" viewBox="0 0 149.595 149.743"><defs><linearGradient id="Orange_Yellow" y1="118.699" x2="62.52" y2="118.699" gradientUnits="userSpaceOnUse"><stop offset="0" stop-color="#fff33b"/><stop offset="0.04" stop-color="#fee72e"/><stop offset="0.117" stop-color="#fed51b"/><stop offset="0.196" stop-color="#fdca10"/><stop offset="0.281" stop-color="#fdc70c"/><stop offset="0.669" stop-color="#f3903f"/><stop offset="0.888" stop-color="#ed683c"/><stop offset="1" stop-color="#e93e3a"/></linearGradient><linearGradient id="Orange_Yellow-2" x1="6.872" y1="18.669" x2="44.47" y2="18.669" xlink:href="#Orange_Yellow"/><linearGradient id="Orange_Yellow-3" x1="110.124" y1="24.427" x2="133.018" y2="24.427" xlink:href="#Orange_Yellow"/><linearGradient id="Orange_Yellow-4" x1="103.268" y1="90.749" x2="149.595" y2="90.749" xlink:href="#Orange_Yellow"/><linearGradient id="linear-gradient" x1="22.987" y1="75.791" x2="126.432" y2="75.791" gradientUnits="userSpaceOnUse"><stop offset="0" stop-color="#1c75bc"/><stop offset="0.511" stop-color="#00aeef"/><stop offset="1" stop-color="#27aae1"/></linearGradient><linearGradient id="linear-gradient-2" x1="79.519" y1="85.784" x2="107.173" y2="85.784" xlink:href="#linear-gradient"/><linearGradient id="linear-gradient-3" x1="44.072" y1="85.462" x2="72.056" y2="85.462" xlink:href="#linear-gradient"/><linearGradient id="linear-gradient-4" x1="44.368" y1="69.049" x2="106.845" y2="69.049" xlink:href="#linear-gradient"/></defs><g id="Layer_2" data-name="Layer 2"><g id="Layer_6" data-name="Layer 6"><ellipse cx="31.26" cy="118.699" rx="31.26" ry="31.044" fill="url(#Orange_Yellow)"/><ellipse cx="25.671" cy="18.669" rx="18.799" ry="18.669" fill="url(#Orange_Yellow-2)"/><ellipse cx="121.571" cy="24.427" rx="11.447" ry="11.368" fill="url(#Orange_Yellow-3)"/><ellipse cx="126.432" cy="90.749" rx="23.163" ry="23.003" fill="url(#Orange_Yellow-4)"/><ellipse cx="74.71" cy="75.791" rx="51.722" ry="51.364" fill="url(#linear-gradient)"/><rect x="40.178" y="51.525" width="70.856" height="48.741" rx="6.085" fill="#fff"/><path d="M83.076,75.064a110.458,110.458,0,0,0,10.907,10.85c3.88,3.481,7.856,6.922,11.583,10.59-4.263-3.029-8.69-5.766-13.1-8.6a114.043,114.043,0,0,1-12.948-9.324Z" fill="url(#linear-gradient-2)"/><polygon points="72.056 78.303 45.647 96.504 68.907 74.42 72.056 78.303" fill="url(#linear-gradient-3)"/><path d="M45.647,55.286c2.779,1.737,5.443,3.613,8.114,5.479,2.644,1.9,5.278,3.812,7.86,5.786,2.614,1.935,5.137,3.98,7.7,5.974,2.548,2.015,5.058,4.075,7.561,6.144H74.328c2.5-2.071,5.012-4.131,7.557-6.149,2.568-1.991,5.088-4.04,7.7-5.974,2.583-1.973,5.216-3.885,7.86-5.785,2.673-1.865,5.337-3.74,8.118-5.475-2.212,2.419-4.541,4.7-6.862,6.985-2.349,2.254-4.709,4.5-7.12,6.675-2.377,2.22-4.851,4.324-7.277,6.486-2.447,2.136-4.93,4.229-7.422,6.311l-1.28,1.07-1.277-1.07c-2.491-2.084-4.974-4.177-7.419-6.315-2.428-2.16-4.9-4.268-7.277-6.486-2.411-2.18-4.77-4.421-7.12-6.675C50.19,59.98,47.861,57.7,45.647,55.286Z" fill="url(#linear-gradient-4)"/></g></g></svg>