<svg xmlns="http://www.w3.org/2000/svg" xmlns:xlink="http://www.w3.org/1999/xlink" viewBox="0 0 150 150.061"><defs><linearGradient id="Orange_Yellow" x1="1.786" y1="138.442" x2="148.214" y2="138.442" gradientUnits="userSpaceOnUse"><stop offset="0" stop-color="#fff33b"/><stop offset="0.04" stop-color="#fee72e"/><stop offset="0.117" stop-color="#fed51b"/><stop offset="0.196" stop-color="#fdca10"/><stop offset="0.281" stop-color="#fdc70c"/><stop offset="0.669" stop-color="#f3903f"/><stop offset="0.888" stop-color="#ed683c"/><stop offset="1" stop-color="#e93e3a"/></linearGradient><linearGradient id="linear-gradient" x1="23.625" y1="29.853" x2="126.375" y2="29.853" gradientUnits="userSpaceOnUse"><stop offset="0" stop-color="#1c75bc"/><stop offset="0.296" stop-color="#1682c7"/><stop offset="0.836" stop-color="#06a3e5"/><stop offset="1" stop-color="#00aeef"/></linearGradient><linearGradient id="Orange_Yellow-2" x1="59.071" y1="56.317" x2="91.968" y2="56.317" xlink:href="#Orange_Yellow"/><linearGradient id="linear-gradient-2" x1="28.954" y1="93.038" x2="44.29" y2="93.038" xlink:href="#linear-gradient"/><linearGradient id="linear-gradient-3" x1="101.65" y1="93.504" x2="116.985" y2="93.504" xlink:href="#linear-gradient"/><linearGradient id="Orange_Yellow-3" x1="62.511" y1="98.48" x2="89.538" y2="98.48" xlink:href="#Orange_Yellow"/></defs><g id="Layer_2" data-name="Layer 2"><g id="Layer_1-2" data-name="Layer 1"><path d="M143.425,126.823V53.038A12.168,12.168,0,0,0,131.27,40.884H18.73A12.168,12.168,0,0,0,6.575,53.038v73.785h136.85Zm-132-4.244v-72.2H138.246v72.2Z" fill="none"/><rect x="13.209" y="52.16" width="123.251" height="68.633" fill="none"/><path d="M83.359,138.639H66.641A12.153,12.153,0,0,1,54.659,128.61H1.786v4.4a15.283,15.283,0,0,0,15.266,15.265h115.9a15.283,15.283,0,0,0,15.266-15.265v-4.4H95.341A12.153,12.153,0,0,1,83.359,138.639Z" fill="url(#Orange_Yellow)"/><path d="M145.211,126.823v.893h3.9v5.294a16.158,16.158,0,0,1-16.158,16.158H17.052A16.159,16.159,0,0,1,.893,133.01v-5.294h3.9v-.893H0v6.187a17.07,17.07,0,0,0,17.052,17.051h115.9A17.07,17.07,0,0,0,150,133.01v-6.187Z" fill="#231f20"/><path d="M83.359,136.853H66.641a10.338,10.338,0,0,1-10.117-8.243h-.95a11.278,11.278,0,0,0,11.068,9.136H83.358a11.278,11.278,0,0,0,11.068-9.136h-.95A10.338,10.338,0,0,1,83.359,136.853Z" fill="#231f20"/><path d="M83.358,137.746H66.642a11.278,11.278,0,0,1-11.068-9.136h-.915a12.153,12.153,0,0,0,11.982,10.029H83.359A12.153,12.153,0,0,0,95.341,128.61h-.915A11.278,11.278,0,0,1,83.358,137.746Z" fill="#231f20"/><path d="M148.214,128.61v4.4a15.283,15.283,0,0,1-15.266,15.265H17.052A15.283,15.283,0,0,1,1.786,133.01v-4.4h3v-.894H.893v5.294a16.159,16.159,0,0,0,16.159,16.158h115.9a16.158,16.158,0,0,0,16.158-16.158v-5.294h-3.9v.894Z" fill="#231f20"/><path d="M6.575,53.038A12.168,12.168,0,0,1,18.73,40.884H131.27a12.168,12.168,0,0,1,12.155,12.154v73.785h1.786V53.038A13.955,13.955,0,0,0,131.27,39.1H18.73A13.955,13.955,0,0,0,4.789,53.038v73.785H6.575Z" fill="#231f20"/><path d="M93.769,126.823l-.089.8c0,.034-.016.065-.02.1h51.551v-.893H93.769Z" fill="#231f20"/><path d="M5.682,127.716H56.34c0-.033-.017-.064-.02-.1l-.089-.8H4.789v.893Z" fill="#231f20"/><path d="M94.426,128.61c.057-.3.108-.591.142-.894H93.66c-.037.307-.121.6-.184.894Z" fill="#231f20"/><path d="M56.524,128.61c-.063-.3-.147-.587-.184-.894h-.908c.034.3.085.6.142.894Z" fill="#231f20"/><path d="M94.568,127.716c-.034.3-.085.6-.142.894h50.785v-.894H94.568Z" fill="#231f20"/><path d="M54.659,128.61h.915c-.057-.3-.108-.591-.142-.894H4.789v.894Z" fill="#231f20"/><path d="M138.246,50.374H11.423v72.2H138.246Zm-1.786,70.419H13.209V52.16H136.46Z" fill="#231f20"/><path d="M38.949,59.707A16.694,16.694,0,0,1,40.7,26.38C37.565,14.835,44.615,3.175,55.214.549,66.431-2.231,78.708,5.83,80.408,18.408a15.369,15.369,0,0,1,28.861,7.653C121,27.538,128.1,38.273,126.012,47.11c-1.585,6.7-8.409,12.1-16.743,12.6Z" fill="url(#linear-gradient)"/><path d="M89.7,54.906l2.268-2.048L89.6,47.132l-3.053.156a1.9,1.9,0,0,1-1.995-1.995l.156-3.053-5.726-2.372-2.048,2.269a1.9,1.9,0,0,1-2.822,0L72.06,39.868,66.335,42.24l.156,3.053a1.9,1.9,0,0,1-2,1.995l-3.052-.156c-1.185,2.859-1.188,2.867-2.372,5.726l2.269,2.048a1.9,1.9,0,0,1,0,2.822l-2.269,2.048c1.184,2.859,1.187,2.867,2.372,5.726l3.052-.156a1.9,1.9,0,0,1,2,1.995l-.156,3.053,5.725,2.372L74.109,70.5a1.9,1.9,0,0,1,2.822,0l2.048,2.269,5.726-2.372-.156-3.053a1.9,1.9,0,0,1,1.995-1.995L89.6,65.5l2.371-5.726L89.7,57.728A1.9,1.9,0,0,1,89.7,54.906ZM76.024,65.8a9.479,9.479,0,1,1,9.48-9.479A9.479,9.479,0,0,1,76.024,65.8Z" stroke="#fff" stroke-miterlimit="10" fill="url(#Orange_Yellow-2)"/><polygon points="41.312 94.72 41.312 77.353 31.901 77.353 31.901 94.72 28.954 94.72 32.788 101.721 36.622 108.723 40.456 101.721 44.29 94.72 41.312 94.72" fill="url(#linear-gradient-2)"/><polygon points="104.628 91.822 104.628 109.189 114.038 109.189 114.038 91.822 116.985 91.822 113.151 84.821 109.317 77.819 105.484 84.821 101.65 91.822 104.628 91.822" fill="url(#linear-gradient-3)"/><polygon points="80.722 81.322 89.538 91.851 89.538 115.638 62.511 115.638 62.511 81.322 80.722 81.322" stroke="#231f20" stroke-miterlimit="10" fill="url(#Orange_Yellow-3)"/><rect x="66.191" y="89.776" width="9.328" height="3.728" rx="1.043" fill="#fff" stroke="#231f20" stroke-miterlimit="10"/><rect x="66.135" y="97.367" width="19.778" height="3.728" rx="1.043" fill="#fff" stroke="#231f20" stroke-miterlimit="10"/><rect x="66.276" y="105.523" width="17.77" height="3.728" rx="1.043" fill="#fff" stroke="#231f20" stroke-miterlimit="10"/></g></g></svg>