<svg xmlns="http://www.w3.org/2000/svg" viewBox="0 0 150 150"><defs><style>.a{fill:#f90;}.b{fill:#acb0b1;}</style></defs><path class="a" d="M64.1,103.6a5.1,5.1,0,0,1-4.1-2A71.5,71.5,0,0,1,49.8,86.9a7.8,7.8,0,0,1-.9-2.7c0-1,.3-1.4,1.4-1.3a7.7,7.7,0,0,1,2.9,1,64.3,64.3,0,0,1,9,5.6c.6.4,1.1,1.1,1.8,1.2s1.1-.9,1.6-1.3l9.8-8.1A115.9,115.9,0,0,1,88.2,72a7.1,7.1,0,0,1,1.8-.8.9.9,0,0,1,1.1,0,.9.9,0,0,1,.1,1,20.6,20.6,0,0,1-2.1,3.9c-3.2,4.9-7,9.3-10.6,13.8-.9,1.2-1.8,2.4-2.8,3.5-2.4,2.8-4.8,5.5-7.3,8.2A5.5,5.5,0,0,1,64.1,103.6Z"/><path class="a" d="M60.6,65.2V60.5c0-1,.2-2,1.2-2.4a3.3,3.3,0,0,1,3.3.3c1.1.7.9,1.1.9,1.9v9.8c0,1.7-1,2.5-2.8,2.5A2.3,2.3,0,0,1,60.6,70Z"/><path class="a" d="M94.6,101.4H89.8c-1,0-1.9-.2-2.3-1.2a3,3,0,0,1,.3-3.4,2.1,2.1,0,0,1,1.9-.8h9.8c1.7.1,2.5,1,2.5,2.8s-.9,2.6-2.5,2.6Z"/><path class="b" d="M111.1,66.4a17.6,17.6,0,0,1-1.4-2.3c.5,0,.5.5.7.7A3.4,3.4,0,0,1,111.1,66.4Z"/><path class="b" d="M105.9,59.1a3.2,3.2,0,0,1-1.1-1.2C105.3,58.2,105.8,58.5,105.9,59.1Z"/><path class="b" d="M107.8,61.4a2.9,2.9,0,0,1-1-1.2A1.7,1.7,0,0,1,107.8,61.4Z"/><path class="b" d="M113.4,70.6a2.6,2.6,0,0,1-.6-1.3C113.4,69.6,113.3,70.2,113.4,70.6Z"/><path class="b" d="M114,71.9a1.6,1.6,0,0,1-.5-1.1C113.8,71.1,114.1,71.4,114,71.9Z"/><path class="b" d="M106.6,59.9l-.5-.5A.5.5,0,0,1,106.6,59.9Z"/><path class="b" d="M112,67.9a.6.6,0,0,1-.3-.6.5.5,0,0,1,.3.6Z"/><path class="b" d="M112.7,69.2a.7.7,0,0,1-.3-.6A.5.5,0,0,1,112.7,69.2Z"/><path class="b" d="M111.6,67.1a.7.7,0,0,1-.4-.5C111.5,66.7,111.6,66.8,111.6,67.1Z"/><path class="b" d="M108.9,62.9a.3.3,0,0,1-.3-.3C108.9,62.5,108.9,62.7,108.9,62.9Z"/><path class="b" d="M112.3,68.5a.8.8,0,0,1-.2-.4C112.3,68.1,112.4,68.3,112.3,68.5Z"/><path class="b" d="M109.2,63.3c-.2,0-.2-.1-.2-.3S109.2,63.2,109.2,63.3Z"/><path class="b" d="M108.6,62.5c-.1,0-.2-.1-.2-.3h0C108.6,62.2,108.6,62.3,108.6,62.5Z"/><path class="b" d="M108.1,61.8q-.3-.1-.3-.3A.3.3,0,0,1,108.1,61.8Z"/><path class="b" d="M109.4,63.6h-.1C109.3,63.5,109.4,63.6,109.4,63.6Z"/><path class="b" d="M108.3,62.1h-.1C108.3,62,108.3,62,108.3,62.1Z"/><path class="a" d="M98.3,119.1c-.3-.7.2-.7.7-.7h1a.7.7,0,0,1,.6.3h0c.1.4.2.8-.1,1.1s-.2,0-.2-.2.2-.9-.3-.9-.3.6-.4.9,0,.2-.1.2-.2-.1-.2-.3.2-.8-.3-.8-.3.5-.4.8,0,.4-.2.3-.1-.1-.1-.3Z"/><path class="a" d="M105.2,118.9c0-1,0-1,1-.9a.5.5,0,0,1,.6.6c-.1.1-.2.3-.1.4s.3.6-.1.8-.7.1-1.1.2-.3-.2-.3-.4Zm.6.2c-.1,0-.2,0-.2.3s.2.2.4.2.4,0,.4-.2S106.2,119.1,105.8,119.1Zm.6-.6c-.1-.2-.3-.2-.5-.2s-.3.2-.3.4h.4c.2,0,.4-.1.4-.3Z"/><path class="a" d="M101.8,118.9c-.2-.4-.5.1-.8-.2a.7.7,0,0,1,.9-.2c.3,0,.4.3.4.6a.8.8,0,0,0,.3.8c-.4.1-.8-.1-1.1,0a.4.4,0,0,1-.5-.2.1.1,0,0,1-.1-.1c0-.3.2-.4.5-.5S101.7,119.1,101.8,118.9Z"/><path class="a" d="M108.7,119.9h-.9c-.3.1-.6.1-.7-.3s.3-.5.6-.6h.2c0-.3-.1-.3-.2-.3s-.4.3-.5,0,.3-.3.5-.3.8.2.8.7A.8.8,0,0,0,108.7,119.9Z"/><path class="a" d="M103.4,119.3h.1c.2-.2.1-.8.5-.7s-.1.5-.2.8a3,3,0,0,1-.4,1,.5.5,0,0,1-.6.2h0c-.3-.2,0-.3.1-.5s0-.7-.1-1.1-.3-.3-.1-.5.3.2.4.4S103.2,119.2,103.4,119.3Z"/><path class="a" d="M108.9,119.2c.1-.3-.1-.7.2-.7s.2.4.2.7.2.7-.2.7S109.1,119.4,108.9,119.2Z"/><path class="a" d="M105.8,119.1c.4,0,.6,0,.6.3s-.2.2-.4.2-.4,0-.4-.2S105.7,119.1,105.8,119.1Z"/><path class="a" d="M106.4,118.5c0,.2-.2.3-.4.3s-.3.1-.4-.1.1-.4.3-.4S106.3,118.3,106.4,118.5Z"/><path class="a" d="M110.8,119.1a.5.5,0,0,1-.5.5c-.2,0-.3-.2-.3-.4s.1-.4.3-.4h.1C110.6,118.7,110.8,118.9,110.8,119.1Z"/><path class="a" d="M98.9,118.2l-.9.6-1,.8.2-.2h.9l.2.2h0l.2.2h0v.3h0v.3h0v.3h.1l-.2.3v-.2l-.2.3.4-.4h-.2l.4-.2-1.3-1.8-.6.4h.3l-1.1.6,1.8,1h0v.3h0v.2h0l-.2.3.9-.8a1.2,1.2,0,0,0,0-1.5.7.7,0,0,0-.6-.4.8.8,0,0,0-.8.1,7.7,7.7,0,0,1-1.8,1h.3l1.4,1.4h0v.2h.1l-.2.3V121l-.2.2.8-.5a3.6,3.6,0,0,0,1-1.1,1.1,1.1,0,0,0-.4-1.5h0a1.3,1.3,0,0,0-1.6.4v.2l.2-.3-.5.5.2-.2-.7.5a1.5,1.5,0,0,0-.8,1.1,1.4,1.4,0,0,0,.2,1.1,1.3,1.3,0,0,0,1.2.3l2-1.1-1.4-1.9-.6.6a2.2,2.2,0,0,0-.6,1.3,1.1,1.1,0,0,0,.6,1,1.1,1.1,0,0,0,1.1,0,5.9,5.9,0,0,0,1.8-1.3,1.2,1.2,0,0,0,.1-1.5,1.2,1.2,0,0,0-1.5-.3,2.4,2.4,0,0,0-1.5,2.1,1.4,1.4,0,0,0,1.6,1.2H98c.5-.1.8-.5,1.2-.8l-.3.2,1.2-.7a1.3,1.3,0,0,0,.4-1.6h0a1.2,1.2,0,0,0-1.6-.4Z"/><path class="a" d="M106.8,117.1a7.4,7.4,0,0,1-1.9,1.6l-2.6,1.7,1.7,1.3h0v-.2h0l.2-.2a2,2,0,0,1,.7-.6l2-1.3,4.3-2.3-1.6-.7v-.5c0-.1.2-.3,0-.2l-.2.2-.4.4-.4.3h-.3l-1.7,1.1-1.7.8-1,.4h-.8l.5.2h0l.4.4c.3.4-.2,1,.1.6v-.3l.3-.4.9-1-1.6-1.6a4.4,4.4,0,0,1-1.5,1.2l-.7.4h-.8c-.3.1-.3,0,.2.1l.5.3c.1,0,.2.2.2.3h0l.3-.2a1.8,1.8,0,0,1,.5-.7,4.4,4.4,0,0,1,1.5-1.2l-1.6-.5h0v-.7l-.2.2-.2.3-.2.3-.3.3-.6.5-.2.2-.4.2.6-.2h-.1l.8.4h-.1l.3.5c.1.3,0,.5.1.3l.2-.4h.1l.2-.2a5.2,5.2,0,0,1,1.1-1l2.4-1.8-1.5-1.5a14.8,14.8,0,0,1-3.3,3.3l1.4,1.8,1.1-1a4.3,4.3,0,0,1,1-.9l-1.6-1.6a.4.4,0,0,1-.1.3h0l-.4.3-.7.6-1.8,1.2a1.1,1.1,0,0,0-.4,1.5h0a1.1,1.1,0,0,0,1.6.4l2.1-1.4a6.9,6.9,0,0,0,1.7-1.7,1.2,1.2,0,0,0-.2-1.4,1.1,1.1,0,0,0-1.4-.2l-2.5,2.2a1.4,1.4,0,0,0-.1,1.6,1.2,1.2,0,0,0,1.5.3,20.4,20.4,0,0,0,4.1-4.2c.6-.9-.7-2.2-1.6-1.5a16,16,0,0,0-3.1,2.2l-1.2,1.1a3.4,3.4,0,0,0-.9,1.9,1.2,1.2,0,0,0,1.2,1.3h.7l1.4-1.1,1.2-1.3.4-.6a1.6,1.6,0,0,0-.1-1.5,1,1,0,0,0-1.5-.4,9.1,9.1,0,0,0-2.4,2,6,6,0,0,0-.9,1.5,2,2,0,0,0,.3,2c.5.4,2.4,0,3.3-.4a10.2,10.2,0,0,0,2.3-1.8,1.2,1.2,0,0,0,0-1.6,1,1,0,0,0-1.6,0l-1.4,1.6a2.2,2.2,0,0,0-.5,2.2c.5.8,1.5.7,2.3.4a5.2,5.2,0,0,0,1.6-.6,12.9,12.9,0,0,0,3.3-1.7l1.5-1.2c.6-.5,1.4-1.1,1.1-2a1.1,1.1,0,0,0-1.5-.8h-.2l-4.7,2.5c-1.5.9-3.2,1.8-3.7,3.5a1.1,1.1,0,0,0,1.6,1.3l2.7-1.7a15.5,15.5,0,0,0,2.4-1.9,1.2,1.2,0,0,0,.1-1.7,1.2,1.2,0,0,0-1.6-.1Z"/><path class="a" d="M109,116.6a1.9,1.9,0,0,1-.2.7V117a7.2,7.2,0,0,1-1.1,1.9,1.4,1.4,0,0,0-.1.9l.4.6a1,1,0,0,0,.7.2,1.6,1.6,0,0,0,.9-.3,8.3,8.3,0,0,0,1.6-2.1l-2-1.1-.4.6.2-.2a3.9,3.9,0,0,0-.8,1,1,1,0,0,0,0,1.6,1.2,1.2,0,0,0,1.6,0l.7-.8a4.1,4.1,0,0,0,.7-1.1,1.3,1.3,0,0,0,.1-.9,1.5,1.5,0,0,0-.5-.6,1.1,1.1,0,0,0-1.6.4,3.5,3.5,0,0,1-.5.8l.2-.2a9.4,9.4,0,0,1-1,1l1.8,1.4a10,10,0,0,0,1.5-2.9,1.1,1.1,0,0,0-.8-1.4h0a1.3,1.3,0,0,0-1.5.8Z"/><path class="a" d="M96.2,66.1a51.5,51.5,0,0,1,6.5,9.5V55.7a52.6,52.6,0,0,0-7.9-6.2A49.2,49.2,0,0,0,59.4,42C42.7,44.7,30.3,53.8,22.1,68.5a48.7,48.7,0,0,0-5.2,14.7c-.1.6-.3.8-.9.8H9.4a.8.8,0,0,0-.7.1l.3.7c4.4,7.6,8.9,15.2,13.3,22.9.4.7.4.7.9,0L36.9,84.6a.6.6,0,0,0,.2-.6H29.6c-.6,0-.8-.1-.6-.7a39.3,39.3,0,0,1,8.1-16.2,40.3,40.3,0,0,1,8.1-7.3,38.6,38.6,0,0,1,28-6.1A37.5,37.5,0,0,1,96.2,66.1Z"/><path class="a" d="M115.8,78H103.7c3.8,9.1,3.7,18.9-.1,29.3a16.2,16.2,0,0,1-1.9,3.7,42.8,42.8,0,0,1-3.7,5.7l-1.5,1.7h.4c.9,0,1.1.4,1,1.2s0,.3-.2.3-.2-.2-.2-.3.2-.9-.3-.9-.3.6-.4.9,0,.3-.2.3-.2-.2-.2-.3v-.9H96c.1.4-.1.7.4,1.1H94.8c-.3.7-1,1.1-1.4,1.6l-.7.6a39.3,39.3,0,0,1-16.3,8.5c-.5.1-.7.3-.7.8v9.3c0,.6-.3,1.5.1,1.9s1.3-.1,2-.2a51.4,51.4,0,0,0,26.9-15.3c1.5-1.7,2.8-3.4,4.2-5.1a25.3,25.3,0,0,0,1.3-2.2.6.6,0,0,1-.6-.8h0a.7.7,0,0,1,.7-.6h.1c.2,0,.4,0,.4-.3s0-.3.3-.3.1.3.1.4a24.3,24.3,0,0,0,2-3.5c.6-1.2,1.1-2.5,1.7-3.7s.2-.6.3-.9a51.1,51.1,0,0,0,1-32.1Zm-15.3,41.9c0,.2-.2,0-.2-.2s.2-.9-.3-.9-.3.6-.4.9,0,.2-.1.2-.2-.1-.2-.3.2-.8-.3-.8-.3.5-.4.8,0,.4-.2.3-.1-.1-.1-.3v-.5c-.3-.7.2-.7.7-.7h1a.7.7,0,0,1,.6.3h0C100.7,119.2,100.8,119.6,100.5,119.9Zm1,0a.4.4,0,0,1-.5-.2.1.1,0,0,1-.1-.1c0-.3.2-.4.5-.5s.3,0,.4-.2-.5.1-.8-.2a.7.7,0,0,1,.9-.2c.3,0,.4.3.4.6a.8.8,0,0,0,.3.8c-.4.1-.8-.1-1.1,0Zm2.3-.6a3,3,0,0,1-.4,1,.5.5,0,0,1-.6.2h0c-.3-.2,0-.3.1-.5s0-.7-.1-1.1-.3-.3-.1-.5.3.2.4.4.1.4.3.5h.1c.2-.2.1-.8.5-.7s-.1.5-.2.8Zm2.8.5c-.3.3-.7.1-1.1.2s-.3-.2-.3-.4v-.7c0-1,0-1,1-.9a.5.5,0,0,1,.6.6c-.1.1-.2.3-.1.4s.3.6-.1.8Zm1.2.1c-.3.1-.6.1-.7-.3s.3-.5.6-.6h.2c0-.3-.1-.3-.2-.3s-.4.3-.5,0,.3-.3.5-.3.8.2.8.7a.8.8,0,0,0,.2.8Zm1.3,0c-.4,0,0-.5-.2-.7s-.1-.7.2-.7.2.4.2.7S109.5,119.9,109.1,119.9Z"/><polygon class="a" points="111.1 19.9 97.3 39 104.2 39 104.2 75.7 117.2 75.7 117.2 39 124.1 39 111.1 19.9"/><polygon class="a" points="135.1 11.4 123.3 27.8 129.2 27.8 129.2 59.3 140.3 59.3 140.3 27.8 146.3 27.8 135.1 11.4"/><path class="a" d="M5.1,130.4l2.5-.3c.3,1.2.8,1.9,1.7,1.9s2-1.4,2.2-4.2a3.9,3.9,0,0,1-2.7,1A3.7,3.7,0,0,1,6,127.5a4.9,4.9,0,0,1-1.1-3.3,5.1,5.1,0,0,1,1.2-3.5,4.2,4.2,0,0,1,3.4-1.4,4.9,4.9,0,0,1,3.8,1.7c.9,1.2,1.3,3.1,1.3,5.7,0,5-1.8,7.5-5.3,7.5a4.2,4.2,0,0,1-2.9-.9A4,4,0,0,1,5.1,130.4Zm6.4-4.7h0a6.7,6.7,0,0,0-.6-2.8,1.6,1.6,0,0,0-1.5-1.2,1.4,1.4,0,0,0-1.2.6,3.9,3.9,0,0,0-.4,1.8,3.4,3.4,0,0,0,.5,1.7,1.5,1.5,0,0,0,1.4.7A3.4,3.4,0,0,0,11.5,125.7Z"/><path class="a" d="M16.9,130.4l2.5-.3c.3,1.2.8,1.9,1.7,1.9s2-1.4,2.2-4.2a3.9,3.9,0,0,1-2.7,1,3.7,3.7,0,0,1-2.8-1.3,4.9,4.9,0,0,1-1.1-3.3,5,5,0,0,1,1.2-3.5,4.4,4.4,0,0,1,3.4-1.4,4.9,4.9,0,0,1,3.8,1.7c.9,1.2,1.3,3.1,1.3,5.7,0,5-1.8,7.5-5.3,7.5a4.2,4.2,0,0,1-2.9-.9A4.4,4.4,0,0,1,16.9,130.4Zm6.4-4.7h0a8.7,8.7,0,0,0-.5-2.8,1.8,1.8,0,0,0-1.7-1.2,1.1,1.1,0,0,0-1,.6,4.1,4.1,0,0,0-.5,1.8,3.4,3.4,0,0,0,.5,1.7,1.5,1.5,0,0,0,1.3.7A3.4,3.4,0,0,0,23.3,125.7Z"/><path class="a" d="M29.6,134.1v-3.5h3.5v3.5Z"/><path class="a" d="M36.3,130.4l2.5-.3c.3,1.2.8,1.9,1.6,1.9s2.1-1.4,2.2-4.2a3.8,3.8,0,0,1-5.4-.3,4.5,4.5,0,0,1-1.2-3.3,5.1,5.1,0,0,1,1.3-3.5,4.3,4.3,0,0,1,3.4-1.4,4.9,4.9,0,0,1,3.8,1.7,10.4,10.4,0,0,1,1.3,5.7q0,7.5-5.4,7.5a4.1,4.1,0,0,1-2.8-.9A4,4,0,0,1,36.3,130.4Zm6.3-4.7h0a5.4,5.4,0,0,0-.5-2.8,1.7,1.7,0,0,0-1.6-1.2,1.3,1.3,0,0,0-1.1.6A3.9,3.9,0,0,0,39,124a3.3,3.3,0,0,0,.4,1.7,1.6,1.6,0,0,0,1.4.7A2.4,2.4,0,0,0,42.6,125.7Z"/><path class="a" d="M51.4,127.1c-2.1,0-3.1-1.3-3.1-3.9s1-3.9,3.1-3.9a2.6,2.6,0,0,1,2.3,1,4.8,4.8,0,0,1,.8,2.9C54.5,125.8,53.4,127.1,51.4,127.1Zm0-1.4c.6,0,.9-.8.9-2.5s-.3-2.6-.9-2.6-.9.9-.9,2.6.3,2.5.9,2.5Zm-.8,8.4,10.5-14.5H63L52.5,134.1Zm11.6.1c-2.1,0-3.1-1.3-3.1-3.8s1-3.9,3.1-3.9a2.6,2.6,0,0,1,2.3,1,4.8,4.8,0,0,1,.8,2.9c0,2.5-1.1,3.8-3.1,3.8Zm0-1.3c.5,0,.8-.8.8-2.5s-.2-2.6-.8-2.6-.9.9-.9,2.6.3,2.5.9,2.5Z"/></svg>