<svg xmlns="http://www.w3.org/2000/svg" viewBox="0 0 150 150"><defs><style>.a{fill:#73d3f1;}.b{fill:#4269b1;}</style></defs><path class="a" d="M44.7,48.8c-.1-1.3-.2-2.2-.3-3a5.7,5.7,0,0,0-5-5.2c-2.4-.4-5.1,1.5-5.9,4.2A80.2,80.2,0,0,0,31.7,53c-1.5,7.7-2.6,15.6-5.6,22.9a2.7,2.7,0,0,0-.3,1.2c-.2.9-.4,1.9.8,2.2s1.3-.7,1.5-1.5,1.6-4.7,2.1-7.1c1.6-7.3,3-14.7,4.4-22.1a24.4,24.4,0,0,1,.6-2.6c.8-1.8,1.8-3.6,4.2-3.2s2.9,2.2,3,4.2c.3,4-.4,8-.9,11.9-1.1,8.6-1.8,17-.7,25.7s-3.7,16.5-10.7,21.9c-4.8,3.6-8.5,8.1-12.3,12.6-1.4,1.7-2.1,1.8-3.5,0-3.1-3.9-6.4-7.7-9.7-11.3-1.4-1.4-1.1-2.2.2-3.3a42.1,42.1,0,0,0,3.7-3.6,16.5,16.5,0,0,0,5-11.5,151,151,0,0,0-.1-23.3,12.2,12.2,0,0,1,2.7-9.6c10.8-12.6,23-23.6,37.7-31.6,1.5-.8,3.3-2.2,5-.8s1.1,3.7.4,5.6c-2,5.1-3.1,10.9-8.7,14C48.4,44.8,46.8,46.9,44.7,48.8Z"/><path class="a" d="M104.8,48.7c-3.3-2.8-6.3-5.2-9.1-7.9s-4.9-9-5.8-14.1c-.5-3,1.4-3.9,4.5-2.5a91.2,91.2,0,0,1,17.8,11.7,158.9,158.9,0,0,1,20.5,19.7,13.7,13.7,0,0,1,3.4,11.1,144.3,144.3,0,0,0,0,23.7c.3,5.5,3.4,9.4,7.3,12.9s3,2.8.4,5.9l-8.9,10.2c-.5.6-1.1,2.3-2.2.7-5.1-7.2-12.5-12.3-18.4-18.8a21.3,21.3,0,0,1-5.5-17.7,64.3,64.3,0,0,0-.8-22.3c-1-4.5-.7-9.3-.9-13.9,0-2.2.6-4.4,3.3-4.6s3.6,1.8,4.1,4c1.6,7.9,3.2,15.8,4.7,23.8a44.8,44.8,0,0,0,2.2,7.1c.3.8.5,2,1.7,1.6s.8-1.5.6-2.4c-.9-3.1-2.1-6-2.9-9.1-1.7-6.8-2.6-13.8-4.1-20.6-.4-2.1-1-4.1-2.8-5.4-3.9-2.8-8.2-.5-8.9,4.8C104.9,47.2,104.9,47.8,104.8,48.7Z"/><path class="b" d="M73.7,103.4c-2.6-.1-5.2-.3-7.7-.6l-2.6-.6-2.6-.7a33.8,33.8,0,0,1-5.2-2.2,16,16,0,0,1-6.1-6,12.9,12.9,0,0,1-.8-2.6V88.1c0-.8.1-1.7.1-2.6l.5-2.6a23.3,23.3,0,0,1,.7-2.5,32.8,32.8,0,0,1,2-5.2c.9-1.7,1.9-3.4,2.9-5l.9-1.3,1.1-1.4.3-.4A76.5,76.5,0,0,1,66.1,58a2.6,2.6,0,0,1,2.5-1H81.5c.5.1,1.1-.2,1.6.2l5.5,5.1a60.6,60.6,0,0,1,6.5,7.9,49.9,49.9,0,0,1,2.9,5,47.1,47.1,0,0,1,2.1,5.2l.6,2.5.5,2.6c0,.9.1,1.8.1,2.6a22.5,22.5,0,0,1,0,2.6,12.9,12.9,0,0,1-.8,2.6,16.7,16.7,0,0,1-1.6,2.4,23.6,23.6,0,0,1-4.6,3.6,29.1,29.1,0,0,1-5.1,2.2l-2.6.7-2.6.6c-2.5.3-5.1.5-7.7.6ZM78.9,69l-2.6-.5H73.7a8,8,0,0,0-2.6.5,10.9,10.9,0,0,0-2.5,1h-.1A13.1,13.1,0,0,0,62,77.8a7.6,7.6,0,0,0-.6,2.6,7.5,7.5,0,0,0-.1,2.6,7.3,7.3,0,0,0,.4,2.5,13.6,13.6,0,0,0,9.4,9.9,7.5,7.5,0,0,0,2.6.5h2.6a5.8,5.8,0,0,0,2.6-.6,5.7,5.7,0,0,0,2.7-1.1,5.7,5.7,0,0,0,1.3-.8l1.3-1a8.7,8.7,0,0,0,1.6-1.7,12,12,0,0,0,2.5-5.2,7.3,7.3,0,0,0,.4-2.5,11,11,0,0,0-.2-2.6,5.8,5.8,0,0,0-.6-2.6A13.1,13.1,0,0,0,81.3,70h-.2a10.2,10.2,0,0,0-2.2-.9Z"/><path class="b" d="M82.8,41.7a3.2,3.2,0,0,1,1.2-.8,2.3,2.3,0,0,1,2.6,2.5v.8a12,12,0,0,1-1.8,5.2l-.8,1a1.4,1.4,0,0,1-1.4.6,2.1,2.1,0,0,0-1.1,0H67.6c-.6,0-1.2.1-1.6-.6l-.8-1a13,13,0,0,1-1.9-5.2v-.8A2.5,2.5,0,0,1,66,40.9a4.2,4.2,0,0,1,1.2.8,2.8,2.8,0,0,1,.6,1.8c-.1.4.3.8.7.9h0c.7,0,1.1-.2,1.1-.9a5.5,5.5,0,0,1,.6-1.8l.9-.7a2.4,2.4,0,0,1,3,2.3c.1.8.3,1.1.9,1.1s.8-.3.9-1.1a2.4,2.4,0,0,1,3-2.3l.9.7a3.9,3.9,0,0,1,.6,1.8c0,.7.4.9,1.1.9a.9.9,0,0,0,.7-.9h0A2.8,2.8,0,0,1,82.8,41.7Z"/><path class="b" d="M68.5,52.7h13c1,.1,1,.1,1,1.2v.6c.1,1-.7.5-1,.7a11.3,11.3,0,0,0-2.6,0,11.3,11.3,0,0,0-2.6,0,11.3,11.3,0,0,0-2.6,0,11.3,11.3,0,0,0-2.6,0,11.3,11.3,0,0,0-2.6,0c-.3-.1-1,.2-.9-.7s.1-.9.1-1.3,0-.5.3-.4Z"/><path class="b" d="M68.7,72l2.4-1.1a13,13,0,0,1,7.8,0,15.1,15.1,0,0,1,2.6,1.2l.8.7L84,74.4l.8,1a12.8,12.8,0,0,1,2,5,21.7,21.7,0,0,1,.1,2.6,11.6,11.6,0,0,1-1.5,5.1,12.8,12.8,0,0,1-6.5,5.4l-2.6.6a11.3,11.3,0,0,1-2.6,0l-2.6-.5a13.7,13.7,0,0,1-6-4.6l-.5-.9A11.6,11.6,0,0,1,63.1,83a21.7,21.7,0,0,1,.1-2.6,13.9,13.9,0,0,1,2-5.1l.9-1.1,1.5-1.5Zm8,16.1-.3-.2-.4-.5-2.3-2.3c-.2-.1-.4-.2,0-.4a4,4,0,0,0,2.6-1.8h0c.4-.5.4-1.3.8-1.5s1.2-.1,1.8-.1h.5c.1,0,.1-.1.1-.2V79.9c0-.5-.1-.5-.4-.5H77.4c-.2.1-.4-.1-.5-.3h0a2.7,2.7,0,0,0-.6-1.2h-.1v-.2h2.6c.5.1.8,0,.7-.6v-.7c.1-.5-.2-.7-.7-.5H71.1c-.4,0-.8-.3-.8.4s-.1,1.4.8,1.4a5.8,5.8,0,0,1,2.6.2h.2a2.9,2.9,0,0,1,1.2,1.6h-4c-.8-.1-.8-.1-.7.7v.9c0,.1.1.2.2.1h4.5a2.7,2.7,0,0,1-1.4,1.7h0a11,11,0,0,1-2.6.2c-.2.1-.7-.3-.7.2a3.8,3.8,0,0,0,0,1.5c0,.2.5.1.7.3a.8.8,0,0,0,.4.4,14.5,14.5,0,0,0,2.2,2.1,1.2,1.2,0,0,0,.5.5,20.8,20.8,0,0,0,2.1,2.1c.1.2.2.2.4.1s1.2-1.2.1-2.1Z"/></svg>