<svg xmlns="http://www.w3.org/2000/svg" width="150" height="150.372" viewBox="0 0 150 150.372">
  <defs>
    <style>
      .cls-1 {
        fill: #6c6;
        isolation: isolate;
        opacity: 0.24;
      }

      .cls-2 {
        opacity: 0.5;
      }

      .cls-3, .cls-4, .cls-5 {
        fill: none;
        stroke: #34a853;
        stroke-miterlimit: 10;
        stroke-width: 0.264px;
      }

      .cls-4 {
        stroke-dasharray: 2.094 2.094;
      }

      .cls-5 {
        stroke-dasharray: 2.094 2.094 2.094 2.094;
      }

      .cls-6 {
        fill: #fff;
      }

      .cls-7 {
        fill: #34a853;
      }

      .cls-8 {
        fill: #4285f4;
      }

      .cls-9 {
        fill: #ea4335;
      }

      .cls-10 {
        fill: #fbbc05;
      }

      .cls-11 {
        fill: #f48f75;
      }

      .cls-12 {
        fill: #8ad4f3;
      }

      .cls-13 {
        fill: #d2e186;
      }

      .cls-14 {
        fill: #e84535;
      }

      .cls-15 {
        fill: #4182c3;
      }

      .cls-16 {
        fill: #4a8eca;
      }

      .cls-17 {
        fill: #459f49;
      }

      .cls-18 {
        fill: #10aa4c;
      }

      .cls-19 {
        fill: #fab119;
      }

      .cls-20 {
        fill: #fbba15;
      }

      .cls-21 {
        fill: #e12526;
      }

      .cls-22 {
        fill: #c4332d;
      }

      .cls-23 {
        fill: #fbbf14;
      }

      .cls-24 {
        fill: #17a74b;
      }

      .cls-25 {
        fill: #0e8042;
      }

      .cls-26 {
        fill: #3568b0;
      }

      .cls-27 {
        fill: #4ead50;
      }

      .cls-28 {
        fill: #fdd25c;
      }

      .cls-29 {
        fill: #1f8041;
      }

      .cls-30 {
        fill: #3868b0;
      }

      .cls-31 {
        fill: #4c7ebe;
      }

      .cls-32 {
        fill: #649163;
      }

      .cls-33 {
        fill: #18ab4d;
      }

      .cls-34 {
        fill: #158345;
      }

      .cls-35 {
        fill: #e64a38;
      }

      .cls-36 {
        fill: #bdc1c7;
      }

      .cls-37 {
        fill: #e6eaf0;
      }

      .cls-38 {
        fill: #93ccef;
      }

      .cls-39 {
        fill: #13ab4c;
      }

      .cls-40 {
        fill: #fbb817;
      }

      .cls-41 {
        fill: #457bbc;
      }

      .cls-42 {
        fill: #3b69b0;
      }

      .cls-43 {
        fill: #ec352d;
      }

      .cls-44 {
        fill: #168241;
      }
    </style>
  </defs>
  <g id="Layer_2" data-name="Layer 2">
    <g id="Layer_1-2" data-name="Layer 1">
      <path class="cls-1" d="M149.01,112.394c-7.265,27.132-56.545,46.126-74.763,33.735C51.7,130.793,76.273,67.074,68.224,64.9c-7.916-2.141-25.26,61.215-41.026,59.891C7.535,123.139-16.029,20.361,15.092,2.936,49.811-16.5,161.646,65.2,149.01,112.394Z"/>
      <g class="cls-2">
        <g>
          <path class="cls-3" d="M23.329,122.905q-.249-.471-.491-.937"/>
          <path class="cls-4" d="M21.881,120.105q-.723-1.431-1.391-2.816"/>
          <path class="cls-5" d="M20.038,116.345c-12.8-26.99-9.7-40.816-3.881-48.517,6.038-7.992,14.382-8.56,21.285-19.943,9.337-15.4,1.838-27.177,9.021-30.977,9.628-5.092,23.011,16.111,48.009,16.127,18.714.013,24.833-11.86,36.9-7.9,11.462,3.761,22.124,19.79,15.552,35.041-4.77,11.071-22.062,4.568-36.921,16.9C93.954,90.4,92.748,113.485,96.49,115.041c2.359.981,5.935-6.912,12.31-6.967,7-.061,13.3,9.351,18.619,21.633"/>
          <path class="cls-3" d="M127.833,130.672q.206.484.41.976"/>
          <g>
            <path class="cls-6" d="M24.2,122.394a.994.994,0,1,1-1.337-.431A.994.994,0,0,1,24.2,122.394Z"/>
            <path class="cls-7" d="M24.32,122.334a1.126,1.126,0,1,0-.489,1.515,1.128,1.128,0,0,0,.489-1.515Zm-1.769.906a.861.861,0,1,1,1.16.374.863.863,0,0,1-1.16-.374Z"/>
          </g>
          <path class="cls-7" d="M128.849,133.127a8,8,0,0,0-2.042-1.586l1.335-.074.978-.911A7.979,7.979,0,0,0,128.849,133.127Z"/>
        </g>
      </g>
      <g>
        <path class="cls-8" d="M133.79,92.8c-.139-3.085-.575-6.156-.829-9.237-.068-.828-.415-1.064-1.216-1.063q-25.91.027-51.82,0c-.771,0-.944.245-.941.975.025,6.873.015,13.746.015,20.619V105H109.9a2.153,2.153,0,0,1,0,.388,29.579,29.579,0,0,1-2.735,7.551,25.911,25.911,0,0,1-5.927,7.418l17.815,14.1c.432-.453.864-.906,1.282-1.378a50.416,50.416,0,0,0,8.885-14.189A60.236,60.236,0,0,0,133.79,92.8Z"/>
        <path class="cls-9" d="M57.153,67.119A32.782,32.782,0,0,1,76.7,58.861a32.229,32.229,0,0,1,10.366.874,30.122,30.122,0,0,1,13.372,7.17c.529.49.783.493,1.285-.013q7.483-7.537,15.01-15.03c.18-.18.348-.372.532-.569-.091-.11-.151-.193-.222-.265-.2-.2-.39-.418-.6-.606a56.542,56.542,0,0,0-14.158-9.238,54.715,54.715,0,0,0-20.048-4.763,58.136,58.136,0,0,0-14.037.935,56.784,56.784,0,0,0-33,19.559,57.7,57.7,0,0,0-4.344,5.964l18.2,14.561A34.968,34.968,0,0,1,57.153,67.119Z"/>
        <path class="cls-7" d="M98.919,122.143C91.3,127.33,82.8,128.814,73.85,127.489a32.313,32.313,0,0,1-19.206-10.352,35.472,35.472,0,0,1-6.365-9.476c-.077-.169-.144-.34-.218-.51L29.674,121.86A57.026,57.026,0,0,0,41.34,136.147a56.286,56.286,0,0,0,14.271,9.214,55.4,55.4,0,0,0,20.4,4.932,63.906,63.906,0,0,0,13.671-.75,56.508,56.508,0,0,0,15.167-4.744,48.843,48.843,0,0,0,14.208-10.338l-17.815-14.1A25.939,25.939,0,0,1,98.919,122.143Z"/>
        <path class="cls-10" d="M45.141,93.574a35.732,35.732,0,0,1,.682-6.75,34.426,34.426,0,0,1,3.226-9.384l-18.2-14.561a56.44,56.44,0,0,0-8.655,26.638,58.678,58.678,0,0,0,.614,13.286,57.516,57.516,0,0,0,6.135,17.778c.235.433.486.854.731,1.279l18.387-14.709A33.691,33.691,0,0,1,45.141,93.574Z"/>
      </g>
      <g>
        <path class="cls-11" d="M13.249,81.993a.083.083,0,1,0-.086-.083A.084.084,0,0,0,13.249,81.993Z"/>
        <path class="cls-12" d="M18.9,81.171a.1.1,0,1,0-.106-.1A.1.1,0,0,0,18.9,81.171Z"/>
        <path class="cls-12" d="M16.344,83.574a.1.1,0,1,0-.106-.1A.1.1,0,0,0,16.344,83.574Z"/>
        <path class="cls-13" d="M19.564,82.579a.115.115,0,1,0-.119-.114A.116.116,0,0,0,19.564,82.579Z"/>
        <path class="cls-14" d="M14.715,81.183c.514.37,1.035.746,1.551,1.116.284.2.284.2.561,0,.521-.364,1.042-.74,1.557-1.109,0,.07.007.14.007.214,0,.561,0,1.115.007,1.676,0,.007-.007.013-.007.019l-1.722,1.243a.158.158,0,0,1-.172.034.143.143,0,0,1-.05-.034L14.725,83.1l-.006-.009v-.01Z"/>
        <path class="cls-15" d="M14.82,83.159c0,.007.006.013.006.019,0,.784-.006,1.562,0,2.346,0,.134-.039.166-.171.16-.3-.006-.594,0-.891-.006a.449.449,0,0,1-.33-.123.438.438,0,0,1-.1-.145.423.423,0,0,1-.031-.172V82.07a.46.46,0,0,1,.078.044C13.857,82.471,14.338,82.815,14.82,83.159Z"/>
        <path class="cls-16" d="M14.715,83.083c0,.006.006.013.006.019,0,.784-.006,1.562,0,2.345,0,.134-.04.166-.172.161-.3-.007-.594,0-.89-.007a.454.454,0,0,1-.179-.028.447.447,0,0,1-.151-.094.431.431,0,0,1-.1-.146.42.42,0,0,1-.031-.172V81.993a.469.469,0,0,1,.079.044C13.751,82.388,14.235,82.732,14.715,83.083Z"/>
        <path class="cls-17" d="M18.469,83.121c.007-.007.007-.013.007-.025.125-.09.25-.179.382-.268.376-.268.759-.642,1.135-.917,0,.917,0,1.937.007,2.855v.408a.441.441,0,0,1-.032.172.432.432,0,0,1-.1.146.459.459,0,0,1-.33.128h-.957c-.092,0-.105-.032-.105-.107v-2.3A.444.444,0,0,1,18.469,83.121Z"/>
        <path class="cls-18" d="M18.383,83.1c.007-.006.007-.013.007-.026.125-.089.25-.178.383-.267.375-.268.758-.542,1.135-.81,0,.918,0,1.836.006,2.747v.408a.446.446,0,0,1-.032.173.454.454,0,0,1-.43.273H18.5c-.092,0-.105-.031-.105-.107V83.2A.43.43,0,0,1,18.383,83.1Z"/>
        <path class="cls-19" d="M19.986,81.948c-.375.268-.758.542-1.135.809-.125.09-.25.179-.382.268,0-.561,0-1.115-.007-1.676,0-.071,0-.141-.006-.215a3.5,3.5,0,0,1,.508-.369.7.7,0,0,1,.672,0,.674.674,0,0,1,.248.235.65.65,0,0,1,.1.323C19.993,81.534,19.993,81.739,19.986,81.948Z"/>
        <path class="cls-20" d="M19.908,82c-.377.268-.76.542-1.135.81-.126.089-.251.178-.383.267,0-.56,0-1.115-.007-1.676,0-.07,0-.14-.007-.217a3.494,3.494,0,0,1,.509-.369.7.7,0,0,1,.672,0,.691.691,0,0,1,.248.235.65.65,0,0,1,.1.323C19.914,81.585,19.908,81.8,19.908,82Z"/>
        <path class="cls-21" d="M14.715,83.083c-.483-.344-.964-.688-1.441-1.039a.567.567,0,0,0-.08-.045c0-.2-.006-.414,0-.618a.641.641,0,0,1,.1-.328.679.679,0,0,1,.257-.236.7.7,0,0,1,.685.022c.166.1.323.23.482.351C14.715,81.821,14.715,82.452,14.715,83.083Z"/>
      </g>
      <g>
        <path class="cls-15" d="M20.374,56.9c0,.676-.259,1.048-.714,1.048-.4,0-.673-.363-.68-1.02s.3-1.035.714-1.035C20.128,55.889,20.374,56.267,20.374,56.9Zm-1.116.031c0,.516.165.809.417.809.285,0,.421-.32.421-.828,0-.488-.129-.809-.418-.809C19.435,56.1,19.258,56.387,19.258,56.927Z"/>
        <path class="cls-15" d="M21.49,57.91v-.54h-.955v-.177l.917-1.267h.3V57.16h.288v.21h-.288v.54Zm0-.75v-.666c0-.1,0-.207.009-.311H21.49c-.064.116-.114.2-.171.293l-.5.674v.01Z"/>
        <path class="cls-11" d="M17.086,55.73A.083.083,0,1,0,17,55.647.085.085,0,0,0,17.086,55.73Z"/>
        <path class="cls-11" d="M23.582,53.891a.083.083,0,1,0-.086-.083A.084.084,0,0,0,23.582,53.891Z"/>
        <path class="cls-12" d="M22.766,54.9a.1.1,0,1,0-.107-.1A.1.1,0,0,0,22.766,54.9Z"/>
        <path class="cls-13" d="M23.436,56.321a.116.116,0,1,0-.12-.116A.118.118,0,0,0,23.436,56.321Z"/>
        <path class="cls-15" d="M23.821,55.033c-.478,0-.956.006-1.426.006-.021,0-.034-.006-.053-.006H18.917c-.093,0-.106.031-.106.115V56.32c0,.725,0,1.449.006,2.173-.006.007-.006.007-.006.013h-.186L17.2,58.5c0-.449-.007-.891-.007-1.34v-3.1a.6.6,0,0,1,.139-.423A.87.87,0,0,1,17.6,53.6h4.462a.987.987,0,0,1,.133.006h.192v1.285c0,.083.02.116.078.129.014,0,.033.006.054.006.431-.006.861,0,1.294,0C23.821,55.02,23.821,55.026,23.821,55.033Z"/>
        <path class="cls-19" d="M22.368,55.141c.537,0,1.081-.006,1.619-.006v3.4c0,.019-.006.045-.006.064h-1.62v-.007c0-.051.007-.1.007-.151Z"/>
        <path class="cls-15" d="M23.989,55.148H22.5c-.106,0-.132-.026-.132-.128.006-.468,0-.943,0-1.41.371,0,.743-.007,1.114,0a.527.527,0,0,1,.352.147.492.492,0,0,1,.152.34C23.994,54.453,23.989,54.8,23.989,55.148Z"/>
        <path class="cls-15" d="M23.821,55v.007H22.342c-.107,0-.134-.026-.134-.129.008-.429,0-.859,0-1.285H22.4c.3,0,.616-.007.922,0a.534.534,0,0,1,.352.147.5.5,0,0,1,.152.34c.007.3,0,.605,0,.9Z"/>
        <path class="cls-22" d="M22.374,60.154c0-.52,0-1.038-.006-1.552h1.613Q23.171,59.373,22.374,60.154Z"/>
        <path class="cls-15" d="M18.817,58.487v.4l-.517.045-.067-.763.319-.122Z"/>
        <path class="cls-17" d="M22.216,60.006c-.034,0-.061.006-.094.006H18.691a.246.246,0,0,1-.066-.006c0-.519-.006-1.032-.006-1.551a.016.016,0,0,1,.006-.013h.192s.7.007,1.042.007c.777,0,1.56,0,2.336-.007v.007H22.2C22.216,58.974,22.216,59.487,22.216,60.006Z"/>
        <path class="cls-22" d="M22.374,60.154l-.252.025-.139-.423.538-.358Z"/>
        <path class="cls-15" d="M18.823,58.449l-.226.186-.113-.289.2-.122Z"/>
        <path class="cls-16" d="M23.821,55.154c-.537,0-1.082.006-1.619.006-.02,0-.034-.006-.053-.006H18.731c-.093,0-.106.032-.106.115v1.174c0,.673,0,1.339.007,2.012v.16c-.007.007-.007.007-.007.013-.537,0-1.075-.006-1.613-.006,0-.449-.006-.892-.006-1.34v-3.1a.5.5,0,0,1,.07-.327.53.53,0,0,1,.262-.218.861.861,0,0,1,.272-.044h4.462a.972.972,0,0,1,.132.006v1.436c.007.084.04.109.133.1.5-.007.988,0,1.487,0Z"/>
        <path class="cls-23" d="M22.2,55.16c.537,0,1.082-.006,1.619-.006v3.4c0,.018-.006.044-.006.063H22.2v0c0-.051.007-.1.007-.151Z"/>
        <path class="cls-24" d="M22.216,60.173c-.034,0-.061.006-.094.006H18.691a.246.246,0,0,1-.066-.006c0-.519-.006-1.032-.006-1.551a.016.016,0,0,1,.006-.013c.412,0,.823.006,1.234.006.777,0,1.56,0,2.336-.006v.006H22.2C22.208,59.134,22.208,59.654,22.216,60.173Z"/>
        <path class="cls-25" d="M18.619,58.622c0,.519.006,1.032.006,1.551-.371,0-.743.006-1.115,0a.535.535,0,0,1-.352-.148.5.5,0,0,1-.152-.339c-.007-.359,0-.718,0-1.077C17.544,58.622,18.081,58.622,18.619,58.622Z"/>
        <path class="cls-26" d="M23.821,54.982v.151H22.334c-.1,0-.133-.026-.133-.1v-.024c.007-.468,0-.943,0-1.41h.193c.305,0,.617-.007.922,0a.534.534,0,0,1,.352.147.5.5,0,0,1,.152.34C23.828,54.377,23.821,54.68,23.821,54.982Z"/>
        <path class="cls-14" d="M22.216,60.173c0-.519,0-1.039-.008-1.551h1.613C23.285,59.134,22.746,59.654,22.216,60.173Z"/>
        <path class="cls-16" d="M20.281,56.9c0,.676-.259,1.048-.714,1.048-.4,0-.674-.363-.68-1.02s.3-1.035.719-1.035S20.281,56.267,20.281,56.9Zm-1.116.031c0,.516.164.809.417.809.285,0,.421-.32.421-.828,0-.488-.13-.809-.418-.809C19.342,56.1,19.165,56.387,19.165,56.927Z"/>
        <path class="cls-16" d="M21.4,57.91v-.54h-.955v-.177l.917-1.267h.3V57.16h.288v.21h-.288v.54Zm0-.75v-.666c0-.1,0-.207.009-.311H21.4c-.064.116-.114.2-.171.293l-.5.674v.01Z"/>
      </g>
      <g>
        <path class="cls-16" d="M53,37.529a.074.074,0,0,1,0,.036.07.07,0,0,1-.023.028.423.423,0,0,0-.327-.032.413.413,0,0,0-.147.08.408.408,0,0,0-.1.13c-.24.4-.488.8-.726,1.212a3.009,3.009,0,0,0-.336.605.239.239,0,0,1-.132.012H46.533c-.052,0-.112.02-.161-.019.007-.013.02-.025.027-.038.4-.669.811-1.345,1.214-2.015.241,0,.488.006.732.006.726,0,1.458-.006,2.184-.006q.988.018,1.978,0Z"/>
        <path class="cls-27" d="M46.131,39.186c-.321-.529-.633-1.057-.957-1.58-.046-.083,0-.128.033-.185q1.119-1.873,2.247-3.74a5.3,5.3,0,0,1,.4-.631c.321.548.653,1.089.977,1.637-.225.382-.449.758-.673,1.141q-.545.9-1.082,1.8C46.757,38.148,46.441,38.67,46.131,39.186Z"/>
        <path class="cls-23" d="M48.822,34.687c-.321-.548-.653-1.089-.976-1.637.019-.007.033-.02.053-.02.785,0,1.576,0,2.362.006-.133.058-.271-.006-.41.039.014.026.021.051.033.07.35.58.7,1.153,1.05,1.734.369.62.745,1.229,1.108,1.847a9.061,9.061,0,0,1,.469.81q-.992.019-1.98,0c-.059-.1-.112-.2-.172-.3-.428-.707-.857-1.421-1.283-2.128A2.153,2.153,0,0,0,48.822,34.687Z"/>
        <path class="cls-17" d="M48.822,34.687a2.723,2.723,0,0,1,.241.414c-.482.81-.97,1.619-1.452,2.428-.4.669-.812,1.345-1.214,2.015-.006.014-.02.026-.026.038a1.418,1.418,0,0,1-.241-.387c.316-.523.633-1.045.944-1.561.362-.6.722-1.2,1.075-1.8C48.373,35.445,48.6,35.069,48.822,34.687Z"/>
        <path class="cls-19" d="M52.511,37.529c-.133-.28-.311-.542-.469-.809q-.555-.93-1.108-1.848c-.35-.58-.7-1.154-1.05-1.733-.012-.02-.019-.045-.033-.07.139-.039.284.019.41-.039.059.006.072.058.1.1.865,1.433,1.722,2.867,2.586,4.307a.577.577,0,0,1,.041.1C52.833,37.529,52.665,37.529,52.511,37.529Z"/>
        <path class="cls-15" d="M51.336,39.588a2.675,2.675,0,0,1,.336-.605c.231-.409.481-.8.726-1.212a.408.408,0,0,1,.1-.13.425.425,0,0,1,.314-.1.409.409,0,0,1,.16.049c-.317.536-.633,1.077-.957,1.612a2.324,2.324,0,0,1-.24.376c-.139,0-.277,0-.422.007l-.008.006Z"/>
        <path class="cls-16" d="M51.357,39.581c.138,0,.277,0,.422-.006A.776.776,0,0,1,51.357,39.581Z"/>
      </g>
      <g>
        <path class="cls-28" d="M40.385,17.616a.216.216,0,1,0-.224-.216A.22.22,0,0,0,40.385,17.616Z"/>
        <path class="cls-22" d="M41.85,11.507l-.032-.051-.234-.019.072.134.152.07.092-.058"/>
        <path class="cls-19" d="M38.307,16.535c0-1.068-.007-2.134-.007-3.195V12.079a.5.5,0,0,1,.036-.2.506.506,0,0,1,.115-.171.527.527,0,0,1,.175-.115.54.54,0,0,1,.207-.039h2.919c.026,0-.04.025-.013.031,0,.521.092,1.017.092,1.537l-.007.012c-.578,0-1.163,0-1.742-.006-.125,0-.156.032-.156.151.014,1.085.008,2.171.008,3.251l-.008.013c-.539,0-1.077,0-1.616-.006Z"/>
        <path class="cls-17" d="M41.673,17.877h-1.9c0-.521-.006-.928-.006-1.449l.17-.127c.632,0,1.1,0,1.73.007l.006.006Z"/>
        <path class="cls-23" d="M38.142,16.428c0-1.066-.007-2.133-.007-3.194V11.971a.494.494,0,0,1,.036-.2.51.51,0,0,1,.115-.172.524.524,0,0,1,.175-.114.541.541,0,0,1,.207-.04h2.919a.344.344,0,0,1,.078.02V13.02l-.006.012c-.579,0-1.164,0-1.743-.006-.125,0-.155.031-.155.15.007,1.085.007,2.172.007,3.258l-.007.012C39.22,16.428,38.682,16.428,38.142,16.428Z"/>
        <path class="cls-15" d="M43.429,13.006a.2.2,0,0,1,.019.063c0,1.118,0,2.236-.006,3.359-.54,0-1.085.007-1.624.007l-.006-.007c0-1.136,0-2.267.006-3.4l.006-.013C42.357,13.012,42.889,13.012,43.429,13.006Z"/>
        <path class="cls-16" d="M43.277,13.006a.178.178,0,0,1,.02.063c0,1.118,0,2.236-.006,3.359-.54,0-1.085.007-1.624.007l-.007-.007c0-1.136,0-2.267.007-3.4l.006-.013C42.206,13.012,42.745,13.012,43.277,13.006Z"/>
        <path class="cls-18" d="M41.667,18h-1.9c0-.521,0-1.042-.007-1.562l.007-.013c.631,0,1.262,0,1.893.006l.007.007Z"/>
        <path class="cls-29" d="M39.76,16.428c0,.521,0,1.042.007,1.563-.369,0-.73.006-1.1.006a.537.537,0,0,1-.372-.149.5.5,0,0,1-.154-.359c-.007-.355,0-.705.006-1.061Z"/>
        <path class="cls-15" d="M41.818,18V16.435c.539,0,1.084-.007,1.624-.007,0,.356.006.706.006,1.061a.487.487,0,0,1-.041.2.533.533,0,0,1-.491.313C42.554,18,42.185,18,41.818,18Z"/>
        <path class="cls-30" d="M41.667,18V16.435c.539,0,1.084-.007,1.624-.007,0,.356.006.706.006,1.061a.506.506,0,0,1-.042.2.508.508,0,0,1-.288.275.518.518,0,0,1-.2.038C42.4,18,42.038,18,41.667,18Z"/>
        <path class="cls-22" d="M43.422,13.006h-1.6V11.45S42.9,12.478,43.422,13.006Z"/>
        <path class="cls-14" d="M43.277,13.006h-1.6V11.45C42.219,11.964,42.751,12.485,43.277,13.006Z"/>
      </g>
      <g>
        <path class="cls-17" d="M85.236,28.407q-.011-1.734-.013-3.469c0-.272.187-.413.494-.413h2.361c.775,0,1.558.006,2.335.006,0,.484.006.975.006,1.46a.048.048,0,0,1-.014.026c-1.163-.007-2.327-.007-3.5-.013-.148,0-.16.064-.16.18.012.731.012,1.467.012,2.208l-.012.019Z"/>
        <path class="cls-31" d="M91.89,25.842c.007,1.389.007,2.771.013,4.16v.744c0,.09.014.186-.093.239s-.174-.04-.234-.1c-.408-.388-.809-.781-1.211-1.176V29.7c0-1.279,0-2.565.007-3.844.006-.006.006-.013.013-.026C90.88,25.836,91.389,25.836,91.89,25.842Z"/>
        <path class="cls-19" d="M90.308,29.608c-.409.013-.816.026-1.231.026-.81,0-1.619-.006-2.434-.013v-1.46l.013-.019c.027,0,1.325.006,1.946,0a.4.4,0,0,1,.169.024.4.4,0,0,1,.143.092C89.389,28.711,89.85,29.156,90.308,29.608Z"/>
        <path class="cls-32" d="M91.884,25.849c-.5-.007-1.01-.007-1.512-.013,0-.485-.007-.975-.007-1.46.361-.007.727-.013,1.077-.007a.442.442,0,0,1,.177.025.435.435,0,0,1,.151.093.421.421,0,0,1,.1.145.413.413,0,0,1,.028.171C91.9,25.158,91.89,25.5,91.884,25.849Z"/>
        <path class="cls-33" d="M85.056,28.225q-.012-1.734-.014-3.469c0-.271.187-.414.5-.414H87.9c.776,0,1.558.007,2.334.007,0,.485.006.976.006,1.46a.045.045,0,0,1-.014.026c-1.163-.007-2.326-.007-3.5-.013-.147,0-.16.064-.16.181.006.736.006,1.473.006,2.207l-.014.019C86.065,28.225,85.563,28.225,85.056,28.225Z"/>
        <path class="cls-16" d="M91.676,30.958c-.113.053-.174-.039-.234-.1l-1.2-1.163-.014-.013v-.167c0-1.228,0-2.456.008-3.683,0-.006.006-.006.006-.013s.007-.006.007-.013c.5.007,1.01.007,1.512.013.006,1.39.006,2.771.012,4.16v.744C91.769,30.816,91.783,30.913,91.676,30.958Z"/>
        <path class="cls-23" d="M90.224,29.679a.259.259,0,0,1-.073.007c-.38.006-.769.019-1.15.013-.81,0-1.619-.007-2.434-.013V28.225l.013-.02c.649,0,1.3.007,1.946,0a.4.4,0,0,1,.169.025.4.4,0,0,1,.143.091c.387.382.782.763,1.177,1.144C90.084,29.544,90.158,29.608,90.224,29.679Z"/>
        <path class="cls-34" d="M91.762,25.823c-.5-.007-1.011-.007-1.512-.013,0-.485-.007-.975-.007-1.46.362-.007.722-.013,1.077-.007a.44.44,0,0,1,.177.025.435.435,0,0,1,.151.093.405.405,0,0,1,.1.145.381.381,0,0,1,.028.17C91.769,25.125,91.762,25.474,91.762,25.823Z"/>
        <path class="cls-35" d="M86.568,28.232v1.46c-.355,0-.716.013-1.07.007a.428.428,0,0,1-.329-.116.408.408,0,0,1-.1-.146.385.385,0,0,1-.024-.171c-.006-.342.007-.692.007-1.034C85.563,28.225,86.065,28.225,86.568,28.232Z"/>
      </g>
      <g>
        <path class="cls-12" d="M133.939,29.778a.12.12,0,1,0-.125-.12A.122.122,0,0,0,133.939,29.778Z"/>
        <path class="cls-12" d="M130.92,32.618a.12.12,0,1,0-.124-.12A.122.122,0,0,0,130.92,32.618Z"/>
        <path class="cls-36" d="M133.759,28.219h-4.531l-1.66,1.627v5.506a.5.5,0,0,0,.04.2.508.508,0,0,0,.118.172.543.543,0,0,0,.177.114.56.56,0,0,0,.21.04h5.65a.551.551,0,0,0,.209-.04.537.537,0,0,0,.178-.114.514.514,0,0,0,.118-.171.508.508,0,0,0,.041-.2v-6.6a.523.523,0,0,0-.042-.2.539.539,0,0,0-.12-.172.554.554,0,0,0-.178-.114A.579.579,0,0,0,133.759,28.219Z"/>
        <path class="cls-36" d="M127.568,29.846l1.138-.075a.509.509,0,0,0,.357-.109.478.478,0,0,0,.174-.32l-.009-1.123Z"/>
        <path class="cls-37" d="M133.587,28.34h-4.53L127.4,29.966v5.507a.512.512,0,0,0,.16.374.533.533,0,0,0,.177.114.555.555,0,0,0,.21.039h5.65a.554.554,0,0,0,.209-.039.548.548,0,0,0,.178-.114.514.514,0,0,0,.118-.171.522.522,0,0,0,.041-.2V28.867a.53.53,0,0,0-.167-.374A.566.566,0,0,0,133.587,28.34Z"/>
        <path class="cls-38" d="M127.4,29.966l1.139-.074a.5.5,0,0,0,.356-.11.466.466,0,0,0,.174-.32l-.007-1.122Z"/>
        <path class="cls-16" d="M132.909,32.9c0,.016,0,.024-.016.031a.216.216,0,0,0-.181-.02.207.207,0,0,0-.08.046.209.209,0,0,0-.053.075c-.132.218-.264.436-.4.663a1.863,1.863,0,0,0-.187.331c-.023.015-.047.007-.07.007h-2.557c-.031,0-.061.008-.086-.015.009-.007.009-.015.016-.022.219-.369.445-.739.663-1.1h1.6c.358.007.725.007,1.084,0C132.737,32.9,132.823,32.9,132.909,32.9Z"/>
        <path class="cls-27" d="M129.149,33.809c-.172-.287-.352-.58-.523-.867-.024-.045,0-.068.015-.1.413-.686.819-1.371,1.233-2.049a3.2,3.2,0,0,1,.217-.347c.18.3.359.6.539.9-.125.211-.25.414-.367.626-.195.33-.389.654-.592.986C129.494,33.236,129.322,33.522,129.149,33.809Z"/>
        <path class="cls-23" d="M130.624,31.345c-.179-.3-.359-.594-.538-.9a.05.05,0,0,1,.031-.008h1.3c-.07.031-.149,0-.226.023.007.015.007.03.015.038.188.316.382.633.577.949l.614,1.017a4.273,4.273,0,0,1,.258.444c-.359.008-.726.008-1.084,0-.032-.053-.063-.106-.095-.165-.233-.392-.467-.776-.7-1.169A1.008,1.008,0,0,0,130.624,31.345Z"/>
        <path class="cls-17" d="M130.624,31.345a1.009,1.009,0,0,1,.133.226c-.265.445-.531.889-.8,1.333-.217.369-.444.739-.662,1.1-.009.008-.009.015-.016.023a.752.752,0,0,1-.133-.211l.515-.859c.195-.332.39-.655.592-.986C130.382,31.759,130.509,31.549,130.624,31.345Z"/>
        <path class="cls-19" d="M132.644,32.9a4.768,4.768,0,0,0-.252-.446l-.614-1.011c-.187-.316-.382-.633-.577-.949-.008-.008-.008-.023-.015-.038.077-.023.156.008.226-.023.031.008.039.031.054.053.476.8.951,1.582,1.42,2.373a.343.343,0,0,1,.023.052C132.823,32.9,132.737,32.9,132.644,32.9Z"/>
        <path class="cls-15" d="M132,34.027a1.8,1.8,0,0,1,.187-.331c.126-.227.266-.438.4-.663a.213.213,0,0,1,.054-.072.233.233,0,0,1,.26-.029c-.172.294-.352.587-.523.881a1.085,1.085,0,0,1-.133.2h-.233l-.009.008Z"/>
        <path class="cls-16" d="M132.012,34.027h.234A.487.487,0,0,1,132.012,34.027Z"/>
      </g>
      <g>
        <path class="cls-28" d="M141.414,72.82a.25.25,0,1,0-.258-.25A.255.255,0,0,0,141.414,72.82Z"/>
        <path class="cls-11" d="M141.781,75.471a.148.148,0,1,0-.154-.147A.15.15,0,0,0,141.781,75.471Z"/>
        <path class="cls-11" d="M133.2,72.858a.1.1,0,1,0-.1-.1A.1.1,0,0,0,133.2,72.858Z"/>
        <path class="cls-12" d="M139.722,71.907a.118.118,0,1,0-.122-.118A.12.12,0,0,0,139.722,71.907Z"/>
        <path class="cls-13" d="M140.492,73.534a.133.133,0,1,0-.138-.132A.134.134,0,0,0,140.492,73.534Z"/>
        <path class="cls-39" d="M140.058,72.364c.457-.346.915-.685,1.364-1.031.126-.089.236-.177.4-.1s.176.206.176.366v5.12a.331.331,0,0,1-.029.2.336.336,0,0,1-.139.148.353.353,0,0,1-.213.018.345.345,0,0,1-.184-.107c-.441-.346-.892-.693-1.348-1.046a.409.409,0,0,0-.031.229v.986a.726.726,0,0,1-.047.319.745.745,0,0,1-.18.27.785.785,0,0,1-.282.172.8.8,0,0,1-.33.043h-3.46c-.268,0-.534-.008-.8-.008V75.692c.008,0,.015-.007.008-.015.9,0,1.8,0,2.7.008.126,0,.161-.044.161-.163-.008-.441,0-.883.007-1.325h.015c.008.015.015.037.03.044l2.059,1.569c.023.015.053.044.075.037.055-.015.032-.066.032-.111,0-1.112,0-2.231-.008-3.343C140.05,72.386,140.05,72.379,140.058,72.364Z"/>
        <path class="cls-40" d="M137.847,74.2h-.015c0-.442-.008-.883-.008-1.326,0-.1-.023-.146-.137-.146-.916.015-1.823.015-2.73.015l-.007-.011a.037.037,0,0,1,0-.011V70.485c.055-.051.115-.029.175-.029,1.357,0,2.708.008,4.064-.007a.829.829,0,0,1,.346.048.818.818,0,0,1,.294.184.782.782,0,0,1,.186.286.751.751,0,0,1,.044.335c-.023.354,0,.707,0,1.061-.008.014-.008.022-.016.036-.282.228-.571.456-.854.685-.449.376-.892.751-1.341,1.119Z"/>
        <path class="cls-41" d="M132.617,75.692c0-.964,0-1.922-.007-2.887,0-.036-.008-.073.03-.1.769,0,1.539,0,2.309.007,0,.008.008.015.008.023v2.937c0,.008,0,.015-.008.015Z"/>
        <path class="cls-42" d="M132.617,75.692h2.332v2.246c-.526,0-1.051.022-1.57,0a.786.786,0,0,1-.307-.061.772.772,0,0,1-.257-.175.742.742,0,0,1-.163-.259.717.717,0,0,1-.042-.3C132.61,76.657,132.617,76.178,132.617,75.692Z"/>
        <path class="cls-43" d="M134.949,72.718c-.77,0-1.54,0-2.309-.008.757-.752,1.524-1.5,2.309-2.225Z"/>
        <path class="cls-44" d="M137.847,74.2c.449-.365.892-.743,1.341-1.111.283-.23.572-.457.854-.686,0,1.112,0,2.232.008,3.343,0,.038.023.089-.031.111-.023.007-.053-.015-.076-.037l-2.058-1.572A.106.106,0,0,1,137.847,74.2Z"/>
      </g>
    </g>
  </g>
</svg>
