<svg xmlns="http://www.w3.org/2000/svg" viewBox="0 0 150 150"><defs><style>.a{fill:#873100;}.b{fill:#fff;}</style></defs><circle class="a" cx="77.3" cy="16.5" r="13.5"/><path class="a" d="M77.3,31.7h0A17.5,17.5,0,0,0,59.7,49.2h0v9.5H94.9V49.3A17.5,17.5,0,0,0,77.4,31.7Z"/><circle class="a" cx="44.6" cy="29.2" r="9.6"/><path class="a" d="M44.6,39.9h0A12.6,12.6,0,0,0,32.1,52.4v6.7h25V52.4A12.5,12.5,0,0,0,44.6,39.9Z"/><circle class="a" cx="110" cy="29.2" r="9.6"/><path class="a" d="M110,39.9A12.5,12.5,0,0,0,97.6,52.4v6.7h24.9V52.4A12.5,12.5,0,0,0,110,39.9Z"/><path class="a" d="M16.6,64.7H132.7a3.7,3.7,0,0,1,3.7,3.7V81.9a3.7,3.7,0,0,1-3.7,3.7H16.6a3.7,3.7,0,0,1-3.7-3.7V68.4A3.7,3.7,0,0,1,16.6,64.7Z"/><path class="a" d="M16.6,93.5H132.7a3.6,3.6,0,0,1,3.7,3.7v13.5a3.7,3.7,0,0,1-3.7,3.7H16.6a3.7,3.7,0,0,1-3.7-3.7V97.2A3.6,3.6,0,0,1,16.6,93.5Z"/><path class="a" d="M16.6,122.2H132.7a3.7,3.7,0,0,1,3.7,3.8v13.4a3.6,3.6,0,0,1-3.7,3.7H16.6a3.6,3.6,0,0,1-3.7-3.7V126A3.7,3.7,0,0,1,16.6,122.2Z"/><circle class="b" cx="29.8" cy="75.3" r="5.1"/><path class="b" d="M81.5,72.6h44.4a2.7,2.7,0,0,1,2.6,2.7h0a2.6,2.6,0,0,1-2.6,2.6H81.5a2.6,2.6,0,0,1-2.6-2.6h0A2.6,2.6,0,0,1,81.5,72.6Z"/><circle class="b" cx="29.8" cy="104.6" r="5.1"/><path class="b" d="M81.5,101.9h44.4a2.7,2.7,0,0,1,2.6,2.7h0a2.6,2.6,0,0,1-2.6,2.6H81.5a2.6,2.6,0,0,1-2.6-2.6h0A2.6,2.6,0,0,1,81.5,101.9Z"/><circle class="b" cx="29.8" cy="133.9" r="5.1"/><path class="b" d="M81.5,131.3h44.4a2.6,2.6,0,0,1,2.6,2.6h0a2.6,2.6,0,0,1-2.6,2.6H81.5a2.5,2.5,0,0,1-2.6-2.6h0A2.5,2.5,0,0,1,81.5,131.3Z"/></svg>