<svg xmlns="http://www.w3.org/2000/svg" viewBox="0 0 150 150"><defs><style>.a{fill:#207fc3;}.b{fill:#fff;}</style></defs><path class="a" d="M8.1,51.6h105a4.9,4.9,0,0,1,4.9,4.9v61.4a4.9,4.9,0,0,1-4.9,4.9H8.1a4.9,4.9,0,0,1-4.9-4.9V56.5A4.9,4.9,0,0,1,8.1,51.6Z"/><path class="a" d="M52.8,38.6H20.2c-2.3,0-4.7-.3-7,.2a9.8,9.8,0,0,0-5.7,4.4A24.5,24.5,0,0,0,4,51.5,52.1,52.1,0,0,0,3.2,57c0,.6-.1.7.5.8l3.3.7c-.2,0,.1-3.2.1-3.4A21.6,21.6,0,0,1,8.7,48a9.6,9.6,0,0,1,6-5.8,18.4,18.4,0,0,1,4.1-.6c2.7-.3,5.4-.5,8.2-.6l10.9-.5,12.8-.4h2.1A3.8,3.8,0,0,1,52.8,38.6Z"/><path class="a" d="M69.2,38.6c-.1.4-2.1,2.8-2.2,3.2,3-.1,5.8.4,8.9.3s10.9.1,15.2,0,7.7.1,11.5,0h7.9l5.1-.2h1.6V38.6Z"/><rect class="a" x="92" y="83" width="29.1" height="17.61"/><circle class="b" cx="101.5" cy="91" r="2.7"/><polygon class="a" points="136.9 89.9 125.6 74.1 131.2 74.1 131.2 44 141.9 44 141.9 74.1 147.6 74.1 136.9 89.9"/><path class="a" d="M54.2,19.6a16.4,16.4,0,0,1,3-1.4,15.4,15.4,0,0,1,9.5,0l3.2,1.5,1.1.8,2.1,2,.9,1.2a15.9,15.9,0,0,1,2.5,6.2v3.2a13.9,13.9,0,0,1-1.8,6.3,15.7,15.7,0,0,1-8.1,6.7l-3.2.7a16.7,16.7,0,0,1-6.3-.6,15,15,0,0,1-7.4-5.7L49,39.4a17,17,0,0,1-1.8-6.3l.2-3.2a15.7,15.7,0,0,1,2.4-6.2l1.1-1.5,2-1.7ZM64,39.5c0-.2-.2-.3-.3-.4l-.5-.5-2.9-2.8c-.1-.2-.4-.4,0-.5a5.2,5.2,0,0,0,3.2-2.2.1.1,0,0,0,.1-.1c.5-.5.4-1.6,1-1.9S66,31,66.7,31h.6c.2,0,.2,0,.2-.2V29.3c0-.6-.1-.6-.5-.5H64.9a.5.5,0,0,1-.6-.4,3.5,3.5,0,0,0-.8-1.6h0v-.2h3.2c.6.1.9,0,.8-.7v-.9c.1-.6-.2-.8-.8-.6a17.1,17.1,0,0,0-3.2,0,16.1,16.1,0,0,0-3.1,0,17.1,17.1,0,0,0-3.2,0c-.5,0-1-.4-1,.5s-.2,1.7,1,1.7a8,8,0,0,1,3.1.3h.3a3.2,3.2,0,0,1,1.5,1.9H57.2c-1-.1-1-.1-.9.9a2.4,2.4,0,0,0,0,1.2c0,.1.1.1.2.1h5.6a3,3,0,0,1-1.8,2h0a10.9,10.9,0,0,1-3.1.3c-.4.1-.9-.4-1,.3a4.7,4.7,0,0,0,.1,1.7c0,.4.6.2.9.5a1,1,0,0,0,.4.5l2.7,2.6.6.6A30.7,30.7,0,0,0,63.5,42c.2.3.3.4.6.1s1.4-1.3,0-2.6Z"/></svg>