<svg xmlns="http://www.w3.org/2000/svg" viewBox="0 0 150 150"><defs><style>.a{fill:none;stroke:#23d3b4;stroke-miterlimit:10;stroke-width:2.71px;}.b{fill:#23d3b4;}.c{fill:#fff;}</style></defs><path class="a" d="M19.1,17.2H70.4a7,7,0,0,1,7,7V127a7,7,0,0,1-7,7H19.1a7,7,0,0,1-7.1-7V24.2A7,7,0,0,1,19.1,17.2Z"/><path class="b" d="M40.5,122.7h7.2a3.6,3.6,0,0,1,3.6,3.6h0a3.6,3.6,0,0,1-3.6,3.6H40.5a3.6,3.6,0,0,1-3.6-3.6h0A3.6,3.6,0,0,1,40.5,122.7Z"/><path class="b" d="M35.5,23H52.6a1.8,1.8,0,0,1,1.8,1.8h0a1.8,1.8,0,0,1-1.8,1.9H35.5a1.8,1.8,0,0,1-1.8-1.9h0A1.8,1.8,0,0,1,35.5,23Z"/><path class="b" d="M64.5,86.2h67.4a5.1,5.1,0,0,1,5.1,5.1v34.9a5.1,5.1,0,0,1-5.1,5.1H64.5a5.1,5.1,0,0,1-5.1-5.1V91.3A5.1,5.1,0,0,1,64.5,86.2Z"/><rect class="c" x="59.4" y="97.9" width="77.6" height="12.18"/><rect class="c" x="63.9" y="118.7" width="10.8" height="7.22"/><path class="b" d="M34.1,60.5v1.9H28.3V60.5h1.4V53.2H28.3V51.4h5.8a5.1,5.1,0,0,1,3.2.9,3.5,3.5,0,0,1,1.1,2.6,4.2,4.2,0,0,1-.4,1.6,2.9,2.9,0,0,1-1,1.2,2.4,2.4,0,0,1-1.4.5l-2,.2h-1v2.1Zm-1.5-3.9H33a2.7,2.7,0,0,0,1.9-.5,1.5,1.5,0,0,0,.4-1.2,1.2,1.2,0,0,0-.3-1,.9.9,0,0,0-.6-.6H32.6Z"/><path class="b" d="M47.7,60.6v1.8H44v-.6a3.3,3.3,0,0,1-2.1.7,3.6,3.6,0,0,1-2-.6,2.1,2.1,0,0,1-.8-1.8,2.3,2.3,0,0,1,.8-1.8,3.6,3.6,0,0,1,2.3-.8,5.8,5.8,0,0,1,1.8.4v-.5a1.4,1.4,0,0,0-1.5-1.3,2,2,0,0,0-1.4.6l-2-.3c.6-1.3,1.8-1.9,3.7-1.9a5.8,5.8,0,0,1,1.9.3,2.4,2.4,0,0,1,1.1.6,4.1,4.1,0,0,1,.5.9,7.6,7.6,0,0,1,.1,1.5v2.8Zm-3.7-1a2.9,2.9,0,0,0-1.5-.6l-.7.2a1.2,1.2,0,0,0-.4.8,1,1,0,0,0,1,1,2.7,2.7,0,0,0,1.6-.8Z"/><path class="b" d="M49.3,65.9V64.1h1.4l.5-1.4-2.8-6.2H47.3V54.7h4.6v1.8H51l1.3,3.4,1.4-3.4h-1V54.7h4v1.8H55.6l-3.7,9.4Z"/><path class="b" d="M28.7,76V74.2h3.7V75a3.5,3.5,0,0,1,2.2-.9q2.4,0,2.4,3v3h1.1v1.8H34.5V77.3a1.5,1.5,0,0,0-.2-.9c-.1-.2-.3-.2-.5-.2a2.4,2.4,0,0,0-1.4.5v3.4h1.1v1.8H28.7V80.1h1.2V76Z"/><path class="b" d="M43,82.1A4.4,4.4,0,0,1,40.1,81a3.7,3.7,0,0,1-1.2-2.9,3.8,3.8,0,0,1,1.2-3,4.5,4.5,0,0,1,5.8,0,4.1,4.1,0,0,1,1.1,3A3.6,3.6,0,0,1,45.9,81,4.6,4.6,0,0,1,43,82.1Zm0-1.9a1.6,1.6,0,0,0,1.1-.5,2.7,2.7,0,0,0,.4-1.7,2.2,2.2,0,0,0-.4-1.5,1.4,1.4,0,0,0-1.1-.6c-1,0-1.5.8-1.5,2.2a2.5,2.5,0,0,0,.3,1.5A1.4,1.4,0,0,0,43,80.2Z"/><path class="b" d="M50.4,82l-2-6h-1V74.2h4.2V76h-.8l.9,2.8,1.6-4.6h2l1.5,4.7,1-2.9h-.9V74.2h3.7V76h-.9l-2,6H55.5L54,77.5,52.6,82Z"/><path class="b" d="M87.5,66.7l1.8-.8a8.9,8.9,0,0,1,5.6,0,11.1,11.1,0,0,1,1.9.9l.6.5,1.3,1.1.5.7a8.5,8.5,0,0,1,1.5,3.7,12.8,12.8,0,0,0,.1,1.9,8.8,8.8,0,0,1-5.9,7.7l-1.9.4H91.2l-1.9-.4A9.3,9.3,0,0,1,84.9,79l-.4-.6a9.9,9.9,0,0,1-1.1-3.7c0-.7.1-1.3.1-1.9a9.8,9.8,0,0,1,1.4-3.7l.7-.8,1.1-1.1Zm5.8,11.7c0-.1-.1-.1-.2-.2l-.3-.3-1.7-1.6c-.1-.1-.2-.3.1-.3A3.4,3.4,0,0,0,93,74.7h0c.4-.3.3-.9.6-1.1a2.9,2.9,0,0,1,1.3-.1h.5c-.1-.1,0-.7,0-1s-.1-.3-.3-.3H93.8c-.4,0-.2,0-.3-.2A1.3,1.3,0,0,0,93,71h1.9c.4.1.5,0,.5-.4v-.5c0-.4-.1-.5-.5-.4H89.3c-.3,0-.6-.2-.6.3s-.1,1,.6,1a3.7,3.7,0,0,1,1.8.2h.2a1.9,1.9,0,0,1,.9,1.1H89.3c-.6,0-.6,0-.5.6a.8.8,0,0,0,0,.7h3.4a1.9,1.9,0,0,1-1.1,1.2h0a11,11,0,0,1-1.8.2c-.2,0-.5-.2-.6.2v1c.1.2.4.1.6.3s.1.2.3.3l1.5,1.5c.1.1.2.3.4.3L93,79.9c.1.2.2.2.3.1s.9-.8.1-1.5Z"/></svg>