<svg xmlns="http://www.w3.org/2000/svg" viewBox="0 0 150 150"><defs><style>.a{fill:#574981;}.b{fill:#ffb774;}.c{fill:#fff;}</style></defs><path class="a" d="M33.3,94.9c0,7.9,0,15.7.1,23.6,0,2.4-.4,3.5-3.2,3.4-5.4-.2-10.8,0-16.2-.1s-9.2-3.5-9.2-9.2c-.1-11.6-.1-23.2-.1-34.9,0-4.2,1.8-7.3,5.8-8.6,2.1-.7,2.6-1.7,3-3.7C18.1,40.7,31.9,23.5,56,15.8s45.1-1.7,62.9,15.9a58.2,58.2,0,0,1,16.7,33.9c.3,2,.9,2.9,2.8,3.5a7.9,7.9,0,0,1,5.9,8.1c.1,12,.1,24,0,36.1-.1,4.9-3.6,8.3-8.7,8.5s-11.6,0-17.4.1c-1.9,0-2.5-.6-2.5-2.5.1-16.1.1-32.2,0-48.4,0-2.6,1.3-2.7,3.1-2.4,3.9.6,4-1,3.3-4.3A48.9,48.9,0,0,0,73.6,25.9C51.4,26,31.8,42.3,26.9,64.5c-.7,3.3-.3,4.7,3.2,4s3.3,1,3.3,3.5C33.2,79.6,33.3,87.3,33.3,94.9Z"/><path class="b" d="M50.6,139.6c2-3.5,5.2-6.4,4.9-9.6s-4.7-4.2-7.1-6.4c-11.9-11.2-13-28.4-2.4-40.8,16.4-19.4,50.6-15.7,61.5,6.7,7.9,16.1.3,34.5-16.6,40.4a58.3,58.3,0,0,1-17.1,2.8,7.3,7.3,0,0,0-4.9,1.7C63.8,138.6,57.8,140.3,50.6,139.6Z"/><circle class="c" cx="57.1" cy="101.5" r="5"/><circle class="c" cx="74.2" cy="101.5" r="5"/><circle class="c" cx="91.2" cy="101.5" r="5"/></svg>