<svg xmlns="http://www.w3.org/2000/svg" xmlns:xlink="http://www.w3.org/1999/xlink" viewBox="0 0 150.047 90.006"><defs><linearGradient id="linear-gradient" x1="69.051" y1="82.663" x2="80.996" y2="82.663" gradientUnits="userSpaceOnUse"><stop offset="0" stop-color="#003cad"/><stop offset="1" stop-color="#00185a"/></linearGradient><linearGradient id="linear-gradient-2" x1="69.051" y1="80.429" x2="80.996" y2="80.429" xlink:href="#linear-gradient"/><linearGradient id="linear-gradient-3" x1="61.515" y1="88.007" x2="88.532" y2="88.007" xlink:href="#linear-gradient"/><linearGradient id="linear-gradient-4" x1="43.59" y1="34.343" x2="117.169" y2="80.999" xlink:href="#linear-gradient"/><linearGradient id="_3" x1="37.408" y1="52.054" x2="112.639" y2="52.054" gradientUnits="userSpaceOnUse"><stop offset="0" stop-color="#53d8ff"/><stop offset="0.622" stop-color="#4279fa"/><stop offset="1" stop-color="#3840f7"/></linearGradient><linearGradient id="linear-gradient-5" x1="76.92" y1="79.212" x2="72.437" y2="74.728" gradientUnits="userSpaceOnUse"><stop offset="0" stop-color="#1e68bd"/><stop offset="1" stop-color="#1ad4ff"/></linearGradient><linearGradient id="linear-gradient-6" x1="60.073" y1="33.276" x2="109.448" y2="71.474" gradientUnits="userSpaceOnUse"><stop offset="0" stop-color="#fff"/><stop offset="1" stop-color="#dee3fc"/></linearGradient><linearGradient id="linear-gradient-7" x1="83.947" y1="20.68" x2="83.947" y2="46.255" xlink:href="#linear-gradient-6"/><linearGradient id="linear-gradient-8" x1="39.764" y1="33.227" x2="55.538" y2="69.098" xlink:href="#linear-gradient-6"/><linearGradient id="linear-gradient-9" x1="47.943" y1="8.435" x2="47.943" y2="56.011" xlink:href="#linear-gradient-6"/><linearGradient id="linear-gradient-10" x1="61.67" y1="36.335" x2="61.67" y2="35.435" xlink:href="#linear-gradient-6"/><linearGradient id="linear-gradient-11" x1="41.333" y1="30.487" x2="55.647" y2="35.347" gradientUnits="userSpaceOnUse"><stop offset="0" stop-color="#06b1fd"/><stop offset="1" stop-color="#008eff"/></linearGradient><linearGradient id="linear-gradient-12" x1="137.101" y1="59.784" x2="147.553" y2="59.784" gradientUnits="userSpaceOnUse"><stop offset="0" stop-color="#49c8f5"/><stop offset="1" stop-color="#1ad4ff"/></linearGradient><linearGradient id="linear-gradient-13" x1="145.669" y1="55.484" x2="148.271" y2="58.086" xlink:href="#linear-gradient"/><linearGradient id="linear-gradient-14" x1="137.553" y1="79.232" x2="138.927" y2="79.232" xlink:href="#linear-gradient-12"/><linearGradient id="linear-gradient-15" x1="59.593" y1="15.512" x2="60.966" y2="15.512" xlink:href="#linear-gradient-12"/><linearGradient id="linear-gradient-16" x1="8.182" y1="43.241" x2="9.555" y2="43.241" xlink:href="#linear-gradient-12"/><linearGradient id="linear-gradient-17" x1="24.809" y1="26.373" x2="26.618" y2="26.373" xlink:href="#linear-gradient-12"/><linearGradient id="linear-gradient-18" x1="138.838" y1="42.445" x2="140.647" y2="42.445" xlink:href="#linear-gradient-12"/><linearGradient id="linear-gradient-19" x1="30.762" y1="41.933" x2="47.763" y2="55.086" gradientUnits="userSpaceOnUse"><stop offset="0" stop-color="#cb236d"/><stop offset="1" stop-color="#4c246d"/></linearGradient><linearGradient id="linear-gradient-20" x1="29.711" y1="40.886" x2="46.712" y2="54.039" gradientUnits="userSpaceOnUse"><stop offset="0" stop-color="#a737d5"/><stop offset="1" stop-color="#ef497a"/></linearGradient><linearGradient id="linear-gradient-21" x1="29.658" y1="40.845" x2="46.768" y2="54.082" xlink:href="#linear-gradient-20"/><linearGradient id="linear-gradient-22" x1="31.798" y1="39.487" x2="44.483" y2="49.3" gradientUnits="userSpaceOnUse"><stop offset="0" stop-color="#49d5ff"/><stop offset="1" stop-color="#0bf"/></linearGradient><linearGradient id="linear-gradient-23" x1="31.844" y1="43.61" x2="44.434" y2="53.35" xlink:href="#linear-gradient-6"/><linearGradient id="linear-gradient-24" x1="43.853" y1="47.572" x2="46.967" y2="48.929" xlink:href="#linear-gradient"/><linearGradient id="linear-gradient-25" x1="30.233" y1="50.072" x2="37.475" y2="51.95" xlink:href="#linear-gradient-6"/><linearGradient id="linear-gradient-26" x1="30.088" y1="50.63" x2="37.328" y2="52.507" xlink:href="#linear-gradient-6"/><linearGradient id="linear-gradient-27" x1="29.805" y1="51.719" x2="37.049" y2="53.597" xlink:href="#linear-gradient-6"/><linearGradient id="linear-gradient-28" x1="29.959" y1="51.075" x2="37.219" y2="52.957" xlink:href="#linear-gradient-6"/><linearGradient id="linear-gradient-29" x1="30.489" y1="49.054" x2="37.736" y2="50.932" xlink:href="#linear-gradient-6"/><linearGradient id="linear-gradient-30" x1="67.859" y1="41.897" x2="86.313" y2="47.222" gradientUnits="userSpaceOnUse"><stop offset="0" stop-color="#e1e5fc"/><stop offset="1" stop-color="#b4bad7"/></linearGradient><linearGradient id="linear-gradient-31" x1="68.639" y1="39.196" x2="87.104" y2="44.524" xlink:href="#linear-gradient-30"/><linearGradient id="linear-gradient-32" x1="68.537" y1="39.545" x2="87.003" y2="44.874" xlink:href="#linear-gradient-30"/><linearGradient id="linear-gradient-33" x1="68.99" y1="37.98" x2="87.456" y2="43.309" xlink:href="#linear-gradient-30"/><linearGradient id="linear-gradient-34" x1="69.102" y1="37.588" x2="87.568" y2="42.916" xlink:href="#linear-gradient-30"/><linearGradient id="linear-gradient-35" x1="68.155" y1="40.866" x2="86.621" y2="46.194" xlink:href="#linear-gradient-30"/><linearGradient id="linear-gradient-36" x1="68.578" y1="39.399" x2="87.044" y2="44.727" xlink:href="#linear-gradient-30"/><linearGradient id="linear-gradient-37" x1="67.977" y1="41.477" x2="86.444" y2="46.805" xlink:href="#linear-gradient-30"/><linearGradient id="linear-gradient-38" x1="67.859" y1="49.692" x2="86.313" y2="55.017" xlink:href="#linear-gradient-30"/><linearGradient id="linear-gradient-39" x1="42.542" y1="38.111" x2="155.622" y2="70.741" xlink:href="#linear-gradient-30"/><linearGradient id="linear-gradient-40" x1="68.537" y1="47.34" x2="87.003" y2="52.669" xlink:href="#linear-gradient-30"/><linearGradient id="linear-gradient-41" x1="417.239" y1="47.797" x2="423.045" y2="49.472" gradientTransform="matrix(-0.732, 0, 0, 1, 394.06, 0)" xlink:href="#linear-gradient-30"/><linearGradient id="linear-gradient-42" x1="69.102" y1="45.383" x2="87.568" y2="50.711" xlink:href="#linear-gradient-30"/><linearGradient id="linear-gradient-43" x1="68.139" y1="48.656" x2="86.645" y2="53.996" xlink:href="#linear-gradient-30"/><linearGradient id="linear-gradient-44" x1="68.565" y1="47.19" x2="87.051" y2="52.524" xlink:href="#linear-gradient-30"/><linearGradient id="linear-gradient-45" x1="67.977" y1="49.271" x2="86.444" y2="54.6" xlink:href="#linear-gradient-30"/><linearGradient id="linear-gradient-46" x1="78.544" y1="51.144" x2="83.095" y2="52.457" xlink:href="#linear-gradient-30"/><linearGradient id="linear-gradient-47" x1="67.859" y1="57.486" x2="86.313" y2="62.812" xlink:href="#linear-gradient-30"/><linearGradient id="linear-gradient-48" x1="53.225" y1="49.541" x2="127.574" y2="70.995" xlink:href="#linear-gradient-30"/><linearGradient id="linear-gradient-49" x1="68.537" y1="55.135" x2="87.003" y2="60.463" xlink:href="#linear-gradient-30"/><linearGradient id="linear-gradient-50" x1="80.039" y1="55.901" x2="83.906" y2="57.017" xlink:href="#linear-gradient-30"/><linearGradient id="linear-gradient-51" x1="69.102" y1="53.177" x2="87.568" y2="58.506" xlink:href="#linear-gradient-30"/><linearGradient id="linear-gradient-52" x1="60.487" y1="53.59" x2="104.34" y2="66.244" xlink:href="#linear-gradient-30"/><linearGradient id="linear-gradient-53" x1="78.814" y1="57.307" x2="85.223" y2="59.157" xlink:href="#linear-gradient-30"/><linearGradient id="linear-gradient-54" x1="60.316" y1="53.759" x2="103.367" y2="66.181" xlink:href="#linear-gradient-30"/><linearGradient id="linear-gradient-55" x1="67.137" y1="61.459" x2="93.349" y2="71.043" xlink:href="#linear-gradient-30"/><linearGradient id="linear-gradient-56" x1="70.669" y1="38.66" x2="69.82" y2="43.688" xlink:href="#linear-gradient-22"/><linearGradient id="linear-gradient-57" x1="61.327" y1="42.176" x2="54.472" y2="42.176" gradientUnits="userSpaceOnUse"><stop offset="0" stop-color="#3945ba"/><stop offset="1" stop-color="#0c176f"/></linearGradient><linearGradient id="linear-gradient-58" x1="59.621" y1="88.332" x2="64.829" y2="88.332" gradientUnits="userSpaceOnUse"><stop offset="0" stop-color="#2e2a87"/><stop offset="0.225" stop-color="#232070"/><stop offset="1" stop-color="#002"/></linearGradient><linearGradient id="linear-gradient-59" x1="52.219" y1="72.759" x2="57.051" y2="72.759" gradientUnits="userSpaceOnUse"><stop offset="0" stop-color="#ffc39a"/><stop offset="0.552" stop-color="#f6c7b2"/><stop offset="1" stop-color="#f0c9c1"/></linearGradient><linearGradient id="linear-gradient-60" x1="57.887" y1="72.788" x2="63.659" y2="72.788" xlink:href="#linear-gradient-59"/><linearGradient id="linear-gradient-61" x1="52.08" y1="50.619" x2="65.89" y2="50.619" gradientUnits="userSpaceOnUse"><stop offset="0" stop-color="#fdf53f"/><stop offset="1" stop-color="#d93c65"/></linearGradient><linearGradient id="linear-gradient-62" x1="60.534" y1="54.551" x2="62.657" y2="54.551" gradientUnits="userSpaceOnUse"><stop offset="0" stop-color="#435fea"/><stop offset="1" stop-color="#008eff"/></linearGradient><linearGradient id="linear-gradient-63" x1="52.153" y1="52.632" x2="65.8" y2="52.632" xlink:href="#linear-gradient-61"/><linearGradient id="linear-gradient-64" x1="60.433" y1="48.987" x2="62.085" y2="48.987" xlink:href="#linear-gradient-62"/><linearGradient id="linear-gradient-65" x1="54.529" y1="51.915" x2="55.571" y2="51.915" xlink:href="#linear-gradient-62"/><linearGradient id="linear-gradient-66" x1="55.227" y1="45.298" x2="59.4" y2="45.298" xlink:href="#linear-gradient-59"/><linearGradient id="linear-gradient-67" x1="56.586" y1="44.401" x2="58.194" y2="44.401" xlink:href="#linear-gradient-59"/><linearGradient id="linear-gradient-68" x1="55.227" y1="41.346" x2="59.4" y2="41.346" xlink:href="#linear-gradient-59"/><linearGradient id="linear-gradient-69" x1="54.302" y1="55.323" x2="58.076" y2="55.323" xlink:href="#linear-gradient-62"/><linearGradient id="linear-gradient-70" x1="52.17" y1="50.895" x2="66.139" y2="50.895" xlink:href="#linear-gradient-61"/><linearGradient id="linear-gradient-71" x1="52.545" y1="88.332" x2="58.023" y2="88.332" xlink:href="#linear-gradient-58"/><linearGradient id="linear-gradient-72" x1="61.327" y1="39.383" x2="54.472" y2="39.383" xlink:href="#linear-gradient-57"/><linearGradient id="linear-gradient-73" x1="55.227" y1="41.569" x2="59.4" y2="41.569" xlink:href="#linear-gradient-59"/><linearGradient id="linear-gradient-74" x1="52.153" y1="64.592" x2="65.8" y2="64.592" xlink:href="#linear-gradient-61"/><linearGradient id="linear-gradient-75" x1="117.118" y1="88.428" x2="122.739" y2="88.428" xlink:href="#linear-gradient-58"/><linearGradient id="linear-gradient-76" x1="130.104" y1="87.787" x2="134.936" y2="87.787" xlink:href="#linear-gradient-58"/><linearGradient id="linear-gradient-77" x1="132.117" y1="72.671" x2="114.78" y2="72.671" xlink:href="#linear-gradient-19"/><linearGradient id="linear-gradient-78" x1="132.116" y1="72.282" x2="114.782" y2="72.282" xlink:href="#linear-gradient-19"/><linearGradient id="linear-gradient-79" x1="118.254" y1="48.194" x2="131.508" y2="48.194" xlink:href="#linear-gradient-61"/><linearGradient id="linear-gradient-80" x1="120.971" y1="49.477" x2="119.148" y2="51.426" xlink:href="#linear-gradient-62"/><linearGradient id="linear-gradient-81" x1="118.254" y1="51.819" x2="131.507" y2="51.819" xlink:href="#linear-gradient-61"/><linearGradient id="linear-gradient-82" x1="122.044" y1="41.467" x2="126.839" y2="42.283" gradientUnits="userSpaceOnUse"><stop offset="0" stop-color="#ffc39a"/><stop offset="1" stop-color="#e8a38c"/></linearGradient><linearGradient id="linear-gradient-83" x1="123.738" y1="42.674" x2="125.995" y2="42.674" xlink:href="#linear-gradient-82"/><linearGradient id="linear-gradient-84" x1="122.221" y1="38.976" x2="122.923" y2="38.976" xlink:href="#linear-gradient-57"/><linearGradient id="linear-gradient-85" x1="122.425" y1="39.832" x2="126.984" y2="40.608" xlink:href="#linear-gradient-82"/><linearGradient id="linear-gradient-86" x1="121.681" y1="38.866" x2="127.784" y2="38.866" xlink:href="#linear-gradient-57"/><linearGradient id="linear-gradient-87" x1="102.419" y1="45.883" x2="102.419" y2="81.703" xlink:href="#linear-gradient-22"/><linearGradient id="linear-gradient-88" x1="86.121" y1="65.875" x2="123.709" y2="65.875" xlink:href="#linear-gradient-61"/><linearGradient id="linear-gradient-89" x1="98.533" y1="62.242" x2="106.446" y2="62.242" xlink:href="#linear-gradient-6"/><linearGradient id="linear-gradient-90" x1="97.087" y1="68.142" x2="107.751" y2="68.142" xlink:href="#linear-gradient-6"/><linearGradient id="linear-gradient-91" x1="102.419" y1="70.577" x2="102.419" y2="66.394" gradientUnits="userSpaceOnUse"><stop offset="0" stop-color="#3945ba"/><stop offset="1" stop-color="#43a6ff"/></linearGradient><linearGradient id="linear-gradient-92" x1="113.118" y1="85.935" x2="113.118" y2="49.619" gradientUnits="userSpaceOnUse"><stop offset="0" stop-color="#1e68bd"/><stop offset="1" stop-color="#1ad4ff" stop-opacity="0.2"/></linearGradient><linearGradient id="linear-gradient-93" x1="87.746" y1="45.804" x2="117.426" y2="78.219" xlink:href="#linear-gradient-6"/><linearGradient id="linear-gradient-94" x1="124.777" y1="51.71" x2="128.638" y2="51.71" xlink:href="#linear-gradient-62"/><linearGradient id="linear-gradient-95" x1="122.622" y1="55.155" x2="130.954" y2="55.155" xlink:href="#linear-gradient-82"/><linearGradient id="linear-gradient-96" x1="118.165" y1="48.176" x2="131.509" y2="48.176" xlink:href="#linear-gradient-61"/><linearGradient id="linear-gradient-97" x1="110.466" y1="45.898" x2="113.415" y2="45.898" xlink:href="#linear-gradient-82"/><linearGradient id="linear-gradient-98" x1="124.055" y1="63.721" x2="125.107" y2="68.068" gradientUnits="userSpaceOnUse"><stop offset="0" stop-color="#2e2a87"/><stop offset="1" stop-color="#000e42"/></linearGradient><linearGradient id="linear-gradient-99" x1="19.741" y1="83.082" x2="34.065" y2="83.082" xlink:href="#linear-gradient-12"/><linearGradient id="linear-gradient-100" x1="137.142" y1="51.613" x2="151.465" y2="51.613" xlink:href="#linear-gradient-12"/><linearGradient id="linear-gradient-101" x1="136.764" y1="71.202" x2="141.695" y2="71.202" xlink:href="#linear-gradient-12"/><linearGradient id="linear-gradient-102" x1="133.46" y1="46.609" x2="138.391" y2="46.609" xlink:href="#linear-gradient-12"/><linearGradient id="linear-gradient-103" x1="89.473" y1="25.953" x2="94.405" y2="25.953" xlink:href="#linear-gradient-12"/><linearGradient id="linear-gradient-104" x1="15.892" y1="48.987" x2="20.823" y2="48.987" xlink:href="#linear-gradient-12"/><linearGradient id="linear-gradient-105" x1="24.651" y1="34.784" x2="38.975" y2="34.784" xlink:href="#linear-gradient-12"/><linearGradient id="linear-gradient-106" x1="57.929" y1="21.747" x2="65.782" y2="21.747" xlink:href="#linear-gradient-12"/><linearGradient id="linear-gradient-108" x1="13.432" y1="30.609" x2="22.037" y2="34.737" xlink:href="#linear-gradient-12"/><linearGradient id="linear-gradient-109" x1="132.779" y1="37.353" x2="137.688" y2="39.708" xlink:href="#linear-gradient-12"/><linearGradient id="linear-gradient-110" x1="20.074" y1="66.738" x2="44.698" y2="66.738" xlink:href="#linear-gradient-19"/><linearGradient id="linear-gradient-111" x1="19.665" y1="66.33" x2="44.289" y2="66.33" xlink:href="#linear-gradient-20"/><linearGradient id="linear-gradient-112" x1="20.553" y1="60.759" x2="29.097" y2="60.759" xlink:href="#linear-gradient-6"/><linearGradient id="linear-gradient-113" x1="24.723" y1="62.738" x2="22.584" y2="59.397" xlink:href="#linear-gradient-62"/><linearGradient id="linear-gradient-114" x1="23.451" y1="63.551" x2="21.311" y2="60.208" xlink:href="#linear-gradient-62"/><linearGradient id="linear-gradient-115" x1="24.503" y1="56.537" x2="35.729" y2="63.743" xlink:href="#linear-gradient-22"/><linearGradient id="linear-gradient-116" x1="21.481" y1="61.227" x2="32.707" y2="68.434" xlink:href="#linear-gradient-22"/><linearGradient id="linear-gradient-117" x1="24.147" y1="57.089" x2="35.372" y2="64.296" xlink:href="#linear-gradient-22"/><linearGradient id="linear-gradient-118" x1="19.848" y1="63.768" x2="31.073" y2="70.974" xlink:href="#linear-gradient-22"/><linearGradient id="linear-gradient-119" x1="21.308" y1="61.494" x2="32.534" y2="68.7" xlink:href="#linear-gradient-22"/><linearGradient id="linear-gradient-120" x1="19.852" y1="63.76" x2="31.077" y2="70.966" xlink:href="#linear-gradient-22"/><linearGradient id="linear-gradient-121" x1="23.187" y1="58.583" x2="34.411" y2="65.788" xlink:href="#linear-gradient-22"/><linearGradient id="linear-gradient-122" x1="23.925" y1="57.434" x2="35.149" y2="64.639" xlink:href="#linear-gradient-22"/><linearGradient id="linear-gradient-123" x1="30.602" y1="71.536" x2="34.615" y2="71.536" xlink:href="#linear-gradient-6"/><linearGradient id="linear-gradient-124" x1="29.868" y1="74.529" x2="35.277" y2="74.529" xlink:href="#linear-gradient-6"/><linearGradient id="linear-gradient-125" x1="32.572" y1="75.764" x2="32.572" y2="73.642" xlink:href="#linear-gradient-91"/><linearGradient id="linear-gradient-126" x1="19.52" y1="65.452" x2="29.683" y2="71.976" xlink:href="#linear-gradient-22"/><linearGradient id="linear-gradient-127" x1="78.068" y1="25.487" x2="69.293" y2="16.712" xlink:href="#linear-gradient-61"/><linearGradient id="linear-gradient-128" x1="70.918" y1="18.338" x2="76.8" y2="24.22" xlink:href="#linear-gradient-6"/><linearGradient id="linear-gradient-129" x1="40.23" y1="12.473" x2="53.127" y2="19.881" xlink:href="#linear-gradient-57"/><linearGradient id="linear-gradient-130" x1="38.549" y1="12.428" x2="55.529" y2="22.182" xlink:href="#linear-gradient-20"/><linearGradient id="linear-gradient-131" x1="45.216" y1="16.651" x2="48.321" y2="16.651" xlink:href="#linear-gradient-6"/><linearGradient id="linear-gradient-132" x1="44.649" y1="18.966" x2="48.833" y2="18.966" xlink:href="#linear-gradient-6"/><linearGradient id="linear-gradient-133" x1="46.741" y1="19.921" x2="46.741" y2="18.28" xlink:href="#linear-gradient-91"/><linearGradient id="linear-gradient-134" x1="40.281" y1="21.177" x2="46.77" y2="24.905" xlink:href="#linear-gradient-6"/><linearGradient id="linear-gradient-135" x1="40.272" y1="21.958" x2="48.058" y2="26.43" xlink:href="#linear-gradient-6"/><linearGradient id="linear-gradient-136" x1="48.446" y1="23.736" x2="50.101" y2="24.686" xlink:href="#linear-gradient-6"/><linearGradient id="linear-gradient-137" x1="40.305" y1="24.505" x2="43.297" y2="26.223" xlink:href="#linear-gradient-6"/><linearGradient id="linear-gradient-138" x1="47.103" y1="21.308" x2="53.139" y2="24.776" xlink:href="#linear-gradient-6"/><linearGradient id="linear-gradient-139" x1="117.527" y1="18.857" x2="143.219" y2="33.615" xlink:href="#linear-gradient-19"/><linearGradient id="linear-gradient-140" x1="117.029" y1="18.361" x2="142.722" y2="33.119" xlink:href="#linear-gradient-20"/><linearGradient id="linear-gradient-141" x1="119.926" y1="16.725" x2="139.889" y2="28.192" xlink:href="#linear-gradient-6"/><linearGradient id="linear-gradient-142" x1="119.926" y1="21.445" x2="139.889" y2="32.912" xlink:href="#linear-gradient-6"/><linearGradient id="linear-gradient-143" x1="119.54" y1="26.3" x2="137.065" y2="33.15" xlink:href="#linear-gradient-62"/><linearGradient id="linear-gradient-144" x1="119.769" y1="25.717" x2="137.294" y2="32.566" xlink:href="#linear-gradient-62"/><linearGradient id="linear-gradient-145" x1="119.998" y1="25.133" x2="137.523" y2="31.982" xlink:href="#linear-gradient-62"/><linearGradient id="linear-gradient-146" x1="120.227" y1="24.549" x2="137.752" y2="31.398" xlink:href="#linear-gradient-62"/><linearGradient id="linear-gradient-147" x1="120.456" y1="23.965" x2="137.981" y2="30.815" xlink:href="#linear-gradient-62"/><linearGradient id="linear-gradient-148" x1="120.685" y1="23.381" x2="138.21" y2="30.231" xlink:href="#linear-gradient-62"/><linearGradient id="linear-gradient-149" x1="120.914" y1="22.798" x2="138.439" y2="29.647" xlink:href="#linear-gradient-62"/><linearGradient id="linear-gradient-150" x1="121.17" y1="22.146" x2="138.685" y2="28.992" xlink:href="#linear-gradient-62"/><linearGradient id="linear-gradient-151" x1="121.275" y1="21.879" x2="138.794" y2="28.725" xlink:href="#linear-gradient-62"/><linearGradient id="linear-gradient-152" x1="121.39" y1="21.586" x2="138.912" y2="28.434" xlink:href="#linear-gradient-62"/><linearGradient id="linear-gradient-153" x1="121.5" y1="21.303" x2="139.027" y2="28.154" xlink:href="#linear-gradient-62"/><linearGradient id="linear-gradient-154" x1="121.59" y1="21.081" x2="139.105" y2="27.926" xlink:href="#linear-gradient-62"/><linearGradient id="linear-gradient-155" x1="121.73" y1="20.725" x2="139.246" y2="27.57" xlink:href="#linear-gradient-62"/><linearGradient id="linear-gradient-156" x1="121.889" y1="20.315" x2="139.411" y2="27.163" xlink:href="#linear-gradient-62"/><linearGradient id="linear-gradient-157" x1="122.076" y1="19.838" x2="139.598" y2="26.686" xlink:href="#linear-gradient-62"/><linearGradient id="linear-gradient-158" y1="89.663" x2="150.047" y2="89.663" gradientUnits="userSpaceOnUse"><stop offset="0" stop-color="#2e2a87"/><stop offset="0.124" stop-color="#28257c"/><stop offset="1" stop-color="#00002e"/></linearGradient><linearGradient id="linear-gradient-159" x1="120.025" y1="8.8" x2="125.365" y2="8.8" gradientUnits="userSpaceOnUse"><stop offset="0" stop-color="#b897f2" stop-opacity="0"/><stop offset="0.01" stop-color="#b897f2" stop-opacity="0.039"/><stop offset="0.053" stop-color="#b897f2" stop-opacity="0.188"/><stop offset="0.101" stop-color="#b897f2" stop-opacity="0.316"/><stop offset="0.152" stop-color="#b897f2" stop-opacity="0.42"/><stop offset="0.209" stop-color="#b897f2" stop-opacity="0.501"/><stop offset="0.275" stop-color="#b897f2" stop-opacity="0.557"/><stop offset="0.357" stop-color="#b897f2" stop-opacity="0.59"/><stop offset="0.508" stop-color="#b897f2" stop-opacity="0.6"/><stop offset="0.651" stop-color="#be9bef" stop-opacity="0.6"/><stop offset="0.788" stop-color="#d2a7e6" stop-opacity="0.6"/><stop offset="0.922" stop-color="#f2bad6" stop-opacity="0.6"/><stop offset="0.966" stop-color="#ffc2d0" stop-opacity="0.6"/></linearGradient><linearGradient id="linear-gradient-160" x1="137.7" y1="21.427" x2="143.025" y2="21.427" gradientTransform="translate(96.076 -109.471) rotate(59.809)" xlink:href="#linear-gradient-159"/><linearGradient id="linear-gradient-161" x1="113.108" y1="60.779" x2="118.431" y2="60.779" gradientTransform="translate(211.92 -63.55) rotate(113.392)" xlink:href="#linear-gradient-159"/><linearGradient id="linear-gradient-162" x1="122.323" y1="66.313" x2="127.662" y2="66.313" gradientTransform="translate(-36.95 -51.209)" xlink:href="#linear-gradient-159"/><linearGradient id="linear-gradient-163" x1="182.628" y1="99.637" x2="187.952" y2="99.637" gradientTransform="translate(-29.84 155.544) rotate(-62.048)" xlink:href="#linear-gradient-159"/><linearGradient id="linear-gradient-164" x1="154.827" y1="-9.981" x2="158.716" y2="-9.981" gradientTransform="translate(-29.84 155.544) rotate(-62.048)" xlink:href="#linear-gradient-159"/><linearGradient id="linear-gradient-165" x1="134.901" y1="-31.896" x2="138.793" y2="-31.896" gradientTransform="matrix(0.645, -0.764, 0.764, 0.645, -55.802, 143.66)" xlink:href="#linear-gradient-159"/><linearGradient id="linear-gradient-166" x1="107.027" y1="-9.03" x2="113.589" y2="-9.03" gradientTransform="translate(-3.595 -75.1) rotate(90)" xlink:href="#linear-gradient-159"/><linearGradient id="linear-gradient-167" x1="142.18" y1="-14.355" x2="148.747" y2="-14.355" gradientTransform="translate(82.603 177.936) rotate(-116.531)" xlink:href="#linear-gradient-159"/><linearGradient id="linear-gradient-168" x1="124.682" y1="-17.431" x2="128.628" y2="-17.431" gradientTransform="translate(-10.035 193.067) rotate(-71.424)" xlink:href="#linear-gradient-159"/><linearGradient id="linear-gradient-169" x1="148.308" y1="-23.74" x2="152.26" y2="-23.74" gradientTransform="matrix(0.758, -0.652, 0.652, 0.758, -79.846, 156.621)" xlink:href="#linear-gradient-159"/><linearGradient id="linear-gradient-170" x1="121.579" y1="4.567" x2="125.537" y2="4.567" gradientTransform="translate(-103.935 83.211) rotate(-5.396)" xlink:href="#linear-gradient-159"/></defs><g style="isolation:isolate"><g id="Layer_2" data-name="Layer 2"><g id="Layer_29" data-name="Layer 29"><rect x="69.051" y="78.57" width="11.945" height="8.185" fill="url(#linear-gradient)"/><rect x="69.051" y="78.57" width="11.945" height="3.717" fill="url(#linear-gradient-2)" style="mix-blend-mode:multiply"/><path d="M87.146,86.626H62.9a1.384,1.384,0,0,0-1.386,1.381v1.382H88.532V88.007A1.383,1.383,0,0,0,87.146,86.626Z" fill="url(#linear-gradient-3)"/><path d="M112.4,28.233H37.651a1.454,1.454,0,0,0-1.457,1.452v49.18a1.454,1.454,0,0,0,1.457,1.452H112.4a1.454,1.454,0,0,0,1.457-1.452V29.685a1.454,1.454,0,0,0-1.457-1.452Z" fill="url(#linear-gradient-4)"/><rect x="37.408" y="29.685" width="75.231" height="44.737" rx="2.709" fill="url(#_3)"/><path d="M76.6,77.315a1.578,1.578,0,1,1-1.577-1.572A1.575,1.575,0,0,1,76.6,77.315Z" fill="url(#linear-gradient-5)"/><g opacity="0.3" style="mix-blend-mode:multiply"><rect x="60.976" y="34.399" width="51.689" height="40.438" rx="5.501" fill="#6c9fbc"/></g><rect x="58.103" y="31.526" width="51.689" height="40.438" rx="5.501" fill="url(#linear-gradient-6)"/><path d="M61.769,32.725h44.356a2.487,2.487,0,0,1,2.487,2.487v.258a2.488,2.488,0,0,1-2.488,2.488H61.769a2.488,2.488,0,0,1-2.488-2.488v-.258A2.487,2.487,0,0,1,61.769,32.725Z" fill="url(#linear-gradient-7)" style="mix-blend-mode:multiply"/><g opacity="0.3" style="mix-blend-mode:multiply"><rect x="42.068" y="34.399" width="17.424" height="40.438" rx="4.893" fill="#6c9fbc"/></g><rect x="39.195" y="31.526" width="17.424" height="40.438" rx="4.893" fill="url(#linear-gradient-8)"/><rect x="40.415" y="32.725" width="15.055" height="38.088" rx="1.7" fill="url(#linear-gradient-9)" style="mix-blend-mode:multiply"/><text transform="translate(64.419 36.204)" font-size="2.746" fill="#283699" font-family="Myriad-Roman, Myriad Roman"><tspan letter-spacing="-0.004em">h</tspan><tspan x="1.513" y="0">ttps://</tspan></text><path d="M61.685,33.692a.851.851,0,0,0-.851.849v.849h.229v-.849a.622.622,0,0,1,1.244,0v.849h.23v-.849A.851.851,0,0,0,61.685,33.692Z" fill="#283699"/><rect x="60.522" y="34.956" width="2.295" height="1.711" rx="0.813" fill="#283699"/><path d="M61.911,35.7a.241.241,0,1,0-.361.207.067.067,0,0,1,.034.058v.266a.085.085,0,0,0,.086.086h0a.086.086,0,0,0,.086-.086v-.266a.067.067,0,0,1,.034-.058A.238.238,0,0,0,61.911,35.7Z" fill="url(#linear-gradient-10)"/><path d="M54.525,30.246H42.708a1.164,1.164,0,0,0-1.166,1.161v3.105a1.164,1.164,0,0,0,1.166,1.162h9.168L53.3,37.093a.157.157,0,0,0,.268-.11V35.674h.957a1.164,1.164,0,0,0,1.165-1.162V31.407A1.163,1.163,0,0,0,54.525,30.246Z" fill="url(#linear-gradient-11)"/><line x1="43.308" y1="31.726" x2="52.365" y2="31.726" fill="none" stroke="#fff" stroke-linecap="round" stroke-miterlimit="10" stroke-width="0.5"/><line x1="43.308" y1="32.96" x2="53.769" y2="32.96" fill="none" stroke="#fff" stroke-linecap="round" stroke-miterlimit="10" stroke-width="0.5"/><line x1="43.308" y1="34.194" x2="47.058" y2="34.194" fill="none" stroke="#fff" stroke-linecap="round" stroke-miterlimit="10" stroke-width="0.5"/><rect x="137.101" y="56.235" width="10.451" height="7.097" rx="2.085" fill="url(#linear-gradient-12)" style="mix-blend-mode:screen"/><polygon points="143.401 59.522 146.509 62.603 143.069 59.896 143.401 59.522" fill="#fff"/><polygon points="141.627 60.132 138.306 62.434 141.317 59.739 141.627 60.132" fill="#fff"/><path d="M137.908,56.783c1.6,1.059,3.1,2.234,4.577,3.435h-.317c1.479-1.2,2.981-2.377,4.578-3.435-1.349,1.361-2.793,2.6-4.261,3.822l-.158.131-.159-.131C140.7,59.387,139.257,58.143,137.908,56.783Z" fill="#fff"/><ellipse cx="146.791" cy="56.606" rx="1.373" ry="1.368" fill="url(#linear-gradient-13)"/><polyline points="146.015 56.505 146.626 57.209 147.573 56.161" fill="none" stroke="#fff" stroke-linecap="round" stroke-linejoin="round" stroke-width="0.25"/><line x1="44.413" y1="84.248" x2="45.91" y2="84.248" fill="none" stroke="#fff" stroke-linecap="round" stroke-miterlimit="10" stroke-width="0.5"/><line x1="45.162" y1="83.502" x2="45.162" y2="84.994" fill="none" stroke="#fff" stroke-linecap="round" stroke-miterlimit="10" stroke-width="0.5"/><line x1="97.993" y1="80.541" x2="99.49" y2="80.541" fill="none" stroke="#fff" stroke-linecap="round" stroke-miterlimit="10" stroke-width="1.355"/><line x1="98.741" y1="79.795" x2="98.741" y2="81.287" fill="none" stroke="#fff" stroke-linecap="round" stroke-miterlimit="10" stroke-width="1.355"/><path d="M87.72,20.855a.687.687,0,1,1-.686-.684A.685.685,0,0,1,87.72,20.855Z" fill="#fff"/><path d="M125.207,31.222a.687.687,0,1,1-.687-.684A.686.686,0,0,1,125.207,31.222Z" fill="#fff"/><circle cx="138.24" cy="79.232" r="0.687" fill="url(#linear-gradient-14)" style="mix-blend-mode:screen"/><circle cx="60.28" cy="15.512" r="0.687" fill="url(#linear-gradient-15)" style="mix-blend-mode:screen"/><path d="M88.729,84.248a.687.687,0,1,1-.687-.684A.686.686,0,0,1,88.729,84.248Z" fill="#fff"/><path d="M9.555,43.241a.687.687,0,1,1-.686-.684A.685.685,0,0,1,9.555,43.241Z" fill="url(#linear-gradient-16)" style="mix-blend-mode:screen"/><path d="M114.126,24.11h-.8v-.8a.21.21,0,0,0-.42,0v.8h-.8a.209.209,0,0,0,0,.418h.8v.8a.21.21,0,0,0,.42,0v-.8h.8a.209.209,0,1,0,0-.418Z" fill="#fff"/><path d="M26.463,26.217h-.594v-.59a.156.156,0,1,0-.311,0v.59h-.593a.156.156,0,1,0,0,.311h.593v.591a.156.156,0,0,0,.311,0v-.591h.594a.156.156,0,0,0,0-.311Z" fill="url(#linear-gradient-17)"/><path d="M140.491,42.29H139.9V41.7a.156.156,0,0,0-.311,0v.591h-.593a.155.155,0,1,0,0,.31h.593v.591a.156.156,0,0,0,.311,0V42.6h.593a.155.155,0,1,0,0-.31Z" fill="url(#linear-gradient-18)"/><path d="M10.073,70.564H9.119v-.951a.25.25,0,0,0-.5,0v.951H7.664a.25.25,0,1,0,0,.5h.955v.951a.25.25,0,0,0,.5,0v-.951h.954a.25.25,0,1,0,0-.5Z" fill="#fff"/><rect x="28.307" y="41.083" width="21.351" height="14.42" rx="5.76" fill="url(#linear-gradient-19)"/><rect x="27.256" y="40.036" width="21.351" height="14.42" rx="5.76" fill="url(#linear-gradient-20)"/><rect x="27.703" y="40.476" width="20.458" height="13.539" rx="4.046" fill="url(#linear-gradient-21)"/><rect x="28.637" y="42.914" width="18.59" height="2.634" rx="0.738" fill="url(#linear-gradient-22)" style="mix-blend-mode:multiply"/><rect x="28.456" y="46.978" width="18.951" height="2.684" rx="1.276" fill="url(#linear-gradient-23)"/><rect x="44.191" y="47.733" width="2.756" height="1.173" rx="0.558" opacity="0.7" fill="url(#linear-gradient-24)"/><rect x="29.763" y="50.441" width="5.158" height="0.357" rx="0.169" fill="url(#linear-gradient-25)"/><rect x="29.763" y="51.199" width="6.418" height="0.357" rx="0.169" fill="url(#linear-gradient-26)"/><rect x="29.763" y="51.957" width="3.298" height="0.357" rx="0.169" fill="url(#linear-gradient-27)"/><rect x="33.453" y="51.957" width="1.192" height="0.357" rx="0.169" fill="url(#linear-gradient-28)"/><rect x="35.239" y="50.441" width="2.579" height="0.357" rx="0.169" fill="url(#linear-gradient-29)"/><path d="M71.544,45.222H67.973a1,1,0,0,1-1-1V40.666a1,1,0,0,1,1-1h3.571a1,1,0,0,1,1,1v3.558A1,1,0,0,1,71.544,45.222Zm-3.571-5.065a.511.511,0,0,0-.511.509v3.558a.511.511,0,0,0,.511.509h3.571a.511.511,0,0,0,.512-.509V40.666a.511.511,0,0,0-.512-.509Z" fill="url(#linear-gradient-30)"/><path d="M75.255,41.219h-1.22a.29.29,0,0,1-.291-.29h0a.29.29,0,0,1,.291-.29h1.22a.29.29,0,0,1,.291.29h0A.29.29,0,0,1,75.255,41.219Z" fill="url(#linear-gradient-31)"/><path d="M79.636,42.23h-5.6a.29.29,0,0,1-.291-.29h0a.29.29,0,0,1,.291-.29h5.6a.29.29,0,0,1,.291.29h0A.29.29,0,0,1,79.636,42.23Z" fill="url(#linear-gradient-32)"/><path d="M82.01,41.219h-5.6a.29.29,0,0,1-.291-.29h0a.29.29,0,0,1,.291-.29h5.6a.29.29,0,0,1,.291.29h0A.29.29,0,0,1,82.01,41.219Z" fill="url(#linear-gradient-33)"/><path d="M87.751,42.23H80.618a.291.291,0,0,1-.292-.29h0a.291.291,0,0,1,.292-.29h7.133a.29.29,0,0,1,.291.29h0A.291.291,0,0,1,87.751,42.23Z" fill="url(#linear-gradient-34)"/><path d="M76.722,43.241H74.035a.291.291,0,0,1-.291-.291h0a.29.29,0,0,1,.291-.29h2.687a.291.291,0,0,1,.292.29h0A.291.291,0,0,1,76.722,43.241Z" fill="url(#linear-gradient-35)"/><path d="M83.952,43.241H77.823a.291.291,0,0,1-.291-.291h0a.29.29,0,0,1,.291-.29h6.129a.291.291,0,0,1,.292.29h0A.291.291,0,0,1,83.952,43.241Z" fill="url(#linear-gradient-36)"/><path d="M79.139,44.251h-5.1a.29.29,0,0,1-.291-.29h0a.29.29,0,0,1,.291-.29h5.1a.291.291,0,0,1,.292.29h0A.291.291,0,0,1,79.139,44.251Z" fill="url(#linear-gradient-37)"/><path d="M71.544,53.016H67.973a1,1,0,0,1-1-1V48.461a1,1,0,0,1,1-1h3.571a1,1,0,0,1,1,1v3.558A1,1,0,0,1,71.544,53.016Zm-3.571-5.064a.511.511,0,0,0-.511.509v3.558a.511.511,0,0,0,.511.509h3.571a.511.511,0,0,0,.512-.509V48.461a.511.511,0,0,0-.512-.509Z" fill="url(#linear-gradient-38)"/><path d="M84.61,49.014H74.035a.29.29,0,0,1-.291-.29h0a.29.29,0,0,1,.291-.29H84.61a.291.291,0,0,1,.292.29h0A.291.291,0,0,1,84.61,49.014Z" fill="url(#linear-gradient-39)"/><path d="M79.636,50.025h-5.6a.29.29,0,0,1-.291-.29h0a.291.291,0,0,1,.291-.291h5.6a.291.291,0,0,1,.291.291h0A.29.29,0,0,1,79.636,50.025Z" fill="url(#linear-gradient-40)"/><path d="M85.7,49.014h.834a.29.29,0,0,0,.291-.29h0a.29.29,0,0,0-.291-.29H85.7a.29.29,0,0,0-.291.29h0A.29.29,0,0,0,85.7,49.014Z" fill="url(#linear-gradient-41)"/><path d="M87.751,50.025H80.618a.291.291,0,0,1-.292-.29h0a.291.291,0,0,1,.292-.291h7.133a.291.291,0,0,1,.291.291h0A.291.291,0,0,1,87.751,50.025Z" fill="url(#linear-gradient-42)"/><rect x="73.744" y="50.455" width="3.27" height="0.581" rx="0.276" fill="url(#linear-gradient-43)"/><rect x="77.532" y="50.455" width="6.712" height="0.581" rx="0.276" fill="url(#linear-gradient-44)"/><path d="M79.139,52.046h-5.1a.29.29,0,0,1-.291-.29h0a.29.29,0,0,1,.291-.29h5.1a.291.291,0,0,1,.292.29h0A.291.291,0,0,1,79.139,52.046Z" fill="url(#linear-gradient-45)"/><path d="M81.066,52.046h-.8a.291.291,0,0,1-.292-.29h0a.291.291,0,0,1,.292-.29h.8a.291.291,0,0,1,.292.29h0A.291.291,0,0,1,81.066,52.046Z" fill="url(#linear-gradient-46)"/><path d="M71.544,60.811H67.973a1,1,0,0,1-1-1V56.256a1,1,0,0,1,1-1h3.571a1,1,0,0,1,1,1v3.558A1,1,0,0,1,71.544,60.811Zm-3.571-5.065a.512.512,0,0,0-.511.51v3.558a.512.512,0,0,0,.511.509h3.571a.512.512,0,0,0,.512-.509V56.256a.512.512,0,0,0-.512-.51Z" fill="url(#linear-gradient-47)"/><path d="M80.781,56.809H74.035a.29.29,0,0,1-.291-.29h0a.291.291,0,0,1,.291-.291h6.746a.291.291,0,0,1,.291.291h0A.29.29,0,0,1,80.781,56.809Z" fill="url(#linear-gradient-48)"/><path d="M79.636,57.82h-5.6a.291.291,0,0,1-.291-.291h0a.29.29,0,0,1,.291-.29h5.6a.29.29,0,0,1,.291.29h0A.291.291,0,0,1,79.636,57.82Z" fill="url(#linear-gradient-49)"/><path d="M82.526,56.809h-.693a.29.29,0,0,1-.291-.29h0a.291.291,0,0,1,.291-.291h.693a.291.291,0,0,1,.292.291h0A.291.291,0,0,1,82.526,56.809Z" fill="url(#linear-gradient-50)"/><path d="M87.751,57.82H80.618a.291.291,0,0,1-.292-.291h0a.291.291,0,0,1,.292-.29h7.133a.291.291,0,0,1,.291.29h0A.291.291,0,0,1,87.751,57.82Z" fill="url(#linear-gradient-51)"/><path d="M81.25,58.83H74.035a.29.29,0,0,1-.291-.29h0a.29.29,0,0,1,.291-.29H81.25a.291.291,0,0,1,.292.29h0A.291.291,0,0,1,81.25,58.83Z" fill="url(#linear-gradient-52)"/><path d="M83.952,58.83H82.221a.291.291,0,0,1-.292-.29h0a.291.291,0,0,1,.292-.29h1.731a.291.291,0,0,1,.292.29h0A.291.291,0,0,1,83.952,58.83Z" fill="url(#linear-gradient-53)"/><path d="M86.742,59.841H74.035a.29.29,0,0,1-.291-.29h0a.291.291,0,0,1,.291-.291H86.742a.291.291,0,0,1,.292.291h0A.291.291,0,0,1,86.742,59.841Z" fill="url(#linear-gradient-54)"/><rect x="66.985" y="62.104" width="26.951" height="8.453" rx="4.018" fill="url(#linear-gradient-55)"/><path d="M67.745,41.94A6.367,6.367,0,0,1,69.587,44.1a10.468,10.468,0,0,1,3.24-4.18s-1.775.1-3.24,2.854A3.786,3.786,0,0,0,67.745,41.94Z" fill="url(#linear-gradient-56)"/><path d="M71.1,48.268a1.936,1.936,0,0,0-.782.417c-.262.2-.442.346-.753.563s-.443.229-.443.109.306-.348.4-.544,0-.359-.163-.283a3.139,3.139,0,0,0-1,.893,4.383,4.383,0,0,1-.4.871,7.251,7.251,0,0,1-.758.507l.157,1.366a4.708,4.708,0,0,1,.969-.632,3.947,3.947,0,0,1,.889-.167,1.484,1.484,0,0,0,.576-.227l.032.006a2.344,2.344,0,0,0,.717-.288.514.514,0,0,0,.135-.342.535.535,0,0,0-.06-.153.317.317,0,0,0,.017-.265,1.34,1.34,0,0,0-.234-.222.172.172,0,0,0-.023-.1,1.553,1.553,0,0,0-.269-.25c.249-.221.747-.663.914-.8C71.254,48.541,71.271,48.268,71.1,48.268Z" fill="#f0c9c1"/><path d="M69.585,49.977c-.04.126-.07.3-.035.336.017-.036.057-.028.141-.091a3.194,3.194,0,0,1,.333-.2c.123-.053.251-.084.379-.15a.627.627,0,0,1-.19.406,1.408,1.408,0,0,1-.336.252.572.572,0,0,1-.281.069.284.284,0,0,1-.271-.236C69.329,50.131,69.474,50.063,69.585,49.977Z" fill="#e5a69c"/><path d="M69.639,50.516c.01.066.018.129.055.14.02,0,.027-.02.052-.031a1.7,1.7,0,0,0,.23-.1,2.19,2.19,0,0,1,.644-.161.888.888,0,0,1-.5.512.731.731,0,0,1-.413.038.255.255,0,0,1-.194-.219A.215.215,0,0,1,69.639,50.516Z" fill="#e5a69c"/><path d="M69.768,50.853a.39.39,0,0,0,.017.17c.023.025.017-.03.041-.027-.02-.014.142-.054.218-.1.105-.022.2-.067.31-.089a.613.613,0,0,0,.3-.116.373.373,0,0,1-.157.375,1.475,1.475,0,0,1-.317.187c-.137.014-.2.1-.444.022-.085-.027-.188-.193-.129-.285A.309.309,0,0,1,69.768,50.853Z" fill="#e5a69c"/><path d="M60.481,41.812c.028,1.191-.258,2.471.291,3.224a9.424,9.424,0,0,1-3.994.6c-3.237-.013-3.287-.714-3.287-.714s.3-1.228.353-1.666c.115-.933-.631-2.119,0-3.222s1.247-1.25,1.247-1.25l4.028-.074A4.3,4.3,0,0,1,60.481,41.812Z" fill="url(#linear-gradient-57)"/><path d="M60,87.487s-.377.386-.377,1.837h5.194A.944.944,0,0,0,64,88.2a11.122,11.122,0,0,1-2.117-.716.892.892,0,0,0-.714-.125A3.506,3.506,0,0,1,60,87.487Z" fill="url(#linear-gradient-58)"/><path d="M58.653,58.452s-1.482,10.916-1.741,13.5-2.207,15.385-2.207,15.385a2.629,2.629,0,0,1-1.739.086s-.874-8.524-.636-11.532A21.384,21.384,0,0,1,53.1,71.64s-1.113-7.09-.767-9.414a12.77,12.77,0,0,1,1.515-4.244Z" fill="url(#linear-gradient-59)"/><path d="M61.785,58.758s1.619,10.691,1.36,13.277S61.7,87.394,61.7,87.394a2.537,2.537,0,0,1-1.7.093s-1.349-8.733-1.159-11.744a22.225,22.225,0,0,1,.528-3.893s-2.391-6.55-2.25-8.469a22.885,22.885,0,0,1,1.37-5.4Z" fill="url(#linear-gradient-60)"/><path d="M67.662,52.492l-4.033,3.089a1.045,1.045,0,0,1-.954.216c-.007,0-.011,0-.018,0-.811-.143-2.028-1.784-2.028-1.784l-.095-.345-2.28-8.248a6.846,6.846,0,0,1,2.231.816c.906.651,2.158,4.359,2.882,6.725l4.18-2.425s.088.054.136.385A7.047,7.047,0,0,1,67.662,52.492Z" fill="url(#linear-gradient-61)"/><path d="M62.657,55.793c-.811-.143-2.028-1.784-2.028-1.784l-.095-.345.882-.355S61.867,55.549,62.657,55.793Z" opacity="0.5" fill="url(#linear-gradient-62)" style="mix-blend-mode:multiply"/><path d="M61.786,58.759a9.3,9.3,0,0,1-7.942-.777A8.461,8.461,0,0,0,54.3,56.8q.1-.313.22-.721a4.139,4.139,0,0,0,.123-.711,14.827,14.827,0,0,0,.049-1.606c-.021-1.237-.133-2.488-.165-2.8,0-.049-.007-.077-.007-.077s.228-3.342,1.137-4.073a6.986,6.986,0,0,1,3.067-.861s2.941,2.606,3.242,3.425-.182,1.408-.591,3.638A18.092,18.092,0,0,0,61.786,58.759Z" fill="url(#linear-gradient-63)"/><path d="M60.433,47.547a11.924,11.924,0,0,1,1.213,1.242,2.142,2.142,0,0,1,.338.549,1.447,1.447,0,0,1,.1.554,1.85,1.85,0,0,1-.053.391L62,50.428l.022-.147a2.263,2.263,0,0,0,.018-.389,1.456,1.456,0,0,0-.122-.525,2.075,2.075,0,0,0-.335-.524c-.27-.334-.567-.651-.783-.893Z" opacity="0.5" fill="url(#linear-gradient-64)" style="mix-blend-mode:multiply"/><path d="M55.571,49.985l-.681,3.86-.2-.083c-.021-1.237-.133-2.488-.165-2.8Z" opacity="0.5" fill="url(#linear-gradient-65)" style="mix-blend-mode:multiply"/><path d="M57.911,47.646c-1.574-.08-2.43-2.31-2.43-2.31.647-.627.468-2.39.468-2.39l1.605.763.34.16a4.97,4.97,0,0,0,.3,1.223,2.355,2.355,0,0,0,.4.683C59.174,46.437,59.485,47.727,57.911,47.646Z" fill="url(#linear-gradient-66)"/><path d="M58.194,45.092a2.035,2.035,0,0,1-1.608-1.383h.968l.34.16A4.97,4.97,0,0,0,58.194,45.092Z" fill="url(#linear-gradient-67)" style="mix-blend-mode:multiply"/><path d="M55.851,43.189v0l.083.128c1.183,1.776,2.592,1.277,3.111.871a3.478,3.478,0,0,0,.808-1.6v0a6.139,6.139,0,0,0,.181-2.624c-.308-1.793-4.02-2.924-4.684-.29A4.557,4.557,0,0,0,55.851,43.189Z" fill="url(#linear-gradient-68)"/><path d="M59.806,51.126a2.6,2.6,0,0,0,.329-.407c.141-.239.193-.551.006-.617s-.209.332-.65.628a3.729,3.729,0,0,0-.6.922l-.041.291" fill="#f0c9c1"/><path d="M58.874,52.686l2.441-4.145a.49.49,0,0,1,.422-.24h1.84a.145.145,0,0,1,.123.067h0l0,0,0,.006.132.226-.228.08v0l-2.358,4.005a.49.49,0,0,1-.422.24H59.1l0,.031L59,53.065l-.125-.213h0A.157.157,0,0,1,58.874,52.686Z" fill="#dee3fc"/><path d="M59.145,53.154h1.817a.49.49,0,0,0,.422-.241l2.453-4.164a.147.147,0,0,0-.127-.222H61.87a.489.489,0,0,0-.422.24l-2.441,4.145A.16.16,0,0,0,59.145,53.154Z" fill="#3945ba"/><path d="M61.883,51.145a3.46,3.46,0,0,0-.419.123,2.277,2.277,0,0,0,.335-.209c.173-.145.352-.363.221-.4-.148-.044-.527.183-.527.183l-.5.247-.144.024a4.137,4.137,0,0,0,.505-.292c.244-.174.2-.3,0-.274a8.583,8.583,0,0,0-.818.3,2.812,2.812,0,0,1-.558.071c-.131-.02-.09-.123-.09-.123l-.21.117-.044.149c-.268.1-.288.272-.442.493a.792.792,0,0,1-.2.2l-.1-.1s-2.952,1.423-4.148,2.041l-1.753.094s-.029,2.5.851,2.234c1.271-.384,4.162-2.51,5.268-3.345a.2.2,0,0,0,.066-.029,5.75,5.75,0,0,1,1.256-.285h0s.571-.161.708-.206a2.263,2.263,0,0,0,.542-.323c.212-.151.158-.289-.016-.269h0c.071-.045.144-.093.218-.146C62.127,51.245,62.083,51.122,61.883,51.145Z" fill="#f0c9c1"/><path d="M58.076,53.845A29.021,29.021,0,0,1,54.3,56.8q.1-.313.22-.721a4.139,4.139,0,0,0,.123-.711Z" opacity="0.5" fill="url(#linear-gradient-69)" style="mix-blend-mode:multiply"/><path d="M55.48,45.338s-2.264.543-2.826,2.051-1.47,6.417-1.146,7.73a1.533,1.533,0,0,0,2.258,1.164c1.334-.565,4.7-2.682,4.7-2.682a3.107,3.107,0,0,0,.184-1.283c-.032-.438-.159-.514-.159-.514l-4.212,1.728,2.352-6.471Z" fill="url(#linear-gradient-70)"/><path d="M52.966,87.425a2.925,2.925,0,0,0-.421,1.9h5.464A.944.944,0,0,0,57.19,88.2a11.122,11.122,0,0,1-2.117-.716.892.892,0,0,0-.714-.125A4.567,4.567,0,0,1,52.966,87.425Z" fill="url(#linear-gradient-71)"/><path d="M59.884,37.509a3.02,3.02,0,0,0-3.681.147,1.908,1.908,0,0,0-1.821,2.107c0,1.641.914,2.033.914,2.033a1.824,1.824,0,0,1,.459-.613c.451-.385,1.124-.793,1.116-1.3a2.9,2.9,0,0,1,.26.674,8.683,8.683,0,0,0,3.369.091S61.384,38.365,59.884,37.509Z" fill="url(#linear-gradient-72)"/><path d="M55.9,41.12s-.424-.757-1.014-.392c-.628.389.181,1.8.643,1.781S55.9,41.12,55.9,41.12Z" fill="url(#linear-gradient-73)"/><path d="M53.844,57.982a12.512,12.512,0,0,0-1.8,6.194,32.1,32.1,0,0,0,.372,6.083,14.5,14.5,0,0,0,5.665.943,11.912,11.912,0,0,0,5.1-.867s-.241-7.6-1.483-12.032C61.69,58.3,56.91,58.871,53.844,57.982Z" fill="url(#linear-gradient-74)"/><path d="M122.288,87.421a4.5,4.5,0,0,1-1.889-.042,5.8,5.8,0,0,1-1.683,1.046c-.608.123-1.319.2-1.484.462a.553.553,0,0,0-.1.441s-.041.113.7.144,3.122-.072,3.534-.051a4.575,4.575,0,0,0,1.227-.052C122.848,89.287,122.784,87.894,122.288,87.421Z" fill="url(#linear-gradient-75)"/><path d="M134.9,87.693a3.381,3.381,0,0,1-.9.58c-.2.091-.9.5-1.59.892a1.839,1.839,0,0,1-.9.234h-1.13c-.211,0-.287-.143-.281-.234a.588.588,0,0,1,.544-.5,1.5,1.5,0,0,0,.25-.072,1.842,1.842,0,0,0,.883-.75,8.692,8.692,0,0,0,.5-1.08,3.52,3.52,0,0,0,1.614-.592C134.533,86.351,135.083,87.506,134.9,87.693Z" fill="url(#linear-gradient-76)"/><path d="M125.49,64.478a9.97,9.97,0,0,1-.113,1.042c-.02.123-.1.48-.2.974-.116.545-.275,1.258-.449,2.027-.439,1.936-.975,4.208-1.2,4.921,1.5,3.069-.97,13.136-1.24,13.979a2.874,2.874,0,0,1-1.888-.042c-.32-4.683-.847-14.117-.842-14.346.126-4.816.731-14.712,1.071-14.845.754-.279,3.032-.912,3.912.364C125.457,59.89,125.6,62.68,125.49,64.478Z" fill="url(#linear-gradient-77)"/><path d="M133.892,86.175a2.265,2.265,0,0,1-1.614.592c-.008-.126-4.351-9.806-5.066-11.81-.045-.13-.232-.675-.288-.857-.344-1.067-1.464-6.5-2-8.627l-1.512-6.827,3.99-.851a8.658,8.658,0,0,1,3.355,7.016c-.02.6-.309,7.362-.22,8.882C133.94,78.354,133.7,84.491,133.892,86.175Z" fill="url(#linear-gradient-78)"/><path d="M121.327,49.728c-.116.078-.245.158-.386.238-.333.2-.726.392-1.116.586l-.005,0c-.353.173-.7.344-1.016.51a10.84,10.84,0,0,1-1.653-2.9c1.373-1.439,3.006-2.84,3.006-2.84Z" fill="url(#linear-gradient-79)"/><path d="M120.941,49.966c-.333.2-.726.392-1.116.586l-.005,0,.934-1.3Z" opacity="0.5" fill="url(#linear-gradient-80)" style="mix-blend-mode:multiply"/><path d="M120.157,45.324a11.344,11.344,0,0,1,3.675-1.212,7.567,7.567,0,0,1,2.85.235c1.319.341,2,.629,2.23,1.126a29.047,29.047,0,0,1,.132,6.994c-.238,1.258-.708,4.331-.708,5.082s.266,1.115.077,1.333c-.423.489-3.319.694-4.679.694-1.21,0-3.27-.321-3.374-.707-.083-.308.29-3.432.333-6.9C120.729,48.976,119.937,45.576,120.157,45.324Z" fill="url(#linear-gradient-81)"/><path d="M126.311,44.259a2.259,2.259,0,0,1-2.694-.093s.177-.338.207-.4a3.015,3.015,0,0,0,.325-.839c.01-.028.014-.059.023-.091a3.267,3.267,0,0,0,.059-.4,3.383,3.383,0,0,0-.021-.822l.135-.109,2.233-1.75.254-.2s-.073.425-.175,1.047c-.056.354-.123.768-.189,1.2C126.339,42.7,126.311,44.259,126.311,44.259Z" fill="url(#linear-gradient-82)"/><path d="M125.809,41.862v0a6.4,6.4,0,0,1-1.984,1.9,3.015,3.015,0,0,0,.325-.839,2.04,2.04,0,0,1-.411.079c.006-.1.011-.208.008-.319l.15-.089.335-.163L126,41.581S125.932,41.689,125.809,41.862Z" fill="url(#linear-gradient-83)" style="mix-blend-mode:multiply"/><path d="M122.285,38.229a1.457,1.457,0,0,0,.4,1.495l.243-1.448Z" fill="url(#linear-gradient-84)"/><path d="M126.174,41.413a4.768,4.768,0,0,1-.365.449v0a4.168,4.168,0,0,1-.726.624,3.067,3.067,0,0,1-.933.44,2.04,2.04,0,0,1-.411.079,1.571,1.571,0,0,1-.94-.178,4.985,4.985,0,0,1-.409-3.171c.05-.41.119-.766.171-1.016.049-.226.087-.361.087-.361l0-.027c.242-1.308,2-1.353,3.2-.617a2.177,2.177,0,0,1,.2.141,2.324,2.324,0,0,1,.778.91,2.266,2.266,0,0,1-.18,1.917l-.047.1A5.563,5.563,0,0,1,126.174,41.413Z" fill="url(#linear-gradient-85)"/><path d="M126.279,37.068a1.2,1.2,0,0,0-.636-.981c-1.212-.625-2.112.765-3.466.255-.728-.274-.662,1.777.242,2.239a2.735,2.735,0,0,0,2.415.119,1.115,1.115,0,0,0,.109.645,1.764,1.764,0,0,0,.519.416c-.026.226-.044.434-.046.592l.238.129a3.682,3.682,0,0,0,.164-.332s.222-.553.626-.5.079,1.536.024,2.162a4.053,4.053,0,0,0,1.261-2.612C128.032,37.456,127.02,36.632,126.279,37.068Z" fill="url(#linear-gradient-86)"/><path d="M123.8,54.424a6.889,6.889,0,0,1-5.5-6.665,31.656,31.656,0,0,0-5.94-1.917,44.6,44.6,0,0,0-19.875,0,31.656,31.656,0,0,0-5.94,1.917,6.889,6.889,0,0,1-5.5,6.665S79.55,80.181,102.419,87.116C125.288,80.181,123.8,54.424,123.8,54.424Z" fill="url(#linear-gradient-87)"/><path d="M121.921,55.812a39.371,39.371,0,0,1-2.028,11.752c-3.027,8.9-8.905,14.81-17.474,17.577-8.531-2.754-14.395-8.625-17.435-17.462a39.731,39.731,0,0,1-2.067-11.867,8.649,8.649,0,0,0,5.409-6.762,32.769,32.769,0,0,1,4.579-1.374,42.944,42.944,0,0,1,19.029,0,32.72,32.72,0,0,1,4.576,1.374A8.66,8.66,0,0,0,121.921,55.812Z" fill="url(#linear-gradient-88)"/><path d="M102.49,58.3a3.953,3.953,0,0,0-3.957,3.941v3.947H99.6V62.239a2.89,2.89,0,0,1,5.78,0v3.947h1.066V62.239A3.953,3.953,0,0,0,102.49,58.3Z" fill="url(#linear-gradient-89)"/><rect x="97.087" y="64.167" width="10.664" height="7.951" rx="3.779" fill="url(#linear-gradient-90)"/><path d="M103.538,67.62a1.119,1.119,0,1,0-1.676.965.308.308,0,0,1,.157.266V70.09a.4.4,0,0,0,.4.4h0a.4.4,0,0,0,.4-.4V68.851a.311.311,0,0,1,.158-.267A1.109,1.109,0,0,0,103.538,67.62Z" fill="url(#linear-gradient-91)"/><path d="M102.419,87.115V44.721a44.65,44.65,0,0,1,9.938,1.12,31.852,31.852,0,0,1,5.94,1.918,6.89,6.89,0,0,0,5.5,6.665S125.289,80.182,102.419,87.115Z" opacity="0.63" fill="url(#linear-gradient-92)" style="mix-blend-mode:screen"/><path d="M102.419,87.744a.64.64,0,0,1-.184-.027c-12.069-3.66-17.362-12.541-19.678-19.346a40.422,40.422,0,0,1-2.145-13.983.628.628,0,0,1,.486-.575,6.225,6.225,0,0,0,5.013-6.044.63.63,0,0,1,.368-.581A32.15,32.15,0,0,1,92.34,45.23a45.442,45.442,0,0,1,20.157,0,32.15,32.15,0,0,1,6.061,1.958.63.63,0,0,1,.369.582,6.222,6.222,0,0,0,5.013,6.043.627.627,0,0,1,.485.575,40.394,40.394,0,0,1-2.145,13.983c-2.315,6.805-7.609,15.686-19.678,19.346A.639.639,0,0,1,102.419,87.744ZM81.657,54.913a40.578,40.578,0,0,0,2.107,13.094c3.213,9.409,9.489,15.616,18.655,18.452,9.166-2.836,15.441-9.043,18.654-18.452a40.586,40.586,0,0,0,2.108-13.094,7.479,7.479,0,0,1-5.492-6.736,31.941,31.941,0,0,0-5.474-1.724,44.193,44.193,0,0,0-19.593,0,31.9,31.9,0,0,0-5.473,1.724A7.482,7.482,0,0,1,81.657,54.913Z" fill="url(#linear-gradient-93)"/><path d="M127.245,49.24l.649,4.94a4.157,4.157,0,0,0,.694-1.014C128.63,52.894,127.245,49.24,127.245,49.24Z" opacity="0.5" fill="url(#linear-gradient-94)" style="mix-blend-mode:multiply"/><path d="M130.824,49.98l-2.9.969.41,2.248-3.444,4.547h0a2.79,2.79,0,0,1-.62.193,5.2,5.2,0,0,0-.765.1,3.472,3.472,0,0,0-.744.41c-.031.062-.043.211.225.227a4.731,4.731,0,0,0,.85-.106,6.2,6.2,0,0,1-.362.56c-.021.022-.043.044-.065.064l-.132.109-.023.017h0a4.746,4.746,0,0,0-.461.417.18.18,0,0,0-.031.183s-.153.136-.142.209.093.171.329.084c0,0,.052.075.119.071s.189-.028.189-.028a.356.356,0,0,0,.156.075,1.77,1.77,0,0,0,.709-.157h0a4.084,4.084,0,0,0,.863-.4,6.117,6.117,0,0,0,.728-1.005c1.15-.868,4.262-3.284,5.046-4.567C131.155,53.558,130.824,49.98,130.824,49.98Z" fill="url(#linear-gradient-95)"/><path d="M131.336,51.18s-.382.377-2.137.567a7.26,7.26,0,0,1-1.446-.041c-.242-1.156-.426-2.051-1.018-4.985a2.319,2.319,0,0,1,.781-2.138,4.621,4.621,0,0,1,2.2,1.424C130.758,47.327,131.1,49.35,131.336,51.18Z" fill="url(#linear-gradient-96)"/><path d="M112.08,44.565a2.6,2.6,0,0,0-1.37.205c-.188.11-.278.562-.233.982a2.881,2.881,0,0,0,.259.869.148.148,0,0,0,.18.082s.013.255.244.281c.023.147.107.267.237.263s.339-.451.339-.451a.317.317,0,0,0,.293-.235c.1-.261.239-1.094.274-1.188s.13-.058.212-.044a1.826,1.826,0,0,0,.7.109c.37-.1.188-.351-.209-.509A3.548,3.548,0,0,0,112.08,44.565Z" fill="url(#linear-gradient-97)"/><path d="M125.173,66.494c-.116.545-.275,1.258-.449,2.027l-.257-5.133Z" opacity="0.5" fill="url(#linear-gradient-98)" style="mix-blend-mode:multiply"/><path d="M27.972,83.5H20.086a.421.421,0,0,1-.421-.42h0a.421.421,0,0,1,.421-.419h7.886a.421.421,0,0,1,.422.419h0A.421.421,0,0,1,27.972,83.5Z" fill="url(#linear-gradient-99)"/><path d="M145.373,52.033h-7.886a.42.42,0,0,1-.421-.42h0a.42.42,0,0,1,.421-.42h7.886a.42.42,0,0,1,.421.42h0A.42.42,0,0,1,145.373,52.033Z" fill="url(#linear-gradient-100)"/><path d="M139.321,71.622h-2.162a.421.421,0,0,1-.422-.42h0a.42.42,0,0,1,.422-.419h2.162a.42.42,0,0,1,.422.419h0A.421.421,0,0,1,139.321,71.622Z" fill="url(#linear-gradient-101)" style="mix-blend-mode:screen"/><path d="M136.017,47.028h-2.162a.421.421,0,0,1-.422-.419h0a.421.421,0,0,1,.422-.42h2.162a.421.421,0,0,1,.422.42h0A.421.421,0,0,1,136.017,47.028Z" fill="url(#linear-gradient-102)" style="mix-blend-mode:screen"/><path d="M92.031,26.373H89.868a.421.421,0,0,1-.421-.42h0a.421.421,0,0,1,.421-.42h2.163a.42.42,0,0,1,.421.42h0A.42.42,0,0,1,92.031,26.373Z" fill="url(#linear-gradient-103)" style="mix-blend-mode:screen"/><path d="M18.449,49.407H16.287a.421.421,0,0,1-.422-.42h0a.421.421,0,0,1,.422-.42h2.162a.421.421,0,0,1,.422.42h0A.421.421,0,0,1,18.449,49.407Z" opacity="0.5" fill="url(#linear-gradient-104)" style="mix-blend-mode:screen"/><path d="M32.882,35.2H25a.421.421,0,0,1-.421-.42h0a.421.421,0,0,1,.421-.42h7.886a.421.421,0,0,1,.422.42h0A.421.421,0,0,1,32.882,35.2Z" fill="url(#linear-gradient-105)"/><path d="M62.251,22.167H58.308a.421.421,0,0,1-.421-.42h0a.421.421,0,0,1,.421-.42h3.943a.421.421,0,0,1,.422.42h0A.421.421,0,0,1,62.251,22.167Z" fill="url(#linear-gradient-106)"/><path d="M31.762,83.5h-2.4a.421.421,0,0,1-.422-.42h0a.421.421,0,0,1,.422-.419h2.4a.421.421,0,0,1,.422.419h0A.421.421,0,0,1,31.762,83.5Z" fill="url(#linear-gradient-99)"/><path d="M20.523,31.729h-.011a2.822,2.822,0,0,0-5.23-1.235,2.19,2.19,0,1,0-.7,4.262h5.943a1.514,1.514,0,1,0,0-3.027Z" fill="url(#linear-gradient-108)" style="mix-blend-mode:screen"/><path d="M136.824,37.992h-.006a1.609,1.609,0,0,0-2.983-.7,1.249,1.249,0,1,0-.4,2.431h3.39a.864.864,0,1,0,0-1.727Z" fill="url(#linear-gradient-109)" style="mix-blend-mode:screen"/><rect x="19.943" y="57.33" width="15.006" height="18.816" rx="5.205" fill="url(#linear-gradient-110)"/><rect x="19.534" y="56.922" width="15.006" height="18.816" rx="5.205" fill="url(#linear-gradient-111)"/><rect x="20.507" y="57.908" width="5.207" height="5.702" rx="2.466" fill="url(#linear-gradient-112)"/><path d="M23.994,60.219a.884.884,0,1,1-.884-.881A.882.882,0,0,1,23.994,60.219Z" fill="url(#linear-gradient-113)"/><path d="M24.8,63.61H21.421v-.691a1.687,1.687,0,0,1,1.689-1.683h0a1.687,1.687,0,0,1,1.69,1.683Z" fill="url(#linear-gradient-114)"/><path d="M32.884,60.245H27a.218.218,0,0,1-.219-.218h0A.218.218,0,0,1,27,59.81h5.887a.218.218,0,0,1,.219.217h0A.218.218,0,0,1,32.884,60.245Z" fill="url(#linear-gradient-115)"/><path d="M32.884,64.862H20.726a.218.218,0,0,1-.219-.218h0a.218.218,0,0,1,.219-.217H32.884a.218.218,0,0,1,.219.217h0A.218.218,0,0,1,32.884,64.862Z" fill="url(#linear-gradient-116)"/><path d="M32.884,61.027H27a.219.219,0,0,1-.219-.218h0A.218.218,0,0,1,27,60.591h5.887a.218.218,0,0,1,.219.218h0A.219.219,0,0,1,32.884,61.027Z" fill="url(#linear-gradient-117)"/><path d="M24.134,65.644H20.726a.219.219,0,0,1-.219-.218h0a.218.218,0,0,1,.219-.218h3.408a.218.218,0,0,1,.219.218h0A.219.219,0,0,1,24.134,65.644Z" fill="url(#linear-gradient-118)"/><path d="M29.846,65.644H25.02a.218.218,0,0,1-.218-.218h0a.217.217,0,0,1,.218-.218h4.826a.218.218,0,0,1,.218.218h0A.219.219,0,0,1,29.846,65.644Z" fill="url(#linear-gradient-119)"/><path d="M26.6,66.425H20.726a.219.219,0,0,1-.219-.218h0a.219.219,0,0,1,.219-.218H26.6a.219.219,0,0,1,.218.218h0A.219.219,0,0,1,26.6,66.425Z" fill="url(#linear-gradient-120)"/><path d="M28.746,61.808H27a.219.219,0,0,1-.219-.218h0A.219.219,0,0,1,27,61.372h1.749a.219.219,0,0,1,.219.218h0A.219.219,0,0,1,28.746,61.808Z" fill="url(#linear-gradient-121)"/><path d="M31.274,61.808H29.525a.219.219,0,0,1-.219-.218h0a.219.219,0,0,1,.219-.218h1.749a.219.219,0,0,1,.219.218h0A.219.219,0,0,1,31.274,61.808Z" fill="url(#linear-gradient-122)"/><path d="M32.608,69.535a2.005,2.005,0,0,0-2.006,2v2h.54v-2a1.466,1.466,0,0,1,2.932,0v2h.541v-2A2.005,2.005,0,0,0,32.608,69.535Z" fill="url(#linear-gradient-123)"/><rect x="29.868" y="72.512" width="5.409" height="4.033" rx="1.917" fill="url(#linear-gradient-124)"/><path d="M33.14,74.264a.568.568,0,1,0-.85.489.155.155,0,0,1,.079.135v.629a.2.2,0,0,0,.2.2h0a.2.2,0,0,0,.2-.2v-.629a.156.156,0,0,1,.08-.135A.565.565,0,0,0,33.14,74.264Z" fill="url(#linear-gradient-125)"/><rect x="20.507" y="67.196" width="8.317" height="3.118" rx="1.482" fill="url(#linear-gradient-126)" style="mix-blend-mode:multiply"/><ellipse cx="74" cy="21.42" rx="5.367" ry="5.347" fill="url(#linear-gradient-127)"/><path d="M74,26.283a4.863,4.863,0,1,1,4.881-4.863A4.877,4.877,0,0,1,74,26.283ZM74,17a4.42,4.42,0,1,0,4.436,4.42A4.433,4.433,0,0,0,74,17Z" fill="url(#linear-gradient-128)"/><rect x="41.148" y="12.676" width="11.186" height="7.073" rx="2.86" fill="url(#linear-gradient-129)"/><path d="M47.5,12.427l-.757,1.141a.7.7,0,0,1-.578.309h-5.1a.692.692,0,0,0-.693.691V21.46a.691.691,0,0,0,.693.69H52.417a.691.691,0,0,0,.692-.69V12.808a.691.691,0,0,0-.692-.69h-4.34A.692.692,0,0,0,47.5,12.427Z" fill="url(#linear-gradient-130)"/><path d="M46.769,15.1a1.551,1.551,0,0,0-1.553,1.546V18.2h.419V16.65a1.134,1.134,0,0,1,2.267,0V18.2h.419V16.65A1.55,1.55,0,0,0,46.769,15.1Z" fill="url(#linear-gradient-131)"/><rect x="44.649" y="17.406" width="4.184" height="3.119" rx="1.483" fill="url(#linear-gradient-132)"/><path d="M47.18,18.761a.439.439,0,1,0-.658.379.12.12,0,0,1,.062.1v.486a.156.156,0,0,0,.157.156h0a.157.157,0,0,0,.157-.156v-.486a.124.124,0,0,1,.061-.105A.434.434,0,0,0,47.18,18.761Z" fill="url(#linear-gradient-133)"/><path d="M46.437,23.362H40.676a.3.3,0,0,1-.3-.3h0a.3.3,0,0,1,.3-.3h5.761a.3.3,0,0,1,.3.3h0A.3.3,0,0,1,46.437,23.362Z" fill="url(#linear-gradient-134)"/><path d="M47.728,24.519H40.676a.3.3,0,0,1-.3-.3h0a.3.3,0,0,1,.3-.3h7.052a.3.3,0,0,1,.3.3h0A.3.3,0,0,1,47.728,24.519Z" fill="url(#linear-gradient-135)"/><path d="M49.755,24.519h-.947a.3.3,0,0,1-.3-.3h0a.3.3,0,0,1,.3-.3h.947a.3.3,0,0,1,.3.3h0A.3.3,0,0,1,49.755,24.519Z" fill="url(#linear-gradient-136)"/><path d="M42.954,25.676H40.676a.3.3,0,0,1-.3-.3h0a.3.3,0,0,1,.3-.3h2.278a.3.3,0,0,1,.3.3h0A.3.3,0,0,1,42.954,25.676Z" fill="url(#linear-gradient-137)"/><path d="M52.805,23.362H47.5a.3.3,0,0,1-.3-.3h0a.3.3,0,0,1,.3-.3h5.309a.3.3,0,0,1,.3.3h0A.3.3,0,0,1,52.805,23.362Z" fill="url(#linear-gradient-138)"/><rect x="119.395" y="19.392" width="22.205" height="13.829" rx="5.425" fill="url(#linear-gradient-139)"/><rect x="118.897" y="18.897" width="22.205" height="13.829" rx="5.425" fill="url(#linear-gradient-140)"/><rect x="120.38" y="20.708" width="19.248" height="3.611" rx="1.716" fill="url(#linear-gradient-141)"/><rect x="120.38" y="25.428" width="19.248" height="3.611" rx="1.716" fill="url(#linear-gradient-142)"/><circle cx="122.188" cy="27.335" r="0.506" fill="url(#linear-gradient-143)"/><circle cx="123.911" cy="27.335" r="0.506" fill="url(#linear-gradient-144)"/><circle cx="125.634" cy="27.335" r="0.506" fill="url(#linear-gradient-145)"/><circle cx="127.356" cy="27.335" r="0.506" fill="url(#linear-gradient-146)"/><circle cx="129.079" cy="27.335" r="0.506" fill="url(#linear-gradient-147)"/><circle cx="130.802" cy="27.335" r="0.506" fill="url(#linear-gradient-148)"/><circle cx="132.525" cy="27.335" r="0.506" fill="url(#linear-gradient-149)"/><path d="M122.434,22.131v.812h-.14V22.82a.287.287,0,0,1-.117.1.37.37,0,0,1-.16.034.362.362,0,0,1-.257-.089.352.352,0,0,1-.093-.265v-.467h.147v.451a.25.25,0,0,0,.057.178.214.214,0,0,0,.163.06.244.244,0,0,0,.185-.07.276.276,0,0,0,.068-.2v-.42Z" fill="url(#linear-gradient-150)"/><path d="M122.757,22.926a.411.411,0,0,1-.144-.069l.061-.116a.454.454,0,0,0,.131.061.515.515,0,0,0,.155.023c.129,0,.194-.037.194-.11a.071.071,0,0,0-.026-.058.163.163,0,0,0-.066-.032c-.026-.006-.063-.014-.111-.022a1.116,1.116,0,0,1-.161-.035.248.248,0,0,1-.107-.068.184.184,0,0,1-.044-.133.206.206,0,0,1,.092-.177.419.419,0,0,1,.248-.067.706.706,0,0,1,.163.02.426.426,0,0,1,.134.054l-.064.116a.422.422,0,0,0-.235-.064.269.269,0,0,0-.143.031.091.091,0,0,0-.049.081.078.078,0,0,0,.028.063.173.173,0,0,0,.068.033c.027.007.065.016.115.025a1.21,1.21,0,0,1,.159.036.242.242,0,0,1,.1.065.182.182,0,0,1,.044.129.2.2,0,0,1-.1.175.444.444,0,0,1-.258.065A.723.723,0,0,1,122.757,22.926Z" fill="url(#linear-gradient-151)"/><path d="M124.22,22.586h-.662a.259.259,0,0,0,.095.173.313.313,0,0,0,.2.065.3.3,0,0,0,.235-.1l.082.094a.364.364,0,0,1-.138.1.53.53,0,0,1-.413-.019.388.388,0,0,1-.155-.148.429.429,0,0,1-.054-.215.421.421,0,0,1,.053-.213.378.378,0,0,1,.146-.148.42.42,0,0,1,.21-.053.41.41,0,0,1,.208.053.37.37,0,0,1,.143.148.442.442,0,0,1,.052.218A.421.421,0,0,1,124.22,22.586Zm-.578-.274a.266.266,0,0,0-.084.168h.523a.265.265,0,0,0-.083-.168.276.276,0,0,0-.356,0Z" fill="url(#linear-gradient-152)"/><path d="M124.683,22.16a.42.42,0,0,1,.183-.037v.143l-.034,0a.249.249,0,0,0-.189.072.283.283,0,0,0-.068.2v.4h-.148v-.812h.142v.136A.252.252,0,0,1,124.683,22.16Z" fill="url(#linear-gradient-153)"/><path d="M125.73,22.213a.352.352,0,0,1,.091.263v.467h-.147v-.45a.253.253,0,0,0-.057-.178.216.216,0,0,0-.164-.06.254.254,0,0,0-.189.07.271.271,0,0,0-.069.2v.418h-.148v-.812h.142v.122a.29.29,0,0,1,.121-.1.427.427,0,0,1,.173-.034A.338.338,0,0,1,125.73,22.213Z" fill="url(#linear-gradient-154)"/><path d="M126.651,22.206a.32.32,0,0,1,.09.247v.49h-.14v-.107a.227.227,0,0,1-.106.086.381.381,0,0,1-.162.03.34.34,0,0,1-.219-.066.208.208,0,0,1-.082-.173.213.213,0,0,1,.078-.172.393.393,0,0,1,.249-.065h.234v-.029a.187.187,0,0,0-.055-.146.232.232,0,0,0-.163-.05.431.431,0,0,0-.142.023.365.365,0,0,0-.117.064l-.061-.11a.441.441,0,0,1,.151-.078.624.624,0,0,1,.186-.027A.371.371,0,0,1,126.651,22.206Zm-.147.595a.211.211,0,0,0,.089-.106v-.113h-.227c-.126,0-.188.041-.188.125a.115.115,0,0,0,.048.1.218.218,0,0,0,.132.035A.267.267,0,0,0,126.5,22.8Z" fill="url(#linear-gradient-155)"/><path d="M128.278,22.212a.356.356,0,0,1,.09.264v.467h-.148v-.45a.258.258,0,0,0-.054-.178.2.2,0,0,0-.156-.06.234.234,0,0,0-.179.07.279.279,0,0,0-.066.2v.418h-.148v-.45a.258.258,0,0,0-.054-.178.2.2,0,0,0-.156-.06.234.234,0,0,0-.179.07.279.279,0,0,0-.066.2v.418h-.148v-.812h.142v.121a.289.289,0,0,1,.117-.1.392.392,0,0,1,.165-.033.36.36,0,0,1,.169.039.255.255,0,0,1,.113.112.312.312,0,0,1,.129-.111.429.429,0,0,1,.185-.04A.333.333,0,0,1,128.278,22.212Z" fill="url(#linear-gradient-156)"/><path d="M129.379,22.586h-.662a.255.255,0,0,0,.095.173.311.311,0,0,0,.2.065.3.3,0,0,0,.235-.1l.081.094a.369.369,0,0,1-.137.1.49.49,0,0,1-.184.033.483.483,0,0,1-.229-.052.388.388,0,0,1-.155-.148.43.43,0,0,1-.055-.215.422.422,0,0,1,.054-.213.378.378,0,0,1,.146-.148.42.42,0,0,1,.21-.053.412.412,0,0,1,.208.053.37.37,0,0,1,.143.148.453.453,0,0,1,.052.218A.421.421,0,0,1,129.379,22.586Zm-.578-.274a.257.257,0,0,0-.084.168h.523a.262.262,0,0,0-.084-.168.275.275,0,0,0-.355,0Z" fill="url(#linear-gradient-157)"/><path d="M149.7,90.006H.345a.344.344,0,1,1,0-.687H149.7a.344.344,0,1,1,0,.687Z" fill="url(#linear-gradient-158)"/><path d="M13.058,61.4C3.434,51.037.294,37.425,5.236,27.147c4.421-9.2,15.939-17.032,22.732-14.463,3.365,1.272,4.683,4.761,6.7,4.265,2.355-.578,3.126-5.937,3.348-11.194" fill="none" stroke="#b897f2" stroke-miterlimit="10" stroke-width="0.25" stroke-dasharray="1 1 1 1 1 1"/><path d="M38.07,4.249a7.565,7.565,0,0,0,1.075,2.2L37.98,5.954l-1.209.366A7.543,7.543,0,0,0,38.07,4.249Z" fill="#b897f2"/><path d="M140.709,46.984c5.885-4.785,8.9-11.806,7.678-18.394-1.474-7.972-8.5-11.824-11.873-13.675-9.412-5.162-23.264-5.723-27.905.564-3.125,4.235-.636,9.628-3.179,10.73-3.613,1.565-8.515-9.371-17.035-9.075-3.921.136-8.45,2.646-8.456,5.041a2.922,2.922,0,0,0,1.205,2.161" fill="none" stroke="#b897f2" stroke-miterlimit="10" stroke-width="0.25" stroke-dasharray="1 1 1 1 1 1"/><path d="M82.358,25.238a7.542,7.542,0,0,0-2.421-.342L81,24.208,81.371,23A7.571,7.571,0,0,0,82.358,25.238Z" fill="#b897f2"/><path d="M24.72,77.253c-7.71,1.825-9.986.789-10.724-.364-1.64-2.56,4.016-6.148,3.649-12.91-.3-5.524-4.3-7.229-3.913-12.6a12.933,12.933,0,0,1,3.343-7.475,14.885,14.885,0,0,1,8.8-4.779" fill="none" stroke="#b897f2" stroke-miterlimit="10" stroke-width="0.25" stroke-dasharray="1 1 1 1 1 1"/><path d="M27.375,38.954a7.549,7.549,0,0,0-1.976,1.44l.282-1.232-.572-1.128A7.556,7.556,0,0,0,27.375,38.954Z" fill="#b897f2"/><path d="M120.759,10.025c-.347.036-.731-.224-.734-.51a.462.462,0,0,1,.539-.494.694.694,0,0,1,.124-.553.935.935,0,0,1,.934-.281,1.525,1.525,0,0,1,1.147-.613,1.451,1.451,0,0,1,1.115.433,1.1,1.1,0,0,1,.266.815.909.909,0,0,1,.988.092.617.617,0,0,1,.19.674.74.74,0,0,1-.708.432C123.268,10.02,122.111,10.025,120.759,10.025Z" opacity="0.65" fill="url(#linear-gradient-159)"/><path d="M146.107,21.576a.657.657,0,0,1,.073-.888.464.464,0,0,1,.7.214.7.7,0,0,1,.542-.17.928.928,0,0,1,.713.662,1.536,1.536,0,0,1,1.11.68,1.448,1.448,0,0,1,.185,1.178,1.109,1.109,0,0,1-.575.639.9.9,0,0,1,.418.9.62.62,0,0,1-.49.5.739.739,0,0,1-.73-.393C147.373,23.734,146.787,22.74,146.107,21.576Z" opacity="0.65" fill="url(#linear-gradient-160)"/><path d="M109.813,16.316c.105-.332.5-.58.761-.469a.461.461,0,0,1,.242.689.694.694,0,0,1,.459.333.923.923,0,0,1-.111.965,1.52,1.52,0,0,1,.109,1.293,1.446,1.446,0,0,1-.841.848,1.116,1.116,0,0,1-.857-.081.9.9,0,0,1-.477.867.623.623,0,0,1-.7-.094.736.736,0,0,1-.116-.819C108.822,18.612,109.276,17.552,109.813,16.316Z" opacity="0.65" fill="url(#linear-gradient-161)"/><path d="M86.106,16.328c-.348.036-.732-.224-.734-.51a.462.462,0,0,1,.538-.494.693.693,0,0,1,.125-.552.934.934,0,0,1,.933-.282,1.533,1.533,0,0,1,1.148-.613,1.457,1.457,0,0,1,1.115.433,1.11,1.11,0,0,1,.266.816.907.907,0,0,1,.988.091.619.619,0,0,1,.19.675.741.741,0,0,1-.709.431C88.614,16.323,87.458,16.328,86.106,16.328Z" opacity="0.65" fill="url(#linear-gradient-162)"/><path d="M145.2,40.852a.661.661,0,0,1-.8.407.461.461,0,0,1-.186-.706.7.7,0,0,1-.431-.368.926.926,0,0,1,.188-.954,1.518,1.518,0,0,1-.006-1.3,1.451,1.451,0,0,1,.907-.779,1.117,1.117,0,0,1,.847.149.9.9,0,0,1,.545-.827.623.623,0,0,1,.687.149.737.737,0,0,1,.051.826C146.375,38.642,145.837,39.662,145.2,40.852Z" opacity="0.65" fill="url(#linear-gradient-163)"/><path d="M34.958,14.048a.483.483,0,0,1-.581.3.335.335,0,0,1-.136-.515.509.509,0,0,1-.315-.269.675.675,0,0,1,.137-.7,1.11,1.11,0,0,1,0-.948,1.059,1.059,0,0,1,.662-.568.816.816,0,0,1,.619.108.658.658,0,0,1,.4-.6.458.458,0,0,1,.5.109.539.539,0,0,1,.037.6C35.814,12.434,35.421,13.179,34.958,14.048Z" opacity="0.65" fill="url(#linear-gradient-164)"/><path d="M7.85,20.159a.484.484,0,0,1-.631.168A.336.336,0,0,1,7.2,19.8a.508.508,0,0,1-.251-.33.675.675,0,0,1,.282-.651,1.111,1.111,0,0,1,.2-.928,1.065,1.065,0,0,1,.768-.416.81.81,0,0,1,.582.237.659.659,0,0,1,.518-.507.455.455,0,0,1,.467.212.54.54,0,0,1-.092.6C9.029,18.762,8.487,19.407,7.85,20.159Z" opacity="0.65" fill="url(#linear-gradient-165)"/><path d="M3.919,32.83c-.044-.428.278-.9.631-.9a.57.57,0,0,1,.612.661.868.868,0,0,1,.684.153,1.141,1.141,0,0,1,.348,1.147A1.878,1.878,0,0,1,6.953,35.3a1.78,1.78,0,0,1-.536,1.37A1.378,1.378,0,0,1,5.407,37a1.109,1.109,0,0,1-.113,1.215.767.767,0,0,1-.835.233.909.909,0,0,1-.534-.871C3.925,35.912,3.919,34.491,3.919,32.83Z" fill="url(#linear-gradient-166)"/><path d="M7.206,55.656a.811.811,0,0,1-.161,1.088.572.572,0,0,1-.844-.32.86.86,0,0,1-.68.168,1.147,1.147,0,0,1-.826-.871A1.894,1.894,0,0,1,3.383,54.8a1.778,1.778,0,0,1-.134-1.465,1.371,1.371,0,0,1,.757-.741,1.11,1.11,0,0,1-.443-1.137.766.766,0,0,1,.642-.581.915.915,0,0,1,.869.542C5.819,52.9,6.461,54.17,7.206,55.656Z" opacity="0.65" fill="url(#linear-gradient-167)"/><path d="M14.2,69.1c-.057.252-.331.459-.533.393A.341.341,0,0,1,13.443,69a.522.522,0,0,1-.36-.218.686.686,0,0,1,.022-.72,1.127,1.127,0,0,1-.162-.948,1.079,1.079,0,0,1,.569-.679.829.829,0,0,1,.638.007.668.668,0,0,1,.3-.67.462.462,0,0,1,.521.026.545.545,0,0,1,.137.6C14.787,67.346,14.517,68.156,14.2,69.1Z" opacity="0.65" fill="url(#linear-gradient-168)"/><path d="M18.078,42.213a.491.491,0,0,1-.659.067.341.341,0,0,1,.062-.537.514.514,0,0,1-.2-.37.685.685,0,0,1,.388-.608,1.126,1.126,0,0,1,.347-.9,1.079,1.079,0,0,1,.837-.294.826.826,0,0,1,.545.331.669.669,0,0,1,.6-.425.461.461,0,0,1,.434.287.547.547,0,0,1-.189.584C19.485,41,18.838,41.561,18.078,42.213Z" opacity="0.65" fill="url(#linear-gradient-169)"/><path d="M18.162,77.178c-.255.05-.556-.115-.578-.326a.342.342,0,0,1,.363-.4A.51.51,0,0,1,18,76.034a.69.69,0,0,1,.669-.273,1.137,1.137,0,0,1,.8-.532,1.079,1.079,0,0,1,.853.242.821.821,0,0,1,.253.584.672.672,0,0,1,.736,0,.458.458,0,0,1,.187.484.548.548,0,0,1-.493.368C20.012,77,19.159,77.084,18.162,77.178Z" opacity="0.65" fill="url(#linear-gradient-170)"/><ellipse cx="102.299" cy="2.354" rx="1.986" ry="1.979" fill="none" stroke="#b897f2" stroke-miterlimit="10" stroke-width="0.75"/><ellipse cx="116.928" cy="15.694" rx="1.825" ry="1.818" fill="none" stroke="#b897f2" stroke-miterlimit="10" stroke-width="0.75"/><ellipse cx="30.99" cy="24.979" rx="2.809" ry="2.799" fill="none" stroke="#b897f2" stroke-miterlimit="10" stroke-width="0.75"/><ellipse cx="12.574" cy="10.988" rx="2.195" ry="2.187" fill="none" stroke="#b897f2" stroke-miterlimit="10" stroke-width="0.75"/><ellipse cx="144.41" cy="81.933" rx="2.809" ry="2.799" fill="none" stroke="#b897f2" stroke-miterlimit="10" stroke-width="0.75"/><ellipse cx="117.628" cy="40.065" rx="1.61" ry="1.604" fill="none" stroke="#b897f2" stroke-miterlimit="10" stroke-width="0.75"/><ellipse cx="11.211" cy="82.663" rx="1.689" ry="1.683" fill="none" stroke="#b897f2" stroke-miterlimit="10" stroke-width="0.75"/><path d="M72.387,22.506a.436.436,0,0,0,.087.325.8.8,0,0,0,.411.1v.26H71.018v-.26a.645.645,0,0,0,.36-.1.468.468,0,0,0,.081-.327v-2.35a.464.464,0,0,0-.081-.327.645.645,0,0,0-.36-.1v-.26H72.9a2.686,2.686,0,0,1,1.25.223.74.74,0,0,1,.405.693.676.676,0,0,1-.3.578,1.906,1.906,0,0,1-.9.281,1.571,1.571,0,0,1,.613.257.776.776,0,0,1,.291.427,3.012,3.012,0,0,1,.083.52c.008.083.015.142.02.177a.442.442,0,0,0,.059.184.13.13,0,0,0,.109.046.191.191,0,0,0,.176-.125.842.842,0,0,0,.062-.362l.24,0c0,.013,0,.028,0,.044s0,.042,0,.075a.818.818,0,0,1-.2.592.748.748,0,0,1-.565.207,1.01,1.01,0,0,1-.374-.063.622.622,0,0,1-.257-.186,1.35,1.35,0,0,1-.176-.7c0-.029,0-.051,0-.068a1.116,1.116,0,0,0-.23-.736.6.6,0,0,0-.239-.126,1.335,1.335,0,0,0-.363-.041h-.225Zm0-2.36v.961h.283a1.24,1.24,0,0,0,.714-.158.606.606,0,0,0,.216-.521.73.73,0,0,0-.184-.537.714.714,0,0,0-.531-.185.643.643,0,0,0-.4.086A.475.475,0,0,0,72.387,20.146Z" fill="#fff"/><path d="M75.183,23.24v-.949h.234a1.785,1.785,0,0,0,.382.569.656.656,0,0,0,.452.178.48.48,0,0,0,.319-.1.331.331,0,0,0,.125-.266c0-.166-.176-.316-.53-.449-.036-.014-.065-.024-.085-.033a2.152,2.152,0,0,1-.735-.411.706.706,0,0,1-.207-.518.748.748,0,0,1,.252-.583.946.946,0,0,1,.658-.226,1.284,1.284,0,0,1,.443.085,2.152,2.152,0,0,0,.255.085.138.138,0,0,0,.1-.036.183.183,0,0,0,.051-.1h.215v.812h-.225a1.194,1.194,0,0,0-.323-.454.644.644,0,0,0-.422-.155.539.539,0,0,0-.327.091.282.282,0,0,0-.124.239c0,.151.178.291.536.419l.095.035a2.184,2.184,0,0,1,.772.412.711.711,0,0,1,.209.529.831.831,0,0,1-.25.633.941.941,0,0,1-.673.236,1.653,1.653,0,0,1-.534-.092c-.182-.062-.277-.093-.283-.093a.149.149,0,0,0-.095.039.325.325,0,0,0-.08.109Z" fill="#fff"/></g></g></g></svg>