<?xml version="1.0" encoding="utf-8"?>
<!-- Generator: Adobe Illustrator 25.3.1, SVG Export Plug-In . SVG Version: 6.00 Build 0)  -->
<svg version="1.1" id="Layer_1" xmlns="http://www.w3.org/2000/svg" xmlns:xlink="http://www.w3.org/1999/xlink" x="0px" y="0px"
	 viewBox="0 0 653.7 517.7" style="enable-background:new 0 0 653.7 517.7;" xml:space="preserve">
<style type="text/css">
	.st0{opacity:0.5;}
	.st1{fill:none;stroke:#97B0DC;stroke-width:1.96;stroke-miterlimit:10;}
	.st2{opacity:0.13;}
	.st3{fill:none;stroke:#97B0DC;stroke-width:2.18;stroke-miterlimit:10;}
	.st4{fill:none;stroke:#F57F36;stroke-width:4.64;stroke-linecap:round;stroke-linejoin:round;stroke-dasharray:11.53,11.53;}
	.st5{fill:#F57F36;}
	.st6{opacity:0.4;}
	.st7{fill:#D6DEF1;}
	.st8{opacity:0.57;}
	.st9{fill:#CAD3EC;}
	.st10{fill:#909BCE;}
	.st11{fill:#354D8D;}
	.st12{fill:#ED6E73;}
	.st13{opacity:0.22;fill:#0C3B59;enable-background:new    ;}
	.st14{fill:#222D60;}
	.st15{opacity:0.24;fill:url(#SVGID_1_);enable-background:new    ;}
	.st16{fill:#FFF5E9;stroke:#3E3D3B;stroke-width:1.98;stroke-miterlimit:10;}
	.st17{fill:#EF4345;}
	.st18{fill:#FFF5E9;}
	.st19{fill:none;stroke:#FFF5E9;stroke-width:2.14;stroke-miterlimit:10;}
	.st20{fill:#3E3D3B;}
	.st21{fill:#FFC53E;}
	.st22{fill:#EDEDEE;}
	.st23{fill:#EEA422;}
	
		.st24{opacity:0.5;fill:none;stroke:#2B2927;stroke-width:0.51;stroke-linecap:round;stroke-linejoin:round;enable-background:new    ;}
	.st25{opacity:0.3;fill:url(#SVGID_2_);enable-background:new    ;}
	.st26{fill:#E06A27;}
	.st27{fill:#CD5F28;}
	.st28{fill:#57A7D7;}
	.st29{opacity:0.11;fill:#1C3C6B;enable-background:new    ;}
	.st30{fill:#818181;}
	.st31{fill:#333237;}
	.st32{fill:#ECECEC;}
	.st33{fill:#010101;}
	.st34{fill:none;stroke:#010101;stroke-width:2.44;stroke-miterlimit:10;}
	.st35{fill:#292625;}
	.st36{fill:#FFFFFF;}
	.st37{fill:#D8D9D8;}
	.st38{opacity:0.72;fill:#182126;enable-background:new    ;}
	.st39{opacity:0.72;fill:#402718;enable-background:new    ;}
	.st40{opacity:0.72;fill:#EBECF0;enable-background:new    ;}
	.st41{fill:#402718;}
	.st42{fill:#777576;}
	.st43{fill:#343233;}
	.st44{fill:#898888;}
	.st45{opacity:0.1;fill:#2E2B2C;enable-background:new    ;}
	.st46{fill:#8C8A88;}
	.st47{opacity:0.72;fill:#171717;enable-background:new    ;}
	.st48{fill:#453F38;}
	.st49{opacity:0.14;fill:#2E2B2C;enable-background:new    ;}
	.st50{opacity:7.000000e-02;fill:#333237;enable-background:new    ;}
	.st51{fill:#1F2A5A;}
	.st52{fill:#E2A025;}
	.st53{fill:#F2D08C;}
	.st54{fill:#FBB423;}
	.st55{fill:#DEBA27;}
	.st56{fill:#F4CC13;}
	.st57{fill:#E08F26;}
	.st58{fill:#FFE67E;}
	.st59{fill:#EFB31E;}
	.st60{opacity:0.46;fill:#F4CC13;enable-background:new    ;}
	.st61{opacity:0.78;fill:#FEE88F;enable-background:new    ;}
	.st62{opacity:0.32;fill:#FEE88F;enable-background:new    ;}
	.st63{fill:#CC842D;}
</style>
<g class="st0">
	<path class="st1" d="M274.7,484.1c-42.6-0.6-77.3-4.3-110.4-17.3s-59.9-30.4-81.4-56.7c-14.3-17.6-23.6-37.4-26.6-59.5
		s0.5-45.6,9.1-67.4s21-42.5,34.2-62.4c16.2-24.2,32.8-48.3,48.1-73c9.6-15.5,17-32.2,25.5-48.3C185.6,76.2,202.7,57,227,44.4
		c17.1-9,35.5-12.4,54.9-10.9c29,2.2,55.3,12.5,80.2,25.8s49.5,28.5,74.5,42.3c17.8,9.7,36,18.7,54.3,27.6
		c33.1,16.3,62.7,36.8,86.4,64.6c21.4,25.2,35.5,53.6,39.7,86.1s-2.8,65.5-17.8,96c-10.1,20.6-22.7,39.6-39.7,55.9
		c-19.1,18.3-42.3,29.2-68.8,32.9c-19.8,2.8-39.9,4-59.9,6l-61.5,6.2c-16.5,1.6-32.9,3.4-49.4,4.6S285,483.5,274.7,484.1z"/>
</g>
<g class="st2">
	<path class="st3" d="M264.9,510.8c-47.3-0.7-86-4.8-122.7-19.3s-66.6-33.8-90.5-63C35.8,409,25.4,387,22.1,362.4
		s0.6-50.7,10.1-74.9s23.4-47.2,38.1-69.3c17.9-27,36.4-53.7,53.4-81.2c10.6-17.2,18.9-35.8,28.4-53.6
		c13.8-25.9,32.7-47.2,59.7-61.3c19-9.9,39.5-13.8,61.1-12.1c32.2,2.4,61.4,13.9,89.1,28.7s55,31.7,82.8,47
		c19.7,10.8,40,20.7,60.3,30.7c36.8,18.1,69.8,40.9,96,71.8c23.9,28,39.5,59.6,44.2,95.7s-3.2,72.8-19.8,106.6
		c-11.3,22.9-25.3,44.1-44.1,62.1c-21.3,20.4-47,32.5-76.5,36.6c-22,3.1-44.4,4.5-66.5,6.7s-45.6,4.7-68.4,6.9
		c-18.3,1.8-36.6,3.7-54.9,5.1S276.3,510.2,264.9,510.8z"/>
</g>
<path class="st4" d="M483.6,170.3c0,0-179.8-147.5-243.8,83.9c-32,115.6-172.5,140.1-211.6,38.7"/>
<path class="st5" d="M20.9,265.8c8.3,11.4,20.8,24.9,32,32.2l-23.4-1.7L10.4,310C16.2,297.9,19.8,279.9,20.9,265.8z"/>
<g class="st6">
	<path class="st7" d="M290.8,458.3c-35.8-0.6-65-3.8-92.8-15.2s-50.3-26.7-68.3-49.8c-12.1-15.4-19.9-32.8-22.4-52.2
		s0.4-40.1,7.6-59.2s17.7-37.3,28.8-54.8c13.6-21.3,27.6-42.4,40.5-64.1c8-13.6,14.2-28.3,21.4-42.4c10.5-20.5,24.8-37.4,45.2-48.5
		c14.1-7.7,30.2-11,46.2-9.6c24.4,2,46.4,11.1,67.4,22.7s41.5,25,62.6,37.1c14.9,8.5,30.3,16.4,45.6,24.2
		c27.8,14.3,52.7,32.3,72.6,56.8c18,22.1,29.8,47,33.3,75.5s-2.4,57.6-15,84.3c-8.5,18.1-19.1,34.8-33.3,49.1
		c-15.6,15.8-35.9,26-57.9,29c-16.7,2.4-33.5,3.5-50.3,5.2s-34.5,3.8-51.7,5.5c-13.9,1.5-27.7,3-41.5,4.1S299.4,457.8,290.8,458.3z"
		/>
</g>
<g class="st8">
	<path class="st9" d="M303.2,200h94.4c3.8,0,6.8,3,6.8,6.8v162.8c0,3.8-3,6.8-6.8,6.8h-94.4c-3.8,0-6.8-3-6.8-6.8V206.8
		C296.4,203,299.4,200,303.2,200z"/>
	<path class="st10" d="M307.9,200.5h94.4c3.8,0,6.8,3,6.8,6.8v162.8c0,3.8-3,6.8-6.8,6.8h-94.4c-3.8,0-6.8-3-6.8-6.8V207.3
		C301.1,203.5,304.1,200.5,307.9,200.5z"/>
	<rect x="309.4" y="215.4" class="st11" width="90.8" height="24.7"/>
	<circle class="st12" cx="329.7" cy="235.1" r="1.2"/>
	<circle class="st12" cx="325" cy="235.1" r="1.2"/>
	<circle class="st12" cx="334.8" cy="235.1" r="1.2"/>
	<rect x="343.9" y="219.5" class="st10" width="2.8" height="16.8"/>
	<rect x="348.5" y="219.5" class="st10" width="2.8" height="16.8"/>
	<rect x="353.2" y="219.5" class="st10" width="2.8" height="16.8"/>
	<rect x="367.2" y="220" class="st13" width="33" height="16.8"/>
	<circle class="st14" cx="383.7" cy="226.3" r="0.7"/>
	<circle class="st14" cx="383.7" cy="229.1" r="0.7"/>
	<rect x="367.2" y="225.6" class="st14" width="14.7" height="1.5"/>
	<rect x="367.2" y="228.3" class="st14" width="14.7" height="1.5"/>
	<rect x="309.4" y="246.5" class="st11" width="90.8" height="24.7"/>
	<circle class="st12" cx="329.7" cy="266.3" r="1.2"/>
	<circle class="st12" cx="325" cy="266.3" r="1.2"/>
	<circle class="st12" cx="334.8" cy="266.3" r="1.2"/>
	<rect x="343.9" y="250.7" class="st10" width="2.8" height="16.8"/>
	<rect x="348.5" y="250.7" class="st10" width="2.8" height="16.8"/>
	<rect x="353.2" y="250.7" class="st10" width="2.8" height="16.8"/>
	<rect x="367.2" y="251.2" class="st13" width="33" height="16.8"/>
	<circle class="st14" cx="383.7" cy="257.5" r="0.7"/>
	<circle class="st14" cx="383.7" cy="260.3" r="0.7"/>
	<rect x="367.2" y="256.8" class="st14" width="14.7" height="1.5"/>
	<rect x="367.2" y="259.5" class="st14" width="14.7" height="1.5"/>
	<rect x="309.4" y="277.7" class="st11" width="90.8" height="24.7"/>
	<circle class="st12" cx="329.7" cy="297.5" r="1.2"/>
	<circle class="st12" cx="325" cy="297.5" r="1.2"/>
	<circle class="st12" cx="334.8" cy="297.5" r="1.2"/>
	<rect x="343.9" y="281.9" class="st10" width="2.8" height="16.8"/>
	<rect x="348.5" y="281.9" class="st10" width="2.8" height="16.8"/>
	<rect x="353.2" y="281.9" class="st10" width="2.8" height="16.8"/>
	<rect x="367.2" y="282.4" class="st13" width="33" height="16.8"/>
	<circle class="st14" cx="383.7" cy="288.7" r="0.7"/>
	<circle class="st14" cx="383.7" cy="291.5" r="0.7"/>
	<rect x="367.2" y="288" class="st14" width="14.7" height="1.5"/>
	<rect x="367.2" y="290.7" class="st14" width="14.7" height="1.5"/>
	<rect x="309.4" y="308.9" class="st11" width="90.8" height="24.7"/>
	<circle class="st12" cx="329.7" cy="328.7" r="1.2"/>
	<circle class="st12" cx="325" cy="328.7" r="1.2"/>
	<circle class="st12" cx="334.8" cy="328.7" r="1.2"/>
	<rect x="343.9" y="313.1" class="st10" width="2.8" height="16.8"/>
	<rect x="348.5" y="313.1" class="st10" width="2.8" height="16.8"/>
	<rect x="353.2" y="313.1" class="st10" width="2.8" height="16.8"/>
	<rect x="367.2" y="313.6" class="st13" width="33" height="16.8"/>
	<circle class="st14" cx="383.7" cy="319.8" r="0.7"/>
	<circle class="st14" cx="383.7" cy="322.6" r="0.7"/>
	<rect x="367.2" y="319.1" class="st14" width="14.7" height="1.5"/>
	<rect x="367.2" y="321.8" class="st14" width="14.7" height="1.5"/>
	<rect x="309.4" y="340.1" class="st11" width="90.8" height="24.7"/>
	<circle class="st12" cx="329.7" cy="359.9" r="1.2"/>
	<circle class="st12" cx="325" cy="359.9" r="1.2"/>
	<circle class="st12" cx="334.8" cy="359.9" r="1.2"/>
	<rect x="343.9" y="344.3" class="st10" width="2.8" height="16.8"/>
	<rect x="348.5" y="344.3" class="st10" width="2.8" height="16.8"/>
	<rect x="353.2" y="344.3" class="st10" width="2.8" height="16.8"/>
	<rect x="367.2" y="344.7" class="st13" width="33" height="16.8"/>
	<circle class="st14" cx="383.7" cy="351" r="0.7"/>
	<circle class="st14" cx="383.7" cy="353.8" r="0.7"/>
	<rect x="367.2" y="350.3" class="st14" width="14.7" height="1.5"/>
	<rect x="367.2" y="353" class="st14" width="14.7" height="1.5"/>
</g>
<radialGradient id="SVGID_1_" cx="91.82" cy="138.56" r="389.46" gradientTransform="matrix(1 0 0 -1 0 502)" gradientUnits="userSpaceOnUse">
	<stop  offset="0.28" style="stop-color:#010101;stop-opacity:0.53"/>
	<stop  offset="0.69" style="stop-color:#FFFFFF;stop-opacity:0"/>
</radialGradient>
<ellipse class="st15" cx="223.3" cy="373.5" rx="104.7" ry="12.4"/>
<path class="st9" d="M143.6,108.1h139.9c5.6,0,10.2,4.6,10.2,10.2v241.4c0,5.6-4.6,10.2-10.2,10.2H143.6c-5.6,0-10.2-4.6-10.2-10.2
	V118.3C133.4,112.7,138,108.1,143.6,108.1z"/>
<path class="st10" d="M150.5,108.8h139.9c5.6,0,10.2,4.6,10.2,10.2v241.4c0,5.6-4.6,10.2-10.2,10.2H150.5c-5.6,0-10.2-4.6-10.2-10.2
	V119C140.3,113.4,144.9,108.8,150.5,108.8z"/>
<rect x="152.7" y="130.9" class="st11" width="134.7" height="36.6"/>
<circle class="st12" cx="182.8" cy="160.3" r="1.7"/>
<circle class="st12" cx="175.9" cy="160.3" r="1.7"/>
<circle class="st12" cx="190.4" cy="160.3" r="1.7"/>
<rect x="203.8" y="137.1" class="st10" width="4.1" height="24.9"/>
<rect x="210.8" y="137.1" class="st10" width="4.1" height="24.9"/>
<rect x="217.7" y="137.1" class="st10" width="4.1" height="24.9"/>
<rect x="238.4" y="137.8" class="st13" width="49.1" height="24.9"/>
<circle class="st14" cx="262.9" cy="147.1" r="1"/>
<circle class="st14" cx="262.9" cy="151.3" r="1"/>
<rect x="238.4" y="146.1" class="st14" width="21.9" height="2.2"/>
<rect x="238.4" y="150.1" class="st14" width="21.9" height="2.2"/>
<rect x="152.7" y="177.2" class="st11" width="134.7" height="36.6"/>
<circle class="st12" cx="182.8" cy="206.6" r="1.7"/>
<circle class="st12" cx="175.9" cy="206.6" r="1.7"/>
<circle class="st12" cx="190.4" cy="206.6" r="1.7"/>
<rect x="203.8" y="183.4" class="st10" width="4.1" height="24.9"/>
<rect x="210.8" y="183.4" class="st10" width="4.1" height="24.9"/>
<rect x="217.7" y="183.4" class="st10" width="4.1" height="24.9"/>
<rect x="238.4" y="184.1" class="st13" width="49.1" height="24.9"/>
<circle class="st14" cx="262.9" cy="193.4" r="1"/>
<circle class="st14" cx="262.9" cy="197.6" r="1"/>
<rect x="238.4" y="192.4" class="st14" width="21.9" height="2.2"/>
<rect x="238.4" y="196.4" class="st14" width="21.9" height="2.2"/>
<rect x="152.7" y="223.5" class="st11" width="134.7" height="36.6"/>
<circle class="st12" cx="182.8" cy="252.8" r="1.7"/>
<circle class="st12" cx="175.9" cy="252.8" r="1.7"/>
<circle class="st12" cx="190.4" cy="252.8" r="1.7"/>
<rect x="203.8" y="229.7" class="st10" width="4.1" height="24.9"/>
<rect x="210.8" y="229.7" class="st10" width="4.1" height="24.9"/>
<rect x="217.7" y="229.7" class="st10" width="4.1" height="24.9"/>
<rect x="238.4" y="230.4" class="st13" width="49.1" height="24.9"/>
<circle class="st14" cx="262.9" cy="239.7" r="1"/>
<circle class="st14" cx="262.9" cy="243.9" r="1"/>
<rect x="238.4" y="238.7" class="st14" width="21.9" height="2.2"/>
<rect x="238.4" y="242.7" class="st14" width="21.9" height="2.2"/>
<rect x="152.7" y="269.8" class="st11" width="134.7" height="36.6"/>
<circle class="st12" cx="182.8" cy="299.1" r="1.7"/>
<circle class="st12" cx="175.9" cy="299.1" r="1.7"/>
<circle class="st12" cx="190.4" cy="299.1" r="1.7"/>
<rect x="203.8" y="276" class="st10" width="4.1" height="24.9"/>
<rect x="210.8" y="276" class="st10" width="4.1" height="24.9"/>
<rect x="217.7" y="276" class="st10" width="4.1" height="24.9"/>
<rect x="238.4" y="276.7" class="st13" width="49.1" height="24.9"/>
<circle class="st14" cx="262.9" cy="286" r="1"/>
<circle class="st14" cx="262.9" cy="290.2" r="1"/>
<rect x="238.4" y="285" class="st14" width="21.9" height="2.2"/>
<rect x="238.4" y="289" class="st14" width="21.9" height="2.2"/>
<rect x="152.7" y="316.1" class="st11" width="134.7" height="36.6"/>
<circle class="st12" cx="182.8" cy="345.4" r="1.7"/>
<circle class="st12" cx="175.9" cy="345.4" r="1.7"/>
<circle class="st12" cx="190.4" cy="345.4" r="1.7"/>
<rect x="203.8" y="322.3" class="st10" width="4.1" height="24.9"/>
<rect x="210.8" y="322.3" class="st10" width="4.1" height="24.9"/>
<rect x="217.7" y="322.3" class="st10" width="4.1" height="24.9"/>
<rect x="238.4" y="323" class="st13" width="49.1" height="24.9"/>
<circle class="st14" cx="262.9" cy="332.3" r="1"/>
<circle class="st14" cx="262.9" cy="336.4" r="1"/>
<rect x="238.4" y="331.3" class="st14" width="21.9" height="2.2"/>
<rect x="238.4" y="335.3" class="st14" width="21.9" height="2.2"/>
<g class="st8">
	<path class="st9" d="M425.2,175.3h109.4c4.4,0,7.9,3.5,7.9,7.9v188.7c0,4.4-3.5,7.9-7.9,7.9H425.2c-4.4,0-7.9-3.5-7.9-7.9V183.2
		C417.3,178.8,420.8,175.3,425.2,175.3z"/>
	<path class="st10" d="M430.6,175.8H540c4.4,0,7.9,3.5,7.9,7.9v188.7c0,4.4-3.5,7.9-7.9,7.9H430.6c-4.4,0-7.9-3.5-7.9-7.9V183.7
		C422.7,179.3,426.2,175.8,430.6,175.8z"/>
	<rect x="432.4" y="193.1" class="st11" width="105.2" height="28.6"/>
	<circle class="st12" cx="455.9" cy="216" r="1.3"/>
	<circle class="st12" cx="450.5" cy="216" r="1.3"/>
	<circle class="st12" cx="461.8" cy="216" r="1.3"/>
	<rect x="472.4" y="197.9" class="st10" width="3.2" height="19.4"/>
	<rect x="477.7" y="197.9" class="st10" width="3.2" height="19.4"/>
	<rect x="483.1" y="197.9" class="st10" width="3.2" height="19.4"/>
	<rect x="499.3" y="198.5" class="st13" width="38.3" height="19.4"/>
	<circle class="st14" cx="518.5" cy="205.8" r="0.8"/>
	<circle class="st14" cx="518.5" cy="209" r="0.8"/>
	<rect x="499.3" y="205" class="st14" width="17.1" height="1.7"/>
	<rect x="499.3" y="208.1" class="st14" width="17.1" height="1.7"/>
	<rect x="432.4" y="229.2" class="st11" width="105.2" height="28.6"/>
	<circle class="st12" cx="455.9" cy="252.2" r="1.3"/>
	<circle class="st12" cx="450.5" cy="252.2" r="1.3"/>
	<circle class="st12" cx="461.8" cy="252.2" r="1.3"/>
	<rect x="472.4" y="234.1" class="st10" width="3.2" height="19.4"/>
	<rect x="477.7" y="234.1" class="st10" width="3.2" height="19.4"/>
	<rect x="483.1" y="234.1" class="st10" width="3.2" height="19.4"/>
	<rect x="499.3" y="234.6" class="st13" width="38.3" height="19.4"/>
	<circle class="st14" cx="518.5" cy="241.9" r="0.8"/>
	<circle class="st14" cx="518.5" cy="245.2" r="0.8"/>
	<rect x="499.3" y="241.1" class="st14" width="17.1" height="1.7"/>
	<rect x="499.3" y="244.2" class="st14" width="17.1" height="1.7"/>
	<rect x="432.4" y="265.4" class="st11" width="105.2" height="28.6"/>
	<circle class="st12" cx="455.9" cy="288.3" r="1.3"/>
	<circle class="st12" cx="450.5" cy="288.3" r="1.3"/>
	<circle class="st12" cx="461.8" cy="288.3" r="1.3"/>
	<rect x="472.4" y="270.2" class="st10" width="3.2" height="19.4"/>
	<rect x="477.7" y="270.2" class="st10" width="3.2" height="19.4"/>
	<rect x="483.1" y="270.2" class="st10" width="3.2" height="19.4"/>
	<rect x="499.3" y="270.8" class="st13" width="38.3" height="19.4"/>
	<circle class="st14" cx="518.5" cy="278.1" r="0.8"/>
	<circle class="st14" cx="518.5" cy="281.3" r="0.8"/>
	<rect x="499.3" y="277.3" class="st14" width="17.1" height="1.7"/>
	<rect x="499.3" y="280.4" class="st14" width="17.1" height="1.7"/>
	<rect x="432.4" y="301.5" class="st11" width="105.2" height="28.6"/>
	<circle class="st12" cx="455.9" cy="324.5" r="1.3"/>
	<circle class="st12" cx="450.5" cy="324.5" r="1.3"/>
	<circle class="st12" cx="461.8" cy="324.5" r="1.3"/>
	<rect x="472.4" y="306.4" class="st10" width="3.2" height="19.4"/>
	<rect x="477.7" y="306.4" class="st10" width="3.2" height="19.4"/>
	<rect x="483.1" y="306.4" class="st10" width="3.2" height="19.4"/>
	<rect x="499.3" y="306.9" class="st13" width="38.3" height="19.4"/>
	<circle class="st14" cx="518.5" cy="314.2" r="0.8"/>
	<circle class="st14" cx="518.5" cy="317.5" r="0.8"/>
	<rect x="499.3" y="313.4" class="st14" width="17.1" height="1.7"/>
	<rect x="499.3" y="316.5" class="st14" width="17.1" height="1.7"/>
	<rect x="432.4" y="337.7" class="st11" width="105.2" height="28.6"/>
	<circle class="st12" cx="455.9" cy="360.6" r="1.3"/>
	<circle class="st12" cx="450.5" cy="360.6" r="1.3"/>
	<circle class="st12" cx="461.8" cy="360.6" r="1.3"/>
	<rect x="472.4" y="342.5" class="st10" width="3.2" height="19.4"/>
	<rect x="477.7" y="342.5" class="st10" width="3.2" height="19.4"/>
	<rect x="483.1" y="342.5" class="st10" width="3.2" height="19.4"/>
	<rect x="499.3" y="343.1" class="st13" width="38.3" height="19.4"/>
	<circle class="st14" cx="518.5" cy="350.4" r="0.8"/>
	<circle class="st14" cx="518.5" cy="353.6" r="0.8"/>
	<rect x="499.3" y="349.6" class="st14" width="17.1" height="1.7"/>
	<rect x="499.3" y="352.7" class="st14" width="17.1" height="1.7"/>
</g>
<path class="st16" d="M118.6,102.8c0,0,22.4-0.7,30.7-8.7c0,0,19,10.7,30.4,8c0,0,9.3,45.9-30,65.6
	C149.7,167.7,113.7,157.7,118.6,102.8z"/>
<path class="st17" d="M122.6,105.7c0,0,19.5-0.6,26.7-7.5c0,0,16.5,9.3,26.4,6.9c0,0,8.2,40-26.1,57.1
	C149.6,162.2,118.4,153.5,122.6,105.7z"/>
<path class="st18" d="M143.2,123.5h12.5c1.2,0,2.2,1,2.2,2.2v8.5c0,1.2-1,2.2-2.2,2.2h-12.5c-1.2,0-2.2-1-2.2-2.2v-8.5
	C141,124.5,142,123.5,143.2,123.5z"/>
<path class="st19" d="M147.7,118h3.5c1.6,0,2.9,1.3,2.9,2.9v4.2c0,1.6-1.3,2.9-2.9,2.9h-3.5c-1.6,0-2.9-1.3-2.9-2.9v-4.2
	C144.8,119.3,146.1,118,147.7,118z"/>
<path class="st20" d="M150.3,129.2c0-0.7-0.5-1.2-1.2-1.2s-1.2,0.5-1.2,1.2c0,0.5,0.3,0.9,0.7,1.1v2c0,0.3,0.2,0.5,0.5,0.5
	c0.3,0,0.6-0.2,0.6-0.5v-2C150.1,130.1,150.3,129.7,150.3,129.2z"/>
<path class="st21" d="M278.7,352.9l40.6,0.4c1.5,0,2.7,1.2,2.7,2.7l-0.3,28.4c0,1.5-1.2,2.7-2.7,2.7l-40.6-0.4
	c-1.5,0-2.7-1.2-2.7-2.7l0.3-28.4C276,354.1,277.2,352.9,278.7,352.9z"/>
<rect x="278.6" y="341.6" class="st22" width="41.1" height="40.6"/>
<path class="st23" d="M278.9,362.4l40.4,0.4c1.5,0,2.8,1.3,2.8,2.8l-0.2,18.6c0,1.5-1.3,2.8-2.8,2.8l-40.4-0.4
	c-1.5,0-2.8-1.3-2.8-2.8l0.2-18.6C276.1,363.7,277.4,362.4,278.9,362.4z"/>
<path class="st23" d="M297.8,363.1c0.1-0.3,0.2-0.7,0.4-1l0.5-1.5c0.2-0.4,0.4-0.9,0.8-1h2.3c1.7-0.1,3.3,0,5,0h14.1
	c0,0,1,0.2,0.9,1.6s-0.1,14.9-0.2,20.3c0,1.2-0.9,2.1-2.1,2.1c0,0-0.1,0-0.1,0l-15.2-0.5h-5.3c-0.1-0.9-0.1-1.7-0.2-2.6l-0.2-5.9
	c-0.3-6.6-0.2-6.3-0.3-6.7c-0.4-1.3-0.5-2.7-0.5-4.1C297.7,363.6,297.7,363.3,297.8,363.1z"/>
<line class="st24" x1="283.1" y1="349.1" x2="314.1" y2="349.1"/>
<line class="st24" x1="283.1" y1="350.8" x2="314.1" y2="350.8"/>
<line class="st24" x1="283.1" y1="352.5" x2="314.1" y2="352.5"/>
<line class="st24" x1="283.1" y1="354.3" x2="314.1" y2="354.3"/>
<line class="st24" x1="283.1" y1="356" x2="314.1" y2="356"/>
<line class="st24" x1="283.1" y1="357.7" x2="314.1" y2="357.7"/>
<linearGradient id="SVGID_2_" gradientUnits="userSpaceOnUse" x1="313.7788" y1="123.4758" x2="275.6588" y2="99.9558" gradientTransform="matrix(1 0 0 -1 0 502)">
	<stop  offset="0.18" style="stop-color:#FFFFFF;stop-opacity:0"/>
	<stop  offset="0.72" style="stop-color:#010101;stop-opacity:0.53"/>
</linearGradient>
<path class="st25" d="M320.3,385.1l-13.2,11.1h-41.4l11.4-8.6c3.4-0.3,8.7-0.6,15.2-1.4s7.8-1.1,11.7-1.4
	C309.4,384.4,314.9,384.5,320.3,385.1z"/>
<polygon class="st26" points="573.1,149.8 513.7,143.2 556.4,157.6 "/>
<polygon class="st5" points="552.3,160.9 533,171.8 514,143 "/>
<polygon class="st27" points="553.8,174 543.5,165.3 552.3,160.9 "/>
<polygon class="st27" points="557.3,157.5 513.7,143.2 551.5,162.2 552.5,175.6 "/>
<path class="st26" d="M96.2,119c0,0,0.9,17.6-16.8,17.6c0,0,20.8-2.8,17.9,15.2c0,0,2.4-18.4,16.5-19.5
	C113.8,132.3,95.6,136.3,96.2,119z"/>
<path class="st26" d="M122.1,197.3c0,0,0.4,7.9-7.6,7.9c0,0,9.4-1.3,8.1,6.8c0,0,1-8.3,7.4-8.7C130,203.3,121.8,205,122.1,197.3z"/>
<path class="st26" d="M229.9,52.8c0,0,0.5,8.8-8.4,8.8c0,0,10.4-1.4,9,7.6c0,0,1.2-9.2,8.2-9.7C238.7,59.5,229.6,61.5,229.9,52.8z"
	/>
<path class="st28" d="M441.8,227.7c-0.8,1.4-2.2,2.4-3.8,2.6c-0.1,0-0.2,0-0.2-0.1h-0.2c-0.1-0.4,0-0.8,0.2-1.1
	c0.2-0.3,0.5-0.6,0.9-0.8l1.5-1.1c0.3,1.1-1.4,1.8-1.5,3"/>
<path class="st29" d="M419.6,355.7c1.3,2.6,2,5.3,2.2,8.2c0.1,0.5,0.6-0.9,0.5-0.7c0.3-0.7,0.5-1.4,0.5-2.1c-0.3-2.8-1-5.5-2.2-8.1
	c-0.2-0.4-0.5,0.7-0.5,0.7S419.4,355.2,419.6,355.7z"/>
<path class="st29" d="M419.2,358.2c1.3,2.6,2,5.3,2.2,8.2c0.1,0.4,0.6-0.6,0.5-0.5c0.2-0.5,0.3-1.1,0.3-1.7c-0.2-2.8-1-5.6-2.2-8.2
	c-0.2-0.4-0.5,0.6-0.5,0.5C419.3,357,419.2,357.6,419.2,358.2z"/>
<path class="st29" d="M419.8,353.8c1.3,2.6,2,5.3,2.2,8.2c0.2-0.2,0.4-0.4,0.5-0.7c0.4-0.9,0.7-1.9,1.1-2.8s1.3-2.7,1.1-3.8
	c-0.4-2.8-1.2-5.5-2.4-8.1c-0.2,0.2-0.4,0.4-0.5,0.7l-1,2.8C420.6,350.8,419.5,353,419.8,353.8z"/>
<path class="st29" d="M419.2,355.4l2.2,7.9c0.1,0.2,0.1,0.3,0.2,0.1c0.4-0.7,0.8-1.5,1-2.3c0.4-1.1,1.4-3,1.2-4.1
	c-1-5.2-0.4-3.1-2.3-8.1c-0.2,0.1-0.4,0.3-0.4,0.6c-0.3,0.8-0.6,1.7-0.9,2.5C419.9,352.7,418.9,354.6,419.2,355.4z"/>
<path class="st29" d="M419.4,355.7l2.3,7.9c0.1,0.7,0.8-1,0.7-1.4c-1-5.2-0.3-2.9-2.3-8C420,353.9,419.3,355.3,419.4,355.7z"/>
<path class="st29" d="M419.6,353.5l2.2,8c0.1,0.5,1.1-1.7,1.2-1.9s1.4-2.5,1.2-3.6c-1.1-5.2-0.5-3-2.4-8.1c-0.2,0.1-0.3,0.3-0.4,0.5
	l-0.9,2.2C420.3,351.2,419.4,352.8,419.6,353.5z"/>
<path class="st29" d="M419.4,356.3l2.2,8c0.2,0.9,1-2,0.9-1.7s0.6-2.3,1-3.4c0.2-0.6,0.3-1.3,0.4-1.9c-1.1-5.4-0.4-3.2-2.4-8.4
	c-0.2,0.2-0.3,0.5-0.3,0.8c-0.4,0.9-0.7,1.9-0.9,2.9C420.1,353.3,419.1,355.5,419.4,356.3z"/>
<path class="st29" d="M418.7,354.7c1.3,2.5,2,5.2,2.3,8c0,0.3,0.9-1.1,0.8-1.5c-0.2-2.7-1-5.4-2.3-7.8
	C419.4,353,418.6,354.4,418.7,354.7z"/>
<path class="st29" d="M419.7,354.9c1.3,2.6,2.1,5.3,2.3,8.2c0.3-0.2,0.4-0.5,0.5-0.8c0.3-1.1,0.7-2.2,1.1-3.3s1.3-3.1,1-4.3
	c-0.3-2.9-1.1-5.6-2.4-8.2c-0.2,0.3-0.3,0.6-0.4,0.9c-0.4,1.1-0.7,2.2-1,3.3S419.4,353.9,419.7,354.9z"/>
<path class="st29" d="M419,354.5c1.3,2.5,2,5.2,2.3,8c0.1,0.6,0.7-1,0.7-0.8s1.1-2.1,1-2.9c-0.3-2.7-1.1-5.4-2.3-7.9
	c-0.2-0.5-0.7,0.8-0.7,0.8S418.8,353.9,419,354.5z"/>
<path class="st29" d="M419,355l2.3,7.7c0.1,0.6,0.8-0.6,0.7-0.9c-1.1-5.1-0.4-2.8-2.5-7.7C419.3,353.7,418.8,354.7,419,355z"/>
<path class="st29" d="M419.3,355.7c1.3,2.5,2,5.3,2.3,8.1c0.2-0.2,0.4-0.4,0.4-0.7c0.4-1.1,0.8-2.1,1.1-3.2s1.4-3,1.2-4.1
	c-0.4-2.8-1.2-5.6-2.4-8.2c-0.2,0.2-0.4,0.5-0.4,0.8c-0.4,1.1-0.8,2.1-1.1,3.2S419,354.8,419.3,355.7z"/>
<path class="st7" d="M385,389.8l0.6,2.4c-1.4,0.4-2.8,1-4.1,1.7C380.8,394.7,383.2,390.2,385,389.8z"/>
<path class="st7" d="M386.8,392.8l0.7,0.6l-2.5,3.1l0.3-1c0.2-1,0.7-1.8,1.4-2.5L386.8,392.8z"/>
<path class="st7" d="M388.7,394l1.2,0.7l-3.7,3C386.2,397.7,386.8,394.7,388.7,394z"/>
<path class="st30" d="M436.6,262.5c-1,2.9-4.3,6.3-4.3,6.3l-3.6-3c-3.8-3.4-9.4-8.7-11-11.8c-0.2-0.5-0.4-1-0.4-1.5
	c0,0,5.6-9.5,12.5-6.1c0,0,2.2,0,4.1,4.6S437.6,259.6,436.6,262.5z"/>
<path class="st31" d="M365.5,316.3c0,0-3-2.5-3.4,2.7s-3,8.5-1.5,14.6s2.9,10,6.1,12.9s11.2,5.7,11.2,5.7l7.3,4.3l26.1-1.9
	c0,0,3.5-8.8,4.7-10.7c1.9-4.1,3.4-8.3,4.4-12.7c0.5-3-3.4-20.5-3.4-20.5L365.5,316.3z"/>
<path class="st32" d="M429.3,265.2l-0.6,0.6c-3.8-3.4-9.4-8.7-11-11.8c1.8-1.2,3.7-2.1,5.8-2.7c3.7-1.1,7.5,2.7,8.2,6.2
	S430.8,263,429.3,265.2z"/>
<path class="st30" d="M431,297.4c-3.9,9.7-10.7,15.8-18.8,23.2c-1.7,1.5-3.5,2.9-5.3,4.2l-1.3,0.9c-2.5,1.9-5.3,3.3-8.3,4.4
	c-4.2,1.2-8.7,1.2-12.9,0c-2.5-1-4.9-2.2-7.2-3.7c-13.7-8.8-20.1-17.1-20.1-17.1c-3-3.7-5.6-7.8-7.6-12.1c-1.7-3.6-2.8-7.4-3.2-11.3
	v-2.8c0-1.6,0.1-3.3,0.3-4.9c0.3-3,1-5.9,2.1-8.7l0.8-1.7c0.6-1.3,1.3-2.5,2.1-3.7l2,3c1.6,2.3,3.3,4.4,5.2,6.4
	c2.6,2.7,10.6,5.8,14.4,6.3s10.7,4,14.8,7.1c1.3,1,3.1,0.9,4.2-0.3c0.5-0.5,1-1.1,1.6-1.5l0.9-0.9c2.3-2.6,9.6-10.2,20.4-12
	c1.9-0.2,3.6-1,5.1-2.1c1.4-2,2.7-4.1,3.6-6.4c0.1-0.2,0.2-0.4,0.2-0.6c0.4-0.9,0.6-1.7,0.9-2.4s0.3-1.1,0.4-1.6
	c5,4.6,8.1,11,8.6,17.8C434.5,283.9,433.6,290.9,431,297.4z"/>
<path class="st33" d="M390.5,319.6c0.3,2.3,0.4,4.7,0.5,7.1h-0.1c-0.5,0.8-1.3,1.2-2.2,1.2c-0.8,0-1.5,0-2.3-0.2
	c-1.4-0.5-2.8-1.2-4-2l2.1,0.7l2.1,0.5h2l0.9-0.3c0.2-0.1,0.5-0.3,0.5-0.4v0.2C390,324.1,390.1,321.8,390.5,319.6z"/>
<path class="st33" d="M390.5,319.6c0.3,2.3,0.4,4.7,0.5,7.1v-0.2l0.6,0.4l0.9,0.3h2l2.1-0.5l2-0.7c-1.2,0.8-2.5,1.5-3.9,2
	c-0.8,0.2-1.5,0.2-2.3,0.2c-0.9,0-1.8-0.5-2.3-1.2l0,0C390,324.5,390.1,322,390.5,319.6z"/>
<path class="st34" d="M378.2,316.4c0.1-1.1,0.5-2.2,1.3-3.1c1.2-1.7,2.7-3,4.5-3.9c1.9-1,4-0.7,6-1c4.1-0.7,8.2,1.5,10.6,4.6
	c0.8,1.1,1.3,2.4,1.4,3.7c0.1,1.5-0.8,2.1-2,2.9c-2.1,1.4-4.4,2.3-6.9,2.8c-3.9,0.5-8.2,0.9-11.8-1.2l-0.7-0.5c-1.2-0.8-2-2-2.4-3.3
	C378.1,317.1,378.1,316.7,378.2,316.4z"/>
<path class="st30" d="M363.9,253.2c0-0.4-1-1.4-1.2-1.7c-1-1.3-2.1-2.4-3.4-3.4c-1.4-1.1-3.1-1.8-4.9-2c-2.2-0.1-4.3,0.8-5.8,2.4
	c-1.6,1.6-2.1,3.2-3,6.2s-1.4,4.5-1.2,6.6s0.5,6.2,4.6,8.3c0.5,0.2,10-2.2,10.5-2.7s4.1-7.8,4.1-7.8L363.9,253.2z"/>
<path class="st32" d="M350.5,264.7c0,0-3.4-6.4,0-10s10,1,10,1l1,5.6c0,0-4.1,4.5-4.5,4.4l-5.3,0.2L350.5,264.7z"/>
<path class="st35" d="M394.5,321.2c-4.3,1.1-10.4,1.8-13.8-1.8c-0.6-0.7-1.2-1.5-1.5-2.4v-0.2c-0.1-0.2-0.4-0.9-0.3-1.1
	c1.4-3.7,5.8-5.4,5.8-5.4c3.9-1.4,8.2-1.6,11.8,0.6c1.6,1,2.9,2.4,3.9,4l0.3,0.5c0.1,0.3,0.2,0.5,0.2,0.8
	C401.3,318.9,396.4,320.7,394.5,321.2z"/>
<path class="st36" d="M400.6,315.4c-2.6-3.5-7-5.2-11.3-4.4c0,0-4.7,0-9.3,5.2l-0.8,0.8v-0.2c-0.1-0.2-0.4-0.9-0.3-1.1
	c1.4-3.7,5.8-5.4,5.8-5.4c3.9-1.4,8.2-1.6,11.8,0.6c1.6,1,2.9,2.4,3.9,4L400.6,315.4z"/>
<path class="st37" d="M425.3,259.1c-1,3.9-2.7,7.7-5.1,11c-1.5,1.1-3.2,1.9-5.1,2.1c-10.8,1.8-18.1,9.4-20.4,12l-0.9,0.9l-1.4,1.2
	c-1.2,1.3-3.2,1.5-4.6,0.4c-4.2-3.1-10.8-6.4-14.6-6.9s-11.8-3.6-14.4-6.3c-1.9-2-3.6-4.1-5.2-6.4l-2-3l0,0l2.1-2.8l0.5-0.5
	c0-0.1,0.1-0.2,0.2-0.3l0.3-0.3l0.4-0.5l0.3-0.3l0.8-0.7l0.3-0.4h0.1l0.5-0.5l0.5-0.4l0,0l1.4-1.2l0.4-0.3h0.1l0.4-0.3l1.5-1.1
	l0.3-0.2l1.9-1.1l0.3-0.2l0.8-0.4l0.6-0.4l0.5-0.2h0.1l0.4-0.2l1.1-0.5l0.5-0.2h0.1l0.4-0.2l0.6-0.2l1.1-0.5l0.5-0.2l1.1-0.4
	l0.5-0.2h0.3l0.7-0.2l0.7-0.2c13.6-3.5,28.1-2.3,41,3.2C418.7,253.9,422.2,256.2,425.3,259.1z"/>
<path class="st37" d="M425.3,259.1c-1,3.9-2.7,7.7-5.1,11c-1.5,1.1-3.2,1.9-5.1,2.1c-10.8,1.8-18.1,9.4-20.4,12l-0.8,1h-0.1
	c-0.8-0.9-1.8-1.7-2.8-2.4c-4.2-3-10.4-6.1-14.2-6.6s-11.7-3.5-14.4-6.3c-2.7-2.9-5.1-6-7.1-9.4c0.6-1,1.3-1.9,2.1-2.8
	c0-0.1,0.1-0.1,0.2-0.2c4.8-4,10.3-7,16.3-8.8c6.6-1.8,13.5-2.4,20.4-1.8c7.1,0.5,14.1,2.1,20.6,5
	C418.8,253.7,422.3,256.1,425.3,259.1z"/>
<path class="st32" d="M420.7,258.7c-1,3.9-2.8,7.6-5.1,10.9c-1.5,1.1-3.3,1.8-5.1,2.2c-9.6,1.6-16.5,7.7-19.5,10.9
	c-4.2-3-10.4-6.1-14.2-6.6s-11.7-3.5-14.4-6.3c-2.7-2.9-5.1-6-7.1-9.4c0.6-1,1.3-1.9,2.1-2.8c0-0.1,0.1-0.1,0.2-0.2
	c4.8-4,10.3-7,16.3-8.8c6.6-1.8,13.5-2.4,20.4-1.8c5.5,0.7,10.8,2.2,15.9,4.5C414.1,253.1,417.7,255.6,420.7,258.7z"/>
<circle class="st38" cx="375.8" cy="299.6" r="4.6"/>
<path class="st39" d="M379.3,299.3c0,0.5-0.1,1-0.4,1.5c-0.5,1.2-1.8,2-3.1,1.9c-1.6,0-2.9-1.1-3.3-2.6c0-0.3-0.1-0.5-0.1-0.8
	c0.3-1.9,2.1-3.2,4-2.9C377.9,296.7,379,297.8,379.3,299.3z"/>
<circle class="st40" cx="374.9" cy="298.8" r="1.2"/>
<path class="st41" d="M378.9,300.8c-0.5,1.2-1.8,2-3.1,1.9c-1.6,0-2.9-1.1-3.3-2.6c0.2-0.1,0.3-0.1,0.4,0c1.5,1.7,4,2,5.8,0.5
	c0,0,0.1-0.1,0.1-0.1C378.8,300.6,378.9,300.7,378.9,300.8z"/>
<path class="st42" d="M435.4,373.7l-3.9,4.1l-15.2,15.7l-31.7-1.5l-30.7,1.3l-1.5-1c-3.8-1.2-7.3-3.2-10.2-5.9
	c-4.1-3.7-6.4-8.9-6.4-14.4c-0.2-15.8,15.9-21.9,15.9-21.9s52-5.1,68.6,1.3S435.4,373.7,435.4,373.7z"/>
<circle class="st38" cx="404.9" cy="299.1" r="4.6"/>
<path class="st39" d="M408.3,298.8c0,0.5-0.1,1.1-0.4,1.5c-0.5,1.2-1.7,2-3,2c-1.6,0-3-1.1-3.3-2.7c-0.1-0.3-0.1-0.5-0.1-0.8
	c0-1.9,1.5-3.4,3.4-3.4C406.8,295.4,408.3,296.9,408.3,298.8z"/>
<path class="st43" d="M431.5,377.8l-15.2,15.7l-31.7-1.5l-30.7,1.3l-1.5-1c-3.8-1.2-7.3-3.2-10.2-5.9l1-14.4c0,0,1.9-9,10.2-7.5
	c0,0-1.7-6.4,12-5.6s45.8-1.5,45.8-1.5s5.6,0.5,8.1,7.1c0,0,9.2-2.5,10.7,7C430.3,373.6,430.8,375.7,431.5,377.8z"/>
<circle class="st40" cx="403.9" cy="298.4" r="1.2"/>
<path class="st30" d="M425.5,350c-3.5,4.6-9,7.3-13.9,10.2c-0.5,0.4-1.1,0.7-1.7,1c-4.1,2.2-8.6,4.1-12.1,6.9s-6.3,2.2-7.3,0
	s1.3-2.8,3.1-4.1c-1.6,1-3.3,1.8-3.8,1.7c-1.5-0.1-2.6-1.4-2.5-2.9c0,0,0,0,0,0c0.2-1.2,1.4-2.3,2.9-3.3l-1.4,0.3
	c-1.1,0.2-2.3-0.3-2.9-1.2c-0.3-0.9-0.1-1.8,0.5-2.5c0.7-0.6,1.4-1.1,2.2-1.4c3.3-1.8,6.6-3.6,9.8-5.5l6.6-4.1
	c6.1-3.9,9.1-11.1,10.3-18c0.4-2.6,0.5-5.2,0.5-7.8c-0.2-1-0.3-2.1-0.3-3.1l10.1-9.8c-0.3,0.3,1.4,5.3,1.5,6
	C429.9,324.2,433.4,339.4,425.5,350z"/>
<path class="st30" d="M394.1,358.1c-0.7,1-1.8,1.4-3,1.2c-0.4,0-0.9-0.1-1.3-0.3c1.4,1,2.7,2.2,2.9,3.3c0.1,1.5-1,2.7-2.5,2.9
	c-0.6,0.1-2.2-0.7-3.8-1.6c1.8,1.2,3.6,2.9,3.1,4s-2,1.7-3.6,1.6c-1.4-0.2-2.6-0.7-3.7-1.6c-3.8-3-8.7-5-13-7.4l-0.9-0.5
	c-4.8-2.9-10.3-5.6-13.8-10.2c-7.9-10.6-4.4-25.8-1.7-37.6c0.2-0.6,1.9-6.1,1.6-6.5l5.2,5.3c2.4,2.6,4.9,5,4.9,5.1s-0.3,2.7-0.3,3
	c-0.1,2.6,0.1,5.2,0.5,7.8c1.1,6.9,4.1,14.1,10.3,18l5.2,3.3c3.7,2.2,7.4,4.3,11.2,6.3c0.8,0.3,1.5,0.8,2.1,1.5
	C394.1,356.3,394.4,357.3,394.1,358.1z"/>
<path class="st41" d="M407.9,300.3c-0.5,1.2-1.7,2-3,2c-1.6,0-3-1.1-3.3-2.7c0.1,0,0.2-0.1,0.4,0c1.4,1.7,3.9,2,5.6,0.7
	c0.1,0,0.1-0.1,0.2-0.2C407.9,300.2,407.9,300.2,407.9,300.3z"/>
<path class="st44" d="M354.6,304c-2-2.2-3.7-4.6-5.1-7.3c-1.7-3.9-2.8-8-3.2-12.2v-1.4c0-1.6,0.1-3.3,0.3-4.9c0.3-3,1-5.9,2.1-8.7
	l0.8-1.7c0.6-1.3,1.3-2.5,2.1-3.7l2,3C352,272.4,347.7,289.6,354.6,304z"/>
<path class="st45" d="M409.9,361.2c-4.1,2.2-8.6,4.1-12.1,6.9s-6.3,2.2-7.3,0s1.3-2.8,3.1-4.1c-1.6,1-3.3,1.8-3.8,1.7
	c-1.5-0.1-2.6-1.4-2.5-2.9c0,0,0,0,0,0c0.2-1.2,1.4-2.3,2.9-3.3l-1.4,0.3c-1.1,0.2-2.3-0.3-2.9-1.2c-0.3-0.9-0.1-1.8,0.5-2.5
	c0.7-0.6,1.4-1.1,2.2-1.4c3.3-1.8,6.6-3.6,9.8-5.5C401.7,350.5,406.1,353.6,409.9,361.2z"/>
<path class="st44" d="M431,297.4c-3.9,9.7-10.7,15.8-18.8,23.2c-1.7,1.5-3.5,2.9-5.3,4.2c0.4-1.1,2-2.8,5.1-5.2
	c21.8-17.7,12.7-52.6,11.8-55.9c-0.1-0.1-0.1-0.2-0.1-0.3l0.3-0.3c0.5-0.7,0.8-1.5,0.9-2.4c0.1-0.6,0.3-1.1,0.4-1.6
	c5,4.6,8.1,11,8.6,17.8C434.5,283.9,433.6,290.9,431,297.4z"/>
<path class="st44" d="M394.1,358.1c-0.7,1-1.8,1.4-3,1.2c-0.4,0-0.9-0.1-1.3-0.3c1.4,1,2.7,2.2,2.9,3.3c0.1,1.5-1,2.7-2.5,2.9
	c-0.6,0.1-2.2-0.7-3.8-1.6c1.8,1.2,3.6,2.9,3.1,4s-2,1.7-3.6,1.6h-1.1l-1.4-0.5l-0.4-0.3l-0.4-0.2c-0.2-0.1-0.3-0.2-0.4-0.4
	c-3.8-3-8.7-5-13-7.4c0.2-1.7,0.7-3.3,1.3-4.9c1.7-4,5.4-6.8,9.7-7.4c3.7,2.2,7.4,4.3,11.2,6.3c0.8,0.3,1.5,0.8,2.1,1.5
	C394.1,356.5,394.3,357.3,394.1,358.1z"/>
<path class="st46" d="M358.7,393.4c0,0-6.6,10.4-22.6-0.5c-0.9-0.9-1.8-1.9-2.6-2.9c-1.6-1.8-2.8-4-3.4-6.4
	c-0.1-0.5-0.4-3.1,0.6-3.1h0.4l2.8,1.3c0.8,0.3,1.7,1.1,2.6,1.1c-0.7-0.8-1.5-1.3-2.2-2s-3.2-2.2-2-4.3c0.5-0.8,1.2-1.4,2.1-1.7
	c0.8-0.3,1.4,0.5,2,1l2.3,2c-0.5-0.8-1-1.6-1.4-2.4s-0.9-1-0.8-1.5c0-0.2,0-0.3,0.1-0.5c0.2-0.2,0.5-0.3,0.8-0.4
	c2.3-1.1,4.9-1.3,7.3-0.6h0.2c3.1,0.9,5.9,2.4,8.4,4.4C353.3,376.9,363.5,385.2,358.7,393.4z"/>
<ellipse transform="matrix(0.5 -0.866 0.866 0.5 -161.3487 495.4689)" class="st47" cx="348.4" cy="387.5" rx="4.3" ry="6.2"/>
<ellipse transform="matrix(0.5 -0.866 0.866 0.5 -161.5987 495.4091)" class="st48" cx="348.2" cy="387.7" rx="3.2" ry="4.6"/>
<path class="st46" d="M444.3,384.4c-0.5,1.8-1.3,3.6-2.4,5.1c-1,1.4-2.1,2.6-3.3,3.8c-15.4,10.5-21.7,0.5-21.7,0.5
	c-4.6-7.9,5.1-15.7,5.1-15.7c2.2-1.7,4.7-3.1,7.4-4l0.8-0.2c1.4-0.4,2.9-0.6,4.4-0.4c0.9,0.2,1.9,0.5,2.7,0.9l0.8,0.4
	c0.1,0.1,0.1,0.3,0.1,0.4c0.1,0.5-0.5,1.1-0.7,1.5c-0.5,0.7-1,1.5-1.4,2.3l2.2-2c0.6-0.5,1.1-1.1,2-0.9c0.8,0.3,1.4,0.9,1.9,1.6
	c1.2,2.1-0.5,3.1-1.8,4.2l-2.2,1.9c0.9,0,1.7-0.8,2.5-1.1l2.7-1.2h0.4C444.7,381.4,444.4,383.9,444.3,384.4z"/>
<ellipse transform="matrix(0.866 -0.5 0.5 0.866 -136.896 265.365)" class="st47" cx="426.7" cy="388.1" rx="6" ry="4.1"/>
<ellipse transform="matrix(0.866 -0.5 0.5 0.866 -136.9326 265.4748)" class="st48" cx="426.9" cy="388.3" rx="4.4" ry="3.1"/>
<path class="st49" d="M344.7,372.6c-0.5,4.9-3,11.5-11.2,17.4c-1.6-1.8-2.8-4-3.4-6.4c-0.1-0.5-0.4-3.1,0.6-3.1h0.4l2.8,1.3
	c0.8,0.3,1.7,1.1,2.6,1.1c-0.7-0.8-1.5-1.3-2.2-2s-3.2-2.2-2-4.3c0.5-0.8,1.2-1.4,2.1-1.7c0.8-0.3,1.4,0.5,2,1l2.3,2
	c-0.5-0.8-1-1.6-1.4-2.4s-0.9-1-0.8-1.5c0-0.2,0-0.3,0.1-0.5c0.2-0.2,0.5-0.3,0.8-0.4c2.3-1.1,4.9-1.3,7.3-0.6L344.7,372.6z"/>
<path class="st45" d="M444.3,384.4c-0.5,1.8-1.3,3.6-2.4,5.1c-10.4-1.5-12.3-10.3-12.5-15.4l0.8-0.2c1.4-0.4,2.9-0.6,4.4-0.4
	c0.9,0.2,1.9,0.5,2.7,0.9l0.8,0.4c0.1,0.1,0.1,0.3,0.1,0.4c0.1,0.5-0.5,1.1-0.7,1.5c-0.5,0.7-1,1.5-1.4,2.3l2.2-2
	c0.6-0.5,1.1-1.1,2-0.9c0.8,0.3,1.4,0.9,1.9,1.6c1.2,2.1-0.5,3.1-1.8,4.2l-2.2,1.9c0.9,0,1.7-0.8,2.5-1.1l2.7-1.2h0.4
	C444.7,381.4,444.4,383.9,444.3,384.4z"/>
<path class="st33" d="M398.4,324.2c0,0.3,0,0.6,0.1,0.9c0,0.3,0.1,0.6,0.3,0.9c0.3,0.5,0.9,0.9,1.5,0.9h-1c-0.3-0.2-0.6-0.4-0.8-0.7
	C398.2,325.6,398.2,324.9,398.4,324.2z"/>
<path class="st33" d="M382.4,324.2c0.2,0.6,0.2,1.3-0.2,1.9c-0.2,0.3-0.5,0.5-0.8,0.6c-0.3,0.2-0.7,0.2-1,0.1c0.6,0,1.2-0.3,1.6-0.8
	c0.2-0.3,0.3-0.6,0.3-0.9C382.4,324.8,382.4,324.5,382.4,324.2z"/>
<path class="st50" d="M370.5,355.3c-0.6,1.6-1.1,3.2-1.3,4.9l-0.9-0.5c-4.8-2.9-10.3-5.6-13.8-10.2c-7.9-10.6-4.4-25.8-1.7-37.6
	c0.2-0.6,1.9-6.1,1.6-6.5l5.2,5.3C355,318.2,347.8,336.4,370.5,355.3z"/>
<path class="st51" d="M337.8,348.8h99.7c1.5,0,2.8,1.2,2.8,2.8c0,0.1,0,0.3,0,0.4l-5.8,43.3c-0.2,1.7-1.7,3-3.4,3h-87.4
	c-1.8,0-3.2-1.3-3.4-3.1l-5.2-43.3c-0.2-1.5,0.9-2.9,2.5-3.1C337.7,348.8,337.7,348.8,337.8,348.8z"/>
<path class="st36" d="M377.5,366.9c0.8-0.2,1.6-0.2,2.4,0c0.8,0.2,1.5,0.6,2.2,1c0.7,0.5,1.3,1.1,1.8,1.7c0.2,0.2,0.3,0.4,0.4,0.6
	c1.3-0.2,2.7,0.2,3.6,1.2c0.5,0.4,1,0.8,1.3,1.4v0.2c0.1,0.1,0.2,0.3,0.2,0.5c0,0.1,0,0.3-0.1,0.4l-0.4,0.7l-0.2,0.2l-0.3-0.2
	c-0.1-0.3-0.2-0.6-0.4-0.9c-0.3-0.5-0.7-0.9-1.1-1.2c-0.6-0.5-1.3-0.8-2.1-0.7c-0.3,0-0.7,0.1-1,0.3l0,0c-0.2-0.3-0.4-0.6-0.5-0.9
	c-0.4-0.6-0.9-1.2-1.5-1.6c-0.6-0.6-1.4-1-2.3-1.1c-0.8-0.2-1.7-0.1-2.5,0.3c-1.2,0.6-2,1.8-2.2,3.2c-0.4,0-0.7,0-1.1,0h-0.4
	c0.1-1.3,0.6-2.6,1.4-3.6C375.4,367.6,376.4,367.1,377.5,366.9z"/>
<path class="st36" d="M381.2,375.2c0.2-0.2,0.6-0.4,0.9-0.4c0.3-0.1,0.7,0,0.9,0.2c0.2,0.1,0.3,0.4,0.4,0.6c0.1,0.4,0.2,0.7,0.3,1.1
	c0.1,0.4,0.1,0.9,0.2,1.3l0.6-2.5c0.1-0.2,0.1-0.4,0.2-0.5c0.1-0.1,0.2-0.2,0.4-0.2l0.4,0.2c0.1,0.1,0.2,0.3,0.2,0.4l0.3,2.7
	c0.4-0.9,0.6-1.8,1-2.6c0-0.2,0.1-0.4,0.2-0.5h1.2c0.1,0.1,0.2,0.1,0.2,0.2v0.5h-0.8l-1.4,3.8c0,0.2-0.1,0.4-0.3,0.4h-0.5
	c-0.1-0.2-0.2-0.4-0.2-0.6l-0.3-2.5l0,0c-0.3,0.9-0.5,1.8-0.7,2.7c-0.1,0.2-0.2,0.4-0.3,0.4h-0.5c-0.1-0.1-0.2-0.3-0.2-0.5
	c-0.2-0.9-0.4-1.7-0.5-2.6c0-0.2-0.1-0.5-0.2-0.7c0-0.1-0.1-0.2-0.2-0.3H382c-0.2,0.1-0.3,0.3-0.3,0.5c-0.1,0.2,0,0.4,0.1,0.6
	c0.1,0.2,0.3,0.2,0.4,0.3h0.3c0.1,0,0.3,0,0.3,0.2c0.1,0.1,0.1,0.3,0.1,0.4l-0.4,0.3h-0.6c-0.4-0.1-0.7-0.4-0.9-0.8
	c-0.1-0.3-0.2-0.7-0.2-1C380.8,375.9,381,375.5,381.2,375.2z"/>
<path class="st36" d="M398.1,374.9h0.4c0.1,0,0.1,0.1,0.2,0.3c0,0.1,0,0.2-0.1,0.3l-0.3,1.5h1c0.1-0.6,0.3-1.2,0.4-1.8
	s0.1-0.3,0.3-0.4h0.3c0.1,0,0.2,0.1,0.2,0.3v0.3l-0.3,1.6h0.7c0.1,0.2,0,0.4-0.1,0.6H400c0,0.3-0.1,0.7-0.2,1h1
	c0,0.1,0.1,0.3,0.1,0.4c0,0.2-0.1,0.3-0.3,0.3h-1.2c-0.2-0.1-0.3-0.2-0.4-0.4c-0.1-0.2-0.1-0.3,0-0.5c0-0.3,0.1-0.6,0.2-0.9h-1
	l-0.3,1.2c-0.1,0.4-0.1,0.8-0.2,1.1c-0.2,0.4-0.4,0.7-0.7,0.9c-0.3,0.3-0.7,0.3-1.1,0.2c-0.4,0-0.7-0.2-0.9-0.5
	c-0.3-0.3-0.5-0.7-0.6-1.2h-0.9c-0.2,0-0.4-0.1-0.4-0.3c-0.1-0.2-0.1-0.3-0.1-0.5c0.3-1.2,0.5-2.5,0.8-3.7c0-0.1,0.1-0.3,0.2-0.4
	h0.4c0.1,0,0.1,0.1,0.1,0.2s0,0.3,0,0.5s-0.4,2.2-0.7,3.3h0.6c0.1-0.4,0.2-0.7,0.5-1c0.3-0.5,0.9-0.8,1.5-0.9h1.1l0.3-1.8
	c0.1-0.2,0.2-0.4,0.3-0.4L398.1,374.9z M396.6,378l-0.9,0.4c-0.2,0.2-0.3,0.5-0.4,0.8c-0.1,0.3,0,0.6,0.1,0.8
	c0.1,0.2,0.2,0.4,0.4,0.4h0.4c0.2,0,0.4-0.2,0.5-0.4c0.2-0.2,0.2-0.5,0.3-0.8l0.3-1.3L396.6,378z"/>
<path class="st36" d="M392.2,375h0.4c0.1,0,0.2,0.1,0.2,0.3s0,0.2,0,0.3s-0.4,2.3-0.7,3.5h0.7c0.1,0.1,0.1,0.2,0.1,0.3
	c0,0.1-0.1,0.2-0.2,0.3s-0.1,0.1-0.2,0.1h-0.7l-0.4-0.2c-0.1-0.1-0.1-0.3-0.1-0.4c0-0.2,0-0.3,0.1-0.5l0.6-3.3
	C392.1,375.3,392.1,375.1,392.2,375L392.2,375z"/>
<path class="st36" d="M407,376.2h0.3c0.1,0,0.2,0.1,0.2,0.3s-0.1,0.4-0.1,0.6h0.4c0.1,0.1,0.1,0.2,0.1,0.3c0.1,0.2,0,0.3-0.1,0.4
	s-0.4,0-0.5,0L407,379h0.4l0.3,0.2c0.1,0.1,0.1,0.2,0.1,0.3c0,0.2-0.2,0.3-0.4,0.3h-0.7l-0.4-0.2c-0.1-0.2-0.1-0.3-0.1-0.5l0.3-1.3
	h-0.4c-0.1-0.1-0.1-0.2-0.1-0.3c0-0.2,0.1-0.3,0.3-0.3h0.3c0.1-0.2,0.1-0.4,0.1-0.6L407,376.2L407,376.2z"/>
<path class="st36" d="M404.4,377c0-0.2,0.1-0.3,0.3-0.3c0.1-0.1,0.2,0,0.3,0.2s0,0.2,0,0.3l0.2,0.5l0.3,0.4l0.4,0.6
	c0,0.2,0,0.5-0.1,0.7c-0.1,0.3-0.4,0.5-0.7,0.5H404c-0.1-0.1-0.1-0.3-0.1-0.4c0-0.2,0.2-0.3,0.4-0.3h0.6c0.1,0,0.2-0.1,0.2-0.2v0
	c0.1-0.1,0-0.3-0.1-0.4s-0.1-0.2-0.2-0.4c0,0.2-0.1,0.4-0.2,0.5c-0.1,0.1-0.3,0.1-0.4,0c0,0-0.1-0.1-0.1-0.2c-0.1-0.1,0-0.3,0-0.4
	l0.3-1L404.4,377z"/>
<path class="st36" d="M388.5,377.5c0.1-0.3,0.4-0.5,0.7-0.5c0.2-0.1,0.4,0,0.6,0.1l0.2,0.2c0-0.2,0.2-0.3,0.4-0.3l0.3,0.2v0.4
	l-0.3,1.4h0.7c0.1,0.1,0.2,0.3,0.1,0.4s-0.1,0.2-0.3,0.2h-0.8c-0.1-0.1-0.1-0.1-0.1-0.2c-0.1,0.2-0.3,0.3-0.5,0.3h-0.6
	c-0.3-0.1-0.5-0.4-0.6-0.7C388.2,378.5,388.2,378,388.5,377.5L388.5,377.5z M389.4,377.7l-0.3,0.3c-0.1,0.2-0.1,0.5-0.1,0.7l0.2,0.3
	h0.3l0.2-0.2c0-0.3,0.1-0.5,0.1-0.7v-0.3L389.4,377.7z"/>
<path class="st36" d="M402.2,377.1h0.6c0.3,0.2,0.6,0.5,0.8,0.9c0.1,0.4,0,0.9-0.1,1.3l-0.5,0.5h-1.2c-0.2-0.2-0.4-0.4-0.5-0.7
	c-0.1-0.4-0.1-0.7,0-1.1C401.4,377.6,401.8,377.2,402.2,377.1z M402.4,377.9h-0.3c-0.1,0.2-0.2,0.4-0.1,0.6c0,0.1,0,0.3,0.1,0.4h0.7
	c0.1-0.2,0.1-0.4,0.1-0.6c0-0.2-0.1-0.4-0.2-0.5L402.4,377.9z"/>
<path class="st36" d="M382.2,380.4h8.9c0.4,0,0.8,0.4,0.8,0.8c0.1,0.4-0.1,0.8-0.5,0.8h-9.1c0.1-0.3,0.2-0.7,0.1-1
	c0-0.2-0.1-0.5-0.2-0.7L382.2,380.4z"/>
<path class="st36" d="M372.5,372.5h7.4c0.3,0,0.5,0.1,0.7,0.3c0.2,0.3,0.2,0.7,0.1,1c-0.1,0.2-0.3,0.3-0.5,0.3h-7.7
	c-0.5,0-0.9,0.2-1.3,0.5c-0.5,0.4-0.8,1-0.8,1.6c-0.1,0.5,0,1.1,0.2,1.6c0.2,0.5,0.4,0.9,0.8,1.2c0.5,0.6,1.2,1,1.9,1.1h8l0.4,0.2
	c0.2,0.2,0.3,0.4,0.3,0.7c0.1,0.3,0,0.5-0.3,0.7c-0.1,0-0.2,0-0.2,0h-7.7l-1.3-0.2c-1.9-0.8-3.2-2.5-3.5-4.5l0,0
	c-0.1-0.7-0.1-1.3,0.1-2c0.1-0.7,0.5-1.3,1-1.7c0.5-0.5,1.2-0.8,1.9-0.9L372.5,372.5z"/>
<path class="st36" d="M377.2,375.6h2.6l0.3,0.3c0,0.1-0.1,0.3-0.2,0.3h-7.3c-0.1-0.1-0.2-0.3-0.1-0.4c0,0,0.1-0.1,0.1-0.1
	L377.2,375.6L377.2,375.6z"/>
<path class="st36" d="M377.5,377h2.7c0.1,0.1,0.1,0.2,0.1,0.4H373c-0.1-0.1-0.2-0.2-0.3-0.3c0-0.1,0-0.3,0.2-0.3h4.6L377.5,377z"/>
<path class="st36" d="M377.9,378.4h2.3c0.2,0,0.3,0.1,0.3,0.3c0,0.1-0.1,0.2-0.2,0.2h0c-0.4,0-0.7,0-1.1,0h-0.8c-0.3,0-0.7,0-1,0
	c-0.3,0-0.5-0.1-0.7,0h-3.5l-0.3-0.3c0-0.1,0-0.2,0.1-0.3L377.9,378.4L377.9,378.4z"/>
<path class="st52" d="M348.9,399.7v1.8c0,1.6-2.5,3-5.8,3.1v-8C346.3,396.8,348.9,398.1,348.9,399.7z"/>
<path class="st53" d="M339.2,397v7.3l-1.7-0.6v-6.1L339.2,397z"/>
<path class="st54" d="M335.8,401.5v-1.7c0-0.9,0.7-1.6,1.8-2.2v6.1C336.5,403.1,335.8,402.4,335.8,401.5z"/>
<path class="st54" d="M343.1,396.6v8h-0.7c-1,0-2.1-0.1-3.1-0.4V397c1-0.2,2.1-0.4,3.1-0.4H343.1z"/>
<ellipse class="st55" cx="341.5" cy="400.5" rx="6.5" ry="3.2"/>
<ellipse class="st56" cx="341.5" cy="400.5" rx="6.5" ry="3.2"/>
<ellipse transform="matrix(1 -1.745326e-03 1.745326e-03 1 -0.6972 0.5977)" class="st57" cx="342.1" cy="399.8" rx="4.7" ry="2.3"/>
<ellipse transform="matrix(1 -1.745326e-03 1.745326e-03 1 -0.6979 0.5977)" class="st58" cx="342.1" cy="400.2" rx="4.7" ry="2.3"/>
<ellipse transform="matrix(1 -1.745326e-03 1.745326e-03 1 -0.6976 0.5977)" class="st59" cx="342.1" cy="400" rx="4.7" ry="2.3"/>
<path class="st57" d="M344.6,398.7h0.2v-0.2l0,0v-0.2h-5v0.4h0.1v0.2l0,0c-0.1,0-0.1,0-0.1,0.1l0,0v0.3l0,0v0.2h0.1
	c-0.1,0-0.2,0-0.2,0.1v0.7h0.2l0.4,0.2l1.4,1.1h1.4c0.2-0.1,0.2-0.1,0.2-0.2h-0.1c0-0.1,0-0.1-0.1-0.1l-1.6-1.2h0.1l1.1-0.4l0.3-0.3
	h1.6v-0.3l0,0v-0.2H343l-0.2-0.2h1.7H344.6z"/>
<path class="st60" d="M343.3,401.9L343.3,401.9z"/>
<path class="st61" d="M339.8,398.6L339.8,398.6v0.2h1v-0.3L339.8,398.6z"/>
<path class="st61" d="M342.6,398.4l0.4,0.3h1.8l-0.2-0.2L342.6,398.4z"/>
<path class="st61" d="M343.1,399.4v0.2h1.6l-0.2-0.2H343.1z"/>
<path class="st61" d="M341.3,399.6l0.3-0.2h-1.8v0.2h1.4H341.3z"/>
<path class="st61" d="M341.9,401.8h1.5c0.1,0,0.1,0,0.1-0.1h-1.6V401.8z"/>
<path class="st56" d="M342.8,398.4h1.9v-0.3h-5v0.3h1.5l0.3,0.2h-1.6c-0.1,0-0.1,0-0.1,0.1l0,0v0.3h1.6c0,0.1-0.1,0.1-0.2,0.1
	l-1.1,0.2H340c-0.1,0-0.2,0-0.2,0.1v0.5h0.1l0.5,0.2l1.4,1.1h1.4c0.1,0,0.2,0,0.1-0.1l-1.7-1.3c-0.1,0-0.1-0.1,0.1-0.1l1.1-0.4
	c0.1-0.1,0.2-0.2,0.2-0.3h1.7v-0.2h-1.6C343.1,398.6,343,398.5,342.8,398.4C342.6,398.1,342.8,398.4,342.8,398.4z"/>
<path class="st62" d="M345.7,397l-9.1,4.2c0.7,0.6,1.6,1.1,2.6,1.3l9-4.1C347.5,397.7,346.6,397.2,345.7,397z"/>
<path class="st52" d="M352.1,397.1v1.7c0,1.7-2.5,3-5.8,3.2v-8C349.5,394.1,352.1,395.5,352.1,397.1z"/>
<path class="st53" d="M342.4,394.3v7.3c-0.6-0.1-1.1-0.3-1.6-0.6v-6.1L342.4,394.3z"/>
<path class="st54" d="M339,398.9v-1.8c0-0.8,0.7-1.6,1.8-2.2v6.1C339.7,400.4,339,399.7,339,398.9z"/>
<path class="st54" d="M346.3,394v8h-0.7c-1.1,0-2.2-0.1-3.2-0.4v-7.3c1-0.2,2.1-0.4,3.1-0.4L346.3,394z"/>
<ellipse transform="matrix(1 -1.745326e-03 1.745326e-03 1 -0.6927 0.6036)" class="st55" cx="345.5" cy="397.2" rx="6.5" ry="3.2"/>
<ellipse transform="matrix(1 -1.745326e-03 1.745326e-03 1 -0.6927 0.6036)" class="st56" cx="345.5" cy="397.2" rx="6.5" ry="3.2"/>
<ellipse transform="matrix(1 -1.745326e-03 1.745326e-03 1 -0.6925 0.6033)" class="st57" cx="345.3" cy="397.1" rx="4.7" ry="2.3"/>
<ellipse transform="matrix(1 -1.745326e-03 1.745326e-03 1 -0.6932 0.6033)" class="st58" cx="345.3" cy="397.5" rx="4.7" ry="2.3"/>
<ellipse transform="matrix(1 -1.745326e-03 1.745326e-03 1 -0.6929 0.6033)" class="st59" cx="345.3" cy="397.3" rx="4.7" ry="2.3"/>
<path class="st57" d="M347.8,396c0.1,0,0.2,0,0.2-0.1v-0.2l0,0v-0.2h-5v0.4h0.2c-0.1,0-0.2,0-0.2,0.1v0.2h0.1v0.2
	c0,0.1,0,0.1,0.1,0.1l0,0l0,0c-0.2,0-0.3,0-0.3,0.1v0.5l0.2,0.2h0.2l0.4,0.2l1.4,1h1.4c0.2,0,0.2-0.1,0.2-0.2h-0.2l-1.6-1.2h0.1
	c0.4,0,0.8-0.1,1.1-0.4l0.3-0.2h1.6v-0.2h-0.1c0-0.1-0.1-0.1-0.2-0.1h-1.3c-0.1-0.1-0.1-0.1-0.1-0.2l-0.2-0.2h1.7V396z"/>
<path class="st60" d="M346.5,399.2L346.5,399.2z"/>
<path class="st61" d="M343,396h1.1l0,0H343z"/>
<path class="st61" d="M345.8,395.7l0.4,0.3h1.8l-0.2-0.2L345.8,395.7z"/>
<path class="st61" d="M346.2,396.7l0.2,0.3h1.6l-0.2-0.2L346.2,396.7z"/>
<path class="st61" d="M344.5,396.9l0.3-0.2H343v0.2c0,0.1,0,0.1,0.1,0.1l0,0h1.3L344.5,396.9z"/>
<path class="st61" d="M345.1,399.1h1.5c0.1-0.1,0.1-0.1,0.1-0.2h-1.6V399.1z"/>
<path class="st56" d="M346,395.8h1.9v-0.2c0-0.1-0.1-0.1-0.2-0.1h-4.8v0.3l0,0c0,0.1,0.1,0.1,0.2,0.1h1.3l0.3,0.2h-1.6
	c-0.1,0-0.2,0-0.2,0.1v0.2h0.3c-0.2,0-0.3,0-0.3,0.1v0.5h0.2l0.5,0.2l1.4,1.1c0,0.1,0,0.1,0.1,0.1h1.3c0.1,0,0.2-0.1,0.1-0.2
	l-1.8-1.3c0,0,0-0.1,0.2-0.1c0.4,0,0.8-0.1,1.1-0.4l0.2-0.2h1.7V396c0-0.1-0.1-0.1-0.2-0.1h-1.4c0-0.2-0.1-0.4-0.3-0.6L346,395.8z"
	/>
<path class="st62" d="M348.9,394.4l-9.1,4.2c0.7,0.6,1.6,1,2.5,1.3l9.1-4.2C350.7,395.1,349.8,394.6,348.9,394.4z"/>
<path class="st52" d="M351.3,394v1.8c0,1.6-2.5,2.9-5.8,3.1v-8C348.8,391.1,351.3,392.4,351.3,394z"/>
<path class="st53" d="M341.7,391.3v7.3L340,398v-6.1C340.5,391.6,341.1,391.4,341.7,391.3z"/>
<path class="st54" d="M338.3,395.8v-1.7c0-0.9,0.6-1.6,1.7-2.2v6.1C339.1,397.6,338.4,396.8,338.3,395.8z"/>
<path class="st54" d="M345.5,390.9v8h-0.7c-1,0-2.1-0.1-3.1-0.3v-7.3c1-0.3,2.1-0.4,3.1-0.4L345.5,390.9z"/>
<ellipse transform="matrix(1 -1.745326e-03 1.745326e-03 1 -0.6874 0.6022)" class="st55" cx="344.7" cy="394.2" rx="6.5" ry="3.2"/>
<ellipse transform="matrix(1 -1.745326e-03 1.745326e-03 1 -0.6874 0.6022)" class="st56" cx="344.7" cy="394.2" rx="6.5" ry="3.2"/>
<ellipse transform="matrix(1 -1.745326e-03 1.745326e-03 1 -0.6871 0.6018)" class="st57" cx="344.5" cy="394" rx="4.7" ry="2.3"/>
<ellipse transform="matrix(1 -1.745326e-03 1.745326e-03 1 -0.6878 0.6018)" class="st58" cx="344.5" cy="394.4" rx="4.7" ry="2.3"/>
<ellipse transform="matrix(1 -1.745326e-03 1.745326e-03 1 -0.6874 0.6018)" class="st59" cx="344.5" cy="394.2" rx="4.7" ry="2.3"/>
<path class="st57" d="M347.1,392.9h0.1v-0.3l0,0v-0.2h-4.7c-0.1,0-0.2,0-0.2,0.1v0.4l0,0v0.2h-0.1v0.2l0,0v0.7h0.2l0.4,0.2l1.4,1.1
	h1.4c0.2,0,0.3-0.1,0.2-0.1V395l0,0l-1.7-1.2h0.1c0.4-0.1,0.8-0.2,1.1-0.4l0.3-0.3h1.6L347.1,392.9L347.1,392.9l0.1-0.2h-1.5
	c0-0.1,0-0.1-0.1-0.1l0,0c0-0.1-0.1-0.2-0.1-0.3h1.7L347.1,392.9z"/>
<path class="st60" d="M345.7,396.1L345.7,396.1z"/>
<path class="st61" d="M342.2,392.9L342.2,392.9v0.2h1.1v-0.3L342.2,392.9z"/>
<path class="st61" d="M345.1,392.7l0.3,0.2h1.8l-0.2-0.2H345.1z"/>
<path class="st61" d="M345.5,393.7v0.2h-0.1L345.5,393.7z"/>
<path class="st61" d="M343.7,393.9l0.3-0.2h-0.3V393.9z"/>
<path class="st61" d="M344.3,396.1h1.5c0.1,0,0.2-0.1,0.1-0.1v-0.2h-1.5L344.3,396.1z"/>
<path class="st56" d="M345.3,392.7h1.8v-0.3h-4.7c-0.1,0-0.2,0-0.2,0.1v0.4h1.7c0,0.1,0,0.1-0.1,0.1h-1.6v0.2h1.6
	c0,0.1-0.1,0.1-0.2,0.1h-1.4v0.5h0.2l0.4,0.2l1.4,1.1h1.6l-1.8-1.3c-0.1-0.1,0-0.1,0.1-0.1l1.1-0.4l0.3-0.3h1.6v-0.2h-1.5
	c-0.1-0.2-0.2-0.4-0.4-0.5c0.1,0,0.2,0,0.2,0.1S345.4,392.7,345.3,392.7z"/>
<path class="st62" d="M348.1,391.3l-9.1,4.2c0.7,0.6,1.6,1.1,2.6,1.3l9-4.2C349.9,392,349,391.5,348.1,391.3z"/>
<path class="st52" d="M353,391.2v1.7c0,1.6-2.5,3-5.8,3.2v-8C350.5,388.2,353,389.5,353,391.2z"/>
<path class="st53" d="M343.4,388.4v7.3c-0.6-0.1-1.2-0.3-1.7-0.6V389L343.4,388.4z"/>
<path class="st54" d="M340,392.9v-1.7c0.1-1,0.8-1.8,1.7-2.2v6.1C340.6,394.5,340,393.8,340,392.9z"/>
<path class="st54" d="M347.2,388.1v8h-0.7c-1,0-2.1-0.1-3.1-0.4v-7.3c1-0.2,2.1-0.4,3.1-0.4L347.2,388.1z"/>
<ellipse class="st55" cx="345.6" cy="391.9" rx="6.5" ry="3.2"/>
<ellipse class="st56" cx="345.6" cy="391.9" rx="6.5" ry="3.2"/>
<ellipse transform="matrix(1 -1.745326e-03 1.745326e-03 1 -0.6822 0.605)" class="st57" cx="346.3" cy="391.2" rx="4.7" ry="2.3"/>
<ellipse transform="matrix(1 -1.745326e-03 1.745326e-03 1 -0.6829 0.6048)" class="st58" cx="346.2" cy="391.6" rx="4.7" ry="2.3"/>
<ellipse transform="matrix(1 -1.745326e-03 1.745326e-03 1 -0.6826 0.605)" class="st59" cx="346.3" cy="391.4" rx="4.7" ry="2.3"/>
<path class="st57" d="M348.8,390.1c0.1,0,0.1,0,0.1-0.1l0,0v-0.2h-5v0.4h0.1c0,0.1,0.1,0.1,0.2,0.1h-0.3v0.3l0,0v0.2h-0.1v0.7h0.2
	l0.4,0.2l1.4,1.1h1.5c0.1,0,0.2-0.1,0.1-0.2h-0.1l-1.7-1.2h0.1c0.4,0,0.8-0.2,1.1-0.4l0.3-0.2h1.5c0.1,0,0.1,0,0.1-0.1l0,0v-0.3l0,0
	L348.8,390.1l-1.6,0.1c0-0.1,0-0.1-0.1-0.2s0-0.1-0.1-0.2h1.7L348.8,390.1z"/>
<path class="st60" d="M347.5,393.3L347.5,393.3z"/>
<path class="st61" d="M343.9,390h0.1c0,0.1,0.1,0.1,0.2,0.1h0.9V390H343.9z"/>
<path class="st61" d="M346.8,389.8l0.3,0.3h1.7c0.1,0,0.1,0,0.1-0.1l0,0l-0.2-0.2L346.8,389.8z"/>
<path class="st61" d="M347.2,390.8v0.3h1.6v-0.2L347.2,390.8z"/>
<path class="st61" d="M345.4,391l0.4-0.2h-1.9v0.2h1.4H345.4z"/>
<path class="st61" d="M346,393.2h1.6c0-0.1,0.1-0.1,0-0.2H346V393.2z"/>
<path class="st56" d="M347,389.9h1.8v-0.2c0-0.1,0-0.1-0.1-0.1l0,0h-4.6c-0.1,0-0.2,0-0.2,0.1v0.3l0,0c0,0.1,0.1,0.1,0.2,0.1h1.2
	l0.3,0.2c0.1,0,0,0.1-0.1,0.1h-1.6v0.3h1.7c-0.1,0-0.2,0-0.2,0.1h-1.5v0.5h0.2l0.4,0.2l1.4,1.1h1.4c0.2,0,0.3-0.1,0.2-0.2l-1.8-1.3
	c-0.1,0,0-0.1,0.1-0.1c0.4,0,0.8-0.2,1.1-0.4l0.3-0.3h1.6V390h-1.5c-0.1-0.2-0.2-0.4-0.4-0.6L347,389.9z"/>
<path class="st62" d="M349.8,388.5l-9.1,4.2c0.8,0.6,1.7,1.1,2.6,1.3l9.1-4.2C351.7,389.2,350.8,388.7,349.8,388.5z"/>
<path class="st63" d="M345.5,397.4l1.2-0.6c2-1,4.6,0.2,5.8,2.7s0.5,5-1.3,6l-1.1,0.6c-1.9,1.1-4.5,0.1-5.8-2.3
	C342.9,401.7,343.4,398.8,345.5,397.4C345.5,397.4,345.5,397.4,345.5,397.4z"/>
<path class="st52" d="M345.5,397.4l0.7-0.4c0.6-0.4,1.4-0.5,2.1-0.5c1.6,0.1,3.1,1.1,3.9,2.5l-8.2,4.3
	C343,401.2,343.6,398.7,345.5,397.4z"/>
<path class="st53" d="M345.8,405.6l7.3-3.9c0,0.5-0.1,0.9-0.2,1.4l-5.8,3.2C346.6,406.2,346.2,405.9,345.8,405.6z"/>
<path class="st54" d="M344,403.3l8.2-4.3l0.3,0.5c0.3,0.7,0.5,1.4,0.6,2.2l-7.3,3.9c-0.7-0.5-1.2-1.1-1.5-1.8L344,403.3z"/>
<ellipse transform="matrix(0.907 -0.421 0.421 0.907 -136.6032 184.1435)" class="st55" cx="348.7" cy="401.4" rx="4.1" ry="4.9"/>
<ellipse transform="matrix(0.907 -0.421 0.421 0.907 -136.6032 184.1435)" class="st56" cx="348.7" cy="401.4" rx="4.1" ry="4.9"/>
<ellipse transform="matrix(0.907 -0.421 0.421 0.907 -136.5608 184.0569)" class="st57" cx="348.6" cy="401.3" rx="3" ry="3.5"/>
<ellipse transform="matrix(0.907 -0.421 0.421 0.907 -136.721 184.3013)" class="st58" cx="349" cy="401.8" rx="3" ry="3.6"/>
<ellipse transform="matrix(0.907 -0.421 0.421 0.907 -136.6534 184.2132)" class="st59" cx="348.9" cy="401.6" rx="3" ry="3.6"/>
<path class="st62" d="M346.6,396.8l6,7.2c-0.3,0.8-0.9,1.4-1.7,1.7l-5.9-7.1C345.3,397.8,345.9,397.2,346.6,396.8z"/>
<path class="st57" d="M350.2,400.6v-0.2c0-0.1,0-0.2-0.1-0.2h-0.6V400c0-0.1-0.1-0.3-0.1-0.4h0.9v-0.3h-0.1V399l0,0l-2.4-0.3
	c-0.1-0.1-0.2,0-0.2,0.1v0.6c0,0.1,0,0.3,0.1,0.4c0.1,0.2,0.2,0.1,0.3,0.2h-0.4v0.4l0,0v0.3c0,0.2,0.2,0.2,0.4,0.2h-0.5v0.8
	c0,0.1,0,0.1,0.1,0.1l0,0v0.3c0,0.1,0,0.1,0.1,0.1l0,0l0.2,0.3l0.7,1.6h0.6c0.1,0,0.2-0.1,0.2-0.2v0l0.2-0.2h-0.2l-0.9-1.8h0.1
	c0.3-0.1,0.5-0.3,0.6-0.6c0-0.1,0.1-0.3,0.1-0.4h0.8L350.2,400.6H350H350.2z"/>
<path class="st61" d="M349.5,399.6h0.7v-0.2h-1L349.5,399.6z"/>
<path class="st61" d="M348.6,399.6h-1c0.1,0.2,0.2,0.1,0.3,0.2h0.3L348.6,399.6L348.6,399.6z"/>
<path class="st61" d="M348.6,401l0.2-0.3h-1.3v0.3c0,0.1,0,0.1,0.1,0.1h0.9L348.6,401z"/>
<path class="st61" d="M350.2,401v-0.2h-0.7l-0.2,0.4h0.8L350.2,401z"/>
<path class="st61" d="M347.9,401.9h-0.4c0,0.1,0,0.1,0.1,0.1l0,0v0.3c0,0.1,0,0.1,0.1,0.1l0,0l0,0l0.3-0.4L347.9,401.9z"/>
<path class="st61" d="M348.8,404.5h0.5c0.1,0,0.2-0.1,0.2-0.2v0l0.2-0.2h-0.6L348.8,404.5z"/>
<path class="st56" d="M349.4,399.3h0.9V399c0-0.1,0-0.1-0.1-0.1l-2.4-0.4l0,0v0.8c0,0.1,0,0.1,0.1,0.1l0,0h0.1
	c0.2,0.1,0.5,0.1,0.6,0.3s0.1,0.1,0.1,0.2s0,0.1,0,0.1h-0.9v0.4h0.8c-0.2,0.1-0.4,0.2-0.6,0.2h-0.2v0.9h0.1l0.2,0.3l0.8,1.7h0.7
	c0.1-0.1,0.1-0.2,0.1-0.3c-0.3-0.6-0.6-1.2-0.9-1.8c-0.1-0.1,0-0.2,0-0.3s0.5-0.3,0.6-0.5s0.1-0.2,0.1-0.4h0.7c0.1,0,0.1,0,0.1-0.1
	v-0.3h-0.7c0-0.2-0.1-0.5-0.2-0.7L349.4,399.3z"/>
<path class="st63" d="M352.9,399.5l0.3-1.3c0.4-2.2,3-3.4,5.7-2.8s4.2,2.8,3.8,4.9l-0.2,1.2c-0.4,2.1-2.8,3.5-5.5,3
	C354.5,404.2,352.7,402,352.9,399.5z"/>
<path class="st52" d="M352.9,399.5v-0.8c0.1-0.7,0.4-1.4,0.9-1.9c1.1-1.2,2.8-1.8,4.4-1.5l-1.8,9.1
	C354.2,403.9,352.6,401.8,352.9,399.5z"/>
<path class="st53" d="M359.4,404.5l1.6-8.1c0.3,0.2,0.7,0.6,0.9,0.9l-1.2,6.6C360.3,404.2,359.9,404.4,359.4,404.5z"/>
<path class="st54" d="M356.5,404.4l1.8-9.1h0.6c0.8,0.2,1.5,0.5,2.1,1l-1.6,8.1c-0.8,0.2-1.6,0.2-2.4,0H356.5z"/>
<ellipse transform="matrix(0.2487 -0.9686 0.9686 0.2487 -117.9714 646.9301)" class="st55" cx="358" cy="399.5" rx="4.1" ry="4.9"/>
<ellipse transform="matrix(0.2487 -0.9686 0.9686 0.2487 -117.9714 646.9301)" class="st56" cx="358" cy="399.5" rx="4.1" ry="4.9"/>
<ellipse transform="matrix(0.2487 -0.9686 0.9686 0.2487 -118.0622 646.8068)" class="st57" cx="357.9" cy="399.5" rx="3" ry="3.5"/>
<ellipse transform="matrix(0.2487 -0.9686 0.9686 0.2487 -117.6835 647.3265)" class="st58" cx="358.4" cy="399.5" rx="3" ry="3.6"/>
<ellipse transform="matrix(0.2487 -0.9686 0.9686 0.2487 -117.865 647.0799)" class="st59" cx="358.2" cy="399.5" rx="3" ry="3.6"/>
<path class="st62" d="M353.1,398.3h9.4c0.3,0.8,0.4,1.6,0.2,2.4h-9.3C353.1,399.9,353,399.1,353.1,398.3z"/>
<path class="st57" d="M358.3,397.9h-0.2c-0.1-0.1-0.2-0.1-0.2,0l-0.4,0.4H357l0.4-0.5c0.1-0.1,0.1-0.2,0.1-0.3V397H357l-1.8,1.6v0.3
	l0.5,0.3l0.3,0.2c0.2,0.1,0.3,0,0.4-0.1l0.3-0.2h0.2l-0.5,0.6c-0.1,0.1-0.1,0.2,0,0.2l0.3,0.2h0.3c0.2,0.1,0.2-0.1,0.3-0.2
	s0,0.1-0.1,0.2H357c0,0.1,0,0.2,0.1,0.3l0.6,0.4h0.9l1.7,0.4h0.1l0.3-0.4v-0.6h-0.2l-1.9-0.4l0,0c0.1-0.3,0-0.6-0.1-0.8
	c-0.1-0.2-0.1-0.3-0.2-0.4l0.3-0.4c0.1-0.1,0.1-0.2,0.1-0.3v-0.2L358.3,397.9z"/>
<path class="st61" d="M357.1,397.8l0.3-0.3c0.1-0.1,0.1-0.2,0.1-0.3h-0.1l-0.7,0.6L357.1,397.8z"/>
<path class="st61" d="M356.5,398.5l-0.6,0.5v0.3l0,0c0.2,0.1,0.3,0,0.4-0.1l0.2-0.2l0.2-0.5L356.5,398.5z"/>
<path class="st61" d="M357.6,399.4V399l-0.9,1h0.4l0.2-0.2L357.6,399.4z"/>
<path class="st61" d="M358.6,398.1v-0.2l-0.5,0.6l0.2,0.3l0.3-0.4C358.6,398.3,358.6,398.2,358.6,398.1z"/>
<path class="st61" d="M357.9,400.4l-0.2,0.5h0.6v-0.5H357.9z"/>
<path class="st61" d="M360.4,401.4L360.4,401.4l0.3-0.4v-0.6h-0.1l-0.3,0.4L360.4,401.4z"/>
<path class="st56" d="M356.8,397.7l0.6-0.6l0,0l-0.3-0.2c0-0.1-0.1-0.1-0.1,0l-1.8,1.6l0,0l0.4,0.3l0.2,0.2h0.2
	c0.2-0.2,0.4-0.3,0.6-0.3h0.3c0.1,0.1,0.1,0.1,0.1,0.2l-0.6,0.6c0,0.1,0,0.1,0.1,0.1l0,0l0.2,0.3h0.2l0.6-0.7v0.2
	c0,0.2-0.1,0.4-0.2,0.6h-0.1v0.2l0.7,0.5h0.5l1.7,0.4h0.1l0.4-0.6c0-0.1,0-0.1-0.1-0.2l-2.1-0.5c-0.1,0-0.1,0-0.1-0.1l0,0
	c0.1-0.3,0-0.6-0.1-0.8v-0.3c-0.1-0.1-0.1-0.1,0-0.1l0.4-0.5c0-0.1,0-0.1-0.1-0.1l0,0l-0.2-0.2H358l-0.4,0.5h-0.1l-0.6-0.4
	L356.8,397.7z"/>
</svg>
