<svg xmlns="http://www.w3.org/2000/svg" viewBox="0 0 150.329 150.128"><g id="Layer_2" data-name="Layer 2"><g id="Layer_4" data-name="Layer 4"><path d="M118.322,44.1H5.357A5.364,5.364,0,0,1,0,38.74V5.356A5.363,5.363,0,0,1,5.357,0H118.322a5.362,5.362,0,0,1,5.356,5.356V38.74A5.363,5.363,0,0,1,118.322,44.1ZM5.357,1A4.362,4.362,0,0,0,1,5.356V38.74A4.362,4.362,0,0,0,5.357,43.1H118.322a4.361,4.361,0,0,0,4.356-4.357V5.356A4.361,4.361,0,0,0,118.322,1Z" fill="#27aae1"/><path d="M118.322,87.444H5.357A5.363,5.363,0,0,1,0,82.087V48.7a5.363,5.363,0,0,1,5.357-5.356H118.322a5.362,5.362,0,0,1,5.356,5.356V82.087A5.363,5.363,0,0,1,118.322,87.444ZM5.357,44.347A4.362,4.362,0,0,0,1,48.7V82.087a4.363,4.363,0,0,0,4.357,4.357H118.322a4.362,4.362,0,0,0,4.356-4.357V48.7a4.361,4.361,0,0,0-4.356-4.356Z" fill="#27aae1"/><rect x="10.446" y="107.664" width="25.141" height="5.87" fill="#27aae1"/><rect x="64.682" y="107.702" width="11.118" height="5.87" fill="#27aae1"/><rect x="77.991" y="107.664" width="11.118" height="5.87" fill="#030303"/><rect x="91.383" y="107.664" width="11.118" height="5.87" fill="#030303"/><path d="M118.322,131.1H5.357A5.364,5.364,0,0,1,0,125.744V92.36A5.363,5.363,0,0,1,5.357,87H118.322a5.362,5.362,0,0,1,5.356,5.356v33.384A5.364,5.364,0,0,1,118.322,131.1ZM5.357,88A4.362,4.362,0,0,0,1,92.36v33.384A4.363,4.363,0,0,0,5.357,130.1H118.322a4.363,4.363,0,0,0,4.356-4.358V92.36A4.361,4.361,0,0,0,118.322,88Z" fill="#27aae1"/><ellipse cx="112.808" cy="112.313" rx="36.521" ry="36.814" fill="#27aae1" stroke="#fff" stroke-miterlimit="10" stroke-width="2"/><polygon points="143.715 96.015 98.975 126.966 81.901 109.873 94.265 130.231 98.274 136.913 143.715 96.015" fill="#fff"/><rect x="11.525" y="19.817" width="25.141" height="5.87" fill="#27aae1"/><rect x="65.762" y="19.854" width="11.118" height="5.87" fill="#27aae1"/><rect x="79.07" y="19.817" width="11.118" height="5.87" fill="#27aae1"/><rect x="92.462" y="19.817" width="11.118" height="5.87" fill="#27aae1"/><rect x="11.619" y="62.683" width="25.141" height="5.87" fill="#27aae1"/><rect x="65.856" y="62.72" width="11.118" height="5.87" fill="#27aae1"/><rect x="79.165" y="62.683" width="11.118" height="5.87" fill="#27aae1"/><rect x="92.556" y="62.683" width="11.118" height="5.87" fill="#27aae1"/></g></g></svg>