<svg xmlns="http://www.w3.org/2000/svg" viewBox="0 0 150.288 149.428"><g id="Layer_2" data-name="Layer 2"><g id="Layer_5" data-name="Layer 5"><path d="M68.27,28.434H7.692a6.5,6.5,0,0,0-6.5,6.5v10.3a6.5,6.5,0,0,0,6.5,6.5H68.27a6.5,6.5,0,0,0,6.5-6.5v-10.3A6.5,6.5,0,0,0,68.27,28.434ZM23.838,41.412H10.945a1.329,1.329,0,0,1,0-2.657H23.838A1.329,1.329,0,0,1,23.838,41.412Zm42.911,0H35.576a1.329,1.329,0,0,1,0-2.657H66.749A1.329,1.329,0,0,1,66.749,41.412Z" fill="#27aae1" stroke="#fff" stroke-miterlimit="10" stroke-width="2"/><path d="M68.27,52.469H7.692a6.5,6.5,0,0,0-6.5,6.5v10.3a6.5,6.5,0,0,0,6.5,6.5H68.27a6.5,6.5,0,0,0,6.5-6.5v-10.3A6.5,6.5,0,0,0,68.27,52.469ZM23.838,65.447H10.945a1.329,1.329,0,0,1,0-2.657H23.838A1.329,1.329,0,0,1,23.838,65.447Zm42.911,0H35.576a1.329,1.329,0,0,1,0-2.657H66.749A1.329,1.329,0,0,1,66.749,65.447Z" fill="#27aae1" stroke="#fff" stroke-miterlimit="10" stroke-width="2"/><path d="M68.27,76.5H7.692a6.5,6.5,0,0,0-6.5,6.5V93.3a6.5,6.5,0,0,0,6.5,6.5H68.27a6.5,6.5,0,0,0,6.5-6.5V83A6.5,6.5,0,0,0,68.27,76.5ZM23.838,89.482H10.945a1.329,1.329,0,0,1,0-2.657H23.838A1.329,1.329,0,0,1,23.838,89.482Zm42.911,0H35.576a1.329,1.329,0,0,1,0-2.657H66.749A1.329,1.329,0,0,1,66.749,89.482Z" fill="#27aae1" stroke="#fff" stroke-miterlimit="10" stroke-width="2"/><path d="M68.078,100.539H7.5a6.5,6.5,0,0,0-6.5,6.5v10.3a6.5,6.5,0,0,0,6.5,6.5H68.078a6.5,6.5,0,0,0,6.5-6.5v-10.3A6.5,6.5,0,0,0,68.078,100.539ZM23.645,113.517H10.753a1.329,1.329,0,0,1,0-2.657H23.645A1.329,1.329,0,0,1,23.645,113.517Zm42.911,0H35.383a1.329,1.329,0,0,1,0-2.657H66.556A1.329,1.329,0,0,1,66.556,113.517Z" fill="#27aae1" stroke="#fff" stroke-miterlimit="10" stroke-width="2"/><line x1="37.981" y1="28.434" x2="37.981" fill="none" stroke="#27aae1" stroke-miterlimit="10" stroke-width="2"/><line x1="37.506" y1="1.001" x2="117.583" y2="1.001" fill="none" stroke="#27aae1" stroke-miterlimit="10" stroke-width="2"/><path d="M136.589,52.891H139.4a0,0,0,0,1,0,0V55.7A42.946,42.946,0,0,1,96.452,98.645H93.644a0,0,0,0,1,0,0V95.837a42.946,42.946,0,0,1,42.946-42.946Z" transform="translate(87.704 -60.2) rotate(45)" fill="#27aae1" stroke="#fff" stroke-miterlimit="10" stroke-width="2"/><circle cx="116.521" cy="75.768" r="9.771" fill="#27aae1" stroke="#fff" stroke-miterlimit="10" stroke-width="2"/><line x1="116.521" y1="59.525" x2="116.521" y2="0.269" fill="none" stroke="#27aae1" stroke-miterlimit="10" stroke-width="2"/><line x1="38.456" y1="123.721" x2="38.456" y2="149.428" fill="none" stroke="#27aae1" stroke-miterlimit="10" stroke-width="2"/><line x1="37.981" y1="148.414" x2="117.986" y2="148.414" fill="none" stroke="#27aae1" stroke-miterlimit="10" stroke-width="2"/><line x1="116.995" y1="92.63" x2="116.995" y2="148.829" fill="none" stroke="#27aae1" stroke-miterlimit="10" stroke-width="2"/></g></g></svg>