<svg xmlns="http://www.w3.org/2000/svg" viewBox="0 0 148.696 147.826"><g id="Layer_2" data-name="Layer 2"><g id="Layer_3" data-name="Layer 3"><rect x="9.174" y="1" width="129.906" height="28.844" rx="6.026" fill="#fff" stroke="#2bb0cf" stroke-miterlimit="10" stroke-width="2"/><ellipse cx="25.238" cy="15.422" rx="7.85" ry="8.862" fill="#2bb0cf"/><path d="M46.73,17.368H84.182c2.218,0,2.222-3.892,0-3.892H46.73c-2.219,0-2.223,3.892,0,3.892Z" fill="#2bb0cf"/><path d="M105.341,5.566V25.279a1.73,1.73,0,1,0,3.448,0V5.566a1.73,1.73,0,1,0-3.448,0Z" fill="#2bb0cf"/><path d="M111.974,5.566V25.279a1.73,1.73,0,1,0,3.448,0V5.566a1.73,1.73,0,1,0-3.448,0Z" fill="#2bb0cf"/><path d="M117.569,5.566V25.279a1.73,1.73,0,1,0,3.448,0V5.566a1.73,1.73,0,1,0-3.448,0Z" fill="#2bb0cf"/><path d="M124.2,5.566V25.279a1.73,1.73,0,1,0,3.448,0V5.566a1.73,1.73,0,1,0-3.448,0Z" fill="#2bb0cf"/><path d="M130.11,5.429V25.141a1.73,1.73,0,1,0,3.448,0V5.429a1.73,1.73,0,1,0-3.448,0Z" fill="#2bb0cf"/><line x1="74.127" y1="34.982" x2="74.127" y2="70.928" fill="none" stroke="#2bb0cf" stroke-miterlimit="10" stroke-width="2"/><ellipse cx="74.127" cy="82.796" rx="11.333" ry="12.794" fill="none" stroke="#2bb0cf" stroke-miterlimit="10" stroke-width="2"/><line x1="85.847" y1="82.796" x2="139.08" y2="82.796" fill="none" stroke="#2bb0cf" stroke-miterlimit="10" stroke-width="2"/><line x1="9.481" y1="82.796" x2="62.715" y2="82.796" fill="none" stroke="#2bb0cf" stroke-miterlimit="10" stroke-width="2"/><line x1="10.957" y1="81.661" x2="10.957" y2="121.004" fill="none" stroke="#2bb0cf" stroke-miterlimit="10" stroke-width="2"/><line x1="50.207" y1="81.661" x2="50.207" y2="121.004" fill="none" stroke="#2bb0cf" stroke-miterlimit="10" stroke-width="2"/><line x1="98.419" y1="81.999" x2="98.419" y2="121.341" fill="none" stroke="#2bb0cf" stroke-miterlimit="10" stroke-width="2"/><line x1="137.669" y1="81.999" x2="137.669" y2="121.341" fill="none" stroke="#2bb0cf" stroke-miterlimit="10" stroke-width="2"/><rect x="1" y="122.513" width="19.675" height="24.304" fill="#fff" stroke="#2bb0cf" stroke-miterlimit="10" stroke-width="2"/><path d="M4.81,133.526H16.7c1.759,0,1.761-3.085,0-3.085H4.81c-1.759,0-1.762,3.085,0,3.085Z" fill="#a1bf3b"/><path d="M4.81,138.889H16.7c1.759,0,1.761-3.085,0-3.085H4.81c-1.759,0-1.762,3.085,0,3.085Z" fill="#a1bf3b"/><rect x="40.056" y="122.504" width="19.675" height="24.304" fill="#fff" stroke="#2bb0cf" stroke-miterlimit="10" stroke-width="2"/><path d="M43.866,133.517H55.759c1.759,0,1.762-3.085,0-3.085H43.866c-1.759,0-1.762,3.085,0,3.085Z" fill="#ff931e"/><path d="M43.866,138.88H55.759c1.759,0,1.762-3.085,0-3.085H43.866c-1.759,0-1.762,3.085,0,3.085Z" fill="#ff931e"/><rect x="88.964" y="122.522" width="19.675" height="24.304" fill="#fff" stroke="#2bb0cf" stroke-miterlimit="10" stroke-width="2"/><path d="M92.774,133.535h11.893c1.759,0,1.762-3.085,0-3.085H92.774c-1.759,0-1.761,3.085,0,3.085Z" fill="#a1bf3b"/><path d="M92.774,138.9h11.893c1.759,0,1.762-3.085,0-3.085H92.774c-1.759,0-1.761,3.085,0,3.085Z" fill="#a1bf3b"/><rect x="128.02" y="122.513" width="19.675" height="24.304" fill="#fff" stroke="#2bb0cf" stroke-miterlimit="10" stroke-width="2"/><path d="M131.83,133.526h11.894c1.758,0,1.761-3.085,0-3.085H131.83c-1.758,0-1.761,3.085,0,3.085Z" fill="#ff931e"/><path d="M131.83,138.889h11.894c1.758,0,1.761-3.085,0-3.085H131.83c-1.758,0-1.761,3.085,0,3.085Z" fill="#ff931e"/></g></g></svg>