<svg xmlns="http://www.w3.org/2000/svg" xmlns:xlink="http://www.w3.org/1999/xlink" viewBox="0 0 151.999 151.498"><defs><filter id="luminosity-invert" filterUnits="userSpaceOnUse" color-interpolation-filters="sRGB"><feColorMatrix values="-1 0 0 0 1 0 -1 0 0 1 0 0 -1 0 1 0 0 0 1 0"/></filter><mask id="mask" x="73.299" y="83.976" width="17" height="27" maskUnits="userSpaceOnUse"><g filter="url(#luminosity-invert)"><image width="17" height="27" transform="translate(73.299 83.976)" xlink:href="Asset%2081.png"/></g></mask><mask id="mask-2" x="92.299" y="83.976" width="17" height="28" maskUnits="userSpaceOnUse"><g filter="url(#luminosity-invert)"><image width="17" height="28" transform="translate(92.299 83.976)" xlink:href="Asset%2082.png"/></g></mask><mask id="mask-3" x="112.299" y="83.976" width="17" height="28" maskUnits="userSpaceOnUse"><g filter="url(#luminosity-invert)"><image width="17" height="28" transform="translate(112.299 83.976)" xlink:href="Asset%2083.png"/></g></mask><linearGradient id="linear-gradient" x1="88.53" y1="135.458" x2="125.68" y2="135.458" gradientUnits="userSpaceOnUse"><stop offset="0" stop-color="#fff"/><stop offset="1"/></linearGradient></defs><g id="Layer_2" data-name="Layer 2"><g id="Layer_1-2" data-name="Layer 1"><path d="M111.526,28.23h-7.092a9.325,9.325,0,0,0-9.477,9.164V55.121a9.325,9.325,0,0,0,9.477,9.164h7.092A9.325,9.325,0,0,0,121,55.121V37.394A9.325,9.325,0,0,0,111.526,28.23Z" fill="none"/><path d="M79.038,28.23H71.946a9.325,9.325,0,0,0-9.477,9.164V55.121a9.325,9.325,0,0,0,9.477,9.164h7.092a9.324,9.324,0,0,0,9.476-9.164V37.394A9.324,9.324,0,0,0,79.038,28.23Z" fill="none"/><path d="M28.981,108.982V92.276c0-7.411-11.911-7.423-11.911,0v16.706Z" fill="#231f20"/><path d="M48.959,108.982V92.276c0-7.411-11.911-7.423-11.911,0v16.706Z" fill="#231f20"/><path d="M67.791,108.937V92.231c0-7.411-11.911-7.423-11.911,0v16.706Z" fill="#231f20"/><path d="M46.549,28.23H39.458a9.325,9.325,0,0,0-9.477,9.164V55.121a9.325,9.325,0,0,0,9.477,9.164h7.091a9.325,9.325,0,0,0,9.477-9.164V37.394A9.325,9.325,0,0,0,46.549,28.23Z" fill="none"/><path d="M1,83.822V99.276a10.106,10.106,0,0,0,7.859,9.71H64.008a4.891,4.891,0,0,1,1.782.319h74.783A10.233,10.233,0,0,0,151,99.276V83.822Z" fill="none" stroke="#00a651" stroke-miterlimit="10" stroke-width="2"/><path d="M151,19.312V11.029A10.233,10.233,0,0,0,140.573,1H11.427A10.234,10.234,0,0,0,1,11.029v8.4c13.947,2.024,24.639,13.6,24.639,27.581S14.947,72.57,1,74.594v9.228H151V74.713c-14.418-1.617-25.61-13.4-25.61-27.7S136.581,20.929,151,19.312ZM56.665,55.77a9.239,9.239,0,0,1-9.413,9.054H40.208A9.239,9.239,0,0,1,30.8,55.77V38.255A9.239,9.239,0,0,1,40.208,29.2h7.044a9.239,9.239,0,0,1,9.413,9.054Zm32.27,0a9.239,9.239,0,0,1-9.413,9.054H72.478a9.24,9.24,0,0,1-9.414-9.054V38.255A9.24,9.24,0,0,1,72.478,29.2h7.044a9.239,9.239,0,0,1,9.413,9.054Zm32.27,0a9.24,9.24,0,0,1-9.414,9.054h-7.044a9.239,9.239,0,0,1-9.413-9.054V38.255a9.239,9.239,0,0,1,9.413-9.054h7.044a9.24,9.24,0,0,1,9.414,9.054Z" fill="none" stroke="#00a651" stroke-miterlimit="10" stroke-width="2"/><path d="M87.769,108.937V92.231c0-7.411-11.911-7.423-11.911,0v16.706Z" fill="#f9b253"/><g mask="url(#mask)"><g opacity="0.78"><path d="M87.769,108.937V92.231c0-7.411-11.911-7.423-11.911,0v16.706Z" fill="#161616"/></g></g><path d="M106.365,109.148V92.442c0-7.411-11.911-7.424-11.911,0v16.706Z" fill="#f9b253"/><g mask="url(#mask-2)"><g opacity="0.78"><path d="M106.365,109.148V92.442c0-7.411-11.911-7.424-11.911,0v16.706Z" fill="#161616"/></g></g><path d="M126.343,109.148V92.442c0-7.411-11.911-7.424-11.911,0v16.706Z" fill="#f9b253"/><g mask="url(#mask-3)"><g opacity="0.78"><path d="M126.343,109.148V92.442c0-7.411-11.911-7.424-11.911,0v16.706Z" fill="#161616"/></g></g><ellipse cx="106.365" cy="109.029" rx="43.688" ry="41.969" fill="#fff" stroke="#d1d3d4" stroke-miterlimit="10"/><path d="M84.888,91.055q-2.474-2.376-4.951-4.75a34.1,34.1,0,0,0-1.3,46.491l4.954-4.79a27.529,27.529,0,0,1,1.3-36.951Z" fill="#dd5a5a" stroke="#fff" stroke-miterlimit="10"/><path d="M129.075,92.428a27.463,27.463,0,0,1,2.574,32.062l5.065,4.9a34.029,34.029,0,0,0-2.688-41.747Z" fill="#6bb597" stroke="#fff" stroke-miterlimit="10"/><path d="M106.365,81.955a29.761,29.761,0,0,1,17.846,5.891l4.966-4.8a37.13,37.13,0,0,0-44.144-1.1q2.515,2.409,5.025,4.822A29.812,29.812,0,0,1,106.365,81.955Z" fill="#e9a724" stroke="#fff" stroke-miterlimit="10"/><path d="M92.9,139.675h28.42a4.219,4.219,0,1,0,0-8.434H92.9a4.219,4.219,0,1,0,0,8.434Z" stroke="#fff" stroke-miterlimit="10" fill="url(#linear-gradient)"/><path d="M107.268,104.135a11.588,11.588,0,0,0-1.408.25,4.014,4.014,0,0,0-3.414,4.232s-.208,3.078,4.046,4.028a4.239,4.239,0,0,0,.735.018c4.84-.027,20.636-8.188,21.848-10.051C126.567,101.559,111.114,103.829,107.268,104.135Zm-.392,6.118a1.9,1.9,0,1,1,1.543-1.491A1.935,1.935,0,0,1,106.876,110.253Z" fill="#383838" stroke="#fff" stroke-miterlimit="10"/></g></g></svg>