<svg xmlns="http://www.w3.org/2000/svg" viewBox="0 0 149.404 150.425"><g id="Layer_2" data-name="Layer 2"><g id="Layer_2-2" data-name="Layer 2"><polygon points="29.369 66.288 18.297 58.363 22.769 37.882 36.212 35.734 42.949 26.901 41.96 12.717 59.993 3.637 69.968 13.273 80.827 13.273 90.802 3.637 108.836 12.717 107.846 26.901 114.584 35.734 128.026 37.882 132.498 58.363 121.426 66.288 124.862 66.288 134.732 59.223 129.688 36.122 115.689 33.885 109.893 26.288 110.924 11.529 90.432 1.212 80.018 11.273 70.776 11.273 60.363 1.212 39.872 11.529 40.901 26.288 35.106 33.885 21.106 36.122 16.063 59.223 25.932 66.288 29.369 66.288" fill="none" stroke="#2bb0cf" stroke-miterlimit="10" stroke-width="2"/><path d="M44.492,61.761c0-17.84,13.864-32.354,30.905-32.354S106.3,43.921,106.3,61.761a34.179,34.179,0,0,1-.312,4.527h2.016a35.973,35.973,0,0,0,.3-4.527c0-18.943-14.761-34.354-32.9-34.354S42.492,42.818,42.492,61.761a36.187,36.187,0,0,0,.3,4.527h2.017A34.023,34.023,0,0,1,44.492,61.761Z" fill="none" stroke="#2bb0cf" stroke-miterlimit="10" stroke-width="2"/><path d="M114.515,108.39v18.38h3.706V108.39a9.354,9.354,0,0,1,6.536-8.943l3.172-1.01-2.53-2.164a10.112,10.112,0,1,1,13.122,0l-2.531,2.164,3.173,1.01a9.354,9.354,0,0,1,6.535,8.943v18.38H149.4V108.39a13.041,13.041,0,0,0-6.531-11.335,13.819,13.819,0,1,0-21.826,0A13.04,13.04,0,0,0,114.515,108.39Z" fill="#ff931e"/><path d="M0,108.39v18.38H3.706V108.39a9.354,9.354,0,0,1,6.536-8.943l3.172-1.01-2.53-2.164a10.112,10.112,0,1,1,13.122,0l-2.531,2.164,3.173,1.01a9.354,9.354,0,0,1,6.535,8.943v18.38h3.706V108.39a13.041,13.041,0,0,0-6.531-11.335,13.819,13.819,0,1,0-21.826,0A13.04,13.04,0,0,0,0,108.39Z" fill="#a1bf3b"/><path d="M57.515,131.584v18.841h3.8V131.584a9.587,9.587,0,0,1,6.7-9.167l3.252-1.036-2.594-2.218a10.366,10.366,0,1,1,13.451,0l-2.594,2.218,3.252,1.036a9.586,9.586,0,0,1,6.7,9.167v18.841h3.8V131.584a13.366,13.366,0,0,0-6.695-11.619,14.165,14.165,0,1,0-22.374,0A13.368,13.368,0,0,0,57.515,131.584Z" fill="#2bb0cf"/><line x1="30.426" y1="89.777" x2="54.008" y2="89.777" fill="none" stroke="#a1bf3b" stroke-miterlimit="10" stroke-width="2"/><line x1="53.048" y1="55.405" x2="53.048" y2="90.668" fill="none" stroke="#a1bf3b" stroke-miterlimit="10" stroke-width="2"/><line x1="75.397" y1="54.976" x2="75.397" y2="97.121" fill="none" stroke="#2bb0cf" stroke-miterlimit="10" stroke-width="2"/><line x1="96.938" y1="55.405" x2="96.938" y2="90.668" fill="none" stroke="#ff931e" stroke-miterlimit="10" stroke-width="2"/><line x1="120.759" y1="89.777" x2="96.147" y2="89.777" fill="none" stroke="#ff931e" stroke-miterlimit="10" stroke-width="2"/></g></g></svg>