<?xml version="1.0" encoding="utf-8"?>
<!-- Generator: Adobe Illustrator 22.0.1, SVG Export Plug-In . SVG Version: 6.00 Build 0)  -->
<svg version="1.1" id="Layer_1" xmlns="http://www.w3.org/2000/svg" xmlns:xlink="http://www.w3.org/1999/xlink" x="0px" y="0px"
	 viewBox="0 0 200 200" style="enable-background:new 0 0 200 200;" xml:space="preserve">
<style type="text/css">
	.st0{display:none;}
	.st1{display:inline;}
	.st2{fill:#1F8AC0;}
	.st3{display:inline;fill:#1F8AC0;}
	.st4{display:none;fill:#1F8AC0;}
	.st5{fill:#2CB76B;}
	.st6{fill:#4686C2;}
	.st7{fill:#27ADE2;}
	.st8{fill:#E56353;}
	.st9{fill:#FCD462;}
	.st10{fill:#FCFCFC;}
	.st11{fill:#FDFEFF;}
	.st12{fill:#FFFFFF;}
	.st13{fill:none;stroke:#1F8AC0;stroke-width:6;stroke-linejoin:round;stroke-miterlimit:10;}
	.st14{fill:none;stroke:#1F8AC0;stroke-width:6;stroke-miterlimit:10;}
	.st15{fill:none;stroke:#1F8AC0;stroke-width:8;stroke-linecap:round;stroke-linejoin:round;stroke-miterlimit:10;}
	.st16{fill:none;}
	.st17{fill:#FA5C66;}
	.st18{fill:#F1F2F2;}
	.st19{fill:none;stroke:#474C54;stroke-width:5;stroke-linecap:round;stroke-linejoin:round;}
	.st20{fill:#E0F4FC;stroke:#1F8AC0;stroke-width:3.5;stroke-linecap:round;stroke-linejoin:round;}
	.st21{fill:none;stroke:#1F8AC0;stroke-width:2.5;stroke-linecap:round;}
	.st22{fill:#FFFFFF;stroke:#1F8AC0;stroke-width:3.5;stroke-linecap:round;}
	.st23{fill:none;stroke:#1F8AC0;stroke-width:3.5;stroke-linecap:round;stroke-linejoin:round;}
	.st24{fill:#1F8AC0;stroke:#4A86B1;stroke-width:0.1671;stroke-linejoin:round;}
	.st25{fill:#76E5B7;stroke:#1F8AC0;stroke-width:3.5;}
	.st26{fill:#76E5B7;}
</style>
<g class="st0">
	<g class="st1">
		<g>
			<g>
				<g>
					<path class="st2" d="M143.1,56.9c-0.4-2.1-1.5-4.2-2.9-5.8c-2.5-3.1-6.2-4.4-10.4-4.4H77.9c-17.4,0-34.9,0-52.5,0
						c-6.9,0-12.4,4.8-13,11.2c-0.2,2.7-0.2,5.4,0,7.9c0.2,4,2.5,7.1,5.8,9.1c2.5,1.7,5.4,2.1,8.3,2.1c15.3,0,30.7,0,46,0
						c3.3,0,6.7,0,10.2,0c10.6,0,21.1,0,31.7,0c5,0,10.2,0,15.1,0c7.1,0,12.4-4.4,13.2-11C143.5,62.9,143.5,59.8,143.1,56.9z
						 M32.9,68.9c-4.1,0-7.1-3.3-7.1-7.3c0-4.1,3.3-7.3,7.3-7.3s7.3,3.3,7.3,7.1C40.3,65.7,37,68.9,32.9,68.9z"/>
				</g>
			</g>
			<g>
				<g>
					<path class="st2" d="M143.1,95c-0.4-2.1-1.5-4.2-2.9-5.8c-2.5-3.1-6.2-4.4-10.4-4.4H77.9c-17.4,0-34.9,0-52.5,0
						c-6.9,0-12.4,4.8-13,11.2c-0.2,2.7-0.2,5.4,0,7.9c0.2,4,2.5,7.1,5.8,9.1c2.5,1.7,5.4,2.1,8.3,2.1c15.3,0,30.7,0,46,0
						c3.3,0,6.7,0,10.2,0c10.6,0,21.1,0,31.7,0c5,0,10.2,0,15.1,0c7.1,0,12.4-4.4,13.2-11C143.5,101,143.5,97.9,143.1,95z
						 M32.9,107.1c-4.1,0-7.1-3.3-7.1-7.3c0-4.1,3.3-7.3,7.3-7.3s7.3,3.3,7.3,7.1C40.3,103.8,37,107.1,32.9,107.1z"/>
				</g>
			</g>
			<g>
				<g>
					<path class="st2" d="M143.1,133.1c-0.4-2.1-1.5-4.2-2.9-5.8c-2.5-3.1-6.2-4.4-10.4-4.4H77.9c-17.4,0-34.9,0-52.5,0
						c-6.9,0-12.4,4.8-13,11.2c-0.2,2.7-0.2,5.4,0,7.9c0.2,4,2.5,7.1,5.8,9.1c2.5,1.7,5.4,2.1,8.3,2.1c15.3,0,30.7,0,46,0
						c3.3,0,6.7,0,10.2,0c10.6,0,21.1,0,31.7,0c5,0,10.2,0,15.1,0c7.1,0,12.4-4.4,13.2-11C143.5,139.2,143.5,136,143.1,133.1z
						 M32.9,145c-4.1,0-7.1-3.3-7.1-7.3s3.3-7.3,7.3-7.3s7.3,3.3,7.3,7.1C40.3,141.7,37,145.2,32.9,145z"/>
				</g>
			</g>
		</g>
	</g>
</g>
<g class="st0">
	<path class="st3" d="M72.2,47.1c8,2.9,16.4,4.7,24.8,5.3V2c-4.8,0.2-9.5,0.7-14.2,1.6c-7.8,8.6-14.4,22.6-19.1,40
		c1,0.5,2.1,1,3.1,1.4C68.6,45.7,70.4,46.5,72.2,47.1z"/>
	<path class="st3" d="M57,40c3.8-13.4,8.7-24.9,14.6-33.6C59,10.3,47.4,16.6,37.5,24.9C43.3,30.8,49.9,35.9,57,40z"/>
	<path class="st3" d="M97,96.8V58.7c-9.1-0.6-18.2-2.5-26.8-5.6c-2-0.7-3.8-1.5-5.7-2.3c-0.8-0.3-1.6-0.7-2.4-1.1
		c-3.3,14.2-5.2,30.2-5.5,47.1H97z"/>
	<path class="st3" d="M71.1,193.6c-5.7-8.8-10.5-20.2-14.2-33.4c-7.1,4.1-13.6,9.2-19.4,15.1C47.1,183.3,58.4,189.6,71.1,193.6z"/>
	<path class="st3" d="M97,147.6c-10.4,0.7-20.5,3.2-30.1,7.4c-1.2,0.5-2.3,1-3.4,1.6c4.5,17,10.9,30.9,18.5,39.7
		c4.9,0.9,10,1.5,15,1.7V147.6z"/>
	<path class="st3" d="M166.8,27.7c-10.5-9.7-23.3-17.1-37.5-21.5c6.4,9.4,11.7,22,15.5,36.7C152.8,38.9,160.2,33.8,166.8,27.7z"/>
	<path class="st3" d="M128.9,49.1c1.9-0.5,3.8-1.2,5.7-1.8c1.1-0.4,2.2-0.8,3.3-1.3c-4.7-18.5-11.6-33.5-19.8-42.5
		c-4.8-0.9-9.6-1.4-14.4-1.5h-0.3v50.6C112,52.6,120.6,51.4,128.9,49.1z"/>
	<path class="st3" d="M136.9,53.1c-2,0.7-4,1.4-6,2c-8.9,2.5-18,3.8-27.2,3.8h-0.3v37.9h40.9c-0.2-15.9-2-31.1-4.9-44.6
		C138.6,52.5,137.8,52.9,136.9,53.1z"/>
	<path class="st3" d="M144.9,157.1c-3.7,14.5-8.8,26.9-15,36.3c14-4.4,26.4-11.7,36.8-21.2C160.2,166.2,152.9,161.1,144.9,157.1z"/>
	<path class="st3" d="M64.6,149.2c10.3-4.5,21.3-7.2,32.5-7.9v-38.1H56.7c0.2,16.9,2.1,33,5.3,47.2C62.9,150,63.7,149.6,64.6,149.2z
		"/>
	<path class="st3" d="M138.1,154.1c-1.1-0.4-2.2-0.9-3.3-1.3c-10-3.6-20.5-5.4-31.1-5.4h-0.3V198h0.3c5.1-0.2,10.3-0.8,15.3-1.7
		C126.9,187,133.6,172.2,138.1,154.1z"/>
	<path class="st3" d="M136.9,146.9c0.9,0.3,1.7,0.6,2.6,1c2.9-13.6,4.6-28.8,4.8-44.7h-40.9v37.9h0.3
		C115,141.1,126.2,143,136.9,146.9z"/>
	<g class="st1">
		<path class="st2" d="M151.6,96.8h46.6V97h0.2c-0.7-24.9-10.9-48-27.4-65.1V32h-0.1l0.3,0.3c-7.4,6.9-15.8,12.6-24.9,17
			C149.5,63.5,151.4,79.6,151.6,96.8z"/>
		<path class="st2" d="M170.9,168h0.2c16.5-17.1,26.6-40.1,27.4-65h-0.2v0.1h-46.6c-0.2,17.2-2,33.4-5.2,47.7
			c9,4.3,17.3,10,24.7,16.9L170.9,168z"/>
	</g>
	<g class="st1">
		<path class="st2" d="M33.2,171l-0.2-0.2c6.6-6.7,14.1-12.4,22.3-17c-3.6-15.1-5.7-32.3-5.9-50.7h-47c0.8,25.9,12,50.3,30.4,67.9
			H33.2z"/>
		<path class="st2" d="M37,174.8L37,174.8L37,174.8L37,174.8z"/>
	</g>
	<path class="st3" d="M32.9,29.2l0.2-0.2h-0.2C20.3,41,10.9,56.4,6,73.7c-2.1,7.7-3.3,15.5-3.6,23.1h46.9c0.2-18.4,2.4-35.5,6-50.5
		C47.2,41.7,39.6,36,32.9,29.2z"/>
</g>
<g class="st0">
	<path class="st3" d="M189.7,181.7h-60v-2.3c0-3.1-2.5-5.6-5.6-5.6h-20.4v-20.7h-7.5v20.7H75.9c-3.1,0-5.6,2.5-5.6,5.6v2.3h-60
		c-2,0-3.6,1.6-3.6,3.6l0,0c0,2,1.6,3.6,3.6,3.6h60v1.6c0,3.1,2.5,5.6,5.6,5.6h47.9c3.1,0,5.6-2.5,5.6-5.6v-1.6h60.3
		c2,0,3.6-1.6,3.6-3.6l0,0C193.2,183.3,191.6,181.7,189.7,181.7z"/>
	<path class="st3" d="M168.9,8H30.7c-3.1,0-5.6,2.5-5.6,5.6v35.9c0,3.1,2.5,5.6,5.6,5.6h138.1c3.1,0,5.6-2.5,5.6-5.6V13.6
		C174.5,10.5,172,8,168.9,8z M88.9,46H39.2c-1,0-1.9-0.6-2.1-1.5c-0.5-1.6,0.6-3,2.1-3h49.7c1,0,1.9,0.6,2.1,1.5
		C91.4,44.5,90.3,46,88.9,46z M88.9,35.1H39.2c-1,0-1.9-0.6-2.1-1.5c-0.5-1.6,0.6-3,2.1-3h49.7c1,0,1.9,0.6,2.1,1.5
		C91.4,33.6,90.3,35.1,88.9,35.1z M88.9,24.2H39.2c-1,0-1.9-0.6-2.1-1.5c-0.5-1.6,0.6-3,2.1-3H89c1.1,0,2,0.8,2.2,1.8
		C91.3,23,90.2,24.2,88.9,24.2z M146.9,38.1c-3.9,0-7-3.5-6.3-7.6c0.5-2.6,2.6-4.7,5.2-5.2c4-0.7,7.6,2.4,7.6,6.3
		C153.3,35.2,150.4,38.1,146.9,38.1z"/>
	<path class="st3" d="M168.9,61.4H30.7c-3.1,0-5.6,2.5-5.6,5.6v35.9c0,3.1,2.5,5.6,5.6,5.6h138.1c3.1,0,5.6-2.5,5.6-5.6V67
		C174.5,63.9,172,61.4,168.9,61.4z M88.9,99H39.2c-1,0-1.9-0.6-2.1-1.5c-0.5-1.6,0.6-3,2.1-3h49.7c1,0,1.9,0.6,2.1,1.5
		C91.4,97.6,90.3,99,88.9,99z M88.9,88.1H39.2c-1,0-1.9-0.6-2.1-1.5c-0.5-1.6,0.6-3,2.1-3h49.7c1,0,1.9,0.6,2.1,1.5
		C91.4,86.7,90.3,88.1,88.9,88.1z M88.9,77.2H39.1c-1,0-1.9-0.6-2.1-1.5c-0.5-1.6,0.6-3,2.1-3h49.8c1.1,0,2,0.8,2.2,1.8
		C91.3,76,90.2,77.2,88.9,77.2z M146.9,91.2c-3.5,0-6.4-2.9-6.4-6.4s2.9-6.4,6.4-6.4s6.4,2.9,6.4,6.4
		C153.3,88.3,150.4,91.2,146.9,91.2z"/>
	<path class="st3" d="M168.9,114.4H30.7c-3.1,0-5.6,2.5-5.6,5.6v35.9c0,3.1,2.5,5.6,5.6,5.6h138.1c3.1,0,5.6-2.5,5.6-5.6V120
		C174.5,116.9,172,114.4,168.9,114.4z M88.9,152H39.1c-1,0-1.9-0.6-2.1-1.5c-0.5-1.6,0.6-3,2.1-3h49.7c1,0,1.9,0.6,2.1,1.5
		C91.4,150.6,90.3,152,88.9,152z M88.9,141.1H39.1c-1,0-1.9-0.6-2.1-1.5c-0.5-1.6,0.6-3,2.1-3h49.8c1.1,0,2,0.8,2.2,1.8
		C91.3,139.9,90.2,141.1,88.9,141.1z M88.9,130.6H39.1c-1,0-1.9-0.6-2.1-1.5c-0.5-1.6,0.6-3,2.1-3h49.8c1.1,0,2,0.8,2.2,1.8
		C91.3,129.4,90.2,130.6,88.9,130.6z M146.9,144.3c-3.5,0-6.4-2.9-6.4-6.4s2.9-6.4,6.4-6.4s6.4,2.9,6.4,6.4
		C153.3,141.4,150.4,144.3,146.9,144.3z"/>
</g>
<g class="st0">
	<g class="st1">
		<path class="st2" d="M99.7,114.3c13.1,0,53.4-36.2,89-74.8c-3.1-3-7.3-4.9-12-4.9h-154c-4.7,0-8.9,1.9-12,4.9
			C46.3,78.1,86.7,114.3,99.7,114.3z"/>
		<path class="st2" d="M99.5,132.5c-22.3,0-67.7-44.1-94.5-72.3v103.7c0,9.5,7.7,17.2,17.2,17.2h154.5c9.5,0,17.2-7.7,17.2-17.2
			V60.2C167.2,88.4,121.7,132.5,99.5,132.5z"/>
	</g>
</g>
<g class="st0">
	<g id="Web_hosting_2_" class="st1">
		<path class="st2" d="M120.5,151.1H95.2c-4.6,0-8.5-3.8-8.5-8.5v-17h-8.5v16.4c0,5-4.1,9-9,9H44.5c-2.3,0-4.3,1.6-4.5,3.8
			c-0.2,2.6,1.7,4.6,4.3,4.6h76.4c2.4,0,4.5-2.1,4.3-4.6C124.8,152.8,122.7,151.1,120.5,151.1z"/>
		<path class="st2" d="M108,83.2H23c-9.3,0-17,7.7-17,17v4.3c0,9.3,7.7,17,17,17H108c9.3,0,17-7.7,17-17v-4.3
			C125,90.9,117.3,83.2,108,83.2z M108,112.9H23c-4.6,0-8.5-3.8-8.5-8.5v-4.3c0-4.6,3.8-8.5,8.5-8.5H108c4.6,0,8.5,3.8,8.5,8.5v4.3
			C116.4,109.1,112.7,112.9,108,112.9z"/>
		<path class="st2" d="M108,40.7H23c-9.3,0-17,7.7-17,17V62c0,9.3,7.7,17,17,17H108c9.3,0,17-7.7,17-17v-4.3
			C125,48.4,117.3,40.7,108,40.7z M108,70.5H23c-4.6,0-8.5-3.8-8.5-8.5v-4.3c0-4.6,3.8-8.5,8.5-8.5H108c4.6,0,8.5,3.8,8.5,8.5V62
			C116.4,66.6,112.7,70.5,108,70.5z"/>
		<circle class="st2" cx="26.9" cy="102.3" r="4.3"/>
		<circle class="st2" cx="43.9" cy="102.3" r="4.3"/>
		<circle class="st2" cx="60.9" cy="102.3" r="4.3"/>
		<circle class="st2" cx="26.9" cy="59.9" r="4.3"/>
		<circle class="st2" cx="43.9" cy="59.9" r="4.3"/>
		<circle class="st2" cx="60.9" cy="59.9" r="4.3"/>
	</g>
</g>
<path class="st4" d="M157.3,84.8H51.7c-12.5,0-22.5,10.1-22.5,22.5v45c0,30,15.1,45,37.7,45h75.4c22.6,0,37.7-15,37.7-45v-45
	C179.9,94.9,169.8,84.8,157.3,84.8z M113.5,2h-16c-24.8,0-45,20.2-45,45.1v29.2h29.7V46.8c0-8.3,6.7-15,15-15h14.5
	c8.3,0,15,6.7,15,15v29.6h31.8V47.1C158.6,22.2,138.4,2,113.5,2z M120.6,159.1H90.5l6-18.1c-4.4-3.3-6.9-8.9-5.7-15
	c1.2-5.9,5.9-10.6,11.7-11.7c9.6-1.9,18,5.5,18,14.7c0,4.9-2.4,9.2-6,12L120.6,159.1z"/>
<g class="st0">
	<g id="Gif_2_" class="st1">
		<path class="st2" d="M23.7,195.1h71.8v-79.8H23.7V195.1z M186.2,59.4h-43.1c3-1.5,5.6-3.1,8-4.8c9-6.4,13.8-14.6,13.8-22.7
			c0-6.7-3.2-12.5-7.8-16.5S146.4,9,139.9,9c-7,0-13.4,2.4-18.9,6.1c-8.3,5.6-14.9,13.9-19.5,23.1c-0.2,0.5-0.5,0.9-0.7,1.4
			c-1.7-3.6-3.7-7-5.9-10.2c-3.9-5.6-8.7-10.6-14.2-14.3C75.1,11.4,68.6,9,61.7,9s-13.3,2.9-18,7.4c-4.7,4.4-8,10.7-8.1,17.8
			c0,4.2,1.2,8.5,3.7,12.4c3.1,4.9,8.1,9.3,15,12.8H16.8c-5,0-9.1,4-9.1,9V102h87.8V59.4h12V102h87.8V68.5
			C195.3,63.4,191.2,59.4,186.2,59.4z M57.7,46.4c-3.6-2.2-5.7-4.5-7-6.5S49,36.1,49,34.4c0-2.9,1.4-6,4-8.4
			c2.5-2.4,5.9-3.8,8.9-3.8H62c3.9,0,7.8,1.3,11.7,3.9c5.8,3.8,11.3,10.6,15.1,18.3c2,3.9,3.5,8,4.5,12
			C75.7,54.5,64.3,50.6,57.7,46.4z M118.1,37.1c3.2-4.6,6.9-8.4,10.8-11s7.8-3.9,11.7-3.9l0,0c3.3,0,6.4,1.3,8.5,3.2
			c2.2,1.9,3.3,4.2,3.3,6.7c0,2.9-1.5,7.2-8.4,12.2c-6.5,4.7-17.8,9.6-35.1,13C110.6,50.4,113.8,43.1,118.1,37.1z M106.2,195.1H178
			v-79.8h-71.8V195.1z"/>
	</g>
</g>
<g class="st0">
	<path class="st3" d="M7.9,182.8c0,7.5,0,7.5,7.5,7.5h60v-15h-60C7.9,175.3,7.9,175.3,7.9,182.8z"/>
	<path class="st3" d="M105.4,145.3h74.9c4.4,0,7.7-3.3,7.7-7.7V17.9c0-4.4-3.3-7.7-7.7-7.7H15.5c-4.4,0-7.7,3.3-7.7,7.7v119.8
		c0,4.4,3.3,7.7,7.7,7.7h74.9v23c0,3.5-7.5,6.8-7.5,16.1c0,6.8,5.1,13.4,15,13.4c6.9,0,11.4-3.2,13.6-7.4h69c7.5,0,7.5,0,7.5-7.5
		s0-7.5-7.5-7.5h-70.4c-2.1-3.1-4.6-5.1-4.6-7.1L105.4,145.3L105.4,145.3z M158,25.2h15v15h-15V25.2z M158,55.2h15v15h-15V55.2z
		 M158,85.3h15v15h-15V85.3z M158,115.3h15v15h-15V115.3z M37.9,130.3h-15v-15h15V130.3z M37.9,100.3h-15v-15h15V100.3z M37.9,70.3
		h-15v-15h15V70.3z M37.9,40.2h-15v-15h15V40.2z M75.6,122.2c-2.1,0-3.8-1.7-3.8-3.8l0,0V52.2l0,0c0-2.1,1.7-3.8,3.8-3.8
		c0.8,0,1.4,0.2,2.1,0.6l53.5,31.8c1.3,1.1,2.1,2.7,2.1,4.4c0,1.8-0.8,3.4-2.1,4.4l-53.5,31.8C77.1,121.9,76.4,122.2,75.6,122.2z"/>
</g>
<g class="st0">
	<g class="st1">
		<path class="st5" d="M156.3,105.5c-0.4-6.7-0.4-13.5,0-19.9c0-2.8,0-5.7,0-8.9v-7.5v-2.1c0-8.2,0-16.3,0-24.5
			c-10.3-2.5-20.6-5-30.6-7.5c-8.2-2.1-16.7-4.3-24.9-6.4c-0.7,0-1.4,0-1.8,0c-8.2,2.1-16.3,4.3-24.5,6c-10.7,2.5-21.3,5.3-32,7.8
			v6.7c0,18.5,0.4,37.7,0,56.8c-0.4,13.1,3.9,24.9,12.4,35.2C65.6,154,79.4,163.9,99,172.8c16.7-7.1,29.8-16,40.1-27
			C151.4,133.9,156.7,120.4,156.3,105.5z M136.4,78.5c-5,6.4-9.9,12.8-14.9,19.2c-8.2,10.7-16.3,21-24.5,31.6c-4.6,6-8.2,5.7-12.8,0
			c-7.1-9.9-14.6-19.9-21.7-29.8c-2.5-3.2-2.5-6.7,0-9.2c2.5-2.1,6-2.1,8.9,0.7c5.3,4.6,10.7,9.2,16,13.9c0.7,0.7,1.8,1.4,3.6,2.8
			c0.7-1.1,1.1-2.1,1.8-3.2c11-11.4,22.4-22.4,33.7-33.4c1.1-1.1,2.8-2.5,4.3-2.8c2.5-0.7,5,0.4,6.4,2.8
			C138.9,73.9,138.2,76.4,136.4,78.5z"/>
		<path class="st2" d="M179.4,105.1c-0.4-7.1-0.4-14.2,0-21.3c0-0.4,0-1.1,0-1.4l0,0v-8.5c0-3.6,0-7.1,0-10.7c0-9.9,0-19.9,0-29.8
			c0-8.9-5.7-12.1-10.3-13.5c-12.1-2.8-24.5-6-36.6-9.2c-9.2-2.1-18.5-4.6-28.1-7.1c-3.2-0.7-6.7-0.7-10.3,0
			c-9.2,2.1-18.5,4.6-27.4,6.7c-12.1,3.2-24.9,6-36.9,9.2c-6.7,1.8-10.3,6.4-10.3,13.5v10c0,20.6,0.4,41.9,0,62.9
			c-0.4,18.5,5.7,35.5,17.8,50.1c13.9,16.7,31.6,29.5,56.5,40.5c1.8,0.7,3.6,1.1,5.3,1.1c2.1,0,4.3-0.4,6-1.1
			c21-8.9,37.7-20.2,51.2-34.5C172.3,146,180.1,126.5,179.4,105.1z M150.3,157c-13.9,14.2-30.2,24.5-48.3,32.3
			c-1.4,0.7-3.6,0.7-4.6,0c-20.6-8.9-39.1-20.6-53.3-38c-10.7-13.1-16.3-27.7-16-44.8c0.4-24.2,0-48.7,0-72.8c0-3.2,0.7-4.6,3.9-5.3
			c21.7-5.3,43-10.7,64.7-16c1.8-0.4,4.3-0.4,6,0c21.7,5.3,43,10.7,64.7,16c3.2,0.7,3.9,2.1,3.9,5c0,13.5,0,27,0,40.5l0,0
			c0,10.3-0.4,21,0,31.3C172,125.7,164.2,142.4,150.3,157z"/>
	</g>
</g>
<g class="st0">
	<g class="st1">
		<path class="st2" d="M87.1,191.1c-40.1,0-72.5-32.5-72.5-72.5S47,46.1,87.1,46.1s72.5,32.5,72.5,72.5S127.1,191.1,87.1,191.1z
			 M87.1,59.6c-32.6,0-59,26.4-59,59s26.4,59,59,59s59-26.4,59-59S119.7,59.6,87.1,59.6z"/>
		<path class="st2" d="M87.1,191.1c-21.7,0-38-31.2-38-72.5s16.4-72.5,38-72.5s38,31.2,38,72.5S108.8,191.1,87.1,191.1z M87.1,59.6
			c-11.6,0-24.5,25.2-24.5,59s13,59,24.5,59s24.5-25.2,24.5-59S98.7,59.6,87.1,59.6z"/>
		<path class="st2" d="M147.4,100.9H26.8c-3.7,1.7-6.8-1.3-6.8-5.1s3-6.8,6.8-12.9h120.6c3.7,6.2,6.8,9.2,6.8,12.9
			S151.1,102.6,147.4,100.9z"/>
		<path class="st2" d="M147.4,145.9H26.8c-3.7,2.3-6.8-0.8-6.8-4.5s3-6.8,6.8-13.5h120.6c3.7,6.8,6.8,9.8,6.8,13.5
			C154.1,145.1,151.1,148.1,147.4,145.9z"/>
	</g>
	<g class="st1">
		<g>
			<g id="Layer_45_1_">
			</g>
			<g id="Layer_44_1_">
			</g>
			<g id="Layer_43_1_">
			</g>
			<g id="Layer_42_1_">
			</g>
			<g id="Layer_41_1_">
			</g>
			<g id="Layer_40_1_">
			</g>
			<g id="Layer_39_1_">
			</g>
			<g id="Layer_38_1_">
			</g>
			<g id="Layer_37_1_">
			</g>
			<g id="Layer_36_1_">
			</g>
			<g id="Layer_35_1_">
			</g>
			<g id="Layer_34_1_">
			</g>
			<g id="Layer_33_1_">
			</g>
			<g id="Layer_32_1_">
			</g>
			<g id="Layer_31_1_">
			</g>
			<g id="Layer_30_1_">
			</g>
			<g id="Layer_29_1_">
			</g>
			<g id="Layer_28_1_">
			</g>
			<g id="Layer_27_1_">
			</g>
			<g id="Layer_26_1_">
			</g>
			<g id="Layer_25_1_">
			</g>
			<g id="Layer_24_1_">
			</g>
			<g id="Layer_23_1_">
			</g>
			<g id="Layer_22_1_">
			</g>
			<g id="Layer_21_1_">
			</g>
			<g id="Layer_20_1_">
			</g>
			<g id="Layer_19_1_">
			</g>
			<g id="Layer_18_1_">
			</g>
			<g id="Layer_17_1_">
			</g>
			<g id="Layer_16_1_">
			</g>
			<g id="Layer_15_1_">
			</g>
			<g id="Layer_14_1_">
			</g>
			<g id="Layer_13_1_">
			</g>
			<g id="Layer_12_1_">
			</g>
			<g id="Layer_11_1_">
				<g id="XMLID_1_">
					<g id="XMLID_19_">
						<path class="st6" d="M108.5,72.7l-0.5-5.9c0-0.6,0.3-1.2,0.8-1.5c0.9-0.4,1.9,0.3,2,1.2l0.5,6c0.1,0.9-0.8,1.7-1.7,1.5
							C108.9,73.8,108.5,73.3,108.5,72.7z"/>
						<path class="st6" d="M112.7,70.7l-6,0.5c-0.6,0-1.2-0.3-1.5-0.8c-0.4-0.9,0.3-1.9,1.2-2l6-0.5c0.6,0,1.2,0.3,1.5,0.8
							C114.2,69.7,113.6,70.6,112.7,70.7z"/>
					</g>
					<g id="XMLID_18_">
						<path class="st7" d="M102.1,18.5l-0.5-6.6c0-0.6,0.3-1.2,0.8-1.5c0.9-0.4,1.9,0.3,2,1.2l0.5,6.7c0.1,0.9-0.8,1.7-1.7,1.5
							C102.6,19.6,102.2,19.1,102.1,18.5z"/>
						<path class="st7" d="M106.5,16.5L99.8,17c-0.6,0-1.2-0.3-1.5-0.8c-0.4-0.9,0.3-1.9,1.2-2l6.7-0.5c0.6,0,1.2,0.3,1.5,0.8
							C108,15.5,107.4,16.4,106.5,16.5z"/>
					</g>
					<g id="XMLID_17_">
						<path class="st7" d="M162.9,68c-0.6,0-1.2-0.3-1.4-0.9l-0.1-0.3c-5-12.1-13.3-22.4-24.1-29.9c-0.6-0.4-0.8-1.3-0.3-1.9
							c0.4-0.6,1.3-0.8,1.9-0.3c11.2,7.8,19.8,18.6,25,31.1l0.1,0.3c0.3,0.7,0,1.5-0.8,1.8C163.2,68,163.1,68,162.9,68z"/>
						<path class="st7" d="M129.9,32.2c-0.2,0-0.5,0-0.7-0.1c-4.6-2.3-9.4-4.2-14.4-5.4c-0.7-0.2-1.2-1-1-1.7s1-1.2,1.7-1
							c5.2,1.3,10.2,3.2,15,5.6c0.7,0.4,1,1.2,0.6,1.9C130.8,31.9,130.4,32.2,129.9,32.2z"/>
						<path class="st6" d="M142.9,63.3c-0.5,0-0.9-0.1-1.2-0.5c-9.3-11.9-22.6-20.5-37.2-24.2l0.7-2.7c15.3,3.9,29,12.8,38.7,25.2
							c0.5,0.6,0.4,1.5-0.2,2C143.5,63.2,143.2,63.3,142.9,63.3z"/>
						<path class="st6" d="M165.1,41.5c-0.5,0-0.9-0.2-1.2-0.6c-9.4-13-23.2-22.3-38.8-26.3c-0.7-0.2-1.2-1-1-1.7s1-1.2,1.7-1
							c16.2,4.1,30.6,13.9,40.4,27.4c0.5,0.6,0.3,1.5-0.3,2C165.6,41.4,165.4,41.5,165.1,41.5z"/>
					</g>
					<g id="XMLID_2_">
						<path class="st6" d="M164.3,15.4l-0.5-5.9c0-0.6,0.3-1.2,0.8-1.5c0.9-0.4,1.9,0.3,2,1.2l0.5,6c0.1,0.9-0.8,1.7-1.7,1.5
							C164.7,16.6,164.3,16.1,164.3,15.4z"/>
						<path class="st6" d="M168.6,13.7l-6,0.5c-0.6,0-1.2-0.3-1.5-0.8c-0.4-0.9,0.3-1.9,1.2-2l6-0.5c0.6,0,1.2,0.3,1.5,0.8
							C170.2,12.7,169.6,13.6,168.6,13.7z"/>
					</g>
				</g>
			</g>
			<g id="Layer_10_1_">
			</g>
			<g id="Layer_9_1_">
			</g>
			<g id="Layer_8_1_">
			</g>
			<g id="Layer_7_1_">
			</g>
			<g id="Layer_6_1_">
			</g>
			<g id="Layer_5_1_">
			</g>
			<g id="Layer_4_1_">
			</g>
			<g id="Layer_3_1_">
			</g>
			<g id="Layer_2_2_">
			</g>
			<g id="Layer_1_2_">
			</g>
		</g>
		<g id="XMLID_4_">
			<path class="st8" d="M165.2,78.7c0.1-0.6-0.2-1.2-0.7-1.6l-9.7-8.1l12.3-2.8c0.6-0.1,1.1-0.6,1.4-1.2l4.7-11.8l6.4,11
				c0.3,0.5,0.9,0.9,1.5,0.9l12.6,0.8l-8.3,9.6c-0.4,0.5-0.6,1.1-0.4,1.7l3.1,12.3l-11.6-5c-0.2-0.1-0.5-0.2-0.8-0.2
				c-0.4,0-0.7,0.1-1,0.3L164,91.3L165.2,78.7z"/>
			<path class="st9" d="M173.3,55.4l5.4,9.1c0.5,0.8,1.4,1.4,2.3,1.4l10.6,0.7l-7,8c-0.6,0.7-0.9,1.7-0.6,2.6l2.6,10.3l-9.7-4.2
				c-0.4-0.2-0.8-0.2-1.1-0.2c-0.6,0-1.1,0.2-1.6,0.5l-8.9,5.7l1-10.6c0.1-1-0.3-1.9-1-2.5l-8.2-6.8l10.3-2.4
				c0.9-0.2,1.7-0.9,2.1-1.8L173.3,55.4 M173.1,52c-0.3,0-0.7,0.2-0.8,0.6l-4.7,12c-0.1,0.3-0.4,0.5-0.6,0.6L154.4,68
				c-0.7,0.2-1,1.1-0.4,1.6l9.8,8.2c0.2,0.2,0.4,0.5,0.3,0.8L163,91.4c-0.1,0.6,0.4,1,0.9,1c0.2,0,0.3,0,0.5-0.1l10.8-6.9
				c0.1-0.1,0.3-0.1,0.5-0.1c0.1,0,0.2,0,0.4,0.1l11.7,5.1c0.1,0.1,0.2,0.1,0.4,0.1c0.6,0,1-0.5,0.9-1.1L185.9,77
				c-0.1-0.3,0-0.6,0.2-0.8l8.4-9.7c0.5-0.6,0.1-1.5-0.6-1.5l-12.8-1c-0.3,0-0.6-0.2-0.7-0.4l-6.5-11.1
				C173.7,52.2,173.4,52,173.1,52L173.1,52z"/>
		</g>
	</g>
</g>
<g class="st0">
	<path class="st3" d="M137.4,185.3c0.3,7.9-6.9,14.3-15.2,12.4c-4.2-0.9-7.7-4.2-8.9-8.3c-2.4-8.2,3.5-15.7,11.4-16l0,0
		C131.5,173.1,137.2,178.4,137.4,185.3L137.4,185.3z"/>
	<g class="st1">
		<g>
			<g>
				<title></title>
				<g id="_01_Big_File_1_">
					<path class="st2" d="M131.6,187.7c-2.4,0.1-4.4-1.8-4.5-4.2c-0.1-2,1.3-3.8,3.2-4.3c29.9-8.1,51.8-33.6,55.5-64.3
						c0.3-2.4,2.5-4.1,4.9-3.8c2.4,0.3,4.1,2.5,3.8,4.9c-4.1,34.2-28.5,62.6-61.8,71.6C132.3,187.7,131.9,187.7,131.6,187.7z"/>
					<path class="st2" d="M190.3,101.1c-2.3,0.1-4.2-1.6-4.5-3.9C184.7,86,181,75.1,175,65.5c-1.2-2.1-0.6-4.7,1.5-6
						c2-1.2,4.6-0.6,5.9,1.4c6.7,10.7,10.8,22.8,12.2,35.4c0.3,2.4-1.5,4.5-3.9,4.8l0,0L190.3,101.1z"/>
					<path class="st2" d="M169.6,56.2c-1.3,0-2.5-0.5-3.4-1.4c-5-5.4-10.7-10.1-16.9-13.8c-2.1-1.2-2.7-3.9-1.5-6s3.9-2.7,6-1.5
						c7,4.2,13.3,9.4,18.9,15.4c1.6,1.8,1.5,4.5-0.3,6.2C171.6,55.8,170.6,56.2,169.6,56.2L169.6,56.2z"/>
					<path class="st2" d="M137.2,33.9c-1.2,0-2.3-0.4-3.1-1.2s-1.3-1.9-1.4-3.1c0-1.1,0.4-2.2,1.2-3.1c1.7-1.7,4.4-1.8,6.2-0.3
						c0.8,0.8,1.3,1.9,1.4,3c0,1.2-0.4,2.3-1.2,3.1C139.5,33.4,138.4,33.9,137.2,33.9z"/>
				</g>
			</g>
		</g>
		<g>
			<path class="st2" d="M100.4,164.9c-33.7,0-61-27.3-61-61s27.3-61,61-61s61,27.3,61,61C161.4,137.5,134.1,164.8,100.4,164.9z
				 M100.4,54.1c-27.4,0-49.7,22.2-49.7,49.7s22.2,49.7,49.7,49.7s49.7-22.2,49.7-49.7C150.1,76.4,127.8,54.2,100.4,54.1z"/>
			<path class="st2" d="M100.4,164.9c-18.2,0-32-26.2-32-61s13.8-61,32-61s32,26.2,32,61S118.7,164.9,100.4,164.9z M100.4,54.1
				c-9.7,0-20.6,21.2-20.6,49.7s10.9,49.7,20.6,49.7s20.6-21.2,20.6-49.7S110.1,54.1,100.4,54.1z"/>
			<path class="st2" d="M151.2,92.5H49.7c-3.1-2.2-5.7-4.7-5.7-7.9c0-3.1,2.5-5.7,5.7-7.3h101.5c3.1,1.6,5.7,4.1,5.7,7.3
				C156.8,87.8,154.3,90.3,151.2,92.5z"/>
			<path class="st2" d="M151.2,130.4H49.7c-3.1-1.7-5.7-4.2-5.7-7.4s2.5-5.7,5.7-7.8h101.5c3.1,2.1,5.7,4.6,5.7,7.8
				S154.3,128.7,151.2,130.4z"/>
		</g>
		<g>
			<g>
				<title></title>
				<g id="_01_Big_File_2_">
					<path class="st2" d="M94.6,14.4c2.3,0.6,3.7,3,3.1,5.4c-0.5,1.9-2.3,3.3-4.3,3.2c-31-0.9-59.4,17-71.9,45.4
						c-1,2.2-3.6,3.2-5.8,2.2s-3.2-3.6-2.2-5.8c13.9-31.6,45.5-51.6,80-50.5C93.9,14.3,94.2,14.4,94.6,14.4z"/>
					<path class="st2" d="M13.2,80.2c2.2,0.6,3.6,2.8,3.1,5c-2.1,11.1-1.7,22.6,1.2,33.6c0.6,2.3-0.8,4.7-3.2,5.3
						c-2.3,0.6-4.6-0.8-5.2-3.1c-3.2-12.2-3.7-25-1.3-37.4c0.4-2.4,2.7-3.9,5.1-3.5l0,0L13.2,80.2z"/>
					<path class="st2" d="M19.9,129.2c1.2,0.3,2.2,1.2,2.8,2.3c3.2,6.6,7.3,12.7,12.2,18.2c1.6,1.8,1.5,4.5-0.3,6.2
						c-1.8,1.6-4.5,1.5-6.2-0.3c-5.5-6.1-10-12.9-13.6-20.2c-1-2.2-0.1-4.8,2.1-5.8C17.9,129.1,18.9,129,19.9,129.2L19.9,129.2z"/>
					<path class="st2" d="M44.4,160c1.1,0.3,2.1,1,2.6,2c0.6,1,0.7,2.2,0.4,3.4c-0.3,1.1-1,2-2,2.6c-2.1,1.2-4.7,0.5-6-1.6
						c-0.6-1-0.7-2.2-0.4-3.3s1-2.1,2-2.6C42.1,159.8,43.3,159.7,44.4,160z"/>
				</g>
			</g>
		</g>
		<path class="st7" d="M88.3,15.1c2.1-7.6,10.8-11.6,18.2-7.4c3.7,2.1,6.1,6.3,6.1,10.6c-0.1,8.5-8,14-15.6,12l0,0
			C90.4,28.5,86.5,21.7,88.3,15.1L88.3,15.1z"/>
	</g>
</g>
<g class="st0">
	<polygon class="st3" points="100.2,173.2 83.3,169.5 78,153.7 79.8,147.7 93.6,137.1 106.1,142.6 110.4,158.6 116.4,165.4 
		116.4,173.2 108.5,176 	"/>
	<g class="st1">
		<polyline class="st10" points="99.9,139.6 117.5,83.8 126.9,78.9 146.3,76.7 157.1,85.2 160.9,102.7 170.5,117.1 165.9,139.8 
			164.2,150.5 155.1,165.4 133.2,170.5 117.8,168.4 99.9,158.9 97.5,123.4 97.3,119.7 		"/>
		<g>
			<g>
				<g>
					<path class="st2" d="M131,86.9c-3.2,0-6.2-1.1-9.2-3.5c-0.5-0.4-0.9-0.8-1.2-1.1c-0.3-0.3-0.6-0.6-0.9-0.8
						c-0.1,0-0.1-0.1-0.2-0.1h-1.1l-0.5-1.9c-0.1-0.4-0.1-0.9,0.1-1.4v-2.8h2.5c1,0,1.7,0.5,2,0.7l0.2,0.1l1,1c0.5,0.5,1,1,1.7,1.5
						l0.3,0.3c1.8,1.4,3.6,2.1,5.3,2.1c1.9,0,4.2-0.8,6.9-2.5c1.2-0.7,2.4-1.5,3.4-2.1l0.1-0.1c1.4-0.8,2.5-1.4,4-1.4h2.5v5.6
						l-1.9,0.5c-0.2,0-0.8,0.3-1.8,0.8c-0.9,0.4-2.1,1.2-3.3,1.9C138.4,85.2,134.9,86.9,131,86.9z"/>
					<path class="st11" d="M145.6,77.4v1.1c-0.5,0.1-1.3,0.5-2.3,1s-2.2,1.2-3.4,2c-2.6,1.5-5.6,2.9-8.8,2.9c-3.3,0-5.8-1.5-7.6-2.9
						c-0.9-0.7-1.6-1.5-2.2-2c-0.4-0.2-0.6-0.5-0.7-0.6c0,0-0.1,0,0.1-0.1c0,0,0,0,0-0.2v-0.9c0.4,0,0.5,0.2,0.7,0.4
						c0.2,0.2,0.5,0.5,0.7,0.7c0.6,0.6,1.3,1.2,2.2,2c1.7,1.3,4,2.7,6.9,2.7s5.8-1.3,8.2-2.8c1.2-0.7,2.4-1.5,3.4-2.1
						C143.9,77.9,144.7,77.4,145.6,77.4 M150.6,72.4h-5c-2.1,0-3.7,0.9-5.2,1.7l-0.1,0l-0.1,0.1l-0.1,0.1c-0.9,0.6-2.2,1.3-3.3,2
						c-2.9,1.7-4.7,2.1-5.6,2.1c-1.1,0-2.3-0.5-3.7-1.6l-0.3-0.2c-0.6-0.5-1.2-1-1.5-1.4l-0.7-0.7l-0.6-0.6l-0.4-0.2
						c-1-0.7-2.1-1.1-3.3-1.1h-5v5c-0.2,0.8-0.2,1.6,0,2.4l0.9,3.9l2.1,0c0.1,0.1,0.2,0.2,0.3,0.3c0.4,0.3,0.8,0.7,1.2,1.1l0.1,0.1
						l0.1,0.1c3.4,2.7,6.9,4,10.7,4c4.4,0,8.4-1.9,11.3-3.6l0,0l0,0c1.1-0.7,2.3-1.4,3.1-1.8c0.8-0.4,1.2-0.6,1.4-0.6l3.7-0.9v-3.9
						v-1.1V72.4L150.6,72.4z"/>
				</g>
				<g>
					<path class="st2" d="M161.5,182.4c-5.4,0-9.8-2.8-12.3-7.7c-0.1-0.2-0.2-0.3-0.3-0.5c-2.6,0-5.1-0.4-7.3-0.7
						c-1.8-0.3-3.5-0.5-5-0.5c-0.3,0-0.6,0-1,0c-3.1,0.2-5.6,0.7-7.8,1.1c-1.5,0.3-2.9,0.6-4.3,0.7c-1.7,2.8-4.6,4.7-8.1,5.5
						c-1.3,0.3-2.7,0.5-4.2,0.5c-4,0-8.5-1.2-13-3.5c-3.1-1.6-6.9-2.1-10.6-2.5c-1.8-0.2-3.5-0.4-5.1-0.7c-3.6-0.8-6-2.4-7.2-4.8
						c-1.3-2.7-1.2-6.1,0.5-10.7c0.3-0.8-0.1-2.7-0.3-4.3l0-0.2l-0.1-0.6c-0.3-2.4-0.5-5,0.8-7.6c1.6-3.2,4.5-4.5,6.5-5.2
						c0.4-0.2,0.8-0.3,1.2-0.4c1.2-0.4,2-0.7,2.6-1.3c0.5-0.5,1.1-1.3,1.7-2.1c0.6-0.8,1.3-1.7,2-2.5c-0.4-4.4,0.2-9.1,2-14.6
						c3.5-10.7,10.9-20.8,16.4-27.5c4.2-5.9,5.3-10.6,5.7-16.5c0-1.2-0.1-3-0.2-5.2c-0.7-11.4-2.1-32.5,21.2-34.4
						c1.1-0.1,2.2-0.1,3.1-0.1c6.7,0,12,2,15.9,5.9c7.9,8,7.7,22,7.6,31.3l0,1.6c-0.1,7.2,4,12.4,8.3,17.8l0.4,0.5
						c4.1,4.9,9.9,12.5,13.2,21.2c2.8,7.8,3.4,14.8,1.6,21.5c0.3,0.2,0.5,0.4,0.8,0.6c2.6,2.2,3.3,5.5,3.8,7.6
						c0.3,1.4,0.8,3.6,1.4,4.3c3.6,4,5.1,7.1,4.9,10c-0.2,2.8-1.8,5.2-5,7c-1.3,0.7-2.6,1.4-4,2.1c-3.4,1.7-7,3.4-9.4,6.3
						c-4.2,5-9.7,8.2-15.1,8.6C162.3,182.3,161.9,182.4,161.5,182.4z M155.6,172.1c1.4,2.3,3.3,3.5,5.8,3.5c0.3,0,0.5,0,0.8,0
						c3.4-0.3,7.2-2.6,10.3-6.2c3.3-4,7.9-6.2,11.6-7.9c1.3-0.6,2.5-1.2,3.4-1.8c1-0.6,1.6-1.1,1.7-1.5c-0.1-0.5-0.5-2-3.1-4.9
						c-1.9-2-2.4-4.5-2.9-6.8l-0.1-0.6c-0.4-1.8-0.8-2.9-1.2-3.5c-1.3-0.6-3.1-1.3-3.8-1.3h-0.2c-2.5,2.4-6.7,4.7-10.3,4.7
						c-0.7,0-1.3-0.1-1.9-0.2c-2.8-0.6-4.7-2.7-5.9-5.3c-0.1,0.4-0.3,0.8-0.4,1.2c-0.5,2.2-0.7,5.1-1,8.4l-0.2,1.8
						c0,2.8-1,6.1-1.9,9.2c-0.2,0.8-0.5,1.7-0.7,2.5c-1,3.5-1.1,5.6-0.9,6.9h0.9V172.1z M90.2,144.5c-1.6,1.2-3.3,1.8-4.7,2.3
						c-0.3,0.1-0.5,0.2-0.8,0.3c-1.6,0.6-2.1,0.9-2.7,1.9c-0.3,0.6-0.3,1.9,0,3.9l0.1,0.5c0.4,2.3,0.8,4.8-0.1,7.3
						c-1.4,4-0.9,5.2-0.9,5.3c0.1,0.3,0.7,0.7,2.6,1.1c1.2,0.3,2.8,0.4,4.4,0.6c3.9,0.4,8.7,1,13.1,3.3c3.3,1.8,6.9,2.7,10,2.7
						c0.9,0,1.8-0.1,2.5-0.3c2.9-0.8,4.4-2.3,4.7-5.3c-0.1-1.1-0.7-3.4-3.9-7.4c-0.8-1-1.6-2-2.3-3c-2-2.5-3.9-4.9-5-7.3L107,150
						v-0.2c-1.3-2.9-3-6.4-4.8-8.7c-2-2.8-3.3-3.3-4.3-3.4l-0.2,0l-0.2-0.1c0,0-0.1,0-0.2,0c-0.5,0-1,0.1-1.9,1.1l-0.1,0.1
						c-0.6,0.6-1.1,1.3-1.7,2.2c-0.6,0.9-1.3,1.8-2.1,2.7l-0.7,0.8H90.2z M122.4,159.4c3.5,2.3,7.5,3.5,11.7,3.5
						c5.3,0,10.9-1.9,15.8-5.3c0.7-2.5,1.4-5,1.5-6.6c0.3-4.6,0.5-8.3,1.3-11.5c1-4.2,3-7.1,5.9-8.6l0.2-0.1c0.5-2.3,1.8-4,3.6-4.9
						c-1-5.5-3.1-11.2-6.2-17c-2.9-5.5-7-15.2-9.4-23c-1.2,0.8-2.6,1.4-4.1,1.9l-0.1,0c-0.5,0.1-1.3,0.6-2.1,1.2
						c-0.5,0.3-1.1,0.7-1.7,1c-2.4,1.4-4.8,2.1-7.3,2.1c-0.2,0-0.4,0-0.6,0c-2.5-0.1-4.7-1-6.6-2.5c-0.5-0.4-0.9-0.8-1.4-1.2
						c-0.1-0.1-0.2-0.1-0.2-0.2c-1.5,7.9-5.5,16.6-8.5,23.1c-0.8,1.7-1.5,3.2-2.1,4.5c-2.3,5.7-3.5,11.1-3.6,16.1l-0.1,2.4
						c0.5,0.4,0.9,0.7,1.5,1c5,3,8.8,6.3,11.2,9.6c2.5,3.2,3.4,6.5,2.5,9.1c-0.4,1.3-1.4,2.5-2.6,3.2
						C121.5,158,122,158.7,122.4,159.4z M165.7,131.7c-0.3,0-0.4,0.1-0.4,0.1c0,0-0.2,0.2-0.2,0.7l0,0.1c-0.3,2.1,0.7,4.5,1.7,4.8
						c0.1,0,0.2,0,0.3,0c1.6,0,3.9-1.8,4.3-2.5c0.1-0.3,0.1-0.4,0.1-0.4c0,0-0.3-0.7-3-2C167,131.8,166.1,131.7,165.7,131.7z
						 M162.7,100.3L162.7,100.3z M128.1,84.8c0.7,0.5,1.6,1.1,3.1,1.1c0.3,0,0.6,0,0.8,0c1.3,0,2.4-0.3,3.7-1.1
						c0.6-0.3,1-0.6,1.5-0.9c1.1-0.7,2.3-1.5,3.7-1.9c2.6-0.9,4.2-2.4,4.6-3.5c0.1-0.4,0.1-0.5,0-0.6l-0.1-0.1l-0.1-0.1
						c-0.1-0.1-0.5-0.6-1.5-1c-1.2-0.5-2.2-0.8-3-1.1c-1.3-0.4-2.4-0.8-3.7-1.6c-2.1-1.4-4-2.1-5.8-2.1c-0.6,0-1.3,0.2-2,0.4
						c-1.7,0.5-2.9,1.7-3.8,2.6l-0.2,0.2c-0.3,0.3-0.5,0.5-0.8,0.6c-0.1,0.1-0.3,0.2-0.5,0.4l-0.1,0.1l-0.1,0.1
						c-0.2,0.1-0.6,0.5-1.1,0.8c-0.4,0.3-0.9,0.7-1.5,1.1c-0.2,0.2-0.3,0.3-0.3,0.3c0,0,0,0.1,0,0.3c0.1,0.5,0.9,1.6,2.9,2.8
						c1.4,0.8,2.5,1.8,3.5,2.7L128.1,84.8z M141,60.9c1.3,0,2.4,0.5,3.4,1.5c0.2,0.2,0.4,0.4,0.6,0.7c-0.4-0.7-0.9-1.3-1.6-1.8
						c-0.6-0.5-1.2-0.7-1.9-0.7h-0.1c-0.6,0-1.1,0.2-1.7,0.6c0.4-0.1,0.8-0.2,1.2-0.2H141z M124.1,61.8c0.3,0,0.5,0,0.7,0.1
						c-0.3-0.2-0.4-0.2-0.6-0.2h-0.2c-0.1,0-0.3,0.1-0.4,0.2c0.1,0,0.3,0,0.4,0H124.1z"/>
					<path class="st11" d="M138.4,38.5c22.3,0,21.1,23.5,20.9,36.2c-0.1,8.3,4.5,14,9.2,19.8c4.2,5,9.7,12.2,12.9,20.6
						c2.4,6.7,3.6,14.2,1,21.8c0.7,0.2,1.5,0.7,2.2,1.3c1.8,1.6,2.4,4,2.9,6.2c0.5,2.2,1,4.3,2,5.4c3.1,3.4,4.4,6,4.3,8.2
						c-0.1,2.2-1.7,3.8-3.8,5c-4.2,2.4-10.3,4.4-14.1,8.9l-0.7-0.6l0.7,0.6c-3.9,4.7-8.8,7.3-13.3,7.7c-0.3,0-0.7,0-1,0
						c-4.1,0-8-2.1-10.1-6.4c-0.4-0.6-0.6-1.2-0.7-1.8c-0.5,0-1.1,0-1.6,0c-4.7,0-8.9-1.2-12.4-1.2c-0.4,0-0.8,0-1.2,0
						c-6.1,0.4-9.9,1.8-13.3,1.8c-1.3,2.9-3.9,4.8-7.1,5.5c-1.1,0.3-2.3,0.4-3.6,0.4c-3.6,0-7.7-1.1-11.8-3.2
						c-5.1-2.7-11.6-2.4-16.4-3.4c-2.3-0.5-4.5-1.5-5.5-3.4c-1-2-0.9-4.7,0.6-8.7c0.5-1.5,0.1-3.6-0.2-5.8c-0.2-2.3-0.6-4.7,0.5-6.7
						c1.2-2.4,3.3-3.4,5.1-4c1.8-0.7,3.4-1.1,4.7-2.3c1.2-1.2,2.4-3.3,3.9-4.9c0.1-0.2,0.4-0.4,0.6-0.6c-0.7-4.8,0.1-9.8,1.7-14.7
						c3.4-10.4,10.8-20.5,16-26.7c4.5-6.4,5.8-11.4,6.2-17.9c0.4-8.8-6.2-35.3,18.7-37.2C136.5,38.5,137.5,38.5,138.4,38.5
						 M137.8,69.7c-0.1-0.5-0.1-1-0.1-1.5v-0.1c0-0.9,0.1-1.7,0.5-2.4c0.4-0.7,0.7-1.2,1.2-1.7c0.5-0.4,0.9-0.6,1.5-0.6
						c0.1,0,0.1,0,0.1,0c0.6,0,1.1,0.2,1.6,0.7c0.5,0.5,0.9,1,1.1,1.8c0.2,0.9,0.4,1.6,0.4,2.4c0,0.1,0,0.1,0,0.1
						c0,0.9-0.1,1.7-0.5,2.4c-0.2,0.5-0.5,0.9-0.7,1.2c0.9,0.4,1.8,0.7,3.1,1.2c0.1,0.1,0.4,0.1,0.5,0.2c0.5-0.6,0.9-1.2,1.2-2.1
						c0.6-1.5,0.9-2.8,0.9-4.5v-0.1c0-1.7-0.4-3.1-1-4.4c-0.6-1.5-1.5-2.4-2.6-3.3c-1.1-0.9-2.2-1.2-3.4-1.2h-0.1
						c-1.2,0-2.3,0.4-3.4,1.2c-1.1,0.9-2,1.8-2.6,3.3c-0.6,1.5-0.9,2.8-0.9,4.5v0.1c0,0.5,0.1,0.9,0.1,1.3
						C135.6,68.7,136.7,69.1,137.8,69.7 M122,73.6c0.2-0.2,0.5-0.5,0.7-0.6c0.4-0.2,0.6-0.4,1-0.7c-0.1,0-0.1-0.1-0.2-0.1
						c-0.4-0.4-0.7-0.9-1-1.5c-0.2-0.6-0.4-1.2-0.5-2v-0.1c-0.1-0.7,0-1.3,0.1-2.1c0.1-0.6,0.4-1.2,0.7-1.6c0.2-0.4,0.6-0.6,1.1-0.6
						h0.1c0.4,0,0.7,0.1,1.1,0.5c0.4,0.4,0.7,0.9,1,1.5c0.2,0.6,0.4,1.2,0.5,2c0,0.1,0,0.1,0,0.1c0.1,0.6,0.1,1.1,0,1.6
						c0.7-0.5,1.5-0.9,2.4-1.2c0.1,0,0.4-0.1,0.5-0.1c0-0.5,0-1.1,0-1.7c0-1.5-0.4-2.7-0.9-3.9c-0.6-1.2-1.2-2.1-2.1-2.8
						c-0.9-0.7-1.6-1-2.4-1c-0.1,0-0.1,0-0.2,0c-1,0-1.8,0.5-2.6,1.2c-0.7,0.9-1.3,1.7-1.7,3.1c-0.5,1.3-0.6,2.6-0.4,3.8
						c0.1,1.5,0.5,2.7,1,3.9C120.7,72.2,121.2,73,122,73.6 M132,88.5c2.1,0,3.6-0.7,5-1.5c1.7-1,3.1-2.1,4.7-2.6
						c3.2-1.1,5.5-3.1,6.2-5c0.4-1,0.4-1.8-0.1-2.7c-0.4-0.9-1.3-1.7-2.8-2.3c-3.2-1.3-4.5-1.5-6.2-2.6c-2.8-1.8-5.1-2.4-7.1-2.4
						c-1,0-1.8,0.2-2.7,0.5c-2.4,0.7-4,2.4-5,3.4c-0.2,0.2-0.5,0.4-1.1,0.9c-0.6,0.4-1.5,1.1-2.8,2.1c-1.2,0.9-1.6,2-1.2,3.3
						c0.4,1.3,1.7,2.9,4,4.3c1.5,0.9,2.6,2,3.7,2.9c1.1,0.9,2.4,1.6,4.5,1.7C131.4,88.5,131.7,88.5,132,88.5 M131.5,89.7
						c-0.2,0-0.3,0-0.5,0c-2.3-0.1-3.9-1-5.1-2c-1.2-1-2.2-2.1-3.4-2.8c-0.5-0.2-1.5-0.9-1.7-1.1c-0.6,10.4-7.6,23.5-10.9,31.1
						c-2.2,5.5-3.7,11.3-3.8,17c-6-8.1-1.6-18.4,0.7-22.8c2.4-4.3,2.9-5.8,2.6-5.8c0,0-0.1,0-0.2,0.1c-2.3,3.8-6,9.9-7.5,16.3
						c-0.7,3.3-0.9,6.6,0.1,9.7c1,3.1,3.1,5.9,6.7,8.2c5,3.1,8.4,6.1,10.5,8.9c2.1,2.7,2.7,5.1,2.1,6.9c-0.2,0.9-1,1.6-1.8,2
						c-0.7,0.2-1.6,0.5-2.7,0.5c0.5,0.7,1.1,1.3,1.6,2.1c0.9,1.1,1.6,2.2,2.3,3.3c4.3,2.9,8.9,4.2,13.5,4.2c6.5,0,12.9-2.5,18-6.3
						c0.9-2.9,1.7-5.9,1.8-8c0.2-4.2,0.5-8,1.2-11c0.7-3.1,2.1-5.6,4.7-7c0.4-0.1,0.9-0.4,1.2-0.5c0-0.2,0.1-0.5,0.1-0.7
						c0.4-2.9,2.2-4.2,4.6-4.2c1.6,0,3.6,0.5,5.8,1.5c5.1,2.3,7.1,4.4,6.2,7.2h0.1c0.4,0,0.7,0,1.1,0c1.1-3.6-1.1-6.1-7.2-9.1
						c-0.4-0.1-0.9-0.4-1.2-0.5c0.9-3.3,0.6-6.6-0.1-9.8c-1.6-7-6.2-13.2-9.7-16.3c-0.6,0-0.6,0.6,0.7,1.8
						c3.3,2.9,10.3,13.6,6.5,23.4c-1.1-0.2-2.1-0.4-3.1-0.4c-1.5-8.1-4.8-14.7-6.5-17.9c-3.2-6-8.2-18.1-10.3-26.5
						c-1.2,1.8-3.4,3.3-6.1,4.2c-1.3,0.4-2.7,1.5-4.4,2.4C136,88.9,134,89.7,131.5,89.7 M167.1,139.9c2.6,0,5.8-2.4,6.5-3.9
						c1.1-2.3-0.1-3.8-4-5.8c-1.5-0.6-2.8-1-3.9-1c-1.7,0-2.8,1-3.1,2.9c-0.5,2.9,0.9,6.9,3.6,7.6
						C166.5,139.9,166.8,139.9,167.1,139.9 M152.8,172.6h0.2v0.1c1.9,3.6,4.8,5.3,8.3,5.3c0.3,0,0.7,0,1,0c3.9-0.4,8.3-2.8,12-7.1
						c4.2-5,10.8-7,14.4-9.2c1.8-1.1,2.8-2.2,2.9-3.6c0-1.3-0.9-3.6-3.8-6.7c-1.6-1.7-2-4-2.4-6.2c-0.5-2.2-1.1-4.2-2.3-5.1h-0.1
						c0,0-3.2-1.6-5-1.6c-0.4,0-0.9,0-1.2,0c-1.8,2.2-5.9,4.7-9.2,4.7c-0.5,0-0.9,0-1.3-0.2c-3.2-0.7-5-4.4-5.3-8.1
						c-0.1,0-0.1,0.1-0.2,0.1c-2,1-3.1,2.9-3.8,5.8c-0.6,2.8-0.9,6.5-1.2,10.7c0,3.2-1.5,7.2-2.6,11.1
						C152.1,166.5,151.6,170.3,152.8,172.6 M111.3,176.2c1.1,0,2.1-0.1,3.1-0.3c3.8-1,6.2-3.3,6.6-7.7c0,0.1,0,0.1,0,0.2v0
						c0-0.1,0-0.1,0-0.2c0,0,0,0,0,0c-0.1-2.5-1.9-5.8-4.4-9c-2.6-3.4-5.6-6.7-7.1-9.8v-0.1c-1.7-3.8-3.4-7.2-5.3-9.7
						c-1.8-2.6-3.7-4-5.9-4.4c-0.4-0.1-0.7-0.1-1-0.1c-1.6,0-2.7,0.7-3.8,2c-1.3,1.3-2.4,3.3-3.9,4.9h-0.4c-1.6,1.6-3.7,2.1-5.4,2.7
						c-1.7,0.6-3.1,1.2-4,3.1c-0.7,1.3-0.6,3.3-0.2,5.5c0.4,2.2,0.9,4.5,0.1,6.6c-1.3,3.8-1.3,6-0.7,7.2c0.6,1.3,2.1,2,4.3,2.4
						c4.3,1,11.1,0.6,16.9,3.7C104,175.2,108,176.2,111.3,176.2 M138.4,33.5c-0.9,0-2.1,0-3.3,0.1c-13.9,1.1-19.5,9.1-21.8,15.6
						c-2.6,7.3-2,15.5-1.6,21.4c0.1,2,0.2,3.7,0.2,4.9c-0.4,5.6-1.4,9.7-5.2,15.1c-5.7,6.8-13.2,17.1-16.8,28.2
						c-1.7,5.4-2.5,10.1-2.2,14.6c-0.5,0.6-1,1.3-1.4,1.9c-0.5,0.7-1.1,1.4-1.4,1.8c-0.2,0.2-1,0.5-1.7,0.7
						c-0.4,0.1-0.8,0.3-1.2,0.4c-2.4,0.8-5.8,2.4-7.9,6.5c-1.7,3.3-1.3,6.6-1.1,9l0.1,0.5l0,0.1l0,0.1l0,0.2
						c0.2,1.1,0.4,2.7,0.4,3.2c-1.2,3.3-2.5,8.2-0.3,12.4c1.6,3.1,4.6,5.2,9,6.1c1.7,0.4,3.6,0.6,5.4,0.8c3.5,0.4,7,0.8,9.7,2.2l0,0
						l0,0c4.8,2.5,9.7,3.8,14.1,3.8c1.7,0,3.3-0.2,4.8-0.6c3.7-0.9,6.8-2.8,8.9-5.6c1.1-0.2,2.2-0.4,3.3-0.6c2.1-0.4,4.5-0.9,7.4-1
						l0.1,0l0.1,0c0.2,0,0.5,0,0.7,0c1.3,0,2.9,0.2,4.6,0.5c1.9,0.3,3.9,0.6,6.2,0.7c3,5.2,8.2,8.2,14.1,8.2c0.5,0,0.9,0,1.4-0.1
						c4.6-0.4,9.2-2.5,13.3-5.9l0.3,0.3l3.2-3.8c0,0,0,0,0,0l0-0.1c2.1-2.4,5.3-4,8.5-5.6c1.4-0.7,2.9-1.4,4.2-2.2
						c4.9-2.9,6.1-6.5,6.3-9.1c0.3-4.6-2.8-8.7-5.5-11.7c-0.3-0.6-0.7-2.4-0.9-3.2c-0.5-2.2-1.3-6-4.3-8.7c1.4-6.6,0.7-13.8-2-21.3
						l0,0l0,0c-3.5-9.1-9.4-16.9-13.6-21.9L172,91c-4.2-5.3-7.8-9.9-7.7-16.2l0-1.6c0.1-9.7,0.3-24.4-8.3-33.1
						C151.7,35.7,145.8,33.5,138.4,33.5L138.4,33.5z M130.4,74.6c0.5-0.2,1-0.3,1.3-0.3c1.2,0,2.7,0.6,4.4,1.6
						c1.5,1,2.8,1.4,4.2,1.9c0.6,0.2,1.2,0.4,2,0.7c-0.5,0.4-1.2,0.7-2.1,1c-1.7,0.5-3,1.4-4.2,2.2c-0.5,0.3-0.9,0.6-1.3,0.8l-0.1,0
						l-0.1,0c-0.9,0.6-1.6,0.8-2.4,0.8c-0.2,0-0.3,0-0.5,0l-0.1,0l-0.1,0c-0.8,0-1.2-0.2-1.6-0.6c-0.1-0.1-0.3-0.2-0.4-0.4
						c-1-0.9-2.3-2.1-3.9-3c-0.3-0.2-0.5-0.3-0.7-0.5c0.3-0.2,0.7-0.5,0.8-0.6l0.3-0.2L126,78c0.2-0.2,0.3-0.3,0.5-0.3
						c0.3-0.2,0.6-0.5,1.1-0.9l0.2-0.2C128.4,75.8,129.3,75,130.4,74.6L130.4,74.6z M131.5,94.7c2.9,0,5.8-0.8,8.6-2.4
						c0.7-0.4,1.3-0.8,1.8-1.1c0.5-0.3,1.2-0.8,1.5-0.9l0.1,0l0.1,0c0.6-0.2,1.3-0.4,1.9-0.7c2.5,7.4,6,15.6,8.6,20.6
						c2.7,5,4.6,9.9,5.6,14.6c-1.4,1.1-2.4,2.6-3,4.4c-3.2,2-5.3,5.2-6.4,9.8c-0.9,3.6-1.1,8-1.4,11.9c-0.1,1.2-0.6,3.2-1.2,5.2
						c-4.3,2.8-9.1,4.4-13.7,4.4c-3.5,0-6.7-0.9-9.7-2.7c0.7-0.8,1.3-1.8,1.6-2.8c1.2-3.5,0.2-7.5-2.9-11.4
						c-2.6-3.5-6.6-7-11.9-10.2c-0.1-0.1-0.2-0.1-0.2-0.2l0-1.1c0.1-4.7,1.2-9.8,3.4-15.2c0.6-1.3,1.3-2.8,2-4.4
						c2.6-5.6,5.9-12.7,7.8-19.7c2,1.2,4.1,1.9,6.5,2C131.1,94.7,131.3,94.7,131.5,94.7L131.5,94.7z M91,147h0.8l1.5-1.6
						c0.9-1,1.6-2,2.3-2.9c0.5-0.7,1.1-1.5,1.5-1.9l0.1-0.1l0.1-0.1c0.1-0.1,0.2-0.2,0.2-0.2c0.7,0.1,1.6,0.9,2.6,2.4l0,0l0,0
						c1.5,2,3,5.1,4.3,7.8v0.2l0.5,1c1.3,2.7,3.3,5.2,5.3,7.7c0.8,1,1.5,1.9,2.3,2.9l0,0l0,0c2.7,3.4,3.2,5.3,3.3,5.9
						c-0.2,1.7-0.9,2.4-2.8,2.9c-0.6,0.1-1.2,0.2-1.9,0.2c-2.7,0-5.8-0.9-8.8-2.4c-4.8-2.5-9.9-3.1-14-3.5c-1.6-0.2-3.1-0.3-4.1-0.6
						c-0.3-0.1-0.5-0.1-0.7-0.2c0.1-0.6,0.3-1.5,0.8-2.9c1.1-3.1,0.6-6.2,0.2-8.6l-0.1-0.5c-0.3-1.5-0.2-2.2-0.2-2.4
						c0.1-0.2,0.3-0.3,1.2-0.6c0.2-0.1,0.5-0.2,0.8-0.3C87.7,148.7,89.4,148.1,91,147L91,147z M167.6,148.1c3.9,0,8.1-2.1,11-4.5
						c0.4,0.1,0.9,0.3,1.4,0.5c0.1,0.4,0.3,1,0.6,2.1l0.1,0.6c0.5,2.4,1.2,5.4,3.5,7.9c1,1.1,1.7,2,2,2.6c0,0,0,0-0.1,0
						c-0.8,0.5-2,1-3.2,1.6c-3.7,1.8-8.8,4.2-12.5,8.6c-2.7,3.1-5.9,5.1-8.6,5.4c-0.2,0-0.4,0-0.6,0c-1,0-2.2-0.2-3.3-1.7v-3.7h-0.9
						c0.1-0.9,0.4-2.1,0.8-3.7c0.2-0.8,0.5-1.6,0.7-2.4c1-3.3,2-6.6,2-9.8c0.1-0.6,0.1-1.2,0.1-1.7c0.1-1.4,0.2-2.7,0.4-4
						c1.2,0.9,2.5,1.5,3.9,1.9C165.9,148,166.8,148.1,167.6,148.1L167.6,148.1z"/>
				</g>
			</g>
		</g>
	</g>
</g>
<g class="st0">
	<g class="st1">
		<path class="st2" d="M100.8,195c-52.6,0-95.2-42.6-95.2-95.2S48.2,4.6,100.8,4.6S196,47.2,196,99.8
			C195.9,152.3,153.3,194.9,100.8,195z M100.8,22.3C58,22.3,23.3,57,23.3,99.8s34.7,77.5,77.5,77.5s77.5-34.7,77.5-77.5
			C178.2,57,143.6,22.3,100.8,22.3z"/>
		<path class="st2" d="M100.8,195c-28.5,0-49.9-40.9-49.9-95.2S72.3,4.6,100.8,4.6s49.9,40.9,49.9,95.2S129.3,195,100.8,195z
			 M100.8,22.3c-15.2,0-32.2,33.1-32.2,77.5s17,77.5,32.2,77.5S133,144.2,133,99.8S116,22.3,100.8,22.3z"/>
		<path class="st2" d="M179.9,76.5H21.6c-4.9,2.2-8.9-1.8-8.9-6.7s4-8.9,8.9-17h158.3c4.9,8.1,8.9,12.1,8.9,17
			S184.8,78.7,179.9,76.5z"/>
		<path class="st2" d="M179.9,135.6H21.6c-4.9,3-8.9-1-8.9-5.9c0-4.9,4-8.9,8.9-17.7h158.3c4.9,8.9,8.9,12.8,8.9,17.7
			S184.8,138.5,179.9,135.6z"/>
	</g>
	<rect x="11.3" y="69.2" class="st3" width="169.3" height="53.9"/>
	<g class="st1">
		<path class="st12" d="M37.5,112.8l-11-34.9h9l6.5,22.9l6-22.9h8.9l5.8,22.9l6.7-22.9h9.1l-11.2,34.9h-8.9l-6-22.5l-5.9,22.5H37.5z
			"/>
		<path class="st12" d="M86.6,112.8l-11-34.9h9l6.5,22.9l6-22.9h8.9l5.8,22.9l6.7-22.9h9.1l-11.2,34.9h-8.9l-6-22.5l-5.9,22.5H86.6z
			"/>
		<path class="st12" d="M135.8,112.8l-11-34.9h9l6.5,22.9l6-22.9h8.9l5.8,22.9l6.7-22.9h9.1l-11.2,34.9h-8.9l-6-22.5l-5.9,22.5
			H135.8z"/>
	</g>
</g>
<g class="st0">
	<g class="st1">
		<path class="st2" d="M83,64.6c0.2,0.2,0.5,0.4,0.9,0.8c0.7,0.7,1.7,1.6,2.9,2.5c2.4,1.9,5.7,3.8,9.8,3.8c4.2,0,8.1-1.9,11.4-3.9
			c1.7-1,3.2-1.9,4.5-2.6s2.4-1.2,3-1.2l-0.1-1.4l0,0c-1.1,0.1-2.3,0.6-3.6,1.4c-1.3,0.7-2.8,1.7-4.5,2.6c-3.3,1.9-7,3.7-10.7,3.7
			s-6.7-1.7-9-3.5c-1.1-0.9-2.1-1.8-2.8-2.5c-0.4-0.3-0.7-0.7-1-0.9s-0.5-0.4-1-0.4v1c0,0.4-0.1,0.3-0.1,0.4
			C82.8,64.5,82.9,64.5,83,64.6z"/>
		<path class="st2" d="M173.3,174.2c2.7-1.6,4.8-3.6,5-6.6c0.2-2.9-1.6-6.2-5.5-10.6l0,0c-1.3-1.5-1.9-4.2-2.6-7.1
			c-0.7-2.9-1.4-6-3.8-8.1l0,0c-0.9-0.8-1.9-1.4-2.9-1.8c3.3-9.8,2-19.6-1.3-28.4c-4.1-10.8-11.2-20.3-16.7-26.7
			c-6.1-7.7-12.1-15-12-25.8c0.2-16.5,1.8-47.1-27.2-47.2c-1.2,0-2.4,0-3.7,0.1c-32.5,2.6-23.8,36.9-24.3,48.4
			c-0.6,8.4-2.3,15-8.1,23.2c-6.8,8.1-16.4,21.1-20.9,34.7c-2.1,6.4-3.1,13-2.2,19.2c-0.3,0.3-0.6,0.5-0.8,0.8
			c-2,2.1-3.5,4.7-5.1,6.4c-1.5,1.5-3.7,2.1-6.1,3c-2.4,0.9-5,2.1-6.6,5.2l0,0c-1.4,2.7-1,5.8-0.6,8.7s0.9,5.6,0.3,7.4
			c-1.9,5.2-2.1,8.8-0.8,11.4c1.3,2.6,4.1,3.8,7.2,4.4c6.2,1.3,14.6,1,21.3,4.5v0.1c7.1,3.7,14.3,5,20.1,3.7c4.2-1,7.6-3.4,9.3-7.2
			c4.5,0,9.4-1.9,17.4-2.4c5.4-0.4,12.1,1.9,19.8,1.5c0.2,0.8,0.5,1.6,0.9,2.4l0,0c3,6,8.6,8.7,14.5,8.2c5.9-0.5,12.2-4,17.3-10
			l-0.9-0.8l0.9,0.8C159.9,179.9,167.9,177.4,173.3,174.2z M101.1,49.1c0-2.2,0.3-4,1.2-5.9c0.8-1.9,1.9-3.2,3.3-4.3
			s2.8-1.6,4.5-1.6h0.1c1.6,0,3,0.5,4.5,1.5c1.5,1.1,2.5,2.4,3.4,4.3c0.8,1.8,1.2,3.6,1.3,5.7c0,0.1,0,0.1,0,0.2
			c0,2.2-0.4,4-1.2,5.9c-0.5,1.1-1,2-1.6,2.8c-0.2-0.1-0.5-0.2-0.7-0.3c-1.6-0.7-2.9-1.2-3.9-1.5c0.4-0.5,0.7-1,1-1.7
			c0.4-1,0.6-2,0.7-3.2v-0.1c0-1.1-0.1-2.1-0.5-3.1c-0.3-1-0.8-1.8-1.4-2.4c-0.6-0.6-1.3-0.9-2-0.9h-0.1c-0.7,0-1.3,0.2-2,0.8
			s-1.2,1.3-1.6,2.3s-0.6,2-0.7,3.2v0.1c0,0.7,0,1.3,0.1,1.8c-1.5-0.7-2.9-1.2-4.2-1.6c-0.1-0.6-0.1-1.1-0.1-1.7v-0.3H101.1z
			 M81.8,44.5c0.5-1.7,1.2-2.9,2.2-3.9s2-1.5,3.3-1.6l0,0c0.1,0,0.2,0,0.3,0c1.1,0,2.1,0.4,3.1,1.2c1.1,0.9,2,2,2.7,3.7
			c0.7,1.6,1.1,3.2,1.2,5.1c0.1,0.8,0,1.6,0,2.3c-0.2,0.1-0.4,0.1-0.7,0.2c-1.2,0.4-2.3,1-3.2,1.6c0.1-0.6,0.1-1.3,0-2V51
			c-0.1-1-0.3-1.8-0.7-2.6c-0.4-0.8-0.8-1.4-1.3-1.9c-0.5-0.4-0.9-0.6-1.4-0.6c-0.1,0-0.1,0-0.2,0c-0.6,0-1,0.3-1.5,0.9
			c-0.4,0.5-0.7,1.2-0.9,2.1c-0.2,0.9-0.3,1.8-0.2,2.8v0.1c0.1,1,0.3,1.8,0.7,2.6c0.4,0.8,0.8,1.4,1.3,1.9c0.1,0.1,0.2,0.1,0.3,0.2
			c-0.6,0.4-0.8,0.6-1.3,1c-0.3,0.2-0.6,0.5-1,0.8c-0.9-0.8-1.6-1.9-2.2-3.2c-0.7-1.6-1.1-3.2-1.2-5.1l0,0
			C81,47.9,81.2,46.2,81.8,44.5z M82.3,61c1.7-1.3,2.9-2.2,3.7-2.7c0.8-0.6,1.1-0.8,1.4-1.1c1.3-1.2,3.4-3.5,6.5-4.5
			c1.1-0.4,2.3-0.6,3.6-0.6l0,0l0,0l0,0l0,0c2.5,0,5.6,0.8,9.3,3.2c2.3,1.5,4.1,1.6,8.1,3.4c2,0.8,3.1,1.9,3.7,3s0.6,2.3,0.1,3.6
			c-0.9,2.5-4,5.2-8.2,6.5l0,0c-2.1,0.7-3.9,2.1-6,3.4c-2.1,1.2-4.5,2.2-7.8,2c-2.8-0.2-4.4-1.1-5.9-2.3c-1.5-1.2-2.8-2.7-4.7-3.8
			l0,0c-3.1-1.7-4.8-3.8-5.3-5.5C80.3,63.7,80.8,62.2,82.3,61z M83.6,181.1c0-0.1,0-0.2,0-0.4c-0.4,5.7-3.7,8.8-8.7,10
			c-5,1.1-11.7,0-18.5-3.5c-7.5-3.9-16.3-3.6-22-4.7c-2.8-0.6-4.7-1.5-5.6-3.1c-0.9-1.7-0.9-4.5,1-9.5l0,0l0,0
			c0.9-2.8,0.2-5.8-0.2-8.6c-0.4-2.8-0.7-5.4,0.3-7.2l0,0c1.2-2.4,3.1-3.2,5.3-4c2.3-0.8,4.9-1.4,7.1-3.6h0.4l0,0
			c1.9-2,3.4-4.6,5-6.4c1.4-1.5,2.8-2.5,5-2.6l0,0h0.1c0.4,0,0.8,0,1.2,0.1c2.8,0.4,5.3,2.4,7.7,5.7c2.4,3.3,4.6,7.7,6.9,12.7v0.2
			c1.9,4,5.9,8.3,9.3,12.7c3.3,4.3,5.8,8.6,5.7,11.9l0,0V181.1z M83.1,171.6c-0.9-1.5-2-2.9-3.1-4.3c-0.7-0.9-1.4-1.8-2.1-2.7
			c1.4,0,2.6-0.2,3.5-0.7c1.2-0.5,2-1.4,2.4-2.5c0.8-2.2,0-5.4-2.7-9s-7.1-7.6-13.7-11.7c-4.8-3-7.6-6.7-8.8-10.7
			c-1.3-4-1.1-8.4-0.1-12.6c1.9-8.2,6.7-16.2,9.8-21.2c0.8-0.6,0.3,1.1-3.1,7.5c-3.1,5.8-8.8,19.2-1,29.6c0.2-7.4,2-15,5-22.1
			c4.3-9.8,13.4-26.9,14.1-40.5c0.4,0.3,1.6,1.1,2.2,1.5c1.7,1,2.9,2.4,4.5,3.7c1.6,1.3,3.6,2.4,6.7,2.6c3.6,0.2,6.3-0.9,8.5-2.2
			c2.2-1.3,4-2.7,5.7-3.2c3.6-1.1,6.4-3.1,8-5.4c2.8,10.9,9.2,26.7,13.3,34.4c2.2,4.1,6.6,12.8,8.5,23.2c1.2,0,2.5,0.1,3.9,0.5
			c4.9-12.8-4.2-26.6-8.4-30.5c-1.7-1.6-1.8-2.4-0.9-2.3c4.5,4,10.5,12.1,12.7,21.2c1,4.1,1.2,8.5,0.1,12.8c0.5,0.2,1,0.4,1.6,0.7
			c7.9,3.9,10.9,7.2,9.5,11.8c-0.5,0-0.9,0-1.4,0h-0.1c1.1-3.6-1.4-6.3-8.2-9.4c-7-3.1-12.6-2.8-13.6,3.5c-0.1,0.3-0.1,0.7-0.1,1
			c-0.5,0.2-1,0.4-1.6,0.7c-3.3,1.8-5.1,5.1-6.1,9.1s-1.3,8.9-1.6,14.3c-0.2,2.7-1.3,6.5-2.5,10.4
			C112.7,177.3,96.7,180.9,83.1,171.6z M152.2,138.9c-1.2,2.3-6.3,5.9-9.7,4.9c-3.5-0.9-5.3-6-4.7-9.9c0.3-2.6,1.8-3.8,4-3.8
			c1.4,0,3.2,0.5,5.1,1.3C152,133.8,153.6,135.9,152.2,138.9z M153.1,184.3c-4.7,5.7-10.5,8.8-15.6,9.2s-9.5-1.7-12-6.9v-0.1h-0.3
			c-1.6-3.1-0.9-7.9,0.4-13c1.4-5.1,3.3-10.3,3.4-14.6l0,0c0.4-5.5,0.8-10.2,1.7-13.9s2.4-6.2,4.9-7.6c0.1-0.1,0.2-0.1,0.4-0.2l0,0
			c0.3,4.7,2.6,9.5,6.8,10.6c4.5,1.2,11-2.7,13.8-5.9c0.5,0,1.1,0,1.6-0.1c2.4-0.1,6.5,2,6.5,2h0.1c1.6,1.3,2.3,3.9,3,6.7
			c0.7,2.9,1.2,6,3.1,8.2l0,0c3.8,4.2,5,7,4.9,8.8s-1.4,3.1-3.8,4.6C167,175.2,158.5,177.7,153.1,184.3z"/>
	</g>
</g>
<g class="st0">
	<g id="GUIDES_64_1_" class="st1">
	</g>
	<g id="Layer_3_2_" class="st1">
	</g>
	<g id="Layer_2_3_" class="st1">
		<g>
			<path class="st2" d="M135.3,121.6c-3.5,0-6.2-2.7-6.2-6.1V89.7c0-3.1,2.3-5.7,5.4-6.1l35.5-5.1c0.3-0.1,0.7-0.1,1-0.1
				c3.3,0,6,2.8,6,6.1v31c0,3.4-2.7,6.1-6.1,6.1H135.3z"/>
			<path class="st12" d="M170.9,81.4c1.7,0,3,1.4,3,3.1v31c0,1.7-1.4,3.1-3.1,3.1h-35.6c-1.9,0-3.2-1.4-3.2-3.1V89.7
				c0-1.6,1.2-2.9,2.7-3.1l35.6-5.1C170.5,81.4,170.7,81.4,170.9,81.4 M170.9,75.4c-0.5,0-1,0-1.4,0.1L134,80.6
				c-4.5,0.6-7.9,4.4-7.9,9v25.8c0,5.1,4,9.1,9.2,9.1h35.6c5,0,9.1-4.1,9.1-9.1v-31C179.9,79.5,175.9,75.4,170.9,75.4L170.9,75.4z"
				/>
		</g>
		<g>
			<path class="st2" d="M94.9,121.6c-3.4,0-6.1-2.7-6.1-6.1V95.3c0-3,2-5.5,5.1-6.2l0.1,0l26.8-3.6c0.3-0.1,0.7-0.1,1-0.1
				c1.6,0,3.2,0.7,4.3,1.9c1.1,1.2,1.7,2.7,1.6,4.3v23.9c0,3.4-2.7,6.1-6.1,6.1H94.9z"/>
			<path class="st12" d="M121.8,88.4c1.6,0,3,1.4,2.9,3.1v24c0,1.7-1.4,3.1-3.1,3.1H94.9c-1.7,0-3.1-1.4-3.1-3.1V95.3
				c0-1.7,1.2-2.9,2.7-3.3l26.8-3.6C121.4,88.4,121.6,88.4,121.8,88.4 M121.8,82.4c-0.5,0-1,0-1.4,0.1l-26.7,3.6l-0.3,0l-0.2,0.1
				c-4.4,1-7.4,4.7-7.4,9.1v20.2c0,5,4.1,9.1,9.1,9.1h26.7c5,0,9.1-4.1,9.1-9.1V91.7c0.1-2.4-0.8-4.7-2.4-6.5
				C126.6,83.5,124.2,82.4,121.8,82.4L121.8,82.4z"/>
		</g>
		<g>
			<path class="st2" d="M122,158.7c-0.3,0-0.7,0-1-0.1l-26.7-3.8c-3-0.3-5.3-3.1-5.2-6.2v-20.4c0-3.4,2.7-6.1,6.1-6.1h26.7
				c3.4,0,6.1,2.7,6.1,6.1v24.3c0,1.6-0.6,3.1-1.7,4.3C125.1,158,123.6,158.7,122,158.7C122,158.7,122,158.7,122,158.7z"/>
			<path class="st12" d="M121.9,125.1c1.7,0,3.1,1.4,3.1,3.1v24.3c0,1.7-1.4,3.1-3,3.1c-0.2,0-0.3,0-0.5,0l-26.7-3.8
				c-1.5-0.2-2.7-1.5-2.6-3.1v-20.5c0-1.7,1.4-3.1,3.1-3.1H121.9 M121.9,119.1H95.3c-5,0-9.1,4.1-9.1,9.1v20.4
				c-0.2,4.6,3.2,8.6,7.8,9.2l26.6,3.7c0.5,0.1,1,0.1,1.4,0.1c5,0,9-4.1,9-9.1v-24.3C131,123.2,126.9,119.1,121.9,119.1L121.9,119.1
				z"/>
		</g>
		<g>
			<path class="st2" d="M170.7,165.5c-0.2,0-0.4,0-0.6,0l-0.2,0l-35.7-5.1c-3-0.4-5.4-3-5.4-6v-3h0.2v-22.7c0-3.4,2.7-6.1,6.1-6.1
				h35.7c3.4,0,6.1,2.7,6.1,6.1v30.8C177,162.8,174.1,165.5,170.7,165.5z"/>
			<path class="st12" d="M170.9,125.6c1.7,0,3.1,1.4,3.1,3.1v30.8c0,1.8-1.5,3.1-3.3,3.1c-0.1,0-0.2,0-0.3,0l-35.7-5.1
				c-1.6-0.2-2.8-1.5-2.8-3h0.2v-25.7c0-1.7,1.4-3.1,3.1-3.1H170.9 M170.9,119.6h-35.7c-5,0-9.1,4.1-9.1,9.1v19.7h-0.2v6
				c0,4.6,3.4,8.4,8,9l35.7,5.1l0.2,0l0.2,0c0.3,0,0.6,0,0.9,0c5.1,0,9.3-4.1,9.3-9.1v-30.8C180,123.6,175.9,119.6,170.9,119.6
				L170.9,119.6z"/>
		</g>
	</g>
</g>
<g class="st0">
	<g class="st1">
		<path class="st13" d="M76.7,74.4c0-12.2,9.9-22.1,22.1-22.1"/>
		<g>
			<line class="st14" x1="100" y1="125.9" x2="100" y2="130.8"/>
			<line class="st14" x1="100" y1="135.7" x2="100" y2="140.6"/>
			<line class="st14" x1="100" y1="116.1" x2="100" y2="121"/>
		</g>
		<path class="st13" d="M100,145.5v7.4h14.7l-19.6,19.6l-19.6-19.6h14.7v-14.7c0-2.5-1-5-2.9-6.9s-4.4-2.9-6.9-2.9H42.9
			c-6.9,0-13.5-3.7-16.5-10c-7.2-14.7,3.4-29.3,17.3-29.3c0.2,0,0.4,0,0.7,0c-1.2-4.8-0.9-10.2,2.9-16c2-3,4.8-5.5,8.1-6.9
			c5-2.1,9.9-2.1,14.2-0.7c3.8-13.3,16.1-23.1,30.6-23.1s26.8,9.8,30.6,23.1c4.1-1.4,8.8-1.4,13.6,0.4c3.2,1.2,6,3.5,8,6.3
			c4.4,6.2,4.8,11.8,3.5,16.8c0.2,0,0.4,0,0.7,0c13.9,0,24.5,14.5,17.3,29.3c-3,6.2-9.6,10-16.5,10h-37.5c-2.5,0-5-1-6.9-2.9
			s-2.9-4.4-2.9-6.9v-14.7h14.7l-19.6-19.6l-19.6,19.6H100v7.4"/>
	</g>
</g>
<g class="st0">
	<g class="st1">
		<path class="st2" d="M43,127.6h96.8c23.7,0,43-19.3,43-43c0-20.4-14.6-38.1-34.4-42.1c-9.5-13.2-24.6-21-40.9-21
			c-15.3,0-29.8,7-39.3,18.9C52.5,41.7,39.9,54,38,69.4c-13.8,2.4-24.3,14.4-24.3,28.9C13.7,114.5,26.8,127.6,43,127.6z"/>
		<path class="st2" d="M104.3,145.3v-17h-6.1v17c-5.6,1.2-10,5.6-11.2,11.2H45.8c-1.7,0-3.1,1.4-3.1,3.1l0,0c0,1.7,1.4,3.1,3.1,3.1
			h41.3c1.4,6.6,7.2,11.5,14.2,11.5c8,0,14.5-6.5,14.5-14.5C115.8,152.5,110.9,146.7,104.3,145.3z"/>
		<path class="st2" d="M29.6,156.2h3.4c1.9,0,3.4,1.5,3.4,3.4l0,0c0,1.9-1.5,3.4-3.4,3.4h-3.4c-1.9,0-3.4-1.5-3.4-3.4l0,0
			C26.2,157.7,27.7,156.2,29.6,156.2z"/>
		<path class="st2" d="M124.3,156.1h55.1c1.9,0,3.5,1.5,3.5,3.5l0,0c0,1.9-1.5,3.5-3.5,3.5h-55.1c-1.9,0-3.5-1.5-3.5-3.5l0,0
			C120.8,157.6,122.4,156.1,124.3,156.1z"/>
	</g>
</g>
<g class="st0">
	<g class="st1">
		<g>
			<g>
				<g>
					<path class="st2" d="M56.3,172.7c-0.9-3.6-4.2-6.3-8.1-6.3c-4.6,0-8.4,3.8-8.4,8.4s3.8,8.4,8.4,8.4c3.9,0,7.2-2.7,8.1-6.3H89
						l0.1-0.2v-3.8l-0.1-0.2L56.3,172.7L56.3,172.7z"/>
					<path class="st2" d="M162.2,166.4c-3.9,0-7.2,2.7-8.1,6.3h-32.7l-0.1,0.2v3.8l0.1,0.2h32.7c0.9,3.6,4.2,6.3,8.1,6.3
						c4.6,0,8.4-3.8,8.4-8.4C170.6,170.2,166.8,166.4,162.2,166.4z"/>
					<rect x="88.6" y="166.6" class="st2" width="33.3" height="16"/>
				</g>
			</g>
		</g>
	</g>
	<g class="st1">
		<rect x="55.5" y="50.1" class="st2" width="96.4" height="13.3"/>
		<path class="st2" d="M49.5,42.7h108.4c6.4,0,11.7-4.9,11.7-11s-5.3-11-11.7-11H49.5c-6.4,0-11.7,4.9-11.7,11S43.1,42.7,49.5,42.7z
			 M84.5,26.3c3.1,0,5.5,2.5,5.5,5.5s-2.5,5.5-5.5,5.5c-3.1,0-5.5-2.5-5.5-5.5C79.1,28.8,81.5,26.3,84.5,26.3z M67.1,26.3
			c3.1,0,5.5,2.5,5.5,5.5s-2.5,5.5-5.5,5.5s-5.5-2.5-5.5-5.5S64.2,26.3,67.1,26.3z M49.7,26.3c3.1,0,5.5,2.5,5.5,5.5
			s-2.5,5.5-5.5,5.5c-3.1,0-5.5-2.5-5.5-5.5S46.8,26.3,49.7,26.3z"/>
		<rect x="55.5" y="100.1" class="st2" width="96.4" height="13.3"/>
		<path class="st2" d="M49.5,142.5h50.9v35.2h7.4v-35.2h50.1c6.4,0,11.7-4.9,11.7-10.8c0-6-5.3-10.8-11.7-10.8h-2.3l0,0l0,0H51.8
			l0,0l0,0h-2.3c-6.4,0-11.7,4.9-11.7,10.8C37.8,137.7,43.1,142.5,49.5,142.5z M84.5,126.2c3.1,0,5.5,2.5,5.5,5.5s-2.5,5.5-5.5,5.5
			c-3.1,0-5.5-2.5-5.5-5.5C79.1,128.7,81.5,126.2,84.5,126.2z M67.1,126.2c3.1,0,5.5,2.5,5.5,5.5s-2.5,5.5-5.5,5.5s-5.5-2.5-5.5-5.5
			C61.7,128.7,64.2,126.2,67.1,126.2z M49.7,126.2c3.1,0,5.5,2.5,5.5,5.5s-2.5,5.5-5.5,5.5c-3.1,0-5.5-2.5-5.5-5.5
			C44.3,128.7,46.8,126.2,49.7,126.2z"/>
		<path class="st2" d="M49.5,92.6h108.4c6.4,0,11.7-4.9,11.7-11c0-6-5.3-11-11.7-11H49.5c-6.4,0-11.7,4.9-11.7,11
			C37.8,87.8,43.1,92.6,49.5,92.6z M84.5,76.2c3.1,0,5.5,2.5,5.5,5.5c0,3.1-2.5,5.5-5.5,5.5c-3.1,0-5.5-2.5-5.5-5.5
			C79.1,78.7,81.5,76.2,84.5,76.2z M67.1,76.2c3.1,0,5.5,2.5,5.5,5.5c0,3.1-2.5,5.5-5.5,5.5s-5.5-2.5-5.5-5.5
			C61.7,78.7,64.2,76.2,67.1,76.2z M49.7,76.2c3.1,0,5.5,2.5,5.5,5.5c0,3.1-2.5,5.5-5.5,5.5c-3.1,0-5.5-2.5-5.5-5.5
			C44.3,78.7,46.8,76.2,49.7,76.2z"/>
	</g>
</g>
<g class="st0">
	<g id="Black_1_" class="st1">
		<g>
			<line class="st15" x1="16.2" y1="124.5" x2="51.2" y2="124.5"/>
			<line class="st15" x1="30.2" y1="103.5" x2="54.7" y2="103.5"/>
			<line class="st15" x1="44.2" y1="82.5" x2="58.2" y2="82.5"/>
			<polygon class="st15" points="170.2,138.5 65.2,138.5 72.2,68.5 177.2,68.5 			"/>
			<polyline class="st15" points="72.2,68.5 124.7,110.5 177.2,68.5 			"/>
		</g>
	</g>
	<g id="Frames-24px_1_" class="st1">
		<rect x="12.7" y="16" class="st16" width="168" height="168"/>
	</g>
</g>
<g class="st0">
	<title></title>
	<g id="_21-Gmail_1_" class="st1">
		<g id="_Group__1_">
			<path class="st17" d="M26.8,152.8V165h-8.1c-6.7,0-12.2-5.5-12.2-12.2V47.2C6.5,40.4,12,35,18.7,35h12.2l69.1,61l69.1-61h12.2
				c6.7,0,12.2,5.5,12.2,12.2v105.7c0,6.7-5.5,12.2-12.2,12.2h-8.1V55.3l-73.2,65l-73.2-65V152.8z"/>
			<polygon class="st18" points="173.2,148.8 173.2,165 26.8,165 26.8,164.9 26.8,152.8 26.8,55.3 100,120.3 173.2,55.3 			"/>
			<polygon class="st18" points="169.1,35 100,95.9 30.9,35 			"/>
			<path class="st19" d="M30.9,35H18.7C12,35,6.5,40.4,6.5,47.2v105.7c0,6.7,5.5,12.2,12.2,12.2h162.6c6.7,0,12.2-5.5,12.2-12.2
				V47.2c0-6.7-5.5-12.2-12.2-12.2H30.9z"/>
			<polyline class="st19" points="26.8,148.8 26.8,55.3 100,120.3 173.2,55.3 173.2,148.8 			"/>
			<polyline class="st19" points="47.2,51.2 100,95.9 152.8,51.2 			"/>
		</g>
	</g>
</g>
<g class="st0">
	<g id="layer1_1_" transform="translate(0,-952.36218)" class="st1">
		<path id="path9843_1_" class="st20" d="M29.2,1010.7c14.6-26.4,42.8-44.3,75.1-44.3c47.4,0,85.8,38.4,85.8,85.8
			c0,47.4-38.4,85.8-85.8,85.8c-46.7,0-84.8-37.4-85.7-83.9"/>
		<path id="path9850_1_" class="st21" d="M50.7,1105.8c-5.2-10.4-7.9-31-8-51.9 M46.6,1010.8c1.1-4.9,2.5-9,4.1-12.2"/>
		<path id="path9848_1_" class="st21" d="M72.1,1116.5c-5.2-10.5-7.9-36.4-8-62.6 M66.5,1010.6c1.3-9.9,3.2-17.9,5.6-22.8"/>
		<path id="path9846_1_" class="st21" d="M93.6,1127.2c-5.3-10.5-8-41.8-8-73.4 M87.1,1010.9c1.3-15.4,3.5-27.8,6.4-33.8"/>
		<path id="path6946_1_" class="st16" d="M175,1010.9v42.9H14.2c-8.6,0-10.7-2.1-10.7-10.7v-21.4c0-8.6,2.1-10.7,10.7-10.7H175z"/>
		<path id="path4308_1_" class="st12" d="M125.7,1011.4h40.7c-8.6,15-8.6,32.2,8.6,42.9H91.4L125.7,1011.4z"/>
		<path id="path6944_1_" class="st22" d="M166.5,1010.9h-2.1 M130,1010.9H14.2c-8.6,0-10.7,2.1-10.7,10.7v21.4
			c0,8.6,2.1,10.7,10.7,10.7H100 M164.3,1053.8H175"/>
		<path id="path6950_1_" class="st23" d="M147.2,1004.5v12.9v-6.4h-6.4h12.9"/>
		<g id="g6978_1_" transform="translate(109,3.655235)">
			<g id="text6963_1_" transform="matrix(0.75018823,0,0,0.89374298,-0.08886225,179.3649)">
			</g>
			<g id="g6970_1_" transform="matrix(0.75018823,0,0,0.89374298,11.297433,179.36491)">
			</g>
			<g id="g6974_1_" transform="matrix(0.75018823,0,0,0.89374298,22.760992,179.36491)">
			</g>
		</g>
		<path id="path9852_1_" class="st21" d="M126,1102.5c-32.6,1.9-72.4-0.6-86-7.4"/>
		<path id="path9854_1_" class="st21" d="M99.2,1081.6c-28.6,0.4-58.5-2.3-70-8"/>
		<path id="path9955_1_" class="st24" d="M32,1041.4v-10c0-1.2-0.3-2-0.8-2.6c-0.5-0.5-1.3-0.8-2.4-0.8c-1.5,0-2.6,0.4-3.2,1.2
			c-0.7,0.8-1,2.1-1,4v8.1h-2.9v-21.9h2.9v6.7c0,0.8,0,1.3-0.1,1.7h-0.4c0.4-0.7,1.1-1.2,1.9-1.7s1.9-0.7,3-0.7
			c1.9,0,3.4,0.5,4.4,1.4c1,0.9,1.5,2.4,1.5,4.4v10.1H32z"/>
		<path id="path9957_1_" class="st24" d="M44.5,1039.3c0.4,0,0.8,0,1.1-0.1c0.4-0.1,0.8-0.1,1.2-0.2v2.2c-0.4,0.2-0.8,0.3-1.3,0.4
			c-0.5,0.1-0.9,0.1-1.4,0.1c-3.1,0-4.7-1.6-4.7-4.9v-8.7h-2.2v-1.6l2.2-1l1-3.3h1.9v3.5h4.4v2.3h-4.4v8.6c0,0.8,0.2,1.5,0.6,1.9
			C43.4,1039.1,43.9,1039.3,44.5,1039.3L44.5,1039.3z"/>
		<path id="path9959_1_" class="st24" d="M54.7,1039.3c0.4,0,0.8,0,1.1-0.1c0.4-0.1,0.8-0.1,1.2-0.2v2.2c-0.4,0.2-0.8,0.3-1.3,0.4
			c-0.5,0.1-0.9,0.1-1.4,0.1c-3.1,0-4.7-1.6-4.7-4.9v-8.7h-2.2v-1.6l2.2-1l1-3.3h1.9v3.5H57v2.3h-4.4v8.6c0,0.8,0.2,1.5,0.6,1.9
			C53.6,1039.1,54.1,1039.3,54.7,1039.3L54.7,1039.3z"/>
		<path id="path9961_1_" class="st24" d="M67.1,1041.7c-1,0-2-0.2-2.8-0.6c-0.9-0.4-1.5-0.9-2.1-1.6h0.3c0.1,0.7,0.2,1.4,0.2,2.2
			v6.5h-2.9v-22.4h2.4l0.3,2.1h-0.3c0.6-0.8,1.2-1.4,2.1-1.7c0.8-0.4,1.8-0.6,2.8-0.6c2.1,0,3.7,0.7,4.8,2.1
			c1.1,1.4,1.7,3.4,1.7,5.9c0,2.5-0.6,4.5-1.7,5.9C70.7,1041,69.1,1041.7,67.1,1041.7L67.1,1041.7z M66.7,1028
			c-1.4,0-2.5,0.4-3.1,1.2c-0.6,0.8-1,2.1-1,3.9l0,0.5c0,2.1,0.3,3.5,1,4.4c0.7,0.8,1.7,1.3,3.2,1.3c1.2,0,2.1-0.5,2.8-1.5
			c0.7-1,1-2.4,1-4.2c0-1.8-0.3-3.2-1-4.1C68.9,1028.5,68,1028,66.7,1028L66.7,1028z"/>
		<path id="path9963_1_" class="st24" d="M87.7,1037c0,1.5-0.6,2.6-1.7,3.4c-1.1,0.8-2.6,1.2-4.6,1.2c-2.1,0-3.7-0.4-5-1.1v-2.6
			c1,0.4,1.9,0.7,2.7,0.9c0.8,0.2,1.6,0.3,2.3,0.3c1.1,0,2-0.2,2.5-0.5c0.6-0.3,0.9-0.8,0.9-1.5c0-0.5-0.2-0.9-0.7-1.3
			c-0.5-0.4-1.4-0.8-2.8-1.4c-1.4-0.5-2.5-1-3.1-1.4c-0.6-0.4-1.1-0.9-1.4-1.4c-0.3-0.5-0.5-1.2-0.5-1.9c0-1.3,0.5-2.4,1.6-3.1
			c1.1-0.8,2.5-1.1,4.3-1.1c1.7,0,3.3,0.4,5.1,1.1l-1,2.3c-1.7-0.6-3.1-0.9-4.3-0.9c-1,0-1.8,0.1-2.2,0.4c-0.5,0.3-0.7,0.7-0.7,1.2
			c0,0.4,0.1,0.6,0.3,0.9c0.2,0.2,0.5,0.5,0.9,0.7c0.4,0.2,1.2,0.6,2.3,1.1c2,0.7,3.4,1.4,4,2.1C87.4,1035.1,87.7,1036,87.7,1037
			L87.7,1037z"/>
		<path id="path13399_1_" class="st25" d="M110.7,1053.8c0-2.1,2.1-4.3,4.3-4.3h34.3c2.1,0,4.3,2.1,4.3,4.3v27.9
			c0,2.1-2.1,4.3-4.3,4.3H115c-2.1,0-4.3-2.1-4.3-4.3V1053.8z"/>
		<path id="path13401_1_" class="st23" d="M117.2,1040.9c0-8.3,6.7-15,15-15c8.3,0,15,6.7,15,15"/>
	</g>
</g>
<g>
	<g id="Guides_1_">
	</g>
	<g id="Layer_2_4_">
		<g>
			<g>
				<g>
					<path class="st2" d="M51.3,98.2c1,3,2.1,6,3.3,8.9c5.8,14.5,13.7,27.8,23.2,39.7c9.2,11.3,18.2,19.2,24.5,23.9V98.2H51.3z"/>
				</g>
				<g>
					<path class="st2" d="M153.4,98.2c4.6-13.6,7.6-28.2,8.8-43.6c-16.4-1.1-40.3-6.1-59.9-23.7v67.3H153.4z"/>
				</g>
				<g>
					<path class="st26" d="M102.3,30.9C82.8,48.5,58.9,53.5,42.4,54.6c1.3,15.3,4.2,29.9,8.8,43.6h51V30.9z"/>
				</g>
				<g>
					<path class="st26" d="M125.8,148c9.8-11.9,17.8-25.3,23.8-39.9c1.3-3.2,2.6-6.5,3.7-9.9h-51v72.5c0,0,0,0,0,0
						C108.4,166.1,117,158.7,125.8,148z"/>
				</g>
			</g>
			<g>
				<path class="st2" d="M68.2,166.4c-1.4,0-2.8-0.6-3.8-1.7c-1.2-1.4-2.4-2.8-3.5-4.2c-1.7-2.2-1.4-5.3,0.7-7.1
					c2.2-1.7,5.3-1.4,7.1,0.7c1.1,1.3,2.2,2.7,3.3,4c1.8,2.1,1.6,5.3-0.5,7.1C70.5,166,69.4,166.4,68.2,166.4z"/>
			</g>
			<g>
				<path class="st2" d="M102.3,196.6c-1.1,0-2.1-0.3-3-1L89.2,188c-4.4-3.3-8.9-7.1-13.1-11.1c-2-1.9-2.1-5.1-0.2-7.1
					c1.9-2,5.1-2.1,7.1-0.2c4,3.8,8.1,7.3,12.3,10.4l7.1,5.3l7-5.3c6.3-4.7,15.8-12.8,25.5-24.6c10.6-12.8,19.2-27.3,25.7-43
					c1.4-3.4,2.7-7,3.9-10.6c4.9-14.5,8.1-30.1,9.4-46.3l1-11.9L163,42.9c-14.7-1-35.8-5.4-52.8-20.7l-7.8-7l-7.8,7
					c-17,15.3-38.1,19.7-52.8,20.7l-11.9,0.8l1,11.9c1.4,16.2,4.5,31.8,9.4,46.3c1.1,3.2,2.3,6.4,3.5,9.5c3.9,9.7,8.7,19,14.2,27.7
					c1.5,2.3,0.8,5.4-1.5,6.9c-2.3,1.5-5.4,0.8-6.9-1.5c-5.9-9.2-10.9-19.1-15.1-29.4c-1.3-3.2-2.6-6.6-3.7-10.1
					c-5.2-15.3-8.5-31.7-9.9-48.7l-1.4-16.9c-0.1-1.3,0.3-2.7,1.2-3.7s2.1-1.6,3.5-1.7l17-1.1c13.1-0.9,31.9-4.7,46.8-18.2L99,4.7
					c1.9-1.7,4.8-1.7,6.7,0l11.2,10.1c14.9,13.4,33.7,17.3,46.8,18.2l17,1.1c1.3,0.1,2.6,0.7,3.5,1.7c0.9,1,1.3,2.3,1.2,3.7
					l-1.4,16.9c-1.4,17-4.8,33.4-9.9,48.7c-1.3,3.8-2.7,7.6-4.2,11.2c-6.8,16.6-16,32-27.2,45.5c-10.3,12.5-20.5,21.1-27.2,26.2
					l-10.1,7.6C104.5,196.3,103.4,196.6,102.3,196.6z"/>
			</g>
		</g>
	</g>
</g>
</svg>
