<?xml version="1.0" encoding="utf-8"?>
<!-- Generator: Adobe Illustrator 23.0.5, SVG Export Plug-In . SVG Version: 6.00 Build 0)  -->
<svg version="1.1" id="Layer_1" xmlns="http://www.w3.org/2000/svg" xmlns:xlink="http://www.w3.org/1999/xlink" x="0px" y="0px"
	 viewBox="0 0 50 50" style="enable-background:new 0 0 50 50;" xml:space="preserve">
<style type="text/css">
	.st0{display:none;fill-rule:evenodd;clip-rule:evenodd;fill:#D3E6F8;}
	.st1{fill:#FFFFFF;}
</style>
<path class="st0" d="M46.2,28.5c0,10.3-8.3,18.6-18.6,18.6S9,38.7,9,28.5C9,18.2,17.3,9.8,27.6,9.8S46.2,18.2,46.2,28.5z"/>
<g>
	<path class="st1" d="M25,49.4L25,49.4C11.6,49.4,0.6,38.5,0.6,25C0.6,11.6,11.5,0.6,25,0.6l0,0c13.4,0,24.4,10.9,24.4,24.4
		C49.4,38.4,38.5,49.4,25,49.4z M25,44.7L25,44.7c1.9,0,5.3-6.6,5.8-17.4H19.2C19.7,38.2,23.1,44.7,25,44.7z M35.4,27.3
		c-0.2,6.1-1.4,11.9-3.3,16.1c6.7-2.6,11.7-8.7,12.5-16.1C44.6,27.3,35.4,27.3,35.4,27.3z M5.4,27.3c0.9,7.4,5.8,13.5,12.5,16.1
		c-2-4.2-3.1-10.1-3.3-16.1C14.6,27.3,5.4,27.3,5.4,27.3z M35.4,22.7h9.2c-0.9-7.4-5.8-13.5-12.5-16.1
		C34.1,10.7,35.2,16.6,35.4,22.7z M19.2,22.7h11.5C30.3,11.8,26.9,5.3,25,5.3l0,0C23.1,5.3,19.7,11.8,19.2,22.7z M5.4,22.7h9.2
		c0.2-6,1.4-11.9,3.3-16.1C11.2,9.2,6.3,15.3,5.4,22.7z"/>
</g>
</svg>
