<?xml version="1.0" encoding="utf-8"?>
<!-- Generator: Adobe Illustrator 22.0.1, SVG Export Plug-In . SVG Version: 6.00 Build 0)  -->
<svg version="1.1" id="Layer_1" xmlns="http://www.w3.org/2000/svg" xmlns:xlink="http://www.w3.org/1999/xlink" x="0px" y="0px"
	 viewBox="0 0 100 100" style="enable-background:new 0 0 100 100;" xml:space="preserve">
<style type="text/css">
	.st0{display:none;}
	.st1{display:inline;}
	.st2{fill:#214E83;}
	.st3{display:inline;fill:#214E83;}
	.st4{display:inline;fill:#FFFFFF;}
	.st5{enable-background:new    ;}
	.st6{fill:#FFFFFF;}
</style>
<g class="st0">
	<g class="st1">
		<g>
			<path class="st2" d="M50.6,29c-3.7,0-6.9,1.3-9.4,3.4s-4,3.9-4.4,9.1h7.6c0.2-2.6,0.8-3.2,1.9-4.2s2.4-1.6,4-1.6s2.9,0.5,3.9,1.5
				c1,1,1.5,2.3,1.5,3.9s-0.5,2.8-1.5,3.9l-4.6,4.6c-1.3,1.3-1.6,2.4-2,3.3c-0.4,0.8,0,2.1,0,3.8v3.2h5.2v-2.2c0-1.7,0.8-3,1.5-3.9
				c0.3-0.3,0.9-0.7,1.4-1.2c0.5-0.5,1.2-1.1,1.9-1.7c0.7-0.7,1.3-1.2,1.7-1.6c0.4-0.4,1.1-1.1,1.9-2.1c1.4-1.7,2.1-3.8,2.1-6.3
				c0-3.7-1.2-6.5-3.5-8.6C57.4,30,54.4,29,50.6,29z"/>
			<path class="st2" d="M51,63.6c-1.3,0-2.5,0.5-3.4,1.4c-0.9,0.9-1.4,2-1.4,3.3c0,1.3,0.5,2.4,1.5,3.3c1,0.9,2.1,1.4,3.4,1.4
				c1.3,0,2.5-0.5,3.4-1.4c0.9-0.9,1.4-2,1.4-3.3s-0.5-2.4-1.5-3.3C53.5,64,52.3,63.6,51,63.6z"/>
		</g>
	</g>
	<g class="st1">
		<g>
			<g>
				<g>
					<g>
						<path class="st2" d="M49.2,98.5h1c0.2,0,0.4,0,0.6,0c3.9,0,5.2-2.3,6-5.7c0.3-1.1,1.1-2.3,2.4-3.4c2.9-2.6,7.8-4.9,11.4-4.9
							c1,0.3,2.8,0.6,4,1.5c4.2,3.5,6.8,0.9,9.8-1.9c3-2.9,2.7-5.4,0.6-8.7c-3.3-5.4,1.3-16.3,7.9-17.7c3.4-0.6,4.5-2.2,4.9-4.3
							c0.1-0.3,0.1-0.7,0.1-1v-4c-0.2-2.7-1.1-4.6-5-5.4c-5-1-8.9-7.5-9-12.9c0-1.7,0.3-3.3,1.1-4.6c2-3.3,2.5-5.8-0.6-8.8
							c-2.9-2.8-5.6-5.4-9.8-1.9c-1.2,1-3,1.2-4,1.6c-5.1,0-12.8-4.8-13.7-8.4c-0.9-3.6-2.2-5.9-6.5-5.7h-1
							c-4.3-0.2-5.7,2.1-6.6,5.7c-0.9,3.6-8.6,8.3-13.7,8.4c-1-0.4-2.8-0.6-4-1.6c-4.2-3.4-6.8-0.9-9.8,1.9c-3,3-2.7,5.4-0.6,8.8
							c3.3,5.3-1.3,16.2-7.9,17.6c-3.9,0.8-4.8,2.8-5,5.4v4c0.2,2.6,1.1,4.6,5,5.4c6.6,1.4,11.3,12.3,8,17.7
							c-2.1,3.3-2.5,5.8,0.6,8.7c3,2.9,5.6,5.5,9.8,1.9c1.2-0.9,3-1.2,4-1.5c5.2,0,12.9,4.7,13.7,8.3C43.5,96.3,44.9,98.7,49.2,98.5
							z M22.2,52.3v-4c1.3-14.4,13.4-25.8,28-25.9c11.4,0.1,21.2,6.9,25.6,16.7c1.3,2.8,2.1,5.9,2.4,9.2v2.8v1.2
							c-1.1,12-9.7,21.9-21,24.9c-2.2,0.6-4.6,0.9-7,0.9c-4.6,0-9-1.2-12.9-3.2C29,70.5,23.1,62.2,22.2,52.3z"/>
					</g>
				</g>
			</g>
		</g>
	</g>
</g>
<g class="st0">
	<g class="st1">
		<path class="st2" d="M96.7,54.8c0-0.1,0-0.1,0-0.2c0-0.1,0-0.2,0-0.3c-0.4-11.2-5.1-21.3-12.4-28.6c-7.7-7.7-18.3-12.5-30.1-12.5
			c-3,0-5.9,0.3-8.7,0.9c-1.7,0.3-3.3,0.8-4.9,1.3c0.6,0.9,1.2,2,1.3,3.1l-0.2,2.2c1.6-1.1,3.2-2,4.9-2.7c0.3-0.1,0.7-0.3,1-0.4
			c-0.9,1.3-1.7,2.9-2.4,4.8c-0.8,2.1-1.6,4.4-2.2,6.7h-2.8c-0.4,0.9-0.8,1.4-1.4,1.9c0,0,0,0,0,0c0,0,0,0-0.1,0.1
			c-0.1,0.1-0.1,0.1-0.2,0.2l0,0l-0.8,0.8L37.3,34H42c-0.6,2.9-1.1,6.1-1.4,9.5H27.8c0.1-0.5,0.3-1.1,0.4-1.6
			c0.1-0.3,0.2-0.5,0.2-0.8c-1.3,1-2.4,1.3-3.9,1.2c-0.1,0.4-0.2,0.8-0.3,1.2h-6.8v0c0.1-0.4,0.3-0.7,0.4-1.1
			c-1.3,0.1-2.2-0.2-3.3-0.9c-0.4,1-0.7,2-1,3.1c0,0.1-0.1,0.2-0.1,0.3c-0.4,1.4-0.7,2.9-1,4.4c0,0.1,0,0.2-0.1,0.4l0,0l0,0
			c-0.3,2-0.5,4.1-0.5,6.1c0,0.6,0,1.3,0,1.9c0,0,0,0.1,0,0.1c0.5,10.5,5.1,19.9,12.2,26.8c7.6,7.4,18.1,11.9,29.6,11.9
			s22-4.6,29.6-11.9c5-4.9,8.7-10.9,10.7-17.7c0,0,0-0.1,0-0.1c0.9-3.1,1.4-6.3,1.5-9.6c0-0.1,0-0.2,0-0.2c0-0.1,0-0.1,0-0.1
			s1-0.3,1.6-0.4v0v-0.5v-0.5v0C96.7,55.1,96.7,55,96.7,54.8z M81.8,27.8c0.5,0.5,1,1,1.4,1.5H79c-1.6-2.9-3.6-5.4-5.7-7.6
			c-0.2-0.2-0.4-0.5-0.7-0.7C76.1,22.8,79.1,25.1,81.8,27.8z M67.3,60.9c-0.9,0-1.6-0.7-1.6-1.6c0-0.9,0.7-1.6,1.6-1.6h19.3
			c0.9,0,1.6,0.7,1.6,1.6c0,0.9-0.7,1.6-1.6,1.6H67.3z M80.4,68.8c-0.9,3.4-2,6.6-3.5,9.5H66.5c0.6-2.9,1-6.1,1.4-9.5H80.4z
			 M67.9,43.5c-0.3-3.4-0.8-6.6-1.4-9.5h10.3c1.5,2.9,2.7,6.1,3.5,9.5H67.9z M70.9,24.1c1.5,1.5,2.9,3.3,4.1,5.2h-9.6
			c-0.6-2.6-1.4-5-2.2-7.1c-0.7-1.8-1.5-3.4-2.4-4.8C64.5,18.7,67.9,21,70.9,24.1z M48.3,23.5c1.8-4.5,3.8-7.2,5.9-7.2
			c2,0,4.1,2.7,5.9,7.2c0.7,1.7,1.3,3.6,1.9,5.8H46.5C47,27.2,47.6,25.2,48.3,23.5z M46,34h16.3c0.6,2.9,1.1,6.1,1.4,9.5H44.6
			C44.9,40.1,45.4,36.9,46,34z M63.8,68.8c-0.3,3.4-0.8,6.6-1.4,9.5H46c-0.6-2.9-1.1-6.1-1.4-9.5H63.8z M58.6,58.7
			c0-0.5,0.2-0.8,0.5-1.2c0.3-0.3,0.7-0.5,1.2-0.5c0.5,0,0.9,0.2,1.2,0.5c0.3,0.3,0.5,0.7,0.5,1.2c0,0.5-0.2,0.8-0.5,1.2
			c-0.3,0.3-0.7,0.5-1.2,0.5c-0.5,0-0.8-0.2-1.2-0.5C58.8,59.5,58.6,59.1,58.6,58.7z M22.1,51.4l1.2,3.5c0.1,0.3,0.2,0.5,0.2,0.7
			c0.1,0.2,0.1,0.4,0.1,0.6c0-0.3,0.1-0.6,0.3-1.1l0-0.1l1.2-3.5h1.7l1.2,3.5l0,0.1c0.2,0.5,0.3,0.9,0.3,1.2c0-0.2,0.1-0.3,0.1-0.5
			c0-0.2,0.1-0.4,0.2-0.7l1.2-3.5h2.2h0.7H35l1.2,3.5c0.1,0.3,0.2,0.5,0.2,0.7c0.1,0.2,0.1,0.4,0.1,0.6c0-0.3,0.2-0.6,0.3-1.1l0-0.1
			l1.2-3.5h1.7l1.2,3.5l0,0.1c0.2,0.5,0.3,0.9,0.3,1.2c0-0.2,0.1-0.3,0.1-0.5c0.1-0.2,0.1-0.4,0.2-0.7l1.2-3.5H45h0.7h2.2l1.2,3.5
			c0.1,0.3,0.2,0.5,0.2,0.7c0.1,0.2,0.1,0.4,0.1,0.6c0-0.3,0.1-0.6,0.3-1.1l0-0.1l1.2-3.5h1.7l1.2,3.5l0,0.1
			c0.2,0.5,0.3,0.9,0.3,1.2c0-0.2,0.1-0.3,0.1-0.5c0-0.2,0.1-0.4,0.2-0.7l1.2-3.5h2.9l-3.3,7.9h-2L52,55.7c-0.1-0.2-0.1-0.4-0.2-0.6
			c0-0.2-0.1-0.4-0.1-0.6c-0.1,0.3-0.2,0.7-0.3,1.2l0,0.1l-1.2,3.6h-2l-3-7.1l-3,7.1h-2l-1.2-3.6c-0.1-0.2-0.1-0.4-0.2-0.6
			c0-0.2-0.1-0.4-0.1-0.6c-0.1,0.3-0.2,0.7-0.3,1.2l0,0.1l-1.2,3.6h-2l-3-7.1l-3,7.1h-2l-1.2-3.6c-0.1-0.2-0.1-0.4-0.2-0.6
			c-0.1-0.2-0.1-0.4-0.1-0.6c-0.1,0.3-0.2,0.7-0.3,1.2l0,0.1l-1.2,3.6h-2l-3.3-7.9H22.1z M41.8,78.3H31.5c-1.5-2.9-2.7-6.1-3.5-9.5
			h12.5C40.8,72.2,41.3,75.3,41.8,78.3z M23,78.3c-0.2,0-0.4,0-0.6,0.1c-2.1-2.9-3.8-6.1-5-9.6h6.6c0.8,3.4,1.9,6.5,3.2,9.5H23z
			 M26.5,82.9c-0.5-0.5-1-1-1.4-1.5h4.2c1.6,2.9,3.6,5.4,5.7,7.6c0.2,0.2,0.5,0.5,0.7,0.7C32.3,87.9,29.2,85.6,26.5,82.9z
			 M38.3,86.7c-1.5-1.6-2.9-3.3-4.1-5.2h0v0c0,0,0,0,0,0h9.6c0.6,2.6,1.4,5,2.2,7.1c0.7,1.8,1.5,3.4,2.4,4.8
			C44.6,92,41.2,89.7,38.3,86.7z M54.2,94.4c-2,0-4.1-2.7-5.9-7.2c-0.7-1.7-1.3-3.6-1.9-5.8h15.4c-0.6,2.1-1.2,4.1-1.9,5.8
			C58.2,91.7,56.2,94.4,54.2,94.4z M60.8,93.3c0.9-1.3,1.7-2.9,2.4-4.8c0.8-2.1,1.6-4.4,2.2-7.1H75c-1.2,1.9-2.6,3.7-4.1,5.2
			C67.9,89.7,64.5,92,60.8,93.3z M81.8,82.9c-2.7,2.7-5.8,5-9.2,6.8c0.2-0.2,0.5-0.5,0.7-0.7c2.1-2.2,4-4.8,5.7-7.6h4.2
			C82.8,81.9,82.3,82.4,81.8,82.9z M86,78.3c-0.1,0-0.2,0-0.3,0H81c1.4-2.9,2.5-6.1,3.2-9.5h6.6C89.7,72.2,88.1,75.4,86,78.3z
			 M84.3,43.5C83.5,40.2,82.4,37,81,34h4.6c0.1,0,0.3,0,0.4,0c2.1,2.9,3.7,6.1,4.9,9.5H84.3z"/>
		<path class="st2" d="M11.6,16.2c0-1.1,0.4-2,1.1-2.7c0.8-0.7,1.7-1.1,2.8-1.1c1,0,1.9,0.4,2.7,1.1c0.8,0.7,1.1,1.6,1.1,2.7
			c0,1.1-0.4,2-1.1,2.7c-0.7,0.8-1.7,1.1-2.7,1.1c-1.1,0-2-0.4-2.7-1.1C12,18.2,11.6,17.3,11.6,16.2L11.6,16.2z M14.7,5.5L14.7,5.5z
			 M23.3,38.1L23.3,38.1z M30.8,35.1L30.8,35.1z M30.4,7.2L30.4,7.2z M26.6,5.7L24,5.6l-1.8-0.9l-0.2-0.1c-1.5-0.8-1.7-0.9-3.5,0
			l-2.4,1.2l-2,0.1l-0.3,0c-1.7,0-1.9,0-3.1,1.6L9.2,9.6l-1.6,0.9c0,0-0.1,0-0.1,0.1l-0.3,0.1v0l0,0c-1.5,0.8-1.7,0.9-2,2.8
			l-0.4,2.6l-1.1,1.7l0,0c-0.1,0.1,0,0.1-0.1,0.2c-0.9,1.4-1.1,1.6-0.4,3.4L4.2,24L4,25.8l0,0.1l0,0.3c-0.2,1.7-0.2,1.9,1.2,3.2
			l1.9,1.8L7.8,33l0,0c0.2,0.6,0,0.1,0.1,0.3c0.6,1.6,0.7,1.8,2.6,2.3l2.6,0.7l1.5,1.2l0,0l0.2,0.2c1.3,1.1,1.4,1.3,3.3,0.9l0.1,0
			l2.6-0.6l1.9,0.4c0.5,0.1,0.2,0,0.3,0.1c1.6,0.4,1.9,0.4,3.4-0.8l2-1.7l1.9-0.5c0.2-0.1,0,0,0.3-0.1c1.6-0.4,1.9-0.5,2.6-2.3
			l1-2.4l1.4-1.3l0,0c0.5-0.4,0.1-0.1,0.2-0.2c1.2-1.1,1.4-1.3,1.2-3.2l-0.2-2.6l0.6-1.9l0,0l0.1-0.3c0.6-1.6,0.7-1.8-0.4-3.4
			l-1.4-2.2l-0.3-1.9h0l0-0.3c-0.2-1.7-0.2-1.9-2-2.9L31,9.1l-1.2-1.6c-0.2-0.3-0.1-0.2-0.2-0.2C28.7,5.9,28.6,5.7,26.6,5.7
			L26.6,5.7z M15.4,27.5l8.2-14.4c0.2-0.5,0.7-0.7,1.5-0.7c0.4,0,0.7,0.1,1,0.4c0.3,0.3,0.4,0.7,0.4,1.1c0,0.2,0,0.4-0.1,0.6
			L18.1,29c-0.3,0.5-0.8,0.8-1.6,0.8c-0.3,0-0.6-0.1-0.9-0.4c-0.2-0.3-0.3-0.7-0.3-1.1C15.3,27.9,15.3,27.7,15.4,27.5L15.4,27.5z
			 M26.5,22.1c1.1,0,2,0.4,2.7,1.1c0.8,0.7,1.1,1.6,1.1,2.7c0,1.1-0.4,2-1.1,2.7c-0.7,0.7-1.7,1.1-2.7,1.1c-1.1,0-2-0.4-2.7-1.1
			c-0.7-0.7-1.1-1.6-1.1-2.7c0-1.1,0.4-2,1.1-2.7C24.5,22.5,25.5,22.1,26.5,22.1L26.5,22.1z"/>
		<path class="st2" d="M16.3,15.3c-0.2-0.3-0.5-0.4-0.9-0.4c-0.3,0-0.6,0.1-0.9,0.4c-0.2,0.2-0.3,0.6-0.3,0.9c0,0.4,0.1,0.7,0.4,1
			c0.3,0.2,0.5,0.4,0.9,0.4c0.3,0,0.6-0.1,0.8-0.4c0.2-0.2,0.3-0.6,0.3-0.9C16.6,15.9,16.5,15.6,16.3,15.3L16.3,15.3z"/>
		<path class="st2" d="M27.7,25.9c0-0.9-0.4-1.4-1.2-1.4c-0.8,0-1.2,0.4-1.2,1.3c0,0.4,0.1,0.7,0.3,0.9c0.2,0.3,0.5,0.4,0.9,0.4
			c0.3,0,0.6-0.1,0.9-0.3C27.6,26.6,27.7,26.3,27.7,25.9L27.7,25.9z"/>
	</g>
</g>
<g class="st0">
	<path class="st3" d="M50.4,52.3l18.4,21H58.3v15.8H42.5V73.3H32L50.4,52.3z M26.8,26h46.7l10.4,10.8H16.4L26.8,26z M26.6,21
		L11,36.6V99h78V36.6L73.4,21H26.6z"/>
	<rect x="32.8" y="17.3" class="st4" width="34.5" height="7.4"/>
	<g class="st1">
		<path class="st2" d="M50.8,1.3c-10.6,0-19.3,8.7-19.3,19.3c0,10.6,8.7,19.3,19.3,19.3c10.6,0,19.3-8.7,19.3-19.3
			C70.1,10,61.5,1.3,50.8,1.3z M67.3,14.4h-6.9c-0.2-0.5-0.3-1.1-0.5-1.6h6.7C66.8,13.4,67.1,13.9,67.3,14.4z M41.9,20l-1.2,4h-1.4
			l-1.6-6.4h1.7l0.8,4.1l1.2-4.1h1.2l1.2,4.1l0.8-4.1h1.7l-1.6,6.4h-1.4L41.9,20z M43.3,14.4c0.2-0.5,0.3-1.1,0.6-1.6h6.5v1.6H43.3z
			 M48.2,17.7l0.8,4.1l1.2-4.1h1.2l1.2,4.1l0.8-4.1h1.7l-1.6,6.4h-1.4l-1.2-4l-1.2,4h-1.4l-1.6-6.4H48.2z M51.9,27.3h7
			c-0.2,0.5-0.3,1.1-0.5,1.6h-6.5V27.3z M59.8,20l-1.2,4h-1.4l-1.6-6.4h1.7l0.8,4.1l1.2-4.1h1.2l1.2,4.1l0.8-4.1h1.7l-1.6,6.4H61
			L59.8,20z M65.6,11.2h-6.5c-1.3-3-3.3-5.6-5.7-7.8C58.5,4.1,62.9,7.1,65.6,11.2z M51.9,4c2.4,2,4.4,4.4,5.8,7.2h-5.8V4z
			 M58.4,12.8c0.2,0.5,0.4,1.1,0.6,1.6h-7v-1.6H58.4z M50.3,4v7.2h-5.8C45.9,8.5,47.9,6,50.3,4z M48.3,3.4c-2.5,2.2-4.4,4.9-5.7,7.8
			H36C38.8,7.1,43.2,4.1,48.3,3.4z M41.8,12.8c-0.2,0.5-0.4,1.1-0.5,1.6h-6.9c0.2-0.5,0.5-1.1,0.7-1.6H41.8z M34.4,27.3h6.9
			c0.1,0.5,0.3,1.1,0.5,1.6h-6.7C34.8,28.4,34.6,27.8,34.4,27.3z M36,30.5h6.5c1.3,3,3.3,5.6,5.7,7.8C43.2,37.6,38.8,34.7,36,30.5z
			 M50.3,37.7c-2.4-2-4.4-4.4-5.8-7.2h5.8V37.7z M43.8,28.9c-0.2-0.5-0.4-1.1-0.5-1.6h7v1.6H43.8z M51.9,37.7v-7.2h5.8
			C56.3,33.3,54.3,35.7,51.9,37.7z M53.4,38.3c2.5-2.2,4.4-4.9,5.7-7.8h6.5C62.9,34.7,58.5,37.6,53.4,38.3z M59.8,28.9
			c0.2-0.5,0.4-1.1,0.5-1.6h6.9c-0.2,0.5-0.5,1.1-0.7,1.6H59.8z"/>
	</g>
	<g class="st1">
		<path class="st2" d="M26.8,28c-3.6,0-6.6,3-6.6,6.6c0,3.6,3,6.6,6.6,6.6c3.6,0,6.6-3,6.6-6.6C33.4,31,30.5,28,26.8,28z M32.5,32.5
			h-2.4c-0.1-0.2-0.1-0.4-0.2-0.6h2.3C32.3,32.1,32.4,32.3,32.5,32.5z M23.8,34.4l-0.4,1.4h-0.5l-0.6-2.2h0.6l0.3,1.4l0.4-1.4H24
			l0.4,1.4l0.3-1.4h0.6l-0.6,2.2h-0.5L23.8,34.4z M24.2,32.5c0.1-0.2,0.1-0.4,0.2-0.6h2.2v0.6H24.2z M25.9,33.6l0.3,1.4l0.4-1.4h0.4
			l0.4,1.4l0.3-1.4h0.6l-0.6,2.2h-0.5l-0.4-1.4l-0.4,1.4h-0.5l-0.6-2.2H25.9z M27.2,36.9h2.4c-0.1,0.2-0.1,0.4-0.2,0.6h-2.2V36.9z
			 M29.9,34.4l-0.4,1.4H29l-0.6-2.2H29l0.3,1.4l0.4-1.4h0.4l0.4,1.4l0.3-1.4h0.6l-0.6,2.2h-0.5L29.9,34.4z M31.9,31.4h-2.2
			c-0.5-1-1.1-1.9-2-2.7C29.5,29,31,30,31.9,31.4z M27.2,28.9c0.8,0.7,1.5,1.5,2,2.5h-2V28.9z M29.4,31.9c0.1,0.2,0.1,0.4,0.2,0.6
			h-2.4v-0.6H29.4z M26.7,28.9v2.5h-2C25.2,30.4,25.8,29.6,26.7,28.9z M26,28.7c-0.8,0.7-1.5,1.7-2,2.7h-2.2
			C22.7,30,24.2,29,26,28.7z M23.8,31.9c-0.1,0.2-0.1,0.4-0.2,0.6h-2.4c0.1-0.2,0.2-0.4,0.2-0.6H23.8z M21.2,36.9h2.4
			c0.1,0.2,0.1,0.4,0.2,0.6h-2.3C21.4,37.3,21.3,37.1,21.2,36.9z M21.8,38H24c0.5,1,1.1,1.9,2,2.7C24.2,40.4,22.7,39.4,21.8,38z
			 M26.7,40.5c-0.8-0.7-1.5-1.5-2-2.5h2V40.5z M24.4,37.4c-0.1-0.2-0.1-0.4-0.2-0.6h2.4v0.6H24.4z M27.2,40.5V38h2
			C28.7,38.9,28,39.8,27.2,40.5z M27.7,40.7c0.8-0.7,1.5-1.7,2-2.7h2.2C31,39.4,29.5,40.4,27.7,40.7z M29.9,37.4
			c0.1-0.2,0.1-0.4,0.2-0.6h2.4c-0.1,0.2-0.2,0.4-0.2,0.6H29.9z"/>
	</g>
	<g class="st1">
		<path class="st2" d="M34.8,34c-0.9,0-1.6,0.7-1.6,1.6c0,0.9,0.7,1.6,1.6,1.6c0.9,0,1.6-0.7,1.6-1.6C36.4,34.7,35.7,34,34.8,34z
			 M36.2,35.1h-0.6c0,0,0-0.1,0-0.1h0.6C36.2,35,36.2,35,36.2,35.1z M34.1,35.6L34,35.9h-0.1l-0.1-0.5h0.1l0.1,0.3l0.1-0.3h0.1
			l0.1,0.3l0.1-0.3h0.1l-0.1,0.5h-0.1L34.1,35.6z M34.2,35.1c0,0,0-0.1,0-0.1h0.5v0.1H34.2z M34.6,35.4l0.1,0.3l0.1-0.3h0.1l0.1,0.3
			l0.1-0.3h0.1l-0.1,0.5h-0.1l-0.1-0.3l-0.1,0.3h-0.1l-0.1-0.5H34.6z M34.9,36.2h0.6c0,0,0,0.1,0,0.1h-0.5V36.2z M35.6,35.6
			l-0.1,0.3h-0.1l-0.1-0.5h0.1l0.1,0.3l0.1-0.3h0.1l0.1,0.3l0.1-0.3h0.1l-0.1,0.5h-0.1L35.6,35.6z M36.1,34.8h-0.5
			c-0.1-0.2-0.3-0.5-0.5-0.7C35.5,34.2,35.8,34.5,36.1,34.8z M34.9,34.2c0.2,0.2,0.4,0.4,0.5,0.6h-0.5V34.2z M35.5,35
			c0,0,0,0.1,0,0.1h-0.6V35H35.5z M34.8,34.2v0.6h-0.5C34.4,34.6,34.6,34.4,34.8,34.2z M34.6,34.2c-0.2,0.2-0.4,0.4-0.5,0.7h-0.5
			C33.8,34.5,34.2,34.2,34.6,34.2z M34.1,35c0,0,0,0.1,0,0.1h-0.6c0,0,0-0.1,0.1-0.1H34.1z M33.5,36.2H34c0,0,0,0.1,0,0.1h-0.6
			C33.5,36.2,33.5,36.2,33.5,36.2z M33.6,36.4h0.5c0.1,0.2,0.3,0.5,0.5,0.7C34.2,37,33.8,36.8,33.6,36.4z M34.8,37
			c-0.2-0.2-0.4-0.4-0.5-0.6h0.5V37z M34.3,36.3c0,0,0-0.1,0-0.1h0.6v0.1H34.3z M34.9,37v-0.6h0.5C35.3,36.7,35.1,36.9,34.9,37z
			 M35.1,37.1c0.2-0.2,0.4-0.4,0.5-0.7h0.5C35.8,36.8,35.5,37,35.1,37.1z M35.6,36.3c0,0,0-0.1,0-0.1h0.6c0,0,0,0.1-0.1,0.1H35.6z"
			/>
	</g>
	<g class="st1">
		<path class="st2" d="M31.8,27c-0.9,0-1.6,0.7-1.6,1.6c0,0.9,0.7,1.6,1.6,1.6c0.9,0,1.6-0.7,1.6-1.6C33.4,27.7,32.7,27,31.8,27z
			 M33.2,28.1h-0.6c0,0,0-0.1,0-0.1h0.6C33.2,28,33.2,28,33.2,28.1z M31.1,28.6L31,28.9h-0.1l-0.1-0.5h0.1l0.1,0.3l0.1-0.3h0.1
			l0.1,0.3l0.1-0.3h0.1l-0.1,0.5h-0.1L31.1,28.6z M31.2,28.1c0,0,0-0.1,0-0.1h0.5v0.1H31.2z M31.6,28.4l0.1,0.3l0.1-0.3h0.1l0.1,0.3
			l0.1-0.3h0.1l-0.1,0.5h-0.1l-0.1-0.3l-0.1,0.3h-0.1l-0.1-0.5H31.6z M31.9,29.2h0.6c0,0,0,0.1,0,0.1h-0.5V29.2z M32.6,28.6
			l-0.1,0.3h-0.1l-0.1-0.5h0.1l0.1,0.3l0.1-0.3h0.1l0.1,0.3l0.1-0.3h0.1l-0.1,0.5h-0.1L32.6,28.6z M33.1,27.8h-0.5
			c-0.1-0.2-0.3-0.5-0.5-0.7C32.5,27.2,32.8,27.5,33.1,27.8z M31.9,27.2c0.2,0.2,0.4,0.4,0.5,0.6h-0.5V27.2z M32.5,28
			c0,0,0,0.1,0,0.1h-0.6V28H32.5z M31.8,27.2v0.6h-0.5C31.4,27.6,31.6,27.4,31.8,27.2z M31.6,27.2c-0.2,0.2-0.4,0.4-0.5,0.7h-0.5
			C30.8,27.5,31.2,27.2,31.6,27.2z M31.1,28c0,0,0,0.1,0,0.1h-0.6c0,0,0-0.1,0.1-0.1H31.1z M30.5,29.2H31c0,0,0,0.1,0,0.1h-0.6
			C30.5,29.2,30.5,29.2,30.5,29.2z M30.6,29.4h0.5c0.1,0.2,0.3,0.5,0.5,0.7C31.2,30,30.8,29.8,30.6,29.4z M31.8,30
			c-0.2-0.2-0.4-0.4-0.5-0.6h0.5V30z M31.3,29.3c0,0,0-0.1,0-0.1h0.6v0.1H31.3z M31.9,30v-0.6h0.5C32.3,29.7,32.1,29.9,31.9,30z
			 M32.1,30.1c0.2-0.2,0.4-0.4,0.5-0.7h0.5C32.8,29.8,32.5,30,32.1,30.1z M32.6,29.3c0,0,0-0.1,0-0.1h0.6c0,0,0,0.1-0.1,0.1H32.6z"
			/>
	</g>
	<g class="st1">
		<path class="st2" d="M33.8,31.4c-0.6,0-1.2,0.5-1.2,1.2c0,0.6,0.5,1.2,1.2,1.2c0.6,0,1.2-0.5,1.2-1.2C35,32,34.5,31.4,33.8,31.4z
			 M34.8,32.2h-0.4c0,0,0-0.1,0-0.1L34.8,32.2C34.8,32.2,34.8,32.2,34.8,32.2z M33.3,32.6l-0.1,0.2h-0.1L33,32.4h0.1l0.1,0.2
			l0.1-0.2h0.1l0.1,0.2l0.1-0.2h0.1l-0.1,0.4h-0.1L33.3,32.6z M33.4,32.2C33.4,32.2,33.4,32.2,33.4,32.2l0.4-0.1v0.1H33.4z
			 M33.7,32.4l0.1,0.2l0.1-0.2h0.1l0.1,0.2l0.1-0.2h0.1L34,32.8h-0.1l-0.1-0.2l-0.1,0.2h-0.1L33.7,32.4L33.7,32.4z M33.9,33h0.4
			c0,0,0,0.1,0,0.1L33.9,33L33.9,33z M34.4,32.6l-0.1,0.2h-0.1l-0.1-0.4h0.1l0.1,0.2l0.1-0.2h0.1l0.1,0.2l0.1-0.2h0.1l-0.1,0.4h-0.1
			L34.4,32.6z M34.7,32h-0.4c-0.1-0.2-0.2-0.3-0.3-0.5C34.3,31.6,34.6,31.8,34.7,32z M33.9,31.6c0.1,0.1,0.3,0.3,0.3,0.4h-0.3V31.6z
			 M34.3,32.1C34.3,32.2,34.3,32.2,34.3,32.1l-0.4,0.1v-0.1H34.3z M33.8,31.6V32h-0.3C33.5,31.9,33.7,31.7,33.8,31.6z M33.7,31.6
			c-0.1,0.1-0.3,0.3-0.3,0.5h-0.4C33.1,31.8,33.4,31.6,33.7,31.6z M33.3,32.1C33.3,32.2,33.3,32.2,33.3,32.1l-0.4,0.1
			c0,0,0-0.1,0-0.1H33.3z M32.8,33h0.4c0,0,0,0.1,0,0.1L32.8,33C32.9,33.1,32.9,33,32.8,33z M32.9,33.2h0.4c0.1,0.2,0.2,0.3,0.3,0.5
			C33.4,33.6,33.1,33.4,32.9,33.2z M33.8,33.6c-0.1-0.1-0.3-0.3-0.3-0.4h0.3V33.6z M33.4,33.1C33.4,33.1,33.4,33,33.4,33.1l0.4-0.1
			v0.1H33.4z M33.9,33.6v-0.4h0.3C34.2,33.4,34,33.5,33.9,33.6z M34,33.7c0.1-0.1,0.3-0.3,0.3-0.5h0.4C34.6,33.4,34.3,33.6,34,33.7z
			 M34.4,33.1C34.4,33.1,34.4,33,34.4,33.1l0.4-0.1c0,0,0,0.1,0,0.1H34.4z"/>
	</g>
	<g class="st1">
		<path class="st2" d="M27.8,26c-0.9,0-1.6,0.7-1.6,1.6c0,0.9,0.7,1.6,1.6,1.6c0.9,0,1.6-0.7,1.6-1.6C29.4,26.7,28.7,26,27.8,26z
			 M29.2,27.1h-0.6c0,0,0-0.1,0-0.1h0.6C29.2,27,29.2,27,29.2,27.1z M27.1,27.6L27,27.9h-0.1l-0.1-0.5h0.1l0.1,0.3l0.1-0.3h0.1
			l0.1,0.3l0.1-0.3h0.1l-0.1,0.5h-0.1L27.1,27.6z M27.2,27.1c0,0,0-0.1,0-0.1h0.5v0.1H27.2z M27.6,27.4l0.1,0.3l0.1-0.3h0.1l0.1,0.3
			l0.1-0.3h0.1l-0.1,0.5h-0.1l-0.1-0.3l-0.1,0.3h-0.1l-0.1-0.5H27.6z M27.9,28.2h0.6c0,0,0,0.1,0,0.1h-0.5V28.2z M28.6,27.6
			l-0.1,0.3h-0.1l-0.1-0.5h0.1l0.1,0.3l0.1-0.3h0.1l0.1,0.3l0.1-0.3h0.1l-0.1,0.5h-0.1L28.6,27.6z M29.1,26.8h-0.5
			c-0.1-0.2-0.3-0.5-0.5-0.7C28.5,26.2,28.8,26.5,29.1,26.8z M27.9,26.2c0.2,0.2,0.4,0.4,0.5,0.6h-0.5V26.2z M28.5,27
			c0,0,0,0.1,0,0.1h-0.6V27H28.5z M27.8,26.2v0.6h-0.5C27.4,26.6,27.6,26.4,27.8,26.2z M27.6,26.2c-0.2,0.2-0.4,0.4-0.5,0.7h-0.5
			C26.8,26.5,27.2,26.2,27.6,26.2z M27.1,27c0,0,0,0.1,0,0.1h-0.6c0,0,0-0.1,0.1-0.1H27.1z M26.5,28.2H27c0,0,0,0.1,0,0.1h-0.6
			C26.5,28.2,26.5,28.2,26.5,28.2z M26.6,28.4h0.5c0.1,0.2,0.3,0.5,0.5,0.7C27.2,29,26.8,28.8,26.6,28.4z M27.8,29
			c-0.2-0.2-0.4-0.4-0.5-0.6h0.5V29z M27.3,28.3c0,0,0-0.1,0-0.1h0.6v0.1H27.3z M27.9,29v-0.6h0.5C28.3,28.7,28.1,28.9,27.9,29z
			 M28.1,29.1c0.2-0.2,0.4-0.4,0.5-0.7h0.5C28.8,28.8,28.5,29,28.1,29.1z M28.6,28.3c0,0,0-0.1,0-0.1h0.6c0,0,0,0.1-0.1,0.1H28.6z"
			/>
	</g>
	<g class="st1">
		<path class="st2" d="M69.8,27c-0.9,0-1.6,0.7-1.6,1.6c0,0.9,0.7,1.6,1.6,1.6c0.9,0,1.6-0.7,1.6-1.6C71.4,27.7,70.7,27,69.8,27z
			 M71.2,28.1h-0.6c0,0,0-0.1,0-0.1h0.6C71.2,28,71.2,28,71.2,28.1z M69.1,28.6L69,28.9h-0.1l-0.1-0.5h0.1l0.1,0.3l0.1-0.3h0.1
			l0.1,0.3l0.1-0.3h0.1l-0.1,0.5h-0.1L69.1,28.6z M69.2,28.1c0,0,0-0.1,0-0.1h0.5v0.1H69.2z M69.6,28.4l0.1,0.3l0.1-0.3h0.1l0.1,0.3
			l0.1-0.3h0.1l-0.1,0.5h-0.1l-0.1-0.3l-0.1,0.3h-0.1l-0.1-0.5H69.6z M69.9,29.2h0.6c0,0,0,0.1,0,0.1h-0.5V29.2z M70.6,28.6
			l-0.1,0.3h-0.1l-0.1-0.5h0.1l0.1,0.3l0.1-0.3h0.1l0.1,0.3l0.1-0.3h0.1l-0.1,0.5h-0.1L70.6,28.6z M71.1,27.8h-0.5
			c-0.1-0.2-0.3-0.5-0.5-0.7C70.5,27.2,70.8,27.5,71.1,27.8z M69.9,27.2c0.2,0.2,0.4,0.4,0.5,0.6h-0.5V27.2z M70.5,28
			c0,0,0,0.1,0,0.1h-0.6V28H70.5z M69.8,27.2v0.6h-0.5C69.4,27.6,69.6,27.4,69.8,27.2z M69.6,27.2c-0.2,0.2-0.4,0.4-0.5,0.7h-0.5
			C68.8,27.5,69.2,27.2,69.6,27.2z M69.1,28c0,0,0,0.1,0,0.1h-0.6c0,0,0-0.1,0.1-0.1H69.1z M68.5,29.2H69c0,0,0,0.1,0,0.1h-0.6
			C68.5,29.2,68.5,29.2,68.5,29.2z M68.6,29.4h0.5c0.1,0.2,0.3,0.5,0.5,0.7C69.2,30,68.8,29.8,68.6,29.4z M69.8,30
			c-0.2-0.2-0.4-0.4-0.5-0.6h0.5V30z M69.3,29.3c0,0,0-0.1,0-0.1h0.6v0.1H69.3z M69.9,30v-0.6h0.5C70.3,29.7,70.1,29.9,69.9,30z
			 M70.1,30.1c0.2-0.2,0.4-0.4,0.5-0.7h0.5C70.8,29.8,70.5,30,70.1,30.1z M70.6,29.3c0,0,0-0.1,0-0.1h0.6c0,0,0,0.1-0.1,0.1H70.6z"
			/>
	</g>
	<g class="st1">
		<path class="st2" d="M72.8,25c-0.9,0-1.6,0.7-1.6,1.6c0,0.9,0.7,1.6,1.6,1.6c0.9,0,1.6-0.7,1.6-1.6C74.4,25.7,73.7,25,72.8,25z
			 M74.2,26.1h-0.6c0,0,0-0.1,0-0.1h0.6C74.2,26,74.2,26,74.2,26.1z M72.1,26.6L72,26.9h-0.1l-0.1-0.5h0.1l0.1,0.3l0.1-0.3h0.1
			l0.1,0.3l0.1-0.3h0.1l-0.1,0.5h-0.1L72.1,26.6z M72.2,26.1c0,0,0-0.1,0-0.1h0.5v0.1H72.2z M72.6,26.4l0.1,0.3l0.1-0.3h0.1l0.1,0.3
			l0.1-0.3h0.1l-0.1,0.5h-0.1l-0.1-0.3l-0.1,0.3h-0.1l-0.1-0.5H72.6z M72.9,27.2h0.6c0,0,0,0.1,0,0.1h-0.5V27.2z M73.6,26.6
			l-0.1,0.3h-0.1l-0.1-0.5h0.1l0.1,0.3l0.1-0.3h0.1l0.1,0.3l0.1-0.3h0.1l-0.1,0.5h-0.1L73.6,26.6z M74.1,25.8h-0.5
			c-0.1-0.2-0.3-0.5-0.5-0.7C73.5,25.2,73.8,25.5,74.1,25.8z M72.9,25.2c0.2,0.2,0.4,0.4,0.5,0.6h-0.5V25.2z M73.5,26
			c0,0,0,0.1,0,0.1h-0.6V26H73.5z M72.8,25.2v0.6h-0.5C72.4,25.6,72.6,25.4,72.8,25.2z M72.6,25.2c-0.2,0.2-0.4,0.4-0.5,0.7h-0.5
			C71.8,25.5,72.2,25.2,72.6,25.2z M72.1,26c0,0,0,0.1,0,0.1h-0.6c0,0,0-0.1,0.1-0.1H72.1z M71.5,27.2H72c0,0,0,0.1,0,0.1h-0.6
			C71.5,27.2,71.5,27.2,71.5,27.2z M71.6,27.4h0.5c0.1,0.2,0.3,0.5,0.5,0.7C72.2,28,71.8,27.8,71.6,27.4z M72.8,28
			c-0.2-0.2-0.4-0.4-0.5-0.6h0.5V28z M72.3,27.3c0,0,0-0.1,0-0.1h0.6v0.1H72.3z M72.9,28v-0.6h0.5C73.3,27.7,73.1,27.9,72.9,28z
			 M73.1,28.1c0.2-0.2,0.4-0.4,0.5-0.7h0.5C73.8,27.8,73.5,28,73.1,28.1z M73.6,27.3c0,0,0-0.1,0-0.1h0.6c0,0,0,0.1-0.1,0.1H73.6z"
			/>
	</g>
	<g class="st1">
		<path class="st2" d="M73.8,28c-0.9,0-1.6,0.7-1.6,1.6c0,0.9,0.7,1.6,1.6,1.6c0.9,0,1.6-0.7,1.6-1.6C75.4,28.7,74.7,28,73.8,28z
			 M75.2,29.1h-0.6c0,0,0-0.1,0-0.1h0.6C75.2,29,75.2,29,75.2,29.1z M73.1,29.6L73,29.9h-0.1l-0.1-0.5h0.1l0.1,0.3l0.1-0.3h0.1
			l0.1,0.3l0.1-0.3h0.1l-0.1,0.5h-0.1L73.1,29.6z M73.2,29.1c0,0,0-0.1,0-0.1h0.5v0.1H73.2z M73.6,29.4l0.1,0.3l0.1-0.3h0.1l0.1,0.3
			l0.1-0.3h0.1l-0.1,0.5h-0.1l-0.1-0.3l-0.1,0.3h-0.1l-0.1-0.5H73.6z M73.9,30.2h0.6c0,0,0,0.1,0,0.1h-0.5V30.2z M74.6,29.6
			l-0.1,0.3h-0.1l-0.1-0.5h0.1l0.1,0.3l0.1-0.3h0.1l0.1,0.3l0.1-0.3h0.1l-0.1,0.5h-0.1L74.6,29.6z M75.1,28.8h-0.5
			c-0.1-0.2-0.3-0.5-0.5-0.7C74.5,28.2,74.8,28.5,75.1,28.8z M73.9,28.2c0.2,0.2,0.4,0.4,0.5,0.6h-0.5V28.2z M74.5,29
			c0,0,0,0.1,0,0.1h-0.6V29H74.5z M73.8,28.2v0.6h-0.5C73.4,28.6,73.6,28.4,73.8,28.2z M73.6,28.2c-0.2,0.2-0.4,0.4-0.5,0.7h-0.5
			C72.8,28.5,73.2,28.2,73.6,28.2z M73.1,29c0,0,0,0.1,0,0.1h-0.6c0,0,0-0.1,0.1-0.1H73.1z M72.5,30.2H73c0,0,0,0.1,0,0.1h-0.6
			C72.5,30.2,72.5,30.2,72.5,30.2z M72.6,30.4h0.5c0.1,0.2,0.3,0.5,0.5,0.7C73.2,31,72.8,30.8,72.6,30.4z M73.8,31
			c-0.2-0.2-0.4-0.4-0.5-0.6h0.5V31z M73.3,30.3c0,0,0-0.1,0-0.1h0.6v0.1H73.3z M73.9,31v-0.6h0.5C74.3,30.7,74.1,30.9,73.9,31z
			 M74.1,31.1c0.2-0.2,0.4-0.4,0.5-0.7h0.5C74.8,30.8,74.5,31,74.1,31.1z M74.6,30.3c0,0,0-0.1,0-0.1h0.6c0,0,0,0.1-0.1,0.1H74.6z"
			/>
	</g>
	<g class="st1">
		<path class="st2" d="M76.8,31c-0.9,0-1.6,0.7-1.6,1.6c0,0.9,0.7,1.6,1.6,1.6c0.9,0,1.6-0.7,1.6-1.6C78.4,31.7,77.7,31,76.8,31z
			 M78.2,32.1h-0.6c0,0,0-0.1,0-0.1h0.6C78.2,32,78.2,32,78.2,32.1z M76.1,32.6L76,32.9h-0.1l-0.1-0.5h0.1l0.1,0.3l0.1-0.3h0.1
			l0.1,0.3l0.1-0.3h0.1l-0.1,0.5h-0.1L76.1,32.6z M76.2,32.1c0,0,0-0.1,0-0.1h0.5v0.1H76.2z M76.6,32.4l0.1,0.3l0.1-0.3h0.1l0.1,0.3
			l0.1-0.3h0.1l-0.1,0.5h-0.1l-0.1-0.3l-0.1,0.3h-0.1l-0.1-0.5H76.6z M76.9,33.2h0.6c0,0,0,0.1,0,0.1h-0.5V33.2z M77.6,32.6
			l-0.1,0.3h-0.1l-0.1-0.5h0.1l0.1,0.3l0.1-0.3h0.1l0.1,0.3l0.1-0.3h0.1l-0.1,0.5h-0.1L77.6,32.6z M78.1,31.8h-0.5
			c-0.1-0.2-0.3-0.5-0.5-0.7C77.5,31.2,77.8,31.5,78.1,31.8z M76.9,31.2c0.2,0.2,0.4,0.4,0.5,0.6h-0.5V31.2z M77.5,32
			c0,0,0,0.1,0,0.1h-0.6V32H77.5z M76.8,31.2v0.6h-0.5C76.4,31.6,76.6,31.4,76.8,31.2z M76.6,31.2c-0.2,0.2-0.4,0.4-0.5,0.7h-0.5
			C75.8,31.5,76.2,31.2,76.6,31.2z M76.1,32c0,0,0,0.1,0,0.1h-0.6c0,0,0-0.1,0.1-0.1H76.1z M75.5,33.2H76c0,0,0,0.1,0,0.1h-0.6
			C75.5,33.2,75.5,33.2,75.5,33.2z M75.6,33.4h0.5c0.1,0.2,0.3,0.5,0.5,0.7C76.2,34,75.8,33.8,75.6,33.4z M76.8,34
			c-0.2-0.2-0.4-0.4-0.5-0.6h0.5V34z M76.3,33.3c0,0,0-0.1,0-0.1h0.6v0.1H76.3z M76.9,34v-0.6h0.5C77.3,33.7,77.1,33.9,76.9,34z
			 M77.1,34.1c0.2-0.2,0.4-0.4,0.5-0.7h0.5C77.8,33.8,77.5,34,77.1,34.1z M77.6,33.3c0,0,0-0.1,0-0.1h0.6c0,0,0,0.1-0.1,0.1H77.6z"
			/>
	</g>
	<g class="st1">
		<path class="st2" d="M18.8,35c-0.9,0-1.6,0.7-1.6,1.6c0,0.9,0.7,1.6,1.6,1.6c0.9,0,1.6-0.7,1.6-1.6C20.4,35.7,19.7,35,18.8,35z
			 M20.2,36.1h-0.6c0,0,0-0.1,0-0.1h0.6C20.2,36,20.2,36,20.2,36.1z M18.1,36.6L18,36.9h-0.1l-0.1-0.5h0.1l0.1,0.3l0.1-0.3h0.1
			l0.1,0.3l0.1-0.3h0.1l-0.1,0.5h-0.1L18.1,36.6z M18.2,36.1c0,0,0-0.1,0-0.1h0.5v0.1H18.2z M18.6,36.4l0.1,0.3l0.1-0.3h0.1l0.1,0.3
			l0.1-0.3h0.1l-0.1,0.5h-0.1l-0.1-0.3l-0.1,0.3h-0.1l-0.1-0.5H18.6z M18.9,37.2h0.6c0,0,0,0.1,0,0.1h-0.5V37.2z M19.6,36.6
			l-0.1,0.3h-0.1l-0.1-0.5h0.1l0.1,0.3l0.1-0.3h0.1l0.1,0.3l0.1-0.3h0.1l-0.1,0.5h-0.1L19.6,36.6z M20.1,35.8h-0.5
			c-0.1-0.2-0.3-0.5-0.5-0.7C19.5,35.2,19.8,35.5,20.1,35.8z M18.9,35.2c0.2,0.2,0.4,0.4,0.5,0.6h-0.5V35.2z M19.5,36
			c0,0,0,0.1,0,0.1h-0.6V36H19.5z M18.8,35.2v0.6h-0.5C18.4,35.6,18.6,35.4,18.8,35.2z M18.6,35.2c-0.2,0.2-0.4,0.4-0.5,0.7h-0.5
			C17.8,35.5,18.2,35.2,18.6,35.2z M18.1,36c0,0,0,0.1,0,0.1h-0.6c0,0,0-0.1,0.1-0.1H18.1z M17.5,37.2H18c0,0,0,0.1,0,0.1h-0.6
			C17.5,37.2,17.5,37.2,17.5,37.2z M17.6,37.4h0.5c0.1,0.2,0.3,0.5,0.5,0.7C18.2,38,17.8,37.8,17.6,37.4z M18.8,38
			c-0.2-0.2-0.4-0.4-0.5-0.6h0.5V38z M18.3,37.3c0,0,0-0.1,0-0.1h0.6v0.1H18.3z M18.9,38v-0.6h0.5C19.3,37.7,19.1,37.9,18.9,38z
			 M19.1,38.1c0.2-0.2,0.4-0.4,0.5-0.7h0.5C19.8,37.8,19.5,38,19.1,38.1z M19.6,37.3c0,0,0-0.1,0-0.1h0.6c0,0,0,0.1-0.1,0.1H19.6z"
			/>
	</g>
	<g class="st1">
		<path class="st2" d="M69.8,30c-2.5,0-4.6,2.1-4.6,4.6c0,2.5,2.1,4.6,4.6,4.6c2.5,0,4.6-2.1,4.6-4.6C74.4,32.1,72.4,30,69.8,30z
			 M73.8,33.1h-1.7c0-0.1-0.1-0.3-0.1-0.4h1.6C73.7,32.9,73.7,33,73.8,33.1z M67.7,34.5l-0.3,1h-0.3l-0.4-1.5h0.4l0.2,1l0.3-1h0.3
			l0.3,1l0.2-1h0.4l-0.4,1.5H68L67.7,34.5z M68,33.1c0-0.1,0.1-0.3,0.1-0.4h1.5v0.4H68z M69.2,33.9l0.2,1l0.3-1H70l0.3,1l0.2-1h0.4
			l-0.4,1.5h-0.3l-0.3-1l-0.3,1h-0.3l-0.4-1.5H69.2z M70.1,36.2h1.7c0,0.1-0.1,0.3-0.1,0.4h-1.5V36.2z M72,34.5l-0.3,1h-0.3
			l-0.4-1.5h0.4l0.2,1l0.3-1h0.3l0.3,1l0.2-1H73l-0.4,1.5h-0.3L72,34.5z M73.4,32.4h-1.5c-0.3-0.7-0.8-1.3-1.4-1.9
			C71.7,30.7,72.7,31.4,73.4,32.4z M70.1,30.7c0.6,0.5,1,1.1,1.4,1.7h-1.4V30.7z M71.6,32.7c0.1,0.1,0.1,0.3,0.1,0.4h-1.7v-0.4H71.6
			z M69.7,30.7v1.7h-1.4C68.7,31.7,69.1,31.1,69.7,30.7z M69.2,30.5c-0.6,0.5-1,1.2-1.4,1.9h-1.5C67,31.4,68,30.7,69.2,30.5z
			 M67.7,32.7c0,0.1-0.1,0.3-0.1,0.4h-1.7c0.1-0.1,0.1-0.3,0.2-0.4H67.7z M65.9,36.2h1.7c0,0.1,0.1,0.3,0.1,0.4h-1.6
			C66,36.5,66,36.3,65.9,36.2z M66.3,37h1.5c0.3,0.7,0.8,1.3,1.4,1.9C68,38.7,67,38,66.3,37z M69.7,38.7c-0.6-0.5-1-1.1-1.4-1.7h1.4
			V38.7z M68.2,36.6c-0.1-0.1-0.1-0.3-0.1-0.4h1.7v0.4H68.2z M70.1,38.7V37h1.4C71.1,37.6,70.7,38.2,70.1,38.7z M70.5,38.8
			c0.6-0.5,1-1.2,1.4-1.9h1.5C72.7,38,71.7,38.7,70.5,38.8z M72,36.6c0-0.1,0.1-0.3,0.1-0.4h1.7c-0.1,0.1-0.1,0.3-0.2,0.4H72z"/>
	</g>
	<g class="st1">
		<path class="st2" d="M77.8,33c-2.5,0-4.6,2.1-4.6,4.6c0,2.5,2.1,4.6,4.6,4.6c2.5,0,4.6-2.1,4.6-4.6C82.4,35.1,80.4,33,77.8,33z
			 M81.8,36.1h-1.7c0-0.1-0.1-0.3-0.1-0.4h1.6C81.7,35.9,81.7,36,81.8,36.1z M76,36.1c0-0.1,0.1-0.3,0.1-0.4h1.5v0.4H76z M78.1,39.2
			h1.7c0,0.1-0.1,0.3-0.1,0.4h-1.5V39.2z M81.4,35.4h-1.5c-0.3-0.7-0.8-1.3-1.4-1.9C79.7,33.7,80.7,34.4,81.4,35.4z M78.1,33.7
			c0.6,0.5,1,1.1,1.4,1.7h-1.4V33.7z M79.6,35.7c0.1,0.1,0.1,0.3,0.1,0.4h-1.7v-0.4H79.6z M77.7,33.7v1.7h-1.4
			C76.7,34.7,77.1,34.1,77.7,33.7z M77.2,33.5c-0.6,0.5-1,1.2-1.4,1.9h-1.5C75,34.4,76,33.7,77.2,33.5z M75.7,35.7
			c0,0.1-0.1,0.3-0.1,0.4h-1.7c0.1-0.1,0.1-0.3,0.2-0.4H75.7z M73.9,39.2h1.7c0,0.1,0.1,0.3,0.1,0.4h-1.6C74,39.5,74,39.3,73.9,39.2
			z M74.3,40h1.5c0.3,0.7,0.8,1.3,1.4,1.9C76,41.7,75,41,74.3,40z M77.7,41.7c-0.6-0.5-1-1.1-1.4-1.7h1.4V41.7z M76.2,39.6
			c-0.1-0.1-0.1-0.3-0.1-0.4h1.7v0.4H76.2z M78.1,41.7V40h1.4C79.1,40.6,78.7,41.2,78.1,41.7z M78.5,41.8c0.6-0.5,1-1.2,1.4-1.9h1.5
			C80.7,41,79.7,41.7,78.5,41.8z M80,39.6c0-0.1,0.1-0.3,0.1-0.4h1.7c-0.1,0.1-0.1,0.3-0.2,0.4H80z"/>
	</g>
	<g class="st1">
		<path class="st2" d="M63.8,35.4c-1.2,0-2.2,1-2.2,2.2c0,1.2,1,2.2,2.2,2.2c1.2,0,2.2-1,2.2-2.2C66,36.4,65,35.4,63.8,35.4z
			 M65.7,36.9h-0.8c0-0.1,0-0.1-0.1-0.2h0.8C65.6,36.8,65.7,36.9,65.7,36.9z M63,36.9c0-0.1,0-0.1,0.1-0.2h0.7v0.2H63z M64,38.4h0.8
			c0,0.1,0,0.1-0.1,0.2H64V38.4z M65.5,36.6h-0.7c-0.2-0.3-0.4-0.6-0.6-0.9C64.7,35.8,65.2,36.1,65.5,36.6z M64,35.7
			c0.3,0.2,0.5,0.5,0.6,0.8H64V35.7z M64.7,36.7c0,0.1,0,0.1,0.1,0.2H64v-0.2H64.7z M63.8,35.7v0.8h-0.6
			C63.3,36.2,63.5,36,63.8,35.7z M63.6,35.7c-0.3,0.2-0.5,0.5-0.6,0.9h-0.7C62.5,36.1,63,35.8,63.6,35.7z M62.8,36.7
			c0,0.1,0,0.1-0.1,0.2H62c0-0.1,0.1-0.1,0.1-0.2H62.8z M62,38.4h0.8c0,0.1,0,0.1,0.1,0.2h-0.8C62,38.5,62,38.4,62,38.4z M62.2,38.7
			h0.7c0.2,0.3,0.4,0.6,0.6,0.9C63,39.5,62.5,39.2,62.2,38.7z M63.8,39.5c-0.3-0.2-0.5-0.5-0.6-0.8h0.6V39.5z M63.1,38.5
			c0-0.1,0-0.1-0.1-0.2h0.8v0.2H63.1z M64,39.5v-0.8h0.6C64.5,39,64.2,39.3,64,39.5z M64.1,39.6c0.3-0.2,0.5-0.5,0.6-0.9h0.7
			C65.2,39.2,64.7,39.5,64.1,39.6z M64.8,38.5c0-0.1,0-0.1,0.1-0.2h0.8c0,0.1-0.1,0.1-0.1,0.2H64.8z"/>
	</g>
</g>
<g class="st5">
	<g>
		<path class="st6" d="M37.5,24.5c4,1.5,8,2.5,12,2.5V3c-2.5,0-4.5,0.5-7,1c-3.5,4-7,11-9,19c0.5,0,1,0.5,1.5,0.5
			C35.5,24,36.5,24.5,37.5,24.5z"/>
		<path class="st6" d="M30,21c2-6.5,4-12,7-16c-6,2-11.5,5-16.5,9C23.5,17,27,19.5,30,21z"/>
		<path class="st6" d="M49.4,48.4V29.9c-4.5-0.5-8.5-1-13-2.5c-1-0.5-2-0.5-2.5-1c-0.5,0-1-0.5-1-0.5c-1.5,7-2.5,14.5-2.5,22.5H49.4
			z"/>
		<path class="st6" d="M37,94.8c-2.5-4-5-9.5-7-16c-3.5,2-6.5,4.5-9.5,7C25.5,89.8,31,92.8,37,94.8z"/>
		<path class="st6" d="M49.4,72.9c-5,0.5-10,1.5-14.5,3.5c-0.5,0-1,0.5-1.5,1c2,8,5,15,9,19c2.5,0.5,5,0.5,7,1V72.9z"/>
		<path class="st6" d="M82.9,15.5c-5-4.5-11-8-18-10.5c3,4.5,5.5,10.5,7.5,17.5C75.9,20.5,79.4,18.5,82.9,15.5z"/>
		<path class="st6" d="M64.4,25.5c1,0,2-0.5,2.5-1c0.5,0,1-0.5,1.5-0.5c-2.5-9-5.5-16-9.5-20.5C56.4,3,54.4,3,51.9,3l0,0v24.5
			C56.4,27.5,60.4,26.5,64.4,25.5z"/>
		<path class="st6" d="M68.4,27.5c-1,0.5-2,0.5-3,1c-4.5,1-8.5,2-13,2l0,0v18h19.5c0-7.5-1-15-2.5-21.5C69.4,27,68.9,27.5,68.4,27.5
			z"/>
		<path class="st6" d="M72.4,77.4c-2,7-4,13-7,17.5c6.5-2,12.5-5.5,17.5-10C79.4,81.3,75.9,79.3,72.4,77.4z"/>
		<path class="st6" d="M34,73.4c5-2,10-3.5,15.5-4V50.9H30c0,8,1,16,2.5,22.5C33,73.9,33.5,73.9,34,73.4z"/>
		<path class="st6" d="M68.9,75.9c-0.5,0-1-0.5-1.5-0.5c-5-1.5-10-2.5-15-2.5l0,0v24.5l0,0c2.5,0,5-0.5,7.5-1
			C63.4,91.3,66.9,84.3,68.9,75.9z"/>
		<path class="st6" d="M68.4,72.4c0.5,0,1,0.5,1,0.5c1.5-6.5,2-14,2.5-21.5H52.4v18l0,0C57.9,69.4,63.4,70.4,68.4,72.4z"/>
		<g>
			<path class="st6" d="M75.4,48.4h22.5l0,0l0,0c-0.5-12-5-23-13-30.9l0,0l0,0l0,0c-3.5,3.5-7.5,6-12,8
				C74.4,32.4,75.4,39.9,75.4,48.4z"/>
			<path class="st6" d="M84.9,82.3L84.9,82.3c8-8,13-19,13-30.9l0,0l0,0H75.4c0,8-1,16-2.5,23C77.4,76.4,81.4,78.8,84.9,82.3
				L84.9,82.3z"/>
		</g>
		<g>
			<path class="st6" d="M19,83.8L19,83.8c3-3.5,6.5-6,10.5-8c-1.5-7-2.5-15.5-3-24.5H4C4.5,63.9,10,75.4,19,83.8L19,83.8z"/>
			<path class="st6" d="M20.5,85.8L20.5,85.8L20.5,85.8L20.5,85.8z"/>
		</g>
		<path class="st6" d="M18.5,16L18.5,16L18.5,16c-6,5.5-10.5,13-13,21.5c-1,3.5-1.5,7.5-1.5,11h22.5c0-9,1-17,3-24
			C25.5,22,22,19.5,18.5,16z"/>
	</g>
</g>
</svg>
