<?xml version="1.0" encoding="utf-8"?>
<!-- Generator: Adobe Illustrator 22.0.1, SVG Export Plug-In . SVG Version: 6.00 Build 0)  -->
<svg version="1.1" id="Layer_1" xmlns="http://www.w3.org/2000/svg" xmlns:xlink="http://www.w3.org/1999/xlink" x="0px" y="0px"
	 viewBox="0 0 200 200" style="enable-background:new 0 0 200 200;" xml:space="preserve">
<style type="text/css">
	.st0{display:none;}
	.st1{display:inline;fill:#1F8AC0;}
	.st2{display:inline;}
	.st3{fill:#1F8AC0;}
	.st4{display:none;fill:#1F8AC0;}
	.st5{fill:#2CB76B;}
	.st6{fill:#4686C2;}
	.st7{fill:#27ADE2;}
	.st8{fill:#E56353;}
	.st9{fill:#FCD462;}
	.st10{display:inline;fill:none;stroke:#4686C2;stroke-width:0;stroke-linecap:round;stroke-linejoin:round;}
	.st11{display:inline;fill:none;stroke:#FFFFFF;stroke-width:0;stroke-linecap:round;stroke-linejoin:round;}
</style>
<g class="st0">
	<path class="st1" d="M72.2,47.1c8,2.9,16.4,4.7,24.8,5.3V2c-4.8,0.2-9.5,0.7-14.2,1.6C75,12.2,68.4,26.2,63.7,43.6
		c1,0.5,2.1,1,3.1,1.4C68.6,45.7,70.4,46.5,72.2,47.1z"/>
	<path class="st1" d="M57,40c3.8-13.4,8.7-24.9,14.6-33.6C59,10.3,47.4,16.6,37.5,24.9C43.3,30.8,49.9,35.9,57,40z"/>
	<path class="st1" d="M97,96.8V58.7c-9.1-0.6-18.2-2.5-26.8-5.6c-2-0.7-3.8-1.5-5.7-2.3c-0.8-0.3-1.6-0.7-2.4-1.1
		c-3.3,14.2-5.2,30.2-5.5,47.1H97z"/>
	<path class="st1" d="M71.1,193.6c-5.7-8.8-10.5-20.2-14.2-33.4c-7.1,4.1-13.6,9.2-19.4,15.1C47.1,183.3,58.4,189.6,71.1,193.6z"/>
	<path class="st1" d="M97,147.6c-10.4,0.7-20.5,3.2-30.1,7.4c-1.2,0.5-2.3,1-3.4,1.6c4.5,17,10.9,30.9,18.5,39.7
		c4.9,0.9,10,1.5,15,1.7V147.6z"/>
	<path class="st1" d="M166.8,27.7c-10.5-9.7-23.3-17.1-37.5-21.5c6.4,9.4,11.7,22,15.5,36.7C152.8,38.9,160.2,33.8,166.8,27.7z"/>
	<path class="st1" d="M128.9,49.1c1.9-0.5,3.8-1.2,5.7-1.8c1.1-0.4,2.2-0.8,3.3-1.3c-4.7-18.5-11.6-33.5-19.8-42.5
		c-4.8-0.9-9.6-1.4-14.4-1.5h-0.3v50.6C112,52.6,120.6,51.4,128.9,49.1z"/>
	<path class="st1" d="M136.9,53.1c-2,0.7-4,1.4-6,2c-8.9,2.5-18,3.8-27.2,3.8h-0.3v37.9h40.9c-0.2-15.9-2-31.1-4.9-44.6
		C138.6,52.5,137.8,52.9,136.9,53.1z"/>
	<path class="st1" d="M144.9,157.1c-3.7,14.5-8.8,26.9-15,36.3c14-4.4,26.4-11.7,36.8-21.2C160.2,166.2,152.9,161.1,144.9,157.1z"/>
	<path class="st1" d="M64.6,149.2c10.3-4.5,21.3-7.2,32.5-7.9v-38.1H56.7c0.2,16.9,2.1,33,5.3,47.2C62.9,150,63.7,149.6,64.6,149.2z
		"/>
	<path class="st1" d="M138.1,154.1c-1.1-0.4-2.2-0.9-3.3-1.3c-10-3.6-20.5-5.4-31.1-5.4h-0.3V198h0.3c5.1-0.2,10.3-0.8,15.3-1.7
		C126.9,187,133.6,172.2,138.1,154.1z"/>
	<path class="st1" d="M136.9,146.9c0.9,0.3,1.7,0.6,2.6,1c2.9-13.6,4.6-28.8,4.8-44.7h-40.9v37.9h0.3
		C115,141.1,126.2,143,136.9,146.9z"/>
	<g class="st2">
		<path class="st3" d="M151.6,96.8h46.6V97h0.2c-0.7-24.9-10.9-48-27.4-65.1V32h-0.1l0.3,0.3c-7.4,6.9-15.8,12.6-24.9,17
			C149.5,63.5,151.4,79.6,151.6,96.8z"/>
		<path class="st3" d="M170.9,168h0.2c16.5-17.1,26.6-40.1,27.4-65h-0.2v0.1h-46.6c-0.2,17.2-2,33.4-5.2,47.7
			c9,4.3,17.3,10,24.7,16.9L170.9,168z"/>
	</g>
	<g class="st2">
		<path class="st3" d="M33.2,171l-0.2-0.2c6.6-6.7,14.1-12.4,22.3-17c-3.6-15.1-5.7-32.3-5.9-50.7H2.4C3.2,129,14.4,153.4,32.8,171
			H33.2z"/>
		<path class="st3" d="M37,174.8C37,174.8,37,174.8,37,174.8L37,174.8L37,174.8z"/>
	</g>
	<path class="st1" d="M32.9,29.2l0.2-0.2h-0.2C20.3,41,10.9,56.4,6,73.7c-2.1,7.7-3.3,15.5-3.6,23.1h46.9c0.2-18.4,2.4-35.5,6-50.5
		C47.2,41.7,39.6,36,32.9,29.2z"/>
</g>
<g class="st0">
	<g class="st2">
		<g>
			<g>
				<g>
					<path class="st3" d="M195.6,38.3c-0.6-3-2.1-6-4.2-8.4c-3.6-4.5-9-6.3-15-6.3h-74.8c-25.1,0-50.3,0-75.7,0
						c-9.9,0-17.9,6.9-18.8,16.2c-0.3,3.9-0.3,7.8,0,11.4c0.3,5.7,3.6,10.2,8.4,13.2c3.6,2.4,7.8,3,12,3c22.1,0,44.3,0,66.4,0
						c4.8,0,9.6,0,14.7,0c15.3,0,30.5,0,45.8,0c7.2,0,14.7,0,21.8,0c10.2,0,17.9-6.3,19.1-15.9C196.2,47,196.2,42.5,195.6,38.3z
						 M36.7,55.7c-5.9,0-10.3-4.7-10.3-10.6S31.1,34.6,37,34.6s10.6,4.7,10.6,10.3C47.3,51,42.5,55.7,36.7,55.7z"/>
				</g>
			</g>
			<g>
				<g>
					<path class="st3" d="M195.6,93.3c-0.6-3-2.1-6-4.2-8.4c-3.6-4.5-9-6.3-15-6.3h-74.8c-25.1,0-50.3,0-75.7,0
						c-9.9,0-17.9,6.9-18.8,16.2c-0.3,3.9-0.3,7.8,0,11.4c0.3,5.7,3.6,10.2,8.4,13.2c3.6,2.4,7.8,3,12,3c22.1,0,44.3,0,66.4,0
						c4.8,0,9.6,0,14.7,0c15.3,0,30.5,0,45.8,0c7.2,0,14.7,0,21.8,0c10.2,0,17.9-6.3,19.1-15.9C196.2,102,196.2,97.5,195.6,93.3z
						 M36.7,110.7c-5.9,0-10.3-4.7-10.3-10.6S31.1,89.5,37,89.5s10.6,4.7,10.6,10.3C47.3,106,42.5,110.7,36.7,110.7z"/>
				</g>
			</g>
			<g>
				<g>
					<path class="st3" d="M195.6,148.3c-0.6-3-2.1-6-4.2-8.4c-3.6-4.5-9-6.3-15-6.3h-74.8c-25.1,0-50.3,0-75.7,0
						c-9.9,0-17.9,6.9-18.8,16.2c-0.3,3.9-0.3,7.8,0,11.4c0.3,5.7,3.6,10.2,8.4,13.2c3.6,2.4,7.8,3,12,3c22.1,0,44.3,0,66.4,0
						c4.8,0,9.6,0,14.7,0c15.3,0,30.5,0,45.8,0c7.2,0,14.7,0,21.8,0c10.2,0,17.9-6.3,19.1-15.9C196.2,157,196.2,152.5,195.6,148.3z
						 M36.7,165.4c-5.9,0-10.3-4.7-10.3-10.6s4.7-10.6,10.6-10.6s10.6,4.7,10.6,10.3C47.3,160.7,42.5,165.7,36.7,165.4z"/>
				</g>
			</g>
		</g>
	</g>
</g>
<g class="st0">
	<path class="st1" d="M189.7,181.7h-60v-2.3c0-3.1-2.5-5.6-5.6-5.6h-20.4v-20.7h-7.5v20.7H75.9c-3.1,0-5.6,2.5-5.6,5.6v2.3h-60
		c-2,0-3.6,1.6-3.6,3.6l0,0c0,2,1.6,3.6,3.6,3.6h60v1.6c0,3.1,2.5,5.6,5.6,5.6h47.9c3.1,0,5.6-2.5,5.6-5.6v-1.6h60.3
		c2,0,3.6-1.6,3.6-3.6l0,0C193.2,183.3,191.6,181.7,189.7,181.7z"/>
	<path class="st1" d="M168.9,8H30.7c-3.1,0-5.6,2.5-5.6,5.6v35.9c0,3.1,2.5,5.6,5.6,5.6h138.1c3.1,0,5.6-2.5,5.6-5.6V13.6
		C174.5,10.5,172,8,168.9,8z M88.9,46l-49.7,0c-1,0-1.9-0.6-2.1-1.5c-0.5-1.6,0.6-3,2.1-3l49.7,0c1,0,1.9,0.6,2.1,1.5
		C91.4,44.5,90.3,46,88.9,46z M88.9,35.1l-49.7,0c-1,0-1.9-0.6-2.1-1.5c-0.5-1.6,0.6-3,2.1-3l49.7,0c1,0,1.9,0.6,2.1,1.5
		C91.4,33.6,90.3,35.1,88.9,35.1z M88.9,24.2l-49.7,0c-1,0-1.9-0.6-2.1-1.5c-0.5-1.6,0.6-3,2.1-3h49.8c1.1,0,2,0.8,2.2,1.8
		C91.3,23,90.2,24.2,88.9,24.2z M146.9,38.1c-3.9,0-7-3.5-6.3-7.6c0.5-2.6,2.6-4.7,5.2-5.2c4-0.7,7.6,2.4,7.6,6.3
		C153.3,35.2,150.4,38.1,146.9,38.1z"/>
	<path class="st1" d="M168.9,61.4H30.7c-3.1,0-5.6,2.5-5.6,5.6v35.9c0,3.1,2.5,5.6,5.6,5.6h138.1c3.1,0,5.6-2.5,5.6-5.6V67
		C174.5,63.9,172,61.4,168.9,61.4z M88.9,99l-49.7,0c-1,0-1.9-0.6-2.1-1.5c-0.5-1.6,0.6-3,2.1-3l49.7,0c1,0,1.9,0.6,2.1,1.5
		C91.4,97.6,90.3,99,88.9,99z M88.9,88.1l-49.7,0c-1,0-1.9-0.6-2.1-1.5c-0.5-1.6,0.6-3,2.1-3h49.7c1,0,1.9,0.6,2.1,1.5
		C91.4,86.7,90.3,88.1,88.9,88.1z M88.9,77.2H39.1c-1,0-1.9-0.6-2.1-1.5c-0.5-1.6,0.6-3,2.1-3h49.8c1.1,0,2,0.8,2.2,1.8
		C91.3,76,90.2,77.2,88.9,77.2z M146.9,91.2c-3.5,0-6.4-2.9-6.4-6.4c0-3.5,2.9-6.4,6.4-6.4s6.4,2.9,6.4,6.4
		C153.3,88.3,150.4,91.2,146.9,91.2z"/>
	<path class="st1" d="M168.9,114.4H30.7c-3.1,0-5.6,2.5-5.6,5.6v35.9c0,3.1,2.5,5.6,5.6,5.6h138.1c3.1,0,5.6-2.5,5.6-5.6V120
		C174.5,116.9,172,114.4,168.9,114.4z M88.9,152H39.1c-1,0-1.9-0.6-2.1-1.5c-0.5-1.6,0.6-3,2.1-3h49.7c1,0,1.9,0.6,2.1,1.5
		C91.4,150.6,90.3,152,88.9,152z M88.9,141.1H39.1c-1,0-1.9-0.6-2.1-1.5c-0.5-1.6,0.6-3,2.1-3h49.8c1.1,0,2,0.8,2.2,1.8
		C91.3,139.9,90.2,141.1,88.9,141.1z M88.9,130.6H39.1c-1,0-1.9-0.6-2.1-1.5c-0.5-1.6,0.6-3,2.1-3h49.8c1.1,0,2,0.8,2.2,1.8
		C91.3,129.4,90.2,130.6,88.9,130.6z M146.9,144.3c-3.5,0-6.4-2.9-6.4-6.4c0-3.5,2.9-6.4,6.4-6.4s6.4,2.9,6.4,6.4
		C153.3,141.4,150.4,144.3,146.9,144.3z"/>
</g>
<g class="st0">
	<g class="st2">
		<path class="st3" d="M99.7,114.3c13.1,0,53.4-36.2,89-74.8c-3.1-3-7.3-4.9-12-4.9h-154c-4.7,0-8.9,1.9-12,4.9
			C46.3,78.1,86.7,114.3,99.7,114.3z"/>
		<path class="st3" d="M99.5,132.5c-22.3,0-67.7-44.1-94.5-72.3v103.7c0,9.5,7.7,17.2,17.2,17.2h154.5c9.5,0,17.2-7.7,17.2-17.2
			V60.2C167.2,88.4,121.7,132.5,99.5,132.5z"/>
	</g>
</g>
<g class="st0">
	<g id="Web_hosting_2_" class="st2">
		<path class="st3" d="M188.7,181h-40.3c-7.4,0-13.5-6.1-13.5-13.5v-27.1h-13.5v26.2c0,7.9-6.5,14.4-14.4,14.4H67.5
			c-3.6,0-6.8,2.5-7.1,6.1c-0.3,4.1,2.7,7.4,6.8,7.4H189c3.9,0,7.1-3.4,6.8-7.4C195.5,183.6,192.2,181,188.7,181z"/>
		<path class="st3" d="M168.7,72.7H33.3c-14.9,0-27.1,12.2-27.1,27.1v6.8c0,14.9,12.2,27.1,27.1,27.1h135.4
			c14.9,0,27.1-12.2,27.1-27.1v-6.8C195.8,84.9,183.6,72.7,168.7,72.7z M168.7,120.1H33.3c-7.4,0-13.5-6.1-13.5-13.5v-6.8
			c0-7.4,6.1-13.5,13.5-13.5h135.4c7.4,0,13.5,6.1,13.5,13.5v6.8C182.2,114,176.2,120.1,168.7,120.1z"/>
		<path class="st3" d="M168.7,5H33.3C18.4,5,6.2,17.2,6.2,32.1v6.8c0,14.9,12.2,27.1,27.1,27.1h135.4c14.9,0,27.1-12.2,27.1-27.1
			v-6.8C195.8,17.2,183.6,5,168.7,5z M168.7,52.4H33.3c-7.4,0-13.5-6.1-13.5-13.5v-6.8c0-7.4,6.1-13.5,13.5-13.5h135.4
			c7.4,0,13.5,6.1,13.5,13.5v6.8C182.2,46.3,176.2,52.4,168.7,52.4z"/>
		<circle class="st3" cx="39.5" cy="103.2" r="6.8"/>
		<circle class="st3" cx="66.6" cy="103.2" r="6.8"/>
		<circle class="st3" cx="93.7" cy="103.2" r="6.8"/>
		<circle class="st3" cx="39.5" cy="35.5" r="6.8"/>
		<circle class="st3" cx="66.6" cy="35.5" r="6.8"/>
		<circle class="st3" cx="93.7" cy="35.5" r="6.8"/>
	</g>
</g>
<path class="st4" d="M157.3,84.8H51.7c-12.5,0-22.5,10.1-22.5,22.5v45c0,30,15.1,45,37.7,45h75.4c22.6,0,37.7-15,37.7-45v-45
	C179.9,94.9,169.8,84.8,157.3,84.8z M113.5,2h-16C72.7,2,52.5,22.2,52.5,47.1v29.2h29.7V46.8c0-8.3,6.7-15,15-15h14.5
	c8.3,0,15,6.7,15,15v29.6h31.8V47.1C158.6,22.2,138.4,2,113.5,2z M120.6,159.1H90.5l6-18.1c-4.4-3.3-6.9-8.9-5.7-15
	c1.2-5.9,5.9-10.6,11.7-11.7c9.6-1.9,18,5.5,18,14.7c0,4.9-2.4,9.2-6,12L120.6,159.1z"/>
<g class="st0">
	<g id="Gif_2_" class="st2">
		<path class="st3" d="M23.7,195.1h71.8v-79.8H23.7V195.1z M186.2,59.4l-43.1,0c3-1.5,5.6-3.1,8-4.8c9-6.4,13.8-14.6,13.8-22.7
			c0-6.7-3.2-12.5-7.8-16.5c-4.6-4-10.7-6.4-17.2-6.4c-7,0-13.4,2.4-18.9,6.1c-8.3,5.6-14.9,13.9-19.5,23.1
			c-0.2,0.5-0.5,0.9-0.7,1.4c-1.7-3.6-3.7-7-5.9-10.2c-3.9-5.6-8.7-10.6-14.2-14.3C75.1,11.4,68.6,9,61.7,9c-6.9,0-13.3,2.9-18,7.4
			c-4.7,4.4-8,10.7-8.1,17.8c0,4.2,1.2,8.5,3.7,12.4c3.1,4.9,8.1,9.3,15,12.8H16.8c-5,0-9.1,4-9.1,9V102h87.8V59.4l12,0V102h87.8
			V68.5C195.3,63.4,191.2,59.4,186.2,59.4z M57.7,46.4c-3.6-2.2-5.7-4.5-7-6.5c-1.3-2-1.7-3.8-1.7-5.5c0-2.9,1.4-6,4-8.4
			c2.5-2.4,5.9-3.8,8.9-3.8H62c3.9,0,7.8,1.3,11.7,3.9c5.8,3.8,11.3,10.6,15.1,18.3c2,3.9,3.5,8,4.5,12
			C75.7,54.5,64.3,50.6,57.7,46.4z M118.1,37.1c3.2-4.6,6.9-8.4,10.8-11c3.9-2.6,7.8-3.9,11.7-3.9h0c3.3,0,6.4,1.3,8.5,3.2
			c2.2,1.9,3.3,4.2,3.3,6.7c0,2.9-1.5,7.2-8.4,12.2c-6.5,4.7-17.8,9.6-35.1,13C110.6,50.4,113.8,43.1,118.1,37.1z M106.2,195.1H178
			v-79.8h-71.8V195.1z"/>
	</g>
</g>
<g class="st0">
	<g class="st2">
		<g>
			<g>
				<rect x="61" y="42.5" class="st3" width="78.3" height="10.8"/>
				<path class="st3" d="M56.1,36.5h88c5.2,0,9.5-4,9.5-8.9s-4.3-8.9-9.5-8.9h-88c-5.2,0-9.5,4-9.5,8.9S50.9,36.5,56.1,36.5z
					 M84.5,23.2c2.5,0,4.5,2,4.5,4.5s-2,4.5-4.5,4.5c-2.5,0-4.5-2-4.5-4.5C80.1,25.2,82.1,23.2,84.5,23.2z M70.4,23.2
					c2.5,0,4.5,2,4.5,4.5s-2,4.5-4.5,4.5c-2.5,0-4.5-2-4.5-4.5S68,23.2,70.4,23.2z M56.3,23.2c2.5,0,4.5,2,4.5,4.5s-2,4.5-4.5,4.5
					c-2.5,0-4.5-2-4.5-4.5S53.9,23.2,56.3,23.2z"/>
				<rect x="61" y="83.1" class="st3" width="78.3" height="10.8"/>
				<path class="st3" d="M56.1,117.5h41.3v28.6h6v-28.6h40.7c5.2,0,9.5-4,9.5-8.8c0-4.9-4.3-8.8-9.5-8.8h-1.9c0,0,0,0,0,0
					c0,0,0,0,0,0H58c0,0,0,0,0,0c0,0,0,0,0,0h-1.9c-5.2,0-9.5,4-9.5,8.8C46.6,113.6,50.9,117.5,56.1,117.5z M84.5,104.3
					c2.5,0,4.5,2,4.5,4.5c0,2.5-2,4.5-4.5,4.5c-2.5,0-4.5-2-4.5-4.5C80.1,106.3,82.1,104.3,84.5,104.3z M70.4,104.3
					c2.5,0,4.5,2,4.5,4.5c0,2.5-2,4.5-4.5,4.5c-2.5,0-4.5-2-4.5-4.5C66,106.3,68,104.3,70.4,104.3z M56.3,104.3c2.5,0,4.5,2,4.5,4.5
					c0,2.5-2,4.5-4.5,4.5c-2.5,0-4.5-2-4.5-4.5C51.9,106.3,53.9,104.3,56.3,104.3z"/>
				<path class="st3" d="M56.1,77h88c5.2,0,9.5-4,9.5-8.9s-4.3-8.9-9.5-8.9h-88c-5.2,0-9.5,4-9.5,8.9C46.6,73.1,50.9,77,56.1,77z
					 M84.5,63.7c2.5,0,4.5,2,4.5,4.5c0,2.5-2,4.5-4.5,4.5c-2.5,0-4.5-2-4.5-4.5C80.1,65.7,82.1,63.7,84.5,63.7z M70.4,63.7
					c2.5,0,4.5,2,4.5,4.5c0,2.5-2,4.5-4.5,4.5c-2.5,0-4.5-2-4.5-4.5C66,65.7,68,63.7,70.4,63.7z M56.3,63.7c2.5,0,4.5,2,4.5,4.5
					c0,2.5-2,4.5-4.5,4.5c-2.5,0-4.5-2-4.5-4.5C51.9,65.7,53.9,63.7,56.3,63.7z"/>
				<path class="st3" d="M30.3,171.5c-1.3-5.2-6-9-11.6-9c-6.6,0-12,5.4-12,12c0,6.6,5.4,12,12,12c5.6,0,10.3-3.8,11.6-9h46.9
					l0.2-0.3v-5.5l-0.2-0.3H30.3z"/>
				<path class="st3" d="M182,162.6c-5.6,0-10.3,3.8-11.6,9h-46.8l-0.2,0.3v5.5l0.2,0.3h46.8c1.3,5.2,6,9,11.6,9c6.6,0,12-5.4,12-12
					C194,167.9,188.6,162.6,182,162.6z"/>
				<rect x="76.6" y="162.8" class="st3" width="47.7" height="22.9"/>
			</g>
		</g>
	</g>
	<rect x="96.2" y="117.1" class="st1" width="7.5" height="47.4"/>
</g>
<g class="st0">
	<path class="st1" d="M7.9,182.8c0,7.5,0,7.5,7.5,7.5h60v-15h-60C7.9,175.3,7.9,175.3,7.9,182.8z"/>
	<path class="st1" d="M105.4,145.3h74.9c4.4,0,7.7-3.3,7.7-7.7V17.9c0-4.4-3.3-7.7-7.7-7.7H15.5c-4.4,0-7.7,3.3-7.7,7.7v119.8
		c0,4.4,3.3,7.7,7.7,7.7h74.9v23c0,3.5-7.5,6.8-7.5,16.1c0,6.8,5.1,13.4,15,13.4c6.9,0,11.4-3.2,13.6-7.4h69c7.5,0,7.5,0,7.5-7.5
		s0-7.5-7.5-7.5h-70.4c-2.1-3.1-4.6-5.1-4.6-7.1V145.3z M158,25.2h15v15h-15V25.2z M158,55.2h15v15h-15V55.2z M158,85.3h15v15h-15
		V85.3z M158,115.3h15v15h-15V115.3z M37.9,130.3h-15v-15h15V130.3z M37.9,100.3h-15v-15h15V100.3z M37.9,70.3h-15v-15h15V70.3z
		 M37.9,40.2h-15v-15h15V40.2z M75.6,122.2c-2.1,0-3.8-1.7-3.8-3.8h0V52.2h0c0-2.1,1.7-3.8,3.8-3.8c0.8,0,1.4,0.2,2.1,0.6l53.5,31.8
		c1.3,1.1,2.1,2.7,2.1,4.4c0,1.8-0.8,3.4-2.1,4.4l-53.5,31.8C77.1,121.9,76.4,122.2,75.6,122.2z"/>
</g>
<g class="st0">
	<g class="st2">
		<path class="st5" d="M156.3,105.5c-0.4-6.7-0.4-13.5,0-19.9c0-2.8,0-5.7,0-8.9v-7.5v-2.1c0-8.2,0-16.3,0-24.5
			c-10.3-2.5-20.6-5-30.6-7.5c-8.2-2.1-16.7-4.3-24.9-6.4c-0.7,0-1.4,0-1.8,0c-8.2,2.1-16.3,4.3-24.5,6c-10.7,2.5-21.3,5.3-32,7.8
			v6.7c0,18.5,0.4,37.7,0,56.8c-0.4,13.1,3.9,24.9,12.4,35.2c10.7,12.8,24.5,22.7,44.1,31.6c16.7-7.1,29.8-16,40.1-27
			C151.4,133.9,156.7,120.4,156.3,105.5z M136.4,78.5c-5,6.4-9.9,12.8-14.9,19.2c-8.2,10.7-16.3,21-24.5,31.6c-4.6,6-8.2,5.7-12.8,0
			c-7.1-9.9-14.6-19.9-21.7-29.8c-2.5-3.2-2.5-6.7,0-9.2c2.5-2.1,6-2.1,8.9,0.7c5.3,4.6,10.7,9.2,16,13.9c0.7,0.7,1.8,1.4,3.6,2.8
			c0.7-1.1,1.1-2.1,1.8-3.2c11-11.4,22.4-22.4,33.7-33.4c1.1-1.1,2.8-2.5,4.3-2.8c2.5-0.7,5,0.4,6.4,2.8
			C138.9,73.9,138.2,76.4,136.4,78.5z"/>
		<path class="st3" d="M179.4,105.1c-0.4-7.1-0.4-14.2,0-21.3c0-0.4,0-1.1,0-1.4l0,0v-8.5c0-3.6,0-7.1,0-10.7c0-9.9,0-19.9,0-29.8
			c0-8.9-5.7-12.1-10.3-13.5c-12.1-2.8-24.5-6-36.6-9.2c-9.2-2.1-18.5-4.6-28.1-7.1c-3.2-0.7-6.7-0.7-10.3,0
			c-9.2,2.1-18.5,4.6-27.4,6.7c-12.1,3.2-24.9,6-36.9,9.2c-6.7,1.8-10.3,6.4-10.3,13.5V43c0,20.6,0.4,41.9,0,62.9
			c-0.4,18.5,5.7,35.5,17.8,50.1c13.9,16.7,31.6,29.5,56.5,40.5c1.8,0.7,3.6,1.1,5.3,1.1c2.1,0,4.3-0.4,6-1.1
			c21-8.9,37.7-20.2,51.2-34.5C172.3,146,180.1,126.5,179.4,105.1z M150.3,157c-13.9,14.2-30.2,24.5-48.3,32.3
			c-1.4,0.7-3.6,0.7-4.6,0c-20.6-8.9-39.1-20.6-53.3-38c-10.7-13.1-16.3-27.7-16-44.8c0.4-24.2,0-48.7,0-72.8c0-3.2,0.7-4.6,3.9-5.3
			c21.7-5.3,43-10.7,64.7-16c1.8-0.4,4.3-0.4,6,0c21.7,5.3,43,10.7,64.7,16c3.2,0.7,3.9,2.1,3.9,5c0,13.5,0,27,0,40.5l0,0
			c0,10.3-0.4,21,0,31.3C172,125.7,164.2,142.4,150.3,157z"/>
	</g>
</g>
<g class="st0">
	<g class="st2">
		<path class="st3" d="M87.1,191.1c-40.1,0-72.5-32.5-72.5-72.5S47,46.1,87.1,46.1s72.5,32.5,72.5,72.5
			C159.6,158.6,127.1,191.1,87.1,191.1z M87.1,59.6c-32.6,0-59,26.4-59,59s26.4,59,59,59s59-26.4,59-59
			C146.1,86,119.7,59.6,87.1,59.6z"/>
		<path class="st3" d="M87.1,191.1c-21.7,0-38-31.2-38-72.5s16.4-72.5,38-72.5s38,31.2,38,72.5S108.8,191.1,87.1,191.1z M87.1,59.6
			c-11.6,0-24.5,25.2-24.5,59s13,59,24.5,59s24.5-25.2,24.5-59S98.7,59.6,87.1,59.6z"/>
		<path class="st3" d="M147.4,100.9H26.8c-3.7,1.7-6.8-1.3-6.8-5.1s3-6.8,6.8-12.9h120.6c3.7,6.2,6.8,9.2,6.8,12.9
			S151.1,102.6,147.4,100.9z"/>
		<path class="st3" d="M147.4,145.9H26.8c-3.7,2.3-6.8-0.8-6.8-4.5c0-3.7,3-6.8,6.8-13.5h120.6c3.7,6.8,6.8,9.8,6.8,13.5
			C154.1,145.1,151.1,148.1,147.4,145.9z"/>
	</g>
	<g class="st2">
		<g>
			<g id="Layer_45_1_">
			</g>
			<g id="Layer_44_1_">
			</g>
			<g id="Layer_43_1_">
			</g>
			<g id="Layer_42_1_">
			</g>
			<g id="Layer_41_1_">
			</g>
			<g id="Layer_40_1_">
			</g>
			<g id="Layer_39_1_">
			</g>
			<g id="Layer_38_1_">
			</g>
			<g id="Layer_37_1_">
			</g>
			<g id="Layer_36_1_">
			</g>
			<g id="Layer_35_1_">
			</g>
			<g id="Layer_34_1_">
			</g>
			<g id="Layer_33_1_">
			</g>
			<g id="Layer_32_1_">
			</g>
			<g id="Layer_31_1_">
			</g>
			<g id="Layer_30_1_">
			</g>
			<g id="Layer_29_1_">
			</g>
			<g id="Layer_28_1_">
			</g>
			<g id="Layer_27_1_">
			</g>
			<g id="Layer_26_1_">
			</g>
			<g id="Layer_25_1_">
			</g>
			<g id="Layer_24_1_">
			</g>
			<g id="Layer_23_1_">
			</g>
			<g id="Layer_22_1_">
			</g>
			<g id="Layer_21_1_">
			</g>
			<g id="Layer_20_1_">
			</g>
			<g id="Layer_19_1_">
			</g>
			<g id="Layer_18_1_">
			</g>
			<g id="Layer_17_1_">
			</g>
			<g id="Layer_16_1_">
			</g>
			<g id="Layer_15_1_">
			</g>
			<g id="Layer_14_1_">
			</g>
			<g id="Layer_13_1_">
			</g>
			<g id="Layer_12_1_">
			</g>
			<g id="Layer_11_1_">
				<g id="XMLID_1_">
					<g id="XMLID_19_">
						<path class="st6" d="M108.5,72.7l-0.5-5.9c0-0.6,0.3-1.2,0.8-1.5c0.9-0.4,1.9,0.3,2,1.2l0.5,6c0.1,0.9-0.8,1.7-1.7,1.5
							C108.9,73.8,108.5,73.3,108.5,72.7z"/>
						<path class="st6" d="M112.7,70.7l-6,0.5c-0.6,0-1.2-0.3-1.5-0.8c-0.4-0.9,0.3-1.9,1.2-2l6-0.5c0.6,0,1.2,0.3,1.5,0.8
							C114.2,69.7,113.6,70.6,112.7,70.7z"/>
					</g>
					<g id="XMLID_18_">
						<path class="st7" d="M102.1,18.5l-0.5-6.6c0-0.6,0.3-1.2,0.8-1.5c0.9-0.4,1.9,0.3,2,1.2l0.5,6.7c0.1,0.9-0.8,1.7-1.7,1.5
							C102.6,19.6,102.2,19.1,102.1,18.5z"/>
						<path class="st7" d="M106.5,16.5L99.8,17c-0.6,0-1.2-0.3-1.5-0.8c-0.4-0.9,0.3-1.9,1.2-2l6.7-0.5c0.6,0,1.2,0.3,1.5,0.8
							C108,15.5,107.4,16.4,106.5,16.5z"/>
					</g>
					<g id="XMLID_17_">
						<path class="st7" d="M162.9,68c-0.6,0-1.2-0.3-1.4-0.9l-0.1-0.3c-5-12.1-13.3-22.4-24.1-29.9c-0.6-0.4-0.8-1.3-0.3-1.9
							c0.4-0.6,1.3-0.8,1.9-0.3c11.2,7.8,19.8,18.6,25,31.1l0.1,0.3c0.3,0.7,0,1.5-0.8,1.8C163.2,68,163.1,68,162.9,68z"/>
						<path class="st7" d="M129.9,32.2c-0.2,0-0.5,0-0.7-0.1c-4.6-2.3-9.4-4.2-14.4-5.4c-0.7-0.2-1.2-1-1-1.7c0.2-0.7,1-1.2,1.7-1
							c5.2,1.3,10.2,3.2,15,5.6c0.7,0.4,1,1.2,0.6,1.9C130.8,31.9,130.4,32.2,129.9,32.2z"/>
						<path class="st6" d="M142.9,63.3c-0.5,0-0.9-0.1-1.2-0.5c-9.3-11.9-22.6-20.5-37.2-24.2l0.7-2.7c15.3,3.9,29,12.8,38.7,25.2
							c0.5,0.6,0.4,1.5-0.2,2C143.5,63.2,143.2,63.3,142.9,63.3z"/>
						<path class="st6" d="M165.1,41.5c-0.5,0-0.9-0.2-1.2-0.6c-9.4-13-23.2-22.3-38.8-26.3c-0.7-0.2-1.2-1-1-1.7
							c0.2-0.7,1-1.2,1.7-1c16.2,4.1,30.6,13.9,40.4,27.4c0.5,0.6,0.3,1.5-0.3,2C165.6,41.4,165.4,41.5,165.1,41.5z"/>
					</g>
					<g id="XMLID_2_">
						<path class="st6" d="M164.3,15.4l-0.5-5.9c0-0.6,0.3-1.2,0.8-1.5c0.9-0.4,1.9,0.3,2,1.2l0.5,6c0.1,0.9-0.8,1.7-1.7,1.5
							C164.7,16.6,164.3,16.1,164.3,15.4z"/>
						<path class="st6" d="M168.6,13.7l-6,0.5c-0.6,0-1.2-0.3-1.5-0.8c-0.4-0.9,0.3-1.9,1.2-2l6-0.5c0.6,0,1.2,0.3,1.5,0.8
							C170.2,12.7,169.6,13.6,168.6,13.7z"/>
					</g>
				</g>
			</g>
			<g id="Layer_10_1_">
			</g>
			<g id="Layer_9_1_">
			</g>
			<g id="Layer_8_1_">
			</g>
			<g id="Layer_7_1_">
			</g>
			<g id="Layer_6_1_">
			</g>
			<g id="Layer_5_1_">
			</g>
			<g id="Layer_4_1_">
			</g>
			<g id="Layer_3_1_">
			</g>
			<g id="Layer_2_2_">
			</g>
			<g id="Layer_1_2_">
			</g>
		</g>
		<g id="XMLID_4_">
			<path class="st8" d="M165.2,78.7c0.1-0.6-0.2-1.2-0.7-1.6l-9.7-8.1l12.3-2.8c0.6-0.1,1.1-0.6,1.4-1.2l4.7-11.8l6.4,11
				c0.3,0.5,0.9,0.9,1.5,0.9l12.6,0.8l-8.3,9.6c-0.4,0.5-0.6,1.1-0.4,1.7l3.1,12.3l-11.6-5c-0.2-0.1-0.5-0.2-0.8-0.2
				c-0.4,0-0.7,0.1-1,0.3L164,91.3L165.2,78.7z"/>
			<path class="st9" d="M173.3,55.4l5.4,9.1c0.5,0.8,1.4,1.4,2.3,1.4l10.6,0.7l-7,8c-0.6,0.7-0.9,1.7-0.6,2.6l2.6,10.3l-9.7-4.2
				c-0.4-0.2-0.8-0.2-1.1-0.2c-0.6,0-1.1,0.2-1.6,0.5l-8.9,5.7l1-10.6c0.1-1-0.3-1.9-1-2.5l-8.2-6.8l10.3-2.4
				c0.9-0.2,1.7-0.9,2.1-1.8L173.3,55.4 M173.1,52c-0.3,0-0.7,0.2-0.8,0.6l-4.7,12c-0.1,0.3-0.4,0.5-0.6,0.6L154.4,68
				c-0.7,0.2-1,1.1-0.4,1.6l9.8,8.2c0.2,0.2,0.4,0.5,0.3,0.8L163,91.4c-0.1,0.6,0.4,1,0.9,1c0.2,0,0.3,0,0.5-0.1l10.8-6.9
				c0.1-0.1,0.3-0.1,0.5-0.1c0.1,0,0.2,0,0.4,0.1l11.7,5.1c0.1,0.1,0.2,0.1,0.4,0.1c0.6,0,1-0.5,0.9-1.1l-3.2-12.5
				c-0.1-0.3,0-0.6,0.2-0.8l8.4-9.7c0.5-0.6,0.1-1.5-0.6-1.5L181.1,64c-0.3,0-0.6-0.2-0.7-0.4l-6.5-11.1
				C173.7,52.2,173.4,52,173.1,52L173.1,52z"/>
		</g>
	</g>
</g>
<g>
	<path class="st3" d="M137.4,185.3c0.3,7.9-6.9,14.3-15.2,12.4c-4.2-0.9-7.7-4.2-8.9-8.3c-2.4-8.2,3.5-15.7,11.4-16l0,0
		C131.5,173.1,137.2,178.4,137.4,185.3L137.4,185.3z"/>
	<g>
		<g>
			<g>
				<title></title>
				<g id="_01_Big_File_1_">
					<path class="st3" d="M131.6,187.7c-2.4,0.1-4.4-1.8-4.5-4.2c-0.1-2,1.3-3.8,3.2-4.3c29.9-8.1,51.8-33.6,55.5-64.3
						c0.3-2.4,2.5-4.1,4.9-3.8c2.4,0.3,4.1,2.5,3.8,4.9c-4.1,34.2-28.5,62.6-61.8,71.6C132.3,187.7,131.9,187.7,131.6,187.7z"/>
					<path class="st3" d="M190.3,101.1c-2.3,0.1-4.2-1.6-4.5-3.9C184.7,86,181,75.1,175,65.5c-1.2-2.1-0.6-4.7,1.5-6
						c2-1.2,4.6-0.6,5.9,1.4c6.7,10.7,10.8,22.8,12.2,35.4c0.3,2.4-1.5,4.5-3.9,4.8c0,0,0,0,0,0L190.3,101.1z"/>
					<path class="st3" d="M169.6,56.2c-1.3,0-2.5-0.5-3.4-1.4c-5-5.4-10.7-10.1-16.9-13.8c-2.1-1.2-2.7-3.9-1.5-6
						c1.2-2.1,3.9-2.7,6-1.5c7,4.2,13.3,9.4,18.9,15.4c1.6,1.8,1.5,4.5-0.3,6.2C171.6,55.8,170.6,56.2,169.6,56.2L169.6,56.2z"/>
					<path class="st3" d="M137.2,33.9c-1.2,0-2.3-0.4-3.1-1.2c-0.8-0.8-1.3-1.9-1.4-3.1c0-1.1,0.4-2.2,1.2-3.1
						c1.7-1.7,4.4-1.8,6.2-0.3c0.8,0.8,1.3,1.9,1.4,3c0,1.2-0.4,2.3-1.2,3.1C139.5,33.4,138.4,33.9,137.2,33.9z"/>
				</g>
			</g>
		</g>
		<g>
			<path class="st3" d="M100.4,164.9c-33.7,0-61-27.3-61-61s27.3-61,61-61s61,27.3,61,61C161.4,137.5,134.1,164.8,100.4,164.9z
				 M100.4,54.1c-27.4,0-49.7,22.2-49.7,49.7s22.2,49.7,49.7,49.7s49.7-22.2,49.7-49.7C150.1,76.4,127.8,54.2,100.4,54.1z"/>
			<path class="st3" d="M100.4,164.9c-18.2,0-32-26.2-32-61s13.8-61,32-61s32,26.2,32,61S118.7,164.9,100.4,164.9z M100.4,54.1
				c-9.7,0-20.6,21.2-20.6,49.7s10.9,49.7,20.6,49.7s20.6-21.2,20.6-49.7S110.1,54.1,100.4,54.1z"/>
			<path class="st3" d="M151.2,92.5H49.7c-3.1-2.2-5.7-4.7-5.7-7.9c0-3.1,2.5-5.7,5.7-7.3h101.5c3.1,1.6,5.7,4.1,5.7,7.3
				C156.8,87.8,154.3,90.3,151.2,92.5z"/>
			<path class="st3" d="M151.2,130.4H49.7c-3.1-1.7-5.7-4.2-5.7-7.4s2.5-5.7,5.7-7.8h101.5c3.1,2.1,5.7,4.6,5.7,7.8
				S154.3,128.7,151.2,130.4z"/>
		</g>
		<g>
			<g>
				<title></title>
				<g id="_01_Big_File_2_">
					<path class="st3" d="M94.6,14.4c2.3,0.6,3.7,3,3.1,5.4c-0.5,1.9-2.3,3.3-4.3,3.2C62.4,22.1,34,40,21.5,68.4
						c-1,2.2-3.6,3.2-5.8,2.2c-2.2-1-3.2-3.6-2.2-5.8c13.9-31.6,45.5-51.6,80-50.5C93.9,14.3,94.2,14.4,94.6,14.4z"/>
					<path class="st3" d="M13.2,80.2c2.2,0.6,3.6,2.8,3.1,5c-2.1,11.1-1.7,22.6,1.2,33.6c0.6,2.3-0.8,4.7-3.2,5.3
						c-2.3,0.6-4.6-0.8-5.2-3.1c-3.2-12.2-3.7-25-1.3-37.4c0.4-2.4,2.7-3.9,5.1-3.5c0,0,0,0,0,0L13.2,80.2z"/>
					<path class="st3" d="M19.9,129.2c1.2,0.3,2.2,1.2,2.8,2.3c3.2,6.6,7.3,12.7,12.2,18.2c1.6,1.8,1.5,4.5-0.3,6.2
						c-1.8,1.6-4.5,1.5-6.2-0.3c-5.5-6.1-10-12.9-13.6-20.2c-1-2.2-0.1-4.8,2.1-5.8C17.9,129.1,18.9,129,19.9,129.2L19.9,129.2z"/>
					<path class="st3" d="M44.4,160c1.1,0.3,2.1,1,2.6,2c0.6,1,0.7,2.2,0.4,3.4c-0.3,1.1-1,2-2,2.6c-2.1,1.2-4.7,0.5-6-1.6
						c-0.6-1-0.7-2.2-0.4-3.3c0.3-1.1,1-2.1,2-2.6C42.1,159.8,43.3,159.7,44.4,160z"/>
				</g>
			</g>
		</g>
		<path class="st7" d="M88.3,15.1c2.1-7.6,10.8-11.6,18.2-7.4c3.7,2.1,6.1,6.3,6.1,10.6c-0.1,8.5-8,14-15.6,12l0,0
			C90.4,28.5,86.5,21.7,88.3,15.1L88.3,15.1z"/>
	</g>
</g>
<g class="st0">
	<path class="st10" d="M133.7,31c10.4,5.3,19.5,12.9,26.5,22.1"/>
	<path class="st10" d="M98.8,5c52.3,0,94.8,42.4,94.8,94.8c-0.1,52.3-42.5,94.7-94.8,94.8"/>
	<path class="st10" d="M25.2,76.6c0.8-2.5,1.7-4.9,2.7-7.3"/>
	<path class="st10" d="M172.4,76.6c-0.8-2.5-1.7-4.9-2.7-7.3"/>
	<path class="st10" d="M133.7,31c-10.5-5.3-22.3-8.4-34.9-8.4"/>
	<path class="st10" d="M63.9,31c-10.4,5.3-19.5,12.9-26.6,22.1"/>
	<path class="st10" d="M63.9,31c10.5-5.3,22.3-8.3,34.8-8.3"/>
	<path class="st10" d="M22.6,111.9c0.6,3.8,1.5,7.5,2.6,11.1"/>
	<path class="st10" d="M30.4,135.4c-2.1-4-3.8-8.1-5.2-12.4"/>
	<path class="st10" d="M133.6,168.6c14.3-7.3,26.1-18.9,33.5-33.1"/>
	<path class="st10" d="M63.9,168.6c10.5,5.3,22.3,8.3,34.8,8.3"/>
	<path class="st10" d="M172.4,123c1.1-3.6,2-7.3,2.6-11.1"/>
	<path class="st10" d="M133.6,168.6c-10.5,5.3-22.3,8.3-34.8,8.3"/>
	<path class="st10" d="M27.9,69.4c2.5-5.8,5.7-11.3,9.5-16.3"/>
	<path class="st10" d="M172.4,123c-1.4,4.3-3.1,8.5-5.2,12.4"/>
	<path class="st10" d="M172.4,76.6c2.3,7.3,3.6,15.1,3.6,23.1c0,4.1-0.3,8.2-1,12.1"/>
	<path class="st10" d="M160.1,53.1c3.8,5,7,10.4,9.5,16.3"/>
	<path class="st10" d="M25.2,76.6c0,0.1-0.1,0.3-0.1,0.4"/>
	<path class="st10" d="M23.6,82.6c-1.3,5.5-1.9,11.2-1.9,17.1c0,4.1,0.3,8.2,1,12.1"/>
	<path class="st10" d="M98.8,5C46.5,5,4,47.4,4,99.8c0,52.3,42.4,94.8,94.8,94.8"/>
	<path class="st11" d="M23.6,82.6c0.4-1.9,0.9-3.8,1.5-5.6"/>
	<path class="st10" d="M30.4,135.4c7.4,14.2,19.2,25.9,33.5,33.1"/>
	<path class="st10" d="M148.5,100.8c0,3.8-0.1,7.5-0.4,11.1"/>
	<path class="st10" d="M129.2,76.6c0.2,1.6,0.4,3.3,0.6,4.9"/>
	<path class="st10" d="M130.4,111.9c-0.3,3.8-0.7,7.5-1.2,11.1"/>
	<path class="st11" d="M148.5,100.8c0-0.3,0-0.7,0-1c0-7.9-0.5-15.5-1.3-22.7"/>
	<path class="st10" d="M133.7,31c-8.8-16.3-21-26-34.9-26"/>
	<path class="st10" d="M49.5,111.9c0.2,3.8,0.6,7.5,1,11.1"/>
	<path class="st11" d="M50.4,77c-0.7,5.8-1.1,11.8-1.3,18"/>
	<path class="st10" d="M67.2,111.9c0.3,3.8,0.7,7.5,1.2,11.1"/>
	<path class="st11" d="M129.9,81.6c0.6,5.8,1,11.9,1,18.2c0,3.9-0.1,7.8-0.4,11.5"/>
	<path class="st11" d="M66.8,98.5c0.1-7.5,0.6-14.7,1.5-21.5"/>
	<path class="st10" d="M147.2,77c0-0.1,0-0.3,0-0.4"/>
	<path class="st10" d="M147.1,123c0.4-3.6,0.8-7.3,1-11.1"/>
	<path class="st10" d="M142.5,53.1c1.5,5.1,2.7,10.6,3.6,16.3"/>
	<path class="st10" d="M70.7,135.4c-0.9-3.9-1.7-8.1-2.3-12.4"/>
	<path class="st10" d="M123.8,53.1c1.7,5,3.1,10.4,4.2,16.3"/>
	<path class="st10" d="M129.2,123c-0.6,4.3-1.4,8.5-2.3,12.4"/>
	<path class="st10" d="M50.5,123c0.5,4.3,1.2,8.4,2,12.4"/>
	<path class="st10" d="M98.8,176.9c10.7,0,22.2-16.4,28.1-41.5"/>
	<path class="st10" d="M133.6,168.6c5-9.2,8.9-20.4,11.5-33.1"/>
	<path class="st10" d="M145.1,135.4c0.8-4,1.5-8.1,2-12.4"/>
	<path class="st10" d="M98.8,22.6c-9,0-18.7,11.7-25,30.5"/>
	<path class="st10" d="M129.2,76.6c-0.4-2.5-0.8-4.9-1.2-7.3"/>
	<path class="st10" d="M146.1,69.4c0.4,2.4,0.7,4.8,1,7.3"/>
	<path class="st10" d="M68.3,76.6c0.4-2.5,0.8-4.9,1.2-7.3"/>
	<path class="st10" d="M63.9,31c-3.5,6.4-6.5,13.9-8.8,22.1"/>
	<path class="st10" d="M73.8,53.1c-1.7,5-3.1,10.4-4.2,16.3"/>
	<path class="st10" d="M51.5,69.4c0.9-5.7,2.2-11.1,3.6-16.3"/>
	<path class="st10" d="M130.4,111.9c0-0.2,0-0.4,0-0.6"/>
	<path class="st10" d="M51.5,69.4c-0.4,2.4-0.7,4.8-1,7.3"/>
	<path class="st10" d="M98.8,194.5c13.8,0,26-9.7,34.8-26"/>
	<path class="st10" d="M50.4,77c0-0.1,0-0.3,0-0.4"/>
	<path class="st10" d="M68.3,76.6c0,0.1,0,0.3-0.1,0.4"/>
	<path class="st10" d="M133.7,31c3.5,6.4,6.4,13.8,8.8,22.1"/>
	<path class="st10" d="M63.9,168.6c8.8,16.2,21,26,34.8,26"/>
	<path class="st10" d="M123.8,53.1c-6.3-18.8-16-30.5-25-30.5"/>
	<path class="st10" d="M66.8,98.5c0,0.4,0,0.8,0,1.3c0,4.2,0.1,8.2,0.4,12.1"/>
	<path class="st10" d="M63.9,168.6c-5-9.2-8.9-20.4-11.5-33.1"/>
	<path class="st10" d="M49.2,95.1c0,1.6-0.1,3.1-0.1,4.7c0,4.1,0.1,8.2,0.4,12.1"/>
	<path class="st10" d="M70.7,135.4c5.9,25.1,17.4,41.5,28.1,41.5"/>
	<path class="st10" d="M98.8,5c-13.8,0-26,9.7-34.8,26"/>
	<line class="st10" x1="142.5" y1="53.1" x2="123.8" y2="53.1"/>
	<line class="st10" x1="55.1" y1="53.1" x2="73.8" y2="53.1"/>
	<line class="st10" x1="147.1" y1="76.6" x2="172.4" y2="76.6"/>
	<path class="st10" d="M11.2,69.4c0.3-4.6,4.1-8.5,8.8-16.3h17.4"/>
	<path class="st10" d="M11.2,69.4c0,0.2,0,0.4,0,0.6c0,4.9,3.9,8.8,8.8,6.6h5.2"/>
	<path class="st10" d="M178.2,76.9c4.6,1.6,8.2-2.2,8.2-6.9c0-4.9-3.9-8.8-8.8-16.9h-17.4"/>
	<line class="st10" x1="129.2" y1="76.6" x2="147.1" y2="76.6"/>
	<path class="st10" d="M178.2,76.9c-0.2-0.1-0.4-0.1-0.7-0.2h-5.2"/>
	<line class="st10" x1="160.1" y1="53.1" x2="142.5" y2="53.1"/>
	<line class="st10" x1="25.2" y1="76.6" x2="50.5" y2="76.6"/>
	<line class="st10" x1="50.5" y1="76.6" x2="68.3" y2="76.6"/>
	<line class="st10" x1="68.3" y1="76.6" x2="129.2" y2="76.6"/>
	<line class="st10" x1="123.8" y1="53.1" x2="73.8" y2="53.1"/>
	<line class="st10" x1="37.4" y1="53.1" x2="55.1" y2="53.1"/>
	<path class="st10" d="M22.6,111.9H20c-2.7,4.9-5.1,8.2-6.7,11.1"/>
	<line class="st10" x1="70.7" y1="135.4" x2="126.9" y2="135.4"/>
	<line class="st10" x1="67.2" y1="111.9" x2="49.5" y2="111.9"/>
	<line class="st10" x1="167.2" y1="135.4" x2="145.1" y2="135.4"/>
	<line class="st10" x1="126.9" y1="135.4" x2="145.1" y2="135.4"/>
	<path class="st10" d="M13.3,123c-1.3,2.3-2.1,4.4-2.1,6.5c0,4.9,3.9,8.8,8.8,5.9h10.4"/>
	<line class="st10" x1="67.2" y1="111.9" x2="130.4" y2="111.9"/>
	<line class="st10" x1="30.4" y1="135.4" x2="52.5" y2="135.4"/>
	<path class="st10" d="M178.2,113.1c4.6,8,8.2,11.8,8.2,16.5c0,4.9-3.9,8.8-8.8,5.9h-10.4"/>
	<line class="st10" x1="52.5" y1="135.4" x2="70.7" y2="135.4"/>
	<line class="st10" x1="22.6" y1="111.9" x2="49.5" y2="111.9"/>
	<path class="st10" d="M178.2,113.1c-0.2-0.4-0.4-0.8-0.7-1.2H175"/>
	<line class="st10" x1="175" y1="111.9" x2="148.1" y2="111.9"/>
	<line class="st10" x1="148.1" y1="111.9" x2="130.4" y2="111.9"/>
	<line class="st10" x1="172.4" y1="123" x2="147.1" y2="123"/>
	<line class="st10" x1="129.2" y1="123" x2="147.1" y2="123"/>
	<line class="st10" x1="169.7" y1="69.4" x2="146.1" y2="69.4"/>
	<line class="st10" x1="69.6" y1="69.4" x2="128" y2="69.4"/>
	<line class="st10" x1="13.3" y1="123" x2="25.2" y2="123"/>
	<line class="st10" x1="129.2" y1="123" x2="68.4" y2="123"/>
	<line class="st10" x1="68.4" y1="123" x2="50.5" y2="123"/>
	<polyline class="st10" points="11.2,69.4 9.7,69.4 9.7,123 13.3,123 	"/>
	<polyline class="st10" points="178.2,76.9 178.2,69.4 169.7,69.4 	"/>
	<polyline class="st10" points="178.2,113.1 178.2,123 172.4,123 	"/>
	<line class="st10" x1="128" y1="69.4" x2="146.1" y2="69.4"/>
	<line class="st10" x1="51.5" y1="69.4" x2="69.6" y2="69.4"/>
	<line class="st10" x1="178.2" y1="76.9" x2="178.2" y2="113.1"/>
	<line class="st10" x1="27.9" y1="69.4" x2="51.5" y2="69.4"/>
	<line class="st10" x1="11.2" y1="69.4" x2="27.9" y2="69.4"/>
	<line class="st10" x1="25.2" y1="123" x2="50.5" y2="123"/>
	<polyline class="st11" points="50.4,77 43.3,77 37.3,99.8 30.8,77 25.1,77 	"/>
	<polyline class="st11" points="49.2,95.1 47.6,89.4 41.8,111.8 32.8,111.8 23.6,82.6 	"/>
	<line class="st11" x1="72.2" y1="81.6" x2="73.6" y2="77"/>
	<line class="st11" x1="72.2" y1="81.6" x2="66.8" y2="98.5"/>
	<line class="st11" x1="68.3" y1="77" x2="70.7" y2="77"/>
	<polyline class="st11" points="25.1,77 21.8,77 23.6,82.6 	"/>
	<polyline class="st11" points="50.4,77 52.1,77 57.9,99.8 64.6,77 68.3,77 	"/>
	<polyline class="st11" points="49.2,95.1 53.6,111.8 62.5,111.8 66.8,98.5 	"/>
	<line class="st11" x1="72.2" y1="81.6" x2="70.7" y2="77"/>
	<polyline class="st11" points="73.6,77 79.7,77 86.2,99.8 92.2,77 101,77 106.8,99.8 113.5,77 119.6,77 	"/>
	<line class="st11" x1="121.1" y1="81.6" x2="122.5" y2="77"/>
	<polyline class="st11" points="72.2,81.6 81.7,111.8 90.7,111.8 96.5,89.4 102.5,111.8 111.4,111.8 121.1,81.6 	"/>
	<line class="st11" x1="70.7" y1="77" x2="73.6" y2="77"/>
	<polyline class="st11" points="147.2,77 141.1,77 135.1,99.8 129.9,81.6 	"/>
	<polyline class="st11" points="129.9,81.6 128.6,77 122.5,77 	"/>
	<line class="st11" x1="119.6" y1="77" x2="121.1" y2="81.6"/>
	<polyline class="st11" points="148.5,100.8 145.4,89.4 139.6,111.8 130.6,111.8 130.5,111.3 	"/>
	<polyline class="st11" points="148.5,100.8 151.4,111.8 160.3,111.8 171.4,77 162.4,77 155.7,99.8 149.9,77 147.2,77 	"/>
	<line class="st11" x1="121.1" y1="81.6" x2="130.5" y2="111.3"/>
	<line class="st11" x1="119.6" y1="77" x2="122.5" y2="77"/>
</g>
<g class="st0">
	<g>
		<path class="st1" d="M94.2,73.2c0.1,0.1,0.3,0.3,0.6,0.5c0.5,0.4,1.1,1,1.8,1.6c1.5,1.2,3.5,2.4,6.2,2.4c2.6,0,5.1-1.2,7.2-2.4
			c1-0.6,2-1.2,2.8-1.6c0.8-0.4,1.5-0.7,1.9-0.8l0-0.9h0c-0.7,0-1.4,0.4-2.3,0.9c-0.8,0.5-1.8,1.1-2.8,1.7c-2,1.2-4.4,2.3-6.7,2.3
			c-2.3,0-4.2-1.1-5.6-2.2c-0.7-0.6-1.3-1.1-1.8-1.6c-0.2-0.2-0.4-0.4-0.6-0.6c-0.2-0.1-0.3-0.3-0.6-0.3l0,0.7c0,0.2,0,0.2,0,0.2
			C94.1,73.2,94.2,73.2,94.2,73.2z"/>
		<path class="st1" d="M150.9,142c1.7-1,3-2.3,3.1-4.1c0.1-1.8-1-3.9-3.5-6.7v0c-0.8-0.9-1.2-2.6-1.6-4.4c-0.4-1.8-0.9-3.8-2.4-5.1
			c0,0,0,0,0,0c-0.6-0.5-1.2-0.9-1.8-1.1c2.1-6.2,1.2-12.3-0.8-17.8c-2.6-6.8-7.1-12.7-10.5-16.8c-3.8-4.8-7.6-9.4-7.5-16.2
			c0.1-10.4,1.1-29.6-17.1-29.6l0,0c-0.7,0-1.5,0-2.3,0.1c-20.4,1.6-15,23.2-15.3,30.4c-0.4,5.3-1.4,9.4-5.1,14.6
			c-4.3,5.1-10.3,13.3-13.1,21.8c-1.3,4-2,8.1-1.4,12c-0.2,0.2-0.4,0.3-0.5,0.5c-1.2,1.3-2.2,3-3.2,4c-1,1-2.3,1.3-3.8,1.9
			c-1.5,0.5-3.2,1.3-4.2,3.3c0,0,0,0,0,0c-0.9,1.7-0.6,3.6-0.4,5.5c0.3,1.8,0.6,3.5,0.2,4.7c-1.2,3.3-1.3,5.5-0.5,7.1
			c0.8,1.6,2.6,2.4,4.5,2.8c3.9,0.8,9.2,0.6,13.4,2.8v0c4.5,2.3,9,3.2,12.6,2.3c2.6-0.6,4.7-2.1,5.8-4.5c2.8,0,5.9-1.2,10.9-1.5
			c3.4-0.3,7.6,1.2,12.4,0.9c0.1,0.5,0.3,1,0.6,1.5c0,0,0,0,0,0c1.9,3.8,5.4,5.5,9.1,5.2c3.7-0.3,7.7-2.5,10.9-6.3l-0.6-0.5l0.6,0.5
			C142.5,145.6,147.5,144,150.9,142z M105.6,63.5c0-1.4,0.2-2.5,0.7-3.7c0.5-1.2,1.2-2,2.1-2.7c0.9-0.7,1.8-1,2.8-1h0.1
			c1,0,1.9,0.3,2.8,1c0.9,0.7,1.6,1.5,2.1,2.7c0.5,1.1,0.8,2.2,0.8,3.6c0,0,0,0.1,0,0.1c0,1.4-0.2,2.5-0.7,3.7
			c-0.3,0.7-0.6,1.2-1,1.7c-0.1-0.1-0.3-0.1-0.4-0.2c-1-0.4-1.8-0.7-2.5-1c0.2-0.3,0.4-0.6,0.6-1c0.3-0.6,0.4-1.3,0.4-2
			c0,0,0,0,0-0.1c0-0.7-0.1-1.3-0.3-2c-0.2-0.7-0.5-1.1-0.9-1.5c-0.4-0.4-0.8-0.6-1.3-0.6c0,0,0,0-0.1,0c-0.5,0-0.8,0.2-1.2,0.5
			c-0.4,0.4-0.7,0.8-1,1.4c-0.3,0.6-0.4,1.3-0.4,2c0,0,0,0.1,0,0.1c0,0.4,0,0.8,0.1,1.2c-0.9-0.5-1.8-0.8-2.6-1
			c0-0.4-0.1-0.7-0.1-1.1V63.5z M93.5,60.6c0.3-1.1,0.8-1.8,1.4-2.5c0.6-0.6,1.3-1,2.1-1l0,0c0.1,0,0.1,0,0.2,0c0.7,0,1.3,0.2,2,0.8
			c0.7,0.6,1.2,1.3,1.7,2.3c0.4,1,0.7,2,0.7,3.2c0,0.5,0,1,0,1.4c-0.1,0-0.3,0.1-0.4,0.1c-0.8,0.3-1.4,0.6-2,1
			c0.1-0.4,0.1-0.8,0-1.3c0,0,0,0,0-0.1c-0.1-0.6-0.2-1.1-0.4-1.6c-0.2-0.5-0.5-0.9-0.8-1.2c-0.3-0.3-0.6-0.4-0.9-0.4
			c0,0-0.1,0-0.1,0c-0.4,0-0.7,0.2-0.9,0.5c-0.3,0.3-0.5,0.8-0.6,1.3c-0.1,0.6-0.2,1.1-0.1,1.7v0.1c0.1,0.6,0.2,1.1,0.4,1.6
			c0.2,0.5,0.5,0.9,0.8,1.2c0.1,0,0.1,0.1,0.2,0.1c-0.3,0.3-0.5,0.4-0.8,0.6c-0.2,0.1-0.4,0.3-0.6,0.5c-0.6-0.5-1-1.2-1.4-2
			c-0.4-1-0.7-2-0.8-3.2v0C93,62.7,93.1,61.7,93.5,60.6z M93.8,71c1.1-0.8,1.8-1.4,2.3-1.7c0.5-0.4,0.7-0.5,0.9-0.7
			c0.8-0.8,2.1-2.2,4.1-2.8c0.7-0.2,1.4-0.4,2.2-0.4l0,0c1.6,0,3.5,0.5,5.8,2c1.4,0.9,2.5,1,5.1,2.1c1.2,0.5,2,1.2,2.3,1.9
			c0.4,0.7,0.4,1.4,0.1,2.2c-0.6,1.6-2.5,3.2-5.1,4.1v0c-1.3,0.4-2.4,1.3-3.8,2.1c-1.3,0.8-2.8,1.4-4.9,1.2
			c-1.7-0.1-2.8-0.7-3.7-1.4c-0.9-0.8-1.8-1.7-3-2.4v0c-1.9-1.1-3-2.4-3.3-3.5C92.5,72.6,92.8,71.7,93.8,71z M94.6,146.3
			c0-0.1,0-0.1,0-0.2c-0.3,3.6-2.3,5.5-5.4,6.3c-3.1,0.7-7.4,0-11.6-2.2c-4.7-2.5-10.3-2.2-13.8-3c-1.8-0.4-3-0.9-3.5-2
			c-0.5-1-0.5-2.8,0.6-5.9v0v0c0.6-1.7,0.2-3.6-0.1-5.4c-0.3-1.8-0.4-3.4,0.2-4.5l0,0c0.8-1.5,1.9-2,3.3-2.5
			c1.4-0.5,3.1-0.9,4.4-2.2H69v0c1.2-1.3,2.1-2.9,3.2-4c0.9-1,1.8-1.6,3.1-1.6l0,0h0c0.2,0,0.5,0,0.8,0.1c1.8,0.3,3.3,1.5,4.8,3.6
			c1.5,2,2.9,4.8,4.3,7.9v0.1c1.2,2.5,3.7,5.2,5.8,8c2.1,2.7,3.6,5.4,3.6,7.5c0,0,0,0,0,0V146.3z M94.3,140.4
			c-0.6-0.9-1.2-1.8-1.9-2.7c-0.4-0.6-0.9-1.1-1.3-1.7c0.9,0,1.6-0.2,2.2-0.4c0.7-0.3,1.3-0.9,1.5-1.6c0.5-1.4,0-3.4-1.7-5.6
			c-1.7-2.3-4.5-4.8-8.6-7.3c-3-1.9-4.7-4.2-5.5-6.7c-0.8-2.5-0.7-5.2-0.1-7.9c1.2-5.2,4.2-10.2,6.1-13.3c0.5-0.4,0.2,0.7-2,4.7
			c-1.9,3.6-5.5,12-0.6,18.6c0.1-4.7,1.3-9.4,3.1-13.9c2.7-6.2,8.4-16.9,8.9-25.4c0.2,0.2,1,0.7,1.4,0.9c1,0.6,1.8,1.5,2.8,2.3
			c1,0.8,2.3,1.5,4.2,1.6c2.2,0.1,4-0.6,5.4-1.4c1.4-0.8,2.5-1.7,3.6-2c2.2-0.7,4-1.9,5-3.4c1.7,6.8,5.8,16.7,8.4,21.6
			c1.4,2.6,4.1,8,5.3,14.6c0.8,0,1.6,0.1,2.5,0.3c3.1-8-2.6-16.7-5.3-19.1c-1.1-1-1.1-1.5-0.6-1.5c2.8,2.5,6.6,7.6,7.9,13.3
			c0.6,2.6,0.8,5.3,0.1,8c0.3,0.1,0.7,0.3,1,0.4c5,2.4,6.8,4.5,5.9,7.4c-0.3,0-0.6,0-0.9,0c0,0-0.1,0-0.1,0c0.7-2.3-0.9-4-5.1-5.9
			c-4.4-1.9-7.9-1.8-8.5,2.2c0,0.2-0.1,0.4-0.1,0.6c-0.3,0.1-0.7,0.3-1,0.4c-2.1,1.1-3.2,3.2-3.8,5.7c-0.6,2.5-0.8,5.6-1,9
			c-0.1,1.7-0.8,4.1-1.5,6.5C112.9,143.9,102.8,146.2,94.3,140.4z M137.6,119.8c-0.7,1.4-3.9,3.7-6.1,3.1c-2.2-0.6-3.3-3.8-2.9-6.2
			c0.2-1.6,1.1-2.4,2.5-2.4c0.9,0,2,0.3,3.2,0.8C137.5,116.7,138.5,117.9,137.6,119.8z M138.2,148.3c-3,3.5-6.6,5.5-9.8,5.8
			c-3.2,0.3-5.9-1.1-7.6-4.3v-0.1l-0.2,0c-1-1.9-0.6-5,0.3-8.2c0.9-3.2,2.1-6.5,2.1-9.1v0c0.3-3.4,0.5-6.4,1-8.7
			c0.6-2.3,1.5-3.9,3.1-4.7c0.1,0,0.1-0.1,0.2-0.1l0,0c0.2,3,1.7,6,4.3,6.6c2.8,0.7,6.9-1.7,8.6-3.7c0.3,0,0.7,0,1,0
			c1.5,0,4.1,1.3,4.1,1.3h0.1c1,0.8,1.5,2.4,1.9,4.2c0.4,1.8,0.7,3.7,2,5.1v0c2.4,2.6,3.1,4.4,3.1,5.5c-0.1,1.1-0.9,2-2.4,2.9
			C147,142.6,141.6,144.2,138.2,148.3z"/>
	</g>
</g>
<g>
</g>
<g>
</g>
<g>
</g>
<g>
</g>
<g>
</g>
<g>
</g>
<g>
</g>
<g>
</g>
<g>
</g>
<g>
</g>
<g>
</g>
</svg>
