<?xml version="1.0" encoding="utf-8"?>
<!-- Generator: Adobe Illustrator 23.0.5, SVG Export Plug-In . SVG Version: 6.00 Build 0)  -->
<svg version="1.1" id="Layer_1" xmlns="http://www.w3.org/2000/svg" xmlns:xlink="http://www.w3.org/1999/xlink" x="0px" y="0px"
	 viewBox="0 0 50 50" style="enable-background:new 0 0 50 50;" xml:space="preserve">
<style type="text/css">
	.st0{display:none;}
	.st1{display:inline;fill-rule:evenodd;clip-rule:evenodd;fill:#D3E6F8;}
	.st2{display:inline;}
	.st3{fill:#1E89C0;}
	.st4{fill:#D3E6F8;}
	.st5{fill:#FFFFFF;}
	.st6{display:inline;fill:#1E89C0;}
	.st7{display:inline;fill-rule:evenodd;clip-rule:evenodd;fill:#81D2E7;}
</style>
<g class="st0">
	<path class="st1" d="M46.2,28.5c0,10.3-8.3,18.6-18.6,18.6S9,38.7,9,28.5C9,18.2,17.3,9.8,27.6,9.8S46.2,18.2,46.2,28.5z"/>
	<g class="st2">
		<path class="st3" d="M25,49.4L25,49.4C11.6,49.4,0.6,38.5,0.6,25C0.6,11.6,11.5,0.6,25,0.6l0,0c13.4,0,24.4,10.9,24.4,24.4
			C49.4,38.4,38.5,49.4,25,49.4z M25,44.7L25,44.7c1.9,0,5.3-6.6,5.8-17.4H19.2C19.7,38.2,23.1,44.7,25,44.7z M35.4,27.3
			c-0.2,6.1-1.4,11.9-3.3,16.1c6.7-2.6,11.7-8.7,12.5-16.1C44.6,27.3,35.4,27.3,35.4,27.3z M5.4,27.3c0.9,7.4,5.8,13.5,12.5,16.1
			c-2-4.2-3.1-10.1-3.3-16.1C14.6,27.3,5.4,27.3,5.4,27.3z M35.4,22.7h9.2c-0.9-7.4-5.8-13.5-12.5-16.1
			C34.1,10.7,35.2,16.6,35.4,22.7z M19.2,22.7h11.5C30.3,11.8,26.9,5.3,25,5.3l0,0C23.1,5.3,19.7,11.8,19.2,22.7z M5.4,22.7h9.2
			c0.2-6,1.4-11.9,3.3-16.1C11.2,9.2,6.3,15.3,5.4,22.7z"/>
	</g>
</g>
<g id="Servers" class="st0">
	<g class="st2">
		<g>
			<g>
				<g>
					<path class="st4" d="M16.3,41.2h-10c-2.5,0-4.5-2-4.5-4.5V17.6c0-2.5,2-4.5,4.5-4.5h10c2.5,0,4.5,2,4.5,4.5v19.1
						C20.8,39.2,18.8,41.2,16.3,41.2z"/>
				</g>
				<g>
					<circle class="st3" cx="11.3" cy="36.5" r="1.8"/>
				</g>
				<g>
					<rect x="4.5" y="16.7" class="st5" width="13.5" height="3.4"/>
				</g>
				<g>
					<rect x="4.5" y="23.5" class="st5" width="13.5" height="3.4"/>
				</g>
				<g>
					<rect x="14.5" y="16.7" class="st4" width="3.5" height="3.4"/>
				</g>
				<g>
					<rect x="14.5" y="23.5" class="st4" width="3.5" height="3.4"/>
				</g>
				<g>
					<path class="st3" d="M19.8,42.1H2.7c-1,0-1.9-0.8-1.9-1.9V14.1c0-1,0.8-1.9,1.9-1.9h17.1c1,0,1.9,0.8,1.9,1.9v26.2
						C21.7,41.3,20.9,42.1,19.8,42.1z M2.7,14C2.7,14,2.7,14.1,2.7,14v26.2c0,0,0,0.1,0.1,0.1h17.1c0,0,0.1,0,0.1-0.1V14.1
						c0,0,0-0.1-0.1-0.1H2.7z"/>
				</g>
				<g>
					<path class="st3" d="M18,21H4.5c-0.5,0-0.9-0.4-0.9-0.9v-3.4c0-0.5,0.4-0.9,0.9-0.9H18c0.5,0,0.9,0.4,0.9,0.9v3.4
						C18.9,20.6,18.5,21,18,21z M5.4,19.2h11.7v-1.6H5.4V19.2z"/>
				</g>
				<g>
					<path class="st3" d="M18,27.8H4.5c-0.5,0-0.9-0.4-0.9-0.9v-3.4c0-0.5,0.4-0.9,0.9-0.9H18c0.5,0,0.9,0.4,0.9,0.9v3.4
						C18.9,27.4,18.5,27.8,18,27.8z M5.4,26h11.7v-1.6H5.4V26z"/>
				</g>
			</g>
			<g>
				<g>
					<path class="st4" d="M43.2,41.2h-10c-2.5,0-4.5-2-4.5-4.5V17.6c0-2.5,2-4.5,4.5-4.5h10c2.5,0,4.5,2,4.5,4.5v19.1
						C47.7,39.2,45.7,41.2,43.2,41.2z"/>
				</g>
				<g>
					<circle class="st3" cx="38.1" cy="36.5" r="1.8"/>
				</g>
				<g>
					<rect x="31.4" y="16.7" class="st5" width="13.5" height="3.4"/>
				</g>
				<g>
					<rect x="31.4" y="23.5" class="st5" width="13.5" height="3.4"/>
				</g>
				<g>
					<rect x="41.4" y="16.7" class="st4" width="3.5" height="3.4"/>
				</g>
				<g>
					<rect x="41.4" y="23.5" class="st4" width="3.5" height="3.4"/>
				</g>
				<g>
					<path class="st3" d="M46.7,42.1H29.6c-1,0-1.9-0.8-1.9-1.9V14.1c0-1,0.8-1.9,1.9-1.9h17.1c1,0,1.9,0.8,1.9,1.9v26.2
						C48.6,41.3,47.7,42.1,46.7,42.1z M29.6,14C29.6,14,29.5,14.1,29.6,14l-0.1,26.2c0,0,0,0.1,0.1,0.1h17.1c0,0,0.1,0,0.1-0.1V14.1
						c0,0,0-0.1-0.1-0.1H29.6z"/>
				</g>
				<g>
					<path class="st3" d="M44.9,21H31.4c-0.5,0-0.9-0.4-0.9-0.9v-3.4c0-0.5,0.4-0.9,0.9-0.9h13.5c0.5,0,0.9,0.4,0.9,0.9v3.4
						C45.8,20.6,45.4,21,44.9,21z M32.3,19.2H44v-1.6H32.3V19.2z"/>
				</g>
				<g>
					<path class="st3" d="M44.9,27.8H31.4c-0.5,0-0.9-0.4-0.9-0.9v-3.4c0-0.5,0.4-0.9,0.9-0.9h13.5c0.5,0,0.9,0.4,0.9,0.9v3.4
						C45.8,27.4,45.4,27.8,44.9,27.8z M32.3,26H44v-1.6H32.3V26z"/>
				</g>
			</g>
		</g>
		<g>
			<g>
				<path class="st4" d="M35.8,41.7H15.5c-0.9,0-1.6-0.7-1.6-1.6V10.7c0-1,0.8-1.9,1.9-1.9h18.7c0.7,0,1.4,0.6,1.4,1.4v31.6H35.8z"
					/>
			</g>
			<g>
				<circle class="st3" cx="24.7" cy="35.5" r="2.2"/>
			</g>
			<g>
				<rect x="16.4" y="11.1" class="st5" width="16.6" height="4.2"/>
			</g>
			<g>
				<rect x="16.4" y="19.5" class="st5" width="16.6" height="4.2"/>
			</g>
			<g>
				<rect x="28.7" y="11.1" class="st4" width="4.3" height="4.2"/>
			</g>
			<g>
				<rect x="28.7" y="19.5" class="st4" width="4.3" height="4.2"/>
			</g>
			<g>
				<path class="st3" d="M35.2,42.1h-21c-1.1,0-2.1-0.9-2.1-2.1V7.9c0-1.1,0.9-2.1,2.1-2.1h21.1c1.1,0,2.1,0.9,2.1,2.1V40
					C37.3,41.2,36.4,42.1,35.2,42.1z M14.2,7.6c-0.1,0-0.3,0.1-0.3,0.3V40c0,0.1,0.1,0.3,0.3,0.3h21.1c0.1,0,0.3-0.1,0.3-0.3V7.9
					c0-0.1-0.1-0.3-0.3-0.3H14.2z"/>
			</g>
			<g>
				<path class="st3" d="M33,16.1H16.4c-0.5,0-0.9-0.4-0.9-0.9V11c0-0.5,0.4-0.9,0.9-0.9H33c0.5,0,0.9,0.4,0.9,0.9v4.2
					C33.9,15.7,33.5,16.1,33,16.1z M17.3,14.3h14.8V12H17.3V14.3z"/>
			</g>
			<g>
				<path class="st3" d="M33,24.5H16.4c-0.5,0-0.9-0.4-0.9-0.9v-4.2c0-0.5,0.4-0.9,0.9-0.9H33c0.5,0,0.9,0.4,0.9,0.9v4.2
					C33.9,24.1,33.5,24.5,33,24.5z M17.3,22.7h14.8v-2.4H17.3V22.7z"/>
			</g>
		</g>
	</g>
</g>
<g class="st0">
	<polygon class="st6" points="0.4,5.1 49.6,2.2 20.7,17 	"/>
	<polygon class="st6" points="33.7,49.2 49.5,2.5 27.6,26.5 	"/>
</g>
<g class="st0">
	<path class="st7" d="M39.4,38.5h-8.6c-1.5,0-2.7-0.9-2.7-2.1v-2.5c0-1.2,1.2-2.1,2.7-2.1h8.6c1.5,0,2.7,0.9,2.7,2.1v2.5
		C42.2,37.6,40.9,38.5,39.4,38.5L39.4,38.5z M39.4,25.4h-8.6c-1.5,0-2.7-0.9-2.7-2.1v-2.5c0-1.2,1.2-2.1,2.7-2.1h8.6
		c1.5,0,2.7,0.9,2.7,2.1v2.5C42.2,24.5,40.9,25.4,39.4,25.4L39.4,25.4z M39.4,11.3h-8.6c-1.5,0-2.7-0.9-2.7-2.1V6.7
		c0-1.2,1.2-2.1,2.7-2.1h8.6c1.5,0,2.7,0.9,2.7,2.1v2.5C42.2,10.4,40.9,11.3,39.4,11.3z"/>
	<g class="st2">
		<path class="st3" d="M23.4,49c-1,0-1.9-0.9-1.9-2c-0.9,0-6.2,0-7.1,0c-1.3,0-1.3-2,0-2c0.9,0,6.2,0,7.1,0c0.1-1.1,0.9-2,1.9-2h1.1
			v-4H10.9c-1.7,0-3.1-1.4-3.1-3.1v-4.5c0-1.7,1.4-3.1,3.1-3.1c1.7,0,11.9,0,13.6,0v-2H10.9c-1.7,0-3.1-1.4-3.1-3.1v-4.5
			c0-1.7,1.4-3.1,3.1-3.1h13.6c0-0.3,0-2.9,0-4c0-0.6,0.5-1,1-1h14.6c0.6,0,1-0.5,1-1V5.1c0-0.6-0.5-1-1-1H10.9c-0.6,0-1,0.5-1,1
			v4.5c0,0.6,0.5,1,1,1h10.6c1.3,0,1.3,2,0,2H10.9c-1.7,0-3.1-1.4-3.1-3.1V5.1c0-1.7,1.4-3.1,3.1-3.1h29.2c1.7,0,3.1,1.4,3.1,3.1
			v4.5c0,1.7-1.4,3.1-3.1,3.1H26.5c0,0.6,0,2.8,0,3h13.6c1.7,0,3.1,1.4,3.1,3.1v4.5c0,1.7-1.4,3.1-3.1,3.1H26.5v2
			c1.7,0,11.9,0,13.6,0c1.7,0,3.1,1.4,3.1,3.1v4.5c0,1.7-1.4,3.1-3.1,3.1H26.5v4h1.6c1,0,1.9,0.9,1.9,2h6.6c1.3,0,1.3,2,0,2H30
			c0,0.6-0.3,1.1-0.6,1.5C28.7,49.2,28.4,49,23.4,49z M28.1,47L28.1,47C28.1,47,28.1,47,28.1,47z M23.5,47l4.5,0c0-0.1,0-1.9,0-2
			c-1.7,0-2.8,0-4.5,0C23.5,45.1,23.5,46.9,23.5,47z M23.4,45L23.4,45C23.4,45,23.4,45,23.4,45z M40.1,36.9c0.6,0,1-0.5,1-1v-4.5
			c0-0.6-0.5-1-1-1H10.9c-0.6,0-1,0.5-1,1v4.5c0,0.6,0.5,1,1,1C14,36.9,37,36.9,40.1,36.9z M40.1,24.3c0.6,0,1-0.5,1-1v-4.5
			c0-0.6-0.5-1-1-1H10.9c-0.6,0-1,0.5-1,1v4.5c0,0.6,0.5,1,1,1C14,24.3,37,24.3,40.1,24.3z M36.6,34.9h-0.5c-1.3,0-1.3-2,0-2h0.5
			c0.6,0,1,0.5,1,1C37.6,34.4,37.2,34.9,36.6,34.9z M12.9,34.9h-0.5c-1.3,0-1.3-2,0-2h0.5c0.6,0,1,0.5,1,1
			C13.9,34.4,13.4,34.9,12.9,34.9z M36.6,21.3h-0.5c-1.3,0-1.3-2,0-2h0.5c0.6,0,1,0.5,1,1S37.2,21.3,36.6,21.3z M12.9,21.3h-0.5
			c-1.3,0-1.3-2,0-2h0.5c0.6,0,1,0.5,1,1S13.4,21.3,12.9,21.3z M36.6,8.1h-0.5c-1.3,0-1.3-2,0-2h0.5c0.6,0,1,0.5,1,1
			S37.2,8.1,36.6,8.1z M12.9,8.1h-0.5c-1.3,0-1.3-2,0-2h0.5c0.6,0,1,0.5,1,1S13.4,8.1,12.9,8.1z"/>
	</g>
</g>
<g>
	<path class="st4" d="M39.8,48.3H15.4c-0.6,0-1.1-0.5-1.1-1.1V6.9c0-0.6,0.5-1.1,1.1-1.1h24.4c0.6,0,1.1,0.5,1.1,1.1v40.4
		C40.9,47.8,40.4,48.3,39.8,48.3z"/>
	<g>
		<g>
			<circle class="st3" cx="25.4" cy="40.6" r="2.8"/>
		</g>
		<g>
			<rect x="14.8" y="20.2" class="st5" width="21.2" height="5.3"/>
		</g>
		<g>
			<rect x="14.8" y="9.4" class="st5" width="21.2" height="5.3"/>
		</g>
		<g>
			<rect x="30.5" y="9.4" class="st4" width="5.5" height="5.3"/>
		</g>
		<g>
			<rect x="30.5" y="20.2" class="st4" width="5.5" height="5.3"/>
		</g>
		<g>
			<path class="st3" d="M38.8,49.4H11.9C10.3,49.4,9,48,9,46.4V5.3c0-1.6,1.3-2.9,2.9-2.9h26.9c1.6,0,2.9,1.3,2.9,2.9v41.1
				C41.7,48,40.4,49.4,38.8,49.4z M11.9,5.2C11.9,5.2,11.8,5.3,11.9,5.2l-0.1,41.2c0,0,0,0.1,0.1,0.1h26.9c0,0,0.1,0,0.1-0.1V5.3
				c0,0,0-0.1-0.1-0.1H11.9z"/>
		</g>
		<g>
			<path class="st3" d="M36,16.1H14.8c-0.8,0-1.4-0.6-1.4-1.4V9.4C13.4,8.6,14,8,14.8,8H36c0.8,0,1.4,0.6,1.4,1.4v5.3
				C37.4,15.5,36.8,16.1,36,16.1z M16.2,13.3h18.4v-2.5H16.2V13.3z"/>
		</g>
		<g>
			<path class="st3" d="M36,26.9H14.8c-0.8,0-1.4-0.6-1.4-1.4v-5.3c0-0.8,0.6-1.4,1.4-1.4H36c0.8,0,1.4,0.6,1.4,1.4v5.3
				C37.4,26.3,36.8,26.9,36,26.9z M16.2,24.1h18.4v-2.5H16.2V24.1z"/>
		</g>
	</g>
</g>
<g>
	<g>
		<g>
			<path class="st3" d="M39.2,49.5H11.5c-1.7,0-3-1.3-3-3V4.2c0-1.7,1.3-3,3-3h27.7c1.7,0,3,1.3,3,3v42.3
				C42.2,48.1,40.9,49.5,39.2,49.5z M11.5,4.1C11.5,4.1,11.4,4.2,11.5,4.1l-0.1,42.4c0,0,0,0.1,0.1,0.1h27.7c0,0,0.1,0,0.1-0.1V4.2
				c0,0,0-0.1-0.1-0.1H11.5z"/>
		</g>
	</g>
</g>
</svg>
