<?xml version="1.0" encoding="utf-8"?>
<!-- Generator: Adobe Illustrator 22.0.1, SVG Export Plug-In . SVG Version: 6.00 Build 0)  -->
<svg version="1.1" id="Layer_1" xmlns="http://www.w3.org/2000/svg" xmlns:xlink="http://www.w3.org/1999/xlink" x="0px" y="0px"
	 viewBox="0 0 200 200" style="enable-background:new 0 0 200 200;" xml:space="preserve">
<style type="text/css">
	.st0{display:none;}
	.st1{display:inline;fill:#1F8AC0;}
	.st2{display:inline;}
	.st3{fill:#1F8AC0;}
</style>
<g class="st0">
	<path class="st1" d="M72.2,47.1c8,2.9,16.4,4.7,24.8,5.3V2c-4.8,0.2-9.5,0.7-14.2,1.6C75,12.2,68.4,26.2,63.7,43.6
		c1,0.5,2.1,1,3.1,1.4C68.6,45.7,70.4,46.5,72.2,47.1z"/>
	<path class="st1" d="M57,40c3.8-13.4,8.7-24.9,14.6-33.6C59,10.3,47.4,16.6,37.5,24.9C43.3,30.8,49.9,35.9,57,40z"/>
	<path class="st1" d="M97,96.8V58.7c-9.1-0.6-18.2-2.5-26.8-5.6c-2-0.7-3.8-1.5-5.7-2.3c-0.8-0.3-1.6-0.7-2.4-1.1
		c-3.3,14.2-5.2,30.2-5.5,47.1H97z"/>
	<path class="st1" d="M71.1,193.6c-5.7-8.8-10.5-20.2-14.2-33.4c-7.1,4.1-13.6,9.2-19.4,15.1C47.1,183.3,58.4,189.6,71.1,193.6z"/>
	<path class="st1" d="M97,147.6c-10.4,0.7-20.5,3.2-30.1,7.4c-1.2,0.5-2.3,1-3.4,1.6c4.5,17,10.9,30.9,18.5,39.7
		c4.9,0.9,10,1.5,15,1.7V147.6z"/>
	<path class="st1" d="M166.8,27.7c-10.5-9.7-23.3-17.1-37.5-21.5c6.4,9.4,11.7,22,15.5,36.7C152.8,38.9,160.2,33.8,166.8,27.7z"/>
	<path class="st1" d="M128.9,49.1c1.9-0.5,3.8-1.2,5.7-1.8c1.1-0.4,2.2-0.8,3.3-1.3c-4.7-18.5-11.6-33.5-19.8-42.5
		c-4.8-0.9-9.6-1.4-14.4-1.5h-0.3v50.6C112,52.6,120.6,51.4,128.9,49.1z"/>
	<path class="st1" d="M136.9,53.1c-2,0.7-4,1.4-6,2c-8.9,2.5-18,3.8-27.2,3.8h-0.3v37.9h40.9c-0.2-15.9-2-31.1-4.9-44.6
		C138.6,52.5,137.8,52.9,136.9,53.1z"/>
	<path class="st1" d="M144.9,157.1c-3.7,14.5-8.8,26.9-15,36.3c14-4.4,26.4-11.7,36.8-21.2C160.2,166.2,152.9,161.1,144.9,157.1z"/>
	<path class="st1" d="M64.6,149.2c10.3-4.5,21.3-7.2,32.5-7.9v-38.1H56.7c0.2,16.9,2.1,33,5.3,47.2C62.9,150,63.7,149.6,64.6,149.2z
		"/>
	<path class="st1" d="M138.1,154.1c-1.1-0.4-2.2-0.9-3.3-1.3c-10-3.6-20.5-5.4-31.1-5.4h-0.3V198h0.3c5.1-0.2,10.3-0.8,15.3-1.7
		C126.9,187,133.6,172.2,138.1,154.1z"/>
	<path class="st1" d="M136.9,146.9c0.9,0.3,1.7,0.6,2.6,1c2.9-13.6,4.6-28.8,4.8-44.7h-40.9v37.9h0.3
		C115,141.1,126.2,143,136.9,146.9z"/>
	<g class="st2">
		<path class="st3" d="M151.6,96.8h46.6V97h0.2c-0.7-24.9-10.9-48-27.4-65.1V32h-0.1l0.3,0.3c-7.4,6.9-15.8,12.6-24.9,17
			C149.5,63.5,151.4,79.6,151.6,96.8z"/>
		<path class="st3" d="M170.9,168h0.2c16.5-17.1,26.6-40.1,27.4-65h-0.2v0.1h-46.6c-0.2,17.2-2,33.4-5.2,47.7
			c9,4.3,17.3,10,24.7,16.9L170.9,168z"/>
	</g>
	<g class="st2">
		<path class="st3" d="M33.2,171l-0.2-0.2c6.6-6.7,14.1-12.4,22.3-17c-3.6-15.1-5.7-32.3-5.9-50.7H2.4C3.2,129,14.4,153.4,32.8,171
			H33.2z"/>
		<path class="st3" d="M37,174.8C37,174.8,37,174.8,37,174.8L37,174.8L37,174.8z"/>
	</g>
	<path class="st1" d="M32.9,29.2l0.2-0.2h-0.2C20.3,41,10.9,56.4,6,73.7c-2.1,7.7-3.3,15.5-3.6,23.1h46.9c0.2-18.4,2.4-35.5,6-50.5
		C47.2,41.7,39.6,36,32.9,29.2z"/>
</g>
<g>
	<g>
		<g>
			<g>
				<g>
					<path class="st3" d="M195.6,38.3c-0.6-3-2.1-6-4.2-8.4c-3.6-4.5-9-6.3-15-6.3h-74.8c-25.1,0-50.3,0-75.7,0
						c-9.9,0-17.9,6.9-18.8,16.2c-0.3,3.9-0.3,7.8,0,11.4c0.3,5.7,3.6,10.2,8.4,13.2c3.6,2.4,7.8,3,12,3c22.1,0,44.3,0,66.4,0
						c4.8,0,9.6,0,14.7,0c15.3,0,30.5,0,45.8,0c7.2,0,14.7,0,21.8,0c10.2,0,17.9-6.3,19.1-15.9C196.2,47,196.2,42.5,195.6,38.3z
						 M36.7,55.7c-5.9,0-10.3-4.7-10.3-10.6S31.1,34.6,37,34.6s10.6,4.7,10.6,10.3C47.3,51,42.5,55.7,36.7,55.7z"/>
				</g>
			</g>
			<g>
				<g>
					<path class="st3" d="M195.6,93.3c-0.6-3-2.1-6-4.2-8.4c-3.6-4.5-9-6.3-15-6.3h-74.8c-25.1,0-50.3,0-75.7,0
						c-9.9,0-17.9,6.9-18.8,16.2c-0.3,3.9-0.3,7.8,0,11.4c0.3,5.7,3.6,10.2,8.4,13.2c3.6,2.4,7.8,3,12,3c22.1,0,44.3,0,66.4,0
						c4.8,0,9.6,0,14.7,0c15.3,0,30.5,0,45.8,0c7.2,0,14.7,0,21.8,0c10.2,0,17.9-6.3,19.1-15.9C196.2,102,196.2,97.5,195.6,93.3z
						 M36.7,110.7c-5.9,0-10.3-4.7-10.3-10.6S31.1,89.5,37,89.5s10.6,4.7,10.6,10.3C47.3,106,42.5,110.7,36.7,110.7z"/>
				</g>
			</g>
			<g>
				<g>
					<path class="st3" d="M195.6,148.3c-0.6-3-2.1-6-4.2-8.4c-3.6-4.5-9-6.3-15-6.3h-74.8c-25.1,0-50.3,0-75.7,0
						c-9.9,0-17.9,6.9-18.8,16.2c-0.3,3.9-0.3,7.8,0,11.4c0.3,5.7,3.6,10.2,8.4,13.2c3.6,2.4,7.8,3,12,3c22.1,0,44.3,0,66.4,0
						c4.8,0,9.6,0,14.7,0c15.3,0,30.5,0,45.8,0c7.2,0,14.7,0,21.8,0c10.2,0,17.9-6.3,19.1-15.9C196.2,157,196.2,152.5,195.6,148.3z
						 M36.7,165.4c-5.9,0-10.3-4.7-10.3-10.6s4.7-10.6,10.6-10.6s10.6,4.7,10.6,10.3C47.3,160.7,42.5,165.7,36.7,165.4z"/>
				</g>
			</g>
		</g>
	</g>
</g>
<g>
</g>
<g>
</g>
<g>
</g>
<g>
</g>
<g>
</g>
<g>
</g>
<g>
</g>
<g>
</g>
<g>
</g>
<g>
</g>
<g>
</g>
</svg>
