<?xml version="1.0" encoding="utf-8"?>
<!-- Generator: Adobe Illustrator 23.0.5, SVG Export Plug-In . SVG Version: 6.00 Build 0)  -->
<svg version="1.1" id="Layer_1" xmlns="http://www.w3.org/2000/svg" xmlns:xlink="http://www.w3.org/1999/xlink" x="0px" y="0px"
	 viewBox="0 0 30 30" style="enable-background:new 0 0 30 30;" xml:space="preserve">
<style type="text/css">
	.st0{fill:#1E89C0;}
</style>
<path class="st0" d="M26.7,15.2c0-0.3,0-0.5,0-0.7c0-0.3,0.1-0.6,0.4-0.7l1.4-1c0.3-0.2,0.4-0.6,0.3-0.9c-0.2-0.6-0.4-1.3-0.6-1.9
	c-0.1-0.3-0.4-0.5-0.8-0.5l-1.7,0c-0.3,0-0.6-0.2-0.7-0.4c-0.3-0.4-0.5-0.8-0.8-1.2c-0.2-0.2-0.3-0.5-0.2-0.8l0.5-1.6
	c0.1-0.3,0-0.7-0.3-0.9c-0.5-0.4-1-0.8-1.6-1.2c-0.3-0.2-0.7-0.2-1,0l-1.3,1c-0.2,0.2-0.5,0.2-0.8,0.1C19,4.3,18.5,4.1,18,4
	c-0.3-0.1-0.5-0.3-0.6-0.6l-0.5-1.6c-0.1-0.3-0.4-0.6-0.8-0.6c-0.3,0-0.7,0-1,0c-0.3,0-0.7,0-1,0c-0.4,0-0.7,0.3-0.8,0.6l-0.5,1.6
	c-0.1,0.3-0.3,0.5-0.6,0.6c-0.5,0.1-0.9,0.3-1.4,0.4c-0.3,0.1-0.6,0.1-0.8-0.1l-1.3-1c-0.3-0.2-0.7-0.2-1,0C7.2,3.7,6.7,4.1,6.2,4.5
	C5.9,4.7,5.8,5.1,5.9,5.4L6.4,7c0.1,0.3,0,0.6-0.2,0.8C6,8.2,5.7,8.6,5.4,9C5.3,9.2,5,9.4,4.7,9.4L3,9.4c-0.4,0-0.7,0.2-0.8,0.5
	c-0.2,0.6-0.5,1.2-0.6,1.9c-0.1,0.3,0,0.7,0.3,0.9l1.4,1c0.2,0.2,0.4,0.4,0.4,0.7c0,0.2,0,0.5,0,0.7c0,0.3,0,0.5,0,0.7
	c0,0.3-0.1,0.6-0.4,0.7l-1.4,1c-0.3,0.2-0.4,0.6-0.3,0.9c0.2,0.6,0.4,1.3,0.6,1.9C2.4,20.7,2.7,21,3,21l1.7,0c0.3,0,0.6,0.2,0.7,0.4
	c0.3,0.4,0.5,0.8,0.8,1.2c0.2,0.2,0.3,0.5,0.2,0.8l-0.5,1.6c-0.1,0.3,0,0.7,0.3,0.9c0.5,0.4,1,0.8,1.6,1.2c0.3,0.2,0.7,0.2,1,0
	l1.3-1c0.2-0.2,0.5-0.2,0.8-0.1c0.4,0.2,0.9,0.3,1.4,0.4c0.3,0.1,0.5,0.3,0.6,0.6l0.5,1.6c0.1,0.3,0.4,0.6,0.8,0.6c0.3,0,0.7,0,1,0
	c0.3,0,0.7,0,1,0c0.4,0,0.7-0.3,0.8-0.6l0.5-1.6c0.1-0.3,0.3-0.5,0.6-0.6c0.5-0.1,0.9-0.3,1.4-0.4c0.3-0.1,0.6-0.1,0.8,0.1l1.3,1
	c0.3,0.2,0.7,0.2,1,0c0.6-0.4,1.1-0.7,1.6-1.2c0.3-0.2,0.4-0.6,0.3-0.9l-0.5-1.6c-0.1-0.3,0-0.6,0.2-0.8c0.3-0.4,0.6-0.8,0.8-1.2
	c0.2-0.3,0.4-0.4,0.7-0.4l1.7,0c0.4,0,0.7-0.2,0.8-0.5c0.2-0.6,0.5-1.2,0.6-1.9c0.1-0.3,0-0.7-0.3-0.9l-1.4-1
	c-0.2-0.2-0.4-0.4-0.4-0.7C26.7,15.7,26.7,15.4,26.7,15.2z M19.3,19.5c-6.1,4.4-12.8-2.2-8.6-8.2c0.2-0.2,0.3-0.3,0.5-0.5
	c6.1-4.7,12.8,2.5,8.3,8.6C19.4,19.4,19.3,19.4,19.3,19.5z"/>
</svg>
