<svg id="Layer_1" data-name="Layer 1" xmlns="http://www.w3.org/2000/svg" xmlns:xlink="http://www.w3.org/1999/xlink" viewBox="0 0 150 150"><defs><style>.cls-1{fill:#5bccfe;}.cls-2{fill:#606060;opacity:0.33;}.cls-3{fill:url(#linear-gradient);}.cls-4{fill:url(#linear-gradient-2);}.cls-5{fill:url(#linear-gradient-3);}.cls-6{fill:url(#linear-gradient-4);}.cls-7{fill:url(#linear-gradient-5);}.cls-8{fill:url(#linear-gradient-6);}.cls-9{fill:url(#linear-gradient-7);}.cls-10{fill:url(#linear-gradient-8);}.cls-11{fill:url(#linear-gradient-9);}.cls-12{fill:url(#linear-gradient-10);}.cls-13{fill:url(#linear-gradient-11);}.cls-14{fill:url(#linear-gradient-12);}.cls-15{fill:url(#linear-gradient-13);}.cls-16{fill:url(#linear-gradient-14);}.cls-17{fill:url(#linear-gradient-15);}.cls-18{fill:url(#linear-gradient-16);}.cls-19{fill:url(#linear-gradient-17);}.cls-20{fill:url(#linear-gradient-18);}.cls-21{fill:url(#linear-gradient-19);}.cls-22{fill:url(#linear-gradient-20);}.cls-23{fill:url(#linear-gradient-21);}.cls-24{fill:url(#linear-gradient-22);}.cls-25{fill:url(#linear-gradient-23);}.cls-26{fill:url(#linear-gradient-24);}.cls-27{fill:url(#linear-gradient-25);}.cls-28{fill:url(#linear-gradient-26);}.cls-29{fill:url(#linear-gradient-27);}.cls-30{fill:url(#linear-gradient-28);}.cls-31{fill:url(#linear-gradient-29);}.cls-32{fill:url(#linear-gradient-30);}.cls-33{fill:url(#linear-gradient-31);}.cls-34{fill:url(#linear-gradient-32);}.cls-35{fill:url(#linear-gradient-33);}.cls-36{fill:url(#linear-gradient-34);}.cls-37{fill:url(#linear-gradient-35);}.cls-38{fill:url(#linear-gradient-36);}.cls-39{fill:url(#linear-gradient-37);}.cls-40{fill:url(#linear-gradient-38);}.cls-41{fill:url(#linear-gradient-39);}</style><linearGradient id="linear-gradient" x1="38.33" y1="58.5" x2="134.46" y2="58.5" gradientUnits="userSpaceOnUse"><stop offset="0" stop-color="#5bccfe"/><stop offset="1" stop-color="#2b60be"/></linearGradient><linearGradient id="linear-gradient-2" x1="104.52" y1="103.69" x2="134.46" y2="103.69" xlink:href="#linear-gradient"/><linearGradient id="linear-gradient-3" x1="38.91" y1="43.82" x2="93.85" y2="138.31" xlink:href="#linear-gradient"/><linearGradient id="linear-gradient-4" x1="70.48" y1="66.75" x2="76.78" y2="108.01" gradientUnits="userSpaceOnUse"><stop offset="0" stop-color="#5bccfe"/><stop offset="0.99" stop-color="#2b60be"/></linearGradient><linearGradient id="linear-gradient-5" x1="69.27" y1="66.94" x2="75.56" y2="108.19" xlink:href="#linear-gradient-4"/><linearGradient id="linear-gradient-6" x1="68.05" y1="67.12" x2="74.35" y2="108.38" xlink:href="#linear-gradient-4"/><linearGradient id="linear-gradient-7" x1="66.83" y1="67.31" x2="73.13" y2="108.57" xlink:href="#linear-gradient-4"/><linearGradient id="linear-gradient-8" x1="65.62" y1="67.49" x2="71.92" y2="108.75" xlink:href="#linear-gradient-4"/><linearGradient id="linear-gradient-9" x1="64.4" y1="67.68" x2="70.7" y2="108.94" xlink:href="#linear-gradient-4"/><linearGradient id="linear-gradient-10" x1="63.15" y1="67.87" x2="69.45" y2="109.13" xlink:href="#linear-gradient-4"/><linearGradient id="linear-gradient-11" x1="61.9" y1="68.06" x2="68.2" y2="109.32" xlink:href="#linear-gradient-4"/><linearGradient id="linear-gradient-12" x1="109.38" y1="65.8" x2="119.47" y2="126.19" gradientUnits="userSpaceOnUse"><stop offset="0" stop-color="#6bc4a6"/><stop offset="1" stop-color="#435faa"/></linearGradient><linearGradient id="linear-gradient-13" x1="118.98" y1="64.2" x2="129.07" y2="124.58" xlink:href="#linear-gradient-4"/><linearGradient id="linear-gradient-14" x1="118.05" y1="64.35" x2="128.14" y2="124.74" xlink:href="#linear-gradient-4"/><linearGradient id="linear-gradient-15" x1="109.73" y1="65.74" x2="119.82" y2="126.13" xlink:href="#linear-gradient-4"/><linearGradient id="linear-gradient-16" x1="116.2" y1="64.66" x2="126.29" y2="125.05" xlink:href="#linear-gradient-4"/><linearGradient id="linear-gradient-17" x1="113.91" y1="65.04" x2="124" y2="125.43" xlink:href="#linear-gradient-4"/><linearGradient id="linear-gradient-18" x1="111.95" y1="65.37" x2="122.04" y2="125.76" xlink:href="#linear-gradient-4"/><linearGradient id="linear-gradient-19" x1="21.42" y1="94.51" x2="81.85" y2="94.51" xlink:href="#linear-gradient"/><linearGradient id="linear-gradient-20" x1="68.69" y1="132.98" x2="79.42" y2="105.03" xlink:href="#linear-gradient"/><linearGradient id="linear-gradient-21" x1="21.78" y1="85.28" x2="56.31" y2="144.67" xlink:href="#linear-gradient"/><linearGradient id="linear-gradient-22" x1="24.67" y1="120.25" x2="60.58" y2="120.25" xlink:href="#linear-gradient"/><linearGradient id="linear-gradient-23" x1="42.42" y1="91.83" x2="41.91" y2="103.39" xlink:href="#linear-gradient"/><linearGradient id="linear-gradient-24" x1="42.65" y1="91.84" x2="42.13" y2="103.4" xlink:href="#linear-gradient"/><linearGradient id="linear-gradient-25" x1="42.88" y1="91.85" x2="42.36" y2="103.41" xlink:href="#linear-gradient"/><linearGradient id="linear-gradient-26" x1="43.11" y1="91.86" x2="42.59" y2="103.42" xlink:href="#linear-gradient"/><linearGradient id="linear-gradient-27" x1="43.34" y1="91.87" x2="42.82" y2="103.44" xlink:href="#linear-gradient"/><linearGradient id="linear-gradient-28" x1="43.57" y1="91.88" x2="43.05" y2="103.45" xlink:href="#linear-gradient"/><linearGradient id="linear-gradient-29" x1="43.57" y1="97.14" x2="43.05" y2="108.71" xlink:href="#linear-gradient"/><linearGradient id="linear-gradient-30" x1="43.57" y1="102.41" x2="43.05" y2="113.98" xlink:href="#linear-gradient"/><linearGradient id="linear-gradient-31" x1="64.15" y1="122.46" x2="80.84" y2="122.46" xlink:href="#linear-gradient"/><linearGradient id="linear-gradient-32" x1="72.28" y1="134.49" x2="73.36" y2="145.85" xlink:href="#linear-gradient"/><linearGradient id="linear-gradient-33" x1="69.01" y1="141.7" x2="72" y2="111.27" xlink:href="#linear-gradient"/><linearGradient id="linear-gradient-34" x1="69.88" y1="136.41" x2="72.87" y2="105.97" xlink:href="#linear-gradient"/><linearGradient id="linear-gradient-35" x1="71.1" y1="156.19" x2="74.09" y2="125.76" xlink:href="#linear-gradient"/><linearGradient id="linear-gradient-36" x1="71.24" y1="102.18" x2="74.01" y2="121.18" xlink:href="#linear-gradient"/><linearGradient id="linear-gradient-37" x1="70.91" y1="141.89" x2="73.9" y2="111.46" xlink:href="#linear-gradient"/><linearGradient id="linear-gradient-38" x1="70.85" y1="150.15" x2="73.84" y2="119.72" xlink:href="#linear-gradient"/><linearGradient id="linear-gradient-39" x1="90.32" y1="-20.46" x2="106.83" y2="54.68" xlink:href="#linear-gradient-4"/></defs><path class="cls-1" d="M68.84,23.36s4-17.71,15.36-11.2c0,0,4.16-12.38,13.55-11.11s10.84,12.37,11.11,15l.19.64s5.14-1.45,7.49,2,4.43,5.79,1.18,15.72c0,0-1.72,4.43-8.22,6.33s-41.65,6.77-41.65,6.77-6.33-.9-6.69-11.92C61.16,35.56,62.43,25.44,68.84,23.36Z"/><path class="cls-1" d="M95.19,1h1a13,13,0,0,1,2.79.31l12.57,2.84-7.13,7.44Z"/><ellipse class="cls-2" cx="37.99" cy="143.93" rx="1.23" ry="25.87" transform="translate(-110.68 151.49) rotate(-78.12)"/><path class="cls-2" d="M107.54,147c-1.35.61-8.91-.91-14.15-2.11-13.92-3.2-20.06-4.32-20-5s44.49-3.46,58.47-.53S108.17,146.68,107.54,147Z"/><polygon class="cls-3" points="38.33 54.59 104.8 66.95 134.47 61.73 67.72 50.06 38.33 54.59"/><polygon class="cls-4" points="104.52 145.65 104.8 66.95 134.47 61.73 134.47 140.7 104.52 145.65"/><polygon class="cls-5" points="38.33 54.59 38.33 133.01 104.52 145.65 104.8 66.95 38.33 54.59"/><polygon class="cls-1" points="43.5 59.9 100.63 70.52 100.08 139.01 43.68 130.22 43.5 59.9"/><polygon class="cls-6" points="50.96 65.72 91.06 73 91.11 74.6 50.91 67.18 50.96 65.72"/><polygon class="cls-7" points="50.96 73.86 91.06 81.14 91.11 82.75 50.91 75.33 50.96 73.86"/><polygon class="cls-8" points="50.96 82.01 91.06 89.29 91.11 90.89 50.91 83.48 50.96 82.01"/><polygon class="cls-9" points="50.96 90.16 91.06 97.44 91.11 99.04 50.91 91.63 50.96 90.16"/><polygon class="cls-10" points="50.96 98.31 91.06 105.59 91.11 107.19 50.91 99.78 50.96 98.31"/><polygon class="cls-11" points="50.96 106.46 91.06 113.74 91.11 115.34 50.91 107.92 50.96 106.46"/><polygon class="cls-12" points="50.96 114.84 91.06 122.12 91.11 123.72 50.91 116.3 50.96 114.84"/><polygon class="cls-13" points="50.96 123.22 91.06 130.5 91.11 132.1 50.91 124.68 50.96 123.22"/><polygon class="cls-1" points="106.31 68.33 106.31 142.31 132.86 137.36 132.86 63.66 106.31 68.33"/><polygon class="cls-14" points="109.06 127.59 109.85 127.12 130.62 122.61 130.62 129.23 109.06 134.18 109.06 127.59"/><polygon class="cls-15" points="111.69 72.39 128.63 68.71 128.63 70.17 111.73 74 111.69 72.39"/><polygon class="cls-16" points="109.7 78.4 130.62 73.85 130.62 75.66 109.75 80.4 109.7 78.4"/><polygon class="cls-17" points="109.7 127.15 109.85 127.12 130.62 122.61 130.62 129.23 109.75 133.96 109.7 127.15"/><polygon class="cls-18" points="109.7 83.62 130.62 79.07 130.62 93.17 109.75 97.91 109.7 83.62"/><polygon class="cls-19" points="109.7 102.43 130.62 97.89 130.62 102.51 109.75 107.25 109.7 102.43"/><polygon class="cls-20" points="109.7 109.78 130.62 105.24 130.62 119.34 109.75 124.07 109.7 109.78"/><polygon class="cls-1" points="79.83 50.24 67.66 47.53 76.59 45.67 79.83 50.24"/><polygon class="cls-21" points="21.41 92.05 63.2 99.82 81.85 96.53 39.89 89.2 21.41 92.05"/><polygon class="cls-22" points="63.03 149.28 63.2 99.82 81.85 96.53 81.85 146.18 63.03 149.28"/><polygon class="cls-23" points="21.41 92.05 21.41 141.34 63.03 149.28 63.2 99.82 21.41 92.05"/><polygon class="cls-24" points="24.67 95.38 60.58 102.06 60.23 145.11 24.78 139.59 24.67 95.38"/><polygon class="cls-25" points="29.36 99.04 54.56 103.61 54.59 104.62 29.33 99.96 29.36 99.04"/><polygon class="cls-26" points="29.36 104.16 54.56 108.74 54.59 109.74 29.33 105.08 29.36 104.16"/><polygon class="cls-27" points="29.36 109.28 54.56 113.86 54.59 114.87 29.33 110.2 29.36 109.28"/><polygon class="cls-28" points="29.36 114.41 54.56 118.98 54.59 119.99 29.33 115.33 29.36 114.41"/><polygon class="cls-29" points="29.36 119.53 54.56 124.1 54.59 125.11 29.33 120.45 29.36 119.53"/><polygon class="cls-30" points="29.36 124.65 54.56 129.23 54.59 130.23 29.33 125.57 29.36 124.65"/><polygon class="cls-31" points="29.36 129.92 54.56 134.49 54.59 135.5 29.33 130.84 29.36 129.92"/><polygon class="cls-32" points="29.36 135.18 54.56 139.76 54.59 140.76 29.33 136.1 29.36 135.18"/><polygon class="cls-33" points="64.15 100.68 64.15 147.18 80.84 144.07 80.84 97.74 64.15 100.68"/><polygon class="cls-34" points="65.88 137.93 66.38 137.64 79.43 134.8 79.43 138.96 65.88 142.07 65.88 137.93"/><polygon class="cls-35" points="67.53 103.23 78.18 100.92 78.18 101.84 67.56 104.25 67.53 103.23"/><polygon class="cls-36" points="66.28 107.01 79.43 104.15 79.43 105.29 66.31 108.27 66.28 107.01"/><polygon class="cls-37" points="66.28 137.66 66.38 137.64 79.43 134.8 79.43 138.96 66.31 141.94 66.28 137.66"/><polygon class="cls-38" points="66.28 110.29 79.43 107.44 79.43 116.3 66.31 119.27 66.28 110.29"/><polygon class="cls-39" points="66.28 122.12 79.43 119.26 79.43 122.17 66.31 125.14 66.28 122.12"/><polygon class="cls-40" points="66.28 126.74 79.43 123.88 79.43 132.75 66.31 135.72 66.28 126.74"/><path class="cls-41" d="M80.82,26.12s4-17.71,15.36-11.21c0,0,4.16-12.37,13.55-11.11s10.85,12.38,11.12,15l.18.63s5.15-1.44,7.5,2S133,27.2,129.7,37.14c0,0-1.72,4.43-8.22,6.32s-41.65,6.78-41.65,6.78-6.32-.9-6.68-11.93C73.15,38.31,74.41,28.19,80.82,26.12Z"/></svg>