<?xml version="1.0" encoding="utf-8"?>
<!-- Generator: Adobe Illustrator 22.0.1, SVG Export Plug-In . SVG Version: 6.00 Build 0)  -->
<svg version="1.1" id="Layer_1" xmlns="http://www.w3.org/2000/svg" xmlns:xlink="http://www.w3.org/1999/xlink" x="0px" y="0px"
	 viewBox="0 0 200 200" style="enable-background:new 0 0 200 200;" xml:space="preserve">
<style type="text/css">
	.st0{display:none;}
	.st1{display:inline;fill:#1F8AC0;}
	.st2{display:inline;}
	.st3{fill:#1F8AC0;}
	.st4{display:none;fill:#1F8AC0;}
</style>
<g class="st0">
	<path class="st1" d="M72.2,47.1c8,2.9,16.4,4.7,24.8,5.3V2c-4.8,0.2-9.5,0.7-14.2,1.6C75,12.2,68.4,26.2,63.7,43.6
		c1,0.5,2.1,1,3.1,1.4C68.6,45.7,70.4,46.5,72.2,47.1z"/>
	<path class="st1" d="M57,40c3.8-13.4,8.7-24.9,14.6-33.6C59,10.3,47.4,16.6,37.5,24.9C43.3,30.8,49.9,35.9,57,40z"/>
	<path class="st1" d="M97,96.8V58.7c-9.1-0.6-18.2-2.5-26.8-5.6c-2-0.7-3.8-1.5-5.7-2.3c-0.8-0.3-1.6-0.7-2.4-1.1
		c-3.3,14.2-5.2,30.2-5.5,47.1H97z"/>
	<path class="st1" d="M71.1,193.6c-5.7-8.8-10.5-20.2-14.2-33.4c-7.1,4.1-13.6,9.2-19.4,15.1C47.1,183.3,58.4,189.6,71.1,193.6z"/>
	<path class="st1" d="M97,147.6c-10.4,0.7-20.5,3.2-30.1,7.4c-1.2,0.5-2.3,1-3.4,1.6c4.5,17,10.9,30.9,18.5,39.7
		c4.9,0.9,10,1.5,15,1.7V147.6z"/>
	<path class="st1" d="M166.8,27.7c-10.5-9.7-23.3-17.1-37.5-21.5c6.4,9.4,11.7,22,15.5,36.7C152.8,38.9,160.2,33.8,166.8,27.7z"/>
	<path class="st1" d="M128.9,49.1c1.9-0.5,3.8-1.2,5.7-1.8c1.1-0.4,2.2-0.8,3.3-1.3c-4.7-18.5-11.6-33.5-19.8-42.5
		c-4.8-0.9-9.6-1.4-14.4-1.5h-0.3v50.6C112,52.6,120.6,51.4,128.9,49.1z"/>
	<path class="st1" d="M136.9,53.1c-2,0.7-4,1.4-6,2c-8.9,2.5-18,3.8-27.2,3.8h-0.3v37.9h40.9c-0.2-15.9-2-31.1-4.9-44.6
		C138.6,52.5,137.8,52.9,136.9,53.1z"/>
	<path class="st1" d="M144.9,157.1c-3.7,14.5-8.8,26.9-15,36.3c14-4.4,26.4-11.7,36.8-21.2C160.2,166.2,152.9,161.1,144.9,157.1z"/>
	<path class="st1" d="M64.6,149.2c10.3-4.5,21.3-7.2,32.5-7.9v-38.1H56.7c0.2,16.9,2.1,33,5.3,47.2C62.9,150,63.7,149.6,64.6,149.2z
		"/>
	<path class="st1" d="M138.1,154.1c-1.1-0.4-2.2-0.9-3.3-1.3c-10-3.6-20.5-5.4-31.1-5.4h-0.3V198h0.3c5.1-0.2,10.3-0.8,15.3-1.7
		C126.9,187,133.6,172.2,138.1,154.1z"/>
	<path class="st1" d="M136.9,146.9c0.9,0.3,1.7,0.6,2.6,1c2.9-13.6,4.6-28.8,4.8-44.7h-40.9v37.9h0.3
		C115,141.1,126.2,143,136.9,146.9z"/>
	<g class="st2">
		<path class="st3" d="M151.6,96.8h46.6V97h0.2c-0.7-24.9-10.9-48-27.4-65.1V32h-0.1l0.3,0.3c-7.4,6.9-15.8,12.6-24.9,17
			C149.5,63.5,151.4,79.6,151.6,96.8z"/>
		<path class="st3" d="M170.9,168h0.2c16.5-17.1,26.6-40.1,27.4-65h-0.2v0.1h-46.6c-0.2,17.2-2,33.4-5.2,47.7
			c9,4.3,17.3,10,24.7,16.9L170.9,168z"/>
	</g>
	<g class="st2">
		<path class="st3" d="M33.2,171l-0.2-0.2c6.6-6.7,14.1-12.4,22.3-17c-3.6-15.1-5.7-32.3-5.9-50.7H2.4C3.2,129,14.4,153.4,32.8,171
			H33.2z"/>
		<path class="st3" d="M37,174.8C37,174.8,37,174.8,37,174.8L37,174.8L37,174.8z"/>
	</g>
	<path class="st1" d="M32.9,29.2l0.2-0.2h-0.2C20.3,41,10.9,56.4,6,73.7c-2.1,7.7-3.3,15.5-3.6,23.1h46.9c0.2-18.4,2.4-35.5,6-50.5
		C47.2,41.7,39.6,36,32.9,29.2z"/>
</g>
<g class="st0">
	<g class="st2">
		<g>
			<g>
				<g>
					<path class="st3" d="M195.6,38.3c-0.6-3-2.1-6-4.2-8.4c-3.6-4.5-9-6.3-15-6.3h-74.8c-25.1,0-50.3,0-75.7,0
						c-9.9,0-17.9,6.9-18.8,16.2c-0.3,3.9-0.3,7.8,0,11.4c0.3,5.7,3.6,10.2,8.4,13.2c3.6,2.4,7.8,3,12,3c22.1,0,44.3,0,66.4,0
						c4.8,0,9.6,0,14.7,0c15.3,0,30.5,0,45.8,0c7.2,0,14.7,0,21.8,0c10.2,0,17.9-6.3,19.1-15.9C196.2,47,196.2,42.5,195.6,38.3z
						 M36.7,55.7c-5.9,0-10.3-4.7-10.3-10.6S31.1,34.6,37,34.6s10.6,4.7,10.6,10.3C47.3,51,42.5,55.7,36.7,55.7z"/>
				</g>
			</g>
			<g>
				<g>
					<path class="st3" d="M195.6,93.3c-0.6-3-2.1-6-4.2-8.4c-3.6-4.5-9-6.3-15-6.3h-74.8c-25.1,0-50.3,0-75.7,0
						c-9.9,0-17.9,6.9-18.8,16.2c-0.3,3.9-0.3,7.8,0,11.4c0.3,5.7,3.6,10.2,8.4,13.2c3.6,2.4,7.8,3,12,3c22.1,0,44.3,0,66.4,0
						c4.8,0,9.6,0,14.7,0c15.3,0,30.5,0,45.8,0c7.2,0,14.7,0,21.8,0c10.2,0,17.9-6.3,19.1-15.9C196.2,102,196.2,97.5,195.6,93.3z
						 M36.7,110.7c-5.9,0-10.3-4.7-10.3-10.6S31.1,89.5,37,89.5s10.6,4.7,10.6,10.3C47.3,106,42.5,110.7,36.7,110.7z"/>
				</g>
			</g>
			<g>
				<g>
					<path class="st3" d="M195.6,148.3c-0.6-3-2.1-6-4.2-8.4c-3.6-4.5-9-6.3-15-6.3h-74.8c-25.1,0-50.3,0-75.7,0
						c-9.9,0-17.9,6.9-18.8,16.2c-0.3,3.9-0.3,7.8,0,11.4c0.3,5.7,3.6,10.2,8.4,13.2c3.6,2.4,7.8,3,12,3c22.1,0,44.3,0,66.4,0
						c4.8,0,9.6,0,14.7,0c15.3,0,30.5,0,45.8,0c7.2,0,14.7,0,21.8,0c10.2,0,17.9-6.3,19.1-15.9C196.2,157,196.2,152.5,195.6,148.3z
						 M36.7,165.4c-5.9,0-10.3-4.7-10.3-10.6s4.7-10.6,10.6-10.6s10.6,4.7,10.6,10.3C47.3,160.7,42.5,165.7,36.7,165.4z"/>
				</g>
			</g>
		</g>
	</g>
</g>
<g class="st0">
	<path class="st1" d="M189.7,181.7h-60v-2.3c0-3.1-2.5-5.6-5.6-5.6h-20.4v-20.7h-7.5v20.7H75.9c-3.1,0-5.6,2.5-5.6,5.6v2.3h-60
		c-2,0-3.6,1.6-3.6,3.6l0,0c0,2,1.6,3.6,3.6,3.6h60v1.6c0,3.1,2.5,5.6,5.6,5.6h47.9c3.1,0,5.6-2.5,5.6-5.6v-1.6h60.3
		c2,0,3.6-1.6,3.6-3.6l0,0C193.2,183.3,191.6,181.7,189.7,181.7z"/>
	<path class="st1" d="M168.9,8H30.7c-3.1,0-5.6,2.5-5.6,5.6v35.9c0,3.1,2.5,5.6,5.6,5.6h138.1c3.1,0,5.6-2.5,5.6-5.6V13.6
		C174.5,10.5,172,8,168.9,8z M88.9,46l-49.7,0c-1,0-1.9-0.6-2.1-1.5c-0.5-1.6,0.6-3,2.1-3l49.7,0c1,0,1.9,0.6,2.1,1.5
		C91.4,44.5,90.3,46,88.9,46z M88.9,35.1l-49.7,0c-1,0-1.9-0.6-2.1-1.5c-0.5-1.6,0.6-3,2.1-3l49.7,0c1,0,1.9,0.6,2.1,1.5
		C91.4,33.6,90.3,35.1,88.9,35.1z M88.9,24.2l-49.7,0c-1,0-1.9-0.6-2.1-1.5c-0.5-1.6,0.6-3,2.1-3h49.8c1.1,0,2,0.8,2.2,1.8
		C91.3,23,90.2,24.2,88.9,24.2z M146.9,38.1c-3.9,0-7-3.5-6.3-7.6c0.5-2.6,2.6-4.7,5.2-5.2c4-0.7,7.6,2.4,7.6,6.3
		C153.3,35.2,150.4,38.1,146.9,38.1z"/>
	<path class="st1" d="M168.9,61.4H30.7c-3.1,0-5.6,2.5-5.6,5.6v35.9c0,3.1,2.5,5.6,5.6,5.6h138.1c3.1,0,5.6-2.5,5.6-5.6V67
		C174.5,63.9,172,61.4,168.9,61.4z M88.9,99l-49.7,0c-1,0-1.9-0.6-2.1-1.5c-0.5-1.6,0.6-3,2.1-3l49.7,0c1,0,1.9,0.6,2.1,1.5
		C91.4,97.6,90.3,99,88.9,99z M88.9,88.1l-49.7,0c-1,0-1.9-0.6-2.1-1.5c-0.5-1.6,0.6-3,2.1-3h49.7c1,0,1.9,0.6,2.1,1.5
		C91.4,86.7,90.3,88.1,88.9,88.1z M88.9,77.2H39.1c-1,0-1.9-0.6-2.1-1.5c-0.5-1.6,0.6-3,2.1-3h49.8c1.1,0,2,0.8,2.2,1.8
		C91.3,76,90.2,77.2,88.9,77.2z M146.9,91.2c-3.5,0-6.4-2.9-6.4-6.4c0-3.5,2.9-6.4,6.4-6.4s6.4,2.9,6.4,6.4
		C153.3,88.3,150.4,91.2,146.9,91.2z"/>
	<path class="st1" d="M168.9,114.4H30.7c-3.1,0-5.6,2.5-5.6,5.6v35.9c0,3.1,2.5,5.6,5.6,5.6h138.1c3.1,0,5.6-2.5,5.6-5.6V120
		C174.5,116.9,172,114.4,168.9,114.4z M88.9,152H39.1c-1,0-1.9-0.6-2.1-1.5c-0.5-1.6,0.6-3,2.1-3h49.7c1,0,1.9,0.6,2.1,1.5
		C91.4,150.6,90.3,152,88.9,152z M88.9,141.1H39.1c-1,0-1.9-0.6-2.1-1.5c-0.5-1.6,0.6-3,2.1-3h49.8c1.1,0,2,0.8,2.2,1.8
		C91.3,139.9,90.2,141.1,88.9,141.1z M88.9,130.6H39.1c-1,0-1.9-0.6-2.1-1.5c-0.5-1.6,0.6-3,2.1-3h49.8c1.1,0,2,0.8,2.2,1.8
		C91.3,129.4,90.2,130.6,88.9,130.6z M146.9,144.3c-3.5,0-6.4-2.9-6.4-6.4c0-3.5,2.9-6.4,6.4-6.4s6.4,2.9,6.4,6.4
		C153.3,141.4,150.4,144.3,146.9,144.3z"/>
</g>
<g class="st0">
	<g class="st2">
		<path class="st3" d="M99.7,114.3c13.1,0,53.4-36.2,89-74.8c-3.1-3-7.3-4.9-12-4.9h-154c-4.7,0-8.9,1.9-12,4.9
			C46.3,78.1,86.7,114.3,99.7,114.3z"/>
		<path class="st3" d="M99.5,132.5c-22.3,0-67.7-44.1-94.5-72.3v103.7c0,9.5,7.7,17.2,17.2,17.2h154.5c9.5,0,17.2-7.7,17.2-17.2
			V60.2C167.2,88.4,121.7,132.5,99.5,132.5z"/>
	</g>
</g>
<g class="st0">
	<g id="Web_hosting_2_" class="st2">
		<path class="st3" d="M188.7,181h-40.3c-7.4,0-13.5-6.1-13.5-13.5v-27.1h-13.5v26.2c0,7.9-6.5,14.4-14.4,14.4H67.5
			c-3.6,0-6.8,2.5-7.1,6.1c-0.3,4.1,2.7,7.4,6.8,7.4H189c3.9,0,7.1-3.4,6.8-7.4C195.5,183.6,192.2,181,188.7,181z"/>
		<path class="st3" d="M168.7,72.7H33.3c-14.9,0-27.1,12.2-27.1,27.1v6.8c0,14.9,12.2,27.1,27.1,27.1h135.4
			c14.9,0,27.1-12.2,27.1-27.1v-6.8C195.8,84.9,183.6,72.7,168.7,72.7z M168.7,120.1H33.3c-7.4,0-13.5-6.1-13.5-13.5v-6.8
			c0-7.4,6.1-13.5,13.5-13.5h135.4c7.4,0,13.5,6.1,13.5,13.5v6.8C182.2,114,176.2,120.1,168.7,120.1z"/>
		<path class="st3" d="M168.7,5H33.3C18.4,5,6.2,17.2,6.2,32.1v6.8c0,14.9,12.2,27.1,27.1,27.1h135.4c14.9,0,27.1-12.2,27.1-27.1
			v-6.8C195.8,17.2,183.6,5,168.7,5z M168.7,52.4H33.3c-7.4,0-13.5-6.1-13.5-13.5v-6.8c0-7.4,6.1-13.5,13.5-13.5h135.4
			c7.4,0,13.5,6.1,13.5,13.5v6.8C182.2,46.3,176.2,52.4,168.7,52.4z"/>
		<circle class="st3" cx="39.5" cy="103.2" r="6.8"/>
		<circle class="st3" cx="66.6" cy="103.2" r="6.8"/>
		<circle class="st3" cx="93.7" cy="103.2" r="6.8"/>
		<circle class="st3" cx="39.5" cy="35.5" r="6.8"/>
		<circle class="st3" cx="66.6" cy="35.5" r="6.8"/>
		<circle class="st3" cx="93.7" cy="35.5" r="6.8"/>
	</g>
</g>
<path class="st4" d="M157.3,84.8H51.7c-12.5,0-22.5,10.1-22.5,22.5v45c0,30,15.1,45,37.7,45h75.4c22.6,0,37.7-15,37.7-45v-45
	C179.9,94.9,169.8,84.8,157.3,84.8z M113.5,2h-16C72.7,2,52.5,22.2,52.5,47.1v29.2h29.7V46.8c0-8.3,6.7-15,15-15h14.5
	c8.3,0,15,6.7,15,15v29.6h31.8V47.1C158.6,22.2,138.4,2,113.5,2z M120.6,159.1H90.5l6-18.1c-4.4-3.3-6.9-8.9-5.7-15
	c1.2-5.9,5.9-10.6,11.7-11.7c9.6-1.9,18,5.5,18,14.7c0,4.9-2.4,9.2-6,12L120.6,159.1z"/>
<g class="st0">
	<g id="Gif_2_" class="st2">
		<path class="st3" d="M23.7,195.1h71.8v-79.8H23.7V195.1z M186.2,59.4l-43.1,0c3-1.5,5.6-3.1,8-4.8c9-6.4,13.8-14.6,13.8-22.7
			c0-6.7-3.2-12.5-7.8-16.5c-4.6-4-10.7-6.4-17.2-6.4c-7,0-13.4,2.4-18.9,6.1c-8.3,5.6-14.9,13.9-19.5,23.1
			c-0.2,0.5-0.5,0.9-0.7,1.4c-1.7-3.6-3.7-7-5.9-10.2c-3.9-5.6-8.7-10.6-14.2-14.3C75.1,11.4,68.6,9,61.7,9c-6.9,0-13.3,2.9-18,7.4
			c-4.7,4.4-8,10.7-8.1,17.8c0,4.2,1.2,8.5,3.7,12.4c3.1,4.9,8.1,9.3,15,12.8H16.8c-5,0-9.1,4-9.1,9V102h87.8V59.4l12,0V102h87.8
			V68.5C195.3,63.4,191.2,59.4,186.2,59.4z M57.7,46.4c-3.6-2.2-5.7-4.5-7-6.5c-1.3-2-1.7-3.8-1.7-5.5c0-2.9,1.4-6,4-8.4
			c2.5-2.4,5.9-3.8,8.9-3.8H62c3.9,0,7.8,1.3,11.7,3.9c5.8,3.8,11.3,10.6,15.1,18.3c2,3.9,3.5,8,4.5,12
			C75.7,54.5,64.3,50.6,57.7,46.4z M118.1,37.1c3.2-4.6,6.9-8.4,10.8-11c3.9-2.6,7.8-3.9,11.7-3.9h0c3.3,0,6.4,1.3,8.5,3.2
			c2.2,1.9,3.3,4.2,3.3,6.7c0,2.9-1.5,7.2-8.4,12.2c-6.5,4.7-17.8,9.6-35.1,13C110.6,50.4,113.8,43.1,118.1,37.1z M106.2,195.1H178
			v-79.8h-71.8V195.1z"/>
	</g>
</g>
<g class="st0">
	<g class="st2">
		<g>
			<g>
				<rect x="61" y="42.5" class="st3" width="78.3" height="10.8"/>
				<path class="st3" d="M56.1,36.5h88c5.2,0,9.5-4,9.5-8.9s-4.3-8.9-9.5-8.9h-88c-5.2,0-9.5,4-9.5,8.9S50.9,36.5,56.1,36.5z
					 M84.5,23.2c2.5,0,4.5,2,4.5,4.5s-2,4.5-4.5,4.5c-2.5,0-4.5-2-4.5-4.5C80.1,25.2,82.1,23.2,84.5,23.2z M70.4,23.2
					c2.5,0,4.5,2,4.5,4.5s-2,4.5-4.5,4.5c-2.5,0-4.5-2-4.5-4.5S68,23.2,70.4,23.2z M56.3,23.2c2.5,0,4.5,2,4.5,4.5s-2,4.5-4.5,4.5
					c-2.5,0-4.5-2-4.5-4.5S53.9,23.2,56.3,23.2z"/>
				<rect x="61" y="83.1" class="st3" width="78.3" height="10.8"/>
				<path class="st3" d="M56.1,117.5h41.3v28.6h6v-28.6h40.7c5.2,0,9.5-4,9.5-8.8c0-4.9-4.3-8.8-9.5-8.8h-1.9c0,0,0,0,0,0
					c0,0,0,0,0,0H58c0,0,0,0,0,0c0,0,0,0,0,0h-1.9c-5.2,0-9.5,4-9.5,8.8C46.6,113.6,50.9,117.5,56.1,117.5z M84.5,104.3
					c2.5,0,4.5,2,4.5,4.5c0,2.5-2,4.5-4.5,4.5c-2.5,0-4.5-2-4.5-4.5C80.1,106.3,82.1,104.3,84.5,104.3z M70.4,104.3
					c2.5,0,4.5,2,4.5,4.5c0,2.5-2,4.5-4.5,4.5c-2.5,0-4.5-2-4.5-4.5C66,106.3,68,104.3,70.4,104.3z M56.3,104.3c2.5,0,4.5,2,4.5,4.5
					c0,2.5-2,4.5-4.5,4.5c-2.5,0-4.5-2-4.5-4.5C51.9,106.3,53.9,104.3,56.3,104.3z"/>
				<path class="st3" d="M56.1,77h88c5.2,0,9.5-4,9.5-8.9s-4.3-8.9-9.5-8.9h-88c-5.2,0-9.5,4-9.5,8.9C46.6,73.1,50.9,77,56.1,77z
					 M84.5,63.7c2.5,0,4.5,2,4.5,4.5c0,2.5-2,4.5-4.5,4.5c-2.5,0-4.5-2-4.5-4.5C80.1,65.7,82.1,63.7,84.5,63.7z M70.4,63.7
					c2.5,0,4.5,2,4.5,4.5c0,2.5-2,4.5-4.5,4.5c-2.5,0-4.5-2-4.5-4.5C66,65.7,68,63.7,70.4,63.7z M56.3,63.7c2.5,0,4.5,2,4.5,4.5
					c0,2.5-2,4.5-4.5,4.5c-2.5,0-4.5-2-4.5-4.5C51.9,65.7,53.9,63.7,56.3,63.7z"/>
				<path class="st3" d="M30.3,171.5c-1.3-5.2-6-9-11.6-9c-6.6,0-12,5.4-12,12c0,6.6,5.4,12,12,12c5.6,0,10.3-3.8,11.6-9h46.9
					l0.2-0.3v-5.5l-0.2-0.3H30.3z"/>
				<path class="st3" d="M182,162.6c-5.6,0-10.3,3.8-11.6,9h-46.8l-0.2,0.3v5.5l0.2,0.3h46.8c1.3,5.2,6,9,11.6,9c6.6,0,12-5.4,12-12
					C194,167.9,188.6,162.6,182,162.6z"/>
				<rect x="76.6" y="162.8" class="st3" width="47.7" height="22.9"/>
			</g>
		</g>
	</g>
	<rect x="96.2" y="117.1" class="st1" width="7.5" height="47.4"/>
</g>
<g>
	<path class="st3" d="M7.9,182.8c0,7.5,0,7.5,7.5,7.5h60v-15h-60C7.9,175.3,7.9,175.3,7.9,182.8z"/>
	<path class="st3" d="M105.4,145.3h74.9c4.4,0,7.7-3.3,7.7-7.7V17.9c0-4.4-3.3-7.7-7.7-7.7H15.5c-4.4,0-7.7,3.3-7.7,7.7v119.8
		c0,4.4,3.3,7.7,7.7,7.7h74.9v23c0,3.5-7.5,6.8-7.5,16.1c0,6.8,5.1,13.4,15,13.4c6.9,0,11.4-3.2,13.6-7.4h69c7.5,0,7.5,0,7.5-7.5
		s0-7.5-7.5-7.5h-70.4c-2.1-3.1-4.6-5.1-4.6-7.1V145.3z M158,25.2h15v15h-15V25.2z M158,55.2h15v15h-15V55.2z M158,85.3h15v15h-15
		V85.3z M158,115.3h15v15h-15V115.3z M37.9,130.3h-15v-15h15V130.3z M37.9,100.3h-15v-15h15V100.3z M37.9,70.3h-15v-15h15V70.3z
		 M37.9,40.2h-15v-15h15V40.2z M75.6,122.2c-2.1,0-3.8-1.7-3.8-3.8h0V52.2h0c0-2.1,1.7-3.8,3.8-3.8c0.8,0,1.4,0.2,2.1,0.6l53.5,31.8
		c1.3,1.1,2.1,2.7,2.1,4.4c0,1.8-0.8,3.4-2.1,4.4l-53.5,31.8C77.1,121.9,76.4,122.2,75.6,122.2z"/>
</g>
<g>
</g>
<g>
</g>
<g>
</g>
<g>
</g>
<g>
</g>
<g>
</g>
<g>
</g>
<g>
</g>
<g>
</g>
<g>
</g>
<g>
</g>
</svg>
