<?xml version="1.0" encoding="utf-8"?>
<!-- Generator: Adobe Illustrator 22.0.1, SVG Export Plug-In . SVG Version: 6.00 Build 0)  -->
<svg version="1.1" id="Layer_1" xmlns="http://www.w3.org/2000/svg" xmlns:xlink="http://www.w3.org/1999/xlink" x="0px" y="0px"
	 viewBox="0 0 200 200" style="enable-background:new 0 0 200 200;" xml:space="preserve">
<style type="text/css">
	.st0{display:none;}
	.st1{display:inline;fill:#1F8AC0;}
	.st2{display:inline;}
	.st3{fill:#1F8AC0;}
	.st4{display:inline;fill:#FFFFFF;}
	.st5{display:inline;fill:none;}
	.st6{fill:#DEDEDE;}
	.st7{fill:#F2F2F2;}
	.st8{fill:#CFCFCF;}
	.st9{fill:#FFFFFF;}
	.st10{fill:#333333;fill-opacity:0.102;}
	.st11{fill:#4D4D4D;fill-opacity:0.102;}
</style>
<g class="st0">
	<path class="st1" d="M72.2,47.1c8,2.9,16.4,4.7,24.8,5.3V2c-4.8,0.2-9.5,0.7-14.2,1.6c-7.8,8.6-14.4,22.6-19.1,40
		c1,0.5,2.1,1,3.1,1.4C68.6,45.7,70.4,46.5,72.2,47.1z"/>
	<path class="st1" d="M57,40c3.8-13.4,8.7-24.9,14.6-33.6C59,10.3,47.4,16.6,37.5,24.9C43.3,30.8,49.9,35.9,57,40z"/>
	<path class="st1" d="M97,96.8V58.7c-9.1-0.6-18.2-2.5-26.8-5.6c-2-0.7-3.8-1.5-5.7-2.3c-0.8-0.3-1.6-0.7-2.4-1.1
		c-3.3,14.2-5.2,30.2-5.5,47.1H97z"/>
	<path class="st1" d="M71.1,193.6c-5.7-8.8-10.5-20.2-14.2-33.4c-7.1,4.1-13.6,9.2-19.4,15.1C47.1,183.3,58.4,189.6,71.1,193.6z"/>
	<path class="st1" d="M97,147.6c-10.4,0.7-20.5,3.2-30.1,7.4c-1.2,0.5-2.3,1-3.4,1.6c4.5,17,10.9,30.9,18.5,39.7
		c4.9,0.9,10,1.5,15,1.7V147.6z"/>
	<path class="st1" d="M166.8,27.7c-10.5-9.7-23.3-17.1-37.5-21.5c6.4,9.4,11.7,22,15.5,36.7C152.8,38.9,160.2,33.8,166.8,27.7z"/>
	<path class="st1" d="M128.9,49.1c1.9-0.5,3.8-1.2,5.7-1.8c1.1-0.4,2.2-0.8,3.3-1.3c-4.7-18.5-11.6-33.5-19.8-42.5
		c-4.8-0.9-9.6-1.4-14.4-1.5h-0.3v50.6C112,52.6,120.6,51.4,128.9,49.1z"/>
	<path class="st1" d="M136.9,53.1c-2,0.7-4,1.4-6,2c-8.9,2.5-18,3.8-27.2,3.8h-0.3v37.9h40.9c-0.2-15.9-2-31.1-4.9-44.6
		C138.6,52.5,137.8,52.9,136.9,53.1z"/>
	<path class="st1" d="M144.9,157.1c-3.7,14.5-8.8,26.9-15,36.3c14-4.4,26.4-11.7,36.8-21.2C160.2,166.2,152.9,161.1,144.9,157.1z"/>
	<path class="st1" d="M64.6,149.2c10.3-4.5,21.3-7.2,32.5-7.9v-38.1H56.7c0.2,16.9,2.1,33,5.3,47.2C62.9,150,63.7,149.6,64.6,149.2z
		"/>
	<path class="st1" d="M138.1,154.1c-1.1-0.4-2.2-0.9-3.3-1.3c-10-3.6-20.5-5.4-31.1-5.4h-0.3V198h0.3c5.1-0.2,10.3-0.8,15.3-1.7
		C126.9,187,133.6,172.2,138.1,154.1z"/>
	<path class="st1" d="M136.9,146.9c0.9,0.3,1.7,0.6,2.6,1c2.9-13.6,4.6-28.8,4.8-44.7h-40.9v37.9h0.3
		C115,141.1,126.2,143,136.9,146.9z"/>
	<g class="st2">
		<path class="st3" d="M151.6,96.8h46.6V97h0.2c-0.7-24.9-10.9-48-27.4-65.1V32h-0.1l0.3,0.3c-7.4,6.9-15.8,12.6-24.9,17
			C149.5,63.5,151.4,79.6,151.6,96.8z"/>
		<path class="st3" d="M170.9,168h0.2c16.5-17.1,26.6-40.1,27.4-65h-0.2v0.1h-46.6c-0.2,17.2-2,33.4-5.2,47.7
			c9,4.3,17.3,10,24.7,16.9L170.9,168z"/>
	</g>
	<g class="st2">
		<path class="st3" d="M33.2,171l-0.2-0.2c6.6-6.7,14.1-12.4,22.3-17c-3.6-15.1-5.7-32.3-5.9-50.7h-47c0.8,25.9,12,50.3,30.4,67.9
			H33.2z"/>
		<path class="st3" d="M37,174.8L37,174.8L37,174.8L37,174.8z"/>
	</g>
	<path class="st1" d="M32.9,29.2l0.2-0.2h-0.2C20.3,41,10.9,56.4,6,73.7c-2.1,7.7-3.3,15.5-3.6,23.1h46.9c0.2-18.4,2.4-35.5,6-50.5
		C47.2,41.7,39.6,36,32.9,29.2z"/>
</g>
<g class="st0">
	<path class="st1" d="M269.8,42.8c8,2.9,16.4,4.7,24.8,5.3V-2.3c-4.8,0.2-9.5,0.7-14.2,1.6c-7.8,8.6-14.4,22.6-19.1,40
		c1,0.5,2.1,1,3.1,1.4C266.2,41.4,268,42.2,269.8,42.8z"/>
	<path class="st1" d="M254.6,35.7c3.8-13.4,8.7-24.9,14.6-33.6C256.6,6,245,12.3,235.1,20.6C240.9,26.5,247.5,31.6,254.6,35.7z"/>
	<path class="st1" d="M294.6,92.5V54.4c-9.1-0.6-18.2-2.5-26.8-5.6c-2-0.7-3.8-1.5-5.7-2.3c-0.8-0.3-1.6-0.7-2.4-1.1
		c-3.3,14.2-5.2,30.2-5.5,47.1H294.6z"/>
	<path class="st1" d="M268.7,189.3c-5.7-8.8-10.5-20.2-14.2-33.4c-7.1,4.1-13.6,9.2-19.4,15.1C244.7,179,256,185.3,268.7,189.3z"/>
	<path class="st1" d="M294.6,143.3c-10.4,0.7-20.5,3.2-30.1,7.4c-1.2,0.5-2.3,1-3.4,1.6c4.5,17,10.9,30.9,18.5,39.7
		c4.9,0.9,10,1.5,15,1.7V143.3z"/>
	<path class="st1" d="M364.4,23.4c-10.5-9.7-23.3-17.1-37.5-21.5c6.4,9.4,11.7,22,15.5,36.7C350.4,34.6,357.8,29.5,364.4,23.4z"/>
	<path class="st1" d="M326.5,44.8c1.9-0.5,3.8-1.2,5.7-1.8c1.1-0.4,2.2-0.8,3.3-1.3c-4.7-18.5-11.6-33.5-19.8-42.5
		c-4.8-0.9-9.6-1.4-14.4-1.5H301v50.6C309.6,48.3,318.2,47.1,326.5,44.8z"/>
	<path class="st1" d="M334.5,48.8c-2,0.7-4,1.4-6,2c-8.9,2.5-18,3.8-27.2,3.8H301v37.9h40.9c-0.2-15.9-2-31.1-4.9-44.6
		C336.2,48.2,335.4,48.6,334.5,48.8z"/>
	<path class="st1" d="M342.5,152.8c-3.7,14.5-8.8,26.9-15,36.3c14-4.4,26.4-11.7,36.8-21.2C357.8,161.9,350.5,156.8,342.5,152.8z"/>
	<path class="st1" d="M262.2,144.9c10.3-4.5,21.3-7.2,32.5-7.9V98.9h-40.4c0.2,16.9,2.1,33,5.3,47.2
		C260.5,145.7,261.3,145.3,262.2,144.9z"/>
	<path class="st1" d="M335.7,149.8c-1.1-0.4-2.2-0.9-3.3-1.3c-10-3.6-20.5-5.4-31.1-5.4H301v50.6h0.3c5.1-0.2,10.3-0.8,15.3-1.7
		C324.5,182.7,331.2,167.9,335.7,149.8z"/>
	<path class="st1" d="M334.5,142.6c0.9,0.3,1.7,0.6,2.6,1c2.9-13.6,4.6-28.8,4.8-44.7H301v37.9h0.3
		C312.6,136.8,323.8,138.7,334.5,142.6z"/>
	<g class="st2">
		<path class="st3" d="M349.2,92.5h46.6v0.2h0.2c-0.7-24.9-10.9-48-27.4-65.1v0.1h-0.1l0.3,0.3c-7.4,6.9-15.8,12.6-24.9,17
			C347.1,59.2,349,75.3,349.2,92.5z"/>
		<path class="st3" d="M368.5,163.7h0.2c16.5-17.1,26.6-40.1,27.4-65h-0.2v0.1h-46.6c-0.2,17.2-2,33.4-5.2,47.7
			c9,4.3,17.3,10,24.7,16.9L368.5,163.7z"/>
	</g>
	<g class="st2">
		<path class="st3" d="M230.8,166.7l-0.2-0.2c6.6-6.7,14.1-12.4,22.3-17c-3.6-15.1-5.7-32.3-5.9-50.7h-47
			c0.8,25.9,12,50.3,30.4,67.9H230.8z"/>
		<path class="st3" d="M234.6,170.5L234.6,170.5L234.6,170.5L234.6,170.5z"/>
	</g>
	<path class="st1" d="M230.5,24.9l0.2-0.2h-0.2c-12.6,12-22,27.4-26.9,44.7c-2.1,7.7-3.3,15.5-3.6,23.1h46.9
		c0.2-18.4,2.4-35.5,6-50.5C244.8,37.4,237.2,31.7,230.5,24.9z"/>
</g>
<g class="st0">
	<title></title>
	<path class="st1" d="M100.3,5.7c-49.1,0-88.9,39.8-88.9,88.9c0,21.4,7.7,42,21.6,58.2L29.3,199l37.9-21.8
		c45.6,18.3,97.4-3.8,115.7-49.4S179,30.4,133.4,12.1C122.9,7.8,111.7,5.7,100.3,5.7L100.3,5.7z"/>
	<path class="st4" d="M81.4,82.7v-6h25.8l4,4.4v37.2c0,5,4,9,9,9h1.7v8.6H79.5v-8.5h1.8c4.9,0,9-4,9-9c0,0,0,0,0,0V88L81.4,82.7z"/>
	<circle class="st4" cx="96.7" cy="56.8" r="10.5"/>
	<path class="st5" d="M99.9,5.7C50.8,5.7,11,45.5,11,94.6c0,21.4,7.7,42,21.6,58.1L28.9,199l37.8-21.8
		c45.6,18.3,97.4-3.7,115.7-49.3s-3.7-97.4-49.3-115.7C122.6,7.9,111.3,5.7,99.9,5.7z"/>
	<path class="st5" d="M82.3,84v-6.5h24.9l4,4.3v36.6c0,4.9,4,8.9,8.9,9h1.5v10.5h-42v-10.5h2.5c0,0,9-2.6,8-7.6V89.3L82.3,84z"/>
	<circle class="st5" cx="98.1" cy="56.4" r="10.5"/>
</g>
<g>
	<title></title>
	<g>
		<path class="st6" d="M20.6,66.2L164,41.7c1.2,6.8,7.6,11.4,14.4,10.2l0.8,4.5l-0.2,0c-1.5,0.3-2.5,1.7-2.2,3.2
			c0.3,1.5,1.7,2.5,3.2,2.2c0,0,0,0,0,0c0.1,0,0.1,0,0.2,0l0.5,2.7c-0.1,0-0.2,0-0.2,0c-1.5,0.2-2.5,1.6-2.3,3.1c0,0,0,0,0,0
			c0.3,1.5,1.7,2.5,3.2,2.2c0.1,0,0.2,0,0.2,0l0.5,2.7l-0.2,0c-1.5,0.3-2.5,1.7-2.2,3.2c0.3,1.5,1.7,2.5,3.2,2.2c0,0,0,0,0,0
			c0.1,0,0.1,0,0.2,0l0.5,2.7c-0.1,0-0.2,0-0.2,0c-1.5,0.2-2.5,1.6-2.3,3.1c0.2,1.5,1.6,2.5,3.1,2.3c0,0,0,0,0.1,0
			c0.1,0,0.2,0,0.2,0l0.5,2.7c-0.1,0-0.1,0-0.2,0c-1.5,0.2-2.4,1.6-2.2,3c0,0,0,0.1,0,0.1c0.2,1.5,1.6,2.5,3.1,2.2c0,0,0.1,0,0.1,0
			c0.1,0,0.1,0,0.2,0l0.5,2.7c-0.1,0-0.2,0-0.2,0c-1.5,0.2-2.5,1.6-2.3,3.1c0.2,1.5,1.6,2.5,3.1,2.3c0,0,0,0,0.1,0
			c0.1,0,0.2,0,0.2,0l0.5,2.7c-0.1,0-0.1,0-0.2,0c-1.5,0.2-2.4,1.6-2.2,3c0,0,0,0.1,0,0.1c0.2,1.5,1.6,2.5,3.1,2.2c0,0,0.1,0,0.1,0
			c0.1,0,0.1,0,0.2,0l0.5,2.7c-0.1,0-0.1,0-0.2,0c-1.5,0.3-2.5,1.7-2.2,3.2c0.3,1.5,1.7,2.5,3.2,2.2c0.1,0,0.2,0,0.2,0l0.8,4.5
			c-6.8,1.1-11.4,7.6-10.2,14.4c0,0,0,0,0,0.1L37,161.9c-1.2-6.8-7.6-11.4-14.4-10.2l-0.8-4.5c1.5-0.2,2.5-1.6,2.2-3.1
			c0,0,0-0.1,0-0.1c-0.3-1.5-1.7-2.5-3.2-2.2l-0.5-2.7c1.5-0.3,2.5-1.7,2.3-3.2c-0.3-1.5-1.7-2.5-3.2-2.2l-0.5-2.7
			c1.5-0.2,2.5-1.6,2.2-3.1c0,0,0-0.1,0-0.1c-0.3-1.5-1.7-2.5-3.2-2.2l-0.5-2.7c1.5-0.3,2.5-1.7,2.3-3.2c-0.3-1.5-1.7-2.5-3.2-2.2
			l-0.5-2.7c1.5-0.2,2.5-1.6,2.2-3.1c0,0,0-0.1,0-0.1c-0.3-1.5-1.7-2.5-3.1-2.2c0,0,0,0,0,0l-0.5-2.7c1.5-0.3,2.5-1.7,2.3-3.2
			c-0.3-1.5-1.7-2.5-3.2-2.2l-0.5-2.7c1.5-0.2,2.5-1.6,2.2-3.1c0,0,0-0.1,0-0.1c-0.3-1.5-1.7-2.5-3.1-2.2c0,0,0,0,0,0l-0.4-2.7
			c1.5-0.3,2.5-1.7,2.2-3.2c-0.3-1.5-1.7-2.5-3.2-2.2l-0.8-4.5C17.2,79.5,21.8,73.1,20.6,66.2C20.6,66.3,20.6,66.2,20.6,66.2z"/>
		<path class="st7" d="M34.2,77.7L155.1,57c1.1,6.2,7,10.4,13.2,9.3l7.9,46.3c-6.2,1-10.4,6.9-9.4,13.1c0,0,0,0,0,0.1L46,146.5
			c-1.1-6.2-7-10.4-13.2-9.3l-7.9-46.3C31,89.8,35.2,84,34.2,77.7C34.2,77.7,34.2,77.7,34.2,77.7z"/>
		<path class="st8" d="M36.8,79.6l116.4-19.9c1.1,5.9,6.7,9.7,12.6,8.7l7.4,43.2c-5.9,0.9-10,6.4-9.1,12.4L47.8,143.8
			c-1.1-5.9-6.7-9.7-12.6-8.7L27.8,92C33.7,91.1,37.7,85.5,36.8,79.6z"/>
		<path class="st3" d="M57.1,18.4l137.1,75.3c-3.6,6.5-1.2,14.7,5.3,18.2c0,0,0,0,0,0l-2.4,4.3c-0.1-0.1-0.1-0.1-0.2-0.2
			c-1.4-0.8-3.2-0.2-4,1.2c-0.8,1.4-0.2,3.2,1.2,4c0,0.1,0.2,0.1,0.2,0.1l-1.5,2.6c-0.1,0-0.1-0.1-0.2-0.1c-1.4-0.8-3.2-0.2-4,1.2
			c-0.8,1.4-0.3,3.1,1.1,3.9c0,0,0,0,0.1,0c0.1,0.1,0.2,0.1,0.2,0.1l-1.4,2.6c-0.1,0-0.2,0-0.2-0.1c-1.4-0.8-3.2-0.2-4,1.2
			c-0.8,1.4-0.3,3.2,1.1,4c0,0,0,0,0,0c0.1,0,0.2,0,0.2,0.1l-1.4,2.6c0-0.1-0.2-0.1-0.2-0.1c-1.4-0.8-3.2-0.3-4,1.2
			c-0.8,1.4-0.3,3.2,1.2,4c0,0,0,0,0,0c0.1,0,0.1,0.1,0.2,0.1l-1.5,2.6c0-0.1-0.2-0.1-0.2-0.1c-1.4-0.8-3.2-0.2-4,1.2
			c-0.8,1.4-0.2,3.2,1.2,4c0.1,0,0.1,0.1,0.2,0.1l-1.5,2.6c0-0.1-0.1-0.1-0.2-0.1c-1.4-0.8-3.2-0.3-4,1.1c-0.8,1.4-0.3,3.2,1.1,4
			c0,0,0,0,0.1,0c0,0.1,0.1,0.1,0.2,0.1l-1.5,2.6c0-0.1-0.1-0.1-0.2-0.1c-1.4-0.8-3.2-0.3-4,1.1c0,0,0,0,0,0c-0.8,1.4-0.2,3.2,1.2,4
			c0.1,0.1,0.1,0.1,0.2,0.1l-1.5,2.6c0-0.1-0.1-0.1-0.1-0.1c-1.4-0.8-3.2-0.3-4,1.1s-0.3,3.2,1.1,4c0,0.1,0.2,0.1,0.2,0.1l-2.3,4.3
			c-6.5-3.6-14.6-1.3-18.2,5.2c0,0,0,0.1-0.1,0.1L6.9,109.8c3.6-6.5,1.2-14.7-5.3-18.2c0,0,0,0,0,0l2.4-4.3c1.4,0.8,3.2,0.3,4-1.1
			c0,0,0,0,0,0c0.8-1.4,0.2-3.2-1.2-4l1.5-2.6c1.4,0.8,3.2,0.3,4-1.1c0,0,0,0,0,0c0.8-1.4,0.2-3.2-1.2-4l1.4-2.6
			c1.4,0.8,3.2,0.2,4-1.2c0.8-1.4,0.3-3.1-1.1-3.9c0,0,0,0-0.1,0l1.4-2.6c1.4,0.8,3.2,0.2,4-1.2c0.8-1.4,0.3-3.2-1.1-4c0,0,0,0,0,0
			l1.4-2.6c1.4,0.8,3.2,0.2,4-1.2c0.8-1.4,0.3-3.2-1.1-4l1.4-2.6c1.4,0.8,3.2,0.2,4-1.2c0.8-1.4,0.2-3.2-1.2-4l0,0l1.5-2.6
			c1.4,0.8,3.2,0.3,4-1.1s0.3-3.2-1.1-4c0,0,0,0-0.1,0l1.5-2.6c1.4,0.8,3.2,0.3,4-1.1c0,0,0,0,0,0c0.8-1.4,0.2-3.2-1.2-4l2.3-4.3
			C45.3,27.3,53.4,25,57.1,18.4C57,18.5,57,18.4,57.1,18.4z"/>
		<path class="st9" d="M60.8,37.1l115.6,63.5c-3.3,6-1.1,13.4,4.9,16.7c0,0,0,0,0,0l-24.3,44.2c-5.9-3.3-13.4-1.1-16.7,4.9
			c0,0,0,0,0,0L24.7,102.9c3.3-6,1.1-13.4-4.9-16.7c0,0,0,0,0,0L44.1,42C50.1,45.3,57.5,43.1,60.8,37.1
			C60.8,37.1,60.8,37.1,60.8,37.1z"/>
		<path class="st3" d="M61.7,40.6L173,101.7c-3,5.7-0.9,12.7,4.8,15.7c0,0,0,0,0,0l-22.7,41.2c-5.6-3.1-12.7-1.2-15.9,4.4L28,101.9
			c3-5.7,0.9-12.7-4.8-15.7c0,0,0,0,0,0l22.7-41.2C51.5,48.1,58.5,46.1,61.7,40.6z"/>
		<path class="st9" d="M64.6,63.3l87.6,48.1c2.3,1.3,3.5,3.6,2.7,5.1l0,0c-0.9,1.6-3.4,1.8-5.7,0.5L61.5,68.9
			c-2.3-1.3-3.5-3.6-2.7-5.1l0,0C59.7,62.2,62.3,62,64.6,63.3z"/>
		<path class="st9" d="M57.7,74.6l75.5,41.5c1.9,0.8,2.8,2.9,2.1,4.8l0,0c-1.2,1.6-3.5,2-5.2,0.8L54.6,80.2
			c-1.9-0.8-2.8-2.9-2.1-4.8l0,0C53.7,73.8,56,73.4,57.7,74.6z"/>
		<path class="st9" d="M51.5,86.3l79,43.4c2.1,1.1,3.1,3.3,2.2,4.9l0,0c-0.9,1.6-3.2,1.9-5.3,0.7l-79-43.4c-2.1-1.1-3.1-3.3-2.2-4.9
			l0,0C47,85.4,49.4,85.1,51.5,86.3z"/>
		<polygon class="st10" points="16.3,115 16.7,117.5 82.6,154.1 86.3,153.4 		"/>
		<polygon class="st11" points="114.8,50.1 184.8,88.6 184.3,86 118.1,49.6 		"/>
	</g>
</g>
<g class="st0">
	<circle class="st1" cx="99.5" cy="101.5" r="96.8"/>
	<g class="st2">
		<g>
			<path class="st9" d="M132.9,87.5c-0.6,0.2-1.2-0.1-1.4-0.6c-5.1-13.2-17.9-22-32-22s-26.9,8.8-32,22c-0.2,0.6-0.8,0.8-1.4,0.6
				l-14.2-5c-0.6-0.2-0.9-0.8-0.7-1.4c7.6-20,26.8-33.4,48.3-33.4s40.7,13.4,48.3,33.4c0.2,0.6-0.1,1.2-0.7,1.4L132.9,87.5z"/>
		</g>
		<path class="st9" d="M118.3,90.7h32.1c0.4,0,0.7-0.3,0.7-0.7V57.9c0-0.6-0.7-0.9-1.2-0.5l-32.1,32.1
			C117.4,90,117.7,90.7,118.3,90.7z"/>
		<path class="st9" d="M80.9,112.3H48.4c-0.3,0-0.6,0.3-0.6,0.6v32.5c0,0.5,0.6,0.8,1,0.4l32.5-32.5
			C81.7,112.9,81.4,112.3,80.9,112.3z"/>
		<path class="st9" d="M99.5,153.9c-21.3,0-40.5-13.2-48.1-33.1c-0.3-0.7,0.1-1.6,0.9-1.8l13.6-4.8c0.7-0.3,1.5,0.1,1.8,0.8
			c5.2,13,17.9,21.7,31.9,21.7s26.7-8.6,31.9-21.7c0.3-0.7,1.1-1.1,1.8-0.8l13.6,4.8c0.7,0.3,1.1,1.1,0.9,1.8
			C140,140.6,120.8,153.9,99.5,153.9z"/>
	</g>
</g>
</svg>
