<?xml version="1.0" encoding="utf-8"?>
<!-- Generator: Adobe Illustrator 22.0.1, SVG Export Plug-In . SVG Version: 6.00 Build 0)  -->
<svg version="1.1" id="Layer_1" xmlns="http://www.w3.org/2000/svg" xmlns:xlink="http://www.w3.org/1999/xlink" x="0px" y="0px"
	 viewBox="0 0 200 200" style="enable-background:new 0 0 200 200;" xml:space="preserve">
<style type="text/css">
	.st0{display:none;}
	.st1{display:inline;fill:#1F8AC0;}
	.st2{display:inline;}
	.st3{fill:#1F8AC0;}
	.st4{display:inline;fill:#FFFFFF;}
	.st5{display:inline;opacity:0.2;fill:none;stroke:#1F8AC0;stroke-width:2;stroke-miterlimit:10;}
	.st6{display:inline;fill:none;}
	.st7{fill:#DEDEDE;}
	.st8{fill:#F2F2F2;}
	.st9{fill:#CFCFCF;}
	.st10{fill:#FFFFFF;}
	.st11{fill:#333333;fill-opacity:0.102;}
	.st12{fill:#4D4D4D;fill-opacity:0.102;}
</style>
<g class="st0">
	<path class="st1" d="M72.2,47.1c8,2.9,16.4,4.7,24.8,5.3V2c-4.8,0.2-9.5,0.7-14.2,1.6c-7.8,8.6-14.4,22.6-19.1,40
		c1,0.5,2.1,1,3.1,1.4C68.6,45.7,70.4,46.5,72.2,47.1z"/>
	<path class="st1" d="M57,40c3.8-13.4,8.7-24.9,14.6-33.6C59,10.3,47.4,16.6,37.5,24.9C43.3,30.8,49.9,35.9,57,40z"/>
	<path class="st1" d="M97,96.8V58.7c-9.1-0.6-18.2-2.5-26.8-5.6c-2-0.7-3.8-1.5-5.7-2.3c-0.8-0.3-1.6-0.7-2.4-1.1
		c-3.3,14.2-5.2,30.2-5.5,47.1H97z"/>
	<path class="st1" d="M71.1,193.6c-5.7-8.8-10.5-20.2-14.2-33.4c-7.1,4.1-13.6,9.2-19.4,15.1C47.1,183.3,58.4,189.6,71.1,193.6z"/>
	<path class="st1" d="M97,147.6c-10.4,0.7-20.5,3.2-30.1,7.4c-1.2,0.5-2.3,1-3.4,1.6c4.5,17,10.9,30.9,18.5,39.7
		c4.9,0.9,10,1.5,15,1.7V147.6z"/>
	<path class="st1" d="M166.8,27.7c-10.5-9.7-23.3-17.1-37.5-21.5c6.4,9.4,11.7,22,15.5,36.7C152.8,38.9,160.2,33.8,166.8,27.7z"/>
	<path class="st1" d="M128.9,49.1c1.9-0.5,3.8-1.2,5.7-1.8c1.1-0.4,2.2-0.8,3.3-1.3c-4.7-18.5-11.6-33.5-19.8-42.5
		c-4.8-0.9-9.6-1.4-14.4-1.5h-0.3v50.6C112,52.6,120.6,51.4,128.9,49.1z"/>
	<path class="st1" d="M136.9,53.1c-2,0.7-4,1.4-6,2c-8.9,2.5-18,3.8-27.2,3.8h-0.3v37.9h40.9c-0.2-15.9-2-31.1-4.9-44.6
		C138.6,52.5,137.8,52.9,136.9,53.1z"/>
	<path class="st1" d="M144.9,157.1c-3.7,14.5-8.8,26.9-15,36.3c14-4.4,26.4-11.7,36.8-21.2C160.2,166.2,152.9,161.1,144.9,157.1z"/>
	<path class="st1" d="M64.6,149.2c10.3-4.5,21.3-7.2,32.5-7.9v-38.1H56.7c0.2,16.9,2.1,33,5.3,47.2C62.9,150,63.7,149.6,64.6,149.2z
		"/>
	<path class="st1" d="M138.1,154.1c-1.1-0.4-2.2-0.9-3.3-1.3c-10-3.6-20.5-5.4-31.1-5.4h-0.3V198h0.3c5.1-0.2,10.3-0.8,15.3-1.7
		C126.9,187,133.6,172.2,138.1,154.1z"/>
	<path class="st1" d="M136.9,146.9c0.9,0.3,1.7,0.6,2.6,1c2.9-13.6,4.6-28.8,4.8-44.7h-40.9v37.9h0.3
		C115,141.1,126.2,143,136.9,146.9z"/>
	<g class="st2">
		<path class="st3" d="M151.6,96.8h46.6V97h0.2c-0.7-24.9-10.9-48-27.4-65.1V32h-0.1l0.3,0.3c-7.4,6.9-15.8,12.6-24.9,17
			C149.5,63.5,151.4,79.6,151.6,96.8z"/>
		<path class="st3" d="M170.9,168h0.2c16.5-17.1,26.6-40.1,27.4-65h-0.2v0.1h-46.6c-0.2,17.2-2,33.4-5.2,47.7
			c9,4.3,17.3,10,24.7,16.9L170.9,168z"/>
	</g>
	<g class="st2">
		<path class="st3" d="M33.2,171l-0.2-0.2c6.6-6.7,14.1-12.4,22.3-17c-3.6-15.1-5.7-32.3-5.9-50.7h-47c0.8,25.9,12,50.3,30.4,67.9
			H33.2z"/>
		<path class="st3" d="M37,174.8L37,174.8L37,174.8L37,174.8z"/>
	</g>
	<path class="st1" d="M32.9,29.2l0.2-0.2h-0.2C20.3,41,10.9,56.4,6,73.7c-2.1,7.7-3.3,15.5-3.6,23.1h46.9c0.2-18.4,2.4-35.5,6-50.5
		C47.2,41.7,39.6,36,32.9,29.2z"/>
</g>
<g class="st0">
	<path class="st1" d="M269.8,42.8c8,2.9,16.4,4.7,24.8,5.3V-2.3c-4.8,0.2-9.5,0.7-14.2,1.6c-7.8,8.6-14.4,22.6-19.1,40
		c1,0.5,2.1,1,3.1,1.4C266.2,41.4,268,42.2,269.8,42.8z"/>
	<path class="st1" d="M254.6,35.7c3.8-13.4,8.7-24.9,14.6-33.6C256.6,6,245,12.3,235.1,20.6C240.9,26.5,247.5,31.6,254.6,35.7z"/>
	<path class="st1" d="M294.6,92.5V54.4c-9.1-0.6-18.2-2.5-26.8-5.6c-2-0.7-3.8-1.5-5.7-2.3c-0.8-0.3-1.6-0.7-2.4-1.1
		c-3.3,14.2-5.2,30.2-5.5,47.1H294.6z"/>
	<path class="st1" d="M268.7,189.3c-5.7-8.8-10.5-20.2-14.2-33.4c-7.1,4.1-13.6,9.2-19.4,15.1C244.7,179,256,185.3,268.7,189.3z"/>
	<path class="st1" d="M294.6,143.3c-10.4,0.7-20.5,3.2-30.1,7.4c-1.2,0.5-2.3,1-3.4,1.6c4.5,17,10.9,30.9,18.5,39.7
		c4.9,0.9,10,1.5,15,1.7V143.3z"/>
	<path class="st1" d="M364.4,23.4c-10.5-9.7-23.3-17.1-37.5-21.5c6.4,9.4,11.7,22,15.5,36.7C350.4,34.6,357.8,29.5,364.4,23.4z"/>
	<path class="st1" d="M326.5,44.8c1.9-0.5,3.8-1.2,5.7-1.8c1.1-0.4,2.2-0.8,3.3-1.3c-4.7-18.5-11.6-33.5-19.8-42.5
		c-4.8-0.9-9.6-1.4-14.4-1.5H301v50.6C309.6,48.3,318.2,47.1,326.5,44.8z"/>
	<path class="st1" d="M334.5,48.8c-2,0.7-4,1.4-6,2c-8.9,2.5-18,3.8-27.2,3.8H301v37.9h40.9c-0.2-15.9-2-31.1-4.9-44.6
		C336.2,48.2,335.4,48.6,334.5,48.8z"/>
	<path class="st1" d="M342.5,152.8c-3.7,14.5-8.8,26.9-15,36.3c14-4.4,26.4-11.7,36.8-21.2C357.8,161.9,350.5,156.8,342.5,152.8z"/>
	<path class="st1" d="M262.2,144.9c10.3-4.5,21.3-7.2,32.5-7.9V98.9h-40.4c0.2,16.9,2.1,33,5.3,47.2
		C260.5,145.7,261.3,145.3,262.2,144.9z"/>
	<path class="st1" d="M335.7,149.8c-1.1-0.4-2.2-0.9-3.3-1.3c-10-3.6-20.5-5.4-31.1-5.4H301v50.6h0.3c5.1-0.2,10.3-0.8,15.3-1.7
		C324.5,182.7,331.2,167.9,335.7,149.8z"/>
	<path class="st1" d="M334.5,142.6c0.9,0.3,1.7,0.6,2.6,1c2.9-13.6,4.6-28.8,4.8-44.7H301v37.9h0.3
		C312.6,136.8,323.8,138.7,334.5,142.6z"/>
	<g class="st2">
		<path class="st3" d="M349.2,92.5h46.6v0.2h0.2c-0.7-24.9-10.9-48-27.4-65.1v0.1h-0.1l0.3,0.3c-7.4,6.9-15.8,12.6-24.9,17
			C347.1,59.2,349,75.3,349.2,92.5z"/>
		<path class="st3" d="M368.5,163.7h0.2c16.5-17.1,26.6-40.1,27.4-65h-0.2v0.1h-46.6c-0.2,17.2-2,33.4-5.2,47.7
			c9,4.3,17.3,10,24.7,16.9L368.5,163.7z"/>
	</g>
	<g class="st2">
		<path class="st3" d="M230.8,166.7l-0.2-0.2c6.6-6.7,14.1-12.4,22.3-17c-3.6-15.1-5.7-32.3-5.9-50.7h-47
			c0.8,25.9,12,50.3,30.4,67.9H230.8z"/>
		<path class="st3" d="M234.6,170.5L234.6,170.5L234.6,170.5L234.6,170.5z"/>
	</g>
	<path class="st1" d="M230.5,24.9l0.2-0.2h-0.2c-12.6,12-22,27.4-26.9,44.7c-2.1,7.7-3.3,15.5-3.6,23.1h46.9
		c0.2-18.4,2.4-35.5,6-50.5C244.8,37.4,237.2,31.7,230.5,24.9z"/>
</g>
<g class="st0">
	<title></title>
	<path class="st1" d="M100.7,25.6c-37.8,0-68.4,30.6-68.4,68.4c0,16.4,5.9,32.3,16.7,44.8L46,174.4l29.1-16.8
		c35.1,14.1,74.9-2.9,89-38c14.1-35.1-2.9-74.9-38-89C118.1,27.3,109.4,25.6,100.7,25.6L100.7,25.6z"/>
	<path class="st4" d="M86.1,84.9v-4.6H106l3.1,3.4v28.6c0,3.8,3.1,6.9,6.9,6.9h1.3v6.6H84.7v-6.5H86c3.8,0,6.9-3.1,6.9-6.9
		c0,0,0,0,0,0V89L86.1,84.9z"/>
	<circle class="st4" cx="97.9" cy="65" r="8.1"/>
	<line class="st5" x1="2" y1="95" x2="12.1" y2="95"/>
	<line class="st5" x1="13.4" y1="123.2" x2="21.1" y2="118.7"/>
	<line class="st5" x1="12.7" y1="68.3" x2="20.7" y2="72.7"/>
	<line class="st5" x1="198" y1="95" x2="187.9" y2="95"/>
	<line class="st5" x1="187.8" y1="68.3" x2="180.1" y2="72.7"/>
	<line class="st5" x1="188.5" y1="123.2" x2="180.6" y2="118.7"/>
	<path class="st6" d="M100.4,25.6C62.6,25.6,32,56.3,32,94.1c0,16.4,5.9,32.3,16.7,44.7l-2.9,35.6l29.1-16.8
		c35.1,14.1,74.9-2.9,89-37.9c14.1-35.1-2.9-74.9-37.9-89C117.9,27.3,109.2,25.6,100.4,25.6z"/>
	<path class="st6" d="M86.9,85.9v-5H106l3.1,3.3v28.2c0,3.8,3.1,6.9,6.9,6.9h1.2v8.1H84.8v-8.1h1.9c0,0,6.9-2,6.2-5.9V90L86.9,85.9z
		"/>
	<circle class="st6" cx="99" cy="64.7" r="8.1"/>
</g>
<g class="st0">
	<title></title>
	<g class="st2">
		<path class="st7" d="M18.8,71.7l138.1-31.9c1.5,6.6,8.1,10.6,14.6,9.1l1,4.4h-0.2c-1.4,0.3-2.3,1.8-2,3.2c0.3,1.4,1.8,2.3,3.2,2
			c0,0,0,0,0,0c0.1,0,0.1,0,0.2-0.1l0.6,2.6c-0.1,0-0.2,0.1-0.2,0.1c-1.4,0.3-2.4,1.7-2,3.2c0,0,0,0,0,0c0.4,1.4,1.8,2.3,3.2,2
			c0.1,0,0.2-0.1,0.2-0.1l0.6,2.6H176c-1.4,0.3-2.3,1.8-2,3.2c0.3,1.4,1.8,2.3,3.2,2c0,0,0,0,0,0c0.1,0,0.1,0,0.2-0.1l0.6,2.6
			c-0.1,0-0.2,0.1-0.2,0.1c-1.4,0.3-2.3,1.7-2,3.1s1.7,2.3,3.1,2c0,0,0,0,0.1,0c0.1,0,0.2-0.1,0.2-0.1l0.6,2.6c-0.1,0-0.1,0-0.2,0.1
			c-1.4,0.3-2.3,1.7-2,3.1c0,0,0,0.1,0,0.1c0.3,1.4,1.7,2.3,3.1,2c0,0,0.1,0,0.1,0c0.1,0,0.1,0,0.2-0.1l0.6,2.6
			c-0.1,0-0.2,0.1-0.2,0.1c-1.4,0.3-2.3,1.7-2,3.1c0.3,1.4,1.7,2.3,3.1,2c0,0,0,0,0.1,0c0.1,0,0.2-0.1,0.2-0.1l0.6,2.6
			c-0.1,0-0.1,0-0.2,0.1c-1.4,0.3-2.3,1.7-2,3.1c0,0,0,0.1,0,0.1c0.3,1.4,1.7,2.3,3.1,2c0,0,0.1,0,0.1,0c0.1,0,0.1,0,0.2-0.1
			l0.6,2.6c-0.1,0-0.1,0.1-0.2,0.1c-1.4,0.4-2.3,1.8-2,3.2c0.3,1.4,1.8,2.3,3.2,2c0.1,0,0.2-0.1,0.2-0.1l1,4.3
			c-6.5,1.5-10.6,8-9.1,14.6c0,0,0,0,0,0.1L40.1,163.8c-1.5-6.6-8.1-10.6-14.6-9.1l-1-4.4c1.4-0.3,2.3-1.7,2-3.1c0,0,0-0.1,0-0.1
			c-0.3-1.4-1.8-2.3-3.2-2l-0.6-2.6c1.4-0.3,2.3-1.8,2-3.2c-0.3-1.4-1.8-2.3-3.2-2l-0.6-2.6c1.4-0.3,2.3-1.7,2-3.1c0,0,0-0.1,0-0.1
			c-0.3-1.4-1.8-2.3-3.2-2l-0.6-2.6c1.4-0.3,2.3-1.8,2-3.2c-0.3-1.4-1.8-2.3-3.2-2l-0.6-2.6c1.4-0.3,2.3-1.7,2-3.1c0,0,0-0.1,0-0.1
			c-0.3-1.4-1.8-2.3-3.2-2c0,0,0,0,0,0l-0.6-2.6c1.4-0.3,2.3-1.8,2-3.2c-0.3-1.4-1.8-2.3-3.2-2l-0.6-2.6c1.4-0.3,2.3-1.7,2-3.1
			c0,0,0-0.1,0-0.1c-0.3-1.4-1.8-2.3-3.2-2c0,0,0,0,0,0l-0.6-2.6c1.4-0.4,2.3-1.8,2-3.2c-0.3-1.4-1.8-2.3-3.2-2l-1-4.3
			C16.2,84.8,20.3,78.3,18.8,71.7C18.8,71.7,18.8,71.7,18.8,71.7z"/>
		<path class="st8" d="M32.6,82.1l116.4-26.9c1.4,6,7.4,9.7,13.4,8.3l10.3,44.6c-6,1.4-9.7,7.3-8.4,13.3c0,0,0,0,0,0.1L48,148.4
			c-1.4-6-7.4-9.7-13.4-8.3L24.3,95.4C30.3,94.1,34,88.1,32.6,82.1C32.6,82.1,32.6,82.1,32.6,82.1z"/>
		<path class="st9" d="M35.3,83.8l112.1-25.9c1.4,5.6,7.1,9.1,12.7,7.7l9.6,41.6c-5.7,1.2-9.3,6.8-8.1,12.5L49.6,145.6
			c-1.4-5.6-7.1-9.1-12.7-7.7l-9.6-41.6C32.9,95.1,36.5,89.5,35.3,83.8z"/>
		<path class="st3" d="M51.6,23.1l137.6,65.6c-3.1,6.5-0.3,14.3,6.2,17.4c0,0,0,0,0,0l-2.1,4.4c-0.1-0.1-0.1-0.1-0.2-0.2
			c-1.4-0.7-3.1-0.1-3.8,1.4c-0.7,1.4-0.1,3.1,1.4,3.8c0.1,0.1,0.2,0.1,0.2,0.1l-1.3,2.6c-0.1,0-0.1-0.1-0.2-0.1
			c-1.4-0.7-3.1-0.1-3.8,1.4c-0.7,1.4-0.1,3.1,1.3,3.8c0,0,0,0,0.1,0c0.1,0.1,0.2,0.1,0.2,0.1l-1.2,2.6c-0.1,0-0.2,0-0.2-0.1
			c-1.4-0.7-3.1-0.1-3.8,1.4c-0.7,1.4-0.1,3.1,1.3,3.8c0,0,0,0,0,0c0.1,0,0.2,0,0.2,0.1l-1.2,2.6c-0.1-0.1-0.2-0.1-0.2-0.1
			c-1.4-0.7-3.1-0.1-3.8,1.4c-0.7,1.4-0.1,3.1,1.4,3.8c0,0,0,0,0,0c0.1,0,0.1,0.1,0.2,0.1l-1.3,2.6c-0.1-0.1-0.2-0.1-0.2-0.1
			c-1.4-0.7-3.1-0.1-3.8,1.4c-0.7,1.4-0.1,3.1,1.4,3.8c0.1,0,0.1,0.1,0.2,0.1l-1.3,2.6c0-0.1-0.1-0.1-0.2-0.1
			c-1.4-0.7-3.1-0.1-3.8,1.3c-0.7,1.4-0.1,3.1,1.3,3.8c0,0,0,0,0.1,0c0,0.1,0.1,0.1,0.2,0.1l-1.3,2.6c0-0.1-0.1-0.1-0.2-0.1
			c-1.4-0.7-3.1-0.1-3.8,1.3c0,0,0,0,0,0c-0.7,1.4-0.1,3.1,1.4,3.8c0.1,0.1,0.1,0.1,0.2,0.1l-1.3,2.6c-0.1-0.1-0.1-0.1-0.2-0.1
			c-1.4-0.7-3.1-0.1-3.8,1.3s-0.1,3.1,1.3,3.8c0.1,0.1,0.2,0.1,0.2,0.1l-2,4.3c-6.5-3.1-14.3-0.4-17.4,6.1c0,0,0,0.1,0,0.1
			L7.9,114.9c3.1-6.5,0.4-14.3-6.2-17.4c0,0,0,0,0,0L3.8,93c1.4,0.7,3.1,0.1,3.8-1.3c0,0,0,0,0,0c0.7-1.4,0.1-3.1-1.4-3.8l1.3-2.6
			c1.4,0.7,3.1,0.1,3.8-1.3c0,0,0,0,0,0c0.7-1.4,0.1-3.1-1.4-3.8l1.2-2.6c1.4,0.7,3.1,0.1,3.8-1.4c0.7-1.4,0.1-3.1-1.3-3.8
			c0,0,0,0-0.1,0l1.2-2.6c1.4,0.7,3.1,0.1,3.8-1.4c0.7-1.4,0.1-3.1-1.3-3.8c0,0,0,0,0,0l1.2-2.6c1.4,0.7,3.1,0,3.8-1.4
			c0.7-1.4,0.1-3.1-1.3-3.8l1.2-2.6c1.4,0.7,3.1,0.1,3.8-1.4c0.7-1.4,0.1-3.1-1.4-3.8l0,0l1.3-2.6c1.4,0.7,3.1,0.1,3.8-1.3
			c0.7-1.4,0.1-3.1-1.3-3.8c0,0,0,0-0.1,0l1.3-2.6c1.4,0.7,3.1,0.1,3.8-1.3c0,0,0,0,0,0c0.7-1.4,0.1-3.1-1.4-3.8l2-4.3
			C40.6,32.4,48.4,29.7,51.6,23.1C51.5,23.2,51.6,23.1,51.6,23.1z"/>
		<path class="st10" d="M56.2,41.1l116,55.3c-2.8,6-0.3,13.1,5.7,16c0,0,0,0,0,0l-21.2,44.4c-6-2.8-13.1-0.3-15.9,5.7c0,0,0,0,0,0
			l-116-55.3c2.8-6,0.3-13.1-5.7-16c0,0,0,0,0,0l21.2-44.4C46.3,49.6,53.4,47.1,56.2,41.1C56.2,41.1,56.2,41.1,56.2,41.1z"/>
		<path class="st3" d="M57.4,44.4L169,97.6c-2.6,5.7-0.1,12.4,5.5,15c0,0,0,0,0,0L154.8,154c-5.6-2.7-12.4-0.5-15.2,5.1L28,105.9
			c2.6-5.7,0.1-12.4-5.5-15c0,0,0,0,0,0l19.7-41.4C47.8,52.3,54.6,50,57.4,44.4z"/>
		<path class="st10" d="M61.4,66.3l87.9,41.9c2.3,1.1,3.6,3.3,2.9,4.8l0,0c-0.7,1.6-3.2,1.9-5.6,0.8L58.8,72
			c-2.3-1.1-3.6-3.3-2.9-4.8l0,0C56.6,65.6,59.1,65.2,61.4,66.3z"/>
		<path class="st10" d="M55.3,77.7l75.8,36.1c1.9,0.6,2.9,2.7,2.3,4.5l0,0c-1.1,1.6-3.3,2.1-5,1.1L52.6,83.3
			c-1.9-0.6-2.9-2.7-2.3-4.5l0,0C51.4,77.2,53.6,76.7,55.3,77.7z"/>
		<path class="st10" d="M49.9,89.4l79.3,37.8c2.1,1,3.2,3.1,2.5,4.6l0,0c-0.7,1.6-3,2-5.1,1L47.3,95.1c-2.1-1-3.2-3.1-2.5-4.6l0,0
			C45.5,88.9,47.8,88.4,49.9,89.4z"/>
		<polygon class="st11" points="17.3,119.3 17.9,121.8 84,153.6 87.6,152.8 		"/>
		<polygon class="st12" points="109.5,50.7 179.7,84.2 179.2,81.8 112.7,50 		"/>
	</g>
</g>
<g>
	<circle class="st3" cx="99.5" cy="101.5" r="96.8"/>
	<g>
		<g>
			<path class="st10" d="M132.9,87.5c-0.6,0.2-1.2-0.1-1.4-0.6c-5.1-13.2-17.9-22-32-22s-26.9,8.8-32,22c-0.2,0.6-0.8,0.8-1.4,0.6
				l-14.2-5c-0.6-0.2-0.9-0.8-0.7-1.4c7.6-20,26.8-33.4,48.3-33.4s40.7,13.4,48.3,33.4c0.2,0.6-0.1,1.2-0.7,1.4L132.9,87.5z"/>
		</g>
		<path class="st10" d="M118.3,90.7h32.1c0.4,0,0.7-0.3,0.7-0.7V57.9c0-0.6-0.7-0.9-1.2-0.5l-32.1,32.1
			C117.4,90,117.7,90.7,118.3,90.7z"/>
		<path class="st10" d="M80.9,112.3H48.4c-0.3,0-0.6,0.3-0.6,0.6v32.5c0,0.5,0.6,0.8,1,0.4l32.5-32.5
			C81.7,112.9,81.4,112.3,80.9,112.3z"/>
		<path class="st10" d="M99.5,153.9c-21.3,0-40.5-13.2-48.1-33.1c-0.3-0.7,0.1-1.6,0.9-1.8l13.6-4.8c0.7-0.3,1.5,0.1,1.8,0.8
			c5.2,13,17.9,21.7,31.9,21.7s26.7-8.6,31.9-21.7c0.3-0.7,1.1-1.1,1.8-0.8l13.6,4.8c0.7,0.3,1.1,1.1,0.9,1.8
			C140,140.6,120.8,153.9,99.5,153.9z"/>
	</g>
</g>
</svg>
