<?xml version="1.0" encoding="utf-8"?>
<!-- Generator: Adobe Illustrator 23.0.5, SVG Export Plug-In . SVG Version: 6.00 Build 0)  -->
<svg version="1.1" id="Layer_1" xmlns="http://www.w3.org/2000/svg" xmlns:xlink="http://www.w3.org/1999/xlink" x="0px" y="0px"
	 viewBox="0 0 50 50" enable-background="new 0 0 50 50" xml:space="preserve">
<g display="none">
	<path display="inline" fill-rule="evenodd" clip-rule="evenodd" fill="#D3E6F8" d="M46.2,28.5c0,10.3-8.3,18.6-18.6,18.6
		C17.3,47.1,9,38.7,9,28.5C9,18.2,17.3,9.8,27.6,9.8C37.9,9.8,46.2,18.2,46.2,28.5z"/>
	<g display="inline">
		<path fill="#1E89C0" d="M25,49.4C25,49.4,25,49.4,25,49.4C11.6,49.4,0.6,38.5,0.6,25C0.6,11.6,11.5,0.6,25,0.6c0,0,0,0,0,0
			c13.4,0,24.4,10.9,24.4,24.4C49.4,38.4,38.5,49.4,25,49.4z M25,44.7L25,44.7c1.9,0,5.3-6.6,5.8-17.4H19.2
			C19.7,38.2,23.1,44.7,25,44.7z M35.4,27.3c-0.2,6.1-1.4,11.9-3.3,16.1c6.7-2.6,11.7-8.7,12.5-16.1H35.4z M5.4,27.3
			c0.9,7.4,5.8,13.5,12.5,16.1c-2-4.2-3.1-10.1-3.3-16.1H5.4z M35.4,22.7h9.2c-0.9-7.4-5.8-13.5-12.5-16.1
			C34.1,10.7,35.2,16.6,35.4,22.7z M19.2,22.7h11.5C30.3,11.8,26.9,5.3,25,5.3h0C23.1,5.3,19.7,11.8,19.2,22.7z M5.4,22.7h9.2
			c0.2-6,1.4-11.9,3.3-16.1C11.2,9.2,6.3,15.3,5.4,22.7z"/>
	</g>
</g>
<g display="none">
	<g display="inline">
		<g>
			<path fill="#D3E6F8" d="M44.6,39.2H9.5c-1.5,0-2.8-1.2-2.8-2.8l0-18.3c0-1.5,1.2-2.8,2.8-2.8h35.1c1.5,0,2.8,1.2,2.8,2.8v18.3
				C47.3,38,46.1,39.2,44.6,39.2z"/>
		</g>
		<g>
			<path fill="#1E89C0" d="M44.9,41.1H5.1c-2.4,0-4.3-1.9-4.3-4.3v-9.1c0-2.4,1.9-4.3,4.3-4.3h39.8c2.4,0,4.3,1.9,4.3,4.3v9.1
				C49.2,39.2,47.3,41.1,44.9,41.1z M5.1,27.2c-0.3,0-0.5,0.2-0.5,0.5v9.1c0,0.3,0.2,0.5,0.5,0.5h39.8c0.3,0,0.5-0.2,0.5-0.5v-9.1
				c0-0.3-0.2-0.5-0.5-0.5H5.1z"/>
		</g>
		<g>
			<circle fill="#1E89C0" cx="10.3" cy="32.3" r="2.9"/>
		</g>
	</g>
	<g display="inline">
		<g>
			<line fill="#E8677D" x1="44.9" y1="39.2" x2="40.9" y2="39.2"/>
			<path fill="#E8677D" d="M47.3,41.6"/>
		</g>
		<g>
			<path fill="#4C4372" d="M10.3,43.2"/>
		</g>
	</g>
	<g display="inline">
		<g>
			<path fill="#1E89C0" d="M44.9,27.2H5.1c-2.4,0-4.3-1.9-4.3-4.3v-9.1c0-2.4,1.9-4.3,4.3-4.3h39.8c2.4,0,4.3,1.9,4.3,4.3v9.1
				C49.2,25.3,47.3,27.2,44.9,27.2z M5.1,13.3c-0.3,0-0.5,0.2-0.5,0.5v9.1c0,0.3,0.2,0.5,0.5,0.5h39.8c0.3,0,0.5-0.2,0.5-0.5v-9.1
				c0-0.3-0.2-0.5-0.5-0.5H5.1z"/>
		</g>
		<g>
			<circle fill="#1E89C0" cx="10.3" cy="18.4" r="2.9"/>
		</g>
	</g>
	<g display="inline">
		<path fill="#1E89C0" d="M39.4,20.3H20.9c-1,0-1.9-0.9-1.9-1.9s0.9-1.9,1.9-1.9h18.5c1,0,1.9,0.9,1.9,1.9S40.5,20.3,39.4,20.3z"/>
	</g>
	<g display="inline">
		<path fill="#1E89C0" d="M39.4,34.2H20.9c-1,0-1.9-0.9-1.9-1.9s0.9-1.9,1.9-1.9h18.5c1,0,1.9,0.9,1.9,1.9S40.5,34.2,39.4,34.2z"/>
	</g>
</g>
<g>
	<path fill="#D3E6F8" d="M39.3,48.5H15.7c-0.6,0-1.1-0.5-1.1-1.1V8.3c0-0.6,0.5-1.1,1.1-1.1h23.6c0.6,0,1.1,0.5,1.1,1.1v39.1
		C40.4,48,39.9,48.5,39.3,48.5z"/>
	<g>
		<g>
			<circle fill="#1E89C0" cx="25.2" cy="40.5" r="2.9"/>
		</g>
		<g>
			<rect x="14.1" y="7.9" fill="#FFFFFF" width="22.1" height="5.6"/>
		</g>
		<g>
			<rect x="14.1" y="19.1" fill="#FFFFFF" width="22.1" height="5.6"/>
		</g>
		<g>
			<rect x="30.5" y="7.9" fill="#D3E6F8" width="5.7" height="5.6"/>
		</g>
		<g>
			<rect x="30.5" y="19.1" fill="#D3E6F8" width="5.7" height="5.6"/>
		</g>
		<g>
			<path fill="#1E89C0" d="M39.2,49.6H11.1c-1.7,0-3-1.4-3-3V3.6c0-1.7,1.4-3,3-3h28.1c1.7,0,3,1.4,3,3v42.9
				C42.2,48.2,40.9,49.6,39.2,49.6z M11.1,3.5C11.1,3.5,11,3.6,11.1,3.5l-0.1,43c0,0,0,0.1,0.1,0.1h28.1c0,0,0.1,0,0.1-0.1V3.6
				c0,0,0-0.1-0.1-0.1H11.1z"/>
		</g>
		<g>
			<path fill="#1E89C0" d="M36.2,14.9H14.1c-0.8,0-1.5-0.7-1.5-1.5V7.9c0-0.8,0.7-1.5,1.5-1.5h22.1c0.8,0,1.5,0.7,1.5,1.5v5.6
				C37.7,14.2,37,14.9,36.2,14.9z M15.6,11.9h19.2V9.4H15.6V11.9z"/>
		</g>
		<g>
			<path fill="#1E89C0" d="M36.2,26.1H14.1c-0.8,0-1.5-0.7-1.5-1.5v-5.6c0-0.8,0.7-1.5,1.5-1.5h22.1c0.8,0,1.5,0.7,1.5,1.5v5.6
				C37.7,25.5,37,26.1,36.2,26.1z M15.6,23.2h19.2v-2.6H15.6V23.2z"/>
		</g>
	</g>
</g>
</svg>
