<?xml version="1.0" encoding="utf-8"?>
<!-- Generator: Adobe Illustrator 23.0.5, SVG Export Plug-In . SVG Version: 6.00 Build 0)  -->
<svg version="1.1" id="Layer_1" xmlns="http://www.w3.org/2000/svg" xmlns:xlink="http://www.w3.org/1999/xlink" x="0px" y="0px"
	 viewBox="0 0 50 50" style="enable-background:new 0 0 50 50;" xml:space="preserve">
<style type="text/css">
	.st0{display:none;}
	.st1{display:inline;fill-rule:evenodd;clip-rule:evenodd;fill:#D3E6F8;}
	.st2{display:inline;}
	.st3{fill:#1E89C0;}
	.st4{fill:#D3E6F8;}
	.st5{fill:#FFFFFF;}
	.st6{display:inline;fill:#1E89C0;}
	.st7{display:inline;fill-rule:evenodd;clip-rule:evenodd;fill:#81D2E7;}
	.st8{fill:#1E89C0;stroke:#1E89C0;stroke-width:0.25;stroke-miterlimit:10;}
	.st9{display:inline;fill:#D3E6F8;}
	.st10{fill:none;stroke:#1E89C0;stroke-miterlimit:10;}
	.st11{fill-rule:evenodd;clip-rule:evenodd;fill:#83E5AD;}
	.st12{fill:#F7BB52;}
	.st13{fill:#1F8AC0;}
	.st14{fill:#FDFEFF;}
	.st15{display:inline;fill:#F7BB52;}
	.st16{display:inline;fill:#494949;}
	.st17{fill:#EF8874;}
</style>
<g class="st0">
	<path class="st1" d="M46.2,28.5c0,10.3-8.3,18.6-18.6,18.6S9,38.7,9,28.5C9,18.2,17.3,9.8,27.6,9.8S46.2,18.2,46.2,28.5z"/>
	<g class="st2">
		<path class="st3" d="M25,49.4L25,49.4C11.6,49.4,0.6,38.5,0.6,25C0.6,11.6,11.5,0.6,25,0.6l0,0c13.4,0,24.4,10.9,24.4,24.4
			C49.4,38.4,38.5,49.4,25,49.4z M25,44.7L25,44.7c1.9,0,5.3-6.6,5.8-17.4H19.2C19.7,38.2,23.1,44.7,25,44.7z M35.4,27.3
			c-0.2,6.1-1.4,11.9-3.3,16.1c6.7-2.6,11.7-8.7,12.5-16.1C44.6,27.3,35.4,27.3,35.4,27.3z M5.4,27.3c0.9,7.4,5.8,13.5,12.5,16.1
			c-2-4.2-3.1-10.1-3.3-16.1C14.6,27.3,5.4,27.3,5.4,27.3z M35.4,22.7h9.2c-0.9-7.4-5.8-13.5-12.5-16.1
			C34.1,10.7,35.2,16.6,35.4,22.7z M19.2,22.7h11.5C30.3,11.8,26.9,5.3,25,5.3l0,0C23.1,5.3,19.7,11.8,19.2,22.7z M5.4,22.7h9.2
			c0.2-6,1.4-11.9,3.3-16.1C11.2,9.2,6.3,15.3,5.4,22.7z"/>
	</g>
</g>
<g id="Servers" class="st0">
	<g class="st2">
		<g>
			<g>
				<g>
					<path class="st4" d="M16.3,41.2h-10c-2.5,0-4.5-2-4.5-4.5V17.6c0-2.5,2-4.5,4.5-4.5h10c2.5,0,4.5,2,4.5,4.5v19.1
						C20.8,39.2,18.8,41.2,16.3,41.2z"/>
				</g>
				<g>
					<circle class="st3" cx="11.3" cy="36.5" r="1.8"/>
				</g>
				<g>
					<rect x="4.5" y="16.7" class="st5" width="13.5" height="3.4"/>
				</g>
				<g>
					<rect x="4.5" y="23.5" class="st5" width="13.5" height="3.4"/>
				</g>
				<g>
					<rect x="14.5" y="16.7" class="st4" width="3.5" height="3.4"/>
				</g>
				<g>
					<rect x="14.5" y="23.5" class="st4" width="3.5" height="3.4"/>
				</g>
				<g>
					<path class="st3" d="M19.8,42.1H2.7c-1,0-1.9-0.8-1.9-1.9V14.1c0-1,0.8-1.9,1.9-1.9h17.1c1,0,1.9,0.8,1.9,1.9v26.2
						C21.7,41.3,20.9,42.1,19.8,42.1z M2.7,14C2.7,14,2.7,14.1,2.7,14v26.2c0,0,0,0.1,0.1,0.1h17.1c0,0,0.1,0,0.1-0.1V14.1
						c0,0,0-0.1-0.1-0.1H2.7z"/>
				</g>
				<g>
					<path class="st3" d="M18,21H4.5c-0.5,0-0.9-0.4-0.9-0.9v-3.4c0-0.5,0.4-0.9,0.9-0.9H18c0.5,0,0.9,0.4,0.9,0.9v3.4
						C18.9,20.6,18.5,21,18,21z M5.4,19.2h11.7v-1.6H5.4V19.2z"/>
				</g>
				<g>
					<path class="st3" d="M18,27.8H4.5c-0.5,0-0.9-0.4-0.9-0.9v-3.4c0-0.5,0.4-0.9,0.9-0.9H18c0.5,0,0.9,0.4,0.9,0.9v3.4
						C18.9,27.4,18.5,27.8,18,27.8z M5.4,26h11.7v-1.6H5.4V26z"/>
				</g>
			</g>
			<g>
				<g>
					<path class="st4" d="M43.2,41.2h-10c-2.5,0-4.5-2-4.5-4.5V17.6c0-2.5,2-4.5,4.5-4.5h10c2.5,0,4.5,2,4.5,4.5v19.1
						C47.7,39.2,45.7,41.2,43.2,41.2z"/>
				</g>
				<g>
					<circle class="st3" cx="38.1" cy="36.5" r="1.8"/>
				</g>
				<g>
					<rect x="31.4" y="16.7" class="st5" width="13.5" height="3.4"/>
				</g>
				<g>
					<rect x="31.4" y="23.5" class="st5" width="13.5" height="3.4"/>
				</g>
				<g>
					<rect x="41.4" y="16.7" class="st4" width="3.5" height="3.4"/>
				</g>
				<g>
					<rect x="41.4" y="23.5" class="st4" width="3.5" height="3.4"/>
				</g>
				<g>
					<path class="st3" d="M46.7,42.1H29.6c-1,0-1.9-0.8-1.9-1.9V14.1c0-1,0.8-1.9,1.9-1.9h17.1c1,0,1.9,0.8,1.9,1.9v26.2
						C48.6,41.3,47.7,42.1,46.7,42.1z M29.6,14C29.6,14,29.5,14.1,29.6,14l-0.1,26.2c0,0,0,0.1,0.1,0.1h17.1c0,0,0.1,0,0.1-0.1V14.1
						c0,0,0-0.1-0.1-0.1H29.6z"/>
				</g>
				<g>
					<path class="st3" d="M44.9,21H31.4c-0.5,0-0.9-0.4-0.9-0.9v-3.4c0-0.5,0.4-0.9,0.9-0.9h13.5c0.5,0,0.9,0.4,0.9,0.9v3.4
						C45.8,20.6,45.4,21,44.9,21z M32.3,19.2H44v-1.6H32.3V19.2z"/>
				</g>
				<g>
					<path class="st3" d="M44.9,27.8H31.4c-0.5,0-0.9-0.4-0.9-0.9v-3.4c0-0.5,0.4-0.9,0.9-0.9h13.5c0.5,0,0.9,0.4,0.9,0.9v3.4
						C45.8,27.4,45.4,27.8,44.9,27.8z M32.3,26H44v-1.6H32.3V26z"/>
				</g>
			</g>
		</g>
		<g>
			<g>
				<path class="st4" d="M35.8,41.7H15.5c-0.9,0-1.6-0.7-1.6-1.6V10.7c0-1,0.8-1.9,1.9-1.9h18.7c0.7,0,1.4,0.6,1.4,1.4v31.6
					L35.8,41.7L35.8,41.7z"/>
			</g>
			<g>
				<circle class="st3" cx="24.7" cy="35.5" r="2.2"/>
			</g>
			<g>
				<rect x="16.4" y="11.1" class="st5" width="16.6" height="4.2"/>
			</g>
			<g>
				<rect x="16.4" y="19.5" class="st5" width="16.6" height="4.2"/>
			</g>
			<g>
				<rect x="28.7" y="11.1" class="st4" width="4.3" height="4.2"/>
			</g>
			<g>
				<rect x="28.7" y="19.5" class="st4" width="4.3" height="4.2"/>
			</g>
			<g>
				<path class="st3" d="M35.2,42.1h-21c-1.1,0-2.1-0.9-2.1-2.1V7.9c0-1.1,0.9-2.1,2.1-2.1h21.1c1.1,0,2.1,0.9,2.1,2.1V40
					C37.3,41.2,36.4,42.1,35.2,42.1z M14.2,7.6c-0.1,0-0.3,0.1-0.3,0.3V40c0,0.1,0.1,0.3,0.3,0.3h21.1c0.1,0,0.3-0.1,0.3-0.3V7.9
					c0-0.1-0.1-0.3-0.3-0.3H14.2z"/>
			</g>
			<g>
				<path class="st3" d="M33,16.1H16.4c-0.5,0-0.9-0.4-0.9-0.9V11c0-0.5,0.4-0.9,0.9-0.9H33c0.5,0,0.9,0.4,0.9,0.9v4.2
					C33.9,15.7,33.5,16.1,33,16.1z M17.3,14.3h14.8V12H17.3V14.3z"/>
			</g>
			<g>
				<path class="st3" d="M33,24.5H16.4c-0.5,0-0.9-0.4-0.9-0.9v-4.2c0-0.5,0.4-0.9,0.9-0.9H33c0.5,0,0.9,0.4,0.9,0.9v4.2
					C33.9,24.1,33.5,24.5,33,24.5z M17.3,22.7h14.8v-2.4H17.3V22.7z"/>
			</g>
		</g>
	</g>
</g>
<g class="st0">
	<polygon class="st6" points="0.4,5.1 49.6,2.2 20.7,17 	"/>
	<polygon class="st6" points="33.7,49.2 49.5,2.5 27.6,26.5 	"/>
</g>
<g class="st0">
	<path class="st7" d="M39.4,38.5h-8.6c-1.5,0-2.7-0.9-2.7-2.1v-2.5c0-1.2,1.2-2.1,2.7-2.1h8.6c1.5,0,2.7,0.9,2.7,2.1v2.5
		C42.2,37.6,40.9,38.5,39.4,38.5L39.4,38.5z M39.4,25.4h-8.6c-1.5,0-2.7-0.9-2.7-2.1v-2.5c0-1.2,1.2-2.1,2.7-2.1h8.6
		c1.5,0,2.7,0.9,2.7,2.1v2.5C42.2,24.5,40.9,25.4,39.4,25.4L39.4,25.4z M39.4,11.3h-8.6c-1.5,0-2.7-0.9-2.7-2.1V6.7
		c0-1.2,1.2-2.1,2.7-2.1h8.6c1.5,0,2.7,0.9,2.7,2.1v2.5C42.2,10.4,40.9,11.3,39.4,11.3z"/>
	<g class="st2">
		<path class="st3" d="M23.4,49c-1,0-1.9-0.9-1.9-2c-0.9,0-6.2,0-7.1,0c-1.3,0-1.3-2,0-2c0.9,0,6.2,0,7.1,0c0.1-1.1,0.9-2,1.9-2h1.1
			v-4H10.9c-1.7,0-3.1-1.4-3.1-3.1v-4.5c0-1.7,1.4-3.1,3.1-3.1s11.9,0,13.6,0v-2H10.9c-1.7,0-3.1-1.4-3.1-3.1v-4.5
			c0-1.7,1.4-3.1,3.1-3.1h13.6c0-0.3,0-2.9,0-4c0-0.6,0.5-1,1-1h14.6c0.6,0,1-0.5,1-1V5.1c0-0.6-0.5-1-1-1H10.9c-0.6,0-1,0.5-1,1
			v4.5c0,0.6,0.5,1,1,1h10.6c1.3,0,1.3,2,0,2H10.9c-1.7,0-3.1-1.4-3.1-3.1V5.1C7.8,3.4,9.2,2,10.9,2h29.2c1.7,0,3.1,1.4,3.1,3.1v4.5
			c0,1.7-1.4,3.1-3.1,3.1H26.5c0,0.6,0,2.8,0,3h13.6c1.7,0,3.1,1.4,3.1,3.1v4.5c0,1.7-1.4,3.1-3.1,3.1H26.5v2c1.7,0,11.9,0,13.6,0
			c1.7,0,3.1,1.4,3.1,3.1V36c0,1.7-1.4,3.1-3.1,3.1H26.5v4h1.6c1,0,1.9,0.9,1.9,2h6.6c1.3,0,1.3,2,0,2H30c0,0.6-0.3,1.1-0.6,1.5
			C28.7,49.2,28.4,49,23.4,49z M28.1,47L28.1,47L28.1,47z M23.5,47H28c0-0.1,0-1.9,0-2c-1.7,0-2.8,0-4.5,0
			C23.5,45.1,23.5,46.9,23.5,47z M23.4,45L23.4,45L23.4,45z M40.1,36.9c0.6,0,1-0.5,1-1v-4.5c0-0.6-0.5-1-1-1H10.9c-0.6,0-1,0.5-1,1
			v4.5c0,0.6,0.5,1,1,1C14,36.9,37,36.9,40.1,36.9z M40.1,24.3c0.6,0,1-0.5,1-1v-4.5c0-0.6-0.5-1-1-1H10.9c-0.6,0-1,0.5-1,1v4.5
			c0,0.6,0.5,1,1,1C14,24.3,37,24.3,40.1,24.3z M36.6,34.9h-0.5c-1.3,0-1.3-2,0-2h0.5c0.6,0,1,0.5,1,1S37.2,34.9,36.6,34.9z
			 M12.9,34.9h-0.5c-1.3,0-1.3-2,0-2h0.5c0.6,0,1,0.5,1,1S13.4,34.9,12.9,34.9z M36.6,21.3h-0.5c-1.3,0-1.3-2,0-2h0.5
			c0.6,0,1,0.5,1,1S37.2,21.3,36.6,21.3z M12.9,21.3h-0.5c-1.3,0-1.3-2,0-2h0.5c0.6,0,1,0.5,1,1S13.4,21.3,12.9,21.3z M36.6,8.1
			h-0.5c-1.3,0-1.3-2,0-2h0.5c0.6,0,1,0.5,1,1S37.2,8.1,36.6,8.1z M12.9,8.1h-0.5c-1.3,0-1.3-2,0-2h0.5c0.6,0,1,0.5,1,1
			S13.4,8.1,12.9,8.1z"/>
	</g>
</g>
<g class="st0">
	<g class="st2">
		<path class="st4" d="M39.8,48.3H15.4c-0.6,0-1.1-0.5-1.1-1.1V6.9c0-0.6,0.5-1.1,1.1-1.1h24.4c0.6,0,1.1,0.5,1.1,1.1v40.4
			C40.9,47.8,40.4,48.3,39.8,48.3z"/>
		<g>
			<g>
				<circle class="st3" cx="25.4" cy="40.6" r="2.8"/>
			</g>
			<g>
				<rect x="14.8" y="20.2" class="st5" width="21.2" height="5.3"/>
			</g>
			<g>
				<rect x="14.8" y="9.4" class="st5" width="21.2" height="5.3"/>
			</g>
			<g>
				<rect x="30.5" y="9.4" class="st4" width="5.5" height="5.3"/>
			</g>
			<g>
				<rect x="30.5" y="20.2" class="st4" width="5.5" height="5.3"/>
			</g>
			<g>
				<path class="st3" d="M38.8,49.4H11.9c-1.6,0-2.9-1.4-2.9-3V5.3c0-1.6,1.3-2.9,2.9-2.9h26.9c1.6,0,2.9,1.3,2.9,2.9v41.1
					C41.7,48,40.4,49.4,38.8,49.4z M11.9,5.2C11.9,5.2,11.8,5.3,11.9,5.2l-0.1,41.2c0,0,0,0.1,0.1,0.1h26.9c0,0,0.1,0,0.1-0.1V5.3
					c0,0,0-0.1-0.1-0.1C38.8,5.2,11.9,5.2,11.9,5.2z"/>
			</g>
			<g>
				<path class="st3" d="M36,16.1H14.8c-0.8,0-1.4-0.6-1.4-1.4V9.4C13.4,8.6,14,8,14.8,8H36c0.8,0,1.4,0.6,1.4,1.4v5.3
					C37.4,15.5,36.8,16.1,36,16.1z M16.2,13.3h18.4v-2.5H16.2V13.3z"/>
			</g>
			<g>
				<path class="st3" d="M36,26.9H14.8c-0.8,0-1.4-0.6-1.4-1.4v-5.3c0-0.8,0.6-1.4,1.4-1.4H36c0.8,0,1.4,0.6,1.4,1.4v5.3
					C37.4,26.3,36.8,26.9,36,26.9z M16.2,24.1h18.4v-2.5H16.2V24.1z"/>
			</g>
		</g>
	</g>
	<g class="st2">
		<g>
			<g>
				<path class="st3" d="M39.2,49.5H11.5c-1.7,0-3-1.3-3-3V4.2c0-1.7,1.3-3,3-3h27.7c1.7,0,3,1.3,3,3v42.3
					C42.2,48.1,40.9,49.5,39.2,49.5z M11.5,4.1C11.5,4.1,11.4,4.2,11.5,4.1l-0.1,42.4c0,0,0,0.1,0.1,0.1h27.7c0,0,0.1,0,0.1-0.1V4.2
					c0,0,0-0.1-0.1-0.1H11.5z"/>
			</g>
		</g>
	</g>
</g>
<g class="st0">
	<g class="st2">
		<path class="st4" d="M40.6,38.6H15.1c-0.4,0-0.7-0.3-0.7-0.7v-6.2c0-0.4,0.3-0.7,0.7-0.7h25.5c0.4,0,0.7,0.3,0.7,0.7v6.2
			C41.3,38.3,41,38.6,40.6,38.6z"/>
		<path class="st4" d="M40.6,25.1H15.1c-0.4,0-0.7-0.3-0.7-0.7v-5.8c0-0.4,0.3-0.7,0.7-0.7h25.5c0.4,0,0.7,0.3,0.7,0.7v5.8
			C41.3,24.8,41,25.1,40.6,25.1z"/>
		<path class="st4" d="M40.6,10.5H15.1c-0.4,0-0.7-0.3-0.7-0.7V4.7c0-0.4,0.3-0.7,0.7-0.7h25.5c0.4,0,0.7,0.3,0.7,0.7v5.1
			C41.3,10.2,41,10.5,40.6,10.5z"/>
	</g>
	<g class="st2">
		<g>
			<path class="st8" d="M22.9,49.2c-1.1,0-1.9-0.9-2-2.1c-0.9,0-6.3,0-7.2,0c-1.4,0-1.4-2.1,0-2.1c0.9,0,6.3,0,7.2,0
				c0.1-1.2,1-2.1,2-2.1H24v-4.1H10.1c-1.7,0-3.1-1.4-3.1-3.1v-4.6c0-1.7,1.4-3.1,3.1-3.1s12.2,0,13.9,0v-2H10.1
				C8.4,26,7,24.6,7,22.9v-4.6c0-1.7,1.4-3.1,3.1-3.1H24c0-0.3,0-2.9,0-4.1c0-0.6,0.5-1,1-1h14.9c0.6,0,1.1-0.5,1.1-1.1V4.3
				c0-0.6-0.5-1.1-1.1-1.1H10.1C9.5,3.3,9,3.8,9,4.3v4.6C9,9.5,9.5,10,10.1,10h10.8c1.4,0,1.4,2.1,0,2.1H10.1C8.4,12.1,7,10.7,7,9
				V4.3c0-1.7,1.4-3.1,3.1-3.1H40c1.7,0,3.1,1.4,3.1,3.1v4.6c0,1.7-1.4,3.1-3.1,3.1H26c0,0.6,0,2.8,0,3.1h13.9
				c1.7,0,3.1,1.4,3.1,3.1v4.6c0,1.7-1.4,3.1-3.1,3.1H26V28c1.7,0,12.2,0,13.9,0s3.1,1.4,3.1,3.1v4.6c0,1.7-1.4,3.1-3.1,3.1H26V43
				h1.6c1.1,0,1.9,0.9,2,2.1h6.7c1.4,0,1.4,2.1,0,2.1h-6.7c0,0.6-0.3,1.1-0.7,1.5C28.3,49.4,28,49.2,22.9,49.2z M27.7,47.1
				L27.7,47.1L27.7,47.1z M23,47.1h4.6c0-0.1,0-2,0-2.1c-1.7,0-2.8,0-4.6,0C22.9,45.2,22.9,47,23,47.1z M22.9,45.1L22.9,45.1
				L22.9,45.1z M39.9,36.8c0.6,0,1.1-0.5,1.1-1.1v-4.6c0-0.6-0.5-1.1-1.1-1.1H10.1C9.5,30,9,30.5,9,31.1v4.6c0,0.6,0.5,1.1,1.1,1.1
				C13.2,36.8,36.8,36.8,39.9,36.8z M39.9,23.9c0.6,0,1.1-0.5,1.1-1.1v-4.6c0-0.6-0.5-1.1-1.1-1.1H10.1c-0.6,0-1.1,0.5-1.1,1.1v4.6
				c0,0.6,0.5,1.1,1.1,1.1C13.2,23.9,36.8,23.9,39.9,23.9z M36.4,34.8h-0.5c-1.4,0-1.4-2.1,0-2.1h0.5c0.6,0,1,0.5,1,1
				C37.4,34.3,36.9,34.8,36.4,34.8z M12.1,34.8h-0.5c-1.4,0-1.4-2.1,0-2.1h0.5c0.6,0,1,0.5,1,1C13.1,34.3,12.7,34.8,12.1,34.8z
				 M36.4,20.8h-0.5c-1.4,0-1.4-2.1,0-2.1h0.5c0.6,0,1,0.5,1,1S36.9,20.8,36.4,20.8z M12.1,20.8h-0.5c-1.4,0-1.4-2.1,0-2.1h0.5
				c0.6,0,1,0.5,1,1S12.7,20.8,12.1,20.8z M36.4,7.4h-0.5c-1.4,0-1.4-2.1,0-2.1h0.5c0.6,0,1,0.5,1,1S36.9,7.4,36.4,7.4z M12.1,7.4
				h-0.5c-1.4,0-1.4-2.1,0-2.1h0.5c0.6,0,1,0.5,1,1S12.7,7.4,12.1,7.4z"/>
		</g>
	</g>
</g>
<g class="st0">
	<path class="st1" d="M38.7,45.9H16.3c-2.1,0-3.8-1.7-3.8-3.8V28c0-2.1,1.7-3.8,3.8-3.8h22.4c2.1,0,3.8,1.7,3.8,3.8v14
		C42.5,44.1,40.8,45.9,38.7,45.9z"/>
	<g class="st2">
		<path class="st3" d="M37.9,48H12.2c-3.7,0-6.7-3-6.7-6.7V24c0-3.7,3-6.7,6.7-6.7H38c3.7,0,6.7,3,6.7,6.7v17.3
			C44.6,45,41.6,48,37.9,48z M12.2,21.5c-1.4,0-2.5,1.1-2.5,2.5v17.3c0,1.4,1.1,2.5,2.5,2.5H38c1.4,0,2.5-1.1,2.5-2.5V24
			c0-1.4-1.1-2.5-2.5-2.5H12.2z M22.4,34.2v-2.1c0-1.2,0.9-2.1,2.1-2.1s2.1,0.9,2.1,2.1v2.1C26.6,37,22.4,37,22.4,34.2z M34,15.1v-2
			c0-4.7-3.8-8.5-8.5-8.5S17,8.4,17,13.1v2c0,2.8-4.2,2.8-4.2,0v-2c0-7,5.7-12.7,12.7-12.7s12.7,5.7,12.7,12.7v2
			C38.3,17.9,34,17.9,34,15.1z"/>
	</g>
</g>
<g class="st0">
	<polygon class="st9" points="33.8,46.9 47.6,6.1 28.7,26.7 	"/>
	<polygon class="st9" points="2.1,5.1 44.4,2.5 20.8,15.3 	"/>
	<g class="st2">
		<path class="st10" d="M0.7,4.7l48.7-2.9c0,0,0,0,0,0.1L20.6,16.6l0,0L0.7,4.9C0.6,4.9,0.6,4.7,0.7,4.7z"/>
		<path class="st10" d="M33.7,48.6L49.4,2.2l0,0l-21.8,24l0,0l6.1,22.5C33.6,48.7,33.7,48.7,33.7,48.6z"/>
	</g>
</g>
<g class="st0">
	<g class="st2">
		<g>
			<g>
				<circle class="st3" cx="16.7" cy="37.1" r="2.6"/>
			</g>
			<g>
				<rect x="7" y="8.6" class="st5" width="19.4" height="4.9"/>
			</g>
			<g>
				<rect x="7" y="18.4" class="st5" width="19.4" height="4.9"/>
			</g>
			<g>
				<rect x="21.4" y="8.6" class="st4" width="5" height="4.9"/>
			</g>
			<g>
				<rect x="21.4" y="18.4" class="st4" width="5" height="4.9"/>
			</g>
			<g>
				<path class="st3" d="M29,45.1H4.4c-1.5,0-2.7-1.2-2.7-2.7V4.9c0-1.5,1.2-2.7,2.7-2.7H29c1.5,0,2.7,1.2,2.7,2.7v37.5
					C31.7,43.9,30.5,45.1,29,45.1z M4.4,4.8L4.4,4.8v37.6c0,0,0,0.1,0.1,0.1H29c0,0,0.1,0,0.1-0.1V4.9c0,0,0-0.1-0.1-0.1H4.4z"/>
			</g>
			<g>
				<path class="st3" d="M26.4,14.8H7c-0.7,0-1.3-0.6-1.3-1.3V8.6c0-0.7,0.6-1.3,1.3-1.3h19.4c0.7,0,1.3,0.6,1.3,1.3v4.9
					C27.7,14.2,27.1,14.8,26.4,14.8z M8.3,12.2h16.8V9.9H8.3V12.2z"/>
			</g>
			<g>
				<path class="st3" d="M26.4,24.6H7c-0.7,0-1.3-0.6-1.3-1.3v-4.9c0-0.7,0.6-1.3,1.3-1.3h19.4c0.7,0,1.3,0.6,1.3,1.3v4.9
					C27.7,24,27.1,24.6,26.4,24.6z M8.3,22h16.8v-2.3H8.3V22z"/>
			</g>
		</g>
	</g>
	<g class="st2">
		<g>
			<g>
				<path class="st3" d="M29.4,45.2H4.1c-1.5,0-2.7-1.2-2.7-2.7V3.9c0-1.5,1.2-2.7,2.7-2.7h25.3c1.5,0,2.7,1.2,2.7,2.7v38.6
					C32.1,44,30.9,45.2,29.4,45.2z M4.1,3.8C4,3.8,4,3.8,4.1,3.8L4,42.5c0,0,0,0.1,0.1,0.1h25.3c0,0,0.1,0,0.1-0.1V3.9
					c0,0,0-0.1-0.1-0.1C29.4,3.8,4.1,3.8,4.1,3.8z"/>
			</g>
		</g>
	</g>
	<g class="st2">
		<path class="st11" d="M47.2,38.4c0,6.1-5,11-11.2,11s-11.2-4.9-11.2-11s5-11,11.2-11C42.1,27.4,47.2,32.3,47.2,38.4z"/>
		<g>
			<path class="st3" d="M34.4,49.8L34.4,49.8c-7.8,0-14.1-6.2-14.1-13.8s6.3-13.8,14.1-13.8l0,0c7.8,0,14.1,6.2,14.1,13.8
				C48.6,43.6,42.2,49.8,34.4,49.8z M34.4,47.2L34.4,47.2c1.1,0,3.1-3.7,3.3-9.9H31C31.4,43.5,33.3,47.2,34.4,47.2z M40.5,37.3
				c-0.1,3.4-0.8,6.8-1.9,9.1c3.9-1.5,6.8-5,7.3-9.1C45.9,37.3,40.5,37.3,40.5,37.3z M23.1,37.3c0.5,4.2,3.4,7.7,7.3,9.1
				c-1.1-2.4-1.8-5.7-1.9-9.1C28.5,37.3,23.1,37.3,23.1,37.3z M40.5,34.7h5.3c-0.5-4.2-3.4-7.7-7.3-9.1
				C39.7,27.9,40.3,31.2,40.5,34.7z M31.1,34.7h6.7c-0.3-6.2-2.2-9.9-3.3-9.9l0,0C33.3,24.8,31.4,28.5,31.1,34.7z M23.1,34.7h5.3
				c0.1-3.4,0.8-6.8,1.9-9.1C26.5,27,23.6,30.5,23.1,34.7z"/>
		</g>
	</g>
</g>
<g class="st0">
	<g class="st2">
		<path class="st12" d="M6.7,41.1c0.4-1.7-0.2-3.7-1.1-5.3c0-0.1,0.1,0,0.1-0.1c0.2,0,0.4,0,0.8,0h0.3c1.2,0,2.9,0.1,4.5-0.7
			c0.3-0.2,0.6-0.3,0.8-0.4c0.1,0.3,0.2,0.7,0.3,1c0.5,1.8,1.3,4.3,3.2,6.5c1.4,1.6,1.8,3.1,1.7,3.9c0,0.1,0,0.1,0,0.2l0,0
			C17,46.7,16.6,47,16,47.1h-0.1c-0.6,0-1.1,0-1.7-0.2l0,0c-0.3-0.1-0.6-0.2-1-0.4s-0.7-0.4-1.1-0.6c-1.5-0.8-3.1-1.6-4.7-2
			l-0.8-0.2c-0.3-0.1-0.7-0.2-1-0.3c0.3-0.3,0.5-0.7,0.7-1.1C6.5,41.9,6.6,41.5,6.7,41.1L6.7,41.1z"/>
		<g>
			<polyline class="st5" points="12.1,35.5 17.9,17.1 21,15.5 27.4,14.8 30.9,17.6 32.2,23.3 35.3,28.1 33.8,35.5 33.3,39 30.2,44 
				23,45.7 18,45 14.2,39.8 11.3,30.1 11.2,28.9 			"/>
			<g>
				<g>
					<g>
						<path class="st13" d="M32.3,49.7c-1.8,0-3.4-1-4.2-2.6c0,0,0,0,0-0.1c-0.8,0-1.6-0.1-2.3-0.2c-0.6-0.1-1.1-0.2-1.6-0.2
							c-0.1,0-0.2,0-0.3,0c-1,0.1-1.8,0.2-2.5,0.4c-0.5,0.1-0.9,0.2-1.3,0.2c-0.6,0.9-1.5,1.5-2.7,1.8c-0.4,0.1-0.9,0.2-1.4,0.2
							c-1.3,0-2.9-0.4-4.4-1.2c-1-0.5-2.3-0.6-3.4-0.8C7.6,47.1,7,47.1,6.5,47c-1.2-0.3-2.1-0.8-2.5-1.7c-0.5-0.9-0.4-2.1,0.2-3.7
							c0.1-0.2,0-0.8-0.1-1.3v-0.1V40c-0.1-0.8-0.2-1.7,0.3-2.6c0.6-1.1,1.5-1.6,2.2-1.8c0.1,0,0.2-0.1,0.4-0.2
							c0.4-0.2,0.6-0.2,0.8-0.4s0.3-0.4,0.5-0.7c0.2-0.2,0.4-0.5,0.6-0.8c-0.1-1.5,0.1-3,0.6-4.8c1.2-3.5,3.6-6.9,5.4-9.1
							c1.4-1.9,1.7-3.3,1.9-5.4c0-0.4,0-1-0.1-1.7C16.3,9,15.8,1.7,23.6,1.1c0.4,0,0.7,0,1,0c2.3,0,4.1,0.7,5.4,2
							c2.7,2.7,2.6,7.3,2.5,10.4V14c0,2.3,1.2,3.9,2.7,5.7l0.1,0.2c1.3,1.6,3.3,4.1,4.4,7.1c0.9,2.6,1.1,4.9,0.6,7.1
							c0,0,0.1,0.1,0.2,0.2c0.9,0.8,1.1,1.9,1.3,2.6c0.1,0.4,0.2,1.1,0.4,1.3c1.2,1.4,1.7,2.4,1.7,3.4s-0.6,1.8-1.7,2.5
							c-0.4,0.2-0.9,0.5-1.3,0.7c-1.1,0.6-2.3,1.1-3,2c-1.4,1.7-3.3,2.7-5.1,2.9C32.6,49.7,32.5,49.7,32.3,49.7z M30.6,46.1
							c0.4,0.7,1,1,1.7,1c0.1,0,0.2,0,0.2,0c1.1-0.1,2.3-0.8,3.3-2c1.1-1.3,2.7-2.1,3.9-2.7c0.4-0.2,0.8-0.4,1.1-0.6
							c0.3-0.2,0.4-0.3,0.5-0.4c0-0.2-0.2-0.6-1-1.5c-0.6-0.7-0.8-1.6-1-2.3v-0.2c-0.2-0.6-0.3-0.9-0.4-1C38.5,36.2,38,36,37.8,36
							c-0.8,0.8-2.2,1.5-3.5,1.5c-0.2,0-0.4,0-0.7-0.1c-0.8-0.2-1.5-0.7-1.9-1.4c-0.2,0.7-0.2,1.7-0.3,2.7v0.6c0,1-0.3,2.1-0.6,3.1
							c-0.1,0.3-0.2,0.6-0.2,0.8c-0.3,1-0.3,1.6-0.3,2h0.3C30.6,45.2,30.6,46.1,30.6,46.1z M9,37.3c-0.5,0.4-1.1,0.6-1.5,0.7
							c-0.1,0-0.2,0-0.3,0.1c-0.5,0.2-0.6,0.3-0.8,0.5c0,0.1-0.1,0.3,0,1.2V40c0.1,0.8,0.3,1.6,0,2.5C6,43.7,6.1,44,6.1,44
							s0.2,0.2,0.7,0.3c0.4,0.1,0.9,0.2,1.5,0.2c1.3,0.2,2.9,0.3,4.4,1.1c1.1,0.6,2.2,0.9,3.2,0.9c0.3,0,0.6,0,0.8-0.1
							c0.9-0.2,1.3-0.7,1.4-1.6c0-0.3-0.2-1-1.2-2.3c-0.2-0.3-0.5-0.6-0.8-1c-0.6-0.8-1.3-1.6-1.7-2.4l-0.1-0.2l0,0
							c-0.4-0.9-1-2.1-1.5-2.8c-0.6-0.8-1-1-1.3-1h-0.1l0,0l0,0c-0.1,0-0.2,0-0.5,0.3l0,0c-0.2,0.2-0.4,0.4-0.6,0.7
							C10,36.4,9.8,36.7,9.5,37l-0.3,0.3H9L9,37.3z M19.6,41.9c1.1,0.7,2.4,1.1,3.7,1.1c1.7,0,3.5-0.6,5-1.7
							c0.2-0.8,0.4-1.6,0.5-2.1c0.1-1.2,0.2-2.7,0.4-3.8c0.4-1.5,1-2.4,2-2.9c0.2-0.7,0.6-1.2,1.2-1.6c-0.4-1.8-1-3.6-2-5.4
							c-0.9-1.8-2.2-4.8-3-7.4c-0.4,0.2-0.8,0.4-1.2,0.5l0,0c-0.2,0-0.4,0.2-0.6,0.4c-0.2,0.1-0.4,0.2-0.6,0.4
							c-0.8,0.5-1.7,0.7-2.5,0.7c-0.1,0-0.2,0-0.2,0c-0.8,0-1.6-0.3-2.3-0.8c-0.1-0.1-0.2-0.2-0.3-0.2c-0.5,2.5-1.8,5.2-2.7,7.3
							c-0.2,0.6-0.5,1-0.7,1.5c-0.7,1.9-1.1,3.6-1.2,5.2v0.7c0.1,0.1,0.2,0.2,0.4,0.3c1.7,1,2.9,2.1,3.7,3.2
							c0.8,1.1,1.2,2.2,0.8,3.2c-0.1,0.4-0.4,0.8-0.8,1C19.4,41.5,19.5,41.7,19.6,41.9z M33.8,33.1L33.8,33.1L33.8,33.1
							c-0.1,0.7,0.2,1.4,0.4,1.5l0,0c0.4,0,1.1-0.5,1.2-0.7c-0.1-0.1-0.3-0.2-0.8-0.5C34.1,33.1,33.9,33.1,33.8,33.1z M21.5,17.3
							c0.2,0.2,0.5,0.3,0.9,0.3c0.1,0,0.2,0,0.3,0c0.4,0,0.7-0.1,1.1-0.4c0.2-0.1,0.4-0.2,0.5-0.3c0.4-0.2,0.8-0.5,1.2-0.6
							c0.8-0.3,1.3-0.7,1.4-1l0,0l0,0l0,0c0,0-0.1-0.1-0.4-0.2c-0.4-0.2-0.7-0.3-1-0.4c-0.4-0.2-0.8-0.3-1.2-0.6
							c-0.7-0.4-1.2-0.6-1.8-0.6c-0.2,0-0.4,0-0.6,0.1c-0.5,0.2-0.9,0.5-1.2,0.8l-0.1,0.1c-0.1,0.1-0.2,0.2-0.3,0.2
							c0,0-0.1,0.1-0.2,0.1l0,0l0,0c-0.1,0-0.2,0.2-0.4,0.2c-0.2,0.1-0.3,0.2-0.5,0.4l0,0c0,0.1,0.2,0.4,0.8,0.8
							c0.5,0.3,0.8,0.6,1.2,0.9L21.5,17.3z"/>
						<path class="st14" d="M24.8,2.2c7.3,0,6.9,7.7,6.9,11.9c0,2.7,1.5,4.6,3,6.5c1.4,1.7,3.2,4,4.2,6.8c0.8,2.2,1.2,4.7,0.3,7.2
							c0.2,0.1,0.5,0.2,0.7,0.4c0.6,0.5,0.8,1.3,1,2.1c0.2,0.7,0.3,1.4,0.6,1.8c1,1.1,1.5,2,1.4,2.7c0,0.7-0.6,1.2-1.2,1.7
							c-1.4,0.8-3.4,1.5-4.6,2.9L36.9,46l0.2,0.2c-1.3,1.5-2.9,2.4-4.4,2.5c-0.1,0-0.2,0-0.3,0c-1.4,0-2.6-0.7-3.3-2.1
							c-0.1-0.2-0.2-0.4-0.2-0.6c-0.2,0-0.4,0-0.5,0c-1.5,0-2.9-0.4-4.1-0.4c-0.1,0-0.2,0-0.4,0c-2,0.1-3.3,0.6-4.4,0.6
							c-0.4,1-1.3,1.6-2.3,1.8c-0.4,0.1-0.8,0.1-1.2,0.1c-1.2,0-2.5-0.4-3.9-1c-1.7-0.9-3.8-0.8-5.4-1.1c-0.8-0.2-1.5-0.5-1.8-1.1
							C4.5,44.2,4.5,43.3,5,42c0.2-0.5,0-1.2-0.1-1.9c-0.1-0.8-0.2-1.5,0.2-2.2c0.4-0.8,1.1-1.1,1.7-1.3s1.1-0.4,1.5-0.8
							c0.4-0.4,0.8-1.1,1.3-1.6c0-0.1,0.1-0.1,0.2-0.2c-0.2-1.6,0-3.2,0.6-4.8c1.1-3.4,3.5-6.7,5.3-8.8c1.5-2.1,1.9-3.7,2.1-5.9
							c0.1-2.9-2.1-11.6,6.2-12.3C24.2,2.2,24.5,2.2,24.8,2.2 M24.6,12.5c0-0.2,0-0.3,0-0.5l0,0c0-0.3,0-0.6,0.2-0.8
							c0.1-0.2,0.2-0.4,0.4-0.6c0.2-0.1,0.3-0.2,0.5-0.2l0,0c0.2,0,0.4,0.1,0.5,0.2c0.2,0.2,0.3,0.3,0.4,0.6s0.1,0.5,0.1,0.8l0,0
							c0,0.3,0,0.6-0.2,0.8c-0.1,0.2-0.2,0.3-0.2,0.4c0.3,0.1,0.6,0.2,1,0.4c0,0,0.1,0,0.2,0.1c0.2-0.2,0.3-0.4,0.4-0.7
							c0.2-0.5,0.3-0.9,0.3-1.5l0,0c0-0.6-0.1-1-0.3-1.5c-0.2-0.5-0.5-0.8-0.8-1.1c-0.4-0.3-0.7-0.4-1.1-0.4l0,0
							c-0.4,0-0.8,0.1-1.1,0.4c-0.4,0.3-0.6,0.6-0.8,1.1s-0.3,0.9-0.3,1.5l0,0c0,0.2,0,0.3,0,0.4C23.8,12.2,24.2,12.3,24.6,12.5
							 M19.4,13.8c0.1-0.1,0.2-0.2,0.2-0.2c0.1-0.1,0.2-0.1,0.3-0.2c0,0,0,0-0.1,0c-0.1-0.1-0.2-0.3-0.3-0.5
							c-0.1-0.2-0.1-0.4-0.2-0.6l0,0c0-0.2,0-0.4,0-0.7c0-0.2,0.1-0.4,0.2-0.5s0.2-0.2,0.4-0.2l0,0c0.1,0,0.2,0,0.4,0.2
							c0.1,0.1,0.2,0.3,0.3,0.5c0.1,0.2,0.1,0.4,0.2,0.6l0,0c0,0.2,0,0.4,0,0.5c0.2-0.2,0.5-0.3,0.8-0.4c0,0,0.1,0,0.2,0
							c0-0.2,0-0.4,0-0.6c0-0.5-0.1-0.9-0.3-1.3c-0.2-0.4-0.4-0.7-0.7-0.9C20.6,9.1,20.4,9,20.1,9c0,0,0,0-0.1,0
							c-0.3,0-0.6,0.2-0.8,0.4c-0.2,0.3-0.4,0.6-0.6,1s-0.2,0.8-0.1,1.2c0,0.5,0.2,0.9,0.3,1.3C19,13.3,19.1,13.6,19.4,13.8
							 M22.5,19.1c0,0-0.1,0-0.2,0c-0.8,0-1.3-0.3-1.7-0.6c-0.4-0.3-0.7-0.7-1.1-0.9c-0.2-0.1-0.5-0.3-0.6-0.4
							c-0.2,3.4-2.5,7.7-3.6,10.2c-0.7,1.8-1.2,3.7-1.2,5.6c-2-2.7-0.5-6,0.2-7.5c0.8-1.4,1-1.9,0.8-1.9l0,0c-0.8,1.2-2,3.3-2.5,5.4
							c-0.2,1.1-0.3,2.2,0,3.2s1,1.9,2.2,2.7c1.7,1,2.8,2,3.5,2.9s0.9,1.7,0.7,2.3c-0.1,0.3-0.3,0.5-0.6,0.6
							c-0.2,0.1-0.5,0.2-0.9,0.2c0.2,0.2,0.4,0.4,0.5,0.7c0.3,0.4,0.5,0.7,0.8,1.1c1.4,1,2.9,1.4,4.4,1.4c1.3,0,2.6-0.3,3.8-0.8
							c1.5-0.6,2.5-2,2.7-3.6c0-0.1,0-0.2,0-0.2c0.1-1.4,0.2-2.6,0.4-3.6s0.7-1.9,1.5-2.3c0.1,0,0.3-0.1,0.4-0.2c0-0.1,0-0.2,0-0.2
							c0.2-1,0.7-1.4,1.5-1.4c0.5,0,1.2,0.2,1.9,0.5c1.7,0.8,2.3,1.5,2.1,2.4l0,0c0.1,0,0.2,0,0.4,0c0.4-1.2-0.4-2-2.4-3
							c-0.1,0-0.3-0.1-0.4-0.2c0.3-1.1,0.2-2.2,0-3.2c-0.5-2.3-2.1-4.4-3.2-5.4c-0.2,0-0.2,0.2,0.2,0.6c1.1,1,3.4,4.5,2.1,7.7
							c-0.4-0.1-0.7-0.1-1-0.1c-0.5-2.7-1.6-4.8-2.1-5.9c-1-2-2.7-6-3.4-8.7c-0.4,0.6-1.1,1.1-2,1.4c-0.4,0.1-0.9,0.5-1.5,0.8
							C24,18.8,23.3,19.1,22.5,19.1 M34.2,35.6c0.8,0,1.9-0.8,2.1-1.3c0.4-0.8,0-1.2-1.3-1.9c-0.5-0.2-0.9-0.3-1.3-0.3
							c-0.6,0-0.9,0.3-1,1c-0.2,1,0.3,2.3,1.2,2.5C34,35.6,34.1,35.6,34.2,35.6 M29.5,46.3l0.1,0.2l0.1,0.1c0.8,1.1,1.4,1.5,2.6,1.5
							c0.1,0,0.2,0,0.3,0c1.3-0.1,2.7-0.9,3.9-2.3c1.4-1.7,3.5-2.3,4.8-3c0.6-0.4,0.9-0.7,1-1.2c0-0.4-0.3-1.2-1.2-2.2
							c-0.5-0.6-0.6-1.3-0.8-2.1c-0.2-0.7-0.4-1.4-0.8-1.7l0,0c0,0-1-0.5-1.7-0.5c-0.1,0-0.3,0-0.4,0c-0.6,0.7-1.9,1.5-3,1.5
							c-0.2,0-0.3,0-0.4,0c-1-0.2-1.7-1.5-1.7-2.7c0,0,0,0-0.1,0c-0.6,0.3-1,1-1.2,1.9s-0.3,2.1-0.4,3.5c0,1-0.5,2.4-0.8,3.7
							C29.3,44.3,29.1,45.6,29.5,46.3 M15.9,47.6c0.4,0,0.7,0,1-0.1c1.2-0.3,2.1-1.1,2.2-2.5c0,0,0,0,0,0.1l0,0c0,0,0,0,0-0.1l0,0
							c0-0.8-0.6-1.9-1.5-2.9c-0.8-1.1-1.9-2.2-2.3-3.2l0,0c-0.6-1.2-1.1-2.4-1.7-3.2c-0.6-0.8-1.2-1.3-1.9-1.5c-0.1,0-0.2,0-0.3,0
							c-0.5,0-0.9,0.2-1.2,0.6c-0.4,0.4-0.8,1-1.3,1.5l-0.2,0.1c-0.5,0.5-1.2,0.7-1.8,0.9s-1,0.4-1.3,1c-0.2,0.4-0.2,1.1-0.1,1.8
							s0.3,1.5,0,2.2c-0.4,1.2-0.4,2-0.2,2.4c0.2,0.4,0.7,0.6,1.4,0.8c1.4,0.3,3.7,0.2,5.6,1.2C13.4,47.2,14.7,47.6,15.9,47.6
							 M24.8,0.2c-0.3,0-0.7,0-1.1,0c-4.8,0.4-6.7,3.1-7.5,5.3c-0.8,2.4-0.7,5.1-0.6,7.1c0,0.6,0.1,1.2,0.1,1.5
							c-0.1,1.8-0.4,3-1.7,4.7C12.1,21,9.6,24.4,8.4,28c-0.6,1.7-0.8,3.2-0.7,4.7c-0.2,0.2-0.3,0.4-0.4,0.5
							c-0.2,0.2-0.3,0.4-0.4,0.5c-0.1,0-0.3,0.1-0.4,0.2c-0.1,0-0.2,0.1-0.4,0.2c-0.6,0.2-2,0.7-2.8,2.3c-0.6,1.1-0.5,2.3-0.4,3.1
							v0.2l0,0l0,0l0,0C2.9,40,3,40.4,3,40.6c-0.4,1.1-0.8,2.8-0.1,4.2c0.4,0.8,1.2,1.7,3.2,2.2c0.6,0.1,1.2,0.2,1.8,0.2
							c1.1,0.1,2.3,0.2,3.1,0.7l0,0l0,0c1.7,0.8,3.3,1.3,4.8,1.3c0.6,0,1.1-0.1,1.7-0.2c1.2-0.3,2.3-0.9,3-1.8c0.3,0,0.6-0.1,1-0.2
							c0.7-0.1,1.5-0.3,2.4-0.3l0,0l0,0c0.1,0,0.1,0,0.2,0c0.4,0,0.9,0.1,1.5,0.2c0.6,0.1,1.2,0.2,1.9,0.2c1,1.7,2.8,2.7,4.9,2.7
							c0.2,0,0.3,0,0.5,0c1.5-0.1,3-0.8,4.4-1.8l0.2,0.1l1.3-1.5l0,0c0.6-0.7,1.7-1.2,2.7-1.7c0.5-0.2,1-0.5,1.4-0.7
							c1.8-1,2.2-2.3,2.3-3.2c0.1-1.6-0.9-3-1.9-4c-0.1-0.2-0.2-0.7-0.2-0.9c-0.2-0.7-0.4-1.9-1.4-2.8c0.4-2.1,0.2-4.5-0.7-6.9l0,0
							l0,0c-1.2-3-3.1-5.5-4.6-7.2L36.3,19c-1.4-1.7-2.5-3.1-2.5-5v-0.5c0-3.2,0.1-8-2.8-10.9C29.3,1,27.3,0.2,24.8,0.2L24.8,0.2z
							 M26.5,19.6L26.5,19.6L26.5,19.6c0.1,0,0.2,0,0.3-0.1c0.8,2.4,1.9,4.9,2.7,6.4c0.8,1.5,1.4,3,1.8,4.5
							c-0.4,0.4-0.7,0.8-0.9,1.3c-1,0.7-1.8,1.9-2.1,3.4c-0.3,1.2-0.4,2.7-0.4,4c0,0.3-0.2,0.9-0.3,1.5c-1.3,0.8-2.8,1.3-4.2,1.3
							c-0.9,0-1.8-0.2-2.7-0.6c0.1-0.2,0.2-0.4,0.3-0.7c0.4-1.2,0.1-2.7-1-4.1c-0.9-1.2-2.2-2.3-3.9-3.4V33c0-1.5,0.4-3.1,1.1-4.9
							c0.2-0.4,0.4-0.9,0.6-1.5c0.8-1.7,1.8-3.9,2.5-6.1c0.6,0.3,1.2,0.4,1.9,0.5c0.1,0,0.2,0,0.3,0c1,0,2.1-0.3,3-0.8
							c0.2-0.1,0.4-0.2,0.6-0.4C26.3,19.8,26.5,19.7,26.5,19.6L26.5,19.6z M9.3,38.3l0.3-0.2l0.6-0.4c0.3-0.3,0.6-0.7,0.8-1
							c0.2-0.2,0.3-0.4,0.4-0.5c0.1,0.1,0.3,0.2,0.5,0.6l0,0l0,0c0.5,0.6,0.9,1.6,1.3,2.4v0.1l0.2,0.4c0.4,0.9,1.1,1.8,1.8,2.6
							c0.2,0.3,0.5,0.6,0.7,0.9l0,0l0,0c0.8,1,1,1.5,1,1.7c0,0.3-0.2,0.4-0.6,0.6c-0.2,0-0.3,0-0.5,0c-0.8,0-1.8-0.3-2.7-0.8
							c-1.6-0.9-3.3-1-4.7-1.2c-0.4,0-0.9-0.1-1.2-0.2c0-0.2,0.1-0.3,0.2-0.6c0.4-1.1,0.2-2.2,0.1-3v-0.2c0-0.2,0-0.4-0.1-0.5
							c0,0,0.1,0,0.2-0.1c0.1,0,0.2,0,0.2-0.1C8.2,38.8,8.7,38.6,9.3,38.3L9.3,38.3z"/>
					</g>
				</g>
			</g>
		</g>
		<path class="st12" d="M34.5,39.3c1.3,0,2.7-0.6,3.7-1.5c0,0,0,0,0.1,0c0,0.1,0.1,0.3,0.1,0.5v0.2c0.2,0.8,0.4,1.9,1.2,2.8
			c0.2,0.2,0.3,0.3,0.4,0.5c-0.2,0.1-0.4,0.2-0.7,0.3c-1.2,0.6-2.9,1.4-4.2,2.9c-1,1.1-2,1.6-2.6,1.6c0,0-0.1,0-0.2,0l0,0
			c-0.4,0-0.7-0.3-0.8-0.6v-0.1c-0.1-0.4-0.1-0.7-0.1-1.1l0,0c0-0.2,0.1-0.4,0.2-0.7s0.2-0.5,0.2-0.8c0.3-1.1,0.7-2.2,0.7-3.3v-0.6
			c0-0.2,0-0.5,0.1-0.7c0.3,0.2,0.6,0.2,0.9,0.3C33.9,39.3,34.2,39.3,34.5,39.3L34.5,39.3z"/>
	</g>
	<path class="st15" d="M22.7,18.7c0.7,0,1.2-0.2,1.7-0.5c0.6-0.3,1-0.7,1.5-0.8c1-0.4,1.8-1,2.1-1.7c0.1-0.3,0.1-0.6,0-0.9
		c-0.1-0.3-0.4-0.6-0.9-0.8c-1-0.4-1.5-0.5-2.1-0.8c-0.9-0.6-1.7-0.8-2.3-0.8c-0.3,0-0.6,0.1-0.9,0.2c-0.8,0.2-1.3,0.8-1.7,1.1
		c-0.1,0.1-0.2,0.1-0.4,0.3c-0.2,0.1-0.5,0.4-0.9,0.7s-0.5,0.6-0.4,1.1c0.1,0.4,0.6,1,1.3,1.4c0.5,0.3,0.8,0.6,1.2,1
		c0.4,0.3,0.8,0.5,1.5,0.6C22.4,18.7,22.5,18.7,22.7,18.7"/>
	<circle class="st16" cx="21.8" cy="13.4" r="0.3"/>
	<circle class="st16" cx="23.1" cy="13.4" r="0.3"/>
</g>
<path class="st17" d="M24,24H10.1V11.7c0-0.9,0.7-1.6,1.6-1.6h12.3L24,24L24,24z"/>
<path class="st3" d="M39.9,24H26.1V10.1h12.3c0.8,0,1.5,0.7,1.5,1.5C39.9,11.7,39.9,24,39.9,24z"/>
<path class="st3" d="M24,39.9H11.5c-0.8,0-1.4-0.6-1.4-1.4V26.1h13.8L24,39.9L24,39.9z"/>
<rect x="26" y="26.1" class="st12" width="13.8" height="13.8"/>
</svg>
