<svg xmlns="http://www.w3.org/2000/svg" xmlns:xlink="http://www.w3.org/1999/xlink" viewBox="0 0 149.87 150.71"><defs><style>.cls-1{fill:url(#linear-gradient);}.cls-2{fill:url(#linear-gradient-2);}.cls-3{fill:url(#linear-gradient-3);}.cls-4{fill:url(#linear-gradient-4);}.cls-5{fill:url(#linear-gradient-5);}.cls-6{fill:url(#linear-gradient-6);}.cls-7{fill:url(#linear-gradient-7);}.cls-8{fill:url(#linear-gradient-8);}.cls-9{fill:url(#linear-gradient-9);}.cls-10{fill:url(#linear-gradient-10);}.cls-11{fill:url(#linear-gradient-11);}.cls-12{fill:url(#linear-gradient-12);}.cls-13{fill:url(#linear-gradient-13);}.cls-14{fill:url(#linear-gradient-14);}.cls-15{fill:url(#linear-gradient-15);}.cls-16{fill:url(#linear-gradient-16);}.cls-17{fill:url(#linear-gradient-17);}.cls-18{fill:url(#linear-gradient-18);}.cls-19{fill:url(#linear-gradient-19);}.cls-20{fill:url(#linear-gradient-20);}.cls-21,.cls-22{stroke:#fff;stroke-miterlimit:10;}.cls-21{stroke-width:2px;fill:url(#linear-gradient-21);}.cls-22{fill:url(#linear-gradient-22);}</style><linearGradient id="linear-gradient" x1="0.4" y1="14.42" x2="149.87" y2="14.42" gradientUnits="userSpaceOnUse"><stop offset="0" stop-color="#00a79d"/><stop offset="1" stop-color="#2e3192"/></linearGradient><linearGradient id="linear-gradient-2" x1="12.54" y1="14.42" x2="106.99" y2="14.42" gradientUnits="userSpaceOnUse"><stop offset="0" stop-color="#fdf53f"/><stop offset="1" stop-color="#d93c65"/></linearGradient><linearGradient id="linear-gradient-3" x1="10.08" y1="14.42" x2="109.45" y2="14.42" xlink:href="#linear-gradient-2"/><linearGradient id="linear-gradient-4" x1="117.83" y1="14.42" x2="126.08" y2="14.42" xlink:href="#linear-gradient-2"/><linearGradient id="linear-gradient-5" x1="132.27" y1="14.42" x2="140.52" y2="14.42" xlink:href="#linear-gradient-2"/><linearGradient id="linear-gradient-6" x1="0.4" y1="46.03" x2="149.87" y2="46.03" xlink:href="#linear-gradient"/><linearGradient id="linear-gradient-7" x1="12.54" y1="46.03" x2="106.99" y2="46.03" xlink:href="#linear-gradient-2"/><linearGradient id="linear-gradient-8" x1="10.08" y1="46.03" x2="109.45" y2="46.03" xlink:href="#linear-gradient-2"/><linearGradient id="linear-gradient-9" x1="117.83" y1="46.03" x2="126.08" y2="46.03" xlink:href="#linear-gradient-2"/><linearGradient id="linear-gradient-10" x1="132.27" y1="46.03" x2="140.52" y2="46.03" xlink:href="#linear-gradient-2"/><linearGradient id="linear-gradient-11" x1="0" y1="77.25" x2="149.47" y2="77.25" xlink:href="#linear-gradient"/><linearGradient id="linear-gradient-12" x1="12.14" y1="77.25" x2="106.59" y2="77.25" xlink:href="#linear-gradient-2"/><linearGradient id="linear-gradient-13" x1="9.68" y1="77.25" x2="109.05" y2="77.25" xlink:href="#linear-gradient-2"/><linearGradient id="linear-gradient-14" x1="117.43" y1="77.25" x2="125.68" y2="77.25" xlink:href="#linear-gradient-2"/><linearGradient id="linear-gradient-15" x1="131.87" y1="77.25" x2="140.12" y2="77.25" xlink:href="#linear-gradient-2"/><linearGradient id="linear-gradient-16" x1="0" y1="108.86" x2="149.47" y2="108.86" xlink:href="#linear-gradient"/><linearGradient id="linear-gradient-17" x1="12.14" y1="108.86" x2="106.59" y2="108.86" xlink:href="#linear-gradient-2"/><linearGradient id="linear-gradient-18" x1="9.68" y1="108.86" x2="109.05" y2="108.86" xlink:href="#linear-gradient-2"/><linearGradient id="linear-gradient-19" x1="117.43" y1="108.86" x2="125.68" y2="108.86" xlink:href="#linear-gradient-2"/><linearGradient id="linear-gradient-20" x1="131.87" y1="108.86" x2="140.12" y2="108.86" xlink:href="#linear-gradient-2"/><linearGradient id="linear-gradient-21" x1="33.02" y1="105.64" x2="121.32" y2="105.64" xlink:href="#linear-gradient-2"/><linearGradient id="linear-gradient-22" x1="107.41" y1="75.47" x2="125.65" y2="75.47" xlink:href="#linear-gradient-2"/></defs><g id="Layer_2" data-name="Layer 2"><g id="Layer_1-2" data-name="Layer 1"><rect class="cls-1" x="0.4" width="149.47" height="28.83" rx="5.94"/><line class="cls-2" x1="12.54" y1="14.42" x2="106.99" y2="14.42"/><path class="cls-3" d="M12.54,16.94h82.8c3.82,0,7.67.15,11.48,0H107c3.28,0,3.29-5.05,0-5.05H24.19c-3.82,0-7.67-.15-11.48,0h-.17c-3.28,0-3.29,5.05,0,5.05Z"/><ellipse class="cls-4" cx="121.96" cy="14.42" rx="4.12" ry="4.19"/><ellipse class="cls-5" cx="136.4" cy="14.42" rx="4.12" ry="4.19"/><rect class="cls-6" x="0.4" y="31.61" width="149.47" height="28.83" rx="5.94"/><line class="cls-7" x1="12.54" y1="46.03" x2="106.99" y2="46.03"/><path class="cls-8" d="M12.54,48.55h82.8c3.82,0,7.67.16,11.48,0H107c3.28,0,3.29-5,0-5H24.19c-3.82,0-7.67-.16-11.48,0h-.17c-3.28,0-3.29,5,0,5Z"/><ellipse class="cls-9" cx="121.96" cy="46.03" rx="4.12" ry="4.19"/><ellipse class="cls-10" cx="136.4" cy="46.03" rx="4.12" ry="4.19"/><rect class="cls-11" y="62.83" width="149.47" height="28.83" rx="5.94"/><line class="cls-12" x1="12.14" y1="77.25" x2="106.59" y2="77.25"/><path class="cls-13" d="M12.14,79.77h82.8c3.82,0,7.67.15,11.49,0h.16c3.28,0,3.29-5,0-5H23.79c-3.82,0-7.67-.15-11.48,0h-.17c-3.28,0-3.29,5,0,5Z"/><ellipse class="cls-14" cx="121.56" cy="77.25" rx="4.12" ry="4.19"/><ellipse class="cls-15" cx="136" cy="77.25" rx="4.12" ry="4.19"/><rect class="cls-16" y="94.44" width="149.47" height="28.83" rx="5.94"/><line class="cls-17" x1="12.14" y1="108.86" x2="106.59" y2="108.86"/><path class="cls-18" d="M12.14,111.38h82.8c3.82,0,7.67.16,11.49,0h.16c3.28,0,3.29-5,0-5H23.79c-3.82,0-7.67-.16-11.48,0h-.17c-3.28,0-3.29,5,0,5Z"/><ellipse class="cls-19" cx="121.56" cy="108.86" rx="4.12" ry="4.19"/><ellipse class="cls-20" cx="136" cy="108.86" rx="4.12" ry="4.19"/><path class="cls-21" d="M112.64,109.52l8.68-6.09-3.61-16.18-10.4-1.63-4.75-6.1.76-10.75L88.71,61.56,81,68.88H73.36l-7.73-7.32L51,68.77l.77,10.75C50,81.86,48.86,83.27,47,85.62L36.63,87.25,33,103.43l8.69,6.09,1.69,7.61-5.24,9.34,10.11,13,10.06-3.15,6.87,3.38,3.87,10H85.28l3.86-10L96,136.3l10.07,3.15,10.1-13-5.24-9.34C111.59,114.2,112,112.44,112.64,109.52ZM77.17,129.84c-12.66,0-22.93-10.51-22.93-23.48S64.51,82.88,77.17,82.88,100.1,93.4,100.1,106.36,89.84,129.84,77.17,129.84Z"/><path class="cls-22" d="M123.85,76.27l1.8-1.25-.75-3.35-2.15-.33-1-1.26.16-2.22-3-1.49-1.6,1.51h-1.57l-1.6-1.51-3,1.49.15,2.22-1,1.26-2.15.33L107.41,75l1.79,1.25.35,1.58-1.08,1.93,2.09,2.68,2.07-.65,1.42.7.8,2.07h3.35l.8-2.07,1.42-.7,2.08.65,2.08-2.68-1.08-1.93Zm-7.32,4.2a4.85,4.85,0,1,1,4.73-4.85A4.79,4.79,0,0,1,116.53,80.47Z"/></g></g></svg>