<svg xmlns="http://www.w3.org/2000/svg" xmlns:xlink="http://www.w3.org/1999/xlink" viewBox="0 0 149.688 149.796"><defs><linearGradient id="linear-gradient" y1="24.162" x2="14.166" y2="24.162" gradientUnits="userSpaceOnUse"><stop offset="0" stop-color="#fdf53f"/><stop offset="1" stop-color="#d93c65"/></linearGradient><linearGradient id="linear-gradient-2" x1="15.968" y1="6.543" x2="57.662" y2="6.543" gradientUnits="userSpaceOnUse"><stop offset="0" stop-color="#53d8ff"/><stop offset="1" stop-color="#3840f7"/></linearGradient><linearGradient id="linear-gradient-3" x1="119.908" y1="48.392" x2="149.688" y2="48.392" xlink:href="#linear-gradient-2"/><linearGradient id="linear-gradient-4" x1="122.869" y1="44.795" x2="130.163" y2="44.795" xlink:href="#linear-gradient-2"/><linearGradient id="linear-gradient-5" x1="131.59" y1="43.32" x2="148.477" y2="43.32" xlink:href="#linear-gradient-2"/><linearGradient id="linear-gradient-6" x1="122.925" y1="51.512" x2="148.477" y2="51.512" xlink:href="#linear-gradient-2"/><linearGradient id="linear-gradient-7" x1="122.876" y1="55.003" x2="139.194" y2="55.003" xlink:href="#linear-gradient-2"/><linearGradient id="linear-gradient-8" x1="131.642" y1="47.416" x2="143.236" y2="47.416" xlink:href="#linear-gradient-2"/><linearGradient id="linear-gradient-9" x1="21.504" y1="71.231" x2="115.776" y2="71.231" xlink:href="#linear-gradient-2"/><linearGradient id="linear-gradient-10" x1="25.029" y1="71.659" x2="112.235" y2="71.659" gradientUnits="userSpaceOnUse"><stop offset="0" stop-color="#2e3192"/><stop offset="1" stop-color="#3840f7"/></linearGradient><linearGradient id="linear-gradient-11" x1="12.008" y1="125.519" x2="125.691" y2="125.519" xlink:href="#linear-gradient-2"/><linearGradient id="linear-gradient-12" x1="12.458" y1="126.582" x2="125.473" y2="126.582" xlink:href="#linear-gradient-2"/><linearGradient id="linear-gradient-13" x1="48.988" y1="139.864" x2="86.361" y2="139.864" xlink:href="#linear-gradient"/><linearGradient id="linear-gradient-14" x1="57.974" y1="32.313" x2="65.876" y2="32.313" xlink:href="#linear-gradient"/><linearGradient id="linear-gradient-15" x1="65.45" y1="33.715" x2="69.848" y2="33.715" xlink:href="#linear-gradient"/></defs><g id="Layer_2" data-name="Layer 2"><g id="Layer_2-2" data-name="Layer 2"><path d="M7.01,15.687A7.548,7.548,0,0,0,9.576,18.57a6.928,6.928,0,0,0,4.5,1.072,10.69,10.69,0,0,1-.212,3.951,10.316,10.316,0,0,1-1.5,3.368,18.556,18.556,0,0,1-1.27,1.855,18.224,18.224,0,0,1-4.051,3.822,20.362,20.362,0,0,1-2.815-2.484,21.06,21.06,0,0,1-2.206-2.779A16.563,16.563,0,0,1,.656,24.054,17.038,17.038,0,0,1,0,19.642a7.69,7.69,0,0,0,4.468-1.264A8.3,8.3,0,0,0,7.01,15.687Z" fill="url(#linear-gradient)"/><ellipse cx="7.083" cy="29.467" rx="1.004" ry="1.07" fill="none" stroke="#223c8e" stroke-miterlimit="10" stroke-width="0.25"/><line x1="7.083" y1="30.537" x2="7.083" y2="58.366" fill="none" stroke="#223c8e" stroke-miterlimit="10" stroke-width="0.25"/><path d="M22.182,58.231h0Z" fill="none" stroke="#223c8e" stroke-miterlimit="10" stroke-width="0.25"/><path d="M41.841,26.051h0Z" fill="none" stroke="#223c8e" stroke-miterlimit="10" stroke-width="0.25"/><path d="M41.677,39.713v0Z" fill="none" stroke="#223c8e" stroke-miterlimit="10" stroke-width="0.25"/><path d="M15.968,13.085H57.662s-.348-9.469-12.015-7.573c0,0-10.474-13.587-21.446,1.9C24.2,7.415,17.508,6.287,15.968,13.085Z" fill="url(#linear-gradient-2)"/><line x1="114.987" y1="87.804" x2="135.701" y2="87.804" fill="none" stroke="#223c8e" stroke-miterlimit="10" stroke-width="0.25"/><line x1="135.531" y1="59.092" x2="135.531" y2="87.97" fill="none" stroke="#223c8e" stroke-miterlimit="10" stroke-width="0.25"/><rect x="119.908" y="36.964" width="29.78" height="22.856" fill="url(#linear-gradient-3)"/><rect x="122.869" y="40.925" width="7.295" height="7.74" stroke="#fff" stroke-miterlimit="10" stroke-width="0.25" fill="url(#linear-gradient-4)"/><rect x="131.59" y="42.358" width="16.887" height="1.924" stroke="#fff" stroke-miterlimit="10" stroke-width="0.25" fill="url(#linear-gradient-5)"/><rect x="122.925" y="50.55" width="25.552" height="1.924" stroke="#fff" stroke-miterlimit="10" stroke-width="0.25" fill="url(#linear-gradient-6)"/><rect x="122.876" y="54.041" width="16.318" height="1.924" stroke="#fff" stroke-miterlimit="10" stroke-width="0.25" fill="url(#linear-gradient-7)"/><rect x="131.642" y="46.454" width="11.594" height="1.924" stroke="#fff" stroke-miterlimit="10" stroke-width="0.25" fill="url(#linear-gradient-8)"/><ellipse cx="135.531" cy="58.315" rx="0.839" ry="0.895" fill="none" stroke="#223c8e" stroke-miterlimit="10" stroke-width="0.25"/><path d="M23.4,39.713h90.477a1.9,1.9,0,0,1,1.9,1.9v61.139a0,0,0,0,1,0,0H21.5a0,0,0,0,1,0,0V41.611A1.9,1.9,0,0,1,23.4,39.713Z" fill="url(#linear-gradient-9)"/><rect x="25.029" y="44.888" width="87.206" height="53.541" rx="0.08" stroke="#fff" stroke-miterlimit="10" stroke-width="0.5" fill="url(#linear-gradient-10)"/><path d="M121.314,148.733l-104.939-.141a4.6,4.6,0,0,1-4.242-5.754l9.19-40.533H115.6l9.952,40.59A4.6,4.6,0,0,1,121.314,148.733Z" fill="url(#linear-gradient-11)"/><path d="M121.121,149.8,16.8,149.655a4.594,4.594,0,0,1-4.217-5.755l9.137-40.532h93.718l9.894,40.589A4.6,4.6,0,0,1,121.121,149.8Z" fill="url(#linear-gradient-12)"/><g opacity="0.47"><path d="M26.956,109.389l.832-.012a2.331,2.331,0,0,0,1.949-1.54c.445-1.269.667-1.9,1.111-3.173.294-.839-.068-1.512-.808-1.5l-.786.011a2.388,2.388,0,0,0-1.921,1.541l-1.213,3.174C25.8,108.729,26.173,109.4,26.956,109.389Z" fill="#fff"/><path d="M31.536,109.326l2.531-.031a2.168,2.168,0,0,0,1.865-1.536l.935-3.171c.247-.839-.152-1.512-.892-1.5-.957.011-1.435.017-2.392.03a2.258,2.258,0,0,0-1.859,1.537l-1.085,3.173C30.352,108.664,30.753,109.337,31.536,109.326Z" fill="#fff"/><path d="M37.643,109.254l2.531-.026a2.015,2.015,0,0,0,1.783-1.533l.765-3.169c.2-.838-.234-1.512-.973-1.5l-2.393.025a2.1,2.1,0,0,0-1.778,1.534l-.914,3.17C36.422,108.589,36.86,109.262,37.643,109.254Z" fill="#fff"/><path d="M43.889,109.193l2.531-.021a1.871,1.871,0,0,0,1.7-1.528c.237-1.267.355-1.9.591-3.168a1.153,1.153,0,0,0-1.057-1.507l-2.393.019a1.95,1.95,0,0,0-1.694,1.531l-.74,3.168A1.12,1.12,0,0,0,43.889,109.193Z" fill="#fff"/><path d="M50.2,109.145l2.531-.015a1.739,1.739,0,0,0,1.615-1.525l.414-3.166a1.227,1.227,0,0,0-1.141-1.51l-2.393.014a1.811,1.811,0,0,0-1.61,1.527c-.225,1.267-.338,1.9-.563,3.167A1.189,1.189,0,0,0,50.2,109.145Z" fill="#fff"/><path d="M56.311,109.112l2.531-.01a1.622,1.622,0,0,0,1.534-1.521c.1-1.267.146-1.9.243-3.166A1.308,1.308,0,0,0,59.4,102.9l-2.393.01a1.684,1.684,0,0,0-1.528,1.523l-.393,3.166A1.266,1.266,0,0,0,56.311,109.112Z" fill="#fff"/><path d="M62.557,109.091l2.531,0a1.511,1.511,0,0,0,1.45-1.518l.069-3.166a1.4,1.4,0,0,0-1.307-1.515l-2.392,0a1.569,1.569,0,0,0-1.445,1.52l-.218,3.166A1.35,1.35,0,0,0,62.557,109.091Z" fill="#fff"/><path d="M68.781,109.084h2.531a1.41,1.41,0,0,0,1.367-1.515l-.105-3.165a1.5,1.5,0,0,0-1.39-1.519H68.792A1.462,1.462,0,0,0,67.43,104.4l-.044,3.165A1.444,1.444,0,0,0,68.781,109.084Z" fill="#fff"/><path d="M74.889,109.09l2.531.007a1.322,1.322,0,0,0,1.285-1.513c-.111-1.266-.166-1.9-.276-3.166a1.605,1.605,0,0,0-1.472-1.521l-2.392-.006a1.367,1.367,0,0,0-1.279,1.515l.125,3.165A1.546,1.546,0,0,0,74.889,109.09Z" fill="#fff"/><path d="M81.135,109.11c1.012,0,1.518.006,2.531.012a1.239,1.239,0,0,0,1.2-1.51l-.45-3.167a1.725,1.725,0,0,0-1.555-1.524l-2.393-.011a1.278,1.278,0,0,0-1.195,1.511l.3,3.166A1.659,1.659,0,0,0,81.135,109.11Z" fill="#fff"/><path d="M87.45,109.143l2.531.018a1.164,1.164,0,0,0,1.117-1.508l-.627-3.167a1.855,1.855,0,0,0-1.639-1.528l-2.393-.017a1.2,1.2,0,0,0-1.111,1.51c.191,1.266.286,1.9.477,3.166A1.784,1.784,0,0,0,87.45,109.143Z" fill="#fff"/><path d="M93.557,109.189l2.531.022a1.1,1.1,0,0,0,1.035-1.5c-.318-1.267-.478-1.9-.8-3.169a2,2,0,0,0-1.721-1.531l-2.393-.022a1.131,1.131,0,0,0-1.029,1.507l.647,3.168A1.919,1.919,0,0,0,93.557,109.189Z" fill="#fff"/><path d="M99.8,109.249c4.428.047,6.642.075,11.069.139.783.011,1.158-.66.837-1.5-.484-1.27-.726-1.905-1.209-3.175a2.384,2.384,0,0,0-1.92-1.54c-4.185-.061-6.278-.087-10.463-.132-.74-.008-1.164.666-.946,1.505.328,1.268.493,1.9.821,3.169A2.066,2.066,0,0,0,99.8,109.249Z" fill="#fff"/><path d="M111.294,110.532c-2.764-.04-4.146-.058-6.91-.092-.79-.009-1.229.663-.981,1.5l.94,3.171a2.23,2.23,0,0,0,1.959,1.537c2.914.036,4.371.055,7.284.1.833.012,1.249-.658.929-1.5l-1.21-3.175A2.442,2.442,0,0,0,111.294,110.532Z" fill="#fff"/><path d="M100.5,110.4l-2.557-.027a1.115,1.115,0,0,0-1.066,1.5l.761,3.168a2.069,2.069,0,0,0,1.874,1.533l2.695.028a1.086,1.086,0,0,0,1.072-1.5c-.364-1.268-.547-1.9-.911-3.171A2.153,2.153,0,0,0,100.5,110.4Z" fill="#fff"/><path d="M94.191,110.334l-2.556-.021a1.183,1.183,0,0,0-1.15,1.507l.587,3.168a1.924,1.924,0,0,0,1.79,1.529c1.078.008,1.617.012,2.7.022a1.151,1.151,0,0,0,1.155-1.5l-.737-3.169A2,2,0,0,0,94.191,110.334Z" fill="#fff"/><path d="M87.812,110.286l-2.556-.015a1.261,1.261,0,0,0-1.235,1.509l.411,3.167a1.788,1.788,0,0,0,1.706,1.525l2.694.016a1.224,1.224,0,0,0,1.241-1.507l-.561-3.168A1.855,1.855,0,0,0,87.812,110.286Z" fill="#fff"/><path d="M81.643,110.253l-2.556-.01a1.343,1.343,0,0,0-1.316,1.512l.24,3.166a1.668,1.668,0,0,0,1.624,1.522c1.078,0,1.617,0,2.695.01a1.3,1.3,0,0,0,1.322-1.51l-.39-3.166A1.728,1.728,0,0,0,81.643,110.253Z" fill="#fff"/><path d="M71.378,111.743l.066,3.165a1.553,1.553,0,0,0,1.54,1.519l2.7,0a1.391,1.391,0,0,0,1.406-1.513l-.216-3.165a1.609,1.609,0,0,0-1.534-1.521l-2.557,0A1.438,1.438,0,0,0,71.378,111.743Z" fill="#fff"/><path d="M65.008,111.745c-.043,1.266-.065,1.9-.108,3.165a1.45,1.45,0,0,0,1.457,1.515h2.7a1.489,1.489,0,0,0,1.489-1.516l-.042-3.165a1.5,1.5,0,0,0-1.451-1.518l-2.557,0A1.54,1.54,0,0,0,65.008,111.745Z" fill="#fff"/><path d="M58.758,111.76c-.112,1.266-.168,1.9-.279,3.165a1.358,1.358,0,0,0,1.375,1.512l2.7-.006a1.594,1.594,0,0,0,1.571-1.52l.129-3.165a1.4,1.4,0,0,0-1.37-1.514l-2.557.006A1.651,1.651,0,0,0,58.758,111.76Z" fill="#fff"/><path d="M52.365,111.789l-.453,3.166a1.273,1.273,0,0,0,1.292,1.509l2.7-.012a1.71,1.71,0,0,0,1.654-1.523l.3-3.166a1.312,1.312,0,0,0-1.286-1.511c-1.023,0-1.534.006-2.556.012A1.774,1.774,0,0,0,52.365,111.789Z" fill="#fff"/><path d="M50.913,114.961l.48-3.167a1.23,1.23,0,0,0-1.2-1.508l-2.556.017a1.91,1.91,0,0,0-1.733,1.529L45.272,115a1.2,1.2,0,0,0,1.208,1.506l2.694-.018A1.84,1.84,0,0,0,50.913,114.961Z" fill="#fff"/><path d="M39.651,111.887l-.8,3.17a1.127,1.127,0,0,0,1.126,1.5l2.7-.024a1.974,1.974,0,0,0,1.82-1.53l.65-3.168a1.158,1.158,0,0,0-1.12-1.506l-2.556.023A2.053,2.053,0,0,0,39.651,111.887Z" fill="#fff"/><path d="M24.235,116.749c4.715-.069,7.072-.1,11.786-.149a2.123,2.123,0,0,0,1.9-1.534l.825-3.17a1.092,1.092,0,0,0-1.036-1.5c-4.473.047-6.709.076-11.181.141a2.445,2.445,0,0,0-2.012,1.542l-1.213,3.174C22.987,116.09,23.4,116.761,24.235,116.749Z" fill="#fff"/><path d="M108.3,124c3.2.038,4.8.059,8,.106a1.019,1.019,0,0,0,1.021-1.5l-1.21-3.174a2.506,2.506,0,0,0-2.1-1.543c-3.044-.044-4.567-.065-7.611-.1a1.083,1.083,0,0,0-1.077,1.5l.933,3.171A2.289,2.289,0,0,0,108.3,124Z" fill="#fff"/><path d="M100.919,123.92l3.01.031a1.121,1.121,0,0,0,1.167-1.5l-.9-3.17a2.2,2.2,0,0,0-1.956-1.536l-2.864-.029a1.151,1.151,0,0,0-1.164,1.5l.751,3.168A2.121,2.121,0,0,0,100.919,123.92Z" fill="#fff"/><path d="M93.689,123.857l3.009.024a1.19,1.19,0,0,0,1.253-1.5l-.725-3.168a2.044,2.044,0,0,0-1.87-1.532l-2.864-.023a1.225,1.225,0,0,0-1.25,1.507l.572,3.167A1.97,1.97,0,0,0,93.689,123.857Z" fill="#fff"/><path d="M86.378,123.81l3.01.017a1.268,1.268,0,0,0,1.339-1.507c-.217-1.266-.326-1.9-.544-3.167a1.9,1.9,0,0,0-1.784-1.527l-2.864-.017a1.308,1.308,0,0,0-1.336,1.51l.391,3.166A1.828,1.828,0,0,0,86.378,123.81Z" fill="#fff"/><path d="M77.6,122.259a1.7,1.7,0,0,0,1.7,1.521l3.009.011a1.354,1.354,0,0,0,1.424-1.51l-.37-3.166a1.765,1.765,0,0,0-1.7-1.524l-2.863-.01a1.4,1.4,0,0,0-1.42,1.512Z" fill="#fff"/><path d="M71.927,117.567a1.5,1.5,0,0,0-1.505,1.515l.038,3.166a1.583,1.583,0,0,0,1.618,1.517c1.2,0,1.806,0,3.01,0a1.449,1.449,0,0,0,1.509-1.514l-.191-3.165a1.64,1.64,0,0,0-1.615-1.52Z" fill="#fff"/><path d="M67.935,117.566c-1.146,0-1.718,0-2.864,0a1.608,1.608,0,0,0-1.591,1.519l-.14,3.165a1.476,1.476,0,0,0,1.533,1.514l3.009,0a1.553,1.553,0,0,0,1.595-1.517l-.013-3.165A1.526,1.526,0,0,0,67.935,117.566Z" fill="#fff"/><path d="M61.207,117.575l-2.864.009a1.724,1.724,0,0,0-1.674,1.522l-.315,3.166a1.38,1.38,0,0,0,1.449,1.511l3.009-.009a1.666,1.666,0,0,0,1.679-1.52l.162-3.166A1.426,1.426,0,0,0,61.207,117.575Z" fill="#fff"/><path d="M53.036,123.8a1.8,1.8,0,0,0,1.77-1.525l.354-3.166a1.325,1.325,0,0,0-1.353-1.51l-2.72.015a1.864,1.864,0,0,0-1.765,1.526l-.5,3.167a1.288,1.288,0,0,0,1.359,1.508C51.32,123.811,51.892,123.808,53.036,123.8Z" fill="#fff"/><path d="M45.305,123.849a1.947,1.947,0,0,0,1.862-1.528l.545-3.168a1.235,1.235,0,0,0-1.261-1.506l-2.721.021a2.018,2.018,0,0,0-1.856,1.53l-.7,3.169a1.2,1.2,0,0,0,1.267,1.5Z" fill="#fff"/><path d="M21.515,124.108c6.369-.092,9.554-.131,15.924-.192a2.113,2.113,0,0,0,1.956-1.533l.74-3.169a1.155,1.155,0,0,0-1.169-1.5c-6.062.059-9.092.1-15.154.183a2.512,2.512,0,0,0-2.1,1.544c-.485,1.269-.727,1.9-1.213,3.174A1.018,1.018,0,0,0,21.515,124.108Z" fill="#fff"/><path d="M116.713,124.911c-3.22-.047-4.83-.068-8.049-.107a1.112,1.112,0,0,0-1.163,1.5l.936,3.171a2.356,2.356,0,0,0,2.137,1.539c3.374.041,5.062.063,8.436.112a1.046,1.046,0,0,0,1.107-1.5l-1.213-3.174A2.576,2.576,0,0,0,116.713,124.911Z" fill="#fff"/><path d="M104.264,124.754l-3.029-.032a1.182,1.182,0,0,0-1.249,1.5l.753,3.169a2.188,2.188,0,0,0,2.049,1.535l3.174.032a1.153,1.153,0,0,0,1.254-1.5l-.907-3.171A2.267,2.267,0,0,0,104.264,124.754Z" fill="#fff"/><path d="M96.988,124.683l-3.028-.024a1.258,1.258,0,0,0-1.335,1.506c.229,1.267.344,1.9.574,3.167a2.031,2.031,0,0,0,1.964,1.53l3.174.026a1.225,1.225,0,0,0,1.339-1.5l-.728-3.168A2.107,2.107,0,0,0,96.988,124.683Z" fill="#fff"/><path d="M89.632,124.629l-3.028-.018a1.345,1.345,0,0,0-1.422,1.509c.157,1.267.236,1.9.394,3.166a1.885,1.885,0,0,0,1.876,1.526l3.174.019a1.307,1.307,0,0,0,1.426-1.507l-.547-3.167A1.955,1.955,0,0,0,89.632,124.629Z" fill="#fff"/><path d="M82.624,124.593c-10-.042-14.995-.044-24.992-.009a1.778,1.778,0,0,0-1.763,1.522l-.318,3.166a1.422,1.422,0,0,0,1.535,1.511c10.478-.036,15.718-.034,26.2.009a1.393,1.393,0,0,0,1.508-1.509l-.375-3.166A1.821,1.821,0,0,0,82.624,124.593Z" fill="#fff"/><path d="M53.643,124.6c-1.211.005-1.817.008-3.028.015a1.909,1.909,0,0,0-1.846,1.527l-.491,3.167a1.335,1.335,0,0,0,1.454,1.507l3.174-.016a1.843,1.843,0,0,0,1.849-1.525l.337-3.166A1.373,1.373,0,0,0,53.643,124.6Z" fill="#fff"/><path d="M46.191,124.643l-2.877.021a2.057,2.057,0,0,0-1.932,1.531l-.669,3.168a1.25,1.25,0,0,0,1.367,1.5l3.015-.023a1.985,1.985,0,0,0,1.937-1.528l.52-3.167A1.284,1.284,0,0,0,46.191,124.643Z" fill="#fff"/><path d="M38.89,124.7l-2.876.027A2.216,2.216,0,0,0,34,126.264l-.849,3.17a1.175,1.175,0,0,0,1.281,1.5l3.015-.029a2.139,2.139,0,0,0,2.023-1.533l.7-3.169A1.2,1.2,0,0,0,38.89,124.7Z" fill="#fff"/><path d="M30.881,124.785c-3.819.044-5.728.069-9.546.124a2.572,2.572,0,0,0-2.19,1.545l-1.21,3.174a1.046,1.046,0,0,0,1.108,1.5c4-.058,6-.084,10-.13a2.318,2.318,0,0,0,2.117-1.538l.9-3.17A1.127,1.127,0,0,0,30.881,124.785Z" fill="#fff"/></g><rect x="48.988" y="132.684" width="37.373" height="14.361" rx="0.95" fill="url(#linear-gradient-13)"/><line x1="26.921" y1="48.956" x2="110.306" y2="48.956" fill="none" stroke="#fff" stroke-miterlimit="10" stroke-width="0.75" stroke-dasharray="5 5 5 5 8 0"/><line x1="26.921" y1="55.965" x2="84.839" y2="55.965" fill="none" stroke="#fff" stroke-miterlimit="10" stroke-width="0.75" stroke-dasharray="5 5 5 5 8 0"/><line x1="26.921" y1="61.268" x2="58.606" y2="61.268" fill="none" stroke="#fff" stroke-miterlimit="10" stroke-width="0.75" stroke-dasharray="5 5 5 5 8 0"/><line x1="26.921" y1="67.731" x2="98.965" y2="67.731" fill="none" stroke="#fff" stroke-miterlimit="10" stroke-width="0.75" stroke-dasharray="5 5 5 5 8 0"/><line x1="26.921" y1="73.477" x2="65.078" y2="73.477" fill="none" stroke="#fff" stroke-miterlimit="10" stroke-width="0.75" stroke-dasharray="5 5 5 5 8 0"/><line x1="26.921" y1="78.972" x2="104.936" y2="78.972" fill="none" stroke="#fff" stroke-miterlimit="10" stroke-width="0.75" stroke-dasharray="5 5 5 5 8 0"/><line x1="26.921" y1="84.338" x2="77.776" y2="84.338" fill="none" stroke="#fff" stroke-miterlimit="10" stroke-width="0.75" stroke-dasharray="5 5 5 5 8 0"/><line x1="26.921" y1="89.893" x2="93.45" y2="89.893" fill="none" stroke="#fff" stroke-miterlimit="10" stroke-width="0.75" stroke-dasharray="5 5 5 5 8 0"/><path d="M65.1,32.675l.777-.568L65.553,30.6l-.931-.152-.425-.568.068-1-1.307-.672-.692.682h-.682l-.692-.682-1.307.672.069,1-.426.568L58.3,30.6c-.157.735-.165.773-.323,1.508l.777.568.152.709-.469.871.905,1.21.9-.294.615.315.346.935h1.451L63,35.486l.614-.315.9.294.9-1.21-.469-.871Zm-3.174,1.894a2.193,2.193,0,1,1,2.052-2.188A2.124,2.124,0,0,1,61.925,34.569Z" fill="url(#linear-gradient-14)"/><path d="M69.416,33.916l.432-.316-.179-.839-.519-.085-.236-.317.038-.557-.728-.374-.385.38h-.38l-.385-.38-.728.374.038.557-.236.317-.519.085-.179.839.432.316.085.4-.262.485.5.673.5-.164.343.176.192.52h.808l.192-.52.343-.176.5.164.5-.673-.262-.485Zm-1.767,1.055a1.221,1.221,0,1,1,1.142-1.219A1.182,1.182,0,0,1,67.649,34.971Z" fill="url(#linear-gradient-15)"/><path d="M59.876,26.463c-2.626-4.505-2.315-9.971.5-13.3,3.989-4.718,10.711-2.444,11.454-2.179,7.031,2.509,8.944,11.146,9.3,12.753A22.354,22.354,0,0,1,79.96,36.742" fill="none" stroke="#21409a" stroke-miterlimit="10" stroke-width="0.25" stroke-dasharray="2 2 2 2 2 0"/><path d="M79.358,38.123a7.544,7.544,0,0,0-.276-2.43l.933.855,1.262.06A7.56,7.56,0,0,0,79.358,38.123Z" fill="#21409a"/><ellipse cx="35.817" cy="11.588" rx="1.1" ry="1.173" fill="none" stroke="#223c8e" stroke-miterlimit="10" stroke-width="0.25"/><line x1="35.817" y1="12.761" x2="35.817" y2="26.206" fill="none" stroke="#223c8e" stroke-miterlimit="10" stroke-width="0.25"/></g></g></svg>