<svg xmlns="http://www.w3.org/2000/svg" xmlns:xlink="http://www.w3.org/1999/xlink" viewBox="0 0 149.387 149.91"><defs><linearGradient id="linear-gradient" x1="84.63" y1="52.78" x2="90.821" y2="199.81" gradientUnits="userSpaceOnUse"><stop offset="0" stop-color="#53d8ff"/><stop offset="0.439" stop-color="#52d0ff"/><stop offset="0.662" stop-color="#4279fa"/><stop offset="0.818" stop-color="#3d7df9"/><stop offset="1" stop-color="#00aeef"/></linearGradient><linearGradient id="linear-gradient-2" x1="84.572" y1="20.42" x2="90.569" y2="162.835" xlink:href="#linear-gradient"/><clipPath id="clip-path"><polygon points="32.575 80.944 87.068 114.688 138.451 82.938 138.451 33.781 36.854 33.781 32.575 80.944" fill="none"/></clipPath><linearGradient id="linear-gradient-3" x1="38.156" y1="83.935" x2="135.831" y2="83.935" gradientUnits="userSpaceOnUse"><stop offset="0" stop-color="#53d8ff"/><stop offset="1" stop-color="#3840f7"/></linearGradient><linearGradient id="linear-gradient-4" x1="91.7" y1="32.981" x2="81.121" y2="143.75" gradientUnits="userSpaceOnUse"><stop offset="0" stop-color="#fdf53f"/><stop offset="1" stop-color="#d93c65"/></linearGradient><linearGradient id="linear-gradient-5" x1="9.237" y1="43.394" x2="39.027" y2="43.394" xlink:href="#linear-gradient-4"/><linearGradient id="linear-gradient-6" x1="21.44" y1="43.397" x2="26.825" y2="43.397" xlink:href="#linear-gradient-4"/><linearGradient id="linear-gradient-7" x1="0.637" y1="65.146" x2="14.517" y2="65.146" xlink:href="#linear-gradient-4"/><linearGradient id="linear-gradient-8" x1="112.366" y1="107.375" x2="149.387" y2="107.375" xlink:href="#linear-gradient-4"/><linearGradient id="linear-gradient-9" x1="113.339" y1="105.309" x2="120.77" y2="105.309" xlink:href="#linear-gradient"/><linearGradient id="linear-gradient-10" x1="115.92" y1="103.854" x2="118.401" y2="103.854" xlink:href="#linear-gradient-4"/><linearGradient id="linear-gradient-11" x1="114.762" y1="106.741" x2="119.545" y2="106.741" xlink:href="#linear-gradient-4"/><linearGradient id="linear-gradient-12" x1="122.88" y1="106.33" x2="146.494" y2="106.33" xlink:href="#linear-gradient"/><linearGradient id="linear-gradient-13" x1="123.121" y1="108.702" x2="136.024" y2="108.702" xlink:href="#linear-gradient"/><linearGradient id="linear-gradient-14" x1="136.83" y1="108.702" x2="146.507" y2="108.702" xlink:href="#linear-gradient"/><linearGradient id="linear-gradient-15" x1="122.819" y1="102.704" x2="135.822" y2="102.704" xlink:href="#linear-gradient"/><linearGradient id="linear-gradient-16" x1="32.756" y1="98.47" x2="32.958" y2="151.526" xlink:href="#linear-gradient"/><linearGradient id="linear-gradient-17" x1="-7259.125" y1="73.1" x2="-7320.753" y2="151.938" gradientTransform="matrix(-1, -0.022, -0.022, 1, -7230.514, -119.194)" gradientUnits="userSpaceOnUse"><stop offset="0" stop-color="#4042e2"/><stop offset="1" stop-color="#4f52ff"/></linearGradient><linearGradient id="linear-gradient-18" x1="30.761" y1="104.536" x2="36.286" y2="104.536" gradientTransform="matrix(1, 0, 0, 1, 0, 0)" xlink:href="#linear-gradient-17"/><linearGradient id="linear-gradient-19" x1="23.673" y1="124.736" x2="42.433" y2="124.736" gradientUnits="userSpaceOnUse"><stop offset="0" stop-color="#dae3fe"/><stop offset="1" stop-color="#e9effd"/></linearGradient><linearGradient id="linear-gradient-20" x1="27.22" y1="124.736" x2="38.886" y2="124.736" gradientTransform="matrix(1, 0, 0, 1, 0, 0)" xlink:href="#linear-gradient-17"/><linearGradient id="linear-gradient-21" x1="19.004" y1="144.152" x2="21.992" y2="144.152" gradientTransform="matrix(1, 0, 0, 1, 0, 0)" xlink:href="#linear-gradient-17"/><linearGradient id="linear-gradient-22" x1="105.869" y1="21.736" x2="148.244" y2="21.736" xlink:href="#linear-gradient-4"/><linearGradient id="linear-gradient-23" x1="114.455" y1="21.469" x2="120.584" y2="21.469" xlink:href="#linear-gradient-3"/><linearGradient id="linear-gradient-24" x1="121.181" y1="21.533" x2="127.764" y2="21.533" xlink:href="#linear-gradient-3"/><linearGradient id="linear-gradient-25" x1="128.039" y1="21.533" x2="132.949" y2="21.533" xlink:href="#linear-gradient-3"/><linearGradient id="linear-gradient-26" x1="133.337" y1="21.539" x2="139.604" y2="21.539" xlink:href="#linear-gradient-3"/><linearGradient id="linear-gradient-27" x1="106.184" y1="21.663" x2="147.983" y2="21.663" gradientUnits="userSpaceOnUse"><stop offset="0" stop-color="#fdf53f"/><stop offset="0.69" stop-color="#e47559"/><stop offset="1" stop-color="#d93c65"/></linearGradient></defs><g style="isolation:isolate"><g id="Layer_2" data-name="Layer 2"><g id="Layer_6" data-name="Layer 6"><path d="M27.649,77.89v61.874a8.485,8.485,0,0,0,8.707,8.244H137.631a8.485,8.485,0,0,0,8.707-8.244V77.89Z" fill="url(#linear-gradient)"/><path d="M116.727,59.467,90.985,43.488a7.416,7.416,0,0,0-7.983,0L57.259,59.462,27.526,77.914,57.259,96.32l29.734,18.406L116.727,96.3l29.734-18.386Z" fill="url(#linear-gradient-2)"/><g style="mix-blend-mode:soft-light"><path d="M29.974,145.334a.206.206,0,0,1-.138-.054.217.217,0,0,1-.017-.3l37.085-42.8a.205.205,0,0,1,.294-.018.218.218,0,0,1,.017.3l-37.085,42.8A.2.2,0,0,1,29.974,145.334Z" fill="#fff"/><path d="M144.012,145.334a.2.2,0,0,1-.155-.072l-37.085-42.8a.217.217,0,0,1,.017-.3.205.205,0,0,1,.294.018l37.085,42.8a.218.218,0,0,1-.017.3A.206.206,0,0,1,144.012,145.334Z" fill="#fff"/></g><g clip-path="url(#clip-path)"><path d="M123.913,47.949H40.834a2.784,2.784,0,0,0-2.678,2.806v69.167h97.675V60.369Z" fill="url(#linear-gradient-3)"/><path d="M135.784,60.369l-10.9.1a.955.955,0,0,1-.72-.321,1.06,1.06,0,0,1-.226-.79V48.034Z" fill="#91b3fa"/><path d="M108.541,80.484a20.164,20.164,0,0,1-1.215,7.137,11.814,11.814,0,0,1-3.432,5.078,7.816,7.816,0,0,1-5.148,1.842,6.283,6.283,0,0,1-3.459-.961,5.479,5.479,0,0,1-2.165-2.533H92.7a8.968,8.968,0,0,1-7.261,3.494,9.586,9.586,0,0,1-7.366-2.884,11.116,11.116,0,0,1-2.693-7.9,12.364,12.364,0,0,1,3.538-9.209,12.581,12.581,0,0,1,9.241-3.494,31.2,31.2,0,0,1,5,.447,26.9,26.9,0,0,1,4.5,1.07L97.056,85.82q0,3.763,2.007,3.764,1.689,0,2.693-2.532a18.287,18.287,0,0,0,1-6.623,16.239,16.239,0,0,0-1.769-7.7,12.163,12.163,0,0,0-4.977-5.106,14.972,14.972,0,0,0-7.326-1.761,18.373,18.373,0,0,0-9.268,2.248,14.878,14.878,0,0,0-6.032,6.487,21.786,21.786,0,0,0-2.1,9.792q0,7.476,3.894,11.471T86.469,99.85a33.141,33.141,0,0,0,6.152-.637,39.9,39.9,0,0,0,6.6-1.855v5.2a31.041,31.041,0,0,1-12.541,2.464q-10.032,0-15.643-5.417T65.426,84.547A25.729,25.729,0,0,1,68.291,72.4a21.084,21.084,0,0,1,8.158-8.56,23.66,23.66,0,0,1,12.185-3.1A21.694,21.694,0,0,1,99.01,63.176a17.042,17.042,0,0,1,7.049,6.934A21.108,21.108,0,0,1,108.541,80.484ZM81.505,83.869q0,5.715,4.541,5.715a4.18,4.18,0,0,0,3.617-1.719,11.08,11.08,0,0,0,1.505-5.594l.344-5.986a14.151,14.151,0,0,0-3.037-.3A6.44,6.44,0,0,0,83.34,78.1,8.5,8.5,0,0,0,81.505,83.869Z" fill="url(#linear-gradient-4)"/></g><path d="M31.607,38.747a.406.406,0,0,0-.56-.13.415.415,0,0,0-.13.569,8.358,8.358,0,0,1-1.13,10.024,7.87,7.87,0,0,1-5.64,2.449,7.769,7.769,0,0,1-5.67-2.359,8.362,8.362,0,0,1-.1-11.6,7.891,7.891,0,0,1,5.64-2.448,7.489,7.489,0,0,1,1.7.17.413.413,0,0,0,.16-.81,8.964,8.964,0,0,0-1.86-.19,8.646,8.646,0,0,0-6.21,2.7,9.194,9.194,0,0,0,.1,12.772,8.628,8.628,0,0,0,6.18,2.6h.07a8.64,8.64,0,0,0,6.2-2.7,9.091,9.091,0,0,0,2.53-6.406A9.29,9.29,0,0,0,31.607,38.747Zm0,0a.406.406,0,0,0-.56-.13.415.415,0,0,0-.13.569,8.358,8.358,0,0,1-1.13,10.024,7.87,7.87,0,0,1-5.64,2.449,7.769,7.769,0,0,1-5.67-2.359,8.362,8.362,0,0,1-.1-11.6,7.891,7.891,0,0,1,5.64-2.448,7.489,7.489,0,0,1,1.7.17.413.413,0,0,0,.16-.81,8.964,8.964,0,0,0-1.86-.19,8.646,8.646,0,0,0-6.21,2.7,9.194,9.194,0,0,0,.1,12.772,8.628,8.628,0,0,0,6.18,2.6h.07a8.64,8.64,0,0,0,6.2-2.7,9.091,9.091,0,0,0,2.53-6.406A9.29,9.29,0,0,0,31.607,38.747Zm8.2,2.728a.659.659,0,0,0-.44-.62l-2.54-.869a13.342,13.342,0,0,0-1.48-3.578l1.16-2.488a.674.674,0,0,0-.13-.75l-2.48-2.5a.624.624,0,0,0-.74-.12l-2.4,1.219a12.979,12.979,0,0,0-3.51-1.459l-.89-2.589a.655.655,0,0,0-.61-.439l-3.48.03a.642.642,0,0,0-.61.449l-.85,2.609a12.887,12.887,0,0,0-3.49,1.519L14.9,30.7a.628.628,0,0,0-.73.129l-2.44,2.549a.67.67,0,0,0-.12.749l1.2,2.469a13.8,13.8,0,0,0-1.43,3.6l-2.52.919a.663.663,0,0,0-.43.63l.03,3.568a.657.657,0,0,0,.44.619l2.54.87a13.21,13.21,0,0,0,1.48,3.578l-1.16,2.488a.674.674,0,0,0,.13.75l2.48,2.508a.655.655,0,0,0,.74.12l2.4-1.229a12.979,12.979,0,0,0,3.51,1.459l.89,2.589a.643.643,0,0,0,.61.439l3.49-.03a.64.64,0,0,0,.6-.449l.85-2.609a12.557,12.557,0,0,0,3.49-1.509l2.42,1.179a.627.627,0,0,0,.73-.13l2.44-2.548a.671.671,0,0,0,.12-.75l-1.2-2.468a13.3,13.3,0,0,0,1.42-3.6l2.53-.919a.65.65,0,0,0,.43-.62ZM36.2,45.962l-.05.23a12.507,12.507,0,0,1-1.49,3.768l-.11.19,1.34,2.768L33.607,55.3l-2.72-1.329-.18.12a12.066,12.066,0,0,1-3.66,1.589l-.21.05-.96,2.928-3.25.02-1-2.9-.22-.05a12.06,12.06,0,0,1-3.67-1.53l-.19-.119-2.7,1.369-2.31-2.329,1.29-2.788-.12-.19a13.087,13.087,0,0,1-1.55-3.748l-.05-.22-2.85-.989-.02-3.328,2.83-1.03.05-.219a12.462,12.462,0,0,1,1.49-3.778l.11-.19-1.34-2.768,2.28-2.369,2.72,1.329.18-.13a12.318,12.318,0,0,1,3.66-1.589l.21-.05.96-2.928,3.25-.02,1,2.908.22.05a12.059,12.059,0,0,1,3.67,1.519l.19.12,2.7-1.369,2.31,2.339-1.29,2.778.12.2A12.727,12.727,0,0,1,36.1,40.4l.06.23,2.85.979.02,3.328Zm-5.15-7.345a.415.415,0,0,0-.13.569,8.358,8.358,0,0,1-1.13,10.024,7.87,7.87,0,0,1-5.64,2.449,7.769,7.769,0,0,1-5.67-2.359,8.362,8.362,0,0,1-.1-11.6,7.891,7.891,0,0,1,5.64-2.448,7.489,7.489,0,0,1,1.7.17.413.413,0,0,0,.16-.81,8.964,8.964,0,0,0-1.86-.19,8.646,8.646,0,0,0-6.21,2.7,9.194,9.194,0,0,0,.1,12.772,8.628,8.628,0,0,0,6.18,2.6h.07a8.64,8.64,0,0,0,6.2-2.7,9.091,9.091,0,0,0,2.53-6.406,9.29,9.29,0,0,0-1.28-4.637A.406.406,0,0,0,31.047,38.617Zm.56.13a.406.406,0,0,0-.56-.13.415.415,0,0,0-.13.569,8.358,8.358,0,0,1-1.13,10.024,7.87,7.87,0,0,1-5.64,2.449,7.769,7.769,0,0,1-5.67-2.359,8.362,8.362,0,0,1-.1-11.6,7.891,7.891,0,0,1,5.64-2.448,7.489,7.489,0,0,1,1.7.17.413.413,0,0,0,.16-.81,8.964,8.964,0,0,0-1.86-.19,8.646,8.646,0,0,0-6.21,2.7,9.194,9.194,0,0,0,.1,12.772,8.628,8.628,0,0,0,6.18,2.6h.07a8.64,8.64,0,0,0,6.2-2.7,9.091,9.091,0,0,0,2.53-6.406A9.29,9.29,0,0,0,31.607,38.747Zm0,0a.406.406,0,0,0-.56-.13.415.415,0,0,0-.13.569,8.358,8.358,0,0,1-1.13,10.024,7.87,7.87,0,0,1-5.64,2.449,7.769,7.769,0,0,1-5.67-2.359,8.362,8.362,0,0,1-.1-11.6,7.891,7.891,0,0,1,5.64-2.448,7.489,7.489,0,0,1,1.7.17.413.413,0,0,0,.16-.81,8.964,8.964,0,0,0-1.86-.19,8.646,8.646,0,0,0-6.21,2.7,9.194,9.194,0,0,0,.1,12.772,8.628,8.628,0,0,0,6.18,2.6h.07a8.64,8.64,0,0,0,6.2-2.7,9.091,9.091,0,0,0,2.53-6.406A9.29,9.29,0,0,0,31.607,38.747Z" fill="#fff"/><path d="M39.007,41.605l-2.85-.979-.06-.23a12.727,12.727,0,0,0-1.54-3.738l-.12-.2,1.29-2.778-2.31-2.339-2.7,1.369-.19-.12a12.059,12.059,0,0,0-3.67-1.519l-.22-.05-1-2.908-3.25.02-.96,2.928-.21.05a12.318,12.318,0,0,0-3.66,1.589l-.18.13L14.657,31.5l-2.28,2.369,1.34,2.768-.11.19a12.462,12.462,0,0,0-1.49,3.778l-.05.219-2.83,1.03.02,3.328,2.85.989.05.22a13.087,13.087,0,0,0,1.55,3.748l.12.19-1.29,2.788,2.31,2.329,2.7-1.369.19.119a12.06,12.06,0,0,0,3.67,1.53l.22.05,1,2.9,3.25-.02.96-2.928.21-.05a12.066,12.066,0,0,0,3.66-1.589l.18-.12,2.72,1.329,2.28-2.379-1.34-2.768.11-.19a12.507,12.507,0,0,0,1.49-3.768l.05-.23,2.83-1.029Zm-11.49.88a3.674,3.674,0,0,1-.37,2.718,3.47,3.47,0,0,1-2.13,1.659,3.405,3.405,0,0,1-.89.12,3.463,3.463,0,0,1-1.76-.49,3.6,3.6,0,0,1-1.62-2.189,3.673,3.673,0,0,1,.37-2.718,3.47,3.47,0,0,1,2.13-1.659,3.405,3.405,0,0,1,.89-.12A3.516,3.516,0,0,1,27.517,42.485Zm2.84,7.305a8.64,8.64,0,0,1-6.2,2.7h-.07a8.628,8.628,0,0,1-6.18-2.6,9.194,9.194,0,0,1-.1-12.772,8.646,8.646,0,0,1,6.21-2.7,8.964,8.964,0,0,1,1.86.19.413.413,0,0,1-.16.81,7.489,7.489,0,0,0-1.7-.17,7.891,7.891,0,0,0-5.64,2.448,8.362,8.362,0,0,0,.1,11.6,7.769,7.769,0,0,0,5.67,2.359,7.87,7.87,0,0,0,5.64-2.449,8.358,8.358,0,0,0,1.13-10.024.415.415,0,0,1,.13-.569.406.406,0,0,1,.56.13,9.29,9.29,0,0,1,1.28,4.637A9.091,9.091,0,0,1,30.357,49.79Z" fill="url(#linear-gradient-5)"/><path d="M27.517,42.485a3.516,3.516,0,0,0-3.38-2.679,3.405,3.405,0,0,0-.89.12,3.47,3.47,0,0,0-2.13,1.659,3.673,3.673,0,0,0-.37,2.718,3.6,3.6,0,0,0,1.62,2.189,3.463,3.463,0,0,0,1.76.49,3.405,3.405,0,0,0,.89-.12,3.47,3.47,0,0,0,2.13-1.659A3.674,3.674,0,0,0,27.517,42.485Zm-1.06,2.308a2.693,2.693,0,0,1-1.65,1.269,2.552,2.552,0,0,1-2.03-.289,2.734,2.734,0,0,1-1.25-1.679,2.808,2.808,0,0,1,.28-2.089,2.671,2.671,0,0,1,4.93.689A2.841,2.841,0,0,1,26.457,44.793Z" fill="#fff"/><path d="M26.457,44.793a2.693,2.693,0,0,1-1.65,1.269,2.552,2.552,0,0,1-2.03-.289,2.734,2.734,0,0,1-1.25-1.679,2.808,2.808,0,0,1,.28-2.089,2.671,2.671,0,0,1,4.93.689A2.841,2.841,0,0,1,26.457,44.793Z" fill="url(#linear-gradient-6)"/><path d="M11.707,63.852a4.5,4.5,0,0,0-1.25-1.989.293.293,0,0,0-.43.02.315.315,0,0,0,.03.44,3.8,3.8,0,0,1,1.07,1.719,3.858,3.858,0,0,1-2.45,4.807A3.722,3.722,0,0,1,4,66.33a3.853,3.853,0,0,1,2.45-4.807,3.488,3.488,0,0,1,.78-.16.3.3,0,0,0,.27-.34.3.3,0,0,0-.32-.279,4.093,4.093,0,0,0-.91.189,4.48,4.48,0,0,0-2.85,5.577,4.361,4.361,0,0,0,4.15,3.128,4.131,4.131,0,0,0,1.29-.2A4.489,4.489,0,0,0,11.707,63.852Zm0,0a4.5,4.5,0,0,0-1.25-1.989.293.293,0,0,0-.43.02.315.315,0,0,0,.03.44,3.8,3.8,0,0,1,1.07,1.719,3.858,3.858,0,0,1-2.45,4.807A3.722,3.722,0,0,1,4,66.33a3.853,3.853,0,0,1,2.45-4.807,3.488,3.488,0,0,1,.78-.16.3.3,0,0,0,.27-.34.3.3,0,0,0-.32-.279,4.093,4.093,0,0,0-.91.189,4.48,4.48,0,0,0-2.85,5.577,4.361,4.361,0,0,0,4.15,3.128,4.131,4.131,0,0,0,1.29-.2A4.489,4.489,0,0,0,11.707,63.852Zm3.27.25a.413.413,0,0,0,.15-.47l-.49-1.649a.441.441,0,0,0-.39-.3l-1.23-.03a6.4,6.4,0,0,0-1.11-1.369l.18-1.249a.416.416,0,0,0-.22-.44l-1.48-.8a.41.41,0,0,0-.48.07l-.9.86a6.683,6.683,0,0,0-1.73-.16l-.73-1.01a.414.414,0,0,0-.46-.16l-1.59.52a.43.43,0,0,0-.3.39l-.03,1.259a6.324,6.324,0,0,0-1.33,1.15l-1.22-.19a.4.4,0,0,0-.43.22l-.78,1.519a.439.439,0,0,0,.07.5l.84.92a6.98,6.98,0,0,0-.16,1.769l-.99.749a.445.445,0,0,0-.15.47l.5,1.639a.414.414,0,0,0,.39.3l1.23.04a6.685,6.685,0,0,0,1.11,1.369l-.18,1.249a.416.416,0,0,0,.22.44l1.48.8a.413.413,0,0,0,.48-.07l.89-.87a5.944,5.944,0,0,0,1.73.16l.73,1.019a.422.422,0,0,0,.34.17.487.487,0,0,0,.12-.01l1.6-.52a.406.406,0,0,0,.29-.389l.04-1.269a6.276,6.276,0,0,0,1.33-1.14l1.22.19a.4.4,0,0,0,.43-.22l.78-1.529a.442.442,0,0,0-.07-.49l-.84-.919a6.585,6.585,0,0,0,.15-1.769Zm-1.6.619a5.844,5.844,0,0,1-.17,1.909l-.04.17.98,1.069-.65,1.279-1.41-.219-.11.13a6.045,6.045,0,0,1-1.44,1.229l-.14.09-.05,1.459-1.34.43-.85-1.18L8,71.1a5.611,5.611,0,0,1-1.87-.17l-.16-.04L4.927,71.9l-1.25-.67.22-1.459-.13-.11a5.856,5.856,0,0,1-1.2-1.469l-.08-.15L1.057,68,.637,66.62l1.15-.869-.01-.17a6.186,6.186,0,0,1,.16-1.919l.05-.16-.98-1.07.65-1.279,1.41.22.11-.13a5.857,5.857,0,0,1,1.44-1.229l.14-.09.04-1.459,1.35-.44.84,1.179.17-.01a5.642,5.642,0,0,1,1.87.18l.16.04,1.04-1.009,1.24.67-.21,1.449.13.11a6.113,6.113,0,0,1,1.2,1.479l.08.15,1.43.04.42,1.379-1.15.869Zm-2.92-2.858a.293.293,0,0,0-.43.02.315.315,0,0,0,.03.44,3.8,3.8,0,0,1,1.07,1.719,3.858,3.858,0,0,1-2.45,4.807A3.722,3.722,0,0,1,4,66.33a3.853,3.853,0,0,1,2.45-4.807,3.488,3.488,0,0,1,.78-.16.3.3,0,0,0,.27-.34.3.3,0,0,0-.32-.279,4.093,4.093,0,0,0-.91.189,4.48,4.48,0,0,0-2.85,5.577,4.361,4.361,0,0,0,4.15,3.128,4.131,4.131,0,0,0,1.29-.2,4.508,4.508,0,0,0,1.6-7.575Z" fill="#fff"/><path d="M13.207,66.63a5.844,5.844,0,0,0,.17-1.909l-.01-.17,1.15-.869L14.1,62.3l-1.43-.04-.08-.15a6.113,6.113,0,0,0-1.2-1.479l-.13-.11.21-1.449-1.24-.67-1.04,1.009-.16-.04a5.642,5.642,0,0,0-1.87-.18l-.17.01-.84-1.179-1.35.44-.04,1.459-.14.09a5.857,5.857,0,0,0-1.44,1.229l-.11.13-1.41-.22-.65,1.279.98,1.07-.05.16a6.186,6.186,0,0,0-.16,1.919l.01.17-1.15.869L1.057,68l1.43.04.08.15a5.856,5.856,0,0,0,1.2,1.469l.13.11-.22,1.459,1.25.67,1.04-1.01.16.04A5.611,5.611,0,0,0,8,71.1l.16-.01.85,1.18,1.34-.43.05-1.459.14-.09a6.045,6.045,0,0,0,1.44-1.229l.11-.13,1.41.219.65-1.279-.98-1.069Zm-4.35,2.808a4.131,4.131,0,0,1-1.29.2,4.361,4.361,0,0,1-4.15-3.128,4.48,4.48,0,0,1,2.85-5.577,4.093,4.093,0,0,1,.91-.189.3.3,0,0,1,.32.279.3.3,0,0,1-.27.34,3.488,3.488,0,0,0-.78.16A3.853,3.853,0,0,0,4,66.33a3.722,3.722,0,0,0,4.68,2.519,3.858,3.858,0,0,0,2.45-4.807,3.8,3.8,0,0,0-1.07-1.719.315.315,0,0,1-.03-.44.293.293,0,0,1,.43-.02,4.508,4.508,0,0,1-1.6,7.575Z" fill="url(#linear-gradient-7)"/><path d="M149.387,100.99v8.531c0,.695-.413,1.259-.922,1.259H118.171a1.031,1.031,0,0,0-.9.953l-.544,2.971c-.072.393-.473.426-.579.047l-.7-2.51a.982.982,0,0,0-.862-.81h-1.3c-.51,0-.923-.564-.923-1.259V101.4c0-.691.409-1.252.915-1.258l35.176-.412C148.97,99.726,149.387,100.291,149.387,100.99Z" fill="url(#linear-gradient-8)"/><ellipse cx="117.055" cy="105.309" rx="3.716" ry="3.912" fill="url(#linear-gradient-9)"/><path d="M118.4,103.724a1.257,1.257,0,1,1-2.481,0,1.241,1.241,0,0,1,2.481,0Z" fill="url(#linear-gradient-10)"/><path d="M115.621,107.891h3.028a.734.734,0,0,0,.7-.523l.163-.522a.757.757,0,0,0-.442-.935,5.509,5.509,0,0,0-3.812.043.752.752,0,0,0-.468.907l.126.475A.736.736,0,0,0,115.621,107.891Z" fill="url(#linear-gradient-11)"/><path d="M146.494,106.33a.746.746,0,0,1-.752.74H123.631a.745.745,0,0,1-.751-.74h0a.745.745,0,0,1,.751-.739h22.111a.746.746,0,0,1,.752.739Z" fill="url(#linear-gradient-12)"/><path d="M136.024,108.7a.664.664,0,0,1-.655.672H123.777a.664.664,0,0,1-.656-.672h0a.664.664,0,0,1,.656-.672h11.592a.664.664,0,0,1,.655.672Z" fill="url(#linear-gradient-13)"/><path d="M146.507,108.7a.664.664,0,0,1-.655.672h-8.367a.664.664,0,0,1-.655-.672h0a.664.664,0,0,1,.655-.672h8.367a.664.664,0,0,1,.655.672Z" fill="url(#linear-gradient-14)"/><path d="M135.822,102.742a.932.932,0,0,1-.92.944H123.739a.932.932,0,0,1-.92-.944v-.076a.932.932,0,0,1,.92-.944H134.9a.932.932,0,0,1,.92.944Z" fill="url(#linear-gradient-15)"/><path d="M47.683,105.591c-.007,7.5-.063,33.368-.5,42.525a1.708,1.708,0,0,1-1.521,1.748c-4,.066-18.678.132-25.214-.347a2.894,2.894,0,0,1-2.409-3.086c.034-7.871.211-30.008,1.143-40.129a2.357,2.357,0,0,1,1.94-2.261c4.368-.424,19.124-1.368,24.767-.8A2.224,2.224,0,0,1,47.683,105.591Z" fill="url(#linear-gradient-16)"/><path d="M45.848,107.85c.085,6.056.33,26.2-.046,33.638a1.965,1.965,0,0,1-1.7,1.993c-3.733.177-16.465.466-21.922-.184a2.215,2.215,0,0,1-1.762-2.275c-.144-6.179-.535-24.939-.17-32.294a2.186,2.186,0,0,1,1.814-2.2c4.043-.343,17.581-1.07,22.221-.661A1.9,1.9,0,0,1,45.848,107.85Z" fill="url(#linear-gradient-17)"/><path d="M36.286,104.459h0a.406.406,0,0,1-.35.424c-.946.038-3.612.146-4.8.2a.411.411,0,0,1-.363-.522l.009-.047a.392.392,0,0,1,.328-.341,38.482,38.482,0,0,1,4.843-.155A.405.405,0,0,1,36.286,104.459Z" fill="url(#linear-gradient-18)"/><ellipse cx="33.053" cy="124.736" rx="9.38" ry="9.623" fill="url(#linear-gradient-19)"/><path d="M38.823,127.252a1.7,1.7,0,0,0-.993-1.128l-.674-.275a1.274,1.274,0,0,0-1.513.439l-.6.823a4.827,4.827,0,0,1-3-1.074,5.12,5.12,0,0,1-1.8-2.477.03.03,0,0,1,.011-.033.029.029,0,0,1,.035,0l.542-.743a1.548,1.548,0,0,0-.027-1.853l-.449-.578a1.665,1.665,0,0,0-2.677.04,2.264,2.264,0,0,0-.356.746c-.5,1.8.918,4.529,3.53,6.535s5.557,2.629,7.1,1.633a2.215,2.215,0,0,0,.6-.562A1.749,1.749,0,0,0,38.823,127.252Z" fill="url(#linear-gradient-20)"/><path d="M21.889,148.185A2.923,2.923,0,0,1,19,145.247v-5.02a.1.1,0,1,1,.2,0v5.02a2.715,2.715,0,0,0,2.68,2.725.106.106,0,0,1,.106.106A.1.1,0,0,1,21.889,148.185Z" fill="url(#linear-gradient-21)"/><path d="M105.871,21.988C105.735,10,115.13.14,126.812,0a20.679,20.679,0,0,1,12.029,3.671l1.2-1.253a.611.611,0,0,1,.6-.169.631.631,0,0,1,.442.447l2.107,7.856a.652.652,0,0,1-.156.615.614.614,0,0,1-.6.169l-7.685-2.056a.633.633,0,0,1-.442-.448.647.647,0,0,1,.157-.616L135.825,6.8a16.593,16.593,0,0,0-8.965-2.5,17.239,17.239,0,0,0-16.79,17.618,17.209,17.209,0,0,0,17.183,17.2,16.66,16.66,0,0,0,11.824-5.143,17.613,17.613,0,0,0,4.965-12.137.7.7,0,0,1,.612-.708l2.961-.035a.607.607,0,0,1,.421.238l.024.026a.836.836,0,0,1,.184.533,21.892,21.892,0,0,1-6.172,15.16,20.8,20.8,0,0,1-14.77,6.414C115.62,43.609,106.006,33.972,105.871,21.988ZM142.755,10.72a.152.152,0,0,0-.006-.042l-2.107-7.856a.163.163,0,0,0-.114-.116.16.16,0,0,0-.156.044L138.9,4.282l-.158-.111a20.23,20.23,0,0,0-11.924-3.7c-11.429.136-20.62,9.785-20.488,21.51S115.867,43.136,127.3,43a20.353,20.353,0,0,0,14.451-6.275,21.415,21.415,0,0,0,6.038-14.831h0a.4.4,0,0,0-.051-.2l-.026-.026a.709.709,0,0,0-.1-.1l-2.945.035c-.063,0-.157.128-.158.242a18.084,18.084,0,0,1-5.1,12.463,17.107,17.107,0,0,1-12.144,5.283,17.675,17.675,0,0,1-17.647-17.67A17.7,17.7,0,0,1,126.855,3.83a17.046,17.046,0,0,1,9.457,2.729l.242.156-1.76,1.832a.169.169,0,0,0-.04.161.163.163,0,0,0,.114.117l7.686,2.056a.16.16,0,0,0,.155-.043A.169.169,0,0,0,142.755,10.72Z" fill="url(#linear-gradient-22)"/><path d="M120.584,26.013h-6.105V24.7l2.192-2.274q.973-1.023,1.273-1.418a3.178,3.178,0,0,0,.43-.732,1.922,1.922,0,0,0,.131-.7,1.03,1.03,0,0,0-.29-.8,1.1,1.1,0,0,0-.773-.263,2.171,2.171,0,0,0-.986.239,5.069,5.069,0,0,0-1,.68l-1-1.22a6.548,6.548,0,0,1,1.069-.8,3.857,3.857,0,0,1,.926-.359,4.62,4.62,0,0,1,1.123-.126,3.258,3.258,0,0,1,1.446.307,2.275,2.275,0,0,1,1.32,2.12,3.172,3.172,0,0,1-.212,1.162,4.471,4.471,0,0,1-.657,1.112,16.314,16.314,0,0,1-1.568,1.624l-1.123,1.084v.086h3.805Z" fill="url(#linear-gradient-23)"/><path d="M127.764,24.156h-1.051v1.857h-1.8V24.156h-3.728V22.838l3.829-5.785h1.7v5.632h1.051Zm-2.855-1.471v-1.52q0-.38.03-1.1t.047-.84h-.047a6.933,6.933,0,0,1-.532.981l-1.6,2.482Z" fill="url(#linear-gradient-24)"/><path d="M132.949,17.053l-3.255,8.96h-1.655l3.255-8.96Z" fill="url(#linear-gradient-25)"/><path d="M134.365,26.013l3.279-7.354h-4.307V17.065H139.6v1.189l-3.3,7.759Z" fill="url(#linear-gradient-26)"/><path d="M144.439,21.381l3.375-.008.148.489s.8,8.5-7.446,16.344c0,0-6.246,6.516-17.55,4.538,0,0-9.834-1.3-14.995-12.04a22.818,22.818,0,0,1,3.614-23.57A20.445,20.445,0,0,1,130.01.443a20.826,20.826,0,0,1,8.715,3.451l.845-.509.705-.747s.315-.23.411-.1.751,2.282.828,2.559,1.245,4.756,1.3,4.947a2.878,2.878,0,0,1,.117.678.588.588,0,0,1-.066.325.368.368,0,0,1-.354.125c-.153-.028-.325-.124-.756-.228s-4.487-1.222-4.764-1.3-1.722-.454-1.923-.53-.364-.114-.44-.238a.39.39,0,0,1-.087-.277.88.88,0,0,1,.19-.4c.115-.144.84-.776,1.021-.929a1.859,1.859,0,0,0,.372-.46.48.48,0,0,0,.057-.153s-2.135-1.122-2.671-1.331a26.049,26.049,0,0,0-2.88-.9,22.506,22.506,0,0,0-5.354-.284A40.533,40.533,0,0,0,120.2,5.493a45.953,45.953,0,0,0-4.535,2.992c-.3.4-3,3.045-3.175,3.638s-1.779,3.855-1.959,4.677a31.168,31.168,0,0,0-.7,4.932,34.238,34.238,0,0,0,.652,4.862,40.333,40.333,0,0,0,2.028,4.687,41.649,41.649,0,0,0,3.422,3.929c.728.562,3.171,2.477,4.711,2.9s4.947,1.6,7.556,1.186,5.763-1,7.2-2.176c0,0,3.483-2.071,4.332-3.488,0,0,2.959-3.808,3.144-5.069a13.869,13.869,0,0,0,1.217-4.776l.318-2.353Z" fill="url(#linear-gradient-27)"/></g></g></g></svg>