<svg xmlns="http://www.w3.org/2000/svg" xmlns:xlink="http://www.w3.org/1999/xlink" viewBox="0 0 148.405 150"><defs><linearGradient id="linear-gradient" x1="49.599" y1="152.018" x2="67.001" y2="102.162" gradientUnits="userSpaceOnUse"><stop offset="0" stop-color="#53d8ff"/><stop offset="1" stop-color="#3840f7"/></linearGradient><linearGradient id="linear-gradient-2" x1="103.98" y1="-16.276" x2="49.779" y2="144.496" xlink:href="#linear-gradient"/><linearGradient id="linear-gradient-3" x1="77.598" y1="110.592" x2="70.187" y2="133.073" xlink:href="#linear-gradient"/><linearGradient id="linear-gradient-4" x1="77.598" y1="105.734" x2="70.187" y2="128.215" xlink:href="#linear-gradient"/><linearGradient id="linear-gradient-5" x1="77.598" y1="100.876" x2="70.187" y2="123.357" xlink:href="#linear-gradient"/><linearGradient id="linear-gradient-6" x1="88.306" y1="-13.392" x2="74.732" y2="22.303" xlink:href="#linear-gradient"/><linearGradient id="linear-gradient-7" x1="86.636" y1="-13.857" x2="73.062" y2="21.837" xlink:href="#linear-gradient"/><linearGradient id="linear-gradient-8" x1="97.863" y1="13.342" x2="58.189" y2="174.046" gradientUnits="userSpaceOnUse"><stop offset="0" stop-color="#a737d5"/><stop offset="1" stop-color="#ef497a"/></linearGradient><linearGradient id="linear-gradient-9" x1="77.862" y1="80.646" x2="67.092" y2="113.314" xlink:href="#linear-gradient"/><linearGradient id="linear-gradient-10" x1="48.354" y1="60.071" x2="47.545" y2="97.638" gradientUnits="userSpaceOnUse"><stop offset="0" stop-color="#fdf53f"/><stop offset="1" stop-color="#d93c65"/></linearGradient><linearGradient id="linear-gradient-11" x1="58.204" y1="60.277" x2="57.394" y2="97.844" xlink:href="#linear-gradient"/><linearGradient id="linear-gradient-12" x1="68.053" y1="60.483" x2="67.243" y2="98.05" xlink:href="#linear-gradient-10"/><linearGradient id="linear-gradient-13" x1="92.104" y1="60.98" x2="91.292" y2="98.655" xlink:href="#linear-gradient"/><linearGradient id="linear-gradient-14" x1="77.862" y1="43.849" x2="67.092" y2="76.517" xlink:href="#linear-gradient"/><linearGradient id="linear-gradient-15" x1="48.354" y1="23.274" x2="47.545" y2="60.841" xlink:href="#linear-gradient"/><linearGradient id="linear-gradient-16" x1="58.204" y1="23.479" x2="57.394" y2="61.047" xlink:href="#linear-gradient"/><linearGradient id="linear-gradient-17" x1="68.053" y1="23.685" x2="67.243" y2="61.252" xlink:href="#linear-gradient-10"/><linearGradient id="linear-gradient-18" x1="94.041" y1="19.035" x2="84.756" y2="47.631" xlink:href="#linear-gradient"/><linearGradient id="linear-gradient-19" x1="3842.434" y1="296.238" x2="3903.959" y2="296.238" gradientTransform="translate(1406.531 -3551.191) rotate(106.356)" xlink:href="#linear-gradient-10"/><linearGradient id="linear-gradient-20" x1="3776.029" y1="219.282" x2="3817.888" y2="219.282" gradientTransform="translate(1406.531 -3551.191) rotate(106.356)" xlink:href="#linear-gradient-10"/><linearGradient id="linear-gradient-21" x1="441.28" y1="69.535" x2="448.366" y2="76.936" gradientTransform="translate(-379.339)" gradientUnits="userSpaceOnUse"><stop offset="0" stop-color="#2b3582"/><stop offset="1" stop-color="#150e42"/></linearGradient><linearGradient id="linear-gradient-22" x1="430.251" y1="62.27" x2="437.593" y2="34.615" gradientTransform="translate(-379.339)" gradientUnits="userSpaceOnUse"><stop offset="0" stop-color="#cb236d"/><stop offset="1" stop-color="#4c246d"/></linearGradient><linearGradient id="linear-gradient-23" x1="450.758" y1="87.934" x2="464.213" y2="97.809" xlink:href="#linear-gradient-21"/><linearGradient id="linear-gradient-24" x1="457.128" y1="82.899" x2="428.841" y2="59.793" gradientTransform="translate(-379.339)" gradientUnits="userSpaceOnUse"><stop offset="0" stop-color="#fdf53f"/><stop offset="0.665" stop-color="#e57a58"/><stop offset="1" stop-color="#d93c65"/></linearGradient><linearGradient id="linear-gradient-25" x1="464.872" y1="99.259" x2="436.543" y2="76.118" xlink:href="#linear-gradient-24"/><linearGradient id="linear-gradient-26" x1="450.982" y1="69.33" x2="422.657" y2="80.014" xlink:href="#linear-gradient-22"/><linearGradient id="linear-gradient-27" x1="428.798" y1="51.971" x2="419.81" y2="62.659" gradientTransform="translate(-379.339)" gradientUnits="userSpaceOnUse"><stop offset="0" stop-color="#f9b776"/><stop offset="1" stop-color="#f47960"/></linearGradient><linearGradient id="linear-gradient-28" x1="403.202" y1="31.986" x2="417.685" y2="82.795" xlink:href="#linear-gradient-24"/><linearGradient id="linear-gradient-29" x1="418.235" y1="61.694" x2="436.584" y2="36.591" xlink:href="#linear-gradient-27"/><linearGradient id="linear-gradient-30" x1="407.018" y1="41.217" x2="407.682" y2="35.24" xlink:href="#linear-gradient-27"/><linearGradient id="linear-gradient-31" x1="410.599" y1="36.004" x2="407.667" y2="26.331" xlink:href="#linear-gradient-27"/><linearGradient id="linear-gradient-32" x1="407.958" y1="18.261" x2="410.679" y2="33.782" xlink:href="#linear-gradient-21"/><linearGradient id="linear-gradient-33" x1="407.511" y1="36.929" x2="404.578" y2="27.256" xlink:href="#linear-gradient-27"/><linearGradient id="linear-gradient-34" x1="431.862" y1="56.083" x2="445.812" y2="56.083" xlink:href="#linear-gradient-21"/><linearGradient id="linear-gradient-35" x1="443.523" y1="50.24" x2="435.118" y2="58.769" gradientTransform="translate(-379.339)" xlink:href="#linear-gradient-10"/><linearGradient id="linear-gradient-36" x1="433.556" y1="62.048" x2="422.4" y2="65.105" xlink:href="#linear-gradient-21"/></defs><g id="Layer_2" data-name="Layer 2"><g id="Layer_6" data-name="Layer 6"><rect x="36.032" width="80.9" height="150" rx="16.402" fill="url(#linear-gradient)"/><path d="M116.932,126.079V5.357A5.444,5.444,0,0,0,111.407,0H41.558a5.444,5.444,0,0,0-5.526,5.357V126.079Z" fill="url(#linear-gradient-2)"/><rect x="45.326" y="111.263" width="63.381" height="2.186" rx="0.457" fill="url(#linear-gradient-3)"/><rect x="45.326" y="106.405" width="63.381" height="2.186" rx="0.457" fill="url(#linear-gradient-4)"/><rect x="45.326" y="101.547" width="63.381" height="2.186" rx="0.457" fill="url(#linear-gradient-5)"/><rect x="45.326" y="15.203" width="63.381" height="2.186" rx="0.457" fill="url(#linear-gradient-6)"/><rect x="45.326" y="10.346" width="63.381" height="2.186" rx="0.457" fill="url(#linear-gradient-7)"/><rect x="45.326" y="96.69" width="63.381" height="2.186" rx="0.457" fill="url(#linear-gradient-8)"/><rect x="45.326" y="76.287" width="63.381" height="13.845" rx="2.833" fill="url(#linear-gradient-9)"/><ellipse cx="48.29" cy="63.04" rx="2.964" ry="2.874" fill="url(#linear-gradient-10)"/><ellipse cx="58.144" cy="63.04" rx="2.964" ry="2.874" fill="url(#linear-gradient-11)"/><ellipse cx="67.998" cy="63.04" rx="2.964" ry="2.874" fill="url(#linear-gradient-12)"/><path d="M105.785,66.01H77.017l-1.545-5.941h30.313a2.879,2.879,0,0,1,2.922,2.834v.273A2.879,2.879,0,0,1,105.785,66.01Z" fill="url(#linear-gradient-13)"/><rect x="45.326" y="39.49" width="63.381" height="13.845" rx="2.833" fill="url(#linear-gradient-14)"/><ellipse cx="48.29" cy="26.242" rx="2.964" ry="2.874" fill="url(#linear-gradient-15)"/><ellipse cx="58.144" cy="26.242" rx="2.964" ry="2.874" fill="url(#linear-gradient-16)"/><ellipse cx="67.998" cy="26.242" rx="2.964" ry="2.874" fill="url(#linear-gradient-17)"/><path d="M105.785,29.212H77.017l-1.545-5.94h30.313a2.879,2.879,0,0,1,2.922,2.834v.273A2.878,2.878,0,0,1,105.785,29.212Z" fill="url(#linear-gradient-18)"/><path d="M108.187,145.718H44.778a2.614,2.614,0,0,1-2.673-2.544V128.115a.244.244,0,0,1,.488,0v15.059a2.133,2.133,0,0,0,2.185,2.071h63.409a2.132,2.132,0,0,0,2.184-2.071v-3.158a.245.245,0,0,1,.489,0v3.158A2.614,2.614,0,0,1,108.187,145.718Z" fill="#fff"/><path d="M44.608,53.494a.506.506,0,0,0-.571.047l-4.582,3.781a26.937,26.937,0,0,0-8.4-1.159L27.736,51.3a.5.5,0,0,0-.536-.2l-6.988,1.743a.485.485,0,0,0-.37.426l-.482,5.81a26.159,26.159,0,0,0-6.786,4.947L6.68,62.858a.5.5,0,0,0-.524.225L2.485,69.107a.467.467,0,0,0,.05.554l3.9,4.442a24.673,24.673,0,0,0-1.2,8.149L.222,85.465a.471.471,0,0,0-.206.519l1.8,6.776a.49.49,0,0,0,.439.358l5.993.468a25.5,25.5,0,0,0,5.1,6.579l-1.2,5.714a.476.476,0,0,0,.233.509l6.213,3.558a.508.508,0,0,0,.572-.047l4.581-3.781a26.94,26.94,0,0,0,8.406,1.159l3.314,4.864a.5.5,0,0,0,.535.2l6.989-1.743a.484.484,0,0,0,.369-.426l.482-5.81a26.159,26.159,0,0,0,6.786-4.947l5.894,1.168a.5.5,0,0,0,.524-.226l3.671-6.024a.469.469,0,0,0-.049-.554l-3.9-4.442a24.673,24.673,0,0,0,1.2-8.149l5.016-3.213a.473.473,0,0,0,.207-.519l-1.8-6.776a.489.489,0,0,0-.439-.358l-5.993-.468a25.438,25.438,0,0,0-5.1-6.578l1.205-5.715a.473.473,0,0,0-.233-.508Z" fill="url(#linear-gradient-19)"/><path d="M31.61,88.455A6.992,6.992,0,0,1,25.5,84.944a6.641,6.641,0,0,1,2.775-9.139,7.1,7.1,0,0,1,5.288-.547A6.863,6.863,0,0,1,37.7,78.5a6.639,6.639,0,0,1-2.775,9.139A7.084,7.084,0,0,1,31.61,88.455Zm-.02-12.426a5.976,5.976,0,0,0-2.8.7h0a5.605,5.605,0,0,0-2.344,7.716,5.968,5.968,0,0,0,7.959,2.272A5.606,5.606,0,0,0,36.75,79a5.8,5.8,0,0,0-3.494-2.734A6.055,6.055,0,0,0,31.59,76.029Zm-3.058.237h0Z" fill="#fff"/><path d="M31.5,99.267a18.267,18.267,0,0,1-9.1-2.428A17.354,17.354,0,0,1,14.145,86.19a16.92,16.92,0,0,1-.568-4.331A17.541,17.541,0,0,1,27.06,65h0a18.606,18.606,0,0,1,3.573-.53l.208-.009.042,1.047a17.514,17.514,0,0,0-3.554.507h0A16.183,16.183,0,0,0,22.95,95.937,17.213,17.213,0,0,0,35.735,97.7a16.713,16.713,0,0,0,10.322-7.521,15.818,15.818,0,0,0,1.814-12.4A16.221,16.221,0,0,0,43.4,70.223l.759-.746a17.263,17.263,0,0,1,4.761,8.041,16.829,16.829,0,0,1-1.93,13.19,17.793,17.793,0,0,1-10.984,8A18.6,18.6,0,0,1,31.5,99.267Z" fill="#fff"/><path d="M135.758,11.036a.346.346,0,0,0-.389.033l-3.117,2.572a18.357,18.357,0,0,0-5.719-.789l-2.255-3.309a.342.342,0,0,0-.364-.136l-4.755,1.186a.328.328,0,0,0-.251.289l-.328,3.953a17.792,17.792,0,0,0-4.617,3.367l-4.01-.8a.34.34,0,0,0-.357.154l-2.5,4.1a.318.318,0,0,0,.033.377l2.653,3.022a16.8,16.8,0,0,0-.814,5.545l-3.412,2.186a.322.322,0,0,0-.141.353l1.223,4.61a.335.335,0,0,0,.3.244l4.077.318a17.35,17.35,0,0,0,3.472,4.476l-.819,3.888a.323.323,0,0,0,.158.346l4.227,2.421a.343.343,0,0,0,.389-.033l3.117-2.572a18.357,18.357,0,0,0,5.719.789l2.255,3.309a.34.34,0,0,0,.364.136l4.755-1.186a.327.327,0,0,0,.251-.289l.328-3.953a17.792,17.792,0,0,0,4.617-3.367l4.01.795a.341.341,0,0,0,.357-.154l2.5-4.1a.318.318,0,0,0-.033-.377l-2.653-3.022a16.8,16.8,0,0,0,.813-5.545l3.413-2.186a.32.32,0,0,0,.14-.353l-1.223-4.61a.332.332,0,0,0-.3-.243l-4.077-.318a17.355,17.355,0,0,0-3.472-4.476l.819-3.888a.321.321,0,0,0-.158-.346Z" fill="url(#linear-gradient-20)"/><path d="M126.914,34.823a4.758,4.758,0,0,1-4.158-2.389,4.517,4.517,0,0,1,1.888-6.218,4.827,4.827,0,0,1,3.6-.372,4.67,4.67,0,0,1,2.815,2.2,4.519,4.519,0,0,1-1.888,6.218A4.826,4.826,0,0,1,126.914,34.823Zm-.013-8.454a4.057,4.057,0,0,0-1.905.474h0a3.813,3.813,0,0,0-1.594,5.25,4.062,4.062,0,0,0,5.415,1.546,3.815,3.815,0,0,0,1.594-5.251,3.943,3.943,0,0,0-2.377-1.86A4.149,4.149,0,0,0,126.9,26.369Zm-2.081.161h0Z" fill="#fff"/><path d="M126.84,42.179a12.435,12.435,0,0,1-6.192-1.652,11.81,11.81,0,0,1-5.616-7.245,11.452,11.452,0,0,1-.387-2.947,11.935,11.935,0,0,1,9.173-11.472h0a12.7,12.7,0,0,1,2.431-.361l.142-.006.029.713a11.828,11.828,0,0,0-2.419.345h0a11.01,11.01,0,0,0-2.979,20.359,11.713,11.713,0,0,0,8.7,1.2,11.377,11.377,0,0,0,7.024-5.117,10.772,10.772,0,0,0,1.234-8.433,11.04,11.04,0,0,0-3.044-5.142l.517-.507a11.752,11.752,0,0,1,3.239,5.471,11.454,11.454,0,0,1-1.313,8.973A12.108,12.108,0,0,1,129.9,41.8,12.662,12.662,0,0,1,126.84,42.179Z" fill="#fff"/><path d="M59.946,65.744s-1.97.1-2.212,4.09a23.547,23.547,0,0,0,10.739,4.988c.463.072-.648-3.111-.815-3.542C66.864,69.228,64.361,67.906,59.946,65.744Z" fill="url(#linear-gradient-21)"/><path d="M37.758,61.055h4.158S54.676,47.189,63.045,45.79c0,0,5.825,7.317-.311,20.988a2.042,2.042,0,0,1-2.9.941,1.645,1.645,0,0,1-.664-.778l.494-11.673S48.776,64.634,46.884,66.442,35.376,67.148,37.758,61.055Z" fill="url(#linear-gradient-22)"/><path d="M77.951,90.165a15.753,15.753,0,0,0-8.525-3.67l-1.355.815a14.571,14.571,0,0,0,2.443,2.579,17.19,17.19,0,0,0,5.549,2.2C77.868,92.322,78.135,91.248,77.951,90.165Z" fill="url(#linear-gradient-23)"/><path d="M67.658,71.28c-1.073.341-1.545,1.837-4.268.848a24.238,24.238,0,0,1-5.6-2.9c-.022.193-.041.394-.054.609,0,0,4.817,4.508,10.988,5.467a.607.607,0,0,0,.663-.814A15.147,15.147,0,0,0,67.658,71.28Z" fill="url(#linear-gradient-24)"/><path d="M79.264,91.448a14.377,14.377,0,0,0-1.313-1.283c.184,1.083-.083,2.157-1.888,1.92a17.19,17.19,0,0,1-5.549-2.2,12.1,12.1,0,0,0,8.078,3.051A.9.9,0,0,0,79.264,91.448Z" fill="url(#linear-gradient-25)"/><path d="M37.91,64.014l19.469.208s11.118,9.05,13.135,22.85c0,0,.334,1.015-1.675,1.189a38.266,38.266,0,0,1-11.1-11.956c-5.374-9.364-16.021-5.149-16.021-5.149-5.115,1.111-9.186.7-12.166-3.814Z" fill="url(#linear-gradient-26)"/><path d="M38.37,48.584s2.1,10.334,12.365,14.422l3.653-.423.862,1.352-8.569.269a23.319,23.319,0,0,1-11.2-10.632C35.349,53.315,33.212,48.974,38.37,48.584Z" fill="url(#linear-gradient-27)"/><path d="M39.493,63.845a54.457,54.457,0,0,1-2.9-12.567,27.391,27.391,0,0,1,2.833-2.111.769.769,0,0,0,.308-1.005,59.7,59.7,0,0,0-6.01-8.135c-1.973-.484-10.064-4.269-15.762,3.4-2.446,3.291.485,13.423,11.58,23.915A10.944,10.944,0,0,0,39.493,63.845Z" fill="url(#linear-gradient-28)"/><path d="M30.31,52.674s6.621,7.714,15.087,8.842c0,0,2.188-1.962,3.815-1.262s3.858,3.794,3.858,3.794H42.2s-10.279-.357-15.414-6.489C27.2,55.413,28.436,54.132,30.31,52.674Z" fill="url(#linear-gradient-29)"/><path d="M26.447,34.617,25,39.371a.519.519,0,0,0,.206.582,5.474,5.474,0,0,0,5.022.5.778.778,0,0,0,.507-.666l.343-4.142Z" fill="url(#linear-gradient-30)"/><path d="M34.93,30.766s-.712,4.929-2.636,6.444-5.673.375-6.939-3.341l2.523-6.352Z" fill="url(#linear-gradient-31)"/><path d="M27.593,31.628a.249.249,0,0,0,.323-.2,6.29,6.29,0,0,1,.594-1.969s-.184-.646,1.661.331,4.614,2.411,6.245,1.557c1.591-.833,3.2-5.026-1-4.249a.246.246,0,0,1-.3-.255,2.508,2.508,0,0,0-1.65-2.783,2.37,2.37,0,0,0-2.707.611.249.249,0,0,1-.386-.006,2.882,2.882,0,0,0-3.528-1.045c-1.506.653-1.74,1.566-1.715,2.134a.247.247,0,0,1-.353.232,1.5,1.5,0,0,0-1.914.559c-.982,1.211.422,2.261.843,2.537a.245.245,0,0,1,.113.2c0,.63.1,3.378,1.5,4.928a.252.252,0,0,0,.416-.071l1.078-2.526a.25.25,0,0,1,.306-.139Z" fill="url(#linear-gradient-32)"/><path d="M27.616,32.14s-.658-2.637-1.658-1.781.261,2.741,1.406,3.1Z" fill="url(#linear-gradient-33)"/><path d="M52.522,64.646,57.4,48.632a1.658,1.658,0,0,1,1.481-1.163l6.589-.444a.923.923,0,0,1,.946,1.222L60.963,63.54a1.366,1.366,0,0,1-1.154.894l-6.489.709Z" fill="url(#linear-gradient-34)"/><path d="M61.524,54.06c-.365.723-.994,1.147-1.406.946s-.45-.95-.086-1.673.994-1.148,1.406-.947S61.888,53.336,61.524,54.06Z" fill="url(#linear-gradient-35)"/><path d="M53.32,65.143h-.032l-13.826-.688a.61.61,0,1,1,.063-1.218l13.826.688a.61.61,0,0,1-.031,1.219Z" fill="url(#linear-gradient-36)"/><path d="M36.6,51.453h0a.177.177,0,0,1-.178-.176,28.4,28.4,0,0,0-1.113-6.634.174.174,0,0,1,.121-.217.178.178,0,0,1,.221.119,28.764,28.764,0,0,1,1.128,6.733A.176.176,0,0,1,36.6,51.453Z" fill="#e78456"/><path d="M30.31,52.85a.181.181,0,0,1-.141-.067,33.676,33.676,0,0,1-4.1-6.429.174.174,0,0,1,.1-.228.179.179,0,0,1,.231.1,34.129,34.129,0,0,0,4.053,6.341.173.173,0,0,1-.03.246A.177.177,0,0,1,30.31,52.85Z" fill="#e78456"/><path d="M26.078,58.649l-.132-.056c-4.4-1.853-7.112-7.013-7.139-7.065a.175.175,0,0,1,.078-.236.179.179,0,0,1,.24.076c.026.051,2.629,5,6.829,6.846l.418-.582a.179.179,0,0,1,.249-.042.174.174,0,0,1,.043.245Z" fill="#e78456"/></g></g></svg>