<svg xmlns="http://www.w3.org/2000/svg" xmlns:xlink="http://www.w3.org/1999/xlink" viewBox="0 0 149.346 149.967"><defs><linearGradient id="linear-gradient" x1="40.645" y1="122.129" x2="83.422" y2="122.129" gradientUnits="userSpaceOnUse"><stop offset="0" stop-color="#b37cff"/><stop offset="1" stop-color="#f895e7"/></linearGradient><linearGradient id="linear-gradient-2" x1="40.645" y1="90.074" x2="93.175" y2="90.074" xlink:href="#linear-gradient"/><linearGradient id="linear-gradient-3" x1="39.594" y1="56.587" x2="94.045" y2="56.587" xlink:href="#linear-gradient"/><linearGradient id="linear-gradient-4" x1="44.715" y1="71.755" x2="89.214" y2="71.755" gradientUnits="userSpaceOnUse"><stop offset="0" stop-color="#a737d5"/><stop offset="1" stop-color="#ef497a"/></linearGradient><linearGradient id="linear-gradient-5" x1="44.393" y1="103.63" x2="77.608" y2="103.63" xlink:href="#linear-gradient-4"/><linearGradient id="linear-gradient-6" x1="40.759" y1="77.797" x2="93.421" y2="77.797" gradientUnits="userSpaceOnUse"><stop offset="0" stop-color="#cb236d"/><stop offset="1" stop-color="#4c246d"/></linearGradient><linearGradient id="linear-gradient-7" x1="40.826" y1="110.193" x2="76.667" y2="110.193" xlink:href="#linear-gradient-6"/><linearGradient id="linear-gradient-8" x1="40.714" y1="43.792" x2="93.422" y2="43.792" xlink:href="#linear-gradient-4"/><linearGradient id="linear-gradient-9" x1="76.262" y1="110.942" x2="110.089" y2="110.942" gradientUnits="userSpaceOnUse"><stop offset="0" stop-color="#53d8ff"/><stop offset="1" stop-color="#3840f7"/></linearGradient><linearGradient id="linear-gradient-10" x1="131.934" y1="58.226" x2="144.405" y2="58.226" xlink:href="#linear-gradient-9"/><linearGradient id="linear-gradient-11" x1="131.922" y1="63.403" x2="144.388" y2="63.403" xlink:href="#linear-gradient-9"/><linearGradient id="linear-gradient-12" x1="136.436" y1="45.107" x2="139.903" y2="45.107" xlink:href="#linear-gradient-9"/><linearGradient id="linear-gradient-13" x1="135.554" y1="43.924" x2="140.787" y2="43.924" xlink:href="#linear-gradient-9"/><linearGradient id="linear-gradient-14" x1="134.519" y1="42.425" x2="141.823" y2="42.425" xlink:href="#linear-gradient-9"/><linearGradient id="linear-gradient-15" x1="138.077" y1="140.54" x2="145.427" y2="140.54" gradientUnits="userSpaceOnUse"><stop offset="0" stop-color="#2b3582"/><stop offset="1" stop-color="#150e42"/></linearGradient><linearGradient id="linear-gradient-16" x1="136.057" y1="143.584" x2="147.15" y2="143.584" xlink:href="#linear-gradient-15"/><linearGradient id="linear-gradient-17" x1="133.859" y1="146.762" x2="149.346" y2="146.762" xlink:href="#linear-gradient-15"/><linearGradient id="linear-gradient-18" x1="36.557" y1="26.095" x2="38.959" y2="26.095" gradientUnits="userSpaceOnUse"><stop offset="0" stop-color="#f9ed32"/><stop offset="0.109" stop-color="#f8da31"/><stop offset="0.535" stop-color="#f4962d"/><stop offset="0.843" stop-color="#f26a2a"/><stop offset="1" stop-color="#f15a29"/></linearGradient><linearGradient id="linear-gradient-19" x1="36.548" y1="35.653" x2="38.951" y2="35.653" xlink:href="#linear-gradient-18"/><linearGradient id="Orange_Yellow" x1="31.56" y1="15.926" x2="43.315" y2="15.926" gradientUnits="userSpaceOnUse"><stop offset="0" stop-color="#fff33b"/><stop offset="0.04" stop-color="#fee72e"/><stop offset="0.117" stop-color="#fed51b"/><stop offset="0.196" stop-color="#fdca10"/><stop offset="0.281" stop-color="#fdc70c"/><stop offset="0.669" stop-color="#f3903f"/><stop offset="0.888" stop-color="#ed683c"/><stop offset="1" stop-color="#e93e3a"/></linearGradient><linearGradient id="linear-gradient-20" x1="31.426" y1="15.961" x2="43.485" y2="15.961" xlink:href="#linear-gradient-9"/><linearGradient id="linear-gradient-21" x1="33.048" y1="16.279" x2="41.862" y2="16.279" xlink:href="#linear-gradient-9"/><linearGradient id="linear-gradient-22" x1="33.048" y1="18.12" x2="41.862" y2="18.12" xlink:href="#linear-gradient-9"/><linearGradient id="linear-gradient-23" x1="33.048" y1="19.574" x2="41.862" y2="19.574" xlink:href="#linear-gradient-9"/><linearGradient id="linear-gradient-24" x1="31.832" y1="31.231" x2="43.662" y2="31.231" xlink:href="#linear-gradient-9"/><linearGradient id="linear-gradient-25" x1="37.562" y1="30.955" x2="37.932" y2="30.955" xlink:href="#linear-gradient-9"/><linearGradient id="linear-gradient-26" x1="37.562" y1="23.22" x2="37.932" y2="23.22" xlink:href="#linear-gradient-9"/><linearGradient id="linear-gradient-27" x1="36.403" y1="26.121" x2="39.091" y2="26.121" xlink:href="#linear-gradient-9"/><linearGradient id="linear-gradient-28" x1="36.403" y1="35.697" x2="39.091" y2="35.697" xlink:href="#linear-gradient-9"/><linearGradient id="linear-gradient-29" x1="7.171" y1="55.537" x2="20.565" y2="55.537" xlink:href="#linear-gradient-9"/><linearGradient id="linear-gradient-30" y1="105.949" x2="6.576" y2="105.949" gradientUnits="userSpaceOnUse"><stop offset="0" stop-color="#fdf53f"/><stop offset="1" stop-color="#d93c65"/></linearGradient><linearGradient id="linear-gradient-31" x1="12.382" y1="97.871" x2="17.579" y2="97.871" xlink:href="#linear-gradient-6"/><linearGradient id="linear-gradient-32" x1="12.851" y1="111.468" x2="19.875" y2="111.468" xlink:href="#linear-gradient-6"/><linearGradient id="linear-gradient-33" x1="72.591" y1="13.458" x2="97.528" y2="13.458" xlink:href="#linear-gradient-30"/><linearGradient id="linear-gradient-34" x1="3707.767" y1="446.867" x2="3736.17" y2="446.867" gradientTransform="translate(1570.124 -3333.743) rotate(106.356)" xlink:href="#linear-gradient-30"/><linearGradient id="linear-gradient-35" x1="-7624.595" y1="95.384" x2="-7620.011" y2="105.813" gradientTransform="matrix(-1, 0, 0, 1, -7548.778, 0)" gradientUnits="userSpaceOnUse"><stop offset="0" stop-color="#f9b776"/><stop offset="1" stop-color="#f47960"/></linearGradient><linearGradient id="linear-gradient-36" x1="-2176.592" y1="106.221" x2="-2167.19" y2="134.993" gradientTransform="matrix(-1, 0, 0, 1, -2116.705, 0)" xlink:href="#linear-gradient-6"/><linearGradient id="linear-gradient-37" x1="-7622.738" y1="95.943" x2="-7616.112" y2="111.019" xlink:href="#linear-gradient-35"/><linearGradient id="linear-gradient-38" x1="-7602.104" y1="148.292" x2="-7599.042" y2="148.292" gradientTransform="matrix(-1, 0, 0, 1, -7548.778, 0)" xlink:href="#linear-gradient-4"/><linearGradient id="linear-gradient-39" x1="-7615.027" y1="160.274" x2="-7610.655" y2="109.179" xlink:href="#linear-gradient-35"/><linearGradient id="linear-gradient-40" x1="-7616.328" y1="147.738" x2="-7611.374" y2="147.738" gradientTransform="matrix(-1, 0, 0, 1, -7548.778, 0)" xlink:href="#linear-gradient-4"/><linearGradient id="linear-gradient-41" x1="-7606.163" y1="161.026" x2="-7601.791" y2="109.933" xlink:href="#linear-gradient-35"/><linearGradient id="linear-gradient-42" x1="-7616.324" y1="103.114" x2="-7601.231" y2="155.519" gradientTransform="matrix(-1, 0, 0, 1, -7548.778, 0)" xlink:href="#linear-gradient-30"/><linearGradient id="linear-gradient-43" x1="-7618.361" y1="103.683" x2="-7603.256" y2="156.132" gradientTransform="matrix(-1, 0, 0, 1, -7548.778, 0)" xlink:href="#linear-gradient-15"/><linearGradient id="linear-gradient-44" x1="-7615.515" y1="109.907" x2="-7614.694" y2="103.901" xlink:href="#linear-gradient-35"/><linearGradient id="linear-gradient-45" x1="7717.806" y1="7612.797" x2="7728.249" y2="7612.797" gradientTransform="matrix(0.447, 0.895, 0.895, -0.447, -10191.825, -3398.494)" xlink:href="#linear-gradient-35"/><linearGradient id="linear-gradient-46" x1="-2184.962" y1="103.111" x2="-2177.769" y2="90.311" gradientTransform="matrix(-1, 0, 0, 1, -2116.705, 0)" xlink:href="#linear-gradient-35"/><linearGradient id="linear-gradient-47" x1="-2178.258" y1="106.764" x2="-2168.853" y2="135.546" gradientTransform="matrix(-1, 0, 0, 1, -2116.705, 0)" xlink:href="#linear-gradient-6"/><linearGradient id="linear-gradient-48" x1="-2183.418" y1="103.968" x2="-2176.226" y2="91.169" gradientTransform="matrix(-1, 0, 0, 1, -2116.705, 0)" xlink:href="#linear-gradient-35"/><linearGradient id="linear-gradient-49" x1="132.369" y1="58.178" x2="143.894" y2="58.178" xlink:href="#linear-gradient-9"/></defs><g id="Layer_2" data-name="Layer 2"><g id="Layer_6" data-name="Layer 6"><polygon points="132.343 62.056 132.63 65.015 143.847 64.905 144.093 62.141 132.343 62.056" fill="#262262"/><path d="M40.681,109.736s8.822,5.258,11.489,5.855A176.379,176.379,0,0,0,69.835,117c.864-.138,5.469-.325,5.469-.325l1.411.339s3.7,9.239,4.073,9.606,1.06,1.328,1.505,1.832a16.442,16.442,0,0,1,1.129,1.6v1.376s-9.809,2.851-10.8,2.76-8.994.328-10,.329-8.6-1.949-9.212-1.841-7.522-2.5-8.069-2.775-4.6-3.389-4.658-4.49.064-5.777,0-6.464.031-5.044-.018-5.182S40.681,109.736,40.681,109.736Z" fill="url(#linear-gradient)"/><path d="M40.645,77.668v14.42s.193,3.133,1.271,4.512,7.18,1.468,7.18,1.468l4.1,2.461,13.841,1.334,9.468.616a10.019,10.019,0,0,0,2.6-2.94c.633-1.434,4.489-7.083,6.126-8.182s5.651-2.2,6.215-2.358,1.732-.472,1.732-.472V77.668s-5.095,3.806-5.939,3.964-13.353,2.962-19.667,2.9-16.924-.273-19.879-2.87A24.075,24.075,0,0,0,40.645,77.668Z" fill="url(#linear-gradient-2)"/><path d="M93.989,44.247l-.814.815c-6.133,6.159-22.46,7.548-22.46,7.548-13.672,3.667-29.633-6.516-29.633-6.516s-3.033,12.735-.437,16.125,6.6,2.871,12.686,5.28S79.1,68.538,79.1,68.538c10.959.028,14.073-7.687,14.073-7.687l.87-15.744C94.013,44.821,94,44.534,93.989,44.247Z" fill="url(#linear-gradient-3)"/><path d="M45.194,65.818a8.655,8.655,0,0,0-.407,3.451,6.721,6.721,0,0,0,2.165,4c1.4,1.1,7.294,3.2,8.208,3.4s12.548,1.189,14.185,1,7.775-1.683,10.113-2.155,4.969-.946,6.138-1.731,3.39-1.354,3.507-1.972a4.534,4.534,0,0,0,0-2.03c-.177-1.176-.353-3.557-.353-3.557l-.118-.405s-10.192,3.5-11.38,3.5-11.827,1.27-13.406.994S52.386,68.243,51.1,67.852,45.194,65.818,45.194,65.818Z" fill="url(#linear-gradient-4)"/><path d="M44.715,97.679A51.156,51.156,0,0,0,50.121,100c1.462.391,8.069,1.17,9.472,1.4s7.483-.226,9.237,0,4.619-.006,6.08.068,2.7.033,2.7.033a17.673,17.673,0,0,1-.353,4.2c-.41,1.019-.409,2.509-1.344,3.216s-7.483.451-8.009.621-12.57-.212-13.681-.917-5.33-2.108-7.251-2.895a3.806,3.806,0,0,1-2.574-3.25c0-.9.354-2.942.322-3.256S44.715,97.679,44.715,97.679Z" fill="url(#linear-gradient-5)"/><path d="M41.615,73.584a2.388,2.388,0,0,0-.533,3.083,8.319,8.319,0,0,0,4,4.285c1.754.783,10.7,3.18,12.454,3.583s7.366.321,9.88.4,7.4-1.119,9.311-1.309a52.958,52.958,0,0,0,8.344-1.764c1.4-.55,4.15-1.179,5.319-1.964s1.987-1.346,2.338-2.2,1.067-1.015.444-2.583-.442-1.8-1.176-2.665-.967-1.9-1.493-1.774a18.55,18.55,0,0,0-2.981,1.7c-.7.471-7.142,3.182-8.423,3.752s-10.867,1.6-12.621,1.676-15.9-1.946-17.073-3.043-3.568-2.866-4.445-3a2.173,2.173,0,0,0-2.163.574C42.275,72.956,41.615,73.584,41.615,73.584Z" fill="url(#linear-gradient-6)"/><path d="M41.263,110.265s-.48-.428-.417-1.759-.252-1.93.417-2.875S43.115,103.4,43.6,103.4a2.528,2.528,0,0,1,2.058.463c.854.693.951,1.294,2.615,2.065a55.17,55.17,0,0,0,8.927,2.256c1.76.266,6.687,1.035,8.383,1.033a38.478,38.478,0,0,0,6.3-.005,16.715,16.715,0,0,1,3.807-.475c.48.128.445.142.815,1.336a18.485,18.485,0,0,1-.14,5.52,3.024,3.024,0,0,1-2.079,1.384c-1.024.215-15.229-.331-15.933-.459s-10.559-1.75-11.743-2.393a21.409,21.409,0,0,1-3.457-2.314C42.639,111.294,41.263,110.265,41.263,110.265Z" fill="url(#linear-gradient-7)"/><path d="M40.759,44.842s5.446,4.89,7.389,5.333,6.825,1.665,8.815,2.036a94.782,94.782,0,0,0,10.913.965,62.871,62.871,0,0,0,12.591-1.821c1.99-.7,8.956-2.613,9.761-3.186s3.26-2.545,3.193-4.134a4.544,4.544,0,0,0-1.978-3.875,30.479,30.479,0,0,0-7.665-3.744c-2.228-.7-10.961-1.706-13.063-1.832s-8.879-.327-9.779,0-7.013,1.476-9.1,1.732-5.828,2.307-6.87,2.587a11.081,11.081,0,0,0-3.4,2.011,5.536,5.536,0,0,0-.807,2.522A5.621,5.621,0,0,0,40.759,44.842Z" fill="url(#linear-gradient-8)"/><path d="M77.044,116.013s-.9-8.08-.768-9.286A54.105,54.105,0,0,1,80,97.015c1.437-2.775,7.19-6.881,8.584-7.847s5.575-.487,6.609-.428a19.441,19.441,0,0,1,5.936,2.106,36.489,36.489,0,0,1,4.678,5.346,58.569,58.569,0,0,1,3.106,7.249,39.986,39.986,0,0,1,1.173,7.841,56.632,56.632,0,0,1-1.839,10.427c-.628,1.575-4.4,7.428-5.211,8.032a54.635,54.635,0,0,1-6.249,3.382c-1.123.423-7.283.066-8.587-.294a18.235,18.235,0,0,1-5.488-3.855,61.01,61.01,0,0,1-4.976-8.68A12.56,12.56,0,0,1,77.044,116.013Z" fill="url(#linear-gradient-9)"/><path d="M94.058,87.162a42.376,42.376,0,0,1,5.811,2.165c9.054,4.947,13.389,18.682,9.8,30.75-3.622,12.17-13.6,18.025-22.87,13.521a5.142,5.142,0,0,0-3.261-.426c-12.748,2.846-25.414,3.1-37.946-1.826a16.2,16.2,0,0,1-2.334-1.256c-2.407-1.447-3.748-3.634-3.553-7.5.217-4.325.171-8.693.005-13.026-.121-3.168.838-5.17,2.8-6.662a3.247,3.247,0,0,0-.047-5.414c-1.9-1.442-2.849-3.382-2.747-6.455.149-4.5.171-9.018-.005-13.51-.129-3.3.931-5.3,2.947-6.792a3.345,3.345,0,0,0-.024-5.316c-2.07-1.5-2.994-3.581-2.887-6.822.153-4.573.1-9.167-.027-13.744-.087-3.032.957-5.138,2.863-6.059a48.391,48.391,0,0,1,10.459-4.127A61.641,61.641,0,0,1,85.033,35.79,32.213,32.213,0,0,1,92.3,39.75c1.334.857,1.805,2.643,1.786,4.673-.045,4.827-.124,9.659.011,14.479.086,3.071-.877,4.988-2.78,6.429a3.271,3.271,0,0,0,.031,5.537c1.926,1.44,2.872,3.4,2.744,6.451C93.952,80.6,94.058,83.9,94.058,87.162Zm15.04,24.281c.083-11.544-7.181-21.415-15.837-21.52S77.31,99.487,77.253,111.18s7.071,21.381,15.814,21.5C101.7,132.8,109.013,123.107,109.1,111.443ZM92.185,48.436c-16.955,7.43-33.649,7.425-50.593.1,0,3.463.053,7.152-.024,10.835-.035,1.673.411,2.925,1.487,3.512a37.4,37.4,0,0,0,6.557,3.14,58.849,58.849,0,0,0,28.252,1.461c4.167-.752,8.242-2.6,12.285-4.268a4.579,4.579,0,0,0,1.944-3.252C92.338,56.055,92.185,52.1,92.185,48.436ZM41.615,80.6v5.344c0,9.1.3,9.615,6.952,11.977.174.062.353.092.529.146,9.094,2.83,18.294,2.912,27.526,1.782.621-.076,1.334-.966,1.734-1.731,2.657-5.086,6.142-8.494,10.687-9.874,1.026-.312,2.055-.612,3.01-.9V80.687C75.222,87.913,58.545,88.046,41.615,80.6ZM66.747,51.825c5.121-.706,10.27-1.164,15.35-2.215a32.993,32.993,0,0,0,8.019-3.357A3.993,3.993,0,0,0,92,43.5c-.019-.959-1.114-2.153-1.938-2.747A17.518,17.518,0,0,0,85.882,38.6c-7.659-2.846-15.506-3.218-23.374-2.8-5.994.322-11.972,1.113-17.613,4.188-1.347.734-3.358,1.392-3.068,3.66C42,45,43.73,46.367,44.966,47.018,51.949,50.7,59.31,51.282,66.747,51.825ZM41.615,112.067c0,3.977.062,7.664-.026,11.344-.045,1.872.489,3.162,1.686,3.867a28.15,28.15,0,0,0,5.016,2.569c9.238,3.135,18.621,3.36,28.05,2.162,2.037-.259,4.058-.746,6.511-1.208a27.746,27.746,0,0,1-6.631-11.944,1.952,1.952,0,0,0-1.635-1.061c-3.715,0-7.436.367-11.143.188C56.064,117.627,48.726,116.777,41.615,112.067ZM69.321,83.623A113.123,113.123,0,0,0,81.408,81.9c3.2-.732,6.288-2.469,9.362-3.987a2.24,2.24,0,0,0,1.1-3.192c-.809-1.773-2.455-2.363-3.586-1.556a20.472,20.472,0,0,1-4.4,2.645c-8.444,3.174-17.06,3.314-25.7,2.116-4.587-.636-9.139-1.536-13.195-5.024-.521-.448-2.1,1.037-3.018,1.939a4.277,4.277,0,0,0,.674,2.637,14.721,14.721,0,0,0,4.01,2.614C53.236,82.917,60.058,83.432,69.321,83.623ZM45.781,67.5c-.525,2.177.192,3.528,1.55,4.3a23.047,23.047,0,0,0,4.222,2.018A51.609,51.609,0,0,0,77.636,75a43.064,43.064,0,0,0,8.791-3.23c1.336-.587,2.162-2.006,1.451-4.23A66.057,66.057,0,0,1,45.781,67.5Zm29.51,42.6c-5.718,0-11.239.338-16.725-.1-4.7-.378-9.4-1.369-13.52-5.057-1.405-1.258-2.266.829-3.056,1.9a3.729,3.729,0,0,0,.606,2.674,20.675,20.675,0,0,0,5.037,3.049c6.861,2.679,13.922,3.155,21.019,2.995,2.255-.051,4.508-.261,6.9-.406C75.455,113.31,75.379,111.811,75.291,110.1Zm1.212-7.622c-10.407,1.016-20.652.873-30.678-2.94-.518,2.246.18,3.525,1.445,4.312a18.308,18.308,0,0,0,3.511,1.822c7.811,2.728,15.751,2.978,23.737,1.954a2.008,2.008,0,0,0,1.239-1.282A32.552,32.552,0,0,0,76.5,102.479Z" fill="#262262"/><path d="M65.267,38.9c4.048.4,8.23.8,12.411,1.218a2.368,2.368,0,0,1,1.228.3,10.4,10.4,0,0,1,1.325,1.465c-.521.33-1.057.978-1.561.937-3.168-.262-6.329-.986-9.491-.968-4.361.025-8.721.57-13.082.9-.237.018-.521.249-.7.137a13.213,13.213,0,0,1-1.361-1.123c.355-.44.679-1.2,1.071-1.27C58.432,39.906,61.767,39.436,65.267,38.9Z" fill="#262262"/><path d="M144.405,61.6H131.934l1.542-6.742h9.441Zm-11.718-.746H143.66L142.5,55.6h-8.614Z" fill="url(#linear-gradient-10)"/><path d="M144.221,65.333H132.4l-.474-3.86h12.466Zm-11.353-.746H143.7l.1-2.368H132.577Z" fill="url(#linear-gradient-11)"/><path d="M137.092,45.873a1.584,1.584,0,0,1,.6-.694.925.925,0,0,1,.827-.062c.03.011.059.025.088.039.073.034-.013-.013.049.027a1.442,1.442,0,0,1,.177.131c.027.023.053.048.079.072.061.055-.033-.042.025.026.039.046.077.09.114.138s.063.086.093.131.1.185.034.05c.023.048.05.093.073.142.233.511.834.043.6-.471a2.215,2.215,0,0,0-1.221-1.211,1.825,1.825,0,0,0-2.137,1.211c-.24.509.361.978.6.471Z" fill="url(#linear-gradient-12)"/><path d="M136.142,44.917a2.316,2.316,0,0,1,4.057,0c.306.44.8-.221.491-.66a2.895,2.895,0,0,0-5.04,0c-.3.439.186,1.1.492.66Z" fill="url(#linear-gradient-13)"/><path d="M135.1,43.783a3.717,3.717,0,0,1,3.275-1.93,3.927,3.927,0,0,1,2.869,1.93c.292.456.782-.206.492-.659a4.536,4.536,0,0,0-3.361-2.2,4.309,4.309,0,0,0-3.767,2.2c-.289.454.2,1.116.492.659Z" fill="url(#linear-gradient-14)"/><ellipse cx="134.636" cy="52.61" rx="0.918" ry="1.232" fill="none" stroke="#262262" stroke-miterlimit="10" stroke-width="0.5"/><line x1="132.947" y1="52.61" x2="103.41" y2="52.61" fill="none" stroke="#262262" stroke-miterlimit="10" stroke-width="0.5"/><line x1="103.633" y1="52.211" x2="103.633" y2="66.61" fill="none" stroke="#262262" stroke-miterlimit="10" stroke-width="0.5"/><line x1="103.81" y1="66.223" x2="87.236" y2="66.223" fill="none" stroke="#262262" stroke-miterlimit="10" stroke-width="0.5"/><line x1="99.7" y1="38.903" x2="88.027" y2="38.903" fill="none" stroke="#262262" stroke-miterlimit="10" stroke-width="0.5"/><line x1="99.7" y1="39.145" x2="99.7" y2="18.368" fill="none" stroke="#262262" stroke-miterlimit="10" stroke-width="0.5"/><line x1="104.605" y1="76.667" x2="104.605" y2="84.535" fill="none" stroke="#262262" stroke-miterlimit="10" stroke-width="0.5"/><line x1="107.538" y1="80.601" x2="101.672" y2="80.601" fill="none" stroke="#262262" stroke-miterlimit="10" stroke-width="0.5"/><line x1="30.852" y1="41.512" x2="30.852" y2="49.381" fill="none" stroke="#262262" stroke-miterlimit="10" stroke-width="0.5"/><line x1="33.786" y1="45.447" x2="27.919" y2="45.447" fill="none" stroke="#262262" stroke-miterlimit="10" stroke-width="0.5"/><line x1="99.072" y1="46.34" x2="99.072" y2="50.532" fill="none" stroke="#262262" stroke-miterlimit="10" stroke-width="0.5"/><line x1="100.635" y1="48.436" x2="97.509" y2="48.436" fill="none" stroke="#262262" stroke-miterlimit="10" stroke-width="0.5"/><line x1="101.094" y1="5.605" x2="101.094" y2="10.674" fill="none" stroke="#262262" stroke-miterlimit="10" stroke-width="0.5"/><line x1="102.984" y1="8.14" x2="99.205" y2="8.14" fill="none" stroke="#262262" stroke-miterlimit="10" stroke-width="0.5"/><ellipse cx="113.414" cy="111.302" rx="1.313" ry="1.761" fill="none" stroke="#262262" stroke-miterlimit="10" stroke-width="0.5"/><line x1="114.542" y1="111.302" x2="142.186" y2="111.302" fill="none" stroke="#262262" stroke-miterlimit="10" stroke-width="0.5"/><line x1="141.938" y1="138.447" x2="141.938" y2="111.302" fill="none" stroke="#262262" stroke-miterlimit="10" stroke-width="0.5"/><path d="M144.037,138.915a3.356,3.356,0,0,1-1.269,1.472,1.973,1.973,0,0,1-1.755.132c-.063-.025-.125-.053-.187-.083-.153-.073.028.026-.1-.057a3.281,3.281,0,0,1-.375-.279c-.057-.048-.112-.1-.168-.152-.128-.117.069.089-.054-.056-.081-.1-.163-.19-.241-.292s-.133-.182-.2-.278c-.046-.068-.209-.392-.072-.106-.049-.1-.107-.2-.155-.3-.494-1.083-1.77-.091-1.272,1a4.693,4.693,0,0,0,2.587,2.568c1.769.576,3.574-.534,4.532-2.568.508-1.079-.766-2.072-1.272-1Z" fill="url(#linear-gradient-15)"/><path d="M145.9,141.48a4.912,4.912,0,0,1-8.6,0c-.648-.933-1.688.467-1.042,1.4a6.137,6.137,0,0,0,10.686,0c.645-.93-.394-2.331-1.043-1.4Z" fill="url(#linear-gradient-16)"/><path d="M148.116,143.883c-1.713,2.687-4.3,4.276-6.944,4.092a8.32,8.32,0,0,1-6.083-4.092c-.62-.965-1.658.438-1.042,1.4a9.62,9.62,0,0,0,7.125,4.671c3,.2,6.038-1.616,7.986-4.671.614-.962-.424-2.366-1.042-1.4Z" fill="url(#linear-gradient-17)"/><ellipse cx="99.7" cy="16.527" rx="1.433" ry="1.922" fill="none" stroke="#262262" stroke-miterlimit="10" stroke-width="0.5"/><ellipse cx="37.758" cy="26.095" rx="1.201" ry="1.564" fill="url(#linear-gradient-18)"/><ellipse cx="37.749" cy="35.653" rx="1.201" ry="1.564" fill="url(#linear-gradient-19)"/><polygon points="31.606 9.716 38.359 9.716 38.416 12.617 43.294 12.782 43.315 22.135 31.56 22.112 31.606 9.716" fill="url(#Orange_Yellow)"/><path d="M43.485,22.4H31.426V9.521H38.65v2.964h4.835Zm-11.689-.5H43.115V12.982H36.6v-.5H38.28V10.018H31.8Z" fill="url(#linear-gradient-20)"/><rect x="33.048" y="16.031" width="8.814" height="0.496" fill="url(#linear-gradient-21)"/><rect x="33.048" y="17.872" width="8.814" height="0.496" fill="url(#linear-gradient-22)"/><rect x="33.048" y="19.325" width="8.814" height="0.496" fill="url(#linear-gradient-23)"/><rect x="31.832" y="30.983" width="11.83" height="0.496" fill="url(#linear-gradient-24)"/><rect x="37.562" y="27.767" width="0.37" height="6.376" fill="url(#linear-gradient-25)"/><rect x="37.562" y="22.07" width="0.37" height="2.299" fill="url(#linear-gradient-26)"/><path d="M37.747,27.923c-.741,0-1.344-.809-1.344-1.8s.6-1.8,1.344-1.8,1.344.809,1.344,1.8S38.488,27.923,37.747,27.923Zm0-3.108c-.537,0-.974.585-.974,1.306s.437,1.306.974,1.306.974-.586.974-1.306S38.284,24.815,37.747,24.815Z" fill="url(#linear-gradient-27)"/><path d="M37.747,37.5c-.741,0-1.344-.809-1.344-1.8s.6-1.8,1.344-1.8,1.344.808,1.344,1.8S38.488,37.5,37.747,37.5Zm0-3.109c-.537,0-.974.586-.974,1.306S37.21,37,37.747,37s.974-.586.974-1.306S38.284,34.391,37.747,34.391Z" fill="url(#linear-gradient-28)"/><path d="M12.966,55.709a1.861,1.861,0,0,1-2.373-1.067,3.648,3.648,0,0,1-.081-2.914c.064-.13.8-1.578,2.132-1.606a2.748,2.748,0,0,1,2.433,2.137,2.015,2.015,0,0,1,2.372-.19,3.584,3.584,0,0,1,1.28,3.181,2.865,2.865,0,0,1,1.833,3.02,2.748,2.748,0,0,1-1.833,2.683H8.941A2.451,2.451,0,0,1,7.266,59a3.521,3.521,0,0,1,.616-2.968,3.985,3.985,0,0,1,.378-2.38,2.12,2.12,0,0,1,1.913-1.2" fill="url(#linear-gradient-29)"/><line x1="23.013" y1="57.748" x2="28.119" y2="57.747" fill="none" stroke="#262262" stroke-miterlimit="10" stroke-width="0.5"/><line x1="28.119" y1="57.384" x2="28.119" y2="70.67" fill="none" stroke="#262262" stroke-miterlimit="10" stroke-width="0.5"/><line x1="27.87" y1="70.314" x2="43.323" y2="70.314" fill="none" stroke="#262262" stroke-miterlimit="10" stroke-width="0.5"/><line x1="31.496" y1="82.933" x2="41.082" y2="82.933" fill="none" stroke="#262262" stroke-miterlimit="10" stroke-width="0.5"/><line x1="21.625" y1="103.885" x2="31.977" y2="103.885" fill="none" stroke="#262262" stroke-miterlimit="10" stroke-width="0.5"/><line x1="31.747" y1="82.622" x2="31.747" y2="104.119" fill="none" stroke="#262262" stroke-miterlimit="10" stroke-width="0.5"/><ellipse cx="22.209" cy="57.747" rx="0.953" ry="1.099" fill="none" stroke="#262262" stroke-miterlimit="10" stroke-width="0.5"/><ellipse cx="3.288" cy="105.949" rx="3.288" ry="4.41" fill="url(#linear-gradient-30)"/><ellipse cx="14.981" cy="97.871" rx="2.598" ry="3.485" fill="url(#linear-gradient-31)"/><ellipse cx="16.363" cy="111.468" rx="3.512" ry="4.71" fill="url(#linear-gradient-32)"/><line x1="6.086" y1="103.641" x2="12.682" y2="99.492" fill="none" stroke="#262262" stroke-miterlimit="10" stroke-width="0.5"/><line x1="6.576" y1="106.758" x2="12.851" y2="110.663" fill="none" stroke="#262262" stroke-miterlimit="10" stroke-width="0.5"/><ellipse cx="20.513" cy="103.885" rx="0.914" ry="0.979" fill="none" stroke="#262262" stroke-miterlimit="10" stroke-width="0.5"/><path d="M95.075,14.644l2.453-1.86L96.509,7.842l-2.939-.5L92.228,5.482,92.444,2.2,88.319,0,86.136,2.234H83.983L81.8,0,77.674,2.2l.217,3.283L76.549,7.345l-2.939.5-1.019,4.942,2.453,1.86.479,2.323-1.481,2.854L76.9,23.784l2.843-.964,1.939,1.034,1.092,3.061h4.579l1.092-3.061L90.38,22.82l2.842.964,2.855-3.963L94.6,16.967Zm-9.8,4.981c-3.077,0-5.571-2.761-5.571-6.167S82.2,7.29,85.275,7.29s5.571,2.761,5.571,6.168S88.352,19.625,85.275,19.625Z" fill="url(#linear-gradient-33)"/><path d="M104.913,100.857a.119.119,0,0,1-.1-.072c-.093-.182-.19-.363-.287-.538a.206.206,0,0,1,.026-.233.106.106,0,0,1,.174.034c.1.179.2.363.291.548a.2.2,0,0,1-.032.231A.1.1,0,0,1,104.913,100.857Z" fill="#eac4f9"/><path d="M92.809,130.724h0c-.343-.013-.69-.044-1.032-.09a.163.163,0,0,1-.111-.183c.007-.092.068-.156.136-.149.336.046.677.075,1.014.088a.154.154,0,0,1,.121.172C92.931,130.652,92.876,130.724,92.809,130.724Zm1.664-.068c-.064,0-.118-.066-.124-.152a.16.16,0,0,1,.113-.181c.334-.04.674-.1,1.008-.171.069-.015.132.047.143.138a.168.168,0,0,1-.1.191c-.34.075-.686.133-1.026.174ZM97.116,130a.137.137,0,0,1-.12-.121.179.179,0,0,1,.086-.206l.075-.03c.3-.117.6-.249.891-.392.065-.031.136.014.16.1a.188.188,0,0,1-.075.214c-.3.145-.6.279-.906.4l-.077.03A.1.1,0,0,1,97.116,130Zm2.5-1.312a.124.124,0,0,1-.111-.091.2.2,0,0,1,.055-.224c.3-.2.6-.425.89-.658a.108.108,0,0,1,.17.058.2.2,0,0,1-.043.229c-.294.236-.6.461-.906.669A.1.1,0,0,1,99.62,128.683Zm2.274-1.922a.116.116,0,0,1-.1-.065.206.206,0,0,1,.023-.234c.267-.277.53-.57.781-.872a.1.1,0,0,1,.175.013.21.21,0,0,1-.01.236c-.255.306-.522.605-.8.887A.1.1,0,0,1,101.894,126.761Zm1.96-2.465a.109.109,0,0,1-.082-.042.21.21,0,0,1-.011-.235c.223-.34.44-.7.645-1.055a.1.1,0,0,1,.174-.031.206.206,0,0,1,.023.233c-.208.366-.428.727-.656,1.073A.111.111,0,0,1,103.854,124.3Zm1.58-2.918a.106.106,0,0,1-.063-.023.2.2,0,0,1-.044-.229c.172-.39.336-.793.486-1.2.031-.083.105-.117.167-.075a.2.2,0,0,1,.056.224c-.153.412-.32.822-.5,1.219A.121.121,0,0,1,105.434,121.378Zm1.145-3.265a.092.092,0,0,1-.042-.01.185.185,0,0,1-.074-.213c.114-.427.218-.864.309-1.3.019-.089.087-.141.153-.116a.179.179,0,0,1,.086.206c-.092.443-.2.888-.315,1.322A.132.132,0,0,1,106.579,118.113Zm.668-3.5-.019,0a.167.167,0,0,1-.1-.19c.053-.448.093-.9.122-1.355.005-.092.065-.162.134-.152a.158.158,0,0,1,.113.18c-.028.459-.07.923-.123,1.378C107.36,114.559,107.307,114.617,107.247,114.617Zm.162-3.6c-.066,0-.121-.07-.124-.161-.012-.452-.036-.91-.072-1.36a.162.162,0,0,1,.11-.184c.069-.009.129.056.137.148.037.458.061.924.074,1.385,0,.092-.052.169-.12.172Zm-.349-3.577a.141.141,0,0,1-.121-.13c-.062-.364-.133-.732-.211-1.092-.017-.076-.033-.151-.05-.227a.181.181,0,0,1,.082-.208c.065-.027.135.023.155.111s.035.154.051.231c.08.366.152.74.215,1.111a.173.173,0,0,1-.093.2A.092.092,0,0,1,107.06,107.438Zm-.841-3.428a.129.129,0,0,1-.114-.1c-.135-.416-.284-.83-.44-1.229a.2.2,0,0,1,.052-.225c.06-.043.135-.012.167.069.16.407.311.828.449,1.251a.193.193,0,0,1-.064.22A.093.093,0,0,1,106.219,104.01Z" fill="#eac4f9"/><path d="M90.134,130.275a.1.1,0,0,1-.028,0c-.161-.048-.325-.1-.486-.158a.176.176,0,0,1-.089-.2c.017-.089.085-.143.151-.119.159.055.32.107.479.155a.174.174,0,0,1,.094.2A.139.139,0,0,1,90.134,130.275Z" fill="#eac4f9"/><path d="M81.141,121.69a.121.121,0,0,1-.106-.079c-.088-.19-.174-.384-.256-.579a.2.2,0,0,1,.047-.227c.059-.045.135-.018.169.063.081.19.165.381.251.568a.2.2,0,0,1-.04.229A.1.1,0,0,1,81.141,121.69Z" fill="#eac4f9"/><path d="M80.16,119.145a.129.129,0,0,1-.114-.1c-.132-.417-.255-.847-.365-1.276a.186.186,0,0,1,.077-.212c.065-.03.136.017.158.1.108.422.228.843.358,1.253a.191.191,0,0,1-.066.219A.094.094,0,0,1,80.16,119.145Zm-.806-3.383a.138.138,0,0,1-.121-.13c-.073-.443-.135-.9-.184-1.344a.166.166,0,0,1,.1-.189c.069-.012.132.049.142.14.048.441.109.886.181,1.321a.175.175,0,0,1-.095.2A.124.124,0,0,1,79.354,115.762Zm-.328-3.523c-.066,0-.122-.071-.124-.162,0-.194-.006-.389-.006-.583,0-.26,0-.524.012-.784,0-.092.06-.166.129-.16a.154.154,0,0,1,.119.173c-.008.256-.012.515-.012.771,0,.191,0,.382.007.573a.154.154,0,0,1-.121.172Zm.169-3.546-.02,0a.167.167,0,0,1-.1-.191c.053-.448.119-.9.195-1.341.016-.09.083-.146.149-.124a.173.173,0,0,1,.093.2c-.075.434-.14.877-.192,1.318C79.307,108.635,79.255,108.693,79.195,108.693Zm.657-3.44a.09.09,0,0,1-.042-.01.184.184,0,0,1-.075-.213c.114-.428.241-.855.377-1.269.027-.084.1-.122.163-.085a.191.191,0,0,1,.064.219c-.134.408-.258.827-.371,1.247A.132.132,0,0,1,79.852,105.253Zm1.119-3.217a.1.1,0,0,1-.063-.023.2.2,0,0,1-.044-.228c.171-.392.354-.78.545-1.154a.106.106,0,0,1,.172-.043.206.206,0,0,1,.033.232c-.188.367-.368.749-.536,1.134A.122.122,0,0,1,80.971,102.036Zm1.542-2.884a.106.106,0,0,1-.081-.04.21.21,0,0,1-.013-.236c.222-.342.455-.678.7-1a.1.1,0,0,1,.175,0,.208.208,0,0,1,0,.236c-.235.315-.464.645-.682.981A.113.113,0,0,1,82.513,99.152ZM84.426,96.7a.117.117,0,0,1-.1-.064.208.208,0,0,1,.021-.234c.265-.281.541-.552.82-.807a.107.107,0,0,1,.173.045.206.206,0,0,1-.033.231c-.275.25-.546.517-.806.793A.107.107,0,0,1,84.426,96.7Zm2.22-1.928a.127.127,0,0,1-.111-.09.2.2,0,0,1,.053-.225c.3-.209.609-.407.919-.587.063-.037.136,0,.163.086a.2.2,0,0,1-.064.22c-.3.177-.609.371-.9.577A.1.1,0,0,1,86.646,94.775Zm2.448-1.34a.135.135,0,0,1-.119-.118.181.181,0,0,1,.083-.208l.154-.062c.273-.107.552-.2.829-.289.067-.021.134.035.149.125a.175.175,0,0,1-.093.2c-.273.084-.547.179-.816.285-.051.019-.1.039-.151.06A.092.092,0,0,1,89.094,93.435Zm6.238-.615h-.018c-.329-.067-.663-.119-.994-.154a.159.159,0,0,1-.114-.179c0-.092.066-.158.133-.153.337.035.677.088,1.012.156a.167.167,0,0,1,.1.19A.142.142,0,0,1,95.332,92.82Zm-3.647-.1c-.063,0-.116-.063-.123-.148a.161.161,0,0,1,.11-.184c.335-.05.677-.084,1.014-.1.071,0,.127.068.129.16s-.051.17-.119.173c-.332.017-.668.051-1,.1Z" fill="#eac4f9"/><path d="M97.42,93.464a.1.1,0,0,1-.037-.007c-.156-.065-.315-.128-.472-.185a.179.179,0,0,1-.088-.205c.018-.089.087-.141.153-.117.161.059.322.122.481.188a.184.184,0,0,1,.082.209A.135.135,0,0,1,97.42,93.464Z" fill="#eac4f9"/><path d="M97.733,98.176a.138.138,0,0,0-.2.023L95.957,100a6.932,6.932,0,0,0-2.9-.553l-1.143-2.321a.153.153,0,0,0-.184-.1l-2.409.832a.221.221,0,0,0-.128.2l-.166,2.773a9.869,9.869,0,0,0-2.339,2.362l-2.031-.558a.158.158,0,0,0-.181.108l-1.265,2.875a.294.294,0,0,0,.016.265l1.344,2.12a16.064,16.064,0,0,0-.412,3.889l-1.729,1.534a.273.273,0,0,0-.071.248l.62,3.234a.2.2,0,0,0,.151.171l2.066.223a12.484,12.484,0,0,0,1.759,3.14l-.415,2.727a.262.262,0,0,0,.08.243l2.141,1.7a.137.137,0,0,0,.2-.022l1.58-1.8a6.917,6.917,0,0,0,2.9.554l1.142,2.321a.153.153,0,0,0,.185.095l2.409-.831a.223.223,0,0,0,.127-.2l.166-2.773a9.827,9.827,0,0,0,2.339-2.361l2.032.557a.158.158,0,0,0,.181-.108l1.265-2.874a.294.294,0,0,0-.017-.265l-1.344-2.12a15.973,15.973,0,0,0,.412-3.89l1.729-1.533a.268.268,0,0,0,.071-.248l-.619-3.234a.2.2,0,0,0-.151-.171l-2.066-.223a12.5,12.5,0,0,0-1.759-3.14l.415-2.728a.263.263,0,0,0-.08-.242Z" fill="url(#linear-gradient-34)"/><path d="M93.253,114.863a2.4,2.4,0,0,1-2.107-1.676,3.844,3.844,0,0,1,.957-4.362,1.847,1.847,0,0,1,1.822-.261,2.675,2.675,0,0,1,1.427,1.546,3.844,3.844,0,0,1-.957,4.361A1.919,1.919,0,0,1,93.253,114.863Zm-.007-5.931a1.621,1.621,0,0,0-.965.333h0a3.247,3.247,0,0,0-.808,3.683c.534,1.314,1.764,1.8,2.744,1.084a3.245,3.245,0,0,0,.807-3.683,2.255,2.255,0,0,0-1.2-1.305A1.55,1.55,0,0,0,93.246,108.932Zm-1.054.113h0Z" fill="#fff"/><path d="M93.215,120.023a5.026,5.026,0,0,1-3.137-1.158,8.427,8.427,0,0,1-2.845-5.083,10.947,10.947,0,0,1-.2-2.067c0-3.7,1.857-7.085,4.647-8.049h0a4.8,4.8,0,0,1,1.232-.252l.072,0,.014.5a4.482,4.482,0,0,0-1.225.242h0c-3.106,1.073-4.982,5.337-4.183,9.506a7.92,7.92,0,0,0,2.674,4.777,4.529,4.529,0,0,0,4.407.839,6.3,6.3,0,0,0,3.558-3.59,9.86,9.86,0,0,0,.811-3.957,10.447,10.447,0,0,0-.186-1.959,8.73,8.73,0,0,0-1.542-3.606l.262-.356a9.29,9.29,0,0,1,1.641,3.838,11.109,11.109,0,0,1,.2,2.084,10.518,10.518,0,0,1-.863,4.211,6.71,6.71,0,0,1-3.787,3.82A4.754,4.754,0,0,1,93.215,120.023Z" fill="#fff"/><path d="M77.422,92.85c.053.167-.559.421-.92-.261a6.369,6.369,0,0,1-.016-2,3.353,3.353,0,0,1,2.157-1.511,4.731,4.731,0,0,1,.576,1.13,1.363,1.363,0,0,1-.138,1.01c-.173.309-.41.712-.633,1.027A1.368,1.368,0,0,1,77.422,92.85Z" fill="url(#linear-gradient-35)"/><path d="M62.926,96.665s.272.539-1.5,1.382c-.986.47-2.9,1.164-3.158,3.193a2.335,2.335,0,0,1-1.963,2.045c-2.619.4-6.654,1.748-7.3,6.258-.493,3.443,1.276,4.749,3.132,5.2a2.609,2.609,0,0,1,1.994,3.014c-.265,1.31.13,2.825,2.417,4.022,5.126,2.684,10.245-6.358,10.245-6.358l1.049-15.787Z" fill="url(#linear-gradient-36)"/><path d="M77.051,91.223s-3.463,9.366-9.363,12.293c0,0,1.964,3.18,2.989,3.372,0,0,6.3-8,6.945-14.562Z" fill="url(#linear-gradient-37)"/><path d="M53.322,147.564l-.174,1.42a.59.59,0,0,1-.519.514,9.205,9.205,0,0,1-1.916.029.5.5,0,0,1-.425-.651,5.161,5.161,0,0,1,.96-1.856h1.589A.486.486,0,0,1,53.322,147.564Z" fill="url(#linear-gradient-38)"/><path d="M65.761,130.924l.268,1.565s-.9,9.021-1.058,12.63a2.814,2.814,0,0,0,.422,1.607l1.561,2.515-3.967-2.323-.079-.48.649-.886-.85-10.106a3.073,3.073,0,0,1,.356-1.715l.82-1.53Z" fill="url(#linear-gradient-39)"/><path d="M67.215,149.6H65.949a.766.766,0,0,1-.605-.294c-.394-.509-1.212-1.5-1.6-1.528-.526-.035-.459,1.822-.459,1.822h-.295l-.374-2.307a1.362,1.362,0,0,1,.723-1.427h0a1.927,1.927,0,0,0,.772,1.273c.653.39,2.655,1.789,2.655,1.789a1.818,1.818,0,0,1,.514.013A.332.332,0,0,1,67.215,149.6Z" fill="url(#linear-gradient-40)"/><path d="M60.327,131.667s-5.258,9.9-6.094,12.157a21.544,21.544,0,0,0-1.14,4.324c-.018.279-.367.546-1.331.546a.928.928,0,0,1-.86-.389.555.555,0,0,1-.022-.54c.3-.611,1.27-2.563,1.627-3.448.427-1.057,1.345-5.848,1.849-7.513a8.824,8.824,0,0,1,3.265-5.137S59.127,130.2,60.327,131.667Z" fill="url(#linear-gradient-41)"/><path d="M63.649,115.45a9.437,9.437,0,0,0-2.08-8.929c2.169-2.065,6.119-3,6.119-3s3.77,2.735,3.323,4.875c-.262,1.255-2.65,7.514-2.65,7.514A5.283,5.283,0,0,1,63.649,115.45Z" fill="url(#linear-gradient-42)"/><path d="M60.642,118.273c.552-1.65,3.007-2.823,3.007-2.823a5.283,5.283,0,0,0,4.712.455,9.3,9.3,0,0,1,.153,3.623c-.341,1.745-2.485,12.961-2.485,12.961-3.379.679-8.574-.684-8.574-.684C59.606,128.015,60.09,119.924,60.642,118.273Z" fill="url(#linear-gradient-43)"/><path d="M65.224,99.747l-1.1,4.916c-.106.433.292.362.733.279a2.946,2.946,0,0,0,1.965-.971.524.524,0,0,0,.057-.185l.473-3.409a.61.61,0,0,0-.361-.643l-.914-.4A.618.618,0,0,0,65.224,99.747Z" fill="url(#linear-gradient-44)"/><path d="M60.96,108.039s10.087,12.223,17.624-1.694a1.708,1.708,0,0,0,.055-.869,8.2,8.2,0,0,1,.222-1.649.26.26,0,0,0-.233-.309h0a.358.358,0,0,0-.315.134l-1.376,1.739a.727.727,0,0,0,.389.866h0a.358.358,0,0,1,.135.543c-5.732,7.455-15.319-.725-15.494-.629C61.344,106.512,60.625,106.888,60.96,108.039Z" fill="url(#linear-gradient-45)"/><path d="M65.948,95.992a4.877,4.877,0,0,1,2.2,2.424c.89,1.876.226,2.743-.609,2.862a3.93,3.93,0,0,1-3.4-1.112C62.814,98.954,64.247,95.342,65.948,95.992Z" fill="url(#linear-gradient-46)"/><path d="M65.021,99.165s-.987-2.745,1.466-2.778l.577.4a1.552,1.552,0,0,0-.577-2.248,2.675,2.675,0,0,0-3.835,1.848c-.628,1.975-.736,3.3.31,4.241s1.477-.126,1.477-.126-.569-.884-.338-1.357.767.1.767.1Z" fill="url(#linear-gradient-47)"/><path d="M64.746,99.47s-.5-1.414-1.165-.851.541,1.307,1.014,1.547Z" fill="url(#linear-gradient-48)"/><polygon points="133.73 55.174 132.369 61.182 143.894 61.127 142.731 55.181 133.73 55.174" fill="url(#linear-gradient-49)"/><path d="M138.519,56.877V46.906c0-.6-.695-.6-.695,0v9.971c0,.6.695.6.695,0Z" fill="#262262"/></g></g></svg>