<svg xmlns="http://www.w3.org/2000/svg" xmlns:xlink="http://www.w3.org/1999/xlink" viewBox="0 0 149.938 149.773"><defs><linearGradient id="linear-gradient" x1="63.438" y1="105.784" x2="86.5" y2="105.784" gradientUnits="userSpaceOnUse"><stop offset="0" stop-color="#003cad"/><stop offset="1" stop-color="#00185a"/></linearGradient><linearGradient id="linear-gradient-2" x1="63.438" y1="101.443" x2="86.5" y2="101.443" xlink:href="#linear-gradient"/><linearGradient id="linear-gradient-3" x1="48.888" y1="116.172" x2="101.05" y2="116.172" xlink:href="#linear-gradient"/><linearGradient id="linear-gradient-4" x1="14.161" y1="12.055" x2="156.497" y2="102.309" gradientUnits="userSpaceOnUse"><stop offset="0" stop-color="#53d8ff"/><stop offset="1" stop-color="#3840f7"/></linearGradient><linearGradient id="linear-gradient-5" x1="2.345" y1="46.296" x2="147.593" y2="46.296" gradientUnits="userSpaceOnUse"><stop offset="0" stop-color="#49d5ff"/><stop offset="1" stop-color="#0bf"/></linearGradient><linearGradient id="linear-gradient-6" x1="78.643" y1="99.065" x2="69.958" y2="90.38" gradientUnits="userSpaceOnUse"><stop offset="0" stop-color="#1e68bd"/><stop offset="1" stop-color="#1ad4ff"/></linearGradient><linearGradient id="linear-gradient-7" x1="44.266" y1="8.615" x2="143.396" y2="85.305" gradientTransform="translate(137.905 -46.496) rotate(90.007)" gradientUnits="userSpaceOnUse"><stop offset="0" stop-color="#53d8ff"/><stop offset="1" stop-color="#fff"/></linearGradient><linearGradient id="linear-gradient-8" x1="92.198" y1="-14.681" x2="92.198" y2="35.026" gradientUnits="userSpaceOnUse"><stop offset="0" stop-color="#fff"/><stop offset="1" stop-color="#dee3fc"/></linearGradient><linearGradient id="linear-gradient-9" x1="6.183" y1="8.33" x2="38.013" y2="80.711" xlink:href="#linear-gradient-4"/><linearGradient id="linear-gradient-10" x1="22.684" y1="-38.477" x2="22.684" y2="53.986" xlink:href="#linear-gradient-4"/><linearGradient id="linear-gradient-11" x1="49.187" y1="15.746" x2="49.187" y2="13.996" xlink:href="#linear-gradient-8"/><linearGradient id="linear-gradient-12" x1="54.042" y1="27.66" x2="88.554" y2="37.619" xlink:href="#linear-gradient-4"/><linearGradient id="linear-gradient-13" x1="55.5" y1="22.636" x2="90.108" y2="32.623" xlink:href="#linear-gradient-4"/><linearGradient id="linear-gradient-14" x1="55.306" y1="23.263" x2="89.925" y2="33.252" xlink:href="#linear-gradient-4"/><linearGradient id="linear-gradient-15" x1="56.155" y1="20.356" x2="90.774" y2="30.345" xlink:href="#linear-gradient-4"/><linearGradient id="linear-gradient-16" x1="56.366" y1="19.593" x2="90.986" y2="29.583" xlink:href="#linear-gradient-4"/><linearGradient id="linear-gradient-17" x1="54.591" y1="25.712" x2="89.206" y2="35.7" xlink:href="#linear-gradient-4"/><linearGradient id="linear-gradient-18" x1="55.384" y1="22.96" x2="90.003" y2="32.95" xlink:href="#linear-gradient-4"/><linearGradient id="linear-gradient-19" x1="54.258" y1="26.829" x2="88.876" y2="36.819" xlink:href="#linear-gradient-4"/><linearGradient id="linear-gradient-20" x1="54.042" y1="42.063" x2="88.554" y2="52.022" xlink:href="#linear-gradient-4"/><linearGradient id="linear-gradient-21" x1="6.571" y1="20.39" x2="218.572" y2="81.564" xlink:href="#linear-gradient-4"/><linearGradient id="linear-gradient-22" x1="55.306" y1="37.666" x2="89.925" y2="47.655" xlink:href="#linear-gradient-4"/><linearGradient id="linear-gradient-23" x1="410.826" y1="38.55" x2="421.709" y2="41.69" gradientTransform="matrix(-0.732, 0, 0, 1, 393.574, 0)" xlink:href="#linear-gradient-4"/><linearGradient id="linear-gradient-24" x1="56.366" y1="33.996" x2="90.986" y2="43.986" xlink:href="#linear-gradient-4"/><linearGradient id="linear-gradient-25" x1="54.287" y1="40.027" x2="89.679" y2="50.24" xlink:href="#linear-gradient-4"/><linearGradient id="linear-gradient-26" x1="55.131" y1="37.29" x2="90.13" y2="47.39" xlink:href="#linear-gradient-4"/><linearGradient id="linear-gradient-27" x1="54.258" y1="41.232" x2="88.876" y2="51.221" xlink:href="#linear-gradient-4"/><linearGradient id="linear-gradient-28" x1="74.069" y1="44.742" x2="82.598" y2="47.203" xlink:href="#linear-gradient-4"/><linearGradient id="linear-gradient-29" x1="54.042" y1="56.466" x2="88.554" y2="66.425" xlink:href="#linear-gradient-4"/><linearGradient id="linear-gradient-30" x1="26.6" y1="41.608" x2="165.985" y2="81.829" xlink:href="#linear-gradient-4"/><linearGradient id="linear-gradient-31" x1="55.306" y1="52.069" x2="89.925" y2="62.058" xlink:href="#linear-gradient-4"/><linearGradient id="linear-gradient-32" x1="76.873" y1="53.533" x2="84.119" y2="55.624" xlink:href="#linear-gradient-4"/><linearGradient id="linear-gradient-33" x1="56.366" y1="48.399" x2="90.986" y2="58.389" xlink:href="#linear-gradient-4"/><linearGradient id="linear-gradient-34" x1="40.214" y1="49.144" x2="122.429" y2="72.868" xlink:href="#linear-gradient-4"/><linearGradient id="linear-gradient-35" x1="74.576" y1="56.115" x2="86.589" y2="59.581" xlink:href="#linear-gradient-4"/><linearGradient id="linear-gradient-36" x1="39.893" y1="49.433" x2="120.606" y2="72.724" xlink:href="#linear-gradient-4"/><linearGradient id="linear-gradient-37" x1="51.625" y1="63.3" x2="102.846" y2="82.029" gradientUnits="userSpaceOnUse"><stop offset="0" stop-color="#e1e5fc"/><stop offset="1" stop-color="#b4bad7"/></linearGradient><linearGradient id="linear-gradient-38" x1="59.294" y1="21.678" x2="57.722" y2="30.985" xlink:href="#linear-gradient-5"/><linearGradient id="linear-gradient-39" x1="73.332" y1="63.053" x2="73.332" y2="137.259" xlink:href="#linear-gradient-5"/><linearGradient id="linear-gradient-40" x1="39.072" y1="104.469" x2="118.085" y2="104.469" gradientUnits="userSpaceOnUse"><stop offset="0" stop-color="#fdf53f"/><stop offset="1" stop-color="#d93c65"/></linearGradient><linearGradient id="linear-gradient-41" x1="65.165" y1="96.942" x2="81.798" y2="96.942" xlink:href="#linear-gradient-8"/><linearGradient id="linear-gradient-42" x1="62.124" y1="109.166" x2="84.54" y2="109.166" xlink:href="#linear-gradient-8"/><linearGradient id="linear-gradient-43" x1="73.332" y1="114.21" x2="73.332" y2="105.545" gradientUnits="userSpaceOnUse"><stop offset="0" stop-color="#3945ba"/><stop offset="1" stop-color="#43a6ff"/></linearGradient><linearGradient id="linear-gradient-44" x1="95.823" y1="146.026" x2="95.823" y2="70.791" gradientUnits="userSpaceOnUse"><stop offset="0" stop-color="#1e68bd"/><stop offset="1" stop-color="#1ad4ff" stop-opacity="0.2"/></linearGradient><linearGradient id="linear-gradient-45" x1="42.733" y1="62.618" x2="104.608" y2="130.196" xlink:href="#linear-gradient-8"/></defs><g style="isolation:isolate"><g id="Layer_2" data-name="Layer 2"><g id="Layer_6" data-name="Layer 6"><rect x="63.438" y="97.831" width="23.061" height="15.907" fill="url(#linear-gradient)"/><rect x="63.438" y="97.831" width="23.061" height="7.225" fill="url(#linear-gradient-2)" style="mix-blend-mode:multiply"/><path d="M98.373,113.487H51.564a2.68,2.68,0,0,0-2.676,2.685v2.685H101.05v-2.685A2.681,2.681,0,0,0,98.373,113.487Z" fill="url(#linear-gradient-3)"/><path d="M147.124,0H2.814A2.818,2.818,0,0,0,0,2.822V98.4a2.818,2.818,0,0,0,2.814,2.822h144.31a2.818,2.818,0,0,0,2.814-2.822V2.822A2.818,2.818,0,0,0,147.124,0Z" fill="url(#linear-gradient-4)"/><rect x="2.345" y="2.822" width="145.248" height="86.948" rx="2.536" fill="url(#linear-gradient-5)"/><path d="M78.015,95.391a3.046,3.046,0,1,1-3.046-3.056A3.051,3.051,0,0,1,78.015,95.391Z" fill="url(#linear-gradient-6)"/><g opacity="0.3" style="mix-blend-mode:multiply"><rect x="55.775" y="-1.329" width="78.592" height="99.796" rx="5.151" transform="translate(44.851 142.778) rotate(-89.001)" fill="#6c9fbc"/></g><rect x="52.902" y="-4.202" width="78.592" height="99.796" rx="5.151" transform="translate(44.9 137.083) rotate(-89.001)" fill="url(#linear-gradient-7)"/><rect x="44.576" y="8.73" width="95.243" height="10.171" rx="2.329" fill="url(#linear-gradient-8)" style="mix-blend-mode:multiply"/><g opacity="0.3" style="mix-blend-mode:multiply"><rect x="8.668" y="9.273" width="33.64" height="78.592" rx="4.581" fill="#6c9fbc"/></g><rect x="5.795" y="6.4" width="33.64" height="78.592" rx="4.581" fill="url(#linear-gradient-9)"/><rect x="8.15" y="8.73" width="29.067" height="74.026" rx="1.592" fill="url(#linear-gradient-10)" style="mix-blend-mode:multiply"/><text transform="translate(54.496 15.491)" font-size="5.338" fill="#283699" font-family="MicrosoftTaiLe, Microsoft Tai Le">https://</text><path d="M49.216,10.61a1.647,1.647,0,0,0-1.643,1.649v1.65h.443v-1.65a1.2,1.2,0,1,1,2.4,0v1.65h.443v-1.65A1.648,1.648,0,0,0,49.216,10.61Z" fill="#283699"/><rect x="46.971" y="13.065" width="4.431" height="3.325" rx="0.761" fill="#283699"/><path d="M49.652,14.509a.465.465,0,1,0-.7.4.128.128,0,0,1,.065.111v.518a.166.166,0,0,0,.166.167h0a.166.166,0,0,0,.166-.167v-.518a.129.129,0,0,1,.066-.112A.464.464,0,0,0,49.652,14.509Z" fill="url(#linear-gradient-11)"/><g style="mix-blend-mode:multiply"><path d="M60.943,33.816H54.248a1.862,1.862,0,0,1-1.877-1.843V25.4a1.863,1.863,0,0,1,1.877-1.844h6.7A1.864,1.864,0,0,1,62.821,25.4v6.574A1.863,1.863,0,0,1,60.943,33.816Zm-6.695-9.359a.952.952,0,0,0-.958.942v6.574a.951.951,0,0,0,.958.941h6.7a.952.952,0,0,0,.959-.941V25.4a.952.952,0,0,0-.959-.942Z" fill="url(#linear-gradient-12)"/><path d="M67.9,26.421H65.614a.542.542,0,0,1-.547-.536h0a.542.542,0,0,1,.547-.537H67.9a.541.541,0,0,1,.546.537h0A.541.541,0,0,1,67.9,26.421Z" fill="url(#linear-gradient-13)"/><path d="M76.114,28.288h-10.5a.542.542,0,0,1-.547-.536h0a.542.542,0,0,1,.547-.536h10.5a.541.541,0,0,1,.546.536h0A.541.541,0,0,1,76.114,28.288Z" fill="url(#linear-gradient-14)"/><path d="M80.565,26.421h-10.5a.542.542,0,0,1-.547-.536h0a.542.542,0,0,1,.547-.537h10.5a.541.541,0,0,1,.546.537h0A.541.541,0,0,1,80.565,26.421Z" fill="url(#linear-gradient-15)"/><path d="M91.328,28.288H77.955a.541.541,0,0,1-.546-.536h0a.541.541,0,0,1,.546-.536H91.328a.542.542,0,0,1,.547.536h0A.542.542,0,0,1,91.328,28.288Z" fill="url(#linear-gradient-16)"/><path d="M70.651,30.156H65.614a.542.542,0,0,1-.547-.537h0a.542.542,0,0,1,.547-.536h5.037a.542.542,0,0,1,.547.536h0A.542.542,0,0,1,70.651,30.156Z" fill="url(#linear-gradient-17)"/><path d="M84.207,30.156H72.715a.541.541,0,0,1-.546-.537h0a.541.541,0,0,1,.546-.536H84.207a.541.541,0,0,1,.546.536h0A.542.542,0,0,1,84.207,30.156Z" fill="url(#linear-gradient-18)"/><path d="M75.183,32.023H65.614a.542.542,0,0,1-.547-.536h0a.543.543,0,0,1,.547-.537h9.569a.543.543,0,0,1,.547.537h0A.542.542,0,0,1,75.183,32.023Z" fill="url(#linear-gradient-19)"/><path d="M60.943,48.219H54.248a1.862,1.862,0,0,1-1.877-1.843V39.8a1.863,1.863,0,0,1,1.877-1.844h6.7A1.864,1.864,0,0,1,62.821,39.8v6.574A1.863,1.863,0,0,1,60.943,48.219ZM54.248,38.86a.952.952,0,0,0-.958.942v6.574a.951.951,0,0,0,.958.941h6.7a.952.952,0,0,0,.959-.941V39.8a.952.952,0,0,0-.959-.942Z" fill="url(#linear-gradient-20)"/><path d="M85.441,40.824H65.614a.542.542,0,0,1-.547-.536h0a.542.542,0,0,1,.547-.537H85.441a.541.541,0,0,1,.546.537h0A.541.541,0,0,1,85.441,40.824Z" fill="url(#linear-gradient-21)"/><path d="M76.114,42.691h-10.5a.542.542,0,0,1-.547-.536h0a.542.542,0,0,1,.547-.536h10.5a.541.541,0,0,1,.546.536h0A.541.541,0,0,1,76.114,42.691Z" fill="url(#linear-gradient-22)"/><path d="M87.492,40.824h1.563a.541.541,0,0,0,.546-.536h0a.541.541,0,0,0-.546-.537H87.492a.541.541,0,0,0-.546.537h0A.541.541,0,0,0,87.492,40.824Z" fill="url(#linear-gradient-23)"/><path d="M91.328,42.691H77.955a.541.541,0,0,1-.546-.536h0a.541.541,0,0,1,.546-.536H91.328a.542.542,0,0,1,.547.536h0A.542.542,0,0,1,91.328,42.691Z" fill="url(#linear-gradient-24)"/><rect x="65.067" y="43.486" width="6.13" height="1.073" rx="0.258" fill="url(#linear-gradient-25)"/><rect x="72.169" y="43.486" width="12.584" height="1.073" rx="0.258" fill="url(#linear-gradient-26)"/><path d="M75.183,46.426H65.614a.542.542,0,0,1-.547-.536h0a.542.542,0,0,1,.547-.537h9.569a.542.542,0,0,1,.547.537h0A.542.542,0,0,1,75.183,46.426Z" fill="url(#linear-gradient-27)"/><path d="M78.8,46.426H77.3a.542.542,0,0,1-.547-.536h0a.542.542,0,0,1,.547-.537h1.5a.542.542,0,0,1,.547.537h0A.542.542,0,0,1,78.8,46.426Z" fill="url(#linear-gradient-28)"/><path d="M60.943,62.622H54.248a1.862,1.862,0,0,1-1.877-1.843V54.205a1.863,1.863,0,0,1,1.877-1.844h6.7a1.864,1.864,0,0,1,1.878,1.844v6.574A1.863,1.863,0,0,1,60.943,62.622Zm-6.695-9.359a.952.952,0,0,0-.958.942v6.574a.951.951,0,0,0,.958.941h6.7a.952.952,0,0,0,.959-.941V54.205a.952.952,0,0,0-.959-.942Z" fill="url(#linear-gradient-29)"/><path d="M78.26,55.227H65.614a.542.542,0,0,1-.547-.537h0a.542.542,0,0,1,.547-.536H78.26a.542.542,0,0,1,.547.536h0A.542.542,0,0,1,78.26,55.227Z" fill="url(#linear-gradient-30)"/><path d="M76.114,57.094h-10.5a.542.542,0,0,1-.547-.536h0a.542.542,0,0,1,.547-.536h10.5a.541.541,0,0,1,.546.536h0A.541.541,0,0,1,76.114,57.094Z" fill="url(#linear-gradient-31)"/><path d="M81.533,55.227h-1.3a.542.542,0,0,1-.546-.537h0a.541.541,0,0,1,.546-.536h1.3a.542.542,0,0,1,.547.536h0A.542.542,0,0,1,81.533,55.227Z" fill="url(#linear-gradient-32)"/><path d="M91.328,57.094H77.955a.541.541,0,0,1-.546-.536h0a.541.541,0,0,1,.546-.536H91.328a.542.542,0,0,1,.547.536h0A.542.542,0,0,1,91.328,57.094Z" fill="url(#linear-gradient-33)"/><path d="M79.141,58.962H65.614a.542.542,0,0,1-.547-.537h0a.542.542,0,0,1,.547-.536H79.141a.541.541,0,0,1,.546.536h0A.541.541,0,0,1,79.141,58.962Z" fill="url(#linear-gradient-34)"/><path d="M84.207,58.962H80.961a.542.542,0,0,1-.547-.537h0a.542.542,0,0,1,.547-.536h3.246a.541.541,0,0,1,.546.536h0A.542.542,0,0,1,84.207,58.962Z" fill="url(#linear-gradient-35)"/><path d="M89.438,60.829H65.614a.542.542,0,0,1-.547-.536h0a.542.542,0,0,1,.547-.537H89.438a.541.541,0,0,1,.546.537h0A.541.541,0,0,1,89.438,60.829Z" fill="url(#linear-gradient-36)"/></g><rect x="52.395" y="65.01" width="50.531" height="15.619" rx="3.754" fill="url(#linear-gradient-37)"/><path d="M53.819,27.752a11.812,11.812,0,0,1,3.454,3.989s2.186-5.213,6.075-7.724c0,0-3.329.185-6.075,5.273A7.13,7.13,0,0,0,53.819,27.752Z" fill="url(#linear-gradient-38)"/><path d="M118.269,80.746a14.288,14.288,0,0,1-11.561-13.807,67.361,67.361,0,0,0-12.486-3.973,95.1,95.1,0,0,0-41.78,0,67.347,67.347,0,0,0-12.487,3.973A14.288,14.288,0,0,1,28.394,80.746s-3.135,53.36,44.938,67.727C121.405,134.106,118.269,80.746,118.269,80.746Z" fill="url(#linear-gradient-39)"/><path d="M114.328,83.622a80.5,80.5,0,0,1-4.264,24.346c-6.363,18.436-18.718,30.681-36.73,36.414-17.934-5.707-30.262-17.869-36.651-36.175a81.128,81.128,0,0,1-4.344-24.585A17.965,17.965,0,0,0,43.708,69.613a69.34,69.34,0,0,1,9.626-2.846,91.527,91.527,0,0,1,40,0,69.3,69.3,0,0,1,9.621,2.846A17.982,17.982,0,0,0,114.328,83.622Z" fill="url(#linear-gradient-40)"/><path d="M73.481,88.771a8.251,8.251,0,0,0-8.316,8.166v8.175h2.241V96.937a6.076,6.076,0,0,1,12.15,0v8.175H81.8V96.937A8.251,8.251,0,0,0,73.481,88.771Z" fill="url(#linear-gradient-41)"/><rect x="62.124" y="100.93" width="22.416" height="16.471" rx="3.531" fill="url(#linear-gradient-42)"/><path d="M75.685,108.084a2.359,2.359,0,0,0-4.657-.485,2.292,2.292,0,0,0,1.134,2.484.631.631,0,0,1,.329.551V113.2a.833.833,0,0,0,.841.825h0a.832.832,0,0,0,.84-.825v-2.566a.64.64,0,0,1,.332-.554A2.293,2.293,0,0,0,75.685,108.084Z" fill="url(#linear-gradient-43)"/><path d="M73.334,148.471V60.645a95.2,95.2,0,0,1,20.889,2.32,67.52,67.52,0,0,1,12.487,3.974,14.287,14.287,0,0,0,11.56,13.806S121.406,134.108,73.334,148.471Z" opacity="0.63" fill="url(#linear-gradient-44)" style="mix-blend-mode:screen"/><path d="M73.332,149.773a1.358,1.358,0,0,1-.385-.056c-25.371-7.582-36.5-25.979-41.366-40.078a82.615,82.615,0,0,1-4.509-28.967,1.308,1.308,0,0,1,1.021-1.192A12.91,12.91,0,0,0,38.63,66.958a1.305,1.305,0,0,1,.776-1.2A68.311,68.311,0,0,1,52.146,61.7a96.926,96.926,0,0,1,42.372,0,68.311,68.311,0,0,1,12.74,4.057,1.3,1.3,0,0,1,.775,1.206A12.91,12.91,0,0,0,118.571,79.48a1.308,1.308,0,0,1,1.021,1.192,82.615,82.615,0,0,1-4.509,28.967c-4.868,14.1-16,32.5-41.366,40.078A1.358,1.358,0,0,1,73.332,149.773ZM29.688,81.76a82.986,82.986,0,0,0,4.431,27.126c6.754,19.492,19.945,32.351,39.213,38.226,19.268-5.875,32.459-18.734,39.213-38.226a82.979,82.979,0,0,0,4.431-27.126,15.525,15.525,0,0,1-11.545-13.955,67.568,67.568,0,0,0-11.506-3.571,94.168,94.168,0,0,0-41.186,0,67.568,67.568,0,0,0-11.506,3.571A15.528,15.528,0,0,1,29.688,81.76Z" fill="url(#linear-gradient-45)"/></g></g></g></svg>