<svg xmlns="http://www.w3.org/2000/svg" xmlns:xlink="http://www.w3.org/1999/xlink" viewBox="0 0 150.088 149.819"><defs><linearGradient id="linear-gradient" x1="48.879" y1="63.805" x2="124.243" y2="0.114" gradientUnits="userSpaceOnUse"><stop offset="0.083" stop-color="#011557"/><stop offset="0.656" stop-color="#004b86"/><stop offset="0.993" stop-color="#00669d"/></linearGradient><linearGradient id="linear-gradient-2" x1="151.515" y1="74.19" x2="105.918" y2="74.234" gradientUnits="userSpaceOnUse"><stop offset="0.083" stop-color="#0072a8"/><stop offset="0.088" stop-color="#0071a7"/><stop offset="0.177" stop-color="#00639b"/><stop offset="0.288" stop-color="#005b94"/><stop offset="0.49" stop-color="#005992"/><stop offset="0.629" stop-color="#00558f"/><stop offset="0.761" stop-color="#004a85"/><stop offset="0.891" stop-color="#013674"/><stop offset="1" stop-color="#012060"/></linearGradient><linearGradient id="linear-gradient-3" x1="78.032" y1="111.419" x2="78.057" y2="73.222" gradientUnits="userSpaceOnUse"><stop offset="0" stop-color="#2b4ea0"/><stop offset="0.155" stop-color="#2064ad"/><stop offset="0.477" stop-color="#039cce"/><stop offset="0.514" stop-color="#00a3d2"/><stop offset="0.639" stop-color="#00a7d5"/><stop offset="0.76" stop-color="#00b2df"/><stop offset="0.877" stop-color="#00c6f0"/><stop offset="0.952" stop-color="#00d6fe"/></linearGradient><linearGradient id="linear-gradient-4" x1="74.429" y1="19.406" x2="127.175" y2="19.406" gradientUnits="userSpaceOnUse"><stop offset="0.083" stop-color="#18ebff"/><stop offset="0.183" stop-color="#17e2f7"/><stop offset="0.349" stop-color="#14c8e3"/><stop offset="0.56" stop-color="#0f9ec2"/><stop offset="0.691" stop-color="#0c81ab"/><stop offset="0.753" stop-color="#0d87b0"/><stop offset="0.836" stop-color="#0e98be"/><stop offset="0.929" stop-color="#11b3d5"/><stop offset="1" stop-color="#13cdea"/></linearGradient><linearGradient id="linear-gradient-5" x1="101.156" y1="19.225" x2="127.005" y2="19.225" gradientUnits="userSpaceOnUse"><stop offset="0.083" stop-color="#18ebff"/><stop offset="0.241" stop-color="#13bdda"/><stop offset="0.406" stop-color="#0e92b8"/><stop offset="0.49" stop-color="#0c81ab"/><stop offset="1" stop-color="#13cdea"/></linearGradient><linearGradient id="linear-gradient-6" x1="69.317" y1="39.989" x2="88.582" y2="20.724" gradientUnits="userSpaceOnUse"><stop offset="0.083" stop-color="#1c75bc"/><stop offset="0.144" stop-color="#1c75bc"/><stop offset="0.508" stop-color="#1c75bc"/><stop offset="0.641" stop-color="#1a79bf"/><stop offset="0.769" stop-color="#1484ca"/><stop offset="0.895" stop-color="#0b98db"/><stop offset="1" stop-color="#00aeef"/></linearGradient><linearGradient id="linear-gradient-7" x1="3.083" y1="91.272" x2="68.518" y2="91.272" gradientUnits="userSpaceOnUse"><stop offset="0" stop-color="#fdf53f"/><stop offset="1" stop-color="#d93c65"/></linearGradient><linearGradient id="linear-gradient-8" x1="62.383" y1="140.104" x2="62.383" y2="94.387" gradientUnits="userSpaceOnUse"><stop offset="0.083" stop-color="#2b4ea0"/><stop offset="0.159" stop-color="#2b58a7"/><stop offset="0.282" stop-color="#2b60ac"/><stop offset="0.508" stop-color="#2b62ae"/><stop offset="0.641" stop-color="#2b66b1"/><stop offset="0.769" stop-color="#2a71b9"/><stop offset="0.895" stop-color="#2985c6"/><stop offset="1" stop-color="#289bd6"/></linearGradient><linearGradient id="linear-gradient-9" x1="36.882" y1="52.473" x2="83.225" y2="52.473" xlink:href="#linear-gradient-8"/><linearGradient id="linear-gradient-10" x1="0.743" y1="33.584" x2="47.035" y2="33.584" xlink:href="#linear-gradient-8"/></defs><g id="Layer_2" data-name="Layer 2"><g id="Layer_2-2" data-name="Layer 2"><g id="Layer_3" data-name="Layer 3"><polygon points="52.465 18.065 96.653 0 149.963 21.087 106.757 38.811 52.465 18.065" fill="url(#linear-gradient)"/><path d="M149.963,109.614V21.087L106.757,38.811a6.421,6.421,0,0,0-1.9,2.245,4.5,4.5,0,0,0-.3,3.2q.528,41.54,1.057,83.079Z" stroke="#289bd6" stroke-miterlimit="10" stroke-width="0.25" fill="url(#linear-gradient-2)"/><polygon points="50.504 107.104 50.504 21.087 104.552 44.26 105.609 127.339 50.504 107.104" fill="url(#linear-gradient-3)"/><polygon points="74.429 19.364 101.326 8.996 127.175 19.024 100.43 29.815 74.429 19.364" fill="url(#linear-gradient-4)"/><polygon points="101.156 8.996 101.156 29.454 127.005 19.024 101.156 8.996" fill="url(#linear-gradient-5)"/><polygon points="54.3 30.099 99.436 47.66 99.436 117.014 54.3 100.207 54.3 30.099" fill="#014f89"/><polygon points="59.531 31.97 59.531 97.009 54.3 100.207 54.303 29.815 59.531 31.97" fill="#013674"/><path d="M59.476,96.977l39.861,15.384a.306.306,0,0,0,.114.02L99.428,117c.008.015-.125.028-.147.019L54.3,100.207c-.024-.009,5.122-3.223,5.148-3.231h0A.053.053,0,0,1,59.476,96.977Z" fill="#013674"/><path d="M66.2,44.025v-7.57l-5.827-2.2.17,7.826Q63.364,43.064,66.2,44.025Z" fill="#fff" opacity="0.64"/><path d="M60.588,44.035l.2,9.185L66.2,54.827V45.963Q63.378,45.022,60.588,44.035Z" fill="#fff" opacity="0.64"/><path d="M90.651,51.187c.37.124.747.236,1.12.355V46.13l-5.254-1.988v5.666C87.9,50.261,89.276,50.724,90.651,51.187Z" fill="#fff" opacity="0.64"/><path d="M89.13,52.6c-.871-.293-1.741-.588-2.613-.879v9.132l5.254,1.559v-8.97C90.885,53.174,90,52.9,89.13,52.6Z" fill="#fff" opacity="0.64"/><path d="M98.779,53.642l-.006-4.863-4.492-1.7v5.243C95.778,52.767,97.281,53.2,98.779,53.642Z" fill="#fff" opacity="0.64"/><path d="M94.281,54.193V63.16L98.8,64.5l-.013-8.97C97.287,55.074,95.785,54.633,94.281,54.193Z" fill="#fff" opacity="0.64"/><path d="M79.913,47.835c1.386.357,2.745.759,4.094,1.175V43.192L77.414,40.7v6.514C78.246,47.416,79.08,47.621,79.913,47.835Z" fill="#fff" opacity="0.64"/><path d="M78.158,49.242l-.744-.181v9.093l6.593,1.957v-9.2C82.091,50.3,80.153,49.723,78.158,49.242Z" fill="#fff" opacity="0.64"/><path d="M74.9,46.59V39.747l-6.192-2.342v7.469C70.746,45.529,72.818,46.071,74.9,46.59Z" fill="#fff" opacity="0.64"/><path d="M68.712,46.762v8.81L74.9,57.409V48.447C72.816,47.928,70.753,47.379,68.712,46.762Z" fill="#fff" opacity="0.64"/><path d="M96.507,73.805c-.727-.282-1.477-.532-2.226-.783V84.46l4.447,1.32-.015-11.042C97.987,74.414,97.257,74.1,96.507,73.805Z" fill="#fff" opacity="0.64"/><path d="M96.525,71.838c.743.264,1.467.568,2.185.881l-.01-7.313-4.419-1.292V71.1C95.035,71.339,95.789,71.576,96.525,71.838Z" fill="#fff" opacity="0.64"/><path d="M86.517,70.763V82.156l5.254,1.559V72.23C90.035,71.717,88.278,71.235,86.517,70.763Z" fill="#fff" opacity="0.64"/><path d="M91.771,70.34V63.38l-5.254-1.537v7.051C88.275,69.362,90.031,69.84,91.771,70.34Z" fill="#fff" opacity="0.64"/><path d="M83.817,68.167l.19.051V61.109l-6.593-1.928v7.333Q80.635,67.294,83.817,68.167Z" fill="#fff" opacity="0.64"/><path d="M77.414,68.346V79.455l6.593,1.956V70.085Q80.726,69.178,77.414,68.346Z" fill="#fff" opacity="0.64"/><path d="M70.3,64.935c1.551.31,3.074.667,4.6,1.014v-7.5l-6.192-1.81v7.977C69.243,64.72,69.773,64.829,70.3,64.935Z" fill="#fff" opacity="0.64"/><path d="M71.087,66.9q-1.186-.24-2.375-.477V76.872L74.9,78.71V67.774C73.634,67.479,72.375,67.165,71.087,66.9Z" fill="#fff" opacity="0.64"/><path d="M63.416,63.427c.913.246,1.849.454,2.786.658V55.9l-5.481-1.6v8.337C61.6,62.865,62.465,63.17,63.416,63.427Z" fill="#fff" opacity="0.64"/><path d="M64.737,65.587c-1.049-.241-2.127-.476-3.134-.793-.292-.092-.586-.2-.882-.3V74.5L66.2,76.127V65.9C65.714,65.8,65.222,65.7,64.737,65.587Z" fill="#fff" opacity="0.64"/><path d="M98.711,93.926,98.7,86.687l-4.419-1.279v7.023C95.747,92.938,97.223,93.441,98.711,93.926Z" fill="#fff" opacity="0.64"/><path d="M94.281,94.371v14.675l4.453,1.815-.021-15.023C97.218,95.369,95.74,94.876,94.281,94.371Z" fill="#fff" opacity="0.64"/><path d="M91.771,91.6V84.681L86.517,83.16v6.888Q89.175,90.768,91.771,91.6Z" fill="#fff" opacity="0.64"/><path d="M86.517,91.945V105.88l5.254,2.142V93.566C90.036,93,88.286,92.445,86.517,91.945Z" fill="#fff" opacity="0.64"/><path d="M80.234,88.5q1.905.426,3.773.9V82.434l-6.593-1.908v7.368C78.356,88.09,79.3,88.287,80.234,88.5Z" fill="#fff" opacity="0.64"/><path d="M50.38,21.051a2.407,2.407,0,0,1,.678-2.147,4.077,4.077,0,0,1,1.283-.875l54.292,20.746A6.263,6.263,0,0,0,104.6,41.3a4.431,4.431,0,0,0-.172,2.922Z" fill="url(#linear-gradient-6)"/><path d="M80.7,90.429c-1.086-.248-2.187-.465-3.282-.7v12.435l6.593,2.688V91.291C82.9,91.005,81.826,90.688,80.7,90.429Z" fill="#fff" opacity="0.64"/><path d="M74.9,87.376V79.8l-6.192-1.792v8.051C70.762,86.525,72.831,86.955,74.9,87.376Z" fill="#fff" opacity="0.64"/><path d="M68.712,87.872v10.75l6.192,2.524V89.2C72.83,88.778,70.77,88.328,68.712,87.872Z" fill="#fff" opacity="0.64"/><path d="M66.2,85.469V77.281l-5.481-1.587v8.473C62.587,84.516,64.415,85.018,66.2,85.469Z" fill="#fff" opacity="0.64"/><path d="M60.721,85.913v9.451L66.2,97.6V87.308C64.462,86.869,62.607,86.312,60.721,85.913Z" fill="#fff" opacity="0.64"/><path d="M.743,32.688c1.544,1.337,12.972,10.924,26.316,7.169a25.359,25.359,0,0,0,9.823-5.438,91.628,91.628,0,0,0,11.8,20.373A87.773,87.773,0,0,0,73.172,76.641c.6,3.9,5.679,40.4-17.519,61.963A51.248,51.248,0,0,1,36.31,149.819C21.079,129.3.551,94.212.011,49.42A150.515,150.515,0,0,1,.743,32.688Z" fill="#00afe5"/><path d="M3.74,39.521C5.1,40.7,15.2,49.174,26.993,45.856a22.386,22.386,0,0,0,8.68-4.806,80.947,80.947,0,0,0,10.428,18A77.537,77.537,0,0,0,67.74,78.359c.531,3.448,5.019,35.7-15.48,54.753a45.291,45.291,0,0,1-17.093,9.911C21.709,124.888,3.57,93.886,3.092,54.306A132.737,132.737,0,0,1,3.74,39.521Z" fill="url(#linear-gradient-7)"/><path d="M83.225,70.5,73.172,76.641a87.59,87.59,0,0,1,.611,14.493c-.13,3.192-.673,14.632-4.792,25.247-6.936,17.875-21.918,28.006-28.311,31.825,6.915-2.174,21.221-7.886,31.383-22.541a57.839,57.839,0,0,0,6.113-11.377,86.567,86.567,0,0,0,5.022-19.1A87.639,87.639,0,0,0,83.225,70.5Z" fill="url(#linear-gradient-8)"/><path d="M47.035,28.306A98.643,98.643,0,0,0,62.506,52.634,94.157,94.157,0,0,0,83.225,70.5L73.172,76.641A80.808,80.808,0,0,1,51.5,58.808,85.272,85.272,0,0,1,36.882,34.419Z" fill="url(#linear-gradient-9)"/><path d="M10.639,26.284l-9.9,6.4c1.383,1.4,8.755,8.58,19.932,8.18a26.8,26.8,0,0,0,16.207-6.449l10.153-6.113a31.255,31.255,0,0,1-17.63,4.981A31.63,31.63,0,0,1,10.639,26.284Z" fill="url(#linear-gradient-10)"/><path d="M35.8,40.073l0,.761c-1.514,13.922-2.572,29.2-2.819,45.667A491,491,0,0,0,35.3,142.045a397.718,397.718,0,0,1-3.97-96.43,6.243,6.243,0,0,1,.892-2.931A5.937,5.937,0,0,1,35.8,40.073Z" fill="#00afe5"/></g></g></g></svg>