<svg xmlns="http://www.w3.org/2000/svg" xmlns:xlink="http://www.w3.org/1999/xlink" viewBox="0 0 150 150"><defs><linearGradient id="linear-gradient" x1="93.176" y1="110.892" x2="150" y2="110.892" gradientUnits="userSpaceOnUse"><stop offset="0" stop-color="#53d8ff"/><stop offset="0.439" stop-color="#52d0ff"/><stop offset="0.662" stop-color="#4279fa"/><stop offset="0.818" stop-color="#3d7df9"/><stop offset="1" stop-color="#00aeef"/></linearGradient><linearGradient id="linear-gradient-2" x1="79.513" y1="110.892" x2="136.337" y2="110.892" gradientUnits="userSpaceOnUse"><stop offset="0" stop-color="#53d8ff"/><stop offset="1" stop-color="#3840f7"/></linearGradient><linearGradient id="linear-gradient-3" x1="65.95" y1="102.348" x2="79.513" y2="102.348" gradientUnits="userSpaceOnUse"><stop offset="0" stop-color="#1c75bc"/><stop offset="1" stop-color="#f15a29"/></linearGradient><linearGradient id="linear-gradient-4" x1="65.95" y1="102.348" x2="79.513" y2="102.348" gradientUnits="userSpaceOnUse"><stop offset="0" stop-color="#1c75bc"/><stop offset="1" stop-color="#92278f"/></linearGradient><linearGradient id="linear-gradient-5" x1="65.841" y1="107.301" x2="79.404" y2="107.301" xlink:href="#linear-gradient-3"/><linearGradient id="linear-gradient-6" x1="65.841" y1="107.301" x2="79.404" y2="107.301" xlink:href="#linear-gradient-4"/><linearGradient id="linear-gradient-7" x1="57.004" y1="95.016" x2="66.954" y2="95.016" xlink:href="#linear-gradient-2"/><linearGradient id="linear-gradient-8" x1="1.865" y1="95.016" x2="57.004" y2="95.016" xlink:href="#linear-gradient-2"/><linearGradient id="linear-gradient-9" x1="1.077" y1="49.418" x2="52.199" y2="49.418" xlink:href="#linear-gradient-3"/><linearGradient id="linear-gradient-10" x1="1.077" y1="60.838" x2="52.949" y2="60.838" xlink:href="#linear-gradient-3"/><linearGradient id="linear-gradient-11" x1="1.077" y1="71.802" x2="52.949" y2="71.802" xlink:href="#linear-gradient-3"/><linearGradient id="linear-gradient-12" x1="0.538" y1="82.002" x2="52.411" y2="82.002" xlink:href="#linear-gradient-3"/><linearGradient id="linear-gradient-13" x1="0.538" y1="93.422" x2="52.411" y2="93.422" xlink:href="#linear-gradient-3"/><linearGradient id="linear-gradient-14" x1="0.538" y1="104.386" x2="52.411" y2="104.386" xlink:href="#linear-gradient-3"/><linearGradient id="linear-gradient-15" x1="0" y1="113.805" x2="51.872" y2="113.805" xlink:href="#linear-gradient-3"/><linearGradient id="linear-gradient-16" x1="0" y1="125.225" x2="51.872" y2="125.225" xlink:href="#linear-gradient-3"/><linearGradient id="linear-gradient-17" x1="0" y1="136.189" x2="51.872" y2="136.189" xlink:href="#linear-gradient-3"/><linearGradient id="linear-gradient-18" x1="100.792" y1="12.182" x2="124.021" y2="12.182" gradientUnits="userSpaceOnUse"><stop offset="0" stop-color="#fdf53f"/><stop offset="1" stop-color="#d93c65"/></linearGradient><linearGradient id="linear-gradient-19" x1="122.804" y1="15.914" x2="131.943" y2="15.914" xlink:href="#linear-gradient-18"/><linearGradient id="linear-gradient-20" x1="122.108" y1="62.068" x2="143.575" y2="62.068" gradientUnits="userSpaceOnUse"><stop offset="0" stop-color="#cb236d"/><stop offset="1" stop-color="#4c246d"/></linearGradient><linearGradient id="linear-gradient-21" x1="118.2" y1="74.382" x2="136.733" y2="74.382" xlink:href="#linear-gradient-18"/><linearGradient id="linear-gradient-22" x1="114.33" y1="70.777" x2="130.365" y2="70.777" gradientUnits="userSpaceOnUse"><stop offset="0" stop-color="#fdf53f"/><stop offset="0.665" stop-color="#e57a58"/><stop offset="1" stop-color="#d93c65"/></linearGradient></defs><g id="Layer_2" data-name="Layer 2"><g id="Layer_6" data-name="Layer 6"><rect x="93.176" y="71.94" width="56.824" height="77.904" rx="1.882" fill="url(#linear-gradient)"/><rect x="79.513" y="71.94" width="56.824" height="77.904" rx="2.978" fill="url(#linear-gradient-2)"/><rect x="82.068" y="75.439" width="51.714" height="70.825" rx="2.977" fill="#fff"/><rect x="84.48" y="78.705" width="46.891" height="4.773" rx="1.512" fill="#b2d7ff"/><rect x="86.836" y="80.604" width="32.236" height="0.975" fill="#fff"/><ellipse cx="123.754" cy="81.092" rx="0.602" ry="0.541" fill="#fff"/><ellipse cx="125.904" cy="81.092" rx="0.602" ry="0.541" fill="#fff"/><ellipse cx="128.197" cy="81.092" rx="0.602" ry="0.541" fill="#fff"/><line x1="65.95" y1="102.348" x2="79.513" y2="102.348" stroke-miterlimit="10" fill="url(#linear-gradient-3)" stroke="url(#linear-gradient-4)"/><line x1="65.841" y1="107.301" x2="79.404" y2="107.301" stroke-miterlimit="10" fill="url(#linear-gradient-5)" stroke="url(#linear-gradient-6)"/><rect x="84.48" y="87.826" width="46.891" height="4.773" rx="1.512" fill="#b2d7ff"/><rect x="86.836" y="89.725" width="32.236" height="0.975" fill="#fff"/><ellipse cx="123.754" cy="90.212" rx="0.602" ry="0.541" fill="#fff"/><ellipse cx="125.904" cy="90.212" rx="0.602" ry="0.541" fill="#fff"/><ellipse cx="128.197" cy="90.212" rx="0.602" ry="0.541" fill="#fff"/><rect x="84.48" y="96.946" width="46.891" height="4.773" rx="1.512" fill="#b2d7ff"/><rect x="86.836" y="98.846" width="32.236" height="0.975" fill="#fff"/><ellipse cx="123.754" cy="99.333" rx="0.602" ry="0.541" fill="#fff"/><ellipse cx="125.904" cy="99.333" rx="0.602" ry="0.541" fill="#fff"/><ellipse cx="128.197" cy="99.333" rx="0.602" ry="0.541" fill="#fff"/><rect x="84.48" y="106.067" width="46.891" height="4.773" rx="1.512" fill="#b2d7ff"/><rect x="86.836" y="107.966" width="32.236" height="0.975" fill="#fff"/><ellipse cx="123.754" cy="108.454" rx="0.602" ry="0.541" fill="#fff"/><ellipse cx="125.904" cy="108.454" rx="0.602" ry="0.541" fill="#fff"/><ellipse cx="128.197" cy="108.454" rx="0.602" ry="0.541" fill="#fff"/><rect x="84.48" y="115.188" width="46.891" height="4.773" rx="1.512" fill="#b2d7ff"/><rect x="86.836" y="117.087" width="32.236" height="0.975" fill="#fff"/><ellipse cx="123.754" cy="117.575" rx="0.602" ry="0.541" fill="#fff"/><ellipse cx="125.904" cy="117.575" rx="0.602" ry="0.541" fill="#fff"/><ellipse cx="128.197" cy="117.575" rx="0.602" ry="0.541" fill="#fff"/><rect x="84.48" y="124.031" width="46.891" height="4.763" rx="1.512" fill="#b2d7ff"/><rect x="86.836" y="125.926" width="32.236" height="0.973" fill="#fff"/><ellipse cx="123.754" cy="126.413" rx="0.602" ry="0.54" fill="#fff"/><ellipse cx="125.904" cy="126.413" rx="0.602" ry="0.54" fill="#fff"/><ellipse cx="128.197" cy="126.413" rx="0.602" ry="0.54" fill="#fff"/><rect x="84.59" y="132.868" width="46.891" height="4.763" rx="1.512" fill="#b2d7ff"/><rect x="86.947" y="134.763" width="32.236" height="0.973" fill="#fff"/><ellipse cx="123.864" cy="135.25" rx="0.602" ry="0.54" fill="#fff"/><ellipse cx="126.014" cy="135.25" rx="0.602" ry="0.54" fill="#fff"/><ellipse cx="128.307" cy="135.25" rx="0.602" ry="0.54" fill="#fff"/><polygon points="66.954 147.39 57.004 150 57.004 40.032 66.954 40.032 66.954 147.39" fill="url(#linear-gradient-7)"/><rect x="1.865" y="40.032" width="55.139" height="109.968" fill="url(#linear-gradient-8)"/><rect x="1.077" y="46.072" width="51.122" height="6.694" fill="url(#linear-gradient-9)"/><rect x="10.485" y="46.739" width="1.077" height="5.592" fill="#fff"/><rect x="13.11" y="46.739" width="1.077" height="5.592" fill="#fff"/><rect x="5.127" y="46.742" width="1.077" height="5.592" fill="#fff"/><rect x="7.752" y="46.742" width="1.077" height="5.592" fill="#fff"/><rect x="15.682" y="46.739" width="1.077" height="5.592" fill="#fff"/><rect x="18.308" y="46.739" width="1.077" height="5.592" fill="#fff"/><rect x="20.895" y="46.733" width="1.077" height="5.592" fill="#fff"/><rect x="23.521" y="46.733" width="1.077" height="5.592" fill="#fff"/><rect x="26.093" y="46.733" width="1.077" height="5.592" fill="#fff"/><rect x="28.719" y="46.733" width="1.077" height="5.592" fill="#fff"/><rect x="31.333" y="46.727" width="1.1" height="5.592" fill="#fff"/><rect x="34.016" y="46.727" width="1.1" height="5.592" fill="#fff"/><rect x="36.643" y="46.727" width="1.1" height="5.592" fill="#fff"/><rect x="39.326" y="46.727" width="1.1" height="5.592" fill="#fff"/><rect x="41.968" y="46.721" width="1.1" height="5.592" fill="#fff"/><rect x="44.651" y="46.721" width="1.1" height="5.592" fill="#fff"/><rect x="47.278" y="46.721" width="1.1" height="5.592" fill="#fff"/><rect x="49.961" y="46.721" width="1.1" height="5.592" fill="#fff"/><ellipse cx="3.132" cy="47.97" rx="1.152" ry="1.035" fill="#fff"/><ellipse cx="3.132" cy="50.685" rx="1.152" ry="1.035" fill="#0864c2"/><rect x="1.077" y="57.491" width="51.872" height="6.694" fill="url(#linear-gradient-10)"/><rect x="10.485" y="58.158" width="1.077" height="5.592" fill="#fff"/><rect x="13.11" y="58.158" width="1.077" height="5.592" fill="#fff"/><rect x="5.127" y="58.162" width="1.077" height="5.592" fill="#fff"/><rect x="7.752" y="58.162" width="1.077" height="5.592" fill="#fff"/><rect x="15.682" y="58.158" width="1.077" height="5.592" fill="#fff"/><rect x="18.308" y="58.158" width="1.077" height="5.592" fill="#fff"/><rect x="20.895" y="58.153" width="1.077" height="5.592" fill="#fff"/><rect x="23.521" y="58.153" width="1.077" height="5.592" fill="#fff"/><rect x="26.093" y="58.153" width="1.077" height="5.592" fill="#fff"/><rect x="28.719" y="58.153" width="1.077" height="5.592" fill="#fff"/><rect x="31.333" y="58.147" width="1.1" height="5.592" fill="#fff"/><rect x="34.016" y="58.147" width="1.1" height="5.592" fill="#fff"/><rect x="36.643" y="58.147" width="1.1" height="5.592" fill="#fff"/><rect x="39.326" y="58.147" width="1.1" height="5.592" fill="#fff"/><rect x="41.968" y="58.141" width="1.1" height="5.592" fill="#fff"/><rect x="44.651" y="58.141" width="1.1" height="5.592" fill="#fff"/><rect x="47.278" y="58.141" width="1.1" height="5.592" fill="#fff"/><rect x="49.961" y="58.141" width="1.1" height="5.592" fill="#fff"/><ellipse cx="3.132" cy="59.39" rx="1.152" ry="1.035" fill="#fff"/><ellipse cx="3.132" cy="62.105" rx="1.152" ry="1.035" fill="#0864c2"/><rect x="1.077" y="68.455" width="51.872" height="6.694" fill="url(#linear-gradient-11)"/><rect x="10.485" y="69.122" width="1.077" height="5.592" fill="#fff"/><rect x="13.11" y="69.122" width="1.077" height="5.592" fill="#fff"/><rect x="5.127" y="69.125" width="1.077" height="5.592" fill="#fff"/><rect x="7.752" y="69.125" width="1.077" height="5.592" fill="#fff"/><rect x="15.682" y="69.122" width="1.077" height="5.592" fill="#fff"/><rect x="18.308" y="69.122" width="1.077" height="5.592" fill="#fff"/><rect x="20.895" y="69.117" width="1.077" height="5.592" fill="#fff"/><rect x="23.521" y="69.117" width="1.077" height="5.592" fill="#fff"/><rect x="26.093" y="69.117" width="1.077" height="5.592" fill="#fff"/><rect x="28.719" y="69.117" width="1.077" height="5.592" fill="#fff"/><rect x="31.333" y="69.111" width="1.1" height="5.592" fill="#fff"/><rect x="34.016" y="69.111" width="1.1" height="5.592" fill="#fff"/><rect x="36.643" y="69.111" width="1.1" height="5.592" fill="#fff"/><rect x="39.326" y="69.111" width="1.1" height="5.592" fill="#fff"/><rect x="41.968" y="69.105" width="1.1" height="5.592" fill="#fff"/><rect x="44.651" y="69.105" width="1.1" height="5.592" fill="#fff"/><rect x="47.278" y="69.105" width="1.1" height="5.592" fill="#fff"/><rect x="49.961" y="69.105" width="1.1" height="5.592" fill="#fff"/><ellipse cx="3.132" cy="70.354" rx="1.152" ry="1.035" fill="#fff"/><ellipse cx="3.132" cy="73.069" rx="1.152" ry="1.035" fill="#0864c2"/><rect x="0.538" y="78.656" width="51.872" height="6.694" fill="url(#linear-gradient-12)"/><rect x="9.946" y="79.323" width="1.077" height="5.592" fill="#fff"/><rect x="12.572" y="79.323" width="1.077" height="5.592" fill="#fff"/><rect x="4.588" y="79.326" width="1.077" height="5.592" fill="#fff"/><rect x="7.214" y="79.326" width="1.077" height="5.592" fill="#fff"/><rect x="15.144" y="79.323" width="1.077" height="5.592" fill="#fff"/><rect x="17.77" y="79.323" width="1.077" height="5.592" fill="#fff"/><rect x="20.357" y="79.317" width="1.077" height="5.592" fill="#fff"/><rect x="22.983" y="79.317" width="1.077" height="5.592" fill="#fff"/><rect x="25.555" y="79.317" width="1.077" height="5.592" fill="#fff"/><rect x="28.181" y="79.317" width="1.077" height="5.592" fill="#fff"/><rect x="30.795" y="79.311" width="1.1" height="5.592" fill="#fff"/><rect x="33.477" y="79.311" width="1.1" height="5.592" fill="#fff"/><rect x="36.105" y="79.311" width="1.1" height="5.592" fill="#fff"/><rect x="38.787" y="79.311" width="1.1" height="5.592" fill="#fff"/><rect x="41.43" y="79.305" width="1.1" height="5.592" fill="#fff"/><rect x="44.113" y="79.305" width="1.1" height="5.592" fill="#fff"/><rect x="46.74" y="79.305" width="1.1" height="5.592" fill="#fff"/><rect x="49.422" y="79.305" width="1.1" height="5.592" fill="#fff"/><ellipse cx="2.594" cy="80.554" rx="1.152" ry="1.035" fill="#fff"/><ellipse cx="2.594" cy="83.269" rx="1.152" ry="1.035" fill="#0864c2"/><rect x="0.538" y="90.075" width="51.872" height="6.694" fill="url(#linear-gradient-13)"/><rect x="9.946" y="90.743" width="1.077" height="5.592" fill="#fff"/><rect x="12.572" y="90.743" width="1.077" height="5.592" fill="#fff"/><rect x="4.588" y="90.746" width="1.077" height="5.592" fill="#fff"/><rect x="7.214" y="90.746" width="1.077" height="5.592" fill="#fff"/><rect x="15.144" y="90.743" width="1.077" height="5.592" fill="#fff"/><rect x="17.77" y="90.743" width="1.077" height="5.592" fill="#fff"/><rect x="20.357" y="90.737" width="1.077" height="5.592" fill="#fff"/><rect x="22.983" y="90.737" width="1.077" height="5.592" fill="#fff"/><rect x="25.555" y="90.737" width="1.077" height="5.592" fill="#fff"/><rect x="28.181" y="90.737" width="1.077" height="5.592" fill="#fff"/><rect x="30.795" y="90.731" width="1.1" height="5.592" fill="#fff"/><rect x="33.477" y="90.731" width="1.1" height="5.592" fill="#fff"/><rect x="36.105" y="90.731" width="1.1" height="5.592" fill="#fff"/><rect x="38.787" y="90.731" width="1.1" height="5.592" fill="#fff"/><rect x="41.43" y="90.725" width="1.1" height="5.592" fill="#fff"/><rect x="44.113" y="90.725" width="1.1" height="5.592" fill="#fff"/><rect x="46.74" y="90.725" width="1.1" height="5.592" fill="#fff"/><rect x="49.422" y="90.725" width="1.1" height="5.592" fill="#fff"/><ellipse cx="2.594" cy="91.974" rx="1.152" ry="1.035" fill="#fff"/><ellipse cx="2.594" cy="94.689" rx="1.152" ry="1.035" fill="#0864c2"/><rect x="0.538" y="101.039" width="51.872" height="6.694" fill="url(#linear-gradient-14)"/><rect x="9.946" y="101.707" width="1.077" height="5.592" fill="#fff"/><rect x="12.572" y="101.707" width="1.077" height="5.592" fill="#fff"/><rect x="4.588" y="101.71" width="1.077" height="5.592" fill="#fff"/><rect x="7.214" y="101.71" width="1.077" height="5.592" fill="#fff"/><rect x="15.144" y="101.707" width="1.077" height="5.592" fill="#fff"/><rect x="17.77" y="101.707" width="1.077" height="5.592" fill="#fff"/><rect x="20.357" y="101.701" width="1.077" height="5.592" fill="#fff"/><rect x="22.983" y="101.701" width="1.077" height="5.592" fill="#fff"/><rect x="25.555" y="101.701" width="1.077" height="5.592" fill="#fff"/><rect x="28.181" y="101.701" width="1.077" height="5.592" fill="#fff"/><rect x="30.795" y="101.695" width="1.1" height="5.592" fill="#fff"/><rect x="33.477" y="101.695" width="1.1" height="5.592" fill="#fff"/><rect x="36.105" y="101.695" width="1.1" height="5.592" fill="#fff"/><rect x="38.787" y="101.695" width="1.1" height="5.592" fill="#fff"/><rect x="41.43" y="101.689" width="1.1" height="5.592" fill="#fff"/><rect x="44.113" y="101.689" width="1.1" height="5.592" fill="#fff"/><rect x="46.74" y="101.689" width="1.1" height="5.592" fill="#fff"/><rect x="49.422" y="101.689" width="1.1" height="5.592" fill="#fff"/><ellipse cx="2.594" cy="102.938" rx="1.152" ry="1.035" fill="#fff"/><ellipse cx="2.594" cy="105.653" rx="1.152" ry="1.035" fill="#0864c2"/><rect y="110.458" width="51.872" height="6.694" fill="url(#linear-gradient-15)"/><rect x="9.408" y="111.125" width="1.077" height="5.592" fill="#fff"/><rect x="12.034" y="111.125" width="1.077" height="5.592" fill="#fff"/><rect x="4.05" y="111.129" width="1.077" height="5.592" fill="#fff"/><rect x="6.676" y="111.129" width="1.077" height="5.592" fill="#fff"/><rect x="14.606" y="111.125" width="1.077" height="5.592" fill="#fff"/><rect x="17.232" y="111.125" width="1.077" height="5.592" fill="#fff"/><rect x="19.819" y="111.12" width="1.077" height="5.592" fill="#fff"/><rect x="22.444" y="111.12" width="1.077" height="5.592" fill="#fff"/><rect x="25.017" y="111.12" width="1.077" height="5.592" fill="#fff"/><rect x="27.642" y="111.12" width="1.077" height="5.592" fill="#fff"/><rect x="30.256" y="111.114" width="1.1" height="5.592" fill="#fff"/><rect x="32.939" y="111.114" width="1.1" height="5.592" fill="#fff"/><rect x="35.566" y="111.114" width="1.1" height="5.592" fill="#fff"/><rect x="38.249" y="111.114" width="1.1" height="5.592" fill="#fff"/><rect x="40.892" y="111.108" width="1.1" height="5.592" fill="#fff"/><rect x="43.574" y="111.108" width="1.1" height="5.592" fill="#fff"/><rect x="46.202" y="111.108" width="1.1" height="5.592" fill="#fff"/><rect x="48.884" y="111.108" width="1.1" height="5.592" fill="#fff"/><ellipse cx="2.055" cy="112.357" rx="1.152" ry="1.035" fill="#fff"/><ellipse cx="2.055" cy="115.072" rx="1.152" ry="1.035" fill="#0864c2"/><rect y="121.878" width="51.872" height="6.694" fill="url(#linear-gradient-16)"/><rect x="9.408" y="122.545" width="1.077" height="5.592" fill="#fff"/><rect x="12.034" y="122.545" width="1.077" height="5.592" fill="#fff"/><rect x="4.05" y="122.548" width="1.077" height="5.592" fill="#fff"/><rect x="6.676" y="122.548" width="1.077" height="5.592" fill="#fff"/><rect x="14.606" y="122.545" width="1.077" height="5.592" fill="#fff"/><rect x="17.232" y="122.545" width="1.077" height="5.592" fill="#fff"/><rect x="19.819" y="122.539" width="1.077" height="5.592" fill="#fff"/><rect x="22.444" y="122.539" width="1.077" height="5.592" fill="#fff"/><rect x="25.017" y="122.539" width="1.077" height="5.592" fill="#fff"/><rect x="27.642" y="122.539" width="1.077" height="5.592" fill="#fff"/><rect x="30.256" y="122.533" width="1.1" height="5.592" fill="#fff"/><rect x="32.939" y="122.533" width="1.1" height="5.592" fill="#fff"/><rect x="35.566" y="122.533" width="1.1" height="5.592" fill="#fff"/><rect x="38.249" y="122.533" width="1.1" height="5.592" fill="#fff"/><rect x="40.892" y="122.527" width="1.1" height="5.592" fill="#fff"/><rect x="43.574" y="122.527" width="1.1" height="5.592" fill="#fff"/><rect x="46.202" y="122.527" width="1.1" height="5.592" fill="#fff"/><rect x="48.884" y="122.527" width="1.1" height="5.592" fill="#fff"/><ellipse cx="2.055" cy="123.776" rx="1.152" ry="1.035" fill="#fff"/><ellipse cx="2.055" cy="126.491" rx="1.152" ry="1.035" fill="#0864c2"/><rect y="132.842" width="51.872" height="6.694" fill="url(#linear-gradient-17)"/><rect x="9.408" y="133.509" width="1.077" height="5.592" fill="#fff"/><rect x="12.034" y="133.509" width="1.077" height="5.592" fill="#fff"/><rect x="4.05" y="133.512" width="1.077" height="5.592" fill="#fff"/><rect x="6.676" y="133.512" width="1.077" height="5.592" fill="#fff"/><rect x="14.606" y="133.509" width="1.077" height="5.592" fill="#fff"/><rect x="17.232" y="133.509" width="1.077" height="5.592" fill="#fff"/><rect x="19.819" y="133.503" width="1.077" height="5.592" fill="#fff"/><rect x="22.444" y="133.503" width="1.077" height="5.592" fill="#fff"/><rect x="25.017" y="133.503" width="1.077" height="5.592" fill="#fff"/><rect x="27.642" y="133.503" width="1.077" height="5.592" fill="#fff"/><rect x="30.256" y="133.497" width="1.1" height="5.592" fill="#fff"/><rect x="32.939" y="133.497" width="1.1" height="5.592" fill="#fff"/><rect x="35.566" y="133.497" width="1.1" height="5.592" fill="#fff"/><rect x="38.249" y="133.497" width="1.1" height="5.592" fill="#fff"/><rect x="40.892" y="133.491" width="1.1" height="5.592" fill="#fff"/><rect x="43.574" y="133.491" width="1.1" height="5.592" fill="#fff"/><rect x="46.202" y="133.491" width="1.1" height="5.592" fill="#fff"/><rect x="48.884" y="133.491" width="1.1" height="5.592" fill="#fff"/><ellipse cx="2.055" cy="134.74" rx="1.152" ry="1.035" fill="#fff"/><ellipse cx="2.055" cy="137.455" rx="1.152" ry="1.035" fill="#0864c2"/><path d="M121.736,13.255l2.285-1.683c-.462-2.181-.486-2.292-.949-4.473l-2.737-.451-1.25-1.686.2-2.971L115.443,0l-2.034,2.022H111.4L109.37,0l-3.843,1.991.2,2.971-1.251,1.686-2.737.451c-.463,2.181-.486,2.292-.949,4.473l2.285,1.683c.171.809.274,1.3.446,2.1l-1.38,2.583c1.3,1.75,1.363,1.838,2.659,3.588l2.648-.873,1.807.936,1.017,2.771h4.265l1.017-2.771,1.807-.936,2.648.873c1.3-1.75,1.362-1.838,2.659-3.588l-1.38-2.583C121.462,14.55,121.565,14.064,121.736,13.255Zm-9.329,5.774a6.62,6.62,0,0,1-6.366-6.847,6.382,6.382,0,1,1,12.731,0A6.62,6.62,0,0,1,112.407,19.029Z" fill="url(#linear-gradient-18)"/><path d="M131.044,16.336l.9-.662-.373-1.76-1.077-.177L130,13.073l.079-1.169-1.512-.783-.8.8h-.789l-.8-.8-1.512.783.079,1.169-.492.664-1.077.177-.373,1.76.9.662.175.828-.543,1.016c.51.689.536.723,1.047,1.412l1.041-.344.711.369.4,1.09h1.679l.4-1.09.711-.369,1.041.344c.511-.689.537-.723,1.047-1.412l-.543-1.016Zm-3.671,2.272a2.6,2.6,0,0,1-2.5-2.694,2.511,2.511,0,1,1,5.009,0A2.6,2.6,0,0,1,127.373,18.608Z" fill="url(#linear-gradient-19)"/><rect x="81.198" y="29.61" width="62.416" height="5.702" rx="1.197" fill="#007bff"/><rect x="83.387" y="30.12" width="30.934" height="4.681" rx="0.983" fill="#fff"/><polygon points="114.321 36.75 117.654 36.75 115.988 39.856 114.321 42.961 112.654 39.856 110.988 36.75 114.321 36.75" fill="#007bff"/><path d="M130.584,39.888s-5.391,5.716.69,9.31c0,0,.551,1.825-.273,2.364l-.038,3.269s2.777,2.979,3.305,3.04,2.2-1.308,2.295-1.508-.713-1.774-.553-3.164a14.463,14.463,0,0,0,.244-4.129c-.038-3.668-.009-5.919-.9-6.8s-1.891-2.826-2.57-2.905A7.016,7.016,0,0,0,130.584,39.888Z" fill="#ffbdbd"/><path d="M131.6,81.674s-3.334-6.489-11.02-3.5c0,0-1.9,15.079-1.712,18.561,0,0-.444,5.506-3.91,7.846h2.268a5.939,5.939,0,0,0,2.207-4.871s5.109-11.264,5.427-17.15l.694-.7s8.051,16.462,9.184,18.3c0,0-1.388,3.838-2.459,4.418h1.826s3.088-3.087,2.648-4.164C136.758,100.413,132.739,82.434,131.6,81.674Z" fill="#ffbdbd"/><polygon points="119.479 100.755 120.115 102.984 117.813 105.886 114.092 105.886 114.449 104.452 115.598 103.975 117.104 104.175 119.479 100.755" fill="#0062cc"/><polygon points="136.835 100.581 137.471 102.809 135.169 105.712 131.448 105.712 131.806 104.278 132.954 103.801 134.46 104.001 136.835 100.581" fill="#0062cc"/><path d="M137.139,54.23s-2.894,1.418-3.029,2.364-1.411-2.968-2.353-2.364-.473,4.12-.473,4.12.042,9.533-.117,10.344.3,4.259,0,4.732-3.189,0-3.189,0-6.729,2.969-7.066,3.509a4.366,4.366,0,0,0-.472,1.893c0,.406,3.1-1.628,6.122,0s4.976,3.117,5.244,3.928,9.553,0,9.553,0,4.911-.8,4.242-7.292c0,0-1.478-3.517-2.352-3.653s-1.479-.677-2.152-.271-1.279.675-1.548.4-1.275-5.477-1.677-6.491a51.606,51.606,0,0,1-1.14-7.1c0-.609.676-4.188.676-4.188Z" fill="#fff"/><path d="M131.037,41.545s-2.494,2.052-2.44,3.548c0,0-1.926-5.863,4.633-6.912,0,0,6.279.408,4.939,7.17,0,0-1.278,1.874-.352,3.365a3.109,3.109,0,0,1,.263,3.329s-1.4,2.392.862,2.335c0,0-1.549,3.651-5.508.745,0,0-1.175-3.542,1.1-4.661,0,0-1.94-2.779-.1-4.056C134.433,46.408,130.947,44.3,131.037,41.545Z" fill="#0b0b4f"/><path d="M141.813,59.923c.012-.071.024-.142.039-.214a24.523,24.523,0,0,0-.22-3.588,18.985,18.985,0,0,0-.749-2.939,3.794,3.794,0,0,0-.731-1.324c-.008-.009-.013-.018-.02-.027-1.215-.144-2.439-.4-2.672-.872a24.017,24.017,0,0,0-1.406,7.415h-.008a17.083,17.083,0,0,1-.456,4.358,10.5,10.5,0,0,1-1.871,4.513,7.182,7.182,0,0,1-2.2,1.783V50.035l-1.6,1.959c-3.764,4.968-7.81,16.093-7.81,16.093l3.76.282a30.108,30.108,0,0,0,1.1-2.837c.767-2.32.98-3.9,1.655-3.974.327-.037.608.3.733.444,1.244,1.413,1.236,4.867,1.006,7.544a10.545,10.545,0,0,1-2.414.556q.768,1.93,1.535,3.86c.292-.26.574-.5.847-.717l1.192.517V72.343c.271-.192.528-.368.753-.515,1.313-.853,1.777-.962,3.039-1.849a8.034,8.034,0,0,0,2.544-2.24c.044-.075.075-.148.111-.222.49,2.31,1.114,5.663.8,6.47,0,0,3.552.842,4.807-2.027C143.575,71.96,139.577,67.457,141.813,59.923Z" fill="url(#linear-gradient-20)"/><polygon points="136.733 73.1 126.383 72.95 118.2 75.662 131.005 75.813 136.733 73.1" fill="url(#linear-gradient-21)"/><polygon points="130.365 75.662 126.245 66.044 114.33 65.893 118.2 75.662 130.365 75.662" fill="url(#linear-gradient-22)"/><ellipse cx="121.723" cy="70.777" rx="1.263" ry="1.269" fill="#fff"/><circle cx="120.52" cy="70.42" r="0.768" fill="#fff"/><circle cx="123.009" cy="71.03" r="0.768" fill="#fff"/></g></g></svg>