<svg xmlns="http://www.w3.org/2000/svg" viewBox="0 0 1366 1108"><defs><style>.a{fill:#1e89c1;}.b{fill:#0c4d8e;}.c{fill:#fff;}.d{fill:#fe7f32;}</style></defs><rect class="a" x="280.6" y="271.2" width="490.2" height="581.99"/><rect class="b" x="34" y="212.1" width="993.4" height="190.65" rx="50"/><circle class="c" cx="144.4" cy="307.4" r="30.1"/><circle class="c" cx="259.1" cy="307.1" r="30.1"/><rect class="c" x="438.2" y="287" width="521.8" height="47.3"/><rect class="b" x="34" y="451.5" width="993.4" height="190.65" rx="50"/><circle class="c" cx="144.4" cy="546.8" r="30.1"/><circle class="c" cx="259.1" cy="546.5" r="30.1"/><rect class="c" x="438.2" y="526.4" width="521.8" height="47.3"/><rect class="b" x="34" y="690.9" width="993.4" height="190.65" rx="50"/><circle class="c" cx="1074.7" cy="731.4" r="130.4"/><circle class="c" cx="144.4" cy="786.2" r="30.1"/><circle class="c" cx="259.1" cy="785.9" r="30.1"/><rect class="c" x="438.2" y="765.8" width="521.8" height="47.3"/><path class="d" d="M1132,405c-25.8,13.1-52.8,16.3-81,9.8-10-2.3-19.4-6.1-28.7-10.3-1.5-.7-4.1-2.6-4.9.2-1.3,4.7-.9,9.7-.4,14.5s3.9,4.5,6.5,6c17.4,9.6,35.9,15.2,56,14.9,16.9.2,32.4-4.7,47.4-12.1,8.7-4.3,13-9.5,11.2-19.5C1137,402.9,1137,402.4,1132,405Z"/><path class="d" d="M1113,719.2c-6.8-4.6-14.6-7-22.4-9.1-3.5-.9-5.2-2.6-5.1-6.4.2-6.1,0-12.2.1-18.4.1-4.1,1.5-4.8,5.1-2.7s6.7,6.5,8.1,11.1c.8,2.8,2.4,3.9,5.3,3.6,4.7-.3,9.4-.3,14.1-.5s7.2-1.7,5.7-7.6c-3.5-13.6-11.2-24.2-25.3-27.2-10-2.2-15.3-5.8-13.2-16.6a3.5,3.5,0,0,0-2.4-4.2c-8.8-3.1-13.8.4-13.8,9.6a19.2,19.2,0,0,0,0,2.4c.4,3.9-1.2,6.1-5.3,6.4a39.4,39.4,0,0,0-10.7,2.9c-12,4.8-19.9,13.4-21.7,26.4s3.1,24.3,14.4,32.2c5.6,3.9,12,6.3,18.5,8.2,3.6,1,4.9,3,4.8,6.6-.1,8.1,0,16.2-.1,24.3,0,1.6.6,3.8-1.5,4.7s-3.4-.6-4.9-1.5a24.1,24.1,0,0,1-10.5-15.2c-.9-3.8-3.1-5-6.6-4.5s-9,1.2-13.5,1.4-5.6,2.5-4.7,6.7c4.3,18.8,15.2,31,34.5,35,7.6,1.6,7.6,1.7,7.2,9.7-.1,2.4.4,4,.3,6.7a2.2,2.2,0,0,0,.2,1.1,2.6,2.6,0,0,0,1,.7c4.2,1.7,9.1,2.4,13.3.5a3.5,3.5,0,0,0,1.7-1.2c1.5-2,.1-5.6,1.1-8a12.3,12.3,0,0,1,5.6-6.1c1.7-.9,3.6-1.2,5.3-2s3.7-2.5,5.8-3.1l2.1-.5a11.9,11.9,0,0,0,3.5-1.9c11.2-7.9,19-18.4,19.3-32.5C1128.6,738.1,1123.1,726.1,1113,719.2Zm-43.8-22.3c-.1,7.2-1.6,8-7.9,4.3s-6.9-6.7-5.9-11.5,5.5-7.9,10-8.8c2.6-.4,3.6.6,3.7,3v8.2h.1Zm16.4,42.9c0-3.1,1.3-4.3,4.6-3.6,7.6,1.7,13.1,7.3,13,13.6s-6.4,14.4-13.4,15.8c-2.7.6-4.1-.3-4.1-3.1s-.1-7.7-.1-11.6h0Z"/><polygon class="d" points="1232.9 297 1232.9 386.5 1200.5 386.5 1265.3 460.5 1330 386.5 1294.4 386.5 1294.4 297 1232.9 297"/><path class="d" d="M1016.3,848.2a57.5,57.5,0,0,1-1.3,8.8c-1,4-9-11,3,6s12,19,12,19-7,2-8,2,0,3-7,0-12-3-12-4-5-11-5-12v-7s8-6,9-8S1016.3,848.2,1016.3,848.2Z"/><path class="d" d="M1277.5,662.6c-9.7-25.8-22.9-49.8-38.3-72.7a501.4,501.4,0,0,0-41.8-53.4c-24.5-27.5-45-57.5-54.8-93.7-1.1-4.1-2.7-4.8-6.4-2.6a167.9,167.9,0,0,1-33.6,14.9c-9.1,2.8-14,8.8-14.8,18.2s2.3,16.3,7,23.3,9.9,13.2,14.5,20c16.8,24.6,9.7,56.5-15.4,71-4.9,2.8-9.7,4.4-15,.9l-1-1.1c-1.5-8.1-.8-9.7,6.4-13.6,17-9,22.7-29.3,12.6-45.5-3.2-5.2-7-10.1-10.7-15-8.4-11.4-15-23.4-15-38.1,0-1.8.8-4.3-1.4-5.2s-3.6.8-5.2,1.9c-13.4,9.4-22.9,21.6-27.1,37.7-2.6,9.7-3.8,19.7-7.2,29.2h0c-2.3.3-3.5-1.3-4.9-2.7s-5.5-5.4-8.3-8.1c-.1-.9-.1-1.8-.2-2.8h0c.7-3.1,1.5-6.3,2.1-9.4,3.6-20.3,12.2-37.8,28-51.3,3.9-3.3,8.1-6.2,12.2-9.3-1-1.7-2.4-1.6-3.6-1.9a142.8,142.8,0,0,1-36-12.7c-5.9-3-6-2.9-7.8,3.4a183,183,0,0,1-23.9,52.2c-.6.6-1,1.2-.8,1.8a3.2,3.2,0,0,0-1.2,1.1c-3.4,6.3-7.8,11.9-12.1,17.6-13.8,18.3-30.3,34.3-44,52.8-25.4,34.5-46.6,71-58.8,112.4-6.1,21-8.8,42.5-6.8,64.2,2.8,30.8,15.3,57.6,36.8,79.9s49.4,41.5,80.9,51.6c3.1-.3,2.4,4.4,5.5,4.1,2.1-3.2,4.6-2.4,7.7-1.6s1.5,3.6,3.3,4.6,4.8-.7,7.3-.9a8.4,8.4,0,0,0,1.6-.7l-.2.3q-.1,0-.3.3t.3.6c41.7,9.3,83.6,10,125.7,3.1s79.1-22.7,110.6-51.2c22.5-20.3,38.7-44.6,44.8-74.7C1295,727.5,1289.5,694.6,1277.5,662.6Zm-163.9-35.1.4-.5a2.4,2.4,0,0,1-.6.9A.5.5,0,0,0,1113.6,627.5Zm-99.1,254.2h-3c-2.2-.1-3.4-.7-5.2-3.3s-3.6-4.8-3.7-8.1c-.2-5.6,2.7-10.8,7-14.3-6.8,5.6-10.1,17.4-1.5,22.9a12.9,12.9,0,0,0,12.5.7C1018.5,880.6,1016.9,881.6,1014.5,881.7ZM1169,763.2c-8.1,18.5-21.8,34.7-39.2,45.1-14.5,8.7-30.9,13.5-47.5,17.1-3.6.8-8.2,1.7-12.1,1s-6.5-2.1-9.7-3.5c-9.7-4.2-20.1-6.6-29.7-11a88.1,88.1,0,0,1-28.6-22,101.7,101.7,0,0,1-24.8-64.8c-.5-33.7,16.5-67.4,45.2-85.2,26.2-16.2,59.9-20.8,89.1-10.5l1.3.4c2,2.4,5.4,2.7,8.3,3.7a27.3,27.3,0,0,1,6,2.8c29.7,17.5,49.5,51,50.2,85.5A98.5,98.5,0,0,1,1169,763.2Z"/><path class="d" d="M963.7,289.1c2.6,7.6,7,14.1,11.4,20.7.1.3.1.6.2.9.7,8.8,7.6,13.3,13.4,18.5l1.1.9c9.5,11.9,17.2,24.9,20.9,39.6,2.6,10.4,7.9,16.9,17.5,20.4l1.3.7c37,17.7,72.7,16.2,107.3-6.4a10.5,10.5,0,0,0,4.6-6.5c4.8-19,13.7-35.8,25.8-51.1a225.8,225.8,0,0,0,19.5-28.3c2.8-4.8,5.4-9.7,5.8-15.3s-1.9-7.9-7.2-8.2a27.5,27.5,0,0,0-5.7.5c-12.3,2.2-23.3,7.8-34.4,12.9-13.7,6.2-27.7,6.7-41.5,1.3a67.4,67.4,0,0,0-40.4-3.3,96.8,96.8,0,0,1-28.9,2,5.8,5.8,0,0,0-4.3-1.8,2.7,2.7,0,0,0-1.1,2.2c-.2-.6-.5-1.1-.7-1.7a4.5,4.5,0,0,0-2,.1c-1.3-.2,4.7-2.2-3.3-2.2h-10c-1,0-3,1-5,0s-3.9-2.2-5.5-2.8l-.3-.5c-1.2-.6-2,.2-2.9.8-2.6,0-4.9-1.3-7.4-2.1-7.1-2.4-14.2-5.5-21.9-5.4-6.2.2-8.4,2.8-7.6,9A22.5,22.5,0,0,0,963.7,289.1Zm67.2,4.5a11.7,11.7,0,0,0-.7-2.5A3,3,0,0,1,1030.9,293.6Z"/></svg>